<svg width="15" height="17" viewBox="0 0 15 17" fill="none" xmlns="http://www.w3.org/2000/svg">
<path d="M7.65587 9.10935C5.40588 9.10935 3.62463 7.28123 3.62463 5.07811C3.62463 2.87499 5.40588 1 7.65587 1C9.90586 1 11.6871 2.82812 11.6871 5.03124C11.6871 7.23436 9.90586 9.10935 7.65587 9.10935ZM7.65587 1.79687C5.87463 1.79687 4.37463 3.24999 4.37463 5.07811C4.37463 6.90623 5.82775 8.35935 7.65587 8.35935C9.48399 8.35935 10.9371 6.90623 10.9371 5.07811C10.9371 3.24999 9.43712 1.79687 7.65587 1.79687Z" fill="#000000" stroke="#000D35" stroke-width="0.3"/>
<path d="M14.3125 16H13.5156V14.9687C13.5156 11.7344 10.8906 9.10937 7.65623 9.10937C4.42186 9.10937 1.79687 11.7344 1.79687 14.9687V16H1V14.9687C1 11.3125 3.99999 8.3125 7.65623 8.3125C11.3125 8.3125 14.3125 11.3125 14.3125 14.9687V16Z" fill="#000D35" stroke="#000D35" stroke-width="0.3"/>
</svg>
