<svg width="15" height="15" viewBox="0 0 15 15" fill="none" xmlns="http://www.w3.org/2000/svg">
<path d="M14.0898 7.12109C14.3633 7.2487 14.5 7.45833 14.5 7.75C14.5 8.04167 14.3633 8.2513 14.0898 8.37891L11.3828 9.55469L14.0898 10.7305C14.3633 10.8581 14.5 11.0768 14.5 11.3867C14.5 11.6784 14.3633 11.8789 14.0898 11.9883L7.9375 14.668C7.79167 14.7227 7.64583 14.75 7.5 14.75C7.35417 14.75 7.20833 14.7227 7.0625 14.668L0.910156 11.9883C0.636719 11.8789 0.5 11.6784 0.5 11.3867C0.5 11.0768 0.636719 10.8581 0.910156 10.7305L3.61719 9.55469L0.910156 8.37891C0.636719 8.2513 0.5 8.04167 0.5 7.75C0.5 7.45833 0.636719 7.2487 0.910156 7.12109L3.61719 5.94531L0.910156 4.76953C0.636719 4.64193 0.5 4.43229 0.5 4.14062C0.5 3.83073 0.636719 3.62109 0.910156 3.51172L7.0625 0.832031C7.35417 0.704427 7.64583 0.704427 7.9375 0.832031L14.0898 3.51172C14.3633 3.62109 14.5 3.83073 14.5 4.14062C14.5 4.43229 14.3633 4.64193 14.0898 4.76953L11.3555 5.94531L14.0898 7.12109ZM1.73047 4.14062L7.41797 6.60156C7.47266 6.61979 7.52734 6.61979 7.58203 6.60156L13.2695 4.14062L7.58203 1.67969C7.52734 1.64323 7.47266 1.64323 7.41797 1.67969L1.73047 4.14062ZM13.2695 11.3594L10.2344 10.0469L7.9375 11.0586C7.79167 11.1133 7.64583 11.1406 7.5 11.1406C7.35417 11.1406 7.20833 11.1133 7.0625 11.0586L4.76562 10.0469L1.73047 11.3594L7.41797 13.8203C7.47266 13.8568 7.52734 13.8568 7.58203 13.8203L13.2695 11.3594ZM7.58203 10.2109L13.2695 7.75L10.2344 6.4375L7.9375 7.42188C7.79167 7.49479 7.64583 7.53125 7.5 7.53125C7.35417 7.53125 7.20833 7.49479 7.0625 7.42188L4.76562 6.4375L1.73047 7.75L7.41797 10.2109C7.47266 10.2292 7.52734 10.2292 7.58203 10.2109Z" fill="#000D35"/>
</svg>
