<svg width="11" height="5" viewBox="0 0 11 5" fill="none" xmlns="http://www.w3.org/2000/svg">
    <path
        fill-rule="evenodd"
        clip-rule="evenodd"
        d="M5.46805 4.99902C5.33595 4.99245 5.21038 4.942 5.113 4.85636L0.682083 0.943514C0.533023 0.811249 0.46905 0.612952 0.514263 0.423326C0.559476 0.2337 0.707006 0.0815564 0.901274 0.0242106C1.09554 -0.0331351 1.30703 0.0130301 1.45607 0.145315L5.5 3.71511L9.54393 0.145315C9.69297 0.0130301 9.90446 -0.0331351 10.0987 0.0242106C10.293 0.0815564 10.4405 0.2337 10.4857 0.423326C10.5309 0.612952 10.467 0.811249 10.3179 0.943514L5.88699 4.85636C5.77341 4.9564 5.62216 5.0079 5.46805 4.99902Z"
        fill="#3D4767"
    />
</svg>