<svg width="5" height="11" viewBox="0 0 5 11" fill="none" xmlns="http://www.w3.org/2000/svg">
    <path
        fill-rule="evenodd"
        clip-rule="evenodd"
        d="M4.99902 5.53195C4.99245 5.66405 4.942 5.78962 4.85636 5.887L0.943514 10.3179C0.811249 10.467 0.612952 10.5309 0.423326 10.4857C0.2337 10.4405 0.0815564 10.293 0.0242106 10.0987C-0.0331351 9.90446 0.0130301 9.69297 0.145315 9.54393L3.71511 5.5L0.145315 1.45607C0.0130301 1.30703 -0.0331351 1.09554 0.0242106 0.901274C0.0815564 0.707006 0.2337 0.559477 0.423326 0.514264C0.612952 0.469051 0.811249 0.533023 0.943514 0.682082L4.85636 5.11301C4.9564 5.22659 5.0079 5.37784 4.99902 5.53195Z"
        fill="#3D4767"
    />
</svg>