<svg width="12" height="10" viewBox="0 0 12 10" fill="none" xmlns="http://www.w3.org/2000/svg">
<path d="M11.6041 4.90683C11.6041 4.75398 11.5438 4.61924 11.4231 4.50259L7.42292 0.514499C7.35857 0.450142 7.2922 0.403886 7.22382 0.37573C7.15947 0.347574 7.09109 0.333496 7.01869 0.333496C6.86986 0.333496 6.74517 0.383775 6.64461 0.484332C6.54406 0.580866 6.49378 0.703546 6.49378 0.85237C6.49378 0.924771 6.50585 0.995161 6.52998 1.06354C6.55411 1.1279 6.59031 1.18421 6.63858 1.23248L7.99007 2.6081L10.3853 4.79219L10.506 4.49052L8.56324 4.36985H0.930965C0.774096 4.36985 0.645383 4.42013 0.544826 4.52069C0.448292 4.62125 0.400024 4.74996 0.400024 4.90683C0.400024 5.0637 0.448292 5.19241 0.544826 5.29297C0.645383 5.39353 0.774096 5.4438 0.930965 5.4438H8.56324L10.506 5.32314L10.3853 5.0275L7.99007 7.20556L6.63858 8.58118C6.59031 8.62945 6.55411 8.68777 6.52998 8.75615C6.50585 8.82051 6.49378 8.88889 6.49378 8.96129C6.49378 9.11011 6.54406 9.23279 6.64461 9.32933C6.74517 9.42988 6.86986 9.48016 7.01869 9.48016C7.16349 9.48016 7.29421 9.42385 7.41086 9.31123L11.4231 5.31107C11.5438 5.19442 11.6041 5.05968 11.6041 4.90683Z" fill="#3D4767"/>
</svg>
