<svg viewBox="0 0 16 30" xmlns="http://www.w3.org/2000/svg">
<path d="M1.24998 8.08062L12.9619 8.08061L9.05728 12.7258L9.8601 13.5L14.604 7.88707C14.7135 7.77094 14.75 7.65481 14.75 7.49997C14.75 7.34513 14.7135 7.229 14.604 7.11287L9.8601 1.49997L9.05728 2.27416L12.9984 6.91932L1.24998 6.91933L1.24998 8.08062Z" fill="#2CD2CF" stroke="#9C55F6" stroke-width="1.4"/>
<path d="M14.75 21.9193L3.03808 21.9193L6.94269 17.2742L6.13987 16.5L1.39595 22.1129C1.28648 22.229 1.24999 22.3451 1.24999 22.5C1.24999 22.6548 1.28648 22.7709 1.39595 22.8871L6.13987 28.5L6.94269 27.7258L3.00159 23.0806L14.75 23.0806L14.75 21.9193Z" fill="#2CD2CF" stroke="#9C55F6" stroke-width="1.4"/>
</svg>
