<svg width="12" height="10" viewBox="0 0 12 10" fill="none" xmlns="http://www.w3.org/2000/svg">
<path d="M0.396037 4.90683C0.396037 4.75398 0.456372 4.61924 0.57704 4.50259L4.5772 0.514499C4.64155 0.450142 4.70792 0.403886 4.7763 0.37573C4.84066 0.347574 4.90904 0.333496 4.98144 0.333496C5.13026 0.333496 5.25495 0.383775 5.35551 0.484332C5.45607 0.580866 5.50634 0.703546 5.50634 0.85237C5.50634 0.924771 5.49428 0.995161 5.47014 1.06354C5.44601 1.1279 5.40981 1.18421 5.36154 1.23248L4.01006 2.6081L1.61479 4.79219L1.49412 4.49052L3.43688 4.36985H11.0692C11.226 4.36985 11.3547 4.42013 11.4553 4.52069C11.5518 4.62125 11.6001 4.74996 11.6001 4.90683C11.6001 5.0637 11.5518 5.19241 11.4553 5.29297C11.3547 5.39353 11.226 5.4438 11.0692 5.4438H3.43688L1.49412 5.32314L1.61479 5.0275L4.01006 7.20556L5.36154 8.58118C5.40981 8.62945 5.44601 8.68777 5.47014 8.75615C5.49428 8.82051 5.50634 8.88889 5.50634 8.96129C5.50634 9.11011 5.45607 9.23279 5.35551 9.32933C5.25495 9.42988 5.13026 9.48016 4.98144 9.48016C4.83663 9.48016 4.70591 9.42385 4.58926 9.31123L0.57704 5.31107C0.456372 5.19442 0.396037 5.05968 0.396037 4.90683Z" fill="#3D4767"/>
</svg>
