<svg width="16" height="16" viewBox="0 0 16 16" fill="none" xmlns="http://www.w3.org/2000/svg">
<path d="M13.0553 2.1669H11.8884V1H11.1106V2.1669H4.8887V1H4.11096V2.1669H2.94469C1.87245 2.1669 1 3.0393 1 4.1115V13.0554C1 14.1276 1.87245 15 2.94469 15H13.0553C14.1275 15 15 14.1276 15 13.0554V6.0554V5.2777V4.1108C14.9993 3.03861 14.1269 2.1669 13.0553 2.1669ZM14.2216 13.0547C14.2216 13.6976 13.6982 14.2209 13.0553 14.2209H2.94469C2.30107 14.2209 1.77774 13.6976 1.77774 13.0547V6.0554H14.2216V13.0547ZM14.2216 5.2777H1.77774V4.1108C1.77774 3.46721 2.30107 2.94391 2.94469 2.94391H4.11165V3.72161H4.8887V2.9446H11.1106V3.7223H11.8884V2.9446H13.0553C13.6982 2.9446 14.2216 3.46721 14.2216 4.1108V5.2777Z" fill="#646F85" stroke="#646F85" stroke-width="0.25"/>
</svg>
