<svg width="44" height="43" viewBox="0 0 44 43" fill="none" xmlns="http://www.w3.org/2000/svg">
<g clip-path="url(#clip0_11123_7348)">
<path d="M30.3699 14.1461C34.2763 14.1461 37.443 10.9794 37.443 7.07306C37.443 3.16671 34.2763 0 30.3699 0C26.4636 0 23.2969 3.16671 23.2969 7.07306C23.2969 10.9794 26.4636 14.1461 30.3699 14.1461Z" fill="white"/>
<path d="M30.5898 1.76758V5.6887L33.904 7.16962L30.5898 1.76758Z" fill="#627EEA" fill-opacity="0.602"/>
<path d="M30.59 1.76758L27.2754 7.16962L30.59 5.6887V1.76758Z" fill="#627EEA"/>
<path d="M30.5898 9.71098V12.3753L33.9062 7.78711L30.5898 9.71098Z" fill="#627EEA" fill-opacity="0.602"/>
<path d="M30.59 12.3753V9.71054L27.2754 7.78711L30.59 12.3753Z" fill="#627EEA"/>
<path d="M30.5898 9.0938L33.904 7.16949L30.5898 5.68945V9.0938Z" fill="#627EEA" fill-opacity="0.4"/>
<path d="M27.2754 7.16949L30.59 9.0938V5.68945L27.2754 7.16949Z" fill="#627EEA" fill-opacity="0.602"/>
<g clip-path="url(#clip1_11123_7348)">
<path d="M37.443 7.07305C37.443 10.9785 34.276 14.145 30.3682 14.1455C26.4633 14.1455 23.2963 10.9785 23.2969 7.07249C23.2957 3.16647 26.4627 0 30.3694 0C34.276 0 37.443 3.16703 37.443 7.07305Z" fill="white"/>
<path d="M33.1529 5.33958C33.0617 4.39235 32.244 4.07491 31.2106 3.98438V2.66992H30.4109V3.9493C30.2009 3.9493 29.9859 3.95326 29.7725 3.95778V2.66992H28.9729L28.9723 3.98325C28.7991 3.98664 28.6288 3.99004 28.4629 3.99004V3.98608L27.3599 3.98551V4.83994C27.3599 4.83994 27.9508 4.82862 27.9406 4.83937C28.2649 4.83937 28.3701 5.02723 28.4007 5.18963V6.68685C28.4233 6.68685 28.4522 6.68798 28.485 6.69251H28.4007L28.4001 8.7901C28.386 8.89195 28.326 9.05435 28.0996 9.05491C28.1098 9.06397 27.5184 9.05491 27.5184 9.05491L27.3594 10.0101H28.4007C28.5942 10.0101 28.785 10.0135 28.9717 10.0146L28.9723 11.3438H29.7714V10.0287C29.9904 10.0333 30.2026 10.035 30.4103 10.035L30.4098 11.3438H31.2094V10.0174C32.5541 9.94046 33.4964 9.60152 33.613 8.33855C33.7075 7.32173 33.2293 6.86736 32.4658 6.68402C32.9304 6.44863 33.2208 6.03274 33.1529 5.33958ZM32.0334 8.18125C32.0334 9.1743 30.3328 9.0617 29.7901 9.0617V7.30023C30.3328 7.30136 32.0334 7.14575 32.0334 8.18125ZM31.661 5.69662C31.661 6.60028 30.2417 6.49447 29.7901 6.49503V4.89822C30.2422 4.89822 31.6616 4.75449 31.661 5.69662Z" fill="#EAB300"/>
<path d="M28.4014 6.65234H28.5202V6.74005H28.4014V6.65234Z" fill="white"/>
<g clip-path="url(#clip2_11123_7348)">
<path d="M37.443 7.07305C37.443 10.9785 34.276 14.145 30.3682 14.1455C26.4633 14.1455 23.2963 10.9785 23.2969 7.07249C23.2957 3.16647 26.4627 0 30.3694 0C34.276 0 37.443 3.16703 37.443 7.07305Z" fill="#EAB300"/>
<path d="M33.1529 5.33958C33.0617 4.39235 32.244 4.07491 31.2106 3.98438V2.66992H30.4109V3.9493C30.2009 3.9493 29.9859 3.95326 29.7725 3.95778V2.66992H28.9729L28.9723 3.98325C28.7991 3.98664 28.6288 3.99004 28.4629 3.99004V3.98608L27.3599 3.98551V4.83994C27.3599 4.83994 27.9508 4.82862 27.9406 4.83937C28.2649 4.83937 28.3701 5.02723 28.4007 5.18963V6.68685C28.4233 6.68685 28.4522 6.68798 28.485 6.69251H28.4007L28.4001 8.7901C28.386 8.89195 28.326 9.05435 28.0996 9.05491C28.1098 9.06397 27.5184 9.05491 27.5184 9.05491L27.3594 10.0101H28.4007C28.5942 10.0101 28.785 10.0135 28.9717 10.0146L28.9723 11.3438H29.7714V10.0287C29.9904 10.0333 30.2026 10.035 30.4103 10.035L30.4098 11.3438H31.2094V10.0174C32.5541 9.94046 33.4964 9.60152 33.613 8.33855C33.7075 7.32173 33.2293 6.86736 32.4658 6.68402C32.9304 6.44863 33.2208 6.03274 33.1529 5.33958ZM32.0334 8.18125C32.0334 9.1743 30.3328 9.0617 29.7901 9.0617V7.30023C30.3328 7.30136 32.0334 7.14575 32.0334 8.18125ZM31.661 5.69662C31.661 6.60028 30.2417 6.49447 29.7901 6.49503V4.89822C30.2422 4.89822 31.6616 4.75449 31.661 5.69662Z" fill="white"/>
<path d="M28.4023 6.65234H28.5212V6.74005H28.4023V6.65234Z" fill="white"/>
</g>
</g>
</g>
<g clip-path="url(#clip3_11123_7348)">
<path d="M21.0875 20.4055C24.3638 20.4055 27.0198 17.7495 27.0198 14.4733C27.0198 11.197 24.3638 8.54102 21.0875 8.54102C17.8112 8.54102 15.1553 11.197 15.1553 14.4733C15.1553 17.7495 17.8112 20.4055 21.0875 20.4055Z" fill="#627EEA"/>
<path d="M21.2725 10.0234V13.3121L24.0521 14.5542L21.2725 10.0234Z" fill="white" fill-opacity="0.602"/>
<path d="M21.2722 10.0234L18.4922 14.5542L21.2722 13.3121V10.0234Z" fill="white"/>
<path d="M21.2725 16.6858V18.9204L24.0539 15.0723L21.2725 16.6858Z" fill="white" fill-opacity="0.602"/>
<path d="M21.2722 18.9204V16.6855L18.4922 15.0723L21.2722 18.9204Z" fill="white"/>
<path d="M21.2725 16.1678L24.0521 14.5538L21.2725 13.3125V16.1678Z" fill="white" fill-opacity="0.2"/>
<path d="M18.4922 14.5538L21.2722 16.1678V13.3125L18.4922 14.5538Z" fill="white" fill-opacity="0.602"/>
</g>
<path d="M15.7319 42.4995C14.0473 42.4995 12.6826 41.1415 12.6826 39.4607C12.6826 37.7799 14.0473 36.4219 15.7319 36.4219C16.5378 36.4219 17.3108 36.742 17.8807 37.3119C18.4505 37.8818 18.7707 38.6548 18.7707 39.4607C18.7707 40.2666 18.4505 41.0396 17.8807 41.6095C17.3108 42.1794 16.5378 42.4995 15.7319 42.4995Z" stroke="white"/>
<path d="M31.9509 42.4995C31.145 42.4995 30.372 42.1794 29.8022 41.6095C29.2323 41.0396 28.9121 40.2666 28.9121 39.4607C28.9121 38.6548 29.2323 37.8818 29.8022 37.3119C30.372 36.742 31.145 36.4219 31.9509 36.4219C33.6359 36.4219 35.0002 37.7796 35.0002 39.4607C35.0002 41.1418 33.6359 42.4995 31.9509 42.4995Z" stroke="white"/>
<path d="M12.4732 24.9681L12.4452 24.8015L9.2926 6.08188C8.95108 4.02226 7.41421 2.40038 5.37564 1.93088L1 0.949219" stroke="white" stroke-miterlimit="10" stroke-linecap="round"/>
<path d="M39.762 33.5261H13.8592C12.0235 33.5261 10.444 32.4058 9.84629 30.6665C9.23803 28.9275 9.79301 27.0707 11.2339 25.9289L12.4719 24.9687H12.7045L30.6688 23.9976C34.3617 23.5602 37.4993 20.9888 38.652 17.4462L43.0491 3.9375" stroke="white" stroke-miterlimit="10" stroke-linecap="round"/>
<defs>
<clipPath id="clip0_11123_7348">
<rect width="14.1461" height="14.1461" fill="white" transform="translate(23.2969)"/>
</clipPath>
<clipPath id="clip1_11123_7348">
<rect width="14.1461" height="14.1461" fill="white" transform="translate(23.2969)"/>
</clipPath>
<clipPath id="clip2_11123_7348">
<rect width="14.1461" height="14.1461" fill="white" transform="translate(23.2969)"/>
</clipPath>
<clipPath id="clip3_11123_7348">
<rect width="11.8645" height="11.8645" fill="white" transform="translate(15.1553 8.54102)"/>
</clipPath>
</defs>
</svg>
