<svg width="44" height="43" viewBox="0 0 44 43" fill="none" xmlns="http://www.w3.org/2000/svg">
<g clip-path="url(#clip0_11267_9959)">
<path d="M30.3707 14.1461C34.277 14.1461 37.4437 10.9794 37.4437 7.07306C37.4437 3.16671 34.277 0 30.3707 0C26.4643 0 23.2976 3.16671 23.2976 7.07306C23.2976 10.9794 26.4643 14.1461 30.3707 14.1461Z" fill="white"/>
<path d="M30.5908 1.76831V5.68944L33.905 7.17036L30.5908 1.76831Z" fill="#627EEA" fill-opacity="0.602"/>
<path d="M30.5909 1.76831L27.2762 7.17036L30.5909 5.68944V1.76831Z" fill="#627EEA"/>
<path d="M30.5908 9.71122V12.3756L33.9072 7.78735L30.5908 9.71122Z" fill="#627EEA" fill-opacity="0.602"/>
<path d="M30.5909 12.3756V9.71078L27.2762 7.78735L30.5909 12.3756Z" fill="#627EEA"/>
<path d="M30.5908 9.09405L33.905 7.16973L30.5908 5.6897V9.09405Z" fill="#627EEA" fill-opacity="0.4"/>
<path d="M27.2762 7.16973L30.5909 9.09405V5.6897L27.2762 7.16973Z" fill="#627EEA" fill-opacity="0.602"/>
<g clip-path="url(#clip1_11267_9959)">
<path d="M37.4437 7.07305C37.4437 10.9785 34.2767 14.145 30.369 14.1455C26.464 14.1455 23.297 10.9785 23.2976 7.07249C23.2965 3.16647 26.4634 0 30.3701 0C34.2767 0 37.4437 3.16703 37.4437 7.07305Z" fill="white"/>
<path d="M33.1533 5.33982C33.0622 4.3926 32.2444 4.07516 31.2111 3.98462V2.67017H30.4114V3.94954C30.2014 3.94954 29.9864 3.9535 29.773 3.95803V2.67017H28.9733L28.9728 3.98349C28.7996 3.98689 28.6293 3.99028 28.4634 3.99028V3.98632L27.3604 3.98575V4.84018C27.3604 4.84018 27.9513 4.82886 27.9411 4.83961C28.2654 4.83961 28.3706 5.02747 28.4012 5.18987V6.6871C28.4238 6.6871 28.4527 6.68823 28.4855 6.69276H28.4012L28.4006 8.79034C28.3865 8.89219 28.3265 9.05459 28.1001 9.05516C28.1103 9.06421 27.5189 9.05516 27.5189 9.05516L27.3599 10.0103H28.4012C28.5947 10.0103 28.7855 10.0137 28.9722 10.0148L28.9728 11.344H29.7719V10.029C29.9909 10.0335 30.2031 10.0352 30.4108 10.0352L30.4103 11.344H31.2099V10.0177C32.5546 9.9407 33.4969 9.60176 33.6134 8.3388C33.708 7.32197 33.2297 6.8676 32.4663 6.68427C32.9309 6.44888 33.2213 6.03298 33.1533 5.33982ZM32.0339 8.18149C32.0339 9.17455 30.3333 9.06195 29.7906 9.06195V7.30047C30.3333 7.3016 32.0339 7.146 32.0339 8.18149ZM31.6615 5.69687C31.6615 6.60052 30.2422 6.49471 29.7906 6.49528V4.89846C30.2427 4.89846 31.6621 4.75474 31.6615 5.69687Z" fill="#EAB300"/>
<path d="M28.4023 6.65259H28.5212V6.74029H28.4023V6.65259Z" fill="white"/>
<g clip-path="url(#clip2_11267_9959)">
<path d="M37.4437 7.07305C37.4437 10.9785 34.2767 14.145 30.369 14.1455C26.464 14.1455 23.297 10.9785 23.2976 7.07249C23.2965 3.16647 26.4634 0 30.3701 0C34.2767 0 37.4437 3.16703 37.4437 7.07305Z" fill="#EAB300"/>
<path d="M33.1536 5.33982C33.0625 4.3926 32.2447 4.07516 31.2113 3.98462V2.67017H30.4116V3.94954C30.2017 3.94954 29.9866 3.9535 29.7733 3.95803V2.67017H28.9736L28.973 3.98349C28.7998 3.98689 28.6295 3.99028 28.4637 3.99028V3.98632L27.3607 3.98575V4.84018C27.3607 4.84018 27.9515 4.82886 27.9413 4.83961C28.2656 4.83961 28.3709 5.02747 28.4014 5.18987V6.6871C28.4241 6.6871 28.4529 6.68823 28.4858 6.69276H28.4014L28.4009 8.79034C28.3867 8.89219 28.3267 9.05459 28.1004 9.05516C28.1105 9.06421 27.5191 9.05516 27.5191 9.05516L27.3601 10.0103H28.4014C28.595 10.0103 28.7857 10.0137 28.9725 10.0148L28.973 11.344H29.7721V10.029C29.9911 10.0335 30.2034 10.0352 30.4111 10.0352L30.4105 11.344H31.2102V10.0177C32.5548 9.9407 33.4971 9.60176 33.6137 8.3388C33.7082 7.32197 33.23 6.8676 32.4665 6.68427C32.9312 6.44888 33.2215 6.03298 33.1536 5.33982ZM32.0342 8.18149C32.0342 9.17455 30.3335 9.06195 29.7908 9.06195V7.30047C30.3335 7.3016 32.0342 7.146 32.0342 8.18149ZM31.6618 5.69687C31.6618 6.60052 30.2424 6.49471 29.7908 6.49528V4.89846C30.243 4.89846 31.6623 4.75474 31.6618 5.69687Z" fill="white"/>
<path d="M28.4026 6.65259H28.5214V6.74029H28.4026V6.65259Z" fill="white"/>
</g>
</g>
</g>
<g clip-path="url(#clip3_11267_9959)">
<path d="M21.088 20.4062C24.3643 20.4062 27.0202 17.7503 27.0202 14.474C27.0202 11.1977 24.3643 8.54175 21.088 8.54175C17.8117 8.54175 15.1558 11.1977 15.1558 14.474C15.1558 17.7503 17.8117 20.4062 21.088 20.4062Z" fill="#627EEA"/>
<path d="M21.2727 10.0249V13.3136L24.0523 14.5557L21.2727 10.0249Z" fill="white" fill-opacity="0.602"/>
<path d="M21.2727 10.0249L18.4927 14.5557L21.2727 13.3136V10.0249Z" fill="white"/>
<path d="M21.2727 16.6868V18.9214L24.0542 15.0732L21.2727 16.6868Z" fill="white" fill-opacity="0.602"/>
<path d="M21.2727 18.9214V16.6864L18.4927 15.0732L21.2727 18.9214Z" fill="white"/>
<path d="M21.2727 16.169L24.0523 14.555L21.2727 13.3137V16.169Z" fill="white" fill-opacity="0.2"/>
<path d="M18.4927 14.555L21.2727 16.169V13.3137L18.4927 14.555Z" fill="white" fill-opacity="0.602"/>
</g>
<path d="M15.7323 42.4988C14.0477 42.4988 12.683 41.1407 12.683 39.46C12.683 37.7792 14.0477 36.4211 15.7323 36.4211C16.5382 36.4211 17.3111 36.7413 17.881 37.3112C18.4509 37.8811 18.7711 38.654 18.7711 39.46C18.7711 40.2659 18.4509 41.0388 17.881 41.6087C17.3111 42.1786 16.5382 42.4988 15.7323 42.4988Z" stroke="white"/>
<path d="M31.9514 42.4988C31.1455 42.4988 30.3725 42.1786 29.8026 41.6087C29.2328 41.0388 28.9126 40.2659 28.9126 39.46C28.9126 38.654 29.2328 37.8811 29.8026 37.3112C30.3725 36.7413 31.1455 36.4211 31.9514 36.4211C33.6364 36.4211 35.0007 37.7789 35.0007 39.46C35.0007 41.1411 33.6364 42.4988 31.9514 42.4988Z" stroke="white"/>
<path d="M12.4732 24.9679L12.4452 24.8012L9.2926 6.08164C8.95108 4.02202 7.41421 2.40013 5.37564 1.93064L1 0.948975" stroke="white" stroke-miterlimit="10" stroke-linecap="round"/>
<path d="M39.762 33.5254H13.8592C12.0235 33.5254 10.444 32.4051 9.84629 30.6657C9.23803 28.9267 9.79301 27.0699 11.2339 25.9281L12.4719 24.968H12.7045L30.6688 23.9969C34.3617 23.5595 37.4993 20.988 38.652 17.4455L43.0491 3.93677" stroke="white" stroke-miterlimit="10" stroke-linecap="round"/>
<defs>
<clipPath id="clip0_11267_9959">
<rect width="14.1461" height="14.1461" fill="white" transform="translate(23.2976)"/>
</clipPath>
<clipPath id="clip1_11267_9959">
<rect width="14.1461" height="14.1461" fill="white" transform="translate(23.2976)"/>
</clipPath>
<clipPath id="clip2_11267_9959">
<rect width="14.1461" height="14.1461" fill="white" transform="translate(23.2976)"/>
</clipPath>
<clipPath id="clip3_11267_9959">
<rect width="11.8645" height="11.8645" fill="white" transform="translate(15.1558 8.54175)"/>
</clipPath>
</defs>
</svg>
