<svg width="85" height="86" viewBox="0 0 85 86" fill="none" xmlns="http://www.w3.org/2000/svg">
<g clip-path="url(#clip0_14472_6824)">
<path d="M31.7982 85.9762C30.5205 85.9762 29.2715 85.5988 28.2091 84.8918C27.1467 84.1848 26.3186 83.1799 25.8296 82.0042C25.3407 80.8284 25.2128 79.5347 25.462 78.2865C25.7113 77.0384 26.3266 75.8919 27.2301 74.992C28.1336 74.0922 29.2847 73.4793 30.5378 73.2311C31.791 72.9828 33.09 73.1102 34.2705 73.5972C35.4509 74.0842 36.4599 74.9089 37.1698 75.967C37.8797 77.0252 38.2585 78.2692 38.2585 79.5418C38.2564 81.2477 37.5751 82.8831 36.3641 84.0893C35.153 85.2955 33.511 85.9741 31.7982 85.9762Z" fill="black"/>
<path d="M65.0195 85.8821C63.6585 86.1537 62.2459 85.9821 60.9904 85.3926C59.7349 84.8031 58.7031 83.827 58.0474 82.6085C57.3918 81.39 57.147 79.9938 57.3494 78.6261C57.5518 77.2584 58.1905 75.9918 59.1712 75.0135C60.152 74.0352 61.4226 73.3971 62.7955 73.1934C64.1683 72.9897 65.5706 73.2312 66.795 73.8824C68.0195 74.5335 69.0011 75.5596 69.595 76.8092C70.1888 78.0587 70.3633 79.4654 70.0927 80.8213C69.8425 82.0692 69.2274 83.2156 68.3247 84.116C67.422 85.0165 66.272 85.631 65.0195 85.8821Z" fill="black"/>
<path d="M69.0858 68.4576H26.2812C20.2173 68.4576 17.7521 64.5101 17.2923 62.3705C17.213 61.9837 9.41309 25.0036 8.46188 20.9614C7.8753 18.4666 6.96368 18.3639 4.95821 18.3639H2.58018C1.94949 18.3639 1.34466 18.1144 0.898692 17.6702C0.452725 17.2261 0.202148 16.6236 0.202148 15.9954C0.202148 15.3673 0.452725 14.7649 0.898692 14.3207C1.34466 13.8765 1.94949 13.627 2.58018 13.627H4.95821C6.95576 13.627 11.6246 13.6269 13.099 19.8877C14.0502 23.9773 21.6283 59.8599 21.9453 61.3837C22.0404 61.7232 22.738 63.7522 26.2812 63.7522H69.0858C73.2553 63.7522 73.612 62.039 73.7309 61.4784C74.5236 57.4757 79.4937 32.946 79.5412 32.6933C79.6653 32.0767 80.0302 31.5344 80.5557 31.1857C80.8159 31.0131 81.1077 30.8931 81.4144 30.8328C81.7211 30.7725 82.0368 30.7729 82.3433 30.8341C82.6499 30.8953 82.9413 31.016 83.2011 31.1893C83.4608 31.3627 83.6837 31.5853 83.8571 31.8444C84.0304 32.1036 84.1508 32.3942 84.2114 32.6997C84.2719 33.0052 84.2715 33.3196 84.2101 33.6249C84.1546 33.8697 79.2241 58.4231 78.3839 62.4416C77.5833 66.2391 74.1907 68.4576 69.0858 68.4576Z" fill="#231F20"/>
<path d="M75.5461 17.653C74.8634 20.3802 73.384 22.8445 71.295 24.7343C69.2061 26.624 66.6015 27.8544 63.8105 28.2698C61.0195 28.6851 58.1674 28.2669 55.6151 27.0679C53.0628 25.8689 50.9247 23.943 49.4714 21.5337C48.018 19.1245 47.3146 16.3401 47.45 13.5326C47.5855 10.7252 48.5538 8.02083 50.2325 5.7615C51.9111 3.50217 54.2248 1.78935 56.8808 0.839669C59.5368 -0.110013 62.4159 -0.253893 65.1541 0.426175C68.8257 1.3381 71.9833 3.66537 73.9322 6.89602C75.8811 10.1267 76.4616 13.9961 75.5461 17.653Z" fill="#8247E5"/>
<path d="M65.8834 11.1711C65.7107 11.0818 65.519 11.0352 65.3245 11.0352C65.13 11.0352 64.9383 11.0818 64.7657 11.1711L62.1578 12.7027L60.3901 13.6817L57.8297 15.2133C57.6571 15.3026 57.4655 15.3492 57.2709 15.3492C57.0764 15.3492 56.8847 15.3026 56.7121 15.2133L54.7066 14.0054C54.5374 13.9035 54.3974 13.7599 54.3002 13.5884C54.203 13.4169 54.1519 13.2233 54.1517 13.0264V10.7132C54.1526 10.5164 54.2041 10.3231 54.3012 10.1517C54.3983 9.98036 54.5379 9.83662 54.7066 9.73419L56.7121 8.57365C56.8847 8.48438 57.0764 8.43776 57.2709 8.43776C57.4655 8.43776 57.6571 8.48438 57.8297 8.57365L59.8352 9.78156C60.0045 9.88342 60.1444 10.027 60.2416 10.1985C60.3388 10.37 60.39 10.5636 60.3901 10.7605V12.2843L62.1578 11.2658V9.68682C62.1578 9.49092 62.1067 9.2984 62.0094 9.12814C61.9121 8.95788 61.772 8.81576 61.6029 8.71575L57.8773 6.53673C57.7059 6.44344 57.5138 6.39453 57.3185 6.39453C57.1232 6.39453 56.931 6.44344 56.7596 6.53673L52.9389 8.76312C52.7684 8.84937 52.6259 8.98182 52.5277 9.14524C52.4296 9.30867 52.3797 9.49642 52.384 9.68682V14.0528C52.384 14.2487 52.4351 14.4412 52.5324 14.6114C52.6297 14.7817 52.7698 14.9238 52.9389 15.0238L56.7121 17.2029C56.8835 17.2961 57.0756 17.345 57.2709 17.345C57.4662 17.345 57.6584 17.2961 57.8297 17.2029L60.3901 15.7107L62.1578 14.6923L64.7181 13.208C64.8895 13.1147 65.0817 13.0658 65.2769 13.0658C65.4722 13.0658 65.6644 13.1147 65.8358 13.208L67.8412 14.3685C68.0109 14.4679 68.1514 14.6099 68.2488 14.7803C68.3462 14.9507 68.397 15.1436 68.3961 15.3397V17.6607C68.3962 17.8566 68.345 18.0492 68.2477 18.2195C68.1505 18.3897 68.0104 18.5318 67.8412 18.6318L65.8834 19.7924C65.712 19.8857 65.5198 19.9346 65.3245 19.9346C65.1292 19.9346 64.937 19.8857 64.7657 19.7924L62.7681 18.6318C62.5959 18.5347 62.4529 18.3934 62.3539 18.2226C62.2549 18.0519 62.2037 17.8579 62.2053 17.6607V16.1844L60.4377 17.2029V18.7345C60.4376 18.9304 60.4887 19.1229 60.586 19.2932C60.6833 19.4634 60.8234 19.6055 60.9925 19.7055L64.7657 21.8846C64.937 21.9779 65.1292 22.0267 65.3245 22.0267C65.5198 22.0267 65.712 21.9779 65.8834 21.8846L69.6565 19.7055C69.8277 19.6071 69.9697 19.4656 70.0685 19.2951C70.1673 19.1247 70.2193 18.9313 70.2193 18.7345V14.3291C70.2177 14.1326 70.1651 13.9398 70.0664 13.7696C69.9678 13.5994 69.8266 13.4576 69.6565 13.358L65.8834 11.1711Z" fill="white"/>
<path d="M32.6152 40.9591C40.3946 40.9591 46.701 34.678 46.701 26.9298C46.701 19.1816 40.3946 12.9004 32.6152 12.9004C24.8358 12.9004 18.5293 19.1816 18.5293 26.9298C18.5293 34.678 24.8358 40.9591 32.6152 40.9591Z" fill="#627EEA"/>
<path d="M30.2529 16.6582L32.3059 24.1584L39.44 25.2637L30.2529 16.6582Z" fill="white" fill-opacity="0.6"/>
<path d="M30.2531 16.6582L26.7178 28.7296L32.3299 24.1584L30.2531 16.6582Z" fill="white"/>
<path d="M34.4219 31.8554L35.817 36.9555L39.7804 26.4395L34.4219 31.8554Z" fill="white" fill-opacity="0.6"/>
<path d="M35.8179 36.9563L34.4228 31.8562L27.043 29.9219L35.8179 36.9563Z" fill="white"/>
<path d="M34.0977 30.711L39.4642 25.2635L32.3301 24.1582L34.0977 30.711Z" fill="white" fill-opacity="0.2"/>
<path d="M26.7178 28.7294L34.0976 30.6795L32.3299 24.1582L26.7178 28.7294Z" fill="white" fill-opacity="0.6"/>
<path d="M72.2962 49.4144C71.612 52.1408 70.1317 54.604 68.0422 56.4925C65.9527 58.3811 63.348 59.6102 60.5572 60.0245C57.7664 60.4388 54.915 60.0197 52.3634 58.8201C49.8117 57.6205 47.6745 55.6944 46.2218 53.2852C44.7691 50.876 44.0663 48.0919 44.2021 45.2849C44.3379 42.4779 45.3062 39.774 46.9847 37.515C48.6632 35.2561 50.9765 33.5435 53.6321 32.5938C56.2877 31.6442 59.1663 31.5 61.9042 32.1796C63.723 32.6311 65.4348 33.4352 66.9415 34.5458C68.4483 35.6564 69.7206 37.0519 70.6857 38.6524C71.6507 40.2529 72.2897 42.0272 72.566 43.8738C72.8424 45.7203 72.7507 47.6031 72.2962 49.4144Z" fill="#F7931A"/>
<path d="M64.7418 43.9428C65.0272 42.0559 63.5845 41.0374 61.5711 40.3584L62.2132 37.8004L60.6278 37.4057L60.0016 39.9005L58.7413 39.6084L59.3754 37.0978L57.79 36.7109L57.148 39.269L53.9773 38.4795L53.5572 40.1532C53.5572 40.1532 54.7224 40.4137 54.6986 40.4295C54.9146 40.4572 55.1114 40.5674 55.2474 40.7367C55.3835 40.9061 55.4482 41.1215 55.4279 41.3374L53.7315 48.3639C53.7099 48.4354 53.6741 48.5019 53.6263 48.5594C53.5785 48.617 53.5197 48.6644 53.4532 48.699C53.3868 48.7335 53.314 48.7546 53.2393 48.7608C53.1646 48.7669 53.0894 48.7582 53.0181 48.735L51.8767 48.4508L51.084 50.2429L54.2547 51.0324L53.6047 53.622L55.1901 54.0168L55.8322 51.4509L57.0846 51.7746L56.4425 54.3246L58.0278 54.7115L58.6778 52.1299C61.3412 52.6272 63.3546 52.4299 64.2266 50.0219C64.9083 48.0876 64.2266 46.9665 62.7918 46.2402C63.3311 46.1302 63.819 45.8464 64.1801 45.4325C64.5412 45.0187 64.7553 44.4979 64.7894 43.9507L64.7418 43.9428ZM61.2144 48.9482C60.723 50.8824 57.4571 49.8324 56.387 49.5719L57.251 46.1375C58.3132 46.406 61.7138 46.927 61.2144 48.9482ZM61.6979 43.9191C61.254 45.6796 58.5272 44.7875 57.6474 44.5665L58.44 41.4479C59.3278 41.669 62.1736 42.0795 61.7138 43.9191" fill="white"/>
</g>
<defs>
<clipPath id="clip0_14472_6824">
<rect width="84" height="86" fill="white" transform="translate(0.25)"/>
</clipPath>
</defs>
</svg>
