<svg width="25" height="19" viewBox="0 0 25 19" fill="none" xmlns="http://www.w3.org/2000/svg">
<path d="M20.7031 14.3125C20.4427 14.3125 20.3125 14.1823 20.3125 13.9219V2.20312C20.3125 1.94271 20.4427 1.8125 20.7031 1.8125H21.4844C21.7448 1.8125 21.875 1.94271 21.875 2.20312V13.9219C21.875 14.1823 21.7448 14.3125 21.4844 14.3125H20.7031ZM16.0156 14.3125C15.7552 14.3125 15.625 14.1823 15.625 13.9219V6.89062C15.625 6.63021 15.7552 6.5 16.0156 6.5H16.7969C17.0573 6.5 17.1875 6.63021 17.1875 6.89062V13.9219C17.1875 14.1823 17.0573 14.3125 16.7969 14.3125H16.0156ZM6.64062 14.3125C6.38021 14.3125 6.25 14.1823 6.25 13.9219V10.0156C6.25 9.75521 6.38021 9.625 6.64062 9.625H7.42188C7.68229 9.625 7.8125 9.75521 7.8125 10.0156V13.9219C7.8125 14.1823 7.68229 14.3125 7.42188 14.3125H6.64062ZM11.3281 14.3125C11.0677 14.3125 10.9375 14.1823 10.9375 13.9219V3.76562C10.9375 3.50521 11.0677 3.375 11.3281 3.375H12.1094C12.3698 3.375 12.5 3.50521 12.5 3.76562V13.9219C12.5 14.1823 12.3698 14.3125 12.1094 14.3125H11.3281ZM24.6094 17.4375C24.8698 17.4375 25 17.5677 25 17.8281V18.6094C25 18.8698 24.8698 19 24.6094 19H0.78125C0.553385 19 0.358073 18.9349 0.195312 18.8047C0.0651042 18.6419 0 18.4466 0 18.2188V0.640625C0 0.380208 0.130208 0.25 0.390625 0.25H1.17188C1.43229 0.25 1.5625 0.380208 1.5625 0.640625V17.4375H24.6094Z" fill="black"/>
</svg>
