<svg width="6" height="12" viewBox="0 0 6 12" fill="none" xmlns="http://www.w3.org/2000/svg">
<path fill-rule="evenodd" clip-rule="evenodd" d="M5.99882 6.03834C5.99095 6.19686 5.9304 6.34754 5.82763 6.46439L1.13222 11.7815C0.973499 11.9604 0.735542 12.0371 0.507991 11.9829C0.28044 11.9286 0.0978676 11.7516 0.0290527 11.5185C-0.0397622 11.2853 0.015636 11.0316 0.174378 10.8527L4.45813 6L0.174377 1.14729C0.0156356 0.96844 -0.0397626 0.71465 0.0290522 0.481528C0.0978671 0.248406 0.28044 0.0713711 0.507991 0.0171156C0.735542 -0.0371399 0.973498 0.039627 1.13222 0.218498L5.82763 5.53561C5.94767 5.67191 6.00948 5.85341 5.99882 6.03834Z" fill="#A8AEB7"/>
</svg>
