<svg width="5" height="9" viewBox="0 0 5 9" fill="none" xmlns="http://www.w3.org/2000/svg">
<path fill-rule="evenodd" clip-rule="evenodd" d="M4.99433 4.02947C4.98908 4.13515 4.94872 4.2356 4.8802 4.3135L1.74993 7.85824C1.64412 7.97749 1.48548 8.02867 1.33378 7.9925C1.18208 7.95633 1.06036 7.8383 1.01449 7.68289C0.968609 7.52747 1.00554 7.35828 1.11137 7.23905L3.96721 4.00391L1.11137 0.768765C1.00554 0.649533 0.968609 0.48034 1.01449 0.324925C1.06036 0.16951 1.18208 0.051487 1.33378 0.0153165C1.48548 -0.020854 1.64412 0.0303244 1.74993 0.149572L4.8802 3.69431C4.96023 3.78518 5.00144 3.90618 4.99433 4.02947Z" fill="white"/>
</svg>
