<svg width="6" height="12" viewBox="0 0 6 12" fill="none" xmlns="http://www.w3.org/2000/svg">
<path fill-rule="evenodd" clip-rule="evenodd" d="M5.99894 6.03834C5.99107 6.19686 5.93053 6.34754 5.82775 6.46439L1.13234 11.7815C0.973621 11.9604 0.735664 12.0371 0.508113 11.9829C0.280562 11.9286 0.0979897 11.7516 0.0291748 11.5185C-0.0396401 11.2853 0.0157581 11.0316 0.1745 10.8527L4.45826 6L0.174499 1.14729C0.0157577 0.96844 -0.0396406 0.71465 0.0291743 0.481528C0.0979892 0.248406 0.280562 0.0713711 0.508113 0.0171156C0.735664 -0.0371399 0.97362 0.039627 1.13234 0.218498L5.82775 5.53561C5.9478 5.67191 6.0096 5.85341 5.99894 6.03834Z" fill="#000000"/>
</svg>
