<svg width="6" height="12" viewBox="0 0 6 12" fill="none" xmlns="http://www.w3.org/2000/svg">
<path fill-rule="evenodd" clip-rule="evenodd" d="M0.00118087 5.96166C0.00905393 5.80314 0.069596 5.65246 0.172368 5.53561L4.86778 0.218499C5.0265 0.0396281 5.26446 -0.0371396 5.49201 0.0171159C5.71956 0.0713714 5.90213 0.248407 5.97095 0.481529C6.03976 0.714651 5.98436 0.96844 5.82562 1.14729L1.54187 6L5.82562 10.8527C5.98436 11.0316 6.03976 11.2853 5.97095 11.5185C5.90213 11.7516 5.71956 11.9286 5.49201 11.9829C5.26446 12.0371 5.0265 11.9604 4.86778 11.7815L0.172368 6.46439C0.0523254 6.32809 -0.00947741 6.14659 0.00118087 5.96166Z" fill="#000000" fill-opacity="0.5"/>
</svg>
