<svg width="25" height="26" viewBox="0 0 25 26" fill="none" xmlns="http://www.w3.org/2000/svg">
<path d="M24.1699 10.5254C24.7233 11.1113 25 11.8112 25 12.625C25 13.4388 24.7233 14.1387 24.1699 14.7246C23.6165 15.3105 22.9329 15.6361 22.1191 15.7012C21.6309 17.2637 20.8008 18.6309 19.6289 19.8027C18.4896 20.9421 17.1387 21.7559 15.5762 22.2441C15.5111 23.0579 15.1855 23.7415 14.5996 24.2949C14.0137 24.8483 13.3138 25.125 12.5 25.125C11.6862 25.125 10.9863 24.8483 10.4004 24.2949C9.81445 23.7415 9.48893 23.0579 9.42383 22.2441C7.86133 21.7559 6.49414 20.9421 5.32227 19.8027C4.18294 18.6309 3.36914 17.2637 2.88086 15.7012C2.06706 15.6361 1.38346 15.3105 0.830078 14.7246C0.276693 14.1387 0 13.4388 0 12.625C0 11.8112 0.276693 11.1113 0.830078 10.5254C1.38346 9.93945 2.06706 9.61393 2.88086 9.54883C3.36914 7.98633 4.18294 6.63542 5.32227 5.49609C6.49414 4.32422 7.86133 3.49414 9.42383 3.00586C9.48893 2.19206 9.81445 1.50846 10.4004 0.955078C10.9863 0.401693 11.6862 0.125 12.5 0.125C13.3138 0.125 14.0137 0.401693 14.5996 0.955078C15.1855 1.50846 15.5111 2.19206 15.5762 3.00586C17.1387 3.49414 18.4896 4.32422 19.6289 5.49609C20.8008 6.63542 21.6309 7.98633 22.1191 9.54883C22.9329 9.61393 23.6165 9.93945 24.1699 10.5254ZM13.5742 2.17578C13.2812 1.85026 12.9232 1.6875 12.5 1.6875C12.0768 1.6875 11.7025 1.85026 11.377 2.17578C11.084 2.46875 10.9375 2.82682 10.9375 3.25C10.9375 3.67318 11.084 4.04753 11.377 4.37305C11.7025 4.66602 12.0768 4.8125 12.5 4.8125C12.9232 4.8125 13.2812 4.66602 13.5742 4.37305C13.8997 4.04753 14.0625 3.67318 14.0625 3.25C14.0625 2.82682 13.8997 2.46875 13.5742 2.17578ZM2.00195 11.5508C1.70898 11.8438 1.5625 12.2018 1.5625 12.625C1.5625 13.0482 1.70898 13.4225 2.00195 13.748C2.32747 14.041 2.70182 14.1875 3.125 14.1875C3.54818 14.1875 3.90625 14.041 4.19922 13.748C4.52474 13.4225 4.6875 13.0482 4.6875 12.625C4.6875 12.2018 4.52474 11.8438 4.19922 11.5508C3.90625 11.2253 3.54818 11.0625 3.125 11.0625C2.70182 11.0625 2.32747 11.2253 2.00195 11.5508ZM11.377 23.0742C11.7025 23.3997 12.0768 23.5625 12.5 23.5625C12.9232 23.5625 13.2812 23.3997 13.5742 23.0742C13.8997 22.7812 14.0625 22.4232 14.0625 22C14.0625 21.5768 13.8997 21.2188 13.5742 20.9258C13.2812 20.6003 12.9232 20.4375 12.5 20.4375C12.0768 20.4375 11.7025 20.6003 11.377 20.9258C11.084 21.2188 10.9375 21.5768 10.9375 22C10.9375 22.4232 11.084 22.7812 11.377 23.0742ZM15.332 20.7305C16.569 20.2747 17.6432 19.5911 18.5547 18.6797C19.4661 17.7682 20.1497 16.694 20.6055 15.457C20.0521 15.1966 19.5964 14.8223 19.2383 14.334C18.9128 13.8132 18.75 13.2435 18.75 12.625C18.75 12.0065 18.9128 11.4531 19.2383 10.9648C19.5964 10.444 20.0521 10.0534 20.6055 9.79297C20.1497 8.55599 19.4661 7.48177 18.5547 6.57031C17.6432 5.65885 16.569 4.97526 15.332 4.51953C15.0716 5.07292 14.681 5.52865 14.1602 5.88672C13.6719 6.21224 13.1185 6.375 12.5 6.375C11.8815 6.375 11.3118 6.21224 10.791 5.88672C10.3027 5.52865 9.92839 5.07292 9.66797 4.51953C8.43099 4.97526 7.35677 5.65885 6.44531 6.57031C5.53385 7.48177 4.85026 8.55599 4.39453 9.79297C4.94792 10.0534 5.38737 10.444 5.71289 10.9648C6.07096 11.4531 6.25 12.0065 6.25 12.625C6.25 13.2435 6.07096 13.8132 5.71289 14.334C5.38737 14.8223 4.94792 15.1966 4.39453 15.457C4.85026 16.694 5.53385 17.7682 6.44531 18.6797C7.35677 19.5911 8.43099 20.2747 9.66797 20.7305C9.92839 20.1771 10.3027 19.7376 10.791 19.4121C11.3118 19.054 11.8815 18.875 12.5 18.875C13.1185 18.875 13.6719 19.054 14.1602 19.4121C14.681 19.7376 15.0716 20.1771 15.332 20.7305ZM20.752 13.748C21.0775 14.041 21.4518 14.1875 21.875 14.1875C22.2982 14.1875 22.6562 14.041 22.9492 13.748C23.2747 13.4225 23.4375 13.0482 23.4375 12.625C23.4375 12.2018 23.2747 11.8438 22.9492 11.5508C22.6562 11.2253 22.2982 11.0625 21.875 11.0625C21.4518 11.0625 21.0775 11.2253 20.752 11.5508C20.459 11.8438 20.3125 12.2018 20.3125 12.625C20.3125 13.0482 20.459 13.4225 20.752 13.748Z" fill="black"/>
</svg>
