<svg width="17" height="17" viewBox="0 0 17 17" fill="none" xmlns="http://www.w3.org/2000/svg">
<path fill-rule="evenodd" clip-rule="evenodd" d="M14.0039 1H7.71423C6.61324 1 5.71744 1.8958 5.71744 2.99679V5.71744H2.99679C1.8958 5.71744 1 6.61324 1 7.71352V14.0032C1 15.1049 1.8958 16 2.99679 16H9.28648C10.3875 16 11.2833 15.1042 11.2833 14.0032V11.2826H14.0032C15.1042 11.2826 16 10.3868 16 9.28648V2.9975C16.0007 1.8958 15.1049 1 14.0039 1ZM10.4338 14.0038C10.4338 14.6371 9.91865 15.1522 9.28607 15.1522H2.99639C2.3631 15.1522 1.84869 14.6364 1.84869 14.0038V7.7141C1.84869 7.08082 2.36381 6.56641 2.99639 6.56641H5.71633V9.28705C5.71633 10.388 6.61213 11.2831 7.71312 11.2831H10.4338V14.0038ZM14.0038 10.4347C14.6364 10.4347 15.1515 9.92027 15.1515 9.28699V2.99801C15.1515 2.36544 14.6371 1.84961 14.0038 1.84961H7.7141C7.08152 1.84961 6.56641 2.36473 6.56641 2.99801V9.28699C6.56641 9.91957 7.08082 10.4347 7.7141 10.4347H14.0038Z" fill="white"/>
<path d="M5.71744 5.71744V5.86744H5.86744V5.71744H5.71744ZM11.2833 11.2826V11.1326H11.1333V11.2826H11.2833ZM16 2.9975L15.85 2.9974V2.9975H16ZM5.71633 6.56641H5.86633V6.41641H5.71633V6.56641ZM10.4338 11.2831H10.5838V11.1331H10.4338V11.2831ZM7.71423 1.15H14.0039V0.85H7.71423V1.15ZM5.86744 2.99679C5.86744 1.97864 6.69608 1.15 7.71423 1.15V0.85C6.53039 0.85 5.56744 1.81295 5.56744 2.99679H5.86744ZM5.86744 5.71744V2.99679H5.56744V5.71744H5.86744ZM2.99679 5.86744H5.71744V5.56744H2.99679V5.86744ZM1.15 7.71352C1.15 6.69611 1.9786 5.86744 2.99679 5.86744V5.56744C1.81299 5.56744 0.85 6.53036 0.85 7.71352H1.15ZM1.15 14.0032V7.71352H0.85V14.0032H1.15ZM2.99679 15.85C1.9786 15.85 1.15 15.022 1.15 14.0032H0.85C0.85 15.1878 1.81299 16.15 2.99679 16.15V15.85ZM9.28648 15.85H2.99679V16.15H9.28648V15.85ZM11.1333 14.0032C11.1333 15.0214 10.3046 15.85 9.28648 15.85V16.15C10.4703 16.15 11.4333 15.187 11.4333 14.0032H11.1333ZM11.1333 11.2826V14.0032H11.4333V11.2826H11.1333ZM14.0032 11.1326H11.2833V11.4326H14.0032V11.1326ZM15.85 9.28648C15.85 10.3039 15.0214 11.1326 14.0032 11.1326V11.4326C15.187 11.4326 16.15 10.4696 16.15 9.28648H15.85ZM15.85 2.9975V9.28648H16.15V2.9975H15.85ZM14.0039 1.15C15.0221 1.15 15.8507 1.9786 15.85 2.9974L16.15 2.9976C16.1508 1.81299 15.1878 0.85 14.0039 0.85V1.15ZM9.28607 15.3022C10.0016 15.3022 10.5838 14.7199 10.5838 14.0038H10.2838C10.2838 14.5543 9.83575 15.0022 9.28607 15.0022V15.3022ZM2.99639 15.3022H9.28607V15.0022H2.99639V15.3022ZM1.69869 14.0038C1.69869 14.719 2.28008 15.3022 2.99639 15.3022V15.0022C2.44613 15.0022 1.99869 14.5537 1.99869 14.0038H1.69869ZM1.69869 7.7141V14.0038H1.99869V7.7141H1.69869ZM2.99639 6.41641C2.28103 6.41641 1.69869 6.99791 1.69869 7.7141H1.99869C1.99869 7.16372 2.4466 6.71641 2.99639 6.71641V6.41641ZM5.71633 6.41641H2.99639V6.71641H5.71633V6.41641ZM5.86633 9.28705V6.56641H5.56633V9.28705H5.86633ZM7.71312 11.1331C6.6949 11.1331 5.86633 10.3051 5.86633 9.28705H5.56633C5.56633 10.471 6.52935 11.4331 7.71312 11.4331V11.1331ZM10.4338 11.1331H7.71312V11.4331H10.4338V11.1331ZM10.5838 14.0038V11.2831H10.2838V14.0038H10.5838ZM15.0015 9.28699C15.0015 9.83737 14.5536 10.2847 14.0038 10.2847V10.5847C14.7191 10.5847 15.3015 10.0032 15.3015 9.28699H15.0015ZM15.0015 2.99801V9.28699H15.3015V2.99801H15.0015ZM14.0038 1.99961C14.554 1.99961 15.0015 2.4481 15.0015 2.99801H15.3015C15.3015 2.28277 14.7201 1.69961 14.0038 1.69961V1.99961ZM7.7141 1.99961H14.0038V1.69961H7.7141V1.99961ZM6.71641 2.99801C6.71641 2.44751 7.16443 1.99961 7.7141 1.99961V1.69961C6.99862 1.69961 6.41641 2.28195 6.41641 2.99801H6.71641ZM6.71641 9.28699V2.99801H6.41641V9.28699H6.71641ZM7.7141 10.2847C7.16372 10.2847 6.71641 9.83678 6.71641 9.28699H6.41641C6.41641 10.0023 6.99791 10.5847 7.7141 10.5847V10.2847ZM14.0038 10.2847H7.7141V10.5847H14.0038V10.2847Z" fill="white"/>
</svg>
