<svg width="99" height="158" viewBox="0 0 99 158" fill="none" xmlns="http://www.w3.org/2000/svg">
<path fill-rule="evenodd" clip-rule="evenodd" d="M30.3384 44.4582C36.3087 44.4582 41.1483 49.3215 41.1483 55.3209C41.1483 61.3204 36.3087 66.1836 30.3384 66.1836C24.3714 66.1836 19.5286 61.3204 19.5286 55.3209C19.5286 49.3215 24.3714 44.4582 30.3384 44.4582ZM50.6289 69.193L57.781 81.2852C58.46 82.4342 57.6369 83.8858 56.3077 83.8858H42.0035C40.6774 83.8858 39.8543 82.4342 40.5333 81.2852L47.6854 69.193C48.3484 68.0729 49.9659 68.0729 50.6289 69.193ZM67.9727 44.4582C73.9429 44.4582 78.7825 49.3215 78.7825 55.3209C78.7825 61.3204 73.9429 66.1836 67.9727 66.1836C62.0056 66.1836 57.1628 61.3204 57.1628 55.3209C57.1628 49.3215 62.0056 44.4582 67.9727 44.4582ZM20.861 78.6234L18.2763 81.2176C16.9022 82.5984 16.4923 84.6776 17.2353 86.48C17.9816 88.2856 19.7304 89.4604 21.6746 89.4604H28.7882V100.436C28.7882 103.847 31.5427 106.615 34.941 106.615H63.3701C66.7716 106.615 69.5229 103.847 69.5229 100.436V89.4604H76.6397C78.5839 89.4604 80.3327 88.2856 81.079 86.48C81.8221 84.6776 81.4089 82.5984 80.038 81.2176L77.4533 78.6202C87.1901 70.4675 93.3942 58.1951 93.3942 44.4582C93.3942 19.9069 73.5906 0 49.1556 0C24.7237 0 4.91694 19.9069 4.91694 44.4582C4.91694 58.1951 11.121 70.4675 20.861 78.6234ZM97.7565 109.045C96.5202 106.683 93.6056 105.785 91.2642 107.024L49.1556 129.319L7.04688 107.024C4.70876 105.785 1.7909 106.683 0.554578 109.045C-0.681746 111.405 0.218272 114.324 2.56601 115.566L38.8486 134.778L12.1747 148.901C9.82701 150.143 8.92699 153.063 10.1633 155.422C11.0249 157.063 12.6904 158 14.4168 158C15.1759 158 15.9414 157.82 16.6556 157.443L49.1556 140.233L81.6555 157.443C82.3698 157.82 83.1352 158 83.8943 158C85.6175 158 87.2862 157.063 88.1478 155.422C89.3841 153.063 88.4841 150.143 86.1364 148.901L59.4625 134.778L95.7451 115.566C98.0928 114.324 98.9929 111.405 97.7565 109.045Z" fill="#F12274"/>
</svg>
