<svg width="10" height="6" viewBox="0 0 10 6" fill="none" xmlns="http://www.w3.org/2000/svg">
<path fill-rule="evenodd" clip-rule="evenodd" d="M4.97444 4.99921C4.86876 4.99396 4.76831 4.9536 4.6904 4.88509L1.14567 1.75481C1.02642 1.649 0.97524 1.49036 1.01141 1.33866C1.04758 1.18696 1.1656 1.06525 1.32102 1.01937C1.47643 0.973492 1.64563 1.01042 1.76486 1.11625L5 3.97209L8.23514 1.11625C8.35437 1.01042 8.52357 0.973492 8.67898 1.01937C8.8344 1.06525 8.95242 1.18696 8.98859 1.33866C9.02476 1.49036 8.97358 1.649 8.85433 1.75481L5.3096 4.88509C5.21873 4.96512 5.09773 5.00632 4.97444 4.99921Z" fill="#1D1E21" stroke="black" stroke-width="0.3"/>
</svg>
