<svg width="15" height="13" viewBox="0 0 15 13" fill="none" xmlns="http://www.w3.org/2000/svg">
<path d="M11.1635 6.23216C11.0301 6.09874 10.8132 6.09874 10.6798 6.23216L7.84303 9.0689V1.34211C7.84303 1.15326 7.68977 1 7.50093 1C7.31208 1 7.15882 1.15326 7.15882 1.34211V9.0689L4.32208 6.23216C4.18866 6.09874 3.97177 6.09874 3.83835 6.23216C3.70493 6.36558 3.70493 6.58247 3.83835 6.71589L7.2594 10.1369C7.32645 10.204 7.41403 10.2368 7.50161 10.2368C7.58919 10.2368 7.67677 10.2033 7.74382 10.1363L11.1649 6.71521C11.2983 6.58179 11.2983 6.36489 11.1649 6.23147L11.1635 6.23216Z" fill="#646F85" stroke="#646F85" stroke-width="0.4"/>
<path d="M12.9737 12.6314H2.02632C1.46047 12.6314 1 12.1709 1 11.6051V10.2366C1 10.0478 1.15326 9.89453 1.34211 9.89453C1.53095 9.89453 1.68421 10.0478 1.68421 10.2366V11.6051C1.68421 11.7939 1.83747 11.9472 2.02632 11.9472H12.9737C13.1625 11.9472 13.3158 11.7939 13.3158 11.6051V10.2366C13.3158 10.0478 13.4691 9.89453 13.6579 9.89453C13.8467 9.89453 14 10.0478 14 10.2366V11.6051C14 12.1709 13.5395 12.6314 12.9737 12.6314Z" fill="#646F85" stroke="#646F85" stroke-width="0.4"/>
</svg>
