<svg width="182" height="100" viewBox="0 0 182 100" fill="none" xmlns="http://www.w3.org/2000/svg">
<path d="M181.041 47.5832C180.94 47.4599 180.817 47.3628 180.698 47.2576C180.505 47.0473 180.261 46.7662 179.921 46.38C154.095 16.8776 123.048 0.408495 92.4957 0.00809221C92.0994 0.00404774 91.7071 0 91.3148 0C60.4049 0 30.0228 15.9231 0.995638 47.3426C0.328301 48.0059 -0.0255901 48.932 0.0168769 49.9027C-0.00738996 50.1798 -0.0094127 50.4588 0.0370987 50.7419C0.154388 51.4578 0.486035 52.0908 0.963283 52.5761C30.0026 84.0199 60.3927 99.9551 91.3168 99.9551C91.7071 99.9551 92.1034 99.951 92.4978 99.947C123.048 99.5466 154.097 83.0775 179.923 53.5731C180.277 53.1707 180.532 52.8795 180.724 52.6671C180.831 52.57 180.94 52.4851 181.033 52.3759C181.264 52.1413 181.464 51.8703 181.62 51.569C181.879 51.0716 182.002 50.5215 182 49.9775C182.004 49.4315 181.879 48.8835 181.62 48.384C181.464 48.0868 181.27 47.8178 181.041 47.5832ZM92.4047 93.1341C63.7901 93.494 35.3474 78.9643 7.89955 49.9775C35.0016 21.3548 63.0459 6.81292 91.3228 6.81292C91.6828 6.81292 92.0448 6.81696 92.4047 6.821C120.688 7.19107 149.612 22.5216 173.986 49.9775C149.612 77.4334 120.688 92.764 92.4047 93.1341Z" fill="#1CE4C3"/>
<path d="M90.9993 15.4258C71.9457 15.4258 56.4453 30.9242 56.4453 49.9777C56.4453 69.0312 71.9457 84.5296 90.9993 84.5296C110.053 84.5296 125.553 69.0312 125.553 49.9777C125.553 30.9242 110.053 15.4258 90.9993 15.4258ZM90.9993 79.6641C74.6293 79.6641 61.3108 66.3457 61.3108 49.9777C61.3108 33.6097 74.6293 20.2913 90.9993 20.2913C107.369 20.2913 120.688 33.6097 120.688 49.9777C120.688 66.3457 107.369 79.6641 90.9993 79.6641Z" fill="#1CE4C3"/>
<path d="M91.002 33.5742C81.9566 33.5742 74.5977 40.9352 74.5977 49.9766C74.5977 59.018 81.9586 66.3789 91.002 66.3789C100.045 66.3789 107.406 59.018 107.406 49.9766C107.406 40.9352 100.047 33.5742 91.002 33.5742ZM91.002 61.5114C84.6401 61.5114 79.4652 56.3365 79.4652 49.9766C79.4652 43.6166 84.6421 38.4417 91.002 38.4417C97.362 38.4417 102.539 43.6166 102.539 49.9766C102.539 56.3365 97.362 61.5114 91.002 61.5114Z" fill="#1CE4C3"/>
</svg>
