<svg width="360" height="76" viewBox="0 0 360 76" fill="none" xmlns="http://www.w3.org/2000/svg">
<mask id="mask0" mask-type="alpha" maskUnits="userSpaceOnUse" x="148" y="37" width="64" height="17">
<path d="M148.566 37.9688H211.747V53.3409H148.566V37.9688Z" fill="white"/>
</mask>
<g mask="url(#mask0)">
<path fill-rule="evenodd" clip-rule="evenodd" d="M153.077 50.1571H154.323V41.5518H153.077V50.1571ZM154.517 38.8397C154.517 39.3302 154.161 39.7064 153.692 39.7064C153.223 39.7064 152.867 39.3302 152.867 38.8397C152.867 38.3322 153.223 37.9727 153.692 37.9727C154.161 37.9727 154.517 38.3322 154.517 38.8397Z" fill="white"/>
<path fill-rule="evenodd" clip-rule="evenodd" d="M163.958 45.873C163.958 43.9752 162.68 42.601 160.886 42.601C159.074 42.601 157.796 43.9752 157.796 45.873C157.796 47.7708 159.074 49.1288 160.886 49.1288C162.68 49.1288 163.958 47.7708 163.958 45.873ZM165.219 41.5542V53.3332H163.958V48.3106C163.327 49.5206 162.163 50.2249 160.643 50.2249C158.217 50.2249 156.535 48.4087 156.535 45.8402C156.535 43.2717 158.217 41.4883 160.626 41.4883C162.147 41.4883 163.327 42.1917 163.958 43.4188V41.5542H165.219Z" fill="white"/>
<path fill-rule="evenodd" clip-rule="evenodd" d="M175.767 41.5547V50.16H174.506V48.2133C173.94 49.5547 172.808 50.1927 171.272 50.2089C169.283 50.2089 168.086 48.9329 168.086 46.8549V41.5547H169.347V46.5276C169.347 48.0658 170.237 48.9822 171.708 48.9822C173.471 48.9486 174.506 47.6399 174.506 45.7757V41.5547H175.767Z" fill="white"/>
<path fill-rule="evenodd" clip-rule="evenodd" d="M185.387 46.2005V45.546C185.241 43.8114 184.012 42.6013 182.33 42.6013C180.519 42.6013 179.242 43.9755 179.242 45.8732C179.242 47.771 180.519 49.129 182.33 49.129C184.012 49.129 185.241 47.9347 185.387 46.2005ZM186.649 41.5544V50.1593H185.387V48.327C184.756 49.5209 183.592 50.2252 182.088 50.2252C179.663 50.2252 177.98 48.409 177.98 45.8405C177.98 43.2882 179.646 41.4886 182.039 41.4886C183.576 41.4724 184.74 42.1754 185.387 43.3863V41.5544H186.649Z" fill="white"/>
<path fill-rule="evenodd" clip-rule="evenodd" d="M193.944 50.1571H195.19V41.5518H193.944V50.1571ZM195.384 38.8397C195.384 39.3302 195.028 39.7064 194.559 39.7064C194.09 39.7064 193.734 39.3302 193.734 38.8397C193.734 38.3322 194.09 37.9727 194.559 37.9727C195.028 37.9727 195.384 38.3322 195.384 38.8397Z" fill="white"/>
<path fill-rule="evenodd" clip-rule="evenodd" d="M202.142 49.5709C201.527 49.9798 200.864 50.2089 200.234 50.2089C198.94 50.2089 198.035 49.2921 198.035 47.444V38H199.28V41.5547H201.808V42.8141H199.28V47.2315C199.28 48.4581 199.684 49.0311 200.428 49.0311C200.848 49.0311 201.301 48.8675 201.77 48.5895L202.142 49.5709Z" fill="white"/>
<path fill-rule="evenodd" clip-rule="evenodd" d="M189.559 50.1401H190.804V37.9688H189.559V50.1401Z" fill="white"/>
<path fill-rule="evenodd" clip-rule="evenodd" d="M148.566 50.1401H149.812V37.9688H148.566V50.1401Z" fill="white"/>
<path fill-rule="evenodd" clip-rule="evenodd" d="M211.745 41.6289V49.2205C211.745 51.7838 210.19 53.3582 207.657 53.3421C206.39 53.3098 205.043 52.7743 204.192 51.947L204.578 51.0214C205.347 51.7358 206.453 52.2062 207.544 52.2551C209.388 52.2551 210.495 51.1192 210.495 49.2044V47.6317C209.933 48.816 208.891 49.4322 207.4 49.4483C205.284 49.4483 204 48.1833 204 46.1227V41.6289H205.251V45.7985C205.251 47.3232 206.149 48.2317 207.657 48.2317C209.453 48.1994 210.495 46.9658 210.495 44.9545V41.6289H211.745Z" fill="white"/>
</g>
<path d="M142.624 4.24877C142.602 4.27161 142.579 4.29445 142.557 4.31728C140.271 6.66018 138.893 9.56985 138.422 12.5958C138.302 13.365 138.24 14.1415 138.238 14.9179V15.0072C138.24 15.7536 138.297 16.4999 138.406 17.239C138.75 19.5425 139.619 21.7816 141.011 23.757C141.472 24.4099 141.99 25.0348 142.563 25.6234C142.583 25.6442 142.604 25.6639 142.624 25.6847C143.87 26.9469 145.262 27.9175 146.74 28.6141C152.182 31.1739 158.807 29.9864 163.763 25.7189C163.775 25.7075 163.788 25.6961 163.802 25.6847C169.396 20.839 174.53 16.4501 180.055 16.4501C185.58 16.4501 190.714 20.839 196.308 25.6847C197.828 26.9999 199.504 28.0255 201.257 28.7407C203.551 29.6781 205.974 30.084 208.342 29.9158C211.672 29.6801 214.891 28.3099 217.486 25.6847C217.507 25.6639 217.526 25.6442 217.545 25.6234C218.121 25.0348 218.639 24.4099 219.099 23.757C220.492 21.7816 221.36 19.5425 221.703 17.239C221.933 15.7017 221.928 14.1332 221.689 12.5958C221.218 9.56985 219.839 6.66018 217.554 4.31728C217.53 4.29445 217.509 4.27057 217.485 4.24877C214.891 1.62352 211.672 0.263667 208.342 0.035294C205.971 -0.127681 203.545 0.28339 201.25 1.21764C199.5 1.93183 197.825 2.94808 196.308 4.24877C190.692 9.06432 185.607 13.4844 180.055 13.4844C174.503 13.4844 169.418 9.06432 163.802 4.24877C163.791 4.23943 163.782 4.23112 163.772 4.22282C160.555 1.47612 156.631 0 152.785 0C150.705 0 148.647 0.431832 146.736 1.32664C145.259 2.01902 143.869 2.98753 142.624 4.24877Z" fill="url(#paint0_radial)"/>
<path d="M167.393 62.8558V69.1918C167.393 70.9225 166.99 72.2278 166.183 73.1078C165.377 73.9878 164.189 74.4278 162.619 74.4278C161.534 74.4278 160.639 74.2078 159.935 73.7678C159.231 73.3132 158.711 72.6092 158.373 71.6558C158.051 72.6092 157.537 73.3132 156.833 73.7678C156.129 74.2078 155.227 74.4278 154.127 74.4278C152.558 74.4278 151.37 73.9878 150.563 73.1078C149.757 72.2278 149.353 70.9225 149.353 69.1918V62.8558H150.453V69.1258C150.453 70.5925 150.754 71.6778 151.355 72.3818C151.957 73.0858 152.881 73.4378 154.127 73.4378C155.374 73.4378 156.298 73.0785 156.899 72.3598C157.515 71.6412 157.823 70.5338 157.823 69.0378V62.8558H158.923V69.0378C158.923 70.5485 159.224 71.6632 159.825 72.3818C160.427 73.0858 161.358 73.4378 162.619 73.4378C163.866 73.4378 164.79 73.0858 165.391 72.3818C165.993 71.6778 166.293 70.5925 166.293 69.1258V62.8558H167.393ZM181.123 62.8558V74.3398H180.045V71.6338C179.59 72.5285 178.952 73.2178 178.131 73.7018C177.31 74.1858 176.378 74.4278 175.337 74.4278C174.266 74.4278 173.298 74.1785 172.433 73.6798C171.568 73.1812 170.886 72.4918 170.387 71.6118C169.903 70.7318 169.661 69.7272 169.661 68.5978C169.661 67.4685 169.903 66.4638 170.387 65.5838C170.886 64.6892 171.568 63.9998 172.433 63.5158C173.298 63.0172 174.266 62.7678 175.337 62.7678C176.364 62.7678 177.28 63.0098 178.087 63.4938C178.908 63.9778 179.554 64.6525 180.023 65.5178V62.8558H181.123ZM175.403 73.4378C176.283 73.4378 177.068 73.2325 177.757 72.8218C178.461 72.4112 179.011 71.8392 179.407 71.1058C179.818 70.3725 180.023 69.5365 180.023 68.5978C180.023 67.6592 179.818 66.8232 179.407 66.0898C179.011 65.3565 178.461 64.7845 177.757 64.3738C177.068 63.9632 176.283 63.7578 175.403 63.7578C174.523 63.7578 173.731 63.9632 173.027 64.3738C172.338 64.7845 171.788 65.3565 171.377 66.0898C170.981 66.8232 170.783 67.6592 170.783 68.5978C170.783 69.5365 170.981 70.3725 171.377 71.1058C171.788 71.8392 172.338 72.4112 173.027 72.8218C173.731 73.2325 174.523 73.4378 175.403 73.4378ZM187.753 74.4278C186.785 74.4278 186.044 74.1565 185.531 73.6138C185.017 73.0565 184.761 72.2938 184.761 71.3258V58.0158H185.861V71.1938C185.861 71.9418 186.029 72.5138 186.367 72.9098C186.704 73.2912 187.21 73.4818 187.885 73.4818C188.266 73.4818 188.633 73.4085 188.985 73.2618L189.073 74.1858C188.662 74.3472 188.222 74.4278 187.753 74.4278ZM193.305 74.4278C192.337 74.4278 191.597 74.1565 191.083 73.6138C190.57 73.0565 190.313 72.2938 190.313 71.3258V58.0158H191.413V71.1938C191.413 71.9418 191.582 72.5138 191.919 72.9098C192.257 73.2912 192.763 73.4818 193.437 73.4818C193.819 73.4818 194.185 73.4085 194.537 73.2618L194.625 74.1858C194.215 74.3472 193.775 74.4278 193.305 74.4278ZM200.359 73.4378C201.107 73.4378 201.797 73.3058 202.427 73.0418C203.073 72.7632 203.608 72.3598 204.033 71.8318L204.671 72.5578C204.173 73.1738 203.549 73.6432 202.801 73.9658C202.053 74.2738 201.232 74.4278 200.337 74.4278C199.193 74.4278 198.167 74.1785 197.257 73.6798C196.363 73.1812 195.659 72.4918 195.145 71.6118C194.647 70.7318 194.397 69.7272 194.397 68.5978C194.397 67.4685 194.632 66.4638 195.101 65.5838C195.585 64.7038 196.253 64.0145 197.103 63.5158C197.954 63.0172 198.915 62.7678 199.985 62.7678C200.983 62.7678 201.877 63.0025 202.669 63.4718C203.476 63.9265 204.114 64.5645 204.583 65.3858C205.067 66.1925 205.331 67.1018 205.375 68.1138L195.673 70.0058C195.952 71.0618 196.509 71.8978 197.345 72.5138C198.181 73.1298 199.186 73.4378 200.359 73.4378ZM199.985 63.7358C199.12 63.7358 198.343 63.9412 197.653 64.3518C196.964 64.7478 196.429 65.3125 196.047 66.0458C195.666 66.7645 195.475 67.5858 195.475 68.5098C195.475 68.6712 195.49 68.8985 195.519 69.1918L204.275 67.4758C204.173 66.7865 203.931 66.1558 203.549 65.5838C203.168 65.0118 202.669 64.5645 202.053 64.2418C201.437 63.9045 200.748 63.7358 199.985 63.7358ZM213.124 73.6138C212.846 73.8778 212.494 74.0832 212.068 74.2298C211.658 74.3618 211.225 74.4278 210.77 74.4278C209.773 74.4278 209.003 74.1565 208.46 73.6138C207.918 73.0565 207.646 72.2865 207.646 71.3038V60.3478H208.746V62.8558H212.398V63.8018H208.746V71.1938C208.746 71.9418 208.922 72.5138 209.274 72.9098C209.641 73.2912 210.176 73.4818 210.88 73.4818C211.599 73.4818 212.193 73.2692 212.662 72.8438L213.124 73.6138Z" fill="white"/>
<defs>
<radialGradient id="paint0_radial" cx="0" cy="0" r="1" gradientUnits="userSpaceOnUse" gradientTransform="translate(136.22 8.30811) scale(95.7637 52.6366)">
<stop stop-color="#1CE5C3"/>
<stop offset="0.10253" stop-color="#1CE5C3"/>
<stop offset="0.474728" stop-color="#5440D7"/>
<stop offset="0.630807" stop-color="#8B2CE4"/>
<stop offset="0.795714" stop-color="#D421EB"/>
<stop offset="1" stop-color="#AC39FD"/>
</radialGradient>
</defs>
</svg>
