<svg width="17" height="17" viewBox="0 0 17 17" fill="none" xmlns="http://www.w3.org/2000/svg">
<path d="M8.5 1C4.375 1 1 4.375 1 8.5C1 12.625 4.375 16 8.5 16C12.625 16 16 12.625 16 8.5C16 4.375 12.625 1 8.5 1ZM8.5 15.4643C4.66964 15.4643 1.53571 12.3304 1.53571 8.5C1.53571 4.66964 4.66964 1.53571 8.5 1.53571C12.3304 1.53571 15.4643 4.66964 15.4643 8.5C15.4643 12.3304 12.3304 15.4643 8.5 15.4643Z" fill="#000D35" stroke="#000D35" stroke-width="0.2"/>
<path d="M8.76786 10.9643V4.375H8.23214V10.9643L4.9375 8.125L4.5625 8.55357L8.5 11.9018L12.4375 8.55357L12.0625 8.125L8.76786 10.9643Z" fill="#000D35" stroke="#000D35" stroke-width="0.2"/>
</svg>
