<svg viewBox="0 0 40 40" fill="none" xmlns="http://www.w3.org/2000/svg">
<path fill-rule="evenodd" clip-rule="evenodd" d="M20 39C30.4934 39 39 30.4934 39 20C39 9.50659 30.4934 1 20 1C9.50659 1 1 9.50659 1 20C1 30.4934 9.50659 39 20 39Z" stroke="#1D1E21"/>
<path d="M19.6621 28V16.4092H21.3486V28H19.6621ZM20.4893 11.8975C20.8115 11.8975 21.0801 12.012 21.2949 12.2412C21.5098 12.4632 21.6172 12.7425 21.6172 13.0791C21.6172 13.4157 21.5098 13.6986 21.2949 13.9277C21.0801 14.1569 20.8115 14.2715 20.4893 14.2715C20.167 14.2715 19.8984 14.1605 19.6836 13.9385C19.4759 13.7093 19.3721 13.4229 19.3721 13.0791C19.3721 12.7425 19.4759 12.4632 19.6836 12.2412C19.8984 12.012 20.167 11.8975 20.4893 11.8975Z" fill="#1D1E21"/>
</svg>
