<svg width="227" height="47" viewBox="0 0 227 47" fill="none" xmlns="http://www.w3.org/2000/svg">
<path d="M92.1865 10L89.3447 2.99805H90.2041L92.6162 9.07227L95.0381 2.99805H95.8779L93.0166 10H92.1865ZM96.8105 10V4.73145H97.5771V10H96.8105ZM97.1865 2.68066C97.333 2.68066 97.4551 2.73275 97.5527 2.83691C97.6504 2.93783 97.6992 3.06478 97.6992 3.21777C97.6992 3.37077 97.6504 3.49935 97.5527 3.60352C97.4551 3.70768 97.333 3.75977 97.1865 3.75977C97.04 3.75977 96.918 3.70931 96.8203 3.6084C96.7259 3.50423 96.6787 3.37402 96.6787 3.21777C96.6787 3.06478 96.7259 2.93783 96.8203 2.83691C96.918 2.73275 97.04 2.68066 97.1865 2.68066ZM101.576 4.71191C102.403 4.71191 103.026 4.97721 103.446 5.50781C103.866 6.03516 104.055 6.75618 104.013 7.6709H99.7158C99.7809 8.18522 99.986 8.59375 100.331 8.89648C100.679 9.19922 101.111 9.35059 101.625 9.35059C101.951 9.35059 102.252 9.29362 102.528 9.17969C102.805 9.06576 103.048 8.90299 103.256 8.69141L103.686 9.15039C103.432 9.43034 103.122 9.64681 102.758 9.7998C102.396 9.9528 101.999 10.0293 101.566 10.0293C101.052 10.0293 100.596 9.91862 100.199 9.69727C99.8021 9.47266 99.4928 9.15853 99.2715 8.75488C99.0534 8.35124 98.9443 7.889 98.9443 7.36816C98.9443 6.84733 99.055 6.38672 99.2764 5.98633C99.501 5.58268 99.8135 5.27018 100.214 5.04883C100.614 4.82422 101.068 4.71191 101.576 4.71191ZM103.314 7.03125C103.288 6.52344 103.116 6.12142 102.797 5.8252C102.481 5.52897 102.068 5.38086 101.557 5.38086C101.055 5.38086 100.637 5.5306 100.302 5.83008C99.9697 6.12956 99.7744 6.52995 99.7158 7.03125H103.314ZM110.136 10L108.588 5.71777L107.05 10H106.239L104.267 4.73145H105.087L106.649 9.18945L108.178 4.73145H108.998L110.546 9.18945L112.089 4.73145H112.899L110.946 10H110.136ZM119.442 4.70215C120.071 4.70215 120.561 4.88444 120.912 5.24902C121.267 5.61035 121.444 6.11003 121.444 6.74805V10H120.663V6.95801C120.663 6.49251 120.531 6.12956 120.268 5.86914C120.004 5.60872 119.639 5.47852 119.174 5.47852C118.62 5.48503 118.186 5.66569 117.87 6.02051C117.554 6.37207 117.396 6.83594 117.396 7.41211V10H116.615V2.57812H117.396V5.9082C117.742 5.11393 118.424 4.71191 119.442 4.70215ZM125.287 4.71191C126.114 4.71191 126.737 4.97721 127.157 5.50781C127.577 6.03516 127.766 6.75618 127.724 7.6709H123.427C123.492 8.18522 123.697 8.59375 124.042 8.89648C124.39 9.19922 124.822 9.35059 125.336 9.35059C125.661 9.35059 125.963 9.29362 126.239 9.17969C126.516 9.06576 126.758 8.90299 126.967 8.69141L127.396 9.15039C127.143 9.43034 126.833 9.64681 126.469 9.7998C126.107 9.9528 125.71 10.0293 125.277 10.0293C124.763 10.0293 124.307 9.91862 123.91 9.69727C123.513 9.47266 123.204 9.15853 122.982 8.75488C122.764 8.35124 122.655 7.889 122.655 7.36816C122.655 6.84733 122.766 6.38672 122.987 5.98633C123.212 5.58268 123.524 5.27018 123.925 5.04883C124.325 4.82422 124.779 4.71191 125.287 4.71191ZM127.025 7.03125C126.999 6.52344 126.827 6.12142 126.508 5.8252C126.192 5.52897 125.779 5.38086 125.268 5.38086C124.766 5.38086 124.348 5.5306 124.013 5.83008C123.681 6.12956 123.485 6.52995 123.427 7.03125H127.025ZM129.843 5.89844C130.019 5.51432 130.266 5.22135 130.585 5.01953C130.904 4.81445 131.286 4.70866 131.732 4.70215V5.48828C131.186 5.48177 130.746 5.63477 130.414 5.94727C130.082 6.25651 129.892 6.6748 129.843 7.20215V10H129.066V4.73145H129.843V5.89844ZM134.887 4.71191C135.714 4.71191 136.337 4.97721 136.757 5.50781C137.177 6.03516 137.366 6.75618 137.323 7.6709H133.026C133.091 8.18522 133.297 8.59375 133.642 8.89648C133.99 9.19922 134.421 9.35059 134.936 9.35059C135.261 9.35059 135.562 9.29362 135.839 9.17969C136.116 9.06576 136.358 8.90299 136.566 8.69141L136.996 9.15039C136.742 9.43034 136.433 9.64681 136.068 9.7998C135.707 9.9528 135.31 10.0293 134.877 10.0293C134.363 10.0293 133.907 9.91862 133.51 9.69727C133.113 9.47266 132.803 9.15853 132.582 8.75488C132.364 8.35124 132.255 7.889 132.255 7.36816C132.255 6.84733 132.366 6.38672 132.587 5.98633C132.812 5.58268 133.124 5.27018 133.524 5.04883C133.925 4.82422 134.379 4.71191 134.887 4.71191ZM136.625 7.03125C136.599 6.52344 136.426 6.12142 136.107 5.8252C135.792 5.52897 135.378 5.38086 134.867 5.38086C134.366 5.38086 133.948 5.5306 133.612 5.83008C133.28 6.12956 133.085 6.52995 133.026 7.03125H136.625Z" fill="#000D35"/>
<rect x="62.5" y="21.5" width="82" height="25" stroke="#000D35"/>
<path d="M144.5 28.5H160C163.038 28.5 165.5 30.9624 165.5 34C165.5 37.0376 163.038 39.5 160 39.5H144.5V28.5Z" stroke="#000D35"/>
<rect x="166" y="34" width="61" height="1" fill="#000D35"/>
<rect x="92" y="20" width="11" height="1" fill="#000D35"/>
<rect x="121" y="20" width="11" height="1" fill="#000D35"/>
<path d="M0.5 21.5H76C82.9036 21.5 88.5 27.0964 88.5 34C88.5 40.9036 82.9036 46.5 76 46.5H0.5V21.5Z" fill="#F0F7F9" stroke="#000D35"/>
<path fill-rule="evenodd" clip-rule="evenodd" d="M11.457 36.9141H14.2001V39.9993H11.457V36.9141Z" fill="#000D35"/>
<path fill-rule="evenodd" clip-rule="evenodd" d="M17.0965 28H11.5326V35.1212H18.9998V29.8528C19.0028 28.8525 18.1454 28 17.0965 28Z" fill="#000D35"/>
<path fill-rule="evenodd" clip-rule="evenodd" d="M7 36.9688V37.8238C7 38.7846 7.71219 39.6062 8.62208 39.6062H9.40017V36.9688H7Z" fill="#000D35"/>
<path fill-rule="evenodd" clip-rule="evenodd" d="M9.40017 28H8.62208C7.74768 28 7 28.7826 7 29.7825V30.6375H9.40017V28Z" fill="#000D35"/>
<path fill-rule="evenodd" clip-rule="evenodd" d="M7 32.4844H9.40017V35.1219H7V32.4844Z" fill="#000D35"/>
<path fill-rule="evenodd" clip-rule="evenodd" d="M15.8027 39.6062H16.5808C17.4552 39.6062 18.2029 38.8228 18.2029 37.8219V36.9688H15.8027V39.6062Z" fill="#000D35"/>
<circle cx="75" cy="34" r="6.5" fill="white" stroke="#000D35"/>
<rect x="96.5" y="28.5" width="35" height="10" stroke="#000D35"/>
<path d="M114 14.5V35.5" stroke="#000D35"/>
</svg>
