<svg width="320" height="47" viewBox="0 0 320 47" fill="none" xmlns="http://www.w3.org/2000/svg">
<path d="M120.874 4.70215C121.369 4.70215 121.807 4.81608 122.188 5.04395C122.572 5.26855 122.869 5.58431 123.081 5.99121C123.296 6.39811 123.403 6.86035 123.403 7.37793C123.403 7.89225 123.298 8.35124 123.086 8.75488C122.878 9.15853 122.583 9.47266 122.202 9.69727C121.825 9.91862 121.388 10.0293 120.894 10.0293C120.428 10.0293 120.02 9.92839 119.668 9.72656C119.32 9.52148 119.046 9.23665 118.848 8.87207V11.9385H118.066V4.73145H118.848V5.86914C119.04 5.49479 119.31 5.20671 119.658 5.00488C120.01 4.80306 120.415 4.70215 120.874 4.70215ZM120.737 9.32129C121.095 9.32129 121.418 9.23828 121.704 9.07227C121.991 8.90299 122.214 8.66862 122.373 8.36914C122.536 8.06966 122.617 7.73275 122.617 7.3584C122.617 6.98405 122.536 6.64876 122.373 6.35254C122.214 6.05632 121.991 5.82357 121.704 5.6543C121.418 5.48503 121.095 5.40039 120.737 5.40039C120.369 5.40039 120.042 5.4834 119.756 5.64941C119.469 5.81543 119.246 6.0498 119.087 6.35254C118.927 6.65202 118.848 6.9873 118.848 7.3584C118.848 7.73926 118.927 8.0778 119.087 8.37402C119.246 8.67025 119.469 8.90299 119.756 9.07227C120.042 9.23828 120.369 9.32129 120.737 9.32129ZM125.552 5.89844C125.728 5.51432 125.975 5.22135 126.294 5.01953C126.613 4.81445 126.995 4.70866 127.441 4.70215V5.48828C126.895 5.48177 126.455 5.63477 126.123 5.94727C125.791 6.25651 125.601 6.6748 125.552 7.20215V10H124.775V4.73145H125.552V5.89844ZM130.596 4.71191C131.423 4.71191 132.046 4.97721 132.466 5.50781C132.886 6.03516 133.075 6.75618 133.032 7.6709H128.735C128.8 8.18522 129.006 8.59375 129.351 8.89648C129.699 9.19922 130.13 9.35059 130.645 9.35059C130.97 9.35059 131.271 9.29362 131.548 9.17969C131.825 9.06576 132.067 8.90299 132.275 8.69141L132.705 9.15039C132.451 9.43034 132.142 9.64681 131.777 9.7998C131.416 9.9528 131.019 10.0293 130.586 10.0293C130.072 10.0293 129.616 9.91862 129.219 9.69727C128.822 9.47266 128.512 9.15853 128.291 8.75488C128.073 8.35124 127.964 7.889 127.964 7.36816C127.964 6.84733 128.075 6.38672 128.296 5.98633C128.521 5.58268 128.833 5.27018 129.233 5.04883C129.634 4.82422 130.088 4.71191 130.596 4.71191ZM132.334 7.03125C132.308 6.52344 132.135 6.12142 131.816 5.8252C131.501 5.52897 131.087 5.38086 130.576 5.38086C130.075 5.38086 129.657 5.5306 129.321 5.83008C128.989 6.12956 128.794 6.52995 128.735 7.03125H132.334ZM135.771 4.70215C136.087 4.70215 136.392 4.74447 136.685 4.8291C136.978 4.91048 137.233 5.02767 137.451 5.18066L137.153 5.80078C136.948 5.66732 136.719 5.56315 136.465 5.48828C136.211 5.41016 135.964 5.37109 135.723 5.37109C135.41 5.37109 135.158 5.42969 134.966 5.54688C134.777 5.66081 134.683 5.83496 134.683 6.06934C134.683 6.22884 134.736 6.3623 134.844 6.46973C134.951 6.57715 135.083 6.66504 135.239 6.7334C135.396 6.7985 135.614 6.87012 135.894 6.94824C136.261 7.05566 136.559 7.16309 136.787 7.27051C137.018 7.37793 137.215 7.53418 137.378 7.73926C137.541 7.94108 137.622 8.20475 137.622 8.53027C137.622 9.02507 137.437 9.39941 137.065 9.65332C136.698 9.90397 136.24 10.0293 135.693 10.0293C135.312 10.0293 134.941 9.96419 134.58 9.83398C134.222 9.70378 133.919 9.52311 133.672 9.29199L133.975 8.70117C134.196 8.90625 134.465 9.06901 134.78 9.18945C135.096 9.3099 135.41 9.37012 135.723 9.37012C136.055 9.37012 136.325 9.30501 136.533 9.1748C136.745 9.0446 136.851 8.85254 136.851 8.59863C136.851 8.34473 136.75 8.15755 136.548 8.03711C136.346 7.91341 136.035 7.79134 135.615 7.6709C135.247 7.55697 134.954 7.45117 134.736 7.35352C134.521 7.2526 134.334 7.10449 134.175 6.90918C134.019 6.71061 133.94 6.45345 133.94 6.1377C133.94 5.65918 134.113 5.30111 134.458 5.06348C134.806 4.82259 135.244 4.70215 135.771 4.70215ZM140.303 4.70215C140.618 4.70215 140.923 4.74447 141.216 4.8291C141.509 4.91048 141.764 5.02767 141.982 5.18066L141.685 5.80078C141.479 5.66732 141.25 5.56315 140.996 5.48828C140.742 5.41016 140.495 5.37109 140.254 5.37109C139.941 5.37109 139.689 5.42969 139.497 5.54688C139.308 5.66081 139.214 5.83496 139.214 6.06934C139.214 6.22884 139.268 6.3623 139.375 6.46973C139.482 6.57715 139.614 6.66504 139.771 6.7334C139.927 6.7985 140.145 6.87012 140.425 6.94824C140.793 7.05566 141.09 7.16309 141.318 7.27051C141.549 7.37793 141.746 7.53418 141.909 7.73926C142.072 7.94108 142.153 8.20475 142.153 8.53027C142.153 9.02507 141.968 9.39941 141.597 9.65332C141.229 9.90397 140.771 10.0293 140.225 10.0293C139.844 10.0293 139.473 9.96419 139.111 9.83398C138.753 9.70378 138.451 9.52311 138.203 9.29199L138.506 8.70117C138.727 8.90625 138.996 9.06901 139.312 9.18945C139.627 9.3099 139.941 9.37012 140.254 9.37012C140.586 9.37012 140.856 9.30501 141.064 9.1748C141.276 9.0446 141.382 8.85254 141.382 8.59863C141.382 8.34473 141.281 8.15755 141.079 8.03711C140.877 7.91341 140.566 7.79134 140.146 7.6709C139.779 7.55697 139.486 7.45117 139.268 7.35352C139.053 7.2526 138.866 7.10449 138.706 6.90918C138.55 6.71061 138.472 6.45345 138.472 6.1377C138.472 5.65918 138.644 5.30111 138.989 5.06348C139.338 4.82259 139.775 4.70215 140.303 4.70215ZM149.058 4.70215C149.686 4.70215 150.176 4.88444 150.527 5.24902C150.882 5.61035 151.06 6.11003 151.06 6.74805V10H150.278V6.95801C150.278 6.49251 150.146 6.12956 149.883 5.86914C149.619 5.60872 149.255 5.47852 148.789 5.47852C148.236 5.48503 147.801 5.66569 147.485 6.02051C147.17 6.37207 147.012 6.83594 147.012 7.41211V10H146.23V2.57812H147.012V5.9082C147.357 5.11393 148.039 4.71191 149.058 4.70215ZM154.902 4.71191C155.729 4.71191 156.353 4.97721 156.772 5.50781C157.192 6.03516 157.381 6.75618 157.339 7.6709H153.042C153.107 8.18522 153.312 8.59375 153.657 8.89648C154.006 9.19922 154.437 9.35059 154.951 9.35059C155.277 9.35059 155.578 9.29362 155.854 9.17969C156.131 9.06576 156.374 8.90299 156.582 8.69141L157.012 9.15039C156.758 9.43034 156.449 9.64681 156.084 9.7998C155.723 9.9528 155.326 10.0293 154.893 10.0293C154.378 10.0293 153.923 9.91862 153.525 9.69727C153.128 9.47266 152.819 9.15853 152.598 8.75488C152.38 8.35124 152.271 7.889 152.271 7.36816C152.271 6.84733 152.381 6.38672 152.603 5.98633C152.827 5.58268 153.14 5.27018 153.54 5.04883C153.94 4.82422 154.395 4.71191 154.902 4.71191ZM156.641 7.03125C156.615 6.52344 156.442 6.12142 156.123 5.8252C155.807 5.52897 155.394 5.38086 154.883 5.38086C154.382 5.38086 153.963 5.5306 153.628 5.83008C153.296 6.12956 153.101 6.52995 153.042 7.03125H156.641ZM159.458 5.89844C159.634 5.51432 159.881 5.22135 160.2 5.01953C160.519 4.81445 160.902 4.70866 161.348 4.70215V5.48828C160.801 5.48177 160.361 5.63477 160.029 5.94727C159.697 6.25651 159.507 6.6748 159.458 7.20215V10H158.682V4.73145H159.458V5.89844ZM164.502 4.71191C165.329 4.71191 165.952 4.97721 166.372 5.50781C166.792 6.03516 166.981 6.75618 166.938 7.6709H162.642C162.707 8.18522 162.912 8.59375 163.257 8.89648C163.605 9.19922 164.036 9.35059 164.551 9.35059C164.876 9.35059 165.177 9.29362 165.454 9.17969C165.731 9.06576 165.973 8.90299 166.182 8.69141L166.611 9.15039C166.357 9.43034 166.048 9.64681 165.684 9.7998C165.322 9.9528 164.925 10.0293 164.492 10.0293C163.978 10.0293 163.522 9.91862 163.125 9.69727C162.728 9.47266 162.419 9.15853 162.197 8.75488C161.979 8.35124 161.87 7.889 161.87 7.36816C161.87 6.84733 161.981 6.38672 162.202 5.98633C162.427 5.58268 162.739 5.27018 163.14 5.04883C163.54 4.82422 163.994 4.71191 164.502 4.71191ZM166.24 7.03125C166.214 6.52344 166.042 6.12142 165.723 5.8252C165.407 5.52897 164.993 5.38086 164.482 5.38086C163.981 5.38086 163.563 5.5306 163.228 5.83008C162.896 6.12956 162.7 6.52995 162.642 7.03125H166.24ZM173.745 9.63867C173.364 9.89909 172.967 10.0326 172.554 10.0391C172.147 10.0391 171.821 9.91536 171.577 9.66797C171.333 9.41732 171.211 9.04134 171.211 8.54004V5.53223H170.454V4.90234H171.211V3.51074H171.982V4.90234L173.652 4.8877V5.53223H171.982V8.39844C171.982 8.71094 172.041 8.93717 172.158 9.07715C172.275 9.21387 172.451 9.28223 172.686 9.28223C172.959 9.28223 173.239 9.19108 173.525 9.00879L173.745 9.63867ZM176.982 4.71191C177.497 4.71191 177.956 4.82422 178.359 5.04883C178.766 5.27018 179.084 5.58268 179.312 5.98633C179.539 6.38997 179.653 6.84733 179.653 7.3584C179.653 7.87923 179.539 8.34147 179.312 8.74512C179.084 9.14876 178.766 9.46452 178.359 9.69238C177.956 9.91699 177.497 10.0293 176.982 10.0293C176.468 10.0293 176.007 9.91699 175.601 9.69238C175.194 9.46452 174.876 9.14876 174.648 8.74512C174.424 8.34147 174.312 7.87923 174.312 7.3584C174.312 6.84408 174.424 6.38672 174.648 5.98633C174.876 5.58268 175.194 5.27018 175.601 5.04883C176.007 4.82422 176.468 4.71191 176.982 4.71191ZM176.982 5.41992C176.621 5.41992 176.296 5.50293 176.006 5.66895C175.716 5.83496 175.492 6.06608 175.332 6.3623C175.173 6.65527 175.093 6.99056 175.093 7.36816C175.093 7.74902 175.173 8.08757 175.332 8.38379C175.492 8.68001 175.716 8.91276 176.006 9.08203C176.296 9.24805 176.621 9.33105 176.982 9.33105C177.344 9.33105 177.669 9.24805 177.959 9.08203C178.249 8.91276 178.473 8.68001 178.633 8.38379C178.792 8.08757 178.872 7.74902 178.872 7.36816C178.872 6.9873 178.792 6.65039 178.633 6.35742C178.473 6.06445 178.247 5.83496 177.954 5.66895C177.664 5.50293 177.34 5.41992 176.982 5.41992ZM185.166 4.70215C185.482 4.70215 185.786 4.74447 186.079 4.8291C186.372 4.91048 186.628 5.02767 186.846 5.18066L186.548 5.80078C186.343 5.66732 186.113 5.56315 185.859 5.48828C185.605 5.41016 185.358 5.37109 185.117 5.37109C184.805 5.37109 184.552 5.42969 184.36 5.54688C184.172 5.66081 184.077 5.83496 184.077 6.06934C184.077 6.22884 184.131 6.3623 184.238 6.46973C184.346 6.57715 184.478 6.66504 184.634 6.7334C184.79 6.7985 185.008 6.87012 185.288 6.94824C185.656 7.05566 185.954 7.16309 186.182 7.27051C186.413 7.37793 186.61 7.53418 186.772 7.73926C186.935 7.94108 187.017 8.20475 187.017 8.53027C187.017 9.02507 186.831 9.39941 186.46 9.65332C186.092 9.90397 185.635 10.0293 185.088 10.0293C184.707 10.0293 184.336 9.96419 183.975 9.83398C183.617 9.70378 183.314 9.52311 183.066 9.29199L183.369 8.70117C183.59 8.90625 183.859 9.06901 184.175 9.18945C184.491 9.3099 184.805 9.37012 185.117 9.37012C185.449 9.37012 185.719 9.30501 185.928 9.1748C186.139 9.0446 186.245 8.85254 186.245 8.59863C186.245 8.34473 186.144 8.15755 185.942 8.03711C185.741 7.91341 185.43 7.79134 185.01 7.6709C184.642 7.55697 184.349 7.45117 184.131 7.35352C183.916 7.2526 183.729 7.10449 183.569 6.90918C183.413 6.71061 183.335 6.45345 183.335 6.1377C183.335 5.65918 183.507 5.30111 183.853 5.06348C184.201 4.82259 184.639 4.70215 185.166 4.70215ZM188.301 10V4.73145H189.067V10H188.301ZM188.677 2.68066C188.823 2.68066 188.945 2.73275 189.043 2.83691C189.141 2.93783 189.189 3.06478 189.189 3.21777C189.189 3.37077 189.141 3.49935 189.043 3.60352C188.945 3.70768 188.823 3.75977 188.677 3.75977C188.53 3.75977 188.408 3.70931 188.311 3.6084C188.216 3.50423 188.169 3.37402 188.169 3.21777C188.169 3.06478 188.216 2.93783 188.311 2.83691C188.408 2.73275 188.53 2.68066 188.677 2.68066ZM195.557 9.44824C195.557 9.95605 195.446 10.3988 195.225 10.7764C195.003 11.1572 194.692 11.4486 194.292 11.6504C193.895 11.8555 193.433 11.958 192.905 11.958C192.124 11.9515 191.405 11.6992 190.747 11.2012L191.104 10.6006C191.37 10.8219 191.647 10.9863 191.934 11.0938C192.22 11.2044 192.534 11.263 192.876 11.2695C193.449 11.2695 193.908 11.1051 194.253 10.7764C194.601 10.4508 194.775 10.0146 194.775 9.46777V8.67188C194.59 9.02669 194.329 9.2985 193.994 9.4873C193.662 9.67611 193.276 9.77051 192.837 9.77051C192.371 9.77051 191.956 9.66309 191.592 9.44824C191.227 9.23014 190.942 8.92741 190.737 8.54004C190.535 8.15267 190.435 7.71322 190.435 7.22168C190.435 6.7334 190.534 6.30046 190.732 5.92285C190.934 5.54199 191.214 5.24414 191.572 5.0293C191.934 4.8112 192.347 4.70215 192.812 4.70215C193.258 4.70215 193.647 4.79655 193.979 4.98535C194.315 5.17415 194.58 5.44596 194.775 5.80078V4.73145H195.557V9.44824ZM192.974 9.11133C193.322 9.11133 193.633 9.03158 193.906 8.87207C194.18 8.70931 194.393 8.48633 194.546 8.20312C194.699 7.91992 194.775 7.60254 194.775 7.25098C194.775 6.88965 194.699 6.56738 194.546 6.28418C194.393 6.00098 194.18 5.77962 193.906 5.62012C193.633 5.46061 193.322 5.38086 192.974 5.38086C192.629 5.38086 192.319 5.46061 192.046 5.62012C191.772 5.77962 191.558 6.00098 191.401 6.28418C191.245 6.56738 191.167 6.88965 191.167 7.25098C191.167 7.60579 191.245 7.9248 191.401 8.20801C191.558 8.48796 191.772 8.70931 192.046 8.87207C192.319 9.03158 192.629 9.11133 192.974 9.11133ZM200.142 4.70215C200.77 4.70215 201.26 4.88444 201.611 5.24902C201.966 5.61035 202.144 6.11003 202.144 6.74805V10H201.362V6.95801C201.362 6.49251 201.23 6.12956 200.967 5.86914C200.703 5.60872 200.339 5.47852 199.873 5.47852C199.359 5.48503 198.947 5.6429 198.638 5.95215C198.328 6.25814 198.149 6.66341 198.101 7.16797V10H197.324V4.73145H198.101V5.88867C198.462 5.10742 199.142 4.71191 200.142 4.70215Z" fill="#000D35"/>
<rect x="98.5" y="21.5" width="82" height="25" stroke="#000D35"/>
<path d="M180.5 28.5H196C199.038 28.5 201.5 30.9624 201.5 34C201.5 37.0376 199.038 39.5 196 39.5H180.5V28.5Z" stroke="#000D35"/>
<rect x="202" y="34" width="61" height="1" fill="#000D35"/>
<rect x="128" y="20" width="11" height="1" fill="#000D35"/>
<rect x="157" y="20" width="11" height="1" fill="#000D35"/>
<path d="M36.5 21.5H112C118.904 21.5 124.5 27.0964 124.5 34C124.5 40.9036 118.904 46.5 112 46.5H36.5V21.5Z" fill="#F0F7F9" stroke="#000D35"/>
<path fill-rule="evenodd" clip-rule="evenodd" d="M47.457 36.9141H50.2001V39.9993H47.457V36.9141Z" fill="#000D35"/>
<path fill-rule="evenodd" clip-rule="evenodd" d="M53.0971 28H47.5332V35.1212H55.0004V29.8528C55.0034 28.8525 54.146 28 53.0971 28Z" fill="#000D35"/>
<path fill-rule="evenodd" clip-rule="evenodd" d="M43 36.9688V37.8238C43 38.7846 43.7122 39.6062 44.6221 39.6062H45.4002V36.9688H43Z" fill="#000D35"/>
<path fill-rule="evenodd" clip-rule="evenodd" d="M45.4002 28H44.6221C43.7477 28 43 28.7826 43 29.7825V30.6375H45.4002V28Z" fill="#000D35"/>
<path fill-rule="evenodd" clip-rule="evenodd" d="M43 32.4844H45.4002V35.1219H43V32.4844Z" fill="#000D35"/>
<path fill-rule="evenodd" clip-rule="evenodd" d="M51.8027 39.6062H52.5808C53.4552 39.6062 54.2029 38.8228 54.2029 37.8219V36.9688H51.8027V39.6062Z" fill="#000D35"/>
<circle cx="111" cy="34" r="6.5" fill="white" stroke="#000D35"/>
<rect x="132.5" y="28.5" width="35" height="10" stroke="#000D35"/>
</svg>
