<svg viewBox="0 0 12 18" fill="none" xmlns="http://www.w3.org/2000/svg">
<path d="M6 0C3.56932 0 1.6 2.16145 1.6 4.82927V7.46341H1.2C0.542118 7.46341 0 8.05842 0 8.78049V16.6829C0 17.405 0.542118 18 1.2 18H10.8C11.4579 18 12 17.405 12 16.6829V8.78049C12 8.05842 11.4579 7.46341 10.8 7.46341H10.4V4.82927C10.4 2.16145 8.43068 0 6 0ZM6 0.878049C8.00132 0.878049 9.6 2.6327 9.6 4.82927V7.46341H2.4V4.82927C2.4 2.6327 3.99868 0.878049 6 0.878049ZM1.2 8.34146H10.8C11.0285 8.34146 11.2 8.52967 11.2 8.78049V16.6829C11.2 16.9337 11.0285 17.122 10.8 17.122H1.2C0.97148 17.122 0.8 16.9337 0.8 16.6829V8.78049C0.8 8.52967 0.97148 8.34146 1.2 8.34146Z" fill="#747E8D"/>
</svg>
