<svg width="136" height="84" viewBox="0 0 136 84" fill="none" xmlns="http://www.w3.org/2000/svg">
<mask id="mask0" mask-type="alpha" maskUnits="userSpaceOnUse" x="16" y="59" width="104" height="25">
<path d="M16.7422 59.082H119.149V83.0014H16.7422V59.082Z" fill="white"/>
</mask>
<g mask="url(#mask0)">
<path fill-rule="evenodd" clip-rule="evenodd" d="M24.0514 78.049H26.0698V64.659H24.0514V78.049ZM26.3844 60.439C26.3844 61.2022 25.8076 61.7875 25.0477 61.7875C24.287 61.7875 23.7109 61.2022 23.7109 60.439C23.7109 59.6493 24.287 59.0898 25.0477 59.0898C25.8076 59.0898 26.3844 59.6493 26.3844 60.439Z" fill="white"/>
<path fill-rule="evenodd" clip-rule="evenodd" d="M41.6914 71.3812C41.6914 68.4282 39.6206 66.2901 36.7115 66.2901C33.7759 66.2901 31.7044 68.4282 31.7044 71.3812C31.7044 74.3342 33.7759 76.4473 36.7115 76.4473C39.6206 76.4473 41.6914 74.3342 41.6914 71.3812ZM43.7356 64.6611V82.9895H41.6914V75.1742C40.6685 77.0571 38.7816 78.153 36.3179 78.153C32.386 78.153 29.6602 75.3269 29.6602 71.3303C29.6602 67.3337 32.386 64.5586 36.2913 64.5586C38.7557 64.5586 40.6685 65.6532 41.6914 67.5625V64.6611H43.7356Z" fill="white"/>
<path fill-rule="evenodd" clip-rule="evenodd" d="M60.825 64.6602V78.0502H58.7808V75.0211C57.8635 77.1084 56.029 78.1011 53.5387 78.1262C50.3151 78.1262 48.375 76.1408 48.375 72.9074V64.6602H50.4192V72.3981C50.4192 74.7916 51.8615 76.2175 54.2462 76.2175C57.1036 76.1652 58.7808 74.1289 58.7808 71.2282V64.6602H60.825Z" fill="white"/>
<path fill-rule="evenodd" clip-rule="evenodd" d="M76.4187 71.8909V70.8724C76.1824 68.1734 74.1899 66.2905 71.4647 66.2905C68.5291 66.2905 66.4583 68.4287 66.4583 71.3817C66.4583 74.3347 68.5291 76.4477 71.4647 76.4477C74.1899 76.4477 76.1824 74.5893 76.4187 71.8909ZM78.4637 64.6615V78.0509H76.4187V75.1997C75.3966 77.0575 73.509 78.1534 71.0718 78.1534C67.1406 78.1534 64.4141 75.3274 64.4141 71.3307C64.4141 67.3592 67.1134 64.559 70.9928 64.559C73.4831 64.5339 75.37 65.6278 76.4187 67.512V64.6615H78.4637Z" fill="white"/>
<path fill-rule="evenodd" clip-rule="evenodd" d="M90.289 78.049H92.3081V64.659H90.289V78.049ZM92.6227 60.439C92.6227 61.2022 92.0459 61.7875 91.2852 61.7875C90.5253 61.7875 89.9492 61.2022 89.9492 60.439C89.9492 59.6493 90.5253 59.0898 91.2852 59.0898C92.0459 59.0898 92.6227 59.6493 92.6227 60.439Z" fill="white"/>
<path fill-rule="evenodd" clip-rule="evenodd" d="M103.578 77.1334C102.582 77.7697 101.507 78.1261 100.485 78.1261C98.3886 78.1261 96.9219 76.6995 96.9219 73.8239V59.1289H98.9389V64.6601H103.038V66.6197H98.9389V73.4933C98.9389 75.402 99.5946 76.2935 100.8 76.2935C101.482 76.2935 102.216 76.0389 102.976 75.6063L103.578 77.1334Z" fill="white"/>
<path fill-rule="evenodd" clip-rule="evenodd" d="M83.1875 78.0209H85.2059V59.082H83.1875V78.0209Z" fill="white"/>
<path fill-rule="evenodd" clip-rule="evenodd" d="M16.7422 78.0209H18.7606V59.082H16.7422V78.0209Z" fill="white"/>
<path fill-rule="evenodd" clip-rule="evenodd" d="M119.148 64.7773V76.59C119.148 80.5785 116.628 83.0283 112.521 83.0032C110.467 82.953 108.284 82.1198 106.906 80.8324L107.53 79.3923C108.777 80.5038 110.57 81.2358 112.338 81.3118C115.327 81.3118 117.121 79.5444 117.121 76.5649V74.1177C116.211 75.9606 114.522 76.9193 112.104 76.9444C108.674 76.9444 106.594 74.976 106.594 71.7697V64.7773H108.621V71.2652C108.621 73.6377 110.077 75.0514 112.521 75.0514C115.432 75.0011 117.121 73.0816 117.121 69.952V64.7773H119.148Z" fill="white"/>
</g>
<path d="M7.10935 6.61116C7.07278 6.64669 7.03621 6.68223 6.99964 6.71776C3.29454 10.3633 1.0605 14.8909 0.297539 19.5993C0.103058 20.7962 0.00332446 22.0043 0 23.2125V23.3515C0.00332446 24.5128 0.094747 25.6742 0.272605 26.8242C0.829452 30.4084 2.23736 33.8925 4.49467 36.9663C5.24101 37.9823 6.08043 38.9546 7.00962 39.8705C7.04286 39.9028 7.07611 39.9335 7.10935 39.9658C9.12896 41.9299 11.3846 43.4401 13.7799 44.524C22.6013 48.5071 33.3393 46.6593 41.3712 40.0191C41.3912 40.0013 41.4128 39.9835 41.4344 39.9658C50.5018 32.4258 58.8229 25.5966 67.779 25.5966C76.7335 25.5966 85.0546 32.4258 94.122 39.9658C96.5854 42.0123 99.3032 43.6081 102.144 44.721C105.862 46.1796 109.79 46.8111 113.628 46.5495C119.026 46.1828 124.243 44.0507 128.449 39.9658C128.482 39.9335 128.514 39.9028 128.545 39.8705C129.478 38.9546 130.317 37.9823 131.063 36.9663C133.321 33.8925 134.729 30.4084 135.284 26.8242C135.656 24.432 135.648 21.9914 135.261 19.5993C134.498 14.8909 132.262 10.3633 128.558 6.71776C128.52 6.68223 128.485 6.64508 128.447 6.61116C124.243 2.52623 119.026 0.41027 113.628 0.054918C109.785 -0.198674 105.852 0.440959 102.132 1.89467C99.2965 3.00595 96.5805 4.58727 94.122 6.61116C85.0197 14.1042 76.7783 20.9819 67.779 20.9819C58.7797 20.9819 50.5384 14.1042 41.4344 6.61116C41.4177 6.59662 41.4028 6.5837 41.3862 6.57078C36.1718 2.29686 29.8121 0 23.5787 0C20.206 0 16.8716 0.671938 13.7732 2.06427C11.3796 3.14163 9.1273 4.64865 7.10935 6.61116Z" fill="url(#paint0_radial)"/>
<defs>
<radialGradient id="paint0_radial" cx="0" cy="0" r="1" gradientUnits="userSpaceOnUse" gradientTransform="translate(-3.27083 12.9276) scale(155.219 81.9033)">
<stop stop-color="#1CE5C3"/>
<stop offset="0.10253" stop-color="#1CE5C3"/>
<stop offset="0.474728" stop-color="#5440D7"/>
<stop offset="0.630807" stop-color="#8B2CE4"/>
<stop offset="0.795714" stop-color="#D421EB"/>
<stop offset="1" stop-color="#AC39FD"/>
</radialGradient>
</defs>
</svg>
