<svg width="88" height="75" viewBox="0 0 88 75" fill="none" xmlns="http://www.w3.org/2000/svg">
<mask id="mask0" mask-type="alpha" maskUnits="userSpaceOnUse" x="10" y="37" width="67" height="17">
<path d="M10.7576 37.9692H76.5707V53.3414H10.7576V37.9692Z" fill="white"/>
</mask>
<g mask="url(#mask0)">
<path fill-rule="evenodd" clip-rule="evenodd" d="M15.4551 50.1591H16.7523V41.5538H15.4551V50.1591ZM16.9545 38.8417C16.9545 39.3322 16.5838 39.7083 16.0954 39.7083C15.6066 39.7083 15.2363 39.3322 15.2363 38.8417C15.2363 38.3342 15.6066 37.9746 16.0954 37.9746C16.5838 37.9746 16.9545 38.3342 16.9545 38.8417Z" fill="white"/>
<path fill-rule="evenodd" clip-rule="evenodd" d="M26.7917 45.873C26.7917 43.9752 25.4609 42.601 23.5914 42.601C21.7047 42.601 20.3735 43.9752 20.3735 45.873C20.3735 47.7708 21.7047 49.1288 23.5914 49.1288C25.4609 49.1288 26.7917 47.7708 26.7917 45.873ZM28.1055 41.5542V53.3332H26.7917V48.3106C26.1344 49.5206 24.9217 50.2249 23.3384 50.2249C20.8115 50.2249 19.0597 48.4087 19.0597 45.8402C19.0597 43.2717 20.8115 41.4883 23.3213 41.4883C24.9051 41.4883 26.1344 42.1917 26.7917 43.4188V41.5542H28.1055Z" fill="white"/>
<path fill-rule="evenodd" clip-rule="evenodd" d="M39.0887 41.5537V50.159H37.775V48.2123C37.1855 49.5538 36.0065 50.1917 34.4061 50.2079C32.3343 50.2079 31.0875 48.9319 31.0875 46.8539V41.5537H32.4013V46.5266C32.4013 48.0649 33.3282 48.9812 34.8608 48.9812C36.6971 48.9476 37.775 47.639 37.775 45.7748V41.5537H39.0887Z" fill="white"/>
<path fill-rule="evenodd" clip-rule="evenodd" d="M49.1115 46.2V45.5455C48.9596 43.8109 47.6791 42.6008 45.9277 42.6008C44.0411 42.6008 42.7102 43.975 42.7102 45.8728C42.7102 47.7705 44.0411 49.1285 45.9277 49.1285C47.6791 49.1285 48.9596 47.9342 49.1115 46.2ZM50.4257 41.554V50.1588H49.1115V48.3265C48.4546 49.5204 47.2415 50.2247 45.6752 50.2247C43.1488 50.2247 41.3965 48.4085 41.3965 45.84C41.3965 43.2877 43.1312 41.4881 45.6244 41.4881C47.2249 41.4719 48.4375 42.1749 49.1115 43.3859V41.554H50.4257Z" fill="white"/>
<path fill-rule="evenodd" clip-rule="evenodd" d="M58.0241 50.1591H59.3217V41.5538H58.0241V50.1591ZM59.5239 38.8417C59.5239 39.3322 59.1532 39.7083 58.6644 39.7083C58.176 39.7083 57.8058 39.3322 57.8058 38.8417C57.8058 38.3342 58.176 37.9746 58.6644 37.9746C59.1532 37.9746 59.5239 38.3342 59.5239 38.8417Z" fill="white"/>
<path fill-rule="evenodd" clip-rule="evenodd" d="M66.5651 49.5699C65.9248 49.9788 65.2342 50.2079 64.5773 50.2079C63.2299 50.2079 62.2872 49.2911 62.2872 47.443V37.999H63.5835V41.5537H66.2177V42.8131H63.5835V47.2305C63.5835 48.4572 64.0049 49.0301 64.7795 49.0301C65.2176 49.0301 65.6894 48.8665 66.1782 48.5885L66.5651 49.5699Z" fill="white"/>
<path fill-rule="evenodd" clip-rule="evenodd" d="M53.4594 50.1406H54.7565V37.9692H53.4594V50.1406Z" fill="white"/>
<path fill-rule="evenodd" clip-rule="evenodd" d="M10.7576 50.1406H12.0547V37.9692H10.7576V50.1406Z" fill="white"/>
<path fill-rule="evenodd" clip-rule="evenodd" d="M76.5712 41.6284V49.22C76.5712 51.7833 74.9515 53.3577 72.3123 53.3416C70.9922 53.3093 69.589 52.7739 68.7034 51.9465L69.1047 51.0209C69.9062 51.7353 71.0587 52.2057 72.195 52.2546C74.1158 52.2546 75.2687 51.1187 75.2687 49.2039V47.6312C74.6837 48.8155 73.5982 49.4317 72.0445 49.4478C69.8402 49.4478 68.5031 48.1828 68.5031 46.1222V41.6284H69.806V45.798C69.806 47.3227 70.7415 48.2312 72.3123 48.2312C74.1832 48.1989 75.2687 46.9653 75.2687 44.954V41.6284H76.5712Z" fill="white"/>
</g>
<path d="M4.56894 4.24877C4.54544 4.27161 4.52194 4.29444 4.49844 4.31728C2.11729 6.66018 0.681549 9.56985 0.191218 12.5958C0.066232 13.365 0.00213652 14.1415 0 14.9179V15.0072C0.00213652 15.7536 0.0608908 16.4999 0.175194 17.239C0.533061 19.5425 1.43788 21.7816 2.88857 23.757C3.36822 24.4099 3.90769 25.0348 4.50485 25.6234C4.52621 25.6442 4.54758 25.6639 4.56894 25.6847C5.86688 26.9469 7.3165 27.9175 8.85587 28.6141C14.5251 31.1739 21.4261 29.9864 26.5879 25.7189C26.6007 25.7075 26.6146 25.6961 26.6285 25.6847C32.4558 20.839 37.8035 16.4501 43.5593 16.4501C49.314 16.4501 54.6617 20.839 60.4891 25.6847C62.0722 26.9999 63.8188 28.0255 65.6445 28.7407C68.0342 29.6781 70.5585 30.084 73.0251 29.9158C76.4937 29.6801 79.847 28.3099 82.5497 25.6847C82.5711 25.6639 82.5914 25.6442 82.6117 25.6234C83.2109 25.0348 83.7504 24.4099 84.2301 23.757C85.6808 21.7816 86.5856 19.5425 86.9424 17.239C87.1817 15.7017 87.1763 14.1332 86.9274 12.5958C86.4371 9.56985 85.0003 6.66018 82.6202 4.31728C82.5956 4.29444 82.5732 4.27057 82.5486 4.24877C79.847 1.62352 76.4937 0.263667 73.0251 0.035294C70.5553 -0.127681 68.0278 0.28339 65.637 1.21764C63.8146 1.93183 62.069 2.94808 60.4891 4.24877C54.6393 9.06432 49.3429 13.4844 43.5593 13.4844C37.7758 13.4844 32.4793 9.06432 26.6285 4.24877C26.6178 4.23943 26.6082 4.23112 26.5975 4.22282C23.2464 1.47612 19.1592 0 15.1533 0C12.9858 0 10.8428 0.431832 8.85159 1.32664C7.3133 2.01902 5.86581 2.98753 4.56894 4.24877Z" fill="url(#paint0_radial)"/>
<path d="M29.8933 62.516V68.852C29.8933 70.5827 29.49 71.888 28.6833 72.768C27.8767 73.648 26.6887 74.088 25.1193 74.088C24.034 74.088 23.1393 73.868 22.4353 73.428C21.7313 72.9733 21.2107 72.2693 20.8733 71.316C20.5507 72.2693 20.0373 72.9733 19.3333 73.428C18.6293 73.868 17.7273 74.088 16.6273 74.088C15.058 74.088 13.87 73.648 13.0633 72.768C12.2567 71.888 11.8533 70.5827 11.8533 68.852V62.516H12.9533V68.786C12.9533 70.2527 13.254 71.338 13.8553 72.042C14.4567 72.746 15.3807 73.098 16.6273 73.098C17.874 73.098 18.798 72.7387 19.3993 72.02C20.0153 71.3013 20.3233 70.194 20.3233 68.698V62.516H21.4233V68.698C21.4233 70.2087 21.724 71.3233 22.3253 72.042C22.9267 72.746 23.858 73.098 25.1193 73.098C26.366 73.098 27.29 72.746 27.8913 72.042C28.4927 71.338 28.7933 70.2527 28.7933 68.786V62.516H29.8933ZM43.623 62.516V74H42.545V71.294C42.0903 72.1887 41.4523 72.878 40.631 73.362C39.8097 73.846 38.8783 74.088 37.837 74.088C36.7663 74.088 35.7983 73.8387 34.933 73.34C34.0677 72.8413 33.3857 72.152 32.887 71.272C32.403 70.392 32.161 69.3873 32.161 68.258C32.161 67.1287 32.403 66.124 32.887 65.244C33.3857 64.3493 34.0677 63.66 34.933 63.176C35.7983 62.6773 36.7663 62.428 37.837 62.428C38.8637 62.428 39.7803 62.67 40.587 63.154C41.4083 63.638 42.0537 64.3127 42.523 65.178V62.516H43.623ZM37.903 73.098C38.783 73.098 39.5677 72.8927 40.257 72.482C40.961 72.0713 41.511 71.4993 41.907 70.766C42.3177 70.0327 42.523 69.1967 42.523 68.258C42.523 67.3193 42.3177 66.4833 41.907 65.75C41.511 65.0167 40.961 64.4447 40.257 64.034C39.5677 63.6233 38.783 63.418 37.903 63.418C37.023 63.418 36.231 63.6233 35.527 64.034C34.8377 64.4447 34.2877 65.0167 33.877 65.75C33.481 66.4833 33.283 67.3193 33.283 68.258C33.283 69.1967 33.481 70.0327 33.877 70.766C34.2877 71.4993 34.8377 72.0713 35.527 72.482C36.231 72.8927 37.023 73.098 37.903 73.098ZM50.2527 74.088C49.2847 74.088 48.544 73.8167 48.0307 73.274C47.5174 72.7167 47.2607 71.954 47.2607 70.986V57.676H48.3607V70.854C48.3607 71.602 48.5294 72.174 48.8667 72.57C49.204 72.9513 49.71 73.142 50.3847 73.142C50.766 73.142 51.1327 73.0687 51.4847 72.922L51.5727 73.846C51.162 74.0073 50.722 74.088 50.2527 74.088ZM55.8054 74.088C54.8374 74.088 54.0968 73.8167 53.5834 73.274C53.0701 72.7167 52.8134 71.954 52.8134 70.986V57.676H53.9134V70.854C53.9134 71.602 54.0821 72.174 54.4194 72.57C54.7568 72.9513 55.2628 73.142 55.9374 73.142C56.3188 73.142 56.6854 73.0687 57.0374 72.922L57.1254 73.846C56.7148 74.0073 56.2748 74.088 55.8054 74.088ZM62.8593 73.098C63.6073 73.098 64.2967 72.966 64.9273 72.702C65.5727 72.4233 66.108 72.02 66.5333 71.492L67.1713 72.218C66.6727 72.834 66.0493 73.3033 65.3013 73.626C64.5533 73.934 63.732 74.088 62.8373 74.088C61.6933 74.088 60.6667 73.8387 59.7573 73.34C58.8627 72.8413 58.1587 72.152 57.6453 71.272C57.1467 70.392 56.8973 69.3873 56.8973 68.258C56.8973 67.1287 57.132 66.124 57.6013 65.244C58.0853 64.364 58.7527 63.6747 59.6033 63.176C60.454 62.6773 61.4147 62.428 62.4853 62.428C63.4827 62.428 64.3773 62.6627 65.1693 63.132C65.976 63.5867 66.614 64.2247 67.0833 65.046C67.5673 65.8527 67.8313 66.762 67.8753 67.774L58.1733 69.666C58.452 70.722 59.0093 71.558 59.8453 72.174C60.6813 72.79 61.686 73.098 62.8593 73.098ZM62.4853 63.396C61.62 63.396 60.8427 63.6013 60.1533 64.012C59.464 64.408 58.9287 64.9727 58.5473 65.706C58.166 66.4247 57.9753 67.246 57.9753 68.17C57.9753 68.3313 57.99 68.5587 58.0193 68.852L66.7753 67.136C66.6727 66.4467 66.4307 65.816 66.0493 65.244C65.668 64.672 65.1693 64.2247 64.5533 63.902C63.9373 63.5647 63.248 63.396 62.4853 63.396ZM75.6243 73.274C75.3456 73.538 74.9936 73.7433 74.5683 73.89C74.1576 74.022 73.725 74.088 73.2703 74.088C72.273 74.088 71.503 73.8167 70.9603 73.274C70.4176 72.7167 70.1463 71.9467 70.1463 70.964V60.008H71.2463V62.516H74.8983V63.462H71.2463V70.854C71.2463 71.602 71.4223 72.174 71.7743 72.57C72.141 72.9513 72.6763 73.142 73.3803 73.142C74.099 73.142 74.693 72.9293 75.1623 72.504L75.6243 73.274Z" fill="white"/>
<defs>
<radialGradient id="paint0_radial" cx="0" cy="0" r="1" gradientUnits="userSpaceOnUse" gradientTransform="translate(-2.10205 8.30811) scale(99.7539 52.6366)">
<stop stop-color="#1CE5C3"/>
<stop offset="0.10253" stop-color="#1CE5C3"/>
<stop offset="0.474728" stop-color="#5440D7"/>
<stop offset="0.630807" stop-color="#8B2CE4"/>
<stop offset="0.795714" stop-color="#D421EB"/>
<stop offset="1" stop-color="#AC39FD"/>
</radialGradient>
</defs>
</svg>
