<svg width="136" height="83" viewBox="0 0 136 83" fill="none" xmlns="http://www.w3.org/2000/svg">
<mask id="mask0" mask-type="alpha" maskUnits="userSpaceOnUse" x="16" y="59" width="104" height="24">
<path d="M16.7393 59.0806H119.146V82.9999H16.7393V59.0806Z" fill="white"/>
</mask>
<g mask="url(#mask0)">
<path fill-rule="evenodd" clip-rule="evenodd" d="M24.0487 78.0481H26.0671V64.6581H24.0487V78.0481ZM26.3817 60.4381C26.3817 61.2013 25.8049 61.7866 25.045 61.7866C24.2843 61.7866 23.7083 61.2013 23.7083 60.4381C23.7083 59.6484 24.2843 59.0889 25.045 59.0889C25.8049 59.0889 26.3817 59.6484 26.3817 60.4381Z" fill="white"/>
<path fill-rule="evenodd" clip-rule="evenodd" d="M41.6884 71.3783C41.6884 68.4253 39.6176 66.2871 36.7086 66.2871C33.773 66.2871 31.7015 68.4253 31.7015 71.3783C31.7015 74.3313 33.773 76.4444 36.7086 76.4444C39.6176 76.4444 41.6884 74.3313 41.6884 71.3783ZM43.7327 64.6582V82.9866H41.6884V75.1712C40.6656 77.0541 38.7787 78.15 36.315 78.15C32.3831 78.15 29.6572 75.324 29.6572 71.3274C29.6572 67.3308 32.3831 64.5557 36.2884 64.5557C38.7528 64.5557 40.6656 65.6502 41.6884 67.5596V64.6582H43.7327Z" fill="white"/>
<path fill-rule="evenodd" clip-rule="evenodd" d="M60.8223 64.6582V78.0482H58.7781V75.0192C57.8608 77.1064 56.0263 78.0991 53.536 78.1242C50.3124 78.1242 48.3723 76.1388 48.3723 72.9054V64.6582H50.4166V72.3962C50.4166 74.7896 51.8588 76.2156 54.2436 76.2156C57.1009 76.1633 58.7781 74.1269 58.7781 71.2262V64.6582H60.8223Z" fill="white"/>
<path fill-rule="evenodd" clip-rule="evenodd" d="M76.418 71.8875V70.869C76.1817 68.1699 74.1892 66.2871 71.464 66.2871C68.5284 66.2871 66.4576 68.4253 66.4576 71.3782C66.4576 74.3312 68.5284 76.4443 71.464 76.4443C74.1892 76.4443 76.1817 74.5859 76.418 71.8875ZM78.4629 64.6581V78.0474H76.418V75.1963C75.3959 77.0541 73.5082 78.15 71.0711 78.15C67.1399 78.15 64.4133 75.324 64.4133 71.3273C64.4133 67.3558 67.1126 64.5556 70.9921 64.5556C73.4824 64.5305 75.3693 65.6244 76.418 67.5086V64.6581H78.4629Z" fill="white"/>
<path fill-rule="evenodd" clip-rule="evenodd" d="M90.2866 78.0481H92.3056V64.6581H90.2866V78.0481ZM92.6202 60.4381C92.6202 61.2013 92.0435 61.7866 91.2828 61.7866C90.5229 61.7866 89.9468 61.2013 89.9468 60.4381C89.9468 59.6484 90.5229 59.0889 91.2828 59.0889C92.0435 59.0889 92.6202 59.6484 92.6202 60.4381Z" fill="white"/>
<path fill-rule="evenodd" clip-rule="evenodd" d="M103.576 77.131C102.58 77.7672 101.505 78.1237 100.483 78.1237C98.3864 78.1237 96.9197 76.6971 96.9197 73.8215V59.1265H98.9367V64.6576H103.036V66.6173H98.9367V73.4908C98.9367 75.3995 99.5924 76.2911 100.798 76.2911C101.479 76.2911 102.213 76.0364 102.974 75.6039L103.576 77.131Z" fill="white"/>
<path fill-rule="evenodd" clip-rule="evenodd" d="M83.1836 78.0194H85.202V59.0806H83.1836V78.0194Z" fill="white"/>
<path fill-rule="evenodd" clip-rule="evenodd" d="M16.7393 78.0194H18.7576V59.0806H16.7393V78.0194Z" fill="white"/>
<path fill-rule="evenodd" clip-rule="evenodd" d="M119.146 64.7739V76.5866C119.146 80.5751 116.626 83.0249 112.519 82.9998C110.465 82.9496 108.282 82.1164 106.904 80.829L107.528 79.3888C108.775 80.5004 110.568 81.2323 112.337 81.3084C115.325 81.3084 117.119 79.5409 117.119 76.5615V74.1143C116.209 75.9572 114.52 76.9159 112.102 76.941C108.672 76.941 106.592 74.9726 106.592 71.7663V64.7739H108.619V71.2618C108.619 73.6343 110.075 75.048 112.519 75.048C115.43 74.9977 117.119 73.0782 117.119 69.9486V64.7739H119.146Z" fill="white"/>
</g>
<path d="M7.10935 6.61116C7.07278 6.64669 7.03621 6.68223 6.99964 6.71776C3.29454 10.3633 1.0605 14.8909 0.297539 19.5993C0.103058 20.7962 0.00332446 22.0043 0 23.2125V23.3515C0.00332446 24.5128 0.094747 25.6742 0.272605 26.8242C0.829452 30.4084 2.23736 33.8925 4.49467 36.9663C5.24101 37.9823 6.08043 38.9546 7.00962 39.8705C7.04286 39.9028 7.07611 39.9335 7.10935 39.9658C9.12896 41.9299 11.3846 43.4401 13.7799 44.524C22.6013 48.5071 33.3393 46.6593 41.3712 40.0191C41.3912 40.0013 41.4128 39.9835 41.4344 39.9658C50.5018 32.4258 58.8229 25.5966 67.779 25.5966C76.7335 25.5966 85.0546 32.4258 94.122 39.9658C96.5854 42.0123 99.3032 43.6081 102.144 44.721C105.862 46.1796 109.79 46.8111 113.628 46.5495C119.026 46.1828 124.243 44.0507 128.449 39.9658C128.482 39.9335 128.514 39.9028 128.545 39.8705C129.478 38.9546 130.317 37.9823 131.063 36.9663C133.321 33.8925 134.729 30.4084 135.284 26.8242C135.656 24.432 135.648 21.9914 135.261 19.5993C134.498 14.8909 132.262 10.3633 128.558 6.71776C128.52 6.68223 128.485 6.64508 128.447 6.61116C124.243 2.52623 119.026 0.41027 113.628 0.054918C109.785 -0.198674 105.852 0.440959 102.132 1.89467C99.2965 3.00595 96.5805 4.58727 94.122 6.61116C85.0197 14.1042 76.7783 20.9819 67.779 20.9819C58.7797 20.9819 50.5384 14.1042 41.4344 6.61116C41.4177 6.59662 41.4028 6.5837 41.3862 6.57078C36.1718 2.29686 29.8121 0 23.5787 0C20.206 0 16.8716 0.671938 13.7732 2.06427C11.3796 3.14163 9.1273 4.64865 7.10935 6.61116Z" fill="url(#paint0_radial)"/>
<defs>
<radialGradient id="paint0_radial" cx="0" cy="0" r="1" gradientUnits="userSpaceOnUse" gradientTransform="translate(-3.27083 12.9276) scale(155.219 81.9033)">
<stop stop-color="#1CE5C3"/>
<stop offset="0.10253" stop-color="#1CE5C3"/>
<stop offset="0.474728" stop-color="#5440D7"/>
<stop offset="0.630807" stop-color="#8B2CE4"/>
<stop offset="0.795714" stop-color="#D421EB"/>
<stop offset="1" stop-color="#AC39FD"/>
</radialGradient>
</defs>
</svg>
