<svg xmlns="http://www.w3.org/2000/svg" xmlns:xlink="http://www.w3.org/1999/xlink" width="243px" height="36px" viewBox="0 0 243 36" version="1.1">
    <!-- Generator: Sketch 64 (93537) - https://sketch.com -->
    <title>Group 8</title>
    <desc>Created with Sketch.</desc>
    <defs>
        <path d="M8.286,1.408 C6.846,2.075 5.491,3.008 4.277,4.223 L4.277,4.223 C4.255,4.245 4.233,4.267 4.211,4.289 L4.211,4.289 C1.982,6.546 0.638,9.349 0.179,12.264 L0.179,12.264 C0.062,13.004 0.002,13.752 0,14.5 L0,14.5 L0,14.587 C0.002,15.306 0.057,16.025 0.164,16.737 L0.164,16.737 C0.499,18.956 1.346,21.113 2.704,23.016 L2.704,23.016 C3.153,23.645 3.658,24.247 4.217,24.813 L4.217,24.813 C4.237,24.833 4.257,24.853 4.277,24.873 L4.277,24.873 C5.492,26.089 6.849,27.024 8.29,27.694 L8.29,27.694 C13.597,30.161 20.057,29.017 24.889,24.906 L24.889,24.906 C24.901,24.894 24.914,24.884 24.927,24.873 L24.927,24.873 C30.382,20.205 35.388,15.977 40.776,15.977 L40.776,15.977 C46.163,15.977 51.169,20.205 56.624,24.873 L56.624,24.873 C58.106,26.14 59.741,27.128 61.45,27.817 L61.45,27.817 C63.687,28.72 66.05,29.111 68.359,28.949 L68.359,28.949 C71.606,28.722 74.745,27.402 77.275,24.873 L77.275,24.873 C77.295,24.853 77.314,24.833 77.333,24.813 L77.333,24.813 C77.894,24.247 78.399,23.645 78.848,23.016 L78.848,23.016 C80.206,21.113 81.053,18.956 81.387,16.737 L81.387,16.737 C81.611,15.255 81.606,13.745 81.373,12.264 L81.373,12.264 C80.914,9.349 79.569,6.546 77.341,4.289 L77.341,4.289 C77.318,4.267 77.297,4.244 77.274,4.223 L77.274,4.223 C74.745,1.693 71.606,0.383 68.359,0.164 L68.359,0.164 C66.047,0.007 63.681,0.402 61.443,1.303 L61.443,1.303 C59.737,1.99 58.103,2.97 56.624,4.223 L56.624,4.223 C51.148,8.862 46.19,13.119 40.776,13.119 L40.776,13.119 C35.362,13.119 30.404,8.862 24.927,4.223 L24.927,4.223 C24.917,4.214 24.908,4.206 24.898,4.198 L24.898,4.198 C21.761,1.552 17.935,0.13 14.185,0.13 L14.185,0.13 C12.156,0.13 10.15,0.546 8.286,1.408" id="path-1"/>
        <polygon id="path-3" points="0.844 0.773 147.322 0.773 147.322 36 0.844 36"/>
        <radialGradient cx="-6.66996502%" cy="50%" fx="-6.66996502%" fy="50%" r="323.614728%" gradientTransform="translate(-0.066700,0.500000),scale(0.353829,1.000000),scale(1.000000,0.543016),translate(0.066700,-0.500000)" id="radialGradient-5">
            <stop stop-color="#1CE5C3" offset="0%"/>
            <stop stop-color="#1CE5C3" offset="10.2529779%"/>
            <stop stop-color="#5440D7" offset="47.4728355%"/>
            <stop stop-color="#8B2CE4" offset="63.0806588%"/>
            <stop stop-color="#D421EB" offset="79.5713682%"/>
            <stop stop-color="#AC39FD" offset="100%"/>
        </radialGradient>
        <path d="M4.277,4.223 C4.255,4.245 4.233,4.267 4.211,4.289 C1.982,6.546 0.638,9.349 0.179,12.264 C0.062,13.005 0.002,13.753 0,14.501 L0,14.587 C0.002,15.306 0.057,16.025 0.164,16.737 C0.499,18.956 1.346,21.113 2.704,23.016 C3.153,23.645 3.658,24.247 4.217,24.814 C4.237,24.834 4.257,24.853 4.277,24.873 C5.492,26.089 6.849,27.024 8.29,27.695 C13.597,30.161 20.057,29.017 24.889,24.906 C24.901,24.895 24.914,24.884 24.927,24.873 C30.382,20.205 35.388,15.977 40.776,15.977 C46.163,15.977 51.169,20.205 56.624,24.873 C58.106,26.14 59.741,27.128 61.45,27.817 C63.687,28.72 66.05,29.111 68.359,28.949 C71.606,28.722 74.745,27.402 77.275,24.873 C77.295,24.853 77.314,24.834 77.333,24.814 C77.894,24.247 78.399,23.645 78.848,23.016 C80.206,21.113 81.053,18.956 81.387,16.737 C81.611,15.256 81.606,13.745 81.373,12.264 C80.914,9.349 79.569,6.546 77.341,4.289 C77.318,4.267 77.297,4.244 77.274,4.223 C74.745,1.694 71.606,0.384 68.359,0.164 C66.047,0.007 63.681,0.403 61.443,1.303 C59.737,1.991 58.103,2.97 56.624,4.223 C51.148,8.862 46.19,13.12 40.776,13.12 C35.362,13.12 30.404,8.862 24.927,4.223 C24.917,4.214 24.908,4.206 24.898,4.198 C21.761,1.552 17.935,0.13 14.185,0.13 C12.156,0.13 10.15,0.546 8.286,1.408 C6.846,2.075 5.491,3.008 4.277,4.223 Z" id="path-6"/>
    </defs>
    <g id="Page-1" stroke="none" stroke-width="1" fill="none" fill-rule="evenodd">
        <g id="Group-8" transform="translate(0.000000, -0.772700)">
            <g id="Group-3" transform="translate(0.000000, 2.000000)">
                <mask id="mask-2" fill="white">
                    <use xlink:href="#path-1"/>
                </mask>
                <g id="Clip-2"/>
            </g>
            <g id="Group-17" transform="translate(95.000000, 0.000000)">
                <mask id="mask-4" fill="white">
                    <use xlink:href="#path-3"/>
                </mask>
                <g id="Clip-8"/>
                <path d="M11.299,28.707 L14.186,28.707 L14.186,8.987 L11.299,8.987 L11.299,28.707 Z M14.636,2.772 C14.636,3.896 13.811,4.758 12.724,4.758 C11.636,4.758 10.812,3.896 10.812,2.772 C10.812,1.609 11.636,0.785 12.724,0.785 C13.811,0.785 14.636,1.609 14.636,2.772 L14.636,2.772 Z" id="Fill-7" fill="#282828" mask="url(#mask-4)"/>
                <path d="M36.5303,18.8845 C36.5303,14.5355 33.5683,11.3865 29.4073,11.3865 C25.2083,11.3865 22.2453,14.5355 22.2453,18.8845 C22.2453,23.2335 25.2083,26.3455 29.4073,26.3455 C33.5683,26.3455 36.5303,23.2335 36.5303,18.8845 L36.5303,18.8845 Z M39.4543,8.9875 L39.4543,35.9805 L36.5303,35.9805 L36.5303,24.4705 C35.0673,27.2435 32.3683,28.8575 28.8443,28.8575 C23.2203,28.8575 19.3213,24.6955 19.3213,18.8095 C19.3213,12.9235 23.2203,8.8365 28.8063,8.8365 C32.3313,8.8365 35.0673,10.4485 36.5303,13.2605 L36.5303,8.9875 L39.4543,8.9875 Z" id="Fill-9" fill="#282828" mask="url(#mask-4)"/>
                <path d="M63.8984,8.987 L63.8984,28.707 L60.9744,28.707 L60.9744,24.246 C59.6624,27.32 57.0384,28.782 53.4764,28.819 C48.8654,28.819 46.0904,25.895 46.0904,21.133 L46.0904,8.987 L49.0144,8.987 L49.0144,20.383 C49.0144,23.908 51.0774,26.008 54.4884,26.008 C58.5754,25.931 60.9744,22.932 60.9744,18.66 L60.9744,8.987 L63.8984,8.987 Z" id="Fill-10" fill="#282828" mask="url(#mask-4)"/>
                <path d="M86.2061,19.6345 L86.2061,18.1345 C85.8681,14.1595 83.0181,11.3865 79.1201,11.3865 C74.9211,11.3865 71.9591,14.5355 71.9591,18.8845 C71.9591,23.2335 74.9211,26.3455 79.1201,26.3455 C83.0181,26.3455 85.8681,23.6085 86.2061,19.6345 L86.2061,19.6345 Z M89.1311,8.9875 L89.1311,28.7065 L86.2061,28.7065 L86.2061,24.5075 C84.7441,27.2435 82.0441,28.8575 78.5581,28.8575 C72.9351,28.8575 69.0351,24.6955 69.0351,18.8095 C69.0351,12.9605 72.8961,8.8365 78.4451,8.8365 C82.0071,8.7995 84.7061,10.4105 86.2061,13.1855 L86.2061,8.9875 L89.1311,8.9875 Z" id="Fill-11" fill="#282828" mask="url(#mask-4)"/>
                <path d="M106.043,28.707 L108.931,28.707 L108.931,8.987 L106.043,8.987 L106.043,28.707 Z M109.381,2.772 C109.381,3.896 108.556,4.758 107.468,4.758 C106.381,4.758 105.557,3.896 105.557,2.772 C105.557,1.609 106.381,0.785 107.468,0.785 C108.556,0.785 109.381,1.609 109.381,2.772 L109.381,2.772 Z" id="Fill-12" fill="#282828" mask="url(#mask-4)"/>
                <path d="M125.0518,27.3571 C123.6268,28.2941 122.0898,28.8191 120.6278,28.8191 C117.6288,28.8191 115.5308,26.7181 115.5308,22.4831 L115.5308,0.8411 L118.4158,0.8411 L118.4158,8.9871 L124.2788,8.9871 L124.2788,11.8731 L118.4158,11.8731 L118.4158,21.9961 C118.4158,24.8071 119.3538,26.1201 121.0778,26.1201 C122.0528,26.1201 123.1028,25.7451 124.1908,25.1081 L125.0518,27.3571 Z" id="Fill-13" fill="#282828" mask="url(#mask-4)"/>
                <polygon id="Fill-14" fill="#282828" mask="url(#mask-4)" points="95.883 28.665 98.77 28.665 98.77 0.773 95.883 0.773"/>
                <polygon id="Fill-15" fill="#282828" mask="url(#mask-4)" points="0.844 28.665 3.731 28.665 3.731 0.773 0.844 0.773"/>
                <path d="M147.3223,9.1579 L147.3223,26.5549 C147.3223,32.4289 143.7173,36.0369 137.8433,35.9999 C134.9053,35.9259 131.7823,34.6989 129.8113,32.8029 L130.7043,30.6819 C132.4883,32.3189 135.0533,33.3969 137.5823,33.5089 C141.8573,33.5089 144.4233,30.9059 144.4233,26.5179 L144.4233,22.9139 C143.1213,25.6279 140.7053,27.0399 137.2473,27.0769 C132.3413,27.0769 129.3653,24.1779 129.3653,19.4559 L129.3653,9.1579 L132.2653,9.1579 L132.2653,18.7129 C132.2653,22.2069 134.3473,24.2889 137.8433,24.2889 C142.0073,24.2149 144.4233,21.3879 144.4233,16.7789 L144.4233,9.1579 L147.3223,9.1579 Z" id="Fill-16" fill="#282828" mask="url(#mask-4)"/>
            </g>
            <g id="Group-6" transform="translate(0.000000, 1.772700)">
                <mask id="mask-7" fill="white">
                    <use xlink:href="#path-6"/>
                </mask>
                <use id="Clip-5" fill="url(#radialGradient-5)" xlink:href="#path-6"/>
            </g>
        </g>
    </g>
</svg>