<svg width="375" height="76" viewBox="0 0 375 76" fill="none" xmlns="http://www.w3.org/2000/svg">
<mask id="mask0" mask-type="alpha" maskUnits="userSpaceOnUse" x="154" y="37" width="67" height="17">
<path d="M154.758 37.9692H220.571V53.3414H154.758V37.9692Z" fill="white"/>
</mask>
<g mask="url(#mask0)">
<path fill-rule="evenodd" clip-rule="evenodd" d="M159.455 50.1591H160.752V41.5538H159.455V50.1591ZM160.954 38.8417C160.954 39.3322 160.584 39.7083 160.095 39.7083C159.607 39.7083 159.236 39.3322 159.236 38.8417C159.236 38.3342 159.607 37.9746 160.095 37.9746C160.584 37.9746 160.954 38.3342 160.954 38.8417Z" fill="white"/>
<path fill-rule="evenodd" clip-rule="evenodd" d="M170.792 45.873C170.792 43.9752 169.461 42.601 167.591 42.601C165.705 42.601 164.373 43.9752 164.373 45.873C164.373 47.7708 165.705 49.1288 167.591 49.1288C169.461 49.1288 170.792 47.7708 170.792 45.873ZM172.106 41.5542V53.3332H170.792V48.3106C170.134 49.5206 168.922 50.2249 167.338 50.2249C164.812 50.2249 163.06 48.4087 163.06 45.8402C163.06 43.2717 164.812 41.4883 167.321 41.4883C168.905 41.4883 170.134 42.1917 170.792 43.4188V41.5542H172.106Z" fill="white"/>
<path fill-rule="evenodd" clip-rule="evenodd" d="M183.089 41.5537V50.159H181.775V48.2123C181.185 49.5538 180.007 50.1917 178.406 50.2079C176.334 50.2079 175.088 48.9319 175.088 46.8539V41.5537H176.401V46.5266C176.401 48.0649 177.328 48.9812 178.861 48.9812C180.697 48.9476 181.775 47.639 181.775 45.7748V41.5537H183.089Z" fill="white"/>
<path fill-rule="evenodd" clip-rule="evenodd" d="M193.111 46.2V45.5455C192.96 43.8109 191.679 42.6008 189.928 42.6008C188.041 42.6008 186.71 43.975 186.71 45.8728C186.71 47.7705 188.041 49.1285 189.928 49.1285C191.679 49.1285 192.96 47.9342 193.111 46.2ZM194.426 41.554V50.1588H193.111V48.3265C192.455 49.5204 191.241 50.2247 189.675 50.2247C187.149 50.2247 185.396 48.4085 185.396 45.84C185.396 43.2877 187.131 41.4881 189.624 41.4881C191.225 41.4719 192.438 42.1749 193.111 43.3859V41.554H194.426Z" fill="white"/>
<path fill-rule="evenodd" clip-rule="evenodd" d="M202.024 50.1591H203.322V41.5538H202.024V50.1591ZM203.524 38.8417C203.524 39.3322 203.153 39.7083 202.664 39.7083C202.176 39.7083 201.806 39.3322 201.806 38.8417C201.806 38.3342 202.176 37.9746 202.664 37.9746C203.153 37.9746 203.524 38.3342 203.524 38.8417Z" fill="white"/>
<path fill-rule="evenodd" clip-rule="evenodd" d="M210.565 49.5699C209.925 49.9788 209.234 50.2079 208.577 50.2079C207.23 50.2079 206.287 49.2911 206.287 47.443V37.999H207.583V41.5537H210.218V42.8131H207.583V47.2305C207.583 48.4572 208.005 49.0301 208.78 49.0301C209.218 49.0301 209.689 48.8665 210.178 48.5885L210.565 49.5699Z" fill="white"/>
<path fill-rule="evenodd" clip-rule="evenodd" d="M197.459 50.1406H198.756V37.9692H197.459V50.1406Z" fill="white"/>
<path fill-rule="evenodd" clip-rule="evenodd" d="M154.758 50.1406H156.055V37.9692H154.758V50.1406Z" fill="white"/>
<path fill-rule="evenodd" clip-rule="evenodd" d="M220.571 41.6284V49.22C220.571 51.7833 218.951 53.3577 216.312 53.3416C214.992 53.3093 213.589 52.7739 212.703 51.9465L213.105 51.0209C213.906 51.7353 215.059 52.2057 216.195 52.2546C218.116 52.2546 219.269 51.1187 219.269 49.2039V47.6312C218.684 48.8155 217.598 49.4317 216.044 49.4478C213.84 49.4478 212.503 48.1828 212.503 46.1222V41.6284H213.806V45.798C213.806 47.3227 214.741 48.2312 216.312 48.2312C218.183 48.1989 219.269 46.9653 219.269 44.954V41.6284H220.571Z" fill="white"/>
</g>
<path d="M148.569 4.24877C148.545 4.27161 148.522 4.29444 148.498 4.31728C146.117 6.66018 144.682 9.56985 144.191 12.5958C144.066 13.365 144.002 14.1415 144 14.9179V15.0072C144.002 15.7536 144.061 16.4999 144.175 17.239C144.533 19.5425 145.438 21.7816 146.889 23.757C147.368 24.4099 147.908 25.0348 148.505 25.6234C148.526 25.6442 148.548 25.6639 148.569 25.6847C149.867 26.9469 151.317 27.9175 152.856 28.6141C158.525 31.1739 165.426 29.9864 170.588 25.7189C170.601 25.7075 170.615 25.6961 170.628 25.6847C176.456 20.839 181.804 16.4501 187.559 16.4501C193.314 16.4501 198.662 20.839 204.489 25.6847C206.072 26.9999 207.819 28.0255 209.645 28.7407C212.034 29.6781 214.558 30.084 217.025 29.9158C220.494 29.6801 223.847 28.3099 226.55 25.6847C226.571 25.6639 226.591 25.6442 226.612 25.6234C227.211 25.0348 227.75 24.4099 228.23 23.757C229.681 21.7816 230.586 19.5425 230.942 17.239C231.182 15.7017 231.176 14.1332 230.927 12.5958C230.437 9.56985 229 6.66018 226.62 4.31728C226.596 4.29444 226.573 4.27057 226.549 4.24877C223.847 1.62352 220.494 0.263667 217.025 0.035294C214.555 -0.127681 212.028 0.28339 209.637 1.21764C207.815 1.93183 206.069 2.94808 204.489 4.24877C198.639 9.06432 193.343 13.4844 187.559 13.4844C181.776 13.4844 176.479 9.06432 170.628 4.24877C170.618 4.23943 170.608 4.23112 170.598 4.22282C167.246 1.47612 163.159 0 159.153 0C156.986 0 154.843 0.431832 152.852 1.32664C151.313 2.01902 149.866 2.98753 148.569 4.24877Z" fill="url(#paint0_radial)"/>
<path d="M174.893 62.8573V69.1933C174.893 70.924 174.49 72.2293 173.683 73.1093C172.877 73.9893 171.689 74.4293 170.119 74.4293C169.034 74.4293 168.139 74.2093 167.435 73.7693C166.731 73.3146 166.211 72.6106 165.873 71.6573C165.551 72.6106 165.037 73.3146 164.333 73.7693C163.629 74.2093 162.727 74.4293 161.627 74.4293C160.058 74.4293 158.87 73.9893 158.063 73.1093C157.257 72.2293 156.853 70.924 156.853 69.1933V62.8573H157.953V69.1273C157.953 70.594 158.254 71.6793 158.855 72.3833C159.457 73.0873 160.381 73.4393 161.627 73.4393C162.874 73.4393 163.798 73.08 164.399 72.3613C165.015 71.6426 165.323 70.5353 165.323 69.0393V62.8573H166.423V69.0393C166.423 70.55 166.724 71.6646 167.325 72.3833C167.927 73.0873 168.858 73.4393 170.119 73.4393C171.366 73.4393 172.29 73.0873 172.891 72.3833C173.493 71.6793 173.793 70.594 173.793 69.1273V62.8573H174.893ZM188.623 62.8573V74.3413H187.545V71.6353C187.09 72.53 186.452 73.2193 185.631 73.7033C184.81 74.1873 183.878 74.4293 182.837 74.4293C181.766 74.4293 180.798 74.18 179.933 73.6813C179.068 73.1826 178.386 72.4933 177.887 71.6133C177.403 70.7333 177.161 69.7286 177.161 68.5993C177.161 67.47 177.403 66.4653 177.887 65.5853C178.386 64.6906 179.068 64.0013 179.933 63.5173C180.798 63.0186 181.766 62.7693 182.837 62.7693C183.864 62.7693 184.78 63.0113 185.587 63.4953C186.408 63.9793 187.054 64.654 187.523 65.5193V62.8573H188.623ZM182.903 73.4393C183.783 73.4393 184.568 73.234 185.257 72.8233C185.961 72.4126 186.511 71.8406 186.907 71.1073C187.318 70.374 187.523 69.538 187.523 68.5993C187.523 67.6606 187.318 66.8246 186.907 66.0913C186.511 65.358 185.961 64.786 185.257 64.3753C184.568 63.9646 183.783 63.7593 182.903 63.7593C182.023 63.7593 181.231 63.9646 180.527 64.3753C179.838 64.786 179.288 65.358 178.877 66.0913C178.481 66.8246 178.283 67.6606 178.283 68.5993C178.283 69.538 178.481 70.374 178.877 71.1073C179.288 71.8406 179.838 72.4126 180.527 72.8233C181.231 73.234 182.023 73.4393 182.903 73.4393ZM195.253 74.4293C194.285 74.4293 193.544 74.158 193.031 73.6153C192.517 73.058 192.261 72.2953 192.261 71.3273V58.0173H193.361V71.1953C193.361 71.9433 193.529 72.5153 193.867 72.9113C194.204 73.2926 194.71 73.4833 195.385 73.4833C195.766 73.4833 196.133 73.41 196.485 73.2633L196.573 74.1873C196.162 74.3486 195.722 74.4293 195.253 74.4293ZM200.805 74.4293C199.837 74.4293 199.097 74.158 198.583 73.6153C198.07 73.058 197.813 72.2953 197.813 71.3273V58.0173H198.913V71.1953C198.913 71.9433 199.082 72.5153 199.419 72.9113C199.757 73.2926 200.263 73.4833 200.937 73.4833C201.319 73.4833 201.685 73.41 202.037 73.2633L202.125 74.1873C201.715 74.3486 201.275 74.4293 200.805 74.4293ZM207.859 73.4393C208.607 73.4393 209.297 73.3073 209.927 73.0433C210.573 72.7646 211.108 72.3613 211.533 71.8333L212.171 72.5593C211.673 73.1753 211.049 73.6446 210.301 73.9673C209.553 74.2753 208.732 74.4293 207.837 74.4293C206.693 74.4293 205.667 74.18 204.757 73.6813C203.863 73.1826 203.159 72.4933 202.645 71.6133C202.147 70.7333 201.897 69.7286 201.897 68.5993C201.897 67.47 202.132 66.4653 202.601 65.5853C203.085 64.7053 203.753 64.016 204.603 63.5173C205.454 63.0186 206.415 62.7693 207.485 62.7693C208.483 62.7693 209.377 63.004 210.169 63.4733C210.976 63.928 211.614 64.566 212.083 65.3873C212.567 66.194 212.831 67.1033 212.875 68.1153L203.173 70.0073C203.452 71.0633 204.009 71.8993 204.845 72.5153C205.681 73.1313 206.686 73.4393 207.859 73.4393ZM207.485 63.7373C206.62 63.7373 205.843 63.9426 205.153 64.3533C204.464 64.7493 203.929 65.314 203.547 66.0473C203.166 66.766 202.975 67.5873 202.975 68.5113C202.975 68.6726 202.99 68.9 203.019 69.1933L211.775 67.4773C211.673 66.788 211.431 66.1573 211.049 65.5853C210.668 65.0133 210.169 64.566 209.553 64.2433C208.937 63.906 208.248 63.7373 207.485 63.7373ZM220.624 73.6153C220.346 73.8793 219.994 74.0846 219.568 74.2313C219.158 74.3633 218.725 74.4293 218.27 74.4293C217.273 74.4293 216.503 74.158 215.96 73.6153C215.418 73.058 215.146 72.288 215.146 71.3053V60.3493H216.246V62.8573H219.898V63.8033H216.246V71.1953C216.246 71.9433 216.422 72.5153 216.774 72.9113C217.141 73.2926 217.676 73.4833 218.38 73.4833C219.099 73.4833 219.693 73.2706 220.162 72.8453L220.624 73.6153Z" fill="white"/>
<defs>
<radialGradient id="paint0_radial" cx="0" cy="0" r="1" gradientUnits="userSpaceOnUse" gradientTransform="translate(141.898 8.30811) scale(99.7539 52.6366)">
<stop stop-color="#1CE5C3"/>
<stop offset="0.10253" stop-color="#1CE5C3"/>
<stop offset="0.474728" stop-color="#5440D7"/>
<stop offset="0.630807" stop-color="#8B2CE4"/>
<stop offset="0.795714" stop-color="#D421EB"/>
<stop offset="1" stop-color="#AC39FD"/>
</radialGradient>
</defs>
</svg>
