<svg viewBox="0 0 36 12" fill="none" xmlns="http://www.w3.org/2000/svg">
<path d="M1.88803 1.70215C1.87832 1.7113 1.86861 1.72045 1.8589 1.7296C0.874932 2.66821 0.281638 3.83389 0.0790176 5.04615C0.0273692 5.35431 0.000882878 5.66538 0 5.97645V6.01221C0.000882878 6.31122 0.025162 6.61023 0.072396 6.90633C0.220278 7.82914 0.594177 8.72617 1.19365 9.51757C1.39186 9.77915 1.61478 10.0295 1.86155 10.2653C1.87038 10.2736 1.87921 10.2815 1.88803 10.2898C2.42438 10.7955 3.02342 11.1844 3.65953 11.4634C6.00225 12.489 8.85394 12.0132 10.987 10.3036C10.9923 10.299 10.998 10.2944 11.0038 10.2898C13.4118 8.34856 15.6216 6.59027 18.0001 6.59027C20.3782 6.59027 22.588 8.34856 24.996 10.2898C25.6503 10.8167 26.372 11.2276 27.1264 11.5142C28.1139 11.8897 29.1571 12.0523 30.1763 11.9849C31.6097 11.8905 32.9954 11.3416 34.1122 10.2898C34.121 10.2815 34.1294 10.2736 34.1378 10.2653C34.3855 10.0295 34.6084 9.77915 34.8066 9.51757C35.4061 8.72617 35.78 7.82914 35.9274 6.90633C36.0263 6.29043 36.0241 5.66205 35.9212 5.04615C35.7186 3.83389 35.1249 2.66821 34.1413 1.7296C34.1312 1.72045 34.1219 1.71088 34.1118 1.70215C32.9954 0.650419 31.6097 0.105631 30.1763 0.0141395C29.1557 -0.0511518 28.1113 0.113532 27.1233 0.487814C26.3702 0.773932 25.6489 1.18107 24.996 1.70215C22.5787 3.63137 20.3901 5.40213 18.0001 5.40213C15.6102 5.40213 13.4215 3.63137 11.0038 1.70215C10.9993 1.69841 10.9954 1.69508 10.991 1.69175C9.60616 0.591365 7.91721 0 6.26181 0C5.36613 0 4.48061 0.173001 3.65776 0.53148C3.02209 0.808865 2.42394 1.19687 1.88803 1.70215Z" fill="url(#paint0_radial)"/>
<defs>
<radialGradient id="paint0_radial" cx="0" cy="0" r="1" gradientUnits="userSpaceOnUse" gradientTransform="translate(-0.868636 3.32841) scale(41.2215 21.0874)">
<stop stop-color="#1CE5C3"/>
<stop offset="0.10253" stop-color="#1CE5C3"/>
<stop offset="0.474728" stop-color="#5440D7"/>
<stop offset="0.630807" stop-color="#8B2CE4"/>
<stop offset="0.795714" stop-color="#D421EB"/>
<stop offset="1" stop-color="#AC39FD"/>
</radialGradient>
</defs>
</svg>
