<svg width="167" height="95" viewBox="0 0 167 95" fill="none" xmlns="http://www.w3.org/2000/svg">
<path d="M45.1 34.29V50.13C45.1 54.4566 44.0917 57.72 42.075 59.92C40.0583 62.12 37.0883 63.22 33.165 63.22C30.4517 63.22 28.215 62.67 26.455 61.57C24.695 60.4333 23.3933 58.6733 22.55 56.29C21.7433 58.6733 20.46 60.4333 18.7 61.57C16.94 62.67 14.685 63.22 11.935 63.22C8.01167 63.22 5.04167 62.12 3.025 59.92C1.00833 57.72 0 54.4566 0 50.13V34.29H2.75V49.965C2.75 53.6316 3.50167 56.345 5.005 58.105C6.50833 59.865 8.81833 60.745 11.935 60.745C15.0517 60.745 17.3617 59.8466 18.865 58.05C20.405 56.2533 21.175 53.485 21.175 49.745V34.29H23.925V49.745C23.925 53.5216 24.6767 56.3083 26.18 58.105C27.6833 59.865 30.0117 60.745 33.165 60.745C36.2817 60.745 38.5917 59.865 40.095 58.105C41.5983 56.345 42.35 53.6316 42.35 49.965V34.29H45.1Z" fill="#F3F800"/>
<path d="M80.9242 34.29V63H78.2292V56.235C77.0926 58.4716 75.4976 60.195 73.4442 61.405C71.3909 62.615 69.0626 63.22 66.4592 63.22C63.7826 63.22 61.3626 62.5966 59.1992 61.35C57.0359 60.1033 55.3309 58.38 54.0842 56.18C52.8742 53.98 52.2692 51.4683 52.2692 48.645C52.2692 45.8216 52.8742 43.31 54.0842 41.11C55.3309 38.8733 57.0359 37.15 59.1992 35.94C61.3626 34.6933 63.7826 34.07 66.4592 34.07C69.0259 34.07 71.3176 34.675 73.3342 35.885C75.3876 37.095 77.0009 38.7816 78.1742 40.945V34.29H80.9242ZM66.6242 60.745C68.8242 60.745 70.7859 60.2316 72.5092 59.205C74.2692 58.1783 75.6442 56.7483 76.6342 54.915C77.6609 53.0816 78.1742 50.9916 78.1742 48.645C78.1742 46.2983 77.6609 44.2083 76.6342 42.375C75.6442 40.5416 74.2692 39.1116 72.5092 38.085C70.7859 37.0583 68.8242 36.545 66.6242 36.545C64.4242 36.545 62.4442 37.0583 60.6842 38.085C58.9609 39.1116 57.5859 40.5416 56.5592 42.375C55.5692 44.2083 55.0742 46.2983 55.0742 48.645C55.0742 50.9916 55.5692 53.0816 56.5592 54.915C57.5859 56.7483 58.9609 58.1783 60.6842 59.205C62.4442 60.2316 64.4242 60.745 66.6242 60.745Z" fill="#F3F800"/>
<path d="M98.9985 63.22C96.5785 63.22 94.7268 62.5416 93.4435 61.185C92.1601 59.7916 91.5185 57.885 91.5185 55.465V22.19H94.2685V55.135C94.2685 57.005 94.6901 58.435 95.5335 59.425C96.3768 60.3783 97.6418 60.855 99.3285 60.855C100.282 60.855 101.198 60.6716 102.078 60.305L102.298 62.615C101.272 63.0183 100.172 63.22 98.9985 63.22Z" fill="#F3F800"/>
<path d="M114.38 63.22C111.96 63.22 110.109 62.5416 108.825 61.185C107.542 59.7916 106.9 57.885 106.9 55.465V22.19H109.65V55.135C109.65 57.005 110.072 58.435 110.915 59.425C111.759 60.3783 113.024 60.855 114.71 60.855C115.664 60.855 116.58 60.6716 117.46 60.305L117.68 62.615C116.654 63.0183 115.554 63.22 114.38 63.22Z" fill="#F3F800"/>
<path d="M133.515 60.745C135.385 60.745 137.108 60.415 138.685 59.755C140.298 59.0583 141.637 58.05 142.7 56.73L144.295 58.545C143.048 60.085 141.49 61.2583 139.62 62.065C137.75 62.835 135.697 63.22 133.46 63.22C130.6 63.22 128.033 62.5966 125.76 61.35C123.523 60.1033 121.763 58.38 120.48 56.18C119.233 53.98 118.61 51.4683 118.61 48.645C118.61 45.8216 119.197 43.31 120.37 41.11C121.58 38.91 123.248 37.1866 125.375 35.94C127.502 34.6933 129.903 34.07 132.58 34.07C135.073 34.07 137.31 34.6566 139.29 35.83C141.307 36.9666 142.902 38.5616 144.075 40.615C145.285 42.6316 145.945 44.905 146.055 47.435L121.8 52.165C122.497 54.805 123.89 56.895 125.98 58.435C128.07 59.975 130.582 60.745 133.515 60.745ZM132.58 36.49C130.417 36.49 128.473 37.0033 126.75 38.03C125.027 39.02 123.688 40.4316 122.735 42.265C121.782 44.0616 121.305 46.115 121.305 48.425C121.305 48.8283 121.342 49.3966 121.415 50.13L143.305 45.84C143.048 44.1166 142.443 42.54 141.49 41.11C140.537 39.68 139.29 38.5616 137.75 37.755C136.21 36.9116 134.487 36.49 132.58 36.49Z" fill="#F3F800"/>
<path d="M166.927 61.185C166.231 61.845 165.351 62.3583 164.287 62.725C163.261 63.055 162.179 63.22 161.042 63.22C158.549 63.22 156.624 62.5416 155.267 61.185C153.911 59.7916 153.232 57.8666 153.232 55.41V28.02H155.982V34.29H165.112V36.655H155.982V55.135C155.982 57.005 156.422 58.435 157.302 59.425C158.219 60.3783 159.557 60.855 161.317 60.855C163.114 60.855 164.599 60.3233 165.772 59.26L166.927 61.185Z" fill="#F3F800"/>
<path d="M58.7061 10.09C57.7941 10.09 56.9721 9.88596 56.2401 9.47796C55.5081 9.05796 54.9321 8.48196 54.5121 7.74996C54.0921 7.01796 53.8821 6.18996 53.8821 5.26596C53.8821 4.34196 54.0921 3.51396 54.5121 2.78196C54.9321 2.04996 55.5081 1.47996 56.2401 1.07196C56.9721 0.663961 57.7941 0.459961 58.7061 0.459961C59.6181 0.459961 60.4401 0.663961 61.1721 1.07196C61.9041 1.47996 62.4741 2.04996 62.8821 2.78196C63.3021 3.51396 63.5121 4.34196 63.5121 5.26596C63.5121 6.18996 63.3021 7.01796 62.8821 7.74996C62.4741 8.48196 61.9041 9.05796 61.1721 9.47796C60.4401 9.88596 59.6181 10.09 58.7061 10.09ZM58.7061 8.95596C59.3781 8.95596 59.9781 8.80596 60.5061 8.50596C61.0461 8.19396 61.4661 7.75596 61.7661 7.19196C62.0661 6.62796 62.2161 5.98596 62.2161 5.26596C62.2161 4.54596 62.0661 3.90396 61.7661 3.33996C61.4661 2.77596 61.0461 2.34396 60.5061 2.04396C59.9781 1.73196 59.3781 1.57596 58.7061 1.57596C58.0341 1.57596 57.4281 1.73196 56.8881 2.04396C56.3601 2.34396 55.9401 2.77596 55.6281 3.33996C55.3281 3.90396 55.1781 4.54596 55.1781 5.26596C55.1781 5.98596 55.3281 6.62796 55.6281 7.19196C55.9401 7.75596 56.3601 8.19396 56.8881 8.50596C57.4281 8.80596 58.0341 8.95596 58.7061 8.95596Z" fill="#F3F800"/>
<path d="M70.8652 0.459961C72.0532 0.459961 72.9952 0.807961 73.6912 1.50396C74.3992 2.18796 74.7532 3.18996 74.7532 4.50996V9.99996H73.4752V4.63596C73.4752 3.65196 73.2292 2.90196 72.7372 2.38596C72.2452 1.86996 71.5432 1.61196 70.6312 1.61196C69.6112 1.61196 68.8012 1.91796 68.2012 2.52996C67.6132 3.12996 67.3192 3.96396 67.3192 5.03196V9.99996H66.0412V0.531961H67.2652V2.27796C67.6132 1.70196 68.0932 1.25796 68.7052 0.945961C69.3292 0.621961 70.0492 0.459961 70.8652 0.459961Z" fill="#F3F800"/>
<path d="M86.422 5.66196H78.502C78.574 6.64596 78.952 7.44396 79.636 8.05596C80.32 8.65596 81.184 8.95596 82.228 8.95596C82.816 8.95596 83.356 8.85396 83.848 8.64996C84.34 8.43396 84.766 8.12196 85.126 7.71396L85.846 8.54196C85.426 9.04596 84.898 9.42996 84.262 9.69396C83.638 9.95796 82.948 10.09 82.192 10.09C81.22 10.09 80.356 9.88596 79.6 9.47796C78.856 9.05796 78.274 8.48196 77.854 7.74996C77.434 7.01796 77.224 6.18996 77.224 5.26596C77.224 4.34196 77.422 3.51396 77.818 2.78196C78.226 2.04996 78.778 1.47996 79.474 1.07196C80.182 0.663961 80.974 0.459961 81.85 0.459961C82.726 0.459961 83.512 0.663961 84.208 1.07196C84.904 1.47996 85.45 2.04996 85.846 2.78196C86.242 3.50196 86.44 4.32996 86.44 5.26596L86.422 5.66196ZM81.85 1.55796C80.938 1.55796 80.17 1.85196 79.546 2.43996C78.934 3.01596 78.586 3.77196 78.502 4.70796H85.216C85.132 3.77196 84.778 3.01596 84.154 2.43996C83.542 1.85196 82.774 1.55796 81.85 1.55796Z" fill="#F3F800"/>
<path d="M33.8011 84.46C35.0371 84.46 35.9851 84.772 36.6451 85.396C37.3051 86.008 37.6351 86.92 37.6351 88.132V94H36.4111V92.524C36.1231 93.016 35.6971 93.4 35.1331 93.676C34.5811 93.952 33.9211 94.09 33.1531 94.09C32.0971 94.09 31.2571 93.838 30.6331 93.334C30.0091 92.83 29.6971 92.164 29.6971 91.336C29.6971 90.532 29.9851 89.884 30.5611 89.392C31.1491 88.9 32.0791 88.654 33.3511 88.654H36.3571V88.078C36.3571 87.262 36.1291 86.644 35.6731 86.224C35.2171 85.792 34.5511 85.576 33.6751 85.576C33.0751 85.576 32.4991 85.678 31.9471 85.882C31.3951 86.074 30.9211 86.344 30.5251 86.692L29.9491 85.738C30.4291 85.33 31.0051 85.018 31.6771 84.802C32.3491 84.574 33.0571 84.46 33.8011 84.46ZM33.3511 93.082C34.0711 93.082 34.6891 92.92 35.2051 92.596C35.7211 92.26 36.1051 91.78 36.3571 91.156V89.608H33.3871C31.7671 89.608 30.9571 90.172 30.9571 91.3C30.9571 91.852 31.1671 92.29 31.5871 92.614C32.0071 92.926 32.5951 93.082 33.3511 93.082Z" fill="#F3F800"/>
<path d="M41.0263 80.644H42.3043V94H41.0263V80.644Z" fill="#F3F800"/>
<path d="M45.7803 80.644H47.0583V94H45.7803V80.644Z" fill="#F3F800"/>
<path d="M59.0892 94.09C58.1532 94.09 57.3132 93.886 56.5692 93.478C55.8372 93.07 55.2612 92.5 54.8412 91.768C54.4212 91.024 54.2112 90.19 54.2112 89.266C54.2112 88.342 54.4212 87.514 54.8412 86.782C55.2612 86.05 55.8372 85.48 56.5692 85.072C57.3132 84.664 58.1532 84.46 59.0892 84.46C59.9052 84.46 60.6312 84.622 61.2672 84.946C61.9152 85.258 62.4252 85.72 62.7972 86.332L61.8432 86.98C61.5312 86.512 61.1352 86.164 60.6552 85.936C60.1752 85.696 59.6532 85.576 59.0892 85.576C58.4052 85.576 57.7872 85.732 57.2352 86.044C56.6952 86.344 56.2692 86.776 55.9572 87.34C55.6572 87.904 55.5072 88.546 55.5072 89.266C55.5072 89.998 55.6572 90.646 55.9572 91.21C56.2692 91.762 56.6952 92.194 57.2352 92.506C57.7872 92.806 58.4052 92.956 59.0892 92.956C59.6532 92.956 60.1752 92.842 60.6552 92.614C61.1352 92.386 61.5312 92.038 61.8432 91.57L62.7972 92.218C62.4252 92.83 61.9152 93.298 61.2672 93.622C60.6192 93.934 59.8932 94.09 59.0892 94.09Z" fill="#F3F800"/>
<path d="M69.9112 84.46C71.0992 84.46 72.0412 84.808 72.7372 85.504C73.4452 86.188 73.7992 87.19 73.7992 88.51V94H72.5212V88.636C72.5212 87.652 72.2752 86.902 71.7832 86.386C71.2912 85.87 70.5892 85.612 69.6772 85.612C68.6572 85.612 67.8472 85.918 67.2472 86.53C66.6592 87.13 66.3652 87.964 66.3652 89.032V94H65.0872V80.644H66.3652V86.188C66.7132 85.636 67.1932 85.21 67.8052 84.91C68.4172 84.61 69.1192 84.46 69.9112 84.46Z" fill="#F3F800"/>
<path d="M80.5008 84.46C81.7368 84.46 82.6848 84.772 83.3448 85.396C84.0048 86.008 84.3348 86.92 84.3348 88.132V94H83.1108V92.524C82.8228 93.016 82.3968 93.4 81.8328 93.676C81.2808 93.952 80.6208 94.09 79.8528 94.09C78.7968 94.09 77.9568 93.838 77.3328 93.334C76.7088 92.83 76.3968 92.164 76.3968 91.336C76.3968 90.532 76.6848 89.884 77.2608 89.392C77.8488 88.9 78.7788 88.654 80.0508 88.654H83.0568V88.078C83.0568 87.262 82.8288 86.644 82.3728 86.224C81.9168 85.792 81.2508 85.576 80.3748 85.576C79.7748 85.576 79.1988 85.678 78.6468 85.882C78.0948 86.074 77.6208 86.344 77.2248 86.692L76.6488 85.738C77.1288 85.33 77.7048 85.018 78.3768 84.802C79.0488 84.574 79.7568 84.46 80.5008 84.46ZM80.0508 93.082C80.7708 93.082 81.3888 92.92 81.9048 92.596C82.4208 92.26 82.8048 91.78 83.0568 91.156V89.608H80.0868C78.4668 89.608 77.6568 90.172 77.6568 91.3C77.6568 91.852 77.8668 92.29 78.2868 92.614C78.7068 92.926 79.2948 93.082 80.0508 93.082Z" fill="#F3F800"/>
<path d="M87.726 84.532H89.004V94H87.726V84.532ZM88.374 82.462C88.11 82.462 87.888 82.372 87.708 82.192C87.528 82.012 87.438 81.796 87.438 81.544C87.438 81.304 87.528 81.094 87.708 80.914C87.888 80.734 88.11 80.644 88.374 80.644C88.638 80.644 88.86 80.734 89.04 80.914C89.22 81.082 89.31 81.286 89.31 81.526C89.31 81.79 89.22 82.012 89.04 82.192C88.86 82.372 88.638 82.462 88.374 82.462Z" fill="#F3F800"/>
<path d="M97.304 84.46C98.492 84.46 99.434 84.808 100.13 85.504C100.838 86.188 101.192 87.19 101.192 88.51V94H99.914V88.636C99.914 87.652 99.668 86.902 99.176 86.386C98.684 85.87 97.982 85.612 97.07 85.612C96.05 85.612 95.24 85.918 94.64 86.53C94.052 87.13 93.758 87.964 93.758 89.032V94H92.48V84.532H93.704V86.278C94.052 85.702 94.532 85.258 95.144 84.946C95.768 84.622 96.488 84.46 97.304 84.46Z" fill="#F3F800"/>
<path d="M107.12 94.09C106.352 94.09 105.614 93.982 104.906 93.766C104.21 93.538 103.664 93.256 103.268 92.92L103.844 91.912C104.24 92.224 104.738 92.482 105.338 92.686C105.938 92.878 106.562 92.974 107.21 92.974C108.074 92.974 108.71 92.842 109.118 92.578C109.538 92.302 109.748 91.918 109.748 91.426C109.748 91.078 109.634 90.808 109.406 90.616C109.178 90.412 108.89 90.262 108.542 90.166C108.194 90.058 107.732 89.956 107.156 89.86C106.388 89.716 105.77 89.572 105.302 89.428C104.834 89.272 104.432 89.014 104.096 88.654C103.772 88.294 103.61 87.796 103.61 87.16C103.61 86.368 103.94 85.72 104.6 85.216C105.26 84.712 106.178 84.46 107.354 84.46C107.966 84.46 108.578 84.544 109.19 84.712C109.802 84.868 110.306 85.078 110.702 85.342L110.144 86.368C109.364 85.828 108.434 85.558 107.354 85.558C106.538 85.558 105.92 85.702 105.5 85.99C105.092 86.278 104.888 86.656 104.888 87.124C104.888 87.484 105.002 87.772 105.23 87.988C105.47 88.204 105.764 88.366 106.112 88.474C106.46 88.57 106.94 88.672 107.552 88.78C108.308 88.924 108.914 89.068 109.37 89.212C109.826 89.356 110.216 89.602 110.54 89.95C110.864 90.298 111.026 90.778 111.026 91.39C111.026 92.218 110.678 92.878 109.982 93.37C109.298 93.85 108.344 94.09 107.12 94.09Z" fill="#F3F800"/>
</svg>
