<svg width="215" height="49" viewBox="0 0 215 49" fill="none" xmlns="http://www.w3.org/2000/svg">
<g clip-path="url(#clip0_1226_2651)">
<path d="M49.1991 24.5C49.1991 29.3456 47.7564 34.0825 45.0533 38.1115C42.3503 42.1405 38.5084 45.2807 34.0134 47.1351C29.5184 48.9894 24.5723 49.4746 19.8004 48.5292C15.0286 47.5839 10.6454 45.2505 7.20505 41.8241C3.76474 38.3977 1.42186 34.0322 0.472684 29.2797C-0.476494 24.5272 0.0106586 19.601 1.87254 15.1243C3.73442 10.6475 6.88741 6.82109 10.9328 4.12899C14.9782 1.4369 19.7342 0 24.5996 0C31.1238 0 37.3807 2.58124 41.9941 7.17588C46.6074 11.7705 49.1991 18.0022 49.1991 24.5Z" fill="#2081E2"/>
<path d="M12.1373 25.3241L12.2407 25.1575L18.6415 15.1909C18.6633 15.1586 18.6934 15.1326 18.7286 15.1157C18.7638 15.0988 18.8029 15.0914 18.8419 15.0944C18.8809 15.0974 18.9184 15.1106 18.9506 15.1327C18.9828 15.1548 19.0085 15.185 19.0252 15.2203C20.0928 17.6066 20.9932 20.576 20.5848 22.4233C20.2921 23.3891 19.8684 24.3107 19.3253 25.1624C19.2515 25.2996 19.1728 25.4368 19.0843 25.5691C19.064 25.5983 19.0367 25.6221 19.005 25.6384C18.9732 25.6546 18.9379 25.6628 18.9022 25.6622H12.3243C12.2841 25.6638 12.2442 25.6543 12.2091 25.6346C12.174 25.6149 12.1452 25.5859 12.1257 25.5507C12.1063 25.5156 12.0971 25.4758 12.0992 25.4358C12.1012 25.3957 12.1144 25.357 12.1373 25.3241Z" fill="white"/>
<path d="M40.6581 27.1763V28.7541C40.6589 28.7976 40.6466 28.8404 40.623 28.877C40.5994 28.9136 40.5654 28.9424 40.5253 28.9599C40.0333 29.1706 38.331 29.9399 37.6275 30.9199C35.8268 33.4189 34.4394 36.9861 31.3792 36.9861H18.5579C17.4755 36.9848 16.404 36.771 15.4046 36.357C14.4052 35.943 13.4976 35.3368 12.7336 34.5732C11.9696 33.8095 11.3643 32.9034 10.9521 31.9066C10.54 30.9098 10.3292 29.8419 10.3318 28.7639V28.6169C10.3331 28.5592 10.357 28.5044 10.3984 28.4641C10.4398 28.4238 10.4953 28.4012 10.5532 28.4013H17.7117C17.7453 28.4024 17.7784 28.4105 17.8088 28.4249C17.8392 28.4393 17.8663 28.4597 17.8884 28.485C17.9106 28.5103 17.9273 28.5398 17.9375 28.5717C17.9477 28.6037 17.9512 28.6374 17.9478 28.6708C17.8955 29.1416 17.9846 29.6174 18.2037 30.0379C18.4113 30.4562 18.7325 30.8083 19.1307 31.0543C19.5289 31.3002 19.9884 31.4302 20.457 31.4295H23.9944V28.6806H20.4816C20.4408 28.6797 20.4009 28.6679 20.3663 28.6464C20.3317 28.6248 20.3036 28.5944 20.2849 28.5582C20.2663 28.5221 20.2578 28.4816 20.2603 28.441C20.2629 28.4004 20.2765 28.3613 20.2995 28.3278L20.4275 28.1416C20.7571 27.6516 21.2294 26.946 21.7017 26.1179C22.0304 25.5513 22.3245 24.9655 22.5824 24.3637C22.6316 24.2559 22.6709 24.1432 22.7152 24.0354C22.7841 23.8443 22.853 23.663 22.9022 23.4866C22.9514 23.3102 22.9957 23.1779 23.035 23.0309C23.1515 22.5031 23.2077 21.964 23.2023 21.4237C23.2023 21.2032 23.2023 20.9729 23.1728 20.7573C23.1433 20.5417 23.1334 20.2673 23.1039 20.037C23.0744 19.8067 23.0449 19.6156 23.0055 19.4C22.9514 19.0815 22.8825 18.763 22.8038 18.42L22.7743 18.2975C22.7152 18.077 22.6611 17.8712 22.5922 17.6507C22.3905 16.9647 22.1642 16.2934 21.9182 15.6907C21.8296 15.4408 21.7312 15.2007 21.6279 14.9655C21.4803 14.6029 21.3278 14.2746 21.19 13.9855C21.1162 13.8434 21.0572 13.716 20.9982 13.5837C20.9391 13.4514 20.8604 13.2897 20.7866 13.1476C20.7128 13.0055 20.6784 12.9369 20.639 12.8389L20.2061 12.0451C20.1931 12.021 20.1874 11.9938 20.1895 11.9666C20.1917 11.9394 20.2017 11.9134 20.2183 11.8917C20.2349 11.87 20.2574 11.8535 20.2831 11.8442C20.3089 11.8349 20.3368 11.8332 20.3635 11.8393L23.0695 12.5694L23.4237 12.6723L23.8173 12.7801L23.96 12.8193V11.2023C23.9586 11.0174 23.9943 10.8342 24.0649 10.6633C24.1354 10.4923 24.2394 10.3371 24.3709 10.2067C24.5023 10.0762 24.6586 9.97312 24.8304 9.90345C25.0023 9.83378 25.1864 9.7989 25.372 9.80086C25.5554 9.79943 25.7373 9.83519 25.9064 9.90595C26.0756 9.97671 26.2285 10.081 26.356 10.2125C26.6153 10.4735 26.7619 10.8252 26.7643 11.1925V13.569L27.0546 13.6474L27.1185 13.6817L27.4187 13.9071C27.522 13.9855 27.6302 14.0835 27.7581 14.1864C28.0189 14.3971 28.3338 14.6764 28.6732 14.9753C28.7618 15.0537 28.8503 15.1321 28.934 15.2154C29.3719 15.6221 29.8638 16.0974 30.3362 16.6266C30.469 16.7785 30.5969 16.9255 30.7298 17.0872C30.8626 17.2489 31.0003 17.4057 31.1184 17.5772C31.2365 17.7487 31.4481 18.0084 31.6104 18.2387C31.6793 18.3465 31.7629 18.4592 31.8269 18.567C32.0172 18.8536 32.1929 19.1496 32.3533 19.4539C32.4222 19.5911 32.4911 19.743 32.5501 19.89C32.7306 20.2793 32.8692 20.6867 32.9634 21.1052C32.9924 21.1927 33.0122 21.283 33.0224 21.3747C33.0494 21.4988 33.0659 21.625 33.0716 21.752C33.1096 22.18 33.0814 22.6113 32.988 23.0309C32.9486 23.2073 32.8994 23.3739 32.8404 23.5552C32.7814 23.7365 32.7174 23.9031 32.6387 24.0746C32.4868 24.4301 32.3058 24.7726 32.0975 25.0987C32.0286 25.2212 31.945 25.3486 31.8662 25.4711C31.7875 25.5936 31.6842 25.721 31.6055 25.8386C31.5268 25.9562 31.3743 26.1473 31.2513 26.2894C31.1463 26.4378 31.033 26.5801 30.9118 26.7157C30.7445 26.9166 30.5822 27.1028 30.4198 27.2841C30.3198 27.4058 30.213 27.522 30.1 27.632C29.9918 27.7545 29.8786 27.8623 29.7802 27.9603C29.6818 28.0583 29.4703 28.2592 29.3522 28.3719L29.0717 28.6218C29.0523 28.6408 29.0292 28.6558 29.0038 28.6659C28.9785 28.676 28.9514 28.6809 28.9241 28.6806H26.7594V31.4295H29.4703C30.0751 31.4306 30.6601 31.2149 31.1184 30.8219C31.7076 30.3094 32.2662 29.7629 32.7912 29.1853C32.8178 29.1534 32.8541 29.1311 32.8945 29.1216L40.3777 26.9509C40.4116 26.9414 40.4474 26.9402 40.4819 26.9473C40.5164 26.9544 40.5487 26.9696 40.5762 26.9917C40.6036 27.0137 40.6253 27.042 40.6396 27.0741C40.6538 27.1062 40.6602 27.1412 40.6581 27.1763Z" fill="white"/>
<path d="M73.1688 36.2597C71.0344 36.2853 68.9274 35.7801 67.0386 34.7897C65.1828 33.8179 63.6355 32.3506 62.5701 30.5521C61.5047 28.7536 60.9634 26.6952 61.0068 24.6075C60.9775 22.5005 61.538 20.4271 62.6255 18.6197C63.7033 16.8701 65.2323 15.4403 67.0534 14.4792C68.9416 13.4874 71.049 12.982 73.1836 13.0092C75.3092 12.9781 77.408 13.4839 79.2843 14.4792C81.094 15.4293 82.6018 16.8631 83.6384 18.6197C84.7268 20.4285 85.2873 22.5038 85.257 24.6124C85.2837 26.7267 84.7236 28.8073 83.6384 30.6247C82.5805 32.3741 81.0676 33.8064 79.2597 34.7701C77.3872 35.7682 75.2925 36.2805 73.1688 36.2597ZM73.1688 31.2078C74.0079 31.2473 74.8457 31.1063 75.6251 30.7943C76.4044 30.4822 77.1072 30.0066 77.6853 29.3997C78.8689 28.0917 79.486 26.3712 79.4024 24.6124C79.4024 22.6034 78.83 21.006 77.6853 19.8202C77.1076 19.2124 76.4051 18.7358 75.6257 18.4229C74.8463 18.11 74.0083 17.9682 73.1688 18.0072C72.323 17.9685 71.4783 18.1069 70.6894 18.4132C69.9005 18.7196 69.1848 19.1872 68.5884 19.7859C67.4699 20.9684 66.9107 22.5756 66.9107 24.6075C66.9107 26.6393 67.4716 28.2465 68.5933 29.4291C69.1891 30.0271 69.904 30.4943 70.6921 30.8007C71.4801 31.107 72.3238 31.2457 73.1688 31.2078Z" fill="#04111D"/>
<path d="M94.2359 20.5265C94.8231 19.6613 95.6224 18.9597 96.5581 18.4881C97.6341 17.9485 98.827 17.6809 100.032 17.709C101.514 17.6933 102.972 18.0868 104.243 18.8458C105.515 19.6234 106.539 20.7449 107.195 22.0798C107.964 23.5974 108.346 25.2803 108.307 26.9798C108.339 28.6786 107.957 30.3599 107.195 31.8798C106.552 33.2245 105.534 34.3559 104.261 35.1381C102.989 35.9204 101.517 36.3203 100.022 36.2898C98.8184 36.3117 97.6274 36.0462 96.5482 35.5156C95.6185 35.0486 94.8204 34.3582 94.226 33.5066V41.4054H88.4697V17.9687H94.2359V20.5265ZM102.457 26.9504C102.49 26.3562 102.4 25.7616 102.191 25.2041C101.981 24.6466 101.658 24.1383 101.242 23.7115C100.861 23.3183 100.401 23.0088 99.8928 22.8029C99.3844 22.597 98.8384 22.4992 98.2899 22.5159C97.7419 22.504 97.1974 22.6039 96.6897 22.8095C96.182 23.0152 95.722 23.3221 95.3379 23.7115C94.9338 24.1513 94.6217 24.6667 94.4199 25.2279C94.218 25.789 94.1303 26.3846 94.1621 26.9798C94.1297 27.5759 94.217 28.1724 94.4189 28.7344C94.6208 29.2965 94.9332 29.8127 95.3379 30.253C96.1201 31.0191 97.1732 31.4484 98.2702 31.4484C99.3672 31.4484 100.42 31.0191 101.202 30.253C101.623 29.8145 101.951 29.2961 102.167 28.7287C102.382 28.1613 102.481 27.5566 102.457 26.9504Z" fill="#04111D"/>
<path d="M129.064 26.71C129.063 27.2506 129.028 27.7906 128.961 28.327H115.923C115.948 29.3007 116.346 30.228 117.035 30.9191C117.717 31.5044 118.594 31.8154 119.495 31.7913C120.114 31.8389 120.734 31.6969 121.27 31.3843C121.807 31.0717 122.234 30.6034 122.496 30.042H128.626C128.321 31.2271 127.741 32.3246 126.934 33.2466C126.097 34.2172 125.046 34.9819 123.864 35.481C122.555 36.0352 121.143 36.3105 119.721 36.2895C118.013 36.3207 116.323 35.9319 114.801 35.1576C113.387 34.4249 112.217 33.2999 111.431 31.9187C110.601 30.4201 110.184 28.7297 110.221 27.0187C110.185 25.3114 110.591 23.6237 111.402 22.1187C112.186 20.7392 113.355 19.6158 114.767 18.8847C116.3 18.1067 118.001 17.7163 119.721 17.7479C121.404 17.7163 123.069 18.0948 124.572 18.8504C125.958 19.553 127.105 20.6451 127.873 21.9913C128.692 23.4279 129.103 25.0588 129.064 26.71ZM123.16 25.24C123.177 24.8098 123.095 24.3814 122.919 23.988C122.743 23.5946 122.479 23.2468 122.147 22.9713C121.43 22.4295 120.557 22.1338 119.657 22.1285C118.758 22.1232 117.881 22.4086 117.158 22.9419C116.481 23.531 116.049 24.3505 115.948 25.24H123.16Z" fill="#04111D"/>
<path d="M143.558 17.7765C145.762 17.7765 147.515 18.4657 148.817 19.8443C150.12 21.2228 150.776 23.1011 150.785 25.4793V36.029H145.073V26.229C145.104 25.718 145.032 25.2061 144.863 24.7226C144.694 24.2391 144.431 23.7936 144.089 23.4115C143.367 22.7655 142.43 22.4082 141.46 22.4082C140.489 22.4082 139.552 22.7655 138.83 23.4115C138.488 23.7936 138.225 24.2391 138.056 24.7226C137.887 25.2061 137.816 25.718 137.846 26.229V36.029H132.104V17.9676H137.866V20.3637C138.473 19.546 139.284 18.8994 140.217 18.487C141.262 18 142.405 17.757 143.558 17.7765Z" fill="#04111D"/>
<path d="M163.365 36.2603C161.778 36.2855 160.201 36.0112 158.716 35.4518C157.42 34.9624 156.28 34.1348 155.415 33.0557C154.589 31.9509 154.14 30.6112 154.136 29.2337H160.266C160.303 29.9797 160.63 30.6822 161.176 31.1937C161.749 31.6478 162.467 31.881 163.198 31.8503C163.915 31.8881 164.624 31.6938 165.22 31.2966C165.461 31.1101 165.653 30.8692 165.781 30.594C165.91 30.3188 165.97 30.0171 165.958 29.7139C165.966 29.452 165.915 29.1916 165.811 28.9512C165.706 28.7108 165.55 28.4961 165.353 28.3223C164.934 27.9301 164.443 27.6223 163.907 27.4158C163.113 27.0986 162.301 26.827 161.476 26.6024C160.198 26.2427 158.948 25.789 157.737 25.2451C156.758 24.7825 155.905 24.0937 155.248 23.2361C154.512 22.2359 154.142 21.0151 154.2 19.7767C154.159 18.8183 154.356 17.8647 154.774 17.0005C155.192 16.1363 155.818 15.3882 156.596 14.8228C158.19 13.6141 160.266 13.0098 162.824 13.0098C165.383 13.0098 167.483 13.6141 169.127 14.8228C169.91 15.397 170.549 16.1429 170.996 17.0027C171.443 17.8626 171.686 18.8134 171.705 19.7816H165.456C165.448 19.4518 165.368 19.1277 165.222 18.8317C165.076 18.5356 164.867 18.2746 164.61 18.0666C164.053 17.6235 163.355 17.3941 162.642 17.4198C162.033 17.3907 161.434 17.5861 160.96 17.9686C160.742 18.1557 160.57 18.3909 160.459 18.6554C160.348 18.9199 160.301 19.2064 160.32 19.4925C160.319 19.8505 160.419 20.2015 160.61 20.505C160.801 20.8085 161.074 21.0521 161.398 21.2075C162.466 21.7631 163.589 22.2096 164.748 22.5403C166.012 22.9348 167.249 23.4094 168.453 23.9613C169.424 24.4163 170.277 25.0868 170.947 25.9213C171.674 26.8787 172.043 28.0588 171.99 29.2582C172.004 30.5115 171.64 31.7401 170.947 32.7862C170.222 33.8882 169.199 34.7631 167.995 35.3097C166.545 35.9734 164.961 36.2985 163.365 36.2603Z" fill="#04111D"/>
<path d="M193.259 26.7103C193.257 27.2507 193.224 27.7906 193.16 28.3273H180.118C180.145 29.3004 180.543 30.2269 181.23 30.9194C181.912 31.5047 182.789 31.8157 183.69 31.7916C185.13 31.7916 186.13 31.2085 186.691 30.0423H192.821C192.508 31.2296 191.92 32.3273 191.104 33.2469C190.269 34.2174 189.22 34.9822 188.039 35.4813C186.728 36.0354 185.315 36.3108 183.891 36.2898C182.183 36.3203 180.493 35.9316 178.971 35.1579C177.558 34.4265 176.389 33.3011 175.606 31.919C174.772 30.4217 174.353 28.7307 174.391 27.019C174.355 25.3117 174.762 23.624 175.572 22.119C176.356 20.7382 177.527 19.6146 178.942 18.885C180.468 18.1427 182.143 17.7541 183.841 17.7481C185.539 17.7422 187.216 18.1191 188.747 18.8507C190.131 19.5561 191.278 20.6475 192.049 21.9916C192.872 23.4271 193.29 25.0575 193.259 26.7103ZM187.355 25.2403C187.372 24.8101 187.29 24.3817 187.114 23.9883C186.938 23.5949 186.674 23.247 186.342 22.9716C185.626 22.4302 184.753 22.1347 183.854 22.1294C182.956 22.1241 182.08 22.4093 181.358 22.9422C180.677 23.5292 180.244 24.3495 180.142 25.2403H187.355Z" fill="#04111D"/>
<path d="M195.153 26.9505C195.115 25.2549 195.484 23.5749 196.231 22.0505C196.91 20.7161 197.949 19.5964 199.232 18.8165C200.503 18.0567 201.961 17.6632 203.443 17.6797C204.646 17.652 205.837 17.9195 206.912 18.4588C207.857 18.9179 208.661 19.622 209.239 20.4972V17.9688H215V36.0302H209.239V33.4773C208.641 34.3481 207.828 35.0503 206.877 35.5157C205.802 36.0514 204.611 36.3171 203.409 36.2899C201.946 36.3001 200.51 35.9084 199.256 35.158C197.977 34.3598 196.939 33.23 196.255 31.8897C195.501 30.3532 195.123 28.6605 195.153 26.9505ZM209.239 26.9799C209.27 26.3815 209.178 25.783 208.969 25.2211C208.76 24.6592 208.438 24.1456 208.024 23.7116C207.648 23.3274 207.197 23.025 206.698 22.8234C206.199 22.6218 205.664 22.5255 205.126 22.5405C204.584 22.532 204.046 22.6332 203.544 22.8379C203.043 23.0425 202.588 23.3464 202.208 23.7312C201.801 24.1629 201.486 24.6727 201.283 25.2296C201.08 25.7864 200.993 26.3786 201.027 26.9701C200.966 28.1832 201.391 29.371 202.208 30.2727C202.589 30.6595 203.045 30.9651 203.548 31.1706C204.052 31.3762 204.592 31.4775 205.136 31.4683C205.675 31.4801 206.212 31.38 206.711 31.1741C207.21 30.9683 207.66 30.6613 208.033 30.2727C208.447 29.8373 208.767 29.3225 208.975 28.7598C209.182 28.197 209.272 27.598 209.239 26.9995V26.9799Z" fill="#04111D"/>
</g>
<defs>
<clipPath id="clip0_1226_2651">
<rect width="215" height="49" fill="white"/>
</clipPath>
</defs>
</svg>
