<svg width="20" height="20" viewBox="0 0 20 20" fill="none" xmlns="http://www.w3.org/2000/svg">
<rect x="0.5" y="0.5" width="19" height="19" rx="9.5" fill="white" stroke="#D9DFE5"/>
<path d="M14.3125 9.9375C14.4375 9.9375 14.5 10 14.5 10.125V10.875C14.5 11 14.4375 11.0625 14.3125 11.0625H10.5625V14.8125C10.5625 14.9375 10.5 15 10.375 15H9.625C9.5 15 9.4375 14.9375 9.4375 14.8125V11.0625H5.6875C5.5625 11.0625 5.5 11 5.5 10.875V10.125C5.5 10 5.5625 9.9375 5.6875 9.9375H9.4375V6.1875C9.4375 6.0625 9.5 6 9.625 6H10.375C10.5 6 10.5625 6.0625 10.5625 6.1875V9.9375H14.3125Z" fill="#9D4DFA"/>
</svg>
