<svg width="21" height="21" viewBox="0 0 21 21" fill="none" xmlns="http://www.w3.org/2000/svg">
<path d="M9.62494 9.62494H0V0H9.62494V9.62494ZM1.74999 7.87495H7.87495V1.74999H1.74999V7.87495Z" fill="#646F85"/>
<path d="M20.9999 9.62494H11.375V0H20.9999V9.62494ZM13.125 7.87495H19.2499V1.74999H13.125V7.87495Z" fill="#646F85"/>
<path d="M9.62494 20.9999H0V11.375H9.62494V20.9999ZM1.74999 19.2499H7.87495V13.125H1.74999V19.2499Z" fill="#646F85"/>
<path d="M20.9999 17.5H19.25V13.125H17.5V15.75H12.25V11.375H14V14H15.75V11.375H20.9999V17.5Z" fill="#646F85"/>
<path d="M20.9999 21H12.25V17.5H14V19.25H20.9999V21Z" fill="#646F85"/>
<path d="M6.12498 3.5H3.5V6.12498H6.12498V3.5Z" fill="#646F85"/>
<path d="M17.5 3.5H14.875V6.12498H17.5V3.5Z" fill="#646F85"/>
<path d="M6.12498 14.875H3.5V17.5H6.12498V14.875Z" fill="#646F85"/>
</svg>
