<svg width="23" height="22" viewBox="0 0 23 22" fill="none" xmlns="http://www.w3.org/2000/svg">
<mask id="mask0" mask-type="alpha" maskUnits="userSpaceOnUse" x="1" y="0" width="21" height="22">
<path fill-rule="evenodd" clip-rule="evenodd" d="M11.3 20.6C16.7124 20.6 21.1 16.2124 21.1 10.8C21.1 5.38761 16.7124 1 11.3 1C5.88761 1 1.5 5.38761 1.5 10.8C1.5 16.2124 5.88761 20.6 11.3 20.6Z" stroke="#81ABB9"/>
</mask>
<g mask="url(#mask0)">
<path d="M-0.601562 21.9961H22.4984V4.49609H12.3484L9.19844 -0.753958L7.44844 -3.55396L-0.601562 4.49609V21.9961Z" fill="#D5D8DD"/>
</g>
<path fill-rule="evenodd" clip-rule="evenodd" d="M18.5095 4.00001C18.5732 3.96221 18.6474 3.94692 18.7194 3.95678L21.9981 4.41275C22.1086 4.42839 22.1998 4.50117 22.2374 4.60367C22.2749 4.70618 22.2531 4.82284 22.1802 4.9097C22.1072 4.99656 21.9942 5.04043 21.8837 5.02478L18.8917 4.60924L18.1082 7.52657C18.0795 7.63443 17.9951 7.7214 17.8867 7.75472C17.7782 7.78804 17.6623 7.76266 17.5826 7.68812C17.5028 7.61359 17.4713 7.50123 17.5 7.39338L18.3581 4.19619C18.3801 4.11436 18.4348 4.04353 18.5095 4.00001Z" fill="#D5D8DD"/>
<path d="M11.3 1.00078C5.88761 1.00078 1.5 5.38839 1.5 10.8008" stroke="#2CD2CF" stroke-width="1.5"/>
<path d="M11.3008 5.20703C9.88288 5.20703 8.73411 6.46788 8.73411 8.02411V9.56069H8.50078C8.11702 9.56069 7.80078 9.90778 7.80078 10.329V14.9387C7.80078 15.3599 8.11702 15.707 8.50078 15.707H14.1008C14.4845 15.707 14.8008 15.3599 14.8008 14.9387V10.329C14.8008 9.90778 14.4845 9.56069 14.1008 9.56069H13.8674V8.02411C13.8674 6.46788 12.7187 5.20703 11.3008 5.20703ZM11.3008 5.71923C12.4682 5.71923 13.4008 6.74277 13.4008 8.02411V9.56069H9.20078V8.02411C9.20078 6.74277 10.1333 5.71923 11.3008 5.71923ZM8.50078 10.0729H14.1008C14.2341 10.0729 14.3341 10.1827 14.3341 10.329V14.9387C14.3341 15.0851 14.2341 15.1948 14.1008 15.1948H8.50078C8.36748 15.1948 8.26745 15.0851 8.26745 14.9387V10.329C8.26745 10.1827 8.36748 10.0729 8.50078 10.0729Z" fill="#A8AEB7"/>
</svg>
