<svg width="20" height="16" viewBox="0 0 20 16" fill="none" xmlns="http://www.w3.org/2000/svg">
<path d="M19.8524 6.646C19.6574 6.451 19.3404 6.451 19.1454 6.646L17.9964 7.795C17.9454 5.735 17.1184 3.805 15.6554 2.343C14.1444 0.832 12.1354 0 9.99838 0C7.02438 0 4.31238 1.635 2.92138 4.266C2.79238 4.51 2.88538 4.813 3.12938 4.942C3.37338 5.071 3.67638 4.978 3.80538 4.734C5.02238 2.431 7.39538 1 9.99838 1C13.7874 1 16.8834 4.027 16.9954 7.789L15.8524 6.646C15.6574 6.451 15.3404 6.451 15.1454 6.646C14.9504 6.841 14.9504 7.158 15.1454 7.353L17.1454 9.353C17.2434 9.451 17.3714 9.499 17.4994 9.499C17.6274 9.499 17.7554 9.45 17.8534 9.353L19.8534 7.353C20.0484 7.158 20.0484 6.841 19.8534 6.646H19.8524Z" fill="white"/>
<path d="M16.8682 11.0572C16.6243 10.9282 16.3213 11.0212 16.1923 11.2652C14.9753 13.5682 12.6023 14.9992 9.99925 14.9992C6.21025 14.9992 3.11425 11.9722 3.00225 8.21025L4.14525 9.35325C4.24325 9.45125 4.37125 9.49925 4.49925 9.49925C4.62725 9.49925 4.75525 9.45025 4.85325 9.35325C5.04825 9.15825 5.04825 8.84125 4.85325 8.64625L2.85325 6.64625C2.65825 6.45125 2.34125 6.45125 2.14625 6.64625L0.14625 8.64625C-0.04875 8.84125 -0.04875 9.15825 0.14625 9.35325C0.34125 9.54825 0.65825 9.54825 0.85325 9.35325L2.00225 8.20425C2.05325 10.2642 2.88025 12.1942 4.34325 13.6562C5.85425 15.1672 7.86325 15.9992 10.0003 15.9992C12.9743 15.9992 15.6862 14.3642 17.0772 11.7332C17.2062 11.4892 17.1133 11.1862 16.8693 11.0572H16.8682Z" fill="white"/>
</svg>
