<svg width="26" height="26" viewBox="0 0 26 26" fill="none" xmlns="http://www.w3.org/2000/svg">
<g clip-path="url(#clip0)">
<path d="M25.0156 10.8935C24.7699 10.6478 24.3705 10.6478 24.1248 10.8935L22.6771 12.3412C22.6128 9.74564 21.5708 7.31383 19.7274 5.47171C17.8236 3.56785 15.2922 2.51953 12.5996 2.51953C8.85236 2.51953 5.43524 4.57963 3.68257 7.89469C3.52003 8.20213 3.63721 8.58391 3.94465 8.74645C4.25209 8.90899 4.63387 8.79181 4.79641 8.48438C6.32984 5.58259 9.31982 3.77953 12.5996 3.77953C17.3737 3.77953 21.2747 7.59355 21.4158 12.3337L19.9756 10.8935C19.7299 10.6478 19.3305 10.6478 19.0848 10.8935C18.8391 11.1392 18.8391 11.5386 19.0848 11.7843L21.6048 14.3043C21.7283 14.4278 21.8896 14.4883 22.0509 14.4883C22.2121 14.4883 22.3734 14.4265 22.4969 14.3043L25.0169 11.7843C25.2626 11.5386 25.2626 11.1392 25.0169 10.8935H25.0156Z" fill="url(#paint0_linear)"/>
<path d="M21.254 16.4531C20.9466 16.2905 20.5648 16.4077 20.4022 16.7152C18.8688 19.6169 15.8788 21.42 12.5991 21.42C7.82492 21.42 3.92396 17.606 3.78284 12.8659L5.22302 14.306C5.3465 14.4295 5.50778 14.49 5.66906 14.49C5.83034 14.49 5.99162 14.4283 6.1151 14.306C6.3608 14.0603 6.3608 13.6609 6.1151 13.4152L3.5951 10.8952C3.3494 10.6495 2.94998 10.6495 2.70428 10.8952L0.184275 13.4152C-0.061425 13.6609 -0.061425 14.0603 0.184275 14.306C0.429975 14.5517 0.829395 14.5517 1.0751 14.306L2.52284 12.8583C2.5871 15.4539 3.62912 17.8857 5.4725 19.7278C7.37636 21.6317 9.9077 22.68 12.6003 22.68C16.3476 22.68 19.7647 20.6199 21.5173 17.3048C21.6799 16.9974 21.5627 16.6156 21.2553 16.4531H21.254Z" fill="url(#paint1_linear)"/>
<path fill-rule="evenodd" clip-rule="evenodd" d="M12.5992 17.4992C15.3054 17.4992 17.4992 15.3054 17.4992 12.5992C17.4992 9.89302 15.3054 7.69922 12.5992 7.69922C9.89302 7.69922 7.69922 9.89302 7.69922 12.5992C7.69922 15.3054 9.89302 17.4992 12.5992 17.4992Z" stroke="#D5D8DD"/>
</g>
<defs>
<linearGradient id="paint0_linear" x1="14.4053" y1="2.51953" x2="14.4053" y2="14.4883" gradientUnits="userSpaceOnUse">
<stop stop-color="#2CD2CF"/>
<stop offset="1" stop-color="#9D4DFA"/>
</linearGradient>
<linearGradient id="paint1_linear" x1="10.7953" y1="10.7109" x2="10.7953" y2="22.68" gradientUnits="userSpaceOnUse">
<stop stop-color="#2CD2CF"/>
<stop offset="1" stop-color="#9D4DFA"/>
</linearGradient>
<clipPath id="clip0">
<rect width="25.2" height="25.2" fill="white"/>
</clipPath>
</defs>
</svg>
