<svg viewBox="0 0 18 16" fill="none" xmlns="http://www.w3.org/2000/svg">
<path d="M12.6923 15H5.25418C5.04013 15 4.8796 14.8923 4.77258 14.7308L1.08027 8.26923C0.973244 8.10769 0.973244 7.89231 1.08027 7.73077L4.82609 1.26923C4.93311 1.10769 5.09365 1 5.30769 1H12.7458C12.9599 1 13.1204 1.10769 13.2274 1.26923L16.9197 7.73077C17.0268 7.89231 17.0268 8.10769 16.9197 8.26923L13.2274 14.7308C13.0669 14.8923 12.8528 15 12.6923 15Z" stroke="#000D35" stroke-width="0.8" stroke-miterlimit="10"/>
<path d="M9 12C11.2091 12 13 10.2091 13 8C13 5.79086 11.2091 4 9 4C6.79086 4 5 5.79086 5 8C5 10.2091 6.79086 12 9 12Z" stroke="#000D35" stroke-width="0.8" stroke-miterlimit="10"/>
</svg>
