<svg width="44" height="44" viewBox="0 0 44 44" fill="none" xmlns="http://www.w3.org/2000/svg">
<rect x="43.5" y="43.5" width="43" height="43" rx="21.5" transform="rotate(-180 43.5 43.5)" fill="white" stroke="#D9DFE5"/>
<path d="M23.5669 12.6598C23.4634 12.7622 23.4053 12.901 23.4053 13.0458C23.4053 13.1906 23.4634 13.3295 23.5669 13.4318L26.1164 15.9547L23.8553 15.9547C19.5238 15.9547 16 19.4415 16 23.7273C16 28.0132 19.5238 31.5 23.8553 31.5C24.0524 31.5 24.2345 31.396 24.3331 31.2271C24.4316 31.0582 24.4316 30.85 24.3331 30.6812C24.2345 30.5122 24.0524 30.4082 23.8553 30.4082C22.0646 30.4082 20.3473 29.7043 19.0811 28.4514C17.8149 27.1985 17.1036 25.499 17.1036 23.7274C17.1036 21.9555 17.8149 20.2561 19.0811 19.0035C20.3473 17.7506 22.0648 17.0466 23.8553 17.0466L26.1163 17.0466L23.5669 19.5693C23.4277 19.7072 23.3734 19.9081 23.4244 20.0964C23.4754 20.2847 23.624 20.4317 23.8143 20.4822C24.0046 20.5327 24.2077 20.4789 24.3471 20.3412L27.838 16.887C27.8636 16.8617 27.8866 16.834 27.9067 16.8042C27.9116 16.7969 27.9147 16.7887 27.9193 16.7812L27.9192 16.7813C27.9338 16.7586 27.9466 16.7349 27.9575 16.7105C27.9619 16.7001 27.9639 16.6888 27.9677 16.6781C27.9763 16.6554 27.9834 16.6322 27.989 16.6086C28.0037 16.5374 28.0037 16.4639 27.989 16.3928C27.9834 16.3692 27.9763 16.3459 27.9677 16.3232C27.9639 16.3125 27.9619 16.3014 27.9575 16.2909C27.9466 16.2664 27.9338 16.2428 27.9192 16.2202C27.9147 16.2127 27.9115 16.2045 27.9066 16.1972L27.9067 16.1972C27.8866 16.1674 27.8636 16.1397 27.838 16.1144L24.3471 12.6599C24.2436 12.5576 24.1033 12.5 23.9569 12.5C23.8107 12.5 23.6703 12.5576 23.5669 12.6599L23.5669 12.6598Z" fill="#9D4DFA" stroke="#9D4DFA" stroke-width="1.2"/>
</svg>
