<svg width="57" height="57" viewBox="0 0 57 57" fill="none" xmlns="http://www.w3.org/2000/svg">
<rect x="57" y="57" width="57" height="57" rx="28.5" transform="rotate(-180 57 57)" fill="white"/>
<path d="M21.2617 21.0692L33.8425 21.0692L29.6482 26.059L30.5106 26.8906L35.6064 20.8613C35.724 20.7366 35.7632 20.6119 35.7632 20.4455C35.7632 20.2792 35.724 20.1545 35.6064 20.0297L30.5106 14.0004L29.6482 14.8321L33.8817 19.8218L21.2617 19.8218L21.2617 21.0692Z" fill="#9D4DFA" stroke="#9D4DFA" stroke-width="1.4"/>
<path d="M35.7617 35.9308L23.181 35.9308L27.3752 30.941L26.5129 30.1094L21.417 36.1387C21.2994 36.2634 21.2602 36.3881 21.2602 36.5545C21.2602 36.7208 21.2994 36.8455 21.417 36.9703L26.5129 42.9996L27.3752 42.1679L23.1418 37.1782L35.7617 37.1782L35.7617 35.9308Z" fill="#9D4DFA" stroke="#9D4DFA" stroke-width="1.4"/>
</svg>
