<svg width="14" height="25" viewBox="0 0 14 25" fill="none" xmlns="http://www.w3.org/2000/svg">
<path d="M0.999999 6.60617L11.4106 6.60617L7.93982 10.5632L8.65343 11.2227L12.8702 6.44129C12.9676 6.34237 13 6.24344 13 6.11154C13 5.97965 12.9676 5.88072 12.8702 5.7818L8.65343 1.00044L7.93982 1.65993L11.443 5.61692L0.999999 5.61692L0.999999 6.60617Z" fill="#FF287D" stroke="#FF287D"/>
<path d="M13 18.3977L2.58942 18.3977L6.06018 14.4407L5.34657 13.7813L1.12975 18.5626C1.03244 18.6615 1.00001 18.7605 1.00001 18.8924C1.00001 19.0243 1.03244 19.1232 1.12975 19.2221L5.34657 24.0035L6.06018 23.344L2.55698 19.387L13 19.387L13 18.3977Z" fill="#2CD2CF" stroke="#2CD2CF"/>
</svg>
