<svg width="168" height="42" viewBox="0 0 168 42" fill="none" xmlns="http://www.w3.org/2000/svg">
<path d="M45.4833 12.29V28.13C45.4833 32.4567 44.475 35.72 42.4583 37.92C40.4416 40.12 37.4716 41.22 33.5483 41.22C30.835 41.22 28.5983 40.67 26.8383 39.57C25.0783 38.4333 23.7766 36.6733 22.9333 34.29C22.1266 36.6733 20.8433 38.4333 19.0833 39.57C17.3233 40.67 15.0683 41.22 12.3183 41.22C8.39497 41.22 5.42497 40.12 3.4083 37.92C1.39163 35.72 0.383301 32.4567 0.383301 28.13V12.29H3.1333V27.965C3.1333 31.6317 3.88497 34.345 5.3883 36.105C6.89163 37.865 9.20163 38.745 12.3183 38.745C15.435 38.745 17.745 37.8467 19.2483 36.05C20.7883 34.2533 21.5583 31.485 21.5583 27.745V12.29H24.3083V27.745C24.3083 31.5217 25.06 34.3083 26.5633 36.105C28.0666 37.865 30.395 38.745 33.5483 38.745C36.665 38.745 38.975 37.865 40.4783 36.105C41.9816 34.345 42.7333 31.6317 42.7333 27.965V12.29H45.4833ZM81.3075 12.29V41H78.6125V34.235C77.4759 36.4717 75.8809 38.195 73.8275 39.405C71.7742 40.615 69.4459 41.22 66.8425 41.22C64.1659 41.22 61.7459 40.5967 59.5825 39.35C57.4192 38.1033 55.7142 36.38 54.4675 34.18C53.2575 31.98 52.6525 29.4683 52.6525 26.645C52.6525 23.8217 53.2575 21.31 54.4675 19.11C55.7142 16.8733 57.4192 15.15 59.5825 13.94C61.7459 12.6933 64.1659 12.07 66.8425 12.07C69.4092 12.07 71.7009 12.675 73.7175 13.885C75.7709 15.095 77.3842 16.7817 78.5575 18.945V12.29H81.3075ZM67.0075 38.745C69.2075 38.745 71.1692 38.2317 72.8925 37.205C74.6525 36.1783 76.0275 34.7483 77.0175 32.915C78.0442 31.0817 78.5575 28.9917 78.5575 26.645C78.5575 24.2983 78.0442 22.2083 77.0175 20.375C76.0275 18.5417 74.6525 17.1117 72.8925 16.085C71.1692 15.0583 69.2075 14.545 67.0075 14.545C64.8075 14.545 62.8275 15.0583 61.0675 16.085C59.3442 17.1117 57.9692 18.5417 56.9425 20.375C55.9525 22.2083 55.4575 24.2983 55.4575 26.645C55.4575 28.9917 55.9525 31.0817 56.9425 32.915C57.9692 34.7483 59.3442 36.1783 61.0675 37.205C62.8275 38.2317 64.8075 38.745 67.0075 38.745ZM99.3818 41.22C96.9618 41.22 95.1101 40.5417 93.8268 39.185C92.5434 37.7917 91.9018 35.885 91.9018 33.465V0.189998H94.6518V33.135C94.6518 35.005 95.0734 36.435 95.9168 37.425C96.7601 38.3783 98.0251 38.855 99.7118 38.855C100.665 38.855 101.582 38.6717 102.462 38.305L102.682 40.615C101.655 41.0183 100.555 41.22 99.3818 41.22ZM114.764 41.22C112.344 41.22 110.492 40.5417 109.209 39.185C107.925 37.7917 107.284 35.885 107.284 33.465V0.189998H110.034V33.135C110.034 35.005 110.455 36.435 111.299 37.425C112.142 38.3783 113.407 38.855 115.094 38.855C116.047 38.855 116.964 38.6717 117.844 38.305L118.064 40.615C117.037 41.0183 115.937 41.22 114.764 41.22ZM133.898 38.745C135.768 38.745 137.492 38.415 139.068 37.755C140.682 37.0583 142.02 36.05 143.083 34.73L144.678 36.545C143.432 38.085 141.873 39.2583 140.003 40.065C138.133 40.835 136.08 41.22 133.843 41.22C130.983 41.22 128.417 40.5967 126.143 39.35C123.907 38.1033 122.147 36.38 120.863 34.18C119.617 31.98 118.993 29.4683 118.993 26.645C118.993 23.8217 119.58 21.31 120.753 19.11C121.963 16.91 123.632 15.1867 125.758 13.94C127.885 12.6933 130.287 12.07 132.963 12.07C135.457 12.07 137.693 12.6567 139.673 13.83C141.69 14.9667 143.285 16.5617 144.458 18.615C145.668 20.6317 146.328 22.905 146.438 25.435L122.183 30.165C122.88 32.805 124.273 34.895 126.363 36.435C128.453 37.975 130.965 38.745 133.898 38.745ZM132.963 14.49C130.8 14.49 128.857 15.0033 127.133 16.03C125.41 17.02 124.072 18.4317 123.118 20.265C122.165 22.0617 121.688 24.115 121.688 26.425C121.688 26.8283 121.725 27.3967 121.798 28.13L143.688 23.84C143.432 22.1167 142.827 20.54 141.873 19.11C140.92 17.68 139.673 16.5617 138.133 15.755C136.593 14.9117 134.87 14.49 132.963 14.49ZM167.311 39.185C166.614 39.845 165.734 40.3583 164.671 40.725C163.644 41.055 162.562 41.22 161.426 41.22C158.932 41.22 157.007 40.5417 155.651 39.185C154.294 37.7917 153.616 35.8667 153.616 33.41V6.02H156.366V12.29H165.496V14.655H156.366V33.135C156.366 35.005 156.806 36.435 157.686 37.425C158.602 38.3783 159.941 38.855 161.701 38.855C163.497 38.855 164.982 38.3233 166.156 37.26L167.311 39.185Z" fill="white"/>
</svg>
