<svg width="375" height="124" viewBox="0 0 375 124" fill="none" xmlns="http://www.w3.org/2000/svg">
<path d="M151.483 53.29V69.13C151.483 73.4567 150.475 76.72 148.458 78.92C146.442 81.12 143.472 82.22 139.548 82.22C136.835 82.22 134.598 81.67 132.838 80.57C131.078 79.4333 129.777 77.6733 128.933 75.29C128.127 77.6733 126.843 79.4333 125.083 80.57C123.323 81.67 121.068 82.22 118.318 82.22C114.395 82.22 111.425 81.12 109.408 78.92C107.392 76.72 106.383 73.4567 106.383 69.13V53.29H109.133V68.965C109.133 72.6317 109.885 75.345 111.388 77.105C112.892 78.865 115.202 79.745 118.318 79.745C121.435 79.745 123.745 78.8467 125.248 77.05C126.788 75.2533 127.558 72.485 127.558 68.745V53.29H130.308V68.745C130.308 72.5217 131.06 75.3083 132.563 77.105C134.067 78.865 136.395 79.745 139.548 79.745C142.665 79.745 144.975 78.865 146.478 77.105C147.982 75.345 148.733 72.6317 148.733 68.965V53.29H151.483ZM187.308 53.29V82H184.613V75.235C183.476 77.4717 181.881 79.195 179.828 80.405C177.774 81.615 175.446 82.22 172.843 82.22C170.166 82.22 167.746 81.5967 165.583 80.35C163.419 79.1033 161.714 77.38 160.468 75.18C159.258 72.98 158.653 70.4683 158.653 67.645C158.653 64.8217 159.258 62.31 160.468 60.11C161.714 57.8733 163.419 56.15 165.583 54.94C167.746 53.6933 170.166 53.07 172.843 53.07C175.409 53.07 177.701 53.675 179.718 54.885C181.771 56.095 183.384 57.7817 184.558 59.945V53.29H187.308ZM173.008 79.745C175.208 79.745 177.169 79.2317 178.893 78.205C180.653 77.1783 182.028 75.7483 183.018 73.915C184.044 72.0817 184.558 69.9917 184.558 67.645C184.558 65.2983 184.044 63.2083 183.018 61.375C182.028 59.5417 180.653 58.1117 178.893 57.085C177.169 56.0583 175.208 55.545 173.008 55.545C170.808 55.545 168.828 56.0583 167.068 57.085C165.344 58.1117 163.969 59.5417 162.943 61.375C161.953 63.2083 161.458 65.2983 161.458 67.645C161.458 69.9917 161.953 72.0817 162.943 73.915C163.969 75.7483 165.344 77.1783 167.068 78.205C168.828 79.2317 170.808 79.745 173.008 79.745ZM205.382 82.22C202.962 82.22 201.11 81.5417 199.827 80.185C198.543 78.7917 197.902 76.885 197.902 74.465V41.19H200.652V74.135C200.652 76.005 201.073 77.435 201.917 78.425C202.76 79.3783 204.025 79.855 205.712 79.855C206.665 79.855 207.582 79.6717 208.462 79.305L208.682 81.615C207.655 82.0183 206.555 82.22 205.382 82.22ZM220.764 82.22C218.344 82.22 216.492 81.5417 215.209 80.185C213.925 78.7917 213.284 76.885 213.284 74.465V41.19H216.034V74.135C216.034 76.005 216.455 77.435 217.299 78.425C218.142 79.3783 219.407 79.855 221.094 79.855C222.047 79.855 222.964 79.6717 223.844 79.305L224.064 81.615C223.037 82.0183 221.937 82.22 220.764 82.22ZM239.898 79.745C241.768 79.745 243.492 79.415 245.068 78.755C246.682 78.0583 248.02 77.05 249.083 75.73L250.678 77.545C249.432 79.085 247.873 80.2583 246.003 81.065C244.133 81.835 242.08 82.22 239.843 82.22C236.983 82.22 234.417 81.5967 232.143 80.35C229.907 79.1033 228.147 77.38 226.863 75.18C225.617 72.98 224.993 70.4683 224.993 67.645C224.993 64.8217 225.58 62.31 226.753 60.11C227.963 57.91 229.632 56.1867 231.758 54.94C233.885 53.6933 236.287 53.07 238.963 53.07C241.457 53.07 243.693 53.6567 245.673 54.83C247.69 55.9667 249.285 57.5617 250.458 59.615C251.668 61.6317 252.328 63.905 252.438 66.435L228.183 71.165C228.88 73.805 230.273 75.895 232.363 77.435C234.453 78.975 236.965 79.745 239.898 79.745ZM238.963 55.49C236.8 55.49 234.857 56.0033 233.133 57.03C231.41 58.02 230.072 59.4317 229.118 61.265C228.165 63.0617 227.688 65.115 227.688 67.425C227.688 67.8283 227.725 68.3967 227.798 69.13L249.688 64.84C249.432 63.1167 248.827 61.54 247.873 60.11C246.92 58.68 245.673 57.5617 244.133 56.755C242.593 55.9117 240.87 55.49 238.963 55.49ZM273.311 80.185C272.614 80.845 271.734 81.3583 270.671 81.725C269.644 82.055 268.562 82.22 267.426 82.22C264.932 82.22 263.007 81.5417 261.651 80.185C260.294 78.7917 259.616 76.8667 259.616 74.41V47.02H262.366V53.29H271.496V55.655H262.366V74.135C262.366 76.005 262.806 77.435 263.686 78.425C264.602 79.3783 265.941 79.855 267.701 79.855C269.497 79.855 270.982 79.3233 272.156 78.26L273.311 80.185Z" fill="white"/>
<path d="M165.84 33.17C164.117 33.17 162.565 32.7847 161.182 32.014C159.799 31.2207 158.711 30.1327 157.918 28.75C157.125 27.3673 156.728 25.8033 156.728 24.058C156.728 22.3127 157.125 20.7487 157.918 19.366C158.711 17.9833 159.799 16.9067 161.182 16.136C162.565 15.3653 164.117 14.98 165.84 14.98C167.563 14.98 169.115 15.3653 170.498 16.136C171.881 16.9067 172.957 17.9833 173.728 19.366C174.521 20.7487 174.918 22.3127 174.918 24.058C174.918 25.8033 174.521 27.3673 173.728 28.75C172.957 30.1327 171.881 31.2207 170.498 32.014C169.115 32.7847 167.563 33.17 165.84 33.17ZM165.84 31.028C167.109 31.028 168.243 30.7447 169.24 30.178C170.26 29.5887 171.053 28.7613 171.62 27.696C172.187 26.6307 172.47 25.418 172.47 24.058C172.47 22.698 172.187 21.4853 171.62 20.42C171.053 19.3547 170.26 18.5387 169.24 17.972C168.243 17.3827 167.109 17.088 165.84 17.088C164.571 17.088 163.426 17.3827 162.406 17.972C161.409 18.5387 160.615 19.3547 160.026 20.42C159.459 21.4853 159.176 22.698 159.176 24.058C159.176 25.418 159.459 26.6307 160.026 27.696C160.615 28.7613 161.409 29.5887 162.406 30.178C163.426 30.7447 164.571 31.028 165.84 31.028ZM188.878 14.98C191.122 14.98 192.902 15.6373 194.216 16.952C195.554 18.244 196.222 20.1367 196.222 22.63V33H193.808V22.868C193.808 21.0093 193.344 19.5927 192.414 18.618C191.485 17.6433 190.159 17.156 188.436 17.156C186.51 17.156 184.98 17.734 183.846 18.89C182.736 20.0233 182.18 21.5987 182.18 23.616V33H179.766V15.116H182.078V18.414C182.736 17.326 183.642 16.4873 184.798 15.898C185.977 15.286 187.337 14.98 188.878 14.98ZM210.413 31.028C211.523 31.028 212.543 30.8353 213.473 30.45C214.425 30.042 215.229 29.4527 215.887 28.682L217.247 30.246C216.453 31.198 215.467 31.9233 214.289 32.422C213.11 32.9207 211.807 33.17 210.379 33.17C208.543 33.17 206.911 32.7847 205.483 32.014C204.055 31.2207 202.944 30.1327 202.151 28.75C201.357 27.3673 200.961 25.8033 200.961 24.058C200.961 22.3127 201.335 20.7487 202.083 19.366C202.853 17.9833 203.907 16.9067 205.245 16.136C206.582 15.3653 208.101 14.98 209.801 14.98C211.387 14.98 212.815 15.3427 214.085 16.068C215.377 16.7933 216.397 17.802 217.145 19.094C217.915 20.386 218.323 21.8593 218.369 23.514L203.681 26.37C204.134 27.8207 204.95 28.9653 206.129 29.804C207.33 30.62 208.758 31.028 210.413 31.028ZM209.801 17.054C208.554 17.054 207.432 17.3487 206.435 17.938C205.46 18.5047 204.689 19.3093 204.123 20.352C203.579 21.372 203.307 22.5507 203.307 23.888C203.307 24.228 203.318 24.4773 203.341 24.636L215.955 22.188C215.683 20.692 214.991 19.468 213.881 18.516C212.77 17.5413 211.41 17.054 209.801 17.054ZM124.23 105.116V123H121.918V119.464C121.192 120.665 120.229 121.583 119.028 122.218C117.849 122.853 116.512 123.17 115.016 123.17C113.338 123.17 111.82 122.785 110.46 122.014C109.1 121.243 108.034 120.167 107.264 118.784C106.493 117.401 106.108 115.826 106.108 114.058C106.108 112.29 106.493 110.715 107.264 109.332C108.034 107.949 109.1 106.884 110.46 106.136C111.82 105.365 113.338 104.98 115.016 104.98C116.466 104.98 117.77 105.286 118.926 105.898C120.104 106.487 121.068 107.36 121.816 108.516V105.116H124.23ZM115.22 121.028C116.466 121.028 117.588 120.745 118.586 120.178C119.606 119.589 120.399 118.761 120.966 117.696C121.555 116.631 121.85 115.418 121.85 114.058C121.85 112.698 121.555 111.485 120.966 110.42C120.399 109.355 119.606 108.539 118.586 107.972C117.588 107.383 116.466 107.088 115.22 107.088C113.95 107.088 112.806 107.383 111.786 107.972C110.788 108.539 109.995 109.355 109.406 110.42C108.839 111.485 108.556 112.698 108.556 114.058C108.556 115.418 108.839 116.631 109.406 117.696C109.995 118.761 110.788 119.589 111.786 120.178C112.806 120.745 113.95 121.028 115.22 121.028ZM135.905 123.17C134.295 123.17 133.049 122.717 132.165 121.81C131.303 120.903 130.873 119.645 130.873 118.036V97.772H133.287V117.832C133.287 118.897 133.536 119.713 134.035 120.28C134.533 120.824 135.281 121.096 136.279 121.096C136.913 121.096 137.457 120.994 137.911 120.79L138.081 122.796C137.378 123.045 136.653 123.17 135.905 123.17ZM146.317 123.17C144.707 123.17 143.461 122.717 142.577 121.81C141.715 120.903 141.285 119.645 141.285 118.036V97.772H143.699V117.832C143.699 118.897 143.948 119.713 144.447 120.28C144.945 120.824 145.693 121.096 146.691 121.096C147.325 121.096 147.869 120.994 148.323 120.79L148.493 122.796C147.79 123.045 147.065 123.17 146.317 123.17ZM167.927 123.17C166.159 123.17 164.573 122.785 163.167 122.014C161.785 121.243 160.697 120.167 159.903 118.784C159.11 117.379 158.713 115.803 158.713 114.058C158.713 112.313 159.11 110.749 159.903 109.366C160.697 107.983 161.785 106.907 163.167 106.136C164.573 105.365 166.159 104.98 167.927 104.98C169.469 104.98 170.84 105.286 172.041 105.898C173.265 106.487 174.229 107.36 174.931 108.516L173.129 109.74C172.54 108.856 171.792 108.199 170.885 107.768C169.979 107.315 168.993 107.088 167.927 107.088C166.635 107.088 165.468 107.383 164.425 107.972C163.405 108.539 162.601 109.355 162.011 110.42C161.445 111.485 161.161 112.698 161.161 114.058C161.161 115.441 161.445 116.665 162.011 117.73C162.601 118.773 163.405 119.589 164.425 120.178C165.468 120.745 166.635 121.028 167.927 121.028C168.993 121.028 169.979 120.813 170.885 120.382C171.792 119.951 172.54 119.294 173.129 118.41L174.931 119.634C174.229 120.79 173.265 121.674 172.041 122.286C170.817 122.875 169.446 123.17 167.927 123.17ZM188.44 104.98C190.684 104.98 192.463 105.637 193.778 106.952C195.115 108.244 195.784 110.137 195.784 112.63V123H193.37V112.868C193.37 111.009 192.905 109.593 191.976 108.618C191.047 107.643 189.721 107.156 187.998 107.156C186.071 107.156 184.541 107.734 183.408 108.89C182.297 110.023 181.742 111.599 181.742 113.616V123H179.328V97.772H181.742V108.244C182.399 107.201 183.306 106.397 184.462 105.83C185.618 105.263 186.944 104.98 188.44 104.98ZM218.644 105.116V123H216.332V119.464C215.607 120.665 214.643 121.583 213.442 122.218C212.263 122.853 210.926 123.17 209.43 123.17C207.753 123.17 206.234 122.785 204.874 122.014C203.514 121.243 202.449 120.167 201.678 118.784C200.907 117.401 200.522 115.826 200.522 114.058C200.522 112.29 200.907 110.715 201.678 109.332C202.449 107.949 203.514 106.884 204.874 106.136C206.234 105.365 207.753 104.98 209.43 104.98C210.881 104.98 212.184 105.286 213.34 105.898C214.519 106.487 215.482 107.36 216.23 108.516V105.116H218.644ZM209.634 121.028C210.881 121.028 212.003 120.745 213 120.178C214.02 119.589 214.813 118.761 215.38 117.696C215.969 116.631 216.264 115.418 216.264 114.058C216.264 112.698 215.969 111.485 215.38 110.42C214.813 109.355 214.02 108.539 213 107.972C212.003 107.383 210.881 107.088 209.634 107.088C208.365 107.088 207.22 107.383 206.2 107.972C205.203 108.539 204.409 109.355 203.82 110.42C203.253 111.485 202.97 112.698 202.97 114.058C202.97 115.418 203.253 116.631 203.82 117.696C204.409 118.761 205.203 119.589 206.2 120.178C207.22 120.745 208.365 121.028 209.634 121.028ZM225.287 105.116H227.701V123H225.287V105.116ZM226.511 101.206C226.012 101.206 225.593 101.036 225.253 100.696C224.913 100.356 224.743 99.948 224.743 99.472C224.743 99.0187 224.913 98.622 225.253 98.282C225.593 97.942 226.012 97.772 226.511 97.772C227.01 97.772 227.429 97.942 227.769 98.282C228.109 98.5993 228.279 98.9847 228.279 99.438C228.279 99.9367 228.109 100.356 227.769 100.696C227.429 101.036 227.01 101.206 226.511 101.206ZM243.45 104.98C245.694 104.98 247.473 105.637 248.788 106.952C250.125 108.244 250.794 110.137 250.794 112.63V123H248.38V112.868C248.38 111.009 247.915 109.593 246.986 108.618C246.057 107.643 244.731 107.156 243.008 107.156C241.081 107.156 239.551 107.734 238.418 108.89C237.307 110.023 236.752 111.599 236.752 113.616V123H234.338V105.116H236.65V108.414C237.307 107.326 238.214 106.487 239.37 105.898C240.549 105.286 241.909 104.98 243.45 104.98ZM262.062 123.17C260.611 123.17 259.217 122.966 257.88 122.558C256.565 122.127 255.534 121.595 254.786 120.96L255.874 119.056C256.622 119.645 257.562 120.133 258.696 120.518C259.829 120.881 261.008 121.062 262.232 121.062C263.864 121.062 265.065 120.813 265.836 120.314C266.629 119.793 267.026 119.067 267.026 118.138C267.026 117.481 266.81 116.971 266.38 116.608C265.949 116.223 265.405 115.939 264.748 115.758C264.09 115.554 263.218 115.361 262.13 115.18C260.679 114.908 259.512 114.636 258.628 114.364C257.744 114.069 256.984 113.582 256.35 112.902C255.738 112.222 255.432 111.281 255.432 110.08C255.432 108.584 256.055 107.36 257.302 106.408C258.548 105.456 260.282 104.98 262.504 104.98C263.66 104.98 264.816 105.139 265.972 105.456C267.128 105.751 268.08 106.147 268.828 106.646L267.774 108.584C266.3 107.564 264.544 107.054 262.504 107.054C260.962 107.054 259.795 107.326 259.002 107.87C258.231 108.414 257.846 109.128 257.846 110.012C257.846 110.692 258.061 111.236 258.492 111.644C258.945 112.052 259.5 112.358 260.158 112.562C260.815 112.743 261.722 112.936 262.878 113.14C264.306 113.412 265.45 113.684 266.312 113.956C267.173 114.228 267.91 114.693 268.522 115.35C269.134 116.007 269.44 116.914 269.44 118.07C269.44 119.634 268.782 120.881 267.468 121.81C266.176 122.717 264.374 123.17 262.062 123.17Z" fill="white"/>
</svg>
