<svg viewBox="0 0 15 12" fill="none" xmlns="http://www.w3.org/2000/svg">
<rect width="15" height="12" fill="#E5E5E5"/>
<rect x="-19" y="-508" width="360" height="600" rx="20" fill="white"/>
<path d="M7.06699 0.749999C7.25944 0.416667 7.74056 0.416666 7.93301 0.75L13.5622 10.5C13.7546 10.8333 13.5141 11.25 13.1292 11.25H1.87083C1.48593 11.25 1.24537 10.8333 1.43782 10.5L7.06699 0.749999Z" stroke="#F12274"/>
<path d="M6.87485 3.556H8.13485V4.717L7.86485 7.966H7.14485L6.87485 4.717V3.556ZM7.50485 10.072C7.32485 10.072 7.16885 10.006 7.03685 9.874C6.90485 9.742 6.83885 9.586 6.83885 9.406C6.83885 9.22 6.90485 9.061 7.03685 8.929C7.16885 8.797 7.32485 8.731 7.50485 8.731C7.69085 8.731 7.84985 8.797 7.98185 8.929C8.11385 9.061 8.17985 9.22 8.17985 9.406C8.17985 9.586 8.11385 9.742 7.98185 9.874C7.84985 10.006 7.69085 10.072 7.50485 10.072Z" fill="#F12274"/>
</svg>
