<?xml version="1.0" encoding="utf-8"?>
<!-- Generator: Adobe Illustrator 26.0.0, SVG Export Plug-In . SVG Version: 6.00 Build 0)  -->
<svg version="1.1" id="Layer_1" xmlns="http://www.w3.org/2000/svg" xmlns:xlink="http://www.w3.org/1999/xlink" x="0px" y="0px"
	 viewBox="0 0 365.21 89.55" style="enable-background:new 0 0 365.21 89.55;" xml:space="preserve">
<style type="text/css">
	.st0{fill:url(#SVGID_1_);}
	.st1{enable-background:new    ;}
	.st2{fill:#9D4DFA;}
	.st3{fill-rule:evenodd;clip-rule:evenodd;fill:#FFFFFF;}
</style>
<linearGradient id="SVGID_1_" gradientUnits="userSpaceOnUse" x1="277.09" y1="46.645" x2="365.21" y2="46.645" gradientTransform="matrix(1 0 0 -1 0 92)">
	<stop  offset="0" style="stop-color:#AC39FD"/>
	<stop  offset="1" style="stop-color:#1CE5C3"/>
</linearGradient>
<path class="st0" d="M321.16,1.19c-24.31,0-44.07,15.8-44.07,35.22c0,11.21,6.72,21.81,18,28.42v24.69l20.76-18.11
	c1.82,0.18,3.38,0.24,5.31,0.24c24.29,0,44.05-15.8,44.05-35.23S345.44,1.19,321.16,1.19L321.16,1.19z"/>
<g class="st1">
	<path class="st2" d="M-0.02,2.25h8.96v55.11h-8.96V2.25z"/>
	<path class="st2" d="M21.12,9.57c-1.1-1.06-1.65-2.39-1.65-3.97c0-1.58,0.55-2.91,1.65-3.97c1.1-1.06,2.46-1.6,4.08-1.6
		c1.62,0,2.98,0.51,4.08,1.52c1.1,1.02,1.65,2.29,1.65,3.82c0,1.63-0.54,3.01-1.61,4.12c-1.07,1.11-2.45,1.67-4.12,1.67
		C23.58,11.16,22.22,10.63,21.12,9.57z M20.69,17.7h8.96v39.66h-8.96V17.7z"/>
	<path class="st2" d="M78.81,17.7v54.07h-8.96V52.53c-3.01,3.56-7.09,5.35-12.25,5.35c-3.73,0-7.06-0.84-10-2.53
		c-2.94-1.68-5.23-4.06-6.88-7.13c-1.65-3.07-2.47-6.63-2.47-10.7c0-4.01,0.83-7.55,2.51-10.62c1.67-3.07,3.96-5.45,6.88-7.13
		c2.91-1.68,6.23-2.53,9.96-2.53c2.63,0,5.03,0.47,7.2,1.41c2.17,0.94,4,2.35,5.48,4.23v-5.2H78.81z M66.77,46.52
		c2.15-2.28,3.22-5.27,3.22-8.99c0-3.71-1.07-6.71-3.22-8.99c-2.15-2.28-4.87-3.42-8.17-3.42c-3.3,0-6.01,1.14-8.13,3.42
		c-2.13,2.28-3.19,5.27-3.19,8.99c0,3.71,1.06,6.71,3.19,8.99c2.12,2.28,4.84,3.42,8.13,3.42C61.89,49.93,64.62,48.79,66.77,46.52z"
		/>
	<path class="st2" d="M100.91,54.65c-4.08-2.3-7.29-5.48-9.6-9.54c-2.32-4.06-3.48-8.64-3.48-13.74c0-5.1,1.17-9.68,3.51-13.74
		c2.34-4.06,5.55-7.24,9.64-9.54s8.66-3.45,13.72-3.45c4.11,0,7.86,0.74,11.25,2.23c3.39,1.49,6.26,3.64,8.6,6.46l-6.02,5.87
		c-3.63-4.06-8.1-6.09-13.4-6.09c-3.44,0-6.52,0.78-9.24,2.34c-2.72,1.56-4.85,3.73-6.38,6.5c-1.53,2.77-2.29,5.92-2.29,9.43
		c0,3.52,0.76,6.66,2.29,9.43c1.53,2.77,3.65,4.94,6.38,6.5c2.72,1.56,5.8,2.34,9.24,2.34c5.3,0,9.77-2.05,13.4-6.16l6.02,5.94
		c-2.34,2.82-5.22,4.98-8.63,6.46c-3.42,1.49-7.18,2.23-11.29,2.23C109.57,58.1,104.99,56.95,100.91,54.65z"/>
	<path class="st2" d="M175.97,21.63c2.91,2.92,4.37,7.25,4.37,13v22.73h-8.96V35.82c0-3.47-0.79-6.08-2.36-7.84
		c-1.58-1.76-3.82-2.64-6.74-2.64c-3.3,0-5.9,1.03-7.81,3.08c-1.91,2.06-2.87,5.01-2.87,8.88v20.05h-8.96V2.25h8.96V22.3
		c1.48-1.63,3.31-2.88,5.48-3.75c2.17-0.87,4.6-1.3,7.27-1.3C169.19,17.25,173.06,18.71,175.97,21.63z"/>
	<path class="st2" d="M219.29,21.45c2.99,2.8,4.48,7.02,4.48,12.66v23.25h-8.46v-4.83c-1.1,1.73-2.66,3.06-4.69,3.97
		c-2.03,0.92-4.48,1.37-7.35,1.37s-5.37-0.51-7.52-1.52s-3.81-2.43-4.98-4.23c-1.17-1.81-1.75-3.85-1.75-6.13
		c0-3.56,1.28-6.42,3.83-8.58s6.58-3.23,12.07-3.23h9.89v-0.59c0-2.77-0.8-4.9-2.4-6.39c-1.6-1.49-3.98-2.23-7.13-2.23
		c-2.15,0-4.26,0.35-6.34,1.04c-2.08,0.69-3.83,1.66-5.27,2.9l-3.51-6.76c2.01-1.58,4.42-2.8,7.24-3.64
		c2.82-0.84,5.8-1.26,8.96-1.26C211.99,17.25,216.3,18.65,219.29,21.45z M211.12,49.52c1.74-1.06,2.97-2.59,3.69-4.57v-4.6h-9.24
		c-5.16,0-7.74,1.76-7.74,5.27c0,1.68,0.64,3.02,1.93,4.01c1.29,0.99,3.08,1.49,5.37,1.49C207.38,51.12,209.37,50.59,211.12,49.52z"
		/>
	<path class="st2" d="M258.23,55.21c-1.05,0.89-2.33,1.56-3.83,2.01c-1.5,0.45-3.09,0.67-4.77,0.67c-4.2,0-7.45-1.14-9.75-3.42
		s-3.44-5.6-3.44-9.95V25.42h-6.31V18h6.31V8.93h8.96V18h10.25v7.43H245.4v18.86c0,1.93,0.45,3.4,1.36,4.42
		c0.91,1.01,2.22,1.52,3.94,1.52c2.01,0,3.68-0.54,5.02-1.63L258.23,55.21z"/>
</g>
<g id="Page-1_00000181077120682116014650000000826288940399729058_">
	<g id="Group-8_00000060709598873879823590000017716255099510950316_" transform="translate(0.000000, -0.772700)">
		<g id="Group-3_00000039129504043077688260000004180347780892224413_" transform="translate(0.000000, 2.000000)">
			<g id="Clip-2_00000089563381879980618610000014033751331837140137_">
			</g>
		</g>
		<g id="Group-6_00000132808119769033137780000002258992311273301126_" transform="translate(0.000000, 1.772700)">
			<g id="Clip-5_00000005950320387626551440000010013221944438856080_">
				<path id="path-6_00000011743637215866182750000000862065440889593249_" class="st3" d="M293.95,28.15
					c-0.03,0.03-0.03,0.03-0.06,0.06c-1.66,1.69-2.68,3.78-3.02,5.95c-0.08,0.56-0.14,1.1-0.14,1.66v0.06
					c0,0.54,0.03,1.07,0.11,1.61c0.25,1.66,0.87,3.27,1.89,4.68c0.34,0.48,0.7,0.93,1.13,1.35c0,0.03,0.03,0.03,0.06,0.06
					c0.9,0.9,1.92,1.61,2.99,2.11c3.95,1.83,8.77,0.99,12.38-2.09l0.03-0.03c4.06-3.5,7.81-6.62,11.84-6.62s7.75,3.16,11.81,6.62
					c1.1,0.93,2.31,1.69,3.61,2.2c1.66,0.68,3.44,0.96,5.16,0.85c2.42-0.17,4.76-1.16,6.65-3.04c0.03-0.03,0.03-0.03,0.03-0.06
					c0.42-0.42,0.79-0.87,1.13-1.35c1.01-1.41,1.63-3.04,1.89-4.68c0.17-1.1,0.17-2.23,0-3.33c-0.34-2.17-1.35-4.26-3.02-5.95
					c-0.03-0.03-0.03-0.03-0.06-0.06c-1.89-1.89-4.23-2.88-6.65-3.02c-1.72-0.11-3.5,0.17-5.16,0.85c-1.27,0.51-2.48,1.24-3.61,2.17
					c-4.09,3.47-7.78,6.65-11.81,6.65s-7.7-3.19-11.78-6.65c0,0-0.03,0-0.03-0.03c-2.34-1.95-5.19-3.02-7.98-3.02
					c-1.52,0-3.02,0.31-4.4,0.96C295.87,26.57,294.86,27.25,293.95,28.15z"/>
			</g>
		</g>
	</g>
</g>
</svg>
