<svg width="360" height="225" viewBox="0 0 360 225" fill="none" xmlns="http://www.w3.org/2000/svg">
<mask id="mask0" mask-type="alpha" maskUnits="userSpaceOnUse" x="0" y="0" width="360" height="225">
<path d="M0 0L-9.83506e-06 225L360 225L360 1.57361e-05L0 0Z" fill="#1CE4C3"/>
</mask>
<g mask="url(#mask0)">
<path d="M0 0L-9.83506e-06 225L360 225L360 1.57361e-05L0 0Z" fill="url(#paint0_linear)"/>
<g opacity="0.8">
<g opacity="0.8">
<g opacity="0.25">
<path d="M350.721 84.2852V97.2579L361.686 102.157L350.721 84.2852Z" fill="white" fill-opacity="0.602"/>
<path d="M350.72 84.2852L339.754 102.157L350.72 97.2579V84.2852Z" fill="white"/>
<path d="M350.721 110.564V119.379L361.693 104.199L350.721 110.564Z" fill="white" fill-opacity="0.602"/>
<path d="M350.72 119.379V110.563L339.754 104.199L350.72 119.379Z" fill="white"/>
<path d="M350.721 108.521L361.686 102.154L350.721 97.2578V108.521Z" fill="white" fill-opacity="0.2"/>
<path d="M339.754 102.154L350.72 108.521V97.2578L339.754 102.154Z" fill="white" fill-opacity="0.602"/>
</g>
</g>
<g opacity="0.2">
<path d="M15.5896 184.27V193.326L23.2441 196.746L15.5896 184.27Z" fill="white" fill-opacity="0.602"/>
<path d="M15.5894 184.27L7.93384 196.746L15.5894 193.326V184.27Z" fill="white"/>
<path d="M15.5896 202.611V208.765L23.2492 198.168L15.5896 202.611Z" fill="white" fill-opacity="0.602"/>
<path d="M15.5889 208.765V202.61L7.93335 198.168L15.5889 208.765Z" fill="white"/>
<path d="M15.5896 201.193L23.2441 196.748L15.5896 193.33V201.193Z" fill="white" fill-opacity="0.2"/>
<path d="M7.93335 196.748L15.5889 201.193V193.33L7.93335 196.748Z" fill="white" fill-opacity="0.602"/>
</g>
<g opacity="0.08">
<path d="M94.4661 29.3008V68.2191L127.36 82.9177L94.4661 29.3008Z" fill="white" fill-opacity="0.602"/>
<path d="M94.4629 29.3008L61.5645 82.9177L94.4629 68.2191V29.3008Z" fill="white"/>
<path d="M94.4661 108.142V134.586L127.382 89.0469L94.4661 108.142Z" fill="white" fill-opacity="0.602"/>
<path d="M94.4624 134.586V108.137L61.564 89.0469L94.4624 134.586Z" fill="white"/>
<path d="M94.4661 102.018L127.36 82.9183L94.4661 68.2285V102.018Z" fill="white" fill-opacity="0.2"/>
<path d="M61.564 82.9183L94.4624 102.018V68.2285L61.564 82.9183Z" fill="white" fill-opacity="0.602"/>
</g>
<g opacity="0.1">
<path d="M113.05 136.98V153.232L126.786 159.369L113.05 136.98Z" fill="white" fill-opacity="0.602"/>
<path d="M113.046 136.98L99.3088 159.369L113.046 153.232V136.98Z" fill="white"/>
<path d="M113.05 169.899V180.942L126.795 161.926L113.05 169.899Z" fill="white" fill-opacity="0.602"/>
<path d="M113.046 180.942V169.897L99.3088 161.926L113.046 180.942Z" fill="white"/>
<path d="M113.05 167.344L126.786 159.368L113.05 153.234V167.344Z" fill="white" fill-opacity="0.2"/>
<path d="M99.3088 159.368L113.046 167.344V153.234L99.3088 159.368Z" fill="white" fill-opacity="0.602"/>
</g>
<g opacity="0.2">
<path d="M165.358 162.416V173.186L174.461 177.253L165.358 162.416Z" fill="white" fill-opacity="0.602"/>
<path d="M165.357 162.416L156.253 177.253L165.357 173.186V162.416Z" fill="white"/>
<path d="M165.358 184.239V191.557L174.467 178.955L165.358 184.239Z" fill="white" fill-opacity="0.602"/>
<path d="M165.357 191.557V184.238L156.253 178.955L165.357 191.557Z" fill="white"/>
<path d="M165.358 182.536L174.461 177.251L165.358 173.186V182.536Z" fill="white" fill-opacity="0.2"/>
<path d="M156.253 177.251L165.357 182.536V173.186L156.253 177.251Z" fill="white" fill-opacity="0.602"/>
</g>
<g opacity="0.1">
<path d="M210.094 84.916V96.9097L220.231 101.439L210.094 84.916Z" fill="white" fill-opacity="0.602"/>
<path d="M210.091 84.916L199.952 101.439L210.091 96.9097V84.916Z" fill="white"/>
<path d="M210.094 109.209V117.358L220.237 103.324L210.094 109.209Z" fill="white" fill-opacity="0.602"/>
<path d="M210.092 117.358V109.207L199.953 103.324L210.092 117.358Z" fill="white"/>
<path d="M210.094 107.323L220.231 101.437L210.094 96.9102V107.323Z" fill="white" fill-opacity="0.2"/>
<path d="M199.953 101.437L210.092 107.323V96.9102L199.953 101.437Z" fill="white" fill-opacity="0.602"/>
</g>
<g opacity="0.2">
<path d="M253.959 16.0742V33.4528L268.647 40.0163L253.959 16.0742Z" fill="white" fill-opacity="0.602"/>
<path d="M253.956 16.0742L239.266 40.0163L253.956 33.4528V16.0742Z" fill="white"/>
<path d="M253.959 51.2806V63.089L268.657 42.7539L253.959 51.2806Z" fill="white" fill-opacity="0.602"/>
<path d="M253.958 63.089V51.2786L239.268 42.7539L253.958 63.089Z" fill="white"/>
<path d="M253.959 48.5414L268.647 40.0127L253.959 33.4531V48.5414Z" fill="white" fill-opacity="0.2"/>
<path d="M239.268 40.0127L253.958 48.5414V33.4531L239.268 40.0127Z" fill="white" fill-opacity="0.602"/>
</g>
<g opacity="0.11">
<path d="M18.8723 71.0215V84.7472L30.4734 89.9311L18.8723 71.0215Z" fill="white" fill-opacity="0.602"/>
<path d="M18.8709 71.0215L7.26831 89.9311L18.8709 84.7472V71.0215Z" fill="white"/>
<path d="M18.8723 98.8243V108.151L30.4811 92.0898L18.8723 98.8243Z" fill="white" fill-opacity="0.602"/>
<path d="M18.8704 108.151V98.8227L7.26782 92.0898L18.8704 108.151Z" fill="white"/>
<path d="M18.8723 96.6648L30.4734 89.9288L18.8723 84.748V96.6648Z" fill="white" fill-opacity="0.2"/>
<path d="M7.26782 89.9288L18.8704 96.6648V84.748L7.26782 89.9288Z" fill="white" fill-opacity="0.602"/>
</g>
<path opacity="0.1" d="M106.481 206.87C106.077 202.603 102.447 201.174 97.8602 200.766V194.846H94.3108V200.608C93.3788 200.608 92.4243 200.626 91.4772 200.646V194.846H87.9278L87.9253 200.761C87.1566 200.776 86.4005 200.791 85.6645 200.791V200.774L80.7686 200.771V204.619C80.7686 204.619 83.3911 204.568 83.3459 204.617C84.7853 204.617 85.2525 205.463 85.3882 206.194V212.938C85.4887 212.938 85.6168 212.943 85.7625 212.963H85.3882L85.3857 222.411C85.3229 222.869 85.0566 223.601 84.0518 223.603C84.097 223.644 81.472 223.603 81.472 223.603L80.7661 227.905H85.3882C86.2473 227.905 87.0938 227.921 87.9228 227.926L87.9253 233.912H91.4722V227.99C92.4444 228.01 93.3863 228.018 94.3082 228.018L94.3057 233.912H97.8552V227.939C103.824 227.592 108.006 226.065 108.524 220.377C108.943 215.797 106.82 213.751 103.432 212.925C105.494 211.865 106.783 209.992 106.481 206.87V206.87ZM101.513 219.669C101.513 224.141 93.9641 223.634 91.5551 223.634V215.7C93.9641 215.706 101.513 215.005 101.513 219.669V219.669ZM99.8597 208.478C99.8597 212.548 93.5597 212.071 91.5551 212.074V204.882C93.5622 204.882 99.8623 204.235 99.8597 208.478Z" fill="white"/>
<path opacity="0.1" d="M319.636 54.9718C319.152 49.9909 314.813 48.3216 309.331 47.8456V40.9336H305.088V47.6611C303.974 47.6611 302.833 47.6819 301.701 47.7057V40.9336H297.458L297.455 47.8396C296.537 47.8575 295.633 47.8753 294.753 47.8753V47.8545L288.901 47.8515V52.3445C288.901 52.3445 292.036 52.2849 291.982 52.3415C293.702 52.3415 294.261 53.3293 294.423 54.1833V62.0563C294.543 62.0563 294.696 62.0623 294.87 62.0861H294.423L294.42 73.1161C294.345 73.6517 294.026 74.5056 292.825 74.5086C292.879 74.5562 289.742 74.5086 289.742 74.5086L288.898 79.5312H294.423C295.45 79.5312 296.462 79.549 297.452 79.555L297.455 86.5443H301.695V79.6293C302.857 79.6531 303.983 79.6621 305.085 79.6621L305.082 86.5443H309.325V79.5698C316.459 79.1652 321.458 77.3829 322.077 70.7417C322.578 65.3948 320.041 63.0055 315.99 62.0415C318.456 60.8037 319.996 58.6167 319.636 54.9718V54.9718ZM313.696 69.9145C313.696 75.1364 304.674 74.5443 301.794 74.5443V65.2817C304.674 65.2877 313.696 64.4694 313.696 69.9145V69.9145ZM311.721 56.8493C311.721 61.6011 304.19 61.0447 301.794 61.0476V52.6509C304.193 52.6509 311.724 51.8952 311.721 56.8493Z" fill="white"/>
<path opacity="0.1" d="M335.242 25.4392C335.107 23.993 333.897 23.5084 332.368 23.3702V21.3633H331.185V23.3166C330.874 23.3166 330.556 23.3226 330.24 23.3295V21.3633H329.057L329.056 23.3684C328.8 23.3736 328.548 23.3788 328.303 23.3788V23.3727L326.671 23.3719V24.6764C326.671 24.6764 327.545 24.6591 327.53 24.6755C328.01 24.6755 328.165 24.9623 328.211 25.2103V27.4962C328.244 27.4962 328.287 27.4979 328.335 27.5048H328.211L328.21 30.7074C328.189 30.8629 328.1 31.1108 327.765 31.1117C327.78 31.1255 326.905 31.1117 326.905 31.1117L326.67 32.57H328.211C328.497 32.57 328.779 32.5751 329.055 32.5769L329.056 34.6062H330.239V32.5985C330.563 32.6054 330.877 32.608 331.184 32.608L331.183 34.6062H332.366V32.5812C334.356 32.4637 335.75 31.9462 335.922 30.018C336.062 28.4655 335.355 27.7718 334.225 27.4919C334.913 27.1325 335.342 26.4975 335.242 25.4392V25.4392ZM333.585 29.7778C333.585 31.294 331.069 31.122 330.266 31.122V28.4327C331.069 28.4344 333.585 28.1968 333.585 29.7778V29.7778ZM333.034 25.9844C333.034 27.364 330.934 27.2025 330.266 27.2033V24.7654C330.935 24.7654 333.035 24.5459 333.034 25.9844Z" fill="white"/>
<path opacity="0.1" d="M138.75 36.8053C138.567 34.8529 136.925 34.1986 134.85 34.012V31.3027H133.244V33.9397C132.822 33.9397 132.391 33.9479 131.962 33.9572V31.3027H130.357L130.355 34.0097C130.008 34.0167 129.666 34.0237 129.333 34.0237V34.0155L127.118 34.0143V35.7754C127.118 35.7754 128.304 35.7521 128.284 35.7743C128.935 35.7743 129.146 36.1615 129.208 36.4962V39.5822C129.253 39.5822 129.311 39.5845 129.377 39.5938H129.208L129.206 43.9172C129.178 44.1272 129.058 44.4619 128.603 44.4631C128.624 44.4817 127.436 44.4631 127.436 44.4631L127.117 46.4318H129.208C129.596 46.4318 129.979 46.4388 130.354 46.4411L130.355 49.1807H131.96V46.4702C132.4 46.4796 132.826 46.4831 133.243 46.4831L133.242 49.1807H134.847V46.4469C137.547 46.2883 139.44 45.5897 139.674 42.9866C139.863 40.8907 138.903 39.9542 137.37 39.5763C138.303 39.0912 138.886 38.234 138.75 36.8053V36.8053ZM136.502 42.6623C136.502 44.7092 133.087 44.4771 131.997 44.4771V40.8464C133.087 40.8488 136.502 40.528 136.502 42.6623V42.6623ZM135.754 37.5412C135.754 39.4037 132.904 39.1856 131.997 39.1868V35.8956C132.905 35.8956 135.755 35.5993 135.754 37.5412Z" fill="white"/>
<path opacity="0.1" d="M159.49 112.285C159.221 109.392 156.801 108.423 153.743 108.147V104.133H151.377V108.039C150.755 108.039 150.119 108.052 149.488 108.065V104.133H147.121L147.12 108.143C146.607 108.153 146.103 108.164 145.613 108.164V108.152L142.349 108.15V110.759C142.349 110.759 144.097 110.724 144.067 110.757C145.026 110.757 145.338 111.331 145.428 111.827V116.399C145.495 116.399 145.581 116.402 145.678 116.416H145.428L145.427 122.821C145.385 123.132 145.207 123.628 144.537 123.63C144.568 123.657 142.818 123.63 142.818 123.63L142.347 126.546H145.428C146.001 126.546 146.565 126.557 147.118 126.56L147.12 130.619H149.484V126.603C150.132 126.617 150.76 126.622 151.375 126.622L151.373 130.619H153.74V126.569C157.719 126.334 160.507 125.299 160.852 121.442C161.132 118.337 159.716 116.95 157.457 116.39C158.832 115.671 159.691 114.401 159.49 112.285V112.285ZM156.178 120.962C156.178 123.994 151.146 123.65 149.54 123.65V118.272C151.146 118.275 156.178 117.8 156.178 120.962V120.962ZM155.076 113.375C155.076 116.134 150.876 115.811 149.54 115.813V110.937C150.878 110.937 155.078 110.498 155.076 113.375Z" fill="white"/>
<path opacity="0.13" d="M237.072 151.66C236.648 147.249 232.845 145.771 228.04 145.349V139.229H224.322V145.186C223.345 145.186 222.345 145.205 221.353 145.226V139.229H217.635L217.632 145.344C216.827 145.36 216.035 145.376 215.264 145.376V145.357L210.135 145.355V149.333C210.135 149.333 212.882 149.281 212.835 149.331C214.343 149.331 214.832 150.206 214.974 150.962V157.934C215.08 157.934 215.214 157.939 215.366 157.96H214.974L214.972 167.728C214.906 168.202 214.627 168.958 213.574 168.961C213.622 169.003 210.872 168.961 210.872 168.961L210.132 173.409H214.974C215.874 173.409 216.761 173.425 217.63 173.43L217.632 179.619H221.348V173.496C222.366 173.517 223.353 173.525 224.319 173.525L224.316 179.619H228.035V173.443C234.288 173.085 238.669 171.506 239.211 165.625C239.651 160.89 237.427 158.774 233.877 157.921C236.038 156.825 237.388 154.888 237.072 151.66V151.66ZM231.867 164.893C231.867 169.517 223.959 168.993 221.435 168.993V160.79C223.959 160.795 231.867 160.071 231.867 164.893V164.893ZM230.135 153.323C230.135 157.531 223.535 157.038 221.435 157.041V149.605C223.537 149.605 230.138 148.936 230.135 153.323Z" fill="white"/>
<path opacity="0.3" fill-rule="evenodd" clip-rule="evenodd" d="M257.459 85.5957H264.081C268.109 85.5957 271.162 87.7844 272.298 90.9692H274.36V92.8943H272.732C272.764 93.1987 272.78 93.5088 272.78 93.8238V93.8711C272.78 94.2258 272.76 94.5745 272.719 94.916H274.36V96.8411H272.258C271.092 99.9816 268.063 102.149 264.081 102.149H257.459V96.8411H255.158V94.916H257.459V92.8943H255.158V90.9692H257.459V85.5957ZM259.31 96.8411V100.422H264.081C267.025 100.422 269.212 98.9881 270.23 96.8411H259.31ZM270.797 94.916H259.31V92.8943H270.8C270.843 93.2125 270.865 93.5386 270.865 93.8711V93.9184C270.865 94.2586 270.842 94.5917 270.797 94.916ZM264.081 87.3198C267.038 87.3198 269.232 88.792 270.244 90.9692H259.31V87.3198H264.081Z" fill="white"/>
<path opacity="0.3" fill-rule="evenodd" clip-rule="evenodd" d="M56.2646 145.846H61.973C65.445 145.846 68.077 147.684 69.0563 150.359H70.8342V151.977H69.4308C69.4584 152.232 69.4723 152.493 69.4723 152.757V152.797C69.4723 153.095 69.4546 153.388 69.4199 153.675H70.8342V155.292H69.0224C68.0174 157.93 65.4058 159.751 61.973 159.751H56.2646V155.292H54.2805V153.675H56.2646V151.977H54.2805V150.359H56.2646V145.846ZM57.8604 155.292V158.3H61.973C64.5106 158.3 66.3959 157.095 67.2738 155.292H57.8604ZM67.7629 153.675H57.8604V151.977H67.7653C67.8022 152.244 67.8209 152.518 67.8209 152.797V152.837C67.8209 153.123 67.8012 153.402 67.7629 153.675ZM61.973 147.294C64.5223 147.294 66.4134 148.531 67.2859 150.359H57.8604V147.294H61.973Z" fill="white"/>
<path opacity="0.09" fill-rule="evenodd" clip-rule="evenodd" d="M267.864 129.295H287.272C299.077 129.295 308.026 135.598 311.355 144.771H317.4V150.315H312.629C312.722 151.192 312.77 152.085 312.77 152.992V153.128C312.77 154.15 312.71 155.154 312.591 156.137H317.4V161.682H311.24C307.823 170.726 298.944 176.969 287.272 176.969H267.864V161.682H261.118V156.137H267.864V150.315H261.118V144.771H267.864V129.295ZM273.289 161.682V171.996H287.272C295.9 171.996 302.31 167.865 305.295 161.682H273.289ZM306.958 156.137H273.289V150.315H306.966C307.091 151.231 307.155 152.17 307.155 153.128V153.264C307.155 154.244 307.088 155.203 306.958 156.137ZM287.272 134.26C295.94 134.26 302.37 138.5 305.336 144.771H273.289V134.26H287.272Z" fill="white"/>
<path opacity="0.15" d="M142.017 228.007C134.758 228.007 128.875 222.124 128.875 214.865C128.875 207.606 134.758 201.723 142.017 201.723C149.276 201.723 155.159 207.606 155.159 214.865C155.159 218.35 153.774 221.693 151.31 224.158C148.845 226.622 145.502 228.007 142.017 228.007V228.007ZM141.234 209.988C140.515 210.024 139.835 210.327 139.328 210.838C138.821 211.349 138.523 212.031 138.494 212.751C138.494 214.104 139.321 214.988 141.077 215.357L142.308 215.648C143.504 215.927 143.997 216.33 143.997 217.012C143.997 217.694 143.135 218.366 142.017 218.366C141.62 218.402 141.22 218.326 140.864 218.146C140.508 217.966 140.21 217.689 140.004 217.348C139.942 217.218 139.846 217.108 139.725 217.031C139.605 216.954 139.465 216.913 139.321 216.912H138.661C138.611 216.921 138.562 216.94 138.519 216.968C138.476 216.997 138.439 217.033 138.409 217.076C138.38 217.118 138.36 217.166 138.349 217.217C138.339 217.267 138.339 217.319 138.348 217.37C138.509 218.026 138.883 218.61 139.411 219.031C139.939 219.452 140.592 219.686 141.267 219.697V220.636C141.267 220.845 141.351 221.046 141.498 221.194C141.646 221.341 141.847 221.425 142.056 221.425C142.265 221.425 142.466 221.341 142.614 221.194C142.761 221.046 142.844 220.845 142.844 220.636V219.685C143.608 219.677 144.338 219.37 144.879 218.831C145.42 218.292 145.73 217.563 145.741 216.8C145.741 215.379 144.925 214.563 142.99 214.149L141.871 213.903C140.753 213.623 140.227 213.254 140.227 212.628C140.227 212.001 140.898 211.308 142.017 211.308C142.369 211.271 142.724 211.337 143.04 211.498C143.356 211.659 143.618 211.907 143.795 212.214C143.867 212.367 143.981 212.497 144.123 212.588C144.266 212.679 144.431 212.728 144.6 212.728H145.126C145.246 212.699 145.349 212.624 145.414 212.52C145.479 212.415 145.5 212.289 145.473 212.169C145.321 211.563 144.982 211.021 144.504 210.619C144.026 210.218 143.434 209.977 142.811 209.932V209.161C142.811 208.951 142.728 208.751 142.58 208.603C142.432 208.455 142.232 208.372 142.022 208.372C141.813 208.372 141.613 208.455 141.465 208.603C141.317 208.751 141.234 208.951 141.234 209.161V209.988V209.988ZM132.163 214.865C132.164 216.925 132.813 218.933 134.017 220.605C135.221 222.276 136.92 223.528 138.874 224.182H139.03C139.164 224.182 139.292 224.129 139.386 224.034C139.481 223.94 139.534 223.812 139.534 223.678V223.443C139.534 223.235 139.473 223.032 139.357 222.858C139.242 222.685 139.077 222.55 138.885 222.47C137.364 221.856 136.06 220.801 135.142 219.441C134.225 218.081 133.734 216.478 133.734 214.837C133.734 213.196 134.225 211.593 135.142 210.232C136.06 208.872 137.364 207.817 138.885 207.203C139.077 207.125 139.24 206.992 139.356 206.821C139.472 206.65 139.533 206.448 139.534 206.241V205.984C139.535 205.909 139.517 205.834 139.483 205.767C139.449 205.699 139.399 205.641 139.337 205.597C139.276 205.553 139.205 205.525 139.13 205.514C139.055 205.504 138.979 205.511 138.907 205.537C136.946 206.185 135.238 207.436 134.027 209.11C132.817 210.785 132.164 212.798 132.163 214.865V214.865ZM151.871 214.865C151.867 212.806 151.217 210.801 150.013 209.131C148.809 207.462 147.112 206.212 145.16 205.559H144.992C144.853 205.559 144.719 205.614 144.62 205.713C144.522 205.812 144.466 205.945 144.466 206.085V206.252C144.471 206.468 144.538 206.678 144.659 206.857C144.78 207.035 144.95 207.175 145.149 207.259C146.667 207.875 147.966 208.93 148.882 210.289C149.797 211.648 150.286 213.249 150.286 214.887C150.286 216.525 149.797 218.126 148.882 219.485C147.966 220.844 146.667 221.899 145.149 222.515C144.954 222.6 144.787 222.739 144.668 222.915C144.549 223.091 144.483 223.298 144.477 223.511V223.701C144.478 223.784 144.499 223.865 144.537 223.939C144.576 224.012 144.631 224.075 144.699 224.123C144.767 224.171 144.845 224.203 144.927 224.215C145.009 224.227 145.092 224.219 145.171 224.193C147.124 223.536 148.822 222.283 150.024 220.609C151.227 218.935 151.872 216.926 151.871 214.865V214.865Z" fill="white"/>
<path opacity="0.08" d="M15.5 164C5.2817 164 -3 155.718 -3 145.5C-3 135.282 5.2817 127 15.5 127C25.7183 127 34 135.282 34 145.5C34 150.407 32.0509 155.112 28.5815 158.581C25.1121 162.051 20.4065 164 15.5 164V164ZM14.3979 138.635C13.3857 138.686 12.4288 139.112 11.7151 139.832C11.0014 140.551 10.5824 141.512 10.5404 142.524C10.5404 144.429 11.7055 145.673 14.1774 146.193L15.9094 146.602C17.594 146.996 18.2868 147.563 18.2868 148.523C18.2868 149.483 17.0745 150.428 15.5 150.428C14.9407 150.479 14.3784 150.372 13.8772 150.119C13.376 149.865 12.9562 149.476 12.666 148.995C12.58 148.813 12.4442 148.658 12.2743 148.55C12.1043 148.441 11.9072 148.383 11.7055 148.381H10.7766C10.7052 148.395 10.637 148.422 10.5762 148.461C10.5153 148.501 10.4629 148.552 10.4219 148.612C10.3809 148.672 10.3522 148.74 10.3374 148.811C10.3226 148.882 10.3221 148.955 10.3357 149.027C10.562 149.95 11.0881 150.773 11.8317 151.365C12.5753 151.958 13.4944 152.287 14.4451 152.302V153.624C14.4451 153.919 14.5621 154.201 14.7702 154.409C14.9784 154.617 15.2607 154.734 15.5551 154.734C15.8495 154.734 16.1318 154.617 16.34 154.409C16.5482 154.201 16.6651 153.919 16.6651 153.624V152.286C17.7401 152.274 18.7679 151.842 19.5296 151.084C20.2913 150.325 20.7266 149.299 20.743 148.224C20.743 146.224 19.5936 145.075 16.8698 144.492L15.2953 144.146C13.7209 143.752 12.9809 143.233 12.9809 142.351C12.9809 141.469 13.9255 140.493 15.5 140.493C15.9959 140.441 16.4961 140.534 16.9403 140.761C17.3846 140.987 17.7538 141.337 18.0034 141.769C18.1046 141.984 18.2648 142.166 18.4654 142.295C18.6661 142.423 18.8989 142.492 19.137 142.493H19.877C20.0453 142.452 20.1907 142.346 20.2819 142.199C20.3732 142.052 20.4031 141.875 20.3651 141.706C20.1518 140.853 19.6747 140.089 19.0017 139.524C18.3288 138.958 17.4945 138.62 16.6179 138.557V137.47C16.6179 137.176 16.5009 136.893 16.2928 136.685C16.0846 136.477 15.8023 136.36 15.5079 136.36C15.2135 136.36 14.9311 136.477 14.723 136.685C14.5148 136.893 14.3979 137.176 14.3979 137.47V138.635V138.635ZM1.62894 145.5C1.63074 148.4 2.54366 151.227 4.23875 153.58C5.93384 155.933 8.32544 157.695 11.0757 158.615H11.2962C11.4841 158.615 11.6643 158.541 11.7972 158.408C11.93 158.275 12.0047 158.095 12.0047 157.907V157.576C12.0052 157.283 11.9187 156.996 11.7561 156.753C11.5935 156.509 11.3622 156.319 11.0915 156.206C8.94959 155.342 7.11493 153.857 5.82298 151.942C4.53104 150.028 3.84076 147.77 3.84076 145.461C3.84076 143.151 4.53104 140.894 5.82298 138.979C7.11493 137.064 8.94959 135.579 11.0915 134.715C11.361 134.605 11.5918 134.418 11.7544 134.177C11.917 133.936 12.0042 133.652 12.0047 133.361V132.999C12.0057 132.892 11.9811 132.787 11.9329 132.693C11.8847 132.598 11.8143 132.516 11.7278 132.454C11.6413 132.392 11.5411 132.352 11.4358 132.338C11.3305 132.323 11.2232 132.333 11.123 132.369C8.3613 133.282 5.95761 135.043 4.25331 137.4C2.54901 139.757 1.63074 142.591 1.62894 145.5V145.5ZM29.3711 145.5C29.366 142.602 28.4515 139.78 26.7567 137.429C25.0618 135.079 22.672 133.32 19.9243 132.4H19.6881C19.4918 132.4 19.3036 132.478 19.1648 132.617C19.026 132.756 18.9481 132.944 18.9481 133.14V133.377C18.9544 133.68 19.0485 133.976 19.2189 134.227C19.3893 134.478 19.6288 134.675 19.9085 134.794C22.0455 135.661 23.8752 137.146 25.1634 139.059C26.4516 140.971 27.1398 143.225 27.1398 145.531C27.1398 147.838 26.4516 150.091 25.1634 152.004C23.8752 153.917 22.0455 155.402 19.9085 156.269C19.6341 156.389 19.3995 156.584 19.2322 156.833C19.0649 157.081 18.9718 157.371 18.9638 157.671V157.938C18.9652 158.055 18.9941 158.17 19.0483 158.273C19.1024 158.377 19.1803 158.466 19.2755 158.533C19.3707 158.601 19.4805 158.645 19.596 158.662C19.7115 158.679 19.8294 158.668 19.94 158.631C22.6899 157.707 25.0799 155.942 26.7722 153.586C28.4646 151.23 29.3737 148.401 29.3711 145.5V145.5Z" fill="white"/>
<path opacity="0.1" d="M291.257 209.623C290.987 206.73 288.568 205.761 285.51 205.484V201.471H283.143V205.377C282.522 205.377 281.886 205.389 281.254 205.403V201.471H278.888L278.886 205.481C278.374 205.491 277.87 205.502 277.379 205.502V205.49L274.115 205.488V208.097C274.115 208.097 275.864 208.062 275.833 208.095C276.793 208.095 277.104 208.669 277.195 209.165V213.737C277.262 213.737 277.347 213.74 277.444 213.754H277.195L277.193 220.159C277.151 220.47 276.974 220.966 276.304 220.967C276.334 220.995 274.584 220.967 274.584 220.967L274.114 223.884H277.195C277.768 223.884 278.332 223.894 278.885 223.898L278.886 227.957H281.251V223.941C281.899 223.955 282.527 223.96 283.142 223.96L283.14 227.957H285.506V223.907C289.485 223.672 292.274 222.637 292.619 218.78C292.898 215.675 291.483 214.288 289.224 213.728C290.599 213.009 291.458 211.739 291.257 209.623V209.623ZM287.945 218.3C287.945 221.332 282.912 220.988 281.306 220.988V215.61C282.912 215.613 287.945 215.138 287.945 218.3V218.3ZM286.843 210.713C286.843 213.472 282.643 213.149 281.306 213.151V208.275C282.644 208.275 286.844 207.836 286.843 210.713Z" fill="white"/>
<path opacity="0.1" d="M346.312 232.287C335.523 232.287 326.779 223.543 326.779 212.754C326.779 201.965 335.523 193.221 346.312 193.221C357.101 193.221 365.845 201.965 365.845 212.754C365.845 217.935 363.787 222.903 360.124 226.566C356.461 230.229 351.493 232.287 346.312 232.287V232.287ZM345.148 205.506C344.08 205.559 343.069 206.01 342.316 206.769C341.562 207.529 341.12 208.543 341.076 209.612C341.076 211.624 342.306 212.937 344.916 213.485L346.744 213.918C348.523 214.333 349.255 214.932 349.255 215.946C349.255 216.96 347.975 217.957 346.312 217.957C345.722 218.011 345.128 217.898 344.599 217.631C344.069 217.363 343.626 216.952 343.32 216.445C343.229 216.252 343.086 216.089 342.906 215.974C342.727 215.86 342.519 215.798 342.306 215.796H341.325C341.249 215.81 341.178 215.839 341.113 215.881C341.049 215.923 340.994 215.977 340.95 216.04C340.907 216.104 340.877 216.175 340.861 216.25C340.846 216.325 340.845 216.402 340.859 216.478C341.098 217.453 341.654 218.321 342.439 218.947C343.224 219.573 344.194 219.92 345.198 219.936V221.332C345.198 221.643 345.322 221.941 345.542 222.161C345.761 222.381 346.059 222.504 346.37 222.504C346.681 222.504 346.979 222.381 347.199 222.161C347.419 221.941 347.542 221.643 347.542 221.332V219.919C348.677 219.906 349.763 219.451 350.567 218.65C351.371 217.848 351.831 216.765 351.848 215.63C351.848 213.519 350.634 212.305 347.758 211.69L346.096 211.324C344.434 210.909 343.652 210.36 343.652 209.429C343.652 208.498 344.65 207.468 346.312 207.468C346.836 207.413 347.364 207.511 347.833 207.75C348.302 207.989 348.692 208.358 348.955 208.814C349.062 209.042 349.231 209.234 349.443 209.37C349.655 209.505 349.901 209.578 350.152 209.579H350.934C351.111 209.535 351.265 209.424 351.361 209.269C351.458 209.113 351.489 208.926 351.449 208.748C351.224 207.847 350.72 207.041 350.009 206.444C349.299 205.847 348.418 205.49 347.492 205.423V204.276C347.492 203.965 347.369 203.667 347.149 203.447C346.929 203.227 346.631 203.104 346.32 203.104C346.01 203.104 345.711 203.227 345.492 203.447C345.272 203.667 345.148 203.965 345.148 204.276V205.506V205.506ZM331.666 212.754C331.668 215.816 332.632 218.801 334.422 221.285C336.212 223.77 338.737 225.63 341.641 226.602H341.873C342.072 226.602 342.262 226.523 342.402 226.383C342.543 226.242 342.622 226.052 342.622 225.854V225.505C342.622 225.195 342.531 224.893 342.359 224.635C342.187 224.378 341.943 224.177 341.657 224.058C339.396 223.146 337.459 221.578 336.095 219.556C334.73 217.534 334.002 215.151 334.002 212.712C334.002 210.274 334.73 207.89 336.095 205.869C337.459 203.847 339.396 202.279 341.657 201.367C341.942 201.251 342.186 201.053 342.357 200.799C342.529 200.544 342.621 200.244 342.622 199.937V199.554C342.623 199.442 342.597 199.331 342.546 199.231C342.495 199.131 342.421 199.045 342.329 198.98C342.238 198.914 342.132 198.872 342.021 198.856C341.91 198.841 341.796 198.852 341.691 198.89C338.775 199.854 336.237 201.712 334.437 204.201C332.638 206.69 331.668 209.683 331.666 212.754V212.754ZM360.958 212.754C360.953 209.695 359.987 206.714 358.198 204.233C356.408 201.751 353.885 199.894 350.983 198.923H350.734C350.527 198.923 350.328 199.005 350.182 199.152C350.035 199.298 349.953 199.497 349.953 199.704V199.953C349.96 200.274 350.059 200.586 350.239 200.851C350.419 201.117 350.672 201.325 350.967 201.45C353.223 202.365 355.155 203.933 356.515 205.953C357.875 207.973 358.602 210.352 358.602 212.787C358.602 215.222 357.875 217.602 356.515 219.622C355.155 221.641 353.223 223.209 350.967 224.125C350.677 224.251 350.429 224.457 350.253 224.72C350.076 224.982 349.978 225.289 349.969 225.604V225.887C349.971 226.01 350.001 226.131 350.059 226.241C350.116 226.35 350.198 226.444 350.299 226.515C350.399 226.587 350.515 226.633 350.637 226.651C350.759 226.669 350.883 226.658 351 226.619C353.904 225.643 356.427 223.779 358.214 221.291C360.001 218.804 360.961 215.817 360.958 212.754V212.754Z" fill="white"/>
<path fill-rule="evenodd" clip-rule="evenodd" d="M177.501 149.056H186.003C186.003 149.056 197.972 150.053 197.972 136.564C197.972 123.591 187.04 123.636 184.925 123.645C184.876 123.645 184.831 123.645 184.792 123.645H177.477V134.973H174.485V137.728H177.501V149.056ZM182.298 128.348H185.647C186.905 128.348 193.246 128.894 193.246 136.683C193.246 144.386 186.86 144.379 185.845 144.378C185.834 144.378 185.823 144.378 185.813 144.378H182.298V137.752H187.594V134.973H182.298V128.348Z" fill="white" fill-opacity="0.1"/>
<path fill-rule="evenodd" clip-rule="evenodd" d="M161.566 75.258H177.448C177.448 75.258 199.807 77.1213 199.807 51.9227C199.807 27.6871 179.385 27.7717 175.434 27.7881C175.342 27.7885 175.259 27.7888 175.186 27.7888H161.521V48.9503H155.932V54.0965H161.566V75.258ZM170.527 36.5703H176.783C179.134 36.5703 190.979 37.5907 190.979 52.142C190.979 66.5311 179.05 66.518 177.154 66.5159C177.132 66.5159 177.112 66.5159 177.093 66.5159H170.527V54.1384H180.421V48.9478H170.527V36.5703Z" fill="white" fill-opacity="0.1"/>
<path fill-rule="evenodd" clip-rule="evenodd" d="M338.99 170.015H347.261C347.261 170.015 358.905 170.985 358.905 157.862C358.905 145.241 348.27 145.285 346.212 145.293C346.164 145.294 346.121 145.294 346.083 145.294H338.967V156.314H336.056V158.994H338.99V170.015ZM343.657 149.862H346.914C348.139 149.862 354.308 150.394 354.308 157.972C354.308 165.465 348.095 165.459 347.107 165.457C347.096 165.457 347.086 165.457 347.076 165.457H343.657V159.011H348.809V156.308H343.657V149.862Z" fill="white" fill-opacity="0.1"/>
<path d="M229.321 230.745V230.736C228.933 230.763 226.932 230.88 222.478 230.88C218.917 230.88 216.42 230.781 215.536 230.736V230.745C201.842 230.142 191.628 227.763 191.628 224.907C191.628 222.06 201.851 219.672 215.536 219.069V228.376C216.429 228.439 218.998 228.592 222.541 228.592C226.797 228.592 228.924 228.412 229.321 228.376V219.078C242.988 219.69 253.175 222.069 253.175 224.916C253.175 227.763 242.979 230.142 229.321 230.754V230.745ZM229.321 218.114V209.789H248.388V197.094H196.478V209.789H215.545V218.114C200.048 218.825 188.4 221.889 188.4 225.565C188.4 229.241 200.057 232.304 215.545 233.025V259.712H229.33V233.025C244.8 232.313 256.43 229.25 256.43 225.574C256.43 221.907 244.8 218.834 229.33 218.123" fill="white" fill-opacity="0.1"/>
<path d="M44.5705 30.3907V30.3806C44.1388 30.4107 41.91 30.5408 36.9504 30.5408C32.9846 30.5408 30.2036 30.4307 29.2197 30.3806V30.3907C13.9693 29.7199 2.59424 27.0771 2.59424 23.9036C2.59424 20.7402 13.9793 18.0873 29.2197 17.4165V27.7578C30.2137 27.8279 33.075 27.998 37.0206 27.998C41.7594 27.998 44.1288 27.7978 44.5705 27.7578V17.4266C59.7908 18.1073 71.1358 20.7502 71.1358 23.9136C71.1358 27.0771 59.7808 29.7199 44.5705 30.4007V30.3907ZM44.5705 16.3554V7.10534H65.8047V-7H7.99564V7.10534H29.2298V16.3554C11.9714 17.1463 -1 20.55 -1 24.6344C-1 28.7188 11.9814 32.1225 29.2298 32.9234V62.5757H44.5806V32.9234C61.8088 32.1326 74.7602 28.7288 74.7602 24.6444C74.7602 20.57 61.8088 17.1563 44.5806 16.3654" fill="white" fill-opacity="0.07"/>
<path d="M60.5778 199.202V199.198C60.4193 199.209 59.6005 199.257 57.7786 199.257C56.3218 199.257 55.3002 199.217 54.9388 199.198V199.202C49.3366 198.956 45.158 197.987 45.158 196.824C45.158 195.664 49.3403 194.691 54.9388 194.445V198.237C55.3039 198.262 56.355 198.325 57.8044 198.325C59.5452 198.325 60.4156 198.251 60.5778 198.237V194.449C66.169 194.698 70.3365 195.667 70.3365 196.827C70.3365 197.987 66.1653 198.956 60.5778 199.206V199.202ZM60.5778 194.056V190.664H68.3781V185.492H47.1422V190.664H54.9425V194.056C48.6026 194.346 43.8376 195.594 43.8376 197.091C43.8376 198.589 48.6063 199.837 54.9425 200.131V211.003H60.5815V200.131C66.9103 199.841 71.6679 198.593 71.6679 197.095C71.6679 195.601 66.9103 194.349 60.5815 194.06" fill="white" fill-opacity="0.1"/>
</g>
</g>
<defs>
<linearGradient id="paint0_linear" x1="-93.1915" y1="301" x2="-93.1914" y2="-1.15427e-05" gradientUnits="userSpaceOnUse">
<stop stop-color="#1CE4C3"/>
<stop offset="0.385417" stop-color="#4866D3"/>
<stop offset="0.833333" stop-color="#302E78"/>
</linearGradient>
</defs>
</svg>
