<?xml version="1.0" encoding="UTF-8"?><svg xmlns="http://www.w3.org/2000/svg" xmlns:xlink="http://www.w3.org/1999/xlink" viewBox="0 0 199.8 199.8"><defs><style>.f{fill:#fff;}.g{fill:url(#d);}.h{fill:url(#e);}</style><linearGradient id="d" x1="89.77" y1="-364.71" x2="136.81" y2="-364.71" gradientTransform="translate(0 -264.35) scale(1 -1)" gradientUnits="userSpaceOnUse"><stop offset=".06" stop-color="#ec6b0e"/><stop offset=".34" stop-color="#e8502f"/><stop offset=".72" stop-color="#f19001"/><stop offset="1" stop-color="#f39743"/></linearGradient><linearGradient id="e" x1="63.3" y1="-364.31" x2="110.42" y2="-364.31" gradientTransform="translate(0 -264.35) scale(1 -1)" gradientUnits="userSpaceOnUse"><stop offset=".22" stop-color="#e8502f"/><stop offset=".66" stop-color="#f19001"/><stop offset="1" stop-color="#f39743"/></linearGradient></defs><g id="a"/><g id="b"><g id="c"><g><circle cx="99.9" cy="99.9" r="99.9" transform="translate(-41.38 99.9) rotate(-45)"/><path class="f" d="M100.83,15.73h-2.78C51.8,16.65,14.8,54.58,15.72,101.75c.92,46.25,38.85,83.25,86.03,82.33,45.33-.92,81.4-37,82.33-82.33,.93-46.25-37-85.1-83.25-86.03Zm-.92,157.25c-40.7,0-73.08-32.38-73.08-73.08S59.2,26.83,99.9,26.83s73.08,32.38,73.08,73.08-32.38,73.08-73.08,73.08Z"/><circle cx="99.9" cy="99.9" r="73.08" transform="translate(-41.38 99.9) rotate(-45)"/><path class="g" d="M91.21,104.74c0,.8,.8,1.59,.8,1.59l25.47,35.03c3.18,4.78,10.35,5.57,15.12,2.39,4.78-3.18,5.57-10.35,2.39-15.12l-21.49-28.66,20.7-27.86c3.18-4.78,2.39-11.14-2.39-15.12-4.78-3.18-11.14-2.39-15.12,2.39l-24.68,34.23c-2.39,3.18-3.18,7.16-.8,11.14Z"/><path class="h" d="M109.52,95.98c0-.8-.8-1.59-.8-1.59l-25.47-35.03c-3.18-4.78-10.35-5.57-15.12-2.39-4.78,3.18-5.57,10.35-2.39,15.12l20.7,27.86-20.7,27.86c-3.18,4.78-2.39,11.14,2.39,15.12,4.78,3.18,11.14,2.39,15.12-2.39l25.47-34.23c1.59-3.18,2.39-7.16,.8-10.35Z"/></g></g></g></svg>