<?xml version="1.0" encoding="UTF-8" standalone="no"?>
<!DOCTYPE svg PUBLIC "-//W3C//DTD SVG 1.1//EN" "http://www.w3.org/Graphics/SVG/1.1/DTD/svg11.dtd">
<svg width="100%" height="100%" viewBox="0 0 24 24" version="1.1" xmlns="http://www.w3.org/2000/svg" xmlns:xlink="http://www.w3.org/1999/xlink" xml:space="preserve" xmlns:serif="http://www.serif.com/" style="fill-rule:evenodd;clip-rule:evenodd;stroke-linejoin:round;stroke-miterlimit:2;">
    <g transform="matrix(1,0,0,1,-0.196289,-0.152344)">
        <path d="M12.043,22.494C17.839,22.494 22.538,17.795 22.538,11.999C22.538,6.203 17.839,1.505 12.043,1.505C6.247,1.505 1.549,6.203 1.549,11.999C1.549,17.795 6.247,22.494 12.043,22.494Z" style="fill:white;fill-rule:nonzero;"/>
        <path d="M12.044,20.662C16.827,20.662 20.706,16.784 20.706,12C20.706,7.216 16.827,3.338 12.044,3.338C7.26,3.338 3.382,7.216 3.382,12C3.382,16.784 7.26,20.662 12.044,20.662Z" style="fill:rgb(29,29,27);fill-rule:nonzero;"/>
        <path d="M12.022,0.152C5.498,0.152 0.196,5.432 0.196,11.978L0.196,21.861C0.196,22.952 1.091,23.847 2.182,23.847L12,23.847C18.567,23.847 23.891,18.523 23.891,11.956L23.891,2.138C23.891,1.047 22.996,0.152 21.905,0.152L12.022,0.152ZM12.24,21.992C6.589,22.101 1.985,17.498 2.094,11.847C2.204,6.523 6.545,2.181 11.869,2.072C17.52,1.963 22.124,6.567 22.015,12.218C21.927,17.541 17.564,21.905 12.24,21.992Z" style="fill:rgb(29,29,27);fill-rule:nonzero;"/>
        <path d="M10.779,12.632C10.822,12.72 10.866,12.807 10.931,12.894L14.444,17.672C14.924,18.327 15.862,18.48 16.517,17.978C17.171,17.498 17.324,16.56 16.822,15.905L13.942,12L16.822,8.116C17.302,7.461 17.171,6.523 16.517,6.043C15.862,5.563 14.924,5.694 14.444,6.349L10.931,11.127C10.582,11.585 10.561,12.174 10.779,12.632Z" style="fill:url(#_Linear1);fill-rule:nonzero;"/>
        <path d="M13.331,11.415C13.288,11.327 13.244,11.24 13.178,11.153L9.666,6.375C9.186,5.72 8.248,5.567 7.593,6.069C6.938,6.549 6.786,7.487 7.288,8.142L10.168,12.048L7.288,15.931C6.808,16.586 6.938,17.524 7.593,18.004C8.248,18.484 9.186,18.353 9.666,17.698L13.2,12.942C13.528,12.484 13.549,11.895 13.331,11.415Z" style="fill:url(#_Linear2);fill-rule:nonzero;"/>
    </g>
    <defs>
        <linearGradient id="_Linear1" x1="0" y1="0" x2="1" y2="0" gradientUnits="userSpaceOnUse" gradientTransform="matrix(6.4889,0,0,6.4889,10.6332,12.0301)"><stop offset="0" style="stop-color:rgb(236,107,14);stop-opacity:1"/><stop offset="0.06" style="stop-color:rgb(236,107,14);stop-opacity:1"/><stop offset="0.34" style="stop-color:rgb(232,80,47);stop-opacity:1"/><stop offset="0.72" style="stop-color:rgb(241,144,1);stop-opacity:1"/><stop offset="1" style="stop-color:rgb(243,151,67);stop-opacity:1"/></linearGradient>
        <linearGradient id="_Linear2" x1="0" y1="0" x2="1" y2="0" gradientUnits="userSpaceOnUse" gradientTransform="matrix(6.48897,0,0,6.48897,6.98703,12.0343)"><stop offset="0" style="stop-color:rgb(232,80,47);stop-opacity:1"/><stop offset="0.22" style="stop-color:rgb(232,80,47);stop-opacity:1"/><stop offset="0.66" style="stop-color:rgb(241,144,1);stop-opacity:1"/><stop offset="1" style="stop-color:rgb(243,151,67);stop-opacity:1"/></linearGradient>
    </defs>
</svg>
