<svg width="32" height="32" viewBox="0 0 32 32" fill="none" xmlns="http://www.w3.org/2000/svg">
<g clip-path="url(#clip0_8416_5564)">
<path d="M28.5186 24.8738H24.93H22.9811C21.7903 24.8738 21.2919 23.8961 21.1916 23.4073C21.1045 22.9881 20.9806 22.5828 20.8234 22.195C20.5582 21.3581 21.0094 20.9011 21.2682 20.7773L23.4859 19.4985C23.7915 20.0072 24.0379 20.5604 24.2423 21.1322C24.3596 21.4485 24.7971 22.0344 25.6087 21.8475L28.0372 21.2028C28.3435 22.3828 28.5186 23.6064 28.5186 24.8738Z" fill="url(#paint0_linear_8416_5564)"/>
<path fill-rule="evenodd" clip-rule="evenodd" d="M24.317 14.7786C22.5665 13.0306 20.3783 11.7195 17.8839 11.064L16.9648 14.5164C18.8029 14.9972 20.4659 16.0023 21.7788 17.3134L24.317 14.7786Z" fill="url(#paint1_linear_8416_5564)"/>
<path d="M4.88634 19.4547C3.96732 21.0717 3.44216 22.9072 3.44216 24.8737H1.81075C1.46152 24.8737 0.929362 24.7525 0.413831 24.2044C0.00140545 23.766 -0.0255881 23.0696 0.0124683 22.7763C0.223055 21.3883 0.634497 20.0642 1.19544 18.8262C1.35066 18.4647 1.8939 17.8466 2.82519 18.2662L4.88634 19.4547Z" fill="url(#paint2_linear_8416_5564)"/>
<path d="M28.5185 24.8738C28.5185 23.6065 28.3434 22.3828 28.0371 21.2029L30.2982 20.6026C30.7013 20.4968 31.5629 20.5344 31.7843 21.5308C31.8678 21.9614 31.9359 22.3997 31.9877 22.8427C32.0288 23.0973 31.9912 23.7428 31.5122 24.2875C31.0333 24.8322 30.3481 24.8738 30.1652 24.8738H28.5185Z" fill="#ABDA02"/>
<path d="M21.7788 17.3134L24.317 14.7787L26.0036 13.0945C26.2986 12.8177 27.0566 12.4468 27.7285 13.1775C28.2151 13.7356 28.6689 14.3263 29.0853 14.9545C29.2603 15.3064 29.4218 16.119 28.6683 16.5535L26.5927 17.7504L23.4856 19.5422C23.0042 18.7119 22.4353 17.9689 21.7788 17.3134Z" fill="#ABDA02"/>
<path d="M21.3848 12.5064C19.2842 11.2828 16.8335 10.5835 14.2077 10.5835C13.3072 10.5835 12.4288 10.6715 11.5724 10.8319C10.8141 10.9747 10.3836 10.3739 10.2631 10.0557L9.91833 8.76032C9.83776 8.36641 9.89613 7.53069 10.7742 7.33911C11.8836 7.11889 13.0456 7 14.2077 7C17.0047 7 19.6711 7.65199 22.066 8.81519C22.4097 8.97656 22.9973 9.52108 22.5982 10.4082L21.3848 12.5064Z" fill="#ABDA02"/>
<path d="M14.1643 14.1669C15.1271 14.1669 16.0899 14.298 16.9651 14.5165L16.3269 16.9141C16.2444 17.2272 15.8733 17.8342 15.0485 17.7574C14.7768 17.7236 14.4966 17.7067 14.208 17.7067C10.7279 17.7067 7.8494 20.1763 7.17859 23.4239C7.12445 23.6509 6.92302 24.1746 6.55051 24.4536C6.08487 24.8023 5.70238 24.8738 5.40304 24.8738H3.44238C3.44238 18.9304 8.25629 14.1669 14.1643 14.1669Z" fill="#ABDA02"/>
</g>
<defs>
<linearGradient id="paint0_linear_8416_5564" x1="24.6306" y1="19.4985" x2="24.6306" y2="24.8738" gradientUnits="userSpaceOnUse">
<stop stop-color="#6410D6"/>
<stop offset="1" stop-color="#A310D6"/>
</linearGradient>
<linearGradient id="paint1_linear_8416_5564" x1="20.6409" y1="11.064" x2="20.6409" y2="17.3134" gradientUnits="userSpaceOnUse">
<stop stop-color="#6410D6"/>
<stop offset="1" stop-color="#A310D6"/>
</linearGradient>
<linearGradient id="paint2_linear_8416_5564" x1="2.44317" y1="18.1255" x2="2.44317" y2="24.8737" gradientUnits="userSpaceOnUse">
<stop stop-color="#6410D6"/>
<stop offset="1" stop-color="#A310D6"/>
</linearGradient>
<clipPath id="clip0_8416_5564">
<rect width="32" height="32" fill="white"/>
</clipPath>
</defs>
</svg>
