<?xml version="1.0" encoding="utf-8"?>
<!-- Generator: Adobe Illustrator 26.0.0, SVG Export Plug-In . SVG Version: 6.00 Build 0)  -->
<svg version="1.1" id="Layer_1" xmlns="http://www.w3.org/2000/svg" xmlns:xlink="http://www.w3.org/1999/xlink" x="0px" y="0px"
	 viewBox="0 0 31.2 31" style="enable-background:new 0 0 31.2 31;" xml:space="preserve">
<style type="text/css">
	.st0{fill:url(#SVGID_1_);}
	.st1{fill:url(#SVGID_00000046331657726058556540000006139385375708559251_);}
</style>
<linearGradient id="SVGID_1_" gradientUnits="userSpaceOnUse" x1="32.8107" y1="5.3917" x2="-5.4416" y2="52.4455" gradientTransform="matrix(1 0 0 -1 0 34)">
	<stop  offset="0.15" style="stop-color:#B32EFF"/>
	<stop  offset="0.42" style="stop-color:#CE60D3"/>
	<stop  offset="0.65" style="stop-color:#E185B3"/>
	<stop  offset="0.84" style="stop-color:#EE9C9F"/>
	<stop  offset="0.96" style="stop-color:#F2A498"/>
</linearGradient>
<path class="st0" d="M30.6,10.3l-6.5-9.5c-1-1.5-3.3-0.7-3.3,1.1c0.1,1.6,0.7,3.4,2.2,5.5c0,0,0,0,0,0c0,0,0,0,0,0c0,0,0,0,0,0
	c0,0,0,0,0,0C22.4,7,13.3,0.2,2.5,3.8h0C1.3,4.2,0.7,5.2,1,6.4C1.3,7.4,2.4,8,3.5,7.9C5.8,7.5,8,7.3,10.3,7.5
	c2.2,0.2,4.4,0.8,6.5,1.8c2,1,3.9,2.4,5.6,4c1.9,1.8,4.3,5.7,4.3,5.7c0.1,0.2,0.4,0.4,0.6,0.5c0.3,0.1,0.6,0.1,0.8,0
	c0.6-0.2,0.9-1,0.7-1.6c-0.5-1.3-1.1-2.6-1.8-3.8c0,0,0,0,0,0c0,0,0,0,0,0c0,0,0,0,0,0c0,0,0,0,0,0c0.8,0.3,1.5,0.7,2.4,0.5
	c0.7-0.2,1.3-0.7,1.6-1.3c0.2-0.5,0.3-1,0.2-1.5C31.1,11.2,30.9,10.7,30.6,10.3L30.6,10.3z"/>
<linearGradient id="SVGID_00000024682793784926396730000000864925977802689168_" gradientUnits="userSpaceOnUse" x1="-1.6299" y1="31.5859" x2="36.6224" y2="-15.4679" gradientTransform="matrix(1 0 0 -1 0 34)">
	<stop  offset="0.15" style="stop-color:#B32EFF"/>
	<stop  offset="0.42" style="stop-color:#CE60D3"/>
	<stop  offset="0.65" style="stop-color:#E185B3"/>
	<stop  offset="0.84" style="stop-color:#EE9C9F"/>
	<stop  offset="0.96" style="stop-color:#F2A498"/>
</linearGradient>
<path style="fill:url(#SVGID_00000024682793784926396730000000864925977802689168_);" d="M0.6,20.8l6.5,9.5c1,1.5,3.3,0.7,3.3-1.1
	c-0.1-1.6-0.7-3.4-2.2-5.5c0,0,0,0,0,0s0,0,0,0c0,0,0,0,0,0c0,0,0,0,0,0c0.6,0.4,9.7,7.3,20.5,3.6h0c1.2-0.4,1.8-1.4,1.5-2.6
	c-0.3-1.1-1.4-1.7-2.4-1.5c-2.3,0.4-4.6,0.6-6.8,0.4c-2.2-0.2-4.4-0.8-6.5-1.8c-2-1-3.9-2.4-5.6-4C7,15.9,4.6,12,4.6,12
	c-0.1-0.2-0.4-0.4-0.6-0.5c-0.3-0.1-0.6-0.1-0.8,0c-0.6,0.2-0.9,1-0.7,1.6c0.5,1.3,1.1,2.6,1.8,3.8c0,0,0,0,0,0c0,0,0,0,0,0
	c0,0,0,0,0,0c0,0,0,0,0,0c-0.8-0.3-1.5-0.7-2.4-0.5c-0.7,0.2-1.3,0.7-1.6,1.3C0,18.2,0,18.8,0,19.3S0.3,20.3,0.6,20.8L0.6,20.8z"/>
</svg>
