<svg width="17" height="7" viewBox="0 0 17 7" fill="none" xmlns="http://www.w3.org/2000/svg">
<path d="M0.891572 0.858884C0.886986 0.863501 0.8824 0.868117 0.877814 0.872734C0.413162 1.34635 0.132996 1.93454 0.0373139 2.54623C0.0129244 2.70172 0.000416915 2.85868 0 3.01564V3.03369C0.000416915 3.18457 0.0118821 3.33544 0.034187 3.48485C0.10402 3.95049 0.280584 4.40312 0.563669 4.80245C0.657266 4.93444 0.762537 5.06076 0.879065 5.17974C0.883234 5.18394 0.887403 5.18793 0.891572 5.19213C1.14485 5.44729 1.42772 5.6435 1.72811 5.7843C2.83439 6.30177 4.18103 6.06171 5.18829 5.19905C5.1908 5.19674 5.19351 5.19443 5.19622 5.19213C6.33335 4.21258 7.37689 3.32537 8.50006 3.32537C9.62302 3.32537 10.6666 4.21258 11.8037 5.19213C12.1126 5.458 12.4535 5.66532 12.8097 5.8099C13.276 5.99939 13.7686 6.08144 14.2499 6.04744C14.9268 5.99981 15.5811 5.72282 16.1085 5.19213C16.1127 5.18793 16.1167 5.18394 16.1206 5.17974C16.2376 5.06076 16.3428 4.93444 16.4364 4.80245C16.7195 4.40312 16.8961 3.95049 16.9657 3.48485C17.0124 3.17407 17.0114 2.857 16.9628 2.54623C16.8671 1.93454 16.5867 1.34635 16.1223 0.872734C16.1175 0.868117 16.1131 0.863291 16.1083 0.858884C15.5811 0.328193 14.9268 0.0532999 14.2499 0.00713464C13.768 -0.0258106 13.2748 0.0572869 12.8082 0.246145C12.4526 0.390516 12.112 0.595952 11.8037 0.858884C10.6622 1.83234 9.62864 2.72585 8.50006 2.72585C7.37147 2.72585 6.33794 1.83234 5.19622 0.858884C5.19413 0.856995 5.19226 0.855317 5.19017 0.853638C4.53624 0.298396 3.73868 0 2.95697 0C2.53401 0 2.11584 0.0872944 1.72728 0.268178C1.4271 0.408143 1.14464 0.603926 0.891572 0.858884Z" fill="url(#paint0_radial)"/>
<defs>
<radialGradient id="paint0_radial" cx="0" cy="0" r="1" gradientUnits="userSpaceOnUse" gradientTransform="translate(-0.410189 1.67948) scale(19.4657 10.6404)">
<stop stop-color="#1CE5C3"/>
<stop offset="0.10253" stop-color="#1CE5C3"/>
<stop offset="0.474728" stop-color="#5440D7"/>
<stop offset="0.630807" stop-color="#8B2CE4"/>
<stop offset="0.795714" stop-color="#D421EB"/>
<stop offset="1" stop-color="#AC39FD"/>
</radialGradient>
</defs>
</svg>
