<svg width="13" height="12" viewBox="0 0 13 12" fill="none" xmlns="http://www.w3.org/2000/svg">
<g clip-path="url(#clip0)">
<path d="M3.03413 6.61141L3.37147 4.07683L0.445435 2.04557L3.11892 2.95116L3.75031 1.98243L6.05578 0.55188L11.1376 3.35164L11.4009 7.62344L9.13696 10.7696L7.34742 11.0438L8.27286 9.34984V7.71905L7.59997 6.44545L6.91627 5.99265L5.86456 7.07683V8.22416L5.04375 8.99265L4.00106 9.11893L3.53924 9.3805L2.78157 9.13877L2.46588 8.00227L3.03413 7.20311V6.61141Z" fill="white"/>
<path d="M7.70668 2.02415C7.14926 1.90869 6.53952 1.93936 6.53952 1.93936C6.53952 1.93936 6.33927 2.86479 5.09814 3.10833C5.10716 3.10833 6.73795 3.66576 7.70668 2.02415Z" fill="#94A6C3"/>
<path d="M8.21175 10.4216C8.88463 9.89482 9.38974 9.16963 9.62246 8.34882C9.63328 8.31815 9.72709 8.26404 9.79022 8.22254C9.89486 8.15941 10.0013 8.10709 10.0211 8.0223C10.0626 7.78057 10.0843 7.52802 10.0843 7.27546C10.0843 7.18165 9.98866 7.08604 9.89485 6.99224C9.82089 6.9291 9.74693 6.85514 9.74693 6.80282C9.6423 5.84491 9.20033 4.95014 8.49498 4.29891L8.42101 4.37287C9.10472 5.01509 9.54669 5.88821 9.6423 6.81364C9.65312 6.89843 9.73611 6.98141 9.82089 7.0662C9.89486 7.12934 9.97964 7.22495 9.97964 7.26644C9.97964 7.50817 9.95799 7.7499 9.9165 7.99164C9.90568 8.03313 9.81187 8.07642 9.73791 8.11791C9.63328 8.17023 9.53767 8.22254 9.51783 8.30733C9.26527 9.2021 8.6862 9.98141 7.91771 10.4865C8.05481 10.1925 8.48596 9.23457 8.71686 8.7493L8.67537 7.19248L7.33863 5.89903L6.58097 6.00366L5.74934 7.35123C5.74934 7.35123 6.13899 7.84551 5.59059 8.42459C5.05481 8.99284 4.63268 9.11912 4.63268 9.11912L4.24302 8.90805C4.35848 8.76013 4.59119 8.54004 4.76978 8.39212C5.07465 8.13956 5.37952 8.11791 5.37952 7.84551C5.39215 7.27546 4.78061 7.43241 4.78061 7.43241L4.55872 7.64347L4.46491 8.42278L4.0031 9.00186L3.95078 8.99103L3.19312 8.82327C3.19312 8.82327 3.65673 8.58153 3.7307 8.30733C3.80466 8.04395 3.58277 7.17083 3.57195 7.11852C3.58277 7.12934 3.79384 7.30793 3.88764 7.60198C4.05541 7.13836 4.2773 6.69639 4.34044 6.65489C4.40358 6.6134 5.25505 6.16061 5.25505 6.16061L4.97183 6.90745L5.18289 6.792L5.688 5.55087C5.688 5.55087 6.18229 5.30913 6.5503 5.30913C7.21236 5.29831 8.19191 4.48833 7.74994 3.03613C7.87621 3.08845 10.0644 4.18346 10.4433 6.33018C10.7265 7.98081 9.79022 9.52681 8.21175 10.4216Z" fill="#94A6C3"/>
<path d="M5.70765 2.25503C5.94939 1.97001 5.85558 1.54968 5.85558 1.54968L5.15023 2.59238C5.1394 2.59238 5.40098 2.6032 5.70765 2.25503Z" fill="#1B314F"/>
<path d="M3.33911 7.94816L3.42389 7.52783C3.42389 7.52783 3.07572 8.13757 3.04506 8.22236C3.01259 8.31797 3.0667 8.48574 3.202 8.47491C3.33911 8.46409 3.50687 8.26385 3.50687 8.11773C3.50687 7.92831 3.33911 7.94816 3.33911 7.94816Z" fill="#1B314F"/>
<path d="M9.58936 1.2555C9.58936 1.2555 10.1161 1.27715 10.6627 1.34029C9.43061 0.371555 8.26344 0.0883327 7.31636 0.0883327C6.01209 0.0883327 5.12814 0.625915 5.07402 0.656582L5.48533 0.0035463C5.48533 0.0035463 3.84372 -0.155203 3.26464 1.58202C3.11672 1.21401 2.98142 0.676426 2.98142 0.676426C2.98142 0.676426 2.12814 1.42507 2.52862 2.6662C1.54907 2.30902 0.150992 1.81292 0.096873 1.8039C0.0229103 1.79308 0.00126269 1.82555 0.00126269 1.82555C0.00126269 1.82555 -0.0203849 1.85622 0.042754 1.91034C0.160012 2.00234 2.36987 3.63493 2.85514 3.95062C2.75051 4.32946 2.75051 4.50805 2.85514 4.68664C3.00307 4.92837 3.01209 5.05465 2.99224 5.23325C2.9706 5.41184 2.78118 6.95964 2.73969 7.14906C2.6982 7.33847 2.25622 8.01135 2.27607 8.21159C2.29771 8.41183 2.57011 9.26331 2.81365 9.35892C2.99224 9.42206 3.43422 9.55916 3.72826 9.55916C3.83289 9.55916 3.9285 9.53751 3.96999 9.49602C4.14859 9.33907 4.2009 9.3066 4.32718 9.3066C4.338 9.3066 4.34883 9.3066 4.35785 9.3066C4.41016 9.3066 4.4733 9.31742 4.54726 9.31742C4.71503 9.31742 4.93692 9.28495 5.09387 9.13883C5.32477 8.90792 5.72526 8.59223 5.85153 8.44431C6.01028 8.24407 6.09327 7.97167 6.05177 7.69746C6.0193 7.44491 6.1564 7.22302 6.31515 7.00294C6.51539 6.73956 6.8834 6.26692 6.8834 6.26692C7.6104 6.81172 8.0632 7.64334 8.0632 8.56878C8.0632 10.2104 6.63265 11.5363 4.86476 11.5363C4.59056 11.5363 4.32898 11.5056 4.0656 11.4425C4.87559 11.7257 5.55929 11.8213 6.11852 11.8213C7.30734 11.8213 7.93873 11.3902 7.93873 11.3902C7.93873 11.3902 7.71864 11.6752 7.35965 11.9999C7.37048 11.9999 7.37048 11.9999 7.37048 11.9999C9.33861 11.7257 10.2965 10.1058 10.2965 10.1058C10.2965 10.1058 10.2226 10.6325 10.1287 10.9897C12.7463 9.02157 12.3043 6.55916 12.2935 6.47618C12.3152 6.50685 12.5785 6.82254 12.7138 6.99211C13.136 2.65538 9.58936 1.2555 9.58936 1.2555ZM5.55929 8.18093C5.5178 8.23324 5.33921 8.39199 5.21293 8.50744C5.08665 8.6229 4.94955 8.73835 4.84492 8.84479C4.80343 8.88628 4.71864 8.90792 4.59236 8.90792C4.55087 8.90792 4.50758 8.90792 4.47691 8.90792C4.45526 8.90792 4.43542 8.90792 4.41377 8.90792C4.39212 8.90792 4.3813 8.90792 4.37228 8.90792C4.33981 8.90792 4.30914 8.90792 4.27667 8.90792C4.43542 8.69686 4.89723 8.2134 5.05598 8.10877C5.2454 7.98249 5.34101 7.85621 5.22375 7.63613C5.1083 7.41424 4.80343 7.46836 4.80343 7.46836C4.80343 7.46836 4.98202 7.3944 5.14077 7.3944C4.94053 7.34208 4.68797 7.3944 4.57252 7.50985C4.44624 7.6253 4.46789 8.03661 4.41557 8.29818C4.36326 8.57239 4.18467 8.70949 3.91046 8.96204C3.76254 9.09914 3.65791 9.14064 3.57312 9.14064C3.39453 9.10997 3.18346 9.05585 3.03554 9.00354C2.93091 8.86643 2.77216 8.41364 2.73067 8.22422C2.76133 8.11959 2.88761 7.8977 2.95075 7.77143C3.07703 7.52969 3.15099 7.39259 3.17264 7.26631C3.21413 7.08772 3.35123 5.98189 3.40355 5.52008C3.54065 5.69867 3.73007 5.99452 3.68677 6.18394C3.99164 5.75279 3.77156 5.33066 3.66512 5.16289C3.57132 4.99512 3.44504 4.65778 3.54967 4.30059C3.6543 3.94341 4.03313 2.95303 4.03313 2.95303C4.03313 2.95303 4.15941 3.17492 4.338 3.13162C4.5166 3.09013 5.95797 0.921765 5.95797 0.921765C5.95797 0.921765 6.34763 1.77324 5.93632 2.39561C5.516 3.01617 5.10469 3.13162 5.10469 3.13162C5.10469 3.13162 5.68376 3.23625 6.21954 2.8466C6.43963 3.36253 6.65069 3.89831 6.66152 3.97227C6.62904 4.04624 6.20872 5.05646 6.16723 5.1196C6.14558 5.14124 5.99946 5.18273 5.89303 5.20438C5.71443 5.2567 5.6098 5.28917 5.56651 5.31984C5.49254 5.38297 5.1552 6.30841 4.99826 6.7612C4.80884 6.81352 4.61942 6.91995 4.48232 7.12921C4.55628 7.0769 4.78719 7.04443 4.95677 7.02458C5.10469 7.01376 5.55568 7.25549 5.67294 7.70829C5.67294 7.71911 5.67294 7.71911 5.67294 7.72993C5.69639 7.8959 5.64408 8.05465 5.55929 8.18093ZM4.57072 8.3072C4.66633 8.1701 4.6555 7.93919 4.66633 7.86523C4.67715 7.79127 4.69699 7.65417 4.78178 7.63432C4.86657 7.61268 5.06681 7.64515 5.06681 7.79127C5.06681 7.92837 4.91888 7.95904 4.81425 8.05465C4.73848 8.12681 4.59056 8.28556 4.57072 8.3072ZM8.76855 6.29578C8.87318 5.76 8.88401 5.29638 8.85334 4.91755C9.26284 5.46415 9.51539 6.12801 9.58936 6.81172C9.60018 6.8965 9.68316 6.97949 9.76795 7.06427C9.84191 7.12741 9.9267 7.2122 9.9267 7.26451C9.9267 7.50624 9.90505 7.74797 9.86356 7.99151C9.85274 8.02218 9.75893 8.0763 9.68497 8.11779C9.58034 8.1701 9.48473 8.22242 9.46488 8.3072C9.23398 9.11718 8.73788 9.83336 8.07583 10.3385C9.05358 9.31742 9.52622 7.63252 8.76855 6.29578ZM8.10649 10.4323C8.7902 9.90552 9.31696 9.1695 9.54787 8.33787C9.55869 8.3072 9.6525 8.25309 9.71563 8.21159C9.82026 8.15928 9.9267 8.09614 9.94654 8.01135C9.98804 7.76962 10.0097 7.51707 10.0097 7.26451C10.0097 7.17071 9.91407 7.0751 9.82027 6.98129C9.76795 6.91815 9.68316 6.84419 9.68316 6.79187C9.59838 6.02338 9.29351 5.29819 8.82087 4.69747C8.6098 3.43469 7.76915 3.04503 7.74751 3.03421C7.76915 3.06668 8.31575 3.85501 7.93692 4.78045C7.54726 5.71671 6.54787 5.57059 6.46308 5.57961C6.37829 5.57961 6.05358 5.99993 5.64227 6.77924C5.58996 6.7576 5.36807 6.70528 5.11551 6.74858C5.30493 6.22182 5.58996 5.47498 5.64227 5.41184C5.66392 5.39019 5.82087 5.3487 5.9273 5.31803C6.12754 5.26572 6.22135 5.23324 6.25382 5.19175C6.27547 5.15928 6.3801 4.91755 6.48473 4.665C6.58034 4.665 6.82207 4.64335 6.84191 4.63252C6.86356 4.61088 7.0638 4.09675 7.0638 4.03361C7.0638 3.98129 6.6525 2.96025 6.49555 2.57059C6.56951 2.4858 6.64348 2.38117 6.71563 2.26572C8.87318 2.49843 10.5581 4.32946 10.5581 6.54834C10.5581 8.25309 9.55869 9.73775 8.10649 10.4323Z" fill="#1B314F"/>
<path d="M5.30725 4.74988C5.50749 4.51897 5.40286 4.08782 5.03304 4.01386C5.12865 3.79378 5.26395 3.35181 5.26395 3.35181C5.26395 3.35181 4.19059 5.0349 4.09678 5.06738C4.00117 5.09985 3.90736 4.73004 3.90736 4.73004C3.70712 5.49852 4.24471 5.60315 4.30785 5.36142C4.60189 5.28566 5.107 4.96996 5.30725 4.74988Z" fill="#1B314F"/>
<path d="M4.39087 5.1594L4.93747 4.22314C4.93747 4.22314 5.25316 4.38189 5.09441 4.63445C4.89598 4.92849 4.39087 5.1594 4.39087 5.1594Z" fill="#FFD923"/>
<path d="M11.1577 9.49616C10.9989 9.70723 10.8203 9.92731 10.6111 10.1384C11.9677 7.52804 10.6742 5.13958 10.6219 5.04578C10.7175 5.14139 10.8113 5.24602 10.8961 5.33982C11.937 6.49617 12.0633 8.23339 11.1577 9.49616Z" fill="#D82122"/>
<path d="M12.4205 6.13884C11.946 4.86524 11.2731 3.78105 9.79027 2.8033C8.35972 1.85622 6.82274 1.93018 6.73796 1.94101C6.72713 1.94101 6.71631 1.94101 6.71631 1.94101C6.76862 1.91936 6.82094 1.90853 6.87325 1.89952C7.19977 1.79488 7.6201 1.7101 8.04223 1.65778C9.15888 1.49723 10.2846 1.87606 11.053 2.68785C11.0639 2.69867 11.0639 2.69867 11.0747 2.7095C11.9478 3.63493 12.4006 4.79127 12.4205 6.13884Z" fill="#D82122"/>
<path d="M9.45297 0.928967C7.88532 0.63492 6.87509 0.781041 6.14809 1.05524C6.12644 0.970458 6.05248 0.802689 5.98934 0.665588C5.77106 0.928967 5.53835 1.24466 5.39223 1.4449C4.99174 1.7191 4.82397 1.98248 4.82397 1.98248C5.05488 1.19235 5.72957 0.604253 6.55038 0.456327C6.78128 0.414836 7.03384 0.393188 7.30804 0.393188C8.03324 0.404012 8.75844 0.582605 9.45297 0.928967Z" fill="#D82122"/>
<path d="M3.6547 2.9494C2.4244 2.90791 2.8339 1.47556 2.85555 1.39258C2.85555 1.4034 2.93853 2.51825 3.6547 2.9494Z" fill="#D82122"/>
<path d="M4.86515 0.371582C3.91806 0.939832 4.10748 2.29642 4.10748 2.29642C3.20189 0.919988 4.79119 0.404053 4.86515 0.371582Z" fill="#D82122"/>
<path d="M3.30847 3.32836C3.37161 3.38067 3.43475 3.47628 3.36078 3.61338C3.31929 3.68735 3.25615 3.67652 3.16054 3.63503C3.03427 3.57189 2.2766 3.12992 1.5929 2.67712C2.37221 2.95133 3.16054 3.24537 3.28682 3.30851C3.28682 3.30851 3.29765 3.31934 3.30847 3.32836Z" fill="white"/>
</g>
<defs>
<clipPath id="clip0">
<rect width="12.7505" height="12" fill="white"/>
</clipPath>
</defs>
</svg>
