<svg width="35" height="33" viewBox="0 0 35 33" fill="none" xmlns="http://www.w3.org/2000/svg">
<g clip-path="url(#clip0_1_1268)">
<path d="M2.88716 23.7624C4.9251 27.4831 8.40618 30.2676 12.5646 31.5033C16.7231 32.739 21.2182 32.3248 25.0612 30.3517C28.9042 28.3786 31.7802 25.0083 33.0565 20.9822C34.3329 16.956 33.905 12.6039 31.8671 8.88322C30.0403 5.54782 28.8325 4.96971 30.3272 7.69829C31.6856 10.1756 32.2221 12.9982 31.8636 15.7815C31.5051 18.5647 30.2689 21.1732 28.3237 23.2517C26.3784 25.3301 23.8186 26.7773 20.993 27.3962C18.1674 28.015 15.2135 27.7753 12.5337 26.7098C10.7988 25.9157 9.32634 24.6699 8.28105 23.1117C7.23577 21.5536 6.65887 19.7446 6.61492 17.8871C6.57097 16.0296 7.06169 14.1969 8.03218 12.5941C9.00267 10.9912 10.4147 9.68143 12.1102 8.8112C12.2648 8.73164 12.4204 8.65678 12.5779 8.5857C12.7194 8.50331 12.8643 8.42422 13.0112 8.35031C14.1415 7.76762 15.3845 7.41834 16.6614 7.32451C16.9806 7.29956 17.3011 7.29153 17.6212 7.30049C17.9499 7.24297 18.2675 7.13658 18.5626 6.98509C19.1285 6.69416 19.5918 6.24638 19.8934 5.69906C20.195 5.15174 20.321 4.52976 20.2555 3.91269C20.1899 3.29561 19.9356 2.71151 19.5253 2.23511C19.1149 1.75871 18.5671 1.41168 17.9519 1.2384C17.9512 1.23791 17.9505 1.23763 17.9497 1.23763C17.9489 1.23763 17.9481 1.23791 17.9475 1.2384C17.7807 1.20168 17.6149 1.16872 17.4476 1.14001C14.9108 0.680034 12.2882 1.03617 9.97994 2.15405C9.88756 2.19831 9.79582 2.2438 9.70473 2.29057C9.61381 2.33764 9.52337 2.38473 9.43536 2.43181C5.6742 4.44692 2.88062 7.81124 1.65594 11.8006C0.431252 15.79 0.873382 20.0854 2.88716 23.7624Z" fill="white"/>
</g>
<defs>
<clipPath id="clip0_1_1268">
<rect width="34.5231" height="32.9538" fill="white"/>
</clipPath>
</defs>
</svg>
