<svg width="250" height="250" viewBox="0 0 250 250" fill="none" xmlns="http://www.w3.org/2000/svg">
<circle cx="125" cy="125" r="124.5" fill="black" stroke="black"/>
<path d="M115.799 126.444L118.215 124.016V115.463L115.799 113.035H112.466L110.165 115.463V124.016L112.466 126.444H115.799Z" fill="#00FF00"/>
<path d="M137.537 126.33L139.835 123.902V115.463L137.537 113.035H134.201L131.785 115.463V123.902L134.201 126.33H137.537Z" fill="#00FF00"/>
<path d="M191.932 107.139L188.596 106.676L176.636 115.923L176.175 119.277L175.639 119.739H172.382L169.967 122.168V125.404L172.152 127.601V128.758L169.85 131.186L169.967 146.333L172.382 148.644L172.496 149.801L172.559 149.851L170.311 152.112V155.465L169.276 156.505H152.369L151.335 155.465V138.468L150.875 138.008L148.92 136.043V134.886L148.749 134.711L151.105 132.34V129.104L150.928 128.926L151.335 128.872L152.025 128.064L155.362 127.718L163.411 117.311L163.077 114.062L163.872 113.266L163.847 112.949L163.872 112.917L163.771 111.979L163.755 111.76L166.17 109.335L165.94 89.9094L163.525 87.5985V87.3671L163.642 86.3273L162.721 85.1703L163.065 81.8164L154.901 71.4124L151.565 71.0637L151.073 70.4043L151.105 70.3726V67.1328L148.806 64.7046H145.587L144.436 63.7821V60.4282L141.904 58H108.096L105.564 60.4282V63.7821L104.416 64.7046H101.194L98.8952 67.1328V70.3726L98.9267 70.4043L98.4349 71.0637L95.0988 71.4124L86.9354 81.8164L87.2791 85.1703L86.3615 86.3273L86.475 87.3671V87.5985L84.0597 89.9094L83.8295 109.335L86.2448 111.76L86.1313 113.266L87.03 114.166L86.7052 117.311L94.7552 127.718L98.0912 128.064L98.7817 128.872L99.0781 128.913L98.8952 129.104V132.34L101.194 134.768L101.08 134.886V136.043L99.1254 138.008L98.665 138.468V155.465L97.6308 156.505H80.7237L79.6895 155.465V152.112L77.3909 149.801L77.5044 148.644L79.9197 146.333L80.0363 131.186L77.7345 128.758L77.8386 127.614L80.0363 125.404V122.168L77.621 119.739H74.3607L73.8247 119.277L73.3643 115.923L61.4045 106.676L58.0684 107.139L56 109.795L56.4604 113.149L68.4202 122.399L71.7562 121.936L72.0085 122.142L71.9864 122.168V125.404L74.285 127.832H74.4017V128.527L71.9864 130.955L71.7562 146.101L74.0548 148.53V149.683H73.9413L71.6395 152.112V155.465L73.9413 157.776H77.2742L78.3116 158.819V162.17L80.6102 164.484H97.5141L99.9294 162.17V158.819L100.967 157.776H104.416L106.715 155.465V138.468L104.646 136.043L104.53 134.768L106.945 132.34V129.104L104.53 126.675H101.288L100.737 125.981L101.08 122.63L92.9137 112.223L89.5809 111.878L89.5714 111.865L89.5809 111.76L91.9962 109.45L92.1097 90.1409L89.811 87.7126L89.8426 87.3481L89.9246 87.2498L93.2606 86.9043L101.311 76.5002L100.967 73.1464L101.235 72.7977H104.53L106.945 70.3726V67.1328L108.096 66.2104H141.904L143.055 67.1328V70.3726L145.47 72.7977H148.768L149.036 73.1464L148.689 76.5002L156.739 86.9043L160.075 87.2498L160.157 87.3481L160.192 87.7126L157.89 90.1409L158.007 109.45L160.419 111.76L160.432 111.887L157.2 112.223L149.036 122.63L149.38 125.981L148.768 126.755L148.689 126.675H145.357L143.055 129.104V132.34L145.357 134.768H145.47L145.357 136.043L143.402 138.468V155.465L145.7 157.776H149.036L150.071 158.819V162.17L152.486 164.484H169.39L171.692 162.17V158.819L172.726 157.776H176.062L178.36 155.465V152.112L176.062 149.683H175.832V148.53L178.13 146.101L177.9 130.955L175.485 128.527V127.832H175.715L178.017 125.404V122.168L177.992 122.142L178.247 121.936L181.58 122.399L193.54 113.149L194 109.795L191.932 107.139Z" fill="#00FF00"/>
<path d="M114.535 157.082L112.119 159.51V162.864L111.085 163.904H107.749L91.6493 179.745V182.981L90.6151 184.021H73.7111L72.6738 182.981V179.627L70.2585 177.202H66.9256L64.6238 179.627V182.981L66.9256 185.295H70.2585L71.2958 186.335V189.689L73.5945 192H90.5016L92.9137 189.689V186.335L93.9479 185.295L94.0646 185.41H97.4006L113.5 169.569V166.218L114.421 165.175H117.641L120.286 162.864V159.51L117.871 157.082H114.535Z" fill="#00FF00"/>
<path d="M179.972 177.202L177.556 179.627V182.981L176.522 184.021H159.615L158.581 182.981V179.745L142.481 163.904H139.145L138.111 162.864V159.51L135.695 157.082H132.359L129.944 159.51V162.864L132.59 165.175H135.812L136.73 166.218V169.569L152.83 185.41H156.166L156.282 185.295L157.316 186.335V189.689L159.732 192H176.636L178.934 189.689V186.335L179.972 185.295H183.305L185.606 182.981V179.627L183.305 177.202H179.972Z" fill="#00FF00"/>
</svg>
