<svg width="258" height="258" viewBox="0 0 258 258" fill="none" xmlns="http://www.w3.org/2000/svg">
<g filter="url(#filter0_d_1_11)">
<circle cx="129" cy="125" r="125" fill="black"/>
<circle cx="129" cy="125" r="124.5" stroke="black"/>
</g>
<path d="M119.799 126.444L122.215 124.016V115.463L119.799 113.035H116.466L114.165 115.463V124.016L116.466 126.444H119.799Z" fill="#00FF00"/>
<path d="M141.537 126.33L143.835 123.902V115.463L141.537 113.035H138.201L135.785 115.463V123.902L138.201 126.33H141.537Z" fill="#00FF00"/>
<path d="M195.932 107.139L192.596 106.676L180.636 115.923L180.175 119.277L179.639 119.739H176.382L173.967 122.168V125.404L176.152 127.601V128.758L173.85 131.186L173.967 146.333L176.382 148.644L176.496 149.801L176.559 149.851L174.311 152.112V155.465L173.276 156.505H156.369L155.335 155.465V138.468L154.875 138.008L152.92 136.043V134.886L152.749 134.711L155.105 132.34V129.104L154.928 128.926L155.335 128.872L156.025 128.064L159.362 127.718L167.411 117.311L167.077 114.062L167.872 113.266L167.847 112.949L167.872 112.917L167.771 111.979L167.755 111.76L170.17 109.335L169.94 89.9094L167.525 87.5985V87.3671L167.642 86.3273L166.721 85.1703L167.065 81.8164L158.901 71.4124L155.565 71.0637L155.073 70.4043L155.105 70.3726V67.1328L152.806 64.7046H149.587L148.436 63.7821V60.4282L145.904 58H112.096L109.564 60.4282V63.7821L108.416 64.7046H105.194L102.895 67.1328V70.3726L102.927 70.4043L102.435 71.0637L99.0988 71.4124L90.9354 81.8164L91.2791 85.1703L90.3615 86.3273L90.475 87.3671V87.5985L88.0597 89.9094L87.8295 109.335L90.2448 111.76L90.1313 113.266L91.03 114.166L90.7052 117.311L98.7552 127.718L102.091 128.064L102.782 128.872L103.078 128.913L102.895 129.104V132.34L105.194 134.768L105.08 134.886V136.043L103.125 138.008L102.665 138.468V155.465L101.631 156.505H84.7237L83.6895 155.465V152.112L81.3909 149.801L81.5044 148.644L83.9197 146.333L84.0363 131.186L81.7345 128.758L81.8386 127.614L84.0363 125.404V122.168L81.621 119.739H78.3607L77.8247 119.277L77.3643 115.923L65.4045 106.676L62.0684 107.139L60 109.795L60.4604 113.149L72.4202 122.399L75.7562 121.936L76.0085 122.142L75.9864 122.168V125.404L78.285 127.832H78.4017V128.527L75.9864 130.955L75.7562 146.101L78.0548 148.53V149.683H77.9413L75.6395 152.112V155.465L77.9413 157.776H81.2742L82.3116 158.819V162.17L84.6102 164.484H101.514L103.929 162.17V158.819L104.967 157.776H108.416L110.715 155.465V138.468L108.646 136.043L108.53 134.768L110.945 132.34V129.104L108.53 126.675H105.288L104.737 125.981L105.08 122.63L96.9137 112.223L93.5809 111.878L93.5714 111.865L93.5809 111.76L95.9962 109.45L96.1097 90.1409L93.811 87.7126L93.8426 87.3481L93.9246 87.2498L97.2606 86.9043L105.311 76.5002L104.967 73.1464L105.235 72.7977H108.53L110.945 70.3726V67.1328L112.096 66.2104H145.904L147.055 67.1328V70.3726L149.47 72.7977H152.768L153.036 73.1464L152.689 76.5002L160.739 86.9043L164.075 87.2498L164.157 87.3481L164.192 87.7126L161.89 90.1409L162.007 109.45L164.419 111.76L164.432 111.887L161.2 112.223L153.036 122.63L153.38 125.981L152.768 126.755L152.689 126.675H149.357L147.055 129.104V132.34L149.357 134.768H149.47L149.357 136.043L147.402 138.468V155.465L149.7 157.776H153.036L154.071 158.819V162.17L156.486 164.484H173.39L175.692 162.17V158.819L176.726 157.776H180.062L182.36 155.465V152.112L180.062 149.683H179.832V148.53L182.13 146.101L181.9 130.955L179.485 128.527V127.832H179.715L182.017 125.404V122.168L181.992 122.142L182.247 121.936L185.58 122.399L197.54 113.149L198 109.795L195.932 107.139Z" fill="#00FF00"/>
<path d="M118.535 157.082L116.119 159.51V162.864L115.085 163.904H111.749L95.6493 179.745V182.981L94.6151 184.021H77.7111L76.6738 182.981V179.627L74.2585 177.202H70.9256L68.6238 179.627V182.981L70.9256 185.295H74.2585L75.2958 186.335V189.689L77.5945 192H94.5016L96.9137 189.689V186.335L97.9479 185.295L98.0646 185.41H101.401L117.5 169.569V166.218L118.421 165.175H121.641L124.286 162.864V159.51L121.871 157.082H118.535Z" fill="#00FF00"/>
<path d="M183.972 177.202L181.556 179.627V182.981L180.522 184.021H163.615L162.581 182.981V179.745L146.481 163.904H143.145L142.111 162.864V159.51L139.695 157.082H136.359L133.944 159.51V162.864L136.59 165.175H139.812L140.73 166.218V169.569L156.83 185.41H160.166L160.282 185.295L161.316 186.335V189.689L163.732 192H180.636L182.934 189.689V186.335L183.972 185.295H187.305L189.606 182.981V179.627L187.305 177.202H183.972Z" fill="#00FF00"/>
<defs>
<filter id="filter0_d_1_11" x="0" y="0" width="258" height="258" filterUnits="userSpaceOnUse" color-interpolation-filters="sRGB">
<feFlood flood-opacity="0" result="BackgroundImageFix"/>
<feColorMatrix in="SourceAlpha" type="matrix" values="0 0 0 0 0 0 0 0 0 0 0 0 0 0 0 0 0 0 127 0" result="hardAlpha"/>
<feOffset dy="4"/>
<feGaussianBlur stdDeviation="2"/>
<feComposite in2="hardAlpha" operator="out"/>
<feColorMatrix type="matrix" values="0 0 0 0 0 0 0 0 0 0 0 0 0 0 0 0 0 0 0.25 0"/>
<feBlend mode="normal" in2="BackgroundImageFix" result="effect1_dropShadow_1_11"/>
<feBlend mode="normal" in="SourceGraphic" in2="effect1_dropShadow_1_11" result="shape"/>
</filter>
</defs>
</svg>
