<svg width="14" height="18" viewBox="0 0 14 18" fill="none" xmlns="http://www.w3.org/2000/svg">
<path d="M5.49451 4.6131C5.32057 4.5859 5.31323 4.58271 5.39509 4.57004C5.55196 4.54572 5.92239 4.57885 6.17766 4.64003C6.77353 4.78278 7.31575 5.14846 7.89457 5.79792L8.04836 5.97046L8.26836 5.93482C9.1951 5.78474 10.1378 5.90402 10.9264 6.27113C11.1433 6.37213 11.4853 6.57317 11.5281 6.62483C11.5417 6.64129 11.5667 6.74728 11.5836 6.86037C11.6422 7.25164 11.6129 7.55155 11.4942 7.77555C11.4295 7.89744 11.4259 7.93608 11.4693 8.04038C11.5041 8.12361 11.6007 8.18522 11.6964 8.18514C11.8924 8.18489 12.1033 7.86561 12.2011 7.42143L12.2398 7.24499L12.3168 7.33278C12.7385 7.8144 13.0699 8.47123 13.1268 8.93871L13.1416 9.06067L13.0708 8.94985C12.9486 8.75916 12.826 8.62932 12.6691 8.52462C12.3861 8.33594 12.0869 8.27164 11.2943 8.22956C10.5786 8.19159 10.1735 8.12998 9.77176 7.99796C9.08839 7.77342 8.74387 7.47435 7.932 6.40096C7.57143 5.92418 7.3486 5.6604 7.12686 5.44797C6.62315 4.96529 6.12817 4.71214 5.49451 4.6131Z" fill="#FF007A"/>
<path d="M11.6877 5.67537C11.7056 5.35589 11.7486 5.14517 11.835 4.95273C11.8692 4.87656 11.9013 4.81421 11.9062 4.81421C11.9112 4.81421 11.8963 4.87044 11.8732 4.93914C11.8103 5.1259 11.8 5.38135 11.8434 5.67857C11.8983 6.05567 11.9295 6.11008 12.325 6.51743C12.5105 6.7085 12.7263 6.94947 12.8045 7.05293L12.9468 7.24105L12.8045 7.10661C12.6306 6.9422 12.2306 6.62157 12.1422 6.57574C12.083 6.545 12.0742 6.54554 12.0377 6.58219C12.004 6.61596 11.9969 6.66672 11.9922 6.90665C11.9849 7.28061 11.9344 7.52063 11.8123 7.76063C11.7463 7.89044 11.7358 7.86274 11.7956 7.71622C11.8402 7.60683 11.8448 7.55873 11.8444 7.19672C11.8437 6.46936 11.758 6.2945 11.2556 5.99494C11.1282 5.91905 10.9184 5.80961 10.7894 5.75173C10.6604 5.69383 10.5579 5.64341 10.5616 5.63965C10.5758 5.62537 11.0659 5.76952 11.2631 5.84598C11.5565 5.95972 11.605 5.97446 11.6406 5.96074C11.6644 5.95154 11.676 5.88144 11.6877 5.67537Z" fill="#FF007A"/>
<path d="M5.83114 6.92158C5.47801 6.43162 5.25952 5.6804 5.30682 5.11884L5.32145 4.94507L5.40183 4.95985C5.55278 4.98759 5.81309 5.08522 5.93494 5.15982C6.26939 5.36452 6.41412 5.63403 6.56142 6.32606C6.60459 6.52876 6.66123 6.75815 6.68726 6.8358C6.72918 6.96081 6.88763 7.25278 7.01647 7.4424C7.1093 7.57898 7.04766 7.64369 6.84255 7.62503C6.52923 7.59653 6.10487 7.30138 5.83114 6.92158Z" fill="#FF007A"/>
<path d="M11.2607 10.5661C9.61041 9.89655 9.02917 9.31524 9.02917 8.33451C9.02917 8.19025 9.03408 8.07214 9.04007 8.07214C9.04606 8.07214 9.10994 8.11975 9.18197 8.17801C9.51658 8.44851 9.89137 8.56402 10.9288 8.71657C11.5392 8.80626 11.8828 8.87877 12.1997 8.98472C13.207 9.32136 13.8301 10.0046 13.9788 10.9351C14.022 11.2055 13.9967 11.7126 13.9266 11.9798C13.8713 12.1909 13.7026 12.5713 13.658 12.5859C13.6456 12.59 13.6334 12.5421 13.6302 12.4769C13.6132 12.1275 13.438 11.7873 13.1438 11.5324C12.8092 11.2427 12.3597 11.0121 11.2607 10.5661Z" fill="#FF007A"/>
<path d="M10.101 10.8454C10.0803 10.7215 10.0445 10.563 10.0213 10.4936L9.97916 10.3671L10.0574 10.4556C10.1656 10.578 10.2511 10.7346 10.3237 10.9433C10.379 11.1026 10.3852 11.15 10.3848 11.4087C10.3844 11.6628 10.3775 11.7161 10.3263 11.8594C10.2458 12.0855 10.1458 12.2458 9.97808 12.4178C9.67665 12.727 9.28905 12.8982 8.72978 12.9692C8.63255 12.9815 8.34917 13.0023 8.10006 13.0154C7.47225 13.0483 7.05904 13.1163 6.68782 13.2476C6.63442 13.2665 6.58676 13.278 6.58194 13.2731C6.56689 13.2581 6.81966 13.1062 7.02851 13.0049C7.32287 12.862 7.61598 12.7839 8.27257 12.6738C8.59695 12.6193 8.9319 12.5533 9.01699 12.5269C9.82021 12.2787 10.2332 11.6382 10.101 10.8454Z" fill="#FF007A"/>
<path d="M10.8586 12.1983C10.6394 11.7233 10.5891 11.2647 10.7092 10.8369C10.722 10.7913 10.7427 10.7538 10.7551 10.7538C10.7676 10.7538 10.8193 10.782 10.8701 10.8165C10.9711 10.885 11.1738 11.0005 11.7137 11.2971C12.3873 11.6673 12.7714 11.9539 13.0327 12.2814C13.2614 12.5682 13.403 12.8948 13.4711 13.2931C13.5097 13.5188 13.4871 14.0616 13.4297 14.2888C13.2485 15.0052 12.8276 15.5678 12.2271 15.8962C12.1391 15.9443 12.0601 15.9837 12.0516 15.984C12.0431 15.9842 12.0751 15.902 12.1228 15.8014C12.3249 15.3759 12.3478 14.9619 12.1951 14.5013C12.1016 14.2192 11.911 13.8749 11.526 13.2932C11.0785 12.6168 10.9688 12.4369 10.8586 12.1983Z" fill="#FF007A"/>
<path d="M4.65877 14.7638C5.27118 14.2427 6.03319 13.8726 6.72729 13.7589C7.02639 13.7099 7.52477 13.7294 7.80175 13.8008C8.24574 13.9153 8.6429 14.1718 8.84951 14.4774C9.05138 14.7761 9.13796 15.0364 9.22812 15.6154C9.26372 15.8438 9.3024 16.0732 9.31413 16.1251C9.38183 16.4253 9.51358 16.6652 9.67694 16.7857C9.93628 16.9769 10.3829 16.9888 10.8223 16.8162C10.8968 16.7868 10.9616 16.7665 10.9661 16.7712C10.982 16.7871 10.7608 16.9363 10.6048 17.0149C10.3947 17.1206 10.2277 17.1615 10.0058 17.1615C9.60341 17.1615 9.26938 16.9552 8.99057 16.5345C8.93576 16.4518 8.8125 16.2038 8.7166 15.9836C8.42232 15.307 8.27693 15.101 7.93524 14.8754C7.63781 14.6792 7.25429 14.644 6.96575 14.7866C6.58672 14.9738 6.481 15.4619 6.75249 15.7713C6.86037 15.8942 7.06157 16.0002 7.22609 16.0209C7.53384 16.0595 7.79834 15.8235 7.79834 15.5104C7.79834 15.307 7.72082 15.191 7.52552 15.1022C7.25894 14.9809 6.97232 15.1227 6.97365 15.3751C6.97423 15.4827 7.02081 15.5504 7.12786 15.5991C7.19656 15.6305 7.19814 15.633 7.14208 15.6213C6.89746 15.5701 6.84016 15.2729 7.03687 15.0756C7.273 14.8387 7.76141 14.9432 7.92909 15.2665C7.99954 15.4023 8.00769 15.6728 7.94631 15.8362C7.80882 16.2017 7.40799 16.394 7.00135 16.2894C6.72454 16.2182 6.61176 16.1411 6.27797 15.7945C5.69801 15.1924 5.47284 15.0757 4.63667 14.9442L4.47644 14.919L4.65877 14.7638Z" fill="#FF007A"/>
<path fill-rule="evenodd" clip-rule="evenodd" d="M0.285257 1.27494C2.22219 3.64411 5.2084 7.33278 5.35665 7.53929C5.47906 7.70981 5.43299 7.86312 5.22329 7.98324C5.10668 8.05005 4.86693 8.11778 4.74689 8.11778C4.61112 8.11778 4.45816 8.05189 4.34678 7.94535C4.26806 7.87014 3.95031 7.39197 3.21681 6.24497C2.65555 5.36732 2.18587 4.63927 2.17305 4.62708C2.14342 4.59889 2.14393 4.59984 3.15957 6.43124C3.79731 7.58122 4.0126 7.98777 4.0126 8.04217C4.0126 8.15273 3.98266 8.21091 3.84728 8.36304C3.62161 8.61678 3.52074 8.90186 3.44791 9.49189C3.36627 10.1532 3.13671 10.6204 2.50052 11.42C2.12811 11.888 2.06718 11.9739 1.97321 12.1625C1.85486 12.4001 1.82231 12.5331 1.80912 12.8331C1.79518 13.1503 1.82233 13.3552 1.91848 13.6585C2.00267 13.9239 2.09053 14.0993 2.31517 14.4499C2.50902 14.7525 2.62064 14.9773 2.62064 15.0654C2.62064 15.1353 2.6339 15.1354 2.9343 15.067C3.65319 14.9035 4.23693 14.6157 4.56523 14.2631C4.76841 14.0448 4.81611 13.9244 4.81766 13.6252C4.81868 13.4296 4.81185 13.3886 4.75937 13.2761C4.67396 13.0929 4.51845 12.9406 4.17573 12.7045C3.72666 12.3951 3.53485 12.1461 3.48187 11.8036C3.43841 11.5225 3.48883 11.3242 3.73726 10.7994C3.9944 10.2564 4.05812 10.0248 4.10122 9.47738C4.12906 9.12374 4.16762 8.98417 4.26845 8.87227C4.37363 8.7555 4.4683 8.71594 4.72857 8.68015C5.1529 8.62172 5.4231 8.51108 5.64518 8.30479C5.83788 8.12591 5.91848 7.95349 5.93087 7.69394L5.94027 7.49723L5.83256 7.37072C5.44267 6.91256 0.0241444 0.914795 0.000148271 0.914795C-0.00497534 0.914795 0.123331 1.07687 0.285257 1.27494ZM2.83833 13.1934C2.92649 13.0361 2.87965 12.8338 2.73219 12.735C2.59286 12.6417 2.37642 12.6856 2.37642 12.8073C2.37642 12.8444 2.39679 12.8714 2.44271 12.8952C2.52002 12.9353 2.52563 12.9804 2.46481 13.0725C2.40321 13.1659 2.40817 13.2479 2.47883 13.3036C2.5927 13.3935 2.75391 13.3441 2.83833 13.1934Z" fill="#FF007A"/>
<path fill-rule="evenodd" clip-rule="evenodd" d="M6.20781 8.78294C6.0086 8.84455 5.81497 9.05729 5.75503 9.28043C5.71846 9.41656 5.73921 9.65529 5.79401 9.72897C5.88251 9.84808 5.96801 9.87943 6.19974 9.87784C6.65338 9.87465 7.0478 9.67859 7.09363 9.43341C7.13122 9.23248 6.95797 8.95402 6.71942 8.83181C6.59632 8.76877 6.33449 8.74371 6.20781 8.78294ZM6.73785 9.20059C6.8078 9.10042 6.7772 8.99213 6.65825 8.91895C6.4316 8.77947 6.089 8.89489 6.089 9.11057C6.089 9.21794 6.26766 9.33513 6.43144 9.33513C6.54048 9.33513 6.6897 9.26958 6.73785 9.20059Z" fill="#FF007A"/>
</svg>
