<svg id="svg" version="1.1" xmlns="http://www.w3.org/2000/svg" xmlns:xlink="http://www.w3.org/1999/xlink" width="400" height="400" viewBox="0, 0, 400,400"><g id="svgg"><path id="path0" d="M195.600 84.805 C 192.189 85.347,190.559 85.834,189.331 86.679 C 188.221 87.441,184.413 88.800,183.388 88.800 C 183.101 88.800,182.107 89.508,181.179 90.374 C 180.251 91.240,178.931 92.178,178.246 92.460 C 176.515 93.171,168.904 101.016,168.600 102.401 C 168.466 103.009,167.782 104.205,167.079 105.059 C 165.460 107.024,164.943 107.948,164.146 110.305 C 163.794 111.347,163.189 112.650,162.803 113.200 C 162.133 114.154,161.105 116.328,160.031 119.060 C 159.759 119.754,159.100 120.730,158.568 121.230 C 157.996 121.767,157.600 122.593,157.600 123.246 C 157.600 123.855,157.443 124.450,157.252 124.568 C 157.060 124.686,156.790 125.351,156.651 126.045 C 156.420 127.202,155.100 128.800,154.376 128.800 C 154.210 128.800,153.749 129.835,153.352 131.100 C 152.914 132.492,152.048 134.032,151.155 135.001 C 150.329 135.898,149.372 137.548,148.976 138.756 C 148.494 140.232,147.936 141.104,147.206 141.523 C 146.400 141.985,145.903 142.868,145.170 145.143 C 144.399 147.535,143.964 148.281,143.049 148.782 C 142.109 149.295,141.768 149.911,141.191 152.128 C 140.474 154.884,139.652 156.203,138.404 156.599 C 137.959 156.740,137.470 157.720,137.026 159.361 C 136.539 161.158,135.949 162.281,135.012 163.189 C 134.216 163.960,133.417 165.330,133.012 166.617 C 132.485 168.294,132.080 168.873,131.153 169.280 C 130.437 169.595,129.882 170.195,129.749 170.800 C 129.044 174.005,128.251 175.673,126.966 176.653 C 126.215 177.226,125.600 177.955,125.600 178.272 C 125.600 179.875,124.195 182.911,122.991 183.912 C 122.103 184.649,121.481 185.680,121.059 187.110 C 120.663 188.455,120.006 189.583,119.249 190.220 C 118.421 190.917,117.800 192.061,117.204 193.988 C 116.490 196.295,116.148 196.844,115.158 197.278 C 114.439 197.594,113.881 198.196,113.746 198.800 C 113.249 201.037,112.193 203.440,111.420 204.093 C 110.969 204.474,110.375 204.976,110.100 205.208 C 109.825 205.441,109.600 205.970,109.600 206.383 C 109.600 207.698,108.135 210.560,106.831 211.789 C 106.054 212.522,105.337 213.781,104.962 215.073 C 104.583 216.375,103.832 217.688,102.976 218.544 C 102.219 219.301,101.600 220.287,101.600 220.736 C 101.600 221.185,101.443 221.650,101.252 221.768 C 101.060 221.886,100.793 222.534,100.659 223.206 C 100.499 224.005,99.992 224.667,99.196 225.115 C 98.526 225.492,97.876 226.250,97.751 226.800 C 97.020 230.022,95.458 232.800,94.378 232.800 C 94.213 232.800,93.708 234.020,93.255 235.510 C 92.701 237.333,92.022 238.609,91.180 239.410 C 89.583 240.928,88.971 242.141,88.635 244.447 C 88.448 245.738,87.936 246.798,86.938 247.964 L 85.510 249.632 85.300 256.316 C 84.960 267.127,85.327 270.259,87.234 272.796 C 88.095 273.942,88.801 275.177,88.802 275.540 C 88.808 277.352,89.689 279.157,91.003 280.052 C 91.768 280.574,92.396 281.231,92.397 281.514 C 92.401 282.127,97.254 287.083,99.100 288.357 C 99.815 288.851,100.400 289.503,100.400 289.807 C 100.400 290.126,101.337 290.654,102.621 291.059 C 103.932 291.472,105.414 292.316,106.241 293.118 C 108.810 295.614,134.328 296.415,135.125 294.025 C 135.577 292.668,138.277 291.084,141.014 290.571 C 142.039 290.379,142.471 290.056,142.648 289.350 C 142.909 288.313,144.513 286.985,145.800 286.743 C 146.252 286.657,146.654 286.216,146.724 285.727 C 146.883 284.613,148.612 282.883,149.725 282.724 C 150.372 282.631,150.647 282.240,150.821 281.167 C 151.086 279.524,152.556 276.960,153.536 276.432 C 153.901 276.235,154.534 275.112,154.943 273.937 C 155.803 271.464,156.621 270.400,157.662 270.400 C 158.180 270.400,158.400 270.106,158.400 269.414 C 158.400 266.852,160.013 263.822,161.900 262.840 C 162.509 262.523,162.800 262.008,162.800 261.246 C 162.800 258.880,164.559 255.600,165.827 255.600 C 166.357 255.600,166.800 254.722,166.800 253.673 C 166.800 252.600,168.867 248.833,169.580 248.606 C 169.957 248.487,170.536 247.422,170.943 246.103 C 171.724 243.567,172.566 242.400,173.617 242.400 C 174.130 242.400,174.379 241.937,174.578 240.609 C 174.725 239.624,175.016 238.714,175.223 238.586 C 175.430 238.458,175.600 238.019,175.600 237.610 C 175.600 237.201,176.320 236.297,177.200 235.600 C 178.382 234.663,178.800 234.041,178.800 233.215 C 178.800 231.494,179.785 229.524,181.365 228.086 C 182.154 227.368,182.800 226.433,182.800 226.009 C 182.800 224.738,183.720 223.081,185.102 221.862 C 185.980 221.087,186.484 220.216,186.649 219.186 C 186.964 217.212,188.138 215.302,189.383 214.735 C 190.132 214.393,190.431 213.868,190.630 212.538 C 190.774 211.577,191.052 210.692,191.246 210.571 C 191.441 210.451,191.600 210.019,191.600 209.610 C 191.600 209.201,192.320 208.297,193.200 207.600 C 194.325 206.709,194.800 206.027,194.800 205.302 C 194.800 203.119,196.557 201.033,199.767 199.404 C 203.164 197.679,204.211 196.732,204.634 195.000 C 204.981 193.578,205.809 192.217,207.256 190.688 C 207.837 190.075,208.716 188.495,209.209 187.177 C 209.701 185.859,210.316 184.650,210.574 184.491 C 211.335 184.020,212.650 181.546,213.241 179.475 C 213.614 178.164,214.200 177.237,215.078 176.568 C 215.920 175.925,216.457 175.101,216.629 174.188 C 216.773 173.420,217.050 172.693,217.245 172.572 C 217.440 172.451,217.600 172.039,217.600 171.655 C 217.600 171.271,218.222 170.354,218.982 169.618 C 219.741 168.881,220.485 167.724,220.634 167.045 C 220.947 165.619,221.761 164.267,223.256 162.688 C 223.837 162.075,224.716 160.495,225.209 159.177 C 225.701 157.859,226.316 156.650,226.574 156.491 C 227.335 156.020,228.650 153.546,229.241 151.475 C 229.614 150.164,230.200 149.237,231.078 148.568 C 231.920 147.925,232.457 147.101,232.629 146.188 C 232.773 145.420,233.050 144.693,233.245 144.572 C 233.440 144.451,233.600 144.056,233.600 143.693 C 233.600 143.331,234.221 142.396,234.979 141.617 C 236.117 140.448,236.493 139.594,237.128 136.733 C 237.552 134.826,238.285 132.723,238.758 132.059 C 239.829 130.555,240.543 126.852,240.186 124.658 C 239.615 121.148,238.327 116.295,237.643 115.075 C 237.250 114.374,236.525 112.630,236.032 111.200 C 235.069 108.408,233.632 105.600,233.167 105.600 C 233.009 105.600,232.555 104.694,232.156 103.587 C 231.727 102.393,230.815 101.002,229.916 100.171 C 229.082 99.399,228.400 98.610,228.400 98.417 C 228.400 97.760,223.340 92.904,221.968 92.245 C 221.216 91.883,220.017 91.074,219.305 90.446 C 218.593 89.818,216.703 88.891,215.105 88.386 C 213.507 87.881,211.750 87.161,211.200 86.786 C 208.698 85.079,200.455 84.032,195.600 84.805 M206.000 87.090 C 207.396 88.090,208.682 88.548,211.736 89.132 C 214.981 89.753,215.851 90.079,216.695 90.989 C 217.774 92.153,220.516 93.576,221.706 93.591 C 222.115 93.596,222.694 94.190,223.081 95.001 C 223.524 95.930,224.198 96.565,225.081 96.884 C 226.119 97.259,226.502 97.692,226.811 98.839 C 227.199 100.282,228.601 101.600,229.748 101.600 C 230.132 101.600,230.415 102.237,230.595 103.500 C 230.964 106.096,231.991 108.089,233.279 108.706 C 234.155 109.126,234.398 109.572,234.590 111.111 C 234.720 112.150,235.115 114.322,235.468 115.937 C 236.675 121.453,235.375 138.400,233.745 138.400 C 233.150 138.400,231.600 140.496,231.600 141.300 C 231.600 142.206,230.380 144.461,229.023 146.065 C 228.341 146.871,227.453 148.449,227.049 149.572 C 226.645 150.696,226.016 151.836,225.650 152.107 C 224.597 152.889,223.707 154.510,223.005 156.924 C 222.595 158.335,222.090 159.244,221.639 159.388 C 220.859 159.635,218.930 163.252,218.542 165.192 C 218.409 165.856,218.065 166.400,217.777 166.400 C 217.158 166.400,215.600 168.475,215.600 169.300 C 215.600 170.206,214.380 172.461,213.023 174.065 C 212.341 174.871,211.453 176.449,211.049 177.572 C 210.645 178.696,210.016 179.836,209.650 180.107 C 208.597 180.889,207.707 182.510,207.005 184.924 C 206.595 186.335,206.090 187.244,205.639 187.388 C 204.859 187.635,202.930 191.252,202.542 193.192 C 202.371 194.046,202.069 194.400,201.510 194.400 C 201.076 194.400,200.101 194.694,199.344 195.054 C 197.704 195.831,197.303 195.486,196.135 192.295 C 195.752 191.247,194.755 189.562,193.919 188.551 C 193.084 187.540,192.400 186.460,192.400 186.151 C 192.400 185.435,191.649 184.121,190.498 182.822 C 190.002 182.262,189.110 180.813,188.517 179.602 C 187.923 178.391,186.862 176.590,186.160 175.600 C 185.457 174.610,184.688 173.080,184.451 172.200 C 183.963 170.389,183.045 168.932,181.734 167.887 C 181.228 167.483,180.529 166.128,180.124 164.764 C 179.700 163.335,178.797 161.613,177.905 160.534 C 177.077 159.532,176.400 158.460,176.400 158.151 C 176.400 157.430,175.645 156.113,174.489 154.820 C 173.988 154.259,173.049 152.718,172.403 151.396 C 171.756 150.074,170.763 148.364,170.196 147.596 C 169.629 146.828,168.619 145.044,167.951 143.632 C 167.283 142.219,166.331 140.509,165.835 139.832 C 164.897 138.549,163.600 134.352,163.600 132.599 C 163.600 132.041,163.221 130.194,162.759 128.493 C 161.635 124.361,161.898 118.834,163.288 117.391 C 164.128 116.517,165.530 112.063,165.578 110.114 C 165.590 109.623,165.997 109.016,166.492 108.751 C 168.286 107.791,169.114 106.347,169.559 103.405 C 169.732 102.260,170.017 101.769,170.572 101.662 C 171.614 101.462,172.456 100.562,173.241 98.808 C 173.717 97.744,174.254 97.243,175.211 96.968 C 176.134 96.704,176.757 96.145,177.302 95.096 C 177.876 93.990,178.332 93.600,179.053 93.600 C 180.197 93.600,181.654 92.758,183.600 90.974 C 184.786 89.886,185.582 89.586,188.800 89.010 C 191.604 88.509,192.964 88.052,193.988 87.265 C 196.888 85.040,203.014 84.951,206.000 87.090 " stroke="none" fill="#3ba33b" fill-rule="evenodd"></path><path id="path1" d="M191.800 83.877 C 189.043 84.511,188.078 84.867,187.383 85.506 C 186.952 85.902,185.700 86.552,184.600 86.951 C 181.181 88.190,180.026 88.804,179.591 89.617 C 179.360 90.048,178.247 90.869,177.118 91.442 C 174.997 92.516,170.400 96.799,170.400 97.700 C 170.400 97.981,170.003 98.388,169.519 98.605 C 169.034 98.822,168.108 100.080,167.462 101.400 C 166.815 102.720,165.957 104.031,165.555 104.314 C 165.153 104.597,164.533 105.497,164.178 106.314 C 163.823 107.131,163.368 108.113,163.166 108.495 C 162.965 108.877,162.800 109.448,162.800 109.764 C 162.800 110.080,162.377 110.847,161.860 111.469 C 161.343 112.091,160.326 113.860,159.600 115.400 C 158.874 116.940,157.857 118.709,157.340 119.331 C 156.823 119.953,156.400 120.646,156.400 120.873 C 156.400 121.555,154.490 125.136,153.639 126.050 C 153.201 126.521,152.526 127.785,152.139 128.860 C 151.753 129.936,150.948 131.315,150.351 131.925 C 149.755 132.536,148.696 134.287,148.000 135.817 C 147.303 137.348,146.320 139.050,145.815 139.600 C 145.310 140.150,144.589 141.320,144.213 142.200 C 143.192 144.587,142.365 146.107,141.600 147.000 C 140.852 147.875,140.051 149.335,138.974 151.790 C 138.591 152.665,138.022 153.635,137.710 153.947 C 137.398 154.259,136.497 155.838,135.708 157.457 C 134.918 159.076,134.116 160.400,133.925 160.400 C 133.734 160.400,132.885 161.885,132.037 163.700 C 131.190 165.515,130.025 167.436,129.448 167.970 C 128.872 168.503,128.400 169.107,128.400 169.312 C 128.400 170.000,126.375 173.794,125.684 174.400 C 124.975 175.022,123.600 177.701,123.600 178.460 C 123.600 178.698,122.998 179.727,122.261 180.746 C 120.777 182.802,119.600 185.051,119.600 185.833 C 119.600 186.114,118.947 187.031,118.148 187.872 C 117.307 188.757,116.303 190.479,115.760 191.966 C 115.245 193.377,114.352 195.024,113.775 195.626 C 113.199 196.227,112.317 197.593,111.815 198.660 C 111.313 199.727,110.438 201.131,109.871 201.779 C 109.303 202.428,108.436 204.034,107.944 205.349 C 107.453 206.664,106.476 208.331,105.774 209.054 C 105.072 209.777,104.251 211.205,103.949 212.229 C 103.647 213.252,102.826 214.760,102.124 215.580 C 101.423 216.400,100.375 218.253,99.796 219.698 C 99.218 221.144,98.379 222.657,97.931 223.062 C 97.484 223.467,96.621 224.878,96.014 226.199 C 95.407 227.520,94.438 229.137,93.861 229.794 C 93.284 230.451,92.499 231.862,92.115 232.929 C 91.731 233.997,90.854 235.529,90.165 236.335 C 89.477 237.141,88.324 239.145,87.604 240.788 C 86.883 242.431,85.962 244.231,85.556 244.788 C 82.488 248.994,82.278 270.959,85.270 274.710 C 85.561 275.075,86.070 275.696,86.400 276.090 C 86.730 276.483,87.450 277.866,88.000 279.163 C 89.213 282.023,92.518 285.977,96.892 289.800 C 99.249 291.860,99.885 292.310,100.857 292.606 C 101.668 292.853,104.190 294.500,104.800 295.181 C 105.207 295.636,107.866 296.369,110.000 296.616 C 112.289 296.880,113.599 297.189,117.056 298.285 C 119.505 299.060,124.481 298.658,129.800 297.254 C 131.560 296.789,133.300 296.407,133.667 296.405 C 134.594 296.398,138.115 294.870,138.600 294.264 C 138.820 293.989,139.881 293.354,140.957 292.853 C 142.707 292.039,143.693 291.249,147.535 287.584 C 148.121 287.026,148.854 286.185,149.164 285.717 C 149.475 285.249,150.143 284.645,150.648 284.374 C 151.154 284.104,151.931 283.109,152.375 282.164 C 152.819 281.218,153.693 279.924,154.316 279.286 C 155.432 278.144,156.800 275.696,156.800 274.841 C 156.800 274.600,157.390 273.727,158.111 272.901 C 159.416 271.406,159.863 270.609,160.825 268.060 C 161.103 267.323,161.917 266.017,162.635 265.159 C 163.352 264.300,164.158 262.932,164.427 262.119 C 164.695 261.306,165.682 259.520,166.619 258.151 C 167.556 256.782,168.440 255.130,168.582 254.480 C 168.725 253.830,169.465 252.601,170.226 251.749 C 170.987 250.897,171.980 249.210,172.432 248.000 C 172.884 246.790,173.753 245.260,174.363 244.600 C 175.395 243.483,176.799 240.915,176.801 240.140 C 176.801 239.953,177.349 239.170,178.017 238.400 C 179.242 236.987,180.101 235.412,180.618 233.629 C 180.772 233.095,181.313 232.212,181.819 231.666 C 182.887 230.515,184.261 227.890,184.633 226.291 C 184.775 225.681,185.191 224.961,185.557 224.691 C 186.819 223.760,188.024 221.858,188.467 220.099 C 188.729 219.058,189.611 217.516,190.617 216.337 C 191.555 215.238,192.430 213.767,192.562 213.069 C 192.693 212.371,193.348 211.170,194.016 210.400 C 194.685 209.630,195.508 208.370,195.845 207.600 C 197.480 203.872,197.570 203.770,200.019 202.889 L 202.387 202.037 203.363 203.318 C 203.899 204.023,204.466 205.140,204.624 205.800 C 204.781 206.460,205.693 208.066,206.649 209.368 C 207.606 210.670,208.496 212.306,208.627 213.004 C 208.758 213.701,209.615 215.078,210.532 216.063 C 211.567 217.175,212.382 218.540,212.681 219.660 C 212.945 220.653,213.871 222.325,214.739 223.375 C 215.607 224.426,216.415 225.773,216.534 226.370 C 216.653 226.966,217.487 228.432,218.387 229.627 C 219.287 230.822,220.233 232.496,220.489 233.346 C 220.745 234.197,221.417 235.367,221.983 235.946 C 223.407 237.404,224.160 238.707,224.746 240.723 C 225.021 241.671,225.553 242.753,225.928 243.128 C 227.129 244.329,228.237 246.147,228.966 248.111 C 229.356 249.162,230.288 250.672,231.037 251.467 C 231.787 252.262,232.400 253.212,232.400 253.579 C 232.400 253.945,233.278 255.495,234.351 257.023 C 235.423 258.550,236.419 260.347,236.564 261.015 C 236.708 261.683,237.585 263.046,238.513 264.042 C 239.565 265.173,240.381 266.534,240.681 267.660 C 240.945 268.653,241.890 270.348,242.781 271.426 C 243.671 272.503,244.400 273.631,244.400 273.932 C 244.400 274.914,245.718 277.368,247.063 278.890 C 247.787 279.709,248.492 280.827,248.629 281.374 C 248.766 281.921,249.671 283.017,250.639 283.811 C 251.608 284.604,252.400 285.472,252.400 285.738 C 252.400 286.249,253.792 287.600,254.319 287.600 C 254.490 287.600,255.472 288.396,256.502 289.369 C 257.532 290.342,258.786 291.253,259.288 291.392 C 261.161 291.914,263.420 292.999,264.031 293.669 C 267.086 297.027,290.796 296.773,294.931 293.339 C 295.553 292.823,296.246 292.400,296.473 292.400 C 297.294 292.400,300.640 290.500,301.818 289.364 C 303.313 287.923,305.281 286.400,305.649 286.400 C 305.800 286.400,306.388 285.607,306.956 284.639 C 307.524 283.670,308.699 282.138,309.567 281.234 C 310.909 279.838,312.800 276.065,312.800 274.785 C 312.800 274.573,312.952 274.400,313.137 274.400 C 313.322 274.400,313.799 273.725,314.196 272.900 C 314.593 272.075,315.082 271.070,315.283 270.667 C 316.976 267.269,315.746 247.412,313.708 245.223 C 313.271 244.755,312.341 242.908,311.641 241.119 C 310.940 239.329,310.046 237.581,309.654 237.233 C 308.847 236.517,307.600 234.152,307.600 233.339 C 307.600 233.042,307.420 232.800,307.200 232.800 C 306.980 232.800,306.800 232.543,306.800 232.229 C 306.800 231.915,306.365 231.316,305.834 230.899 C 304.812 230.094,303.600 227.619,303.600 226.336 C 303.600 225.914,302.882 224.822,302.004 223.908 C 301.126 222.994,300.106 221.426,299.738 220.423 C 299.158 218.845,297.556 216.218,296.796 215.600 C 296.661 215.490,296.154 214.410,295.669 213.199 C 295.184 211.988,294.295 210.451,293.694 209.782 C 292.291 208.222,291.770 207.283,291.419 205.687 C 291.264 204.979,290.971 204.400,290.768 204.400 C 290.566 204.400,290.400 204.145,290.400 203.833 C 290.400 203.522,290.258 203.207,290.083 203.133 C 289.401 202.846,287.674 200.134,287.426 198.962 C 287.281 198.280,286.466 196.998,285.614 196.111 C 284.282 194.724,283.210 192.442,283.202 190.975 C 283.201 190.741,282.653 190.026,281.985 189.385 C 280.739 188.192,279.600 186.274,279.600 185.369 C 279.600 185.090,278.982 184.051,278.226 183.062 C 276.595 180.925,275.600 179.083,275.600 178.200 C 275.600 177.848,274.952 176.894,274.160 176.080 C 272.511 174.385,271.819 173.171,271.404 171.243 C 271.243 170.497,270.581 169.368,269.932 168.733 C 268.721 167.550,267.224 164.704,267.209 163.556 C 267.204 163.202,266.599 162.275,265.865 161.496 C 264.628 160.185,263.200 157.740,263.200 156.935 C 263.200 156.746,262.611 155.909,261.890 155.076 C 261.170 154.242,260.171 152.504,259.670 151.213 C 259.151 149.874,258.343 148.593,257.788 148.229 C 256.635 147.474,255.771 145.918,255.397 143.925 C 255.243 143.101,254.613 141.988,253.935 141.339 C 253.280 140.713,252.508 139.660,252.219 139.000 C 250.445 134.951,250.004 134.101,249.427 133.622 C 249.074 133.329,248.502 132.440,248.157 131.645 C 247.123 129.267,246.296 127.835,245.590 127.200 C 244.955 126.628,244.628 125.986,242.994 122.100 C 242.600 121.165,242.170 120.400,242.037 120.400 C 241.766 120.400,241.280 119.224,240.236 116.044 C 239.846 114.859,239.172 113.509,238.737 113.044 C 237.769 112.010,236.952 110.256,236.579 108.413 C 236.235 106.715,235.777 105.868,234.100 103.833 C 233.385 102.966,232.800 102.001,232.800 101.690 C 232.800 100.874,231.299 98.885,230.489 98.628 C 230.110 98.508,229.541 97.825,229.224 97.110 C 228.436 95.330,224.969 92.056,222.876 91.116 C 221.928 90.690,221.057 90.093,220.941 89.789 C 220.640 89.007,218.577 87.878,215.954 87.060 C 214.718 86.674,213.341 86.018,212.893 85.601 C 211.108 83.937,196.669 82.757,191.800 83.877 M208.000 85.473 C 209.210 85.820,210.650 86.411,211.200 86.786 C 211.750 87.161,213.507 87.881,215.105 88.386 C 216.703 88.891,218.593 89.818,219.305 90.446 C 220.017 91.074,221.216 91.883,221.968 92.245 C 223.340 92.904,228.400 97.760,228.400 98.417 C 228.400 98.610,229.082 99.399,229.916 100.171 C 230.815 101.002,231.727 102.393,232.156 103.587 C 232.555 104.694,233.009 105.600,233.167 105.600 C 233.632 105.600,235.069 108.408,236.032 111.200 C 236.525 112.630,237.250 114.374,237.643 115.075 C 238.327 116.295,239.615 121.148,240.186 124.658 C 240.543 126.852,239.829 130.555,238.758 132.059 C 238.285 132.723,237.552 134.826,237.128 136.733 C 236.493 139.594,236.117 140.448,234.979 141.617 C 234.221 142.396,233.600 143.331,233.600 143.693 C 233.600 144.056,233.440 144.451,233.245 144.572 C 233.050 144.693,232.773 145.420,232.629 146.188 C 232.457 147.101,231.920 147.925,231.078 148.568 C 230.200 149.237,229.614 150.164,229.241 151.475 C 228.650 153.546,227.335 156.020,226.574 156.491 C 226.316 156.650,225.701 157.859,225.209 159.177 C 224.716 160.495,223.837 162.075,223.256 162.688 C 221.761 164.267,220.947 165.619,220.634 167.045 C 220.485 167.724,219.741 168.881,218.982 169.618 C 218.222 170.354,217.600 171.271,217.600 171.655 C 217.600 172.039,217.440 172.451,217.245 172.572 C 217.050 172.693,216.773 173.420,216.629 174.188 C 216.457 175.101,215.920 175.925,215.078 176.568 C 214.200 177.237,213.614 178.164,213.241 179.475 C 212.650 181.546,211.335 184.020,210.574 184.491 C 210.316 184.650,209.701 185.859,209.209 187.177 C 208.716 188.495,207.837 190.075,207.256 190.688 C 205.809 192.217,204.981 193.578,204.634 195.000 C 204.211 196.732,203.164 197.679,199.767 199.404 C 196.557 201.033,194.800 203.119,194.800 205.302 C 194.800 206.027,194.325 206.709,193.200 207.600 C 192.320 208.297,191.600 209.201,191.600 209.610 C 191.600 210.019,191.441 210.451,191.246 210.571 C 191.052 210.692,190.774 211.577,190.630 212.538 C 190.431 213.868,190.132 214.393,189.383 214.735 C 188.138 215.302,186.964 217.212,186.649 219.186 C 186.484 220.216,185.980 221.087,185.102 221.862 C 183.720 223.081,182.800 224.738,182.800 226.009 C 182.800 226.433,182.154 227.368,181.365 228.086 C 179.785 229.524,178.800 231.494,178.800 233.215 C 178.800 234.041,178.382 234.663,177.200 235.600 C 176.320 236.297,175.600 237.201,175.600 237.610 C 175.600 238.019,175.430 238.458,175.223 238.586 C 175.016 238.714,174.725 239.624,174.578 240.609 C 174.379 241.937,174.130 242.400,173.617 242.400 C 172.566 242.400,171.724 243.567,170.943 246.103 C 170.536 247.422,169.957 248.487,169.580 248.606 C 168.867 248.833,166.800 252.600,166.800 253.673 C 166.800 254.722,166.357 255.600,165.827 255.600 C 164.559 255.600,162.800 258.880,162.800 261.246 C 162.800 262.008,162.509 262.523,161.900 262.840 C 160.013 263.822,158.400 266.852,158.400 269.414 C 158.400 270.106,158.180 270.400,157.662 270.400 C 156.621 270.400,155.803 271.464,154.943 273.937 C 154.534 275.112,153.901 276.235,153.536 276.432 C 152.556 276.960,151.086 279.524,150.821 281.167 C 150.647 282.240,150.372 282.631,149.725 282.724 C 148.612 282.883,146.883 284.613,146.724 285.727 C 146.654 286.216,146.252 286.657,145.800 286.743 C 144.513 286.985,142.909 288.313,142.648 289.350 C 142.471 290.056,142.039 290.379,141.014 290.571 C 138.277 291.084,135.577 292.668,135.125 294.025 C 134.328 296.415,108.810 295.614,106.241 293.118 C 105.414 292.316,103.932 291.472,102.621 291.059 C 101.337 290.654,100.400 290.126,100.400 289.807 C 100.400 289.503,99.815 288.851,99.100 288.357 C 97.254 287.083,92.401 282.127,92.397 281.514 C 92.396 281.231,91.768 280.574,91.003 280.052 C 89.689 279.157,88.808 277.352,88.802 275.540 C 88.801 275.177,88.095 273.942,87.234 272.796 C 85.327 270.259,84.960 267.127,85.300 256.316 L 85.510 249.632 86.938 247.964 C 87.936 246.798,88.448 245.738,88.635 244.447 C 88.971 242.141,89.583 240.928,91.180 239.410 C 92.022 238.609,92.701 237.333,93.255 235.510 C 93.708 234.020,94.213 232.800,94.378 232.800 C 95.458 232.800,97.020 230.022,97.751 226.800 C 97.876 226.250,98.526 225.492,99.196 225.115 C 99.992 224.667,100.499 224.005,100.659 223.206 C 100.793 222.534,101.060 221.886,101.252 221.768 C 101.443 221.650,101.600 221.185,101.600 220.736 C 101.600 220.287,102.219 219.301,102.976 218.544 C 103.832 217.688,104.583 216.375,104.962 215.073 C 105.337 213.781,106.054 212.522,106.831 211.789 C 108.135 210.560,109.600 207.698,109.600 206.383 C 109.600 205.970,109.825 205.441,110.100 205.208 C 110.375 204.976,110.969 204.474,111.420 204.093 C 112.193 203.440,113.249 201.037,113.746 198.800 C 113.881 198.196,114.439 197.594,115.158 197.278 C 116.148 196.844,116.490 196.295,117.204 193.988 C 117.800 192.061,118.421 190.917,119.249 190.220 C 120.006 189.583,120.663 188.455,121.059 187.110 C 121.481 185.680,122.103 184.649,122.991 183.912 C 124.195 182.911,125.600 179.875,125.600 178.272 C 125.600 177.955,126.215 177.226,126.966 176.653 C 128.251 175.673,129.044 174.005,129.749 170.800 C 129.882 170.195,130.437 169.595,131.153 169.280 C 132.080 168.873,132.485 168.294,133.012 166.617 C 133.417 165.330,134.216 163.960,135.012 163.189 C 135.949 162.281,136.539 161.158,137.026 159.361 C 137.470 157.720,137.959 156.740,138.404 156.599 C 139.652 156.203,140.474 154.884,141.191 152.128 C 141.768 149.911,142.109 149.295,143.049 148.782 C 143.964 148.281,144.399 147.535,145.170 145.143 C 145.903 142.868,146.400 141.985,147.206 141.523 C 147.936 141.104,148.494 140.232,148.976 138.756 C 149.372 137.548,150.329 135.898,151.155 135.001 C 152.048 134.032,152.914 132.492,153.352 131.100 C 153.749 129.835,154.210 128.800,154.376 128.800 C 155.100 128.800,156.420 127.202,156.651 126.045 C 156.790 125.351,157.060 124.686,157.252 124.568 C 157.443 124.450,157.600 123.855,157.600 123.246 C 157.600 122.593,157.996 121.767,158.568 121.230 C 159.100 120.730,159.759 119.754,160.031 119.060 C 161.105 116.328,162.133 114.154,162.803 113.200 C 163.189 112.650,163.794 111.347,164.146 110.305 C 164.943 107.948,165.460 107.024,167.079 105.059 C 167.782 104.205,168.466 103.009,168.600 102.401 C 168.904 101.016,176.515 93.171,178.246 92.460 C 178.931 92.178,180.251 91.240,181.179 90.374 C 182.107 89.508,183.101 88.800,183.388 88.800 C 184.413 88.800,188.221 87.441,189.331 86.679 C 192.469 84.523,202.434 83.879,208.000 85.473 " stroke="none" fill="#236923" fill-rule="evenodd"></path><path id="path2" d="M196.188 85.922 C 195.742 86.075,194.752 86.679,193.988 87.265 C 192.964 88.052,191.604 88.509,188.800 89.010 C 185.582 89.586,184.786 89.886,183.600 90.974 C 181.654 92.758,180.197 93.600,179.053 93.600 C 178.332 93.600,177.876 93.990,177.302 95.096 C 176.757 96.145,176.134 96.704,175.211 96.968 C 174.254 97.243,173.717 97.744,173.241 98.808 C 172.456 100.562,171.614 101.462,170.572 101.662 C 170.017 101.769,169.732 102.260,169.559 103.405 C 169.114 106.347,168.286 107.791,166.492 108.751 C 165.997 109.016,165.590 109.623,165.578 110.114 C 165.530 112.063,164.128 116.517,163.288 117.391 C 161.898 118.834,161.635 124.361,162.759 128.493 C 163.221 130.194,163.600 132.041,163.600 132.599 C 163.600 134.352,164.897 138.549,165.835 139.832 C 166.331 140.509,167.283 142.219,167.951 143.632 C 168.619 145.044,169.629 146.828,170.196 147.596 C 170.763 148.364,171.756 150.074,172.403 151.396 C 173.049 152.718,173.988 154.259,174.489 154.820 C 175.645 156.113,176.400 157.430,176.400 158.151 C 176.400 158.460,177.077 159.532,177.905 160.534 C 178.797 161.613,179.700 163.335,180.124 164.764 C 180.529 166.128,181.228 167.483,181.734 167.887 C 183.045 168.932,183.963 170.389,184.451 172.200 C 184.688 173.080,185.457 174.610,186.160 175.600 C 186.862 176.590,187.923 178.391,188.517 179.602 C 189.110 180.813,190.002 182.262,190.498 182.822 C 191.649 184.121,192.400 185.435,192.400 186.151 C 192.400 186.460,193.084 187.540,193.919 188.551 C 194.755 189.562,195.752 191.247,196.135 192.295 C 197.303 195.486,197.704 195.831,199.344 195.054 C 200.101 194.694,201.076 194.400,201.510 194.400 C 202.069 194.400,202.371 194.046,202.542 193.192 C 202.930 191.252,204.859 187.635,205.639 187.388 C 206.090 187.244,206.595 186.335,207.005 184.924 C 207.707 182.510,208.597 180.889,209.650 180.107 C 210.016 179.836,210.645 178.696,211.049 177.572 C 211.453 176.449,212.341 174.871,213.023 174.065 C 214.380 172.461,215.600 170.206,215.600 169.300 C 215.600 168.475,217.158 166.400,217.777 166.400 C 218.065 166.400,218.409 165.856,218.542 165.192 C 218.930 163.252,220.859 159.635,221.639 159.388 C 222.090 159.244,222.595 158.335,223.005 156.924 C 223.707 154.510,224.597 152.889,225.650 152.107 C 226.016 151.836,226.645 150.696,227.049 149.572 C 227.453 148.449,228.341 146.871,229.023 146.065 C 230.380 144.461,231.600 142.206,231.600 141.300 C 231.600 140.496,233.150 138.400,233.745 138.400 C 235.375 138.400,236.675 121.453,235.468 115.937 C 235.115 114.322,234.720 112.150,234.590 111.111 C 234.398 109.572,234.155 109.126,233.279 108.706 C 231.991 108.089,230.964 106.096,230.595 103.500 C 230.415 102.237,230.132 101.600,229.748 101.600 C 228.601 101.600,227.199 100.282,226.811 98.839 C 226.502 97.692,226.119 97.259,225.081 96.884 C 224.198 96.565,223.524 95.930,223.081 95.001 C 222.694 94.190,222.115 93.596,221.706 93.591 C 220.516 93.576,217.774 92.153,216.695 90.989 C 215.851 90.079,214.981 89.753,211.736 89.132 C 208.682 88.548,207.396 88.090,206.000 87.090 C 204.154 85.767,198.577 85.103,196.188 85.922 " stroke="none" fill="#4bd94b" fill-rule="evenodd"></path><path id="path3" d="M190.000 82.752 C 186.748 83.107,184.538 84.060,183.944 85.363 C 183.584 86.153,183.092 86.423,181.643 86.624 C 180.147 86.831,179.488 87.211,178.143 88.640 C 177.232 89.608,176.293 90.400,176.057 90.400 C 174.492 90.400,172.088 92.074,171.200 93.783 C 170.870 94.418,170.060 95.234,169.400 95.597 C 167.996 96.368,166.410 99.258,166.404 101.055 C 166.400 102.165,166.242 102.341,165.044 102.565 C 163.584 102.839,163.064 103.672,162.566 106.532 C 162.419 107.374,162.045 108.161,161.736 108.280 C 160.863 108.615,158.801 111.835,158.795 112.872 C 158.786 114.362,158.345 115.600,157.823 115.600 C 156.661 115.600,154.970 118.391,154.588 120.941 C 154.380 122.330,154.134 122.800,153.617 122.800 C 152.240 122.800,150.400 126.441,150.400 129.164 C 150.400 130.101,150.194 130.341,149.226 130.535 C 147.980 130.784,147.107 132.174,146.592 134.727 C 146.445 135.457,146.065 136.154,145.748 136.275 C 144.866 136.614,142.801 139.827,142.795 140.872 C 142.786 142.362,142.345 143.600,141.823 143.600 C 140.660 143.600,138.876 146.537,138.537 149.009 C 138.355 150.336,138.114 150.800,137.608 150.800 C 136.240 150.800,134.400 154.450,134.400 157.164 C 134.400 158.101,134.194 158.341,133.226 158.535 C 131.984 158.783,131.106 160.174,130.597 162.703 C 130.453 163.420,130.022 164.174,129.638 164.379 C 128.495 164.991,126.800 167.757,126.794 169.022 C 126.787 170.421,126.553 170.794,125.108 171.713 C 123.735 172.587,122.958 174.074,122.589 176.534 C 122.362 178.050,122.099 178.534,121.350 178.819 C 119.970 179.344,118.857 181.445,118.558 184.090 C 118.341 186.010,118.167 186.400,117.529 186.400 C 116.318 186.400,114.915 188.236,114.619 190.210 C 114.456 191.303,114.077 192.145,113.647 192.375 C 112.439 193.021,110.800 195.762,110.800 197.135 C 110.800 198.190,110.541 198.580,109.385 199.262 C 107.677 200.269,106.986 201.522,106.612 204.284 C 106.388 205.934,106.149 206.425,105.465 206.641 C 103.906 207.133,102.411 209.723,102.402 211.946 C 102.401 212.246,101.794 213.056,101.054 213.746 C 99.471 215.221,99.002 216.066,98.634 218.103 C 98.470 219.014,98.006 219.840,97.457 220.199 C 96.208 221.018,94.800 223.651,94.800 225.168 C 94.800 226.185,94.528 226.587,93.385 227.262 C 91.675 228.271,90.835 229.785,90.523 232.422 C 90.340 233.968,90.132 234.400,89.573 234.400 C 88.584 234.400,87.262 236.201,86.745 238.251 C 86.496 239.243,85.937 240.212,85.417 240.552 C 83.890 241.552,83.087 243.890,82.737 248.348 C 82.467 251.779,82.269 252.619,81.593 253.206 C 79.652 254.889,79.674 265.566,81.621 266.930 C 82.211 267.343,82.422 268.168,82.617 270.827 C 82.961 275.515,83.645 277.180,85.466 277.757 C 86.094 277.957,86.355 278.477,86.546 279.910 C 86.884 282.439,87.930 284.297,89.280 284.768 C 90.033 285.030,90.593 285.665,91.025 286.747 C 91.495 287.921,92.030 288.486,93.062 288.898 C 93.944 289.250,94.783 290.020,95.331 290.982 C 95.947 292.065,96.698 292.702,97.913 293.172 C 98.855 293.537,100.095 294.342,100.670 294.962 C 102.026 296.424,103.714 297.106,107.212 297.602 C 109.373 297.908,110.405 298.286,111.526 299.180 C 114.894 301.865,128.640 301.759,131.454 299.027 C 132.661 297.855,133.220 297.600,134.589 297.600 C 137.584 297.600,140.240 296.553,141.204 294.993 C 141.839 293.966,142.345 293.600,143.132 293.600 C 143.873 293.600,144.770 293.021,146.077 291.700 C 147.111 290.655,148.348 289.417,148.826 288.948 C 149.304 288.479,150.259 287.519,150.948 286.814 C 151.637 286.108,152.515 285.245,152.900 284.896 C 153.285 284.546,153.600 283.769,153.600 283.169 C 153.600 282.319,153.922 281.911,155.057 281.322 C 156.197 280.731,156.644 280.162,157.106 278.713 C 157.431 277.694,158.368 276.141,159.188 275.262 C 160.120 274.262,160.865 272.940,161.178 271.732 C 161.453 270.669,161.747 269.571,161.830 269.291 C 161.914 269.011,162.301 268.661,162.691 268.513 C 164.088 267.984,165.600 265.233,165.600 263.219 C 165.600 262.341,165.921 261.867,166.945 261.234 C 168.338 260.373,169.281 258.462,169.788 255.471 C 169.994 254.257,170.283 253.860,171.191 253.543 C 172.269 253.167,173.600 250.919,173.600 249.474 C 173.600 249.194,174.292 248.222,175.138 247.315 C 176.182 246.196,176.888 244.912,177.334 243.322 C 177.875 241.394,178.193 240.902,179.130 240.549 C 180.327 240.097,181.600 237.246,181.600 235.018 C 181.600 234.237,181.933 233.828,182.974 233.332 C 184.391 232.656,185.146 231.089,185.767 227.535 C 185.969 226.382,186.272 225.983,187.195 225.662 C 188.359 225.256,189.600 223.167,189.600 221.613 C 189.600 221.233,190.226 220.278,190.992 219.489 C 192.312 218.130,193.265 216.232,193.750 213.994 C 193.888 213.358,194.396 212.826,195.129 212.549 C 196.287 212.112,197.374 209.671,197.690 206.800 C 197.871 205.153,202.268 205.046,202.607 206.680 C 203.321 210.120,204.283 211.964,205.632 212.481 C 205.980 212.614,206.661 213.809,207.145 215.136 C 207.662 216.554,208.503 217.952,209.185 218.526 C 209.848 219.084,210.457 220.081,210.606 220.851 C 211.027 223.030,212.125 224.953,213.257 225.496 C 214.004 225.854,214.392 226.430,214.587 227.472 C 215.016 229.760,216.427 232.430,217.455 232.898 C 218.077 233.181,218.476 233.800,218.654 234.761 C 218.953 236.366,220.555 239.136,221.625 239.896 C 222.009 240.168,222.641 241.403,223.030 242.640 C 223.419 243.877,224.292 245.476,224.969 246.195 C 225.646 246.913,226.560 248.557,226.999 249.849 C 227.811 252.238,228.531 253.258,229.731 253.718 C 230.099 253.859,230.400 254.249,230.400 254.583 C 230.400 256.081,232.539 260.472,233.433 260.813 C 234.074 261.056,234.441 261.613,234.632 262.631 C 234.810 263.578,235.525 264.743,236.648 265.914 C 237.606 266.915,238.496 268.286,238.628 268.965 C 239.031 271.044,240.149 272.965,241.267 273.501 C 242.071 273.886,242.400 274.416,242.611 275.665 C 243.039 278.197,243.795 279.679,245.366 281.066 C 246.155 281.762,246.800 282.608,246.800 282.945 C 246.800 283.753,248.374 285.418,249.460 285.759 C 249.937 285.908,250.439 286.502,250.587 287.090 C 250.881 288.260,251.680 289.036,253.200 289.625 C 253.750 289.838,254.486 290.514,254.836 291.127 C 255.248 291.848,256.167 292.501,257.436 292.972 C 258.516 293.374,260.031 294.303,260.803 295.038 C 262.019 296.195,262.763 296.483,266.374 297.195 C 268.666 297.647,271.326 298.283,272.285 298.608 C 275.095 299.562,285.994 299.446,287.142 298.450 C 287.712 297.956,289.383 297.485,292.032 297.072 C 295.607 296.514,296.176 296.311,297.128 295.246 C 297.771 294.527,299.160 293.721,300.600 293.229 C 301.920 292.778,303.360 291.975,303.800 291.444 C 304.240 290.913,304.870 290.141,305.200 289.727 C 305.530 289.314,306.298 288.759,306.906 288.494 C 307.514 288.229,308.229 287.514,308.494 286.906 C 308.760 286.298,309.731 285.080,310.652 284.200 C 312.215 282.706,313.157 281.112,313.808 278.859 C 313.958 278.341,314.614 277.441,315.265 276.858 C 316.346 275.892,316.516 275.373,317.194 270.946 C 317.602 268.277,318.221 265.256,318.568 264.232 C 319.534 261.388,319.447 254.314,318.428 252.884 C 317.925 252.178,317.444 250.315,317.048 247.544 C 316.486 243.612,316.331 243.170,315.022 241.744 C 314.242 240.895,313.603 239.896,313.602 239.524 C 313.601 239.152,313.440 238.749,313.245 238.628 C 313.050 238.507,312.779 237.816,312.644 237.091 C 312.508 236.367,312.015 235.510,311.549 235.187 C 310.089 234.176,309.600 233.569,309.600 232.769 C 309.600 231.535,307.745 228.029,306.625 227.148 C 306.061 226.705,305.600 225.988,305.600 225.555 C 305.600 224.350,304.152 221.778,302.597 220.224 C 301.829 219.455,301.200 218.469,301.200 218.032 C 301.200 216.882,300.379 215.254,299.034 213.734 C 298.388 213.004,297.640 211.770,297.372 210.991 C 296.710 209.063,295.168 206.885,294.308 206.660 C 293.918 206.558,293.600 206.119,293.600 205.683 C 293.600 203.715,292.312 200.955,290.960 200.029 C 290.205 199.511,289.483 198.618,289.356 198.044 C 288.875 195.867,288.694 195.520,287.187 193.887 C 286.150 192.765,285.552 191.680,285.376 190.605 C 285.086 188.827,283.477 186.400,282.587 186.400 C 282.273 186.400,281.907 185.905,281.774 185.300 C 281.124 182.330,280.120 180.212,278.900 179.238 C 278.185 178.667,277.600 177.867,277.600 177.460 C 277.600 176.255,276.359 173.999,274.935 172.616 C 274.180 171.882,273.493 170.735,273.346 169.962 C 273.007 168.175,272.520 167.266,271.087 165.743 C 270.437 165.051,269.552 163.440,269.120 162.162 C 268.689 160.884,267.945 159.518,267.468 159.126 C 266.991 158.735,266.375 158.224,266.100 157.992 C 265.825 157.759,265.599 157.171,265.598 156.684 C 265.596 155.424,263.819 152.087,262.667 151.181 C 262.131 150.759,261.580 149.826,261.443 149.107 C 261.290 148.303,260.515 147.132,259.426 146.064 C 258.107 144.769,257.589 143.905,257.386 142.664 C 257.087 140.836,255.488 138.400,254.587 138.400 C 254.273 138.400,253.901 137.905,253.761 137.300 C 252.982 133.935,252.210 132.282,250.945 131.273 C 250.205 130.683,249.600 129.900,249.600 129.533 C 249.600 128.218,247.930 124.983,246.785 124.078 C 246.042 123.491,245.401 122.424,245.019 121.140 C 244.690 120.031,243.869 118.560,243.195 117.870 C 242.521 117.181,241.870 116.163,241.749 115.608 C 240.984 112.104,240.347 110.852,239.202 110.600 C 238.144 110.368,238.029 110.164,237.774 108.074 C 237.350 104.591,236.511 102.802,235.176 102.535 C 234.232 102.346,234.012 102.054,233.780 100.679 C 233.628 99.781,233.255 98.798,232.952 98.495 C 232.648 98.191,232.399 97.731,232.397 97.471 C 232.396 97.212,231.770 96.575,231.006 96.055 C 230.243 95.535,229.316 94.425,228.947 93.589 C 228.432 92.421,227.786 91.829,226.156 91.031 C 224.990 90.460,223.893 89.760,223.718 89.474 C 222.999 88.302,220.487 86.880,218.677 86.620 C 217.422 86.440,216.666 86.110,216.501 85.672 C 216.177 84.805,215.342 84.140,213.600 83.359 C 212.032 82.657,194.909 82.216,190.000 82.752 M209.682 84.221 C 211.000 84.563,212.445 85.184,212.893 85.601 C 213.341 86.018,214.718 86.674,215.954 87.060 C 218.577 87.878,220.640 89.007,220.941 89.789 C 221.057 90.093,221.928 90.690,222.876 91.116 C 224.969 92.056,228.436 95.330,229.224 97.110 C 229.541 97.825,230.110 98.508,230.489 98.628 C 231.299 98.885,232.800 100.874,232.800 101.690 C 232.800 102.001,233.385 102.966,234.100 103.833 C 235.777 105.868,236.235 106.715,236.579 108.413 C 236.952 110.256,237.769 112.010,238.737 113.044 C 239.172 113.509,239.846 114.859,240.236 116.044 C 241.280 119.224,241.766 120.400,242.037 120.400 C 242.170 120.400,242.600 121.165,242.994 122.100 C 244.628 125.986,244.955 126.628,245.590 127.200 C 246.296 127.835,247.123 129.267,248.157 131.645 C 248.502 132.440,249.074 133.329,249.427 133.622 C 250.004 134.101,250.445 134.951,252.219 139.000 C 252.508 139.660,253.280 140.713,253.935 141.339 C 254.613 141.988,255.243 143.101,255.397 143.925 C 255.771 145.918,256.635 147.474,257.788 148.229 C 258.343 148.593,259.151 149.874,259.670 151.213 C 260.171 152.504,261.170 154.242,261.890 155.076 C 262.611 155.909,263.200 156.746,263.200 156.935 C 263.200 157.740,264.628 160.185,265.865 161.496 C 266.599 162.275,267.204 163.202,267.209 163.556 C 267.224 164.704,268.721 167.550,269.932 168.733 C 270.581 169.368,271.243 170.497,271.404 171.243 C 271.819 173.171,272.511 174.385,274.160 176.080 C 274.952 176.894,275.600 177.848,275.600 178.200 C 275.600 179.083,276.595 180.925,278.226 183.062 C 278.982 184.051,279.600 185.090,279.600 185.369 C 279.600 186.274,280.739 188.192,281.985 189.385 C 282.653 190.026,283.201 190.741,283.202 190.975 C 283.210 192.442,284.282 194.724,285.614 196.111 C 286.466 196.998,287.281 198.280,287.426 198.962 C 287.674 200.134,289.401 202.846,290.083 203.133 C 290.258 203.207,290.400 203.522,290.400 203.833 C 290.400 204.145,290.566 204.400,290.768 204.400 C 290.971 204.400,291.264 204.979,291.419 205.687 C 291.770 207.283,292.291 208.222,293.694 209.782 C 294.295 210.451,295.184 211.988,295.669 213.199 C 296.154 214.410,296.661 215.490,296.796 215.600 C 297.556 216.218,299.158 218.845,299.738 220.423 C 300.106 221.426,301.126 222.994,302.004 223.908 C 302.882 224.822,303.600 225.914,303.600 226.336 C 303.600 227.619,304.812 230.094,305.834 230.899 C 306.365 231.316,306.800 231.915,306.800 232.229 C 306.800 232.543,306.980 232.800,307.200 232.800 C 307.420 232.800,307.600 233.042,307.600 233.339 C 307.600 234.152,308.847 236.517,309.654 237.233 C 310.046 237.581,310.940 239.329,311.641 241.119 C 312.341 242.908,313.271 244.755,313.708 245.223 C 315.746 247.412,316.976 267.269,315.283 270.667 C 315.082 271.070,314.593 272.075,314.196 272.900 C 313.799 273.725,313.322 274.400,313.137 274.400 C 312.952 274.400,312.800 274.573,312.800 274.785 C 312.800 276.065,310.909 279.838,309.567 281.234 C 308.699 282.138,307.524 283.670,306.956 284.639 C 306.388 285.607,305.800 286.400,305.649 286.400 C 305.281 286.400,303.313 287.923,301.818 289.364 C 300.640 290.500,297.294 292.400,296.473 292.400 C 296.246 292.400,295.553 292.823,294.931 293.339 C 290.796 296.773,267.086 297.027,264.031 293.669 C 263.420 292.999,261.161 291.914,259.288 291.392 C 258.786 291.253,257.532 290.342,256.502 289.369 C 255.472 288.396,254.490 287.600,254.319 287.600 C 253.792 287.600,252.400 286.249,252.400 285.738 C 252.400 285.472,251.608 284.604,250.639 283.811 C 249.671 283.017,248.766 281.921,248.629 281.374 C 248.492 280.827,247.787 279.709,247.063 278.890 C 245.718 277.368,244.400 274.914,244.400 273.932 C 244.400 273.631,243.671 272.503,242.781 271.426 C 241.890 270.348,240.945 268.653,240.681 267.660 C 240.381 266.534,239.565 265.173,238.513 264.042 C 237.585 263.046,236.708 261.683,236.564 261.015 C 236.419 260.347,235.423 258.550,234.351 257.023 C 233.278 255.495,232.400 253.945,232.400 253.579 C 232.400 253.212,231.787 252.262,231.037 251.467 C 230.288 250.672,229.356 249.162,228.966 248.111 C 228.237 246.147,227.129 244.329,225.928 243.128 C 225.553 242.753,225.021 241.671,224.746 240.723 C 224.160 238.707,223.407 237.404,221.983 235.946 C 221.417 235.367,220.745 234.197,220.489 233.346 C 220.233 232.496,219.287 230.822,218.387 229.627 C 217.487 228.432,216.653 226.966,216.534 226.370 C 216.415 225.773,215.607 224.426,214.739 223.375 C 213.871 222.325,212.945 220.653,212.681 219.660 C 212.382 218.540,211.567 217.175,210.532 216.063 C 209.615 215.078,208.758 213.701,208.627 213.004 C 208.496 212.306,207.606 210.670,206.649 209.368 C 205.693 208.066,204.781 206.460,204.624 205.800 C 204.466 205.140,203.899 204.023,203.363 203.318 L 202.387 202.037 200.019 202.889 C 197.570 203.770,197.480 203.872,195.845 207.600 C 195.508 208.370,194.685 209.630,194.016 210.400 C 193.348 211.170,192.693 212.371,192.562 213.069 C 192.430 213.767,191.555 215.238,190.617 216.337 C 189.611 217.516,188.729 219.058,188.467 220.099 C 188.024 221.858,186.819 223.760,185.557 224.691 C 185.191 224.961,184.775 225.681,184.633 226.291 C 184.261 227.890,182.887 230.515,181.819 231.666 C 181.313 232.212,180.772 233.095,180.618 233.629 C 180.101 235.412,179.242 236.987,178.017 238.400 C 177.349 239.170,176.801 239.953,176.801 240.140 C 176.799 240.915,175.395 243.483,174.363 244.600 C 173.753 245.260,172.884 246.790,172.432 248.000 C 171.980 249.210,170.987 250.897,170.226 251.749 C 169.465 252.601,168.725 253.830,168.582 254.480 C 168.440 255.130,167.556 256.782,166.619 258.151 C 165.682 259.520,164.695 261.306,164.427 262.119 C 164.158 262.932,163.352 264.300,162.635 265.159 C 161.917 266.017,161.103 267.323,160.825 268.060 C 159.863 270.609,159.416 271.406,158.111 272.901 C 157.390 273.727,156.800 274.600,156.800 274.841 C 156.800 275.696,155.432 278.144,154.316 279.286 C 153.693 279.924,152.819 281.218,152.375 282.164 C 151.931 283.109,151.154 284.104,150.648 284.374 C 150.143 284.645,149.475 285.249,149.164 285.717 C 148.854 286.185,148.121 287.026,147.535 287.584 C 143.693 291.249,142.707 292.039,140.957 292.853 C 139.881 293.354,138.820 293.989,138.600 294.264 C 138.115 294.870,134.594 296.398,133.667 296.405 C 133.300 296.407,131.560 296.789,129.800 297.254 C 124.481 298.658,119.505 299.060,117.056 298.285 C 113.599 297.189,112.289 296.880,110.000 296.616 C 107.866 296.369,105.207 295.636,104.800 295.181 C 104.190 294.500,101.668 292.853,100.857 292.606 C 99.885 292.310,99.249 291.860,96.892 289.800 C 92.518 285.977,89.213 282.023,88.000 279.163 C 87.450 277.866,86.730 276.483,86.400 276.090 C 86.070 275.696,85.561 275.075,85.270 274.710 C 82.278 270.959,82.488 248.994,85.556 244.788 C 85.962 244.231,86.883 242.431,87.604 240.788 C 88.324 239.145,89.477 237.141,90.165 236.335 C 90.854 235.529,91.731 233.997,92.115 232.929 C 92.499 231.862,93.284 230.451,93.861 229.794 C 94.438 229.137,95.407 227.520,96.014 226.199 C 96.621 224.878,97.484 223.467,97.931 223.062 C 98.379 222.657,99.218 221.144,99.796 219.698 C 100.375 218.253,101.423 216.400,102.124 215.580 C 102.826 214.760,103.647 213.252,103.949 212.229 C 104.251 211.205,105.072 209.777,105.774 209.054 C 106.476 208.331,107.453 206.664,107.944 205.349 C 108.436 204.034,109.303 202.428,109.871 201.779 C 110.438 201.131,111.313 199.727,111.815 198.660 C 112.317 197.593,113.199 196.227,113.775 195.626 C 114.352 195.024,115.245 193.377,115.760 191.966 C 116.303 190.479,117.307 188.757,118.148 187.872 C 118.947 187.031,119.600 186.114,119.600 185.833 C 119.600 185.051,120.777 182.802,122.261 180.746 C 122.998 179.727,123.600 178.698,123.600 178.460 C 123.600 177.701,124.975 175.022,125.684 174.400 C 126.375 173.794,128.400 170.000,128.400 169.312 C 128.400 169.107,128.872 168.503,129.448 167.970 C 130.025 167.436,131.190 165.515,132.037 163.700 C 132.885 161.885,133.734 160.400,133.925 160.400 C 134.116 160.400,134.918 159.076,135.708 157.457 C 136.497 155.838,137.398 154.259,137.710 153.947 C 138.022 153.635,138.591 152.665,138.974 151.790 C 140.051 149.335,140.852 147.875,141.600 147.000 C 142.365 146.107,143.192 144.587,144.213 142.200 C 144.589 141.320,145.310 140.150,145.815 139.600 C 146.320 139.050,147.303 137.348,148.000 135.817 C 148.696 134.287,149.755 132.536,150.351 131.925 C 150.948 131.315,151.753 129.936,152.139 128.860 C 152.526 127.785,153.201 126.521,153.639 126.050 C 154.490 125.136,156.400 121.555,156.400 120.873 C 156.400 120.646,156.823 119.953,157.340 119.331 C 157.857 118.709,158.874 116.940,159.600 115.400 C 160.326 113.860,161.343 112.091,161.860 111.469 C 162.377 110.847,162.800 110.080,162.800 109.764 C 162.800 109.448,162.965 108.877,163.166 108.495 C 163.368 108.113,163.823 107.131,164.178 106.314 C 164.533 105.497,165.153 104.597,165.555 104.314 C 165.957 104.031,166.815 102.720,167.462 101.400 C 168.108 100.080,169.034 98.822,169.519 98.605 C 170.003 98.388,170.400 97.981,170.400 97.700 C 170.400 96.799,174.997 92.516,177.118 91.442 C 178.247 90.869,179.360 90.048,179.591 89.617 C 180.026 88.804,181.181 88.190,184.600 86.951 C 185.700 86.552,186.952 85.902,187.383 85.506 C 188.078 84.867,189.043 84.511,191.800 83.877 C 194.009 83.369,207.387 83.626,209.682 84.221 " stroke="none" fill="#0c220c" fill-rule="evenodd"></path><path id="path4" d="M158.480 2.480 C 158.216 2.744,158.000 3.640,158.000 4.472 L 158.000 5.983 150.100 6.092 L 142.200 6.200 142.079 8.089 L 141.957 9.979 136.079 10.089 L 130.200 10.200 130.078 12.100 L 129.956 14.000 124.607 14.000 C 118.590 14.000,118.000 14.235,118.000 16.629 L 118.000 18.000 114.480 18.000 C 110.475 18.000,110.000 18.263,110.000 20.480 L 110.000 22.000 106.480 22.000 C 102.475 22.000,102.000 22.263,102.000 24.480 L 102.000 26.000 98.629 26.000 C 94.772 26.000,94.000 26.435,94.000 28.607 C 94.000 29.933,93.967 29.958,92.100 30.078 L 90.200 30.200 90.078 32.100 L 89.956 34.000 86.607 34.000 C 82.773 34.000,82.000 34.438,82.000 36.607 C 82.000 37.933,81.967 37.958,80.100 38.078 L 78.200 38.200 78.079 40.079 L 77.958 41.958 76.079 42.079 L 74.200 42.200 74.078 44.100 L 73.956 46.000 71.478 46.047 C 67.209 46.129,66.673 46.360,66.293 48.282 C 65.982 49.854,65.854 49.982,64.291 50.291 C 62.725 50.600,62.600 50.727,62.287 52.311 C 61.966 53.936,61.896 54.000,60.456 54.000 C 58.564 54.000,58.000 54.570,58.000 56.480 C 58.000 57.973,57.973 58.000,56.480 58.000 C 54.570 58.000,54.000 58.564,54.000 60.456 C 54.000 61.896,53.936 61.966,52.311 62.287 C 50.727 62.600,50.600 62.725,50.291 64.291 C 49.982 65.854,49.854 65.982,48.282 66.293 C 46.360 66.673,46.129 67.209,46.047 71.478 L 46.000 73.956 44.100 74.078 L 42.200 74.200 42.079 76.079 L 41.958 77.958 40.079 78.079 L 38.200 78.200 38.078 80.100 C 37.958 81.967,37.933 82.000,36.607 82.000 C 34.438 82.000,34.000 82.773,34.000 86.607 L 34.000 89.956 32.100 90.078 L 30.200 90.200 30.078 92.100 C 29.958 93.967,29.933 94.000,28.607 94.000 C 26.435 94.000,26.000 94.772,26.000 98.629 L 26.000 102.000 24.480 102.000 C 22.263 102.000,22.000 102.475,22.000 106.480 L 22.000 110.000 20.480 110.000 C 18.263 110.000,18.000 110.475,18.000 114.480 L 18.000 118.000 16.629 118.000 C 14.235 118.000,14.000 118.590,14.000 124.607 L 14.000 129.956 12.100 130.078 L 10.200 130.200 10.089 136.079 L 9.979 141.957 8.089 142.079 L 6.200 142.200 6.092 150.100 L 5.983 158.000 4.472 158.000 C 1.833 158.000,2.000 155.160,2.000 200.000 C 2.000 244.840,1.833 242.000,4.472 242.000 L 5.983 242.000 6.092 249.900 L 6.200 257.800 8.089 257.921 L 9.979 258.043 10.089 263.921 L 10.200 269.800 12.100 269.922 L 14.000 270.044 14.000 275.393 C 14.000 281.410,14.235 282.000,16.629 282.000 L 18.000 282.000 18.000 285.520 C 18.000 289.525,18.263 290.000,20.480 290.000 L 22.000 290.000 22.000 293.520 C 22.000 297.525,22.263 298.000,24.480 298.000 L 26.000 298.000 26.000 301.371 C 26.000 305.228,26.435 306.000,28.607 306.000 C 29.933 306.000,29.958 306.033,30.078 307.900 L 30.200 309.800 32.100 309.922 L 34.000 310.044 34.000 313.393 C 34.000 317.227,34.438 318.000,36.607 318.000 C 37.933 318.000,37.958 318.033,38.078 319.900 L 38.200 321.800 40.079 321.921 L 41.958 322.042 42.079 323.921 L 42.200 325.800 44.100 325.922 L 46.000 326.044 46.047 328.522 C 46.129 332.791,46.360 333.327,48.282 333.707 C 49.854 334.018,49.982 334.146,50.291 335.709 C 50.600 337.275,50.727 337.400,52.311 337.713 C 53.936 338.034,54.000 338.104,54.000 339.544 C 54.000 341.436,54.570 342.000,56.480 342.000 C 57.973 342.000,58.000 342.027,58.000 343.520 C 58.000 345.430,58.564 346.000,60.456 346.000 C 61.896 346.000,61.966 346.064,62.287 347.689 C 62.600 349.273,62.725 349.400,64.291 349.709 C 65.854 350.018,65.982 350.146,66.293 351.718 C 66.673 353.640,67.209 353.871,71.478 353.953 L 73.956 354.000 74.078 355.900 L 74.200 357.800 76.079 357.921 L 77.958 358.042 78.079 359.921 L 78.200 361.800 80.100 361.922 C 81.967 362.042,82.000 362.067,82.000 363.393 C 82.000 365.562,82.773 366.000,86.607 366.000 L 89.956 366.000 90.078 367.900 L 90.200 369.800 92.100 369.922 C 93.967 370.042,94.000 370.067,94.000 371.393 C 94.000 373.565,94.772 374.000,98.629 374.000 L 102.000 374.000 102.000 375.520 C 102.000 377.737,102.475 378.000,106.480 378.000 L 110.000 378.000 110.000 379.520 C 110.000 381.737,110.475 382.000,114.480 382.000 L 118.000 382.000 118.000 383.371 C 118.000 385.765,118.590 386.000,124.607 386.000 L 129.956 386.000 130.078 387.900 L 130.200 389.800 136.079 389.911 L 141.957 390.021 142.079 391.911 L 142.200 393.800 150.100 393.908 L 158.000 394.017 158.000 395.528 C 158.000 398.167,155.160 398.000,200.000 398.000 C 244.840 398.000,242.000 398.167,242.000 395.528 L 242.000 394.017 249.900 393.908 L 257.800 393.800 257.921 391.911 L 258.043 390.021 263.921 389.911 L 269.800 389.800 269.922 387.900 L 270.044 386.000 275.393 386.000 C 281.410 386.000,282.000 385.765,282.000 383.371 L 282.000 382.000 285.520 382.000 C 289.525 382.000,290.000 381.737,290.000 379.520 L 290.000 378.000 293.520 378.000 C 297.525 378.000,298.000 377.737,298.000 375.520 L 298.000 374.000 301.371 374.000 C 305.228 374.000,306.000 373.565,306.000 371.393 C 306.000 370.067,306.033 370.042,307.900 369.922 L 309.800 369.800 309.922 367.900 L 310.044 366.000 313.393 366.000 C 317.227 366.000,318.000 365.562,318.000 363.393 C 318.000 362.067,318.033 362.042,319.900 361.922 L 321.800 361.800 321.921 359.921 L 322.042 358.042 323.921 357.921 L 325.800 357.800 325.922 355.900 L 326.044 354.000 328.522 353.953 C 332.791 353.871,333.327 353.640,333.707 351.718 C 334.018 350.146,334.146 350.018,335.709 349.709 C 337.275 349.400,337.400 349.273,337.713 347.689 C 338.034 346.064,338.104 346.000,339.544 346.000 C 341.436 346.000,342.000 345.430,342.000 343.520 C 342.000 342.027,342.027 342.000,343.520 342.000 C 345.430 342.000,346.000 341.436,346.000 339.544 C 346.000 338.104,346.064 338.034,347.689 337.713 C 349.273 337.400,349.400 337.275,349.709 335.709 C 350.018 334.146,350.146 334.018,351.718 333.707 C 353.640 333.327,353.871 332.791,353.953 328.522 L 354.000 326.044 355.900 325.922 L 357.800 325.800 357.921 323.921 L 358.042 322.042 359.921 321.921 L 361.800 321.800 361.922 319.900 C 362.042 318.033,362.067 318.000,363.393 318.000 C 365.562 318.000,366.000 317.227,366.000 313.393 L 366.000 310.044 367.900 309.922 L 369.800 309.800 369.922 307.900 C 370.042 306.033,370.067 306.000,371.393 306.000 C 373.565 306.000,374.000 305.228,374.000 301.371 L 374.000 298.000 375.520 298.000 C 377.737 298.000,378.000 297.525,378.000 293.520 L 378.000 290.000 379.520 290.000 C 381.737 290.000,382.000 289.525,382.000 285.520 L 382.000 282.000 383.371 282.000 C 385.765 282.000,386.000 281.410,386.000 275.393 L 386.000 270.044 387.900 269.922 L 389.800 269.800 389.911 263.921 L 390.021 258.043 391.911 257.921 L 393.800 257.800 393.908 249.900 L 394.017 242.000 395.528 242.000 C 398.167 242.000,398.000 244.840,398.000 200.000 C 398.000 155.160,398.167 158.000,395.528 158.000 L 394.017 158.000 393.908 150.100 L 393.800 142.200 391.911 142.079 L 390.021 141.957 389.911 136.079 L 389.800 130.200 387.900 130.078 L 386.000 129.956 386.000 124.607 C 386.000 118.590,385.765 118.000,383.371 118.000 L 382.000 118.000 382.000 114.480 C 382.000 110.475,381.737 110.000,379.520 110.000 L 378.000 110.000 378.000 106.480 C 378.000 102.475,377.737 102.000,375.520 102.000 L 374.000 102.000 374.000 98.629 C 374.000 94.772,373.565 94.000,371.393 94.000 C 370.067 94.000,370.042 93.967,369.922 92.100 L 369.800 90.200 367.900 90.078 L 366.000 89.956 366.000 86.607 C 366.000 82.773,365.562 82.000,363.393 82.000 C 362.067 82.000,362.042 81.967,361.922 80.100 L 361.800 78.200 359.921 78.079 L 358.042 77.958 357.921 76.079 L 357.800 74.200 355.900 74.078 L 354.000 73.956 353.953 71.478 C 353.871 67.209,353.640 66.673,351.718 66.293 C 350.146 65.982,350.018 65.854,349.709 64.291 C 349.400 62.725,349.273 62.600,347.689 62.287 C 346.064 61.966,346.000 61.896,346.000 60.456 C 346.000 58.564,345.430 58.000,343.520 58.000 C 342.027 58.000,342.000 57.973,342.000 56.480 C 342.000 54.570,341.436 54.000,339.544 54.000 C 338.104 54.000,338.034 53.936,337.713 52.311 C 337.400 50.727,337.275 50.600,335.709 50.291 C 334.146 49.982,334.018 49.854,333.707 48.282 C 333.327 46.360,332.791 46.129,328.522 46.047 L 326.044 46.000 325.922 44.100 L 325.800 42.200 323.921 42.079 L 322.042 41.958 321.921 40.079 L 321.800 38.200 319.900 38.078 C 318.033 37.958,318.000 37.933,318.000 36.607 C 318.000 34.438,317.227 34.000,313.393 34.000 L 310.044 34.000 309.922 32.100 L 309.800 30.200 307.900 30.078 C 306.033 29.958,306.000 29.933,306.000 28.607 C 306.000 26.435,305.228 26.000,301.371 26.000 L 298.000 26.000 298.000 24.480 C 298.000 22.263,297.525 22.000,293.520 22.000 L 290.000 22.000 290.000 20.480 C 290.000 18.263,289.525 18.000,285.520 18.000 L 282.000 18.000 282.000 16.629 C 282.000 14.235,281.410 14.000,275.393 14.000 L 270.044 14.000 269.922 12.100 L 269.800 10.200 263.921 10.089 L 258.043 9.979 257.921 8.089 L 257.800 6.200 249.900 6.092 L 242.000 5.983 242.000 4.472 C 242.000 3.640,241.784 2.744,241.520 2.480 C 240.824 1.784,159.176 1.784,158.480 2.480 M213.600 83.359 C 215.342 84.140,216.177 84.805,216.501 85.672 C 216.666 86.110,217.422 86.440,218.677 86.620 C 220.487 86.880,222.999 88.302,223.718 89.474 C 223.893 89.760,224.990 90.460,226.156 91.031 C 227.786 91.829,228.432 92.421,228.947 93.589 C 229.316 94.425,230.243 95.535,231.006 96.055 C 231.770 96.575,232.396 97.212,232.397 97.471 C 232.399 97.731,232.648 98.191,232.952 98.495 C 233.255 98.798,233.628 99.781,233.780 100.679 C 234.012 102.054,234.232 102.346,235.176 102.535 C 236.511 102.802,237.350 104.591,237.774 108.074 C 238.029 110.164,238.144 110.368,239.202 110.600 C 240.347 110.852,240.984 112.104,241.749 115.608 C 241.870 116.163,242.521 117.181,243.195 117.870 C 243.869 118.560,244.690 120.031,245.019 121.140 C 245.401 122.424,246.042 123.491,246.785 124.078 C 247.930 124.983,249.600 128.218,249.600 129.533 C 249.600 129.900,250.205 130.683,250.945 131.273 C 252.210 132.282,252.982 133.935,253.761 137.300 C 253.901 137.905,254.273 138.400,254.587 138.400 C 255.488 138.400,257.087 140.836,257.386 142.664 C 257.589 143.905,258.107 144.769,259.426 146.064 C 260.515 147.132,261.290 148.303,261.443 149.107 C 261.580 149.826,262.131 150.759,262.667 151.181 C 263.819 152.087,265.596 155.424,265.598 156.684 C 265.599 157.171,265.825 157.759,266.100 157.992 C 266.375 158.224,266.991 158.735,267.468 159.126 C 267.945 159.518,268.689 160.884,269.120 162.162 C 269.552 163.440,270.437 165.051,271.087 165.743 C 272.520 167.266,273.007 168.175,273.346 169.962 C 273.493 170.735,274.180 171.882,274.935 172.616 C 276.359 173.999,277.600 176.255,277.600 177.460 C 277.600 177.867,278.185 178.667,278.900 179.238 C 280.120 180.212,281.124 182.330,281.774 185.300 C 281.907 185.905,282.273 186.400,282.587 186.400 C 283.477 186.400,285.086 188.827,285.376 190.605 C 285.552 191.680,286.150 192.765,287.187 193.887 C 288.694 195.520,288.875 195.867,289.356 198.044 C 289.483 198.618,290.205 199.511,290.960 200.029 C 292.312 200.955,293.600 203.715,293.600 205.683 C 293.600 206.119,293.918 206.558,294.308 206.660 C 295.168 206.885,296.710 209.063,297.372 210.991 C 297.640 211.770,298.388 213.004,299.034 213.734 C 300.379 215.254,301.200 216.882,301.200 218.032 C 301.200 218.469,301.829 219.455,302.597 220.224 C 304.152 221.778,305.600 224.350,305.600 225.555 C 305.600 225.988,306.061 226.705,306.625 227.148 C 307.745 228.029,309.600 231.535,309.600 232.769 C 309.600 233.569,310.089 234.176,311.549 235.187 C 312.015 235.510,312.508 236.367,312.644 237.091 C 312.779 237.816,313.050 238.507,313.245 238.628 C 313.440 238.749,313.601 239.152,313.602 239.524 C 313.603 239.896,314.242 240.895,315.022 241.744 C 316.331 243.170,316.486 243.612,317.048 247.544 C 317.444 250.315,317.925 252.178,318.428 252.884 C 319.447 254.314,319.534 261.388,318.568 264.232 C 318.221 265.256,317.602 268.277,317.194 270.946 C 316.516 275.373,316.346 275.892,315.265 276.858 C 314.614 277.441,313.958 278.341,313.808 278.859 C 313.157 281.112,312.215 282.706,310.652 284.200 C 309.731 285.080,308.760 286.298,308.494 286.906 C 308.229 287.514,307.514 288.229,306.906 288.494 C 306.298 288.759,305.530 289.314,305.200 289.727 C 304.870 290.141,304.240 290.913,303.800 291.444 C 303.360 291.975,301.920 292.778,300.600 293.229 C 299.160 293.721,297.771 294.527,297.128 295.246 C 296.176 296.311,295.607 296.514,292.032 297.072 C 289.383 297.485,287.712 297.956,287.142 298.450 C 285.994 299.446,275.095 299.562,272.285 298.608 C 271.326 298.283,268.666 297.647,266.374 297.195 C 262.763 296.483,262.019 296.195,260.803 295.038 C 260.031 294.303,258.516 293.374,257.436 292.972 C 256.167 292.501,255.248 291.848,254.836 291.127 C 254.486 290.514,253.750 289.838,253.200 289.625 C 251.680 289.036,250.881 288.260,250.587 287.090 C 250.439 286.502,249.937 285.908,249.460 285.759 C 248.374 285.418,246.800 283.753,246.800 282.945 C 246.800 282.608,246.155 281.762,245.366 281.066 C 243.795 279.679,243.039 278.197,242.611 275.665 C 242.400 274.416,242.071 273.886,241.267 273.501 C 240.149 272.965,239.031 271.044,238.628 268.965 C 238.496 268.286,237.606 266.915,236.648 265.914 C 235.525 264.743,234.810 263.578,234.632 262.631 C 234.441 261.613,234.074 261.056,233.433 260.813 C 232.539 260.472,230.400 256.081,230.400 254.583 C 230.400 254.249,230.099 253.859,229.731 253.718 C 228.531 253.258,227.811 252.238,226.999 249.849 C 226.560 248.557,225.646 246.913,224.969 246.195 C 224.292 245.476,223.419 243.877,223.030 242.640 C 222.641 241.403,222.009 240.168,221.625 239.896 C 220.555 239.136,218.953 236.366,218.654 234.761 C 218.476 233.800,218.077 233.181,217.455 232.898 C 216.427 232.430,215.016 229.760,214.587 227.472 C 214.392 226.430,214.004 225.854,213.257 225.496 C 212.125 224.953,211.027 223.030,210.606 220.851 C 210.457 220.081,209.848 219.084,209.185 218.526 C 208.503 217.952,207.662 216.554,207.145 215.136 C 206.661 213.809,205.980 212.614,205.632 212.481 C 204.283 211.964,203.321 210.120,202.607 206.680 C 202.268 205.046,197.871 205.153,197.690 206.800 C 197.374 209.671,196.287 212.112,195.129 212.549 C 194.396 212.826,193.888 213.358,193.750 213.994 C 193.265 216.232,192.312 218.130,190.992 219.489 C 190.226 220.278,189.600 221.233,189.600 221.613 C 189.600 223.167,188.359 225.256,187.195 225.662 C 186.272 225.983,185.969 226.382,185.767 227.535 C 185.146 231.089,184.391 232.656,182.974 233.332 C 181.933 233.828,181.600 234.237,181.600 235.018 C 181.600 237.246,180.327 240.097,179.130 240.549 C 178.193 240.902,177.875 241.394,177.334 243.322 C 176.888 244.912,176.182 246.196,175.138 247.315 C 174.292 248.222,173.600 249.194,173.600 249.474 C 173.600 250.919,172.269 253.167,171.191 253.543 C 170.283 253.860,169.994 254.257,169.788 255.471 C 169.281 258.462,168.338 260.373,166.945 261.234 C 165.921 261.867,165.600 262.341,165.600 263.219 C 165.600 265.233,164.088 267.984,162.691 268.513 C 162.301 268.661,161.914 269.011,161.830 269.291 C 161.747 269.571,161.453 270.669,161.178 271.732 C 160.865 272.940,160.120 274.262,159.188 275.262 C 158.368 276.141,157.431 277.694,157.106 278.713 C 156.644 280.162,156.197 280.731,155.057 281.322 C 153.922 281.911,153.600 282.319,153.600 283.169 C 153.600 283.769,153.285 284.546,152.900 284.896 C 152.515 285.245,151.637 286.108,150.948 286.814 C 150.259 287.519,149.304 288.479,148.826 288.948 C 148.348 289.417,147.111 290.655,146.077 291.700 C 144.770 293.021,143.873 293.600,143.132 293.600 C 142.345 293.600,141.839 293.966,141.204 294.993 C 140.240 296.553,137.584 297.600,134.589 297.600 C 133.220 297.600,132.661 297.855,131.454 299.027 C 128.640 301.759,114.894 301.865,111.526 299.180 C 110.405 298.286,109.373 297.908,107.212 297.602 C 103.714 297.106,102.026 296.424,100.670 294.962 C 100.095 294.342,98.855 293.537,97.913 293.172 C 96.698 292.702,95.947 292.065,95.331 290.982 C 94.783 290.020,93.944 289.250,93.062 288.898 C 92.030 288.486,91.495 287.921,91.025 286.747 C 90.593 285.665,90.033 285.030,89.280 284.768 C 87.930 284.297,86.884 282.439,86.546 279.910 C 86.355 278.477,86.094 277.957,85.466 277.757 C 83.645 277.180,82.961 275.515,82.617 270.827 C 82.422 268.168,82.211 267.343,81.621 266.930 C 79.674 265.566,79.652 254.889,81.593 253.206 C 82.269 252.619,82.467 251.779,82.737 248.348 C 83.087 243.890,83.890 241.552,85.417 240.552 C 85.937 240.212,86.496 239.243,86.745 238.251 C 87.262 236.201,88.584 234.400,89.573 234.400 C 90.132 234.400,90.340 233.968,90.523 232.422 C 90.835 229.785,91.675 228.271,93.385 227.262 C 94.528 226.587,94.800 226.185,94.800 225.168 C 94.800 223.651,96.208 221.018,97.457 220.199 C 98.006 219.840,98.470 219.014,98.634 218.103 C 99.002 216.066,99.471 215.221,101.054 213.746 C 101.794 213.056,102.401 212.246,102.402 211.946 C 102.411 209.723,103.906 207.133,105.465 206.641 C 106.149 206.425,106.388 205.934,106.612 204.284 C 106.986 201.522,107.677 200.269,109.385 199.262 C 110.541 198.580,110.800 198.190,110.800 197.135 C 110.800 195.762,112.439 193.021,113.647 192.375 C 114.077 192.145,114.456 191.303,114.619 190.210 C 114.915 188.236,116.318 186.400,117.529 186.400 C 118.167 186.400,118.341 186.010,118.558 184.090 C 118.857 181.445,119.970 179.344,121.350 178.819 C 122.099 178.534,122.362 178.050,122.589 176.534 C 122.958 174.074,123.735 172.587,125.108 171.713 C 126.553 170.794,126.787 170.421,126.794 169.022 C 126.800 167.757,128.495 164.991,129.638 164.379 C 130.022 164.174,130.453 163.420,130.597 162.703 C 131.106 160.174,131.984 158.783,133.226 158.535 C 134.194 158.341,134.400 158.101,134.400 157.164 C 134.400 154.450,136.240 150.800,137.608 150.800 C 138.114 150.800,138.355 150.336,138.537 149.009 C 138.876 146.537,140.660 143.600,141.823 143.600 C 142.345 143.600,142.786 142.362,142.795 140.872 C 142.801 139.827,144.866 136.614,145.748 136.275 C 146.065 136.154,146.445 135.457,146.592 134.727 C 147.107 132.174,147.980 130.784,149.226 130.535 C 150.194 130.341,150.400 130.101,150.400 129.164 C 150.400 126.441,152.240 122.800,153.617 122.800 C 154.134 122.800,154.380 122.330,154.588 120.941 C 154.970 118.391,156.661 115.600,157.823 115.600 C 158.345 115.600,158.786 114.362,158.795 112.872 C 158.801 111.835,160.863 108.615,161.736 108.280 C 162.045 108.161,162.419 107.374,162.566 106.532 C 163.064 103.672,163.584 102.839,165.044 102.565 C 166.242 102.341,166.400 102.165,166.404 101.055 C 166.410 99.258,167.996 96.368,169.400 95.597 C 170.060 95.234,170.870 94.418,171.200 93.783 C 172.088 92.074,174.492 90.400,176.057 90.400 C 176.293 90.400,177.232 89.608,178.143 88.640 C 179.488 87.211,180.147 86.831,181.643 86.624 C 183.092 86.423,183.584 86.153,183.944 85.363 C 185.039 82.960,188.677 82.415,202.400 82.600 C 210.225 82.706,212.482 82.859,213.600 83.359 " stroke="none" fill="#040404" fill-rule="evenodd"></path></g></svg>