<svg id="svg" version="1.1" xmlns="http://www.w3.org/2000/svg" xmlns:xlink="http://www.w3.org/1999/xlink" width="400" height="400" viewBox="0, 0, 400,400"><g id="svgg"><path id="path0" d="M177.247 88.155 C 170.922 89.395,170.748 89.640,156.144 117.958 C 149.321 131.189,128.174 172.162,109.152 209.009 C 75.974 273.276,74.560 276.085,74.429 278.018 C 74.198 281.434,75.710 284.138,78.766 285.773 C 80.287 286.587,127.235 287.084,131.320 286.329 C 138.764 284.953,138.196 285.832,160.492 241.195 C 172.228 217.699,172.354 219.730,157.398 191.110 C 152.112 180.995,147.538 171.862,147.234 170.815 C 145.059 163.333,150.400 155.097,158.395 153.606 C 162.487 152.842,242.873 153.429,245.143 154.239 C 251.696 156.576,255.686 163.649,254.244 170.373 C 253.982 171.593,250.487 178.588,243.074 192.723 C 230.425 216.845,230.215 217.404,231.797 222.731 C 232.999 226.782,260.442 280.396,262.271 282.270 C 266.577 286.680,266.669 286.692,296.341 286.580 L 321.212 286.486 322.569 285.761 C 326.621 283.594,327.982 279.202,325.948 274.857 C 319.874 261.880,232.539 93.687,231.105 92.204 C 229.252 90.287,226.420 88.718,223.817 88.166 C 221.721 87.720,179.512 87.711,177.247 88.155 M199.719 195.751 C 198.521 207.452,186.917 218.225,175.163 218.547 C 174.110 218.576,174.407 218.681,176.440 218.999 C 189.196 220.997,199.548 231.521,199.867 242.817 C 199.883 243.412,200.118 242.645,200.389 241.114 C 202.483 229.254,211.229 220.956,223.676 219.018 C 226.204 218.625,226.345 218.569,224.898 218.539 C 213.211 218.296,202.296 208.256,200.352 195.961 L 199.954 193.448 199.719 195.751 " stroke="none" fill="#fbfbfb" fill-rule="evenodd"></path><path id="path1" d="M380.451 114.169 C 380.536 114.349,356.882 128.190,327.886 144.928 C 298.890 161.665,275.113 175.449,275.049 175.558 C 274.984 175.668,283.916 193.153,294.897 214.414 C 326.520 275.642,326.945 276.488,326.945 278.305 C 326.945 281.535,325.332 284.283,322.569 285.761 L 321.212 286.486 296.341 286.580 C 266.669 286.692,266.577 286.680,262.271 282.270 C 260.442 280.396,232.999 226.782,231.797 222.731 C 230.370 217.928,231.065 215.521,237.270 203.767 C 239.886 198.812,241.990 194.718,241.945 194.669 C 241.900 194.620,234.826 198.648,226.225 203.620 C 217.623 208.591,210.378 212.580,210.125 212.482 C 208.098 211.704,213.088 215.044,215.770 216.260 C 218.297 217.406,222.647 218.492,224.898 218.539 C 226.345 218.569,226.204 218.625,223.676 219.018 C 211.229 220.956,202.483 229.254,200.389 241.114 C 200.118 242.645,199.883 243.412,199.867 242.817 C 199.719 237.564,196.416 230.804,191.795 226.292 L 189.898 224.440 189.052 225.021 C 185.988 227.126,161.133 241.124,160.812 240.926 C 160.578 240.781,160.509 240.825,160.639 241.035 C 160.758 241.228,160.735 241.435,160.587 241.495 C 160.440 241.556,155.997 250.156,150.715 260.606 C 136.153 289.414,140.898 286.649,106.016 286.652 L 82.391 286.654 59.160 300.072 C 34.552 314.285,34.967 314.031,35.817 314.357 C 36.118 314.472,36.364 314.750,36.364 314.975 C 36.364 315.200,36.725 315.774,37.167 316.250 C 37.609 316.727,37.867 317.122,37.740 317.128 C 37.614 317.134,37.836 317.411,38.233 317.743 C 38.631 318.075,38.868 318.435,38.760 318.543 C 38.652 318.651,38.805 318.833,39.101 318.946 C 39.397 319.060,39.640 319.363,39.640 319.619 C 39.640 319.876,39.861 320.171,40.131 320.275 C 40.401 320.378,40.622 320.660,40.622 320.901 C 40.622 321.142,40.897 321.531,41.234 321.767 C 41.570 322.002,41.861 322.308,41.882 322.447 C 41.920 322.704,42.010 322.828,43.316 324.409 C 43.726 324.907,44.309 325.644,44.610 326.047 C 48.187 330.842,57.295 340.638,63.554 346.421 C 131.859 409.540,233.204 417.858,310.651 366.701 C 378.438 321.925,412.321 239.801,396.038 159.737 C 394.527 152.307,389.940 135.827,388.917 134.152 C 388.807 133.972,388.673 133.541,388.619 133.195 C 388.565 132.849,388.358 132.370,388.160 132.131 C 387.961 131.891,387.896 131.695,388.014 131.695 C 388.132 131.695,388.047 131.364,387.824 130.958 C 387.602 130.553,387.375 129.952,387.320 129.623 C 387.265 129.294,387.042 128.704,386.825 128.313 C 386.607 127.921,386.461 127.490,386.499 127.355 C 386.537 127.219,386.412 127.109,386.221 127.109 C 386.031 127.109,385.959 126.972,386.063 126.804 C 386.167 126.636,386.099 126.405,385.913 126.290 C 385.727 126.175,385.660 125.944,385.763 125.776 C 385.867 125.608,385.771 125.471,385.550 125.471 C 385.329 125.471,385.246 125.374,385.364 125.255 C 385.483 125.137,385.416 124.842,385.215 124.600 C 385.014 124.358,384.959 124.161,385.092 124.161 C 385.225 124.161,385.092 123.792,384.797 123.342 C 384.502 122.891,384.341 122.523,384.440 122.523 C 384.539 122.523,384.364 122.043,384.052 121.458 C 383.740 120.872,383.516 120.283,383.553 120.147 C 383.590 120.012,383.448 119.902,383.238 119.902 C 383.028 119.902,382.952 119.805,383.070 119.688 C 383.187 119.570,382.993 119.003,382.637 118.428 C 382.282 117.852,382.087 117.285,382.205 117.167 C 382.322 117.050,382.238 116.953,382.017 116.953 C 381.796 116.953,381.707 116.806,381.818 116.626 C 381.930 116.446,381.856 116.298,381.654 116.298 C 381.453 116.298,381.379 116.151,381.491 115.971 C 381.602 115.790,381.528 115.643,381.327 115.643 C 381.125 115.643,381.038 115.517,381.133 115.364 C 381.228 115.210,381.078 114.805,380.801 114.463 C 380.523 114.121,380.365 113.989,380.451 114.169 M192.125 210.729 L 190.500 212.449 192.219 210.823 C 193.818 209.313,194.090 209.009,193.845 209.009 C 193.793 209.009,193.019 209.783,192.125 210.729 M207.699 210.811 C 208.310 211.441,208.884 211.957,208.974 211.957 C 209.064 211.957,208.637 211.441,208.026 210.811 C 207.415 210.180,206.841 209.664,206.751 209.664 C 206.661 209.664,207.087 210.180,207.699 210.811 M74.120 278.624 C 74.124 279.345,74.191 279.601,74.269 279.194 C 74.348 278.786,74.345 278.196,74.263 277.883 C 74.181 277.570,74.117 277.903,74.120 278.624 M33.446 310.893 C 34.395 312.364,34.398 312.367,34.396 312.012 C 34.396 311.847,34.015 311.269,33.550 310.729 L 32.706 309.746 33.446 310.893 " stroke="none" fill="#4549f5" fill-rule="evenodd"></path><path id="path2" d="M186.241 0.326 C 88.510 7.719,11.273 82.301,1.002 179.197 C 0.213 186.643,-0.244 210.840,0.393 211.477 C 0.519 211.603,34.942 191.895,76.888 167.682 L 153.153 123.658 156.439 117.275 C 173.218 84.681,168.956 87.797,196.758 87.797 L 215.243 87.797 262.167 60.724 C 287.975 45.834,309.238 33.512,309.419 33.342 C 309.797 32.984,307.374 30.703,306.917 30.986 C 306.761 31.082,306.634 31.005,306.634 30.814 C 306.634 30.623,306.413 30.467,306.143 30.467 C 305.872 30.467,305.651 30.319,305.651 30.139 C 305.651 29.959,305.430 29.812,305.160 29.812 C 304.889 29.812,304.668 29.656,304.668 29.465 C 304.668 29.274,304.543 29.195,304.390 29.290 C 304.237 29.384,303.798 29.169,303.414 28.811 C 303.030 28.453,302.602 28.164,302.463 28.169 C 302.325 28.175,301.966 27.969,301.666 27.712 C 301.366 27.455,301.034 27.331,300.929 27.436 C 300.823 27.541,300.737 27.479,300.737 27.298 C 300.737 26.956,299.121 26.050,298.690 26.151 C 298.554 26.182,298.444 26.052,298.444 25.861 C 298.444 25.670,298.296 25.605,298.116 25.717 C 297.936 25.828,297.789 25.766,297.789 25.578 C 297.789 25.391,297.420 25.145,296.970 25.032 C 296.519 24.919,296.151 24.686,296.151 24.515 C 296.151 24.344,296.003 24.295,295.823 24.406 C 295.643 24.518,295.495 24.470,295.495 24.302 C 295.495 23.990,293.744 23.140,293.335 23.254 C 293.212 23.288,293.022 23.176,292.911 23.006 C 292.655 22.609,290.496 21.465,290.172 21.554 C 290.037 21.591,289.926 21.466,289.926 21.275 C 289.926 21.084,289.791 21.011,289.627 21.113 C 289.462 21.215,289.278 21.185,289.217 21.047 C 288.840 20.187,273.314 13.603,264.775 10.682 C 240.618 2.420,210.707 -1.524,186.241 0.326 " stroke="none" fill="#049ade" fill-rule="evenodd"></path><path id="path3" d="M309.173 32.458 C 309.398 32.696,309.582 32.990,309.582 33.111 C 309.582 33.233,288.417 45.550,262.549 60.482 L 215.515 87.633 220.043 87.827 C 229.790 88.246,230.088 88.567,241.793 111.220 C 251.609 130.217,251.875 130.716,252.191 130.703 C 252.315 130.698,275.192 117.534,303.030 101.450 C 330.868 85.365,353.694 72.323,353.754 72.466 C 353.814 72.610,354.035 72.725,354.245 72.722 C 354.455 72.719,354.111 72.262,353.481 71.706 C 352.850 71.151,352.334 70.600,352.334 70.483 C 352.334 70.366,352.224 70.307,352.088 70.352 C 351.953 70.397,351.880 70.321,351.925 70.182 C 352.041 69.822,350.669 68.141,350.259 68.141 C 350.070 68.141,349.811 67.971,349.682 67.763 C 349.525 67.509,349.599 67.471,349.908 67.650 C 351.167 68.374,341.929 58.692,336.608 53.709 C 333.281 50.593,329.105 46.981,326.115 44.634 C 324.680 43.508,322.576 41.851,321.441 40.953 C 320.306 40.055,318.721 38.936,317.919 38.466 C 317.118 37.996,316.462 37.512,316.462 37.390 C 316.462 37.269,315.799 36.807,314.988 36.364 C 314.177 35.921,313.514 35.466,313.514 35.354 C 313.514 35.241,312.445 34.446,311.138 33.587 C 309.832 32.728,308.948 32.220,309.173 32.458 M355.443 74.361 C 356.012 75.079,356.648 75.772,356.857 75.902 C 357.066 76.031,356.669 75.443,355.975 74.596 C 355.280 73.748,354.644 73.055,354.560 73.055 C 354.477 73.055,354.874 73.643,355.443 74.361 M76.639 167.814 L 0.452 211.794 0.527 213.432 C 0.632 215.742,1.123 221.348,1.459 224.079 C 1.559 224.889,1.713 226.143,1.802 226.863 C 1.968 228.212,2.157 229.526,2.391 230.958 C 2.464 231.409,2.630 232.588,2.759 233.579 C 2.888 234.570,3.121 235.823,3.277 236.364 C 3.432 236.904,3.640 237.982,3.739 238.759 C 3.837 239.536,3.987 240.283,4.071 240.420 C 4.155 240.556,4.322 241.395,4.441 242.283 C 4.559 243.172,4.723 244.008,4.804 244.143 C 4.885 244.277,5.002 244.646,5.065 244.962 C 5.128 245.278,5.502 246.790,5.898 248.321 C 6.293 249.853,6.680 251.474,6.757 251.925 C 6.834 252.375,7.033 253.112,7.200 253.563 C 7.367 254.013,7.665 255.045,7.861 255.856 C 8.057 256.667,8.345 257.625,8.501 257.985 C 8.657 258.346,8.965 259.341,9.185 260.197 C 9.405 261.052,9.709 261.753,9.860 261.753 C 10.011 261.753,10.050 261.974,9.946 262.244 C 9.843 262.514,9.916 262.735,10.110 262.735 C 10.304 262.735,10.378 262.957,10.274 263.227 C 10.170 263.497,10.244 263.718,10.438 263.718 C 10.632 263.718,10.705 263.939,10.602 264.210 C 10.498 264.480,10.585 264.701,10.795 264.701 C 11.005 264.701,11.083 264.854,10.967 265.041 C 10.852 265.228,11.054 265.950,11.417 266.646 C 11.780 267.343,12.000 267.989,11.905 268.084 C 11.811 268.178,11.864 268.488,12.023 268.773 C 12.264 269.203,20.178 264.751,59.001 242.344 L 105.690 215.397 115.586 196.233 C 121.028 185.692,130.264 167.810,136.111 156.495 C 147.392 134.659,152.948 123.833,152.872 123.833 C 152.846 123.833,118.541 143.624,76.639 167.814 M156.757 154.104 C 149.868 156.288,145.686 163.299,147.234 170.067 C 147.800 172.540,154.910 186.641,155.525 186.509 C 155.802 186.450,209.605 155.447,211.466 154.275 C 212.722 153.483,159.241 153.316,156.757 154.104 M0.083 193.120 C 0.086 193.841,0.153 194.097,0.232 193.690 C 0.310 193.282,0.307 192.693,0.225 192.379 C 0.143 192.066,0.079 192.400,0.083 193.120 M0.083 207.207 C 0.086 207.928,0.153 208.184,0.232 207.777 C 0.310 207.369,0.307 206.780,0.225 206.466 C 0.143 206.153,0.079 206.486,0.083 207.207 " stroke="none" fill="#077de7" fill-rule="evenodd"></path><path id="path4" d="M303.030 101.446 C 275.192 117.534,252.232 130.631,252.008 130.552 C 251.783 130.472,252.133 131.470,252.786 132.771 C 255.015 137.214,268.707 163.634,269.291 164.619 C 269.612 165.160,270.997 167.841,272.368 170.577 L 274.862 175.553 280.183 172.471 C 283.109 170.777,306.892 157.044,333.033 141.954 C 374.449 118.047,381.749 113.677,380.270 113.677 C 380.109 113.677,380.069 113.530,380.180 113.350 C 380.292 113.170,380.218 113.022,380.016 113.022 C 379.815 113.022,379.741 112.875,379.853 112.695 C 379.964 112.514,379.890 112.367,379.689 112.367 C 379.487 112.367,379.414 112.219,379.525 112.039 C 379.636 111.859,379.563 111.712,379.361 111.712 C 379.160 111.712,379.086 111.564,379.197 111.384 C 379.309 111.204,379.235 111.057,379.034 111.057 C 378.832 111.057,378.758 110.909,378.870 110.729 C 378.981 110.549,378.907 110.401,378.706 110.401 C 378.505 110.401,378.431 110.254,378.542 110.074 C 378.654 109.894,378.580 109.746,378.378 109.746 C 378.177 109.746,378.103 109.599,378.215 109.419 C 378.326 109.238,378.252 109.091,378.051 109.091 C 377.849 109.091,377.776 108.943,377.887 108.763 C 377.998 108.583,377.925 108.436,377.723 108.436 C 377.522 108.436,377.448 108.288,377.559 108.108 C 377.671 107.928,377.597 107.781,377.396 107.781 C 377.194 107.781,377.120 107.633,377.232 107.453 C 377.343 107.273,377.278 107.125,377.087 107.125 C 376.896 107.125,376.767 107.015,376.799 106.880 C 376.896 106.479,375.661 104.177,375.350 104.177 C 375.193 104.177,375.155 104.029,375.266 103.849 C 375.378 103.669,375.304 103.522,375.102 103.522 C 374.901 103.522,374.827 103.374,374.939 103.194 C 375.050 103.014,374.985 102.867,374.794 102.867 C 374.603 102.867,374.447 102.656,374.447 102.399 C 374.447 102.141,374.257 101.736,374.024 101.498 C 373.791 101.260,373.405 100.586,373.165 100.000 C 372.926 99.414,372.576 98.935,372.387 98.935 C 372.199 98.935,372.135 98.845,372.245 98.736 C 372.454 98.527,370.971 95.970,370.439 95.623 C 370.270 95.512,370.147 95.291,370.165 95.131 C 370.250 94.355,360.489 80.278,357.133 76.339 C 356.115 75.145,354.914 73.723,354.464 73.181 L 353.645 72.195 303.030 101.446 M185.692 153.642 L 212.333 153.808 183.942 170.188 C 168.326 179.197,155.405 186.528,155.228 186.478 C 155.051 186.429,154.972 186.503,155.052 186.642 C 157.236 190.445,167.212 210.081,167.705 211.547 C 170.191 218.940,169.397 223.715,163.837 234.820 C 160.796 240.892,160.587 241.426,161.417 240.995 C 163.124 240.110,189.188 225.009,189.459 224.749 C 190.455 223.790,181.915 219.969,177.232 219.277 C 173.123 218.671,173.094 218.653,175.758 218.404 C 188.204 217.238,199.581 206.016,199.866 194.624 C 199.885 193.856,200.056 194.357,200.358 196.069 C 201.489 202.463,206.756 211.422,209.989 212.448 C 210.423 212.586,215.316 209.924,226.344 203.552 L 242.080 194.459 243.007 192.643 C 243.989 190.718,250.182 178.978,252.273 175.078 C 256.606 166.994,254.164 158.506,246.418 154.731 L 244.554 153.822 234.070 153.604 C 228.305 153.484,209.066 153.406,191.319 153.431 L 159.050 153.475 185.692 153.642 M58.900 242.349 C 23.944 262.510,12.522 269.245,12.659 269.615 C 12.758 269.885,12.877 270.254,12.922 270.434 C 13.042 270.908,13.435 271.920,13.958 273.104 C 14.209 273.672,14.414 274.215,14.414 274.312 C 14.414 274.408,14.544 274.828,14.703 275.245 C 14.861 275.662,14.979 276.077,14.963 276.167 C 14.948 276.257,15.182 276.773,15.484 277.314 C 16.059 278.344,17.045 280.711,16.954 280.841 C 16.925 280.883,17.348 281.802,17.895 282.883 C 18.441 283.964,20.196 287.465,21.795 290.663 C 23.394 293.862,24.819 296.478,24.963 296.478 C 25.107 296.478,25.191 296.589,25.148 296.724 C 25.056 297.020,27.188 300.817,27.607 301.101 C 27.769 301.212,27.888 301.433,27.871 301.593 C 27.854 301.753,28.030 302.105,28.261 302.375 C 28.493 302.645,28.714 303.014,28.753 303.194 C 28.792 303.374,29.013 303.743,29.244 304.013 C 29.476 304.283,29.697 304.652,29.736 304.832 C 29.774 305.012,30.029 305.419,30.300 305.737 C 30.572 306.054,30.794 306.460,30.794 306.638 C 30.794 306.816,30.951 306.962,31.141 306.962 C 31.332 306.962,31.397 307.110,31.284 307.291 C 31.172 307.473,31.311 307.710,31.593 307.818 C 31.874 307.926,32.105 308.163,32.105 308.345 C 32.105 308.527,32.621 309.378,33.251 310.238 C 33.882 311.097,34.398 311.904,34.398 312.032 C 34.398 312.159,34.656 312.590,34.971 312.990 L 35.545 313.716 58.838 300.265 L 82.132 286.814 80.343 286.404 C 77.291 285.705,75.152 283.530,74.340 280.299 C 73.761 277.998,74.223 276.566,77.694 269.896 C 79.322 266.768,85.519 254.775,91.466 243.243 C 97.413 231.712,103.077 220.766,104.053 218.919 C 105.029 217.072,105.714 215.564,105.575 215.567 C 105.437 215.571,84.433 227.622,58.900 242.349 " stroke="none" fill="#256fec" fill-rule="evenodd"></path></g></svg>