<?xml version="1.0" encoding="UTF-8"?><svg xmlns="http://www.w3.org/2000/svg" xmlns:xlink="http://www.w3.org/1999/xlink" viewBox="0 0 199.8 199.8"><defs><style>.e{fill:#fff;}.f{fill:url(#d);}</style><linearGradient id="d" x1="58.44" y1="-268.97" x2="128.78" y2="-268.97" gradientTransform="translate(0 -169.07) scale(1 -1)" gradientUnits="userSpaceOnUse"><stop offset="0" stop-color="#e8482f"/><stop offset=".5" stop-color="#ec6e19"/><stop offset="1" stop-color="#f39916"/></linearGradient></defs><g id="a"/><g id="b"><g id="c"><g><g><circle cx="99.9" cy="99.9" r="99.9" transform="translate(-41.38 99.9) rotate(-45)"/><path class="e" d="M100.83,15.73h-2.78C51.8,16.65,14.8,54.58,15.72,101.75c.92,46.25,38.85,83.25,86.03,82.33,45.33-.92,81.4-37,82.33-82.33,.93-46.25-37-85.1-83.25-86.03Zm-.92,157.25c-40.7,0-73.08-32.38-73.08-73.08S59.2,26.83,99.9,26.83s73.08,32.38,73.08,73.08-32.38,73.08-73.08,73.08Z"/><circle cx="99.9" cy="99.9" r="73.08" transform="translate(-41.38 99.9) rotate(-45)"/></g><path class="f" d="M105.08,144.85c-5.7,.11-11.33-1.19-16.4-3.8-4.98-2.6-9.18-6.46-12.2-11.2-3.41-5.49-5.69-11.61-6.7-18l2.7,3.7h-8c-1.6,.02-3.14-.59-4.3-1.7-2.29-2.33-2.29-6.07,0-8.4,1.1-1.19,2.68-1.81,4.3-1.7h7.2l-2.7,3.1c-.1-2.7-.1-5.1-.2-7.3-.02-2.21,.12-4.41,.4-6.6l2.6,3.1h-7.3c-1.61,.03-3.17-.58-4.34-1.7-1.14-1.09-1.76-2.62-1.7-4.2-.06-1.61,.55-3.17,1.7-4.3,1.17-1.09,2.7-1.7,4.3-1.7h8.8l-3.6,3.9c1.01-6.42,3.29-12.57,6.7-18.1,3.02-4.74,7.22-8.6,12.2-11.2,5.07-2.59,10.7-3.9,16.4-3.8,3.59,0,7.16,.5,10.6,1.5,3.48,.91,6.75,2.51,9.6,4.7,1.4,.92,2.48,2.25,3.1,3.8,.5,1.45,.6,3,.3,4.5-.24,1.46-.9,2.81-1.9,3.9-.91,1.12-2.26,1.81-3.7,1.9-1.75,.16-3.51-.26-5-1.2-1.69-1.1-3.55-1.91-5.5-2.4-2.03-.52-4.11-.79-6.2-.8-2.63-.04-5.24,.54-7.6,1.7-2.37,1.21-4.38,3.04-5.8,5.3-1.82,2.92-3.1,6.13-3.8,9.5l-2.4-3.4h15.4c1.61-.06,3.17,.55,4.3,1.7,1.1,1.12,1.72,2.63,1.7,4.2,0,1.57-.61,3.07-1.7,4.2-1.12,1.17-2.68,1.83-4.3,1.8h-17.4l3.2-2.7c-.1,1.8-.1,3.8-.1,6.1s0,4.3,.1,6.2l-3-1.9h17.2c1.61-.06,3.17,.55,4.3,1.7,2.2,2.37,2.2,6.03,0,8.4-1.1,1.19-2.68,1.81-4.3,1.7h-15l2.1-3.2c.7,3.37,1.98,6.58,3.8,9.5,1.39,2.28,3.4,4.12,5.8,5.3,2.38,1.11,4.97,1.68,7.6,1.7,2.06-.01,4.11-.28,6.1-.8,1.98-.59,3.89-1.4,5.7-2.4,1.53-.83,3.27-1.17,5-1,1.41,.22,2.7,.89,3.7,1.9,.93,1.04,1.55,2.32,1.8,3.7,.25,1.44,.15,2.91-.3,4.3-.54,1.57-1.56,2.93-2.9,3.9-2.8,2.24-6.03,3.88-9.5,4.8-3.47,1.29-7.16,1.9-10.86,1.8Z"/></g></g></g></svg>