<svg width="36" height="36" viewBox="0 0 36 36" fill="none" xmlns="http://www.w3.org/2000/svg">
<path d="M5.90625 17.7188C5.90625 11.1949 11.1949 5.90625 17.7188 5.90625H28.125C29.2123 5.90625 30.0938 6.78769 30.0938 7.875V18.2812C30.0938 24.8051 24.8051 30.0938 18.2812 30.0938H7.875C6.78769 30.0938 5.90625 29.2123 5.90625 28.125V17.7188Z" fill="black"/>
<path fill-rule="evenodd" clip-rule="evenodd" d="M18 26.7188C22.8152 26.7188 26.7188 22.8152 26.7188 18C26.7188 13.1848 22.8152 9.28125 18 9.28125C13.1848 9.28125 9.28125 13.1848 9.28125 18C9.28125 22.8152 13.1848 26.7188 18 26.7188ZM18 28.125C23.5919 28.125 28.125 23.5919 28.125 18C28.125 12.4081 23.5919 7.875 18 7.875C12.4081 7.875 7.875 12.4081 7.875 18C7.875 23.5919 12.4081 28.125 18 28.125Z" fill="white"/>
<path d="M18.6237 23.3356C17.9509 23.3488 17.2853 23.1938 16.6868 22.8845C16.099 22.5758 15.6021 22.1174 15.2459 21.5551C14.8429 20.9031 14.5738 20.1767 14.4546 19.4186L14.7734 19.8577H13.8286C13.6396 19.8597 13.4573 19.7873 13.3207 19.656C13.1909 19.5228 13.1182 19.3438 13.1182 19.1574C13.1182 18.971 13.1909 18.792 13.3207 18.6589C13.3851 18.5894 13.4641 18.5353 13.552 18.5004C13.6398 18.4655 13.7343 18.4507 13.8286 18.4571H14.679L14.3601 18.8251C14.3483 18.5046 14.3483 18.2197 14.3364 17.9586C14.3345 17.6967 14.3503 17.4349 14.3837 17.1752L14.6908 17.5431H13.8286C13.6396 17.5451 13.4573 17.4727 13.3207 17.3414C13.254 17.2773 13.2016 17.1997 13.167 17.1138C13.1324 17.0279 13.1163 16.9355 13.12 16.8428C13.1163 16.7484 13.1323 16.6543 13.1668 16.5664C13.2014 16.4785 13.2538 16.3988 13.3207 16.3324C13.4585 16.203 13.64 16.1309 13.8286 16.1307H14.8679L14.4427 16.5936C14.5619 15.8317 14.8309 15.1014 15.2341 14.4452C15.5903 13.8829 16.0872 13.4245 16.675 13.1157C17.2739 12.8078 17.9392 12.6528 18.6119 12.6647C19.0355 12.6639 19.4571 12.7239 19.8638 12.8427C20.2751 12.9505 20.6607 13.1402 20.9977 13.4006C21.1626 13.51 21.2903 13.6673 21.3638 13.8517C21.4224 14.0234 21.4347 14.2077 21.3992 14.3858C21.3712 14.5589 21.2932 14.7199 21.1748 14.8487C21.1215 14.9147 21.0551 14.9688 20.9799 15.0076C20.9047 15.0464 20.8222 15.0691 20.7378 15.0742C20.5307 15.0934 20.3232 15.0433 20.1473 14.9318C19.9481 14.801 19.7286 14.7047 19.4977 14.6469C19.2584 14.5855 19.0125 14.5536 18.7654 14.552C18.4545 14.5467 18.1469 14.6158 17.8678 14.7538C17.5874 14.8978 17.3507 15.1151 17.1828 15.3829C16.9682 15.7292 16.8163 16.1109 16.734 16.5105L16.4506 16.1069H18.2694C18.3634 16.1032 18.457 16.1193 18.5445 16.154C18.6319 16.1888 18.7112 16.2415 18.7773 16.3087C18.8418 16.3744 18.8928 16.4522 18.9273 16.5378C18.9617 16.6233 18.979 16.7149 18.978 16.8072C18.9776 16.9932 18.9057 17.1719 18.7773 17.3058C18.7118 17.3746 18.6329 17.4291 18.5455 17.4659C18.4581 17.5027 18.3641 17.5209 18.2694 17.5194H16.2143L16.5923 17.1989C16.5805 17.4126 16.5805 17.65 16.5805 17.923C16.5805 18.196 16.5805 18.4334 16.5923 18.6589L16.238 18.4334H18.2694C18.3634 18.4297 18.457 18.4458 18.5445 18.4805C18.6319 18.5152 18.7112 18.5679 18.7773 18.6352C18.9025 18.7706 18.9722 18.9487 18.9722 19.1337C18.9722 19.3186 18.9025 19.4967 18.7773 19.6322C18.7129 19.7017 18.6338 19.7558 18.546 19.7907C18.4581 19.8256 18.3637 19.8404 18.2694 19.834H16.4978L16.7458 19.4542C16.8281 19.8537 16.98 20.2355 17.1946 20.5818C17.3591 20.8524 17.5967 21.0705 17.8796 21.2109C18.161 21.3421 18.4671 21.4109 18.7773 21.4127C19.0204 21.4111 19.2624 21.3792 19.4977 21.3177C19.7317 21.2475 19.9574 21.1519 20.1709 21.0328C20.3515 20.9348 20.5572 20.8935 20.7614 20.9141C20.9274 20.9402 21.0807 21.0193 21.1984 21.1397C21.3083 21.2635 21.3819 21.4155 21.411 21.5789C21.4405 21.7494 21.4284 21.9245 21.3756 22.0892C21.3115 22.2753 21.1919 22.437 21.0331 22.5522C20.7024 22.8182 20.3203 23.0122 19.9111 23.1219C19.4995 23.2754 19.0625 23.3479 18.6237 23.3356V23.3356Z" fill="url(#paint0_linear_2047_20946)"/>
<defs>
<linearGradient id="paint0_linear_2047_20946" x1="13.1182" y1="18.0005" x2="21.4267" y2="18.0005" gradientUnits="userSpaceOnUse">
<stop stop-color="#E95130"/>
<stop offset="0.494792" stop-color="#ED6C0F"/>
<stop offset="1" stop-color="#F49844"/>
</linearGradient>
</defs>
</svg>
