<?xml version="1.0" encoding="UTF-8"?><svg xmlns="http://www.w3.org/2000/svg" xmlns:xlink="http://www.w3.org/1999/xlink" viewBox="0 0 199.8 199.8"><defs><style>.e{fill:#fff;}.f{fill:url(#d);}</style><linearGradient id="d" x1="69.57" y1="389.18" x2="130.23" y2="389.18" gradientTransform="translate(0 -289.28)" gradientUnits="userSpaceOnUse"><stop offset="0" stop-color="#e8482f"/><stop offset=".5" stop-color="#ec6e19"/><stop offset="1" stop-color="#f39916"/></linearGradient></defs><g id="a"/><g id="b"><g id="c"><g><g><circle cx="99.9" cy="99.9" r="99.9" transform="translate(-41.38 99.9) rotate(-45)"/><path class="e" d="M100.83,15.73h-2.78C51.8,16.65,14.8,54.58,15.72,101.75c.92,46.25,38.85,83.25,86.03,82.33,45.33-.92,81.4-37,82.33-82.33,.93-46.25-37-85.1-83.25-86.03Zm-.92,157.25c-40.7,0-73.08-32.38-73.08-73.08S59.2,26.83,99.9,26.83s73.08,32.38,73.08,73.08-32.38,73.08-73.08,73.08Z"/><circle cx="99.9" cy="99.9" r="73.08" transform="translate(-41.38 99.9) rotate(-45)"/></g><path class="f" d="M100.43,153.3c-1.8,.1-3.5-.6-4.8-1.9-1.2-1.2-1.9-2.9-1.9-4.7v-9.2l2.9,2.7c-4.5-.1-9-.7-13.3-1.9-3.3-.9-6.5-2.2-9.6-3.7-1.5-.7-2.7-1.9-3.4-3.4-.6-1.4-.9-2.9-.7-4.4,.1-1.5,.7-2.9,1.6-4,.9-1.2,2.1-2,3.5-2.3,1.7-.3,3.4,0,4.9,.8,2.4,1.2,4.9,2.2,7.5,2.9,3.8,1,7.8,1.5,11.8,1.4,2.8,.1,5.6-.3,8.4-1.1,1.8-.5,3.4-1.6,4.5-3.1,.9-1.3,1.4-2.8,1.4-4.4,0-1.3-.3-2.5-1-3.6-.8-1.2-1.9-2.1-3.2-2.7-2-.9-4-1.6-6.2-2l-12.3-2.7c-6.8-1.6-11.9-4.1-15.2-7.7-3.4-3.6-5-8.3-5-14-.1-4.2,1.1-8.4,3.2-12,2.2-3.6,5.4-6.5,9.1-8.5,4.3-2.2,9-3.6,13.8-4l-2.8,1.8v-8.5c-.1-1.8,.6-3.5,1.9-4.8,1.3-1.2,3-1.9,4.8-1.8,1.8,0,3.4,.6,4.7,1.8,1.3,1.3,2,3,1.9,4.8v8.5l-2.8-1.9c3.3,.1,6.7,.7,9.9,1.6,3.3,.9,6.5,2.4,9.3,4.3,1.3,.8,2.4,2,3,3.4,.5,1.3,.7,2.7,.4,4s-.9,2.5-1.8,3.5c-.9,1-2.2,1.7-3.5,2-1.7,.2-3.5-.2-5-1.1-2.1-1-4.3-1.8-6.6-2.4-2.9-.7-5.8-1-8.8-1-4.5,0-7.9,.9-10.3,2.7-2.3,1.6-3.6,4.2-3.6,7-.1,1.9,.7,3.7,2.1,4.9,1.4,1.3,3.9,2.3,7.6,3.1l12.5,2.6c7.1,1.6,12.3,4.1,15.8,7.6s5.1,8.1,5.1,13.8c.1,4.1-1.1,8.1-3.2,11.6-2.2,3.5-5.3,6.3-9,8.2-4.2,2.2-8.7,3.5-13.3,4.1l2.4-2.6v9.4c0,1.8-.6,3.5-1.9,4.7-1.3,1.6-3,2.2-4.8,2.2Z"/></g></g></g></svg>