<?xml version="1.0" encoding="utf-8"?>
<svg version="1.1" id="Layer_1" xmlns="http://www.w3.org/2000/svg" xmlns:xlink="http://www.w3.org/1999/xlink" x="0px" y="0px"
	 viewBox="0 0 36 36" style="enable-background:new 0 0 36 36;" xml:space="preserve">
<style type="text/css">
	.st0-BDUS{fill:url(#SVGID_1_);}
	.st1-BDUS{fill:#FFFFFF;}
</style>
<g>
	<path fill="black" d="M22.5,6h5.4c0.9,0,1.7,0.6,2,1.4C30,7.6,30,7.8,30,8c0,3.4,0,6.8,0,10.1C29.9,24.7,24.5,30,17.9,30H8.1c-1,0-1.8-0.6-2-1.6
		c0-0.2,0-0.3,0-0.5c0-3.3,0-6.7,0-10c0-5.2,3.3-9.8,8.3-11.4C15.6,6.2,16.8,6,18,6H22.5z M18,28.1c5.6,0,10.1-4.5,10.1-10.1
		S23.6,7.9,18,7.9C12.4,7.9,7.9,12.4,7.9,18C7.9,23.6,12.4,28.1,18,28.1z"/>
	<path fill="black" d="M9.1,18.1c0-4.9,4-8.9,8.9-8.9s8.9,4,8.9,8.9s-4,8.9-8.9,8.9S9.1,23,9.1,18.1C9.1,18.1,9.1,18.1,9.1,18.1z"/>
	
		<linearGradient id="SVGID_1_" gradientUnits="userSpaceOnUse" x1="14.36" y1="20.5893" x2="21.6442" y2="20.5893" gradientTransform="matrix(1 0 0 -1 0 38)">
		<stop  offset="0" style="stop-color:#E8482F"/>
		<stop  offset="0.5" style="stop-color:#EC6E19"/>
		<stop  offset="1" style="stop-color:#F39916"/>
	</linearGradient>
	<path class="st0-BDUS" d="M18.1,23.8c-0.2,0-0.4-0.1-0.6-0.2c-0.1-0.2-0.2-0.4-0.2-0.6v-1.1l0.4,0.3c-0.5,0-1.1-0.1-1.6-0.2
		c-0.4-0.1-0.8-0.3-1.1-0.4c-0.2-0.1-0.3-0.2-0.4-0.4c-0.1-0.2-0.1-0.3-0.1-0.5c0-0.2,0.1-0.3,0.2-0.5c0.1-0.1,0.3-0.2,0.4-0.3
		c0.2,0,0.4,0,0.6,0.1c0.3,0.1,0.6,0.3,0.9,0.4c0.5,0.1,0.9,0.2,1.4,0.2c0.3,0,0.7,0,1-0.1c0.2-0.1,0.4-0.2,0.5-0.4
		c0.1-0.2,0.2-0.3,0.2-0.5c0-0.2,0-0.3-0.1-0.4c-0.1-0.1-0.2-0.3-0.4-0.3c-0.2-0.1-0.5-0.2-0.7-0.2l-1.5-0.3
		c-0.7-0.1-1.3-0.4-1.8-0.9c-0.4-0.5-0.6-1.1-0.6-1.7c0-0.5,0.1-1,0.4-1.4c0.3-0.4,0.7-0.8,1.1-1c0.5-0.3,1.1-0.4,1.7-0.5l-0.3,0.2
		v-1c0-0.2,0.1-0.4,0.2-0.6c0.2-0.1,0.4-0.2,0.6-0.2c0.2,0,0.4,0.1,0.6,0.2c0.2,0.2,0.2,0.4,0.2,0.6v1l-0.3-0.2
		c0.4,0,0.8,0.1,1.2,0.2c0.4,0.1,0.8,0.3,1.1,0.5c0.2,0.1,0.3,0.2,0.4,0.4c0.1,0.2,0.1,0.3,0,0.5c0,0.2-0.1,0.3-0.2,0.4
		c-0.1,0.1-0.3,0.2-0.4,0.2c-0.2,0-0.4,0-0.6-0.1c-0.3-0.1-0.5-0.2-0.8-0.3c-0.3-0.1-0.7-0.1-1.1-0.1c-0.4,0-0.9,0.1-1.2,0.3
		c-0.3,0.2-0.4,0.5-0.4,0.8c0,0.2,0.1,0.4,0.2,0.6c0.3,0.2,0.6,0.3,0.9,0.4l1.5,0.3c0.7,0.1,1.4,0.4,1.9,0.9c0.4,0.4,0.6,1,0.6,1.6
		c0,0.5-0.1,1-0.4,1.4c-0.3,0.4-0.6,0.8-1.1,1c-0.5,0.3-1,0.4-1.6,0.5l0.3-0.3V23c0,0.2-0.1,0.4-0.2,0.6
		C18.5,23.7,18.3,23.8,18.1,23.8z"/>
	<g>
		<path class="st1-BDUS" d="M28.1,18c0-5.6-4.5-10.1-10.1-10.1C12.4,7.9,7.9,12.4,7.9,18c0,5.6,4.5,10.1,10.1,10.1
			C23.6,28.1,28.1,23.6,28.1,18z M9.1,18.1c0-4.9,4-8.9,8.9-8.9c4.9,0,8.9,4,8.9,8.9c0,4.9-4,8.9-8.9,8.9S9.1,23,9.1,18.1z"/>
	</g>
</g>
</svg>
