<svg id="svg" version="1.1" xmlns="http://www.w3.org/2000/svg" xmlns:xlink="http://www.w3.org/1999/xlink" width="400" height="400" viewBox="0, 0, 400,400"><g id="svgg"><path id="path0" d="M197.483 70.269 C 197.169 70.891,196.794 71.892,196.650 72.493 C 196.506 73.095,195.598 74.476,194.632 75.564 C 193.667 76.651,192.753 78.103,192.602 78.790 C 192.431 79.571,191.846 80.356,191.044 80.881 C 190.090 81.507,189.572 82.312,189.027 84.020 C 188.548 85.516,187.701 86.953,186.594 88.141 C 185.613 89.194,184.791 90.525,184.647 91.291 C 184.510 92.020,183.653 93.513,182.743 94.608 C 181.833 95.704,180.855 97.153,180.569 97.829 C 180.283 98.504,179.510 99.584,178.852 100.229 C 178.194 100.873,177.308 102.210,176.883 103.200 C 176.458 104.190,175.429 105.810,174.597 106.800 C 173.765 107.790,172.851 109.153,172.566 109.829 C 172.282 110.504,171.510 111.584,170.852 112.229 C 170.194 112.873,169.308 114.210,168.883 115.200 C 168.458 116.190,167.429 117.810,166.597 118.800 C 165.765 119.790,164.853 121.140,164.570 121.800 C 164.288 122.460,163.424 123.665,162.650 124.478 C 161.876 125.292,161.057 126.642,160.831 127.478 C 160.604 128.315,159.710 129.855,158.845 130.901 C 157.979 131.946,156.883 133.603,156.409 134.582 C 155.934 135.562,155.224 136.465,154.830 136.590 C 154.158 136.804,153.178 138.613,152.588 140.726 C 152.446 141.236,151.535 142.547,150.565 143.640 C 146.441 148.283,150.792 151.371,155.372 147.052 C 156.862 145.647,157.868 145.079,160.041 144.416 C 160.834 144.175,161.914 143.517,162.441 142.954 C 163.362 141.972,166.286 140.400,167.192 140.400 C 167.431 140.400,168.196 139.818,168.892 139.106 C 169.659 138.321,171.189 137.452,172.779 136.898 C 174.511 136.293,175.829 135.517,176.664 134.608 C 177.360 133.852,178.440 133.113,179.064 132.966 C 179.689 132.819,181.010 132.037,182.000 131.227 C 183.864 129.704,185.260 129.036,187.517 128.590 C 188.241 128.446,189.663 127.611,190.678 126.732 C 191.693 125.854,193.441 124.725,194.562 124.224 C 196.466 123.373,198.508 121.529,200.115 119.211 C 201.000 117.933,201.120 74.054,200.245 71.632 C 199.462 69.468,198.201 68.845,197.483 70.269 M145.834 149.945 C 145.472 150.531,146.059 150.716,147.200 150.377 C 147.750 150.213,147.990 150.062,147.733 150.040 C 147.476 150.018,146.999 149.898,146.673 149.773 C 146.347 149.648,145.970 149.725,145.834 149.945 M133.485 169.927 C 133.160 170.297,132.758 171.050,132.591 171.600 C 132.423 172.150,131.682 173.118,130.943 173.751 C 130.204 174.384,129.600 175.228,129.600 175.627 C 129.600 176.026,129.440 176.451,129.245 176.572 C 129.050 176.693,128.770 177.434,128.623 178.219 C 128.475 179.005,127.770 180.312,127.054 181.124 C 125.605 182.769,124.952 184.636,124.582 188.200 C 124.424 189.723,123.853 191.550,123.020 193.200 C 120.989 197.219,120.800 198.831,120.800 212.120 C 120.801 224.985,121.189 228.905,122.677 231.063 C 123.750 232.620,124.317 234.235,124.622 236.600 C 125.021 239.689,125.903 241.965,127.209 243.270 C 127.864 243.925,128.400 244.722,128.400 245.041 C 128.400 246.432,130.043 250.105,131.170 251.232 C 131.846 251.908,132.400 252.727,132.400 253.051 C 132.400 253.986,133.613 256.105,134.810 257.260 C 135.414 257.843,136.419 259.227,137.042 260.336 C 137.665 261.444,138.586 262.539,139.089 262.768 C 139.591 262.997,140.378 263.953,140.837 264.892 C 141.345 265.933,142.165 266.846,142.936 267.230 C 143.631 267.576,144.560 268.406,145.000 269.074 C 145.440 269.742,146.610 270.664,147.600 271.123 C 148.590 271.581,150.289 272.765,151.376 273.752 C 152.463 274.739,154.034 275.855,154.867 276.230 C 155.700 276.606,156.476 277.203,156.592 277.557 C 156.707 277.911,157.893 278.707,159.227 279.327 C 160.561 279.947,162.025 280.883,162.481 281.407 C 162.937 281.932,163.823 282.473,164.450 282.611 C 165.078 282.749,165.694 283.028,165.819 283.231 C 165.945 283.434,166.840 283.600,167.810 283.600 C 169.881 283.600,172.295 284.639,172.623 285.671 C 172.867 286.442,173.114 286.522,177.200 287.160 C 184.682 288.328,187.524 288.938,188.723 289.633 C 189.806 290.261,190.836 290.400,194.413 290.400 L 198.780 290.400 198.542 289.100 C 198.412 288.385,197.876 286.491,197.352 284.892 C 196.829 283.292,196.400 281.730,196.400 281.420 C 196.400 281.110,195.770 280.189,195.000 279.373 C 194.230 278.556,193.600 277.654,193.600 277.368 C 193.600 277.081,193.440 276.749,193.245 276.628 C 193.050 276.507,192.774 275.789,192.632 275.031 C 192.487 274.259,191.793 273.071,191.052 272.327 C 189.463 270.732,188.990 269.871,188.640 267.929 C 188.488 267.085,187.831 265.890,187.100 265.129 C 185.471 263.430,184.946 262.447,184.612 260.471 C 184.462 259.580,183.782 258.196,183.071 257.333 C 181.349 255.242,180.947 254.451,180.621 252.523 C 180.461 251.579,179.800 250.219,179.071 249.333 C 177.437 247.348,176.971 246.490,176.600 244.787 C 176.435 244.024,175.602 242.522,174.750 241.449 C 173.898 240.375,172.990 238.792,172.732 237.929 C 172.473 237.067,171.704 235.871,171.021 235.272 C 169.904 234.291,168.400 230.912,168.400 229.383 C 168.400 229.093,167.799 228.220,167.065 227.441 C 165.880 226.185,164.400 222.820,164.400 221.383 C 164.400 221.093,163.795 220.216,163.056 219.432 C 162.261 218.589,161.420 217.065,160.998 215.703 C 160.528 214.184,159.711 212.780,158.600 211.578 C 157.342 210.218,156.846 209.302,156.646 207.965 C 156.443 206.612,155.951 205.716,154.637 204.305 C 153.331 202.903,152.830 201.995,152.631 200.671 C 152.464 199.554,151.895 198.332,151.083 197.347 C 149.349 195.241,148.947 194.454,148.621 192.523 C 148.461 191.579,147.800 190.219,147.071 189.333 C 145.437 187.348,144.971 186.490,144.600 184.787 C 144.435 184.024,143.591 182.508,142.726 181.418 C 141.861 180.329,140.939 178.619,140.677 177.618 C 140.344 176.347,139.645 175.259,138.354 174.000 C 137.339 173.010,136.221 171.637,135.869 170.948 C 135.077 169.399,134.257 169.047,133.485 169.927 M6.112 333.600 C 6.267 354.472,6.131 353.490,8.894 353.698 C 10.060 353.786,10.226 353.925,10.080 354.693 C 9.986 355.185,10.048 355.905,10.218 356.293 C 10.388 356.682,10.498 357.135,10.464 357.300 C 10.429 357.465,10.670 357.623,11.000 357.650 C 11.330 357.678,11.780 357.745,12.000 357.800 C 12.220 357.855,13.650 357.923,15.178 357.950 L 17.956 358.000 18.078 359.900 L 18.200 361.800 22.079 361.914 L 25.957 362.028 26.079 363.914 L 26.200 365.800 30.100 365.914 L 34.000 366.029 34.000 367.191 C 34.000 367.830,34.183 368.466,34.407 368.604 C 34.630 368.742,34.709 369.023,34.583 369.228 C 34.456 369.432,34.588 369.626,34.876 369.657 C 36.474 369.831,39.015 369.937,42.300 369.966 L 46.000 370.000 46.000 371.176 C 46.000 371.823,46.183 372.466,46.407 372.604 C 46.630 372.742,46.709 373.023,46.583 373.228 C 46.456 373.432,46.588 373.626,46.876 373.657 C 48.764 373.862,51.517 373.937,58.300 373.966 L 66.000 374.000 66.000 375.586 C 66.000 377.083,66.834 378.133,67.884 377.958 C 68.058 377.929,72.160 377.928,77.000 377.955 L 85.800 378.005 86.481 379.203 C 86.856 379.861,86.978 380.400,86.753 380.400 C 86.527 380.400,86.632 380.689,86.986 381.043 C 87.341 381.398,87.980 381.594,88.414 381.480 C 88.846 381.367,89.200 381.446,89.200 381.655 C 89.200 381.864,89.425 382.006,89.700 381.970 C 89.975 381.934,97.355 381.927,106.100 381.953 L 122.000 382.000 122.000 383.176 C 122.000 383.823,122.183 384.466,122.407 384.604 C 122.630 384.742,122.722 385.002,122.611 385.182 C 122.500 385.362,122.812 385.617,123.304 385.748 C 124.829 386.156,278.742 386.017,278.995 385.608 C 279.122 385.403,279.519 385.348,279.878 385.485 C 280.350 385.666,280.440 385.589,280.204 385.206 C 279.976 384.837,280.030 384.771,280.383 384.989 C 281.027 385.388,281.655 384.435,281.364 383.500 C 281.244 383.115,281.349 382.800,281.597 382.800 C 281.844 382.800,281.936 382.620,281.800 382.400 C 281.637 382.137,286.107 381.985,294.876 381.957 C 311.202 381.905,310.800 381.917,310.800 381.493 C 310.800 381.302,311.130 381.251,311.533 381.379 C 312.461 381.673,313.714 380.361,313.367 379.458 C 313.222 379.079,313.312 378.800,313.581 378.800 C 313.837 378.800,313.936 378.620,313.800 378.400 C 313.638 378.138,316.773 377.985,322.876 377.957 C 334.812 377.903,334.800 377.903,334.800 377.493 C 334.800 377.302,335.130 377.251,335.533 377.379 C 336.461 377.673,337.714 376.361,337.367 375.458 C 337.222 375.079,337.312 374.800,337.581 374.800 C 337.837 374.800,337.936 374.620,337.800 374.400 C 337.604 374.083,348.820 373.687,350.500 373.953 C 350.665 373.979,350.800 373.808,350.800 373.573 C 350.800 373.338,351.130 373.251,351.533 373.379 C 352.461 373.673,353.714 372.361,353.367 371.458 C 353.222 371.079,353.312 370.800,353.581 370.800 C 353.837 370.800,353.936 370.620,353.800 370.400 C 353.640 370.140,355.569 370.000,359.296 370.000 C 365.703 370.000,366.000 369.890,366.000 367.520 L 366.000 366.000 370.100 365.953 C 372.355 365.927,374.335 365.927,374.500 365.953 C 374.665 365.979,374.800 365.808,374.800 365.573 C 374.800 365.338,375.130 365.251,375.533 365.379 C 376.461 365.673,377.714 364.361,377.367 363.458 C 377.222 363.079,377.312 362.800,377.581 362.800 C 377.837 362.800,377.942 362.630,377.813 362.421 C 377.680 362.206,378.491 361.990,379.690 361.921 L 381.800 361.800 381.922 359.900 L 382.044 358.000 383.922 357.977 C 389.821 357.905,389.905 357.820,389.977 351.900 L 390.000 350.000 391.520 350.000 C 394.085 350.000,394.001 350.565,393.995 333.420 C 393.988 315.219,394.086 316.000,391.807 316.000 C 390.270 316.000,390.006 316.152,389.063 317.577 C 388.392 318.590,387.372 319.441,386.209 319.955 C 385.214 320.395,384.400 320.936,384.400 321.157 C 384.400 321.906,382.608 323.425,380.800 324.209 C 379.810 324.638,378.645 325.313,378.210 325.708 C 377.268 326.565,373.851 328.224,372.187 328.632 C 371.534 328.792,370.910 329.049,370.800 329.202 C 369.906 330.447,366.642 331.722,362.046 332.622 C 361.301 332.768,359.501 333.474,358.046 334.191 C 355.506 335.443,353.268 336.043,349.041 336.606 C 347.964 336.749,346.749 337.032,346.341 337.233 C 345.934 337.435,345.283 337.755,344.895 337.944 C 343.331 338.707,339.546 339.564,335.000 340.184 C 330.560 340.790,329.117 341.121,327.000 342.021 C 325.693 342.576,317.624 343.716,307.200 344.818 C 304.670 345.086,301.790 345.579,300.800 345.914 C 298.191 346.799,290.281 347.588,274.000 348.589 C 269.050 348.893,263.513 349.426,261.696 349.773 C 248.440 352.304,156.299 352.742,144.600 350.330 C 141.878 349.768,137.495 349.363,126.400 348.645 C 121.230 348.311,114.750 347.863,112.000 347.650 C 106.828 347.250,97.054 345.756,96.000 345.205 C 95.670 345.033,94.050 344.774,92.400 344.630 C 84.841 343.970,75.699 342.641,74.447 342.019 C 73.171 341.386,70.959 340.849,68.600 340.600 C 66.284 340.356,65.221 340.186,59.600 339.161 C 58.170 338.900,56.100 338.290,55.000 337.806 C 53.900 337.321,51.200 336.603,49.000 336.211 C 44.242 335.363,41.862 334.641,40.406 333.604 C 39.815 333.184,37.997 332.549,36.366 332.193 C 32.860 331.428,30.638 330.624,29.199 329.599 C 28.623 329.189,27.628 328.722,26.987 328.561 C 25.489 328.185,23.267 326.904,22.019 325.697 C 21.480 325.175,20.499 324.640,19.839 324.508 C 19.142 324.368,17.831 323.447,16.712 322.310 C 15.652 321.234,14.158 320.091,13.393 319.771 C 12.627 319.451,11.598 318.576,11.107 317.826 C 10.303 316.601,10.000 316.450,8.098 316.332 L 5.983 316.200 6.112 333.600 " stroke="none" fill="#58b94c" fill-rule="evenodd"></path><path id="path1" d="M196.785 68.100 C 196.320 68.595,195.601 69.737,195.188 70.638 C 194.774 71.539,193.906 72.844,193.259 73.537 C 192.611 74.230,191.749 75.722,191.342 76.852 C 190.881 78.137,190.267 79.060,189.704 79.316 C 189.197 79.547,188.282 80.801,187.604 82.192 C 186.943 83.549,185.952 85.082,185.401 85.599 C 184.851 86.116,184.400 86.778,184.400 87.070 C 184.400 87.361,184.248 87.600,184.063 87.600 C 183.878 87.600,183.516 88.303,183.258 89.163 C 183.001 90.023,182.252 91.302,181.595 92.005 C 180.938 92.709,180.400 93.536,180.400 93.842 C 180.400 94.149,180.220 94.400,180.000 94.400 C 179.780 94.400,179.600 94.670,179.600 95.000 C 179.600 95.330,179.420 95.600,179.200 95.600 C 178.980 95.600,178.800 95.868,178.800 96.197 C 178.800 96.525,178.268 97.302,177.617 97.923 C 176.966 98.545,176.092 99.852,175.673 100.827 C 175.254 101.802,174.347 103.204,173.656 103.942 C 172.965 104.681,172.400 105.536,172.400 105.842 C 172.400 106.149,172.220 106.400,172.000 106.400 C 171.780 106.400,171.600 106.670,171.600 107.000 C 171.600 107.330,171.420 107.600,171.200 107.600 C 170.980 107.600,170.800 107.868,170.800 108.197 C 170.800 108.525,170.268 109.302,169.617 109.923 C 168.966 110.545,168.092 111.852,167.673 112.827 C 167.254 113.802,166.347 115.204,165.656 115.942 C 164.965 116.681,164.400 117.536,164.400 117.842 C 164.400 118.149,164.220 118.400,164.000 118.400 C 163.780 118.400,163.600 118.670,163.600 119.000 C 163.600 119.330,163.420 119.600,163.200 119.600 C 162.980 119.600,162.800 119.868,162.800 120.197 C 162.800 120.525,162.268 121.302,161.617 121.923 C 160.966 122.545,160.088 123.852,159.665 124.827 C 159.242 125.802,158.352 127.278,157.687 128.106 C 157.022 128.934,155.925 130.758,155.249 132.159 C 154.574 133.560,153.742 134.813,153.402 134.944 C 153.061 135.075,152.249 136.334,151.598 137.742 C 150.946 139.150,149.899 140.852,149.271 141.524 C 148.643 142.196,147.801 143.613,147.399 144.673 C 146.998 145.733,145.979 147.275,145.135 148.100 C 143.352 149.841,143.363 149.782,144.375 152.141 C 145.232 154.141,145.985 154.748,149.134 155.980 C 150.308 156.439,151.859 157.442,152.581 158.208 C 153.304 158.973,154.178 159.600,154.524 159.600 C 154.870 159.600,155.252 159.760,155.373 159.956 C 155.494 160.151,156.083 160.434,156.683 160.585 C 157.282 160.735,158.589 161.446,159.586 162.165 C 160.584 162.883,162.210 163.784,163.200 164.166 C 164.190 164.549,165.450 165.283,166.000 165.798 C 166.865 166.608,171.095 168.800,171.792 168.800 C 171.926 168.800,172.517 169.247,173.106 169.793 C 173.694 170.339,175.325 171.245,176.729 171.807 C 178.194 172.394,179.838 173.419,180.588 174.215 C 181.306 174.977,182.178 175.600,182.524 175.600 C 182.870 175.600,183.252 175.760,183.373 175.956 C 183.494 176.151,184.083 176.434,184.683 176.585 C 185.282 176.735,186.589 177.446,187.586 178.165 C 188.584 178.883,190.210 179.784,191.200 180.166 C 192.190 180.549,193.450 181.278,194.000 181.788 C 194.550 182.297,195.748 183.068,196.661 183.502 L 198.323 184.290 199.561 183.233 L 200.800 182.176 200.800 154.294 C 200.800 127.972,200.880 125.562,201.869 122.031 C 201.983 121.621,202.214 121.732,202.696 122.431 C 203.633 123.792,204.220 124.173,206.643 124.997 C 207.813 125.395,209.290 126.228,209.925 126.848 C 210.560 127.469,211.943 128.347,213.000 128.800 C 214.057 129.253,215.507 130.138,216.223 130.767 C 216.939 131.395,218.702 132.301,220.140 132.780 C 221.688 133.295,223.366 134.211,224.255 135.025 C 225.081 135.781,225.899 136.400,226.074 136.400 C 226.971 136.400,230.421 138.235,230.603 138.809 C 230.841 139.560,231.690 140.023,234.708 141.048 C 235.867 141.442,237.316 142.253,237.929 142.852 C 238.541 143.450,240.049 144.386,241.281 144.931 C 242.513 145.475,243.860 146.260,244.274 146.674 C 245.261 147.661,247.357 148.638,249.817 149.259 C 250.908 149.534,252.084 149.993,252.431 150.280 C 253.164 150.883,254.253 150.962,254.578 150.436 C 254.958 149.821,254.354 148.800,253.609 148.800 C 253.073 148.800,252.857 148.380,252.707 147.052 C 252.527 145.459,250.990 142.647,249.463 141.120 C 249.166 140.823,248.593 139.865,248.189 138.990 C 247.785 138.116,246.768 136.639,245.928 135.709 C 245.087 134.779,244.400 133.821,244.400 133.581 C 244.400 133.115,242.362 130.019,241.463 129.120 C 241.166 128.823,240.593 127.865,240.189 126.990 C 239.785 126.116,238.768 124.639,237.928 123.709 C 237.087 122.779,236.400 121.823,236.400 121.584 C 236.400 120.640,234.237 116.802,233.589 116.596 C 233.210 116.476,232.578 115.533,232.183 114.500 C 231.789 113.468,231.319 112.438,231.139 112.212 C 230.959 111.985,230.378 111.256,229.847 110.591 C 229.316 109.926,228.475 108.576,227.978 107.591 C 227.481 106.606,226.587 105.260,225.993 104.600 C 225.398 103.940,224.573 102.770,224.160 102.000 C 223.747 101.230,222.835 99.866,222.134 98.968 C 221.432 98.071,220.457 96.541,219.966 95.568 C 219.475 94.596,218.587 93.260,217.993 92.600 C 217.398 91.940,216.573 90.770,216.160 90.000 C 215.747 89.230,214.822 87.850,214.104 86.932 C 213.387 86.015,212.358 84.386,211.818 83.311 C 211.279 82.237,210.448 81.007,209.972 80.579 C 209.496 80.150,208.703 78.890,208.210 77.779 C 207.717 76.667,206.747 75.111,206.053 74.322 C 205.360 73.533,204.435 72.102,203.997 71.143 C 202.827 68.584,202.230 67.969,200.530 67.574 C 198.236 67.042,197.711 67.115,196.785 68.100 M201.300 69.132 C 201.905 69.484,202.400 70.031,202.400 70.346 C 202.400 71.473,204.548 75.286,205.636 76.090 C 206.305 76.584,206.953 77.619,207.272 78.700 C 207.768 80.382,209.285 82.400,210.055 82.400 C 210.245 82.400,210.400 82.645,210.400 82.944 C 210.400 83.906,212.905 88.379,213.563 88.594 C 213.913 88.708,214.685 89.845,215.277 91.121 C 215.913 92.490,216.774 93.665,217.377 93.988 C 217.940 94.289,218.400 94.749,218.400 95.011 C 218.400 95.922,220.930 100.388,221.563 100.594 C 221.913 100.708,222.685 101.845,223.277 103.121 C 223.913 104.490,224.774 105.665,225.377 105.988 C 225.940 106.289,226.400 106.749,226.400 107.011 C 226.400 107.994,228.955 112.395,229.654 112.617 C 230.071 112.750,230.557 113.499,230.792 114.372 C 231.190 115.848,232.298 117.565,233.650 118.800 C 234.012 119.130,234.640 120.363,235.047 121.541 C 235.564 123.034,236.242 124.041,237.294 124.874 C 238.122 125.530,238.800 126.407,238.800 126.821 C 238.800 127.865,240.243 130.417,241.446 131.500 C 241.995 131.995,242.793 133.188,243.219 134.150 C 243.645 135.112,244.625 136.382,245.397 136.970 C 246.168 137.559,246.800 138.356,246.800 138.742 C 246.800 139.897,248.799 143.546,249.566 143.789 C 251.071 144.267,251.458 147.600,250.009 147.600 C 249.404 147.600,246.800 145.946,246.800 145.563 C 246.800 145.198,244.183 143.891,242.442 143.387 C 241.915 143.234,240.953 142.566,240.304 141.902 C 239.570 141.151,238.044 140.334,236.262 139.740 C 234.633 139.196,233.055 138.377,232.600 137.839 C 232.160 137.319,230.630 136.297,229.200 135.568 C 227.770 134.839,226.320 133.930,225.977 133.549 C 225.634 133.167,224.554 132.553,223.577 132.184 C 220.309 130.949,219.003 130.289,218.655 129.697 C 218.465 129.373,217.115 128.568,215.655 127.906 C 214.195 127.245,212.537 126.221,211.971 125.630 C 211.353 124.985,209.812 124.199,208.106 123.661 C 206.175 123.052,205.067 122.457,204.635 121.797 C 203.079 119.422,200.881 119.982,200.180 122.931 C 200.015 123.629,199.771 137.212,199.640 153.115 C 199.386 183.664,199.415 183.238,197.667 182.596 C 197.374 182.488,196.981 182.400,196.794 182.400 C 196.607 182.400,196.352 182.078,196.227 181.684 C 195.970 180.875,192.458 178.975,190.518 178.595 C 189.720 178.439,189.139 178.038,188.979 177.533 C 188.712 176.692,185.673 175.137,183.273 174.614 C 182.543 174.455,181.837 174.040,181.704 173.693 C 181.272 172.568,180.229 171.816,178.011 171.031 C 176.815 170.607,175.363 169.776,174.784 169.184 C 173.879 168.258,169.893 166.400,168.812 166.400 C 168.615 166.400,168.352 166.078,168.227 165.684 C 167.970 164.875,164.458 162.975,162.518 162.595 C 161.720 162.439,161.139 162.038,160.979 161.533 C 160.712 160.692,157.673 159.137,155.273 158.614 C 154.543 158.455,153.837 158.040,153.704 157.693 C 153.269 156.560,152.223 155.813,149.992 155.044 C 144.989 153.317,143.542 150.960,145.907 148.388 C 146.715 147.509,147.697 145.974,148.089 144.977 C 148.480 143.980,149.250 142.679,149.800 142.086 C 150.350 141.493,151.279 140.030,151.864 138.834 C 152.449 137.638,153.400 136.165,153.977 135.561 C 154.555 134.957,155.460 133.593,155.989 132.531 C 156.518 131.469,157.185 130.364,157.471 130.076 C 157.757 129.787,158.837 128.032,159.871 126.176 C 160.905 124.319,161.888 122.800,162.056 122.800 C 162.224 122.800,163.002 121.654,163.785 120.254 C 164.568 118.853,165.644 117.238,166.175 116.665 C 166.707 116.091,167.720 114.537,168.426 113.211 C 169.133 111.885,169.858 110.800,170.036 110.800 C 170.215 110.800,171.002 109.654,171.785 108.254 C 172.568 106.853,173.644 105.238,174.175 104.665 C 174.707 104.091,175.720 102.537,176.426 101.211 C 177.133 99.885,177.854 98.800,178.028 98.800 C 178.203 98.800,179.114 97.450,180.052 95.800 C 180.991 94.150,181.894 92.800,182.059 92.800 C 182.224 92.800,183.109 91.360,184.024 89.600 C 184.940 87.840,185.822 86.400,185.985 86.400 C 186.147 86.400,186.892 85.196,187.639 83.723 C 188.386 82.251,189.552 80.496,190.230 79.823 C 190.908 79.151,191.767 77.824,192.138 76.875 C 192.509 75.927,193.243 74.687,193.768 74.121 C 194.293 73.555,194.961 72.621,195.252 72.046 C 197.441 67.724,198.227 67.345,201.300 69.132 M133.122 167.644 C 132.529 168.079,131.635 169.102,131.135 169.917 C 130.635 170.733,129.831 171.716,129.348 172.102 C 128.865 172.488,127.964 174.108,127.346 175.702 C 126.728 177.296,125.935 178.812,125.585 179.071 C 124.696 179.728,123.796 182.046,122.971 185.800 C 122.584 187.560,121.873 189.630,121.390 190.400 C 119.348 193.658,117.949 208.868,118.778 218.800 C 119.026 221.770,119.322 225.370,119.435 226.800 C 119.709 230.272,120.742 234.186,121.636 235.146 C 122.035 235.574,122.662 237.247,123.030 238.862 C 123.819 242.331,124.652 244.362,125.643 245.231 C 126.039 245.577,126.653 246.747,127.008 247.831 C 127.931 250.645,128.824 252.508,129.581 253.200 C 129.942 253.530,130.746 254.853,131.368 256.141 C 131.990 257.429,133.017 258.944,133.651 259.508 C 134.285 260.073,135.235 261.270,135.762 262.167 C 136.290 263.065,137.270 264.204,137.941 264.697 C 138.611 265.190,139.460 266.227,139.827 267.001 C 140.195 267.775,140.879 268.507,141.348 268.627 C 141.816 268.747,142.721 269.575,143.358 270.467 C 143.995 271.359,145.088 272.328,145.787 272.620 C 146.485 272.912,147.584 273.674,148.229 274.313 C 148.873 274.952,150.390 276.126,151.600 276.920 C 152.810 277.715,154.279 278.816,154.865 279.366 C 155.450 279.917,156.437 280.495,157.058 280.650 C 157.678 280.806,158.729 281.454,159.393 282.089 C 161.065 283.690,162.199 284.234,165.550 285.043 C 167.158 285.431,169.356 286.327,170.487 287.056 C 171.681 287.825,173.288 288.467,174.363 288.605 C 177.322 288.983,179.637 289.566,182.200 290.577 C 189.145 293.317,204.843 292.746,218.000 289.275 C 219.650 288.839,222.350 288.255,224.000 287.977 C 226.836 287.498,229.460 286.510,230.800 285.417 C 231.130 285.148,232.532 284.515,233.915 284.010 C 235.298 283.504,237.098 282.613,237.915 282.028 C 238.732 281.444,240.300 280.629,241.400 280.218 C 243.584 279.402,245.069 278.559,246.000 277.607 C 246.330 277.269,247.410 276.456,248.400 275.800 C 249.390 275.144,250.803 274.020,251.540 273.303 C 252.277 272.587,253.055 272.000,253.269 272.000 C 253.688 272.000,256.991 269.028,258.976 266.865 C 259.649 266.131,260.965 264.722,261.900 263.734 C 262.835 262.745,263.600 261.725,263.600 261.466 C 263.600 261.206,264.419 260.006,265.420 258.797 C 266.420 257.589,267.610 255.752,268.063 254.715 C 268.515 253.678,269.452 252.398,270.143 251.870 C 270.834 251.343,271.640 250.211,271.933 249.356 C 272.684 247.165,273.599 245.168,274.387 244.000 C 274.759 243.450,275.370 241.740,275.747 240.200 C 276.685 236.362,277.612 233.633,278.476 232.164 C 281.560 226.923,281.166 198.703,277.901 191.031 C 276.742 188.306,275.950 185.646,275.440 182.755 C 275.299 181.960,274.819 180.980,274.374 180.576 C 273.548 179.829,273.016 178.799,271.810 175.609 C 271.438 174.623,270.473 173.083,269.667 172.185 C 268.860 171.287,267.796 170.068,267.303 169.476 C 266.057 167.982,264.187 168.952,263.421 171.490 C 263.273 171.979,262.542 172.956,261.796 173.659 C 260.423 174.955,260.040 175.700,259.253 178.619 C 259.013 179.509,258.289 180.829,257.643 181.552 C 256.461 182.876,255.860 184.104,255.434 186.065 C 255.306 186.651,254.653 187.641,253.982 188.265 C 252.766 189.397,252.239 190.334,251.070 193.443 C 250.730 194.347,249.928 195.610,249.288 196.251 C 248.552 196.986,247.794 198.480,247.228 200.311 C 246.682 202.073,245.899 203.639,245.228 204.311 C 244.556 204.982,243.773 206.549,243.228 208.311 C 242.682 210.073,241.899 211.639,241.228 212.311 C 240.558 212.980,239.774 214.546,239.234 216.289 C 238.626 218.254,238.106 219.239,237.592 219.403 C 236.920 219.616,234.800 223.360,234.800 224.332 C 234.800 224.541,234.080 225.584,233.200 226.649 C 232.320 227.714,231.600 228.983,231.600 229.469 C 231.600 229.955,231.420 230.464,231.200 230.600 C 230.980 230.736,230.800 231.190,230.800 231.608 C 230.800 232.026,230.461 232.691,230.046 233.084 C 228.894 234.177,227.603 236.497,227.601 237.476 C 227.601 237.958,227.420 238.464,227.200 238.600 C 226.980 238.736,226.800 239.190,226.800 239.608 C 226.800 240.026,226.461 240.691,226.046 241.084 C 224.973 242.103,223.603 244.473,223.601 245.314 C 223.600 246.174,222.479 248.004,221.519 248.714 C 220.813 249.237,220.222 250.385,219.018 253.573 C 218.649 254.549,217.910 255.867,217.374 256.504 C 216.838 257.141,216.400 257.918,216.400 258.231 C 216.400 258.544,216.220 258.800,216.000 258.800 C 215.780 258.800,215.600 259.149,215.600 259.576 C 215.600 260.003,215.443 260.450,215.252 260.568 C 215.060 260.686,214.799 261.304,214.672 261.941 C 214.545 262.577,213.919 263.619,213.282 264.256 C 212.553 264.986,211.792 266.486,211.228 268.311 C 210.682 270.073,209.899 271.639,209.228 272.311 C 208.560 272.979,207.774 274.544,207.238 276.277 C 206.640 278.208,206.046 279.340,205.411 279.756 C 204.829 280.137,204.010 281.562,203.267 283.486 C 202.145 286.394,202.048 286.520,201.805 285.400 C 201.662 284.740,201.377 283.787,201.172 283.281 C 200.952 282.736,200.800 266.765,200.800 244.043 C 200.800 201.138,201.086 205.094,197.900 203.969 C 197.075 203.678,196.400 203.336,196.400 203.211 C 196.400 203.085,195.770 202.643,195.000 202.228 C 194.230 201.813,193.600 201.322,193.600 201.137 C 193.600 200.952,193.402 200.800,193.160 200.800 C 192.213 200.800,189.718 199.381,188.109 197.928 C 187.179 197.087,186.125 196.400,185.767 196.400 C 184.889 196.400,181.410 194.627,180.350 193.639 C 179.879 193.201,178.618 192.527,177.547 192.142 C 176.476 191.757,175.600 191.298,175.600 191.121 C 175.600 190.944,175.408 190.800,175.173 190.800 C 174.939 190.800,174.174 190.365,173.473 189.833 C 172.773 189.302,171.390 188.549,170.400 188.161 C 169.410 187.773,168.510 187.339,168.400 187.197 C 168.290 187.056,167.615 186.599,166.900 186.184 C 166.185 185.768,165.600 185.286,165.600 185.114 C 165.600 184.941,165.402 184.800,165.160 184.800 C 164.213 184.800,161.718 183.381,160.109 181.928 C 159.179 181.087,158.125 180.400,157.767 180.400 C 156.889 180.400,153.410 178.627,152.350 177.639 C 151.879 177.201,150.618 176.527,149.547 176.142 C 148.476 175.757,147.600 175.298,147.600 175.121 C 147.600 174.944,147.408 174.800,147.173 174.800 C 146.939 174.800,146.174 174.378,145.473 173.862 C 144.773 173.346,143.022 172.344,141.582 171.635 C 140.142 170.926,138.309 169.728,137.509 168.973 C 136.708 168.218,135.807 167.600,135.507 167.600 C 135.206 167.600,134.789 167.432,134.580 167.227 C 134.344 166.995,133.792 167.153,133.122 167.644 M137.405 170.162 C 138.773 171.567,140.812 172.800,141.768 172.800 C 142.123 172.800,143.175 173.585,144.107 174.544 C 145.358 175.833,146.426 176.478,148.200 177.018 C 149.520 177.420,150.745 177.988,150.923 178.280 C 151.702 179.562,153.013 180.338,155.516 181.000 C 157.500 181.524,158.448 182.016,159.152 182.884 C 159.675 183.530,161.025 184.486,162.152 185.010 C 163.278 185.533,164.740 186.439,165.400 187.022 C 166.784 188.246,168.040 188.800,169.433 188.800 C 170.065 188.800,171.016 189.420,172.107 190.544 C 173.358 191.833,174.426 192.478,176.200 193.018 C 177.520 193.420,178.745 193.988,178.923 194.280 C 179.702 195.562,181.013 196.338,183.516 197.000 C 185.500 197.524,186.448 198.016,187.152 198.884 C 187.675 199.530,189.025 200.486,190.152 201.010 C 191.278 201.533,192.740 202.439,193.400 203.022 C 194.717 204.187,196.035 204.800,197.221 204.800 C 199.761 204.800,199.600 202.100,199.603 244.589 C 199.606 286.021,199.507 283.782,201.564 288.958 L 202.024 290.116 203.006 289.194 C 203.546 288.687,204.103 287.626,204.244 286.836 C 204.606 284.814,205.757 282.433,207.148 280.835 C 207.801 280.084,208.452 278.847,208.595 278.086 C 208.903 276.445,209.421 275.453,210.883 273.705 C 211.479 272.993,212.161 271.643,212.400 270.705 C 212.977 268.433,213.559 267.261,214.886 265.690 C 215.495 264.969,216.196 263.577,216.442 262.597 C 216.689 261.617,217.456 260.205,218.146 259.458 C 219.752 257.721,220.228 256.896,220.601 255.197 C 220.897 253.846,222.415 251.128,223.452 250.091 C 223.742 249.801,224.196 248.807,224.461 247.882 C 224.727 246.957,225.705 245.169,226.635 243.909 C 227.687 242.485,228.434 240.972,228.611 239.909 C 228.791 238.826,229.529 237.354,230.625 235.891 C 231.794 234.329,232.440 233.003,232.622 231.793 C 232.816 230.496,233.303 229.565,234.387 228.414 C 235.220 227.530,236.266 225.778,236.744 224.466 C 237.217 223.169,238.218 221.457,238.968 220.661 C 239.719 219.865,240.461 218.631,240.618 217.920 C 240.965 216.337,241.475 215.388,242.883 213.705 C 243.479 212.993,244.161 211.643,244.400 210.705 C 244.976 208.439,245.558 207.262,246.873 205.705 C 247.474 204.993,248.161 203.643,248.400 202.705 C 248.990 200.386,249.556 199.276,251.093 197.428 C 251.812 196.563,252.400 195.661,252.400 195.422 C 252.400 194.784,253.967 191.928,254.838 190.978 C 255.253 190.526,256.056 189.016,256.622 187.623 C 257.188 186.229,258.173 184.439,258.811 183.644 C 259.449 182.850,260.342 181.036,260.796 179.614 C 261.250 178.192,261.954 176.662,262.361 176.214 C 263.447 175.019,265.200 172.099,265.200 171.484 C 265.200 169.757,266.261 169.500,266.993 171.050 C 267.650 172.444,268.636 173.588,269.820 174.335 C 270.249 174.605,271.600 178.463,271.600 179.417 C 271.600 179.707,272.210 180.590,272.955 181.380 C 274.382 182.892,274.619 183.526,275.212 187.400 C 275.693 190.545,276.364 192.679,277.413 194.400 C 279.874 198.435,280.086 227.515,277.672 229.975 C 276.714 230.951,275.729 233.686,275.431 236.200 C 275.068 239.268,274.453 241.143,273.400 242.400 C 272.332 243.675,271.713 245.033,271.395 246.800 C 270.944 249.303,270.349 250.800,269.805 250.800 C 269.079 250.800,267.200 253.091,267.200 253.976 C 267.200 254.660,265.392 256.800,264.814 256.800 C 264.661 256.800,263.946 257.976,263.224 259.413 C 262.398 261.055,261.505 262.235,260.818 262.591 C 260.123 262.950,259.473 263.818,259.030 264.978 C 258.560 266.207,258.100 266.800,257.614 266.800 C 256.791 266.800,254.400 269.088,254.400 269.876 C 254.400 270.164,254.067 270.400,253.660 270.400 C 252.910 270.400,250.115 272.236,248.538 273.764 C 247.472 274.797,246.893 275.218,245.383 276.059 C 244.732 276.421,244.034 277.069,243.831 277.499 C 243.585 278.020,242.474 278.571,240.499 279.152 C 238.381 279.775,237.128 280.420,236.107 281.412 C 235.320 282.175,234.352 282.800,233.954 282.800 C 232.638 282.800,228.667 284.497,227.686 285.478 C 226.854 286.310,225.941 286.547,221.061 287.203 C 212.318 288.377,210.357 288.776,209.173 289.619 C 208.301 290.240,207.392 290.403,204.738 290.414 C 202.601 290.423,201.040 290.634,200.400 291.000 C 199.224 291.672,189.829 291.838,187.828 291.222 C 187.153 291.013,185.132 290.387,183.338 289.830 C 181.544 289.272,179.024 288.706,177.738 288.572 C 174.536 288.238,173.105 287.751,170.834 286.223 C 169.565 285.369,168.161 284.818,166.787 284.636 C 164.415 284.321,162.520 283.453,160.245 281.640 C 159.390 280.958,158.522 280.400,158.317 280.400 C 157.919 280.400,154.812 278.342,153.930 277.493 C 153.638 277.213,152.450 276.380,151.288 275.642 C 150.127 274.905,148.957 273.992,148.688 273.613 C 148.420 273.235,147.523 272.606,146.696 272.215 C 145.869 271.825,144.639 270.806,143.962 269.953 C 143.286 269.099,142.555 268.400,142.338 268.400 C 141.828 268.400,141.139 267.699,140.175 266.200 C 139.750 265.540,138.727 264.385,137.901 263.634 C 137.076 262.883,136.400 262.070,136.400 261.828 C 136.400 261.585,135.591 260.462,134.603 259.332 C 133.615 258.202,132.327 256.315,131.742 255.139 C 131.156 253.963,130.266 252.581,129.762 252.069 C 129.259 251.557,128.455 249.871,127.976 248.321 C 127.496 246.771,126.810 245.202,126.452 244.834 C 125.036 243.382,124.719 242.752,124.175 240.323 C 123.459 237.121,122.310 233.600,121.982 233.600 C 118.821 233.600,118.595 197.315,121.722 191.861 C 122.652 190.239,122.878 189.511,124.214 183.848 C 124.606 182.189,125.245 180.686,125.824 180.060 C 126.353 179.490,127.254 177.853,127.827 176.423 C 128.399 174.992,129.468 173.158,130.201 172.346 C 130.934 171.535,131.750 170.450,132.014 169.935 C 133.349 167.333,134.707 167.390,137.405 170.162 M68.685 281.848 C 68.582 281.952,65.415 282.054,61.649 282.076 C 57.882 282.098,54.800 282.232,54.800 282.374 C 54.800 282.516,54.305 282.624,53.700 282.616 C 53.027 282.606,52.639 282.794,52.700 283.100 C 52.755 283.375,52.620 283.600,52.400 283.600 C 52.180 283.600,52.000 283.330,52.000 283.000 C 52.000 282.670,51.820 282.400,51.600 282.400 C 51.380 282.400,51.245 282.625,51.300 282.900 C 51.355 283.175,51.130 283.352,50.800 283.294 C 50.340 283.213,50.364 283.317,50.900 283.738 C 51.766 284.419,51.794 284.800,50.976 284.800 C 50.633 284.800,50.456 284.968,50.583 285.172 C 51.012 285.866,50.023 286.039,45.406 286.078 C 42.873 286.100,40.800 286.274,40.800 286.466 C 40.800 286.658,40.320 286.695,39.734 286.548 C 38.855 286.327,38.712 286.395,38.920 286.935 C 39.071 287.329,38.984 287.552,38.704 287.495 C 38.447 287.443,38.228 287.796,38.218 288.280 C 38.208 288.764,37.939 289.394,37.619 289.680 C 37.122 290.125,37.110 290.105,37.539 289.536 C 38.161 288.709,37.590 288.279,36.884 289.042 C 36.601 289.349,36.511 289.613,36.684 289.628 C 36.858 289.644,36.640 289.798,36.200 289.971 C 35.760 290.144,34.088 290.204,32.485 290.106 C 30.713 289.997,29.366 290.096,29.049 290.360 C 28.761 290.598,28.417 290.684,28.284 290.550 C 27.846 290.112,26.023 292.568,26.243 293.300 C 26.429 293.917,26.144 294.000,23.851 294.000 C 22.419 294.000,21.134 294.183,20.996 294.407 C 20.858 294.630,20.570 294.705,20.356 294.573 C 19.832 294.249,18.200 296.384,18.200 297.393 C 18.200 298.088,17.966 298.188,16.514 298.116 C 15.586 298.070,14.731 298.188,14.613 298.379 C 14.495 298.569,14.084 298.678,13.700 298.620 C 13.315 298.562,13.212 298.590,13.471 298.681 C 14.035 298.880,13.359 301.200,12.737 301.200 C 12.526 301.200,12.454 301.363,12.577 301.563 C 12.700 301.762,12.413 301.824,11.938 301.700 C 11.347 301.545,11.165 301.620,11.361 301.937 C 11.518 302.192,11.541 302.400,11.411 302.400 C 11.281 302.400,11.002 301.995,10.791 301.500 C 10.450 300.701,10.414 300.690,10.465 301.400 C 10.497 301.840,10.412 302.470,10.277 302.800 C 10.142 303.130,9.979 304.030,9.915 304.800 C 9.829 305.849,9.625 306.186,9.100 306.144 C 8.715 306.114,8.400 306.224,8.400 306.389 C 8.400 306.555,7.968 306.643,7.440 306.585 C 6.640 306.497,6.497 306.640,6.585 307.440 C 6.643 307.968,6.574 308.400,6.433 308.400 C 6.291 308.400,6.125 309.642,6.063 311.161 C 5.936 314.255,6.177 314.605,8.331 314.460 C 10.411 314.320,12.206 315.088,13.722 316.766 C 14.478 317.603,15.553 318.402,16.112 318.542 C 16.794 318.713,17.404 319.369,17.973 320.544 C 18.767 322.185,18.938 322.305,20.791 322.524 C 23.194 322.809,24.610 323.678,25.138 325.194 C 25.496 326.222,25.764 326.360,27.868 326.599 C 31.328 326.991,32.632 327.503,33.927 328.978 C 35.022 330.225,35.303 330.325,38.447 330.587 C 42.968 330.963,44.630 331.501,45.962 333.017 C 47.061 334.269,47.177 334.302,51.442 334.558 C 57.746 334.936,60.282 335.543,61.889 337.058 L 63.224 338.317 69.512 338.587 C 76.153 338.873,81.706 339.676,82.758 340.504 C 83.105 340.777,83.662 341.302,83.995 341.670 C 84.510 342.240,86.095 342.402,94.600 342.751 C 107.551 343.282,111.307 343.879,112.516 345.599 C 112.954 346.223,114.808 346.334,132.000 346.772 C 152.240 347.287,160.696 347.713,163.600 348.362 C 164.590 348.584,167.382 348.773,169.804 348.783 C 173.764 348.798,174.258 348.881,174.707 349.600 C 175.198 350.386,175.640 350.400,199.941 350.400 C 224.168 350.400,224.691 350.384,225.400 349.600 C 226.064 348.866,226.632 348.800,232.236 348.800 C 236.072 348.800,238.767 348.622,239.474 348.323 C 241.306 347.547,247.082 347.233,267.935 346.776 C 286.178 346.377,287.766 346.287,288.935 345.583 C 291.942 343.774,292.606 343.542,295.719 343.212 C 297.524 343.020,302.958 342.740,307.795 342.589 L 316.591 342.315 317.884 341.180 C 319.954 339.362,325.511 338.512,335.913 338.422 C 337.924 338.404,338.479 338.260,338.693 337.700 C 339.485 335.632,341.723 334.947,348.868 334.584 C 354.215 334.313,354.342 334.285,354.579 333.341 C 355.017 331.598,356.849 330.901,361.814 330.591 C 366.101 330.323,366.348 330.260,366.569 329.381 C 366.953 327.852,368.874 326.800,371.780 326.529 C 373.693 326.350,374.400 326.127,374.400 325.703 C 374.400 324.537,376.726 322.885,378.763 322.605 C 380.819 322.322,382.077 321.361,382.586 319.684 C 382.766 319.090,383.280 318.684,384.044 318.531 C 385.151 318.310,385.735 317.768,387.200 315.607 C 387.530 315.120,388.205 314.564,388.700 314.371 C 389.301 314.137,389.600 313.686,389.600 313.017 C 389.600 312.048,389.672 312.020,391.715 312.209 L 393.830 312.405 393.895 310.764 C 393.971 308.876,392.858 306.486,391.964 306.617 C 390.948 306.766,390.080 305.835,389.881 304.381 C 389.550 301.959,389.184 301.249,388.349 301.410 C 387.808 301.514,387.209 301.054,386.359 299.879 C 385.274 298.382,384.961 298.197,383.471 298.174 C 381.711 298.146,381.643 298.038,381.563 295.138 C 381.550 294.679,381.248 294.509,380.572 294.583 C 380.038 294.642,379.600 294.543,379.600 294.364 C 379.600 294.184,379.195 294.055,378.700 294.075 C 375.597 294.206,373.527 293.967,373.706 293.500 C 373.986 292.765,372.698 290.593,372.000 290.623 C 371.670 290.637,371.191 290.494,370.935 290.304 C 370.679 290.115,369.329 289.989,367.935 290.024 C 362.204 290.169,361.610 290.082,361.598 289.100 C 361.564 286.450,361.574 286.473,360.572 286.583 C 360.038 286.642,359.600 286.558,359.600 286.396 C 359.600 286.234,358.115 286.097,356.300 286.091 C 349.380 286.069,349.098 286.042,349.340 285.412 C 349.464 285.088,349.304 284.561,348.983 284.240 C 348.662 283.919,348.400 283.353,348.400 282.982 C 348.400 282.476,348.147 282.355,347.390 282.500 C 346.835 282.606,346.299 282.560,346.199 282.398 C 346.099 282.236,342.728 282.067,338.708 282.023 C 327.060 281.894,326.816 281.929,324.800 284.048 C 323.988 284.902,323.040 285.600,322.693 285.600 C 322.319 285.600,321.861 286.210,321.567 287.100 C 320.879 289.187,310.191 300.009,307.607 301.236 C 306.465 301.778,305.556 302.541,305.262 303.204 C 304.983 303.835,304.123 304.584,303.201 305.000 C 302.330 305.392,301.519 306.024,301.399 306.404 C 300.330 309.772,306.728 309.572,200.200 309.572 C 95.589 309.572,101.757 309.722,99.418 307.117 C 98.768 306.392,97.479 305.320,96.555 304.732 C 95.631 304.145,94.758 303.298,94.616 302.850 C 94.474 302.401,93.559 301.636,92.584 301.149 C 91.609 300.662,90.718 299.979,90.606 299.632 C 90.493 299.284,89.726 298.550,88.901 298.000 C 86.318 296.279,78.917 288.486,78.664 287.221 C 78.492 286.360,77.982 285.847,76.623 285.168 C 75.626 284.671,74.706 283.935,74.579 283.533 C 74.451 283.131,73.954 282.722,73.473 282.625 C 72.993 282.528,72.150 282.364,71.600 282.260 C 71.050 282.156,70.211 281.978,69.737 281.865 C 69.262 281.752,68.789 281.745,68.685 281.848 " stroke="none" fill="#295a1b" fill-rule="evenodd"></path><path id="path2" d="M163.812 14.349 C 162.799 14.566,162.575 14.853,162.289 16.302 L 161.953 18.000 156.456 18.000 C 150.318 18.000,150.000 18.122,150.000 20.480 L 150.000 22.000 144.480 22.000 C 138.316 22.000,138.000 22.121,138.000 24.480 L 138.000 26.000 133.500 26.047 C 127.072 26.115,126.698 26.232,126.289 28.302 L 125.953 30.000 123.476 30.047 C 119.210 30.129,118.673 30.360,118.293 32.281 C 117.965 33.941,117.942 33.959,116.081 34.079 L 114.200 34.200 114.078 36.100 L 113.956 38.000 110.607 38.000 C 106.773 38.000,106.000 38.438,106.000 40.607 C 106.000 41.933,105.967 41.958,104.100 42.078 L 102.200 42.200 102.078 44.100 L 101.956 46.000 99.478 46.047 C 95.199 46.129,94.673 46.357,94.289 48.302 C 93.973 49.897,93.871 50.000,92.605 50.000 C 90.885 50.000,90.000 50.893,90.000 52.629 C 90.000 53.950,89.944 54.000,88.480 54.000 C 86.564 54.000,86.000 54.564,86.000 56.480 C 86.000 57.973,85.973 58.000,84.480 58.000 C 82.564 58.000,82.000 58.564,82.000 60.480 C 82.000 61.973,81.973 62.000,80.480 62.000 C 78.564 62.000,78.000 62.564,78.000 64.480 C 78.000 65.944,77.950 66.000,76.629 66.000 C 74.886 66.000,74.000 66.886,74.000 68.629 C 74.000 69.924,73.924 70.000,72.629 70.000 C 70.437 70.000,70.000 70.765,70.000 74.607 L 70.000 77.956 68.100 78.078 L 66.200 78.200 66.079 80.079 L 65.958 81.958 64.079 82.079 L 62.200 82.200 62.078 84.100 C 61.958 85.967,61.933 86.000,60.607 86.000 C 58.435 86.000,58.000 86.772,58.000 90.629 L 58.000 94.000 56.629 94.000 C 54.434 94.000,54.000 94.763,54.000 98.629 L 54.000 102.000 52.480 102.000 C 50.263 102.000,50.000 102.475,50.000 106.480 L 50.000 110.000 48.629 110.000 C 46.235 110.000,46.000 110.590,46.000 116.607 L 46.000 121.956 44.100 122.078 L 42.200 122.200 42.089 128.100 L 41.979 134.000 40.469 134.000 C 37.996 134.000,38.000 133.981,38.000 144.480 L 38.000 154.000 36.480 154.000 C 33.866 154.000,33.995 152.672,34.047 178.980 C 34.102 206.562,33.991 205.254,36.302 205.711 L 38.000 206.047 38.047 214.524 C 38.107 225.238,38.115 225.279,40.302 225.711 L 42.000 226.047 42.047 230.524 C 42.115 236.927,42.233 237.302,44.302 237.711 L 46.000 238.047 46.000 241.544 C 46.000 245.524,46.265 246.000,48.480 246.000 L 50.000 246.000 50.000 249.520 C 50.000 253.525,50.263 254.000,52.480 254.000 L 54.000 254.000 54.000 257.520 C 54.000 261.525,54.263 262.000,56.480 262.000 L 58.000 262.000 58.000 265.371 C 58.000 269.228,58.435 270.000,60.607 270.000 C 61.933 270.000,61.958 270.033,62.078 271.900 L 62.200 273.800 64.100 273.922 L 66.000 274.044 66.000 277.022 L 66.000 280.000 64.174 280.000 C 62.136 280.000,61.008 280.464,60.432 281.540 C 60.083 282.192,60.226 282.252,61.923 282.168 C 66.226 281.955,70.276 281.969,71.400 282.201 C 72.060 282.337,72.993 282.528,73.473 282.625 C 73.954 282.722,74.451 283.131,74.579 283.533 C 74.706 283.935,75.626 284.671,76.623 285.168 C 77.982 285.847,78.492 286.360,78.664 287.221 C 78.917 288.486,86.318 296.279,88.901 298.000 C 89.726 298.550,90.493 299.284,90.606 299.632 C 90.718 299.979,91.609 300.662,92.584 301.149 C 93.559 301.636,94.474 302.401,94.616 302.850 C 94.758 303.298,95.631 304.145,96.555 304.732 C 97.479 305.320,98.768 306.392,99.418 307.117 C 101.757 309.722,95.589 309.572,200.200 309.572 C 306.728 309.572,300.330 309.772,301.399 306.404 C 301.519 306.024,302.330 305.392,303.201 305.000 C 304.123 304.584,304.983 303.835,305.262 303.204 C 305.556 302.541,306.465 301.778,307.607 301.236 C 310.191 300.009,320.879 289.187,321.567 287.100 C 321.861 286.210,322.319 285.600,322.693 285.600 C 323.040 285.600,323.988 284.902,324.800 284.048 C 326.716 282.034,328.072 281.781,335.500 282.052 C 338.498 282.162,339.600 282.073,339.600 281.724 C 339.600 280.823,337.838 280.000,335.911 280.000 L 334.000 280.000 334.000 277.022 L 334.000 274.044 335.900 273.922 L 337.800 273.800 337.922 271.900 C 338.042 270.033,338.067 270.000,339.393 270.000 C 341.565 270.000,342.000 269.228,342.000 265.371 L 342.000 262.000 343.520 262.000 C 345.735 262.000,346.000 261.524,346.000 257.542 L 346.000 254.044 347.900 253.922 L 349.800 253.800 349.914 249.900 L 350.029 246.000 351.534 246.000 C 353.734 246.000,354.000 245.519,354.000 241.544 L 354.000 238.047 355.698 237.711 C 357.839 237.288,357.890 237.079,357.953 228.500 L 358.000 222.000 359.520 222.000 C 361.956 222.000,362.000 221.850,362.000 213.544 L 362.000 206.047 363.698 205.711 C 366.015 205.253,365.905 206.627,365.905 178.000 C 365.905 149.373,366.015 150.747,363.698 150.289 L 362.000 149.953 362.000 142.456 C 362.000 134.150,361.956 134.000,359.520 134.000 L 358.000 134.000 357.953 127.500 C 357.890 118.921,357.839 118.712,355.698 118.289 L 354.000 117.953 354.000 114.456 C 354.000 110.476,353.735 110.000,351.520 110.000 L 350.000 110.000 350.000 106.480 C 350.000 102.475,349.737 102.000,347.520 102.000 L 346.000 102.000 346.000 98.480 C 346.000 94.475,345.737 94.000,343.520 94.000 L 342.000 94.000 341.953 91.500 C 341.871 87.198,341.645 86.674,339.698 86.289 C 338.063 85.965,338.000 85.897,338.000 84.456 C 338.000 82.569,337.430 82.000,335.542 82.000 L 334.044 82.000 333.922 80.100 L 333.800 78.200 331.900 78.078 L 330.000 77.956 330.000 74.607 C 330.000 70.765,329.563 70.000,327.371 70.000 C 326.076 70.000,326.000 69.924,326.000 68.629 C 326.000 66.886,325.114 66.000,323.371 66.000 C 322.050 66.000,322.000 65.944,322.000 64.480 C 322.000 62.564,321.436 62.000,319.520 62.000 C 318.027 62.000,318.000 61.973,318.000 60.480 C 318.000 58.564,317.436 58.000,315.520 58.000 C 314.056 58.000,314.000 57.950,314.000 56.629 C 314.000 54.886,313.114 54.000,311.371 54.000 C 310.076 54.000,310.000 53.924,310.000 52.629 C 310.000 50.893,309.115 50.000,307.395 50.000 C 306.129 50.000,306.027 49.897,305.711 48.302 C 305.327 46.357,304.801 46.129,300.522 46.047 L 298.044 46.000 297.922 44.100 L 297.800 42.200 295.900 42.078 C 294.033 41.958,294.000 41.933,294.000 40.607 C 294.000 38.438,293.227 38.000,289.393 38.000 L 286.044 38.000 285.922 36.100 L 285.800 34.200 281.921 34.086 L 278.043 33.972 277.921 32.086 L 277.800 30.200 273.921 30.086 L 270.043 29.972 269.921 28.086 L 269.800 26.200 265.900 26.086 L 262.000 25.971 262.000 24.466 C 262.000 22.122,261.678 22.000,255.520 22.000 L 250.000 22.000 250.000 20.480 C 250.000 18.043,249.852 18.000,241.520 18.000 L 234.000 18.000 234.000 16.480 C 234.000 15.644,233.784 14.744,233.520 14.480 C 233.004 13.964,166.197 13.838,163.812 14.349 M200.530 67.574 C 202.230 67.969,202.827 68.584,203.997 71.143 C 204.435 72.102,205.360 73.533,206.053 74.322 C 206.747 75.111,207.717 76.667,208.210 77.779 C 208.703 78.890,209.496 80.150,209.972 80.579 C 210.448 81.007,211.279 82.237,211.818 83.311 C 212.358 84.386,213.387 86.015,214.104 86.932 C 214.822 87.850,215.747 89.230,216.160 90.000 C 216.573 90.770,217.398 91.940,217.993 92.600 C 218.587 93.260,219.475 94.596,219.966 95.568 C 220.457 96.541,221.432 98.071,222.134 98.968 C 222.835 99.866,223.747 101.230,224.160 102.000 C 224.573 102.770,225.398 103.940,225.993 104.600 C 226.587 105.260,227.481 106.606,227.978 107.591 C 228.475 108.576,229.316 109.926,229.847 110.591 C 230.378 111.256,230.959 111.985,231.139 112.212 C 231.319 112.438,231.789 113.468,232.183 114.500 C 232.578 115.533,233.210 116.476,233.589 116.596 C 234.237 116.802,236.400 120.640,236.400 121.584 C 236.400 121.823,237.087 122.779,237.928 123.709 C 238.768 124.639,239.785 126.116,240.189 126.990 C 240.593 127.865,241.166 128.823,241.463 129.120 C 242.362 130.019,244.400 133.115,244.400 133.581 C 244.400 133.821,245.087 134.779,245.928 135.709 C 246.768 136.639,247.785 138.116,248.189 138.990 C 248.593 139.865,249.166 140.823,249.463 141.120 C 250.990 142.647,252.527 145.459,252.707 147.052 C 252.857 148.380,253.073 148.800,253.609 148.800 C 254.354 148.800,254.958 149.821,254.578 150.436 C 254.253 150.962,253.164 150.883,252.431 150.280 C 252.084 149.993,250.908 149.534,249.817 149.259 C 247.357 148.638,245.261 147.661,244.274 146.674 C 243.860 146.260,242.513 145.475,241.281 144.931 C 240.049 144.386,238.541 143.450,237.929 142.852 C 237.316 142.253,235.867 141.442,234.708 141.048 C 231.690 140.023,230.841 139.560,230.603 138.809 C 230.421 138.235,226.971 136.400,226.074 136.400 C 225.899 136.400,225.081 135.781,224.255 135.025 C 223.366 134.211,221.688 133.295,220.140 132.780 C 218.702 132.301,216.939 131.395,216.223 130.767 C 215.507 130.138,214.057 129.253,213.000 128.800 C 211.943 128.347,210.560 127.469,209.925 126.848 C 209.290 126.228,207.813 125.395,206.643 124.997 C 204.220 124.173,203.633 123.792,202.696 122.431 C 202.214 121.732,201.983 121.621,201.869 122.031 C 200.880 125.562,200.800 127.972,200.800 154.294 L 200.800 182.176 199.561 183.233 L 198.323 184.290 196.661 183.502 C 195.748 183.068,194.550 182.297,194.000 181.788 C 193.450 181.278,192.190 180.549,191.200 180.166 C 190.210 179.784,188.584 178.883,187.586 178.165 C 186.589 177.446,185.282 176.735,184.683 176.585 C 184.083 176.434,183.494 176.151,183.373 175.956 C 183.252 175.760,182.870 175.600,182.524 175.600 C 182.178 175.600,181.306 174.977,180.588 174.215 C 179.838 173.419,178.194 172.394,176.729 171.807 C 175.325 171.245,173.694 170.339,173.106 169.793 C 172.517 169.247,171.926 168.800,171.792 168.800 C 171.095 168.800,166.865 166.608,166.000 165.798 C 165.450 165.283,164.190 164.549,163.200 164.166 C 162.210 163.784,160.584 162.883,159.586 162.165 C 158.589 161.446,157.282 160.735,156.683 160.585 C 156.083 160.434,155.494 160.151,155.373 159.956 C 155.252 159.760,154.870 159.600,154.524 159.600 C 154.178 159.600,153.304 158.973,152.581 158.208 C 151.859 157.442,150.308 156.439,149.134 155.980 C 145.985 154.748,145.232 154.141,144.375 152.141 C 143.363 149.782,143.352 149.841,145.135 148.100 C 145.979 147.275,146.998 145.733,147.399 144.673 C 147.801 143.613,148.643 142.196,149.271 141.524 C 149.899 140.852,150.946 139.150,151.598 137.742 C 152.249 136.334,153.061 135.075,153.402 134.944 C 153.742 134.813,154.574 133.560,155.249 132.159 C 155.925 130.758,157.022 128.934,157.687 128.106 C 158.352 127.278,159.242 125.802,159.665 124.827 C 160.088 123.852,160.966 122.545,161.617 121.923 C 162.268 121.302,162.800 120.525,162.800 120.197 C 162.800 119.868,162.980 119.600,163.200 119.600 C 163.420 119.600,163.600 119.330,163.600 119.000 C 163.600 118.670,163.780 118.400,164.000 118.400 C 164.220 118.400,164.400 118.149,164.400 117.842 C 164.400 117.536,164.965 116.681,165.656 115.942 C 166.347 115.204,167.254 113.802,167.673 112.827 C 168.092 111.852,168.966 110.545,169.617 109.923 C 170.268 109.302,170.800 108.525,170.800 108.197 C 170.800 107.868,170.980 107.600,171.200 107.600 C 171.420 107.600,171.600 107.330,171.600 107.000 C 171.600 106.670,171.780 106.400,172.000 106.400 C 172.220 106.400,172.400 106.149,172.400 105.842 C 172.400 105.536,172.965 104.681,173.656 103.942 C 174.347 103.204,175.254 101.802,175.673 100.827 C 176.092 99.852,176.966 98.545,177.617 97.923 C 178.268 97.302,178.800 96.525,178.800 96.197 C 178.800 95.868,178.980 95.600,179.200 95.600 C 179.420 95.600,179.600 95.330,179.600 95.000 C 179.600 94.670,179.780 94.400,180.000 94.400 C 180.220 94.400,180.400 94.149,180.400 93.842 C 180.400 93.536,180.938 92.709,181.595 92.005 C 182.252 91.302,183.001 90.023,183.258 89.163 C 183.516 88.303,183.878 87.600,184.063 87.600 C 184.248 87.600,184.400 87.361,184.400 87.070 C 184.400 86.778,184.851 86.116,185.401 85.599 C 185.952 85.082,186.943 83.549,187.604 82.192 C 188.282 80.801,189.197 79.547,189.704 79.316 C 190.267 79.060,190.881 78.137,191.342 76.852 C 191.749 75.722,192.611 74.230,193.259 73.537 C 193.906 72.844,194.774 71.539,195.188 70.638 C 196.667 67.411,197.578 66.889,200.530 67.574 M135.507 167.600 C 135.807 167.600,136.708 168.218,137.509 168.973 C 138.309 169.728,140.142 170.926,141.582 171.635 C 143.022 172.344,144.773 173.346,145.473 173.862 C 146.174 174.378,146.939 174.800,147.173 174.800 C 147.408 174.800,147.600 174.944,147.600 175.121 C 147.600 175.298,148.476 175.757,149.547 176.142 C 150.618 176.527,151.879 177.201,152.350 177.639 C 153.410 178.627,156.889 180.400,157.767 180.400 C 158.125 180.400,159.179 181.087,160.109 181.928 C 161.718 183.381,164.213 184.800,165.160 184.800 C 165.402 184.800,165.600 184.941,165.600 185.114 C 165.600 185.286,166.185 185.768,166.900 186.184 C 167.615 186.599,168.290 187.056,168.400 187.197 C 168.510 187.339,169.410 187.773,170.400 188.161 C 171.390 188.549,172.773 189.302,173.473 189.833 C 174.174 190.365,174.939 190.800,175.173 190.800 C 175.408 190.800,175.600 190.944,175.600 191.121 C 175.600 191.298,176.476 191.757,177.547 192.142 C 178.618 192.527,179.879 193.201,180.350 193.639 C 181.410 194.627,184.889 196.400,185.767 196.400 C 186.125 196.400,187.179 197.087,188.109 197.928 C 189.718 199.381,192.213 200.800,193.160 200.800 C 193.402 200.800,193.600 200.952,193.600 201.137 C 193.600 201.322,194.230 201.813,195.000 202.228 C 195.770 202.643,196.400 203.085,196.400 203.211 C 196.400 203.336,197.075 203.678,197.900 203.969 C 201.086 205.094,200.800 201.138,200.800 244.043 C 200.800 266.765,200.952 282.736,201.172 283.281 C 201.377 283.787,201.662 284.740,201.805 285.400 C 202.048 286.520,202.145 286.394,203.267 283.486 C 204.010 281.562,204.829 280.137,205.411 279.756 C 206.046 279.340,206.640 278.208,207.238 276.277 C 207.774 274.544,208.560 272.979,209.228 272.311 C 209.899 271.639,210.682 270.073,211.228 268.311 C 211.792 266.486,212.553 264.986,213.282 264.256 C 213.919 263.619,214.545 262.577,214.672 261.941 C 214.799 261.304,215.060 260.686,215.252 260.568 C 215.443 260.450,215.600 260.003,215.600 259.576 C 215.600 259.149,215.780 258.800,216.000 258.800 C 216.220 258.800,216.400 258.544,216.400 258.231 C 216.400 257.918,216.838 257.141,217.374 256.504 C 217.910 255.867,218.649 254.549,219.018 253.573 C 220.222 250.385,220.813 249.237,221.519 248.714 C 222.479 248.004,223.600 246.174,223.601 245.314 C 223.603 244.473,224.973 242.103,226.046 241.084 C 226.461 240.691,226.800 240.026,226.800 239.608 C 226.800 239.190,226.980 238.736,227.200 238.600 C 227.420 238.464,227.601 237.958,227.601 237.476 C 227.603 236.497,228.894 234.177,230.046 233.084 C 230.461 232.691,230.800 232.026,230.800 231.608 C 230.800 231.190,230.980 230.736,231.200 230.600 C 231.420 230.464,231.600 229.955,231.600 229.469 C 231.600 228.983,232.320 227.714,233.200 226.649 C 234.080 225.584,234.800 224.541,234.800 224.332 C 234.800 223.360,236.920 219.616,237.592 219.403 C 238.106 219.239,238.626 218.254,239.234 216.289 C 239.774 214.546,240.558 212.980,241.228 212.311 C 241.899 211.639,242.682 210.073,243.228 208.311 C 243.773 206.549,244.556 204.982,245.228 204.311 C 245.899 203.639,246.682 202.073,247.228 200.311 C 247.794 198.480,248.552 196.986,249.288 196.251 C 249.928 195.610,250.730 194.347,251.070 193.443 C 252.239 190.334,252.766 189.397,253.982 188.265 C 254.653 187.641,255.306 186.651,255.434 186.065 C 255.860 184.104,256.461 182.876,257.643 181.552 C 258.289 180.829,259.013 179.509,259.253 178.619 C 260.040 175.700,260.423 174.955,261.796 173.659 C 262.542 172.956,263.273 171.979,263.421 171.490 C 264.187 168.952,266.057 167.982,267.303 169.476 C 267.796 170.068,268.860 171.287,269.667 172.185 C 270.473 173.083,271.438 174.623,271.810 175.609 C 273.016 178.799,273.548 179.829,274.374 180.576 C 274.819 180.980,275.299 181.960,275.440 182.755 C 275.950 185.646,276.742 188.306,277.901 191.031 C 281.166 198.703,281.560 226.923,278.476 232.164 C 277.612 233.633,276.685 236.362,275.747 240.200 C 275.370 241.740,274.759 243.450,274.387 244.000 C 273.599 245.168,272.684 247.165,271.933 249.356 C 271.640 250.211,270.834 251.343,270.143 251.870 C 269.452 252.398,268.515 253.678,268.063 254.715 C 267.610 255.752,266.420 257.589,265.420 258.797 C 264.419 260.006,263.600 261.206,263.600 261.466 C 263.600 261.725,262.835 262.745,261.900 263.734 C 260.965 264.722,259.649 266.131,258.976 266.865 C 256.991 269.028,253.688 272.000,253.269 272.000 C 253.055 272.000,252.277 272.587,251.540 273.303 C 250.803 274.020,249.390 275.144,248.400 275.800 C 247.410 276.456,246.330 277.269,246.000 277.607 C 245.069 278.559,243.584 279.402,241.400 280.218 C 240.300 280.629,238.732 281.444,237.915 282.028 C 237.098 282.613,235.298 283.504,233.915 284.010 C 232.532 284.515,231.130 285.148,230.800 285.417 C 229.460 286.510,226.836 287.498,224.000 287.977 C 222.350 288.255,219.650 288.839,218.000 289.275 C 204.843 292.746,189.145 293.317,182.200 290.577 C 179.637 289.566,177.322 288.983,174.363 288.605 C 173.288 288.467,171.681 287.825,170.487 287.056 C 169.356 286.327,167.158 285.431,165.550 285.043 C 162.199 284.234,161.065 283.690,159.393 282.089 C 158.729 281.454,157.678 280.806,157.058 280.650 C 156.437 280.495,155.450 279.917,154.865 279.366 C 154.279 278.816,152.810 277.715,151.600 276.920 C 150.390 276.126,148.873 274.952,148.229 274.313 C 147.584 273.674,146.485 272.912,145.787 272.620 C 145.088 272.328,143.995 271.359,143.358 270.467 C 142.721 269.575,141.816 268.747,141.348 268.627 C 140.879 268.507,140.195 267.775,139.827 267.001 C 139.460 266.227,138.611 265.190,137.941 264.697 C 137.270 264.204,136.290 263.065,135.762 262.167 C 135.235 261.270,134.285 260.073,133.651 259.508 C 133.017 258.944,131.990 257.429,131.368 256.141 C 130.746 254.853,129.942 253.530,129.581 253.200 C 128.824 252.508,127.931 250.645,127.008 247.831 C 126.653 246.747,126.039 245.577,125.643 245.231 C 124.652 244.362,123.819 242.331,123.030 238.862 C 122.662 237.247,122.035 235.574,121.636 235.146 C 120.742 234.186,119.709 230.272,119.435 226.800 C 119.322 225.370,119.026 221.770,118.778 218.800 C 117.949 208.868,119.348 193.658,121.390 190.400 C 121.873 189.630,122.584 187.560,122.971 185.800 C 123.796 182.046,124.696 179.728,125.585 179.071 C 125.935 178.812,126.728 177.296,127.346 175.702 C 127.964 174.108,128.865 172.488,129.348 172.102 C 129.831 171.716,130.635 170.733,131.135 169.917 C 132.242 168.111,134.046 166.702,134.580 167.227 C 134.789 167.432,135.206 167.600,135.507 167.600 M50.700 282.432 C 50.315 282.656,50.000 283.101,50.000 283.420 C 50.000 283.846,49.492 284.000,48.089 284.000 C 46.113 284.000,44.236 284.909,44.511 285.733 C 44.611 286.033,45.607 286.150,47.405 286.074 C 50.320 285.949,50.952 285.770,50.583 285.172 C 50.456 284.968,50.633 284.800,50.976 284.800 C 51.794 284.800,51.766 284.419,50.900 283.738 C 50.364 283.317,50.340 283.213,50.800 283.294 C 51.130 283.352,51.355 283.175,51.300 282.900 C 51.245 282.625,51.380 282.400,51.600 282.400 C 51.820 282.400,52.000 282.670,52.000 283.000 C 52.000 283.330,52.191 283.600,52.424 283.600 C 52.657 283.600,52.735 283.418,52.598 283.197 C 52.461 282.975,52.765 282.626,53.274 282.422 C 54.110 282.087,54.064 282.049,52.800 282.038 C 52.030 282.030,51.085 282.208,50.700 282.432 M347.700 282.258 C 348.085 282.368,348.400 282.728,348.400 283.058 C 348.400 283.387,348.662 283.919,348.983 284.240 C 349.304 284.561,349.464 285.088,349.340 285.412 C 349.163 285.873,349.512 286.011,350.957 286.050 C 351.971 286.078,353.357 286.123,354.038 286.150 C 355.648 286.215,355.957 285.656,354.819 284.735 C 354.229 284.257,353.261 284.000,352.051 284.000 C 350.504 284.000,350.123 283.848,349.795 283.100 C 349.525 282.486,349.019 282.177,348.200 282.128 C 347.540 282.089,347.315 282.147,347.700 282.258 M35.638 286.349 C 35.109 286.497,34.479 286.965,34.238 287.390 C 33.997 287.814,33.456 288.456,33.036 288.816 C 31.666 289.991,32.489 290.316,36.167 290.055 C 36.588 290.025,36.824 289.891,36.691 289.757 C 36.364 289.431,37.315 288.432,37.719 288.678 C 37.895 288.784,37.814 289.170,37.539 289.536 C 37.110 290.105,37.122 290.125,37.619 289.680 C 37.939 289.394,38.208 288.764,38.218 288.280 C 38.228 287.796,38.415 287.432,38.632 287.471 C 38.850 287.511,39.029 287.196,39.029 286.771 C 39.029 285.952,37.665 285.782,35.638 286.349 M360.580 286.368 C 360.732 286.613,361.012 286.716,361.203 286.598 C 361.395 286.480,361.559 286.792,361.569 287.291 C 361.578 287.791,361.591 288.605,361.598 289.100 C 361.608 289.885,361.826 290.004,363.304 290.032 C 364.237 290.050,365.508 290.102,366.129 290.147 C 367.634 290.256,367.936 289.639,366.819 288.735 C 366.219 288.249,365.259 288.000,363.984 288.000 C 362.292 288.000,362.040 287.890,361.928 287.104 C 361.858 286.611,361.464 286.144,361.053 286.066 C 360.582 285.976,360.407 286.088,360.580 286.368 M26.267 290.267 C 25.811 290.723,25.974 292.075,26.466 291.911 C 27.477 291.574,28.177 290.000,27.315 290.000 C 26.885 290.000,26.413 290.120,26.267 290.267 M372.000 290.467 C 372.000 290.723,372.115 290.818,372.256 290.677 C 372.616 290.317,373.938 292.892,373.706 293.500 C 373.583 293.821,373.888 294.000,374.557 294.000 C 375.799 294.000,375.911 293.401,374.800 292.707 C 374.360 292.432,374.000 291.820,374.000 291.347 C 374.000 290.873,373.715 290.376,373.367 290.243 C 372.419 289.879,372.000 289.947,372.000 290.467 M24.880 292.880 C 24.134 293.626,24.308 294.000,25.400 294.000 C 26.489 294.000,26.515 293.966,26.157 293.033 C 25.867 292.276,25.525 292.235,24.880 292.880 M18.267 294.267 C 17.811 294.723,17.974 296.075,18.466 295.911 C 19.477 295.574,20.177 294.000,19.315 294.000 C 18.885 294.000,18.413 294.120,18.267 294.267 M380.580 294.368 C 380.732 294.613,381.012 294.716,381.203 294.598 C 381.395 294.480,381.558 294.702,381.566 295.091 C 381.621 297.722,381.793 298.131,382.867 298.177 C 384.006 298.227,383.864 297.218,382.634 296.517 C 382.327 296.343,382.015 295.752,381.938 295.204 C 381.857 294.618,381.492 294.149,381.053 294.066 C 380.582 293.976,380.407 294.088,380.580 294.368 M16.911 296.900 C 16.053 298.009,16.090 298.222,17.131 298.177 C 18.113 298.134,18.233 297.956,18.060 296.800 C 17.977 296.247,17.376 296.299,16.911 296.900 M11.615 298.354 C 10.088 298.780,9.313 302.402,10.772 302.292 C 11.197 302.260,11.439 302.063,11.310 301.854 C 11.175 301.636,11.442 301.570,11.938 301.700 C 12.413 301.824,12.700 301.762,12.577 301.563 C 12.454 301.363,12.526 301.200,12.737 301.200 C 12.949 301.200,13.353 300.615,13.635 299.900 C 13.917 299.185,14.220 298.465,14.307 298.300 C 14.498 297.941,12.989 297.971,11.615 298.354 M385.600 298.411 C 385.600 299.448,387.579 301.558,388.402 301.400 C 388.889 301.306,389.200 301.462,389.200 301.799 C 389.200 302.104,389.408 302.482,389.663 302.639 C 390.180 302.959,389.834 299.274,389.296 298.737 C 388.698 298.139,385.600 297.866,385.600 298.411 M6.138 306.617 C 5.766 307.588,6.202 307.682,6.998 306.802 C 7.660 306.070,7.665 306.000,7.049 306.000 C 6.678 306.000,6.268 306.278,6.138 306.617 M392.000 306.424 C 392.000 306.657,392.142 306.760,392.315 306.652 C 392.488 306.545,392.891 307.030,393.210 307.729 C 393.751 308.913,393.800 308.937,393.926 308.078 C 394.000 307.571,393.846 306.896,393.582 306.578 C 393.024 305.906,392.000 305.806,392.000 306.424 " stroke="none" fill="#142c14" fill-rule="evenodd"></path><path id="path3" d="M389.600 313.033 C 389.600 313.686,389.295 314.139,388.700 314.371 C 388.205 314.564,387.530 315.120,387.200 315.607 C 385.735 317.768,385.151 318.310,384.044 318.531 C 383.280 318.684,382.766 319.090,382.586 319.684 C 382.077 321.361,380.819 322.322,378.763 322.605 C 376.726 322.885,374.400 324.537,374.400 325.703 C 374.400 326.127,373.693 326.350,371.780 326.529 C 368.874 326.800,366.953 327.852,366.569 329.381 C 366.348 330.260,366.101 330.323,361.814 330.591 C 356.849 330.901,355.017 331.598,354.579 333.341 C 354.342 334.285,354.215 334.313,348.868 334.584 C 341.723 334.947,339.485 335.632,338.693 337.700 C 338.479 338.260,337.924 338.404,335.913 338.422 C 325.511 338.512,319.954 339.362,317.884 341.180 L 316.591 342.315 307.795 342.589 C 302.958 342.740,297.524 343.020,295.719 343.212 C 292.606 343.542,291.942 343.774,288.935 345.583 C 287.766 346.287,286.178 346.377,267.935 346.776 C 247.082 347.233,241.306 347.547,239.474 348.323 C 238.767 348.622,236.072 348.800,232.236 348.800 C 226.632 348.800,226.064 348.866,225.400 349.600 C 224.691 350.384,224.168 350.400,199.941 350.400 C 175.640 350.400,175.198 350.386,174.707 349.600 C 174.258 348.881,173.764 348.798,169.804 348.783 C 167.382 348.773,164.590 348.584,163.600 348.362 C 160.696 347.713,152.240 347.287,132.000 346.772 C 114.808 346.334,112.954 346.223,112.516 345.599 C 111.307 343.879,107.551 343.282,94.600 342.751 C 86.095 342.402,84.510 342.240,83.995 341.670 C 83.662 341.302,83.105 340.777,82.758 340.504 C 81.706 339.676,76.153 338.873,69.512 338.587 L 63.224 338.317 61.889 337.058 C 60.282 335.543,57.746 334.936,51.442 334.558 C 47.177 334.302,47.061 334.269,45.962 333.017 C 44.630 331.501,42.968 330.963,38.447 330.587 C 35.303 330.325,35.022 330.225,33.927 328.978 C 32.632 327.503,31.328 326.991,27.868 326.599 C 25.764 326.360,25.496 326.222,25.138 325.194 C 24.610 323.678,23.194 322.809,20.791 322.524 C 18.938 322.305,18.767 322.185,17.973 320.544 C 17.404 319.369,16.794 318.713,16.112 318.542 C 15.553 318.402,14.478 317.603,13.722 316.766 C 12.206 315.088,10.411 314.320,8.331 314.460 C 7.582 314.511,6.738 314.409,6.454 314.233 C 6.070 313.996,5.972 314.207,6.069 315.057 C 6.191 316.126,6.330 316.208,8.200 316.318 C 9.981 316.424,10.299 316.588,11.100 317.813 C 11.595 318.570,12.627 319.451,13.393 319.771 C 14.158 320.091,15.652 321.234,16.712 322.310 C 17.831 323.447,19.142 324.368,19.839 324.508 C 20.499 324.640,21.480 325.175,22.019 325.697 C 23.267 326.904,25.489 328.185,26.987 328.561 C 27.628 328.722,28.623 329.189,29.199 329.599 C 30.638 330.624,32.860 331.428,36.366 332.193 C 37.997 332.549,39.815 333.184,40.406 333.604 C 41.862 334.641,44.242 335.363,49.000 336.211 C 51.200 336.603,53.900 337.321,55.000 337.806 C 56.100 338.290,58.170 338.900,59.600 339.161 C 65.221 340.186,66.284 340.356,68.600 340.600 C 70.959 340.849,73.171 341.386,74.447 342.019 C 75.699 342.641,84.841 343.970,92.400 344.630 C 94.050 344.774,95.670 345.033,96.000 345.205 C 97.054 345.756,106.828 347.250,112.000 347.650 C 114.750 347.863,121.230 348.311,126.400 348.645 C 137.495 349.363,141.878 349.768,144.600 350.330 C 156.299 352.742,248.440 352.304,261.696 349.773 C 263.513 349.426,269.050 348.893,274.000 348.589 C 290.281 347.588,298.191 346.799,300.800 345.914 C 301.790 345.579,304.670 345.086,307.200 344.818 C 317.624 343.716,325.693 342.576,327.000 342.021 C 329.117 341.121,330.560 340.790,335.000 340.184 C 339.698 339.544,343.387 338.694,344.995 337.881 C 346.800 336.970,347.162 336.856,349.041 336.606 C 353.268 336.043,355.506 335.443,358.046 334.191 C 359.501 333.474,361.301 332.768,362.046 332.622 C 366.642 331.722,369.906 330.447,370.800 329.202 C 370.910 329.049,371.534 328.792,372.187 328.632 C 373.851 328.224,377.268 326.565,378.210 325.708 C 378.645 325.313,379.810 324.638,380.800 324.209 C 382.608 323.425,384.400 321.906,384.400 321.157 C 384.400 320.936,385.214 320.395,386.209 319.955 C 387.372 319.441,388.392 318.590,389.063 317.577 C 390.249 315.784,393.383 315.178,393.673 316.686 C 393.746 317.063,393.821 316.253,393.839 314.886 C 393.866 312.881,393.750 312.392,393.236 312.359 C 392.886 312.337,391.925 312.257,391.100 312.182 C 389.735 312.058,389.600 312.134,389.600 313.033 " stroke="none" fill="#3c6c24" fill-rule="evenodd"></path><path id="path4" d="M196.713 69.473 C 196.201 70.313,195.544 71.471,195.252 72.046 C 194.961 72.621,194.293 73.555,193.768 74.121 C 193.243 74.687,192.509 75.927,192.138 76.875 C 191.767 77.824,190.908 79.151,190.230 79.823 C 189.552 80.496,188.386 82.251,187.639 83.723 C 186.892 85.196,186.147 86.400,185.985 86.400 C 185.822 86.400,184.940 87.840,184.024 89.600 C 183.109 91.360,182.224 92.800,182.059 92.800 C 181.894 92.800,180.991 94.150,180.052 95.800 C 179.114 97.450,178.203 98.800,178.028 98.800 C 177.854 98.800,177.133 99.885,176.426 101.211 C 175.720 102.537,174.707 104.091,174.175 104.665 C 173.644 105.238,172.568 106.853,171.785 108.254 C 171.002 109.654,170.215 110.800,170.036 110.800 C 169.858 110.800,169.133 111.885,168.426 113.211 C 167.720 114.537,166.707 116.091,166.175 116.665 C 165.644 117.238,164.568 118.853,163.785 120.254 C 163.002 121.654,162.224 122.800,162.056 122.800 C 161.888 122.800,160.905 124.319,159.871 126.176 C 158.837 128.032,157.757 129.787,157.471 130.076 C 157.185 130.364,156.518 131.469,155.989 132.531 C 155.460 133.593,154.555 134.957,153.977 135.561 C 153.400 136.165,152.449 137.638,151.864 138.834 C 151.279 140.030,150.350 141.493,149.800 142.086 C 149.250 142.679,148.480 143.980,148.089 144.977 C 147.697 145.974,146.715 147.509,145.907 148.388 C 143.542 150.960,144.989 153.317,149.992 155.044 C 152.223 155.813,153.269 156.560,153.704 157.693 C 153.837 158.040,154.543 158.455,155.273 158.614 C 157.673 159.137,160.712 160.692,160.979 161.533 C 161.139 162.038,161.720 162.439,162.518 162.595 C 164.458 162.975,167.970 164.875,168.227 165.684 C 168.352 166.078,168.615 166.400,168.812 166.400 C 169.893 166.400,173.879 168.258,174.784 169.184 C 175.363 169.776,176.815 170.607,178.011 171.031 C 180.229 171.816,181.272 172.568,181.704 173.693 C 181.837 174.040,182.543 174.455,183.273 174.614 C 185.673 175.137,188.712 176.692,188.979 177.533 C 189.139 178.038,189.720 178.439,190.518 178.595 C 192.458 178.975,195.970 180.875,196.227 181.684 C 196.352 182.078,196.607 182.400,196.794 182.400 C 196.981 182.400,197.374 182.488,197.667 182.596 C 199.415 183.238,199.386 183.664,199.640 153.115 C 199.771 137.212,200.015 123.629,200.180 122.931 C 200.881 119.982,203.079 119.422,204.635 121.797 C 205.067 122.457,206.175 123.052,208.106 123.661 C 209.812 124.199,211.353 124.985,211.971 125.630 C 212.537 126.221,214.195 127.245,215.655 127.906 C 217.115 128.568,218.465 129.373,218.655 129.697 C 219.003 130.289,220.309 130.949,223.577 132.184 C 224.554 132.553,225.634 133.167,225.977 133.549 C 226.320 133.930,227.770 134.839,229.200 135.568 C 230.630 136.297,232.160 137.319,232.600 137.839 C 233.055 138.377,234.633 139.196,236.262 139.740 C 238.044 140.334,239.570 141.151,240.304 141.902 C 240.953 142.566,241.915 143.234,242.442 143.387 C 244.183 143.891,246.800 145.198,246.800 145.563 C 246.800 145.946,249.404 147.600,250.009 147.600 C 251.458 147.600,251.071 144.267,249.566 143.789 C 248.799 143.546,246.800 139.897,246.800 138.742 C 246.800 138.356,246.168 137.559,245.397 136.970 C 244.625 136.382,243.645 135.112,243.219 134.150 C 242.793 133.188,241.995 131.995,241.446 131.500 C 240.243 130.417,238.800 127.865,238.800 126.821 C 238.800 126.407,238.122 125.530,237.294 124.874 C 236.242 124.041,235.564 123.034,235.047 121.541 C 234.640 120.363,234.012 119.130,233.650 118.800 C 232.298 117.565,231.190 115.848,230.792 114.372 C 230.557 113.499,230.071 112.750,229.654 112.617 C 228.955 112.395,226.400 107.994,226.400 107.011 C 226.400 106.749,225.940 106.289,225.377 105.988 C 224.774 105.665,223.913 104.490,223.277 103.121 C 222.685 101.845,221.913 100.708,221.563 100.594 C 220.930 100.388,218.400 95.922,218.400 95.011 C 218.400 94.749,217.940 94.289,217.377 93.988 C 216.774 93.665,215.913 92.490,215.277 91.121 C 214.685 89.845,213.913 88.708,213.563 88.594 C 212.905 88.379,210.400 83.906,210.400 82.944 C 210.400 82.645,210.245 82.400,210.055 82.400 C 209.285 82.400,207.768 80.382,207.272 78.700 C 206.953 77.619,206.305 76.584,205.636 76.090 C 204.548 75.286,202.400 71.473,202.400 70.346 C 202.400 69.651,200.669 68.593,198.922 68.219 C 197.753 67.969,197.565 68.076,196.713 69.473 M200.245 71.632 C 201.120 74.054,201.000 117.933,200.115 119.211 C 198.508 121.529,196.466 123.373,194.562 124.224 C 193.441 124.725,191.693 125.854,190.678 126.732 C 189.663 127.611,188.241 128.446,187.517 128.590 C 185.260 129.036,183.864 129.704,182.000 131.227 C 181.010 132.037,179.689 132.819,179.064 132.966 C 178.440 133.113,177.360 133.852,176.664 134.608 C 175.829 135.517,174.511 136.293,172.779 136.898 C 171.189 137.452,169.659 138.321,168.892 139.106 C 168.196 139.818,167.431 140.400,167.192 140.400 C 166.286 140.400,163.362 141.972,162.441 142.954 C 161.914 143.517,160.834 144.175,160.041 144.416 C 157.868 145.079,156.862 145.647,155.372 147.052 C 150.792 151.371,146.441 148.283,150.565 143.640 C 151.535 142.547,152.446 141.236,152.588 140.726 C 153.178 138.613,154.158 136.804,154.830 136.590 C 155.224 136.465,155.934 135.562,156.409 134.582 C 156.883 133.603,157.979 131.946,158.845 130.901 C 159.710 129.855,160.604 128.315,160.831 127.478 C 161.057 126.642,161.876 125.292,162.650 124.478 C 163.424 123.665,164.288 122.460,164.570 121.800 C 164.853 121.140,165.765 119.790,166.597 118.800 C 167.429 117.810,168.458 116.190,168.883 115.200 C 169.308 114.210,170.194 112.873,170.852 112.229 C 171.510 111.584,172.282 110.504,172.566 109.829 C 172.851 109.153,173.765 107.790,174.597 106.800 C 175.429 105.810,176.458 104.190,176.883 103.200 C 177.308 102.210,178.194 100.873,178.852 100.229 C 179.510 99.584,180.283 98.504,180.569 97.829 C 180.855 97.153,181.833 95.704,182.743 94.608 C 183.653 93.513,184.510 92.020,184.647 91.291 C 184.791 90.525,185.613 89.194,186.594 88.141 C 187.701 86.953,188.548 85.516,189.027 84.020 C 189.572 82.312,190.090 81.507,191.044 80.881 C 191.846 80.356,192.431 79.571,192.602 78.790 C 192.753 78.103,193.667 76.651,194.632 75.564 C 195.598 74.476,196.506 73.095,196.650 72.493 C 197.509 68.910,199.121 68.524,200.245 71.632 M147.733 150.040 C 147.990 150.062,147.750 150.213,147.200 150.377 C 146.059 150.716,145.472 150.531,145.834 149.945 C 145.970 149.725,146.347 149.648,146.673 149.773 C 146.999 149.898,147.476 150.018,147.733 150.040 M133.323 168.341 C 132.867 168.703,132.278 169.421,132.014 169.935 C 131.750 170.450,130.934 171.535,130.201 172.346 C 129.468 173.158,128.399 174.992,127.827 176.423 C 127.254 177.853,126.353 179.490,125.824 180.060 C 125.245 180.686,124.606 182.189,124.214 183.848 C 122.878 189.511,122.652 190.239,121.722 191.861 C 118.595 197.315,118.821 233.600,121.982 233.600 C 122.310 233.600,123.459 237.121,124.175 240.323 C 124.719 242.752,125.036 243.382,126.452 244.834 C 126.810 245.202,127.496 246.771,127.976 248.321 C 128.455 249.871,129.259 251.557,129.762 252.069 C 130.266 252.581,131.156 253.963,131.742 255.139 C 132.327 256.315,133.615 258.202,134.603 259.332 C 135.591 260.462,136.400 261.585,136.400 261.828 C 136.400 262.070,137.076 262.883,137.901 263.634 C 138.727 264.385,139.750 265.540,140.175 266.200 C 141.139 267.699,141.828 268.400,142.338 268.400 C 142.555 268.400,143.286 269.099,143.962 269.953 C 144.639 270.806,145.869 271.825,146.696 272.215 C 147.523 272.606,148.420 273.235,148.688 273.613 C 148.957 273.992,150.127 274.905,151.288 275.642 C 152.450 276.380,153.638 277.213,153.930 277.493 C 154.812 278.342,157.919 280.400,158.317 280.400 C 158.522 280.400,159.390 280.958,160.245 281.640 C 162.520 283.453,164.415 284.321,166.787 284.636 C 168.161 284.818,169.565 285.369,170.834 286.223 C 173.105 287.751,174.536 288.238,177.738 288.572 C 179.024 288.706,181.544 289.272,183.338 289.830 C 185.132 290.387,187.153 291.013,187.828 291.222 C 189.829 291.838,199.224 291.672,200.400 291.000 C 201.040 290.634,202.601 290.423,204.738 290.414 C 207.392 290.403,208.301 290.240,209.173 289.619 C 210.357 288.776,212.318 288.377,221.061 287.203 C 225.941 286.547,226.854 286.310,227.686 285.478 C 228.667 284.497,232.638 282.800,233.954 282.800 C 234.352 282.800,235.320 282.175,236.107 281.412 C 237.128 280.420,238.381 279.775,240.499 279.152 C 242.474 278.571,243.585 278.020,243.831 277.499 C 244.034 277.069,244.732 276.421,245.383 276.059 C 246.893 275.218,247.472 274.797,248.538 273.764 C 250.115 272.236,252.910 270.400,253.660 270.400 C 254.067 270.400,254.400 270.164,254.400 269.876 C 254.400 269.088,256.791 266.800,257.614 266.800 C 258.100 266.800,258.560 266.207,259.030 264.978 C 259.473 263.818,260.123 262.950,260.818 262.591 C 261.505 262.235,262.398 261.055,263.224 259.413 C 263.946 257.976,264.661 256.800,264.814 256.800 C 265.392 256.800,267.200 254.660,267.200 253.976 C 267.200 253.091,269.079 250.800,269.805 250.800 C 270.349 250.800,270.944 249.303,271.395 246.800 C 271.713 245.033,272.332 243.675,273.400 242.400 C 274.453 241.143,275.068 239.268,275.431 236.200 C 275.729 233.686,276.714 230.951,277.672 229.975 C 278.820 228.805,279.200 224.297,279.200 211.831 C 279.200 198.978,278.997 196.996,277.413 194.400 C 276.364 192.679,275.693 190.545,275.212 187.400 C 274.619 183.526,274.382 182.892,272.955 181.380 C 272.210 180.590,271.600 179.707,271.600 179.417 C 271.600 178.463,270.249 174.605,269.820 174.335 C 268.636 173.588,267.650 172.444,266.993 171.050 C 266.261 169.500,265.200 169.757,265.200 171.484 C 265.200 172.099,263.447 175.019,262.361 176.214 C 261.954 176.662,261.250 178.192,260.796 179.614 C 260.342 181.036,259.449 182.850,258.811 183.644 C 258.173 184.439,257.188 186.229,256.622 187.623 C 256.056 189.016,255.253 190.526,254.838 190.978 C 253.967 191.928,252.400 194.784,252.400 195.422 C 252.400 195.661,251.812 196.563,251.093 197.428 C 249.556 199.276,248.990 200.386,248.400 202.705 C 248.161 203.643,247.474 204.993,246.873 205.705 C 245.558 207.262,244.976 208.439,244.400 210.705 C 244.161 211.643,243.479 212.993,242.883 213.705 C 241.475 215.388,240.965 216.337,240.618 217.920 C 240.461 218.631,239.719 219.865,238.968 220.661 C 238.218 221.457,237.217 223.169,236.744 224.466 C 236.266 225.778,235.220 227.530,234.387 228.414 C 233.303 229.565,232.816 230.496,232.622 231.793 C 232.440 233.003,231.794 234.329,230.625 235.891 C 229.529 237.354,228.791 238.826,228.611 239.909 C 228.434 240.972,227.687 242.485,226.635 243.909 C 225.705 245.169,224.727 246.957,224.461 247.882 C 224.196 248.807,223.742 249.801,223.452 250.091 C 222.415 251.128,220.897 253.846,220.601 255.197 C 220.228 256.896,219.752 257.721,218.146 259.458 C 217.456 260.205,216.689 261.617,216.442 262.597 C 216.196 263.577,215.495 264.969,214.886 265.690 C 213.559 267.261,212.977 268.433,212.400 270.705 C 212.161 271.643,211.479 272.993,210.883 273.705 C 209.421 275.453,208.903 276.445,208.595 278.086 C 208.452 278.847,207.801 280.084,207.148 280.835 C 205.757 282.433,204.606 284.814,204.244 286.836 C 204.103 287.626,203.546 288.687,203.006 289.194 L 202.024 290.116 201.564 288.958 C 199.507 283.782,199.606 286.021,199.603 244.589 C 199.600 202.100,199.761 204.800,197.221 204.800 C 196.035 204.800,194.717 204.187,193.400 203.022 C 192.740 202.439,191.278 201.533,190.152 201.010 C 189.025 200.486,187.675 199.530,187.152 198.884 C 186.448 198.016,185.500 197.524,183.516 197.000 C 181.013 196.338,179.702 195.562,178.923 194.280 C 178.745 193.988,177.520 193.420,176.200 193.018 C 174.426 192.478,173.358 191.833,172.107 190.544 C 171.016 189.420,170.065 188.800,169.433 188.800 C 168.040 188.800,166.784 188.246,165.400 187.022 C 164.740 186.439,163.278 185.533,162.152 185.010 C 161.025 184.486,159.675 183.530,159.152 182.884 C 158.448 182.016,157.500 181.524,155.516 181.000 C 153.013 180.338,151.702 179.562,150.923 178.280 C 150.745 177.988,149.520 177.420,148.200 177.018 C 146.426 176.478,145.358 175.833,144.107 174.544 C 143.175 173.585,142.123 172.800,141.768 172.800 C 140.812 172.800,138.773 171.567,137.405 170.162 C 135.317 168.016,134.301 167.563,133.323 168.341 M135.869 170.948 C 136.221 171.637,137.339 173.010,138.354 174.000 C 139.645 175.259,140.344 176.347,140.677 177.618 C 140.939 178.619,141.861 180.329,142.726 181.418 C 143.591 182.508,144.435 184.024,144.600 184.787 C 144.971 186.490,145.437 187.348,147.071 189.333 C 147.800 190.219,148.461 191.579,148.621 192.523 C 148.947 194.454,149.349 195.241,151.083 197.347 C 151.895 198.332,152.464 199.554,152.631 200.671 C 152.830 201.995,153.331 202.903,154.637 204.305 C 155.951 205.716,156.443 206.612,156.646 207.965 C 156.846 209.302,157.342 210.218,158.600 211.578 C 159.711 212.780,160.528 214.184,160.998 215.703 C 161.420 217.065,162.261 218.589,163.056 219.432 C 163.795 220.216,164.400 221.093,164.400 221.383 C 164.400 222.820,165.880 226.185,167.065 227.441 C 167.799 228.220,168.400 229.093,168.400 229.383 C 168.400 230.912,169.904 234.291,171.021 235.272 C 171.704 235.871,172.473 237.067,172.732 237.929 C 172.990 238.792,173.898 240.375,174.750 241.449 C 175.602 242.522,176.435 244.024,176.600 244.787 C 176.971 246.490,177.437 247.348,179.071 249.333 C 179.800 250.219,180.461 251.579,180.621 252.523 C 180.947 254.451,181.349 255.242,183.071 257.333 C 183.782 258.196,184.462 259.580,184.612 260.471 C 184.946 262.447,185.471 263.430,187.100 265.129 C 187.831 265.890,188.488 267.085,188.640 267.929 C 188.990 269.871,189.463 270.732,191.052 272.327 C 191.793 273.071,192.487 274.259,192.632 275.031 C 192.774 275.789,193.050 276.507,193.245 276.628 C 193.440 276.749,193.600 277.081,193.600 277.368 C 193.600 277.654,194.230 278.556,195.000 279.373 C 195.770 280.189,196.400 281.110,196.400 281.420 C 196.400 281.730,196.829 283.292,197.352 284.892 C 197.876 286.491,198.412 288.385,198.542 289.100 L 198.780 290.400 194.413 290.400 C 190.836 290.400,189.806 290.261,188.723 289.633 C 187.524 288.938,184.682 288.328,177.200 287.160 C 173.114 286.522,172.867 286.442,172.623 285.671 C 172.295 284.639,169.881 283.600,167.810 283.600 C 166.840 283.600,165.945 283.434,165.819 283.231 C 165.694 283.028,165.078 282.749,164.450 282.611 C 163.823 282.473,162.937 281.932,162.481 281.407 C 162.025 280.883,160.561 279.947,159.227 279.327 C 157.893 278.707,156.707 277.911,156.592 277.557 C 156.476 277.203,155.700 276.606,154.867 276.230 C 154.034 275.855,152.463 274.739,151.376 273.752 C 150.289 272.765,148.590 271.581,147.600 271.123 C 146.610 270.664,145.440 269.742,145.000 269.074 C 144.560 268.406,143.631 267.576,142.936 267.230 C 142.165 266.846,141.345 265.933,140.837 264.892 C 140.378 263.953,139.591 262.997,139.089 262.768 C 138.586 262.539,137.665 261.444,137.042 260.336 C 136.419 259.227,135.414 257.843,134.810 257.260 C 133.613 256.105,132.400 253.986,132.400 253.051 C 132.400 252.727,131.846 251.908,131.170 251.232 C 130.043 250.105,128.400 246.432,128.400 245.041 C 128.400 244.722,127.864 243.925,127.209 243.270 C 125.903 241.965,125.021 239.689,124.622 236.600 C 124.317 234.235,123.750 232.620,122.677 231.063 C 121.189 228.905,120.801 224.985,120.800 212.120 C 120.800 198.831,120.989 197.219,123.020 193.200 C 123.853 191.550,124.424 189.723,124.582 188.200 C 124.952 184.636,125.605 182.769,127.054 181.124 C 127.770 180.312,128.475 179.005,128.623 178.219 C 128.770 177.434,129.050 176.693,129.245 176.572 C 129.440 176.451,129.600 176.026,129.600 175.627 C 129.600 175.228,130.204 174.384,130.943 173.751 C 131.682 173.118,132.423 172.150,132.591 171.600 C 133.360 169.070,134.766 168.791,135.869 170.948 " stroke="none" fill="#247424" fill-rule="evenodd"></path></g></svg>