<?xml version="1.0" encoding="UTF-8"?><svg xmlns="http://www.w3.org/2000/svg" xmlns:xlink="http://www.w3.org/1999/xlink" viewBox="0 0 199.8 199.8"><defs><style>.e{fill:#fff;}.f{fill:url(#d);}</style><linearGradient id="d" x1="65.54" y1="193.03" x2="134.26" y2="193.03" gradientTransform="translate(0 292.93) scale(1 -1)" gradientUnits="userSpaceOnUse"><stop offset="0" stop-color="#e95130"/><stop offset=".49" stop-color="#ed6c0f"/><stop offset="1" stop-color="#f49844"/></linearGradient></defs><g id="a"/><g id="b"><g id="c"><g><g><circle cx="99.9" cy="99.9" r="99.9" transform="translate(-41.38 99.9) rotate(-45)"/><path class="e" d="M100.83,15.73h-2.78C51.8,16.65,14.8,54.58,15.72,101.75c.92,46.25,38.85,83.25,86.03,82.33,45.33-.92,81.4-37,82.33-82.33,.93-46.25-37-85.1-83.25-86.03Zm-.92,157.25c-40.7,0-73.08-32.38-73.08-73.08S59.2,26.83,99.9,26.83s73.08,32.38,73.08,73.08-32.38,73.08-73.08,73.08Z"/><circle cx="99.9" cy="99.9" r="73.08" transform="translate(-41.38 99.9) rotate(-45)"/></g><path class="f" d="M73.64,145.17c-2.28,0-4.22-.76-5.82-2.28-1.52-1.52-2.28-3.41-2.28-5.69s.76-4.13,2.28-5.56c1.6-1.52,3.54-2.28,5.82-2.28h6.2l-3.67,3.04v-29.21l3.54,3.41h-7.71c-1.85,0-3.41-.59-4.68-1.77-1.18-1.18-1.77-2.66-1.77-4.43s.59-3.33,1.77-4.43c1.26-1.1,2.82-1.64,4.68-1.64h7.71l-3.54,3.67v-14.67c0-5.65,1.14-10.62,3.41-14.92,2.28-4.3,5.73-7.67,10.37-10.12,4.72-2.44,10.58-3.67,17.58-3.67,4.05,0,8.09,.55,12.14,1.64,4.13,1.01,7.5,2.4,10.12,4.17,1.86,1.1,3.12,2.4,3.79,3.92,.68,1.52,.84,3.08,.51,4.68-.25,1.52-.93,2.83-2.02,3.92-1.01,1.1-2.36,1.81-4.05,2.15-1.6,.25-3.37-.17-5.31-1.26-2.19-1.35-4.51-2.28-6.96-2.78-2.36-.59-4.68-.89-6.95-.89-4.47,0-7.76,1.1-9.86,3.29-2.11,2.11-3.16,5.14-3.16,9.11v15.05l-1.9-3.29h16.44c1.85,0,3.37,.55,4.55,1.64,1.26,1.1,1.9,2.57,1.9,4.43s-.63,3.25-1.9,4.43c-1.18,1.18-2.7,1.77-4.55,1.77h-14.54v22.76h30.22c2.36,0,4.3,.76,5.82,2.28,1.52,1.43,2.28,3.29,2.28,5.56s-.76,4.17-2.28,5.69c-1.52,1.52-3.46,2.28-5.82,2.28h-52.36Z"/></g></g></g></svg>