<svg width="305" height="305" viewBox="0 0 305 305" fill="none" xmlns="http://www.w3.org/2000/svg">
<path d="M50.0391 150.117C50.0391 94.8456 94.8456 50.0391 150.117 50.0391H238.281C247.493 50.0391 254.961 57.5068 254.961 66.7188V154.883C254.961 210.154 210.154 254.961 154.883 254.961H66.7187C57.5068 254.961 50.0391 247.493 50.0391 238.281V150.117Z" fill="black"/>
<path fill-rule="evenodd" clip-rule="evenodd" d="M152.5 226.367C193.296 226.367 226.367 193.296 226.367 152.5C226.367 111.704 193.296 78.6328 152.5 78.6328C111.704 78.6328 78.6328 111.704 78.6328 152.5C78.6328 193.296 111.704 226.367 152.5 226.367ZM152.5 238.281C199.876 238.281 238.281 199.876 238.281 152.5C238.281 105.124 199.876 66.7188 152.5 66.7188C105.124 66.7188 66.7188 105.124 66.7188 152.5C66.7188 199.876 105.124 238.281 152.5 238.281Z" fill="white"/>
<path d="M127.234 197.773C124.958 197.773 123.019 197.015 121.417 195.497C119.899 193.98 119.141 192.083 119.141 189.806C119.141 187.53 119.899 185.675 121.417 184.242C123.019 182.724 124.958 181.966 127.234 181.966H133.431L129.763 185.001V155.788L133.304 159.202H125.59C123.735 159.202 122.176 158.612 120.911 157.432C119.731 156.252 119.141 154.776 119.141 153.006C119.141 151.151 119.731 149.676 120.911 148.58C122.176 147.484 123.735 146.936 125.59 146.936H133.304L129.763 150.603V135.933C129.763 130.285 130.902 125.311 133.178 121.011C135.454 116.711 138.911 113.339 143.548 110.894C148.269 108.449 154.128 107.227 161.126 107.227C165.173 107.227 169.22 107.775 173.266 108.871C177.398 109.882 180.77 111.273 183.383 113.044C185.238 114.14 186.503 115.447 187.177 116.964C187.852 118.482 188.02 120.041 187.683 121.643C187.43 123.161 186.756 124.468 185.66 125.564C184.648 126.66 183.299 127.376 181.613 127.713C180.011 127.966 178.241 127.545 176.302 126.449C174.109 125.1 171.791 124.172 169.346 123.667C166.985 123.076 164.667 122.781 162.391 122.781C157.922 122.781 154.634 123.877 152.527 126.069C150.419 128.177 149.365 131.212 149.365 135.175V150.224L147.468 146.936H163.908C165.763 146.936 167.281 147.484 168.461 148.58C169.725 149.676 170.358 151.151 170.358 153.006C170.358 154.776 169.725 156.252 168.461 157.432C167.281 158.612 165.763 159.202 163.908 159.202H149.365V181.966H179.59C181.95 181.966 183.889 182.724 185.407 184.242C186.924 185.675 187.683 187.53 187.683 189.806C187.683 192.083 186.924 193.98 185.407 195.497C183.889 197.015 181.95 197.773 179.59 197.773H127.234Z" fill="url(#paint0_linear_2313_19521)"/>
<defs>
<linearGradient id="paint0_linear_2313_19521" x1="119.141" y1="152.5" x2="187.852" y2="152.5" gradientUnits="userSpaceOnUse">
<stop stop-color="#E95130"/>
<stop offset="0.494792" stop-color="#ED6C0F"/>
<stop offset="1" stop-color="#F49844"/>
</linearGradient>
</defs>
</svg>
