<svg width="28" height="28" viewBox="0 0 28 28" fill="none" xmlns="http://www.w3.org/2000/svg">
<path d="M14 28C21.732 28 28 21.732 28 14C28 6.26801 21.732 0 14 0C6.26801 0 0 6.26801 0 14C0 21.732 6.26801 28 14 28Z" fill="white"/>
<path d="M27.5 14C27.5 21.4558 21.4558 27.5 14 27.5C6.54416 27.5 0.5 21.4558 0.5 14C0.5 6.54416 6.54416 0.5 14 0.5C21.4558 0.5 27.5 6.54416 27.5 14Z" fill="white" stroke="#EAB300"/>
<path d="M19.5083 10.5703C19.3279 8.69541 17.7093 8.06709 15.6638 7.88789V5.28613H14.081V7.81845C13.6654 7.81845 13.2398 7.82629 12.8175 7.83525V5.28613H11.2346L11.2335 7.88565C10.8908 7.89237 10.5536 7.89909 10.2254 7.89909V7.89125L8.04214 7.89013V9.58133C8.04214 9.58133 9.2116 9.55893 9.19144 9.58021C9.8333 9.58021 10.0417 9.95205 10.1021 10.2735V13.237C10.147 13.237 10.2041 13.2393 10.2691 13.2482H10.1021L10.101 17.4001C10.073 17.6017 9.95428 17.9231 9.50621 17.9242C9.52637 17.9421 8.35579 17.9242 8.35579 17.9242L8.04102 19.8148H10.1021C10.4852 19.8148 10.8627 19.8215 11.2324 19.8237L11.2335 22.4546H12.8152V19.8517C13.2487 19.8607 13.6688 19.8641 14.0799 19.8641L14.0788 22.4546H15.6616V19.8293C18.3231 19.677 20.1882 19.0061 20.419 16.5063C20.6061 14.4937 19.6595 13.5943 18.1484 13.2314C19.0681 12.7655 19.6427 11.9423 19.5083 10.5703V10.5703ZM17.2926 16.1949C17.2926 18.1605 13.9264 17.9377 12.8522 17.9377V14.4511C13.9264 14.4533 17.2926 14.1453 17.2926 16.1949V16.1949ZM16.5555 11.277C16.5555 13.0657 13.7461 12.8562 12.8522 12.8573V9.69669C13.7472 9.69669 16.5566 9.41221 16.5555 11.277Z" fill="#EAB300"/>
<path d="M10.1045 13.168H10.3397V13.3416H10.1045V13.168Z" fill="white"/>
</svg>
