<svg id="svg" version="1.1" xmlns="http://www.w3.org/2000/svg" xmlns:xlink="http://www.w3.org/1999/xlink" width="400" height="400" viewBox="0, 0, 400,400"><g id="svgg"><path id="path0" d="M54.629 282.629 C 54.283 282.974,54.000 283.874,54.000 284.629 L 54.000 286.000 47.500 286.047 C 38.921 286.110,38.712 286.161,38.289 288.302 L 37.953 290.000 32.605 290.000 C 26.590 290.000,26.000 290.235,26.000 292.629 L 26.000 294.000 22.900 294.047 C 21.195 294.073,19.599 294.071,19.353 294.042 C 18.842 293.982,17.942 294.947,18.033 295.458 C 18.426 297.644,18.079 297.999,15.500 298.047 C 11.208 298.129,10.673 298.358,10.293 300.282 C 9.982 301.855,9.855 301.982,8.282 302.293 C 6.148 302.715,6.109 302.887,6.047 312.100 L 6.000 319.200 8.153 319.200 C 10.147 319.200,10.411 319.315,11.707 320.750 C 12.478 321.603,13.669 322.632,14.354 323.036 C 15.039 323.441,15.600 323.873,15.600 323.995 C 15.600 324.118,16.230 324.557,17.000 324.972 C 17.770 325.387,18.400 325.874,18.400 326.055 C 18.400 326.511,21.338 327.965,23.644 328.650 C 24.700 328.964,25.796 329.443,26.081 329.715 C 27.364 330.939,28.942 331.604,32.053 332.230 C 33.894 332.600,35.850 333.219,36.400 333.606 C 38.085 334.790,40.088 335.467,44.026 336.186 C 47.727 336.860,48.382 337.040,50.400 337.937 C 52.180 338.729,54.957 339.511,56.800 339.741 C 63.586 340.588,67.238 341.191,68.800 341.721 C 73.416 343.289,83.244 344.782,89.104 344.806 C 90.560 344.812,93.308 345.574,93.859 346.126 C 94.010 346.277,94.868 346.404,95.767 346.410 C 96.665 346.415,98.120 346.612,99.000 346.849 C 101.144 347.424,106.756 347.894,117.600 348.405 C 122.929 348.656,127.659 349.086,129.197 349.458 C 130.625 349.803,134.428 350.223,137.649 350.390 C 140.869 350.557,143.751 350.853,144.052 351.047 C 146.423 352.575,251.920 352.409,257.400 350.869 C 258.280 350.621,260.620 350.405,262.600 350.389 C 264.580 350.372,267.550 350.083,269.200 349.746 C 270.850 349.410,275.800 348.968,280.200 348.764 C 284.600 348.561,289.418 348.216,290.907 347.997 C 292.397 347.779,294.683 347.600,295.988 347.600 C 297.293 347.600,299.398 347.330,300.665 347.000 C 301.931 346.670,303.653 346.400,304.489 346.400 C 305.326 346.400,306.368 346.220,306.805 346.000 C 307.242 345.780,307.958 345.420,308.395 345.200 C 308.832 344.980,310.007 344.800,311.006 344.800 C 316.180 344.800,328.066 343.113,330.600 342.020 C 331.950 341.437,334.846 340.822,338.200 340.405 C 342.871 339.825,346.090 339.309,347.000 338.996 C 347.440 338.844,348.880 338.303,350.200 337.793 C 351.520 337.284,354.307 336.557,356.394 336.178 C 359.870 335.547,360.618 335.320,362.400 334.349 C 364.523 333.193,365.733 332.762,368.377 332.220 C 370.344 331.818,372.041 331.156,373.377 330.271 C 374.490 329.535,375.940 328.806,376.600 328.653 C 378.241 328.272,380.873 326.922,382.037 325.863 C 382.567 325.381,383.900 324.407,385.000 323.698 C 386.100 322.990,387.608 321.673,388.351 320.771 C 389.666 319.176,389.760 319.136,391.852 319.266 L 394.001 319.400 393.953 312.200 C 393.891 302.879,393.854 302.715,391.718 302.293 C 390.145 301.982,390.018 301.855,389.707 300.282 C 389.327 298.358,388.792 298.129,384.500 298.047 L 382.000 298.000 382.000 296.449 C 382.000 295.001,381.331 293.892,380.542 294.033 C 380.354 294.067,378.805 294.073,377.100 294.047 L 374.000 294.000 374.000 292.629 C 374.000 290.235,373.410 290.000,367.395 290.000 L 362.047 290.000 361.711 288.302 C 361.288 286.161,361.079 286.110,352.500 286.047 L 346.000 286.000 346.000 284.629 C 346.000 282.236,345.405 281.998,339.471 282.015 L 334.200 282.031 333.400 283.273 C 332.932 283.999,332.019 284.699,331.201 284.957 C 330.224 285.266,329.559 285.851,329.001 286.893 C 328.562 287.713,327.690 288.597,327.065 288.856 C 326.358 289.149,325.613 289.976,325.094 291.044 C 324.583 292.095,323.828 292.940,323.148 293.222 C 322.536 293.475,321.704 294.322,321.298 295.104 C 320.892 295.887,319.969 296.843,319.247 297.231 C 318.525 297.618,317.620 298.520,317.236 299.236 C 316.852 299.952,315.952 300.852,315.236 301.236 C 314.520 301.620,313.620 302.520,313.236 303.236 C 312.852 303.952,311.944 304.857,311.218 305.246 C 310.493 305.635,309.517 306.511,309.049 307.192 C 308.575 307.883,307.704 308.536,307.078 308.670 C 306.460 308.801,305.650 309.338,305.278 309.862 C 304.009 311.647,303.401 312.199,301.826 313.000 C 300.960 313.440,299.833 314.250,299.322 314.800 L 298.392 315.800 201.257 315.800 C 100.221 315.800,102.872 315.838,101.600 314.371 C 101.490 314.244,100.349 313.613,99.064 312.970 C 97.780 312.326,96.442 311.316,96.092 310.724 C 95.743 310.133,94.816 309.323,94.034 308.924 C 92.273 308.027,91.946 307.725,91.002 306.118 C 90.588 305.413,89.892 304.783,89.455 304.718 C 89.019 304.653,88.099 303.799,87.412 302.820 C 86.604 301.671,85.731 300.929,84.947 300.726 C 84.161 300.523,83.480 299.943,83.018 299.085 C 82.625 298.356,81.813 297.478,81.214 297.134 C 80.614 296.790,79.725 295.685,79.238 294.679 C 78.645 293.454,78.063 292.808,77.476 292.725 C 76.942 292.649,76.132 291.862,75.400 290.707 C 74.740 289.666,74.003 288.811,73.761 288.807 C 73.129 288.797,71.906 287.587,71.126 286.199 C 70.666 285.380,69.993 284.891,69.005 284.655 C 68.140 284.449,67.214 283.845,66.704 283.155 L 65.850 282.000 60.553 282.000 C 56.272 282.000,55.137 282.120,54.629 282.629 M369.002 369.198 C 368.603 369.639,368.407 370.000,368.567 370.000 C 368.988 370.000,370.128 368.795,369.912 368.579 C 369.811 368.478,369.402 368.756,369.002 369.198 " stroke="none" fill="#155e05" fill-rule="evenodd"></path><path id="path1" d="M6.008 336.358 L 6.032 353.515 6.916 353.752 C 7.402 353.882,8.285 353.992,8.878 353.995 C 9.880 354.000,9.965 354.135,10.078 355.900 L 10.200 357.800 12.100 357.922 C 13.983 358.043,14.000 358.056,14.000 359.450 C 14.000 361.635,14.654 362.000,18.571 362.000 L 22.000 362.000 22.046 363.300 C 22.072 364.015,22.117 364.870,22.146 365.200 C 22.189 365.677,22.976 365.826,25.995 365.929 C 30.291 366.074,30.100 366.004,30.100 367.433 C 30.100 368.563,31.299 370.070,32.114 369.967 C 32.381 369.933,34.774 369.927,37.431 369.953 L 42.261 370.000 42.085 371.200 C 41.972 371.974,42.082 372.400,42.397 372.400 C 42.682 372.400,42.782 372.669,42.638 373.045 C 42.461 373.506,42.563 373.623,42.995 373.457 C 43.328 373.329,43.600 373.378,43.600 373.565 C 43.600 373.752,44.185 373.901,44.900 373.896 C 45.615 373.892,49.755 373.913,54.100 373.944 L 62.000 374.000 62.000 375.586 C 62.000 377.928,62.324 378.000,72.904 378.000 L 82.261 378.000 82.085 379.200 C 81.972 379.974,82.082 380.400,82.397 380.400 C 82.682 380.400,82.782 380.669,82.638 381.045 C 82.461 381.506,82.563 381.623,82.995 381.457 C 83.328 381.329,83.600 381.378,83.600 381.565 C 83.600 381.752,84.185 381.901,84.900 381.896 C 85.615 381.892,93.355 381.913,102.100 381.944 L 118.000 382.000 118.000 383.586 C 118.000 386.161,112.658 386.004,200.336 385.998 C 290.264 385.992,281.490 386.271,281.897 383.400 C 281.991 382.740,282.106 382.161,282.153 382.114 C 282.201 382.066,289.656 382.008,298.720 381.984 C 309.233 381.956,315.200 381.798,315.200 381.546 C 315.200 381.330,315.391 381.271,315.625 381.416 C 316.200 381.771,317.679 380.383,317.427 379.725 C 317.316 379.436,317.419 379.200,317.655 379.200 C 317.892 379.200,317.982 378.930,317.855 378.600 C 317.642 378.043,325.077 377.792,337.900 377.923 C 338.615 377.930,339.200 377.760,339.200 377.544 C 339.200 377.329,339.391 377.271,339.625 377.416 C 340.200 377.771,341.679 376.383,341.427 375.725 C 341.316 375.436,341.419 375.200,341.655 375.200 C 341.892 375.200,341.982 374.930,341.855 374.600 C 341.658 374.084,342.468 373.993,347.613 373.950 C 357.634 373.866,357.542 373.894,357.740 370.900 C 357.794 370.090,364.791 369.437,367.742 369.967 C 367.930 370.000,368.307 369.843,368.579 369.618 C 368.851 369.392,369.221 369.340,369.401 369.503 C 369.581 369.667,369.606 369.587,369.458 369.328 C 369.309 369.068,369.347 368.756,369.543 368.635 C 369.740 368.514,369.900 367.954,369.900 367.391 C 369.900 366.007,369.772 366.055,373.707 365.968 C 376.878 365.898,377.863 365.605,377.966 364.700 C 377.985 364.535,378.000 363.860,378.000 363.200 L 378.000 362.000 381.429 362.000 C 385.346 362.000,386.000 361.635,386.000 359.450 C 386.000 358.056,386.017 358.043,387.900 357.922 L 389.800 357.800 389.922 355.900 C 390.042 354.036,390.070 353.999,391.422 353.950 C 392.180 353.923,393.025 353.878,393.300 353.850 C 393.691 353.811,393.800 350.067,393.800 336.600 L 393.800 319.400 391.739 319.280 C 389.759 319.166,389.625 319.225,388.339 320.786 C 387.603 321.679,386.100 322.990,385.000 323.698 C 383.900 324.407,382.567 325.381,382.037 325.863 C 380.873 326.922,378.241 328.272,376.600 328.653 C 375.940 328.806,374.490 329.535,373.377 330.271 C 372.041 331.156,370.344 331.818,368.377 332.220 C 365.733 332.762,364.523 333.193,362.400 334.349 C 360.618 335.320,359.870 335.547,356.394 336.178 C 354.307 336.557,351.520 337.284,350.200 337.793 C 348.880 338.303,347.440 338.844,347.000 338.996 C 346.090 339.309,342.871 339.825,338.200 340.405 C 334.846 340.822,331.950 341.437,330.600 342.020 C 328.066 343.113,316.180 344.800,311.006 344.800 C 310.007 344.800,308.832 344.980,308.395 345.200 C 307.958 345.420,307.242 345.780,306.805 346.000 C 306.368 346.220,305.326 346.400,304.489 346.400 C 303.653 346.400,301.931 346.670,300.665 347.000 C 299.398 347.330,297.293 347.600,295.988 347.600 C 294.683 347.600,292.397 347.779,290.907 347.997 C 289.418 348.216,284.600 348.561,280.200 348.764 C 275.800 348.968,270.850 349.410,269.200 349.746 C 267.550 350.083,264.580 350.372,262.600 350.389 C 260.620 350.405,258.280 350.621,257.400 350.869 C 251.920 352.409,146.423 352.575,144.052 351.047 C 143.751 350.853,140.869 350.557,137.649 350.390 C 134.428 350.223,130.625 349.803,129.197 349.458 C 127.659 349.086,122.929 348.656,117.600 348.405 C 106.756 347.894,101.144 347.424,99.000 346.849 C 98.120 346.612,96.665 346.415,95.767 346.410 C 94.868 346.404,94.010 346.277,93.859 346.126 C 93.308 345.574,90.560 344.812,89.104 344.806 C 83.244 344.782,73.416 343.289,68.800 341.721 C 67.238 341.191,63.586 340.588,56.800 339.741 C 54.957 339.511,52.180 338.729,50.400 337.937 C 48.382 337.040,47.727 336.860,44.026 336.186 C 40.088 335.467,38.085 334.790,36.400 333.606 C 35.850 333.219,33.894 332.600,32.053 332.230 C 28.942 331.604,27.364 330.939,26.081 329.715 C 25.796 329.443,24.700 328.964,23.644 328.650 C 21.338 327.965,18.400 326.511,18.400 326.055 C 18.400 325.874,17.770 325.387,17.000 324.972 C 16.230 324.557,15.600 324.118,15.600 323.995 C 15.600 323.873,15.039 323.441,14.354 323.036 C 13.669 322.632,12.478 321.603,11.707 320.750 C 10.410 319.314,10.148 319.200,8.146 319.200 L 5.985 319.200 6.008 336.358 " stroke="none" fill="#4bdb4b" fill-rule="evenodd"></path><path id="path2" d="M281.685 120.786 C 277.991 121.782,278.075 121.718,278.104 123.499 C 278.137 125.504,278.602 126.000,280.449 126.000 L 282.000 126.000 282.061 129.100 C 282.155 133.878,282.214 134.000,284.424 134.000 L 286.000 134.000 286.061 137.100 C 286.155 141.869,286.217 142.000,288.391 142.000 L 289.934 142.000 290.129 144.700 C 290.472 149.479,290.411 149.338,292.300 149.711 C 293.772 150.002,294.008 150.192,294.061 151.124 C 294.204 153.655,294.488 154.000,296.424 154.000 L 298.000 154.000 298.000 155.757 C 298.000 157.699,298.353 158.000,300.633 158.000 C 301.851 158.000,302.003 158.120,302.027 159.100 C 302.042 159.705,302.116 160.920,302.191 161.800 C 302.497 165.377,302.483 165.352,304.261 165.703 C 305.906 166.029,306.436 166.737,306.563 168.786 C 306.586 169.143,307.250 169.502,308.261 169.702 C 309.906 170.029,310.436 170.738,310.563 172.786 C 310.586 173.143,311.250 173.502,312.261 173.702 C 313.906 174.029,314.436 174.738,314.563 176.786 C 314.586 177.143,315.250 177.502,316.261 177.702 C 317.888 178.025,318.703 179.128,318.455 180.670 C 318.317 181.521,320.102 181.920,324.300 181.977 C 325.964 182.000,326.000 182.029,326.000 183.367 C 326.000 185.647,326.301 186.000,328.243 186.000 C 329.975 186.000,330.001 186.020,330.050 187.400 C 330.078 188.170,330.123 189.025,330.150 189.300 C 330.180 189.603,330.947 189.848,332.100 189.922 C 333.849 190.034,334.005 190.130,334.061 191.122 C 334.094 191.715,334.141 192.433,334.164 192.717 C 334.230 193.514,335.250 193.987,336.918 193.994 C 338.436 194.000,338.436 194.001,338.174 195.400 C 337.995 196.352,338.061 196.800,338.379 196.800 C 338.637 196.800,338.736 196.980,338.600 197.200 C 338.464 197.420,338.588 197.627,338.876 197.661 C 339.164 197.694,339.580 197.764,339.800 197.815 C 340.020 197.866,340.585 197.928,341.057 197.954 C 341.880 197.998,342.645 199.486,342.455 200.670 C 342.332 201.431,343.010 201.632,346.498 201.868 C 350.410 202.132,349.897 201.826,350.075 204.000 L 350.222 205.800 352.111 205.922 C 354.068 206.048,354.220 206.229,354.056 208.246 C 353.929 209.807,354.788 210.031,360.455 209.912 L 365.800 209.800 365.910 203.717 C 366.004 198.550,366.110 197.667,366.610 197.859 C 366.935 197.984,367.200 197.924,367.200 197.727 C 367.200 197.530,367.695 197.376,368.300 197.384 C 369.241 197.398,369.398 197.241,369.384 196.300 C 369.376 195.695,369.502 195.200,369.665 195.200 C 369.829 195.200,369.975 188.835,369.990 181.056 C 370.019 166.054,369.999 165.892,368.153 166.059 C 365.982 166.255,366.000 166.290,366.000 161.833 C 366.000 156.475,365.967 156.400,363.618 156.400 C 361.771 156.400,361.702 156.355,360.970 154.700 C 360.556 153.765,359.854 152.743,359.409 152.429 C 358.964 152.115,357.934 151.172,357.120 150.334 C 356.306 149.495,354.683 148.355,353.513 147.801 C 352.343 147.247,350.939 146.380,350.392 145.873 C 349.846 145.366,348.409 144.609,347.199 144.189 C 345.990 143.770,344.068 142.846,342.928 142.136 C 341.789 141.427,340.079 140.637,339.128 140.382 C 335.701 139.463,333.780 138.685,332.702 137.778 C 332.098 137.271,331.198 136.747,330.702 136.614 C 327.419 135.734,326.445 135.429,325.200 134.892 C 324.430 134.560,323.350 133.982,322.800 133.608 C 322.250 133.234,320.479 132.614,318.865 132.229 C 315.591 131.449,313.978 130.786,312.188 129.483 C 311.496 128.979,309.694 128.364,307.992 128.051 C 305.953 127.676,304.341 127.075,302.897 126.151 C 301.735 125.408,300.589 124.800,300.349 124.800 C 299.039 124.800,293.951 123.309,292.400 122.470 C 291.410 121.935,290.117 121.243,289.527 120.933 C 287.726 119.985,284.853 119.931,281.685 120.786 M341.002 277.198 C 340.603 277.639,340.407 278.000,340.567 278.000 C 340.988 278.000,342.128 276.795,341.912 276.579 C 341.811 276.478,341.402 276.756,341.002 277.198 " stroke="none" fill="#ec7534" fill-rule="evenodd"></path><path id="path3" d="M162.854 15.015 C 162.205 15.697,161.968 16.320,162.099 17.004 L 162.289 18.000 155.568 18.000 C 151.447 18.000,148.750 18.157,148.596 18.407 C 148.458 18.630,148.176 18.709,147.969 18.581 C 147.563 18.330,146.354 19.353,146.436 19.879 C 146.740 21.819,145.886 22.133,140.507 22.062 C 139.394 22.047,138.845 22.204,138.907 22.520 C 138.958 22.784,138.763 22.951,138.473 22.891 C 138.176 22.830,137.978 23.091,138.019 23.491 C 138.267 25.908,138.172 26.000,135.424 26.000 C 134.007 26.000,132.734 26.183,132.596 26.407 C 132.458 26.630,132.176 26.709,131.969 26.581 C 131.480 26.279,130.279 27.480,130.581 27.969 C 130.709 28.176,130.630 28.458,130.407 28.596 C 130.183 28.734,130.000 30.007,130.000 31.424 C 130.000 33.984,129.993 34.000,128.870 34.000 C 126.402 34.000,126.000 35.126,126.000 42.046 C 126.000 46.447,126.145 48.396,126.500 48.779 C 126.904 49.214,126.894 49.257,126.448 49.003 C 126.073 48.789,125.955 48.866,126.079 49.244 C 126.192 49.587,126.978 49.847,128.131 49.922 L 130.000 50.044 130.047 52.722 C 130.073 54.195,130.061 55.645,130.020 55.944 C 129.898 56.829,131.472 58.000,132.783 58.000 C 133.982 58.000,134.233 58.396,134.020 59.944 C 133.891 60.874,135.484 62.000,136.928 62.000 C 138.185 62.000,138.274 62.081,138.086 63.063 C 137.945 63.801,138.107 64.289,138.618 64.663 C 139.108 65.021,139.172 65.200,138.810 65.200 C 138.511 65.200,138.380 65.314,138.520 65.453 C 138.659 65.592,140.351 65.784,142.280 65.880 C 146.400 66.084,145.979 65.847,146.101 68.034 C 146.206 69.901,146.129 69.847,148.853 69.957 C 149.825 69.997,150.399 70.752,150.557 72.200 C 150.693 73.457,152.238 73.924,156.431 73.977 C 158.232 74.000,158.259 74.019,158.086 75.195 C 157.959 76.060,158.098 76.463,158.589 76.651 C 159.128 76.858,159.158 76.981,158.734 77.250 C 158.334 77.503,158.401 77.604,159.000 77.652 C 161.445 77.849,162.391 77.902,164.231 77.949 C 166.249 78.000,166.260 78.007,166.086 79.195 C 165.959 80.060,166.098 80.463,166.589 80.651 C 167.128 80.858,167.158 80.981,166.734 81.250 C 166.334 81.503,166.401 81.604,167.000 81.652 C 169.405 81.846,170.373 81.902,172.053 81.949 C 173.885 81.999,174.364 82.430,174.557 84.200 C 174.692 85.444,175.780 85.746,180.743 85.914 C 186.565 86.111,186.080 85.941,186.080 87.781 C 186.080 89.121,186.908 90.121,187.884 89.958 C 191.757 89.312,194.337 90.179,194.557 92.200 C 194.710 93.612,196.159 93.939,202.431 93.977 L 206.261 94.000 206.086 95.195 C 205.959 96.060,206.098 96.463,206.589 96.651 C 207.128 96.858,207.158 96.981,206.734 97.250 C 206.179 97.601,206.139 97.591,209.000 97.807 C 209.660 97.857,212.020 97.921,214.245 97.949 L 218.289 98.000 218.086 99.063 C 217.945 99.801,218.107 100.289,218.618 100.663 C 219.168 101.065,219.208 101.207,218.776 101.228 C 216.363 101.346,220.653 101.862,224.737 101.946 C 230.508 102.063,230.080 101.916,230.080 103.781 C 230.080 105.121,230.908 106.121,231.884 105.958 C 232.058 105.929,234.405 105.927,237.100 105.953 L 242.000 106.000 242.000 107.120 C 242.000 107.736,242.225 108.482,242.500 108.779 C 242.904 109.214,242.894 109.257,242.448 109.003 C 242.073 108.789,241.955 108.866,242.081 109.244 C 242.217 109.656,243.258 109.830,246.089 109.914 C 250.074 110.033,250.335 110.166,250.557 112.200 C 250.711 113.618,251.981 113.895,258.663 113.963 C 262.110 113.998,262.313 114.047,262.117 114.794 C 262.003 115.231,262.049 115.906,262.218 116.294 C 262.388 116.682,262.494 117.148,262.454 117.330 C 262.413 117.511,262.552 117.553,262.762 117.423 C 262.973 117.293,263.235 117.334,263.346 117.513 C 263.457 117.693,265.851 117.887,268.665 117.944 C 274.511 118.064,274.080 117.919,274.080 119.758 C 274.080 122.249,275.761 122.476,281.942 120.818 C 285.677 119.816,287.776 119.919,290.033 121.212 C 293.296 123.081,298.223 124.800,300.318 124.800 C 300.574 124.800,301.735 125.408,302.897 126.151 C 304.341 127.075,305.953 127.676,307.992 128.051 C 309.694 128.364,311.496 128.979,312.188 129.483 C 313.978 130.786,315.591 131.449,318.865 132.229 C 320.479 132.614,322.250 133.234,322.800 133.608 C 323.350 133.982,324.430 134.560,325.200 134.892 C 326.445 135.429,327.419 135.734,330.702 136.614 C 331.198 136.747,332.098 137.271,332.702 137.778 C 333.780 138.685,335.701 139.463,339.128 140.382 C 340.079 140.637,341.789 141.427,342.928 142.136 C 344.068 142.846,345.990 143.770,347.199 144.189 C 348.409 144.609,349.846 145.366,350.392 145.873 C 350.939 146.380,352.343 147.247,353.513 147.801 C 354.683 148.355,356.306 149.495,357.120 150.334 C 357.934 151.172,358.964 152.115,359.409 152.429 C 359.854 152.743,360.556 153.765,360.970 154.700 C 361.702 156.357,361.770 156.400,363.627 156.400 C 364.767 156.400,365.623 156.601,365.755 156.900 C 365.878 157.175,365.938 153.427,365.889 148.571 C 365.799 139.602,365.649 138.714,364.200 138.557 C 362.030 138.321,362.000 138.240,362.000 132.737 C 362.000 127.000,361.653 126.083,359.483 126.094 C 357.975 126.102,358.061 126.403,357.946 120.737 C 357.862 116.653,357.346 112.363,357.228 114.776 C 357.207 115.208,357.065 115.168,356.663 114.618 C 356.289 114.107,355.801 113.945,355.063 114.086 C 353.909 114.306,353.941 114.453,353.916 108.800 C 353.906 106.695,353.424 106.080,351.781 106.080 C 349.932 106.080,350.027 106.260,349.945 102.574 C 349.857 98.587,349.612 98.080,347.781 98.080 C 345.946 98.080,346.082 98.351,345.880 94.280 C 345.784 92.351,345.592 90.659,345.453 90.520 C 345.314 90.380,345.200 90.511,345.200 90.810 C 345.200 91.172,345.021 91.108,344.663 90.618 C 344.289 90.107,343.801 89.945,343.063 90.086 C 342.103 90.269,341.996 90.169,341.957 89.045 C 341.857 86.114,341.918 86.207,340.034 86.101 C 337.875 85.980,338.124 86.373,337.885 82.713 C 337.696 79.808,337.234 78.669,336.200 78.557 C 334.403 78.361,333.687 77.508,333.958 75.884 C 334.076 75.178,333.106 73.963,332.475 74.025 C 330.281 74.243,330.048 74.070,329.922 72.131 C 329.847 70.978,329.587 70.192,329.244 70.079 C 328.866 69.955,328.789 70.073,329.003 70.448 C 329.257 70.894,329.214 70.904,328.779 70.500 C 328.482 70.225,327.746 70.000,327.142 70.000 C 326.116 70.000,326.036 69.876,325.922 68.100 L 325.800 66.200 323.921 66.079 L 322.042 65.958 321.921 64.079 L 321.800 62.200 319.921 62.079 L 318.042 61.958 317.921 60.079 L 317.800 58.200 315.900 58.078 L 314.000 57.956 313.994 56.478 C 313.987 54.914,313.566 53.913,312.963 54.026 C 310.735 54.446,310.045 54.016,309.922 52.131 C 309.847 50.978,309.587 50.192,309.244 50.079 C 308.866 49.955,308.789 50.073,309.003 50.448 C 309.257 50.894,309.214 50.904,308.779 50.500 C 308.482 50.225,307.736 50.000,307.120 50.000 C 306.139 50.000,306.000 49.849,306.000 48.783 C 306.000 47.051,304.880 45.996,303.180 46.128 C 301.871 46.230,301.796 46.166,301.727 44.891 C 301.642 43.339,300.977 42.357,300.211 42.651 C 299.920 42.763,299.562 42.662,299.417 42.427 C 299.272 42.192,297.993 42.000,296.576 42.000 L 294.000 42.000 294.000 40.480 C 294.000 38.572,293.436 38.000,291.552 38.000 C 290.196 38.000,290.039 37.884,289.786 36.700 C 289.458 35.170,288.859 34.316,288.337 34.639 C 288.132 34.765,287.714 34.660,287.406 34.405 C 287.099 34.150,286.522 33.975,286.124 34.017 C 285.726 34.058,284.590 34.071,283.600 34.045 L 281.800 33.998 281.758 32.390 C 281.698 30.076,281.991 30.184,275.400 30.034 C 273.812 29.998,273.800 29.986,273.758 28.390 C 273.698 26.080,273.991 26.191,267.532 26.035 C 266.210 26.004,266.036 25.871,265.786 24.700 C 265.441 23.086,264.902 22.386,264.211 22.651 C 263.920 22.763,263.562 22.662,263.417 22.427 C 263.255 22.165,261.400 22.000,258.608 22.000 L 254.064 22.000 253.783 20.723 C 253.464 19.272,252.809 18.464,252.133 18.689 C 251.880 18.773,251.556 18.653,251.413 18.421 C 251.248 18.153,248.712 18.000,244.453 18.000 L 237.754 18.000 237.824 16.900 C 237.863 16.295,237.751 15.440,237.575 15.000 C 237.363 14.467,237.243 14.400,237.216 14.800 C 237.184 15.282,237.096 15.263,236.772 14.706 C 236.393 14.056,234.093 14.013,200.084 14.018 L 163.800 14.022 162.854 15.015 M86.339 54.321 C 86.306 54.474,86.236 54.780,86.185 55.000 C 86.134 55.220,86.072 55.975,86.046 56.678 C 86.002 57.911,85.934 57.960,84.100 58.078 L 82.200 58.200 82.079 60.079 L 81.958 61.958 80.079 62.079 L 78.200 62.200 78.079 64.079 L 77.958 65.958 76.079 66.079 L 74.200 66.200 74.078 68.100 C 73.964 69.880,73.886 70.000,72.848 70.000 C 71.455 70.000,70.000 71.495,70.000 72.926 C 70.000 74.009,69.503 74.226,67.491 74.019 C 67.091 73.978,66.830 74.176,66.891 74.473 C 66.951 74.763,66.763 74.951,66.473 74.891 C 66.176 74.830,65.978 75.091,66.019 75.491 C 66.235 77.590,65.441 78.681,63.879 78.436 C 63.353 78.354,62.330 79.563,62.581 79.969 C 62.709 80.176,62.630 80.458,62.407 80.596 C 62.183 80.734,62.000 82.007,62.000 83.424 C 62.000 85.957,61.982 86.001,60.900 86.043 C 57.937 86.157,58.149 85.934,58.043 89.045 C 58.005 90.151,57.888 90.268,56.993 90.097 C 55.099 89.735,54.098 91.321,54.046 94.766 C 53.993 98.214,54.067 98.080,52.240 98.080 C 51.391 98.080,50.861 98.264,50.913 98.540 C 50.961 98.793,50.802 98.964,50.561 98.920 C 50.273 98.868,50.104 100.027,50.069 102.279 C 50.007 106.243,50.086 106.080,48.240 106.080 C 47.391 106.080,46.861 106.264,46.913 106.540 C 46.961 106.793,46.784 106.958,46.520 106.907 C 46.204 106.845,46.047 107.394,46.062 108.507 C 46.135 114.010,46.078 114.304,44.993 114.097 C 42.779 113.673,42.117 115.175,42.047 120.774 C 41.976 126.475,42.141 125.991,40.221 126.142 C 38.718 126.261,37.966 126.903,38.048 128.000 C 38.576 135.122,37.824 138.741,35.879 138.436 C 35.353 138.354,34.330 139.563,34.581 139.969 C 34.709 140.176,34.645 140.448,34.441 140.575 C 34.225 140.708,34.048 146.063,34.022 153.282 C 33.996 160.144,33.915 165.818,33.842 165.892 C 33.768 165.965,33.039 166.078,32.221 166.142 C 31.403 166.207,30.581 166.508,30.393 166.811 C 29.854 167.684,29.919 194.820,30.462 195.475 C 30.711 195.774,30.807 196.126,30.676 196.257 C 30.272 196.662,31.381 197.488,32.723 197.783 L 34.000 198.064 34.034 207.332 C 34.053 212.429,34.068 217.500,34.067 218.600 C 34.064 220.948,34.905 222.000,36.783 222.000 L 38.000 222.000 38.000 228.576 C 38.000 232.749,38.154 235.248,38.421 235.413 C 38.653 235.556,38.773 235.880,38.689 236.133 C 38.464 236.809,39.272 237.464,40.723 237.783 L 42.000 238.064 42.000 241.552 C 42.000 245.523,42.266 246.000,44.480 246.000 L 46.000 246.000 46.046 249.700 C 46.071 251.735,46.058 253.726,46.017 254.124 C 45.975 254.522,46.160 255.111,46.428 255.434 C 46.695 255.756,46.807 256.126,46.676 256.257 C 46.272 256.662,47.381 257.488,48.723 257.783 C 50.013 258.066,50.085 258.220,50.103 260.700 C 50.107 261.233,50.373 261.625,50.755 261.661 C 51.110 261.694,51.580 261.764,51.800 261.815 C 52.020 261.866,52.605 261.928,53.100 261.954 C 53.962 261.998,54.000 262.150,54.000 265.520 C 54.000 269.525,54.263 270.000,56.480 270.000 L 58.000 270.000 58.000 272.576 C 58.000 273.993,58.190 275.270,58.421 275.413 C 58.653 275.556,58.773 275.880,58.689 276.133 C 58.464 276.809,59.272 277.464,60.723 277.783 C 61.880 278.037,62.000 278.203,62.000 279.552 C 62.000 281.381,62.571 282.000,64.260 282.000 C 65.396 282.000,67.291 282.303,70.757 283.040 C 71.612 283.222,72.406 283.886,76.500 287.838 C 77.105 288.423,77.600 289.218,77.600 289.607 C 77.600 290.014,77.997 290.413,78.537 290.549 C 79.756 290.854,81.600 292.708,81.600 293.628 C 81.600 294.023,81.997 294.472,82.481 294.626 C 83.600 294.981,84.129 295.516,84.969 297.140 C 85.339 297.856,85.947 298.549,86.321 298.680 C 87.673 299.155,89.600 300.857,89.600 301.577 C 89.600 302.016,89.979 302.408,90.537 302.549 C 91.753 302.854,93.600 304.708,93.600 305.623 C 93.600 306.096,94.019 306.428,94.845 306.610 C 96.032 306.871,97.093 307.598,98.957 309.428 C 99.421 309.884,100.340 310.604,101.000 311.028 C 102.790 312.180,297.964 312.250,299.589 311.100 C 300.133 310.715,300.902 310.400,301.299 310.400 C 301.695 310.400,302.176 309.995,302.367 309.500 C 302.795 308.393,304.313 306.979,305.439 306.638 C 305.901 306.499,306.482 305.937,306.731 305.391 C 306.980 304.844,307.997 304.003,308.990 303.520 C 309.983 303.037,310.901 302.312,311.029 301.908 C 311.337 300.939,312.972 299.326,313.967 299.011 C 314.403 298.872,314.872 298.403,315.011 297.967 C 315.334 296.947,316.947 295.334,317.967 295.011 C 318.403 294.872,318.864 294.430,318.991 294.027 C 319.303 293.046,320.398 291.832,321.499 291.249 C 321.993 290.988,322.769 290.044,323.224 289.154 C 323.678 288.263,324.577 287.234,325.222 286.867 C 325.867 286.500,326.396 286.093,326.397 285.961 C 326.401 285.673,327.563 284.383,328.416 283.720 C 329.050 283.228,333.916 282.130,336.400 281.919 C 337.767 281.803,337.803 281.755,337.922 279.900 C 338.040 278.055,338.357 277.718,339.742 277.967 C 339.930 278.000,340.307 277.843,340.579 277.618 C 340.851 277.392,341.192 277.295,341.337 277.403 C 341.482 277.512,341.512 277.482,341.403 277.337 C 341.295 277.192,341.392 276.851,341.618 276.579 C 341.843 276.307,342.000 275.930,341.967 275.742 C 341.933 275.554,341.927 274.195,341.953 272.722 L 342.000 270.044 343.900 269.922 L 345.800 269.800 345.920 267.720 C 346.014 266.098,346.168 265.690,346.620 265.863 C 346.939 265.985,347.200 265.892,347.200 265.655 C 347.200 265.419,347.436 265.316,347.725 265.427 C 348.383 265.679,349.771 264.200,349.416 263.625 C 349.271 263.391,349.351 263.200,349.594 263.200 C 349.837 263.200,350.006 262.975,349.970 262.700 C 349.750 261.007,350.053 257.586,350.404 257.802 C 351.045 258.198,352.448 257.604,352.129 257.071 C 351.933 256.744,352.034 256.752,352.460 257.097 C 353.256 257.741,353.741 257.256,353.097 256.460 C 352.752 256.034,352.744 255.933,353.071 256.129 C 353.514 256.395,354.109 255.339,353.966 254.541 C 353.646 252.754,354.066 249.650,354.600 249.855 C 354.930 249.982,355.200 249.892,355.200 249.655 C 355.200 249.419,355.436 249.316,355.725 249.427 C 356.383 249.679,357.771 248.200,357.416 247.625 C 357.271 247.391,357.340 247.200,357.568 247.200 C 358.062 247.200,358.067 232.246,357.573 231.000 C 357.362 230.468,357.243 230.401,357.216 230.800 C 357.183 231.294,357.107 231.281,356.785 230.731 C 356.071 229.506,344.128 229.763,342.862 231.029 C 342.192 231.699,341.962 232.289,342.097 232.993 L 342.289 234.000 332.445 234.042 C 327.030 234.065,321.874 234.076,320.987 234.065 C 320.099 234.054,319.116 234.205,318.801 234.399 C 318.299 234.710,318.184 235.176,318.032 237.500 C 318.007 237.891,314.516 238.000,302.000 238.000 L 286.000 238.000 285.953 237.100 C 285.927 236.605,285.929 236.058,285.958 235.884 C 286.199 234.443,285.189 234.044,281.298 234.043 C 279.154 234.042,273.935 234.032,269.700 234.021 L 262.000 234.000 262.000 232.783 C 262.000 230.857,260.961 230.078,258.400 230.081 C 257.190 230.083,253.905 230.066,251.100 230.042 L 246.000 230.000 246.000 228.783 C 246.000 227.472,244.829 225.898,243.944 226.020 C 243.645 226.061,241.285 226.073,238.700 226.047 L 234.000 226.000 234.000 224.783 C 234.000 223.472,232.829 221.898,231.944 222.020 C 228.510 222.494,226.059 221.978,225.783 220.723 C 225.464 219.272,224.809 218.464,224.133 218.689 C 223.880 218.773,223.556 218.653,223.413 218.421 C 223.255 218.166,221.355 218.000,218.598 218.000 L 214.044 218.000 213.922 216.131 C 213.847 214.978,213.587 214.192,213.244 214.079 C 212.866 213.955,212.789 214.073,213.003 214.448 C 213.257 214.894,213.214 214.904,212.779 214.500 C 212.444 214.189,211.066 214.000,209.142 214.000 L 206.044 214.000 205.922 212.131 C 205.847 210.978,205.587 210.192,205.244 210.079 C 204.866 209.955,204.789 210.073,205.003 210.448 C 205.257 210.894,205.214 210.904,204.779 210.500 C 204.482 210.225,203.750 210.000,203.152 210.000 C 202.253 210.000,202.015 209.777,201.783 208.723 C 201.488 207.381,200.662 206.272,200.257 206.676 C 200.126 206.807,199.756 206.695,199.434 206.428 C 199.111 206.160,198.522 205.975,198.124 206.017 C 195.009 206.341,193.753 206.014,193.824 204.900 C 193.863 204.295,193.751 203.440,193.575 203.000 C 193.363 202.467,193.243 202.400,193.216 202.800 C 193.183 203.297,193.109 203.286,192.789 202.737 C 192.485 202.216,191.746 202.068,189.340 202.043 C 185.739 202.006,186.023 202.177,185.899 199.966 C 185.794 198.095,185.874 198.150,183.100 198.043 C 182.150 198.006,182.000 197.834,182.000 196.783 C 182.000 195.051,180.880 193.996,179.180 194.128 C 177.876 194.230,177.796 194.163,177.728 192.918 C 177.652 191.508,176.886 190.438,176.133 190.689 C 175.880 190.773,175.556 190.653,175.413 190.421 C 175.270 190.190,174.003 190.000,172.598 190.000 L 170.044 190.000 169.922 188.131 C 169.847 186.978,169.587 186.192,169.244 186.079 C 168.866 185.955,168.789 186.073,169.003 186.448 C 169.257 186.894,169.214 186.904,168.779 186.500 C 168.482 186.225,167.736 186.000,167.120 186.000 C 166.090 186.000,166.000 185.878,166.000 184.480 C 166.000 183.644,165.784 182.744,165.520 182.480 C 165.256 182.216,164.356 182.000,163.520 182.000 C 162.093 182.000,162.000 181.925,162.000 180.783 C 162.000 179.472,160.829 177.898,159.944 178.020 C 158.396 178.233,158.000 177.982,158.000 176.783 C 158.000 175.472,156.829 173.898,155.944 174.020 C 154.396 174.233,154.000 173.982,154.000 172.783 C 154.000 171.472,152.829 169.898,151.944 170.020 C 150.396 170.233,150.000 169.982,150.000 168.783 C 150.000 167.472,148.829 165.898,147.944 166.020 C 146.303 166.246,146.044 166.005,145.922 164.131 C 145.847 162.978,145.587 162.192,145.244 162.079 C 144.866 161.955,144.789 162.073,145.003 162.448 C 145.257 162.894,145.214 162.904,144.779 162.500 C 144.482 162.225,143.736 162.000,143.120 162.000 C 142.239 162.000,141.990 161.808,141.954 161.100 C 141.928 160.605,141.866 160.020,141.815 159.800 C 141.764 159.580,141.694 159.126,141.661 158.791 C 141.618 158.366,141.103 158.162,139.959 158.117 C 137.926 158.036,138.123 158.360,137.885 154.713 C 137.696 151.808,137.234 150.669,136.200 150.557 C 134.403 150.361,133.687 149.508,133.958 147.884 C 134.121 146.908,133.121 146.080,131.781 146.080 C 129.977 146.080,130.122 146.338,129.885 142.713 C 129.696 139.808,129.234 138.669,128.200 138.557 C 126.531 138.375,126.000 137.863,126.000 136.433 C 126.000 134.564,125.425 134.000,123.520 134.000 L 122.000 134.000 121.961 132.100 C 121.939 131.055,121.919 129.570,121.916 128.800 C 121.906 126.695,121.424 126.080,119.781 126.080 C 117.932 126.080,118.027 126.260,117.945 122.574 C 117.868 119.077,117.495 117.924,116.475 118.025 C 114.015 118.269,114.038 118.303,113.914 114.132 C 113.830 111.264,113.656 110.217,113.244 110.081 C 112.866 109.955,112.789 110.073,113.003 110.448 C 113.257 110.894,113.214 110.904,112.779 110.500 C 112.482 110.225,111.736 110.000,111.120 110.000 L 110.000 110.000 110.000 104.480 C 110.000 98.316,109.879 98.000,107.520 98.000 L 106.000 98.000 105.953 91.100 C 105.927 87.305,105.929 84.058,105.958 83.884 C 106.076 83.178,105.106 81.963,104.475 82.025 C 104.104 82.062,103.395 82.071,102.900 82.046 L 102.000 82.000 102.000 68.805 C 102.000 52.349,102.968 54.036,93.527 54.039 C 89.607 54.040,86.373 54.167,86.339 54.321 " stroke="none" fill="#fcdb5c" fill-rule="evenodd"></path><path id="path4" d="M66.392 282.784 C 66.933 283.796,67.648 284.289,69.130 284.671 C 69.977 284.890,70.702 285.447,71.130 286.206 C 71.907 287.588,73.130 288.797,73.761 288.807 C 74.003 288.811,74.740 289.666,75.400 290.707 C 76.132 291.862,76.942 292.649,77.476 292.725 C 78.063 292.808,78.645 293.454,79.238 294.679 C 79.725 295.685,80.614 296.790,81.214 297.134 C 81.813 297.478,82.625 298.356,83.018 299.085 C 83.480 299.943,84.161 300.523,84.947 300.726 C 85.731 300.929,86.604 301.671,87.412 302.820 C 88.099 303.799,89.019 304.653,89.455 304.718 C 89.892 304.783,90.588 305.413,91.002 306.118 C 91.946 307.725,92.273 308.027,94.034 308.924 C 94.816 309.323,95.743 310.133,96.092 310.724 C 96.442 311.316,97.780 312.326,99.064 312.970 C 100.349 313.613,101.490 314.244,101.600 314.371 C 102.872 315.838,100.221 315.800,201.257 315.800 L 298.392 315.800 299.322 314.800 C 299.833 314.250,300.960 313.440,301.826 313.000 C 303.401 312.199,304.009 311.647,305.278 309.862 C 305.650 309.338,306.460 308.801,307.078 308.670 C 307.704 308.536,308.575 307.883,309.049 307.192 C 309.517 306.511,310.493 305.635,311.218 305.246 C 311.944 304.857,312.852 303.952,313.236 303.236 C 313.620 302.520,314.520 301.620,315.236 301.236 C 315.952 300.852,316.852 299.952,317.236 299.236 C 317.620 298.520,318.525 297.618,319.247 297.231 C 319.969 296.843,320.892 295.887,321.298 295.104 C 321.704 294.322,322.536 293.475,323.148 293.222 C 323.828 292.940,324.583 292.095,325.094 291.044 C 325.624 289.953,326.356 289.150,327.100 288.841 C 327.775 288.562,328.553 287.768,328.933 286.971 C 329.305 286.191,330.076 285.395,330.697 285.150 C 332.583 284.405,332.913 284.184,333.538 283.243 L 334.145 282.329 332.172 282.619 C 329.201 283.056,326.409 284.651,326.397 285.918 C 326.396 286.073,325.867 286.500,325.222 286.867 C 324.577 287.234,323.678 288.263,323.224 289.154 C 322.769 290.044,321.993 290.988,321.499 291.249 C 320.398 291.832,319.303 293.046,318.991 294.027 C 318.864 294.430,318.403 294.872,317.967 295.011 C 316.947 295.334,315.334 296.947,315.011 297.967 C 314.872 298.403,314.403 298.872,313.967 299.011 C 312.972 299.326,311.337 300.939,311.029 301.908 C 310.901 302.312,309.983 303.037,308.990 303.520 C 307.997 304.003,306.980 304.844,306.731 305.391 C 306.482 305.937,305.901 306.499,305.439 306.638 C 304.313 306.979,302.795 308.393,302.367 309.500 C 302.176 309.995,301.695 310.400,301.299 310.400 C 300.902 310.400,300.133 310.715,299.589 311.100 C 297.964 312.250,102.790 312.180,101.000 311.028 C 100.340 310.604,99.421 309.884,98.957 309.428 C 97.093 307.598,96.032 306.871,94.845 306.610 C 94.019 306.428,93.600 306.096,93.600 305.623 C 93.600 304.708,91.753 302.854,90.537 302.549 C 89.979 302.408,89.600 302.016,89.600 301.577 C 89.600 300.857,87.673 299.155,86.321 298.680 C 85.947 298.549,85.339 297.856,84.969 297.140 C 84.129 295.516,83.600 294.981,82.481 294.626 C 81.997 294.472,81.600 294.023,81.600 293.628 C 81.600 292.708,79.756 290.854,78.537 290.549 C 77.997 290.413,77.600 290.014,77.600 289.607 C 77.600 289.218,77.105 288.423,76.500 287.838 C 72.406 283.886,71.612 283.222,70.757 283.040 C 66.327 282.096,66.013 282.078,66.392 282.784 " stroke="none" fill="#849c34" fill-rule="evenodd"></path></g></svg>