<svg id="Layer_1" data-name="Layer 1" xmlns="http://www.w3.org/2000/svg" viewBox="0 0 1010.59 1010.59"><defs><style>.cls-1{fill:#fff;}.cls-2{fill:#ff9415;}</style></defs><circle class="cls-1" cx="505.3" cy="505.3" r="444.84"/><path class="cls-2" d="M327.63,516.42q-16-14.55-45.48-17.86,25-3.69,39-18.23t14-39.22q0-32.76-26-50.44-19-12.94-49.14-16.39v-30.7H222.56V373H201.77V343.58H164.25V373H134.49V630.75h29.76v29.12h37.52V630.75h20.79v29.12h37.51V630q35.4-3.11,56.88-18.94,26.69-19.69,26.69-53.57Q343.64,531,327.63,516.42ZM202.24,424.18h35.35q14,0,21.91,7T267.42,450q0,11.79-7.92,18.78t-21.91,7H202.24Zm63.52,148q-8.28,7-23,7H202.24v-53h40.51q14.73,0,23,7t8.29,19.52Q274.05,565.2,265.76,572.2Z"/><path class="cls-2" d="M514.13,384Q492,373,462.94,373H354.68V630.75h67.76V551.22h40.5q29.1,0,51.19-11.05t34.24-31.12Q560.52,489,560.52,462.1t-12.15-47A81.75,81.75,0,0,0,514.13,384ZM482.27,487q-9.39,9-25.59,9H422.44V428.23h34.24q16.2,0,25.59,9t9.39,24.85Q491.66,477.94,482.27,487Z"/><path class="cls-2" d="M697.13,440.75h-9.21q-19.87,0-32.4,7t-21,21l-5.15-28H570.83v190h63.7V539.43q0-42.34,38.67-42.35h23.93Z"/><path class="cls-2" d="M854.18,450.5q-23.38-12-54.69-12t-54.68,12a85.57,85.57,0,0,0-36.08,34.07Q696,506.65,696,535.75t12.71,51.18A85.48,85.48,0,0,0,744.81,621q23.38,12,54.68,12t54.69-12a85.54,85.54,0,0,0,36.08-34.06Q903,564.84,903,535.75t-12.71-51.18A85.62,85.62,0,0,0,854.18,450.5ZM827.85,569.44q-10.32,12.7-28.36,12.71t-28.35-12.71q-10.3-12.71-10.31-33.69t10.31-33.69q10.3-12.71,28.35-12.71t28.36,12.71q10.3,12.7,10.31,33.69T827.85,569.44Z"/><path class="cls-2" d="M505.3,5.3c-276.15,0-500,223.85-500,500s223.85,500,500,500,500-223.86,500-500S781.44,5.3,505.3,5.3ZM815.08,815.08A436.63,436.63,0,1,1,909,675.81,436.82,436.82,0,0,1,815.08,815.08Z"/></svg>