<svg width="305" height="305" viewBox="0 0 305 305" fill="none" xmlns="http://www.w3.org/2000/svg">
<path d="M50.0391 150.117C50.0391 94.8456 94.8456 50.0391 150.117 50.0391H238.281C247.493 50.0391 254.961 57.5068 254.961 66.7188V154.883C254.961 210.154 210.154 254.961 154.883 254.961H66.7187C57.5068 254.961 50.0391 247.493 50.0391 238.281V150.117Z" fill="black"/>
<path fill-rule="evenodd" clip-rule="evenodd" d="M152.5 226.367C193.296 226.367 226.367 193.296 226.367 152.5C226.367 111.704 193.296 78.6328 152.5 78.6328C111.704 78.6328 78.6328 111.704 78.6328 152.5C78.6328 193.296 111.704 226.367 152.5 226.367ZM152.5 238.281C199.876 238.281 238.281 199.876 238.281 152.5C238.281 105.124 199.876 66.7188 152.5 66.7188C105.124 66.7188 66.7188 105.124 66.7188 152.5C66.7188 199.876 105.124 238.281 152.5 238.281Z" fill="white"/>
<path d="M173.035 150.274H129.578C127.099 150.274 125.462 147.696 126.517 145.451L136.864 123.465C137.422 122.28 138.615 121.523 139.925 121.523H162.692C164.002 121.523 165.195 122.28 165.753 123.465L176.1 145.451C177.151 147.694 175.515 150.274 173.035 150.274V150.274Z" fill="url(#paint0_linear_2313_19522)"/>
<path d="M144.539 185.788H101.082C98.6025 185.788 96.9662 183.209 98.0208 180.964L108.368 158.979C108.926 157.793 110.118 157.037 111.429 157.037L134.193 157.038C135.504 157.038 136.696 157.794 137.255 158.98L147.601 180.966C148.655 183.209 147.019 185.788 144.54 185.788L144.539 185.788Z" fill="url(#paint1_linear_2313_19522)"/>
<path d="M201.533 185.788H158.076C155.597 185.788 153.96 183.209 155.015 180.964L165.362 158.979C165.92 157.793 167.113 157.037 168.423 157.037H191.19C192.5 157.037 193.693 157.793 194.251 158.979L204.598 180.964C205.651 183.209 204.014 185.788 201.534 185.788H201.533Z" fill="url(#paint2_linear_2313_19522)"/>
<path d="M197.773 147.734C197.12 147.734 196.618 147.559 196.267 147.207C195.915 146.83 195.739 146.315 195.739 145.662V140.049H190.239C189.611 140.049 189.121 139.886 188.77 139.559C188.418 139.208 188.242 138.718 188.242 138.09C188.242 137.462 188.418 136.985 188.77 136.659C189.121 136.307 189.611 136.131 190.239 136.131H195.739V130.744C195.739 130.066 195.915 129.551 196.267 129.199C196.618 128.848 197.133 128.672 197.811 128.672C198.464 128.672 198.954 128.848 199.28 129.199C199.632 129.551 199.808 130.066 199.808 130.744V136.131H205.308C205.961 136.131 206.451 136.307 206.777 136.659C207.129 136.985 207.305 137.462 207.305 138.09C207.305 138.718 207.129 139.208 206.777 139.559C206.451 139.886 205.961 140.049 205.308 140.049H199.808V145.662C199.808 146.315 199.632 146.83 199.28 147.207C198.954 147.559 198.452 147.734 197.773 147.734Z" fill="url(#paint3_linear_2313_19522)"/>
<path d="M104.844 147.734C104.191 147.734 103.688 147.559 103.337 147.207C102.985 146.83 102.809 146.315 102.809 145.662V140.049H97.3092C96.6813 140.049 96.1915 139.886 95.8399 139.559C95.4883 139.208 95.3125 138.718 95.3125 138.09C95.3125 137.462 95.4883 136.985 95.8399 136.659C96.1915 136.307 96.6813 136.131 97.3092 136.131H102.809V130.744C102.809 130.066 102.985 129.551 103.337 129.199C103.688 128.848 104.203 128.672 104.881 128.672C105.534 128.672 106.024 128.848 106.351 129.199C106.702 129.551 106.878 130.066 106.878 130.744V136.131H112.378C113.031 136.131 113.521 136.307 113.848 136.659C114.199 136.985 114.375 137.462 114.375 138.09C114.375 138.718 114.199 139.208 113.848 139.559C113.521 139.886 113.031 140.049 112.378 140.049H106.878V145.662C106.878 146.315 106.702 146.83 106.351 147.207C106.024 147.559 105.522 147.734 104.844 147.734Z" fill="url(#paint4_linear_2313_19522)"/>
<path d="M152.5 111.992C151.847 111.992 151.345 111.816 150.993 111.465C150.641 111.088 150.466 110.573 150.466 109.92V104.307H144.965C144.338 104.307 143.848 104.144 143.496 103.817C143.145 103.466 142.969 102.976 142.969 102.348C142.969 101.72 143.145 101.243 143.496 100.916C143.848 100.565 144.338 100.389 144.965 100.389H150.466V95.0017C150.466 94.3236 150.641 93.8087 150.993 93.4571C151.345 93.1055 151.86 92.9297 152.538 92.9297C153.191 92.9297 153.68 93.1055 154.007 93.4571C154.359 93.8087 154.534 94.3236 154.534 95.0017V100.389H160.035C160.688 100.389 161.177 100.565 161.504 100.916C161.855 101.243 162.031 101.72 162.031 102.348C162.031 102.976 161.855 103.466 161.504 103.817C161.177 104.144 160.688 104.307 160.035 104.307H154.534V109.92C154.534 110.573 154.359 111.088 154.007 111.465C153.68 111.816 153.178 111.992 152.5 111.992Z" fill="url(#paint5_linear_2313_19522)"/>
<defs>
<linearGradient id="paint0_linear_2313_19522" x1="126.191" y1="135.899" x2="176.424" y2="135.899" gradientUnits="userSpaceOnUse">
<stop stop-color="#E95130"/>
<stop offset="0.494792" stop-color="#ED6C0F"/>
<stop offset="1" stop-color="#F49844"/>
</linearGradient>
<linearGradient id="paint1_linear_2313_19522" x1="97.6953" y1="171.413" x2="147.926" y2="171.413" gradientUnits="userSpaceOnUse">
<stop stop-color="#E95130"/>
<stop offset="0.494792" stop-color="#ED6C0F"/>
<stop offset="1" stop-color="#F49844"/>
</linearGradient>
<linearGradient id="paint2_linear_2313_19522" x1="154.689" y1="171.413" x2="204.923" y2="171.413" gradientUnits="userSpaceOnUse">
<stop stop-color="#E95130"/>
<stop offset="0.494792" stop-color="#ED6C0F"/>
<stop offset="1" stop-color="#F49844"/>
</linearGradient>
<linearGradient id="paint3_linear_2313_19522" x1="188.242" y1="138.203" x2="207.305" y2="138.203" gradientUnits="userSpaceOnUse">
<stop stop-color="#E95130"/>
<stop offset="0.494792" stop-color="#ED6C0F"/>
<stop offset="1" stop-color="#F49844"/>
</linearGradient>
<linearGradient id="paint4_linear_2313_19522" x1="95.3125" y1="138.203" x2="114.375" y2="138.203" gradientUnits="userSpaceOnUse">
<stop stop-color="#E95130"/>
<stop offset="0.494792" stop-color="#ED6C0F"/>
<stop offset="1" stop-color="#F49844"/>
</linearGradient>
<linearGradient id="paint5_linear_2313_19522" x1="142.969" y1="102.461" x2="162.031" y2="102.461" gradientUnits="userSpaceOnUse">
<stop stop-color="#E95130"/>
<stop offset="0.494792" stop-color="#ED6C0F"/>
<stop offset="1" stop-color="#F49844"/>
</linearGradient>
</defs>
</svg>
