<?xml version="1.0" encoding="UTF-8"?><svg xmlns="http://www.w3.org/2000/svg" xmlns:xlink="http://www.w3.org/1999/xlink" viewBox="0 0 199.8 199.8"><defs><style>.j{fill:#fff;}.k{fill:url(#f);}.l{fill:url(#g);}.m{fill:url(#i);}.n{fill:url(#h);}.o{fill:url(#d);}.p{fill:url(#e);}</style><linearGradient id="d" x1="74.78" y1="205.48" x2="125.02" y2="205.48" gradientTransform="translate(0 292.93) scale(1 -1)" gradientUnits="userSpaceOnUse"><stop offset="0" stop-color="#e95130"/><stop offset=".49" stop-color="#ed6c0f"/><stop offset="1" stop-color="#f49844"/></linearGradient><linearGradient id="e" x1="46.29" y1="169.97" x2="96.52" y2="169.97" xlink:href="#d"/><linearGradient id="f" x1="103.28" y1="169.97" x2="153.51" y2="169.97" xlink:href="#d"/><linearGradient id="g" x1="136.83" y1="206.51" x2="155.9" y2="206.51" xlink:href="#d"/><linearGradient id="h" x1="91.56" y1="239.87" x2="110.62" y2="239.87" xlink:href="#d"/><linearGradient id="i" x1="43.9" y1="206.51" x2="62.97" y2="206.51" xlink:href="#d"/></defs><g id="a"/><g id="b"><g id="c"><g><g><circle cx="99.9" cy="99.9" r="99.9" transform="translate(-41.38 99.9) rotate(-45)"/><path class="j" d="M100.83,15.73h-2.78C51.8,16.65,14.8,54.58,15.72,101.75c.92,46.25,38.85,83.25,86.03,82.33,45.33-.92,81.4-37,82.33-82.33,.93-46.25-37-85.1-83.25-86.03Zm-.92,157.25c-40.7,0-73.08-32.38-73.08-73.08S59.2,26.83,99.9,26.83s73.08,32.38,73.08,73.08-32.38,73.08-73.08,73.08Z"/><circle cx="99.9" cy="99.9" r="73.08" transform="translate(-41.38 99.9) rotate(-45)"/></g><g><path class="o" d="M121.63,101.83h-43.46c-2.48,0-4.12-2.58-3.06-4.82l10.35-21.99c.56-1.19,1.75-1.94,3.06-1.94h22.77c1.31,0,2.5,.76,3.06,1.94l10.35,21.99c1.05,2.24-.59,4.82-3.07,4.82h0Z"/><path class="p" d="M93.13,137.34H49.67c-2.48,0-4.12-2.58-3.06-4.82l10.35-21.99c.56-1.18,1.75-1.94,3.06-1.94h22.76c1.31,0,2.5,.76,3.06,1.94l10.35,21.99c1.05,2.24-.58,4.82-3.06,4.82h0Z"/><path class="k" d="M150.13,137.34h-43.46c-2.48,0-4.12-2.58-3.06-4.82l10.35-21.99c.56-1.18,1.75-1.94,3.06-1.94h22.77c1.31,0,2.5,.76,3.06,1.94l10.35,21.99c1.05,2.25-.58,4.82-3.06,4.82h0Z"/><path class="l" d="M141.5,94.65c-.67-.41-1.06-.92-1.19-1.52-.1-.64,.1-1.3,.57-2l2.86-4.29,1.05,1.48-5.19,.33c-.83,.06-1.49-.1-2-.48-.51-.41-.76-1-.76-1.76s.25-1.33,.76-1.72c.51-.41,1.18-.59,2-.52l5.19,.38-1,1.52-2.86-4.38c-.48-.73-.67-1.4-.57-2,.13-.63,.52-1.13,1.19-1.48,.67-.41,1.3-.48,1.91-.19,.6,.25,1.08,.78,1.43,1.57l1.91,4.19h-.86l1.95-4.19c.32-.79,.78-1.32,1.38-1.57,.64-.29,1.29-.22,1.95,.19,.7,.41,1.1,.94,1.19,1.57,.1,.6-.11,1.26-.62,1.95l-2.86,4.29-1-1.48,5.19-.38c.83-.06,1.49,.11,2,.52,.51,.38,.76,.95,.76,1.72s-.25,1.35-.76,1.76c-.51,.38-1.18,.54-2,.48l-5.19-.33,1-1.48,2.86,4.29c.51,.7,.71,1.35,.62,1.95-.1,.6-.49,1.11-1.19,1.53-.7,.41-1.35,.49-1.95,.24-.57-.29-1.03-.81-1.38-1.57l-1.95-4.29h.86l-2,4.29c-.35,.76-.83,1.29-1.43,1.57-.57,.25-1.19,.19-1.86-.19Z"/><path class="n" d="M96.23,61.29c-.67-.41-1.06-.92-1.19-1.53-.1-.64,.1-1.3,.57-2l2.86-4.29,1.05,1.48-5.19,.33c-.83,.06-1.49-.1-2-.48-.51-.41-.76-1-.76-1.76s.25-1.33,.76-1.72c.51-.41,1.18-.59,2-.53l5.19,.38-1,1.53-2.86-4.39c-.48-.73-.67-1.4-.57-2,.13-.64,.52-1.13,1.19-1.48,.67-.41,1.3-.48,1.91-.19,.6,.25,1.08,.78,1.43,1.57l1.91,4.19h-.86l1.95-4.19c.32-.79,.78-1.32,1.38-1.57,.64-.29,1.29-.22,1.95,.19,.7,.41,1.1,.94,1.19,1.57,.1,.6-.11,1.25-.62,1.95l-2.86,4.29-1-1.48,5.19-.38c.83-.06,1.49,.11,2,.53,.51,.38,.76,.95,.76,1.72s-.25,1.35-.76,1.76c-.51,.38-1.18,.54-2,.48l-5.19-.33,1-1.48,2.86,4.29c.51,.7,.71,1.35,.62,1.95-.1,.6-.49,1.11-1.19,1.53-.7,.41-1.35,.49-1.95,.24-.57-.29-1.03-.81-1.38-1.57l-1.95-4.29h.86l-2,4.29c-.35,.76-.83,1.29-1.43,1.57-.57,.25-1.19,.19-1.86-.19Z"/><path class="m" d="M48.58,94.65c-.67-.41-1.06-.92-1.19-1.52-.1-.64,.1-1.3,.57-2l2.86-4.29,1.05,1.48-5.19,.33c-.83,.06-1.49-.1-2-.48-.51-.41-.76-1-.76-1.76s.25-1.33,.76-1.72c.51-.41,1.18-.59,2-.52l5.19,.38-1,1.52-2.86-4.38c-.48-.73-.67-1.4-.57-2,.13-.63,.52-1.13,1.19-1.48,.67-.41,1.3-.48,1.91-.19,.6,.25,1.08,.78,1.43,1.57l1.91,4.19h-.86l1.95-4.19c.32-.79,.78-1.32,1.38-1.57,.63-.29,1.29-.22,1.95,.19,.7,.41,1.1,.94,1.19,1.57,.1,.6-.11,1.26-.62,1.95l-2.86,4.29-1-1.48,5.19-.38c.83-.06,1.49,.11,2,.52,.51,.38,.76,.95,.76,1.72s-.25,1.35-.76,1.76c-.51,.38-1.18,.54-2,.48l-5.19-.33,1-1.48,2.86,4.29c.51,.7,.72,1.35,.62,1.95-.1,.6-.49,1.11-1.19,1.53-.7,.41-1.35,.49-1.95,.24-.57-.29-1.03-.81-1.38-1.57l-1.95-4.29h.86l-2,4.29c-.35,.76-.83,1.29-1.43,1.57-.57,.25-1.19,.19-1.86-.19Z"/></g></g></g></g></svg>