<svg id="svg" version="1.1" xmlns="http://www.w3.org/2000/svg" xmlns:xlink="http://www.w3.org/1999/xlink" width="400" height="400" viewBox="0, 0, 400,400"><g id="svgg"><path id="path0" d="M102.428 75.225 C 103.183 75.899,104.954 77.474,106.365 78.725 C 107.776 79.976,109.636 81.675,110.498 82.500 C 111.360 83.325,112.222 84.000,112.413 84.000 C 112.604 84.000,112.904 84.225,113.080 84.501 C 113.256 84.776,114.120 85.613,115.000 86.361 C 119.323 90.034,121.485 91.932,122.928 93.322 C 123.796 94.159,125.518 95.661,126.754 96.660 C 128.907 98.400,132.614 101.656,135.341 104.200 C 136.049 104.860,137.611 106.198,138.814 107.173 C 140.016 108.148,141.374 109.318,141.832 109.773 C 142.289 110.228,143.516 111.320,144.558 112.200 C 145.601 113.080,147.259 114.566,148.245 115.503 C 151.627 118.718,148.440 118.415,183.273 118.828 C 206.909 119.109,214.846 119.323,215.600 119.700 C 216.150 119.975,225.240 128.827,235.800 139.370 L 255.000 158.541 255.106 199.300 L 255.211 240.060 236.051 259.236 L 216.892 278.411 190.546 278.223 C 176.056 278.120,161.643 277.928,158.518 277.797 C 153.536 277.588,152.705 277.644,151.774 278.254 C 151.191 278.636,139.411 290.255,125.598 304.074 L 100.483 329.200 167.594 329.200 L 234.704 329.200 268.652 295.300 L 302.600 261.400 302.704 201.918 L 302.808 142.435 301.077 140.518 C 300.124 139.463,284.796 124.065,267.014 106.300 L 234.682 74.000 167.869 74.000 L 101.056 74.000 102.428 75.225 " stroke="none" fill="#fafafb" fill-rule="evenodd"></path><path id="path1" d="M196.000 3.200 C 196.000 3.980,195.733 4.000,185.200 4.000 C 174.667 4.000,174.400 4.020,174.400 4.800 C 174.400 5.556,174.133 5.600,169.600 5.600 C 165.067 5.600,164.800 5.644,164.800 6.400 C 164.800 7.144,164.533 7.200,161.000 7.200 C 158.015 7.200,157.200 7.320,157.200 7.758 C 157.200 8.166,156.336 8.393,154.000 8.600 C 151.664 8.807,150.800 9.034,150.800 9.442 C 150.800 9.861,150.163 10.000,148.233 10.000 C 145.308 10.000,144.400 10.247,144.400 11.043 C 144.400 11.452,143.814 11.600,142.200 11.600 C 140.267 11.600,140.000 11.697,140.000 12.400 C 140.000 13.111,139.733 13.200,137.600 13.200 C 135.467 13.200,135.200 13.289,135.200 14.000 C 135.200 14.705,134.933 14.800,132.963 14.800 C 131.062 14.800,130.694 14.920,130.516 15.600 C 130.339 16.275,129.970 16.400,128.153 16.400 C 126.267 16.400,126.000 16.499,126.000 17.200 C 126.000 17.867,125.733 18.000,124.400 18.000 C 123.067 18.000,122.800 18.133,122.800 18.800 C 122.800 19.467,122.533 19.600,121.200 19.600 C 119.867 19.600,119.600 19.733,119.600 20.400 C 119.600 21.067,119.333 21.200,118.000 21.200 C 116.667 21.200,116.400 21.333,116.400 22.000 C 116.400 22.702,116.133 22.800,114.227 22.800 C 112.405 22.800,112.013 22.929,111.800 23.600 C 111.611 24.195,111.195 24.400,110.173 24.400 C 109.219 24.400,108.800 24.583,108.800 25.000 C 108.800 25.330,108.513 25.600,108.163 25.600 C 107.812 25.600,107.431 25.960,107.316 26.400 C 107.152 27.027,106.770 27.200,105.553 27.200 C 104.267 27.200,104.000 27.337,104.000 28.000 C 104.000 28.652,103.733 28.800,102.563 28.800 C 101.462 28.800,101.076 28.987,100.916 29.600 C 100.768 30.166,100.370 30.400,99.557 30.400 C 98.840 30.400,98.219 30.701,97.907 31.200 C 97.632 31.640,97.091 32.000,96.704 32.000 C 96.267 32.000,96.000 32.303,96.000 32.800 C 96.000 33.445,95.733 33.600,94.627 33.600 C 93.605 33.600,93.189 33.805,93.000 34.400 C 92.860 34.840,92.488 35.200,92.173 35.200 C 91.858 35.200,91.600 35.560,91.600 36.000 C 91.600 36.667,91.333 36.800,90.000 36.800 C 88.667 36.800,88.400 36.933,88.400 37.600 C 88.400 38.133,88.133 38.400,87.600 38.400 C 87.067 38.400,86.800 38.667,86.800 39.200 C 86.800 39.852,86.533 40.000,85.363 40.000 C 84.262 40.000,83.876 40.187,83.716 40.800 C 83.600 41.243,83.170 41.600,82.753 41.600 C 82.339 41.600,82.000 41.849,82.000 42.153 C 82.000 42.458,81.640 42.801,81.200 42.916 C 80.760 43.031,80.400 43.412,80.400 43.763 C 80.400 44.124,80.068 44.400,79.633 44.400 C 78.441 44.400,77.600 44.831,77.600 45.443 C 77.600 45.749,77.240 46.000,76.800 46.000 C 76.267 46.000,76.000 46.267,76.000 46.800 C 76.000 47.333,75.733 47.600,75.200 47.600 C 74.667 47.600,74.400 47.867,74.400 48.400 C 74.400 48.933,74.133 49.200,73.600 49.200 C 73.067 49.200,72.800 49.467,72.800 50.000 C 72.800 50.652,72.533 50.800,71.363 50.800 C 70.285 50.800,69.875 50.991,69.726 51.563 C 69.616 51.983,69.183 52.416,68.763 52.526 C 68.343 52.635,68.000 53.012,68.000 53.363 C 68.000 53.733,67.665 54.000,67.200 54.000 C 66.667 54.000,66.400 54.267,66.400 54.800 C 66.400 55.333,66.133 55.600,65.600 55.600 C 65.067 55.600,64.800 55.867,64.800 56.400 C 64.800 56.933,64.533 57.200,64.000 57.200 C 63.467 57.200,63.200 57.467,63.200 58.000 C 63.200 58.533,62.933 58.800,62.400 58.800 C 61.960 58.800,61.600 58.972,61.600 59.182 C 61.600 59.678,59.678 61.600,59.182 61.600 C 58.972 61.600,58.800 61.960,58.800 62.400 C 58.800 62.933,58.533 63.200,58.000 63.200 C 57.467 63.200,57.200 63.467,57.200 64.000 C 57.200 64.533,56.933 64.800,56.400 64.800 C 55.867 64.800,55.600 65.067,55.600 65.600 C 55.600 66.133,55.333 66.400,54.800 66.400 C 54.283 66.400,54.000 66.667,54.000 67.153 C 54.000 67.570,53.643 68.000,53.200 68.116 C 52.760 68.231,52.400 68.591,52.400 68.916 C 52.400 69.241,52.040 69.601,51.600 69.716 C 50.987 69.876,50.800 70.262,50.800 71.363 C 50.800 72.533,50.652 72.800,50.000 72.800 C 49.467 72.800,49.200 73.067,49.200 73.600 C 49.200 74.133,48.933 74.400,48.400 74.400 C 47.867 74.400,47.600 74.667,47.600 75.200 C 47.600 75.733,47.333 76.000,46.800 76.000 C 46.267 76.000,46.000 76.267,46.000 76.800 C 46.000 77.240,45.749 77.600,45.443 77.600 C 44.831 77.600,44.400 78.441,44.400 79.633 C 44.400 80.068,44.124 80.400,43.763 80.400 C 43.412 80.400,43.031 80.760,42.916 81.200 C 42.801 81.640,42.458 82.000,42.153 82.000 C 41.849 82.000,41.600 82.360,41.600 82.800 C 41.600 83.333,41.333 83.600,40.800 83.600 C 40.133 83.600,40.000 83.867,40.000 85.200 C 40.000 86.533,39.867 86.800,39.200 86.800 C 38.667 86.800,38.400 87.067,38.400 87.600 C 38.400 88.133,38.133 88.400,37.600 88.400 C 37.067 88.400,36.800 88.667,36.800 89.200 C 36.800 89.733,36.533 90.000,36.000 90.000 C 35.355 90.000,35.200 90.267,35.200 91.373 C 35.200 92.395,34.995 92.811,34.400 93.000 C 33.805 93.189,33.600 93.605,33.600 94.627 C 33.600 95.733,33.445 96.000,32.800 96.000 C 32.283 96.000,32.000 96.267,32.000 96.753 C 32.000 97.170,31.643 97.600,31.200 97.716 C 30.594 97.875,30.400 98.262,30.400 99.316 C 30.400 100.370,30.206 100.757,29.600 100.916 C 28.987 101.076,28.800 101.462,28.800 102.563 C 28.800 103.733,28.652 104.000,28.000 104.000 C 27.467 104.000,27.200 104.267,27.200 104.800 C 27.200 105.240,26.953 105.600,26.651 105.600 C 26.320 105.600,26.001 106.235,25.846 107.200 C 25.681 108.235,25.380 108.800,24.995 108.800 C 24.586 108.800,24.400 109.222,24.400 110.153 C 24.400 111.170,24.201 111.559,23.600 111.716 C 22.994 111.875,22.800 112.262,22.800 113.316 C 22.800 114.370,22.606 114.757,22.000 114.916 C 21.394 115.075,21.200 115.462,21.200 116.516 C 21.200 117.570,21.006 117.957,20.400 118.116 C 19.720 118.294,19.600 118.662,19.600 120.563 C 19.600 122.533,19.505 122.800,18.800 122.800 C 18.133 122.800,18.000 123.067,18.000 124.400 C 18.000 125.733,17.867 126.000,17.200 126.000 C 16.497 126.000,16.400 126.267,16.400 128.200 C 16.400 130.133,16.303 130.400,15.600 130.400 C 14.933 130.400,14.800 130.667,14.800 132.000 C 14.800 133.101,14.626 133.600,14.243 133.600 C 13.504 133.600,13.200 134.486,13.200 136.633 C 13.200 137.877,13.035 138.400,12.643 138.400 C 11.904 138.400,11.600 139.286,11.600 141.433 C 11.600 142.688,11.436 143.200,11.035 143.200 C 10.528 143.200,9.825 145.587,10.024 146.630 C 10.246 147.793,9.933 149.200,9.452 149.200 C 9.056 149.200,8.825 150.092,8.624 152.400 C 8.417 154.779,8.198 155.600,7.773 155.600 C 7.316 155.600,7.200 156.370,7.200 159.400 C 7.200 162.933,7.144 163.200,6.400 163.200 C 5.644 163.200,5.600 163.467,5.600 168.000 C 5.600 172.533,5.556 172.800,4.800 172.800 C 4.027 172.800,4.000 173.067,4.000 180.600 C 4.000 188.133,3.973 188.400,3.200 188.400 C 2.416 188.400,2.400 188.667,2.400 201.600 C 2.400 214.533,2.416 214.800,3.200 214.800 C 3.973 214.800,4.000 215.067,4.000 222.600 C 4.000 230.133,4.027 230.400,4.800 230.400 C 5.554 230.400,5.600 230.667,5.600 235.037 C 5.600 239.338,5.658 239.690,6.400 239.884 C 7.128 240.075,7.200 240.430,7.200 243.847 C 7.200 246.750,7.324 247.600,7.746 247.600 C 8.302 247.600,8.800 249.987,8.800 252.656 C 8.800 253.584,8.986 254.000,9.400 254.000 C 9.842 254.000,10.000 254.461,10.000 255.750 C 10.000 258.296,10.421 260.000,11.050 260.000 C 11.434 260.000,11.600 260.534,11.600 261.767 C 11.600 263.914,11.904 264.800,12.643 264.800 C 13.045 264.800,13.200 265.357,13.200 266.797 C 13.200 268.360,13.374 268.902,14.000 269.293 C 14.542 269.631,14.800 270.226,14.800 271.134 C 14.800 272.138,15.001 272.527,15.600 272.684 C 16.275 272.861,16.400 273.230,16.400 275.047 C 16.400 276.933,16.499 277.200,17.200 277.200 C 17.867 277.200,18.000 277.467,18.000 278.800 C 18.000 280.133,18.133 280.400,18.800 280.400 C 19.505 280.400,19.600 280.667,19.600 282.637 C 19.600 284.538,19.720 284.906,20.400 285.084 C 20.997 285.240,21.200 285.630,21.200 286.620 C 21.200 287.595,21.412 288.013,22.000 288.200 C 22.591 288.388,22.800 288.805,22.800 289.800 C 22.800 290.795,23.009 291.212,23.600 291.400 C 24.195 291.589,24.400 292.005,24.400 293.027 C 24.400 293.976,24.584 294.400,24.995 294.400 C 25.380 294.400,25.681 294.965,25.846 296.000 C 26.001 296.965,26.320 297.600,26.651 297.600 C 26.953 297.600,27.200 297.960,27.200 298.400 C 27.200 298.933,27.467 299.200,28.000 299.200 C 28.652 299.200,28.800 299.467,28.800 300.637 C 28.800 301.738,28.987 302.124,29.600 302.284 C 30.197 302.440,30.400 302.830,30.400 303.820 C 30.400 304.795,30.612 305.213,31.200 305.400 C 31.640 305.540,32.000 305.929,32.000 306.264 C 32.000 306.600,32.360 306.969,32.800 307.084 C 33.401 307.241,33.600 307.630,33.600 308.647 C 33.600 309.733,33.758 310.000,34.400 310.000 C 35.052 310.000,35.200 310.267,35.200 311.437 C 35.200 312.538,35.387 312.924,36.000 313.084 C 36.443 313.200,36.800 313.630,36.800 314.047 C 36.800 314.533,37.083 314.800,37.600 314.800 C 38.133 314.800,38.400 315.067,38.400 315.600 C 38.400 316.133,38.667 316.400,39.200 316.400 C 39.867 316.400,40.000 316.667,40.000 318.000 C 40.000 319.333,40.133 319.600,40.800 319.600 C 41.333 319.600,41.600 319.867,41.600 320.400 C 41.600 320.844,41.867 321.200,42.200 321.200 C 42.530 321.200,42.800 321.487,42.800 321.837 C 42.800 322.188,43.143 322.565,43.562 322.674 C 44.048 322.801,44.418 323.368,44.581 324.237 C 44.732 325.046,45.073 325.600,45.418 325.600 C 45.738 325.600,46.000 325.960,46.000 326.400 C 46.000 326.933,46.267 327.200,46.800 327.200 C 47.333 327.200,47.600 327.467,47.600 328.000 C 47.600 328.533,47.867 328.800,48.400 328.800 C 48.933 328.800,49.200 329.067,49.200 329.600 C 49.200 330.133,49.467 330.400,50.000 330.400 C 50.652 330.400,50.800 330.667,50.800 331.837 C 50.800 332.938,50.987 333.324,51.600 333.484 C 52.040 333.599,52.400 333.959,52.400 334.284 C 52.400 334.609,52.760 334.969,53.200 335.084 C 53.640 335.199,54.000 335.559,54.000 335.884 C 54.000 336.209,54.360 336.569,54.800 336.684 C 55.240 336.799,55.600 337.159,55.600 337.484 C 55.600 337.809,55.960 338.169,56.400 338.284 C 56.840 338.399,57.200 338.759,57.200 339.084 C 57.200 339.409,57.560 339.769,58.000 339.884 C 58.440 339.999,58.803 340.297,58.807 340.547 C 58.816 341.121,60.567 342.800,61.156 342.800 C 61.400 342.800,61.600 343.087,61.600 343.437 C 61.600 343.788,61.960 344.169,62.400 344.284 C 62.843 344.400,63.200 344.830,63.200 345.247 C 63.200 345.733,63.483 346.000,64.000 346.000 C 64.533 346.000,64.800 346.267,64.800 346.800 C 64.800 347.333,65.067 347.600,65.600 347.600 C 66.133 347.600,66.400 347.867,66.400 348.400 C 66.400 348.933,66.667 349.200,67.200 349.200 C 67.665 349.200,68.000 349.467,68.000 349.837 C 68.000 350.188,68.343 350.565,68.763 350.674 C 69.183 350.784,69.616 351.217,69.726 351.637 C 69.875 352.209,70.285 352.400,71.363 352.400 C 72.533 352.400,72.800 352.548,72.800 353.200 C 72.800 353.733,73.067 354.000,73.600 354.000 C 74.133 354.000,74.400 354.267,74.400 354.800 C 74.400 355.333,74.667 355.600,75.200 355.600 C 75.665 355.600,76.000 355.867,76.000 356.237 C 76.000 356.588,76.360 356.969,76.800 357.084 C 77.240 357.199,77.600 357.542,77.600 357.847 C 77.600 358.212,78.075 358.400,79.000 358.400 C 80.133 358.400,80.400 358.552,80.400 359.200 C 80.400 359.733,80.667 360.000,81.200 360.000 C 81.733 360.000,82.000 360.267,82.000 360.800 C 82.000 361.317,82.267 361.600,82.753 361.600 C 83.170 361.600,83.600 361.957,83.716 362.400 C 83.876 363.013,84.262 363.200,85.363 363.200 C 86.533 363.200,86.800 363.348,86.800 364.000 C 86.800 364.533,87.067 364.800,87.600 364.800 C 88.133 364.800,88.400 365.067,88.400 365.600 C 88.400 366.267,88.667 366.400,90.000 366.400 C 91.333 366.400,91.600 366.533,91.600 367.200 C 91.600 367.640,91.858 368.000,92.173 368.000 C 92.488 368.000,92.860 368.360,93.000 368.800 C 93.189 369.395,93.605 369.600,94.627 369.600 C 95.593 369.600,96.000 369.781,96.000 370.213 C 96.000 370.549,96.315 370.941,96.700 371.082 C 97.085 371.224,97.540 371.571,97.711 371.854 C 97.882 372.136,98.630 372.482,99.374 372.622 C 100.233 372.783,100.799 373.154,100.926 373.638 C 101.075 374.209,101.485 374.400,102.563 374.400 C 103.574 374.400,104.000 374.578,104.000 375.000 C 104.000 375.433,104.444 375.600,105.600 375.600 C 106.933 375.600,107.200 375.733,107.200 376.400 C 107.200 376.933,107.467 377.200,108.000 377.200 C 108.533 377.200,108.800 377.467,108.800 378.000 C 108.800 378.645,109.067 378.800,110.173 378.800 C 111.195 378.800,111.611 379.005,111.800 379.600 C 111.987 380.188,112.405 380.400,113.380 380.400 C 114.370 380.400,114.760 380.603,114.916 381.200 C 115.094 381.880,115.462 382.000,117.363 382.000 C 119.333 382.000,119.600 382.095,119.600 382.800 C 119.600 383.467,119.867 383.600,121.200 383.600 C 122.533 383.600,122.800 383.733,122.800 384.400 C 122.800 385.063,123.067 385.200,124.353 385.200 C 125.570 385.200,125.952 385.373,126.116 386.000 C 126.290 386.665,126.662 386.800,128.316 386.800 C 129.970 386.800,130.342 386.935,130.516 387.600 C 130.693 388.277,131.062 388.400,132.916 388.400 C 134.770 388.400,135.139 388.523,135.316 389.200 C 135.493 389.877,135.862 390.000,137.716 390.000 C 139.570 390.000,139.939 390.123,140.116 390.800 C 140.290 391.465,140.662 391.600,142.320 391.600 C 143.724 391.600,144.383 391.778,144.545 392.200 C 144.721 392.660,145.479 392.800,147.787 392.800 C 150.533 392.800,150.800 392.871,150.800 393.600 C 150.800 394.333,151.067 394.400,154.000 394.400 C 156.933 394.400,157.200 394.467,157.200 395.200 C 157.200 395.944,157.467 396.000,161.000 396.000 C 164.533 396.000,164.800 396.056,164.800 396.800 C 164.800 397.556,165.067 397.600,169.600 397.600 C 174.133 397.600,174.400 397.644,174.400 398.400 C 174.400 399.179,174.667 399.200,184.400 399.200 C 190.800 399.200,194.400 399.344,194.400 399.600 C 194.400 399.850,196.800 400.000,200.800 400.000 C 204.800 400.000,207.200 399.850,207.200 399.600 C 207.200 399.343,211.012 399.200,217.837 399.200 C 228.138 399.200,228.482 399.175,228.684 398.400 C 228.878 397.659,229.230 397.600,233.484 397.600 C 237.738 397.600,238.090 397.541,238.284 396.800 C 238.475 396.072,238.830 396.000,242.247 396.000 C 245.733 396.000,246.000 395.943,246.000 395.200 C 246.000 394.467,246.267 394.400,249.200 394.400 C 252.133 394.400,252.400 394.333,252.400 393.600 C 252.400 392.871,252.667 392.800,255.400 392.800 C 257.800 392.800,258.400 392.680,258.400 392.200 C 258.400 391.757,258.863 391.600,260.167 391.600 C 262.314 391.600,263.200 391.296,263.200 390.557 C 263.200 390.165,263.723 390.000,264.967 390.000 C 267.114 390.000,268.000 389.696,268.000 388.957 C 268.000 388.576,268.494 388.400,269.567 388.400 C 271.522 388.400,272.400 388.077,272.400 387.357 C 272.400 386.974,272.899 386.800,274.000 386.800 C 275.333 386.800,275.600 386.667,275.600 386.000 C 275.600 385.295,275.867 385.200,277.837 385.200 C 279.738 385.200,280.106 385.080,280.284 384.400 C 280.443 383.794,280.830 383.600,281.884 383.600 C 282.938 383.600,283.325 383.406,283.484 382.800 C 283.648 382.173,284.030 382.000,285.247 382.000 C 286.533 382.000,286.800 381.863,286.800 381.200 C 286.800 380.548,287.067 380.400,288.237 380.400 C 289.338 380.400,289.724 380.213,289.884 379.600 C 290.041 378.999,290.430 378.800,291.447 378.800 C 292.533 378.800,292.800 378.642,292.800 378.000 C 292.800 377.333,293.067 377.200,294.400 377.200 C 295.733 377.200,296.000 377.067,296.000 376.400 C 296.000 375.733,296.267 375.600,297.600 375.600 C 298.699 375.600,299.200 375.426,299.200 375.045 C 299.200 374.727,299.796 374.377,300.589 374.228 C 301.353 374.085,302.118 373.736,302.289 373.454 C 302.460 373.171,302.915 372.824,303.300 372.682 C 303.685 372.541,304.000 372.149,304.000 371.813 C 304.000 371.376,304.413 371.200,305.437 371.200 C 306.538 371.200,306.924 371.013,307.084 370.400 C 307.234 369.826,307.630 369.600,308.484 369.600 C 309.338 369.600,309.734 369.374,309.884 368.800 C 310.000 368.357,310.430 368.000,310.847 368.000 C 311.333 368.000,311.600 367.717,311.600 367.200 C 311.600 366.548,311.867 366.400,313.037 366.400 C 314.138 366.400,314.524 366.213,314.684 365.600 C 314.800 365.157,315.230 364.800,315.647 364.800 C 316.133 364.800,316.400 364.517,316.400 364.000 C 316.400 363.467,316.667 363.200,317.200 363.200 C 317.733 363.200,318.000 362.933,318.000 362.400 C 318.000 361.755,318.267 361.600,319.373 361.600 C 320.395 361.600,320.811 361.395,321.000 360.800 C 321.140 360.360,321.602 360.000,322.027 360.000 C 322.533 360.000,322.800 359.724,322.800 359.200 C 322.800 358.667,323.067 358.400,323.600 358.400 C 324.040 358.400,324.400 358.150,324.400 357.845 C 324.400 357.526,324.998 357.177,325.800 357.026 C 326.572 356.882,327.200 356.524,327.200 356.229 C 327.200 355.934,327.560 355.599,328.000 355.484 C 328.440 355.369,328.800 354.988,328.800 354.637 C 328.800 354.267,329.135 354.000,329.600 354.000 C 330.133 354.000,330.400 353.733,330.400 353.200 C 330.400 352.667,330.667 352.400,331.200 352.400 C 331.733 352.400,332.000 352.133,332.000 351.600 C 332.000 351.067,332.267 350.800,332.800 350.800 C 333.333 350.800,333.600 350.533,333.600 350.000 C 333.600 349.467,333.867 349.200,334.400 349.200 C 334.933 349.200,335.200 348.933,335.200 348.400 C 335.200 347.867,335.467 347.600,336.000 347.600 C 336.533 347.600,336.800 347.333,336.800 346.800 C 336.800 346.152,337.067 346.000,338.200 346.000 C 339.214 346.000,339.600 345.824,339.600 345.363 C 339.600 345.012,339.960 344.631,340.400 344.516 C 340.840 344.401,341.200 344.041,341.200 343.716 C 341.200 343.391,341.560 343.031,342.000 342.916 C 342.440 342.801,342.800 342.441,342.800 342.116 C 342.800 341.791,343.160 341.431,343.600 341.316 C 344.201 341.159,344.400 340.770,344.400 339.753 C 344.400 338.667,344.558 338.400,345.200 338.400 C 345.733 338.400,346.000 338.133,346.000 337.600 C 346.000 337.067,346.267 336.800,346.800 336.800 C 347.333 336.800,347.600 336.533,347.600 336.000 C 347.600 335.467,347.867 335.200,348.400 335.200 C 348.933 335.200,349.200 334.933,349.200 334.400 C 349.200 333.867,349.467 333.600,350.000 333.600 C 350.533 333.600,350.800 333.333,350.800 332.800 C 350.800 332.267,351.067 332.000,351.600 332.000 C 352.133 332.000,352.400 331.733,352.400 331.200 C 352.400 330.667,352.667 330.400,353.200 330.400 C 353.733 330.400,354.000 330.133,354.000 329.600 C 354.000 329.156,354.267 328.800,354.600 328.800 C 354.930 328.800,355.200 328.513,355.200 328.163 C 355.200 327.812,355.556 327.432,355.990 327.318 C 356.504 327.184,356.869 326.639,357.035 325.756 C 357.179 324.988,357.530 324.400,357.845 324.400 C 358.150 324.400,358.400 324.061,358.400 323.647 C 358.400 323.230,358.757 322.800,359.200 322.684 C 359.640 322.569,360.000 322.200,360.000 321.864 C 360.000 321.529,360.360 321.140,360.800 321.000 C 361.395 320.811,361.600 320.395,361.600 319.373 C 361.600 318.267,361.755 318.000,362.400 318.000 C 362.933 318.000,363.200 317.733,363.200 317.200 C 363.200 316.667,363.467 316.400,364.000 316.400 C 364.667 316.400,364.800 316.133,364.800 314.800 C 364.800 313.467,364.933 313.200,365.600 313.200 C 366.133 313.200,366.400 312.933,366.400 312.400 C 366.400 311.867,366.667 311.600,367.200 311.600 C 367.867 311.600,368.000 311.333,368.000 310.000 C 368.000 308.667,368.133 308.400,368.800 308.400 C 369.240 308.400,369.600 308.173,369.600 307.896 C 369.600 307.619,369.960 307.168,370.400 306.893 C 370.899 306.581,371.200 305.960,371.200 305.243 C 371.200 304.430,371.434 304.032,372.000 303.884 C 372.613 303.724,372.800 303.338,372.800 302.237 C 372.800 301.067,372.948 300.800,373.600 300.800 C 374.133 300.800,374.400 300.533,374.400 300.000 C 374.400 299.556,374.667 299.200,375.000 299.200 C 375.433 299.200,375.600 298.756,375.600 297.600 C 375.600 296.267,375.733 296.000,376.400 296.000 C 377.067 296.000,377.200 295.733,377.200 294.400 C 377.200 293.067,377.333 292.800,378.000 292.800 C 378.645 292.800,378.800 292.533,378.800 291.427 C 378.800 290.405,379.005 289.989,379.600 289.800 C 380.188 289.613,380.400 289.195,380.400 288.220 C 380.400 287.230,380.603 286.840,381.200 286.684 C 381.806 286.525,382.000 286.138,382.000 285.084 C 382.000 284.030,382.194 283.643,382.800 283.484 C 383.480 283.306,383.600 282.938,383.600 281.037 C 383.600 279.067,383.695 278.800,384.400 278.800 C 385.067 278.800,385.200 278.533,385.200 277.200 C 385.200 275.867,385.333 275.600,386.000 275.600 C 386.701 275.600,386.800 275.333,386.800 273.447 C 386.800 271.630,386.925 271.261,387.600 271.084 C 388.192 270.929,388.400 270.538,388.400 269.582 C 388.400 268.847,388.682 268.082,389.052 267.811 C 389.451 267.520,389.782 266.530,389.903 265.267 C 390.027 263.980,390.291 263.200,390.604 263.200 C 391.256 263.200,391.588 261.907,391.595 259.343 C 391.598 257.887,391.775 257.218,392.200 257.055 C 392.660 256.879,392.800 256.121,392.800 253.813 C 392.800 251.067,392.871 250.800,393.600 250.800 C 394.333 250.800,394.400 250.533,394.400 247.600 C 394.400 244.667,394.467 244.400,395.200 244.400 C 395.944 244.400,396.000 244.133,396.000 240.600 C 396.000 237.067,396.056 236.800,396.800 236.800 C 397.562 236.800,397.600 236.533,397.600 231.200 C 397.600 225.867,397.638 225.600,398.400 225.600 C 399.191 225.600,399.200 225.333,399.200 201.563 C 399.200 177.862,399.189 177.522,398.400 177.316 C 397.650 177.120,397.600 176.770,397.600 171.753 C 397.600 166.667,397.560 166.400,396.800 166.400 C 396.056 166.400,396.000 166.133,396.000 162.600 C 396.000 159.067,395.944 158.800,395.200 158.800 C 394.467 158.800,394.400 158.533,394.400 155.600 C 394.400 152.667,394.333 152.400,393.600 152.400 C 392.867 152.400,392.800 152.133,392.800 149.200 C 392.800 146.622,392.683 146.000,392.200 146.000 C 391.758 146.000,391.600 145.539,391.600 144.250 C 391.600 141.704,391.179 140.000,390.550 140.000 C 390.211 140.000,390.000 139.559,390.000 138.850 C 390.000 136.863,389.521 135.200,388.950 135.200 C 388.585 135.200,388.400 134.716,388.400 133.763 C 388.400 132.662,388.213 132.276,387.600 132.116 C 386.927 131.940,386.800 131.570,386.800 129.780 C 386.800 128.005,386.668 127.612,386.000 127.400 C 385.405 127.211,385.200 126.795,385.200 125.773 C 385.200 124.667,385.045 124.400,384.400 124.400 C 383.695 124.400,383.600 124.133,383.600 122.163 C 383.600 120.262,383.480 119.894,382.800 119.716 C 382.173 119.552,382.000 119.170,382.000 117.953 C 382.000 116.667,381.863 116.400,381.200 116.400 C 380.548 116.400,380.400 116.133,380.400 114.963 C 380.400 113.862,380.213 113.476,379.600 113.316 C 379.003 113.160,378.800 112.770,378.800 111.780 C 378.800 110.805,378.588 110.387,378.000 110.200 C 377.405 110.011,377.200 109.595,377.200 108.573 C 377.200 107.467,377.045 107.200,376.400 107.200 C 375.733 107.200,375.600 106.933,375.600 105.600 C 375.600 104.444,375.433 104.000,375.000 104.000 C 374.667 104.000,374.400 103.644,374.400 103.200 C 374.400 102.667,374.133 102.400,373.600 102.400 C 372.948 102.400,372.800 102.133,372.800 100.963 C 372.800 99.862,372.613 99.476,372.000 99.316 C 371.394 99.157,371.200 98.770,371.200 97.716 C 371.200 96.684,371.003 96.274,370.437 96.126 C 370.017 96.016,369.584 95.583,369.474 95.163 C 369.365 94.743,368.988 94.400,368.637 94.400 C 368.176 94.400,368.000 94.014,368.000 93.000 C 368.000 91.867,367.848 91.600,367.200 91.600 C 366.667 91.600,366.400 91.333,366.400 90.800 C 366.400 90.267,366.133 90.000,365.600 90.000 C 364.933 90.000,364.800 89.733,364.800 88.400 C 364.800 87.067,364.667 86.800,364.000 86.800 C 363.467 86.800,363.200 86.533,363.200 86.000 C 363.200 85.467,362.933 85.200,362.400 85.200 C 361.748 85.200,361.600 84.933,361.600 83.763 C 361.600 82.662,361.413 82.276,360.800 82.116 C 360.357 82.000,360.000 81.570,360.000 81.153 C 360.000 80.667,359.717 80.400,359.200 80.400 C 358.667 80.400,358.400 80.133,358.400 79.600 C 358.400 79.160,358.190 78.845,357.933 78.900 C 357.676 78.955,357.298 78.325,357.093 77.500 C 356.870 76.602,356.481 76.000,356.123 76.000 C 355.794 76.000,355.431 75.640,355.316 75.200 C 355.201 74.760,354.858 74.400,354.553 74.400 C 354.249 74.400,354.000 74.040,354.000 73.600 C 354.000 73.067,353.733 72.800,353.200 72.800 C 352.667 72.800,352.400 72.533,352.400 72.000 C 352.400 71.467,352.133 71.200,351.600 71.200 C 351.067 71.200,350.800 70.933,350.800 70.400 C 350.800 69.867,350.533 69.600,350.000 69.600 C 349.467 69.600,349.200 69.333,349.200 68.800 C 349.200 68.267,348.933 68.000,348.400 68.000 C 347.867 68.000,347.600 67.733,347.600 67.200 C 347.600 66.667,347.333 66.400,346.800 66.400 C 346.267 66.400,346.000 66.133,346.000 65.600 C 346.000 65.067,345.733 64.800,345.200 64.800 C 344.555 64.800,344.400 64.533,344.400 63.427 C 344.400 62.405,344.195 61.989,343.600 61.800 C 343.160 61.660,342.800 61.288,342.800 60.973 C 342.800 60.658,342.513 60.400,342.163 60.400 C 341.812 60.400,341.431 60.040,341.316 59.600 C 341.166 59.026,340.770 58.800,339.916 58.800 C 339.062 58.800,338.666 58.574,338.516 58.000 C 338.400 57.557,337.970 57.200,337.553 57.200 C 337.067 57.200,336.800 56.917,336.800 56.400 C 336.800 55.867,336.533 55.600,336.000 55.600 C 335.467 55.600,335.200 55.333,335.200 54.800 C 335.200 54.267,334.933 54.000,334.400 54.000 C 333.867 54.000,333.600 53.733,333.600 53.200 C 333.600 52.667,333.333 52.400,332.800 52.400 C 332.267 52.400,332.000 52.133,332.000 51.600 C 332.000 51.067,331.733 50.800,331.200 50.800 C 330.667 50.800,330.400 50.533,330.400 50.000 C 330.400 49.467,330.133 49.200,329.600 49.200 C 329.067 49.200,328.800 48.933,328.800 48.400 C 328.800 47.867,328.533 47.600,328.000 47.600 C 327.560 47.600,327.200 47.349,327.200 47.043 C 327.200 46.431,326.359 46.000,325.167 46.000 C 324.732 46.000,324.400 45.724,324.400 45.363 C 324.400 45.012,324.040 44.631,323.600 44.516 C 323.160 44.401,322.800 44.087,322.800 43.818 C 322.800 43.549,322.350 43.123,321.800 42.873 C 321.250 42.622,320.800 42.233,320.800 42.009 C 320.800 41.784,320.170 41.600,319.400 41.600 C 318.267 41.600,318.000 41.448,318.000 40.800 C 318.000 40.267,317.733 40.000,317.200 40.000 C 316.667 40.000,316.400 39.733,316.400 39.200 C 316.400 38.683,316.133 38.400,315.647 38.400 C 315.230 38.400,314.800 38.043,314.684 37.600 C 314.524 36.987,314.138 36.800,313.037 36.800 C 311.867 36.800,311.600 36.652,311.600 36.000 C 311.600 35.483,311.333 35.200,310.847 35.200 C 310.430 35.200,310.000 34.843,309.884 34.400 C 309.733 33.822,309.338 33.600,308.464 33.600 C 307.605 33.600,307.180 33.368,307.000 32.800 C 306.811 32.205,306.395 32.000,305.373 32.000 C 304.267 32.000,304.000 31.845,304.000 31.200 C 304.000 30.703,303.733 30.400,303.296 30.400 C 302.909 30.400,302.361 30.030,302.079 29.578 C 301.797 29.126,301.258 28.786,300.883 28.824 C 299.623 28.950,299.200 28.804,299.200 28.243 C 299.200 27.598,298.348 27.200,296.967 27.200 C 296.378 27.200,296.000 26.968,296.000 26.605 C 296.000 26.220,295.435 25.919,294.400 25.754 C 293.435 25.599,292.800 25.280,292.800 24.949 C 292.800 24.592,292.327 24.400,291.447 24.400 C 290.430 24.400,290.041 24.201,289.884 23.600 C 289.724 22.987,289.338 22.800,288.237 22.800 C 287.067 22.800,286.800 22.652,286.800 22.000 C 286.800 21.333,286.533 21.200,285.200 21.200 C 283.867 21.200,283.600 21.067,283.600 20.400 C 283.600 19.737,283.333 19.600,282.047 19.600 C 280.830 19.600,280.448 19.427,280.284 18.800 C 280.106 18.120,279.738 18.000,277.837 18.000 C 275.867 18.000,275.600 17.905,275.600 17.200 C 275.600 16.537,275.333 16.400,274.047 16.400 C 272.830 16.400,272.448 16.227,272.284 15.600 C 272.110 14.935,271.738 14.800,270.084 14.800 C 268.430 14.800,268.058 14.665,267.884 14.000 C 267.707 13.323,267.338 13.200,265.484 13.200 C 263.601 13.200,263.263 13.083,263.076 12.368 C 262.925 11.792,262.571 11.559,261.929 11.612 C 259.730 11.793,258.400 11.582,258.400 11.050 C 258.400 10.421,256.696 10.000,254.150 10.000 C 252.934 10.000,252.400 9.833,252.400 9.452 C 252.400 9.056,251.508 8.825,249.200 8.624 C 246.821 8.417,246.000 8.198,246.000 7.773 C 246.000 7.317,245.236 7.200,242.247 7.200 C 238.830 7.200,238.475 7.128,238.284 6.400 C 238.088 5.649,237.738 5.600,232.637 5.600 C 227.467 5.600,227.200 5.561,227.200 4.800 C 227.200 4.021,226.933 4.000,217.247 4.000 C 207.630 4.000,207.286 3.973,207.084 3.200 C 206.759 1.958,196.000 1.958,196.000 3.200 M236.728 73.936 C 237.428 74.560,238.000 75.259,238.000 75.489 C 238.000 75.719,238.360 76.001,238.800 76.116 C 239.240 76.231,239.600 76.591,239.600 76.916 C 239.600 77.241,239.960 77.601,240.400 77.716 C 240.840 77.831,241.200 78.191,241.200 78.516 C 241.200 78.841,241.560 79.201,242.000 79.316 C 242.440 79.431,242.800 79.791,242.800 80.116 C 242.800 80.441,243.160 80.801,243.600 80.916 C 244.040 81.031,244.400 81.412,244.400 81.763 C 244.400 82.113,244.582 82.400,244.804 82.400 C 245.331 82.400,255.200 92.269,255.200 92.796 C 255.200 93.018,255.487 93.200,255.837 93.200 C 256.188 93.200,256.569 93.560,256.684 94.000 C 256.799 94.440,257.159 94.800,257.484 94.800 C 257.809 94.800,258.169 95.160,258.284 95.600 C 258.399 96.040,258.759 96.400,259.084 96.400 C 259.409 96.400,259.769 96.760,259.884 97.200 C 259.999 97.640,260.359 98.000,260.684 98.000 C 261.009 98.000,261.369 98.360,261.484 98.800 C 261.599 99.240,261.859 99.600,262.061 99.600 C 262.569 99.600,270.800 107.875,270.800 108.386 C 270.800 108.614,271.087 108.800,271.437 108.800 C 271.788 108.800,272.169 109.160,272.284 109.600 C 272.399 110.040,272.759 110.400,273.084 110.400 C 273.409 110.400,273.769 110.760,273.884 111.200 C 273.999 111.640,274.359 112.000,274.684 112.000 C 275.009 112.000,275.369 112.360,275.484 112.800 C 275.599 113.240,275.959 113.600,276.284 113.600 C 276.609 113.600,276.969 113.960,277.084 114.400 C 277.199 114.840,277.559 115.200,277.884 115.200 C 278.209 115.200,278.569 115.560,278.684 116.000 C 278.799 116.440,279.053 116.800,279.249 116.800 C 279.745 116.800,288.000 125.094,288.000 125.593 C 288.000 125.817,288.287 126.000,288.637 126.000 C 288.988 126.000,289.369 126.360,289.484 126.800 C 289.599 127.240,289.959 127.600,290.284 127.600 C 290.609 127.600,290.969 127.960,291.084 128.400 C 291.199 128.840,291.559 129.200,291.884 129.200 C 292.209 129.200,292.569 129.560,292.684 130.000 C 292.799 130.440,293.159 130.800,293.484 130.800 C 293.809 130.800,294.169 131.160,294.284 131.600 C 294.399 132.040,294.662 132.400,294.867 132.400 C 295.073 132.400,297.122 134.304,299.421 136.630 L 303.600 140.861 303.600 201.612 L 303.600 262.363 299.427 266.582 C 297.132 268.902,295.062 270.800,294.827 270.800 C 294.592 270.800,294.400 271.087,294.400 271.437 C 294.400 271.788,294.040 272.169,293.600 272.284 C 293.160 272.399,292.800 272.666,292.800 272.877 C 292.800 273.402,290.565 275.600,290.031 275.600 C 289.794 275.600,289.600 275.887,289.600 276.237 C 289.600 276.588,289.240 276.969,288.800 277.084 C 288.360 277.199,288.000 277.454,288.000 277.651 C 288.000 278.117,278.117 288.000,277.651 288.000 C 277.454 288.000,277.199 288.360,277.084 288.800 C 276.969 289.240,276.588 289.600,276.237 289.600 C 275.887 289.600,275.600 289.794,275.600 290.031 C 275.600 290.565,273.402 292.800,272.877 292.800 C 272.666 292.800,272.399 293.160,272.284 293.600 C 272.169 294.040,271.788 294.400,271.437 294.400 C 271.087 294.400,270.800 294.586,270.800 294.814 C 270.800 295.322,260.963 305.200,260.457 305.200 C 260.257 305.200,259.999 305.560,259.884 306.000 C 259.769 306.440,259.409 306.800,259.084 306.800 C 258.759 306.800,258.399 307.160,258.284 307.600 C 258.169 308.040,257.809 308.400,257.484 308.400 C 257.159 308.400,256.799 308.760,256.684 309.200 C 256.569 309.640,256.188 310.000,255.837 310.000 C 255.487 310.000,255.200 310.184,255.200 310.410 C 255.200 310.918,245.366 320.800,244.860 320.800 C 244.658 320.800,244.399 321.160,244.284 321.600 C 244.169 322.040,243.788 322.400,243.437 322.400 C 243.087 322.400,242.800 322.594,242.800 322.831 C 242.800 323.365,240.602 325.600,240.077 325.600 C 239.866 325.600,239.599 325.960,239.484 326.400 C 239.369 326.840,238.988 327.200,238.637 327.200 C 238.287 327.200,238.000 327.409,238.000 327.664 C 238.000 327.920,237.428 328.640,236.728 329.264 L 235.456 330.400 167.972 330.400 C 103.087 330.400,100.454 330.372,99.581 329.665 L 98.674 328.931 125.196 302.416 L 151.718 275.901 165.559 276.149 C 198.892 276.745,213.541 276.880,215.164 276.606 C 216.807 276.329,217.923 275.294,235.052 258.167 L 253.200 240.023 253.200 199.543 L 253.200 159.064 234.141 139.975 L 215.083 120.886 183.841 120.708 C 150.592 120.520,150.888 120.538,149.705 118.664 C 149.537 118.398,148.911 117.870,148.313 117.490 C 147.715 117.110,146.712 116.304,146.082 115.699 C 143.866 113.570,141.044 111.200,140.724 111.200 C 140.546 111.200,140.400 110.930,140.400 110.600 C 140.400 110.270,140.155 110.000,139.856 110.000 C 139.557 110.000,138.702 109.281,137.956 108.402 C 137.210 107.523,136.440 106.803,136.245 106.802 C 136.049 106.801,135.127 106.125,134.196 105.300 C 133.264 104.475,131.274 102.720,129.774 101.400 C 128.274 100.080,126.346 98.325,125.491 97.500 C 124.636 96.675,123.781 96.000,123.591 96.000 C 123.401 96.000,123.010 95.684,122.723 95.297 C 122.435 94.910,121.210 93.798,120.000 92.826 C 118.790 91.854,117.125 90.370,116.301 89.529 C 115.476 88.688,114.697 88.000,114.569 88.000 C 114.442 88.000,113.641 87.325,112.789 86.500 C 111.119 84.882,111.171 84.927,107.485 81.900 C 106.118 80.777,104.343 79.215,103.540 78.429 C 102.737 77.643,101.522 76.552,100.840 76.004 C 99.531 74.953,99.286 74.074,100.080 73.280 C 100.450 72.910,116.082 72.800,168.008 72.800 L 235.456 72.800 236.728 73.936 " stroke="none" fill="#2b4c9c" fill-rule="evenodd"></path><path id="path2" d="M134.500 73.500 C 152.925 73.557,183.075 73.557,201.500 73.500 C 219.925 73.442,204.850 73.395,168.000 73.395 C 131.150 73.395,116.075 73.442,134.500 73.500 M100.193 74.011 C 99.956 74.395,101.920 76.362,105.200 79.025 C 106.828 80.347,109.807 82.977,112.471 85.444 C 113.499 86.397,115.929 88.505,117.871 90.129 C 119.812 91.753,122.120 93.755,123.000 94.578 C 125.226 96.659,126.595 97.867,129.600 100.405 C 131.030 101.612,132.396 102.780,132.635 103.000 C 132.874 103.220,134.298 104.480,135.799 105.800 C 137.300 107.120,139.514 109.100,140.719 110.200 C 141.923 111.300,143.289 112.464,143.754 112.788 C 144.527 113.324,146.347 114.888,147.960 116.400 C 151.363 119.590,149.711 119.438,186.800 119.969 C 200.990 120.172,213.330 120.416,214.223 120.511 C 215.762 120.675,216.830 121.670,234.923 139.788 L 254.000 158.891 254.000 199.503 L 254.000 240.115 235.244 258.870 L 216.488 277.626 205.944 277.437 C 200.145 277.333,185.770 277.070,174.000 276.851 C 156.587 276.529,152.451 276.552,151.800 276.975 C 150.199 278.017,99.608 328.889,99.824 329.239 C 99.947 329.438,100.137 329.600,100.247 329.600 C 100.357 329.600,100.356 329.452,100.244 329.272 C 100.133 329.092,111.718 317.277,125.988 303.018 L 151.935 277.091 163.868 277.343 C 170.430 277.481,184.980 277.703,196.200 277.837 L 216.600 278.080 235.500 259.152 L 254.400 240.224 254.400 199.410 L 254.400 158.597 235.200 139.398 L 215.999 120.200 207.100 119.906 C 202.205 119.744,188.570 119.452,176.800 119.258 C 165.030 119.064,154.464 118.881,153.321 118.853 C 151.721 118.812,150.983 118.571,150.121 117.806 C 149.504 117.260,148.820 116.667,148.600 116.488 C 148.380 116.310,147.196 115.272,145.968 114.182 C 144.741 113.092,142.596 111.210,141.201 110.000 C 139.807 108.790,138.374 107.530,138.018 107.200 C 137.661 106.870,135.486 104.980,133.185 103.001 C 130.883 101.021,128.909 99.281,128.797 99.134 C 128.685 98.987,127.875 98.299,126.997 97.605 C 126.119 96.911,124.500 95.499,123.400 94.465 C 122.300 93.432,119.517 90.970,117.215 88.994 C 114.914 87.017,112.741 85.130,112.386 84.800 C 112.032 84.470,111.126 83.660,110.373 83.000 C 109.621 82.340,107.474 80.446,105.602 78.792 C 103.731 77.137,101.775 75.487,101.257 75.124 C 100.738 74.761,100.433 74.270,100.580 74.032 C 100.727 73.794,100.757 73.600,100.647 73.600 C 100.537 73.600,100.333 73.785,100.193 74.011 M268.857 107.416 C 287.478 126.107,302.809 141.670,302.925 142.000 C 303.104 142.508,303.142 142.502,303.168 141.963 C 303.193 141.473,236.623 74.438,235.297 73.616 C 235.133 73.515,250.236 88.725,268.857 107.416 M303.395 201.600 C 303.395 234.050,303.442 247.325,303.500 231.100 C 303.558 214.875,303.558 188.325,303.500 172.100 C 303.442 155.875,303.395 169.150,303.395 201.600 M302.846 261.199 C 302.821 261.529,287.545 277.090,268.900 295.779 C 250.255 314.469,235.414 329.418,235.920 329.000 C 239.596 325.962,303.205 261.762,303.063 261.233 C 302.923 260.711,302.885 260.705,302.846 261.199 M134.332 329.900 C 152.884 329.957,183.124 329.957,201.532 329.900 C 219.939 329.842,204.760 329.795,167.800 329.795 C 130.840 329.795,115.779 329.842,134.332 329.900 " stroke="none" fill="#94a4cc" fill-rule="evenodd"></path><path id="path3" d="M100.580 74.032 C 100.433 74.270,100.738 74.761,101.257 75.124 C 101.775 75.487,103.731 77.137,105.602 78.792 C 107.474 80.446,109.621 82.340,110.373 83.000 C 111.126 83.660,112.032 84.470,112.386 84.800 C 112.741 85.130,114.914 87.017,117.215 88.994 C 119.517 90.970,122.300 93.432,123.400 94.465 C 124.500 95.499,126.119 96.911,126.997 97.605 C 127.875 98.299,128.685 98.987,128.797 99.134 C 128.909 99.281,130.883 101.021,133.185 103.001 C 135.486 104.980,137.661 106.870,138.018 107.200 C 138.374 107.530,139.807 108.790,141.201 110.000 C 142.596 111.210,144.741 113.092,145.968 114.182 C 147.196 115.272,148.380 116.310,148.600 116.488 C 148.820 116.667,149.504 117.260,150.121 117.806 C 150.983 118.571,151.721 118.812,153.321 118.853 C 154.464 118.881,165.030 119.064,176.800 119.258 C 188.570 119.452,202.205 119.744,207.100 119.906 L 215.999 120.200 235.200 139.398 L 254.400 158.597 254.400 199.410 L 254.400 240.224 235.500 259.152 L 216.600 278.080 196.200 277.837 C 184.980 277.703,170.430 277.481,163.868 277.343 L 151.935 277.091 125.988 303.018 C 111.718 317.277,100.133 329.092,100.244 329.272 C 100.356 329.452,130.722 329.600,167.724 329.600 L 235.002 329.600 269.001 295.599 L 303.000 261.598 303.000 201.600 L 303.000 141.602 269.001 107.601 L 235.002 73.600 167.924 73.600 C 120.328 73.600,100.770 73.725,100.580 74.032 M267.014 106.300 C 284.796 124.065,300.124 139.463,301.077 140.518 L 302.808 142.435 302.704 201.918 L 302.600 261.400 268.652 295.300 L 234.704 329.200 167.594 329.200 L 100.483 329.200 125.598 304.074 C 139.411 290.255,151.191 278.636,151.774 278.254 C 152.705 277.644,153.536 277.588,158.518 277.797 C 161.643 277.928,176.056 278.120,190.546 278.223 L 216.892 278.411 236.051 259.236 L 255.211 240.060 255.106 199.300 L 255.000 158.541 235.800 139.370 C 225.240 128.827,216.150 119.975,215.600 119.700 C 214.846 119.323,206.909 119.109,183.273 118.828 C 148.440 118.415,151.627 118.718,148.245 115.503 C 147.259 114.566,145.601 113.080,144.558 112.200 C 143.516 111.320,142.289 110.228,141.832 109.773 C 141.374 109.318,140.016 108.148,138.814 107.173 C 137.611 106.198,136.049 104.860,135.341 104.200 C 132.614 101.656,128.907 98.400,126.754 96.660 C 125.518 95.661,123.796 94.159,122.928 93.322 C 121.485 91.932,119.323 90.034,115.000 86.361 C 114.120 85.613,113.256 84.776,113.080 84.501 C 112.904 84.225,112.604 84.000,112.413 84.000 C 112.222 84.000,111.360 83.325,110.498 82.500 C 109.636 81.675,107.776 79.976,106.365 78.725 C 104.954 77.474,103.183 75.899,102.428 75.225 L 101.056 74.000 167.869 74.000 L 234.682 74.000 267.014 106.300 " stroke="none" fill="#acbcdc" fill-rule="evenodd"></path><path id="path4" d="M100.080 73.280 C 99.286 74.074,99.531 74.953,100.840 76.004 C 101.522 76.552,102.737 77.643,103.540 78.429 C 104.343 79.215,106.118 80.777,107.485 81.900 C 111.171 84.927,111.119 84.882,112.789 86.500 C 113.641 87.325,114.442 88.000,114.569 88.000 C 114.697 88.000,115.476 88.688,116.301 89.529 C 117.125 90.370,118.790 91.854,120.000 92.826 C 121.210 93.798,122.435 94.910,122.723 95.297 C 123.010 95.684,123.401 96.000,123.591 96.000 C 123.781 96.000,124.636 96.675,125.491 97.500 C 126.346 98.325,128.274 100.080,129.774 101.400 C 131.274 102.720,133.264 104.475,134.196 105.300 C 135.127 106.125,136.049 106.801,136.245 106.802 C 136.440 106.803,137.210 107.523,137.956 108.402 C 138.702 109.281,139.557 110.000,139.856 110.000 C 140.155 110.000,140.400 110.270,140.400 110.600 C 140.400 110.930,140.546 111.200,140.724 111.200 C 141.044 111.200,143.866 113.570,146.082 115.699 C 146.712 116.304,147.715 117.110,148.313 117.490 C 148.911 117.870,149.537 118.398,149.705 118.664 C 150.888 120.538,150.592 120.520,183.841 120.708 L 215.083 120.886 234.141 139.975 L 253.200 159.064 253.200 199.543 L 253.200 240.023 235.052 258.167 C 217.923 275.294,216.807 276.329,215.164 276.606 C 213.541 276.880,198.892 276.745,165.559 276.149 L 151.718 275.901 125.196 302.416 L 98.674 328.931 99.581 329.665 C 100.454 330.372,103.087 330.400,167.972 330.400 L 235.456 330.400 236.728 329.264 C 237.428 328.640,238.000 327.920,238.000 327.664 C 238.000 327.409,238.287 327.200,238.637 327.200 C 238.988 327.200,239.369 326.840,239.484 326.400 C 239.599 325.960,239.866 325.600,240.077 325.600 C 240.602 325.600,242.800 323.365,242.800 322.831 C 242.800 322.594,243.087 322.400,243.437 322.400 C 243.788 322.400,244.169 322.040,244.284 321.600 C 244.399 321.160,244.658 320.800,244.860 320.800 C 245.366 320.800,255.200 310.918,255.200 310.410 C 255.200 310.184,255.487 310.000,255.837 310.000 C 256.188 310.000,256.569 309.640,256.684 309.200 C 256.799 308.760,257.159 308.400,257.484 308.400 C 257.809 308.400,258.169 308.040,258.284 307.600 C 258.399 307.160,258.759 306.800,259.084 306.800 C 259.409 306.800,259.769 306.440,259.884 306.000 C 259.999 305.560,260.257 305.200,260.457 305.200 C 260.963 305.200,270.800 295.322,270.800 294.814 C 270.800 294.586,271.087 294.400,271.437 294.400 C 271.788 294.400,272.169 294.040,272.284 293.600 C 272.399 293.160,272.666 292.800,272.877 292.800 C 273.402 292.800,275.600 290.565,275.600 290.031 C 275.600 289.794,275.887 289.600,276.237 289.600 C 276.588 289.600,276.969 289.240,277.084 288.800 C 277.199 288.360,277.454 288.000,277.651 288.000 C 278.117 288.000,288.000 278.117,288.000 277.651 C 288.000 277.454,288.360 277.199,288.800 277.084 C 289.240 276.969,289.600 276.588,289.600 276.237 C 289.600 275.887,289.794 275.600,290.031 275.600 C 290.565 275.600,292.800 273.402,292.800 272.877 C 292.800 272.666,293.160 272.399,293.600 272.284 C 294.040 272.169,294.400 271.788,294.400 271.437 C 294.400 271.087,294.592 270.800,294.827 270.800 C 295.881 270.800,303.600 262.372,303.546 261.282 C 303.500 260.375,303.464 260.341,303.321 261.076 C 303.165 261.880,238.575 326.962,235.822 329.090 L 234.645 330.000 167.799 330.000 C 113.429 330.000,100.820 329.903,100.239 329.478 C 99.578 328.995,148.658 279.019,151.800 276.975 C 152.451 276.552,156.587 276.529,174.000 276.851 C 185.770 277.070,200.145 277.333,205.944 277.437 L 216.488 277.626 235.244 258.870 L 254.000 240.115 254.000 199.503 L 254.000 158.891 234.923 139.788 C 216.830 121.670,215.762 120.675,214.223 120.511 C 213.330 120.416,200.990 120.172,186.800 119.969 C 149.711 119.438,151.363 119.590,147.960 116.400 C 146.347 114.888,144.527 113.324,143.754 112.788 C 143.289 112.464,141.923 111.300,140.719 110.200 C 139.514 109.100,137.300 107.120,135.799 105.800 C 134.298 104.480,132.874 103.220,132.635 103.000 C 132.396 102.780,131.030 101.612,129.600 100.405 C 126.595 97.867,125.226 96.659,123.000 94.578 C 122.120 93.755,119.812 91.753,117.871 90.129 C 115.929 88.505,113.499 86.397,112.471 85.444 C 109.807 82.977,106.828 80.347,105.200 79.025 C 100.614 75.301,99.780 74.350,100.588 73.759 C 101.509 73.086,234.125 72.916,235.200 73.587 C 236.776 74.570,303.176 141.390,303.323 142.140 C 303.462 142.849,303.501 142.812,303.546 141.930 C 303.599 140.884,295.873 132.400,294.867 132.400 C 294.662 132.400,294.399 132.040,294.284 131.600 C 294.169 131.160,293.809 130.800,293.484 130.800 C 293.159 130.800,292.799 130.440,292.684 130.000 C 292.569 129.560,292.209 129.200,291.884 129.200 C 291.559 129.200,291.199 128.840,291.084 128.400 C 290.969 127.960,290.609 127.600,290.284 127.600 C 289.959 127.600,289.599 127.240,289.484 126.800 C 289.369 126.360,288.988 126.000,288.637 126.000 C 288.287 126.000,288.000 125.817,288.000 125.593 C 288.000 125.094,279.745 116.800,279.249 116.800 C 279.053 116.800,278.799 116.440,278.684 116.000 C 278.569 115.560,278.209 115.200,277.884 115.200 C 277.559 115.200,277.199 114.840,277.084 114.400 C 276.969 113.960,276.609 113.600,276.284 113.600 C 275.959 113.600,275.599 113.240,275.484 112.800 C 275.369 112.360,275.009 112.000,274.684 112.000 C 274.359 112.000,273.999 111.640,273.884 111.200 C 273.769 110.760,273.409 110.400,273.084 110.400 C 272.759 110.400,272.399 110.040,272.284 109.600 C 272.169 109.160,271.788 108.800,271.437 108.800 C 271.087 108.800,270.800 108.614,270.800 108.386 C 270.800 107.875,262.569 99.600,262.061 99.600 C 261.859 99.600,261.599 99.240,261.484 98.800 C 261.369 98.360,261.009 98.000,260.684 98.000 C 260.359 98.000,259.999 97.640,259.884 97.200 C 259.769 96.760,259.409 96.400,259.084 96.400 C 258.759 96.400,258.399 96.040,258.284 95.600 C 258.169 95.160,257.809 94.800,257.484 94.800 C 257.159 94.800,256.799 94.440,256.684 94.000 C 256.569 93.560,256.188 93.200,255.837 93.200 C 255.487 93.200,255.200 93.018,255.200 92.796 C 255.200 92.269,245.331 82.400,244.804 82.400 C 244.582 82.400,244.400 82.113,244.400 81.763 C 244.400 81.412,244.040 81.031,243.600 80.916 C 243.160 80.801,242.800 80.441,242.800 80.116 C 242.800 79.791,242.440 79.431,242.000 79.316 C 241.560 79.201,241.200 78.841,241.200 78.516 C 241.200 78.191,240.840 77.831,240.400 77.716 C 239.960 77.601,239.600 77.241,239.600 76.916 C 239.600 76.591,239.240 76.231,238.800 76.116 C 238.360 76.001,238.000 75.719,238.000 75.489 C 238.000 75.259,237.428 74.560,236.728 73.936 L 235.456 72.800 168.008 72.800 C 116.082 72.800,100.450 72.910,100.080 73.280 " stroke="none" fill="#5c74b4" fill-rule="evenodd"></path></g></svg>