<svg width="28" height="28" viewBox="0 0 28 28" fill="none" xmlns="http://www.w3.org/2000/svg">
<path d="M27.5 14C27.5 21.4558 21.4558 27.5 14 27.5C6.54416 27.5 0.5 21.4558 0.5 14C0.5 6.54416 6.54416 0.5 14 0.5C21.4558 0.5 27.5 6.54416 27.5 14Z" fill="white" stroke="#627EEA"/>
<path d="M14.4355 3.5V11.2613L20.9954 14.1925L14.4355 3.5Z" fill="#627EEA" fill-opacity="0.602"/>
<path d="M14.4357 3.5L7.875 14.1925L14.4357 11.2613V3.5Z" fill="#627EEA"/>
<path d="M14.4355 19.2221V24.4957L20.9998 15.4141L14.4355 19.2221Z" fill="#627EEA" fill-opacity="0.602"/>
<path d="M14.4357 24.4957V19.2212L7.875 15.4141L14.4357 24.4957Z" fill="#627EEA"/>
<path d="M14.4355 18.0001L20.9954 14.1912L14.4355 11.2617V18.0001Z" fill="#627EEA" fill-opacity="0.4"/>
<path d="M7.875 14.1912L14.4357 18.0001V11.2617L7.875 14.1912Z" fill="#627EEA" fill-opacity="0.602"/>
</svg>
