<svg width="128" height="128" viewBox="-22 -22 185 185" fill="none" xmlns="http://www.w3.org/2000/svg">
    <path d="M0 64C0 28.6538 28.6538 0 64 0C99.3462 0 128 28.6538 128 64C128 99.3462 99.3462 128 64 128C28.6538 128 0 99.3462 0 64Z" fill="white"/>
    <path d="M64.0353 127.878C99.3623 127.878 128 99.2785 128 63.9998C128 28.7211 99.3623 0.12207 64.0353 0.12207C28.7084 0.12207 0.0703125 28.7211 0.0703125 63.9998C0.0703125 99.2785 28.7084 127.878 64.0353 127.878Z" fill="white"/>
    <path d="M66.0293 16.083V51.4969L96.0009 64.8732L66.0293 16.083Z" fill="#333333"/>
    <path d="M66.0292 16.083L36.0576 64.8732L66.0292 51.4969V16.083Z" fill="#8C8C8C"/>
    <path d="M66.0293 87.8185V111.882L96.0184 70.4434L66.0293 87.8185Z" fill="#333333"/>
    <path d="M66.0292 111.882V87.8185L36.0576 70.4434L66.0292 111.882Z" fill="#8C8C8C"/>
    <path d="M66.0293 82.2485L96.0009 64.8733L66.0293 51.4971V82.2485Z" fill="#141414"/>
    <path d="M36.0576 64.8733L66.0292 82.2485V51.4971L36.0576 64.8733Z" fill="#333333"/>
    </svg>
    