<?xml version="1.0" encoding="utf-8"?>
<svg viewBox="0 0 150.646 161.854" width="150.646px" height="161.854px" fill="none" xmlns="http://www.w3.org/2000/svg">
  <defs>
    <radialGradient id="paint0_radial" cx="0" cy="0" r="1" gradientUnits="userSpaceOnUse" gradientTransform="translate(50.485 53.7827) rotate(22.7044) scale(78.5594 57.2236)">
      <stop stop-color="#4D9CDC"/>
      <stop offset="1" stop-color="#16346B"/>
    </radialGradient>
    <linearGradient id="paint1_linear" x1="92.0261" y1="85.0548" x2="108.614" y2="108.411" gradientUnits="userSpaceOnUse">
      <stop stop-color="#FFD016"/>
      <stop offset="1" stop-color="#BB7503" stop-opacity="0.952941"/>
    </linearGradient>
    <filter id="filter0_f" x="0.341098" y="8.73085" width="153.218" height="153.753" filterUnits="userSpaceOnUse" color-interpolation-filters="sRGB">
      <feFlood flood-opacity="0" result="BackgroundImageFix"/>
      <feBlend mode="normal" in="SourceGraphic" in2="BackgroundImageFix" result="shape"/>
      <feGaussianBlur stdDeviation="2.4209" result="effect1_foregroundBlur"/>
    </filter>
    <radialGradient id="paint2_radial" cx="0" cy="0" r="1" gradientUnits="userSpaceOnUse" gradientTransform="translate(140.584 169.274) rotate(-74.4328) scale(128.934 169.107)">
      <stop stop-color="white"/>
      <stop offset="1" stop-color="#295E87" stop-opacity="0"/>
    </radialGradient>
    <linearGradient id="paint3_linear" x1="63.6402" y1="91.1952" x2="96.1173" y2="138.442" gradientUnits="userSpaceOnUse">
      <stop stop-color="#FFD016"/>
      <stop offset="1" stop-color="#BB7503"/>
    </linearGradient>
    <linearGradient id="paint4_linear" x1="84.8031" y1="92.4861" x2="36.3052" y2="42.1015" gradientUnits="userSpaceOnUse">
      <stop stop-color="#FFD016"/>
      <stop offset="1" stop-color="#BB7503" stop-opacity="0.952941"/>
    </linearGradient>
    <radialGradient id="paint5_radial" cx="0" cy="0" r="1" gradientUnits="userSpaceOnUse" gradientTransform="translate(40.3793 41.1582) rotate(60.3885) scale(108.526 108.447)">
      <stop stop-color="white" stop-opacity="0.381062"/>
      <stop offset="1" stop-color="#295E87" stop-opacity="0"/>
    </radialGradient>
  </defs>
  <path d="M77.5002 158.304C117.315 158.304 149.592 126.028 149.592 86.2126C149.592 46.3975 117.315 14.1209 77.5002 14.1209C37.685 14.1209 5.40839 46.3975 5.40839 86.2126C5.40839 126.028 37.685 158.304 77.5002 158.304Z" fill="url(#paint0_radial)"/>
  <g opacity="0.510121">
    <g style="mix-blend-mode:overlay">
      <path d="M162.603 86.2675C162.603 132.763 124.2 178.581 76.8277 178.581C29.4552 178.581 4.28131 132.763 4.28131 86.2675C4.28131 39.7722 29.4552 2.08023 76.8277 2.08023C89.5541 2.08023 101.633 4.80047 112.494 9.68084C142.062 22.9671 162.603 52.2629 162.603 86.2675Z" stroke="white" stroke-opacity="0.997691" stroke-width="4.117"/>
    </g>
  </g>
  <path d="M71.125 56.0254L93.5431 58.1827C131.509 57.9961 138.484 115.082 97.3374 116.015L71.125 118.283C49.3869 75.1178 51.8571 95.8702 71.125 56.0254Z" fill="url(#paint1_linear)"/>
  <path d="M73.4827 53.5074C72.2319 53.5087 70.9152 53.5415 70.1258 53.5415C69.1411 53.5415 68.36 53.5758 67.7828 53.6438C67.2055 53.6779 66.7472 53.7629 66.4076 53.8991C66.102 54.0012 65.8643 54.1709 65.6945 54.4091C65.5247 54.6134 65.3553 54.8521 65.1855 55.1243L51.128 79.8345L36.9686 55.1244C36.7649 54.8521 36.5782 54.6134 36.4084 54.4092C36.2387 54.171 35.967 54.0013 35.5935 53.8992C35.22 53.763 34.7106 53.6779 34.0654 53.6439C33.4203 53.5758 32.5881 53.5416 31.5695 53.5416C30.381 53.5416 29.4472 53.5759 28.7681 53.6439C28.089 53.712 27.614 53.8822 27.3423 54.1545C27.0707 54.3927 26.9857 54.7497 27.0876 55.2262C27.2234 55.6687 27.495 56.2644 27.9025 57.0132L45.0668 86.3695L27.0876 116.747C26.6461 117.496 26.3745 118.091 26.2726 118.534C26.2047 118.976 26.2897 119.333 26.5274 119.606C26.799 119.844 27.2574 119.997 27.9025 120.065C28.5477 120.167 29.4304 120.219 30.5509 120.219C31.5696 120.219 32.3845 120.184 32.9957 120.116C33.6069 120.082 34.0824 120.014 34.422 119.912C34.7955 119.776 35.0839 119.606 35.2876 119.402C35.4913 119.197 35.678 118.942 35.8478 118.636L50.6696 92.3428L65.3379 118.636C65.4738 118.942 65.6265 119.197 65.7963 119.402C66 119.572 66.2717 119.725 66.6113 119.861C66.9848 119.997 67.4775 120.082 68.0887 120.116C68.6999 120.184 69.5487 120.219 70.6353 120.219C71.2744 120.219 94.4569 121.139 109.806 115.971C122.214 111.793 131.645 102.944 131.514 84.303C131.25 68.1045 116.598 60.9009 116.245 60.7127C104.831 53.5111 85.8538 54.1607 74.6893 53.5194C74.3091 53.5108 73.8996 53.5071 73.4827 53.5072V53.5074ZM80.9096 61.1897C83.2601 61.197 85.8468 61.231 88.4404 61.3153C88.4414 61.3153 88.4426 61.3152 88.4435 61.3153V66.5294H82.5699C80.2578 66.5294 78.4677 67.5708 77.1997 69.6537C75.9318 71.6924 75.298 74.4627 75.298 77.9638C75.298 79.648 75.4657 81.2656 75.8014 82.8168C76.137 84.3236 76.603 85.6752 77.1997 86.8718C77.8337 88.0241 78.5611 88.9548 79.3815 89.6639C80.2019 90.373 81.1155 90.7274 82.1224 90.7274H88.4435V104.622H77.9005C76.775 104.622 76.6352 105.031 76.5848 105.98V107.337C76.6955 108.513 76.7905 108.99 78.2136 109.076H88.4435V112.505C79.6999 112.831 72.0616 112.641 72.0616 112.641L56.6284 86.1654L71.2213 61.307C71.2213 61.307 75.4222 61.1734 80.9096 61.1897V61.1897ZM92.8071 61.5101C96.4372 61.722 99.8152 62.0626 102.262 62.5973C105.122 63.2222 123.601 66.7346 123.511 86.4796C123.732 108.067 105.991 111.432 92.8376 112.292C92.8273 112.293 92.8173 112.294 92.8071 112.295V109.076H100.526C101.459 109.076 102.298 108.788 103.044 108.211C103.79 107.591 104.405 106.772 104.89 105.752C105.412 104.689 105.803 103.448 106.064 102.029C106.362 100.567 106.512 98.9934 106.512 97.3093C106.512 95.5809 106.362 93.9409 106.064 92.3897C105.803 90.8385 105.393 89.4646 104.834 88.268C104.312 87.0714 103.677 86.1188 102.932 85.4097C102.223 84.7006 101.422 84.3463 100.526 84.3463H92.8071V71.0504H102.257C103.209 70.9766 103.576 70.6289 103.827 69.4769V67.9638C103.642 67.3726 103.601 66.7572 102.331 66.5297H92.8071V61.5101ZM85.8147 71.05H88.4435V84.3459H85.8147C84.9197 84.3459 84.1923 83.7254 83.633 82.4845C83.1109 81.1993 82.8495 79.6258 82.8495 77.7644C82.8495 75.77 83.1109 74.1523 83.633 72.9114C84.1923 71.6705 84.9197 71.05 85.8147 71.05V71.05ZM92.8071 90.7274H95.8834C96.4427 90.7274 96.9278 90.9269 97.3381 91.3258C97.7856 91.7247 98.1585 92.2568 98.4569 92.9216C98.7552 93.5421 98.979 94.2732 99.1281 95.1153C99.2773 95.9573 99.3519 96.8215 99.3519 97.7079C99.3519 99.5692 99.0345 101.187 98.4005 102.561C97.8038 103.935 96.9648 104.622 95.8834 104.622H92.8071V90.7274Z" fill="black"/>
  <path d="M109.74 72.8009C111.2 72.8009 112.446 73.3164 113.477 74.3473C114.508 75.3782 115.023 76.6382 115.023 78.1274C115.023 79.5878 114.508 80.8479 113.477 81.9074C112.446 82.9384 111.2 83.4538 109.74 83.4538C108.279 83.4538 107.034 82.9384 106.003 81.9074C104.972 80.8479 104.456 79.5878 104.456 78.1274C104.456 76.6382 104.972 75.3782 106.003 74.3473C107.034 73.3164 108.279 72.8009 109.74 72.8009Z" fill="black"/>
  <g opacity="0.836032" filter="url(#filter0_f)">
    <path d="M76.95 152.602C113.803 152.602 143.678 122.608 143.678 85.6072C143.678 48.6068 113.803 18.6121 76.95 18.6121C40.0973 18.6121 10.2224 48.6068 10.2224 85.6072C10.2224 122.608 40.0973 152.602 76.95 152.602Z" stroke="url(#paint2_radial)" stroke-width="10.0789"/>
  </g>
  <path d="M75.532 158.751C115.347 158.751 147.624 126.475 147.624 86.6595C147.624 46.8443 115.347 14.5677 75.532 14.5677C35.7168 14.5677 3.44025 46.8443 3.44025 86.6595C3.44025 126.475 35.7168 158.751 75.532 158.751Z" stroke="url(#paint3_linear)" stroke-width="5.84422"/>
  <path d="M75.8226 18.0037C37.6068 17.8183 6.47527 48.4087 6.28843 86.3293C6.10159 124.25 36.9302 155.141 75.146 155.326C113.362 155.512 144.493 124.921 144.68 87.0007C144.867 49.0801 114.038 18.1891 75.8226 18.0037Z" stroke="url(#paint4_linear)" stroke-width="1.95432"/>
  <path opacity="0.698381" d="M76.0612 156.309C116.063 156.309 148.49 124.754 148.49 85.8302C148.49 46.9059 116.063 15.3515 76.0612 15.3515C36.0596 15.3515 3.6319 46.9059 3.6319 85.8302C3.6319 124.754 36.0596 156.309 76.0612 156.309Z" fill="url(#paint5_radial)"/>
</svg>