<svg
   xmlns:dc="http://purl.org/dc/elements/1.1/"
   xmlns:cc="http://creativecommons.org/ns#"
   xmlns:rdf="http://www.w3.org/1999/02/22-rdf-syntax-ns#"
   xmlns:svg="http://www.w3.org/2000/svg"
   xmlns="http://www.w3.org/2000/svg"
   xmlns:xlink="http://www.w3.org/1999/xlink"
   xmlns:sodipodi="http://sodipodi.sourceforge.net/DTD/sodipodi-0.dtd"
   xmlns:inkscape="http://www.inkscape.org/namespaces/inkscape"
   width="210mm"
   height="297mm"
   viewBox="0 0 210 297"
   version="1.1"
   id="svg2135"
   inkscape:export-filename="C:\Users\xcprz\Pictures\xd__n5.png"
   inkscape:export-xdpi="135.44157"
   inkscape:export-ydpi="135.44157"
   inkscape:version="1.0rc1 (09960d6f05, 2020-04-09)"
   sodipodi:docname="xd_upd6.svg">
  <defs
     id="defs2129">
    <linearGradient
       inkscape:collect="always"
       id="linearGradient3264">
      <stop
         style="stop-color:#4d9cdc;stop-opacity:1"
         offset="0"
         id="stop3260" />
      <stop
         style="stop-color:#16346b;stop-opacity:1"
         offset="1"
         id="stop3262" />
    </linearGradient>
    <mask
       maskUnits="userSpaceOnUse"
       id="mask6357-3-0">
      <ellipse
         style="opacity:1;fill:#a0ad00;fill-opacity:1;stroke-width:0.505;stroke-opacity:0.997691"
         id="ellipse6359-4-8"
         cx="111.98592"
         cy="138.44562"
         rx="60.135643"
         ry="61.471985" />
    </mask>
    <clipPath
       clipPathUnits="userSpaceOnUse"
       id="clipPath875-3-5-6">
      <rect
         style="opacity:0.97;fill:#ffffff;fill-opacity:1;stroke-width:0.728321;stroke-opacity:0.997691"
         id="rect877-5-7-2"
         width="55.59206"
         height="89.000748"
         x="-64.946495"
         y="-130.16025" />
    </clipPath>
    <clipPath
       id="clipPath875-3-5-6-9"
       clipPathUnits="userSpaceOnUse">
      <rect
         y="-130.16025"
         x="-64.946495"
         height="89.000748"
         width="55.59206"
         id="rect877-5-7-2-2"
         style="opacity:0.97;fill:#ffffff;fill-opacity:1;stroke-width:0.728321;stroke-opacity:0.997691" />
    </clipPath>
    <clipPath
       clipPathUnits="userSpaceOnUse"
       id="clipPath875-3-5-6-9-0">
      <rect
         style="opacity:0.97;fill:#ffffff;fill-opacity:1;stroke-width:0.728321;stroke-opacity:0.997691"
         id="rect877-5-7-2-2-0"
         width="55.59206"
         height="89.000748"
         x="-64.946495"
         y="-130.16025" />
    </clipPath>
    <mask
       id="mask6357-3-0-4"
       maskUnits="userSpaceOnUse">
      <ellipse
         ry="61.471985"
         rx="60.135643"
         cy="138.44562"
         cx="111.98592"
         id="ellipse6359-4-8-0"
         style="opacity:1;fill:#a0ad00;fill-opacity:1;stroke-width:0.505;stroke-opacity:0.997691" />
    </mask>
    <clipPath
       id="clipPath875-3-5-6-9-0-9"
       clipPathUnits="userSpaceOnUse">
      <rect
         y="-130.16025"
         x="-64.946495"
         height="89.000748"
         width="55.59206"
         id="rect877-5-7-2-2-0-0"
         style="opacity:0.97;fill:#ffffff;fill-opacity:1;stroke-width:0.728321;stroke-opacity:0.997691" />
    </clipPath>
    <radialGradient
       inkscape:collect="always"
       xlink:href="#linearGradient3264"
       id="radialGradient3268"
       cx="77.888893"
       cy="114.9464"
       fx="77.888893"
       fy="114.9464"
       r="72.091782"
       gradientUnits="userSpaceOnUse"
       gradientTransform="matrix(1.00527,0.42060499,-0.30637349,0.73225011,35.206215,-16.259719)" />
    <mask
       maskUnits="userSpaceOnUse"
       id="mask6357-3-0-4-6">
      <ellipse
         style="opacity:1;fill:#a0ad00;fill-opacity:1;stroke-width:0.505;stroke-opacity:0.997691"
         id="ellipse6359-4-8-0-9"
         cx="111.98592"
         cy="138.44562"
         rx="60.135643"
         ry="61.471985" />
    </mask>
    <clipPath
       clipPathUnits="userSpaceOnUse"
       id="clipPath875-3-5-6-9-0-9-4">
      <rect
         style="opacity:0.97;fill:#ffffff;fill-opacity:1;stroke-width:0.728321;stroke-opacity:0.997691"
         id="rect877-5-7-2-2-0-0-1"
         width="55.59206"
         height="89.000748"
         x="-64.946495"
         y="-130.16025" />
    </clipPath>
    <clipPath
       id="clipPath875-3-5-6-9-0-9-4-7"
       clipPathUnits="userSpaceOnUse">
      <rect
         y="-130.16025"
         x="-64.946495"
         height="89.000748"
         width="55.59206"
         id="rect877-5-7-2-2-0-0-1-0"
         style="opacity:0.97;fill:#ffffff;fill-opacity:1;stroke-width:0.728321;stroke-opacity:0.997691" />
    </clipPath>
    <mask
       id="mask6357-3-0-4-6-7"
       maskUnits="userSpaceOnUse">
      <ellipse
         ry="61.471985"
         rx="60.135643"
         cy="138.44562"
         cx="111.98592"
         id="ellipse6359-4-8-0-9-7"
         style="opacity:1;fill:#a0ad00;fill-opacity:1;stroke-width:0.505;stroke-opacity:0.997691" />
    </mask>
    <pattern
       inkscape:collect="always"
       xlink:href="#Wavy"
       id="pattern2926"
       patternTransform="translate(10.012611,-74.595352)" />
    <pattern
       inkscape:collect="always"
       patternUnits="userSpaceOnUse"
       width="30.066020"
       height="5.1805778"
       id="Wavy"
       inkscape:stockid="Wavy"
       inkscape:isstock="true">
      <path
         style="fill:#4971c3;stroke:none;"
         d="M 7.597,0.061 C 5.079,-0.187 2.656,0.302 -0.01,1.788 L -0.01,3.061 C 2.773,1.431 5.173,1.052 7.472,1.280 C 9.770,1.508 11.969,2.361 14.253,3.218 C 18.820,4.931 23.804,6.676 30.066,3.061 L 30.062,1.788 C 23.622,5.497 19.246,3.770 14.691,2.061 C 12.413,1.207 10.115,0.311 7.597,0.061 z "
         id="path2467" />
    </pattern>
    <linearGradient
       gradientTransform="matrix(1,0,0,0.93879365,87.118657,-328.6194)"
       gradientUnits="userSpaceOnUse"
       y2="172.81639"
       x2="157.84882"
       y1="147.90535"
       x1="139.00278"
       id="linearGradient2915"
       xlink:href="#linearGradient2931-1-1"
       inkscape:collect="always" />
    <linearGradient
       inkscape:collect="always"
       id="linearGradient2931-1-1">
      <stop
         style="stop-color:#ffd016;stop-opacity:1"
         offset="0"
         id="stop2927" />
      <stop
         style="stop-color:#bb7503;stop-opacity:0.95294118"
         offset="1"
         id="stop2929" />
    </linearGradient>
    <clipPath
       clipPathUnits="userSpaceOnUse"
       id="clipPath875-3-5-6-9-0-9-4-7-8">
      <rect
         style="opacity:0.97;fill:#ffffff;fill-opacity:1;stroke-width:0.728321;stroke-opacity:0.997691"
         id="rect877-5-7-2-2-0-0-1-0-0"
         width="55.59206"
         height="89.000748"
         x="-64.946495"
         y="-130.16025" />
    </clipPath>
    <radialGradient
       inkscape:collect="always"
       xlink:href="#linearGradient3232"
       id="radialGradient3226"
       cx="72.066223"
       cy="-137.40273"
       fx="72.066223"
       fy="-137.40273"
       r="72.091782"
       gradientUnits="userSpaceOnUse"
       gradientTransform="matrix(0.74383546,1.3087782,-1.3241798,0.71452591,-167.60504,90.412987)" />
    <linearGradient
       inkscape:collect="always"
       id="linearGradient3232">
      <stop
         style="stop-color:#ffffff;stop-opacity:0.38106236"
         offset="0"
         id="stop3228" />
      <stop
         style="stop-color:#295e87;stop-opacity:0"
         offset="1"
         id="stop3230" />
    </linearGradient>
    <radialGradient
       inkscape:collect="always"
       xlink:href="#linearGradient2958"
       id="radialGradient2936"
       cx="69.066925"
       cy="193.87193"
       fx="69.066925"
       fy="193.87193"
       r="79.435204"
       gradientTransform="matrix(0.43559626,-1.5635884,2.0676798,0.51065457,-261.58771,226.45088)"
       gradientUnits="userSpaceOnUse" />
    <linearGradient
       inkscape:collect="always"
       id="linearGradient2958">
      <stop
         style="stop-color:#ffffff;stop-opacity:1"
         offset="0"
         id="stop2954" />
      <stop
         style="stop-color:#295e87;stop-opacity:0"
         offset="1"
         id="stop2956" />
    </linearGradient>
    <linearGradient
       inkscape:collect="always"
       xlink:href="#linearGradient2931-1-1"
       id="linearGradient4949"
       x1="59.538319"
       y1="78.200058"
       x2="92.015503"
       y2="125.44708"
       gradientUnits="userSpaceOnUse" />
    <linearGradient
       inkscape:collect="always"
       xlink:href="#linearGradient2931-1-1"
       id="linearGradient4953"
       x1="-81.091942"
       y1="-79.098503"
       x2="-32.346527"
       y2="-28.94964"
       gradientUnits="userSpaceOnUse" />
    <linearGradient
       y2="125.44708"
       x2="92.015503"
       y1="78.200058"
       x1="59.538319"
       gradientUnits="userSpaceOnUse"
       id="linearGradient3063"
       xlink:href="#linearGradient2931-1-1"
       inkscape:collect="always" />
    <filter
       height="1.0867252"
       y="-0.043362608"
       width="1.0870728"
       x="-0.043536393"
       id="filter3065"
       style="color-interpolation-filters:sRGB"
       inkscape:collect="always">
      <feGaussianBlur
         id="feGaussianBlur3067"
         stdDeviation="2.4209006"
         inkscape:collect="always" />
    </filter>
  </defs>
  <sodipodi:namedview
     id="base"
     pagecolor="#ffffff"
     bordercolor="#666666"
     borderopacity="1.0"
     inkscape:pageopacity="0.0"
     inkscape:pageshadow="2"
     inkscape:zoom="0.49497475"
     inkscape:cx="587.281"
     inkscape:cy="904.85853"
     inkscape:document-units="mm"
     inkscape:current-layer="layer1"
     inkscape:document-rotation="0"
     showgrid="false"
     inkscape:snap-global="true"
     inkscape:window-width="2560"
     inkscape:window-height="1377"
     inkscape:window-x="-8"
     inkscape:window-y="-8"
     inkscape:window-maximized="1" />
  <metadata
     id="metadata2132">
    <rdf:RDF>
      <cc:Work
         rdf:about="">
        <dc:format>image/svg+xml</dc:format>
        <dc:type
           rdf:resource="http://purl.org/dc/dcmitype/StillImage" />
        <dc:title></dc:title>
      </cc:Work>
    </rdf:RDF>
  </metadata>
  <g
     inkscape:label="Warstwa 1"
     inkscape:groupmode="layer"
     id="layer1">
    <circle
       style="opacity:1;fill:url(#radialGradient3268);fill-opacity:1;stroke:none;stroke-width:5.84422;stroke-miterlimit:4;stroke-dasharray:none;stroke-opacity:1"
       id="path6361-5-7-3"
       cx="105.3042"
       cy="133.10022"
       inkscape:transform-center-x="134.70384"
       inkscape:transform-center-y="-52.384827"
       r="72.091782" />
    <g
       style="opacity:0.510121"
       mask="url(#mask6357-3-0-4-6-7)"
       transform="matrix(1.193369,0,0,1.1712712,-27.981401,-28.877765)"
       id="g6351">
      <path
         id="path843-4"
         style="opacity:1;mix-blend-mode:overlay;fill:url(#pattern2926);fill-opacity:1;fill-rule:nonzero;stroke:#ffffff;stroke-width:3.48229;stroke-miterlimit:4;stroke-dasharray:none;stroke-opacity:0.997691"
         d="m 183.00183,138.33929 c 0,39.69648 -32.18035,78.81501 -71.87683,78.81501 -39.696479,0 -60.791267,-39.11853 -60.791267,-78.81501 0,-39.696482 21.094788,-71.876834 60.791267,-71.876834 10.66427,0 20.7861,2.32247 29.8873,6.4892 24.77691,11.34344 41.98953,36.355434 41.98953,65.387634"
         inkscape:connector-curvature="0"
         sodipodi:nodetypes="cssssc" />
    </g>
    <g
       transform="matrix(0.95556628,0,0,0.95556628,-96.093129,310.36349)"
       id="g3588">
      <g
         id="g3577">
        <path
           id="rect858-2"
           style="fill:url(#linearGradient2915);fill-opacity:1;fill-rule:nonzero;stroke:none;stroke-width:0.633142;stroke-opacity:0.997691"
           d="m 204.24847,-220.14612 23.46047,2.25766 c 39.73177,-0.19529 47.0309,59.54491 3.9708,60.52137 l -27.43127,2.37353 c -22.74895,-45.17241 -20.16385,-23.45495 0,-65.15256 z"
           inkscape:connector-curvature="0"
           sodipodi:nodetypes="ccccc" />
        <g
           inkscape:transform-center-y="-0.78313728"
           inkscape:transform-center-x="-0.78126836"
           style="font-size:88.1234px;line-height:1.25;font-family:'Century Gothic';-inkscape-font-specification:'Century Gothic';stroke-width:2.20309"
           id="text847"
           transform="matrix(1.2387274,0,0,1.2416835,95.349288,-308.01607)"
           aria-label="X D">
          <path
             inkscape:connector-curvature="0"
             id="path2829"
             style="font-style:normal;font-variant:normal;font-weight:normal;font-stretch:normal;font-family:Calibri;-inkscape-font-specification:Calibri;stroke-width:2.20309"
             d="m 91.591769,122.41429 q 0.559377,0.94664 0.645435,1.50602 0.129087,0.55938 -0.258174,0.90361 -0.387261,0.3012 -1.29087,0.38726 -0.86058,0.12909 -2.323566,0.12909 -1.376928,0 -2.15145,-0.0861 -0.774522,-0.043 -1.247841,-0.21515 -0.43029,-0.17211 -0.688464,-0.38726 -0.215145,-0.25817 -0.387261,-0.64543 l -12.392353,-22.15994 -12.52144,22.15994 q -0.215145,0.38726 -0.473319,0.64543 -0.258174,0.25818 -0.731493,0.43029 -0.43029,0.12909 -1.204812,0.17212 -0.774522,0.0861 -2.065392,0.0861 -1.419957,0 -2.237508,-0.12909 -0.817551,-0.0861 -1.161783,-0.38726 -0.301204,-0.34423 -0.215146,-0.90361 0.129088,-0.55938 0.688465,-1.50602 L 66.764035,96.812037 52.263261,72.070361 q -0.516348,-0.946638 -0.688464,-1.506015 -0.129087,-0.602406 0.215145,-0.903609 0.344232,-0.344232 1.204812,-0.43029 0.86058,-0.08606 2.366595,-0.08606 1.29087,0 2.108421,0.08606 0.817551,0.04303 1.29087,0.215145 0.473319,0.129087 0.688464,0.43029 0.215145,0.258174 0.473319,0.602406 L 71.884486,91.304325 83.760491,70.478288 q 0.215145,-0.344232 0.43029,-0.602406 0.215145,-0.301203 0.602406,-0.43029 0.43029,-0.172116 1.161783,-0.215145 0.731493,-0.08606 1.979334,-0.08606 1.333899,0 2.15145,0.129087 0.86058,0.08606 1.204812,0.387261 0.387261,0.301203 0.301203,0.903609 -0.08606,0.559377 -0.602406,1.506015 l -14.457745,24.56956 z" />
        </g>
        <path
           d="m -19.755523,-87.113782 c 0,5.605214 -0.816829,10.509769 -2.450499,14.713667 -1.633649,4.17054 -4.027152,7.640439 -7.180503,10.40968 -3.115353,2.735873 -6.95256,4.787767 -11.511614,6.155711 -4.559054,1.367943 -9.992225,1.991042 -16.298613,2.051907 l -22.750054,0.219546 c -0.873778,0.0081 5.425662,-0.469773 4.627827,-0.970238 -0.759835,-0.533834 -1.139758,-1.451358 -1.139758,-2.752563 v -57.753658 c 0,-1.30121 -3.791492,-2.86069 -3.031657,-3.36115 0.797835,-0.53383 5.695402,-0.34734 6.56912,-0.36165 l 9.670315,-0.15843 c 4.851915,-0.0795 18.914528,1.11199 23.321616,2.58002 4.407088,1.43467 8.092329,3.51994 11.055712,6.25581 3.001373,2.70251 5.261907,5.9889 6.781586,9.85916 1.557682,3.870267 2.336522,8.240995 2.336522,13.112188 z m -5.89788,0.350325 c 0,-3.503256 -0.493901,-6.756277 -1.481693,-9.759067 -0.987801,-3.036154 -2.545483,-5.655256 -4.673032,-7.857306 -2.08957,-2.20204 -4.749022,-3.9203 -7.978338,-5.15478 -3.22934,-1.23448 -11.806459,-1.85172 -16.897402,-1.85172 h -9.972938 v 50.396824 h 10.086904 c 4.711034,0 13.098195,-0.517144 16.327522,-1.551443 3.229329,-1.034298 5.92677,-2.619097 8.092318,-4.754422 2.165562,-2.135312 3.780227,-4.804457 4.844005,-8.00744 1.10177,-3.236335 1.652654,-7.056556 1.652654,-11.460646 z"
           style="font-style:normal;font-variant:normal;font-weight:normal;font-stretch:normal;font-size:88.1234px;line-height:1.25;font-family:Calibri;-inkscape-font-specification:Calibri;stroke-width:2.73431"
           id="path2831"
           inkscape:connector-curvature="0"
           sodipodi:nodetypes="scsssscsscsscccssccssccssscs"
           clip-path="url(#clipPath875-3-5-6-9-0-9-4-7-8)"
           transform="matrix(1.4068838,0,0,1.0675752,294.42392,-95.08529)" />
        <g
           aria-label="$"
           transform="matrix(1.071127,0,0,1.2729394,79.992014,-348.44817)"
           id="text857"
           style="font-style:normal;font-variant:normal;font-weight:normal;font-stretch:normal;font-size:54.6526px;line-height:1.25;font-family:Unispace;-inkscape-font-specification:'Unispace, Normal';font-variant-ligatures:normal;font-variant-caps:normal;font-variant-numeric:normal;font-variant-east-asian:normal;stroke-width:1.36631">
          <path
             d="m 132.16296,110.01054 v -5.41061 h 4.2629 v 5.41061 h 9.30522 c 1.24114,0.18701 1.28107,0.69271 1.46134,1.17878 v 1.24387 c -0.24461,0.94709 -0.60331,1.23305 -1.53344,1.29373 h -9.23312 v 10.93052 h 7.54206 c 0.87444,0 1.65779,0.29148 2.35006,0.87444 0.72871,0.58296 1.3481,1.36631 1.85819,2.35006 0.54653,0.98375 0.94731,2.11323 1.20236,3.38846 0.29148,1.27523 0.43722,2.62332 0.43722,4.04429 0,1.38453 -0.14574,2.67798 -0.43722,3.88034 -0.25505,1.16592 -0.63762,2.1861 -1.14771,3.06054 -0.47365,0.83801 -1.07483,1.51206 -1.80353,2.02215 -0.7287,0.47365 -1.54849,0.71048 -2.45937,0.71048 h -7.54206 v 3.77103 h -4.2629 v -3.77103 h -9.99489 c -1.39042,-0.0704 -1.4833,-0.46215 -1.59146,-1.42933 v -1.11552 c 0.0492,-0.78077 0.18596,-1.11687 1.28553,-1.11687 h 10.30082 v -11.4224 h -6.17574 c -0.98375,0 -1.87641,-0.29148 -2.67798,-0.87444 -0.80157,-0.58296 -1.51206,-1.3481 -2.13145,-2.29541 -0.58296,-0.98375 -1.0384,-2.09501 -1.36632,-3.3338 -0.32791,-1.27523 -0.49187,-2.60511 -0.49187,-3.98964 0,-2.87837 0.6194,-5.15557 1.85819,-6.83158 1.23879,-1.71245 2.98768,-2.56867 5.24665,-2.56867 z m 4.2629,31.31594 h 3.0059 c 1.05661,0 1.8764,-0.56474 2.45936,-1.69423 0.6194,-1.12949 0.9291,-2.45937 0.9291,-3.98964 0,-0.7287 -0.0729,-1.43918 -0.21861,-2.13145 -0.14574,-0.69227 -0.36435,-1.29345 -0.65583,-1.80354 -0.29149,-0.54653 -0.65584,-0.98375 -1.09306,-1.31166 -0.40079,-0.32792 -0.87444,-0.49188 -1.42096,-0.49188 h -3.0059 z m -6.83157,-27.59956 c -0.87444,0 -1.58492,0.51009 -2.13145,1.53027 -0.51009,1.02018 -0.76514,2.35006 -0.76514,3.98964 0,1.53027 0.25505,2.82372 0.76514,3.88033 0.54653,1.02019 1.25701,1.53028 2.13145,1.53028 h 2.56867 v -10.93052 z"
             style="font-style:normal;font-variant:normal;font-weight:normal;font-stretch:normal;font-size:54.6526px;font-family:Unispace;-inkscape-font-specification:'Unispace, Normal';font-variant-ligatures:normal;font-variant-caps:normal;font-variant-numeric:normal;font-variant-east-asian:normal;stroke-width:1.36631"
             id="path3238"
             inkscape:connector-curvature="0"
             sodipodi:nodetypes="ccccccccccscccscccsccccccccccssccscsccscssccsccscscsccs" />
        </g>
        <text
           xml:space="preserve"
           style="font-size:92.0631px;line-height:1.25;font-family:'Century Gothic';-inkscape-font-specification:'Century Gothic';stroke-width:2.30156"
           x="230.40724"
           y="-193.20461"
           id="text861"><tspan
             sodipodi:role="line"
             id="tspan859"
             x="230.40724"
             y="-193.20461"
             style="stroke-width:2.30156">.</tspan></text>
      </g>
    </g>
    <ellipse
       cy="131.22583"
       cx="103.62818"
       id="path6361-5-7"
       style="opacity:0.698381;fill:url(#radialGradient3226);fill-opacity:1;stroke:none;stroke-width:5.79197;stroke-miterlimit:4;stroke-dasharray:none;stroke-opacity:1"
       rx="72.429283"
       ry="70.478668" />
    <ellipse
       style="opacity:0.836032;mix-blend-mode:normal;fill:#295e87;fill-opacity:0;stroke:url(#radialGradient2936);stroke-width:10.0789;stroke-miterlimit:4;stroke-dasharray:none;stroke-opacity:1;filter:url(#filter3065)"
       id="path6361-5"
       ry="66.995064"
       rx="66.727638"
       cy="133.79335"
       cx="105.72855" />
    <g
       transform="translate(-114.60506,-150.76663)"
       id="g4971">
      <g
         style="stroke:url(#linearGradient4949)"
         transform="translate(147.04005,210.57375)"
         id="g3649">
        <circle
           id="path6361"
           style="opacity:1;fill:none;fill-opacity:0;stroke:url(#linearGradient3063);stroke-width:5.84422;stroke-miterlimit:4;stroke-dasharray:none;stroke-opacity:1"
           r="72.091782"
           cy="73.664345"
           cx="71.430191" />
        <ellipse
           cx="-71.744553"
           cy="-73.322693"
           style="opacity:1;fill:none;fill-opacity:0;stroke:url(#linearGradient4953);stroke-width:1.95432;stroke-miterlimit:4;stroke-dasharray:none;stroke-opacity:1"
           id="path6361-7"
           transform="matrix(-0.99998823,-0.00485123,0.00492706,-0.99998786,0,0)"
           rx="69.196648"
           ry="68.662125" />
      </g>
    </g>
  </g>
</svg>
