<svg version="1.0" xmlns="http://www.w3.org/2000/svg"
 width="200.000000pt" height="200.000000pt" viewBox="0 0 200.000000 200.000000"
 preserveAspectRatio="xMidYMid meet">

<g transform="translate(0.000000,200.000000) scale(0.100000,-0.100000)"
fill="#000000" stroke="none">
<path d="M875 1979 c-318 -40 -611 -248 -754 -535 -279 -561 14 -1222 617
-1395 264 -75 571 -27 806 128 91 60 219 188 279 279 251 382 208 885 -106
1220 -153 164 -374 275 -602 303 -101 12 -139 12 -240 0z m215 -419 c58 -28
352 -182 400 -210 33 -19 46 -33 48 -53 4 -30 13 -23 -292 -208 -254 -153
-225 -153 -526 5 -124 65 -233 126 -243 134 -10 9 -17 26 -15 41 2 21 33 43
173 128 303 184 327 196 390 185 17 -3 46 -12 65 -22z m403 -480 c36 -23 47
-36 47 -55 0 -29 -21 -43 -308 -215 -228 -136 -222 -136 -402 -42 -371 191
-370 191 -370 229 0 17 13 31 48 53 26 16 53 30 59 30 7 0 90 -41 185 -92 173
-92 173 -92 248 -92 l75 -1 175 107 c96 59 180 107 185 107 6 0 31 -13 58 -29z
m-25 -274 c58 -29 75 -48 70 -77 -2 -18 -48 -50 -198 -141 -257 -157 -284
-170 -340 -170 -51 0 -54 1 -285 122 -234 122 -250 132 -253 161 -3 28 11 43
78 82 l46 25 64 -34 c283 -153 334 -171 416 -144 22 7 109 55 194 106 85 52
156 94 158 94 1 0 24 -11 50 -24z"/>
</g>
</svg>
