<svg id="svg" version="1.1" xmlns="http://www.w3.org/2000/svg" xmlns:xlink="http://www.w3.org/1999/xlink" width="400" height="400" viewBox="0, 0, 400,400"><g id="svgg"><path id="path0" d="M193.600 94.052 C 188.680 94.618,182.679 95.637,179.400 96.463 C 178.520 96.685,177.170 97.021,176.400 97.212 C 167.642 99.373,157.370 103.588,156.387 105.424 C 154.413 109.113,159.269 114.305,162.220 111.659 C 162.699 111.230,169.418 108.564,172.600 107.540 C 181.954 104.532,194.219 102.400,202.167 102.400 C 206.161 102.400,208.000 100.976,208.000 97.881 C 208.000 93.843,204.203 92.833,193.600 94.052 M139.765 114.476 C 130.689 120.907,124.795 126.793,124.798 129.425 C 124.804 135.101,129.055 135.214,135.133 129.700 C 137.498 127.555,141.186 124.472,143.329 122.850 C 147.668 119.565,148.000 119.138,148.000 116.857 C 148.000 112.744,143.887 111.555,139.765 114.476 M285.745 131.800 C 285.459 132.546,285.835 133.600,286.387 133.600 C 286.614 133.600,286.800 133.060,286.800 132.400 C 286.800 131.144,286.140 130.769,285.745 131.800 M309.520 150.615 C 308.704 152.407,310.139 153.359,311.425 151.878 C 312.762 150.339,312.686 149.600,311.191 149.600 C 310.286 149.600,309.867 149.854,309.520 150.615 M118.800 171.052 C 110.436 172.608,100.634 180.555,88.773 195.400 C 85.609 199.360,82.313 203.370,81.450 204.310 L 79.880 206.020 80.840 207.051 C 83.273 209.662,95.586 219.115,99.000 220.992 C 100.100 221.597,101.450 222.405,102.000 222.787 C 103.386 223.750,114.546 229.200,115.133 229.200 C 115.396 229.200,115.923 229.362,116.305 229.561 C 116.687 229.760,117.810 230.140,118.800 230.407 C 119.790 230.674,121.099 231.075,121.708 231.298 C 122.845 231.714,128.111 231.576,139.400 230.832 C 147.863 230.274,148.650 230.181,156.900 228.773 C 164.152 227.535,172.306 225.344,186.600 220.792 C 188.800 220.092,191.230 219.347,192.000 219.137 C 192.770 218.927,193.940 218.601,194.600 218.412 C 203.622 215.835,213.981 213.956,223.200 213.223 C 231.228 212.586,232.800 212.359,232.800 211.841 C 232.800 211.270,217.133 195.711,213.800 192.972 C 212.480 191.888,211.310 190.892,211.200 190.760 C 210.100 189.440,201.005 184.183,197.400 182.783 C 192.328 180.814,185.903 180.262,180.800 181.358 C 176.849 182.207,177.005 182.144,168.200 186.424 C 159.822 190.497,160.456 190.236,156.600 191.193 C 150.147 192.795,145.503 191.998,140.913 188.501 C 138.253 186.474,137.207 185.248,131.789 177.800 C 127.923 172.487,123.485 170.181,118.800 171.052 M279.100 179.245 C 278.238 179.731,278.192 180.929,279.010 181.608 C 279.837 182.295,280.077 181.944,279.927 180.265 C 279.818 179.048,279.702 178.905,279.100 179.245 M309.959 206.591 C 291.175 225.407,290.391 226.090,288.980 224.872 C 288.771 224.691,286.440 223.869,283.800 223.045 C 281.160 222.221,276.840 220.858,274.200 220.016 C 271.560 219.175,268.519 218.362,267.441 218.210 C 266.364 218.058,265.194 217.786,264.841 217.606 C 264.489 217.425,263.390 217.066,262.400 216.807 C 261.410 216.549,259.430 215.994,258.000 215.575 C 253.588 214.283,252.262 214.005,250.500 214.002 C 249.565 214.001,248.800 213.820,248.800 213.600 C 248.800 213.380,248.530 213.200,248.200 213.200 C 247.870 213.200,247.600 213.380,247.600 213.600 C 247.600 213.820,247.780 214.000,248.000 214.000 C 248.220 214.000,248.400 214.393,248.400 214.874 C 248.400 215.355,248.736 216.120,249.148 216.574 C 251.406 219.070,250.767 219.938,241.080 227.531 C 239.866 228.483,238.307 229.883,237.616 230.643 L 236.359 232.024 237.980 233.580 C 238.888 234.453,239.600 235.515,239.600 235.997 C 239.600 238.483,240.468 238.259,246.695 234.165 C 253.373 229.775,255.712 228.400,256.499 228.400 C 257.193 228.400,259.600 230.865,259.600 231.576 C 259.600 231.871,260.140 232.629,260.800 233.260 C 261.505 233.934,262.000 234.818,262.000 235.403 C 262.000 235.952,262.180 236.400,262.400 236.400 C 262.620 236.400,262.800 236.940,262.800 237.600 C 262.800 238.533,262.978 238.800,263.600 238.800 C 264.097 238.800,264.400 239.067,264.400 239.504 C 264.400 239.891,264.760 240.432,265.200 240.707 C 265.640 240.982,266.000 241.499,266.000 241.856 C 266.000 242.214,266.394 242.848,266.876 243.266 C 268.248 244.456,265.558 250.254,259.734 258.657 C 258.340 260.669,257.200 262.538,257.200 262.810 C 257.200 263.083,256.819 263.636,256.354 264.040 L 255.508 264.774 257.154 266.356 C 258.817 267.953,259.216 268.985,258.300 269.312 C 255.507 270.309,272.223 270.552,284.000 269.685 C 287.850 269.401,294.960 268.901,299.800 268.574 C 304.640 268.246,309.815 267.872,311.300 267.742 C 314.531 267.460,314.531 267.462,312.514 271.342 C 307.483 281.019,295.828 294.061,284.400 302.802 C 283.410 303.560,282.510 304.294,282.400 304.434 C 280.481 306.881,259.514 318.905,251.700 322.039 C 251.205 322.238,250.395 322.562,249.900 322.759 C 249.405 322.957,248.370 323.387,247.600 323.715 C 235.713 328.783,220.670 331.664,203.207 332.216 L 197.015 332.412 195.149 334.250 C 194.105 335.278,193.340 336.376,193.411 336.744 C 193.481 337.105,193.553 337.546,193.569 337.724 C 193.586 337.902,193.778 337.937,193.995 337.803 C 194.222 337.663,194.289 337.823,194.153 338.179 C 193.998 338.582,194.141 338.800,194.557 338.800 C 194.911 338.800,195.200 338.598,195.200 338.351 C 195.200 338.058,195.436 338.093,195.877 338.451 C 196.461 338.925,196.505 338.918,196.200 338.400 C 195.909 337.906,195.953 337.886,196.447 338.286 C 197.195 338.891,215.600 338.984,215.600 338.383 C 215.600 338.165,217.312 338.000,219.576 338.000 C 221.796 338.000,223.662 337.823,223.800 337.600 C 223.936 337.380,224.926 337.200,226.000 337.200 C 227.074 337.200,228.064 337.020,228.200 336.800 C 228.336 336.580,229.416 336.400,230.600 336.400 C 231.784 336.400,232.864 336.220,233.000 336.000 C 233.136 335.780,234.036 335.600,235.000 335.600 C 235.964 335.600,236.864 335.420,237.000 335.200 C 237.136 334.980,237.777 334.800,238.424 334.800 C 239.071 334.800,239.600 334.620,239.600 334.400 C 239.600 334.180,240.320 334.000,241.200 334.000 C 242.080 334.000,242.800 333.820,242.800 333.600 C 242.800 333.380,243.162 333.200,243.605 333.200 C 244.048 333.200,244.723 333.042,245.105 332.849 C 246.167 332.313,248.576 331.600,249.328 331.600 C 249.698 331.600,250.000 331.420,250.000 331.200 C 250.000 330.980,250.439 330.800,250.976 330.800 C 251.513 330.800,252.064 330.620,252.200 330.400 C 252.336 330.180,252.876 330.000,253.400 330.000 C 253.924 330.000,254.464 329.820,254.600 329.600 C 254.736 329.380,255.197 329.200,255.624 329.200 C 256.051 329.200,256.400 329.020,256.400 328.800 C 256.400 328.580,256.665 328.400,256.988 328.400 C 257.311 328.400,258.217 328.040,259.000 327.600 C 259.783 327.160,260.779 326.800,261.212 326.800 C 261.645 326.800,262.001 326.665,262.003 326.500 C 262.007 326.149,263.937 325.200,264.646 325.200 C 264.914 325.200,265.193 325.064,265.267 324.898 C 265.340 324.732,266.615 323.985,268.100 323.238 C 269.585 322.491,270.800 321.727,270.800 321.540 C 270.800 321.353,271.160 321.200,271.600 321.200 C 272.040 321.200,272.400 321.020,272.400 320.800 C 272.400 320.580,272.636 320.400,272.925 320.400 C 273.213 320.400,273.836 320.040,274.308 319.600 C 274.780 319.160,275.444 318.800,275.783 318.800 C 276.122 318.800,276.400 318.650,276.400 318.468 C 276.400 318.285,276.895 317.881,277.500 317.570 C 278.105 317.260,278.870 316.733,279.200 316.400 C 279.530 316.067,280.295 315.540,280.900 315.230 C 281.505 314.919,282.000 314.515,282.000 314.332 C 282.000 314.150,282.320 314.000,282.712 314.000 C 283.103 314.000,283.683 313.640,284.000 313.200 C 284.317 312.760,284.780 312.400,285.029 312.400 C 285.278 312.400,286.046 311.860,286.737 311.200 C 287.428 310.540,288.129 309.997,288.296 309.992 C 288.463 309.988,289.935 308.728,291.566 307.192 C 293.197 305.657,294.658 304.400,294.811 304.400 C 295.269 304.400,304.400 295.074,304.400 294.606 C 304.400 294.472,305.300 293.462,306.400 292.362 C 307.500 291.262,308.400 290.212,308.400 290.029 C 308.400 289.846,309.120 288.955,310.000 288.048 C 310.880 287.141,311.600 286.264,311.601 286.100 C 311.601 285.935,312.141 285.170,312.800 284.400 C 313.459 283.630,313.999 282.815,313.999 282.588 C 314.000 282.362,314.360 281.917,314.800 281.600 C 315.240 281.283,315.600 280.743,315.600 280.400 C 315.600 280.057,315.960 279.517,316.400 279.200 C 316.840 278.883,317.200 278.386,317.200 278.095 C 317.200 277.804,317.560 277.180,318.000 276.708 C 318.440 276.236,318.800 275.613,318.800 275.325 C 318.800 275.036,318.980 274.800,319.200 274.800 C 319.420 274.800,319.600 274.440,319.600 274.000 C 319.600 273.560,319.780 273.200,320.000 273.200 C 320.220 273.200,320.400 272.964,320.400 272.675 C 320.400 272.387,320.760 271.764,321.200 271.292 C 321.640 270.820,322.000 270.156,322.000 269.817 C 322.000 269.478,322.180 269.200,322.400 269.200 C 322.620 269.200,322.800 268.840,322.800 268.400 C 322.800 267.960,322.980 267.600,323.200 267.600 C 323.420 267.600,323.600 267.240,323.600 266.800 C 323.600 266.360,323.780 266.000,324.000 266.000 C 324.220 266.000,324.400 265.640,324.400 265.200 C 324.400 264.760,324.580 264.400,324.800 264.400 C 325.020 264.400,325.200 264.040,325.200 263.600 C 325.200 263.160,325.380 262.800,325.600 262.800 C 325.820 262.800,326.000 262.440,326.000 262.000 C 326.000 261.560,326.180 261.200,326.400 261.200 C 326.620 261.200,326.800 260.840,326.800 260.400 C 326.800 259.960,326.980 259.600,327.200 259.600 C 327.420 259.600,327.600 259.251,327.600 258.824 C 327.600 258.397,327.780 257.936,328.000 257.800 C 328.220 257.664,328.400 257.113,328.400 256.576 C 328.400 256.039,328.580 255.600,328.800 255.600 C 329.020 255.600,329.200 255.161,329.200 254.624 C 329.200 254.087,329.380 253.536,329.600 253.400 C 329.820 253.264,330.000 252.803,330.000 252.376 C 330.000 251.949,330.180 251.600,330.400 251.600 C 330.620 251.600,330.800 251.060,330.800 250.400 C 330.800 249.740,330.980 249.200,331.200 249.200 C 331.420 249.200,331.600 248.660,331.600 248.000 C 331.600 247.340,331.780 246.800,332.000 246.800 C 332.220 246.800,332.400 246.271,332.400 245.624 C 332.400 244.977,332.580 244.336,332.800 244.200 C 333.020 244.064,333.200 243.333,333.200 242.576 C 333.200 241.819,333.380 241.200,333.600 241.200 C 333.820 241.200,334.000 240.696,334.000 240.080 C 334.000 239.464,334.162 238.789,334.359 238.580 C 334.556 238.371,334.826 237.435,334.959 236.500 C 335.554 232.301,335.706 231.582,336.042 231.374 C 336.239 231.252,336.400 230.094,336.400 228.800 C 336.400 227.506,336.580 226.336,336.800 226.200 C 337.020 226.064,337.200 224.894,337.200 223.600 C 337.200 222.306,337.380 221.136,337.600 221.000 C 337.842 220.850,338.000 217.996,338.000 213.776 C 338.000 209.392,338.149 206.800,338.400 206.800 C 338.963 206.800,338.900 204.660,338.320 204.080 C 337.947 203.707,337.958 203.600,338.369 203.600 C 338.758 203.600,338.783 203.462,338.466 203.080 C 338.229 202.794,338.004 200.949,337.965 198.980 C 337.892 195.204,337.726 194.275,337.186 194.609 C 337.004 194.721,336.725 194.602,336.566 194.345 C 336.385 194.052,336.450 193.984,336.738 194.162 C 336.992 194.319,337.200 194.276,337.200 194.066 C 337.200 192.935,335.886 193.490,333.967 195.433 C 330.962 198.477,330.849 198.328,329.331 189.300 C 329.012 187.400,329.982 186.533,309.959 206.591 M335.600 195.018 C 335.600 195.430,333.552 197.285,333.336 197.069 C 333.217 196.950,333.543 196.402,334.060 195.851 C 334.956 194.895,335.600 194.547,335.600 195.018 M232.219 201.300 C 232.052 201.685,232.052 202.315,232.219 202.700 C 232.603 203.581,232.974 202.481,232.691 201.300 C 232.532 200.633,232.509 200.633,232.219 201.300 M129.400 242.060 C 117.616 243.063,103.772 245.091,94.600 247.159 C 93.720 247.357,92.016 247.720,90.814 247.966 C 87.821 248.577,87.708 248.782,88.943 251.388 C 89.524 252.617,90.001 253.752,90.002 253.911 C 90.003 254.070,90.408 254.678,90.902 255.263 L 91.800 256.326 116.600 256.771 C 150.072 257.371,177.804 257.982,186.962 258.320 L 194.523 258.600 193.008 260.113 C 191.042 262.078,190.825 261.995,198.650 262.270 L 205.400 262.508 207.970 261.144 C 211.358 259.346,211.345 259.179,207.708 257.618 C 205.999 256.885,203.430 255.711,202.000 255.011 C 199.576 253.823,193.221 251.260,188.600 249.606 C 170.947 243.287,148.542 240.431,129.400 242.060 M197.200 333.429 C 197.200 333.554,196.921 333.936,196.581 334.276 C 195.800 335.057,195.331 334.666,196.060 333.842 C 196.606 333.224,197.200 333.009,197.200 333.429 " stroke="none" fill="#d9d5ee" fill-rule="evenodd"></path><path id="path1" d="M348.400 59.200 C 348.400 59.420,348.771 59.600,349.224 59.600 C 349.677 59.600,349.936 59.420,349.800 59.200 C 349.664 58.980,349.293 58.800,348.976 58.800 C 348.659 58.800,348.400 58.980,348.400 59.200 M345.200 60.000 C 345.200 60.220,345.470 60.400,345.800 60.400 C 346.130 60.400,346.400 60.220,346.400 60.000 C 346.400 59.780,346.130 59.600,345.800 59.600 C 345.470 59.600,345.200 59.780,345.200 60.000 M342.800 60.800 C 342.800 61.020,343.160 61.200,343.600 61.200 C 344.040 61.200,344.400 61.020,344.400 60.800 C 344.400 60.580,344.040 60.400,343.600 60.400 C 343.160 60.400,342.800 60.580,342.800 60.800 M340.400 61.600 C 340.400 61.820,339.860 62.000,339.200 62.000 C 338.540 62.000,338.000 62.180,338.000 62.400 C 338.000 62.620,337.460 62.800,336.800 62.800 C 336.140 62.800,335.600 62.980,335.600 63.200 C 335.600 63.420,335.060 63.600,334.400 63.600 C 333.740 63.600,333.200 63.780,333.200 64.000 C 333.200 64.220,332.660 64.400,332.000 64.400 C 331.340 64.400,330.800 64.580,330.800 64.800 C 330.800 65.020,330.260 65.200,329.600 65.200 C 328.940 65.200,328.400 65.380,328.400 65.600 C 328.400 65.820,328.040 66.000,327.600 66.000 C 327.160 66.000,326.800 66.180,326.800 66.400 C 326.800 66.620,326.260 66.800,325.600 66.800 C 324.940 66.800,324.400 66.980,324.400 67.200 C 324.400 67.420,323.860 67.600,323.200 67.600 C 322.540 67.600,322.000 67.780,322.000 68.000 C 322.000 68.220,321.651 68.400,321.224 68.400 C 320.797 68.400,320.336 68.580,320.200 68.800 C 320.064 69.020,319.513 69.200,318.976 69.200 C 318.439 69.200,317.999 69.335,317.997 69.500 C 317.992 69.947,315.974 70.800,314.920 70.800 C 314.414 70.800,314.000 70.980,314.000 71.200 C 314.000 71.420,313.655 71.600,313.233 71.600 C 312.812 71.600,312.407 71.778,312.333 71.997 C 312.260 72.215,311.718 72.433,311.129 72.481 C 310.540 72.530,310.145 72.712,310.252 72.885 C 310.360 73.058,309.987 73.200,309.424 73.200 C 308.861 73.200,308.400 73.380,308.400 73.600 C 308.400 73.820,308.052 74.000,307.627 74.000 C 307.202 74.000,306.740 74.360,306.600 74.800 C 306.460 75.240,306.102 75.600,305.804 75.600 C 305.506 75.600,304.735 76.095,304.091 76.700 C 302.640 78.065,288.999 89.009,280.929 95.284 C 279.951 96.044,273.200 92.247,273.200 90.936 C 273.200 90.267,272.972 90.000,272.400 90.000 C 271.960 90.000,271.600 89.820,271.600 89.600 C 271.600 89.380,271.240 89.200,270.800 89.200 C 270.360 89.200,270.000 89.020,270.000 88.800 C 270.000 88.580,269.722 88.400,269.383 88.400 C 269.044 88.400,268.380 88.040,267.908 87.600 C 267.436 87.160,266.813 86.800,266.525 86.800 C 266.236 86.800,266.000 86.620,266.000 86.400 C 266.000 86.180,265.640 86.000,265.200 86.000 C 264.760 86.000,264.400 85.820,264.400 85.600 C 264.400 85.380,263.942 85.200,263.383 85.200 C 262.824 85.200,261.980 84.840,261.508 84.400 C 261.036 83.960,260.233 83.600,259.725 83.600 C 259.216 83.600,258.800 83.420,258.800 83.200 C 258.800 82.980,258.440 82.800,258.000 82.800 C 257.560 82.800,257.200 82.620,257.200 82.400 C 257.200 82.180,256.559 82.000,255.776 82.000 C 254.929 82.000,254.453 81.838,254.600 81.600 C 254.736 81.380,254.487 81.200,254.047 81.200 C 253.607 81.200,253.136 81.020,253.000 80.800 C 252.864 80.580,252.313 80.400,251.776 80.400 C 251.239 80.400,250.800 80.220,250.800 80.000 C 250.800 79.780,250.451 79.600,250.024 79.600 C 249.597 79.600,249.136 79.420,249.000 79.200 C 248.864 78.980,248.324 78.800,247.800 78.800 C 247.276 78.800,246.736 78.620,246.600 78.400 C 246.464 78.180,245.733 78.000,244.976 78.000 C 244.219 78.000,243.600 77.820,243.600 77.600 C 243.600 77.380,243.071 77.200,242.424 77.200 C 241.777 77.200,241.136 77.020,241.000 76.800 C 240.864 76.580,240.133 76.400,239.376 76.400 C 238.619 76.400,238.000 76.220,238.000 76.000 C 238.000 75.780,237.291 75.600,236.424 75.600 C 235.557 75.600,234.736 75.420,234.600 75.200 C 234.464 74.980,233.564 74.800,232.600 74.800 C 231.636 74.800,230.736 74.620,230.600 74.400 C 230.464 74.180,229.373 74.000,228.176 74.000 C 226.979 74.000,226.000 73.835,226.000 73.633 C 226.000 73.175,222.026 72.819,214.016 72.560 C 210.615 72.449,207.615 72.179,207.350 71.958 C 206.784 71.489,202.800 71.588,202.800 72.071 C 202.800 72.252,199.841 72.400,196.224 72.400 C 192.271 72.400,189.549 72.560,189.400 72.800 C 189.264 73.020,188.004 73.200,186.600 73.200 C 185.196 73.200,183.936 73.380,183.800 73.600 C 183.664 73.820,182.584 74.000,181.400 74.000 C 180.216 74.000,179.136 74.180,179.000 74.400 C 178.864 74.620,178.043 74.800,177.176 74.800 C 176.309 74.800,175.600 74.980,175.600 75.200 C 175.600 75.420,174.801 75.600,173.824 75.600 C 172.847 75.600,171.936 75.780,171.800 76.000 C 171.664 76.220,171.023 76.400,170.376 76.400 C 169.729 76.400,169.200 76.580,169.200 76.800 C 169.200 77.020,168.581 77.200,167.824 77.200 C 167.067 77.200,166.336 77.380,166.200 77.600 C 166.064 77.820,165.423 78.000,164.776 78.000 C 164.129 78.000,163.600 78.180,163.600 78.400 C 163.600 78.620,163.060 78.800,162.400 78.800 C 161.740 78.800,161.200 78.980,161.200 79.200 C 161.200 79.420,160.660 79.600,160.000 79.600 C 159.340 79.600,158.800 79.780,158.800 80.000 C 158.800 80.220,158.440 80.400,158.000 80.400 C 157.560 80.400,157.200 80.580,157.200 80.800 C 157.200 81.020,156.660 81.200,156.000 81.200 C 155.340 81.200,154.800 81.380,154.800 81.600 C 154.800 81.820,154.440 82.000,154.000 82.000 C 153.560 82.000,153.200 82.180,153.200 82.400 C 153.200 82.620,152.660 82.800,152.000 82.800 C 151.340 82.800,150.800 82.980,150.800 83.200 C 150.800 83.420,150.440 83.600,150.000 83.600 C 149.560 83.600,149.200 83.780,149.200 84.000 C 149.200 84.220,148.840 84.400,148.400 84.400 C 147.960 84.400,147.600 84.580,147.600 84.800 C 147.600 85.020,147.240 85.200,146.800 85.200 C 146.360 85.200,146.000 85.380,146.000 85.600 C 146.000 85.820,145.640 86.000,145.200 86.000 C 144.760 86.000,144.400 86.180,144.400 86.400 C 144.400 86.620,144.040 86.800,143.600 86.800 C 143.160 86.800,142.800 86.980,142.800 87.200 C 142.800 87.420,142.440 87.600,142.000 87.600 C 141.560 87.600,141.200 87.780,141.200 88.000 C 141.200 88.220,140.840 88.400,140.400 88.400 C 139.960 88.400,139.600 88.580,139.600 88.800 C 139.600 89.020,139.364 89.200,139.075 89.200 C 138.787 89.200,138.164 89.560,137.692 90.000 C 137.220 90.440,136.556 90.800,136.217 90.800 C 135.878 90.800,135.600 90.980,135.600 91.200 C 135.600 91.420,135.364 91.600,135.075 91.600 C 134.787 91.600,134.202 91.915,133.775 92.300 C 133.349 92.685,132.505 93.255,131.900 93.568 C 131.295 93.880,130.800 94.285,130.800 94.468 C 130.800 94.650,130.564 94.800,130.275 94.800 C 129.987 94.800,129.364 95.160,128.892 95.600 C 128.420 96.040,127.828 96.400,127.577 96.400 C 127.326 96.400,126.617 96.940,126.000 97.600 C 125.383 98.260,124.703 98.800,124.488 98.800 C 124.273 98.800,123.355 99.520,122.448 100.400 C 121.541 101.280,120.608 102.000,120.374 102.000 C 120.140 102.000,119.105 102.860,118.074 103.911 C 117.043 104.962,115.570 106.262,114.800 106.799 C 113.289 107.852,106.022 115.208,106.008 115.697 C 106.004 115.861,104.920 117.092,103.600 118.432 C 102.280 119.773,101.200 121.034,101.200 121.234 C 101.200 121.435,100.480 122.341,99.600 123.248 C 98.720 124.155,98.000 125.105,98.000 125.360 C 98.000 125.615,97.640 126.083,97.200 126.400 C 96.760 126.717,96.400 127.209,96.400 127.492 C 96.400 127.775,95.860 128.572,95.200 129.263 C 94.540 129.954,94.000 130.679,94.000 130.876 C 94.000 131.073,93.640 131.620,93.200 132.092 C 92.760 132.564,92.400 133.187,92.400 133.475 C 92.400 133.764,92.220 134.000,92.000 134.000 C 91.780 134.000,91.600 134.278,91.600 134.617 C 91.600 134.956,91.240 135.620,90.800 136.092 C 90.360 136.564,90.000 137.187,90.000 137.475 C 90.000 137.764,89.820 138.000,89.600 138.000 C 89.380 138.000,89.200 138.360,89.200 138.800 C 89.200 139.240,89.048 139.600,88.863 139.600 C 88.677 139.600,88.092 140.455,87.563 141.500 C 87.033 142.545,86.465 143.460,86.300 143.533 C 86.135 143.607,86.000 143.897,86.000 144.178 C 86.000 144.459,85.280 146.089,84.400 147.800 C 83.520 149.511,82.800 151.246,82.800 151.655 C 82.800 152.065,82.620 152.400,82.400 152.400 C 82.180 152.400,82.000 152.760,82.000 153.200 C 82.000 153.640,81.820 154.000,81.600 154.000 C 81.380 154.000,81.200 154.349,81.200 154.776 C 81.200 155.203,81.020 155.664,80.800 155.800 C 80.580 155.936,80.400 156.476,80.400 157.000 C 80.400 157.524,80.220 158.064,80.000 158.200 C 79.780 158.336,79.600 158.887,79.600 159.424 C 79.600 159.961,79.420 160.400,79.200 160.400 C 78.980 160.400,78.800 160.940,78.800 161.600 C 78.800 162.260,78.620 162.800,78.400 162.800 C 78.180 162.800,78.000 163.340,78.000 164.000 C 78.000 164.660,77.820 165.200,77.600 165.200 C 77.380 165.200,77.200 165.819,77.200 166.576 C 77.200 167.333,77.020 168.064,76.800 168.200 C 76.580 168.336,76.400 168.977,76.400 169.624 C 76.400 170.271,76.220 170.800,76.000 170.800 C 75.780 170.800,75.600 171.520,75.600 172.400 C 75.600 173.280,75.420 174.000,75.200 174.000 C 74.980 174.000,74.800 174.709,74.800 175.576 C 74.800 176.443,74.620 177.264,74.400 177.400 C 74.180 177.536,74.000 178.627,74.000 179.824 C 74.000 181.021,73.820 182.000,73.600 182.000 C 73.378 182.000,73.200 183.067,73.200 184.400 C 73.200 185.733,73.022 186.800,72.800 186.800 C 72.562 186.800,72.400 188.325,72.400 190.576 C 72.400 192.663,72.221 194.463,72.000 194.600 C 71.456 194.936,71.456 215.464,72.000 215.800 C 72.223 215.938,72.400 217.796,72.400 220.000 C 72.400 222.204,72.577 224.062,72.800 224.200 C 73.020 224.336,73.200 225.326,73.200 226.401 C 73.200 227.660,73.495 228.855,74.031 229.762 C 75.125 231.616,76.575 238.054,76.491 240.684 C 76.454 241.830,76.599 242.876,76.812 243.008 C 77.025 243.139,77.200 243.676,77.200 244.200 C 77.200 244.724,77.380 245.264,77.600 245.400 C 77.820 245.536,78.000 246.076,78.000 246.600 C 78.000 247.124,78.180 247.664,78.400 247.800 C 78.620 247.936,78.800 248.487,78.800 249.024 C 78.800 249.561,78.980 250.000,79.200 250.000 C 79.420 250.000,79.600 250.540,79.600 251.200 C 79.600 251.860,79.780 252.400,80.000 252.400 C 80.220 252.400,80.400 252.940,80.400 253.600 C 80.400 254.260,80.580 254.800,80.800 254.800 C 81.020 254.800,81.200 255.149,81.200 255.576 C 81.200 256.003,81.380 256.464,81.600 256.600 C 81.820 256.736,82.000 257.287,82.000 257.824 C 82.000 258.361,82.180 258.800,82.400 258.800 C 82.620 258.800,82.800 259.160,82.800 259.600 C 82.800 260.040,82.980 260.400,83.200 260.400 C 83.420 260.400,83.600 260.760,83.600 261.200 C 83.600 261.640,83.780 262.000,84.000 262.000 C 84.220 262.000,84.400 262.360,84.400 262.800 C 84.400 263.240,84.580 263.600,84.800 263.600 C 85.020 263.600,85.200 263.960,85.200 264.400 C 85.200 264.840,85.380 265.200,85.600 265.200 C 85.820 265.200,86.000 265.434,86.000 265.720 C 86.000 266.456,86.941 268.393,87.300 268.397 C 87.465 268.399,87.600 268.760,87.600 269.200 C 87.600 269.640,87.780 270.000,88.000 270.000 C 88.220 270.000,88.400 270.360,88.400 270.800 C 88.400 271.240,88.580 271.600,88.800 271.600 C 89.020 271.600,89.200 271.836,89.200 272.125 C 89.200 272.413,89.560 273.036,90.000 273.508 C 90.440 273.980,90.800 274.604,90.800 274.895 C 90.800 275.186,91.160 275.683,91.600 276.000 C 92.040 276.317,92.400 276.769,92.400 277.003 C 92.400 277.238,92.933 278.053,93.584 278.815 C 94.235 279.577,94.775 280.509,94.784 280.886 C 94.793 281.263,95.160 281.765,95.600 282.000 C 96.040 282.235,96.400 282.600,96.400 282.811 C 96.400 283.616,98.110 285.133,98.855 284.989 C 99.277 284.908,99.514 285.015,99.383 285.227 C 99.252 285.440,98.990 285.517,98.800 285.400 C 98.610 285.283,98.339 285.374,98.198 285.603 C 98.056 285.832,98.089 285.994,98.270 285.963 C 99.173 285.806,99.600 286.075,99.600 286.800 C 99.600 287.240,99.780 287.600,100.000 287.600 C 100.220 287.600,100.400 287.979,100.400 288.443 C 100.400 289.040,100.581 289.216,101.021 289.047 C 101.362 288.916,101.558 288.944,101.456 289.109 C 101.175 289.564,102.347 290.989,102.696 290.616 C 102.863 290.437,102.775 290.210,102.500 290.112 C 102.225 290.014,102.000 289.718,102.000 289.456 C 102.000 289.193,101.653 288.681,101.230 288.318 C 99.511 286.846,103.638 281.815,105.473 283.146 C 105.969 283.506,106.381 283.947,106.387 284.126 C 106.402 284.496,110.800 288.977,110.800 288.622 C 110.800 288.495,109.323 286.593,107.517 284.395 C 98.727 273.696,89.151 256.864,87.408 249.048 C 87.304 248.582,86.685 246.694,86.033 244.854 C 82.728 235.521,80.389 223.544,79.813 213.000 C 79.680 210.580,79.483 207.970,79.374 207.200 C 79.190 205.905,79.440 205.495,82.688 201.746 C 84.619 199.516,87.190 196.465,88.400 194.965 C 98.386 182.585,103.742 177.682,111.834 173.511 C 122.064 168.239,126.231 169.466,133.781 179.971 C 143.889 194.038,151.655 195.031,170.800 184.703 C 187.942 175.456,202.881 180.467,225.158 202.936 C 229.486 207.301,229.866 207.483,231.303 205.864 C 232.384 204.645,231.786 204.577,230.582 205.782 C 229.995 206.368,229.420 206.753,229.303 206.636 C 229.186 206.519,229.700 205.850,230.445 205.150 C 231.295 204.350,231.614 203.812,231.300 203.705 C 230.663 203.486,230.672 201.199,231.313 200.370 C 232.116 199.332,234.122 198.807,234.956 199.418 C 235.598 199.887,237.958 197.651,258.435 177.169 C 278.864 156.735,282.164 153.200,280.813 153.200 C 280.599 153.200,280.514 152.967,280.624 152.682 C 280.733 152.398,280.537 150.913,280.188 149.382 C 279.839 147.852,279.460 146.150,279.346 145.600 C 279.233 145.050,278.997 144.240,278.822 143.800 C 278.648 143.360,277.649 140.390,276.603 137.200 C 275.557 134.010,274.367 130.680,273.959 129.800 C 273.551 128.920,273.168 127.750,273.108 127.200 C 273.049 126.650,272.841 126.085,272.648 125.944 C 272.454 125.803,275.559 122.432,279.548 118.452 C 287.162 110.854,287.276 110.704,286.000 109.907 C 285.560 109.632,285.200 109.243,285.200 109.042 C 285.200 108.841,284.491 108.070,283.625 107.328 C 281.685 105.668,281.757 104.941,284.079 102.758 C 285.026 101.868,285.608 101.060,285.374 100.961 C 285.139 100.863,284.996 100.156,285.057 99.391 C 285.117 98.626,285.000 98.000,284.797 98.000 C 284.594 98.000,284.224 97.618,283.974 97.152 C 283.705 96.649,283.686 96.406,283.928 96.555 C 284.152 96.694,284.607 96.536,284.939 96.204 C 285.271 95.872,285.871 95.596,286.271 95.591 C 286.672 95.586,287.450 95.230,288.000 94.800 C 288.550 94.370,289.225 94.014,289.500 94.009 C 289.775 94.004,290.000 93.820,290.000 93.600 C 290.000 93.380,290.416 93.200,290.925 93.200 C 291.433 93.200,292.236 92.840,292.708 92.400 C 293.180 91.960,293.900 91.600,294.308 91.600 C 294.716 91.600,295.436 91.240,295.908 90.800 C 296.380 90.360,297.123 90.000,297.560 90.000 C 297.996 90.000,298.464 89.820,298.600 89.600 C 298.736 89.380,299.197 89.200,299.624 89.200 C 300.051 89.200,300.400 89.020,300.400 88.800 C 300.400 88.580,300.760 88.400,301.200 88.400 C 301.640 88.400,302.000 88.220,302.000 88.000 C 302.000 87.780,302.360 87.600,302.800 87.600 C 303.240 87.600,303.600 87.420,303.600 87.200 C 303.600 86.980,303.960 86.800,304.400 86.800 C 304.840 86.800,305.200 86.620,305.200 86.400 C 305.200 86.180,305.434 86.000,305.720 86.000 C 306.456 86.000,308.393 85.059,308.397 84.700 C 308.399 84.535,308.940 84.400,309.600 84.400 C 310.260 84.400,310.800 84.220,310.800 84.000 C 310.800 83.780,311.034 83.600,311.320 83.600 C 312.056 83.600,313.993 82.659,313.997 82.300 C 313.999 82.135,314.540 82.000,315.200 82.000 C 315.860 82.000,316.400 81.820,316.400 81.600 C 316.400 81.380,316.760 81.200,317.200 81.200 C 317.640 81.200,318.000 81.020,318.000 80.800 C 318.000 80.580,318.439 80.400,318.976 80.400 C 319.513 80.400,320.064 80.220,320.200 80.000 C 320.336 79.780,320.797 79.600,321.224 79.600 C 321.651 79.600,322.000 79.420,322.000 79.200 C 322.000 78.980,322.349 78.800,322.776 78.800 C 323.203 78.800,323.664 78.620,323.800 78.400 C 323.936 78.180,324.487 78.000,325.024 78.000 C 325.878 78.000,326.489 77.250,325.700 77.169 C 323.345 76.929,323.317 76.705,325.425 74.949 C 338.200 64.308,341.615 61.710,342.530 61.938 C 342.711 61.983,342.745 61.835,342.606 61.610 C 342.280 61.082,340.400 61.074,340.400 61.600 M200.720 84.766 C 200.623 85.931,200.421 86.225,199.645 86.335 C 197.919 86.579,197.340 84.108,198.873 83.034 C 200.096 82.177,200.876 82.908,200.720 84.766 M235.422 88.035 C 235.834 88.702,234.907 89.467,234.355 88.915 C 233.893 88.453,234.182 87.600,234.800 87.600 C 234.994 87.600,235.274 87.796,235.422 88.035 M207.036 94.453 C 209.235 96.654,208.572 101.070,205.873 102.193 C 205.173 102.484,202.350 102.842,199.600 102.989 C 187.672 103.626,178.064 105.740,166.698 110.228 C 159.326 113.139,157.147 112.935,155.595 109.187 C 154.052 105.462,157.545 102.806,169.000 98.992 C 183.809 94.062,204.212 91.627,207.036 94.453 M288.447 101.562 C 288.013 101.837,288.124 102.063,288.960 102.610 C 289.546 102.994,290.123 103.210,290.243 103.091 C 290.362 102.971,290.074 102.750,289.601 102.600 C 289.079 102.435,288.827 102.106,288.959 101.764 C 289.210 101.108,289.183 101.097,288.447 101.562 M253.920 105.250 C 254.046 107.192,253.498 107.843,252.169 107.333 C 250.309 106.619,250.983 102.999,252.925 103.275 C 253.660 103.380,253.819 103.697,253.920 105.250 M229.525 109.495 C 229.324 110.538,228.000 110.654,228.000 109.629 C 228.000 109.057,228.257 108.800,228.829 108.800 C 229.402 108.800,229.617 109.015,229.525 109.495 M193.922 112.104 C 194.029 113.769,193.947 114.000,193.250 114.000 C 191.472 114.000,190.659 112.060,191.875 110.717 C 193.016 109.457,193.785 109.978,193.922 112.104 M147.077 113.695 C 149.844 116.462,148.676 119.471,143.308 123.400 C 141.204 124.940,137.789 127.788,135.720 129.729 C 130.264 134.847,128.003 135.420,125.413 132.342 C 122.758 129.188,124.033 126.924,132.600 119.583 C 140.931 112.444,144.410 111.029,147.077 113.695 M155.600 127.376 C 155.600 129.239,155.263 129.752,154.287 129.378 C 152.569 128.719,152.880 125.600,154.664 125.600 C 155.505 125.600,155.600 125.781,155.600 127.376 M188.167 132.643 C 189.049 132.981,189.052 136.218,188.171 136.556 C 187.048 136.987,185.600 135.755,185.600 134.367 C 185.600 134.005,187.042 132.400,187.367 132.400 C 187.459 132.400,187.819 132.509,188.167 132.643 M245.920 134.080 C 247.119 135.279,246.263 138.400,244.736 138.400 C 243.895 138.400,242.400 136.896,242.400 136.050 C 242.400 134.456,244.898 133.058,245.920 134.080 M222.520 140.136 C 222.920 141.179,222.111 141.882,221.367 141.138 C 220.665 140.437,220.890 139.600,221.781 139.600 C 222.074 139.600,222.407 139.841,222.520 140.136 M157.200 146.000 C 157.200 146.440,157.031 146.800,156.824 146.800 C 156.287 146.800,155.908 146.072,156.200 145.600 C 156.618 144.924,157.200 145.156,157.200 146.000 M110.636 151.000 C 111.218 153.320,110.008 154.751,108.629 153.371 C 107.819 152.562,107.831 151.650,108.662 150.731 C 109.582 149.715,110.339 149.818,110.636 151.000 M239.520 155.280 C 240.191 155.951,240.118 156.669,239.349 156.964 C 238.350 157.348,237.530 156.479,238.022 155.558 C 238.493 154.678,238.852 154.612,239.520 155.280 M258.668 177.716 C 246.385 190.010,236.426 200.159,236.535 200.268 C 236.803 200.536,281.285 156.032,281.125 155.657 C 281.056 155.495,270.951 165.421,258.668 177.716 M195.922 162.100 C 196.041 163.951,196.015 164.000,194.902 164.000 C 193.483 164.000,192.800 163.350,192.800 162.000 C 192.800 159.160,195.739 159.254,195.922 162.100 M131.524 164.503 C 131.630 165.780,131.529 166.000,130.838 166.000 C 129.722 166.000,129.039 164.648,129.613 163.576 C 130.318 162.258,131.381 162.773,131.524 164.503 M93.922 172.931 C 94.054 174.959,93.455 175.398,92.229 174.171 C 91.420 173.363,91.427 172.230,92.246 171.411 C 93.251 170.406,93.789 170.894,93.922 172.931 M221.986 174.374 C 223.186 176.616,221.706 178.872,219.605 178.002 C 218.100 177.379,217.668 175.966,218.565 174.597 C 219.384 173.347,221.367 173.218,221.986 174.374 M158.200 179.600 C 158.200 181.588,157.037 182.294,155.799 181.056 C 154.450 179.707,155.377 177.470,157.197 177.683 C 158.102 177.789,158.200 177.976,158.200 179.600 M107.600 296.567 C 107.600 296.988,108.805 298.128,109.021 297.912 C 109.122 297.811,108.844 297.402,108.402 297.002 C 107.961 296.603,107.600 296.407,107.600 296.567 M18.550 304.939 C 18.303 305.193,16.793 306.390,15.195 307.600 C 13.598 308.810,10.595 311.194,8.523 312.898 C 6.450 314.602,4.316 316.106,3.780 316.241 C 3.244 316.375,2.896 316.632,3.006 316.810 C 3.117 316.989,2.936 317.407,2.604 317.739 C 2.272 318.071,2.000 318.626,2.000 318.971 C 2.000 319.317,1.820 319.600,1.600 319.600 C 1.380 319.600,1.200 320.140,1.200 320.800 C 1.200 321.460,1.016 322.000,0.790 322.000 C 0.523 322.000,0.419 324.323,0.490 328.700 C 0.613 336.202,0.661 336.294,3.275 334.028 C 11.983 326.478,14.000 325.398,14.000 328.286 C 14.000 328.594,14.196 328.726,14.435 328.578 C 14.748 328.385,14.748 328.188,14.435 327.875 C 14.196 327.636,14.000 326.702,14.000 325.800 C 14.000 324.898,13.804 323.964,13.565 323.725 C 13.252 323.412,13.252 323.215,13.565 323.022 C 13.804 322.874,14.000 321.683,14.000 320.376 C 14.000 319.059,14.178 318.000,14.400 318.000 C 14.620 318.000,14.800 317.460,14.800 316.800 C 14.800 316.140,14.980 315.600,15.200 315.600 C 15.420 315.600,15.600 315.251,15.600 314.824 C 15.600 314.397,15.780 313.936,16.000 313.800 C 16.220 313.664,16.400 313.113,16.400 312.576 C 16.400 312.039,16.580 311.600,16.800 311.600 C 17.020 311.600,17.200 311.184,17.200 310.675 C 17.200 310.167,17.560 309.364,18.000 308.892 C 18.440 308.420,18.800 307.771,18.800 307.450 C 18.800 307.129,19.007 306.798,19.260 306.713 C 19.576 306.608,19.607 306.234,19.360 305.519 C 19.090 304.740,18.887 304.595,18.550 304.939 M14.800 329.369 C 14.800 329.824,16.835 331.698,17.072 331.461 C 17.295 331.238,16.815 330.686,15.498 329.651 C 15.114 329.349,14.800 329.222,14.800 329.369 M1.412 336.117 C 1.241 336.512,1.213 336.947,1.351 337.084 C 1.757 337.490,2.084 336.920,1.897 336.131 C 1.732 335.433,1.710 335.432,1.412 336.117 " stroke="none" fill="#a32ec9" fill-rule="evenodd"></path><path id="path2" d="M302.800 76.000 C 302.800 76.220,302.440 76.400,302.000 76.400 C 301.560 76.400,301.200 76.580,301.200 76.800 C 301.200 77.020,300.840 77.200,300.400 77.200 C 299.960 77.200,299.600 77.380,299.600 77.600 C 299.600 77.820,299.142 78.000,298.583 78.000 C 298.024 78.000,297.180 78.360,296.708 78.800 C 296.236 79.240,295.534 79.600,295.148 79.600 C 294.763 79.600,294.336 79.780,294.200 80.000 C 294.064 80.220,293.603 80.400,293.176 80.400 C 292.749 80.400,292.399 80.535,292.397 80.700 C 292.393 81.059,290.456 82.000,289.720 82.000 C 289.434 82.000,289.200 82.180,289.200 82.400 C 289.200 82.620,288.840 82.800,288.400 82.800 C 287.960 82.800,287.600 82.980,287.600 83.200 C 287.600 83.420,287.366 83.600,287.080 83.600 C 286.344 83.600,284.407 84.541,284.403 84.900 C 284.401 85.065,284.040 85.200,283.600 85.200 C 283.160 85.200,282.800 85.380,282.800 85.600 C 282.800 85.820,282.440 86.000,282.000 86.000 C 281.560 86.000,281.200 86.180,281.200 86.400 C 281.200 86.620,280.840 86.800,280.400 86.800 C 279.960 86.800,279.600 86.980,279.600 87.200 C 279.600 87.420,279.240 87.600,278.800 87.600 C 278.360 87.600,278.000 87.780,278.000 88.000 C 278.000 88.220,277.640 88.400,277.200 88.400 C 276.760 88.400,276.400 88.580,276.400 88.800 C 276.400 89.020,276.166 89.200,275.880 89.200 C 274.704 89.200,273.206 90.228,273.203 91.036 C 273.199 92.256,280.009 95.999,280.929 95.284 C 284.779 92.290,298.295 81.531,299.785 80.275 C 300.876 79.354,302.451 78.104,303.285 77.497 C 305.043 76.218,305.211 75.600,303.800 75.600 C 303.250 75.600,302.800 75.780,302.800 76.000 M97.550 184.300 C 94.514 187.457,89.491 193.381,86.139 197.755 C 85.445 198.660,83.595 200.840,82.026 202.600 C 79.414 205.530,79.190 205.918,79.373 207.200 C 79.483 207.970,79.680 210.580,79.813 213.000 C 80.373 223.247,82.417 233.929,85.804 244.313 C 87.148 248.436,87.106 248.387,89.002 248.012 C 89.881 247.839,92.040 247.405,93.800 247.049 C 95.560 246.694,97.990 246.207,99.200 245.967 C 100.410 245.728,101.760 245.447,102.200 245.343 C 103.644 245.002,111.846 243.743,116.200 243.194 C 146.899 239.323,171.098 242.053,197.587 252.376 L 201.684 253.973 204.142 252.322 C 209.929 248.436,219.012 241.828,219.375 241.240 C 219.601 240.875,218.004 237.491,217.500 237.267 C 217.335 237.193,217.200 236.608,217.200 235.967 C 217.200 235.186,216.998 234.800,216.587 234.800 C 216.251 234.800,215.858 234.485,215.715 234.100 C 215.572 233.715,215.128 233.109,214.728 232.753 C 214.327 232.397,214.000 231.888,214.000 231.622 C 214.000 231.355,213.280 230.446,212.400 229.600 C 211.520 228.754,210.800 227.818,210.800 227.520 C 210.800 227.221,210.446 226.721,210.012 226.409 C 209.473 226.021,209.296 225.559,209.449 224.947 C 209.608 224.314,209.429 223.900,208.837 223.530 C 208.377 223.243,208.000 222.787,208.000 222.517 C 208.000 222.247,207.370 221.397,206.600 220.627 C 205.772 219.799,205.200 218.831,205.200 218.260 C 205.200 217.604,204.911 217.206,204.300 217.023 C 203.426 216.761,203.423 216.743,204.200 216.405 C 206.235 215.518,200.104 216.795,194.600 218.404 C 193.940 218.597,192.770 218.927,192.000 219.137 C 191.230 219.347,188.800 220.092,186.600 220.792 C 172.306 225.344,164.152 227.535,156.900 228.773 C 148.650 230.181,147.863 230.274,139.400 230.832 C 128.111 231.576,122.845 231.714,121.708 231.298 C 121.099 231.075,119.790 230.674,118.800 230.407 C 117.810 230.140,116.687 229.760,116.305 229.561 C 115.923 229.362,115.396 229.200,115.133 229.200 C 114.546 229.200,103.386 223.750,102.000 222.787 C 101.450 222.405,100.100 221.597,99.000 220.992 C 95.601 219.123,83.275 209.664,80.859 207.071 L 79.918 206.061 82.466 203.130 C 83.868 201.519,87.171 197.420,89.807 194.023 C 92.443 190.626,96.105 186.261,97.945 184.323 C 99.785 182.385,101.206 180.800,101.102 180.800 C 100.999 180.800,99.400 182.375,97.550 184.300 M73.231 229.902 C 72.919 230.018,70.754 232.032,68.421 234.379 C 66.088 236.726,63.869 238.765,63.489 238.910 C 63.110 239.056,62.800 239.373,62.800 239.616 C 62.800 240.264,61.753 241.200,61.029 241.200 C 60.683 241.200,60.400 241.476,60.400 241.813 C 60.400 242.149,60.133 242.527,59.807 242.652 C 59.043 242.946,49.342 252.653,49.048 253.419 C 48.925 253.739,48.549 254.000,48.213 254.000 C 47.867 254.000,47.600 254.348,47.600 254.800 C 47.600 255.252,47.333 255.600,46.987 255.600 C 46.651 255.600,46.260 255.900,46.119 256.266 C 45.979 256.632,43.915 258.891,41.532 261.286 C 39.149 263.681,37.200 265.822,37.200 266.043 C 37.200 266.264,36.120 267.504,34.800 268.800 C 33.480 270.096,32.400 271.339,32.400 271.564 C 32.400 271.788,32.040 272.165,31.600 272.400 C 31.160 272.635,30.800 273.016,30.800 273.245 C 30.800 273.475,30.080 274.354,29.200 275.200 C 28.320 276.046,27.600 276.913,27.600 277.128 C 27.600 277.343,26.700 278.438,25.600 279.561 C 24.500 280.685,23.600 281.801,23.600 282.042 C 23.600 282.282,23.060 282.983,22.400 283.600 C 21.740 284.217,21.200 284.920,21.200 285.164 C 21.200 285.408,20.660 286.172,20.000 286.863 C 19.340 287.554,18.800 288.274,18.800 288.463 C 18.800 288.652,18.260 289.372,17.600 290.063 C 16.940 290.754,16.400 291.522,16.400 291.771 C 16.400 292.020,16.040 292.483,15.600 292.800 C 15.160 293.117,14.800 293.657,14.800 294.000 C 14.800 294.343,14.440 294.883,14.000 295.200 C 13.560 295.517,13.200 296.057,13.200 296.400 C 13.200 296.743,12.840 297.283,12.400 297.600 C 11.960 297.917,11.600 298.457,11.600 298.800 C 11.600 299.143,11.240 299.683,10.800 300.000 C 10.360 300.317,10.000 300.771,10.000 301.009 C 10.000 301.675,9.037 303.593,8.700 303.597 C 8.535 303.599,8.400 303.920,8.400 304.312 C 8.400 304.703,8.040 305.283,7.600 305.600 C 7.160 305.917,6.800 306.497,6.800 306.888 C 6.800 307.280,6.620 307.600,6.400 307.600 C 6.180 307.600,6.000 307.960,6.000 308.400 C 6.000 308.840,5.820 309.200,5.600 309.200 C 5.380 309.200,5.200 309.560,5.200 310.000 C 5.200 310.440,5.020 310.800,4.800 310.800 C 4.580 310.800,4.400 311.149,4.400 311.576 C 4.400 312.003,4.220 312.464,4.000 312.600 C 3.780 312.736,3.600 313.287,3.600 313.824 C 3.600 314.361,3.420 314.800,3.200 314.800 C 2.980 314.800,2.800 315.160,2.800 315.600 C 2.800 317.179,4.129 316.527,8.840 312.639 C 10.731 311.078,13.587 308.810,15.185 307.600 C 16.783 306.390,18.321 305.181,18.603 304.914 C 19.008 304.529,19.157 304.591,19.320 305.214 C 19.433 305.646,19.743 306.000,20.009 306.000 C 20.287 306.000,20.409 305.678,20.295 305.243 C 20.177 304.789,20.478 304.077,21.049 303.461 C 21.572 302.897,22.000 302.292,22.001 302.117 C 22.001 301.943,22.541 301.170,23.200 300.400 C 23.859 299.630,24.399 298.775,24.399 298.500 C 24.400 298.225,24.550 298.000,24.732 298.000 C 24.915 298.000,25.320 297.505,25.632 296.900 C 25.945 296.295,26.515 295.451,26.900 295.025 C 27.285 294.598,27.600 294.101,27.600 293.921 C 27.600 293.740,28.140 293.028,28.800 292.337 C 29.460 291.646,30.000 290.910,30.000 290.701 C 30.000 290.492,30.540 289.817,31.200 289.200 C 31.860 288.583,32.400 287.914,32.400 287.712 C 32.400 287.510,33.479 286.187,34.798 284.772 C 36.117 283.357,37.197 282.051,37.198 281.869 C 37.199 281.686,37.875 280.876,38.700 280.069 C 39.525 279.261,40.455 278.105,40.768 277.500 C 41.080 276.895,41.580 276.400,41.880 276.400 C 42.180 276.400,42.537 276.108,42.674 275.751 C 42.811 275.394,44.695 273.282,46.862 271.058 C 49.028 268.833,50.800 266.874,50.800 266.704 C 50.800 266.234,67.756 249.379,68.527 249.083 C 68.897 248.941,69.200 248.549,69.200 248.213 C 69.200 247.876,69.473 247.600,69.806 247.600 C 70.579 247.600,76.227 241.977,76.584 240.852 C 76.731 240.387,76.468 238.340,75.999 236.303 C 75.531 234.266,75.077 232.240,74.991 231.800 C 74.759 230.613,73.878 229.663,73.231 229.902 M226.000 250.400 C 226.000 250.620,225.640 250.800,225.200 250.800 C 224.760 250.800,224.400 250.950,224.400 251.132 C 224.400 251.315,223.905 251.718,223.300 252.027 C 221.343 253.027,213.200 258.514,213.200 258.832 C 213.200 259.279,217.100 260.997,221.336 262.416 C 223.351 263.091,225.360 263.788,225.800 263.966 C 227.509 264.656,229.494 265.200,230.305 265.200 C 230.771 265.200,231.264 265.380,231.400 265.600 C 231.536 265.820,232.256 266.000,233.000 266.000 C 233.744 266.000,234.464 266.180,234.600 266.400 C 234.736 266.620,235.110 266.800,235.431 266.800 C 236.423 266.800,235.634 264.836,233.942 263.092 C 233.094 262.218,232.400 261.331,232.400 261.120 C 232.400 260.910,231.680 260.046,230.800 259.200 C 229.745 258.186,229.200 257.312,229.200 256.631 C 229.200 256.064,229.049 255.600,228.864 255.600 C 228.679 255.600,228.294 254.835,228.009 253.900 C 227.001 250.603,226.000 248.859,226.000 250.400 M2.000 317.200 C 2.000 317.640,2.161 318.000,2.357 318.000 C 2.807 318.000,3.226 316.960,2.906 316.639 C 2.424 316.158,2.000 316.420,2.000 317.200 " stroke="none" fill="#6757b5" fill-rule="evenodd"></path><path id="path3" d="M198.873 83.034 C 197.340 84.108,197.919 86.579,199.645 86.335 C 200.421 86.225,200.623 85.931,200.720 84.766 C 200.876 82.908,200.096 82.177,198.873 83.034 M234.178 88.035 C 233.766 88.702,234.693 89.467,235.245 88.915 C 235.707 88.453,235.418 87.600,234.800 87.600 C 234.606 87.600,234.326 87.796,234.178 88.035 M201.676 93.551 C 205.256 93.781,205.645 93.889,206.776 94.975 C 207.449 95.621,208.000 95.967,208.000 95.745 C 208.000 94.195,205.964 93.400,201.869 93.351 L 197.800 93.302 201.676 93.551 M191.000 94.000 L 189.800 94.305 191.200 94.318 C 191.970 94.324,193.500 94.190,194.600 94.018 L 196.600 93.707 194.400 93.701 C 193.190 93.697,191.660 93.832,191.000 94.000 M185.600 94.800 C 184.628 95.111,184.633 95.120,185.800 95.120 C 186.460 95.120,187.450 94.976,188.000 94.800 C 188.972 94.489,188.967 94.480,187.800 94.480 C 187.140 94.480,186.150 94.624,185.600 94.800 M181.400 95.600 L 180.200 95.905 181.400 95.925 C 182.060 95.935,182.960 95.789,183.400 95.600 L 184.200 95.256 183.400 95.275 C 182.960 95.286,182.060 95.432,181.400 95.600 M177.800 96.400 C 177.067 96.715,177.084 96.746,178.000 96.766 C 178.550 96.778,179.270 96.613,179.600 96.400 C 180.387 95.891,178.984 95.891,177.800 96.400 M208.064 97.940 C 208.013 99.339,207.734 99.946,206.640 101.040 C 205.221 102.459,205.228 102.816,206.656 101.816 C 207.786 101.025,208.493 99.181,208.293 97.547 C 208.146 96.349,208.121 96.393,208.064 97.940 M175.000 97.200 L 174.200 97.544 175.000 97.566 C 175.440 97.578,176.070 97.413,176.400 97.200 C 177.195 96.686,176.196 96.686,175.000 97.200 M172.200 98.000 C 171.696 98.217,171.622 98.344,172.000 98.344 C 172.330 98.344,172.960 98.189,173.400 98.000 C 173.904 97.783,173.978 97.656,173.600 97.656 C 173.270 97.656,172.640 97.811,172.200 98.000 M169.600 98.800 C 169.067 99.145,169.067 99.188,169.600 99.188 C 169.930 99.188,170.470 99.013,170.800 98.800 C 171.333 98.455,171.333 98.412,170.800 98.412 C 170.470 98.412,169.930 98.587,169.600 98.800 M167.200 99.600 C 166.667 99.945,166.667 99.988,167.200 99.988 C 167.530 99.988,168.070 99.813,168.400 99.600 C 168.933 99.255,168.933 99.212,168.400 99.212 C 168.070 99.212,167.530 99.387,167.200 99.600 M157.901 103.577 C 155.765 104.931,154.722 107.245,155.501 108.897 C 155.874 109.688,155.921 109.594,155.880 108.130 C 155.815 105.859,156.605 104.566,158.665 103.568 C 159.619 103.106,160.400 102.655,160.400 102.564 C 160.400 102.168,159.630 102.481,157.901 103.577 M196.000 102.800 C 193.410 103.203,198.305 103.213,202.200 102.813 L 205.000 102.526 201.400 102.523 C 199.420 102.521,196.990 102.646,196.000 102.800 M189.000 103.600 L 187.800 103.905 189.000 103.930 C 189.660 103.943,190.920 103.805,191.800 103.623 L 193.400 103.292 191.800 103.293 C 190.920 103.294,189.660 103.432,189.000 103.600 M251.415 104.122 C 250.331 105.775,251.713 107.992,253.420 107.337 C 254.475 106.932,254.049 103.435,252.925 103.275 C 252.351 103.194,251.832 103.485,251.415 104.122 M184.600 104.400 C 183.506 104.870,185.333 104.870,186.800 104.400 C 187.775 104.088,187.770 104.079,186.600 104.068 C 185.940 104.062,185.040 104.211,184.600 104.400 M181.000 105.200 L 180.200 105.544 181.000 105.532 C 181.440 105.526,182.250 105.376,182.800 105.200 L 183.800 104.880 182.800 104.868 C 182.250 104.862,181.440 105.011,181.000 105.200 M177.800 106.000 C 176.781 106.438,177.832 106.438,179.200 106.000 C 180.004 105.743,180.043 105.677,179.400 105.668 C 178.960 105.662,178.240 105.811,177.800 106.000 M173.866 107.074 C 172.803 107.400,172.018 107.752,172.123 107.856 C 172.336 108.069,176.800 106.843,176.800 106.572 C 176.800 106.295,175.929 106.444,173.866 107.074 M293.764 106.698 C 294.290 107.630,295.600 108.111,295.600 107.371 C 295.600 106.978,295.379 106.799,295.049 106.926 C 294.746 107.042,294.269 106.927,293.990 106.669 C 293.599 106.308,293.547 106.315,293.764 106.698 M167.400 109.414 C 165.640 110.152,163.676 110.947,163.035 111.180 C 162.394 111.413,161.957 111.691,162.064 111.797 C 162.237 111.970,171.157 108.557,171.567 108.161 C 172.069 107.676,170.214 108.233,167.400 109.414 M296.400 108.884 C 296.400 109.226,296.773 109.604,297.230 109.724 C 297.923 109.905,297.989 110.073,297.630 110.744 C 297.124 111.690,297.088 112.018,297.500 111.953 C 298.400 111.811,299.216 112.051,299.003 112.395 C 298.859 112.628,299.032 112.686,299.421 112.536 C 299.786 112.397,299.030 113.365,297.742 114.690 L 295.400 117.097 294.378 116.149 C 293.816 115.627,293.181 115.200,292.967 115.200 C 292.753 115.200,292.285 114.885,291.928 114.500 C 290.468 112.927,285.856 109.200,285.370 109.200 C 285.179 109.200,285.422 109.480,285.911 109.823 C 287.261 110.768,287.295 110.722,279.548 118.452 C 275.559 122.432,272.454 125.803,272.648 125.944 C 272.841 126.085,273.049 126.650,273.108 127.200 C 273.168 127.750,273.551 128.920,273.959 129.800 C 274.992 132.028,278.913 143.895,279.973 148.000 C 281.434 153.656,281.534 154.117,281.812 156.452 C 281.988 157.932,281.929 158.796,281.640 158.975 C 280.920 159.420,281.140 160.970,282.000 161.507 C 284.016 162.766,283.877 162.925,259.401 187.401 C 237.866 208.935,235.896 210.800,234.674 210.800 C 233.494 210.800,232.477 209.964,225.559 203.300 C 206.762 185.196,198.243 180.244,186.280 180.469 L 182.600 180.538 187.000 180.807 C 193.477 181.203,195.053 181.609,201.000 184.415 C 203.383 185.539,210.580 190.017,211.200 190.760 C 211.310 190.892,212.480 191.888,213.800 192.972 C 217.133 195.711,232.800 211.270,232.800 211.841 C 232.800 212.361,231.192 212.591,223.200 213.217 C 213.062 214.011,201.727 216.302,204.300 217.036 C 204.914 217.212,205.200 217.600,205.200 218.260 C 205.200 218.831,205.772 219.799,206.600 220.627 C 207.370 221.397,208.000 222.247,208.000 222.517 C 208.000 222.787,208.377 223.243,208.837 223.530 C 209.429 223.900,209.608 224.314,209.449 224.947 C 209.296 225.559,209.473 226.021,210.012 226.409 C 210.446 226.721,210.800 227.221,210.800 227.520 C 210.800 227.818,211.520 228.754,212.400 229.600 C 213.280 230.446,214.000 231.355,214.000 231.622 C 214.000 231.888,214.327 232.397,214.728 232.753 C 215.128 233.109,215.572 233.715,215.715 234.100 C 215.858 234.485,216.251 234.800,216.587 234.800 C 216.998 234.800,217.200 235.186,217.200 235.967 C 217.200 236.608,217.335 237.193,217.500 237.267 C 218.004 237.491,219.601 240.875,219.375 241.240 C 219.012 241.827,209.927 248.438,204.164 252.307 L 201.729 253.942 194.823 251.352 C 191.026 249.926,187.728 248.824,187.495 248.902 C 187.263 248.979,187.956 249.363,189.036 249.755 C 193.805 251.486,199.605 253.837,202.000 255.011 C 203.430 255.711,205.999 256.885,207.708 257.618 C 211.345 259.179,211.358 259.346,207.970 261.144 L 205.400 262.508 198.650 262.270 C 190.825 261.995,191.042 262.078,193.008 260.113 L 194.523 258.600 186.962 258.320 C 177.804 257.982,150.072 257.371,116.600 256.771 L 91.800 256.326 90.902 255.263 C 90.408 254.678,90.003 254.064,90.002 253.898 C 90.001 253.732,89.550 252.663,89.000 251.523 C 87.778 248.991,87.774 248.865,88.900 248.412 C 89.749 248.071,89.754 248.049,88.980 248.025 C 87.301 247.973,87.192 248.725,88.403 252.008 C 90.791 258.485,95.391 267.064,97.449 268.881 C 98.148 269.497,100.655 269.601,124.010 269.974 C 165.246 270.632,174.000 270.871,174.000 271.337 C 174.000 271.568,173.145 272.513,172.100 273.436 C 169.765 275.501,169.869 275.616,174.487 276.079 C 182.608 276.893,182.818 276.862,188.366 274.019 L 193.332 271.475 207.166 271.737 C 214.775 271.881,225.770 272.264,231.600 272.589 C 237.430 272.913,242.889 273.183,243.732 273.189 C 245.202 273.200,245.254 273.245,245.016 274.328 L 244.768 275.455 253.284 275.947 C 257.968 276.217,263.369 276.624,265.286 276.851 C 267.204 277.078,268.925 277.170,269.113 277.054 C 269.300 276.938,270.701 277.011,272.226 277.216 C 286.197 279.090,292.903 280.108,294.564 280.609 C 295.644 280.934,297.028 281.200,297.640 281.200 C 298.252 281.200,298.864 281.380,299.000 281.600 C 299.136 281.820,299.822 282.002,300.524 282.005 C 302.945 282.016,303.619 282.368,303.078 283.341 C 300.220 288.479,281.616 305.198,277.195 306.602 C 276.758 306.740,276.400 307.022,276.400 307.227 C 276.400 307.432,276.151 307.600,275.847 307.600 C 275.543 307.600,273.248 308.432,270.747 309.448 C 268.246 310.465,265.750 311.437,265.200 311.610 C 264.650 311.782,262.670 312.491,260.800 313.184 C 258.930 313.878,256.410 314.775,255.200 315.179 C 253.990 315.583,252.550 316.099,252.000 316.325 C 251.450 316.551,249.200 317.394,247.000 318.198 C 244.800 319.002,242.640 319.805,242.200 319.982 C 240.986 320.471,237.970 321.627,236.400 322.207 C 231.962 323.844,227.959 325.350,226.247 326.027 C 225.172 326.452,224.108 326.800,223.881 326.800 C 223.654 326.800,222.141 327.430,220.519 328.200 C 218.897 328.970,217.346 329.600,217.074 329.600 C 216.801 329.600,216.152 329.899,215.630 330.264 C 214.369 331.147,196.547 331.567,191.246 330.838 C 185.528 330.052,182.353 329.543,179.200 328.907 C 177.550 328.574,175.750 328.214,175.200 328.108 C 163.856 325.923,146.321 318.306,134.970 310.632 L 130.140 307.368 127.370 308.786 C 124.167 310.427,123.671 311.431,125.480 312.615 C 126.096 313.018,127.140 313.854,127.800 314.472 C 128.460 315.090,129.145 315.597,129.322 315.598 C 129.761 315.601,134.567 318.863,134.733 319.272 C 134.807 319.453,135.212 319.600,135.633 319.600 C 136.055 319.600,136.400 319.780,136.400 320.000 C 136.400 320.220,136.636 320.400,136.925 320.400 C 137.213 320.400,137.836 320.760,138.308 321.200 C 138.780 321.640,139.444 322.000,139.783 322.000 C 140.122 322.000,140.400 322.180,140.400 322.400 C 140.400 322.620,140.760 322.800,141.200 322.800 C 141.640 322.800,142.000 322.980,142.000 323.200 C 142.000 323.420,142.360 323.600,142.800 323.600 C 143.240 323.600,143.600 323.780,143.600 324.000 C 143.600 324.220,143.960 324.400,144.400 324.400 C 144.840 324.400,145.200 324.580,145.200 324.800 C 145.200 325.020,145.560 325.200,146.000 325.200 C 146.440 325.200,146.800 325.380,146.800 325.600 C 146.800 325.820,147.160 326.000,147.600 326.000 C 148.040 326.000,148.400 326.180,148.400 326.400 C 148.400 326.620,148.672 326.800,149.005 326.800 C 149.338 326.800,149.923 326.960,150.305 327.156 C 150.687 327.352,151.900 327.912,153.000 328.400 C 154.100 328.888,155.313 329.448,155.695 329.644 C 156.077 329.840,156.752 330.000,157.195 330.000 C 157.638 330.000,158.000 330.180,158.000 330.400 C 158.000 330.620,158.362 330.800,158.805 330.800 C 159.248 330.800,159.968 330.980,160.405 331.200 C 160.842 331.420,161.558 331.780,161.995 332.000 C 162.432 332.220,163.231 332.400,163.771 332.400 C 164.311 332.400,164.864 332.580,165.000 332.800 C 165.136 333.020,165.676 333.200,166.200 333.200 C 166.724 333.200,167.264 333.380,167.400 333.600 C 167.536 333.820,168.166 334.000,168.800 334.000 C 169.434 334.000,170.064 334.180,170.200 334.400 C 170.336 334.620,171.056 334.800,171.800 334.800 C 172.544 334.800,173.264 334.980,173.400 335.200 C 173.536 335.420,174.447 335.600,175.424 335.600 C 176.401 335.600,177.200 335.780,177.200 336.000 C 177.200 336.220,178.089 336.400,179.176 336.400 C 180.263 336.400,181.253 336.563,181.376 336.762 C 181.499 336.960,182.514 337.130,183.632 337.139 C 184.749 337.148,185.874 337.324,186.132 337.531 C 187.292 338.465,193.621 338.031,193.440 337.030 C 193.313 336.331,193.736 335.642,195.143 334.256 L 197.015 332.412 203.207 332.216 C 220.670 331.664,235.713 328.783,247.600 323.715 C 249.456 322.924,250.824 322.361,251.800 321.985 C 258.872 319.267,280.493 306.866,282.400 304.434 C 282.510 304.294,283.410 303.560,284.400 302.802 C 295.828 294.061,307.483 281.019,312.514 271.342 C 314.531 267.462,314.531 267.460,311.300 267.742 C 309.815 267.872,304.640 268.246,299.800 268.574 C 294.960 268.901,287.850 269.401,284.000 269.685 C 272.223 270.552,255.507 270.309,258.300 269.312 C 259.216 268.985,258.817 267.953,257.154 266.356 L 255.508 264.774 256.354 264.040 C 256.819 263.636,257.200 263.083,257.200 262.810 C 257.200 262.538,258.340 260.669,259.734 258.657 C 265.558 250.254,268.248 244.456,266.876 243.266 C 266.394 242.848,266.000 242.214,266.000 241.856 C 266.000 241.499,265.640 240.982,265.200 240.707 C 264.760 240.432,264.400 239.891,264.400 239.504 C 264.400 239.067,264.097 238.800,263.600 238.800 C 262.978 238.800,262.800 238.533,262.800 237.600 C 262.800 236.940,262.620 236.400,262.400 236.400 C 262.180 236.400,262.000 235.952,262.000 235.403 C 262.000 234.818,261.505 233.934,260.800 233.260 C 260.140 232.629,259.600 231.853,259.600 231.535 C 259.600 230.833,257.162 228.400,256.458 228.400 C 255.712 228.400,253.282 229.835,246.695 234.165 C 240.468 238.259,239.600 238.483,239.600 235.997 C 239.600 235.515,238.888 234.453,237.980 233.580 L 236.359 232.024 237.616 230.643 C 238.307 229.883,239.866 228.483,241.080 227.531 C 250.767 219.938,251.406 219.070,249.148 216.574 C 248.736 216.120,248.400 215.355,248.400 214.874 C 248.400 214.393,248.220 214.000,248.000 214.000 C 247.780 214.000,247.600 213.820,247.600 213.600 C 247.600 213.380,247.870 213.200,248.200 213.200 C 248.530 213.200,248.800 213.380,248.800 213.600 C 248.800 213.820,249.565 214.001,250.500 214.002 C 252.262 214.005,253.588 214.283,258.000 215.575 C 259.430 215.994,261.410 216.549,262.400 216.807 C 263.390 217.066,264.489 217.425,264.841 217.606 C 265.194 217.786,266.364 218.058,267.441 218.210 C 268.519 218.362,271.560 219.175,274.200 220.016 C 276.840 220.858,281.160 222.221,283.800 223.045 C 286.440 223.869,288.771 224.691,288.980 224.872 C 290.391 226.090,291.175 225.407,309.959 206.591 C 329.982 186.533,329.012 187.400,329.331 189.300 C 330.849 198.328,330.962 198.477,333.967 195.433 C 335.886 193.490,337.200 192.935,337.200 194.066 C 337.200 194.276,336.992 194.319,336.738 194.162 C 336.450 193.984,336.385 194.052,336.566 194.345 C 336.725 194.602,337.053 194.691,337.296 194.541 C 337.582 194.364,337.644 194.509,337.473 194.955 C 337.328 195.333,337.361 195.548,337.546 195.433 C 337.934 195.194,337.887 190.387,337.491 189.747 C 337.346 189.513,337.195 188.214,337.154 186.861 C 337.113 185.507,336.927 184.400,336.740 184.400 C 336.553 184.400,336.400 183.421,336.400 182.224 C 336.400 181.027,336.220 179.936,336.000 179.800 C 335.780 179.664,335.600 178.843,335.600 177.976 C 335.600 177.109,335.420 176.400,335.200 176.400 C 334.980 176.400,334.800 175.500,334.800 174.400 C 334.800 173.300,334.620 172.400,334.400 172.400 C 334.180 172.400,334.000 171.961,334.000 171.424 C 334.000 170.887,333.820 170.336,333.600 170.200 C 333.380 170.064,333.200 169.331,333.200 168.571 C 333.200 167.311,332.598 165.703,331.936 165.199 C 331.254 164.678,328.400 156.621,328.400 155.216 C 328.400 154.353,328.220 153.536,328.000 153.400 C 327.780 153.264,327.600 152.803,327.600 152.376 C 327.600 151.949,327.420 151.600,327.200 151.600 C 326.980 151.600,326.800 151.240,326.800 150.800 C 326.800 150.360,326.620 150.000,326.400 150.000 C 326.180 150.000,326.000 149.747,326.000 149.438 C 326.000 149.129,325.661 148.184,325.247 147.338 C 324.833 146.492,324.085 144.945,323.584 143.900 C 323.084 142.855,322.523 142.000,322.337 142.000 C 322.152 142.000,322.000 141.640,322.000 141.200 C 322.000 140.760,321.820 140.400,321.600 140.400 C 321.380 140.400,321.196 140.175,321.191 139.900 C 321.186 139.625,320.830 138.950,320.400 138.400 C 319.970 137.850,319.613 137.130,319.608 136.800 C 319.603 136.470,319.059 135.570,318.399 134.800 C 317.740 134.030,316.921 132.814,316.581 132.099 C 316.240 131.383,315.520 130.356,314.981 129.817 C 314.441 129.278,314.000 128.667,314.000 128.460 C 314.000 128.254,313.460 127.507,312.800 126.800 C 312.140 126.093,311.600 125.358,311.600 125.165 C 311.600 124.809,310.144 123.043,308.500 121.405 C 308.005 120.912,307.600 120.304,307.600 120.054 C 307.600 119.804,307.319 119.600,306.976 119.600 C 306.633 119.600,306.439 119.460,306.545 119.289 C 306.651 119.118,306.031 118.276,305.169 117.419 C 304.306 116.561,303.600 115.719,303.600 115.548 C 303.600 115.084,301.644 113.215,300.310 112.404 C 299.668 112.013,299.163 111.579,299.187 111.439 C 299.257 111.028,298.678 110.270,297.499 109.230 C 296.652 108.483,296.400 108.404,296.400 108.884 M228.000 109.629 C 228.000 110.202,228.215 110.417,228.695 110.325 C 229.738 110.124,229.854 108.800,228.829 108.800 C 228.257 108.800,228.000 109.057,228.000 109.629 M157.287 111.300 C 158.184 112.177,158.756 112.389,160.106 112.347 L 161.800 112.293 159.914 112.030 C 158.877 111.885,157.609 111.414,157.095 110.983 C 156.582 110.552,156.668 110.695,157.287 111.300 M191.875 110.717 C 190.659 112.060,191.472 114.000,193.250 114.000 C 193.947 114.000,194.029 113.769,193.922 112.104 C 193.785 109.978,193.016 109.457,191.875 110.717 M143.105 112.683 C 143.602 112.779,144.322 112.775,144.705 112.675 C 145.087 112.575,144.680 112.496,143.800 112.501 C 142.920 112.505,142.607 112.587,143.105 112.683 M137.593 115.646 C 127.517 123.207,122.992 128.330,124.340 130.649 C 124.697 131.264,124.777 131.039,124.786 129.400 C 124.798 126.793,130.751 120.862,139.765 114.476 C 141.066 113.554,141.963 112.800,141.758 112.800 C 141.553 112.800,139.679 114.081,137.593 115.646 M146.675 113.954 C 147.294 114.589,147.876 115.038,147.968 114.953 C 148.201 114.737,146.344 112.800,145.905 112.800 C 145.710 112.800,146.056 113.319,146.675 113.954 M148.064 116.926 C 147.970 119.159,147.615 119.605,143.333 122.850 C 139.719 125.589,131.200 133.010,131.200 133.419 C 131.200 133.862,131.791 133.381,135.524 129.900 C 137.706 127.865,141.211 124.940,143.312 123.400 C 147.521 120.316,148.560 118.941,148.299 116.800 L 148.128 115.400 148.064 116.926 M153.321 126.500 C 152.854 127.531,153.354 129.020,154.287 129.378 C 155.263 129.752,155.600 129.239,155.600 127.376 C 155.600 125.314,154.116 124.743,153.321 126.500 M286.800 132.400 C 286.800 133.656,286.140 134.031,285.745 133.000 C 285.459 132.254,285.835 131.200,286.387 131.200 C 286.614 131.200,286.800 131.740,286.800 132.400 M186.400 133.200 C 184.894 134.706,186.258 137.290,188.171 136.556 C 189.052 136.218,189.049 132.981,188.167 132.643 C 187.290 132.306,187.295 132.305,186.400 133.200 M127.966 134.037 C 128.579 134.282,129.309 134.284,129.966 134.043 C 130.858 133.715,130.726 133.662,129.000 133.657 C 127.318 133.652,127.153 133.712,127.966 134.037 M243.270 134.526 C 242.186 135.679,242.173 136.405,243.216 137.525 C 244.768 139.191,246.400 138.410,246.400 136.000 C 246.400 133.564,244.857 132.837,243.270 134.526 M220.976 140.038 C 220.827 140.279,221.003 140.774,221.367 141.138 C 222.111 141.882,222.920 141.179,222.520 140.136 C 222.272 139.489,221.352 139.431,220.976 140.038 M156.200 145.600 C 155.908 146.072,156.287 146.800,156.824 146.800 C 157.031 146.800,157.200 146.440,157.200 146.000 C 157.200 145.156,156.618 144.924,156.200 145.600 M312.400 150.178 C 312.400 150.495,311.961 151.260,311.425 151.878 C 310.139 153.359,308.704 152.407,309.520 150.615 C 310.047 149.460,312.400 149.103,312.400 150.178 M108.662 150.731 C 107.831 151.650,107.819 152.562,108.629 153.371 C 110.008 154.751,111.218 153.320,110.636 151.000 C 110.339 149.818,109.582 149.715,108.662 150.731 M238.022 155.558 C 237.530 156.479,238.350 157.348,239.349 156.964 C 240.118 156.669,240.191 155.951,239.520 155.280 C 238.852 154.612,238.493 154.678,238.022 155.558 M193.297 160.463 C 191.984 161.776,192.993 164.000,194.902 164.000 C 196.015 164.000,196.041 163.951,195.922 162.100 C 195.792 160.079,194.492 159.268,193.297 160.463 M129.613 163.576 C 129.039 164.648,129.722 166.000,130.838 166.000 C 131.529 166.000,131.630 165.780,131.524 164.503 C 131.381 162.773,130.318 162.258,129.613 163.576 M118.400 170.802 C 117.651 171.079,117.903 171.119,119.402 170.962 C 121.220 170.771,123.245 171.047,125.400 171.779 C 125.840 171.929,125.679 171.750,125.042 171.382 C 123.693 170.603,119.847 170.267,118.400 170.802 M92.246 171.411 C 91.427 172.230,91.420 173.363,92.229 174.171 C 93.455 175.398,94.054 174.959,93.922 172.931 C 93.789 170.894,93.251 170.406,92.246 171.411 M115.000 171.978 C 114.120 172.395,113.580 172.736,113.800 172.738 C 114.346 172.742,117.502 171.264,117.000 171.240 C 116.780 171.230,115.880 171.562,115.000 171.978 M128.650 174.264 C 129.997 175.602,131.841 177.788,132.748 179.123 C 133.654 180.458,134.601 181.677,134.852 181.832 C 136.534 182.872,129.414 174.084,127.473 172.725 C 126.773 172.234,127.302 172.927,128.650 174.264 M110.300 174.229 C 108.805 175.040,108.896 175.378,110.400 174.600 C 111.060 174.259,111.600 173.894,111.600 173.790 C 111.600 173.532,111.557 173.547,110.300 174.229 M218.565 174.597 C 217.668 175.966,218.100 177.379,219.605 178.002 C 221.706 178.872,223.186 176.616,221.986 174.374 C 221.367 173.218,219.384 173.347,218.565 174.597 M106.044 176.999 C 104.700 177.989,103.600 178.888,103.600 178.998 C 103.600 179.108,104.725 178.372,106.100 177.361 C 108.895 175.308,109.025 175.200,108.711 175.200 C 108.588 175.200,107.388 176.010,106.044 176.999 M155.697 178.063 C 154.452 179.308,155.591 181.770,157.299 181.528 C 158.737 181.324,158.644 177.852,157.197 177.683 C 156.646 177.618,155.971 177.789,155.697 178.063 M279.836 181.897 C 279.464 182.269,278.400 181.139,278.400 180.371 C 278.400 178.819,279.789 178.722,279.927 180.265 C 279.996 181.043,279.955 181.778,279.836 181.897 M99.192 183.100 L 95.400 187.000 99.300 183.208 C 102.922 179.686,103.382 179.200,103.092 179.200 C 103.033 179.200,101.278 180.955,99.192 183.100 M179.600 181.200 L 178.600 181.520 179.600 181.520 C 180.150 181.520,181.050 181.376,181.600 181.200 L 182.600 180.880 181.600 180.880 C 181.050 180.880,180.150 181.024,179.600 181.200 M135.609 183.000 C 136.676 184.498,138.974 186.997,140.189 187.982 C 140.855 188.522,140.150 187.622,138.622 185.982 C 135.149 182.254,134.905 182.013,135.609 183.000 M171.304 184.426 C 169.157 185.540,167.220 186.643,167.000 186.876 C 166.780 187.110,168.375 186.378,170.544 185.250 C 172.714 184.123,174.728 183.200,175.021 183.200 C 175.313 183.200,175.664 183.020,175.800 182.800 C 176.283 182.019,175.158 182.426,171.304 184.426 M252.821 185.775 C 251.858 186.936,252.634 188.467,254.114 188.324 C 255.293 188.210,255.400 188.084,255.400 186.800 C 255.400 185.215,253.810 184.583,252.821 185.775 M164.400 188.000 C 163.630 188.422,163.180 188.766,163.400 188.766 C 163.620 188.766,164.430 188.422,165.200 188.000 C 165.970 187.578,166.420 187.234,166.200 187.234 C 165.980 187.234,165.170 187.578,164.400 188.000 M157.000 190.800 C 156.496 191.017,156.422 191.144,156.800 191.144 C 157.130 191.144,157.760 190.989,158.200 190.800 C 158.704 190.583,158.778 190.456,158.400 190.456 C 158.070 190.456,157.440 190.611,157.000 190.800 M147.517 191.672 C 148.378 192.015,153.493 192.006,154.725 191.660 C 155.234 191.517,153.667 191.400,151.243 191.400 C 148.818 191.400,147.142 191.522,147.517 191.672 M334.060 195.851 C 333.543 196.402,333.217 196.950,333.336 197.069 C 333.552 197.285,335.600 195.430,335.600 195.018 C 335.600 194.547,334.956 194.895,334.060 195.851 M232.400 199.496 C 230.168 200.364,230.331 203.487,232.674 204.735 C 234.431 205.671,236.000 204.402,236.000 202.046 C 236.000 199.786,234.460 198.695,232.400 199.496 M232.691 202.700 C 232.532 203.367,232.509 203.367,232.219 202.700 C 232.052 202.315,232.052 201.685,232.219 201.300 C 232.603 200.419,232.974 201.519,232.691 202.700 M130.505 241.887 C 131.114 241.979,132.014 241.977,132.505 241.882 C 132.997 241.787,132.500 241.711,131.400 241.714 C 130.300 241.717,129.897 241.795,130.505 241.887 M149.900 241.882 C 150.395 241.978,151.205 241.978,151.700 241.882 C 152.195 241.787,151.790 241.709,150.800 241.709 C 149.810 241.709,149.405 241.787,149.900 241.882 M126.505 242.287 C 127.114 242.379,128.014 242.377,128.505 242.282 C 128.997 242.187,128.500 242.111,127.400 242.114 C 126.300 242.117,125.897 242.195,126.505 242.287 M153.700 242.287 C 154.305 242.378,155.295 242.378,155.900 242.287 C 156.505 242.195,156.010 242.120,154.800 242.120 C 153.590 242.120,153.095 242.195,153.700 242.287 M159.400 242.800 C 160.060 242.968,161.140 243.106,161.800 243.107 C 162.809 243.108,162.745 243.055,161.400 242.777 C 159.374 242.358,157.737 242.377,159.400 242.800 M118.500 243.076 C 118.885 243.176,119.515 243.176,119.900 243.076 C 120.285 242.975,119.970 242.893,119.200 242.893 C 118.430 242.893,118.115 242.975,118.500 243.076 M113.000 243.600 C 111.930 243.872,111.908 243.905,112.800 243.905 C 113.350 243.905,114.340 243.768,115.000 243.600 C 116.070 243.328,116.092 243.295,115.200 243.295 C 114.650 243.295,113.660 243.432,113.000 243.600 M165.200 243.600 C 165.750 243.776,166.650 243.920,167.200 243.920 L 168.200 243.920 167.200 243.600 C 166.650 243.424,165.750 243.280,165.200 243.280 L 164.200 243.280 165.200 243.600 M107.800 244.419 C 107.242 244.671,107.485 244.707,108.600 244.538 C 109.480 244.404,110.275 244.228,110.367 244.147 C 110.710 243.844,108.568 244.071,107.800 244.419 M169.600 244.400 C 170.150 244.576,170.960 244.720,171.400 244.720 C 172.033 244.720,171.992 244.654,171.200 244.400 C 170.650 244.224,169.840 244.080,169.400 244.080 C 168.767 244.080,168.808 244.146,169.600 244.400 M103.000 245.200 L 102.200 245.544 103.000 245.532 C 103.440 245.526,104.250 245.376,104.800 245.200 L 105.800 244.880 104.800 244.868 C 104.250 244.862,103.440 245.011,103.000 245.200 M173.400 245.200 C 173.840 245.389,174.560 245.538,175.000 245.532 C 175.643 245.523,175.604 245.457,174.800 245.200 C 173.432 244.762,172.381 244.762,173.400 245.200 M99.000 246.000 C 97.981 246.438,99.032 246.438,100.400 246.000 C 101.204 245.743,101.243 245.677,100.600 245.668 C 100.160 245.662,99.440 245.811,99.000 246.000 M176.600 246.000 C 177.040 246.189,177.760 246.338,178.200 246.332 C 178.843 246.323,178.804 246.257,178.000 246.000 C 176.632 245.562,175.581 245.562,176.600 246.000 M94.800 246.800 C 93.996 247.057,93.957 247.123,94.600 247.132 C 95.040 247.138,95.760 246.989,96.200 246.800 C 97.219 246.362,96.168 246.362,94.800 246.800 M179.600 246.800 C 179.930 247.013,180.560 247.178,181.000 247.166 L 181.800 247.144 181.000 246.800 C 179.804 246.286,178.805 246.286,179.600 246.800 M91.000 247.600 L 90.200 247.944 91.000 247.944 C 91.440 247.944,92.160 247.789,92.600 247.600 L 93.400 247.256 92.600 247.256 C 92.160 247.256,91.440 247.411,91.000 247.600 M182.000 247.363 C 182.000 247.655,186.412 248.921,186.639 248.695 C 186.760 248.573,185.873 248.187,184.668 247.837 C 182.352 247.164,182.000 247.101,182.000 247.363 M227.047 251.100 C 227.290 251.705,227.723 252.965,228.009 253.900 C 228.294 254.835,228.679 255.600,228.864 255.600 C 229.049 255.600,229.200 256.064,229.200 256.631 C 229.200 257.312,229.745 258.186,230.800 259.200 C 231.680 260.046,232.400 260.910,232.400 261.120 C 232.400 261.331,233.094 262.218,233.942 263.092 C 235.634 264.836,236.423 266.800,235.431 266.800 C 235.110 266.800,234.736 266.620,234.600 266.400 C 234.464 266.180,233.744 266.000,233.000 266.000 C 232.256 266.000,231.536 265.820,231.400 265.600 C 231.264 265.380,230.771 265.200,230.305 265.200 C 229.494 265.200,227.509 264.656,225.800 263.966 C 225.360 263.788,223.351 263.091,221.336 262.416 C 217.100 260.997,213.200 259.279,213.200 258.832 C 213.200 258.514,221.343 253.027,223.300 252.027 C 223.905 251.718,224.400 251.315,224.400 251.132 C 224.400 250.950,224.760 250.800,225.200 250.800 C 225.640 250.800,226.000 250.620,226.000 250.400 C 226.000 249.611,226.613 250.021,227.047 251.100 M106.170 294.678 C 106.229 295.075,106.409 295.370,106.571 295.333 C 107.179 295.196,107.202 294.900,106.642 294.435 C 106.172 294.045,106.084 294.090,106.170 294.678 M114.400 298.000 C 113.583 298.913,112.625 299.571,112.100 299.582 C 111.605 299.592,111.200 299.745,111.200 299.922 C 111.200 300.396,113.766 302.800,114.272 302.800 C 114.511 302.800,114.800 303.156,114.914 303.592 C 115.141 304.459,117.146 303.984,120.900 302.175 C 122.222 301.538,122.972 300.400,122.071 300.400 C 121.890 300.400,120.778 299.500,119.600 298.400 C 117.034 296.004,116.243 295.943,114.400 298.000 M109.206 298.011 C 109.445 298.457,109.796 298.726,109.986 298.609 C 110.176 298.491,110.423 298.621,110.535 298.898 C 110.689 299.277,110.841 299.254,111.155 298.800 C 111.468 298.348,111.402 298.140,110.885 297.955 C 110.508 297.820,110.068 297.910,109.906 298.155 C 109.723 298.432,109.610 298.337,109.606 297.900 C 109.603 297.515,109.414 297.200,109.186 297.200 C 108.907 297.200,108.914 297.465,109.206 298.011 M196.060 333.842 C 195.331 334.666,195.800 335.057,196.581 334.276 C 196.921 333.936,197.200 333.554,197.200 333.429 C 197.200 333.009,196.606 333.224,196.060 333.842 " stroke="none" fill="#d995ef" fill-rule="evenodd"></path><path id="path4" d="M362.200 56.000 C 362.064 56.220,361.243 56.400,360.376 56.400 C 359.509 56.400,358.800 56.580,358.800 56.800 C 358.800 57.020,358.091 57.200,357.224 57.200 C 356.357 57.200,355.536 57.380,355.400 57.600 C 355.264 57.820,354.533 58.000,353.776 58.000 C 353.019 58.000,352.400 58.180,352.400 58.400 C 352.400 58.620,351.759 58.800,350.976 58.800 C 350.129 58.800,349.653 58.962,349.800 59.200 C 349.951 59.444,349.337 59.600,348.224 59.600 C 347.221 59.600,346.400 59.780,346.400 60.000 C 346.400 60.220,345.950 60.400,345.400 60.400 C 344.850 60.400,344.400 60.580,344.400 60.800 C 344.400 61.020,343.972 61.200,343.449 61.200 C 342.926 61.200,342.264 61.482,341.978 61.826 C 341.692 62.171,340.905 62.735,340.229 63.080 C 339.553 63.425,337.470 64.980,335.600 66.537 C 333.730 68.093,331.094 70.274,329.743 71.383 C 324.460 75.718,323.572 76.505,323.756 76.690 C 324.190 77.123,326.800 77.245,326.800 76.833 C 326.800 76.595,327.081 76.400,327.424 76.400 C 327.767 76.400,327.928 76.593,327.782 76.830 C 327.635 77.067,327.882 77.031,328.332 76.749 C 328.781 76.469,329.059 76.096,328.951 75.920 C 328.842 75.744,329.573 75.600,330.576 75.600 C 331.579 75.600,332.400 75.420,332.400 75.200 C 332.400 74.980,332.771 74.800,333.224 74.800 C 333.677 74.800,333.936 74.620,333.800 74.400 C 333.653 74.162,334.129 74.000,334.976 74.000 C 335.759 74.000,336.400 73.820,336.400 73.600 C 336.400 73.380,336.814 73.200,337.320 73.200 C 337.826 73.200,338.482 72.975,338.779 72.700 C 339.216 72.294,339.255 72.309,338.986 72.779 C 338.796 73.112,339.179 72.984,339.890 72.479 C 340.601 71.972,341.722 71.600,342.538 71.600 C 343.316 71.600,344.064 71.420,344.200 71.200 C 344.336 70.980,344.876 70.800,345.400 70.800 C 345.924 70.800,346.464 70.620,346.600 70.400 C 346.736 70.180,347.362 70.000,347.990 70.000 C 348.619 70.000,349.193 69.829,349.267 69.620 C 349.340 69.411,350.177 69.195,351.126 69.140 C 352.075 69.085,352.940 68.896,353.049 68.720 C 353.158 68.544,353.676 68.400,354.200 68.400 C 354.724 68.400,355.264 68.220,355.400 68.000 C 355.536 67.780,356.717 67.600,358.024 67.600 C 359.341 67.600,360.400 67.422,360.400 67.200 C 360.400 66.980,361.199 66.800,362.176 66.800 C 363.153 66.800,364.064 66.620,364.200 66.400 C 364.346 66.164,366.730 66.000,370.000 66.000 C 373.270 66.000,375.654 66.164,375.800 66.400 C 375.936 66.620,376.541 66.800,377.144 66.800 C 378.340 66.800,380.392 67.620,380.397 68.100 C 380.399 68.265,380.675 68.400,381.011 68.400 C 381.804 68.400,385.200 71.796,385.200 72.589 C 385.200 72.925,385.380 73.200,385.600 73.200 C 385.842 73.200,386.000 74.933,386.000 77.600 C 386.000 80.267,385.842 82.000,385.600 82.000 C 385.380 82.000,385.200 82.540,385.200 83.200 C 385.200 83.860,385.020 84.400,384.800 84.400 C 384.580 84.400,384.400 84.940,384.400 85.600 C 384.400 86.260,384.220 86.800,384.000 86.800 C 383.780 86.800,383.600 87.149,383.600 87.576 C 383.600 88.003,383.420 88.464,383.200 88.600 C 382.980 88.736,382.800 89.287,382.800 89.824 C 382.800 90.361,382.620 90.800,382.400 90.800 C 382.180 90.800,382.000 91.078,382.000 91.417 C 382.000 91.756,381.640 92.420,381.200 92.892 C 380.760 93.364,380.400 93.987,380.400 94.275 C 380.400 94.564,380.220 94.800,380.000 94.800 C 379.780 94.800,379.600 95.160,379.600 95.600 C 379.600 96.040,379.420 96.400,379.200 96.400 C 378.980 96.400,378.800 96.720,378.800 97.112 C 378.800 97.503,378.440 98.083,378.000 98.400 C 377.560 98.717,377.200 99.257,377.200 99.600 C 377.200 99.943,376.840 100.483,376.400 100.800 C 375.960 101.117,375.600 101.657,375.600 102.000 C 375.600 102.343,375.240 102.883,374.800 103.200 C 374.360 103.517,374.000 104.057,374.000 104.400 C 374.000 104.743,373.640 105.283,373.200 105.600 C 372.760 105.917,372.400 106.369,372.400 106.604 C 372.400 106.840,371.680 107.828,370.800 108.800 C 369.920 109.772,369.200 110.728,369.200 110.924 C 369.200 111.119,368.660 111.783,368.000 112.400 C 367.340 113.017,366.800 113.730,366.800 113.986 C 366.800 114.242,365.900 115.329,364.800 116.400 C 363.700 117.471,362.800 118.548,362.800 118.793 C 362.800 119.038,361.540 120.481,360.000 122.000 C 358.460 123.519,357.200 124.956,357.200 125.195 C 357.200 125.433,355.400 127.415,353.200 129.600 C 351.000 131.785,349.200 133.848,349.200 134.186 C 349.200 134.524,348.870 134.800,348.468 134.800 C 348.065 134.800,347.480 135.284,347.168 135.875 C 346.566 137.013,335.445 148.391,334.913 148.413 C 334.295 148.438,332.400 150.374,332.400 150.981 C 332.400 151.321,332.124 151.600,331.787 151.600 C 330.674 151.600,328.400 154.264,328.400 155.567 C 328.400 157.249,331.604 165.200,332.282 165.200 C 332.584 165.200,334.402 163.615,336.322 161.679 C 338.242 159.742,340.125 158.037,340.507 157.891 C 340.888 157.745,341.200 157.349,341.200 157.013 C 341.200 156.667,341.548 156.400,342.000 156.400 C 342.461 156.400,342.800 156.133,342.800 155.771 C 342.800 154.963,343.763 154.000,344.571 154.000 C 344.933 154.000,345.200 153.661,345.200 153.200 C 345.200 152.667,345.467 152.400,346.000 152.400 C 346.533 152.400,346.800 152.133,346.800 151.600 C 346.800 151.067,347.067 150.800,347.600 150.800 C 348.061 150.800,348.400 150.533,348.400 150.171 C 348.400 149.443,349.099 148.669,350.100 148.290 C 350.485 148.144,350.800 147.839,350.800 147.612 C 350.800 147.385,353.320 144.673,356.400 141.586 C 359.480 138.499,362.000 135.790,362.000 135.567 C 362.000 135.344,363.260 133.919,364.800 132.400 C 366.340 130.881,367.600 129.440,367.600 129.197 C 367.600 128.954,368.680 127.696,370.000 126.400 C 371.320 125.104,372.400 123.855,372.400 123.624 C 372.400 123.393,373.300 122.285,374.400 121.161 C 375.500 120.038,376.400 118.939,376.400 118.720 C 376.400 118.501,376.940 117.817,377.600 117.200 C 378.260 116.583,378.800 115.863,378.800 115.600 C 378.800 115.337,379.340 114.617,380.000 114.000 C 380.660 113.383,381.200 112.663,381.200 112.400 C 381.200 112.137,381.740 111.417,382.400 110.800 C 383.060 110.183,383.600 109.391,383.600 109.040 C 383.600 108.688,383.780 108.400,384.000 108.400 C 384.220 108.400,384.400 108.112,384.400 107.760 C 384.400 107.409,384.940 106.617,385.600 106.000 C 386.260 105.383,386.800 104.631,386.800 104.328 C 386.800 104.025,387.160 103.517,387.600 103.200 C 388.040 102.883,388.400 102.303,388.400 101.912 C 388.400 101.520,388.580 101.200,388.800 101.200 C 389.020 101.200,389.200 100.880,389.200 100.488 C 389.200 100.097,389.560 99.517,390.000 99.200 C 390.440 98.883,390.800 98.303,390.800 97.912 C 390.800 97.520,390.980 97.200,391.200 97.200 C 391.420 97.200,391.600 96.880,391.600 96.488 C 391.600 96.097,391.960 95.517,392.400 95.200 C 392.840 94.883,393.200 94.303,393.200 93.912 C 393.200 93.520,393.380 93.200,393.600 93.200 C 393.820 93.200,394.000 92.840,394.000 92.400 C 394.000 91.960,394.180 91.600,394.400 91.600 C 394.620 91.600,394.800 91.240,394.800 90.800 C 394.800 90.360,394.980 90.000,395.200 90.000 C 395.420 90.000,395.600 89.460,395.600 88.800 C 395.600 88.140,395.780 87.600,396.000 87.600 C 396.220 87.600,396.400 87.240,396.400 86.800 C 396.400 86.360,396.580 86.000,396.800 86.000 C 397.020 86.000,397.200 85.460,397.200 84.800 C 397.200 84.140,397.380 83.600,397.600 83.600 C 397.820 83.600,398.000 83.060,398.000 82.400 C 398.000 81.740,398.180 81.200,398.400 81.200 C 398.620 81.200,398.800 80.581,398.800 79.824 C 398.800 79.067,398.980 78.336,399.200 78.200 C 399.440 78.052,399.600 75.396,399.600 71.576 C 399.600 67.592,399.450 65.200,399.200 65.200 C 398.980 65.200,398.800 64.840,398.800 64.400 C 398.800 63.960,398.620 63.600,398.400 63.600 C 398.180 63.600,398.000 63.326,398.000 62.991 C 398.000 62.199,393.801 58.000,393.009 58.000 C 392.674 58.000,392.400 57.820,392.400 57.600 C 392.400 57.380,392.040 57.200,391.600 57.200 C 391.160 57.200,390.800 57.020,390.800 56.800 C 390.800 56.580,390.260 56.400,389.600 56.400 C 388.940 56.400,388.400 56.220,388.400 56.000 C 388.400 55.742,383.808 55.600,375.424 55.600 C 367.204 55.600,362.357 55.747,362.200 56.000 M284.962 99.640 C 284.983 100.168,285.180 100.737,285.400 100.905 C 285.638 101.086,285.102 101.852,284.079 102.792 C 281.266 105.381,281.438 105.781,287.426 110.583 C 289.928 112.591,291.109 113.618,291.928 114.500 C 292.285 114.885,292.776 115.200,293.019 115.200 C 293.262 115.200,293.868 115.634,294.367 116.165 L 295.273 117.129 297.837 114.578 C 300.726 111.703,300.689 111.769,299.599 111.484 C 299.159 111.369,298.899 111.437,299.021 111.635 C 299.144 111.833,298.780 111.956,298.213 111.909 C 297.465 111.847,297.249 111.656,297.425 111.212 C 298.012 109.739,297.944 109.289,297.168 109.492 C 296.549 109.654,296.400 109.481,296.400 108.604 C 296.400 107.840,296.234 107.578,295.846 107.727 C 294.911 108.086,293.644 106.919,293.901 105.936 C 294.082 105.244,293.992 105.118,293.464 105.320 C 293.099 105.460,292.800 105.390,292.800 105.164 C 292.800 104.938,292.632 104.856,292.428 104.983 C 291.996 105.249,291.426 104.474,291.411 103.600 C 291.404 103.225,291.003 102.993,290.340 102.982 C 289.300 102.964,287.795 102.071,288.171 101.695 C 288.276 101.591,288.662 101.805,289.029 102.171 C 289.395 102.538,289.775 102.759,289.872 102.661 C 290.168 102.365,288.004 100.400,287.382 100.400 C 287.062 100.400,286.800 100.205,286.800 99.967 C 286.800 99.728,286.575 99.609,286.300 99.702 C 286.025 99.794,285.603 99.603,285.362 99.276 C 285.002 98.788,284.931 98.853,284.962 99.640 M281.248 153.901 C 281.180 154.611,235.887 199.827,235.401 199.671 C 235.180 199.601,235.225 199.772,235.500 200.051 C 236.041 200.601,236.172 203.149,235.694 203.800 C 234.789 205.032,234.048 205.269,232.665 204.769 C 231.384 204.306,231.218 204.345,230.211 205.353 L 229.130 206.433 231.252 208.617 C 234.957 212.429,232.583 214.219,259.401 187.401 C 283.877 162.925,284.016 162.766,282.000 161.507 C 281.113 160.954,280.973 159.953,281.633 158.895 C 281.933 158.414,281.948 157.461,281.681 155.800 C 281.470 154.480,281.275 153.625,281.248 153.901 M258.992 178.209 C 246.750 190.451,236.645 200.378,236.535 200.268 C 236.426 200.159,246.385 190.010,258.668 177.716 C 270.951 165.421,281.056 155.495,281.125 155.657 C 281.194 155.819,271.234 165.967,258.992 178.209 M255.400 186.800 C 255.400 188.681,253.017 189.202,252.569 187.419 C 252.233 186.080,253.035 185.125,254.366 185.280 C 255.258 185.384,255.400 185.592,255.400 186.800 M232.000 204.939 C 232.000 205.324,230.445 206.800,230.039 206.800 C 229.782 206.800,229.983 206.361,230.486 205.824 C 231.298 204.957,232.000 204.547,232.000 204.939 M96.224 268.200 C 97.396 270.242,100.545 275.090,102.914 278.500 C 103.641 279.545,105.712 282.198,107.517 284.395 C 109.323 286.593,110.800 288.495,110.800 288.622 C 110.800 288.977,106.402 284.496,106.387 284.126 C 106.381 283.947,105.969 283.506,105.473 283.146 C 103.638 281.815,99.511 286.846,101.230 288.318 C 101.653 288.681,102.000 289.208,102.000 289.489 C 102.000 289.770,102.180 290.000,102.400 290.000 C 102.620 290.000,102.800 290.272,102.800 290.605 C 102.800 291.874,105.182 294.808,106.200 294.793 C 106.420 294.790,106.330 294.613,106.000 294.400 C 105.639 294.167,105.590 294.010,105.876 294.006 C 106.492 293.998,107.008 294.829,106.878 295.621 C 106.815 296.009,107.315 296.453,108.213 296.805 C 109.246 297.211,109.599 297.562,109.469 298.057 C 109.368 298.445,109.706 299.136,110.245 299.642 C 110.770 300.136,111.200 300.328,111.200 300.070 C 111.200 299.811,111.574 299.600,112.031 299.600 C 112.489 299.600,113.554 298.880,114.400 298.000 C 116.384 295.935,117.012 295.983,119.600 298.400 C 120.778 299.500,121.890 300.400,122.071 300.400 C 122.972 300.400,122.222 301.538,120.900 302.175 C 118.846 303.165,115.306 304.373,115.091 304.157 C 114.993 304.060,114.686 304.255,114.408 304.590 C 114.130 304.926,113.564 305.200,113.151 305.200 C 112.738 305.200,112.400 305.380,112.400 305.600 C 112.400 305.820,112.040 306.000,111.600 306.000 C 111.160 306.000,110.799 306.135,110.797 306.300 C 110.793 306.659,108.856 307.600,108.120 307.600 C 107.834 307.600,107.600 307.780,107.600 308.000 C 107.600 308.220,107.240 308.400,106.800 308.400 C 106.360 308.400,106.000 308.580,106.000 308.800 C 106.000 309.020,105.640 309.200,105.200 309.200 C 104.760 309.200,104.400 309.380,104.400 309.600 C 104.400 309.820,104.040 310.000,103.600 310.000 C 103.160 310.000,102.800 310.180,102.800 310.400 C 102.800 310.620,102.440 310.800,102.000 310.800 C 101.560 310.800,101.200 310.980,101.200 311.200 C 101.200 311.420,100.840 311.600,100.400 311.600 C 99.960 311.600,99.600 311.780,99.600 312.000 C 99.600 312.220,99.240 312.400,98.800 312.400 C 98.360 312.400,98.000 312.580,98.000 312.800 C 98.000 313.020,97.661 313.200,97.246 313.200 C 96.400 313.200,94.316 314.183,94.587 314.454 C 94.683 314.550,94.276 314.669,93.681 314.718 C 93.086 314.767,92.540 314.985,92.467 315.203 C 92.393 315.422,91.988 315.600,91.567 315.600 C 91.145 315.600,90.800 315.780,90.800 316.000 C 90.800 316.220,90.440 316.400,90.000 316.400 C 89.560 316.400,89.200 316.580,89.200 316.800 C 89.200 317.020,88.742 317.200,88.183 317.200 C 87.624 317.200,86.780 317.560,86.308 318.000 C 85.836 318.440,85.033 318.800,84.525 318.800 C 84.016 318.800,83.600 318.980,83.600 319.200 C 83.600 319.420,83.240 319.600,82.800 319.600 C 82.360 319.600,82.000 319.780,82.000 320.000 C 82.000 320.220,81.460 320.400,80.800 320.400 C 80.140 320.400,79.600 320.580,79.600 320.800 C 79.600 321.020,79.240 321.200,78.800 321.200 C 78.360 321.200,78.000 321.380,78.000 321.600 C 78.000 321.820,77.460 322.000,76.800 322.000 C 76.140 322.000,75.600 322.180,75.600 322.400 C 75.600 322.620,75.161 322.800,74.624 322.800 C 74.087 322.800,73.536 322.980,73.400 323.200 C 73.264 323.420,72.803 323.600,72.376 323.600 C 71.949 323.600,71.600 323.780,71.600 324.000 C 71.600 324.220,71.060 324.400,70.400 324.400 C 69.740 324.400,69.200 324.580,69.200 324.800 C 69.200 325.020,68.840 325.200,68.400 325.200 C 67.960 325.200,67.600 325.380,67.600 325.600 C 67.600 325.820,67.060 326.000,66.400 326.000 C 65.740 326.000,65.200 326.180,65.200 326.400 C 65.200 326.620,64.660 326.800,64.000 326.800 C 63.340 326.800,62.800 326.980,62.800 327.200 C 62.800 327.420,62.260 327.600,61.600 327.600 C 60.940 327.600,60.400 327.780,60.400 328.000 C 60.400 328.220,60.040 328.400,59.600 328.400 C 59.160 328.400,58.800 328.580,58.800 328.800 C 58.800 329.020,58.080 329.200,57.200 329.200 C 56.320 329.200,55.600 329.380,55.600 329.600 C 55.600 329.820,55.060 330.000,54.400 330.000 C 53.740 330.000,53.200 330.180,53.200 330.400 C 53.200 330.620,52.480 330.800,51.600 330.800 C 50.720 330.800,50.000 330.980,50.000 331.200 C 50.000 331.420,49.280 331.600,48.400 331.600 C 47.520 331.600,46.800 331.780,46.800 332.000 C 46.800 332.220,46.080 332.400,45.200 332.400 C 44.320 332.400,43.600 332.580,43.600 332.800 C 43.600 333.020,42.700 333.200,41.600 333.200 C 40.500 333.200,39.600 333.380,39.600 333.600 C 39.600 333.820,38.621 334.000,37.424 334.000 C 36.227 334.000,35.136 334.180,35.000 334.400 C 34.856 334.633,32.604 334.800,29.600 334.800 C 26.596 334.800,24.344 334.633,24.200 334.400 C 24.064 334.180,23.440 334.000,22.814 334.000 C 21.711 334.000,18.337 332.507,18.067 331.900 C 17.993 331.735,17.670 331.600,17.348 331.600 C 16.564 331.600,14.800 329.797,14.800 328.995 C 14.800 328.642,14.620 328.464,14.400 328.600 C 14.180 328.736,14.000 328.594,14.000 328.286 C 14.000 325.397,11.980 326.480,3.261 334.039 C 2.525 334.678,1.760 335.200,1.561 335.200 C 1.363 335.200,1.200 335.391,1.200 335.624 C 1.200 335.857,1.380 335.936,1.600 335.800 C 1.942 335.589,2.220 337.059,2.040 338.121 C 1.953 338.634,3.084 339.600,3.771 339.600 C 4.117 339.600,4.400 339.883,4.400 340.229 C 4.400 341.000,5.351 342.000,6.083 342.000 C 6.380 342.000,6.883 342.360,7.200 342.800 C 7.517 343.240,8.097 343.600,8.488 343.600 C 8.880 343.600,9.200 343.780,9.200 344.000 C 9.200 344.220,9.729 344.400,10.376 344.400 C 11.023 344.400,11.664 344.580,11.800 344.800 C 11.956 345.053,16.671 345.200,24.624 345.200 C 32.741 345.200,37.200 345.058,37.200 344.800 C 37.200 344.580,38.100 344.400,39.200 344.400 C 40.300 344.400,41.200 344.220,41.200 344.000 C 41.200 343.780,42.100 343.600,43.200 343.600 C 44.300 343.600,45.200 343.420,45.200 343.200 C 45.200 342.980,45.729 342.800,46.376 342.800 C 47.023 342.800,47.664 342.620,47.800 342.400 C 47.936 342.180,48.656 342.000,49.400 342.000 C 50.144 342.000,50.864 341.820,51.000 341.600 C 51.136 341.380,51.867 341.200,52.624 341.200 C 53.381 341.200,54.000 341.020,54.000 340.800 C 54.000 340.580,54.540 340.400,55.200 340.400 C 55.860 340.400,56.400 340.220,56.400 340.000 C 56.400 339.780,57.120 339.600,58.000 339.600 C 58.880 339.600,59.600 339.420,59.600 339.200 C 59.600 338.980,60.140 338.800,60.800 338.800 C 61.460 338.800,62.000 338.620,62.000 338.400 C 62.000 338.180,62.540 338.000,63.200 338.000 C 63.860 338.000,64.400 337.820,64.400 337.600 C 64.400 337.380,64.940 337.200,65.600 337.200 C 66.260 337.200,66.800 337.020,66.800 336.800 C 66.800 336.580,67.340 336.400,68.000 336.400 C 68.660 336.400,69.200 336.220,69.200 336.000 C 69.200 335.780,69.740 335.600,70.400 335.600 C 71.060 335.600,71.600 335.420,71.600 335.200 C 71.600 334.980,71.960 334.800,72.400 334.800 C 72.840 334.800,73.200 334.620,73.200 334.400 C 73.200 334.180,73.639 334.000,74.176 334.000 C 74.713 334.000,75.264 333.820,75.400 333.600 C 75.536 333.380,76.076 333.200,76.600 333.200 C 77.124 333.200,77.664 333.020,77.800 332.800 C 77.936 332.580,78.397 332.400,78.824 332.400 C 79.251 332.400,79.600 332.220,79.600 332.000 C 79.600 331.780,80.039 331.600,80.576 331.600 C 81.113 331.600,81.664 331.420,81.800 331.200 C 81.936 330.980,82.397 330.800,82.824 330.800 C 83.251 330.800,83.600 330.620,83.600 330.400 C 83.600 330.180,84.140 330.000,84.800 330.000 C 85.460 330.000,86.000 329.820,86.000 329.600 C 86.000 329.380,86.360 329.200,86.800 329.200 C 87.240 329.200,87.600 329.020,87.600 328.800 C 87.600 328.580,88.005 328.396,88.500 328.391 C 88.995 328.386,89.850 328.030,90.400 327.600 C 90.950 327.170,91.805 326.814,92.300 326.809 C 92.795 326.804,93.200 326.620,93.200 326.400 C 93.200 326.180,93.545 326.000,93.967 326.000 C 94.388 326.000,94.793 325.822,94.867 325.603 C 94.940 325.385,95.486 325.167,96.081 325.118 C 96.676 325.069,97.083 324.950,96.987 324.854 C 96.716 324.583,98.800 323.600,99.646 323.600 C 100.061 323.600,100.400 323.420,100.400 323.200 C 100.400 322.980,100.760 322.800,101.200 322.800 C 101.640 322.800,102.000 322.620,102.000 322.400 C 102.000 322.180,102.360 322.000,102.800 322.000 C 103.240 322.000,103.600 321.820,103.600 321.600 C 103.600 321.380,104.140 321.200,104.800 321.200 C 105.460 321.200,106.000 321.020,106.000 320.800 C 106.000 320.580,106.360 320.400,106.800 320.400 C 107.240 320.400,107.600 320.220,107.600 320.000 C 107.600 319.780,107.878 319.600,108.217 319.600 C 108.556 319.600,109.220 319.240,109.692 318.800 C 110.164 318.360,110.967 318.000,111.475 318.000 C 111.984 318.000,112.401 317.865,112.403 317.700 C 112.407 317.341,114.344 316.400,115.080 316.400 C 115.366 316.400,115.600 316.220,115.600 316.000 C 115.600 315.780,115.960 315.600,116.400 315.600 C 116.840 315.600,117.200 315.420,117.200 315.200 C 117.200 314.980,117.560 314.800,118.000 314.800 C 118.440 314.800,118.800 314.620,118.800 314.400 C 118.800 314.180,119.160 314.000,119.600 314.000 C 120.040 314.000,120.401 313.865,120.403 313.700 C 120.406 313.386,122.306 312.400,122.908 312.400 C 123.377 312.400,124.187 311.552,124.495 310.739 C 124.633 310.375,125.964 309.471,127.454 308.730 L 130.162 307.383 134.981 310.640 C 146.321 318.306,163.861 325.924,175.200 328.108 C 175.750 328.214,177.550 328.574,179.200 328.907 C 182.353 329.543,185.528 330.052,191.246 330.838 C 196.547 331.567,214.369 331.147,215.630 330.264 C 216.152 329.899,216.801 329.600,217.074 329.600 C 217.346 329.600,218.897 328.970,220.519 328.200 C 222.141 327.430,223.654 326.800,223.881 326.800 C 224.108 326.800,225.172 326.452,226.247 326.027 C 227.321 325.603,229.730 324.685,231.600 323.989 C 237.959 321.621,240.723 320.577,242.200 319.982 C 242.640 319.805,244.800 319.002,247.000 318.198 C 249.200 317.394,251.450 316.551,252.000 316.325 C 252.550 316.099,253.990 315.583,255.200 315.179 C 256.410 314.775,258.930 313.878,260.800 313.184 C 262.670 312.491,264.650 311.782,265.200 311.610 C 265.750 311.437,268.246 310.465,270.747 309.448 C 273.248 308.432,275.543 307.600,275.847 307.600 C 276.151 307.600,276.400 307.432,276.400 307.227 C 276.400 307.022,276.758 306.740,277.195 306.602 C 281.616 305.198,300.220 288.479,303.078 283.341 C 303.619 282.368,302.945 282.016,300.524 282.005 C 299.822 282.002,299.136 281.820,299.000 281.600 C 298.864 281.380,298.252 281.200,297.640 281.200 C 297.028 281.200,295.644 280.934,294.564 280.609 C 292.903 280.108,286.197 279.090,272.226 277.216 C 270.701 277.011,269.300 276.938,269.113 277.054 C 268.925 277.170,267.204 277.078,265.286 276.851 C 263.369 276.624,257.968 276.217,253.284 275.947 L 244.768 275.455 245.016 274.328 C 245.254 273.245,245.202 273.200,243.732 273.189 C 242.889 273.183,237.430 272.913,231.600 272.589 C 225.770 272.264,214.775 271.881,207.166 271.737 L 193.332 271.475 188.366 274.019 C 182.818 276.862,182.608 276.893,174.487 276.079 C 169.869 275.616,169.765 275.501,172.100 273.436 C 173.145 272.513,174.000 271.568,174.000 271.337 C 174.000 270.866,164.477 270.610,124.000 269.991 L 98.200 269.597 96.638 267.898 L 95.077 266.200 96.224 268.200 M97.200 284.708 C 97.200 284.932,97.473 285.219,97.806 285.347 C 98.139 285.475,98.618 286.079,98.869 286.690 C 99.269 287.661,99.349 287.702,99.509 287.015 C 99.609 286.584,99.483 286.161,99.229 286.076 C 98.891 285.964,98.885 285.779,99.206 285.393 C 99.545 284.984,99.480 284.891,98.922 284.981 C 98.525 285.045,97.975 284.918,97.700 284.700 C 97.367 284.435,97.200 284.438,97.200 284.708 M111.330 298.639 C 111.078 299.295,110.400 299.394,110.400 298.776 C 110.400 298.543,110.222 298.463,110.005 298.597 C 109.784 298.733,109.707 298.586,109.830 298.265 C 109.957 297.934,110.370 297.772,110.798 297.884 C 111.237 297.998,111.456 298.310,111.330 298.639 " stroke="none" fill="#fb40fa" fill-rule="evenodd"></path></g></svg>