<svg id="svg" version="1.1" xmlns="http://www.w3.org/2000/svg" xmlns:xlink="http://www.w3.org/1999/xlink" width="400" height="400" viewBox="0, 0, 400,400"><g id="svgg"><path id="path0" d="M293.596 172.996 L 303.385 182.791 319.993 182.896 L 336.600 183.000 336.704 199.600 L 336.808 216.200 346.501 225.900 C 351.832 231.235,356.330 235.600,356.497 235.600 C 356.664 235.600,356.800 219.310,356.800 199.400 L 356.800 163.200 320.303 163.200 L 283.806 163.200 293.596 172.996 M68.837 168.893 C 67.798 171.591,51.803 211.386,48.024 220.673 C 45.591 226.654,43.600 231.742,43.600 231.982 C 43.600 232.284,46.061 232.384,51.681 232.308 L 59.761 232.200 60.665 230.000 C 61.162 228.790,62.255 226.000,63.095 223.800 L 64.621 219.800 79.343 219.695 L 94.065 219.590 94.932 221.674 C 95.410 222.819,96.618 225.657,97.618 227.979 L 99.436 232.200 107.718 232.308 C 112.273 232.368,116.000 232.323,116.000 232.210 C 116.000 232.096,109.620 217.647,101.823 200.101 L 87.645 168.200 78.416 168.093 L 69.186 167.985 68.837 168.893 M124.667 168.267 C 124.520 168.413,124.400 182.903,124.400 200.467 L 124.400 232.400 132.200 232.400 L 140.000 232.400 140.000 212.400 C 140.000 198.754,140.133 192.400,140.418 192.400 C 141.010 192.400,141.686 193.141,150.200 203.119 C 160.033 214.644,158.111 214.698,168.501 202.600 C 176.582 193.190,177.465 192.270,178.059 192.636 C 178.247 192.752,178.400 201.747,178.400 212.624 L 178.400 232.400 186.002 232.400 L 193.605 232.400 193.502 200.300 L 193.400 168.200 186.887 168.090 L 180.373 167.980 179.159 169.290 C 178.491 170.011,175.842 173.029,173.272 175.998 C 163.337 187.477,159.855 191.411,159.379 191.696 C 158.871 192.000,157.836 190.877,146.396 177.600 C 143.268 173.970,140.063 170.325,139.273 169.500 L 137.838 168.000 131.385 168.000 C 127.837 168.000,124.813 168.120,124.667 168.267 M206.800 200.239 L 206.800 232.477 224.300 232.275 C 244.030 232.047,245.657 231.851,252.876 228.832 C 276.007 219.157,276.959 183.911,254.400 172.421 C 246.868 168.584,242.665 168.000,222.604 168.000 L 206.800 168.000 206.800 200.239 M237.600 179.760 C 248.726 181.581,254.400 188.502,254.400 200.254 C 254.400 210.333,249.794 217.260,241.312 219.937 C 238.314 220.883,225.887 221.660,223.466 221.052 L 222.400 220.785 222.400 200.259 C 222.400 188.970,222.520 179.613,222.667 179.467 C 223.154 178.979,234.148 179.195,237.600 179.760 M79.992 185.700 C 80.957 187.954,84.575 196.695,87.452 203.721 C 88.425 206.098,89.116 208.213,88.987 208.421 C 88.559 209.113,69.200 208.908,69.200 208.212 C 69.200 207.666,69.815 205.920,72.796 198.000 C 79.088 181.284,78.519 182.258,79.992 185.700 M292.495 198.504 L 282.390 208.616 282.495 223.008 L 282.600 237.400 296.977 237.505 L 311.354 237.610 321.457 227.535 C 327.014 221.994,331.469 217.312,331.357 217.130 C 331.245 216.949,324.863 216.800,317.176 216.800 C 309.489 216.800,303.163 216.755,303.118 216.700 C 303.073 216.645,302.938 210.253,302.818 202.496 L 302.600 188.393 292.495 198.504 " stroke="none" fill="#050505" fill-rule="evenodd"></path><path id="path1" d="M178.500 0.274 C 176.465 0.360,174.800 0.603,174.800 0.815 C 174.800 1.030,173.383 1.200,171.600 1.200 C 169.733 1.200,168.400 1.367,168.400 1.600 C 168.400 1.820,167.421 2.000,166.224 2.000 C 165.027 2.000,163.936 2.180,163.800 2.400 C 163.664 2.620,162.663 2.800,161.576 2.800 C 160.489 2.800,159.600 2.980,159.600 3.200 C 159.600 3.420,158.801 3.600,157.824 3.600 C 156.847 3.600,155.936 3.780,155.800 4.000 C 155.664 4.220,154.843 4.400,153.976 4.400 C 153.109 4.400,152.400 4.580,152.400 4.800 C 152.400 5.020,151.680 5.200,150.800 5.200 C 149.920 5.200,149.200 5.380,149.200 5.600 C 149.200 5.820,148.581 6.000,147.824 6.000 C 147.067 6.000,146.336 6.180,146.200 6.400 C 146.064 6.620,145.423 6.800,144.776 6.800 C 144.129 6.800,143.600 6.980,143.600 7.200 C 143.600 7.420,142.880 7.600,142.000 7.600 C 141.120 7.600,140.400 7.780,140.400 8.000 C 140.400 8.220,139.860 8.400,139.200 8.400 C 138.540 8.400,138.000 8.580,138.000 8.800 C 138.000 9.020,137.460 9.200,136.800 9.200 C 136.140 9.200,135.600 9.380,135.600 9.600 C 135.600 9.820,135.060 10.000,134.400 10.000 C 133.740 10.000,133.200 10.180,133.200 10.400 C 133.200 10.620,132.660 10.800,132.000 10.800 C 131.340 10.800,130.800 10.980,130.800 11.200 C 130.800 11.420,130.440 11.600,130.000 11.600 C 129.560 11.600,129.200 11.780,129.200 12.000 C 129.200 12.220,128.660 12.400,128.000 12.400 C 127.340 12.400,126.800 12.580,126.800 12.800 C 126.800 13.020,126.440 13.200,126.000 13.200 C 125.560 13.200,125.200 13.380,125.200 13.600 C 125.200 13.820,124.660 14.000,124.000 14.000 C 123.340 14.000,122.800 14.180,122.800 14.400 C 122.800 14.620,122.440 14.800,122.000 14.800 C 121.560 14.800,121.200 14.980,121.200 15.200 C 121.200 15.420,120.761 15.600,120.224 15.600 C 119.687 15.600,119.136 15.780,119.000 16.000 C 118.864 16.220,118.403 16.400,117.976 16.400 C 117.549 16.400,117.200 16.580,117.200 16.800 C 117.200 17.020,116.840 17.200,116.400 17.200 C 115.960 17.200,115.600 17.380,115.600 17.600 C 115.600 17.820,115.240 18.000,114.800 18.000 C 114.360 18.000,114.000 18.180,114.000 18.400 C 114.000 18.620,113.640 18.800,113.200 18.800 C 112.760 18.800,112.400 18.980,112.400 19.200 C 112.400 19.420,112.040 19.600,111.600 19.600 C 111.160 19.600,110.800 19.780,110.800 20.000 C 110.800 20.220,110.440 20.400,110.000 20.400 C 109.560 20.400,109.200 20.580,109.200 20.800 C 109.200 21.020,108.840 21.200,108.400 21.200 C 107.960 21.200,107.600 21.380,107.600 21.600 C 107.600 21.820,107.240 22.000,106.800 22.000 C 106.360 22.000,106.000 22.180,106.000 22.400 C 106.000 22.620,105.640 22.800,105.200 22.800 C 104.760 22.800,104.400 22.980,104.400 23.200 C 104.400 23.420,104.040 23.600,103.600 23.600 C 103.160 23.600,102.800 23.780,102.800 24.000 C 102.800 24.220,102.480 24.400,102.088 24.400 C 101.697 24.400,101.117 24.760,100.800 25.200 C 100.483 25.640,99.903 26.000,99.512 26.000 C 99.120 26.000,98.800 26.180,98.800 26.400 C 98.800 26.620,98.440 26.800,98.000 26.800 C 97.560 26.800,97.200 26.980,97.200 27.200 C 97.200 27.420,96.964 27.600,96.675 27.600 C 96.387 27.600,95.764 27.960,95.292 28.400 C 94.820 28.840,94.196 29.200,93.905 29.200 C 93.614 29.200,93.117 29.560,92.800 30.000 C 92.483 30.440,91.943 30.800,91.600 30.800 C 91.257 30.800,90.717 31.160,90.400 31.600 C 90.083 32.040,89.503 32.400,89.112 32.400 C 88.720 32.400,88.400 32.580,88.400 32.800 C 88.400 33.020,88.157 33.200,87.859 33.200 C 87.562 33.200,86.754 33.740,86.063 34.400 C 85.372 35.060,84.575 35.600,84.292 35.600 C 84.009 35.600,83.517 35.960,83.200 36.400 C 82.883 36.840,82.420 37.200,82.171 37.200 C 81.922 37.200,81.154 37.740,80.463 38.400 C 79.772 39.060,79.047 39.600,78.852 39.600 C 78.656 39.600,77.755 40.320,76.848 41.200 C 75.941 42.080,75.005 42.800,74.768 42.800 C 74.531 42.800,73.646 43.520,72.800 44.400 C 71.954 45.280,71.084 46.000,70.866 46.000 C 70.648 46.000,69.373 47.080,68.032 48.400 C 66.692 49.720,65.430 50.800,65.228 50.800 C 64.750 50.800,50.800 64.750,50.800 65.228 C 50.800 65.430,49.720 66.692,48.400 68.032 C 47.080 69.373,46.000 70.648,46.000 70.866 C 46.000 71.084,45.280 71.954,44.400 72.800 C 43.520 73.646,42.800 74.531,42.800 74.768 C 42.800 75.005,42.080 75.941,41.200 76.848 C 40.320 77.755,39.600 78.656,39.600 78.852 C 39.600 79.047,39.060 79.772,38.400 80.463 C 37.740 81.154,37.200 81.922,37.200 82.171 C 37.200 82.420,36.840 82.883,36.400 83.200 C 35.960 83.517,35.600 84.009,35.600 84.292 C 35.600 84.575,35.060 85.372,34.400 86.063 C 33.740 86.754,33.200 87.562,33.200 87.859 C 33.200 88.157,33.020 88.400,32.800 88.400 C 32.580 88.400,32.400 88.720,32.400 89.112 C 32.400 89.503,32.040 90.083,31.600 90.400 C 31.160 90.717,30.800 91.257,30.800 91.600 C 30.800 91.943,30.440 92.483,30.000 92.800 C 29.560 93.117,29.200 93.614,29.200 93.905 C 29.200 94.196,28.840 94.820,28.400 95.292 C 27.960 95.764,27.600 96.387,27.600 96.675 C 27.600 96.964,27.420 97.200,27.200 97.200 C 26.980 97.200,26.800 97.560,26.800 98.000 C 26.800 98.440,26.620 98.800,26.400 98.800 C 26.180 98.800,26.000 99.120,26.000 99.512 C 26.000 99.903,25.640 100.483,25.200 100.800 C 24.760 101.117,24.400 101.697,24.400 102.088 C 24.400 102.480,24.220 102.800,24.000 102.800 C 23.780 102.800,23.600 103.160,23.600 103.600 C 23.600 104.040,23.420 104.400,23.200 104.400 C 22.980 104.400,22.800 104.760,22.800 105.200 C 22.800 105.640,22.620 106.000,22.400 106.000 C 22.180 106.000,22.000 106.360,22.000 106.800 C 22.000 107.240,21.820 107.600,21.600 107.600 C 21.380 107.600,21.200 107.960,21.200 108.400 C 21.200 108.840,21.020 109.200,20.800 109.200 C 20.580 109.200,20.400 109.560,20.400 110.000 C 20.400 110.440,20.220 110.800,20.000 110.800 C 19.780 110.800,19.600 111.160,19.600 111.600 C 19.600 112.040,19.420 112.400,19.200 112.400 C 18.980 112.400,18.800 112.760,18.800 113.200 C 18.800 113.640,18.620 114.000,18.400 114.000 C 18.180 114.000,18.000 114.360,18.000 114.800 C 18.000 115.240,17.820 115.600,17.600 115.600 C 17.380 115.600,17.200 115.960,17.200 116.400 C 17.200 116.840,17.020 117.200,16.800 117.200 C 16.580 117.200,16.400 117.549,16.400 117.976 C 16.400 118.403,16.220 118.864,16.000 119.000 C 15.780 119.136,15.600 119.687,15.600 120.224 C 15.600 120.761,15.420 121.200,15.200 121.200 C 14.980 121.200,14.800 121.560,14.800 122.000 C 14.800 122.440,14.620 122.800,14.400 122.800 C 14.180 122.800,14.000 123.340,14.000 124.000 C 14.000 124.660,13.820 125.200,13.600 125.200 C 13.380 125.200,13.200 125.560,13.200 126.000 C 13.200 126.440,13.020 126.800,12.800 126.800 C 12.580 126.800,12.400 127.340,12.400 128.000 C 12.400 128.660,12.220 129.200,12.000 129.200 C 11.780 129.200,11.600 129.560,11.600 130.000 C 11.600 130.440,11.420 130.800,11.200 130.800 C 10.980 130.800,10.800 131.340,10.800 132.000 C 10.800 132.660,10.620 133.200,10.400 133.200 C 10.180 133.200,10.000 133.740,10.000 134.400 C 10.000 135.060,9.820 135.600,9.600 135.600 C 9.380 135.600,9.200 136.140,9.200 136.800 C 9.200 137.460,9.020 138.000,8.800 138.000 C 8.580 138.000,8.400 138.540,8.400 139.200 C 8.400 139.860,8.220 140.400,8.000 140.400 C 7.780 140.400,7.600 141.120,7.600 142.000 C 7.600 142.880,7.420 143.600,7.200 143.600 C 6.980 143.600,6.800 144.129,6.800 144.776 C 6.800 145.423,6.620 146.064,6.400 146.200 C 6.180 146.336,6.000 147.067,6.000 147.824 C 6.000 148.581,5.820 149.200,5.600 149.200 C 5.380 149.200,5.200 149.920,5.200 150.800 C 5.200 151.680,5.020 152.400,4.800 152.400 C 4.580 152.400,4.400 153.109,4.400 153.976 C 4.400 154.843,4.220 155.664,4.000 155.800 C 3.780 155.936,3.600 156.847,3.600 157.824 C 3.600 158.801,3.420 159.600,3.200 159.600 C 2.980 159.600,2.800 160.489,2.800 161.576 C 2.800 162.663,2.620 163.664,2.400 163.800 C 2.180 163.936,2.000 165.027,2.000 166.224 C 2.000 167.421,1.820 168.400,1.600 168.400 C 1.367 168.400,1.200 169.722,1.200 171.567 C 1.200 173.744,1.044 174.785,0.700 174.900 C -0.032 175.144,-0.032 224.856,0.700 225.100 C 1.044 225.215,1.200 226.256,1.200 228.433 C 1.200 230.278,1.367 231.600,1.600 231.600 C 1.820 231.600,2.000 232.579,2.000 233.776 C 2.000 234.973,2.180 236.064,2.400 236.200 C 2.620 236.336,2.800 237.337,2.800 238.424 C 2.800 239.511,2.980 240.400,3.200 240.400 C 3.420 240.400,3.600 241.199,3.600 242.176 C 3.600 243.153,3.780 244.064,4.000 244.200 C 4.220 244.336,4.400 245.157,4.400 246.024 C 4.400 246.891,4.580 247.600,4.800 247.600 C 5.020 247.600,5.200 248.320,5.200 249.200 C 5.200 250.080,5.380 250.800,5.600 250.800 C 5.820 250.800,6.000 251.419,6.000 252.176 C 6.000 252.933,6.180 253.664,6.400 253.800 C 6.620 253.936,6.800 254.577,6.800 255.224 C 6.800 255.871,6.980 256.400,7.200 256.400 C 7.420 256.400,7.600 257.120,7.600 258.000 C 7.600 258.880,7.780 259.600,8.000 259.600 C 8.220 259.600,8.400 260.140,8.400 260.800 C 8.400 261.460,8.580 262.000,8.800 262.000 C 9.020 262.000,9.200 262.540,9.200 263.200 C 9.200 263.860,9.380 264.400,9.600 264.400 C 9.820 264.400,10.000 264.940,10.000 265.600 C 10.000 266.260,10.180 266.800,10.400 266.800 C 10.620 266.800,10.800 267.340,10.800 268.000 C 10.800 268.660,10.980 269.200,11.200 269.200 C 11.420 269.200,11.600 269.560,11.600 270.000 C 11.600 270.440,11.780 270.800,12.000 270.800 C 12.220 270.800,12.400 271.340,12.400 272.000 C 12.400 272.660,12.580 273.200,12.800 273.200 C 13.020 273.200,13.200 273.560,13.200 274.000 C 13.200 274.440,13.380 274.800,13.600 274.800 C 13.820 274.800,14.000 275.340,14.000 276.000 C 14.000 276.660,14.180 277.200,14.400 277.200 C 14.620 277.200,14.800 277.560,14.800 278.000 C 14.800 278.440,14.980 278.800,15.200 278.800 C 15.420 278.800,15.600 279.239,15.600 279.776 C 15.600 280.313,15.780 280.864,16.000 281.000 C 16.220 281.136,16.400 281.597,16.400 282.024 C 16.400 282.451,16.580 282.800,16.800 282.800 C 17.020 282.800,17.200 283.160,17.200 283.600 C 17.200 284.040,17.380 284.400,17.600 284.400 C 17.820 284.400,18.000 284.760,18.000 285.200 C 18.000 285.640,18.180 286.000,18.400 286.000 C 18.620 286.000,18.800 286.360,18.800 286.800 C 18.800 287.240,18.980 287.600,19.200 287.600 C 19.420 287.600,19.600 287.960,19.600 288.400 C 19.600 288.840,19.780 289.200,20.000 289.200 C 20.220 289.200,20.400 289.560,20.400 290.000 C 20.400 290.440,20.580 290.800,20.800 290.800 C 21.020 290.800,21.200 291.160,21.200 291.600 C 21.200 292.040,21.380 292.400,21.600 292.400 C 21.820 292.400,22.000 292.760,22.000 293.200 C 22.000 293.640,22.180 294.000,22.400 294.000 C 22.620 294.000,22.800 294.360,22.800 294.800 C 22.800 295.240,22.980 295.600,23.200 295.600 C 23.420 295.600,23.600 295.960,23.600 296.400 C 23.600 296.840,23.780 297.200,24.000 297.200 C 24.220 297.200,24.400 297.520,24.400 297.912 C 24.400 298.303,24.760 298.883,25.200 299.200 C 25.640 299.517,26.000 300.097,26.000 300.488 C 26.000 300.880,26.180 301.200,26.400 301.200 C 26.620 301.200,26.800 301.560,26.800 302.000 C 26.800 302.440,26.980 302.800,27.200 302.800 C 27.420 302.800,27.600 303.036,27.600 303.325 C 27.600 303.613,27.960 304.236,28.400 304.708 C 28.840 305.180,29.200 305.804,29.200 306.095 C 29.200 306.386,29.560 306.883,30.000 307.200 C 30.440 307.517,30.800 308.057,30.800 308.400 C 30.800 308.743,31.160 309.283,31.600 309.600 C 32.040 309.917,32.400 310.497,32.400 310.888 C 32.400 311.280,32.580 311.600,32.800 311.600 C 33.020 311.600,33.200 311.843,33.200 312.141 C 33.200 312.438,33.740 313.246,34.400 313.937 C 35.060 314.628,35.600 315.425,35.600 315.708 C 35.600 315.991,35.960 316.483,36.400 316.800 C 36.840 317.117,37.200 317.580,37.200 317.829 C 37.200 318.078,37.740 318.846,38.400 319.537 C 39.060 320.228,39.600 320.953,39.600 321.148 C 39.600 321.344,40.320 322.245,41.200 323.152 C 42.080 324.059,42.800 324.995,42.800 325.232 C 42.800 325.469,43.520 326.354,44.400 327.200 C 45.280 328.046,46.000 328.916,46.000 329.134 C 46.000 329.352,47.080 330.627,48.400 331.968 C 49.720 333.308,50.800 334.570,50.800 334.772 C 50.800 335.250,64.750 349.200,65.228 349.200 C 65.430 349.200,66.692 350.280,68.032 351.600 C 69.373 352.920,70.648 354.000,70.866 354.000 C 71.084 354.000,71.954 354.720,72.800 355.600 C 73.646 356.480,74.531 357.200,74.768 357.200 C 75.005 357.200,75.941 357.920,76.848 358.800 C 77.755 359.680,78.656 360.400,78.852 360.400 C 79.047 360.400,79.772 360.940,80.463 361.600 C 81.154 362.260,81.922 362.800,82.171 362.800 C 82.420 362.800,82.883 363.160,83.200 363.600 C 83.517 364.040,84.009 364.400,84.292 364.400 C 84.575 364.400,85.372 364.940,86.063 365.600 C 86.754 366.260,87.562 366.800,87.859 366.800 C 88.157 366.800,88.400 366.980,88.400 367.200 C 88.400 367.420,88.720 367.600,89.112 367.600 C 89.503 367.600,90.083 367.960,90.400 368.400 C 90.717 368.840,91.257 369.200,91.600 369.200 C 91.943 369.200,92.483 369.560,92.800 370.000 C 93.117 370.440,93.614 370.800,93.905 370.800 C 94.196 370.800,94.820 371.160,95.292 371.600 C 95.764 372.040,96.387 372.400,96.675 372.400 C 96.964 372.400,97.200 372.580,97.200 372.800 C 97.200 373.020,97.560 373.200,98.000 373.200 C 98.440 373.200,98.800 373.380,98.800 373.600 C 98.800 373.820,99.120 374.000,99.512 374.000 C 99.903 374.000,100.483 374.360,100.800 374.800 C 101.117 375.240,101.697 375.600,102.088 375.600 C 102.480 375.600,102.800 375.780,102.800 376.000 C 102.800 376.220,103.160 376.400,103.600 376.400 C 104.040 376.400,104.400 376.580,104.400 376.800 C 104.400 377.020,104.760 377.200,105.200 377.200 C 105.640 377.200,106.000 377.380,106.000 377.600 C 106.000 377.820,106.360 378.000,106.800 378.000 C 107.240 378.000,107.600 378.180,107.600 378.400 C 107.600 378.620,107.960 378.800,108.400 378.800 C 108.840 378.800,109.200 378.980,109.200 379.200 C 109.200 379.420,109.560 379.600,110.000 379.600 C 110.440 379.600,110.800 379.780,110.800 380.000 C 110.800 380.220,111.160 380.400,111.600 380.400 C 112.040 380.400,112.400 380.580,112.400 380.800 C 112.400 381.020,112.760 381.200,113.200 381.200 C 113.640 381.200,114.000 381.380,114.000 381.600 C 114.000 381.820,114.360 382.000,114.800 382.000 C 115.240 382.000,115.600 382.180,115.600 382.400 C 115.600 382.620,115.960 382.800,116.400 382.800 C 116.840 382.800,117.200 382.980,117.200 383.200 C 117.200 383.420,117.549 383.600,117.976 383.600 C 118.403 383.600,118.864 383.780,119.000 384.000 C 119.136 384.220,119.687 384.400,120.224 384.400 C 120.761 384.400,121.200 384.580,121.200 384.800 C 121.200 385.020,121.560 385.200,122.000 385.200 C 122.440 385.200,122.800 385.380,122.800 385.600 C 122.800 385.820,123.340 386.000,124.000 386.000 C 124.660 386.000,125.200 386.180,125.200 386.400 C 125.200 386.620,125.560 386.800,126.000 386.800 C 126.440 386.800,126.800 386.980,126.800 387.200 C 126.800 387.420,127.340 387.600,128.000 387.600 C 128.660 387.600,129.200 387.780,129.200 388.000 C 129.200 388.220,129.560 388.400,130.000 388.400 C 130.440 388.400,130.800 388.580,130.800 388.800 C 130.800 389.020,131.340 389.200,132.000 389.200 C 132.660 389.200,133.200 389.380,133.200 389.600 C 133.200 389.820,133.740 390.000,134.400 390.000 C 135.060 390.000,135.600 390.180,135.600 390.400 C 135.600 390.620,136.140 390.800,136.800 390.800 C 137.460 390.800,138.000 390.980,138.000 391.200 C 138.000 391.420,138.540 391.600,139.200 391.600 C 139.860 391.600,140.400 391.780,140.400 392.000 C 140.400 392.220,141.120 392.400,142.000 392.400 C 142.880 392.400,143.600 392.580,143.600 392.800 C 143.600 393.020,144.129 393.200,144.776 393.200 C 145.423 393.200,146.064 393.380,146.200 393.600 C 146.336 393.820,147.067 394.000,147.824 394.000 C 148.581 394.000,149.200 394.180,149.200 394.400 C 149.200 394.620,149.920 394.800,150.800 394.800 C 151.680 394.800,152.400 394.980,152.400 395.200 C 152.400 395.420,153.109 395.600,153.976 395.600 C 154.843 395.600,155.664 395.780,155.800 396.000 C 155.936 396.220,156.847 396.400,157.824 396.400 C 158.801 396.400,159.600 396.580,159.600 396.800 C 159.600 397.020,160.489 397.200,161.576 397.200 C 162.663 397.200,163.664 397.380,163.800 397.600 C 163.936 397.820,165.027 398.000,166.224 398.000 C 167.421 398.000,168.400 398.180,168.400 398.400 C 168.400 398.633,169.722 398.800,171.567 398.800 C 173.744 398.800,174.785 398.956,174.900 399.300 C 175.144 400.032,224.856 400.032,225.100 399.300 C 225.215 398.956,226.256 398.800,228.433 398.800 C 230.278 398.800,231.600 398.633,231.600 398.400 C 231.600 398.180,232.579 398.000,233.776 398.000 C 234.973 398.000,236.064 397.820,236.200 397.600 C 236.336 397.380,237.337 397.200,238.424 397.200 C 239.511 397.200,240.400 397.020,240.400 396.800 C 240.400 396.580,241.199 396.400,242.176 396.400 C 243.153 396.400,244.064 396.220,244.200 396.000 C 244.336 395.780,245.157 395.600,246.024 395.600 C 246.891 395.600,247.600 395.420,247.600 395.200 C 247.600 394.980,248.320 394.800,249.200 394.800 C 250.080 394.800,250.800 394.620,250.800 394.400 C 250.800 394.180,251.419 394.000,252.176 394.000 C 252.933 394.000,253.664 393.820,253.800 393.600 C 253.936 393.380,254.577 393.200,255.224 393.200 C 255.871 393.200,256.400 393.020,256.400 392.800 C 256.400 392.580,257.120 392.400,258.000 392.400 C 258.880 392.400,259.600 392.220,259.600 392.000 C 259.600 391.780,260.140 391.600,260.800 391.600 C 261.460 391.600,262.000 391.420,262.000 391.200 C 262.000 390.980,262.540 390.800,263.200 390.800 C 263.860 390.800,264.400 390.620,264.400 390.400 C 264.400 390.180,264.940 390.000,265.600 390.000 C 266.260 390.000,266.800 389.820,266.800 389.600 C 266.800 389.380,267.340 389.200,268.000 389.200 C 268.660 389.200,269.200 389.020,269.200 388.800 C 269.200 388.580,269.560 388.400,270.000 388.400 C 270.440 388.400,270.800 388.220,270.800 388.000 C 270.800 387.780,271.340 387.600,272.000 387.600 C 272.660 387.600,273.200 387.420,273.200 387.200 C 273.200 386.980,273.560 386.800,274.000 386.800 C 274.440 386.800,274.800 386.620,274.800 386.400 C 274.800 386.180,275.340 386.000,276.000 386.000 C 276.660 386.000,277.200 385.820,277.200 385.600 C 277.200 385.380,277.560 385.200,278.000 385.200 C 278.440 385.200,278.800 385.020,278.800 384.800 C 278.800 384.580,279.239 384.400,279.776 384.400 C 280.313 384.400,280.864 384.220,281.000 384.000 C 281.136 383.780,281.597 383.600,282.024 383.600 C 282.451 383.600,282.800 383.420,282.800 383.200 C 282.800 382.980,283.160 382.800,283.600 382.800 C 284.040 382.800,284.400 382.620,284.400 382.400 C 284.400 382.180,284.760 382.000,285.200 382.000 C 285.640 382.000,286.000 381.820,286.000 381.600 C 286.000 381.380,286.360 381.200,286.800 381.200 C 287.240 381.200,287.600 381.020,287.600 380.800 C 287.600 380.580,287.960 380.400,288.400 380.400 C 288.840 380.400,289.200 380.220,289.200 380.000 C 289.200 379.780,289.560 379.600,290.000 379.600 C 290.440 379.600,290.800 379.420,290.800 379.200 C 290.800 378.980,291.160 378.800,291.600 378.800 C 292.040 378.800,292.400 378.620,292.400 378.400 C 292.400 378.180,292.760 378.000,293.200 378.000 C 293.640 378.000,294.000 377.820,294.000 377.600 C 294.000 377.380,294.360 377.200,294.800 377.200 C 295.240 377.200,295.600 377.020,295.600 376.800 C 295.600 376.580,295.960 376.400,296.400 376.400 C 296.840 376.400,297.200 376.220,297.200 376.000 C 297.200 375.780,297.520 375.600,297.912 375.600 C 298.303 375.600,298.883 375.240,299.200 374.800 C 299.517 374.360,300.097 374.000,300.488 374.000 C 300.880 374.000,301.200 373.820,301.200 373.600 C 301.200 373.380,301.560 373.200,302.000 373.200 C 302.440 373.200,302.800 373.020,302.800 372.800 C 302.800 372.580,303.036 372.400,303.325 372.400 C 303.613 372.400,304.236 372.040,304.708 371.600 C 305.180 371.160,305.804 370.800,306.095 370.800 C 306.386 370.800,306.883 370.440,307.200 370.000 C 307.517 369.560,308.057 369.200,308.400 369.200 C 308.743 369.200,309.283 368.840,309.600 368.400 C 309.917 367.960,310.497 367.600,310.888 367.600 C 311.280 367.600,311.600 367.420,311.600 367.200 C 311.600 366.980,311.843 366.800,312.141 366.800 C 312.438 366.800,313.246 366.260,313.937 365.600 C 314.628 364.940,315.425 364.400,315.708 364.400 C 315.991 364.400,316.483 364.040,316.800 363.600 C 317.117 363.160,317.580 362.800,317.829 362.800 C 318.078 362.800,318.846 362.260,319.537 361.600 C 320.228 360.940,320.953 360.400,321.148 360.400 C 321.344 360.400,322.245 359.680,323.152 358.800 C 324.059 357.920,324.995 357.200,325.232 357.200 C 325.469 357.200,326.354 356.480,327.200 355.600 C 328.046 354.720,328.916 354.000,329.134 354.000 C 329.352 354.000,330.627 352.920,331.968 351.600 C 333.308 350.280,334.570 349.200,334.772 349.200 C 335.250 349.200,349.200 335.250,349.200 334.772 C 349.200 334.570,350.280 333.308,351.600 331.968 C 352.920 330.627,354.000 329.352,354.000 329.134 C 354.000 328.916,354.720 328.046,355.600 327.200 C 356.480 326.354,357.200 325.469,357.200 325.232 C 357.200 324.995,357.920 324.059,358.800 323.152 C 359.680 322.245,360.400 321.344,360.400 321.148 C 360.400 320.953,360.940 320.228,361.600 319.537 C 362.260 318.846,362.800 318.078,362.800 317.829 C 362.800 317.580,363.160 317.117,363.600 316.800 C 364.040 316.483,364.400 315.991,364.400 315.708 C 364.400 315.425,364.940 314.628,365.600 313.937 C 366.260 313.246,366.800 312.438,366.800 312.141 C 366.800 311.843,366.980 311.600,367.200 311.600 C 367.420 311.600,367.600 311.280,367.600 310.888 C 367.600 310.497,367.960 309.917,368.400 309.600 C 368.840 309.283,369.200 308.743,369.200 308.400 C 369.200 308.057,369.560 307.517,370.000 307.200 C 370.440 306.883,370.800 306.386,370.800 306.095 C 370.800 305.804,371.160 305.180,371.600 304.708 C 372.040 304.236,372.400 303.613,372.400 303.325 C 372.400 303.036,372.580 302.800,372.800 302.800 C 373.020 302.800,373.200 302.440,373.200 302.000 C 373.200 301.560,373.380 301.200,373.600 301.200 C 373.820 301.200,374.000 300.880,374.000 300.488 C 374.000 300.097,374.360 299.517,374.800 299.200 C 375.240 298.883,375.600 298.303,375.600 297.912 C 375.600 297.520,375.780 297.200,376.000 297.200 C 376.220 297.200,376.400 296.840,376.400 296.400 C 376.400 295.960,376.580 295.600,376.800 295.600 C 377.020 295.600,377.200 295.240,377.200 294.800 C 377.200 294.360,377.380 294.000,377.600 294.000 C 377.820 294.000,378.000 293.640,378.000 293.200 C 378.000 292.760,378.180 292.400,378.400 292.400 C 378.620 292.400,378.800 292.040,378.800 291.600 C 378.800 291.160,378.980 290.800,379.200 290.800 C 379.420 290.800,379.600 290.440,379.600 290.000 C 379.600 289.560,379.780 289.200,380.000 289.200 C 380.220 289.200,380.400 288.840,380.400 288.400 C 380.400 287.960,380.580 287.600,380.800 287.600 C 381.020 287.600,381.200 287.240,381.200 286.800 C 381.200 286.360,381.380 286.000,381.600 286.000 C 381.820 286.000,382.000 285.640,382.000 285.200 C 382.000 284.760,382.180 284.400,382.400 284.400 C 382.620 284.400,382.800 284.040,382.800 283.600 C 382.800 283.160,382.980 282.800,383.200 282.800 C 383.420 282.800,383.600 282.451,383.600 282.024 C 383.600 281.597,383.780 281.136,384.000 281.000 C 384.220 280.864,384.400 280.313,384.400 279.776 C 384.400 279.239,384.580 278.800,384.800 278.800 C 385.020 278.800,385.200 278.440,385.200 278.000 C 385.200 277.560,385.380 277.200,385.600 277.200 C 385.820 277.200,386.000 276.660,386.000 276.000 C 386.000 275.340,386.180 274.800,386.400 274.800 C 386.620 274.800,386.800 274.440,386.800 274.000 C 386.800 273.560,386.980 273.200,387.200 273.200 C 387.420 273.200,387.600 272.660,387.600 272.000 C 387.600 271.340,387.780 270.800,388.000 270.800 C 388.220 270.800,388.400 270.440,388.400 270.000 C 388.400 269.560,388.580 269.200,388.800 269.200 C 389.020 269.200,389.200 268.660,389.200 268.000 C 389.200 267.340,389.380 266.800,389.600 266.800 C 389.820 266.800,390.000 266.260,390.000 265.600 C 390.000 264.940,390.180 264.400,390.400 264.400 C 390.620 264.400,390.800 263.860,390.800 263.200 C 390.800 262.540,390.980 262.000,391.200 262.000 C 391.420 262.000,391.600 261.460,391.600 260.800 C 391.600 260.140,391.780 259.600,392.000 259.600 C 392.220 259.600,392.400 258.880,392.400 258.000 C 392.400 257.120,392.580 256.400,392.800 256.400 C 393.020 256.400,393.200 255.871,393.200 255.224 C 393.200 254.577,393.380 253.936,393.600 253.800 C 393.820 253.664,394.000 252.933,394.000 252.176 C 394.000 251.419,394.180 250.800,394.400 250.800 C 394.620 250.800,394.800 250.080,394.800 249.200 C 394.800 248.320,394.980 247.600,395.200 247.600 C 395.420 247.600,395.600 246.891,395.600 246.024 C 395.600 245.157,395.780 244.336,396.000 244.200 C 396.220 244.064,396.400 243.153,396.400 242.176 C 396.400 241.199,396.580 240.400,396.800 240.400 C 397.020 240.400,397.200 239.511,397.200 238.424 C 397.200 237.337,397.380 236.336,397.600 236.200 C 397.820 236.064,398.000 234.973,398.000 233.776 C 398.000 232.579,398.180 231.600,398.400 231.600 C 398.633 231.600,398.800 230.278,398.800 228.433 C 398.800 226.256,398.956 225.215,399.300 225.100 C 399.693 224.969,399.800 219.591,399.800 200.000 C 399.800 180.409,399.693 175.031,399.300 174.900 C 398.956 174.785,398.800 173.744,398.800 171.567 C 398.800 169.722,398.633 168.400,398.400 168.400 C 398.180 168.400,398.000 167.421,398.000 166.224 C 398.000 165.027,397.820 163.936,397.600 163.800 C 397.380 163.664,397.200 162.663,397.200 161.576 C 397.200 160.489,397.020 159.600,396.800 159.600 C 396.580 159.600,396.400 158.801,396.400 157.824 C 396.400 156.847,396.220 155.936,396.000 155.800 C 395.780 155.664,395.600 154.843,395.600 153.976 C 395.600 153.109,395.420 152.400,395.200 152.400 C 394.980 152.400,394.800 151.680,394.800 150.800 C 394.800 149.920,394.620 149.200,394.400 149.200 C 394.180 149.200,394.000 148.581,394.000 147.824 C 394.000 147.067,393.820 146.336,393.600 146.200 C 393.380 146.064,393.200 145.423,393.200 144.776 C 393.200 144.129,393.020 143.600,392.800 143.600 C 392.580 143.600,392.400 142.880,392.400 142.000 C 392.400 141.120,392.220 140.400,392.000 140.400 C 391.780 140.400,391.600 139.860,391.600 139.200 C 391.600 138.540,391.420 138.000,391.200 138.000 C 390.980 138.000,390.800 137.460,390.800 136.800 C 390.800 136.140,390.620 135.600,390.400 135.600 C 390.180 135.600,390.000 135.060,390.000 134.400 C 390.000 133.740,389.820 133.200,389.600 133.200 C 389.380 133.200,389.200 132.660,389.200 132.000 C 389.200 131.340,389.020 130.800,388.800 130.800 C 388.580 130.800,388.400 130.440,388.400 130.000 C 388.400 129.560,388.220 129.200,388.000 129.200 C 387.780 129.200,387.600 128.660,387.600 128.000 C 387.600 127.340,387.420 126.800,387.200 126.800 C 386.980 126.800,386.800 126.440,386.800 126.000 C 386.800 125.560,386.620 125.200,386.400 125.200 C 386.180 125.200,386.000 124.660,386.000 124.000 C 386.000 123.340,385.820 122.800,385.600 122.800 C 385.380 122.800,385.200 122.440,385.200 122.000 C 385.200 121.560,385.020 121.200,384.800 121.200 C 384.580 121.200,384.400 120.761,384.400 120.224 C 384.400 119.687,384.220 119.136,384.000 119.000 C 383.780 118.864,383.600 118.403,383.600 117.976 C 383.600 117.549,383.420 117.200,383.200 117.200 C 382.980 117.200,382.800 116.840,382.800 116.400 C 382.800 115.960,382.620 115.600,382.400 115.600 C 382.180 115.600,382.000 115.240,382.000 114.800 C 382.000 114.360,381.820 114.000,381.600 114.000 C 381.380 114.000,381.200 113.640,381.200 113.200 C 381.200 112.760,381.020 112.400,380.800 112.400 C 380.580 112.400,380.400 112.040,380.400 111.600 C 380.400 111.160,380.220 110.800,380.000 110.800 C 379.780 110.800,379.600 110.440,379.600 110.000 C 379.600 109.560,379.420 109.200,379.200 109.200 C 378.980 109.200,378.800 108.840,378.800 108.400 C 378.800 107.960,378.620 107.600,378.400 107.600 C 378.180 107.600,378.000 107.240,378.000 106.800 C 378.000 106.360,377.820 106.000,377.600 106.000 C 377.380 106.000,377.200 105.640,377.200 105.200 C 377.200 104.760,377.020 104.400,376.800 104.400 C 376.580 104.400,376.400 104.040,376.400 103.600 C 376.400 103.160,376.220 102.800,376.000 102.800 C 375.780 102.800,375.600 102.480,375.600 102.088 C 375.600 101.697,375.240 101.117,374.800 100.800 C 374.360 100.483,374.000 99.903,374.000 99.512 C 374.000 99.120,373.820 98.800,373.600 98.800 C 373.380 98.800,373.200 98.440,373.200 98.000 C 373.200 97.560,373.020 97.200,372.800 97.200 C 372.580 97.200,372.400 96.964,372.400 96.675 C 372.400 96.387,372.040 95.764,371.600 95.292 C 371.160 94.820,370.800 94.196,370.800 93.905 C 370.800 93.614,370.440 93.117,370.000 92.800 C 369.560 92.483,369.200 91.943,369.200 91.600 C 369.200 91.257,368.840 90.717,368.400 90.400 C 367.960 90.083,367.600 89.503,367.600 89.112 C 367.600 88.720,367.420 88.400,367.200 88.400 C 366.980 88.400,366.800 88.157,366.800 87.859 C 366.800 87.562,366.260 86.754,365.600 86.063 C 364.940 85.372,364.400 84.575,364.400 84.292 C 364.400 84.009,364.040 83.517,363.600 83.200 C 363.160 82.883,362.800 82.420,362.800 82.171 C 362.800 81.922,362.260 81.154,361.600 80.463 C 360.940 79.772,360.400 79.047,360.400 78.852 C 360.400 78.656,359.680 77.755,358.800 76.848 C 357.920 75.941,357.200 75.005,357.200 74.768 C 357.200 74.531,356.480 73.646,355.600 72.800 C 354.720 71.954,354.000 71.084,354.000 70.866 C 354.000 70.648,352.920 69.373,351.600 68.032 C 350.280 66.692,349.200 65.430,349.200 65.228 C 349.200 64.750,335.250 50.800,334.772 50.800 C 334.570 50.800,333.308 49.720,331.968 48.400 C 330.627 47.080,329.352 46.000,329.134 46.000 C 328.916 46.000,328.046 45.280,327.200 44.400 C 326.354 43.520,325.469 42.800,325.232 42.800 C 324.995 42.800,324.059 42.080,323.152 41.200 C 322.245 40.320,321.344 39.600,321.148 39.600 C 320.953 39.600,320.228 39.060,319.537 38.400 C 318.846 37.740,318.078 37.200,317.829 37.200 C 317.580 37.200,317.117 36.840,316.800 36.400 C 316.483 35.960,315.991 35.600,315.708 35.600 C 315.425 35.600,314.628 35.060,313.937 34.400 C 313.246 33.740,312.438 33.200,312.141 33.200 C 311.843 33.200,311.600 33.020,311.600 32.800 C 311.600 32.580,311.280 32.400,310.888 32.400 C 310.497 32.400,309.917 32.040,309.600 31.600 C 309.283 31.160,308.743 30.800,308.400 30.800 C 308.057 30.800,307.517 30.440,307.200 30.000 C 306.883 29.560,306.386 29.200,306.095 29.200 C 305.804 29.200,305.180 28.840,304.708 28.400 C 304.236 27.960,303.613 27.600,303.325 27.600 C 303.036 27.600,302.800 27.420,302.800 27.200 C 302.800 26.980,302.440 26.800,302.000 26.800 C 301.560 26.800,301.200 26.620,301.200 26.400 C 301.200 26.180,300.880 26.000,300.488 26.000 C 300.097 26.000,299.517 25.640,299.200 25.200 C 298.883 24.760,298.303 24.400,297.912 24.400 C 297.520 24.400,297.200 24.220,297.200 24.000 C 297.200 23.780,296.840 23.600,296.400 23.600 C 295.960 23.600,295.600 23.420,295.600 23.200 C 295.600 22.980,295.240 22.800,294.800 22.800 C 294.360 22.800,294.000 22.620,294.000 22.400 C 294.000 22.180,293.640 22.000,293.200 22.000 C 292.760 22.000,292.400 21.820,292.400 21.600 C 292.400 21.380,292.040 21.200,291.600 21.200 C 291.160 21.200,290.800 21.020,290.800 20.800 C 290.800 20.580,290.440 20.400,290.000 20.400 C 289.560 20.400,289.200 20.220,289.200 20.000 C 289.200 19.780,288.840 19.600,288.400 19.600 C 287.960 19.600,287.600 19.420,287.600 19.200 C 287.600 18.980,287.240 18.800,286.800 18.800 C 286.360 18.800,286.000 18.620,286.000 18.400 C 286.000 18.180,285.640 18.000,285.200 18.000 C 284.760 18.000,284.400 17.820,284.400 17.600 C 284.400 17.380,284.040 17.200,283.600 17.200 C 283.160 17.200,282.800 17.020,282.800 16.800 C 282.800 16.580,282.451 16.400,282.024 16.400 C 281.597 16.400,281.136 16.220,281.000 16.000 C 280.864 15.780,280.313 15.600,279.776 15.600 C 279.239 15.600,278.800 15.420,278.800 15.200 C 278.800 14.980,278.440 14.800,278.000 14.800 C 277.560 14.800,277.200 14.620,277.200 14.400 C 277.200 14.180,276.660 14.000,276.000 14.000 C 275.340 14.000,274.800 13.820,274.800 13.600 C 274.800 13.380,274.440 13.200,274.000 13.200 C 273.560 13.200,273.200 13.020,273.200 12.800 C 273.200 12.580,272.660 12.400,272.000 12.400 C 271.340 12.400,270.800 12.220,270.800 12.000 C 270.800 11.780,270.440 11.600,270.000 11.600 C 269.560 11.600,269.200 11.420,269.200 11.200 C 269.200 10.980,268.660 10.800,268.000 10.800 C 267.340 10.800,266.800 10.620,266.800 10.400 C 266.800 10.180,266.260 10.000,265.600 10.000 C 264.940 10.000,264.400 9.820,264.400 9.600 C 264.400 9.380,263.860 9.200,263.200 9.200 C 262.540 9.200,262.000 9.020,262.000 8.800 C 262.000 8.580,261.460 8.400,260.800 8.400 C 260.140 8.400,259.600 8.220,259.600 8.000 C 259.600 7.780,258.880 7.600,258.000 7.600 C 257.120 7.600,256.400 7.420,256.400 7.200 C 256.400 6.980,255.871 6.800,255.224 6.800 C 254.577 6.800,253.936 6.620,253.800 6.400 C 253.664 6.180,252.933 6.000,252.176 6.000 C 251.419 6.000,250.800 5.820,250.800 5.600 C 250.800 5.380,250.080 5.200,249.200 5.200 C 248.320 5.200,247.600 5.020,247.600 4.800 C 247.600 4.580,246.891 4.400,246.024 4.400 C 245.157 4.400,244.336 4.220,244.200 4.000 C 244.064 3.780,243.153 3.600,242.176 3.600 C 241.199 3.600,240.400 3.420,240.400 3.200 C 240.400 2.980,239.511 2.800,238.424 2.800 C 237.337 2.800,236.336 2.620,236.200 2.400 C 236.064 2.180,234.973 2.000,233.776 2.000 C 232.579 2.000,231.600 1.820,231.600 1.600 C 231.600 1.367,230.278 1.200,228.433 1.200 C 226.304 1.200,225.214 1.041,225.105 0.714 C 224.944 0.233,187.802 -0.118,178.500 0.274 M357.502 199.700 C 357.599 235.057,357.571 236.800,356.891 236.800 C 356.493 236.800,351.820 232.428,346.289 226.882 L 336.400 216.963 336.400 200.282 L 336.400 183.600 319.709 183.600 L 303.017 183.600 292.859 173.442 C 286.921 167.504,282.815 163.099,282.975 162.840 C 283.174 162.519,293.496 162.424,320.325 162.498 L 357.400 162.600 357.502 199.700 M88.209 168.158 C 88.898 169.210,116.800 231.910,116.800 232.407 C 116.800 233.414,100.089 233.632,99.094 232.637 C 98.785 232.328,97.467 229.449,96.166 226.241 L 93.800 220.408 79.400 220.408 L 65.000 220.408 62.846 226.229 C 61.662 229.431,60.434 232.309,60.118 232.625 C 59.523 233.220,44.877 233.512,43.433 232.957 C 42.407 232.564,40.501 237.565,62.397 183.200 C 65.720 174.950,68.734 167.975,69.096 167.700 C 69.576 167.335,72.153 167.200,78.667 167.200 L 87.582 167.200 88.209 168.158 M138.723 167.900 C 139.170 168.285,143.807 173.550,149.028 179.600 C 154.250 185.650,158.741 190.654,159.008 190.719 C 159.276 190.785,164.008 185.633,169.525 179.270 C 175.042 172.908,179.850 167.589,180.211 167.451 C 181.051 167.129,192.930 167.121,193.767 167.443 C 194.736 167.814,194.736 232.586,193.767 232.957 C 192.942 233.274,179.058 233.274,178.233 232.957 C 177.668 232.740,177.600 230.642,177.600 213.381 C 177.600 202.747,177.465 193.969,177.300 193.874 C 177.135 193.778,173.317 197.997,168.815 203.250 C 158.100 215.752,160.155 215.736,149.558 203.400 C 145.116 198.230,141.329 194.000,141.141 194.000 C 140.954 194.000,140.800 202.711,140.800 213.357 C 140.800 230.639,140.732 232.740,140.167 232.957 C 138.328 233.663,124.431 233.206,124.014 232.426 C 123.252 231.003,123.459 168.598,124.229 167.829 C 125.213 166.844,137.570 166.905,138.723 167.900 M238.925 167.604 C 260.442 169.387,272.793 183.429,271.121 204.207 C 269.803 220.582,258.370 230.833,239.258 232.778 C 233.272 233.388,207.101 233.341,206.480 232.720 C 205.785 232.025,205.785 168.375,206.480 167.680 C 207.083 167.077,231.861 167.019,238.925 167.604 M223.500 180.224 C 223.335 180.394,223.200 189.503,223.200 200.467 L 223.200 220.400 229.700 220.393 C 244.763 220.377,251.475 215.873,253.501 204.424 C 255.495 193.156,250.223 183.773,240.298 180.924 C 238.007 180.267,224.025 179.684,223.500 180.224 M78.400 184.877 C 78.400 185.008,76.510 190.107,74.200 196.209 C 71.890 202.312,70.000 207.461,70.000 207.652 C 70.000 207.843,74.140 208.000,79.200 208.000 C 84.260 208.000,88.400 207.931,88.400 207.848 C 88.400 207.764,86.319 202.679,83.777 196.548 C 79.762 186.867,78.400 183.911,78.400 184.877 M303.357 187.833 C 303.491 188.181,303.600 194.751,303.600 202.433 L 303.600 216.400 317.776 216.400 C 327.760 216.400,332.034 216.532,332.228 216.845 C 332.390 217.107,328.232 221.565,322.155 227.645 L 311.806 238.000 297.183 238.000 C 286.343 238.000,282.436 237.876,282.080 237.520 C 281.428 236.868,281.393 209.557,282.042 208.274 C 282.510 207.350,302.409 187.200,302.854 187.200 C 302.997 187.200,303.224 187.485,303.357 187.833 " stroke="none" fill="#fbfbfb" fill-rule="evenodd"></path><path id="path2" d="M282.977 162.837 C 282.822 163.088,287.029 167.565,292.845 173.337 L 302.983 183.400 293.046 173.336 C 287.387 167.604,283.225 163.084,283.378 162.836 C 283.526 162.596,283.557 162.400,283.447 162.400 C 283.337 162.400,283.126 162.597,282.977 162.837 M356.700 162.830 C 357.430 163.604,357.433 236.400,356.703 236.400 C 356.430 236.400,351.795 232.035,346.403 226.700 L 336.600 217.000 346.397 226.900 C 351.824 232.384,356.508 236.800,356.899 236.800 C 357.903 236.800,357.805 162.790,356.800 162.483 C 356.316 162.335,356.296 162.402,356.700 162.830 M78.368 167.500 C 84.702 167.582,87.522 167.760,87.968 168.108 C 88.526 168.542,88.536 168.518,88.051 167.900 C 87.553 167.265,86.661 167.209,78.451 167.292 L 69.400 167.384 78.368 167.500 M124.536 167.506 C 124.281 167.668,127.146 167.743,130.901 167.673 C 137.340 167.553,137.801 167.595,138.965 168.402 L 140.200 169.258 139.078 168.229 C 137.942 167.188,125.977 166.593,124.536 167.506 M186.771 167.500 C 190.772 167.573,193.550 167.792,193.871 168.059 C 194.208 168.338,194.400 168.350,194.400 168.092 C 194.400 167.331,193.138 167.200,186.667 167.289 L 180.200 167.379 186.771 167.500 M206.480 167.680 C 206.113 168.047,206.023 175.745,206.096 200.380 L 206.193 232.600 206.396 200.200 L 206.600 167.800 221.400 167.593 L 236.200 167.385 221.580 167.293 C 210.637 167.223,206.839 167.321,206.480 167.680 M238.307 167.890 C 239.026 167.979,240.106 167.977,240.707 167.886 C 241.308 167.795,240.720 167.722,239.400 167.724 C 238.080 167.726,237.588 167.801,238.307 167.890 M243.600 168.400 C 244.150 168.576,244.960 168.720,245.400 168.720 C 246.033 168.720,245.992 168.654,245.200 168.400 C 244.650 168.224,243.840 168.080,243.400 168.080 C 242.767 168.080,242.808 168.146,243.600 168.400 M123.791 200.200 C 123.791 217.800,123.840 224.942,123.900 216.070 C 123.960 207.199,123.960 192.799,123.900 184.070 C 123.840 175.342,123.791 182.600,123.791 200.200 M176.860 170.768 C 175.727 172.071,174.800 173.242,174.800 173.370 C 174.800 173.498,175.467 172.837,176.282 171.901 C 177.096 170.966,178.118 169.795,178.551 169.300 C 178.985 168.805,179.245 168.400,179.130 168.400 C 179.014 168.400,177.993 169.466,176.860 170.768 M140.000 169.725 C 140.000 169.794,140.585 170.379,141.300 171.025 L 142.600 172.200 141.425 170.900 C 140.330 169.688,140.000 169.416,140.000 169.725 M67.050 171.591 C 66.147 173.847,66.287 174.183,67.237 172.042 C 67.666 171.075,67.945 170.212,67.858 170.125 C 67.771 170.038,67.408 170.698,67.050 171.591 M144.018 174.185 C 145.270 175.834,147.600 178.393,147.584 178.101 C 147.576 177.936,146.631 176.803,145.484 175.585 C 144.338 174.366,143.678 173.736,144.018 174.185 M257.200 173.346 C 257.200 173.456,257.740 173.930,258.400 174.400 C 259.060 174.870,259.600 175.164,259.600 175.054 C 259.600 174.944,259.060 174.470,258.400 174.000 C 257.740 173.530,257.200 173.236,257.200 173.346 M172.975 175.300 L 171.800 176.600 173.100 175.425 C 174.312 174.330,174.584 174.000,174.275 174.000 C 174.206 174.000,173.621 174.585,172.975 175.300 M262.200 177.600 C 263.506 178.920,264.665 180.000,264.775 180.000 C 264.885 180.000,263.906 178.920,262.600 177.600 C 261.294 176.280,260.135 175.200,260.025 175.200 C 259.915 175.200,260.894 176.280,262.200 177.600 M170.575 178.100 L 169.400 179.400 170.700 178.225 C 171.912 177.130,172.184 176.800,171.875 176.800 C 171.806 176.800,171.221 177.385,170.575 178.100 M148.000 178.925 C 148.000 178.994,148.585 179.579,149.300 180.225 L 150.600 181.400 149.425 180.100 C 148.330 178.888,148.000 178.616,148.000 178.925 M166.788 182.414 C 165.416 183.961,164.363 185.282,164.447 185.349 C 164.531 185.417,165.737 184.150,167.127 182.536 C 168.517 180.921,169.570 179.600,169.468 179.600 C 169.366 179.600,168.160 180.866,166.788 182.414 M222.896 200.300 L 223.000 220.600 229.600 220.615 L 236.200 220.629 229.693 220.505 L 223.186 220.381 223.293 200.190 C 223.352 189.085,223.263 180.000,223.096 180.000 C 222.929 180.000,222.839 189.135,222.896 200.300 M236.500 180.276 C 236.885 180.376,237.515 180.376,237.900 180.276 C 238.285 180.175,237.970 180.093,237.200 180.093 C 236.430 180.093,236.115 180.175,236.500 180.276 M150.400 181.725 C 150.400 181.794,150.985 182.379,151.700 183.025 L 153.000 184.200 151.825 182.900 C 150.730 181.688,150.400 181.416,150.400 181.725 M267.000 184.000 C 267.341 184.660,267.711 185.200,267.821 185.200 C 267.931 185.200,267.741 184.660,267.400 184.000 C 267.059 183.340,266.689 182.800,266.579 182.800 C 266.469 182.800,266.659 183.340,267.000 184.000 M319.696 183.498 L 336.391 183.609 336.502 200.304 L 336.613 217.000 336.607 200.200 L 336.600 183.400 319.800 183.393 L 303.000 183.387 319.696 183.498 M77.993 185.218 C 77.717 185.882,77.585 186.518,77.698 186.631 C 77.811 186.745,78.021 186.372,78.164 185.802 C 78.307 185.233,78.598 184.875,78.812 185.007 C 79.025 185.139,79.200 185.067,79.200 184.847 C 79.200 183.884,78.450 184.114,77.993 185.218 M248.774 185.800 C 251.134 188.498,251.480 188.818,250.501 187.400 C 250.046 186.740,249.077 185.660,248.348 185.000 C 247.370 184.113,247.481 184.322,248.774 185.800 M154.418 186.185 C 155.670 187.834,158.000 190.393,157.984 190.101 C 157.976 189.936,157.031 188.803,155.884 187.585 C 154.738 186.366,154.078 185.736,154.418 186.185 M161.744 188.245 C 160.689 189.480,159.460 190.650,159.013 190.845 C 158.302 191.155,158.294 191.187,158.950 191.100 C 159.606 191.012,164.455 186.000,163.883 186.000 C 163.761 186.000,162.799 187.010,161.744 188.245 M292.397 197.500 L 282.200 207.800 292.585 197.600 C 298.296 191.990,303.051 187.355,303.151 187.300 C 303.252 187.245,303.167 187.200,302.964 187.200 C 302.760 187.200,298.005 191.835,292.397 197.500 M303.392 202.400 L 303.400 216.600 317.700 216.705 C 325.565 216.763,332.000 216.944,332.000 217.108 C 332.000 217.272,327.451 221.952,321.892 227.508 L 311.784 237.610 296.992 237.505 L 282.200 237.400 281.992 223.000 L 281.785 208.600 281.692 222.820 C 281.623 233.452,281.721 237.161,282.080 237.520 C 282.436 237.876,286.343 238.000,297.183 238.000 L 311.806 238.000 322.155 227.645 C 328.232 221.565,332.390 217.107,332.228 216.845 C 332.034 216.532,327.761 216.400,317.781 216.400 L 303.610 216.400 303.497 202.300 L 303.385 188.200 303.392 202.400 M140.587 193.700 C 140.484 193.975,140.355 202.840,140.300 213.400 L 140.200 232.600 132.138 232.600 C 127.704 232.600,124.159 232.735,124.262 232.900 C 124.482 233.256,139.250 233.309,140.167 232.957 C 140.732 232.740,140.800 230.639,140.800 213.357 C 140.800 202.711,140.923 194.000,141.074 194.000 C 141.225 194.000,141.810 194.404,142.374 194.899 C 143.199 195.621,143.169 195.542,142.225 194.499 C 140.900 193.034,140.847 193.008,140.587 193.700 M175.375 195.300 L 174.200 196.600 175.500 195.425 C 176.215 194.779,176.800 194.194,176.800 194.125 C 176.800 193.816,176.470 194.088,175.375 195.300 M253.693 196.800 C 253.693 197.570,253.775 197.885,253.876 197.500 C 253.976 197.115,253.976 196.485,253.876 196.100 C 253.775 195.715,253.693 196.030,253.693 196.800 M143.200 196.125 C 143.200 196.194,143.785 196.779,144.500 197.425 L 145.800 198.600 144.625 197.300 C 143.530 196.088,143.200 195.816,143.200 196.125 M171.600 199.600 C 170.456 200.920,169.611 202.000,169.721 202.000 C 169.831 202.000,170.856 200.920,172.000 199.600 C 173.144 198.280,173.989 197.200,173.879 197.200 C 173.769 197.200,172.744 198.280,171.600 199.600 M254.114 200.200 C 254.117 201.300,254.195 201.703,254.287 201.095 C 254.379 200.486,254.377 199.586,254.282 199.095 C 254.187 198.603,254.111 199.100,254.114 200.200 M145.600 198.925 C 145.600 198.994,146.185 199.579,146.900 200.225 L 148.200 201.400 147.025 200.100 C 145.930 198.888,145.600 198.616,145.600 198.925 M148.000 201.725 C 148.000 201.794,148.585 202.379,149.300 203.025 L 150.600 204.200 149.425 202.900 C 148.330 201.688,148.000 201.416,148.000 201.725 M168.586 202.987 C 168.374 203.289,167.418 204.451,166.463 205.568 C 165.507 206.686,164.805 207.600,164.903 207.600 C 165.211 207.600,169.299 202.765,169.132 202.598 C 169.044 202.510,168.798 202.685,168.586 202.987 M150.400 204.525 C 150.400 204.594,150.985 205.179,151.700 205.825 L 153.000 207.000 151.825 205.700 C 150.730 204.488,150.400 204.216,150.400 204.525 M69.843 206.633 C 69.160 208.413,69.091 208.400,78.976 208.400 C 88.287 208.400,89.582 208.217,88.421 207.065 C 88.064 206.710,88.016 206.766,88.219 207.300 C 88.468 207.954,87.878 208.000,79.199 208.000 L 69.913 208.000 70.164 207.000 C 70.442 205.892,70.223 205.641,69.843 206.633 M155.202 210.002 C 156.346 211.323,157.489 212.530,157.741 212.683 C 157.994 212.837,157.143 211.757,155.851 210.282 C 154.559 208.807,153.416 207.600,153.312 207.600 C 153.207 207.600,154.057 208.681,155.202 210.002 M163.993 208.233 C 163.989 208.435,163.107 209.545,162.032 210.700 C 160.957 211.855,160.206 212.800,160.363 212.800 C 160.839 212.800,164.504 208.371,164.243 208.110 C 164.109 207.976,163.997 208.032,163.993 208.233 M250.999 211.712 C 250.582 212.421,249.426 213.900,248.432 215.000 C 246.837 216.764,246.803 216.835,248.150 215.600 C 249.730 214.151,252.198 210.865,251.918 210.584 C 251.830 210.496,251.416 211.004,250.999 211.712 M267.840 215.473 C 267.712 215.877,266.966 217.180,266.183 218.370 C 265.400 219.559,265.037 220.301,265.377 220.019 C 266.181 219.352,268.548 215.215,268.279 214.946 C 268.166 214.833,267.968 215.070,267.840 215.473 M240.000 219.600 C 239.176 219.864,239.141 219.926,239.800 219.954 C 240.240 219.973,240.870 219.813,241.200 219.600 C 241.901 219.147,241.414 219.147,240.000 219.600 M47.050 221.191 C 46.147 223.447,46.287 223.783,47.237 221.642 C 47.666 220.675,47.945 219.812,47.858 219.725 C 47.771 219.638,47.408 220.298,47.050 221.191 M71.900 220.299 C 75.915 220.365,82.485 220.365,86.500 220.299 C 90.515 220.234,87.230 220.181,79.200 220.181 C 71.170 220.181,67.885 220.234,71.900 220.299 M262.335 223.008 C 261.090 224.214,260.196 225.200,260.349 225.200 C 260.502 225.200,261.605 224.210,262.800 223.000 C 265.609 220.156,265.276 220.162,262.335 223.008 M46.000 223.684 C 46.000 223.804,45.728 224.554,45.395 225.351 C 45.062 226.148,44.879 226.800,44.989 226.800 C 45.306 226.800,46.433 223.900,46.205 223.672 C 46.092 223.559,46.000 223.565,46.000 223.684 M254.800 228.400 C 253.590 229.039,252.741 229.571,252.913 229.581 C 253.338 229.607,257.200 227.636,257.200 227.393 C 257.200 227.126,257.255 227.103,254.800 228.400 M248.600 230.800 C 248.096 231.017,248.022 231.144,248.400 231.144 C 248.730 231.144,249.360 230.989,249.800 230.800 C 250.304 230.583,250.378 230.456,250.000 230.456 C 249.670 230.456,249.040 230.611,248.600 230.800 M242.100 232.276 C 242.485 232.376,243.115 232.376,243.500 232.276 C 243.885 232.175,243.570 232.093,242.800 232.093 C 242.030 232.093,241.715 232.175,242.100 232.276 M47.500 233.098 C 49.755 233.170,53.445 233.170,55.700 233.098 C 57.955 233.027,56.110 232.969,51.600 232.969 C 47.090 232.969,45.245 233.027,47.500 233.098 M103.722 233.099 C 106.099 233.170,109.879 233.169,112.122 233.098 C 114.365 233.027,112.420 232.969,107.800 232.969 C 103.180 232.970,101.345 233.028,103.722 233.099 M182.100 233.098 C 184.245 233.170,187.755 233.170,189.900 233.098 C 192.045 233.026,190.290 232.967,186.000 232.967 C 181.710 232.967,179.955 233.026,182.100 233.098 M214.326 233.100 C 218.576 233.164,225.416 233.164,229.526 233.099 C 233.637 233.034,230.160 232.981,221.800 232.981 C 213.440 232.982,210.077 233.035,214.326 233.100 " stroke="none" fill="#a3a3a3" fill-rule="evenodd"></path><path id="path3" d="M283.600 163.101 C 283.600 163.269,288.058 167.862,293.507 173.308 L 303.415 183.209 320.007 183.100 L 336.600 182.991 319.997 182.895 L 303.394 182.800 293.600 173.000 L 283.806 163.200 320.303 163.200 L 356.800 163.200 356.800 199.400 C 356.800 219.310,356.666 235.600,356.503 235.600 C 356.340 235.600,351.795 231.235,346.403 225.900 L 336.600 216.200 346.589 226.291 C 352.082 231.842,356.718 236.242,356.891 236.069 C 357.063 235.897,357.158 219.386,357.102 199.378 L 357.000 163.000 320.300 162.898 C 300.115 162.842,283.600 162.933,283.600 163.101 M124.184 168.500 C 124.079 168.775,124.040 183.310,124.097 200.800 L 124.200 232.600 132.200 232.600 L 140.200 232.600 140.304 212.900 C 140.385 197.526,140.516 193.206,140.904 193.225 C 141.177 193.239,143.110 195.284,145.200 197.768 C 147.290 200.253,149.069 202.227,149.153 202.156 C 149.549 201.822,141.053 192.400,140.356 192.400 C 140.153 192.400,140.000 200.994,140.000 212.400 L 140.000 232.400 132.195 232.400 L 124.391 232.400 124.495 200.200 C 124.553 182.490,124.549 168.000,124.487 168.000 C 124.426 168.000,124.289 168.225,124.184 168.500 M141.989 172.549 C 144.242 175.107,146.165 177.200,146.262 177.200 C 146.549 177.200,138.717 168.214,138.286 168.049 C 138.070 167.966,139.736 169.991,141.989 172.549 M177.853 170.200 C 176.809 171.410,176.028 172.400,176.118 172.400 C 176.208 172.400,177.204 171.410,178.330 170.200 C 179.456 168.990,180.237 168.000,180.065 168.000 C 179.893 168.000,178.898 168.990,177.853 170.200 M193.505 200.200 L 193.609 232.400 186.005 232.400 L 178.400 232.400 178.400 212.624 C 178.400 201.747,178.265 192.764,178.100 192.662 C 177.785 192.466,177.881 231.429,178.198 232.309 C 178.340 232.702,180.137 232.793,186.091 232.709 L 193.800 232.600 193.902 200.300 C 193.959 182.535,193.869 168.000,193.702 168.000 C 193.536 168.000,193.447 182.490,193.505 200.200 M206.596 200.200 L 206.600 232.600 221.927 232.705 C 230.357 232.762,238.075 232.672,239.078 232.505 C 240.082 232.337,233.231 232.259,223.854 232.330 L 206.805 232.461 206.699 200.130 L 206.593 167.800 206.596 200.200 M241.000 168.423 C 243.026 168.842,244.663 168.823,243.000 168.400 C 242.340 168.232,241.260 168.094,240.600 168.093 C 239.591 168.092,239.655 168.145,241.000 168.423 M88.017 169.100 C 88.039 169.501,89.562 172.270,89.583 171.949 C 89.611 171.535,88.405 168.800,88.195 168.800 C 88.088 168.800,88.008 168.935,88.017 169.100 M245.600 169.200 C 246.968 169.638,248.019 169.638,247.000 169.200 C 246.560 169.011,245.840 168.862,245.400 168.868 C 244.757 168.877,244.796 168.943,245.600 169.200 M252.433 171.352 C 252.841 171.724,256.800 173.593,256.800 173.413 C 256.800 173.188,252.980 171.200,252.547 171.200 C 252.393 171.200,252.342 171.268,252.433 171.352 M89.617 172.700 C 89.639 173.101,91.162 175.870,91.183 175.549 C 91.211 175.135,90.005 172.400,89.795 172.400 C 89.688 172.400,89.608 172.535,89.617 172.700 M170.418 178.708 C 167.678 181.920,165.644 184.420,165.899 184.262 C 166.600 183.829,176.077 172.795,175.715 172.834 C 175.542 172.852,173.158 175.496,170.418 178.708 M257.200 173.725 C 257.200 173.824,257.861 174.409,258.668 175.025 C 259.476 175.641,260.011 175.941,259.856 175.691 C 259.540 175.179,257.200 173.447,257.200 173.725 M91.217 176.300 C 91.239 176.701,92.762 179.470,92.783 179.149 C 92.811 178.735,91.605 176.000,91.395 176.000 C 91.288 176.000,91.208 176.135,91.217 176.300 M261.600 177.400 C 262.346 178.170,263.047 178.800,263.157 178.800 C 263.267 178.800,262.746 178.170,262.000 177.400 C 261.254 176.630,260.553 176.000,260.443 176.000 C 260.333 176.000,260.854 176.630,261.600 177.400 M151.204 183.188 C 153.863 186.262,156.246 188.905,156.501 189.062 C 156.756 189.220,154.722 186.720,151.982 183.508 C 149.242 180.296,146.858 177.652,146.685 177.634 C 146.512 177.615,148.545 180.115,151.204 183.188 M222.667 179.467 C 222.120 180.014,222.424 180.478,223.010 179.992 C 223.471 179.609,225.396 179.530,230.910 179.669 C 234.919 179.769,237.390 179.718,236.400 179.555 C 234.126 179.181,223.024 179.110,222.667 179.467 M92.817 179.900 C 92.839 180.301,94.362 183.070,94.383 182.749 C 94.411 182.335,93.205 179.600,92.995 179.600 C 92.888 179.600,92.808 179.735,92.817 179.900 M239.800 180.400 C 240.240 180.589,240.870 180.744,241.200 180.744 C 241.578 180.744,241.504 180.617,241.000 180.400 C 240.560 180.211,239.930 180.056,239.600 180.056 C 239.222 180.056,239.296 180.183,239.800 180.400 M265.406 182.112 C 265.792 182.724,266.209 183.124,266.332 183.001 C 266.455 182.878,266.139 182.378,265.630 181.889 L 264.704 181.000 265.406 182.112 M247.249 183.984 C 248.212 184.855,249.146 185.575,249.324 185.584 C 249.503 185.593,248.817 184.880,247.800 184.000 C 245.407 181.929,244.962 181.916,247.249 183.984 M94.417 183.500 C 94.439 183.901,95.962 186.670,95.983 186.349 C 96.011 185.935,94.805 183.200,94.595 183.200 C 94.488 183.200,94.408 183.335,94.417 183.500 M77.982 184.434 C 77.736 184.893,77.640 185.373,77.768 185.501 C 77.895 185.629,78.000 185.536,78.000 185.295 C 78.000 185.054,78.283 184.574,78.629 184.229 C 78.974 183.883,79.071 183.600,78.843 183.600 C 78.615 183.600,78.227 183.975,77.982 184.434 M267.078 184.995 C 267.444 185.762,267.814 186.319,267.901 186.232 C 268.084 186.049,266.870 183.600,266.596 183.600 C 266.495 183.600,266.712 184.228,267.078 184.995 M162.877 187.427 C 160.124 190.763,160.448 190.746,163.385 187.400 C 164.640 185.970,165.517 184.812,165.334 184.827 C 165.150 184.842,164.044 186.012,162.877 187.427 M250.653 187.608 C 251.238 188.493,251.806 189.128,251.914 189.019 C 252.114 188.819,250.115 186.000,249.774 186.000 C 249.672 186.000,250.068 186.724,250.653 187.608 M80.018 186.451 C 79.980 186.980,81.257 189.676,81.452 189.481 C 81.565 189.368,81.293 188.584,80.847 187.738 C 80.400 186.892,80.027 186.313,80.018 186.451 M96.017 187.100 C 96.039 187.501,97.562 190.270,97.583 189.949 C 97.611 189.535,96.405 186.800,96.195 186.800 C 96.088 186.800,96.008 186.935,96.017 187.100 M292.397 198.300 L 282.200 208.600 292.495 198.408 L 302.789 188.217 302.900 202.008 L 303.011 215.800 303.105 201.900 C 303.157 194.255,303.064 188.000,302.897 188.000 C 302.730 188.000,298.005 192.635,292.397 198.300 M157.784 190.783 C 158.928 191.977,160.449 191.920,160.368 190.686 C 160.345 190.320,160.287 190.323,160.135 190.700 C 159.823 191.474,158.463 191.291,157.907 190.400 C 157.632 189.960,157.237 189.600,157.029 189.600 C 156.821 189.600,157.160 190.132,157.784 190.783 M97.617 190.700 C 97.639 191.101,99.162 193.870,99.183 193.549 C 99.211 193.135,98.005 190.400,97.795 190.400 C 97.688 190.400,97.608 190.535,97.617 190.700 M269.668 191.600 C 269.688 192.639,270.318 194.346,270.332 193.400 C 270.338 192.960,270.189 192.240,270.000 191.800 C 269.789 191.310,269.661 191.232,269.668 191.600 M174.833 195.200 C 173.684 196.520,172.892 197.590,173.073 197.577 C 173.406 197.554,177.406 192.800,177.092 192.800 C 176.997 192.800,175.981 193.880,174.833 195.200 M99.217 194.300 C 99.239 194.701,100.762 197.470,100.783 197.149 C 100.811 196.735,99.605 194.000,99.395 194.000 C 99.288 194.000,99.208 194.135,99.217 194.300 M253.862 195.400 C 253.996 196.280,254.172 197.075,254.253 197.167 C 254.556 197.510,254.329 195.368,253.981 194.600 C 253.729 194.042,253.693 194.285,253.862 195.400 M270.567 200.600 C 270.560 205.373,270.588 205.575,270.910 203.061 C 271.106 201.522,271.109 199.243,270.917 197.861 C 270.617 195.706,270.573 196.047,270.567 200.600 M100.817 197.900 C 100.839 198.301,102.362 201.070,102.383 200.749 C 102.411 200.335,101.205 197.600,100.995 197.600 C 100.888 197.600,100.808 197.735,100.817 197.900 M170.215 200.600 C 168.960 202.030,168.083 203.188,168.266 203.173 C 168.607 203.146,172.990 198.000,172.672 198.000 C 172.576 198.000,171.470 199.170,170.215 200.600 M102.417 201.500 C 102.439 201.901,103.962 204.670,103.983 204.349 C 104.011 203.935,102.805 201.200,102.595 201.200 C 102.488 201.200,102.408 201.335,102.417 201.500 M150.623 203.978 C 152.708 206.569,153.999 208.001,153.990 207.714 C 153.985 207.541,153.040 206.400,151.890 205.178 C 150.741 203.955,150.170 203.415,150.623 203.978 M253.822 204.622 C 253.672 205.425,253.638 206.172,253.748 206.282 C 253.858 206.392,254.072 205.825,254.222 205.022 C 254.373 204.219,254.406 203.473,254.296 203.363 C 254.186 203.253,253.973 203.819,253.822 204.622 M166.575 204.900 L 165.400 206.200 166.700 205.025 C 167.415 204.379,168.000 203.794,168.000 203.725 C 168.000 203.416,167.670 203.688,166.575 204.900 M104.017 205.100 C 104.039 205.501,105.562 208.270,105.583 207.949 C 105.611 207.535,104.405 204.800,104.195 204.800 C 104.088 204.800,104.008 204.935,104.017 205.100 M164.200 207.600 C 163.568 208.260,163.219 208.790,163.425 208.778 C 163.778 208.757,165.839 206.400,165.505 206.400 C 165.420 206.400,164.832 206.940,164.200 207.600 M269.850 208.050 C 269.709 208.753,269.669 209.402,269.759 209.492 C 269.850 209.583,270.048 209.091,270.200 208.400 C 270.352 207.709,270.393 207.059,270.291 206.958 C 270.189 206.856,269.991 207.347,269.850 208.050 M69.246 207.907 L 69.200 208.814 79.067 208.707 C 86.675 208.624,88.957 208.483,89.037 208.090 C 89.094 207.810,89.049 207.764,88.937 207.990 C 88.533 208.804,69.691 208.523,69.476 207.700 C 69.339 207.177,69.281 207.230,69.246 207.907 M105.617 208.700 C 105.639 209.101,107.162 211.870,107.183 211.549 C 107.211 211.135,106.005 208.400,105.795 208.400 C 105.688 208.400,105.608 208.535,105.617 208.700 M155.871 210.138 C 158.368 213.305,159.407 213.372,161.999 210.533 L 163.399 209.000 161.783 210.500 C 159.506 212.613,158.332 212.531,156.093 210.100 L 154.343 208.200 155.871 210.138 M250.616 212.900 C 250.017 213.835,248.778 215.292,247.863 216.137 C 246.463 217.431,246.406 217.538,247.501 216.810 C 248.752 215.977,249.906 214.640,251.393 212.300 C 251.777 211.695,252.005 211.200,251.899 211.200 C 251.793 211.200,251.216 211.965,250.616 212.900 M107.217 212.300 C 107.239 212.701,108.762 215.470,108.783 215.149 C 108.811 214.735,107.605 212.000,107.395 212.000 C 107.288 212.000,107.208 212.135,107.217 212.300 M108.817 215.900 C 108.839 216.301,110.362 219.070,110.383 218.749 C 110.411 218.335,109.205 215.600,108.995 215.600 C 108.888 215.600,108.808 215.735,108.817 215.900 M265.515 218.611 C 264.722 219.815,264.192 220.797,264.337 220.793 C 264.674 220.784,267.307 216.773,267.106 216.573 C 267.024 216.490,266.307 217.408,265.515 218.611 M331.357 217.130 C 331.469 217.312,327.016 221.992,321.462 227.530 C 315.908 233.069,311.461 237.600,311.579 237.600 C 311.917 237.600,332.000 217.442,332.000 217.103 C 332.000 216.936,331.809 216.800,331.576 216.800 C 331.343 216.800,331.245 216.949,331.357 217.130 M244.400 218.400 C 243.630 218.822,243.144 219.174,243.320 219.183 C 243.744 219.205,246.000 218.032,246.000 217.790 C 246.000 217.528,245.977 217.537,244.400 218.400 M110.417 219.500 C 110.439 219.901,111.962 222.670,111.983 222.349 C 112.011 221.935,110.805 219.200,110.595 219.200 C 110.488 219.200,110.408 219.335,110.417 219.500 M64.382 220.434 C 64.136 220.893,64.023 221.357,64.131 221.464 C 64.239 221.572,64.447 221.282,64.593 220.821 C 64.859 219.985,64.933 219.982,79.592 220.090 C 87.695 220.151,94.241 220.065,94.138 219.900 C 93.618 219.059,64.841 219.575,64.382 220.434 M238.000 220.400 L 237.000 220.720 238.000 220.732 C 238.550 220.738,239.360 220.589,239.800 220.400 L 240.600 220.056 239.800 220.068 C 239.360 220.074,238.550 220.224,238.000 220.400 M225.900 221.097 C 227.495 221.173,230.105 221.173,231.700 221.097 C 233.295 221.021,231.990 220.959,228.800 220.959 C 225.610 220.959,224.305 221.021,225.900 221.097 M261.400 223.486 C 260.080 224.724,259.540 225.362,260.200 224.903 C 261.351 224.104,264.348 221.181,263.978 221.218 C 263.880 221.228,262.720 222.249,261.400 223.486 M112.017 223.100 C 112.039 223.501,113.562 226.270,113.583 225.949 C 113.611 225.535,112.405 222.800,112.195 222.800 C 112.088 222.800,112.008 222.935,112.017 223.100 M113.617 226.700 C 113.639 227.101,115.162 229.870,115.183 229.549 C 115.211 229.135,114.005 226.400,113.795 226.400 C 113.688 226.400,113.608 226.535,113.617 226.700 M43.443 231.033 C 42.764 232.801,42.760 232.800,51.536 232.800 L 59.872 232.800 60.336 231.781 C 60.997 230.330,60.881 229.992,60.171 231.300 L 59.574 232.400 51.544 232.400 L 43.513 232.400 43.764 231.400 C 44.042 230.292,43.823 230.041,43.443 231.033 M98.416 230.481 C 98.407 230.636,98.609 231.221,98.864 231.781 L 99.328 232.800 107.641 232.800 C 112.212 232.800,116.036 232.665,116.139 232.500 C 116.241 232.335,112.571 232.252,107.983 232.315 L 99.642 232.431 99.037 231.315 C 98.704 230.702,98.425 230.327,98.416 230.481 M247.200 230.800 C 246.667 231.145,246.667 231.188,247.200 231.188 C 247.530 231.188,248.070 231.013,248.400 230.800 C 248.933 230.455,248.933 230.412,248.400 230.412 C 248.070 230.412,247.530 230.587,247.200 230.800 M243.400 231.600 C 242.311 231.877,242.293 231.907,243.200 231.925 C 243.750 231.935,244.560 231.789,245.000 231.600 C 245.986 231.176,245.066 231.176,243.400 231.600 " stroke="none" fill="#747474" fill-rule="evenodd"></path><path id="path4" d="M283.462 162.700 C 283.294 162.972,308.792 162.969,343.400 162.694 C 350.660 162.636,340.186 162.546,320.124 162.494 C 300.062 162.442,283.564 162.535,283.462 162.700 M293.200 173.400 C 298.587 178.790,303.084 183.200,303.194 183.200 C 303.304 183.200,298.987 178.790,293.600 173.400 C 288.213 168.010,283.716 163.600,283.606 163.600 C 283.496 163.600,287.813 168.010,293.200 173.400 M73.700 167.899 C 76.285 167.968,80.515 167.968,83.100 167.899 C 85.685 167.829,83.570 167.772,78.400 167.772 C 73.230 167.772,71.115 167.829,73.700 167.899 M128.120 167.898 C 130.055 167.972,133.115 167.971,134.920 167.897 C 136.724 167.823,135.140 167.763,131.400 167.764 C 127.660 167.764,126.184 167.825,128.120 167.898 M183.300 167.898 C 185.225 167.971,188.375 167.971,190.300 167.898 C 192.225 167.825,190.650 167.765,186.800 167.765 C 182.950 167.765,181.375 167.825,183.300 167.898 M214.300 167.899 C 218.535 167.964,225.465 167.964,229.700 167.899 C 233.935 167.835,230.470 167.782,222.000 167.782 C 213.530 167.782,210.065 167.835,214.300 167.899 M194.000 200.480 C 193.890 218.234,193.936 232.624,194.102 232.458 C 194.269 232.291,194.359 217.765,194.302 200.178 L 194.200 168.200 194.000 200.480 M226.118 179.898 C 227.833 179.973,230.533 179.972,232.118 179.897 C 233.703 179.821,232.300 179.759,229.000 179.760 C 225.700 179.761,224.403 179.822,226.118 179.898 M222.490 200.276 C 222.441 211.318,222.535 220.436,222.700 220.538 C 222.973 220.707,222.968 205.895,222.689 187.400 C 222.630 183.440,222.540 189.234,222.490 200.276 M292.397 197.900 L 282.200 208.200 292.585 198.000 C 298.296 192.390,303.051 187.755,303.151 187.700 C 303.252 187.645,303.167 187.600,302.964 187.600 C 302.760 187.600,298.005 192.235,292.397 197.900 M177.690 213.076 C 177.640 223.678,177.735 232.436,177.900 232.538 C 178.173 232.707,178.167 217.989,177.889 200.600 C 177.829 196.860,177.739 202.474,177.690 213.076 M282.181 222.800 C 282.181 230.830,282.234 234.115,282.299 230.100 C 282.365 226.085,282.365 219.515,282.299 215.500 C 282.234 211.485,282.181 214.770,282.181 222.800 M346.400 226.600 C 351.787 231.990,356.284 236.400,356.394 236.400 C 356.504 236.400,352.187 231.990,346.800 226.600 C 341.413 221.210,336.916 216.800,336.806 216.800 C 336.696 216.800,341.013 221.210,346.400 226.600 " stroke="none" fill="#8c8c8c" fill-rule="evenodd"></path></g></svg>