<svg id="svg" version="1.1" xmlns="http://www.w3.org/2000/svg" xmlns:xlink="http://www.w3.org/1999/xlink" width="400" height="400" viewBox="0, 0, 400,400"><g id="svgg"><path id="path0" d="M196.200 71.882 C 160.251 72.620,133.120 89.316,123.859 116.400 C 119.409 129.413,120.592 132.684,130.086 133.626 C 132.129 133.829,135.420 134.177,137.400 134.400 C 139.380 134.622,142.710 134.983,144.800 135.201 C 146.890 135.420,150.130 135.777,152.000 135.995 C 164.059 137.404,165.407 136.792,167.417 129.000 C 171.341 113.789,189.363 105.131,205.693 110.612 C 217.059 114.427,220.800 121.777,220.800 140.292 L 220.800 149.185 219.900 149.362 C 219.405 149.460,216.840 149.744,214.200 149.995 C 211.560 150.245,207.960 150.610,206.200 150.806 C 204.440 151.002,201.200 151.357,199.000 151.594 C 193.659 152.171,188.698 152.853,181.300 154.029 C 138.380 160.852,115.179 183.929,115.203 219.770 C 115.225 251.966,133.390 272.382,164.129 274.761 C 187.949 276.604,205.368 270.219,223.602 252.959 C 225.809 250.871,227.755 249.249,227.927 249.355 C 228.100 249.462,230.026 252.125,232.209 255.274 C 235.253 259.667,237.483 262.307,241.789 266.614 C 251.269 276.097,252.101 276.105,262.800 266.801 C 265.990 264.027,272.400 258.497,277.044 254.512 C 286.024 246.808,286.005 246.829,285.991 244.267 C 285.979 242.004,285.063 240.287,280.617 234.200 C 276.103 228.019,273.638 223.241,272.154 217.800 L 271.064 213.800 270.779 169.000 C 270.488 123.317,270.476 122.960,268.985 115.200 C 263.568 87.012,236.746 71.049,196.200 71.882 M220.800 188.977 C 220.800 205.763,219.648 212.388,215.197 221.205 C 202.732 245.899,172.971 245.860,167.815 221.143 C 163.951 202.624,172.898 187.050,190.753 181.215 C 198.500 178.684,215.427 176.568,220.100 177.547 C 220.747 177.682,220.800 178.553,220.800 188.977 " stroke="none" fill="#040404" fill-rule="evenodd"></path><path id="path1" d="M178.500 0.274 C 176.465 0.360,174.800 0.603,174.800 0.815 C 174.800 1.030,173.383 1.200,171.600 1.200 C 169.733 1.200,168.400 1.367,168.400 1.600 C 168.400 1.820,167.511 2.000,166.424 2.000 C 165.337 2.000,164.336 2.180,164.200 2.400 C 164.064 2.620,162.973 2.800,161.776 2.800 C 160.579 2.800,159.600 2.980,159.600 3.200 C 159.600 3.420,158.801 3.600,157.824 3.600 C 156.847 3.600,155.936 3.780,155.800 4.000 C 155.664 4.220,154.843 4.400,153.976 4.400 C 153.109 4.400,152.400 4.580,152.400 4.800 C 152.400 5.020,151.680 5.200,150.800 5.200 C 149.920 5.200,149.200 5.380,149.200 5.600 C 149.200 5.820,148.581 6.000,147.824 6.000 C 147.067 6.000,146.336 6.180,146.200 6.400 C 146.064 6.620,145.423 6.800,144.776 6.800 C 144.129 6.800,143.600 6.980,143.600 7.200 C 143.600 7.420,142.880 7.600,142.000 7.600 C 141.120 7.600,140.400 7.780,140.400 8.000 C 140.400 8.220,139.860 8.400,139.200 8.400 C 138.540 8.400,138.000 8.580,138.000 8.800 C 138.000 9.020,137.460 9.200,136.800 9.200 C 136.140 9.200,135.600 9.380,135.600 9.600 C 135.600 9.820,135.060 10.000,134.400 10.000 C 133.740 10.000,133.200 10.180,133.200 10.400 C 133.200 10.620,132.660 10.800,132.000 10.800 C 131.340 10.800,130.800 10.980,130.800 11.200 C 130.800 11.420,130.440 11.600,130.000 11.600 C 129.560 11.600,129.200 11.780,129.200 12.000 C 129.200 12.220,128.660 12.400,128.000 12.400 C 127.340 12.400,126.800 12.580,126.800 12.800 C 126.800 13.020,126.440 13.200,126.000 13.200 C 125.560 13.200,125.200 13.380,125.200 13.600 C 125.200 13.820,124.660 14.000,124.000 14.000 C 123.340 14.000,122.800 14.180,122.800 14.400 C 122.800 14.620,122.440 14.800,122.000 14.800 C 121.560 14.800,121.200 14.980,121.200 15.200 C 121.200 15.420,120.761 15.600,120.224 15.600 C 119.687 15.600,119.136 15.780,119.000 16.000 C 118.864 16.220,118.403 16.400,117.976 16.400 C 117.549 16.400,117.200 16.580,117.200 16.800 C 117.200 17.020,116.840 17.200,116.400 17.200 C 115.960 17.200,115.600 17.380,115.600 17.600 C 115.600 17.820,115.240 18.000,114.800 18.000 C 114.360 18.000,114.000 18.180,114.000 18.400 C 114.000 18.620,113.640 18.800,113.200 18.800 C 112.760 18.800,112.400 18.980,112.400 19.200 C 112.400 19.420,112.040 19.600,111.600 19.600 C 111.160 19.600,110.800 19.780,110.800 20.000 C 110.800 20.220,110.440 20.400,110.000 20.400 C 109.560 20.400,109.200 20.580,109.200 20.800 C 109.200 21.020,108.840 21.200,108.400 21.200 C 107.960 21.200,107.600 21.380,107.600 21.600 C 107.600 21.820,107.240 22.000,106.800 22.000 C 106.360 22.000,106.000 22.180,106.000 22.400 C 106.000 22.620,105.640 22.800,105.200 22.800 C 104.760 22.800,104.400 22.980,104.400 23.200 C 104.400 23.420,104.040 23.600,103.600 23.600 C 103.160 23.600,102.800 23.780,102.800 24.000 C 102.800 24.220,102.480 24.400,102.088 24.400 C 101.697 24.400,101.117 24.760,100.800 25.200 C 100.483 25.640,99.903 26.000,99.512 26.000 C 99.120 26.000,98.800 26.180,98.800 26.400 C 98.800 26.620,98.440 26.800,98.000 26.800 C 97.560 26.800,97.200 26.980,97.200 27.200 C 97.200 27.420,96.964 27.600,96.675 27.600 C 96.387 27.600,95.764 27.960,95.292 28.400 C 94.820 28.840,94.196 29.200,93.905 29.200 C 93.614 29.200,93.117 29.560,92.800 30.000 C 92.483 30.440,91.943 30.800,91.600 30.800 C 91.257 30.800,90.717 31.160,90.400 31.600 C 90.083 32.040,89.503 32.400,89.112 32.400 C 88.720 32.400,88.400 32.550,88.400 32.732 C 88.400 32.915,87.905 33.319,87.300 33.630 C 86.695 33.940,85.909 34.511,85.553 34.897 C 85.197 35.284,84.652 35.600,84.341 35.600 C 84.031 35.600,83.517 35.960,83.200 36.400 C 82.883 36.840,82.420 37.200,82.171 37.200 C 81.922 37.200,81.154 37.740,80.463 38.400 C 79.772 39.060,79.047 39.600,78.852 39.600 C 78.656 39.600,77.755 40.320,76.848 41.200 C 75.941 42.080,75.005 42.800,74.768 42.800 C 74.531 42.800,73.646 43.520,72.800 44.400 C 71.954 45.280,71.084 46.000,70.866 46.000 C 70.648 46.000,69.413 47.035,68.121 48.300 C 66.829 49.565,65.072 51.128,64.217 51.773 C 62.202 53.293,53.293 62.202,51.773 64.217 C 51.128 65.072,49.565 66.829,48.300 68.121 C 47.035 69.413,46.000 70.648,46.000 70.866 C 46.000 71.084,45.280 71.954,44.400 72.800 C 43.520 73.646,42.800 74.531,42.800 74.768 C 42.800 75.005,42.080 75.941,41.200 76.848 C 40.320 77.755,39.600 78.656,39.600 78.852 C 39.600 79.047,39.060 79.772,38.400 80.463 C 37.740 81.154,37.200 81.922,37.200 82.171 C 37.200 82.420,36.840 82.883,36.400 83.200 C 35.960 83.517,35.600 84.031,35.600 84.341 C 35.600 84.652,35.284 85.197,34.897 85.553 C 34.511 85.909,33.940 86.695,33.630 87.300 C 33.319 87.905,32.915 88.400,32.732 88.400 C 32.550 88.400,32.400 88.720,32.400 89.112 C 32.400 89.503,32.040 90.083,31.600 90.400 C 31.160 90.717,30.800 91.257,30.800 91.600 C 30.800 91.943,30.440 92.483,30.000 92.800 C 29.560 93.117,29.200 93.614,29.200 93.905 C 29.200 94.196,28.840 94.820,28.400 95.292 C 27.960 95.764,27.600 96.387,27.600 96.675 C 27.600 96.964,27.420 97.200,27.200 97.200 C 26.980 97.200,26.800 97.560,26.800 98.000 C 26.800 98.440,26.620 98.800,26.400 98.800 C 26.180 98.800,26.000 99.120,26.000 99.512 C 26.000 99.903,25.640 100.483,25.200 100.800 C 24.760 101.117,24.400 101.697,24.400 102.088 C 24.400 102.480,24.220 102.800,24.000 102.800 C 23.780 102.800,23.600 103.160,23.600 103.600 C 23.600 104.040,23.420 104.400,23.200 104.400 C 22.980 104.400,22.800 104.760,22.800 105.200 C 22.800 105.640,22.620 106.000,22.400 106.000 C 22.180 106.000,22.000 106.360,22.000 106.800 C 22.000 107.240,21.820 107.600,21.600 107.600 C 21.380 107.600,21.200 107.960,21.200 108.400 C 21.200 108.840,21.020 109.200,20.800 109.200 C 20.580 109.200,20.400 109.560,20.400 110.000 C 20.400 110.440,20.220 110.800,20.000 110.800 C 19.780 110.800,19.600 111.160,19.600 111.600 C 19.600 112.040,19.420 112.400,19.200 112.400 C 18.980 112.400,18.800 112.760,18.800 113.200 C 18.800 113.640,18.620 114.000,18.400 114.000 C 18.180 114.000,18.000 114.360,18.000 114.800 C 18.000 115.240,17.820 115.600,17.600 115.600 C 17.380 115.600,17.200 115.960,17.200 116.400 C 17.200 116.840,17.020 117.200,16.800 117.200 C 16.580 117.200,16.400 117.549,16.400 117.976 C 16.400 118.403,16.220 118.864,16.000 119.000 C 15.780 119.136,15.600 119.687,15.600 120.224 C 15.600 120.761,15.420 121.200,15.200 121.200 C 14.980 121.200,14.800 121.560,14.800 122.000 C 14.800 122.440,14.620 122.800,14.400 122.800 C 14.180 122.800,14.000 123.340,14.000 124.000 C 14.000 124.660,13.820 125.200,13.600 125.200 C 13.380 125.200,13.200 125.560,13.200 126.000 C 13.200 126.440,13.020 126.800,12.800 126.800 C 12.580 126.800,12.400 127.340,12.400 128.000 C 12.400 128.660,12.220 129.200,12.000 129.200 C 11.780 129.200,11.600 129.560,11.600 130.000 C 11.600 130.440,11.420 130.800,11.200 130.800 C 10.980 130.800,10.800 131.340,10.800 132.000 C 10.800 132.660,10.620 133.200,10.400 133.200 C 10.180 133.200,10.000 133.740,10.000 134.400 C 10.000 135.060,9.820 135.600,9.600 135.600 C 9.380 135.600,9.200 136.140,9.200 136.800 C 9.200 137.460,9.020 138.000,8.800 138.000 C 8.580 138.000,8.400 138.540,8.400 139.200 C 8.400 139.860,8.220 140.400,8.000 140.400 C 7.780 140.400,7.600 141.120,7.600 142.000 C 7.600 142.880,7.420 143.600,7.200 143.600 C 6.980 143.600,6.800 144.129,6.800 144.776 C 6.800 145.423,6.620 146.064,6.400 146.200 C 6.180 146.336,6.000 147.067,6.000 147.824 C 6.000 148.581,5.820 149.200,5.600 149.200 C 5.380 149.200,5.200 149.920,5.200 150.800 C 5.200 151.680,5.020 152.400,4.800 152.400 C 4.580 152.400,4.400 153.109,4.400 153.976 C 4.400 154.843,4.220 155.664,4.000 155.800 C 3.780 155.936,3.600 156.847,3.600 157.824 C 3.600 158.801,3.420 159.600,3.200 159.600 C 2.980 159.600,2.800 160.579,2.800 161.776 C 2.800 162.973,2.620 164.064,2.400 164.200 C 2.180 164.336,2.000 165.337,2.000 166.424 C 2.000 167.511,1.820 168.400,1.600 168.400 C 1.367 168.400,1.200 169.722,1.200 171.567 C 1.200 173.744,1.044 174.785,0.700 174.900 C -0.032 175.144,-0.032 224.856,0.700 225.100 C 1.044 225.215,1.200 226.256,1.200 228.433 C 1.200 230.278,1.367 231.600,1.600 231.600 C 1.820 231.600,2.000 232.489,2.000 233.576 C 2.000 234.663,2.180 235.664,2.400 235.800 C 2.620 235.936,2.800 237.027,2.800 238.224 C 2.800 239.421,2.980 240.400,3.200 240.400 C 3.420 240.400,3.600 241.199,3.600 242.176 C 3.600 243.153,3.780 244.064,4.000 244.200 C 4.220 244.336,4.400 245.157,4.400 246.024 C 4.400 246.891,4.580 247.600,4.800 247.600 C 5.020 247.600,5.200 248.320,5.200 249.200 C 5.200 250.080,5.380 250.800,5.600 250.800 C 5.820 250.800,6.000 251.419,6.000 252.176 C 6.000 252.933,6.180 253.664,6.400 253.800 C 6.620 253.936,6.800 254.577,6.800 255.224 C 6.800 255.871,6.980 256.400,7.200 256.400 C 7.420 256.400,7.600 257.120,7.600 258.000 C 7.600 258.880,7.780 259.600,8.000 259.600 C 8.220 259.600,8.400 260.140,8.400 260.800 C 8.400 261.460,8.580 262.000,8.800 262.000 C 9.020 262.000,9.200 262.540,9.200 263.200 C 9.200 263.860,9.380 264.400,9.600 264.400 C 9.820 264.400,10.000 264.940,10.000 265.600 C 10.000 266.260,10.180 266.800,10.400 266.800 C 10.620 266.800,10.800 267.340,10.800 268.000 C 10.800 268.660,10.980 269.200,11.200 269.200 C 11.420 269.200,11.600 269.560,11.600 270.000 C 11.600 270.440,11.780 270.800,12.000 270.800 C 12.220 270.800,12.400 271.340,12.400 272.000 C 12.400 272.660,12.580 273.200,12.800 273.200 C 13.020 273.200,13.200 273.560,13.200 274.000 C 13.200 274.440,13.380 274.800,13.600 274.800 C 13.820 274.800,14.000 275.340,14.000 276.000 C 14.000 276.660,14.180 277.200,14.400 277.200 C 14.620 277.200,14.800 277.560,14.800 278.000 C 14.800 278.440,14.980 278.800,15.200 278.800 C 15.420 278.800,15.600 279.239,15.600 279.776 C 15.600 280.313,15.780 280.864,16.000 281.000 C 16.220 281.136,16.400 281.597,16.400 282.024 C 16.400 282.451,16.580 282.800,16.800 282.800 C 17.020 282.800,17.200 283.160,17.200 283.600 C 17.200 284.040,17.380 284.400,17.600 284.400 C 17.820 284.400,18.000 284.760,18.000 285.200 C 18.000 285.640,18.180 286.000,18.400 286.000 C 18.620 286.000,18.800 286.360,18.800 286.800 C 18.800 287.240,18.980 287.600,19.200 287.600 C 19.420 287.600,19.600 287.960,19.600 288.400 C 19.600 288.840,19.780 289.200,20.000 289.200 C 20.220 289.200,20.400 289.560,20.400 290.000 C 20.400 290.440,20.580 290.800,20.800 290.800 C 21.020 290.800,21.200 291.160,21.200 291.600 C 21.200 292.040,21.380 292.400,21.600 292.400 C 21.820 292.400,22.000 292.760,22.000 293.200 C 22.000 293.640,22.180 294.000,22.400 294.000 C 22.620 294.000,22.800 294.360,22.800 294.800 C 22.800 295.240,22.980 295.600,23.200 295.600 C 23.420 295.600,23.600 295.960,23.600 296.400 C 23.600 296.840,23.780 297.200,24.000 297.200 C 24.220 297.200,24.400 297.520,24.400 297.912 C 24.400 298.303,24.760 298.883,25.200 299.200 C 25.640 299.517,26.000 300.097,26.000 300.488 C 26.000 300.880,26.180 301.200,26.400 301.200 C 26.620 301.200,26.800 301.560,26.800 302.000 C 26.800 302.440,26.980 302.800,27.200 302.800 C 27.420 302.800,27.600 303.036,27.600 303.325 C 27.600 303.613,27.960 304.236,28.400 304.708 C 28.840 305.180,29.200 305.804,29.200 306.095 C 29.200 306.386,29.560 306.883,30.000 307.200 C 30.440 307.517,30.800 308.057,30.800 308.400 C 30.800 308.743,31.160 309.283,31.600 309.600 C 32.040 309.917,32.400 310.497,32.400 310.888 C 32.400 311.280,32.550 311.600,32.732 311.600 C 32.915 311.600,33.319 312.095,33.630 312.700 C 33.940 313.305,34.511 314.091,34.897 314.447 C 35.284 314.803,35.600 315.348,35.600 315.659 C 35.600 315.969,35.960 316.483,36.400 316.800 C 36.840 317.117,37.200 317.580,37.200 317.829 C 37.200 318.078,37.740 318.846,38.400 319.537 C 39.060 320.228,39.600 320.953,39.600 321.148 C 39.600 321.344,40.320 322.245,41.200 323.152 C 42.080 324.059,42.800 324.995,42.800 325.232 C 42.800 325.469,43.520 326.354,44.400 327.200 C 45.280 328.046,46.000 328.916,46.000 329.134 C 46.000 329.352,47.035 330.587,48.300 331.879 C 49.565 333.171,51.128 334.928,51.773 335.783 C 53.293 337.798,62.202 346.707,64.217 348.227 C 65.072 348.872,66.829 350.435,68.121 351.700 C 69.413 352.965,70.648 354.000,70.866 354.000 C 71.084 354.000,71.954 354.720,72.800 355.600 C 73.646 356.480,74.531 357.200,74.768 357.200 C 75.005 357.200,75.941 357.920,76.848 358.800 C 77.755 359.680,78.656 360.400,78.852 360.400 C 79.047 360.400,79.772 360.940,80.463 361.600 C 81.154 362.260,81.922 362.800,82.171 362.800 C 82.420 362.800,82.883 363.160,83.200 363.600 C 83.517 364.040,84.031 364.400,84.341 364.400 C 84.652 364.400,85.197 364.716,85.553 365.103 C 85.909 365.489,86.695 366.060,87.300 366.370 C 87.905 366.681,88.400 367.085,88.400 367.268 C 88.400 367.450,88.720 367.600,89.112 367.600 C 89.503 367.600,90.083 367.960,90.400 368.400 C 90.717 368.840,91.257 369.200,91.600 369.200 C 91.943 369.200,92.483 369.560,92.800 370.000 C 93.117 370.440,93.614 370.800,93.905 370.800 C 94.196 370.800,94.820 371.160,95.292 371.600 C 95.764 372.040,96.387 372.400,96.675 372.400 C 96.964 372.400,97.200 372.580,97.200 372.800 C 97.200 373.020,97.560 373.200,98.000 373.200 C 98.440 373.200,98.800 373.380,98.800 373.600 C 98.800 373.820,99.120 374.000,99.512 374.000 C 99.903 374.000,100.483 374.360,100.800 374.800 C 101.117 375.240,101.697 375.600,102.088 375.600 C 102.480 375.600,102.800 375.780,102.800 376.000 C 102.800 376.220,103.160 376.400,103.600 376.400 C 104.040 376.400,104.400 376.580,104.400 376.800 C 104.400 377.020,104.760 377.200,105.200 377.200 C 105.640 377.200,106.000 377.380,106.000 377.600 C 106.000 377.820,106.360 378.000,106.800 378.000 C 107.240 378.000,107.600 378.180,107.600 378.400 C 107.600 378.620,107.960 378.800,108.400 378.800 C 108.840 378.800,109.200 378.980,109.200 379.200 C 109.200 379.420,109.560 379.600,110.000 379.600 C 110.440 379.600,110.800 379.780,110.800 380.000 C 110.800 380.220,111.160 380.400,111.600 380.400 C 112.040 380.400,112.400 380.580,112.400 380.800 C 112.400 381.020,112.760 381.200,113.200 381.200 C 113.640 381.200,114.000 381.380,114.000 381.600 C 114.000 381.820,114.360 382.000,114.800 382.000 C 115.240 382.000,115.600 382.180,115.600 382.400 C 115.600 382.620,115.960 382.800,116.400 382.800 C 116.840 382.800,117.200 382.980,117.200 383.200 C 117.200 383.420,117.549 383.600,117.976 383.600 C 118.403 383.600,118.864 383.780,119.000 384.000 C 119.136 384.220,119.687 384.400,120.224 384.400 C 120.761 384.400,121.200 384.580,121.200 384.800 C 121.200 385.020,121.560 385.200,122.000 385.200 C 122.440 385.200,122.800 385.380,122.800 385.600 C 122.800 385.820,123.340 386.000,124.000 386.000 C 124.660 386.000,125.200 386.180,125.200 386.400 C 125.200 386.620,125.560 386.800,126.000 386.800 C 126.440 386.800,126.800 386.980,126.800 387.200 C 126.800 387.420,127.340 387.600,128.000 387.600 C 128.660 387.600,129.200 387.780,129.200 388.000 C 129.200 388.220,129.560 388.400,130.000 388.400 C 130.440 388.400,130.800 388.580,130.800 388.800 C 130.800 389.020,131.340 389.200,132.000 389.200 C 132.660 389.200,133.200 389.380,133.200 389.600 C 133.200 389.820,133.740 390.000,134.400 390.000 C 135.060 390.000,135.600 390.180,135.600 390.400 C 135.600 390.620,136.140 390.800,136.800 390.800 C 137.460 390.800,138.000 390.980,138.000 391.200 C 138.000 391.420,138.540 391.600,139.200 391.600 C 139.860 391.600,140.400 391.780,140.400 392.000 C 140.400 392.220,141.120 392.400,142.000 392.400 C 142.880 392.400,143.600 392.580,143.600 392.800 C 143.600 393.020,144.129 393.200,144.776 393.200 C 145.423 393.200,146.064 393.380,146.200 393.600 C 146.336 393.820,147.067 394.000,147.824 394.000 C 148.581 394.000,149.200 394.180,149.200 394.400 C 149.200 394.620,149.920 394.800,150.800 394.800 C 151.680 394.800,152.400 394.980,152.400 395.200 C 152.400 395.420,153.109 395.600,153.976 395.600 C 154.843 395.600,155.664 395.780,155.800 396.000 C 155.936 396.220,156.847 396.400,157.824 396.400 C 158.801 396.400,159.600 396.580,159.600 396.800 C 159.600 397.020,160.579 397.200,161.776 397.200 C 162.973 397.200,164.064 397.380,164.200 397.600 C 164.336 397.820,165.337 398.000,166.424 398.000 C 167.511 398.000,168.400 398.180,168.400 398.400 C 168.400 398.633,169.722 398.800,171.567 398.800 C 173.744 398.800,174.785 398.956,174.900 399.300 C 175.144 400.032,224.856 400.032,225.100 399.300 C 225.215 398.956,226.256 398.800,228.433 398.800 C 230.278 398.800,231.600 398.633,231.600 398.400 C 231.600 398.180,232.489 398.000,233.576 398.000 C 234.663 398.000,235.664 397.820,235.800 397.600 C 235.936 397.380,237.027 397.200,238.224 397.200 C 239.421 397.200,240.400 397.020,240.400 396.800 C 240.400 396.580,241.199 396.400,242.176 396.400 C 243.153 396.400,244.064 396.220,244.200 396.000 C 244.336 395.780,245.157 395.600,246.024 395.600 C 246.891 395.600,247.600 395.420,247.600 395.200 C 247.600 394.980,248.320 394.800,249.200 394.800 C 250.080 394.800,250.800 394.620,250.800 394.400 C 250.800 394.180,251.419 394.000,252.176 394.000 C 252.933 394.000,253.664 393.820,253.800 393.600 C 253.936 393.380,254.577 393.200,255.224 393.200 C 255.871 393.200,256.400 393.020,256.400 392.800 C 256.400 392.580,257.120 392.400,258.000 392.400 C 258.880 392.400,259.600 392.220,259.600 392.000 C 259.600 391.780,260.140 391.600,260.800 391.600 C 261.460 391.600,262.000 391.420,262.000 391.200 C 262.000 390.980,262.540 390.800,263.200 390.800 C 263.860 390.800,264.400 390.620,264.400 390.400 C 264.400 390.180,264.940 390.000,265.600 390.000 C 266.260 390.000,266.800 389.820,266.800 389.600 C 266.800 389.380,267.340 389.200,268.000 389.200 C 268.660 389.200,269.200 389.020,269.200 388.800 C 269.200 388.580,269.560 388.400,270.000 388.400 C 270.440 388.400,270.800 388.220,270.800 388.000 C 270.800 387.780,271.340 387.600,272.000 387.600 C 272.660 387.600,273.200 387.420,273.200 387.200 C 273.200 386.980,273.560 386.800,274.000 386.800 C 274.440 386.800,274.800 386.620,274.800 386.400 C 274.800 386.180,275.340 386.000,276.000 386.000 C 276.660 386.000,277.200 385.820,277.200 385.600 C 277.200 385.380,277.560 385.200,278.000 385.200 C 278.440 385.200,278.800 385.020,278.800 384.800 C 278.800 384.580,279.239 384.400,279.776 384.400 C 280.313 384.400,280.864 384.220,281.000 384.000 C 281.136 383.780,281.597 383.600,282.024 383.600 C 282.451 383.600,282.800 383.420,282.800 383.200 C 282.800 382.980,283.160 382.800,283.600 382.800 C 284.040 382.800,284.400 382.620,284.400 382.400 C 284.400 382.180,284.760 382.000,285.200 382.000 C 285.640 382.000,286.000 381.820,286.000 381.600 C 286.000 381.380,286.360 381.200,286.800 381.200 C 287.240 381.200,287.600 381.020,287.600 380.800 C 287.600 380.580,287.960 380.400,288.400 380.400 C 288.840 380.400,289.200 380.220,289.200 380.000 C 289.200 379.780,289.560 379.600,290.000 379.600 C 290.440 379.600,290.800 379.420,290.800 379.200 C 290.800 378.980,291.160 378.800,291.600 378.800 C 292.040 378.800,292.400 378.620,292.400 378.400 C 292.400 378.180,292.760 378.000,293.200 378.000 C 293.640 378.000,294.000 377.820,294.000 377.600 C 294.000 377.380,294.360 377.200,294.800 377.200 C 295.240 377.200,295.600 377.020,295.600 376.800 C 295.600 376.580,295.960 376.400,296.400 376.400 C 296.840 376.400,297.200 376.220,297.200 376.000 C 297.200 375.780,297.520 375.600,297.912 375.600 C 298.303 375.600,298.883 375.240,299.200 374.800 C 299.517 374.360,300.097 374.000,300.488 374.000 C 300.880 374.000,301.200 373.820,301.200 373.600 C 301.200 373.380,301.560 373.200,302.000 373.200 C 302.440 373.200,302.800 373.020,302.800 372.800 C 302.800 372.580,303.036 372.400,303.325 372.400 C 303.613 372.400,304.236 372.040,304.708 371.600 C 305.180 371.160,305.804 370.800,306.095 370.800 C 306.386 370.800,306.883 370.440,307.200 370.000 C 307.517 369.560,308.057 369.200,308.400 369.200 C 308.743 369.200,309.283 368.840,309.600 368.400 C 309.917 367.960,310.497 367.600,310.888 367.600 C 311.280 367.600,311.600 367.450,311.600 367.268 C 311.600 367.085,312.095 366.681,312.700 366.370 C 313.305 366.060,314.091 365.489,314.447 365.103 C 314.803 364.716,315.348 364.400,315.659 364.400 C 315.969 364.400,316.483 364.040,316.800 363.600 C 317.117 363.160,317.580 362.800,317.829 362.800 C 318.078 362.800,318.846 362.260,319.537 361.600 C 320.228 360.940,320.953 360.400,321.148 360.400 C 321.344 360.400,322.245 359.680,323.152 358.800 C 324.059 357.920,324.995 357.200,325.232 357.200 C 325.469 357.200,326.354 356.480,327.200 355.600 C 328.046 354.720,328.916 354.000,329.134 354.000 C 329.352 354.000,330.587 352.965,331.879 351.700 C 333.171 350.435,334.928 348.872,335.783 348.227 C 337.798 346.707,346.707 337.798,348.227 335.783 C 348.872 334.928,350.435 333.171,351.700 331.879 C 352.965 330.587,354.000 329.352,354.000 329.134 C 354.000 328.916,354.720 328.046,355.600 327.200 C 356.480 326.354,357.200 325.469,357.200 325.232 C 357.200 324.995,357.920 324.059,358.800 323.152 C 359.680 322.245,360.400 321.344,360.400 321.148 C 360.400 320.953,360.940 320.228,361.600 319.537 C 362.260 318.846,362.800 318.078,362.800 317.829 C 362.800 317.580,363.160 317.117,363.600 316.800 C 364.040 316.483,364.400 315.969,364.400 315.659 C 364.400 315.348,364.716 314.803,365.103 314.447 C 365.489 314.091,366.060 313.305,366.370 312.700 C 366.681 312.095,367.085 311.600,367.268 311.600 C 367.450 311.600,367.600 311.280,367.600 310.888 C 367.600 310.497,367.960 309.917,368.400 309.600 C 368.840 309.283,369.200 308.743,369.200 308.400 C 369.200 308.057,369.560 307.517,370.000 307.200 C 370.440 306.883,370.800 306.386,370.800 306.095 C 370.800 305.804,371.160 305.180,371.600 304.708 C 372.040 304.236,372.400 303.613,372.400 303.325 C 372.400 303.036,372.580 302.800,372.800 302.800 C 373.020 302.800,373.200 302.440,373.200 302.000 C 373.200 301.560,373.380 301.200,373.600 301.200 C 373.820 301.200,374.000 300.880,374.000 300.488 C 374.000 300.097,374.360 299.517,374.800 299.200 C 375.240 298.883,375.600 298.303,375.600 297.912 C 375.600 297.520,375.780 297.200,376.000 297.200 C 376.220 297.200,376.400 296.840,376.400 296.400 C 376.400 295.960,376.580 295.600,376.800 295.600 C 377.020 295.600,377.200 295.240,377.200 294.800 C 377.200 294.360,377.380 294.000,377.600 294.000 C 377.820 294.000,378.000 293.640,378.000 293.200 C 378.000 292.760,378.180 292.400,378.400 292.400 C 378.620 292.400,378.800 292.040,378.800 291.600 C 378.800 291.160,378.980 290.800,379.200 290.800 C 379.420 290.800,379.600 290.440,379.600 290.000 C 379.600 289.560,379.780 289.200,380.000 289.200 C 380.220 289.200,380.400 288.840,380.400 288.400 C 380.400 287.960,380.580 287.600,380.800 287.600 C 381.020 287.600,381.200 287.240,381.200 286.800 C 381.200 286.360,381.380 286.000,381.600 286.000 C 381.820 286.000,382.000 285.640,382.000 285.200 C 382.000 284.760,382.180 284.400,382.400 284.400 C 382.620 284.400,382.800 284.040,382.800 283.600 C 382.800 283.160,382.980 282.800,383.200 282.800 C 383.420 282.800,383.600 282.451,383.600 282.024 C 383.600 281.597,383.780 281.136,384.000 281.000 C 384.220 280.864,384.400 280.313,384.400 279.776 C 384.400 279.239,384.580 278.800,384.800 278.800 C 385.020 278.800,385.200 278.440,385.200 278.000 C 385.200 277.560,385.380 277.200,385.600 277.200 C 385.820 277.200,386.000 276.660,386.000 276.000 C 386.000 275.340,386.180 274.800,386.400 274.800 C 386.620 274.800,386.800 274.440,386.800 274.000 C 386.800 273.560,386.980 273.200,387.200 273.200 C 387.420 273.200,387.600 272.660,387.600 272.000 C 387.600 271.340,387.780 270.800,388.000 270.800 C 388.220 270.800,388.400 270.440,388.400 270.000 C 388.400 269.560,388.580 269.200,388.800 269.200 C 389.020 269.200,389.200 268.660,389.200 268.000 C 389.200 267.340,389.380 266.800,389.600 266.800 C 389.820 266.800,390.000 266.260,390.000 265.600 C 390.000 264.940,390.180 264.400,390.400 264.400 C 390.620 264.400,390.800 263.860,390.800 263.200 C 390.800 262.540,390.980 262.000,391.200 262.000 C 391.420 262.000,391.600 261.460,391.600 260.800 C 391.600 260.140,391.780 259.600,392.000 259.600 C 392.220 259.600,392.400 258.880,392.400 258.000 C 392.400 257.120,392.580 256.400,392.800 256.400 C 393.020 256.400,393.200 255.871,393.200 255.224 C 393.200 254.577,393.380 253.936,393.600 253.800 C 393.820 253.664,394.000 252.933,394.000 252.176 C 394.000 251.419,394.180 250.800,394.400 250.800 C 394.620 250.800,394.800 250.080,394.800 249.200 C 394.800 248.320,394.980 247.600,395.200 247.600 C 395.420 247.600,395.600 246.891,395.600 246.024 C 395.600 245.157,395.780 244.336,396.000 244.200 C 396.220 244.064,396.400 243.153,396.400 242.176 C 396.400 241.199,396.580 240.400,396.800 240.400 C 397.020 240.400,397.200 239.421,397.200 238.224 C 397.200 237.027,397.380 235.936,397.600 235.800 C 397.820 235.664,398.000 234.663,398.000 233.576 C 398.000 232.489,398.180 231.600,398.400 231.600 C 398.633 231.600,398.800 230.278,398.800 228.433 C 398.800 226.256,398.956 225.215,399.300 225.100 C 399.693 224.969,399.800 219.591,399.800 200.000 C 399.800 180.409,399.693 175.031,399.300 174.900 C 398.956 174.785,398.800 173.744,398.800 171.567 C 398.800 169.722,398.633 168.400,398.400 168.400 C 398.180 168.400,398.000 167.511,398.000 166.424 C 398.000 165.337,397.820 164.336,397.600 164.200 C 397.380 164.064,397.200 162.973,397.200 161.776 C 397.200 160.579,397.020 159.600,396.800 159.600 C 396.580 159.600,396.400 158.801,396.400 157.824 C 396.400 156.847,396.220 155.936,396.000 155.800 C 395.780 155.664,395.600 154.843,395.600 153.976 C 395.600 153.109,395.420 152.400,395.200 152.400 C 394.980 152.400,394.800 151.680,394.800 150.800 C 394.800 149.920,394.620 149.200,394.400 149.200 C 394.180 149.200,394.000 148.581,394.000 147.824 C 394.000 147.067,393.820 146.336,393.600 146.200 C 393.380 146.064,393.200 145.423,393.200 144.776 C 393.200 144.129,393.020 143.600,392.800 143.600 C 392.580 143.600,392.400 142.880,392.400 142.000 C 392.400 141.120,392.220 140.400,392.000 140.400 C 391.780 140.400,391.600 139.860,391.600 139.200 C 391.600 138.540,391.420 138.000,391.200 138.000 C 390.980 138.000,390.800 137.460,390.800 136.800 C 390.800 136.140,390.620 135.600,390.400 135.600 C 390.180 135.600,390.000 135.060,390.000 134.400 C 390.000 133.740,389.820 133.200,389.600 133.200 C 389.380 133.200,389.200 132.660,389.200 132.000 C 389.200 131.340,389.020 130.800,388.800 130.800 C 388.580 130.800,388.400 130.440,388.400 130.000 C 388.400 129.560,388.220 129.200,388.000 129.200 C 387.780 129.200,387.600 128.660,387.600 128.000 C 387.600 127.340,387.420 126.800,387.200 126.800 C 386.980 126.800,386.800 126.440,386.800 126.000 C 386.800 125.560,386.620 125.200,386.400 125.200 C 386.180 125.200,386.000 124.660,386.000 124.000 C 386.000 123.340,385.820 122.800,385.600 122.800 C 385.380 122.800,385.200 122.440,385.200 122.000 C 385.200 121.560,385.020 121.200,384.800 121.200 C 384.580 121.200,384.400 120.761,384.400 120.224 C 384.400 119.687,384.220 119.136,384.000 119.000 C 383.780 118.864,383.600 118.403,383.600 117.976 C 383.600 117.549,383.420 117.200,383.200 117.200 C 382.980 117.200,382.800 116.840,382.800 116.400 C 382.800 115.960,382.620 115.600,382.400 115.600 C 382.180 115.600,382.000 115.240,382.000 114.800 C 382.000 114.360,381.820 114.000,381.600 114.000 C 381.380 114.000,381.200 113.640,381.200 113.200 C 381.200 112.760,381.020 112.400,380.800 112.400 C 380.580 112.400,380.400 112.040,380.400 111.600 C 380.400 111.160,380.220 110.800,380.000 110.800 C 379.780 110.800,379.600 110.440,379.600 110.000 C 379.600 109.560,379.420 109.200,379.200 109.200 C 378.980 109.200,378.800 108.840,378.800 108.400 C 378.800 107.960,378.620 107.600,378.400 107.600 C 378.180 107.600,378.000 107.240,378.000 106.800 C 378.000 106.360,377.820 106.000,377.600 106.000 C 377.380 106.000,377.200 105.640,377.200 105.200 C 377.200 104.760,377.020 104.400,376.800 104.400 C 376.580 104.400,376.400 104.040,376.400 103.600 C 376.400 103.160,376.220 102.800,376.000 102.800 C 375.780 102.800,375.600 102.480,375.600 102.088 C 375.600 101.697,375.240 101.117,374.800 100.800 C 374.360 100.483,374.000 99.903,374.000 99.512 C 374.000 99.120,373.820 98.800,373.600 98.800 C 373.380 98.800,373.200 98.440,373.200 98.000 C 373.200 97.560,373.020 97.200,372.800 97.200 C 372.580 97.200,372.400 96.964,372.400 96.675 C 372.400 96.387,372.040 95.764,371.600 95.292 C 371.160 94.820,370.800 94.196,370.800 93.905 C 370.800 93.614,370.440 93.117,370.000 92.800 C 369.560 92.483,369.200 91.943,369.200 91.600 C 369.200 91.257,368.840 90.717,368.400 90.400 C 367.960 90.083,367.600 89.503,367.600 89.112 C 367.600 88.720,367.450 88.400,367.268 88.400 C 367.085 88.400,366.681 87.905,366.370 87.300 C 366.060 86.695,365.489 85.909,365.103 85.553 C 364.716 85.197,364.400 84.652,364.400 84.341 C 364.400 84.031,364.040 83.517,363.600 83.200 C 363.160 82.883,362.800 82.420,362.800 82.171 C 362.800 81.922,362.260 81.154,361.600 80.463 C 360.940 79.772,360.400 79.047,360.400 78.852 C 360.400 78.656,359.680 77.755,358.800 76.848 C 357.920 75.941,357.200 75.005,357.200 74.768 C 357.200 74.531,356.480 73.646,355.600 72.800 C 354.720 71.954,354.000 71.084,354.000 70.866 C 354.000 70.648,352.965 69.413,351.700 68.121 C 350.435 66.829,348.872 65.072,348.227 64.217 C 346.707 62.202,337.798 53.293,335.783 51.773 C 334.928 51.128,333.171 49.565,331.879 48.300 C 330.587 47.035,329.352 46.000,329.134 46.000 C 328.916 46.000,328.046 45.280,327.200 44.400 C 326.354 43.520,325.469 42.800,325.232 42.800 C 324.995 42.800,324.059 42.080,323.152 41.200 C 322.245 40.320,321.344 39.600,321.148 39.600 C 320.953 39.600,320.228 39.060,319.537 38.400 C 318.846 37.740,318.078 37.200,317.829 37.200 C 317.580 37.200,317.117 36.840,316.800 36.400 C 316.483 35.960,315.969 35.600,315.659 35.600 C 315.348 35.600,314.803 35.284,314.447 34.897 C 314.091 34.511,313.305 33.940,312.700 33.630 C 312.095 33.319,311.600 32.915,311.600 32.732 C 311.600 32.550,311.280 32.400,310.888 32.400 C 310.497 32.400,309.917 32.040,309.600 31.600 C 309.283 31.160,308.743 30.800,308.400 30.800 C 308.057 30.800,307.517 30.440,307.200 30.000 C 306.883 29.560,306.386 29.200,306.095 29.200 C 305.804 29.200,305.180 28.840,304.708 28.400 C 304.236 27.960,303.613 27.600,303.325 27.600 C 303.036 27.600,302.800 27.420,302.800 27.200 C 302.800 26.980,302.440 26.800,302.000 26.800 C 301.560 26.800,301.200 26.620,301.200 26.400 C 301.200 26.180,300.880 26.000,300.488 26.000 C 300.097 26.000,299.517 25.640,299.200 25.200 C 298.883 24.760,298.303 24.400,297.912 24.400 C 297.520 24.400,297.200 24.220,297.200 24.000 C 297.200 23.780,296.840 23.600,296.400 23.600 C 295.960 23.600,295.600 23.420,295.600 23.200 C 295.600 22.980,295.240 22.800,294.800 22.800 C 294.360 22.800,294.000 22.620,294.000 22.400 C 294.000 22.180,293.640 22.000,293.200 22.000 C 292.760 22.000,292.400 21.820,292.400 21.600 C 292.400 21.380,292.040 21.200,291.600 21.200 C 291.160 21.200,290.800 21.020,290.800 20.800 C 290.800 20.580,290.440 20.400,290.000 20.400 C 289.560 20.400,289.200 20.220,289.200 20.000 C 289.200 19.780,288.840 19.600,288.400 19.600 C 287.960 19.600,287.600 19.420,287.600 19.200 C 287.600 18.980,287.240 18.800,286.800 18.800 C 286.360 18.800,286.000 18.620,286.000 18.400 C 286.000 18.180,285.640 18.000,285.200 18.000 C 284.760 18.000,284.400 17.820,284.400 17.600 C 284.400 17.380,284.040 17.200,283.600 17.200 C 283.160 17.200,282.800 17.020,282.800 16.800 C 282.800 16.580,282.451 16.400,282.024 16.400 C 281.597 16.400,281.136 16.220,281.000 16.000 C 280.864 15.780,280.313 15.600,279.776 15.600 C 279.239 15.600,278.800 15.420,278.800 15.200 C 278.800 14.980,278.440 14.800,278.000 14.800 C 277.560 14.800,277.200 14.620,277.200 14.400 C 277.200 14.180,276.660 14.000,276.000 14.000 C 275.340 14.000,274.800 13.820,274.800 13.600 C 274.800 13.380,274.440 13.200,274.000 13.200 C 273.560 13.200,273.200 13.020,273.200 12.800 C 273.200 12.580,272.660 12.400,272.000 12.400 C 271.340 12.400,270.800 12.220,270.800 12.000 C 270.800 11.780,270.440 11.600,270.000 11.600 C 269.560 11.600,269.200 11.420,269.200 11.200 C 269.200 10.980,268.660 10.800,268.000 10.800 C 267.340 10.800,266.800 10.620,266.800 10.400 C 266.800 10.180,266.260 10.000,265.600 10.000 C 264.940 10.000,264.400 9.820,264.400 9.600 C 264.400 9.380,263.860 9.200,263.200 9.200 C 262.540 9.200,262.000 9.020,262.000 8.800 C 262.000 8.580,261.460 8.400,260.800 8.400 C 260.140 8.400,259.600 8.220,259.600 8.000 C 259.600 7.780,258.880 7.600,258.000 7.600 C 257.120 7.600,256.400 7.420,256.400 7.200 C 256.400 6.980,255.871 6.800,255.224 6.800 C 254.577 6.800,253.936 6.620,253.800 6.400 C 253.664 6.180,252.933 6.000,252.176 6.000 C 251.419 6.000,250.800 5.820,250.800 5.600 C 250.800 5.380,250.080 5.200,249.200 5.200 C 248.320 5.200,247.600 5.020,247.600 4.800 C 247.600 4.580,246.891 4.400,246.024 4.400 C 245.157 4.400,244.336 4.220,244.200 4.000 C 244.064 3.780,243.153 3.600,242.176 3.600 C 241.199 3.600,240.400 3.420,240.400 3.200 C 240.400 2.980,239.421 2.800,238.224 2.800 C 237.027 2.800,235.936 2.620,235.800 2.400 C 235.664 2.180,234.663 2.000,233.576 2.000 C 232.489 2.000,231.600 1.820,231.600 1.600 C 231.600 1.367,230.278 1.200,228.433 1.200 C 226.304 1.200,225.214 1.041,225.105 0.714 C 224.944 0.233,187.802 -0.118,178.500 0.274 M216.400 72.178 C 245.975 76.831,263.916 90.765,269.170 113.163 C 271.238 121.976,271.289 123.271,271.233 165.200 C 271.158 220.418,271.085 219.933,281.780 234.822 C 289.439 245.485,289.763 244.520,273.958 258.067 C 267.885 263.272,261.675 268.647,260.158 270.010 C 254.136 275.422,250.784 275.705,245.600 271.240 C 239.755 266.206,235.580 261.384,229.694 252.872 L 227.670 249.944 223.431 253.971 C 206.575 269.980,193.338 275.323,170.400 275.377 C 154.777 275.414,144.445 272.578,135.129 265.695 C 107.734 245.457,107.489 196.017,134.668 172.590 C 149.931 159.434,166.422 154.339,207.800 149.998 C 214.180 149.329,219.625 148.701,219.900 148.603 C 220.525 148.381,220.582 138.730,219.997 132.121 C 218.671 117.145,210.493 109.685,195.600 109.866 C 181.443 110.037,171.569 117.019,167.982 129.393 C 166.522 134.428,164.847 136.771,162.237 137.426 C 161.162 137.696,127.851 134.180,125.415 133.540 C 121.178 132.426,119.845 129.180,121.203 123.289 C 128.170 93.073,152.432 74.899,190.400 71.457 C 194.838 71.054,212.343 71.540,216.400 72.178 M211.400 178.269 C 182.476 179.687,167.924 191.445,167.920 213.400 C 167.916 232.766,181.478 243.695,197.622 237.336 C 213.665 231.017,220.359 215.779,220.392 185.500 L 220.400 178.000 217.100 178.076 C 215.285 178.117,212.720 178.204,211.400 178.269 M317.654 275.770 C 325.532 277.463,326.590 279.334,325.023 288.800 C 322.922 301.491,318.026 311.905,310.699 319.270 C 306.476 323.516,302.857 323.009,305.153 318.495 C 305.630 317.557,306.726 314.868,307.792 312.020 C 308.414 310.357,310.743 303.298,311.561 300.600 C 315.790 286.637,312.083 283.729,292.200 285.414 C 276.395 286.754,275.757 286.696,277.177 284.043 C 280.496 277.841,304.481 272.939,317.654 275.770 M82.092 281.929 C 95.925 291.133,108.692 298.048,120.700 302.841 C 121.195 303.038,122.005 303.362,122.500 303.559 C 122.995 303.757,124.030 304.192,124.800 304.525 C 127.338 305.626,139.077 309.618,143.200 310.784 C 144.190 311.064,145.450 311.439,146.000 311.617 C 148.122 312.306,159.120 314.869,162.800 315.533 C 177.442 318.175,188.065 319.199,200.823 319.201 C 208.853 319.202,212.224 319.010,222.200 317.980 C 229.526 317.225,239.434 315.539,245.600 314.000 C 246.370 313.808,247.900 313.438,249.000 313.179 C 250.100 312.920,251.540 312.553,252.200 312.362 C 252.860 312.172,254.750 311.629,256.400 311.155 C 259.838 310.166,268.609 307.329,269.800 306.820 C 270.240 306.632,271.680 306.080,273.000 305.593 C 274.320 305.107,275.940 304.473,276.600 304.186 C 277.260 303.898,278.775 303.279,279.968 302.810 C 283.122 301.570,285.099 300.661,291.818 297.358 C 300.441 293.119,303.200 293.450,303.200 298.722 L 303.200 300.935 299.900 304.097 C 296.271 307.574,287.370 314.423,283.237 316.918 C 281.787 317.794,280.131 318.839,279.558 319.241 C 277.691 320.550,273.516 322.793,267.400 325.770 C 257.144 330.764,253.233 332.302,241.600 335.914 C 227.479 340.299,210.079 342.683,195.200 342.271 C 179.622 341.840,170.196 340.402,154.200 336.016 C 150.929 335.119,142.101 331.954,137.400 329.993 C 134.618 328.833,122.570 322.822,120.459 321.542 C 119.062 320.694,117.860 320.000,117.789 320.000 C 114.473 320.000,92.230 302.353,79.865 289.911 C 71.226 281.219,70.392 279.935,72.029 277.854 C 73.309 276.227,73.856 276.449,82.092 281.929 " stroke="none" fill="#fbfbfb" fill-rule="evenodd"></path><path id="path2" d="M298.000 275.640 C 292.246 276.773,289.374 277.484,288.305 278.039 C 287.923 278.238,287.411 278.400,287.166 278.400 C 284.335 278.400,276.420 284.142,277.212 285.622 C 277.732 286.594,277.583 286.595,287.400 285.570 C 301.162 284.134,309.711 284.842,312.221 287.627 C 313.145 288.652,313.305 295.114,312.477 297.960 C 312.215 298.862,311.796 300.365,311.546 301.300 C 311.000 303.347,309.676 307.491,309.214 308.600 C 309.031 309.040,308.664 310.030,308.400 310.800 C 308.136 311.570,307.757 312.605,307.560 313.100 C 304.440 320.906,304.380 321.154,305.400 322.000 C 306.385 322.817,308.100 321.810,311.093 318.655 C 319.392 309.907,324.878 296.423,324.963 284.564 C 325.007 278.296,324.874 278.052,320.600 276.617 C 316.655 275.292,302.808 274.693,298.000 275.640 M72.355 277.645 C 71.195 278.805,71.561 280.786,73.335 282.935 C 78.599 289.316,92.353 301.989,101.310 308.713 C 106.184 312.371,114.926 318.400,115.357 318.400 C 115.458 318.400,117.020 319.307,118.827 320.416 C 125.490 324.506,141.505 331.854,148.200 333.894 C 149.300 334.229,151.190 334.816,152.400 335.198 C 153.610 335.580,155.410 336.118,156.400 336.393 C 157.390 336.668,158.650 337.035,159.200 337.208 C 161.546 337.948,168.792 339.499,172.500 340.055 C 173.765 340.245,175.925 340.572,177.300 340.782 C 182.565 341.588,197.473 342.475,201.800 342.240 C 212.759 341.645,221.323 340.592,229.400 338.847 C 233.143 338.039,240.119 336.263,242.200 335.589 C 248.076 333.686,249.814 333.099,252.600 332.078 C 255.629 330.968,256.833 330.487,260.599 328.882 C 262.547 328.051,274.132 322.267,275.800 321.292 C 284.881 315.985,293.339 309.960,298.935 304.812 C 299.779 304.035,300.726 303.255,301.038 303.079 C 303.181 301.865,303.770 297.494,302.040 295.642 C 300.286 293.765,298.962 293.952,293.128 296.900 C 288.109 299.437,284.693 301.042,281.800 302.223 C 280.920 302.582,279.570 303.147,278.800 303.479 C 278.030 303.810,276.995 304.243,276.500 304.441 C 276.005 304.638,275.195 304.962,274.700 305.161 C 274.205 305.360,272.810 305.882,271.600 306.322 C 270.390 306.762,268.590 307.427,267.600 307.799 C 259.626 310.796,245.072 314.613,235.000 316.348 C 229.386 317.315,227.568 317.573,223.400 317.995 C 220.980 318.241,217.560 318.612,215.800 318.821 C 211.596 319.320,190.765 319.309,185.516 318.805 C 171.739 317.481,162.647 315.993,152.200 313.351 C 142.802 310.974,139.140 309.905,133.700 307.953 C 127.317 305.663,122.689 303.918,120.600 303.013 C 113.217 299.815,111.046 298.813,106.213 296.371 C 100.818 293.646,96.554 291.323,95.138 290.338 C 94.554 289.932,93.988 289.600,93.879 289.600 C 93.497 289.600,88.325 286.341,81.179 281.597 C 73.214 276.309,73.543 276.457,72.355 277.645 " stroke="none" fill="#fc9506" fill-rule="evenodd"></path><path id="path3" d="M189.800 71.610 C 188.480 71.760,189.740 71.797,192.600 71.692 C 195.460 71.588,197.875 71.434,197.967 71.351 C 198.220 71.121,192.514 71.302,189.800 71.610 M203.233 71.347 C 203.325 71.428,205.650 71.588,208.400 71.703 C 211.672 71.840,212.571 71.804,211.000 71.600 C 208.491 71.273,202.945 71.093,203.233 71.347 M182.600 72.400 C 181.239 72.644,181.179 72.692,182.200 72.720 C 182.860 72.739,184.120 72.605,185.000 72.423 C 187.093 71.990,185.002 71.970,182.600 72.400 M215.400 72.400 C 216.060 72.568,217.140 72.706,217.800 72.707 C 218.809 72.708,218.745 72.655,217.400 72.377 C 215.374 71.958,213.737 71.977,215.400 72.400 M177.800 73.200 L 176.600 73.505 177.800 73.525 C 178.460 73.535,179.360 73.389,179.800 73.200 L 180.600 72.856 179.800 72.875 C 179.360 72.886,178.460 73.032,177.800 73.200 M220.400 73.200 C 220.950 73.376,221.850 73.517,222.400 73.513 C 223.298 73.506,223.278 73.474,222.200 73.200 C 220.508 72.769,219.056 72.769,220.400 73.200 M174.000 74.000 C 173.196 74.257,173.157 74.323,173.800 74.332 C 174.240 74.338,174.960 74.189,175.400 74.000 C 176.419 73.562,175.368 73.562,174.000 74.000 M224.200 74.000 C 224.640 74.189,225.360 74.338,225.800 74.332 C 226.443 74.323,226.404 74.257,225.600 74.000 C 224.232 73.562,223.181 73.562,224.200 74.000 M170.800 74.800 C 169.996 75.057,169.957 75.123,170.600 75.132 C 171.040 75.138,171.760 74.989,172.200 74.800 C 173.219 74.362,172.168 74.362,170.800 74.800 M227.400 74.800 C 227.840 74.989,228.560 75.138,229.000 75.132 C 229.643 75.123,229.604 75.057,228.800 74.800 C 227.432 74.362,226.381 74.362,227.400 74.800 M165.400 76.400 L 164.600 76.744 165.400 76.766 C 165.840 76.778,166.470 76.613,166.800 76.400 C 167.595 75.886,166.596 75.886,165.400 76.400 M160.200 78.378 C 159.320 78.795,158.780 79.136,159.000 79.138 C 159.546 79.142,162.702 77.664,162.200 77.640 C 161.980 77.630,161.080 77.962,160.200 78.378 M238.853 78.586 C 238.983 78.716,240.509 79.531,242.245 80.396 C 243.980 81.261,246.165 82.445,247.100 83.025 C 248.035 83.606,248.800 83.999,248.800 83.897 C 248.800 83.659,244.694 81.146,242.486 80.034 C 240.514 79.039,238.507 78.240,238.853 78.586 M152.200 82.122 C 141.040 88.185,131.855 97.550,126.371 108.459 C 125.479 110.232,124.828 111.761,124.923 111.856 C 125.019 111.952,125.720 110.718,126.482 109.115 C 131.605 98.336,142.032 87.650,152.700 82.250 C 153.855 81.665,154.800 81.100,154.800 80.993 C 154.800 80.709,154.803 80.708,152.200 82.122 M250.400 84.918 C 250.400 85.020,251.247 85.797,252.281 86.645 C 253.316 87.493,254.034 87.978,253.876 87.723 C 253.540 87.179,250.400 84.645,250.400 84.918 M254.417 88.065 C 254.408 88.210,255.345 89.302,256.500 90.492 C 257.655 91.681,259.288 93.452,260.129 94.427 C 261.100 95.553,261.355 95.738,260.827 94.935 C 259.876 93.488,254.442 87.664,254.417 88.065 M263.800 100.000 C 264.141 100.660,264.511 101.200,264.621 101.200 C 264.731 101.200,264.541 100.660,264.200 100.000 C 263.859 99.340,263.489 98.800,263.379 98.800 C 263.269 98.800,263.459 99.340,263.800 100.000 M265.646 103.400 C 265.653 103.620,266.006 104.520,266.429 105.400 C 266.852 106.280,267.086 106.550,266.949 106.000 C 266.667 104.867,265.625 102.788,265.646 103.400 M268.006 109.833 C 268.009 110.255,268.195 110.870,268.418 111.200 C 268.715 111.638,268.752 111.476,268.556 110.600 C 268.227 109.129,267.998 108.810,268.006 109.833 M189.400 109.990 C 188.917 110.192,189.551 110.238,191.000 110.107 C 192.320 109.987,193.475 109.824,193.567 109.745 C 193.907 109.449,190.170 109.669,189.400 109.990 M199.233 109.749 C 199.325 109.831,200.300 110.007,201.400 110.141 C 202.746 110.305,203.139 110.265,202.600 110.020 C 201.839 109.674,198.883 109.436,199.233 109.749 M185.790 110.816 C 185.621 111.089,185.923 111.138,186.666 110.960 C 188.199 110.592,188.344 110.400,187.090 110.400 C 186.517 110.400,185.932 110.587,185.790 110.816 M204.200 110.800 C 205.301 111.273,205.692 111.273,205.400 110.800 C 205.264 110.580,204.758 110.413,204.276 110.428 C 203.431 110.455,203.429 110.469,204.200 110.800 M207.997 112.230 C 209.205 112.793,210.780 113.700,211.497 114.247 C 212.214 114.794,212.800 115.097,212.799 114.920 C 212.798 114.332,207.331 111.196,206.320 111.204 C 206.034 111.206,206.789 111.668,207.997 112.230 M181.100 112.629 C 179.549 113.470,179.725 113.761,181.300 112.959 C 182.808 112.193,183.075 111.994,182.567 112.016 C 182.365 112.025,181.705 112.301,181.100 112.629 M268.868 113.000 C 268.862 113.440,269.011 114.160,269.200 114.600 C 269.638 115.619,269.638 114.568,269.200 113.200 C 268.943 112.396,268.877 112.357,268.868 113.000 M178.600 114.071 C 176.017 115.514,169.885 122.018,170.514 122.647 C 170.639 122.772,171.023 122.329,171.368 121.662 C 172.170 120.112,176.887 115.382,178.425 114.587 C 179.071 114.253,179.600 113.894,179.600 113.790 C 179.600 113.533,179.525 113.555,178.600 114.071 M214.647 117.000 C 216.549 119.514,217.009 120.015,216.484 119.000 C 216.256 118.560,215.409 117.480,214.602 116.600 L 213.134 115.000 214.647 117.000 M269.687 117.000 C 269.683 117.660,269.824 118.650,270.000 119.200 L 270.320 120.200 270.313 119.200 C 270.309 118.650,270.168 117.660,270.000 117.000 L 269.695 115.800 269.687 117.000 M121.850 120.450 C 121.517 122.117,121.840 122.440,122.200 120.800 C 122.352 120.109,122.393 119.459,122.291 119.358 C 122.189 119.256,121.991 119.747,121.850 120.450 M270.690 125.800 C 270.807 128.440,270.970 130.675,271.051 130.767 C 271.317 131.064,271.130 125.462,270.799 123.200 C 270.586 121.744,270.550 122.623,270.690 125.800 M121.249 122.800 C 121.216 123.130,121.089 123.850,120.967 124.400 C 120.775 125.264,120.807 125.303,121.199 124.688 C 121.448 124.297,121.575 123.577,121.481 123.088 C 121.386 122.600,121.282 122.470,121.249 122.800 M218.428 123.876 C 218.518 124.915,219.144 125.796,219.172 124.924 C 219.187 124.442,219.020 123.936,218.800 123.800 C 218.580 123.664,218.413 123.698,218.428 123.876 M120.501 127.400 C 120.505 128.280,120.587 128.593,120.683 128.095 C 120.779 127.598,120.775 126.878,120.675 126.495 C 120.575 126.113,120.496 126.520,120.501 127.400 M219.473 127.600 C 219.604 128.590,219.776 129.475,219.856 129.567 C 220.157 129.914,219.928 127.364,219.590 126.600 C 219.353 126.066,219.314 126.398,219.473 127.600 M120.800 129.510 C 120.800 130.645,124.843 134.091,125.455 133.478 C 125.555 133.379,124.953 132.945,124.118 132.514 C 123.283 132.083,122.195 131.134,121.700 130.406 C 121.205 129.678,120.800 129.275,120.800 129.510 M167.449 129.815 C 167.312 130.173,167.215 130.766,167.234 131.133 C 167.253 131.500,167.427 131.269,167.621 130.620 C 167.998 129.358,167.865 128.733,167.449 129.815 M220.185 139.600 L 220.200 148.600 216.800 149.084 L 213.400 149.568 216.559 149.384 C 218.296 149.283,219.961 148.998,220.259 148.751 C 220.851 148.260,220.981 137.076,220.445 132.800 C 220.289 131.558,220.176 134.519,220.185 139.600 M166.496 132.949 C 166.257 133.473,165.471 134.599,164.749 135.451 L 163.436 137.000 164.754 135.800 C 166.045 134.624,167.420 132.487,167.094 132.161 C 167.004 132.071,166.735 132.425,166.496 132.949 M128.000 134.020 C 130.443 134.455,132.330 134.440,130.600 134.000 C 129.940 133.832,128.680 133.696,127.800 133.697 L 126.200 133.700 128.000 134.020 M133.233 134.548 C 133.325 134.629,134.750 134.796,136.400 134.919 C 138.624 135.084,138.986 135.052,137.800 134.794 C 136.199 134.446,132.919 134.269,133.233 134.548 M140.433 135.351 C 140.525 135.435,142.040 135.604,143.800 135.727 C 146.150 135.892,146.575 135.858,145.400 135.599 C 143.806 135.247,140.116 135.064,140.433 135.351 M148.033 136.148 C 148.125 136.229,149.550 136.396,151.200 136.519 C 153.424 136.684,153.786 136.652,152.600 136.394 C 150.999 136.046,147.719 135.869,148.033 136.148 M158.339 137.300 C 160.234 137.520,162.008 137.539,162.442 137.344 C 162.936 137.122,161.752 136.985,159.104 136.957 L 155.000 136.913 158.339 137.300 M271.361 142.800 C 271.361 146.210,271.422 147.605,271.497 145.900 C 271.572 144.195,271.572 141.405,271.497 139.700 C 271.422 137.995,271.361 139.390,271.361 142.800 M207.600 150.000 C 205.401 150.270,205.401 150.270,207.200 150.305 C 208.190 150.325,209.810 150.197,210.800 150.020 C 213.146 149.603,210.953 149.589,207.600 150.000 M200.200 150.800 C 198.268 151.065,198.254 151.076,199.800 151.114 C 200.680 151.136,202.120 151.005,203.000 150.823 C 205.042 150.401,203.220 150.386,200.200 150.800 M193.400 151.600 C 192.039 151.844,191.979 151.892,193.000 151.920 C 193.660 151.939,194.920 151.805,195.800 151.623 C 197.893 151.190,195.802 151.170,193.400 151.600 M187.400 152.400 L 185.800 152.686 187.200 152.696 C 187.970 152.701,189.140 152.568,189.800 152.400 C 191.428 151.986,189.713 151.986,187.400 152.400 M182.200 153.200 L 181.000 153.505 182.200 153.513 C 182.860 153.517,183.850 153.376,184.400 153.200 L 185.400 152.880 184.400 152.887 C 183.850 152.891,182.860 153.032,182.200 153.200 M177.400 154.000 L 176.200 154.305 177.400 154.313 C 178.060 154.317,179.050 154.176,179.600 154.000 L 180.600 153.680 179.600 153.687 C 179.050 153.691,178.060 153.832,177.400 154.000 M173.800 154.800 C 172.711 155.077,172.693 155.107,173.600 155.125 C 174.150 155.135,174.960 154.989,175.400 154.800 C 176.386 154.376,175.466 154.376,173.800 154.800 M170.000 155.600 C 169.208 155.854,169.167 155.920,169.800 155.920 C 170.240 155.920,171.050 155.776,171.600 155.600 C 172.392 155.346,172.433 155.280,171.800 155.280 C 171.360 155.280,170.550 155.424,170.000 155.600 M167.000 156.400 C 166.496 156.617,166.422 156.744,166.800 156.744 C 167.130 156.744,167.760 156.589,168.200 156.400 C 168.704 156.183,168.778 156.056,168.400 156.056 C 168.070 156.056,167.440 156.211,167.000 156.400 M149.700 162.586 C 148.545 163.123,147.600 163.653,147.600 163.763 C 147.600 163.982,151.492 162.241,151.888 161.845 C 152.306 161.427,151.874 161.573,149.700 162.586 M142.297 166.813 C 140.611 167.919,139.111 169.021,138.962 169.261 C 138.718 169.657,144.487 165.957,145.380 165.145 C 146.278 164.329,145.156 164.936,142.297 166.813 M134.212 173.040 C 132.087 174.933,130.437 176.570,130.546 176.679 C 130.655 176.788,131.529 176.095,132.489 175.139 C 133.450 174.182,135.217 172.549,136.418 171.510 C 137.618 170.470,138.482 169.615,138.338 169.610 C 138.194 169.604,136.337 171.148,134.212 173.040 M128.948 178.500 C 127.128 180.457,124.517 184.000,124.894 184.000 C 124.972 184.000,125.736 183.055,126.592 181.900 C 127.448 180.745,128.690 179.215,129.352 178.500 C 130.015 177.785,130.467 177.200,130.357 177.200 C 130.247 177.200,129.613 177.785,128.948 178.500 M210.600 178.011 C 209.280 178.170,210.973 178.206,214.362 178.091 L 220.523 177.882 220.336 189.441 C 220.215 196.889,220.264 199.648,220.474 197.200 C 220.653 195.110,220.755 189.890,220.700 185.600 L 220.600 177.800 216.800 177.761 C 214.710 177.739,211.920 177.851,210.600 178.011 M202.600 178.815 C 201.844 179.018,202.362 179.054,204.000 178.915 C 205.430 178.793,206.675 178.628,206.767 178.547 C 207.070 178.280,203.822 178.489,202.600 178.815 M198.000 179.600 C 196.656 180.031,198.108 180.031,199.800 179.600 C 200.878 179.326,200.898 179.294,200.000 179.287 C 199.450 179.283,198.550 179.424,198.000 179.600 M194.600 180.400 C 193.581 180.838,194.632 180.838,196.000 180.400 C 196.804 180.143,196.843 180.077,196.200 180.068 C 195.760 180.062,195.040 180.211,194.600 180.400 M191.600 181.218 C 191.162 181.515,191.324 181.552,192.200 181.356 C 193.671 181.027,193.990 180.798,192.967 180.806 C 192.545 180.809,191.930 180.995,191.600 181.218 M184.612 184.024 C 183.738 184.460,182.838 185.005,182.612 185.237 C 182.264 185.592,186.281 183.761,186.767 183.343 C 187.237 182.939,186.010 183.327,184.612 184.024 M180.900 186.088 C 180.405 186.327,180.000 186.679,180.000 186.870 C 180.000 187.062,180.450 186.924,181.000 186.563 C 182.467 185.602,182.416 185.357,180.900 186.088 M121.426 189.549 C 119.498 193.378,119.630 193.737,121.601 190.024 C 122.470 188.386,123.106 186.973,123.016 186.883 C 122.925 186.792,122.210 187.992,121.426 189.549 M177.008 189.262 C 174.930 191.161,171.200 195.883,171.200 196.614 C 171.200 196.785,172.086 195.665,173.168 194.123 C 174.250 192.582,176.176 190.394,177.448 189.261 C 178.719 188.127,179.648 187.200,179.512 187.200 C 179.376 187.200,178.249 188.128,177.008 189.262 M119.050 194.791 C 118.147 197.047,118.287 197.383,119.237 195.242 C 119.666 194.275,119.945 193.412,119.858 193.325 C 119.771 193.238,119.408 193.898,119.050 194.791 M117.029 200.629 C 116.881 201.215,116.851 201.784,116.961 201.894 C 117.071 202.004,117.281 201.615,117.429 201.029 C 117.576 200.442,117.606 199.873,117.496 199.763 C 117.386 199.653,117.176 200.042,117.029 200.629 M116.250 203.650 C 115.917 205.317,116.240 205.640,116.600 204.000 C 116.752 203.309,116.793 202.659,116.691 202.558 C 116.589 202.456,116.391 202.947,116.250 203.650 M219.664 203.450 C 219.629 204.138,219.511 205.308,219.401 206.050 L 219.203 207.400 219.624 206.058 C 219.855 205.320,219.973 204.150,219.886 203.458 L 219.728 202.200 219.664 203.450 M168.256 204.484 C 168.121 204.988,168.027 205.760,168.046 206.200 C 168.065 206.640,168.245 206.298,168.446 205.440 C 168.836 203.778,168.670 202.940,168.256 204.484 M115.455 207.855 C 115.313 208.886,115.274 209.808,115.369 209.902 C 115.463 209.996,115.665 209.239,115.818 208.218 C 115.971 207.198,116.010 206.276,115.904 206.171 C 115.798 206.065,115.596 206.823,115.455 207.855 M271.271 209.200 C 271.276 210.850,271.415 212.650,271.580 213.200 C 271.746 213.750,271.803 212.580,271.708 210.600 C 271.487 206.028,271.261 205.301,271.271 209.200 M167.446 211.100 C 167.315 213.025,167.348 215.680,167.520 217.000 C 167.768 218.905,167.837 218.182,167.854 213.500 C 167.878 206.724,167.783 206.163,167.446 211.100 M218.849 208.600 C 218.816 209.040,218.696 209.850,218.583 210.400 L 218.377 211.400 218.806 210.419 C 219.042 209.879,219.161 209.069,219.072 208.619 C 218.913 207.821,218.907 207.821,218.849 208.600 M114.664 216.300 C 114.533 218.885,114.561 222.620,114.726 224.600 C 114.971 227.532,115.031 226.660,115.050 219.900 C 115.077 210.397,115.000 209.682,114.664 216.300 M218.046 212.067 C 218.021 212.434,217.896 213.064,217.770 213.467 C 217.552 214.162,217.563 214.163,217.997 213.487 C 218.248 213.096,218.373 212.466,218.273 212.087 C 218.111 211.468,218.088 211.466,218.046 212.067 M216.677 216.277 C 216.300 217.293,216.058 218.191,216.138 218.272 C 216.219 218.352,216.600 217.593,216.985 216.585 C 217.370 215.576,217.612 214.679,217.523 214.590 C 217.435 214.501,217.054 215.260,216.677 216.277 M272.006 215.833 C 272.009 216.475,272.196 217.270,272.421 217.600 C 272.714 218.030,272.754 217.746,272.562 216.600 C 272.230 214.616,271.998 214.296,272.006 215.833 M272.856 218.800 C 272.856 219.130,273.011 219.760,273.200 220.200 C 273.417 220.704,273.544 220.778,273.544 220.400 C 273.544 220.070,273.389 219.440,273.200 219.000 C 272.983 218.496,272.856 218.422,272.856 218.800 M168.068 220.600 C 168.062 221.040,168.211 221.760,168.400 222.200 C 168.838 223.219,168.838 222.168,168.400 220.800 C 168.143 219.996,168.077 219.957,168.068 220.600 M273.600 221.284 C 273.600 221.716,274.815 224.400,275.011 224.400 C 275.121 224.400,274.933 223.734,274.593 222.921 C 273.993 221.486,273.600 220.838,273.600 221.284 M213.570 222.866 C 213.298 223.380,212.813 224.205,212.492 224.700 C 212.171 225.195,211.995 225.600,212.101 225.600 C 212.436 225.600,214.469 222.336,214.262 222.129 C 214.154 222.020,213.842 222.352,213.570 222.866 M275.200 225.045 C 275.200 225.965,282.445 236.800,283.060 236.800 C 283.189 236.800,282.852 236.215,282.311 235.500 C 280.027 232.482,278.352 230.006,276.825 227.393 C 275.931 225.864,275.200 224.807,275.200 225.045 M209.690 228.563 C 207.775 230.953,204.224 234.031,202.066 235.171 C 201.552 235.443,201.224 235.758,201.338 235.871 C 201.967 236.501,209.014 230.342,211.144 227.300 C 212.635 225.171,211.888 225.819,209.690 228.563 M115.295 230.200 C 115.295 230.860,115.432 231.940,115.600 232.600 L 115.905 233.800 115.905 232.600 C 115.905 231.940,115.768 230.860,115.600 230.200 L 115.295 229.000 115.295 230.200 M171.449 229.600 C 172.645 232.114,177.974 237.359,178.647 236.686 C 178.772 236.561,178.360 236.193,177.732 235.868 C 176.602 235.284,173.262 231.936,171.878 230.000 C 171.485 229.450,171.291 229.270,171.449 229.600 M116.068 234.800 C 116.088 235.839,116.718 237.546,116.732 236.600 C 116.738 236.160,116.589 235.440,116.400 235.000 C 116.189 234.510,116.061 234.432,116.068 234.800 M284.024 238.433 C 284.507 239.112,285.245 240.327,285.665 241.133 C 286.152 242.069,286.331 242.238,286.159 241.600 C 285.885 240.579,283.730 237.200,283.354 237.200 C 283.239 237.200,283.541 237.755,284.024 238.433 M116.831 238.500 C 116.872 239.158,118.329 243.100,118.369 242.662 C 118.415 242.155,117.170 238.000,116.972 238.000 C 116.877 238.000,116.814 238.225,116.831 238.500 M184.315 238.872 C 184.692 239.021,186.800 239.144,189.000 239.144 C 191.200 239.144,193.308 239.021,193.685 238.872 C 194.062 238.722,191.954 238.600,189.000 238.600 C 186.046 238.600,183.938 238.722,184.315 238.872 M286.509 244.400 C 286.509 245.390,286.587 245.795,286.682 245.300 C 286.778 244.805,286.778 243.995,286.682 243.500 C 286.587 243.005,286.509 243.410,286.509 244.400 M119.807 246.679 C 120.407 248.114,120.800 248.762,120.800 248.316 C 120.800 247.884,119.585 245.200,119.389 245.200 C 119.279 245.200,119.467 245.866,119.807 246.679 M285.500 247.414 C 284.501 248.750,284.631 249.123,285.646 247.833 C 286.111 247.242,286.426 246.695,286.346 246.618 C 286.266 246.541,285.885 246.900,285.500 247.414 M121.386 249.900 C 121.735 250.615,122.106 251.200,122.210 251.200 C 122.608 251.200,122.352 250.563,121.567 249.600 L 120.752 248.600 121.386 249.900 M280.373 252.111 C 275.414 256.373,274.332 257.298,267.859 262.800 C 264.883 265.330,262.438 267.534,262.424 267.697 C 262.402 267.968,281.252 251.982,283.591 249.747 C 285.668 247.762,284.048 248.952,280.373 252.111 M226.884 250.215 C 226.601 250.537,226.545 250.800,226.761 250.800 C 226.976 250.800,227.272 250.607,227.418 250.371 C 227.566 250.132,228.645 251.330,229.850 253.071 C 233.334 258.102,233.860 258.560,230.803 253.900 C 227.849 249.397,227.716 249.272,226.884 250.215 M122.814 252.400 C 123.689 254.107,127.821 259.303,129.961 261.385 C 132.841 264.188,132.499 263.468,129.483 260.378 C 128.099 258.960,126.088 256.540,125.014 255.000 C 122.774 251.787,122.081 250.968,122.814 252.400 M222.778 254.232 C 222.020 255.020,219.645 257.118,217.500 258.894 C 213.188 262.466,212.244 263.518,215.996 260.571 C 218.600 258.525,224.737 252.849,224.378 252.819 C 224.257 252.808,223.537 253.444,222.778 254.232 M235.470 260.757 C 238.504 264.777,248.061 274.072,248.604 273.530 C 248.705 273.428,248.080 272.817,247.215 272.172 C 245.472 270.874,237.424 262.818,235.054 260.000 C 234.221 259.010,234.409 259.351,235.470 260.757 M211.087 263.768 C 208.726 265.402,208.164 265.975,209.906 264.972 C 211.250 264.199,213.556 262.423,213.200 262.436 C 213.090 262.441,212.139 263.040,211.087 263.768 M132.565 263.509 C 133.020 264.298,136.759 266.952,139.408 268.366 C 142.065 269.784,141.714 269.507,137.246 266.657 C 135.571 265.588,133.766 264.328,133.235 263.857 C 132.705 263.386,132.403 263.229,132.565 263.509 M205.600 267.233 L 204.600 268.048 205.900 267.414 C 206.615 267.065,207.200 266.694,207.200 266.590 C 207.200 266.192,206.563 266.448,205.600 267.233 M259.166 270.323 C 257.717 271.576,256.187 272.828,255.766 273.106 C 255.335 273.390,255.525 273.363,256.200 273.043 C 257.269 272.537,262.498 268.028,262.000 268.042 C 261.890 268.045,260.615 269.071,259.166 270.323 M150.600 273.200 C 151.796 273.714,152.795 273.714,152.000 273.200 C 151.670 272.987,151.040 272.822,150.600 272.834 L 149.800 272.856 150.600 273.200 M190.200 273.200 C 189.181 273.638,190.232 273.638,191.600 273.200 C 192.404 272.943,192.443 272.877,191.800 272.868 C 191.360 272.862,190.640 273.011,190.200 273.200 M152.833 273.747 C 152.925 273.828,153.720 274.004,154.600 274.138 C 155.715 274.307,155.958 274.271,155.400 274.019 C 154.632 273.671,152.490 273.444,152.833 273.747 M186.200 274.019 C 185.642 274.271,185.885 274.307,187.000 274.138 C 187.880 274.004,188.675 273.828,188.767 273.747 C 189.110 273.444,186.968 273.671,186.200 274.019 M249.915 274.072 C 250.292 274.221,251.230 274.344,252.000 274.344 C 252.770 274.344,253.708 274.221,254.085 274.072 C 254.462 273.922,253.524 273.800,252.000 273.800 C 250.476 273.800,249.538 273.922,249.915 274.072 M158.200 274.823 C 159.080 275.005,160.250 275.143,160.800 275.130 C 162.388 275.091,159.765 274.495,158.000 274.493 L 156.600 274.492 158.200 274.823 M180.000 274.800 C 178.363 275.054,178.327 275.083,179.600 275.110 C 180.370 275.127,181.810 274.997,182.800 274.820 C 185.197 274.394,182.728 274.376,180.000 274.800 M305.300 275.094 C 306.345 275.176,308.055 275.176,309.100 275.094 C 310.145 275.012,309.290 274.944,307.200 274.944 C 305.110 274.944,304.255 275.012,305.300 275.094 M166.080 275.498 C 167.994 275.571,171.234 275.571,173.280 275.498 C 175.326 275.426,173.760 275.366,169.800 275.365 C 165.840 275.365,164.166 275.424,166.080 275.498 M325.331 283.800 C 325.333 285.340,325.405 285.921,325.492 285.091 C 325.579 284.261,325.577 283.001,325.489 282.291 C 325.400 281.581,325.329 282.260,325.331 283.800 M294.100 285.087 C 294.705 285.178,295.695 285.178,296.300 285.087 C 296.905 284.995,296.410 284.920,295.200 284.920 C 293.990 284.920,293.495 284.995,294.100 285.087 M303.300 285.076 C 303.685 285.176,304.315 285.176,304.700 285.076 C 305.085 284.975,304.770 284.893,304.000 284.893 C 303.230 284.893,302.915 284.975,303.300 285.076 M75.200 285.325 C 75.200 285.394,75.785 285.979,76.500 286.625 L 77.800 287.800 76.625 286.500 C 75.530 285.288,75.200 285.016,75.200 285.325 M184.500 318.676 C 184.885 318.776,185.515 318.776,185.900 318.676 C 186.285 318.575,185.970 318.493,185.200 318.493 C 184.430 318.493,184.115 318.575,184.500 318.676 M188.500 319.076 C 188.885 319.176,189.515 319.176,189.900 319.076 C 190.285 318.975,189.970 318.893,189.200 318.893 C 188.430 318.893,188.115 318.975,188.500 319.076 M211.905 319.083 C 212.402 319.179,213.122 319.175,213.505 319.075 C 213.887 318.975,213.480 318.896,212.600 318.901 C 211.720 318.905,211.407 318.987,211.905 319.083 M208.500 341.876 C 208.885 341.976,209.515 341.976,209.900 341.876 C 210.285 341.775,209.970 341.693,209.200 341.693 C 208.430 341.693,208.115 341.775,208.500 341.876 M189.891 342.289 C 190.601 342.377,191.861 342.379,192.691 342.292 C 193.521 342.205,192.940 342.133,191.400 342.131 C 189.860 342.129,189.181 342.200,189.891 342.289 M204.300 342.282 C 204.795 342.378,205.605 342.378,206.100 342.282 C 206.595 342.187,206.190 342.109,205.200 342.109 C 204.210 342.109,203.805 342.187,204.300 342.282 " stroke="none" fill="#9e9e9e" fill-rule="evenodd"></path><path id="path4" d="M195.000 71.589 C 193.054 71.736,195.249 71.833,200.600 71.837 C 207.061 71.842,208.443 71.769,205.800 71.564 C 201.671 71.244,199.497 71.249,195.000 71.589 M185.200 72.400 C 183.112 72.839,185.546 72.857,188.000 72.420 L 189.800 72.100 188.200 72.103 C 187.320 72.104,185.970 72.238,185.200 72.400 M212.800 72.420 C 215.243 72.855,217.130 72.840,215.400 72.400 C 214.740 72.232,213.480 72.096,212.600 72.097 L 211.000 72.100 212.800 72.420 M179.800 73.200 L 179.000 73.544 179.800 73.525 C 180.240 73.514,181.140 73.368,181.800 73.200 L 183.000 72.895 181.800 72.875 C 181.140 72.865,180.240 73.011,179.800 73.200 M218.200 73.200 C 218.860 73.368,219.850 73.509,220.400 73.513 L 221.400 73.520 220.400 73.200 C 219.850 73.024,218.860 72.883,218.200 72.887 L 217.000 72.895 218.200 73.200 M175.400 74.000 L 174.600 74.344 175.400 74.332 C 175.840 74.326,176.650 74.176,177.200 74.000 L 178.200 73.680 177.200 73.668 C 176.650 73.662,175.840 73.811,175.400 74.000 M222.800 74.000 C 224.168 74.438,225.219 74.438,224.200 74.000 C 223.760 73.811,223.040 73.662,222.600 73.668 C 221.957 73.677,221.996 73.743,222.800 74.000 M172.200 74.800 L 171.400 75.144 172.200 75.144 C 172.640 75.144,173.360 74.989,173.800 74.800 L 174.600 74.456 173.800 74.456 C 173.360 74.456,172.640 74.611,172.200 74.800 M226.000 74.800 C 227.368 75.238,228.419 75.238,227.400 74.800 C 226.960 74.611,226.240 74.462,225.800 74.468 C 225.157 74.477,225.196 74.543,226.000 74.800 M169.200 75.600 C 168.405 76.114,169.404 76.114,170.600 75.600 L 171.400 75.256 170.600 75.234 C 170.160 75.222,169.530 75.387,169.200 75.600 M229.000 75.600 C 230.196 76.114,231.195 76.114,230.400 75.600 C 230.070 75.387,229.440 75.222,229.000 75.234 L 228.200 75.256 229.000 75.600 M231.600 76.400 C 231.930 76.613,232.470 76.788,232.800 76.788 C 233.333 76.788,233.333 76.745,232.800 76.400 C 232.470 76.187,231.930 76.012,231.600 76.012 C 231.067 76.012,231.067 76.055,231.600 76.400 M164.000 77.200 C 163.467 77.545,163.467 77.588,164.000 77.588 C 164.330 77.588,164.870 77.413,165.200 77.200 C 165.733 76.855,165.733 76.812,165.200 76.812 C 164.870 76.812,164.330 76.987,164.000 77.200 M233.633 76.952 C 234.033 77.317,238.978 79.155,239.136 78.997 C 239.232 78.901,238.881 78.659,238.355 78.459 C 237.830 78.259,236.703 77.804,235.851 77.448 C 234.429 76.853,233.232 76.586,233.633 76.952 M157.253 79.853 C 156.513 80.176,156.001 80.534,156.116 80.649 C 156.231 80.764,157.016 80.493,157.862 80.047 C 159.635 79.111,159.241 78.986,157.253 79.853 M239.633 79.332 C 239.725 79.405,241.420 80.312,243.400 81.348 C 245.380 82.384,246.640 82.940,246.200 82.583 C 245.349 81.893,240.209 79.200,239.743 79.200 C 239.591 79.200,239.542 79.259,239.633 79.332 M151.601 82.827 C 150.391 83.493,149.221 84.230,149.001 84.463 C 148.574 84.916,153.138 82.501,153.780 81.935 C 154.455 81.340,153.847 81.589,151.601 82.827 M247.985 83.891 C 249.022 84.638,252.439 87.228,254.800 89.057 C 256.011 89.995,256.065 90.010,255.200 89.162 C 253.374 87.371,249.486 84.361,248.234 83.767 L 247.000 83.182 247.985 83.891 M144.385 87.629 L 143.000 88.858 144.500 87.781 C 145.826 86.830,146.257 86.400,145.885 86.400 C 145.822 86.400,145.147 86.953,144.385 87.629 M140.219 90.886 C 137.683 93.146,132.198 99.261,131.521 100.583 C 130.992 101.615,131.250 101.336,134.555 97.308 C 136.040 95.497,138.548 92.844,140.128 91.412 C 141.708 89.980,142.901 88.807,142.780 88.804 C 142.659 88.802,141.507 89.739,140.219 90.886 M257.661 92.300 C 259.877 94.600,262.378 98.004,263.573 100.348 C 264.059 101.299,264.546 101.988,264.656 101.878 C 265.326 101.208,257.301 90.400,256.133 90.400 C 255.966 90.400,256.654 91.255,257.661 92.300 M128.702 104.900 C 127.815 106.253,125.529 110.863,125.674 111.006 C 125.743 111.075,126.640 109.527,127.667 107.566 C 129.502 104.060,129.866 103.124,128.702 104.900 M267.234 108.400 C 267.246 108.730,267.411 109.360,267.600 109.800 L 267.944 110.600 267.966 109.800 C 267.978 109.360,267.813 108.730,267.600 108.400 C 267.255 107.867,267.215 107.867,267.234 108.400 M192.800 109.189 C 191.273 109.369,192.190 109.450,195.800 109.456 C 199.446 109.462,200.462 109.374,199.200 109.162 C 197.150 108.817,195.918 108.822,192.800 109.189 M187.600 110.000 L 186.600 110.320 187.600 110.332 C 188.150 110.338,188.960 110.189,189.400 110.000 L 190.200 109.656 189.400 109.668 C 188.960 109.674,188.150 109.824,187.600 110.000 M202.600 110.000 C 203.040 110.189,203.670 110.344,204.000 110.344 C 204.378 110.344,204.304 110.217,203.800 110.000 C 203.360 109.811,202.730 109.656,202.400 109.656 C 202.022 109.656,202.096 109.783,202.600 110.000 M268.034 111.200 C 268.046 111.530,268.211 112.160,268.400 112.600 L 268.744 113.400 268.766 112.600 C 268.778 112.160,268.613 111.530,268.400 111.200 C 268.055 110.667,268.015 110.667,268.034 111.200 M180.941 112.427 C 179.653 113.102,178.420 113.849,178.200 114.087 C 177.980 114.325,178.790 113.984,180.000 113.329 C 181.210 112.674,182.650 111.939,183.200 111.696 C 183.750 111.453,183.993 111.242,183.741 111.227 C 183.488 111.212,182.228 111.752,180.941 112.427 M209.398 112.469 C 212.367 114.118,215.894 117.612,217.141 120.143 C 217.658 121.192,218.169 121.964,218.276 121.857 C 219.543 120.590,211.494 112.546,207.800 111.388 C 207.360 111.250,208.079 111.736,209.398 112.469 M268.868 114.600 C 268.874 115.040,269.024 115.850,269.200 116.400 L 269.520 117.400 269.532 116.400 C 269.538 115.850,269.389 115.040,269.200 114.600 L 268.856 113.800 268.868 114.600 M174.184 117.351 C 172.587 118.974,171.068 120.729,170.808 121.251 C 170.536 121.797,170.801 121.605,171.430 120.800 C 172.033 120.030,173.693 118.275,175.119 116.900 C 176.545 115.525,177.572 114.400,177.400 114.400 C 177.228 114.400,175.781 115.728,174.184 117.351 M123.400 116.400 C 123.250 116.873,123.217 117.350,123.327 117.460 C 123.437 117.570,123.650 117.273,123.800 116.800 C 123.950 116.327,123.983 115.850,123.873 115.740 C 123.763 115.630,123.550 115.927,123.400 116.400 M122.649 118.615 C 122.512 118.973,122.415 119.566,122.434 119.933 C 122.453 120.300,122.627 120.069,122.821 119.420 C 123.198 118.158,123.065 117.533,122.649 118.615 M269.869 120.600 C 269.996 121.920,270.168 123.075,270.250 123.167 C 270.541 123.490,270.316 120.186,269.979 119.200 C 269.758 118.552,269.720 119.045,269.869 120.600 M121.800 122.000 C 121.648 122.691,121.614 123.347,121.724 123.457 C 121.834 123.567,122.048 123.091,122.200 122.400 C 122.352 121.709,122.386 121.053,122.276 120.943 C 122.166 120.833,121.952 121.309,121.800 122.000 M169.400 123.600 C 169.038 124.301,168.826 124.959,168.929 125.062 C 169.032 125.165,169.406 124.669,169.760 123.960 C 170.114 123.251,170.326 122.593,170.231 122.498 C 170.136 122.403,169.762 122.899,169.400 123.600 M121.043 125.033 C 119.974 127.817,122.292 132.800,124.655 132.800 C 124.837 132.800,124.341 132.362,123.552 131.826 C 121.697 130.565,121.026 128.926,121.327 126.387 C 121.568 124.355,121.474 123.909,121.043 125.033 M219.256 125.200 C 219.256 125.530,219.411 126.160,219.600 126.600 C 219.817 127.104,219.944 127.178,219.944 126.800 C 219.944 126.470,219.789 125.840,219.600 125.400 C 219.383 124.896,219.256 124.822,219.256 125.200 M270.707 165.600 C 270.766 187.930,270.866 207.280,270.930 208.600 C 270.994 209.920,271.063 193.180,271.083 171.400 C 271.104 149.620,271.003 130.270,270.860 128.400 C 270.717 126.530,270.648 143.270,270.707 165.600 M167.429 128.629 C 167.281 129.215,167.251 129.784,167.361 129.894 C 167.471 130.004,167.681 129.615,167.829 129.029 C 167.976 128.442,168.006 127.873,167.896 127.763 C 167.786 127.653,167.576 128.042,167.429 128.629 M220.282 131.200 C 220.404 132.850,220.571 134.275,220.652 134.367 C 220.928 134.677,220.707 130.608,220.383 129.400 C 220.186 128.668,220.147 129.369,220.282 131.200 M166.000 132.909 C 165.421 134.102,164.428 135.355,163.641 135.885 C 162.891 136.390,162.558 136.800,162.899 136.800 C 164.003 136.800,167.479 132.191,167.124 131.197 C 167.056 131.005,166.550 131.775,166.000 132.909 M125.390 133.184 C 125.532 133.413,126.117 133.600,126.690 133.600 C 127.944 133.600,127.799 133.408,126.266 133.040 C 125.523 132.862,125.221 132.911,125.390 133.184 M130.600 134.000 C 131.260 134.168,132.610 134.304,133.600 134.303 L 135.400 134.300 133.600 133.980 C 132.610 133.803,131.260 133.667,130.600 133.677 L 129.400 133.695 130.600 134.000 M138.200 134.823 C 139.080 135.005,140.430 135.142,141.200 135.127 C 142.505 135.102,142.478 135.078,140.800 134.780 C 138.250 134.326,135.979 134.364,138.200 134.823 M145.800 135.623 C 146.680 135.805,148.030 135.942,148.800 135.927 C 150.105 135.902,150.078 135.878,148.400 135.580 C 145.850 135.126,143.579 135.164,145.800 135.623 M153.000 136.423 C 153.880 136.605,155.230 136.742,156.000 136.727 C 157.305 136.702,157.278 136.678,155.600 136.380 C 153.050 135.926,150.779 135.964,153.000 136.423 M159.905 137.083 C 160.402 137.179,161.122 137.175,161.505 137.075 C 161.887 136.975,161.480 136.896,160.600 136.901 C 159.720 136.905,159.407 136.987,159.905 137.083 M220.173 148.776 C 219.968 148.975,219.260 149.215,218.600 149.309 L 217.400 149.480 218.600 149.534 C 219.813 149.588,221.158 149.025,220.762 148.628 C 220.643 148.510,220.379 148.576,220.173 148.776 M211.000 150.000 L 209.400 150.286 210.800 150.314 C 211.570 150.329,213.010 150.197,214.000 150.020 L 215.800 149.700 214.200 149.707 C 213.320 149.711,211.880 149.842,211.000 150.000 M203.200 150.800 C 201.112 151.239,203.546 151.257,206.000 150.820 L 207.800 150.500 206.200 150.503 C 205.320 150.504,203.970 150.638,203.200 150.800 M196.000 151.600 C 193.912 152.039,196.346 152.057,198.800 151.620 L 200.600 151.300 199.000 151.303 C 198.120 151.304,196.770 151.438,196.000 151.600 M189.800 152.400 L 188.600 152.705 189.800 152.705 C 190.460 152.705,191.540 152.568,192.200 152.400 L 193.400 152.095 192.200 152.095 C 191.540 152.095,190.460 152.232,189.800 152.400 M184.400 153.200 L 183.400 153.520 184.400 153.513 C 184.950 153.509,185.940 153.368,186.600 153.200 L 187.800 152.895 186.600 152.887 C 185.940 152.883,184.950 153.024,184.400 153.200 M179.600 154.000 C 178.256 154.431,179.708 154.431,181.400 154.000 C 182.478 153.726,182.498 153.694,181.600 153.687 C 181.050 153.683,180.150 153.824,179.600 154.000 M175.400 154.800 C 174.381 155.238,175.432 155.238,176.800 154.800 C 177.604 154.543,177.643 154.477,177.000 154.468 C 176.560 154.462,175.840 154.611,175.400 154.800 M171.600 155.600 C 170.808 155.854,170.767 155.920,171.400 155.920 C 171.840 155.920,172.650 155.776,173.200 155.600 C 173.992 155.346,174.033 155.280,173.400 155.280 C 172.960 155.280,172.150 155.424,171.600 155.600 M168.200 156.400 C 167.181 156.838,168.232 156.838,169.600 156.400 C 170.404 156.143,170.443 156.077,169.800 156.068 C 169.360 156.062,168.640 156.211,168.200 156.400 M165.200 157.200 C 164.405 157.714,165.404 157.714,166.600 157.200 L 167.400 156.856 166.600 156.834 C 166.160 156.822,165.530 156.987,165.200 157.200 M162.400 158.000 C 161.605 158.514,162.604 158.514,163.800 158.000 L 164.600 157.656 163.800 157.634 C 163.360 157.622,162.730 157.787,162.400 158.000 M152.900 161.434 C 152.185 161.746,151.600 162.094,151.600 162.207 C 151.600 162.415,154.406 161.327,154.746 160.987 C 155.086 160.647,154.220 160.857,152.900 161.434 M148.700 163.426 C 147.655 163.970,146.800 164.505,146.800 164.614 C 146.800 164.793,150.760 162.923,151.167 162.552 C 151.662 162.101,150.361 162.562,148.700 163.426 M144.481 165.772 C 142.521 167.158,142.385 167.465,144.200 166.405 C 146.078 165.310,146.725 164.791,146.180 164.820 C 145.971 164.830,145.207 165.259,144.481 165.772 M138.332 170.011 C 135.430 172.192,129.320 178.134,127.913 180.144 C 127.430 180.835,128.874 179.482,131.124 177.137 C 133.373 174.793,136.560 171.843,138.207 170.582 C 140.832 168.571,141.485 167.989,141.100 168.004 C 141.045 168.006,139.800 168.909,138.332 170.011 M206.600 178.019 C 205.660 178.198,206.567 178.236,208.800 178.111 C 210.890 177.994,212.675 177.831,212.767 177.749 C 213.055 177.491,208.273 177.700,206.600 178.019 M200.400 178.800 L 199.400 179.120 200.400 179.113 C 200.950 179.109,201.940 178.968,202.600 178.800 L 203.800 178.495 202.600 178.487 C 201.940 178.483,200.950 178.624,200.400 178.800 M196.400 179.600 C 195.608 179.854,195.567 179.920,196.200 179.920 C 196.640 179.920,197.450 179.776,198.000 179.600 C 198.792 179.346,198.833 179.280,198.200 179.280 C 197.760 179.280,196.950 179.424,196.400 179.600 M193.400 180.400 C 192.896 180.617,192.822 180.744,193.200 180.744 C 193.530 180.744,194.160 180.589,194.600 180.400 C 195.104 180.183,195.178 180.056,194.800 180.056 C 194.470 180.056,193.840 180.211,193.400 180.400 M126.323 182.300 C 125.211 183.596,123.121 186.855,123.292 187.026 C 123.386 187.119,124.297 185.936,125.318 184.398 C 127.158 181.625,127.482 180.950,126.323 182.300 M185.600 183.200 C 184.830 183.622,184.313 183.974,184.451 183.983 C 184.865 184.011,187.600 182.805,187.600 182.595 C 187.600 182.246,187.025 182.420,185.600 183.200 M182.100 185.026 C 180.212 186.158,179.777 186.749,181.500 185.841 C 182.709 185.203,184.316 184.031,184.000 184.017 C 183.890 184.012,183.035 184.466,182.100 185.026 M176.117 189.855 C 174.183 191.810,172.275 193.992,171.877 194.705 C 170.783 196.666,171.289 196.259,172.959 193.834 C 174.473 191.636,177.945 188.113,179.397 187.304 C 179.835 187.060,180.068 186.734,179.914 186.580 C 179.760 186.427,178.052 187.900,176.117 189.855 M121.379 190.441 C 120.592 192.004,120.014 193.347,120.094 193.427 C 120.173 193.507,120.903 192.228,121.716 190.586 C 122.529 188.944,123.107 187.600,123.002 187.600 C 122.896 187.600,122.166 188.878,121.379 190.441 M220.284 199.751 C 220.110 202.144,220.049 204.182,220.147 204.281 C 220.422 204.555,220.885 198.807,220.734 197.000 C 220.660 196.120,220.458 197.358,220.284 199.751 M117.073 201.753 C 116.923 202.145,116.811 202.766,116.825 203.133 C 116.842 203.575,116.981 203.474,117.237 202.834 C 117.449 202.303,117.561 201.682,117.485 201.454 C 117.409 201.227,117.224 201.361,117.073 201.753 M168.200 203.200 C 168.048 203.891,168.014 204.547,168.124 204.657 C 168.234 204.767,168.448 204.291,168.600 203.600 C 168.752 202.909,168.786 202.253,168.676 202.143 C 168.566 202.033,168.352 202.509,168.200 203.200 M116.276 204.810 C 116.130 205.355,116.027 206.250,116.046 206.800 C 116.071 207.518,116.184 207.357,116.449 206.227 C 116.855 204.495,116.700 203.225,116.276 204.810 M167.469 206.756 C 167.321 207.495,167.223 208.843,167.251 209.750 C 167.292 211.102,167.363 210.930,167.644 208.800 C 168.017 205.965,167.900 204.599,167.469 206.756 M219.382 207.382 C 219.229 208.402,219.194 209.327,219.304 209.437 C 219.414 209.547,219.629 208.802,219.782 207.782 C 219.935 206.761,219.970 205.837,219.860 205.727 C 219.750 205.617,219.535 206.361,219.382 207.382 M115.482 209.550 C 115.327 210.293,115.221 211.553,115.247 212.350 C 115.286 213.573,115.350 213.456,115.657 211.603 C 116.065 209.141,115.921 207.451,115.482 209.550 M218.629 211.029 C 218.481 211.615,218.438 212.172,218.532 212.266 C 218.627 212.360,218.824 211.958,218.971 211.371 C 219.119 210.785,219.162 210.228,219.068 210.134 C 218.973 210.040,218.776 210.442,218.629 211.029 M271.280 213.200 C 271.280 213.750,271.424 214.650,271.600 215.200 L 271.920 216.200 271.920 215.200 C 271.920 214.650,271.776 213.750,271.600 213.200 L 271.280 212.200 271.280 213.200 M217.800 214.000 C 217.650 214.473,217.617 214.950,217.727 215.060 C 217.837 215.170,218.050 214.873,218.200 214.400 C 218.350 213.927,218.383 213.450,218.273 213.340 C 218.163 213.230,217.950 213.527,217.800 214.000 M167.240 217.233 C 167.262 218.205,167.425 219.450,167.602 220.000 C 167.795 220.600,167.837 219.960,167.706 218.400 C 167.451 215.362,167.182 214.689,167.240 217.233 M114.928 219.600 C 114.928 221.030,115.001 221.615,115.089 220.900 C 115.178 220.185,115.178 219.015,115.089 218.300 C 115.001 217.585,114.928 218.170,114.928 219.600 M272.819 219.892 C 272.795 220.507,274.050 223.684,274.240 223.493 C 274.318 223.416,274.033 222.463,273.609 221.376 C 273.185 220.289,272.829 219.621,272.819 219.892 M168.056 222.200 C 168.056 222.640,168.211 223.360,168.400 223.800 L 168.744 224.600 168.744 223.800 C 168.744 223.360,168.589 222.640,168.400 222.200 L 168.056 221.400 168.056 222.200 M212.311 225.500 C 209.873 229.144,207.712 231.517,204.927 233.609 C 201.894 235.888,201.498 236.281,203.166 235.357 C 206.211 233.670,215.834 222.800,214.282 222.800 C 214.192 222.800,213.304 224.015,212.311 225.500 M274.400 224.140 C 274.400 224.559,275.581 226.800,275.802 226.800 C 276.027 226.800,275.165 224.738,274.724 224.220 C 274.546 224.011,274.400 223.975,274.400 224.140 M115.297 227.400 C 115.296 228.280,115.432 229.540,115.600 230.200 C 116.040 231.930,116.055 230.043,115.620 227.600 L 115.300 225.800 115.297 227.400 M169.600 227.114 C 169.600 228.346,173.868 233.979,175.800 235.297 C 176.547 235.807,176.303 235.453,175.151 234.358 C 173.375 232.669,170.400 228.464,170.400 227.643 C 170.400 227.425,170.220 227.136,170.000 227.000 C 169.780 226.864,169.600 226.916,169.600 227.114 M276.566 228.225 C 277.210 229.592,283.313 238.263,284.291 239.200 C 284.635 239.530,284.348 238.990,283.652 238.000 C 281.501 234.938,277.027 228.526,276.494 227.744 C 276.212 227.329,276.244 227.541,276.566 228.225 M116.068 233.200 C 116.062 233.750,116.211 234.560,116.400 235.000 L 116.744 235.800 116.732 235.000 C 116.726 234.560,116.576 233.750,116.400 233.200 L 116.080 232.200 116.068 233.200 M199.870 236.679 C 199.248 237.005,198.826 237.360,198.933 237.466 C 199.142 237.676,201.600 236.500,201.600 236.190 C 201.600 235.892,201.094 236.035,199.870 236.679 M116.834 237.000 C 116.822 237.440,116.987 238.070,117.200 238.400 C 117.714 239.195,117.714 238.196,117.200 237.000 L 116.856 236.200 116.834 237.000 M196.800 238.000 C 196.267 238.345,196.267 238.388,196.800 238.388 C 197.130 238.388,197.670 238.213,198.000 238.000 C 198.533 237.655,198.533 237.612,198.000 237.612 C 197.670 237.612,197.130 237.787,196.800 238.000 M182.600 238.800 C 183.040 238.989,183.760 239.144,184.200 239.144 L 185.000 239.144 184.200 238.800 C 183.760 238.611,183.040 238.456,182.600 238.456 L 181.800 238.456 182.600 238.800 M193.800 238.800 L 193.000 239.144 193.800 239.144 C 194.240 239.144,194.960 238.989,195.400 238.800 L 196.200 238.456 195.400 238.456 C 194.960 238.456,194.240 238.611,193.800 238.800 M187.511 239.493 C 188.451 239.578,189.891 239.577,190.711 239.491 C 191.530 239.405,190.760 239.336,189.000 239.337 C 187.240 239.339,186.570 239.409,187.511 239.493 M285.892 243.322 C 286.241 246.418,285.931 246.882,280.196 251.826 C 277.228 254.384,274.800 256.564,274.800 256.671 C 274.800 256.779,275.508 256.266,276.372 255.533 C 277.237 254.800,279.460 252.940,281.312 251.400 C 286.127 247.395,287.590 244.499,286.037 242.046 C 285.821 241.705,285.765 242.196,285.892 243.322 M118.428 242.251 C 118.388 242.894,119.610 245.724,119.832 245.502 C 119.934 245.400,119.666 244.525,119.237 243.558 C 118.808 242.591,118.444 242.003,118.428 242.251 M120.000 246.138 C 120.000 246.654,121.695 250.011,122.074 250.246 C 122.283 250.375,121.971 249.518,121.379 248.340 C 120.249 246.090,120.000 245.693,120.000 246.138 M223.327 253.201 C 218.877 257.470,214.114 261.353,209.942 264.112 C 208.233 265.243,206.901 266.235,206.983 266.317 C 207.246 266.579,214.089 261.776,217.400 259.006 C 221.232 255.799,227.362 250.026,227.150 249.822 C 227.068 249.742,225.347 251.263,223.327 253.201 M122.409 251.100 C 122.414 251.265,122.785 251.850,123.233 252.400 L 124.048 253.400 123.414 252.100 C 122.811 250.865,122.389 250.445,122.409 251.100 M231.257 254.500 C 234.585 259.469,237.627 263.118,241.843 267.200 C 244.813 270.075,244.649 269.857,240.777 265.782 C 238.211 263.080,234.646 258.731,232.663 255.882 C 228.565 249.995,227.615 249.061,231.257 254.500 M125.266 255.395 C 127.200 258.287,132.589 263.576,135.600 265.537 C 137.030 266.468,137.675 266.819,137.033 266.315 C 131.402 261.897,129.697 260.370,127.815 258.060 C 124.318 253.767,123.854 253.282,125.266 255.395 M266.000 264.068 C 261.490 268.014,256.990 271.769,256.000 272.414 C 254.112 273.642,254.035 274.096,255.914 272.921 C 256.827 272.350,261.762 268.294,262.400 267.591 C 262.574 267.399,273.924 257.664,274.367 257.327 C 274.458 257.257,274.458 257.131,274.367 257.047 C 274.275 256.963,270.510 260.122,266.000 264.068 M205.100 267.029 C 204.495 267.357,204.000 267.710,204.000 267.813 C 204.000 268.199,204.632 267.957,205.600 267.200 C 206.789 266.270,206.611 266.209,205.100 267.029 M138.400 267.359 C 138.400 267.651,142.110 269.623,142.301 269.433 C 142.399 269.334,141.562 268.789,140.440 268.220 C 139.318 267.652,138.400 267.264,138.400 267.359 M200.000 269.600 C 199.230 270.022,198.713 270.374,198.851 270.383 C 199.265 270.411,202.000 269.205,202.000 268.995 C 202.000 268.646,201.425 268.820,200.000 269.600 M144.800 270.595 C 144.800 270.849,147.565 272.003,148.149 271.991 C 148.397 271.986,147.815 271.626,146.856 271.191 C 144.996 270.347,144.800 270.290,144.800 270.595 M245.612 270.625 C 245.630 271.147,248.954 273.601,249.639 273.598 C 249.948 273.596,249.660 273.315,249.000 272.972 C 248.340 272.630,247.305 271.877,246.700 271.300 C 246.095 270.723,245.606 270.419,245.612 270.625 M149.200 272.400 C 149.530 272.613,150.070 272.788,150.400 272.788 C 150.933 272.788,150.933 272.745,150.400 272.400 C 150.070 272.187,149.530 272.012,149.200 272.012 C 148.667 272.012,148.667 272.055,149.200 272.400 M191.800 272.400 L 191.000 272.744 191.800 272.766 C 192.240 272.778,192.870 272.613,193.200 272.400 C 193.995 271.886,192.996 271.886,191.800 272.400 M152.000 273.182 C 152.330 273.405,152.945 273.591,153.367 273.594 C 154.390 273.602,154.071 273.373,152.600 273.044 C 151.724 272.848,151.562 272.885,152.000 273.182 M188.400 273.200 L 187.400 273.520 188.400 273.532 C 188.950 273.538,189.760 273.389,190.200 273.200 L 191.000 272.856 190.200 272.868 C 189.760 272.874,188.950 273.024,188.400 273.200 M155.400 274.000 C 155.840 274.189,156.650 274.338,157.200 274.332 L 158.200 274.320 157.200 274.000 C 156.650 273.824,155.840 273.674,155.400 273.668 L 154.600 273.656 155.400 274.000 M184.000 274.000 L 182.600 274.295 184.000 274.319 C 184.770 274.333,185.760 274.189,186.200 274.000 L 187.000 273.656 186.200 273.681 C 185.760 273.694,184.770 273.838,184.000 274.000 M251.100 273.882 C 251.595 273.978,252.405 273.978,252.900 273.882 C 253.395 273.787,252.990 273.709,252.000 273.709 C 251.010 273.709,250.605 273.787,251.100 273.882 M160.600 274.802 C 161.802 275.106,167.880 275.327,167.567 275.056 C 167.475 274.976,165.600 274.819,163.400 274.705 C 161.200 274.592,159.940 274.635,160.600 274.802 M174.600 274.800 L 171.000 275.049 174.400 275.089 C 176.270 275.112,178.700 274.990,179.800 274.818 L 181.800 274.507 180.000 274.529 C 179.010 274.541,176.580 274.663,174.600 274.800 " stroke="none" fill="#747474" fill-rule="evenodd"></path></g></svg>