<svg id="svg" version="1.1" xmlns="http://www.w3.org/2000/svg" xmlns:xlink="http://www.w3.org/1999/xlink" width="400" height="400" viewBox="0, 0, 400,400"><g id="svgg"><path id="path0" d="M240.800 58.210 C 216.204 62.756,195.972 84.452,193.549 108.880 C 193.219 112.210,193.181 114.441,193.434 115.627 L 193.812 117.400 197.806 117.367 C 221.125 117.177,245.687 89.445,245.781 63.200 L 245.800 57.800 244.800 57.728 C 244.250 57.688,242.450 57.905,240.800 58.210 M234.032 119.034 C 228.842 119.790,223.558 121.207,216.118 123.840 C 192.859 132.069,195.475 131.995,175.929 124.968 C 157.209 118.238,147.372 117.572,133.200 122.075 C 75.376 140.448,69.904 226.751,122.361 293.000 C 139.291 314.380,150.152 317.770,173.730 309.032 C 185.478 304.677,192.027 303.347,199.947 303.704 C 207.268 304.034,208.993 304.484,226.425 310.603 C 239.886 315.327,250.407 314.131,260.200 306.761 C 271.644 298.149,288.749 273.715,295.735 256.000 C 299.900 245.440,299.875 245.945,296.311 244.183 C 257.334 224.920,253.196 170.211,288.900 146.209 C 293.046 143.421,292.910 144.019,290.180 140.589 C 277.872 125.128,254.310 116.083,234.032 119.034 " stroke="none" fill="#acacac" fill-rule="evenodd"></path><path id="path1" d="M178.500 0.274 C 176.465 0.360,174.800 0.603,174.800 0.815 C 174.800 1.030,173.383 1.200,171.600 1.200 C 169.733 1.200,168.400 1.367,168.400 1.600 C 168.400 1.820,167.421 2.000,166.224 2.000 C 165.027 2.000,163.936 2.180,163.800 2.400 C 163.664 2.620,162.663 2.800,161.576 2.800 C 160.489 2.800,159.600 2.980,159.600 3.200 C 159.600 3.420,158.801 3.600,157.824 3.600 C 156.847 3.600,155.936 3.780,155.800 4.000 C 155.664 4.220,154.843 4.400,153.976 4.400 C 153.109 4.400,152.400 4.580,152.400 4.800 C 152.400 5.020,151.680 5.200,150.800 5.200 C 149.920 5.200,149.200 5.380,149.200 5.600 C 149.200 5.820,148.581 6.000,147.824 6.000 C 147.067 6.000,146.336 6.180,146.200 6.400 C 146.064 6.620,145.423 6.800,144.776 6.800 C 144.129 6.800,143.600 6.980,143.600 7.200 C 143.600 7.420,142.880 7.600,142.000 7.600 C 141.120 7.600,140.400 7.780,140.400 8.000 C 140.400 8.220,139.860 8.400,139.200 8.400 C 138.540 8.400,138.000 8.580,138.000 8.800 C 138.000 9.020,137.460 9.200,136.800 9.200 C 136.140 9.200,135.600 9.380,135.600 9.600 C 135.600 9.820,135.060 10.000,134.400 10.000 C 133.740 10.000,133.200 10.180,133.200 10.400 C 133.200 10.620,132.660 10.800,132.000 10.800 C 131.340 10.800,130.800 10.980,130.800 11.200 C 130.800 11.420,130.440 11.600,130.000 11.600 C 129.560 11.600,129.200 11.780,129.200 12.000 C 129.200 12.220,128.660 12.400,128.000 12.400 C 127.340 12.400,126.800 12.580,126.800 12.800 C 126.800 13.020,126.440 13.200,126.000 13.200 C 125.560 13.200,125.200 13.380,125.200 13.600 C 125.200 13.820,124.660 14.000,124.000 14.000 C 123.340 14.000,122.800 14.180,122.800 14.400 C 122.800 14.620,122.440 14.800,122.000 14.800 C 121.560 14.800,121.200 14.980,121.200 15.200 C 121.200 15.420,120.761 15.600,120.224 15.600 C 119.687 15.600,119.136 15.780,119.000 16.000 C 118.864 16.220,118.403 16.400,117.976 16.400 C 117.549 16.400,117.200 16.580,117.200 16.800 C 117.200 17.020,116.840 17.200,116.400 17.200 C 115.960 17.200,115.600 17.380,115.600 17.600 C 115.600 17.820,115.240 18.000,114.800 18.000 C 114.360 18.000,114.000 18.180,114.000 18.400 C 114.000 18.620,113.640 18.800,113.200 18.800 C 112.760 18.800,112.400 18.980,112.400 19.200 C 112.400 19.420,112.040 19.600,111.600 19.600 C 111.160 19.600,110.800 19.780,110.800 20.000 C 110.800 20.220,110.440 20.400,110.000 20.400 C 109.560 20.400,109.200 20.580,109.200 20.800 C 109.200 21.020,108.840 21.200,108.400 21.200 C 107.960 21.200,107.600 21.380,107.600 21.600 C 107.600 21.820,107.240 22.000,106.800 22.000 C 106.360 22.000,106.000 22.180,106.000 22.400 C 106.000 22.620,105.640 22.800,105.200 22.800 C 104.760 22.800,104.400 22.980,104.400 23.200 C 104.400 23.420,104.040 23.600,103.600 23.600 C 103.160 23.600,102.800 23.780,102.800 24.000 C 102.800 24.220,102.564 24.400,102.275 24.400 C 101.987 24.400,101.364 24.760,100.892 25.200 C 100.420 25.640,99.756 26.000,99.417 26.000 C 99.078 26.000,98.800 26.180,98.800 26.400 C 98.800 26.620,98.440 26.800,98.000 26.800 C 97.560 26.800,97.200 26.980,97.200 27.200 C 97.200 27.420,96.964 27.600,96.675 27.600 C 96.387 27.600,95.764 27.960,95.292 28.400 C 94.820 28.840,94.196 29.200,93.905 29.200 C 93.614 29.200,93.117 29.560,92.800 30.000 C 92.483 30.440,91.943 30.800,91.600 30.800 C 91.257 30.800,90.717 31.160,90.400 31.600 C 90.083 32.040,89.503 32.400,89.112 32.400 C 88.720 32.400,88.400 32.580,88.400 32.800 C 88.400 33.020,88.157 33.200,87.859 33.200 C 87.562 33.200,86.754 33.740,86.063 34.400 C 85.372 35.060,84.575 35.600,84.292 35.600 C 84.009 35.600,83.517 35.960,83.200 36.400 C 82.883 36.840,82.420 37.200,82.171 37.200 C 81.922 37.200,81.154 37.740,80.463 38.400 C 79.772 39.060,79.047 39.600,78.852 39.600 C 78.656 39.600,77.755 40.320,76.848 41.200 C 75.941 42.080,75.005 42.800,74.768 42.800 C 74.531 42.800,73.646 43.520,72.800 44.400 C 71.954 45.280,71.084 46.000,70.866 46.000 C 70.648 46.000,69.373 47.080,68.032 48.400 C 66.692 49.720,65.430 50.800,65.228 50.800 C 64.750 50.800,50.800 64.750,50.800 65.228 C 50.800 65.430,49.720 66.692,48.400 68.032 C 47.080 69.373,46.000 70.648,46.000 70.866 C 46.000 71.084,45.280 71.954,44.400 72.800 C 43.520 73.646,42.800 74.531,42.800 74.768 C 42.800 75.005,42.080 75.941,41.200 76.848 C 40.320 77.755,39.600 78.656,39.600 78.852 C 39.600 79.047,39.060 79.772,38.400 80.463 C 37.740 81.154,37.200 81.922,37.200 82.171 C 37.200 82.420,36.840 82.883,36.400 83.200 C 35.960 83.517,35.600 84.009,35.600 84.292 C 35.600 84.575,35.060 85.372,34.400 86.063 C 33.740 86.754,33.200 87.562,33.200 87.859 C 33.200 88.157,33.020 88.400,32.800 88.400 C 32.580 88.400,32.400 88.720,32.400 89.112 C 32.400 89.503,32.040 90.083,31.600 90.400 C 31.160 90.717,30.800 91.257,30.800 91.600 C 30.800 91.943,30.440 92.483,30.000 92.800 C 29.560 93.117,29.200 93.614,29.200 93.905 C 29.200 94.196,28.840 94.820,28.400 95.292 C 27.960 95.764,27.600 96.387,27.600 96.675 C 27.600 96.964,27.420 97.200,27.200 97.200 C 26.980 97.200,26.800 97.560,26.800 98.000 C 26.800 98.440,26.620 98.800,26.400 98.800 C 26.180 98.800,26.000 99.078,26.000 99.417 C 26.000 99.756,25.640 100.420,25.200 100.892 C 24.760 101.364,24.400 101.987,24.400 102.275 C 24.400 102.564,24.220 102.800,24.000 102.800 C 23.780 102.800,23.600 103.160,23.600 103.600 C 23.600 104.040,23.420 104.400,23.200 104.400 C 22.980 104.400,22.800 104.760,22.800 105.200 C 22.800 105.640,22.620 106.000,22.400 106.000 C 22.180 106.000,22.000 106.360,22.000 106.800 C 22.000 107.240,21.820 107.600,21.600 107.600 C 21.380 107.600,21.200 107.960,21.200 108.400 C 21.200 108.840,21.020 109.200,20.800 109.200 C 20.580 109.200,20.400 109.560,20.400 110.000 C 20.400 110.440,20.220 110.800,20.000 110.800 C 19.780 110.800,19.600 111.160,19.600 111.600 C 19.600 112.040,19.420 112.400,19.200 112.400 C 18.980 112.400,18.800 112.760,18.800 113.200 C 18.800 113.640,18.620 114.000,18.400 114.000 C 18.180 114.000,18.000 114.360,18.000 114.800 C 18.000 115.240,17.820 115.600,17.600 115.600 C 17.380 115.600,17.200 115.960,17.200 116.400 C 17.200 116.840,17.020 117.200,16.800 117.200 C 16.580 117.200,16.400 117.549,16.400 117.976 C 16.400 118.403,16.220 118.864,16.000 119.000 C 15.780 119.136,15.600 119.687,15.600 120.224 C 15.600 120.761,15.420 121.200,15.200 121.200 C 14.980 121.200,14.800 121.560,14.800 122.000 C 14.800 122.440,14.620 122.800,14.400 122.800 C 14.180 122.800,14.000 123.340,14.000 124.000 C 14.000 124.660,13.820 125.200,13.600 125.200 C 13.380 125.200,13.200 125.560,13.200 126.000 C 13.200 126.440,13.020 126.800,12.800 126.800 C 12.580 126.800,12.400 127.340,12.400 128.000 C 12.400 128.660,12.220 129.200,12.000 129.200 C 11.780 129.200,11.600 129.560,11.600 130.000 C 11.600 130.440,11.420 130.800,11.200 130.800 C 10.980 130.800,10.800 131.340,10.800 132.000 C 10.800 132.660,10.620 133.200,10.400 133.200 C 10.180 133.200,10.000 133.740,10.000 134.400 C 10.000 135.060,9.820 135.600,9.600 135.600 C 9.380 135.600,9.200 136.140,9.200 136.800 C 9.200 137.460,9.020 138.000,8.800 138.000 C 8.580 138.000,8.400 138.540,8.400 139.200 C 8.400 139.860,8.220 140.400,8.000 140.400 C 7.780 140.400,7.600 141.120,7.600 142.000 C 7.600 142.880,7.420 143.600,7.200 143.600 C 6.980 143.600,6.800 144.129,6.800 144.776 C 6.800 145.423,6.620 146.064,6.400 146.200 C 6.180 146.336,6.000 147.067,6.000 147.824 C 6.000 148.581,5.820 149.200,5.600 149.200 C 5.380 149.200,5.200 149.920,5.200 150.800 C 5.200 151.680,5.020 152.400,4.800 152.400 C 4.580 152.400,4.400 153.109,4.400 153.976 C 4.400 154.843,4.220 155.664,4.000 155.800 C 3.780 155.936,3.600 156.847,3.600 157.824 C 3.600 158.801,3.420 159.600,3.200 159.600 C 2.980 159.600,2.800 160.489,2.800 161.576 C 2.800 162.663,2.620 163.664,2.400 163.800 C 2.180 163.936,2.000 165.027,2.000 166.224 C 2.000 167.421,1.820 168.400,1.600 168.400 C 1.367 168.400,1.200 169.722,1.200 171.567 C 1.200 173.744,1.044 174.785,0.700 174.900 C -0.032 175.144,-0.032 224.856,0.700 225.100 C 1.044 225.215,1.200 226.256,1.200 228.433 C 1.200 230.278,1.367 231.600,1.600 231.600 C 1.820 231.600,2.000 232.579,2.000 233.776 C 2.000 234.973,2.180 236.064,2.400 236.200 C 2.620 236.336,2.800 237.337,2.800 238.424 C 2.800 239.511,2.980 240.400,3.200 240.400 C 3.420 240.400,3.600 241.199,3.600 242.176 C 3.600 243.153,3.780 244.064,4.000 244.200 C 4.220 244.336,4.400 245.157,4.400 246.024 C 4.400 246.891,4.580 247.600,4.800 247.600 C 5.020 247.600,5.200 248.320,5.200 249.200 C 5.200 250.080,5.380 250.800,5.600 250.800 C 5.820 250.800,6.000 251.419,6.000 252.176 C 6.000 252.933,6.180 253.664,6.400 253.800 C 6.620 253.936,6.800 254.577,6.800 255.224 C 6.800 255.871,6.980 256.400,7.200 256.400 C 7.420 256.400,7.600 257.120,7.600 258.000 C 7.600 258.880,7.780 259.600,8.000 259.600 C 8.220 259.600,8.400 260.140,8.400 260.800 C 8.400 261.460,8.580 262.000,8.800 262.000 C 9.020 262.000,9.200 262.540,9.200 263.200 C 9.200 263.860,9.380 264.400,9.600 264.400 C 9.820 264.400,10.000 264.940,10.000 265.600 C 10.000 266.260,10.180 266.800,10.400 266.800 C 10.620 266.800,10.800 267.340,10.800 268.000 C 10.800 268.660,10.980 269.200,11.200 269.200 C 11.420 269.200,11.600 269.560,11.600 270.000 C 11.600 270.440,11.780 270.800,12.000 270.800 C 12.220 270.800,12.400 271.340,12.400 272.000 C 12.400 272.660,12.580 273.200,12.800 273.200 C 13.020 273.200,13.200 273.560,13.200 274.000 C 13.200 274.440,13.380 274.800,13.600 274.800 C 13.820 274.800,14.000 275.340,14.000 276.000 C 14.000 276.660,14.180 277.200,14.400 277.200 C 14.620 277.200,14.800 277.560,14.800 278.000 C 14.800 278.440,14.980 278.800,15.200 278.800 C 15.420 278.800,15.600 279.239,15.600 279.776 C 15.600 280.313,15.780 280.864,16.000 281.000 C 16.220 281.136,16.400 281.597,16.400 282.024 C 16.400 282.451,16.580 282.800,16.800 282.800 C 17.020 282.800,17.200 283.160,17.200 283.600 C 17.200 284.040,17.380 284.400,17.600 284.400 C 17.820 284.400,18.000 284.760,18.000 285.200 C 18.000 285.640,18.180 286.000,18.400 286.000 C 18.620 286.000,18.800 286.360,18.800 286.800 C 18.800 287.240,18.980 287.600,19.200 287.600 C 19.420 287.600,19.600 287.960,19.600 288.400 C 19.600 288.840,19.780 289.200,20.000 289.200 C 20.220 289.200,20.400 289.560,20.400 290.000 C 20.400 290.440,20.580 290.800,20.800 290.800 C 21.020 290.800,21.200 291.160,21.200 291.600 C 21.200 292.040,21.380 292.400,21.600 292.400 C 21.820 292.400,22.000 292.760,22.000 293.200 C 22.000 293.640,22.180 294.000,22.400 294.000 C 22.620 294.000,22.800 294.360,22.800 294.800 C 22.800 295.240,22.980 295.600,23.200 295.600 C 23.420 295.600,23.600 295.960,23.600 296.400 C 23.600 296.840,23.780 297.200,24.000 297.200 C 24.220 297.200,24.400 297.436,24.400 297.725 C 24.400 298.013,24.760 298.636,25.200 299.108 C 25.640 299.580,26.000 300.244,26.000 300.583 C 26.000 300.922,26.180 301.200,26.400 301.200 C 26.620 301.200,26.800 301.560,26.800 302.000 C 26.800 302.440,26.980 302.800,27.200 302.800 C 27.420 302.800,27.600 303.036,27.600 303.325 C 27.600 303.613,27.960 304.236,28.400 304.708 C 28.840 305.180,29.200 305.804,29.200 306.095 C 29.200 306.386,29.560 306.883,30.000 307.200 C 30.440 307.517,30.800 308.057,30.800 308.400 C 30.800 308.743,31.160 309.283,31.600 309.600 C 32.040 309.917,32.400 310.497,32.400 310.888 C 32.400 311.280,32.580 311.600,32.800 311.600 C 33.020 311.600,33.200 311.843,33.200 312.141 C 33.200 312.438,33.740 313.246,34.400 313.937 C 35.060 314.628,35.600 315.425,35.600 315.708 C 35.600 315.991,35.960 316.483,36.400 316.800 C 36.840 317.117,37.200 317.580,37.200 317.829 C 37.200 318.078,37.740 318.846,38.400 319.537 C 39.060 320.228,39.600 320.953,39.600 321.148 C 39.600 321.344,40.320 322.245,41.200 323.152 C 42.080 324.059,42.800 324.995,42.800 325.232 C 42.800 325.469,43.520 326.354,44.400 327.200 C 45.280 328.046,46.000 328.916,46.000 329.134 C 46.000 329.352,47.080 330.627,48.400 331.968 C 49.720 333.308,50.800 334.570,50.800 334.772 C 50.800 335.250,64.750 349.200,65.228 349.200 C 65.430 349.200,66.692 350.280,68.032 351.600 C 69.373 352.920,70.648 354.000,70.866 354.000 C 71.084 354.000,71.954 354.720,72.800 355.600 C 73.646 356.480,74.531 357.200,74.768 357.200 C 75.005 357.200,75.941 357.920,76.848 358.800 C 77.755 359.680,78.656 360.400,78.852 360.400 C 79.047 360.400,79.772 360.940,80.463 361.600 C 81.154 362.260,81.922 362.800,82.171 362.800 C 82.420 362.800,82.883 363.160,83.200 363.600 C 83.517 364.040,84.009 364.400,84.292 364.400 C 84.575 364.400,85.372 364.940,86.063 365.600 C 86.754 366.260,87.562 366.800,87.859 366.800 C 88.157 366.800,88.400 366.980,88.400 367.200 C 88.400 367.420,88.720 367.600,89.112 367.600 C 89.503 367.600,90.083 367.960,90.400 368.400 C 90.717 368.840,91.257 369.200,91.600 369.200 C 91.943 369.200,92.483 369.560,92.800 370.000 C 93.117 370.440,93.614 370.800,93.905 370.800 C 94.196 370.800,94.820 371.160,95.292 371.600 C 95.764 372.040,96.387 372.400,96.675 372.400 C 96.964 372.400,97.200 372.580,97.200 372.800 C 97.200 373.020,97.560 373.200,98.000 373.200 C 98.440 373.200,98.800 373.380,98.800 373.600 C 98.800 373.820,99.078 374.000,99.417 374.000 C 99.756 374.000,100.420 374.360,100.892 374.800 C 101.364 375.240,101.987 375.600,102.275 375.600 C 102.564 375.600,102.800 375.780,102.800 376.000 C 102.800 376.220,103.160 376.400,103.600 376.400 C 104.040 376.400,104.400 376.580,104.400 376.800 C 104.400 377.020,104.760 377.200,105.200 377.200 C 105.640 377.200,106.000 377.380,106.000 377.600 C 106.000 377.820,106.360 378.000,106.800 378.000 C 107.240 378.000,107.600 378.180,107.600 378.400 C 107.600 378.620,107.960 378.800,108.400 378.800 C 108.840 378.800,109.200 378.980,109.200 379.200 C 109.200 379.420,109.560 379.600,110.000 379.600 C 110.440 379.600,110.800 379.780,110.800 380.000 C 110.800 380.220,111.160 380.400,111.600 380.400 C 112.040 380.400,112.400 380.580,112.400 380.800 C 112.400 381.020,112.760 381.200,113.200 381.200 C 113.640 381.200,114.000 381.380,114.000 381.600 C 114.000 381.820,114.360 382.000,114.800 382.000 C 115.240 382.000,115.600 382.180,115.600 382.400 C 115.600 382.620,115.960 382.800,116.400 382.800 C 116.840 382.800,117.200 382.980,117.200 383.200 C 117.200 383.420,117.549 383.600,117.976 383.600 C 118.403 383.600,118.864 383.780,119.000 384.000 C 119.136 384.220,119.687 384.400,120.224 384.400 C 120.761 384.400,121.200 384.580,121.200 384.800 C 121.200 385.020,121.560 385.200,122.000 385.200 C 122.440 385.200,122.800 385.380,122.800 385.600 C 122.800 385.820,123.340 386.000,124.000 386.000 C 124.660 386.000,125.200 386.180,125.200 386.400 C 125.200 386.620,125.560 386.800,126.000 386.800 C 126.440 386.800,126.800 386.980,126.800 387.200 C 126.800 387.420,127.340 387.600,128.000 387.600 C 128.660 387.600,129.200 387.780,129.200 388.000 C 129.200 388.220,129.560 388.400,130.000 388.400 C 130.440 388.400,130.800 388.580,130.800 388.800 C 130.800 389.020,131.340 389.200,132.000 389.200 C 132.660 389.200,133.200 389.380,133.200 389.600 C 133.200 389.820,133.740 390.000,134.400 390.000 C 135.060 390.000,135.600 390.180,135.600 390.400 C 135.600 390.620,136.140 390.800,136.800 390.800 C 137.460 390.800,138.000 390.980,138.000 391.200 C 138.000 391.420,138.540 391.600,139.200 391.600 C 139.860 391.600,140.400 391.780,140.400 392.000 C 140.400 392.220,141.120 392.400,142.000 392.400 C 142.880 392.400,143.600 392.580,143.600 392.800 C 143.600 393.020,144.129 393.200,144.776 393.200 C 145.423 393.200,146.064 393.380,146.200 393.600 C 146.336 393.820,147.067 394.000,147.824 394.000 C 148.581 394.000,149.200 394.180,149.200 394.400 C 149.200 394.620,149.920 394.800,150.800 394.800 C 151.680 394.800,152.400 394.980,152.400 395.200 C 152.400 395.420,153.109 395.600,153.976 395.600 C 154.843 395.600,155.664 395.780,155.800 396.000 C 155.936 396.220,156.847 396.400,157.824 396.400 C 158.801 396.400,159.600 396.580,159.600 396.800 C 159.600 397.020,160.489 397.200,161.576 397.200 C 162.663 397.200,163.664 397.380,163.800 397.600 C 163.936 397.820,165.027 398.000,166.224 398.000 C 167.421 398.000,168.400 398.180,168.400 398.400 C 168.400 398.633,169.722 398.800,171.567 398.800 C 173.744 398.800,174.785 398.956,174.900 399.300 C 175.144 400.032,224.856 400.032,225.100 399.300 C 225.215 398.956,226.256 398.800,228.433 398.800 C 230.278 398.800,231.600 398.633,231.600 398.400 C 231.600 398.180,232.579 398.000,233.776 398.000 C 234.973 398.000,236.064 397.820,236.200 397.600 C 236.336 397.380,237.337 397.200,238.424 397.200 C 239.511 397.200,240.400 397.020,240.400 396.800 C 240.400 396.580,241.199 396.400,242.176 396.400 C 243.153 396.400,244.064 396.220,244.200 396.000 C 244.336 395.780,245.157 395.600,246.024 395.600 C 246.891 395.600,247.600 395.420,247.600 395.200 C 247.600 394.980,248.320 394.800,249.200 394.800 C 250.080 394.800,250.800 394.620,250.800 394.400 C 250.800 394.180,251.419 394.000,252.176 394.000 C 252.933 394.000,253.664 393.820,253.800 393.600 C 253.936 393.380,254.577 393.200,255.224 393.200 C 255.871 393.200,256.400 393.020,256.400 392.800 C 256.400 392.580,257.120 392.400,258.000 392.400 C 258.880 392.400,259.600 392.220,259.600 392.000 C 259.600 391.780,260.140 391.600,260.800 391.600 C 261.460 391.600,262.000 391.420,262.000 391.200 C 262.000 390.980,262.540 390.800,263.200 390.800 C 263.860 390.800,264.400 390.620,264.400 390.400 C 264.400 390.180,264.940 390.000,265.600 390.000 C 266.260 390.000,266.800 389.820,266.800 389.600 C 266.800 389.380,267.340 389.200,268.000 389.200 C 268.660 389.200,269.200 389.020,269.200 388.800 C 269.200 388.580,269.560 388.400,270.000 388.400 C 270.440 388.400,270.800 388.220,270.800 388.000 C 270.800 387.780,271.340 387.600,272.000 387.600 C 272.660 387.600,273.200 387.420,273.200 387.200 C 273.200 386.980,273.560 386.800,274.000 386.800 C 274.440 386.800,274.800 386.620,274.800 386.400 C 274.800 386.180,275.340 386.000,276.000 386.000 C 276.660 386.000,277.200 385.820,277.200 385.600 C 277.200 385.380,277.560 385.200,278.000 385.200 C 278.440 385.200,278.800 385.020,278.800 384.800 C 278.800 384.580,279.239 384.400,279.776 384.400 C 280.313 384.400,280.864 384.220,281.000 384.000 C 281.136 383.780,281.597 383.600,282.024 383.600 C 282.451 383.600,282.800 383.420,282.800 383.200 C 282.800 382.980,283.160 382.800,283.600 382.800 C 284.040 382.800,284.400 382.620,284.400 382.400 C 284.400 382.180,284.760 382.000,285.200 382.000 C 285.640 382.000,286.000 381.820,286.000 381.600 C 286.000 381.380,286.360 381.200,286.800 381.200 C 287.240 381.200,287.600 381.020,287.600 380.800 C 287.600 380.580,287.960 380.400,288.400 380.400 C 288.840 380.400,289.200 380.220,289.200 380.000 C 289.200 379.780,289.560 379.600,290.000 379.600 C 290.440 379.600,290.800 379.420,290.800 379.200 C 290.800 378.980,291.160 378.800,291.600 378.800 C 292.040 378.800,292.400 378.620,292.400 378.400 C 292.400 378.180,292.760 378.000,293.200 378.000 C 293.640 378.000,294.000 377.820,294.000 377.600 C 294.000 377.380,294.360 377.200,294.800 377.200 C 295.240 377.200,295.600 377.020,295.600 376.800 C 295.600 376.580,295.960 376.400,296.400 376.400 C 296.840 376.400,297.200 376.220,297.200 376.000 C 297.200 375.780,297.436 375.600,297.725 375.600 C 298.013 375.600,298.636 375.240,299.108 374.800 C 299.580 374.360,300.244 374.000,300.583 374.000 C 300.922 374.000,301.200 373.820,301.200 373.600 C 301.200 373.380,301.560 373.200,302.000 373.200 C 302.440 373.200,302.800 373.020,302.800 372.800 C 302.800 372.580,303.036 372.400,303.325 372.400 C 303.613 372.400,304.236 372.040,304.708 371.600 C 305.180 371.160,305.804 370.800,306.095 370.800 C 306.386 370.800,306.883 370.440,307.200 370.000 C 307.517 369.560,308.057 369.200,308.400 369.200 C 308.743 369.200,309.283 368.840,309.600 368.400 C 309.917 367.960,310.497 367.600,310.888 367.600 C 311.280 367.600,311.600 367.420,311.600 367.200 C 311.600 366.980,311.843 366.800,312.141 366.800 C 312.438 366.800,313.246 366.260,313.937 365.600 C 314.628 364.940,315.425 364.400,315.708 364.400 C 315.991 364.400,316.483 364.040,316.800 363.600 C 317.117 363.160,317.580 362.800,317.829 362.800 C 318.078 362.800,318.846 362.260,319.537 361.600 C 320.228 360.940,320.953 360.400,321.148 360.400 C 321.344 360.400,322.245 359.680,323.152 358.800 C 324.059 357.920,324.995 357.200,325.232 357.200 C 325.469 357.200,326.354 356.480,327.200 355.600 C 328.046 354.720,328.916 354.000,329.134 354.000 C 329.352 354.000,330.627 352.920,331.968 351.600 C 333.308 350.280,334.570 349.200,334.772 349.200 C 335.250 349.200,349.200 335.250,349.200 334.772 C 349.200 334.570,350.280 333.308,351.600 331.968 C 352.920 330.627,354.000 329.352,354.000 329.134 C 354.000 328.916,354.720 328.046,355.600 327.200 C 356.480 326.354,357.200 325.469,357.200 325.232 C 357.200 324.995,357.920 324.059,358.800 323.152 C 359.680 322.245,360.400 321.344,360.400 321.148 C 360.400 320.953,360.940 320.228,361.600 319.537 C 362.260 318.846,362.800 318.078,362.800 317.829 C 362.800 317.580,363.160 317.117,363.600 316.800 C 364.040 316.483,364.400 315.991,364.400 315.708 C 364.400 315.425,364.940 314.628,365.600 313.937 C 366.260 313.246,366.800 312.438,366.800 312.141 C 366.800 311.843,366.980 311.600,367.200 311.600 C 367.420 311.600,367.600 311.280,367.600 310.888 C 367.600 310.497,367.960 309.917,368.400 309.600 C 368.840 309.283,369.200 308.743,369.200 308.400 C 369.200 308.057,369.560 307.517,370.000 307.200 C 370.440 306.883,370.800 306.386,370.800 306.095 C 370.800 305.804,371.160 305.180,371.600 304.708 C 372.040 304.236,372.400 303.613,372.400 303.325 C 372.400 303.036,372.580 302.800,372.800 302.800 C 373.020 302.800,373.200 302.440,373.200 302.000 C 373.200 301.560,373.380 301.200,373.600 301.200 C 373.820 301.200,374.000 300.922,374.000 300.583 C 374.000 300.244,374.360 299.580,374.800 299.108 C 375.240 298.636,375.600 298.013,375.600 297.725 C 375.600 297.436,375.780 297.200,376.000 297.200 C 376.220 297.200,376.400 296.840,376.400 296.400 C 376.400 295.960,376.580 295.600,376.800 295.600 C 377.020 295.600,377.200 295.240,377.200 294.800 C 377.200 294.360,377.380 294.000,377.600 294.000 C 377.820 294.000,378.000 293.640,378.000 293.200 C 378.000 292.760,378.180 292.400,378.400 292.400 C 378.620 292.400,378.800 292.040,378.800 291.600 C 378.800 291.160,378.980 290.800,379.200 290.800 C 379.420 290.800,379.600 290.440,379.600 290.000 C 379.600 289.560,379.780 289.200,380.000 289.200 C 380.220 289.200,380.400 288.840,380.400 288.400 C 380.400 287.960,380.580 287.600,380.800 287.600 C 381.020 287.600,381.200 287.240,381.200 286.800 C 381.200 286.360,381.380 286.000,381.600 286.000 C 381.820 286.000,382.000 285.640,382.000 285.200 C 382.000 284.760,382.180 284.400,382.400 284.400 C 382.620 284.400,382.800 284.040,382.800 283.600 C 382.800 283.160,382.980 282.800,383.200 282.800 C 383.420 282.800,383.600 282.451,383.600 282.024 C 383.600 281.597,383.780 281.136,384.000 281.000 C 384.220 280.864,384.400 280.313,384.400 279.776 C 384.400 279.239,384.580 278.800,384.800 278.800 C 385.020 278.800,385.200 278.440,385.200 278.000 C 385.200 277.560,385.380 277.200,385.600 277.200 C 385.820 277.200,386.000 276.660,386.000 276.000 C 386.000 275.340,386.180 274.800,386.400 274.800 C 386.620 274.800,386.800 274.440,386.800 274.000 C 386.800 273.560,386.980 273.200,387.200 273.200 C 387.420 273.200,387.600 272.660,387.600 272.000 C 387.600 271.340,387.780 270.800,388.000 270.800 C 388.220 270.800,388.400 270.440,388.400 270.000 C 388.400 269.560,388.580 269.200,388.800 269.200 C 389.020 269.200,389.200 268.660,389.200 268.000 C 389.200 267.340,389.380 266.800,389.600 266.800 C 389.820 266.800,390.000 266.260,390.000 265.600 C 390.000 264.940,390.180 264.400,390.400 264.400 C 390.620 264.400,390.800 263.860,390.800 263.200 C 390.800 262.540,390.980 262.000,391.200 262.000 C 391.420 262.000,391.600 261.460,391.600 260.800 C 391.600 260.140,391.780 259.600,392.000 259.600 C 392.220 259.600,392.400 258.880,392.400 258.000 C 392.400 257.120,392.580 256.400,392.800 256.400 C 393.020 256.400,393.200 255.871,393.200 255.224 C 393.200 254.577,393.380 253.936,393.600 253.800 C 393.820 253.664,394.000 252.933,394.000 252.176 C 394.000 251.419,394.180 250.800,394.400 250.800 C 394.620 250.800,394.800 250.080,394.800 249.200 C 394.800 248.320,394.980 247.600,395.200 247.600 C 395.420 247.600,395.600 246.891,395.600 246.024 C 395.600 245.157,395.780 244.336,396.000 244.200 C 396.220 244.064,396.400 243.153,396.400 242.176 C 396.400 241.199,396.580 240.400,396.800 240.400 C 397.020 240.400,397.200 239.511,397.200 238.424 C 397.200 237.337,397.380 236.336,397.600 236.200 C 397.820 236.064,398.000 234.973,398.000 233.776 C 398.000 232.579,398.180 231.600,398.400 231.600 C 398.633 231.600,398.800 230.278,398.800 228.433 C 398.800 226.256,398.956 225.215,399.300 225.100 C 399.693 224.969,399.800 219.591,399.800 200.000 C 399.800 180.409,399.693 175.031,399.300 174.900 C 398.956 174.785,398.800 173.744,398.800 171.567 C 398.800 169.722,398.633 168.400,398.400 168.400 C 398.180 168.400,398.000 167.421,398.000 166.224 C 398.000 165.027,397.820 163.936,397.600 163.800 C 397.380 163.664,397.200 162.663,397.200 161.576 C 397.200 160.489,397.020 159.600,396.800 159.600 C 396.580 159.600,396.400 158.801,396.400 157.824 C 396.400 156.847,396.220 155.936,396.000 155.800 C 395.780 155.664,395.600 154.843,395.600 153.976 C 395.600 153.109,395.420 152.400,395.200 152.400 C 394.980 152.400,394.800 151.680,394.800 150.800 C 394.800 149.920,394.620 149.200,394.400 149.200 C 394.180 149.200,394.000 148.581,394.000 147.824 C 394.000 147.067,393.820 146.336,393.600 146.200 C 393.380 146.064,393.200 145.423,393.200 144.776 C 393.200 144.129,393.020 143.600,392.800 143.600 C 392.580 143.600,392.400 142.880,392.400 142.000 C 392.400 141.120,392.220 140.400,392.000 140.400 C 391.780 140.400,391.600 139.860,391.600 139.200 C 391.600 138.540,391.420 138.000,391.200 138.000 C 390.980 138.000,390.800 137.460,390.800 136.800 C 390.800 136.140,390.620 135.600,390.400 135.600 C 390.180 135.600,390.000 135.060,390.000 134.400 C 390.000 133.740,389.820 133.200,389.600 133.200 C 389.380 133.200,389.200 132.660,389.200 132.000 C 389.200 131.340,389.020 130.800,388.800 130.800 C 388.580 130.800,388.400 130.440,388.400 130.000 C 388.400 129.560,388.220 129.200,388.000 129.200 C 387.780 129.200,387.600 128.660,387.600 128.000 C 387.600 127.340,387.420 126.800,387.200 126.800 C 386.980 126.800,386.800 126.440,386.800 126.000 C 386.800 125.560,386.620 125.200,386.400 125.200 C 386.180 125.200,386.000 124.660,386.000 124.000 C 386.000 123.340,385.820 122.800,385.600 122.800 C 385.380 122.800,385.200 122.440,385.200 122.000 C 385.200 121.560,385.020 121.200,384.800 121.200 C 384.580 121.200,384.400 120.761,384.400 120.224 C 384.400 119.687,384.220 119.136,384.000 119.000 C 383.780 118.864,383.600 118.403,383.600 117.976 C 383.600 117.549,383.420 117.200,383.200 117.200 C 382.980 117.200,382.800 116.840,382.800 116.400 C 382.800 115.960,382.620 115.600,382.400 115.600 C 382.180 115.600,382.000 115.240,382.000 114.800 C 382.000 114.360,381.820 114.000,381.600 114.000 C 381.380 114.000,381.200 113.640,381.200 113.200 C 381.200 112.760,381.020 112.400,380.800 112.400 C 380.580 112.400,380.400 112.040,380.400 111.600 C 380.400 111.160,380.220 110.800,380.000 110.800 C 379.780 110.800,379.600 110.440,379.600 110.000 C 379.600 109.560,379.420 109.200,379.200 109.200 C 378.980 109.200,378.800 108.840,378.800 108.400 C 378.800 107.960,378.620 107.600,378.400 107.600 C 378.180 107.600,378.000 107.240,378.000 106.800 C 378.000 106.360,377.820 106.000,377.600 106.000 C 377.380 106.000,377.200 105.640,377.200 105.200 C 377.200 104.760,377.020 104.400,376.800 104.400 C 376.580 104.400,376.400 104.040,376.400 103.600 C 376.400 103.160,376.220 102.800,376.000 102.800 C 375.780 102.800,375.600 102.564,375.600 102.275 C 375.600 101.987,375.240 101.364,374.800 100.892 C 374.360 100.420,374.000 99.756,374.000 99.417 C 374.000 99.078,373.820 98.800,373.600 98.800 C 373.380 98.800,373.200 98.440,373.200 98.000 C 373.200 97.560,373.020 97.200,372.800 97.200 C 372.580 97.200,372.400 96.964,372.400 96.675 C 372.400 96.387,372.040 95.764,371.600 95.292 C 371.160 94.820,370.800 94.196,370.800 93.905 C 370.800 93.614,370.440 93.117,370.000 92.800 C 369.560 92.483,369.200 91.943,369.200 91.600 C 369.200 91.257,368.840 90.717,368.400 90.400 C 367.960 90.083,367.600 89.503,367.600 89.112 C 367.600 88.720,367.420 88.400,367.200 88.400 C 366.980 88.400,366.800 88.157,366.800 87.859 C 366.800 87.562,366.260 86.754,365.600 86.063 C 364.940 85.372,364.400 84.575,364.400 84.292 C 364.400 84.009,364.040 83.517,363.600 83.200 C 363.160 82.883,362.800 82.420,362.800 82.171 C 362.800 81.922,362.260 81.154,361.600 80.463 C 360.940 79.772,360.400 79.047,360.400 78.852 C 360.400 78.656,359.680 77.755,358.800 76.848 C 357.920 75.941,357.200 75.005,357.200 74.768 C 357.200 74.531,356.480 73.646,355.600 72.800 C 354.720 71.954,354.000 71.084,354.000 70.866 C 354.000 70.648,352.920 69.373,351.600 68.032 C 350.280 66.692,349.200 65.430,349.200 65.228 C 349.200 64.750,335.250 50.800,334.772 50.800 C 334.570 50.800,333.308 49.720,331.968 48.400 C 330.627 47.080,329.352 46.000,329.134 46.000 C 328.916 46.000,328.046 45.280,327.200 44.400 C 326.354 43.520,325.469 42.800,325.232 42.800 C 324.995 42.800,324.059 42.080,323.152 41.200 C 322.245 40.320,321.344 39.600,321.148 39.600 C 320.953 39.600,320.228 39.060,319.537 38.400 C 318.846 37.740,318.078 37.200,317.829 37.200 C 317.580 37.200,317.117 36.840,316.800 36.400 C 316.483 35.960,315.991 35.600,315.708 35.600 C 315.425 35.600,314.628 35.060,313.937 34.400 C 313.246 33.740,312.438 33.200,312.141 33.200 C 311.843 33.200,311.600 33.020,311.600 32.800 C 311.600 32.580,311.280 32.400,310.888 32.400 C 310.497 32.400,309.917 32.040,309.600 31.600 C 309.283 31.160,308.743 30.800,308.400 30.800 C 308.057 30.800,307.517 30.440,307.200 30.000 C 306.883 29.560,306.386 29.200,306.095 29.200 C 305.804 29.200,305.180 28.840,304.708 28.400 C 304.236 27.960,303.613 27.600,303.325 27.600 C 303.036 27.600,302.800 27.420,302.800 27.200 C 302.800 26.980,302.440 26.800,302.000 26.800 C 301.560 26.800,301.200 26.620,301.200 26.400 C 301.200 26.180,300.922 26.000,300.583 26.000 C 300.244 26.000,299.580 25.640,299.108 25.200 C 298.636 24.760,298.013 24.400,297.725 24.400 C 297.436 24.400,297.200 24.220,297.200 24.000 C 297.200 23.780,296.840 23.600,296.400 23.600 C 295.960 23.600,295.600 23.420,295.600 23.200 C 295.600 22.980,295.240 22.800,294.800 22.800 C 294.360 22.800,294.000 22.620,294.000 22.400 C 294.000 22.180,293.640 22.000,293.200 22.000 C 292.760 22.000,292.400 21.820,292.400 21.600 C 292.400 21.380,292.040 21.200,291.600 21.200 C 291.160 21.200,290.800 21.020,290.800 20.800 C 290.800 20.580,290.440 20.400,290.000 20.400 C 289.560 20.400,289.200 20.220,289.200 20.000 C 289.200 19.780,288.840 19.600,288.400 19.600 C 287.960 19.600,287.600 19.420,287.600 19.200 C 287.600 18.980,287.240 18.800,286.800 18.800 C 286.360 18.800,286.000 18.620,286.000 18.400 C 286.000 18.180,285.640 18.000,285.200 18.000 C 284.760 18.000,284.400 17.820,284.400 17.600 C 284.400 17.380,284.040 17.200,283.600 17.200 C 283.160 17.200,282.800 17.020,282.800 16.800 C 282.800 16.580,282.451 16.400,282.024 16.400 C 281.597 16.400,281.136 16.220,281.000 16.000 C 280.864 15.780,280.313 15.600,279.776 15.600 C 279.239 15.600,278.800 15.420,278.800 15.200 C 278.800 14.980,278.440 14.800,278.000 14.800 C 277.560 14.800,277.200 14.620,277.200 14.400 C 277.200 14.180,276.660 14.000,276.000 14.000 C 275.340 14.000,274.800 13.820,274.800 13.600 C 274.800 13.380,274.440 13.200,274.000 13.200 C 273.560 13.200,273.200 13.020,273.200 12.800 C 273.200 12.580,272.660 12.400,272.000 12.400 C 271.340 12.400,270.800 12.220,270.800 12.000 C 270.800 11.780,270.451 11.600,270.024 11.600 C 269.597 11.600,269.136 11.420,269.000 11.200 C 268.864 10.980,268.313 10.800,267.776 10.800 C 267.239 10.800,266.800 10.620,266.800 10.400 C 266.800 10.180,266.260 10.000,265.600 10.000 C 264.940 10.000,264.400 9.820,264.400 9.600 C 264.400 9.380,263.860 9.200,263.200 9.200 C 262.540 9.200,262.000 9.020,262.000 8.800 C 262.000 8.580,261.460 8.400,260.800 8.400 C 260.140 8.400,259.600 8.220,259.600 8.000 C 259.600 7.780,258.880 7.600,258.000 7.600 C 257.120 7.600,256.400 7.420,256.400 7.200 C 256.400 6.980,255.871 6.800,255.224 6.800 C 254.577 6.800,253.936 6.620,253.800 6.400 C 253.664 6.180,252.933 6.000,252.176 6.000 C 251.419 6.000,250.800 5.820,250.800 5.600 C 250.800 5.380,250.080 5.200,249.200 5.200 C 248.320 5.200,247.600 5.020,247.600 4.800 C 247.600 4.580,246.891 4.400,246.024 4.400 C 245.157 4.400,244.336 4.220,244.200 4.000 C 244.064 3.780,243.153 3.600,242.176 3.600 C 241.199 3.600,240.400 3.420,240.400 3.200 C 240.400 2.980,239.511 2.800,238.424 2.800 C 237.337 2.800,236.336 2.620,236.200 2.400 C 236.064 2.180,234.973 2.000,233.776 2.000 C 232.579 2.000,231.600 1.820,231.600 1.600 C 231.600 1.367,230.278 1.200,228.433 1.200 C 226.304 1.200,225.214 1.041,225.105 0.714 C 224.944 0.233,187.802 -0.118,178.500 0.274 M246.464 59.200 C 249.660 85.860,222.110 118.393,196.333 118.399 C 192.661 118.400,192.800 118.618,192.800 112.857 C 192.800 86.432,214.783 61.783,242.400 57.241 C 246.052 56.641,246.163 56.695,246.464 59.200 M246.400 118.021 C 267.059 120.586,280.644 127.517,291.353 140.955 C 293.657 143.846,293.750 143.594,289.171 146.877 C 272.756 158.647,265.505 172.369,265.432 191.800 C 265.344 214.968,276.422 233.392,296.587 243.616 C 300.427 245.564,300.402 245.507,299.047 249.202 C 294.775 260.852,289.544 271.342,283.510 280.359 C 261.825 312.763,248.345 319.515,223.600 310.366 C 215.456 307.355,213.918 306.832,210.944 306.062 C 198.932 302.949,189.764 303.815,174.400 309.513 C 156.891 316.006,148.921 316.090,139.000 309.885 C 125.534 301.462,106.660 275.491,97.515 252.800 C 94.115 244.364,90.443 233.206,89.485 228.400 C 89.375 227.850,88.831 225.240,88.275 222.600 C 87.330 218.118,87.047 216.333,86.004 208.284 C 84.978 200.365,85.679 183.890,87.404 175.385 C 93.629 144.699,115.270 123.129,144.000 118.975 C 152.764 117.708,160.551 118.808,172.308 122.973 C 174.449 123.731,178.540 125.183,181.400 126.200 C 193.840 130.621,194.462 130.626,206.600 126.401 C 223.418 120.547,225.928 119.774,231.200 118.817 C 238.094 117.566,241.358 117.395,246.400 118.021 " stroke="none" fill="#fcfcfc" fill-rule="evenodd"></path><path id="path2" d="M244.800 57.477 C 245.350 57.589,245.949 57.888,246.130 58.140 C 246.351 58.448,246.407 58.401,246.300 58.000 C 246.209 57.662,245.629 57.372,244.969 57.337 C 243.962 57.282,243.939 57.301,244.800 57.477 M239.911 118.293 C 240.851 118.378,242.291 118.377,243.111 118.291 C 243.930 118.205,243.160 118.136,241.400 118.137 C 239.640 118.139,238.970 118.209,239.911 118.293 M85.714 191.400 C 85.717 192.500,85.795 192.903,85.887 192.295 C 85.979 191.686,85.977 190.786,85.882 190.295 C 85.787 189.803,85.711 190.300,85.714 191.400 M85.714 200.600 C 85.717 201.700,85.795 202.103,85.887 201.495 C 85.979 200.886,85.977 199.986,85.882 199.495 C 85.787 199.003,85.711 199.500,85.714 200.600 " stroke="none" fill="#d4d4d4" fill-rule="evenodd"></path><path id="path3" d="M240.200 58.003 C 239.685 58.226,240.113 58.267,241.400 58.118 C 242.500 57.991,243.475 57.823,243.567 57.744 C 243.914 57.445,240.964 57.672,240.200 58.003 M246.150 62.600 C 246.151 65.020,246.216 65.958,246.296 64.685 C 246.376 63.412,246.375 61.432,246.294 60.285 C 246.214 59.138,246.149 60.180,246.150 62.600 M227.300 62.234 C 226.585 62.546,226.000 62.894,226.000 63.007 C 226.000 63.215,228.806 62.127,229.146 61.787 C 229.486 61.447,228.620 61.657,227.300 62.234 M224.000 64.036 C 223.336 64.579,223.269 64.715,223.800 64.440 C 225.105 63.766,225.828 63.212,225.400 63.215 C 225.180 63.217,224.550 63.586,224.000 64.036 M214.351 70.431 L 212.600 72.062 214.500 70.546 C 215.545 69.713,216.400 68.979,216.400 68.915 C 216.400 68.607,215.963 68.930,214.351 70.431 M245.254 70.800 C 245.219 71.350,245.096 72.250,244.983 72.800 L 244.777 73.800 245.207 72.815 C 245.443 72.274,245.565 71.374,245.478 70.815 L 245.320 69.800 245.254 70.800 M210.778 73.500 L 209.400 75.000 210.900 73.622 C 212.296 72.338,212.584 72.000,212.278 72.000 C 212.212 72.000,211.537 72.675,210.778 73.500 M206.959 77.700 C 205.207 79.721,204.687 80.400,204.890 80.400 C 205.007 80.400,205.767 79.590,206.579 78.600 C 208.081 76.766,208.379 76.063,206.959 77.700 M203.923 81.500 C 202.926 82.662,200.713 86.047,200.861 86.184 C 200.938 86.254,201.843 85.071,202.874 83.556 C 204.738 80.815,205.070 80.163,203.923 81.500 M240.678 85.005 C 240.312 85.772,240.095 86.400,240.196 86.400 C 240.470 86.400,241.684 83.951,241.501 83.768 C 241.414 83.681,241.044 84.238,240.678 85.005 M199.800 88.000 C 199.459 88.660,199.269 89.200,199.379 89.200 C 199.489 89.200,199.859 88.660,200.200 88.000 C 200.541 87.340,200.731 86.800,200.621 86.800 C 200.511 86.800,200.141 87.340,199.800 88.000 M236.755 91.790 C 235.520 93.654,234.666 95.083,234.857 94.965 C 235.487 94.576,239.492 88.399,239.114 88.400 C 239.051 88.400,237.990 89.926,236.755 91.790 M232.500 97.574 C 231.565 98.660,230.800 99.651,230.800 99.775 C 230.800 99.995,232.862 97.727,233.959 96.300 C 235.066 94.862,234.140 95.670,232.500 97.574 M194.629 100.629 C 194.481 101.215,194.438 101.772,194.532 101.866 C 194.627 101.960,194.824 101.558,194.971 100.971 C 195.119 100.385,195.162 99.828,195.068 99.734 C 194.973 99.640,194.776 100.042,194.629 100.629 M227.986 102.700 L 225.800 105.000 228.100 102.814 C 230.237 100.782,230.583 100.400,230.286 100.400 C 230.224 100.400,229.189 101.435,227.986 102.700 M193.693 105.200 C 193.693 105.970,193.775 106.285,193.876 105.900 C 193.976 105.515,193.976 104.885,193.876 104.500 C 193.775 104.115,193.693 104.430,193.693 105.200 M222.800 107.268 C 221.752 108.220,221.501 108.565,222.200 108.095 C 223.304 107.351,225.138 105.577,224.762 105.617 C 224.673 105.626,223.790 106.370,222.800 107.268 M193.293 108.800 C 193.293 109.570,193.375 109.885,193.476 109.500 C 193.576 109.115,193.576 108.485,193.476 108.100 C 193.375 107.715,193.293 108.030,193.293 108.800 M219.144 109.927 C 218.344 110.517,217.354 111.232,216.944 111.515 C 216.535 111.798,216.969 111.627,217.909 111.136 C 218.850 110.644,219.913 109.918,220.271 109.521 C 221.148 108.552,220.879 108.649,219.144 109.927 M192.928 112.800 C 192.928 114.230,193.001 114.815,193.089 114.100 C 193.178 113.385,193.178 112.215,193.089 111.500 C 193.001 110.785,192.928 111.370,192.928 112.800 M212.400 113.800 C 211.850 114.114,211.580 114.372,211.800 114.372 C 212.020 114.372,212.650 114.114,213.200 113.800 C 213.750 113.486,214.020 113.228,213.800 113.228 C 213.580 113.228,212.950 113.486,212.400 113.800 M193.240 116.457 C 193.191 117.746,193.806 118.021,196.533 117.933 L 198.600 117.866 196.216 117.633 C 194.104 117.427,193.800 117.286,193.556 116.400 L 193.280 115.400 193.240 116.457 M201.600 117.200 C 200.233 117.488,200.228 117.495,201.400 117.519 C 202.060 117.533,202.960 117.389,203.400 117.200 C 204.362 116.787,203.564 116.787,201.600 117.200 M233.400 118.815 C 232.644 119.018,233.162 119.054,234.800 118.915 C 236.230 118.793,237.475 118.628,237.567 118.547 C 237.870 118.280,234.622 118.489,233.400 118.815 M245.233 118.547 C 245.325 118.628,246.570 118.793,248.000 118.915 C 249.638 119.054,250.156 119.018,249.400 118.815 C 248.178 118.489,244.930 118.280,245.233 118.547 M149.091 119.089 C 149.801 119.177,151.061 119.179,151.891 119.092 C 152.721 119.005,152.140 118.933,150.600 118.931 C 149.060 118.929,148.381 119.000,149.091 119.089 M142.000 119.607 C 141.379 119.811,141.909 119.851,143.400 119.712 C 144.720 119.589,145.875 119.424,145.967 119.344 C 146.289 119.065,142.988 119.284,142.000 119.607 M155.633 119.344 C 155.725 119.424,156.610 119.596,157.600 119.727 C 158.802 119.886,159.134 119.847,158.600 119.610 C 157.836 119.272,155.286 119.043,155.633 119.344 M138.000 120.406 C 137.578 120.682,137.815 120.723,138.800 120.542 C 140.525 120.225,140.851 119.998,139.567 120.006 C 139.035 120.009,138.330 120.189,138.000 120.406 M161.200 120.400 C 162.568 120.838,163.619 120.838,162.600 120.400 C 162.160 120.211,161.440 120.062,161.000 120.068 C 160.357 120.077,160.396 120.143,161.200 120.400 M225.800 120.400 C 225.296 120.617,225.222 120.744,225.600 120.744 C 225.930 120.744,226.560 120.589,227.000 120.400 C 227.504 120.183,227.578 120.056,227.200 120.056 C 226.870 120.056,226.240 120.211,225.800 120.400 M255.633 120.143 C 255.725 120.221,256.430 120.401,257.200 120.542 C 258.185 120.723,258.422 120.682,258.000 120.406 C 257.458 120.050,255.237 119.803,255.633 120.143 M134.800 121.218 C 134.362 121.515,134.524 121.552,135.400 121.356 C 136.871 121.027,137.190 120.798,136.167 120.806 C 135.745 120.809,135.130 120.995,134.800 121.218 M222.800 121.218 C 222.362 121.515,222.524 121.552,223.400 121.356 C 224.871 121.027,225.190 120.798,224.167 120.806 C 223.745 120.809,223.130 120.995,222.800 121.218 M166.433 121.744 C 166.525 121.823,167.140 122.008,167.800 122.156 C 168.676 122.352,168.838 122.315,168.400 122.018 C 167.860 121.653,166.032 121.398,166.433 121.744 M127.600 123.800 C 127.050 124.114,126.780 124.372,127.000 124.372 C 127.220 124.372,127.850 124.114,128.400 123.800 C 128.950 123.486,129.220 123.228,129.000 123.228 C 128.780 123.228,128.150 123.486,127.600 123.800 M267.772 123.866 C 269.389 124.742,271.600 125.648,271.600 125.435 C 271.600 125.233,267.232 123.192,266.852 123.216 C 266.713 123.225,267.127 123.518,267.772 123.866 M188.200 129.200 C 188.640 129.389,189.270 129.544,189.600 129.544 C 189.978 129.544,189.904 129.417,189.400 129.200 C 188.960 129.011,188.330 128.856,188.000 128.856 C 187.622 128.856,187.696 128.983,188.200 129.200 M196.000 130.000 C 195.208 130.254,195.167 130.320,195.800 130.320 C 196.240 130.320,197.050 130.176,197.600 130.000 C 198.392 129.746,198.433 129.680,197.800 129.680 C 197.360 129.680,196.550 129.824,196.000 130.000 M278.800 129.725 C 278.800 129.824,279.461 130.409,280.268 131.025 C 281.076 131.641,281.611 131.941,281.456 131.691 C 281.140 131.179,278.800 129.447,278.800 129.725 M112.751 132.831 L 111.000 134.462 112.900 132.946 C 113.945 132.113,114.800 131.379,114.800 131.315 C 114.800 131.007,114.363 131.330,112.751 132.831 M284.000 133.987 C 285.210 135.139,287.100 137.010,288.200 138.146 C 289.300 139.281,289.844 139.758,289.409 139.205 C 287.830 137.201,285.759 135.098,283.800 133.512 L 281.800 131.893 284.000 133.987 M107.600 137.400 C 105.961 139.050,104.710 140.400,104.820 140.400 C 104.930 140.400,106.361 139.050,108.000 137.400 C 109.639 135.750,110.890 134.400,110.780 134.400 C 110.670 134.400,109.239 135.750,107.600 137.400 M291.371 142.038 C 292.693 143.885,292.832 143.595,289.600 145.745 C 288.060 146.769,286.800 147.700,286.800 147.815 C 286.800 147.930,288.150 147.113,289.800 146.000 C 293.248 143.674,293.188 143.808,291.571 141.985 L 290.342 140.600 291.371 142.038 M102.326 143.300 C 100.771 145.229,98.854 148.005,99.494 147.400 C 100.138 146.792,104.045 141.600,103.859 141.600 C 103.770 141.600,103.080 142.365,102.326 143.300 M98.308 148.900 C 97.433 150.249,96.648 151.856,97.087 151.400 C 97.648 150.817,99.298 148.000,99.079 148.000 C 98.976 148.000,98.629 148.405,98.308 148.900 M283.591 150.431 L 281.000 152.863 283.700 150.560 C 286.142 148.478,286.626 148.000,286.291 148.000 C 286.232 148.000,285.017 149.094,283.591 150.431 M95.600 153.600 C 95.151 154.480,94.874 155.200,94.984 155.200 C 95.094 155.200,95.551 154.480,96.000 153.600 C 96.449 152.720,96.726 152.000,96.616 152.000 C 96.506 152.000,96.049 152.720,95.600 153.600 M277.745 156.100 C 276.240 157.716,273.822 160.799,273.432 161.600 C 273.272 161.930,273.558 161.660,274.069 161.000 C 274.579 160.340,275.947 158.675,277.109 157.300 C 279.383 154.608,279.709 153.993,277.745 156.100 M93.651 157.380 C 92.477 159.879,92.616 160.256,93.818 157.831 C 94.355 156.748,94.729 155.796,94.649 155.715 C 94.568 155.635,94.119 156.384,93.651 157.380 M272.553 162.900 C 271.176 165.236,271.086 165.435,271.787 164.600 C 272.600 163.632,273.300 162.400,273.038 162.400 C 272.933 162.400,272.715 162.625,272.553 162.900 M270.014 167.173 C 269.384 168.351,268.713 170.220,269.037 169.896 C 269.420 169.514,270.807 166.400,270.595 166.400 C 270.503 166.400,270.242 166.748,270.014 167.173 M88.200 173.200 C 88.048 173.891,88.007 174.541,88.109 174.642 C 88.211 174.744,88.409 174.253,88.550 173.550 C 88.883 171.883,88.560 171.560,88.200 173.200 M87.456 176.484 C 87.321 176.988,87.228 177.850,87.249 178.400 C 87.272 178.989,87.431 178.671,87.636 177.625 C 88.003 175.752,87.873 174.927,87.456 176.484 M265.850 178.850 C 265.517 180.517,265.840 180.840,266.200 179.200 C 266.352 178.509,266.393 177.859,266.291 177.758 C 266.189 177.656,265.991 178.147,265.850 178.850 M86.653 181.636 C 86.514 182.331,86.423 183.553,86.451 184.350 C 86.485 185.330,86.610 184.963,86.835 183.218 C 87.189 180.483,87.077 179.513,86.653 181.636 M265.055 183.055 C 264.913 184.086,264.874 185.008,264.969 185.102 C 265.063 185.196,265.265 184.439,265.418 183.418 C 265.571 182.398,265.610 181.476,265.504 181.371 C 265.398 181.265,265.196 182.023,265.055 183.055 M264.555 192.200 C 264.556 195.060,264.620 196.178,264.697 194.683 C 264.774 193.189,264.774 190.849,264.696 189.483 C 264.618 188.118,264.555 189.340,264.555 192.200 M86.128 190.000 C 86.128 191.430,86.201 192.015,86.289 191.300 C 86.378 190.585,86.378 189.415,86.289 188.700 C 86.201 187.985,86.128 188.570,86.128 190.000 M85.734 196.000 C 85.734 197.650,85.805 198.325,85.891 197.500 C 85.978 196.675,85.978 195.325,85.891 194.500 C 85.805 193.675,85.734 194.350,85.734 196.000 M265.072 201.400 C 265.199 202.500,265.369 203.475,265.451 203.567 C 265.732 203.882,265.520 201.399,265.180 200.400 C 264.951 199.726,264.916 200.051,265.072 201.400 M86.124 202.600 C 86.126 203.920,86.201 204.412,86.290 203.693 C 86.379 202.974,86.377 201.894,86.286 201.293 C 86.195 200.692,86.122 201.280,86.124 202.600 M86.447 208.833 C 86.473 209.805,86.637 211.140,86.811 211.800 C 87.002 212.528,87.041 211.898,86.909 210.200 C 86.661 207.021,86.376 206.176,86.447 208.833 M266.644 209.000 C 266.973 210.471,267.202 210.790,267.194 209.767 C 267.191 209.345,267.005 208.730,266.782 208.400 C 266.485 207.962,266.448 208.124,266.644 209.000 M87.240 215.033 C 87.262 215.675,87.433 216.650,87.620 217.200 C 87.849 217.874,87.884 217.549,87.728 216.200 C 87.469 213.950,87.179 213.259,87.240 215.033 M269.600 216.947 C 269.600 217.380,271.588 221.200,271.813 221.200 C 271.923 221.200,271.539 220.255,270.959 219.100 C 269.843 216.879,269.600 216.494,269.600 216.947 M276.396 227.994 C 277.090 228.871,277.867 229.718,278.123 229.876 C 278.378 230.034,277.893 229.316,277.045 228.281 C 276.197 227.247,275.420 226.400,275.318 226.400 C 275.216 226.400,275.701 227.118,276.396 227.994 M89.668 227.400 C 89.662 227.840,89.811 228.560,90.000 229.000 C 90.438 230.019,90.438 228.968,90.000 227.600 C 89.743 226.796,89.677 226.757,89.668 227.400 M90.406 230.633 C 90.409 231.055,90.595 231.670,90.818 232.000 C 91.115 232.438,91.152 232.276,90.956 231.400 C 90.627 229.929,90.398 229.610,90.406 230.633 M280.000 232.125 C 280.000 232.194,280.578 232.779,281.285 233.425 C 282.423 234.466,282.178 233.830,280.929 232.502 C 280.490 232.035,280.000 231.836,280.000 232.125 M283.600 235.325 C 283.600 235.394,284.185 235.979,284.900 236.625 L 286.200 237.800 285.025 236.500 C 283.930 235.288,283.600 235.016,283.600 235.325 M286.400 237.725 C 286.400 237.824,287.061 238.409,287.868 239.025 C 288.676 239.641,289.211 239.941,289.056 239.691 C 288.740 239.179,286.400 237.447,286.400 237.725 M292.400 242.020 C 293.787 242.961,294.578 243.235,293.600 242.436 C 293.050 241.986,292.420 241.617,292.200 241.615 C 291.980 241.613,292.070 241.796,292.400 242.020 M94.445 243.600 C 94.453 243.930,94.806 244.920,95.229 245.800 C 95.652 246.680,95.886 246.962,95.749 246.426 C 95.373 244.961,94.429 242.914,94.445 243.600 M298.500 245.232 C 298.885 245.456,299.214 245.946,299.232 246.320 C 299.252 246.758,299.337 246.817,299.469 246.487 C 299.709 245.891,298.911 244.794,298.251 244.812 C 298.003 244.819,298.115 245.008,298.500 245.232 M295.850 255.591 C 294.947 257.847,295.087 258.183,296.037 256.042 C 296.466 255.075,296.745 254.212,296.658 254.125 C 296.571 254.038,296.208 254.698,295.850 255.591 M100.000 257.284 C 100.000 257.716,101.215 260.400,101.411 260.400 C 101.521 260.400,101.333 259.734,100.993 258.921 C 100.393 257.486,100.000 256.838,100.000 257.284 M292.865 262.217 C 292.195 263.688,292.323 264.002,293.047 262.665 C 293.386 262.040,293.588 261.454,293.496 261.363 C 293.405 261.271,293.121 261.656,292.865 262.217 M103.400 264.800 C 103.957 265.900,104.503 266.800,104.613 266.800 C 104.723 266.800,104.357 265.900,103.800 264.800 C 103.243 263.700,102.697 262.800,102.587 262.800 C 102.477 262.800,102.843 263.700,103.400 264.800 M289.600 268.800 C 289.151 269.680,288.874 270.400,288.984 270.400 C 289.094 270.400,289.551 269.680,290.000 268.800 C 290.449 267.920,290.726 267.200,290.616 267.200 C 290.506 267.200,290.049 267.920,289.600 268.800 M287.853 272.100 L 287.133 273.400 287.958 272.400 C 288.689 271.513,289.014 270.800,288.686 270.800 C 288.624 270.800,288.249 271.385,287.853 272.100 M107.949 273.000 C 108.165 273.440,108.634 274.160,108.993 274.600 L 109.644 275.400 109.251 274.600 C 109.035 274.160,108.566 273.440,108.207 273.000 L 107.556 272.200 107.949 273.000 M116.012 285.122 C 116.966 286.508,117.936 287.760,118.167 287.903 C 118.641 288.196,115.792 284.129,114.872 283.200 C 114.545 282.870,115.058 283.735,116.012 285.122 M278.625 286.227 C 277.615 287.672,276.972 288.741,277.196 288.602 C 277.672 288.308,280.919 283.600,280.646 283.600 C 280.545 283.600,279.635 284.782,278.625 286.227 M119.653 290.100 C 122.499 293.765,124.400 296.063,124.400 295.837 C 124.400 295.525,118.769 288.400,118.523 288.400 C 118.418 288.400,118.927 289.165,119.653 290.100 M275.375 290.668 C 274.759 291.476,274.459 292.011,274.709 291.856 C 275.221 291.540,276.953 289.200,276.675 289.200 C 276.576 289.200,275.991 289.861,275.375 290.668 M126.772 298.638 C 127.894 299.979,130.204 302.289,131.906 303.771 L 135.000 306.465 132.200 303.828 C 130.660 302.377,128.350 300.067,127.066 298.695 L 124.732 296.200 126.772 298.638 M267.400 300.147 C 265.420 302.205,262.900 304.663,261.800 305.608 C 260.700 306.553,260.160 307.076,260.600 306.769 C 263.272 304.908,271.934 296.389,271.141 296.402 C 271.064 296.404,269.380 298.089,267.400 300.147 M195.500 303.896 C 196.875 303.974,199.125 303.974,200.500 303.896 C 201.875 303.818,200.750 303.754,198.000 303.754 C 195.250 303.754,194.125 303.818,195.500 303.896 M189.200 304.400 C 187.843 304.686,187.837 304.695,189.000 304.707 C 189.660 304.715,190.650 304.576,191.200 304.400 C 192.512 303.980,191.196 303.980,189.200 304.400 M204.800 304.380 C 205.799 304.720,208.282 304.932,207.967 304.651 C 207.875 304.569,206.900 304.399,205.800 304.272 C 204.451 304.116,204.126 304.151,204.800 304.380 M185.400 305.200 C 184.896 305.417,184.822 305.544,185.200 305.544 C 185.530 305.544,186.160 305.389,186.600 305.200 C 187.104 304.983,187.178 304.856,186.800 304.856 C 186.470 304.856,185.840 305.011,185.400 305.200 M209.200 305.182 C 209.530 305.405,210.145 305.591,210.567 305.594 C 211.590 305.602,211.271 305.373,209.800 305.044 C 208.924 304.848,208.762 304.885,209.200 305.182 M182.400 306.000 C 181.576 306.264,181.541 306.326,182.200 306.354 C 182.640 306.373,183.270 306.213,183.600 306.000 C 184.301 305.547,183.814 305.547,182.400 306.000 M212.200 306.000 C 212.640 306.189,213.270 306.344,213.600 306.344 C 213.978 306.344,213.904 306.217,213.400 306.000 C 212.960 305.811,212.330 305.656,212.000 305.656 C 211.622 305.656,211.696 305.783,212.200 306.000 M135.344 306.709 C 135.660 307.221,138.000 308.953,138.000 308.675 C 138.000 308.576,137.339 307.991,136.532 307.375 C 135.724 306.759,135.189 306.459,135.344 306.709 M139.200 309.564 C 139.750 310.014,140.380 310.383,140.600 310.385 C 141.028 310.388,140.305 309.834,139.000 309.160 C 138.469 308.885,138.536 309.021,139.200 309.564 M163.600 312.400 C 162.776 312.664,162.741 312.726,163.400 312.754 C 163.840 312.773,164.470 312.613,164.800 312.400 C 165.501 311.947,165.014 311.947,163.600 312.400 M231.200 312.382 C 231.530 312.605,232.145 312.791,232.567 312.794 C 233.590 312.802,233.271 312.573,231.800 312.244 C 230.924 312.048,230.762 312.085,231.200 312.382 M147.200 313.182 C 147.530 313.405,148.145 313.591,148.567 313.594 C 149.590 313.602,149.271 313.373,147.800 313.044 C 146.924 312.848,146.762 312.885,147.200 313.182 M234.800 313.187 C 235.791 313.517,238.687 313.735,238.367 313.454 C 238.275 313.374,237.210 313.206,236.000 313.081 C 234.580 312.934,234.154 312.971,234.800 313.187 M245.600 313.200 C 244.233 313.488,244.228 313.495,245.400 313.519 C 246.060 313.533,246.960 313.389,247.400 313.200 C 248.362 312.787,247.564 312.787,245.600 313.200 M156.100 313.876 C 156.485 313.976,157.115 313.976,157.500 313.876 C 157.885 313.775,157.570 313.693,156.800 313.693 C 156.030 313.693,155.715 313.775,156.100 313.876 M153.105 314.283 C 153.602 314.379,154.322 314.375,154.705 314.275 C 155.087 314.175,154.680 314.096,153.800 314.101 C 152.920 314.105,152.607 314.187,153.105 314.283 " stroke="none" fill="#cccccc" fill-rule="evenodd"></path><path id="path4" d="M242.100 57.476 C 242.485 57.576,243.115 57.576,243.500 57.476 C 243.885 57.375,243.570 57.293,242.800 57.293 C 242.030 57.293,241.715 57.375,242.100 57.476 M238.600 58.000 C 238.096 58.217,238.022 58.344,238.400 58.344 C 238.730 58.344,239.360 58.189,239.800 58.000 C 240.304 57.783,240.378 57.656,240.000 57.656 C 239.670 57.656,239.040 57.811,238.600 58.000 M246.509 62.400 C 246.509 63.390,246.587 63.795,246.682 63.300 C 246.778 62.805,246.778 61.995,246.682 61.500 C 246.587 61.005,246.509 61.410,246.509 62.400 M221.900 64.629 C 220.405 65.440,220.496 65.778,222.000 65.000 C 222.660 64.659,223.200 64.294,223.200 64.190 C 223.200 63.932,223.157 63.947,221.900 64.629 M245.800 69.600 C 245.646 70.510,245.604 71.338,245.707 71.440 C 245.810 71.543,246.013 70.877,246.160 69.960 C 246.307 69.043,246.348 68.215,246.253 68.120 C 246.158 68.024,245.954 68.690,245.800 69.600 M214.175 70.100 L 213.000 71.400 214.300 70.225 C 215.015 69.579,215.600 68.994,215.600 68.925 C 215.600 68.616,215.270 68.888,214.175 70.100 M209.612 74.188 C 207.979 75.832,206.724 77.230,206.822 77.295 C 206.920 77.360,208.338 76.016,209.972 74.307 C 213.765 70.343,213.513 70.261,209.612 74.188 M245.029 73.829 C 244.881 74.415,244.838 74.972,244.932 75.066 C 245.027 75.160,245.224 74.758,245.371 74.171 C 245.519 73.585,245.562 73.028,245.468 72.934 C 245.373 72.840,245.176 73.242,245.029 73.829 M205.544 78.700 C 204.393 80.089,203.906 80.800,204.104 80.800 C 204.214 80.800,204.786 80.170,205.373 79.400 C 206.463 77.971,206.595 77.432,205.544 78.700 M202.487 82.900 C 201.027 85.056,200.712 85.600,200.920 85.600 C 201.012 85.600,201.744 84.610,202.547 83.400 C 203.351 82.190,203.925 81.200,203.823 81.200 C 203.722 81.200,203.120 81.965,202.487 82.900 M237.055 92.000 C 236.031 93.540,235.278 94.800,235.382 94.800 C 235.485 94.800,236.266 93.765,237.115 92.500 C 238.998 89.699,239.295 89.200,239.082 89.200 C 238.992 89.200,238.080 90.460,237.055 92.000 M233.775 96.668 C 233.159 97.476,232.859 98.011,233.109 97.856 C 233.621 97.540,235.353 95.200,235.075 95.200 C 234.976 95.200,234.391 95.861,233.775 96.668 M194.629 99.029 C 194.481 99.615,194.438 100.172,194.532 100.266 C 194.627 100.360,194.824 99.958,194.971 99.371 C 195.119 98.785,195.162 98.228,195.068 98.134 C 194.973 98.040,194.776 98.442,194.629 99.029 M228.000 102.991 C 225.690 105.407,224.880 106.397,226.200 105.192 C 228.986 102.648,232.601 98.838,232.363 98.696 C 232.274 98.643,230.310 100.576,228.000 102.991 M222.000 108.449 C 220.606 109.671,220.605 109.672,221.888 108.819 C 222.596 108.348,223.282 107.791,223.412 107.581 C 223.797 106.957,223.477 107.154,222.000 108.449 M218.881 110.572 C 217.023 111.885,216.762 112.261,218.331 111.362 C 219.063 110.943,219.850 110.375,220.080 110.100 C 220.671 109.393,220.393 109.502,218.881 110.572 M192.800 117.508 C 192.800 118.424,197.210 118.718,200.600 118.028 C 201.619 117.821,200.716 117.779,198.113 117.911 C 195.133 118.063,193.860 117.981,193.413 117.611 C 193.065 117.322,192.800 117.278,192.800 117.508 M236.800 117.960 C 235.810 118.092,237.790 118.200,241.200 118.200 C 244.860 118.200,246.663 118.089,245.600 117.930 C 243.469 117.610,239.322 117.624,236.800 117.960 M146.833 118.547 C 146.925 118.628,149.340 118.779,152.200 118.882 C 155.223 118.991,156.730 118.939,155.800 118.758 C 154.207 118.447,146.516 118.267,146.833 118.547 M231.200 118.800 C 230.408 119.054,230.367 119.120,231.000 119.120 C 231.440 119.120,232.250 118.976,232.800 118.800 C 233.592 118.546,233.633 118.480,233.000 118.480 C 232.560 118.480,231.750 118.624,231.200 118.800 M250.200 118.800 C 250.860 118.968,251.850 119.105,252.400 119.105 C 253.292 119.105,253.270 119.072,252.200 118.800 C 251.540 118.632,250.550 118.495,250.000 118.495 C 249.108 118.495,249.130 118.528,250.200 118.800 M144.500 119.076 C 144.885 119.176,145.515 119.176,145.900 119.076 C 146.285 118.975,145.970 118.893,145.200 118.893 C 144.430 118.893,144.115 118.975,144.500 119.076 M140.000 119.600 C 139.196 119.857,139.157 119.923,139.800 119.932 C 140.240 119.938,140.960 119.789,141.400 119.600 C 142.419 119.162,141.368 119.162,140.000 119.600 M159.200 119.600 C 159.750 119.776,160.560 119.920,161.000 119.920 C 161.633 119.920,161.592 119.854,160.800 119.600 C 160.250 119.424,159.440 119.280,159.000 119.280 C 158.367 119.280,158.408 119.346,159.200 119.600 M227.400 119.600 C 226.896 119.817,226.822 119.944,227.200 119.944 C 227.530 119.944,228.160 119.789,228.600 119.600 C 229.104 119.383,229.178 119.256,228.800 119.256 C 228.470 119.256,227.840 119.411,227.400 119.600 M255.000 119.600 C 255.440 119.789,256.070 119.944,256.400 119.944 C 256.778 119.944,256.704 119.817,256.200 119.600 C 255.760 119.411,255.130 119.256,254.800 119.256 C 254.422 119.256,254.496 119.383,255.000 119.600 M136.400 120.400 C 135.576 120.664,135.541 120.726,136.200 120.754 C 136.640 120.773,137.270 120.613,137.600 120.400 C 138.301 119.947,137.814 119.947,136.400 120.400 M224.200 120.400 C 223.696 120.617,223.622 120.744,224.000 120.744 C 224.330 120.744,224.960 120.589,225.400 120.400 C 225.904 120.183,225.978 120.056,225.600 120.056 C 225.270 120.056,224.640 120.211,224.200 120.400 M258.600 120.400 C 259.040 120.589,259.670 120.744,260.000 120.744 C 260.378 120.744,260.304 120.617,259.800 120.400 C 259.360 120.211,258.730 120.056,258.400 120.056 C 258.022 120.056,258.096 120.183,258.600 120.400 M189.800 129.200 C 190.240 129.389,190.870 129.544,191.200 129.544 C 191.578 129.544,191.504 129.417,191.000 129.200 C 190.560 129.011,189.930 128.856,189.600 128.856 C 189.222 128.856,189.296 128.983,189.800 129.200 M193.705 129.887 C 194.314 129.979,195.214 129.977,195.705 129.882 C 196.197 129.787,195.700 129.711,194.600 129.714 C 193.500 129.717,193.097 129.795,193.705 129.887 M113.600 131.649 C 112.206 132.871,112.205 132.872,113.488 132.019 C 114.196 131.548,114.882 130.991,115.012 130.781 C 115.397 130.157,115.077 130.354,113.600 131.649 M283.600 132.910 C 283.600 132.971,284.995 134.366,286.700 136.010 L 289.800 139.000 286.810 135.900 C 284.033 133.021,283.600 132.617,283.600 132.910 M109.280 135.256 C 108.115 136.377,107.217 137.350,107.285 137.419 C 107.354 137.487,108.427 136.566,109.670 135.372 C 110.913 134.177,111.810 133.204,111.665 133.209 C 111.519 133.213,110.446 134.135,109.280 135.256 M104.581 140.100 L 103.000 141.800 104.700 140.219 C 106.281 138.748,106.584 138.400,106.281 138.400 C 106.216 138.400,105.451 139.165,104.581 140.100 M291.961 142.154 C 293.114 143.740,293.103 143.765,290.425 145.583 C 289.118 146.470,287.930 147.390,287.784 147.626 C 287.638 147.863,288.737 147.186,290.227 146.123 C 293.448 143.825,293.547 143.623,292.180 142.144 L 291.122 141.000 291.961 142.154 M100.915 144.500 C 99.181 146.767,98.266 148.120,98.609 147.913 C 99.081 147.627,101.737 144.000,101.474 144.000 C 101.377 144.000,101.126 144.225,100.915 144.500 M285.151 149.631 L 283.400 151.262 285.300 149.746 C 286.345 148.913,287.200 148.179,287.200 148.115 C 287.200 147.807,286.763 148.130,285.151 149.631 M97.453 149.700 L 96.733 151.000 97.558 150.000 C 98.289 149.113,98.614 148.400,98.286 148.400 C 98.224 148.400,97.849 148.985,97.453 149.700 M280.189 154.100 L 277.400 157.000 280.300 154.211 C 282.994 151.620,283.383 151.200,283.089 151.200 C 283.028 151.200,281.723 152.505,280.189 154.100 M275.144 159.900 C 273.993 161.289,273.506 162.000,273.704 162.000 C 273.814 162.000,274.386 161.370,274.973 160.600 C 276.063 159.171,276.195 158.632,275.144 159.900 M272.708 163.300 C 271.833 164.649,271.048 166.256,271.487 165.800 C 272.048 165.217,273.698 162.400,273.479 162.400 C 273.376 162.400,273.029 162.805,272.708 163.300 M88.229 171.429 C 88.081 172.015,88.038 172.572,88.132 172.666 C 88.227 172.760,88.424 172.358,88.571 171.771 C 88.719 171.185,88.762 170.628,88.668 170.534 C 88.573 170.440,88.376 170.842,88.229 171.429 M87.450 174.850 C 87.117 176.517,87.440 176.840,87.800 175.200 C 87.952 174.509,87.993 173.859,87.891 173.758 C 87.789 173.656,87.591 174.147,87.450 174.850 M266.649 177.015 C 266.512 177.373,266.415 177.966,266.434 178.333 C 266.453 178.700,266.627 178.469,266.821 177.820 C 267.198 176.558,267.065 175.933,266.649 177.015 M86.640 179.240 C 86.493 180.157,86.452 180.985,86.547 181.080 C 86.642 181.176,86.846 180.510,87.000 179.600 C 87.154 178.690,87.196 177.862,87.093 177.760 C 86.990 177.657,86.787 178.323,86.640 179.240 M265.800 180.800 C 265.648 181.491,265.607 182.141,265.709 182.242 C 265.811 182.344,266.009 181.853,266.150 181.150 C 266.483 179.483,266.160 179.160,265.800 180.800 M85.812 186.212 C 85.655 187.888,85.611 189.344,85.714 189.448 C 85.818 189.551,86.031 188.264,86.188 186.588 C 86.345 184.912,86.389 183.456,86.286 183.352 C 86.182 183.249,85.969 184.536,85.812 186.212 M265.057 185.900 C 264.743 187.796,264.811 197.809,265.147 199.377 C 265.286 200.025,265.400 196.920,265.400 192.477 C 265.400 188.035,265.379 184.400,265.352 184.400 C 265.326 184.400,265.193 185.075,265.057 185.900 M85.630 204.033 C 85.646 205.005,85.812 206.610,85.998 207.600 C 86.243 208.908,86.276 208.470,86.117 206.000 C 85.881 202.348,85.581 201.136,85.630 204.033 M86.495 212.400 C 86.495 212.950,86.632 213.940,86.800 214.600 C 87.072 215.670,87.105 215.692,87.105 214.800 C 87.105 214.250,86.968 213.260,86.800 212.600 C 86.528 211.530,86.495 211.508,86.495 212.400 M87.280 217.800 C 87.280 218.240,87.424 219.050,87.600 219.600 C 87.854 220.392,87.920 220.433,87.920 219.800 C 87.920 219.360,87.776 218.550,87.600 218.000 C 87.346 217.208,87.280 217.167,87.280 217.800 M88.068 222.000 C 88.088 223.039,88.718 224.746,88.732 223.800 C 88.738 223.360,88.589 222.640,88.400 222.200 C 88.189 221.710,88.061 221.632,88.068 222.000 M274.364 224.733 C 274.580 225.136,275.071 225.721,275.455 226.033 C 275.887 226.384,275.790 226.104,275.201 225.300 C 274.151 223.865,273.757 223.598,274.364 224.733 M89.656 229.200 C 89.656 229.530,89.811 230.160,90.000 230.600 C 90.217 231.104,90.344 231.178,90.344 230.800 C 90.344 230.470,90.189 229.840,90.000 229.400 C 89.783 228.896,89.656 228.822,89.656 229.200 M281.000 232.400 C 282.971 234.380,284.673 236.000,284.783 236.000 C 284.893 236.000,283.371 234.380,281.400 232.400 C 279.429 230.420,277.727 228.800,277.617 228.800 C 277.507 228.800,279.029 230.420,281.000 232.400 M285.800 236.768 C 286.240 237.277,287.410 238.226,288.400 238.876 C 290.176 240.044,289.732 239.610,286.600 237.117 C 285.530 236.265,285.265 236.149,285.800 236.768 M103.800 266.400 C 104.141 267.060,104.511 267.600,104.621 267.600 C 104.731 267.600,104.541 267.060,104.200 266.400 C 103.859 265.740,103.489 265.200,103.379 265.200 C 103.269 265.200,103.459 265.740,103.800 266.400 M106.200 270.800 C 106.541 271.460,106.911 272.000,107.021 272.000 C 107.131 272.000,106.941 271.460,106.600 270.800 C 106.259 270.140,105.889 269.600,105.779 269.600 C 105.669 269.600,105.859 270.140,106.200 270.800 M288.614 271.435 C 288.241 272.004,288.005 272.538,288.089 272.622 C 288.173 272.707,288.558 272.241,288.944 271.588 C 289.806 270.128,289.548 270.009,288.614 271.435 M107.800 273.600 C 108.141 274.260,108.511 274.800,108.621 274.800 C 108.731 274.800,108.541 274.260,108.200 273.600 C 107.859 272.940,107.489 272.400,107.379 272.400 C 107.269 272.400,107.459 272.940,107.800 273.600 M116.400 286.400 C 116.870 287.060,117.344 287.600,117.454 287.600 C 117.564 287.600,117.270 287.060,116.800 286.400 C 116.330 285.740,115.856 285.200,115.746 285.200 C 115.636 285.200,115.930 285.740,116.400 286.400 M278.400 287.200 C 277.930 287.860,277.636 288.400,277.746 288.400 C 277.856 288.400,278.330 287.860,278.800 287.200 C 279.270 286.540,279.564 286.000,279.454 286.000 C 279.344 286.000,278.870 286.540,278.400 287.200 M118.575 289.332 C 119.191 290.139,119.776 290.800,119.875 290.800 C 120.153 290.800,118.421 288.460,117.909 288.144 C 117.659 287.989,117.959 288.524,118.575 289.332 M276.175 290.268 C 275.559 291.076,275.259 291.611,275.509 291.456 C 276.021 291.140,277.753 288.800,277.475 288.800 C 277.376 288.800,276.791 289.461,276.175 290.268 M273.355 293.881 C 272.507 294.916,272.022 295.634,272.277 295.476 C 272.821 295.140,275.355 292.000,275.082 292.000 C 274.980 292.000,274.203 292.847,273.355 293.881 M123.200 295.325 C 123.200 295.394,123.785 295.979,124.500 296.625 L 125.800 297.800 124.625 296.500 C 123.530 295.288,123.200 295.016,123.200 295.325 M266.486 301.481 C 263.563 304.456,261.853 306.343,262.686 305.675 C 264.691 304.065,272.539 295.917,271.970 296.035 C 271.876 296.055,269.408 298.505,266.486 301.481 M128.400 300.938 C 130.050 302.655,132.300 304.798,133.400 305.699 C 135.684 307.572,135.017 306.886,129.400 301.589 C 125.573 297.979,125.530 297.951,128.400 300.938 M193.900 304.289 C 194.615 304.378,195.785 304.378,196.500 304.289 C 197.215 304.201,196.630 304.128,195.200 304.128 C 193.770 304.128,193.185 304.201,193.900 304.289 M199.500 304.289 C 200.215 304.378,201.385 304.378,202.100 304.289 C 202.815 304.201,202.230 304.128,200.800 304.128 C 199.370 304.128,198.785 304.201,199.500 304.289 M210.600 306.000 C 211.040 306.189,211.670 306.344,212.000 306.344 C 212.378 306.344,212.304 306.217,211.800 306.000 C 211.360 305.811,210.730 305.656,210.400 305.656 C 210.022 305.656,210.096 305.783,210.600 306.000 M135.967 307.745 C 136.500 308.401,138.000 309.393,138.000 309.089 C 138.000 309.013,137.415 308.522,136.700 307.999 C 135.896 307.410,135.616 307.313,135.967 307.745 M139.000 309.807 C 139.440 310.166,140.160 310.635,140.600 310.851 L 141.400 311.244 140.600 310.593 C 140.160 310.234,139.440 309.765,139.000 309.549 L 138.200 309.156 139.000 309.807 M162.200 313.200 C 161.696 313.417,161.622 313.544,162.000 313.544 C 162.330 313.544,162.960 313.389,163.400 313.200 C 163.904 312.983,163.978 312.856,163.600 312.856 C 163.270 312.856,162.640 313.011,162.200 313.200 M232.800 313.200 C 234.168 313.638,235.219 313.638,234.200 313.200 C 233.760 313.011,233.040 312.862,232.600 312.868 C 231.957 312.877,231.996 312.943,232.800 313.200 M157.600 314.000 C 156.243 314.286,156.237 314.295,157.400 314.307 C 158.060 314.315,159.050 314.176,159.600 314.000 C 160.912 313.580,159.596 313.580,157.600 314.000 M238.895 314.140 C 240.426 314.340,242.585 314.343,243.895 314.146 C 245.895 313.846,245.538 313.799,241.200 313.794 C 236.559 313.788,236.394 313.813,238.895 314.140 " stroke="none" fill="#dcdcdc" fill-rule="evenodd"></path></g></svg>