<svg id="svg" version="1.1" xmlns="http://www.w3.org/2000/svg" xmlns:xlink="http://www.w3.org/1999/xlink" width="400" height="400" viewBox="0, 0, 400,400"><g id="svgg"><path id="path0" d="M178.500 0.274 C 176.465 0.360,174.800 0.603,174.800 0.815 C 174.800 1.030,173.383 1.200,171.600 1.200 C 169.733 1.200,168.400 1.367,168.400 1.600 C 168.400 1.820,167.421 2.000,166.224 2.000 C 165.027 2.000,163.936 2.180,163.800 2.400 C 163.664 2.620,162.663 2.800,161.576 2.800 C 160.489 2.800,159.600 2.980,159.600 3.200 C 159.600 3.420,158.801 3.600,157.824 3.600 C 156.847 3.600,155.936 3.780,155.800 4.000 C 155.664 4.220,154.843 4.400,153.976 4.400 C 153.109 4.400,152.400 4.580,152.400 4.800 C 152.400 5.020,151.680 5.200,150.800 5.200 C 149.920 5.200,149.200 5.380,149.200 5.600 C 149.200 5.820,148.581 6.000,147.824 6.000 C 147.067 6.000,146.336 6.180,146.200 6.400 C 146.064 6.620,145.423 6.800,144.776 6.800 C 144.129 6.800,143.600 6.980,143.600 7.200 C 143.600 7.420,142.880 7.600,142.000 7.600 C 141.120 7.600,140.400 7.780,140.400 8.000 C 140.400 8.220,139.860 8.400,139.200 8.400 C 138.540 8.400,138.000 8.580,138.000 8.800 C 138.000 9.020,137.460 9.200,136.800 9.200 C 136.140 9.200,135.600 9.380,135.600 9.600 C 135.600 9.820,135.060 10.000,134.400 10.000 C 133.740 10.000,133.200 10.180,133.200 10.400 C 133.200 10.620,132.660 10.800,132.000 10.800 C 131.340 10.800,130.800 10.980,130.800 11.200 C 130.800 11.420,130.440 11.600,130.000 11.600 C 129.560 11.600,129.200 11.780,129.200 12.000 C 129.200 12.220,128.660 12.400,128.000 12.400 C 127.340 12.400,126.800 12.580,126.800 12.800 C 126.800 13.020,126.440 13.200,126.000 13.200 C 125.560 13.200,125.200 13.380,125.200 13.600 C 125.200 13.820,124.660 14.000,124.000 14.000 C 123.340 14.000,122.800 14.180,122.800 14.400 C 122.800 14.620,122.440 14.800,122.000 14.800 C 121.560 14.800,121.200 14.980,121.200 15.200 C 121.200 15.420,120.761 15.600,120.224 15.600 C 119.687 15.600,119.136 15.780,119.000 16.000 C 118.864 16.220,118.403 16.400,117.976 16.400 C 117.549 16.400,117.200 16.580,117.200 16.800 C 117.200 17.020,116.840 17.200,116.400 17.200 C 115.960 17.200,115.600 17.380,115.600 17.600 C 115.600 17.820,115.240 18.000,114.800 18.000 C 114.360 18.000,114.000 18.180,114.000 18.400 C 114.000 18.620,113.640 18.800,113.200 18.800 C 112.760 18.800,112.400 18.980,112.400 19.200 C 112.400 19.420,112.040 19.600,111.600 19.600 C 111.160 19.600,110.800 19.780,110.800 20.000 C 110.800 20.220,110.440 20.400,110.000 20.400 C 109.560 20.400,109.200 20.580,109.200 20.800 C 109.200 21.020,108.840 21.200,108.400 21.200 C 107.960 21.200,107.600 21.380,107.600 21.600 C 107.600 21.820,107.240 22.000,106.800 22.000 C 106.360 22.000,106.000 22.180,106.000 22.400 C 106.000 22.620,105.640 22.800,105.200 22.800 C 104.760 22.800,104.400 22.980,104.400 23.200 C 104.400 23.420,104.040 23.600,103.600 23.600 C 103.160 23.600,102.800 23.780,102.800 24.000 C 102.800 24.220,102.480 24.400,102.088 24.400 C 101.697 24.400,101.117 24.760,100.800 25.200 C 100.483 25.640,99.903 26.000,99.512 26.000 C 99.120 26.000,98.800 26.180,98.800 26.400 C 98.800 26.620,98.440 26.800,98.000 26.800 C 97.560 26.800,97.200 26.980,97.200 27.200 C 97.200 27.420,96.964 27.600,96.675 27.600 C 96.387 27.600,95.764 27.960,95.292 28.400 C 94.820 28.840,94.196 29.200,93.905 29.200 C 93.614 29.200,93.117 29.560,92.800 30.000 C 92.483 30.440,91.943 30.800,91.600 30.800 C 91.257 30.800,90.717 31.160,90.400 31.600 C 90.083 32.040,89.503 32.400,89.112 32.400 C 88.720 32.400,88.400 32.580,88.400 32.800 C 88.400 33.020,88.157 33.200,87.859 33.200 C 87.562 33.200,86.754 33.740,86.063 34.400 C 85.372 35.060,84.575 35.600,84.292 35.600 C 84.009 35.600,83.517 35.960,83.200 36.400 C 82.883 36.840,82.420 37.200,82.171 37.200 C 81.922 37.200,81.154 37.740,80.463 38.400 C 79.772 39.060,79.047 39.600,78.852 39.600 C 78.656 39.600,77.755 40.320,76.848 41.200 C 75.941 42.080,75.005 42.800,74.768 42.800 C 74.531 42.800,73.646 43.520,72.800 44.400 C 71.954 45.280,71.084 46.000,70.866 46.000 C 70.648 46.000,69.373 47.080,68.032 48.400 C 66.692 49.720,65.430 50.800,65.228 50.800 C 64.750 50.800,50.800 64.750,50.800 65.228 C 50.800 65.430,49.720 66.692,48.400 68.032 C 47.080 69.373,46.000 70.648,46.000 70.866 C 46.000 71.084,45.280 71.954,44.400 72.800 C 43.520 73.646,42.800 74.531,42.800 74.768 C 42.800 75.005,42.080 75.941,41.200 76.848 C 40.320 77.755,39.600 78.656,39.600 78.852 C 39.600 79.047,39.060 79.772,38.400 80.463 C 37.740 81.154,37.200 81.922,37.200 82.171 C 37.200 82.420,36.840 82.883,36.400 83.200 C 35.960 83.517,35.600 84.009,35.600 84.292 C 35.600 84.575,35.060 85.372,34.400 86.063 C 33.740 86.754,33.200 87.562,33.200 87.859 C 33.200 88.157,33.020 88.400,32.800 88.400 C 32.580 88.400,32.400 88.720,32.400 89.112 C 32.400 89.503,32.040 90.083,31.600 90.400 C 31.160 90.717,30.800 91.257,30.800 91.600 C 30.800 91.943,30.440 92.483,30.000 92.800 C 29.560 93.117,29.200 93.614,29.200 93.905 C 29.200 94.196,28.840 94.820,28.400 95.292 C 27.960 95.764,27.600 96.387,27.600 96.675 C 27.600 96.964,27.420 97.200,27.200 97.200 C 26.980 97.200,26.800 97.560,26.800 98.000 C 26.800 98.440,26.620 98.800,26.400 98.800 C 26.180 98.800,26.000 99.120,26.000 99.512 C 26.000 99.903,25.640 100.483,25.200 100.800 C 24.760 101.117,24.400 101.697,24.400 102.088 C 24.400 102.480,24.220 102.800,24.000 102.800 C 23.780 102.800,23.600 103.160,23.600 103.600 C 23.600 104.040,23.420 104.400,23.200 104.400 C 22.980 104.400,22.800 104.760,22.800 105.200 C 22.800 105.640,22.620 106.000,22.400 106.000 C 22.180 106.000,22.000 106.360,22.000 106.800 C 22.000 107.240,21.820 107.600,21.600 107.600 C 21.380 107.600,21.200 107.960,21.200 108.400 C 21.200 108.840,21.020 109.200,20.800 109.200 C 20.580 109.200,20.400 109.560,20.400 110.000 C 20.400 110.440,20.220 110.800,20.000 110.800 C 19.780 110.800,19.600 111.160,19.600 111.600 C 19.600 112.040,19.420 112.400,19.200 112.400 C 18.980 112.400,18.800 112.760,18.800 113.200 C 18.800 113.640,18.620 114.000,18.400 114.000 C 18.180 114.000,18.000 114.360,18.000 114.800 C 18.000 115.240,17.820 115.600,17.600 115.600 C 17.380 115.600,17.200 115.960,17.200 116.400 C 17.200 116.840,17.020 117.200,16.800 117.200 C 16.580 117.200,16.400 117.549,16.400 117.976 C 16.400 118.403,16.220 118.864,16.000 119.000 C 15.780 119.136,15.600 119.687,15.600 120.224 C 15.600 120.761,15.420 121.200,15.200 121.200 C 14.980 121.200,14.800 121.560,14.800 122.000 C 14.800 122.440,14.620 122.800,14.400 122.800 C 14.180 122.800,14.000 123.340,14.000 124.000 C 14.000 124.660,13.820 125.200,13.600 125.200 C 13.380 125.200,13.200 125.560,13.200 126.000 C 13.200 126.440,13.020 126.800,12.800 126.800 C 12.580 126.800,12.400 127.340,12.400 128.000 C 12.400 128.660,12.220 129.200,12.000 129.200 C 11.780 129.200,11.600 129.560,11.600 130.000 C 11.600 130.440,11.420 130.800,11.200 130.800 C 10.980 130.800,10.800 131.340,10.800 132.000 C 10.800 132.660,10.620 133.200,10.400 133.200 C 10.180 133.200,10.000 133.740,10.000 134.400 C 10.000 135.060,9.820 135.600,9.600 135.600 C 9.380 135.600,9.200 136.140,9.200 136.800 C 9.200 137.460,9.020 138.000,8.800 138.000 C 8.580 138.000,8.400 138.540,8.400 139.200 C 8.400 139.860,8.220 140.400,8.000 140.400 C 7.780 140.400,7.600 141.120,7.600 142.000 C 7.600 142.880,7.420 143.600,7.200 143.600 C 6.980 143.600,6.800 144.129,6.800 144.776 C 6.800 145.423,6.620 146.064,6.400 146.200 C 6.180 146.336,6.000 147.067,6.000 147.824 C 6.000 148.581,5.820 149.200,5.600 149.200 C 5.380 149.200,5.200 149.920,5.200 150.800 C 5.200 151.680,5.020 152.400,4.800 152.400 C 4.580 152.400,4.400 153.109,4.400 153.976 C 4.400 154.843,4.220 155.664,4.000 155.800 C 3.780 155.936,3.600 156.847,3.600 157.824 C 3.600 158.801,3.420 159.600,3.200 159.600 C 2.980 159.600,2.800 160.489,2.800 161.576 C 2.800 162.663,2.620 163.664,2.400 163.800 C 2.180 163.936,2.000 165.027,2.000 166.224 C 2.000 167.421,1.820 168.400,1.600 168.400 C 1.367 168.400,1.200 169.722,1.200 171.567 C 1.200 173.744,1.044 174.785,0.700 174.900 C -0.032 175.144,-0.032 224.856,0.700 225.100 C 1.044 225.215,1.200 226.256,1.200 228.433 C 1.200 230.278,1.367 231.600,1.600 231.600 C 1.820 231.600,2.000 232.579,2.000 233.776 C 2.000 234.973,2.180 236.064,2.400 236.200 C 2.620 236.336,2.800 237.337,2.800 238.424 C 2.800 239.511,2.980 240.400,3.200 240.400 C 3.420 240.400,3.600 241.199,3.600 242.176 C 3.600 243.153,3.780 244.064,4.000 244.200 C 4.220 244.336,4.400 245.157,4.400 246.024 C 4.400 246.891,4.580 247.600,4.800 247.600 C 5.020 247.600,5.200 248.320,5.200 249.200 C 5.200 250.080,5.380 250.800,5.600 250.800 C 5.820 250.800,6.000 251.419,6.000 252.176 C 6.000 252.933,6.180 253.664,6.400 253.800 C 6.620 253.936,6.800 254.577,6.800 255.224 C 6.800 255.871,6.980 256.400,7.200 256.400 C 7.420 256.400,7.600 257.120,7.600 258.000 C 7.600 258.880,7.780 259.600,8.000 259.600 C 8.220 259.600,8.400 260.140,8.400 260.800 C 8.400 261.460,8.580 262.000,8.800 262.000 C 9.020 262.000,9.200 262.540,9.200 263.200 C 9.200 263.860,9.380 264.400,9.600 264.400 C 9.820 264.400,10.000 264.940,10.000 265.600 C 10.000 266.260,10.180 266.800,10.400 266.800 C 10.620 266.800,10.800 267.340,10.800 268.000 C 10.800 268.660,10.980 269.200,11.200 269.200 C 11.420 269.200,11.600 269.560,11.600 270.000 C 11.600 270.440,11.780 270.800,12.000 270.800 C 12.220 270.800,12.400 271.340,12.400 272.000 C 12.400 272.660,12.580 273.200,12.800 273.200 C 13.020 273.200,13.200 273.560,13.200 274.000 C 13.200 274.440,13.380 274.800,13.600 274.800 C 13.820 274.800,14.000 275.340,14.000 276.000 C 14.000 276.660,14.180 277.200,14.400 277.200 C 14.620 277.200,14.800 277.560,14.800 278.000 C 14.800 278.440,14.980 278.800,15.200 278.800 C 15.420 278.800,15.600 279.239,15.600 279.776 C 15.600 280.313,15.780 280.864,16.000 281.000 C 16.220 281.136,16.400 281.597,16.400 282.024 C 16.400 282.451,16.580 282.800,16.800 282.800 C 17.020 282.800,17.200 283.160,17.200 283.600 C 17.200 284.040,17.380 284.400,17.600 284.400 C 17.820 284.400,18.000 284.760,18.000 285.200 C 18.000 285.640,18.180 286.000,18.400 286.000 C 18.620 286.000,18.800 286.360,18.800 286.800 C 18.800 287.240,18.980 287.600,19.200 287.600 C 19.420 287.600,19.600 287.960,19.600 288.400 C 19.600 288.840,19.780 289.200,20.000 289.200 C 20.220 289.200,20.400 289.560,20.400 290.000 C 20.400 290.440,20.580 290.800,20.800 290.800 C 21.020 290.800,21.200 291.160,21.200 291.600 C 21.200 292.040,21.380 292.400,21.600 292.400 C 21.820 292.400,22.000 292.760,22.000 293.200 C 22.000 293.640,22.180 294.000,22.400 294.000 C 22.620 294.000,22.800 294.360,22.800 294.800 C 22.800 295.240,22.980 295.600,23.200 295.600 C 23.420 295.600,23.600 295.960,23.600 296.400 C 23.600 296.840,23.780 297.200,24.000 297.200 C 24.220 297.200,24.400 297.520,24.400 297.912 C 24.400 298.303,24.760 298.883,25.200 299.200 C 25.640 299.517,26.000 300.097,26.000 300.488 C 26.000 300.880,26.180 301.200,26.400 301.200 C 26.620 301.200,26.800 301.560,26.800 302.000 C 26.800 302.440,26.980 302.800,27.200 302.800 C 27.420 302.800,27.600 303.036,27.600 303.325 C 27.600 303.613,27.960 304.236,28.400 304.708 C 28.840 305.180,29.200 305.804,29.200 306.095 C 29.200 306.386,29.560 306.883,30.000 307.200 C 30.440 307.517,30.800 308.057,30.800 308.400 C 30.800 308.743,31.160 309.283,31.600 309.600 C 32.040 309.917,32.400 310.497,32.400 310.888 C 32.400 311.280,32.580 311.600,32.800 311.600 C 33.020 311.600,33.200 311.843,33.200 312.141 C 33.200 312.438,33.740 313.246,34.400 313.937 C 35.060 314.628,35.600 315.425,35.600 315.708 C 35.600 315.991,35.960 316.483,36.400 316.800 C 36.840 317.117,37.200 317.580,37.200 317.829 C 37.200 318.078,37.740 318.846,38.400 319.537 C 39.060 320.228,39.600 320.953,39.600 321.148 C 39.600 321.344,40.320 322.245,41.200 323.152 C 42.080 324.059,42.800 324.995,42.800 325.232 C 42.800 325.469,43.520 326.354,44.400 327.200 C 45.280 328.046,46.000 328.916,46.000 329.134 C 46.000 329.352,47.080 330.627,48.400 331.968 C 49.720 333.308,50.800 334.570,50.800 334.772 C 50.800 335.250,64.750 349.200,65.228 349.200 C 65.430 349.200,66.692 350.280,68.032 351.600 C 69.373 352.920,70.648 354.000,70.866 354.000 C 71.084 354.000,71.954 354.720,72.800 355.600 C 73.646 356.480,74.531 357.200,74.768 357.200 C 75.005 357.200,75.941 357.920,76.848 358.800 C 77.755 359.680,78.656 360.400,78.852 360.400 C 79.047 360.400,79.772 360.940,80.463 361.600 C 81.154 362.260,81.922 362.800,82.171 362.800 C 82.420 362.800,82.883 363.160,83.200 363.600 C 83.517 364.040,84.009 364.400,84.292 364.400 C 84.575 364.400,85.372 364.940,86.063 365.600 C 86.754 366.260,87.562 366.800,87.859 366.800 C 88.157 366.800,88.400 366.980,88.400 367.200 C 88.400 367.420,88.720 367.600,89.112 367.600 C 89.503 367.600,90.083 367.960,90.400 368.400 C 90.717 368.840,91.257 369.200,91.600 369.200 C 91.943 369.200,92.483 369.560,92.800 370.000 C 93.117 370.440,93.614 370.800,93.905 370.800 C 94.196 370.800,94.820 371.160,95.292 371.600 C 95.764 372.040,96.387 372.400,96.675 372.400 C 96.964 372.400,97.200 372.580,97.200 372.800 C 97.200 373.020,97.560 373.200,98.000 373.200 C 98.440 373.200,98.800 373.380,98.800 373.600 C 98.800 373.820,99.120 374.000,99.512 374.000 C 99.903 374.000,100.483 374.360,100.800 374.800 C 101.117 375.240,101.697 375.600,102.088 375.600 C 102.480 375.600,102.800 375.780,102.800 376.000 C 102.800 376.220,103.160 376.400,103.600 376.400 C 104.040 376.400,104.400 376.580,104.400 376.800 C 104.400 377.020,104.760 377.200,105.200 377.200 C 105.640 377.200,106.000 377.380,106.000 377.600 C 106.000 377.820,106.360 378.000,106.800 378.000 C 107.240 378.000,107.600 378.180,107.600 378.400 C 107.600 378.620,107.960 378.800,108.400 378.800 C 108.840 378.800,109.200 378.980,109.200 379.200 C 109.200 379.420,109.560 379.600,110.000 379.600 C 110.440 379.600,110.800 379.780,110.800 380.000 C 110.800 380.220,111.160 380.400,111.600 380.400 C 112.040 380.400,112.400 380.580,112.400 380.800 C 112.400 381.020,112.760 381.200,113.200 381.200 C 113.640 381.200,114.000 381.380,114.000 381.600 C 114.000 381.820,114.360 382.000,114.800 382.000 C 115.240 382.000,115.600 382.180,115.600 382.400 C 115.600 382.620,115.960 382.800,116.400 382.800 C 116.840 382.800,117.200 382.980,117.200 383.200 C 117.200 383.420,117.549 383.600,117.976 383.600 C 118.403 383.600,118.864 383.780,119.000 384.000 C 119.136 384.220,119.687 384.400,120.224 384.400 C 120.761 384.400,121.200 384.580,121.200 384.800 C 121.200 385.020,121.560 385.200,122.000 385.200 C 122.440 385.200,122.800 385.380,122.800 385.600 C 122.800 385.820,123.340 386.000,124.000 386.000 C 124.660 386.000,125.200 386.180,125.200 386.400 C 125.200 386.620,125.560 386.800,126.000 386.800 C 126.440 386.800,126.800 386.980,126.800 387.200 C 126.800 387.420,127.340 387.600,128.000 387.600 C 128.660 387.600,129.200 387.780,129.200 388.000 C 129.200 388.220,129.560 388.400,130.000 388.400 C 130.440 388.400,130.800 388.580,130.800 388.800 C 130.800 389.020,131.340 389.200,132.000 389.200 C 132.660 389.200,133.200 389.380,133.200 389.600 C 133.200 389.820,133.740 390.000,134.400 390.000 C 135.060 390.000,135.600 390.180,135.600 390.400 C 135.600 390.620,136.140 390.800,136.800 390.800 C 137.460 390.800,138.000 390.980,138.000 391.200 C 138.000 391.420,138.540 391.600,139.200 391.600 C 139.860 391.600,140.400 391.780,140.400 392.000 C 140.400 392.220,141.120 392.400,142.000 392.400 C 142.880 392.400,143.600 392.580,143.600 392.800 C 143.600 393.020,144.129 393.200,144.776 393.200 C 145.423 393.200,146.064 393.380,146.200 393.600 C 146.336 393.820,147.067 394.000,147.824 394.000 C 148.581 394.000,149.200 394.180,149.200 394.400 C 149.200 394.620,149.920 394.800,150.800 394.800 C 151.680 394.800,152.400 394.980,152.400 395.200 C 152.400 395.420,153.109 395.600,153.976 395.600 C 154.843 395.600,155.664 395.780,155.800 396.000 C 155.936 396.220,156.847 396.400,157.824 396.400 C 158.801 396.400,159.600 396.580,159.600 396.800 C 159.600 397.020,160.489 397.200,161.576 397.200 C 162.663 397.200,163.664 397.380,163.800 397.600 C 163.936 397.820,165.027 398.000,166.224 398.000 C 167.421 398.000,168.400 398.180,168.400 398.400 C 168.400 398.633,169.722 398.800,171.567 398.800 C 173.744 398.800,174.785 398.956,174.900 399.300 C 175.144 400.032,224.856 400.032,225.100 399.300 C 225.215 398.956,226.256 398.800,228.433 398.800 C 230.278 398.800,231.600 398.633,231.600 398.400 C 231.600 398.180,232.579 398.000,233.776 398.000 C 234.973 398.000,236.064 397.820,236.200 397.600 C 236.336 397.380,237.337 397.200,238.424 397.200 C 239.511 397.200,240.400 397.020,240.400 396.800 C 240.400 396.580,241.199 396.400,242.176 396.400 C 243.153 396.400,244.064 396.220,244.200 396.000 C 244.336 395.780,245.157 395.600,246.024 395.600 C 246.891 395.600,247.600 395.420,247.600 395.200 C 247.600 394.980,248.320 394.800,249.200 394.800 C 250.080 394.800,250.800 394.620,250.800 394.400 C 250.800 394.180,251.419 394.000,252.176 394.000 C 252.933 394.000,253.664 393.820,253.800 393.600 C 253.936 393.380,254.577 393.200,255.224 393.200 C 255.871 393.200,256.400 393.020,256.400 392.800 C 256.400 392.580,257.120 392.400,258.000 392.400 C 258.880 392.400,259.600 392.220,259.600 392.000 C 259.600 391.780,260.140 391.600,260.800 391.600 C 261.460 391.600,262.000 391.420,262.000 391.200 C 262.000 390.980,262.540 390.800,263.200 390.800 C 263.860 390.800,264.400 390.620,264.400 390.400 C 264.400 390.180,264.940 390.000,265.600 390.000 C 266.260 390.000,266.800 389.820,266.800 389.600 C 266.800 389.380,267.340 389.200,268.000 389.200 C 268.660 389.200,269.200 389.020,269.200 388.800 C 269.200 388.580,269.560 388.400,270.000 388.400 C 270.440 388.400,270.800 388.220,270.800 388.000 C 270.800 387.780,271.340 387.600,272.000 387.600 C 272.660 387.600,273.200 387.420,273.200 387.200 C 273.200 386.980,273.560 386.800,274.000 386.800 C 274.440 386.800,274.800 386.620,274.800 386.400 C 274.800 386.180,275.340 386.000,276.000 386.000 C 276.660 386.000,277.200 385.820,277.200 385.600 C 277.200 385.380,277.560 385.200,278.000 385.200 C 278.440 385.200,278.800 385.020,278.800 384.800 C 278.800 384.580,279.239 384.400,279.776 384.400 C 280.313 384.400,280.864 384.220,281.000 384.000 C 281.136 383.780,281.597 383.600,282.024 383.600 C 282.451 383.600,282.800 383.420,282.800 383.200 C 282.800 382.980,283.160 382.800,283.600 382.800 C 284.040 382.800,284.400 382.620,284.400 382.400 C 284.400 382.180,284.760 382.000,285.200 382.000 C 285.640 382.000,286.000 381.820,286.000 381.600 C 286.000 381.380,286.360 381.200,286.800 381.200 C 287.240 381.200,287.600 381.020,287.600 380.800 C 287.600 380.580,287.960 380.400,288.400 380.400 C 288.840 380.400,289.200 380.220,289.200 380.000 C 289.200 379.780,289.560 379.600,290.000 379.600 C 290.440 379.600,290.800 379.420,290.800 379.200 C 290.800 378.980,291.160 378.800,291.600 378.800 C 292.040 378.800,292.400 378.620,292.400 378.400 C 292.400 378.180,292.760 378.000,293.200 378.000 C 293.640 378.000,294.000 377.820,294.000 377.600 C 294.000 377.380,294.360 377.200,294.800 377.200 C 295.240 377.200,295.600 377.020,295.600 376.800 C 295.600 376.580,295.960 376.400,296.400 376.400 C 296.840 376.400,297.200 376.220,297.200 376.000 C 297.200 375.780,297.520 375.600,297.912 375.600 C 298.303 375.600,298.883 375.240,299.200 374.800 C 299.517 374.360,300.097 374.000,300.488 374.000 C 300.880 374.000,301.200 373.820,301.200 373.600 C 301.200 373.380,301.560 373.200,302.000 373.200 C 302.440 373.200,302.800 373.020,302.800 372.800 C 302.800 372.580,303.036 372.400,303.325 372.400 C 303.613 372.400,304.236 372.040,304.708 371.600 C 305.180 371.160,305.804 370.800,306.095 370.800 C 306.386 370.800,306.883 370.440,307.200 370.000 C 307.517 369.560,308.057 369.200,308.400 369.200 C 308.743 369.200,309.283 368.840,309.600 368.400 C 309.917 367.960,310.497 367.600,310.888 367.600 C 311.280 367.600,311.600 367.420,311.600 367.200 C 311.600 366.980,311.843 366.800,312.141 366.800 C 312.438 366.800,313.246 366.260,313.937 365.600 C 314.628 364.940,315.425 364.400,315.708 364.400 C 315.991 364.400,316.483 364.040,316.800 363.600 C 317.117 363.160,317.580 362.800,317.829 362.800 C 318.078 362.800,318.846 362.260,319.537 361.600 C 320.228 360.940,320.953 360.400,321.148 360.400 C 321.344 360.400,322.245 359.680,323.152 358.800 C 324.059 357.920,324.995 357.200,325.232 357.200 C 325.469 357.200,326.354 356.480,327.200 355.600 C 328.046 354.720,328.916 354.000,329.134 354.000 C 329.352 354.000,330.627 352.920,331.968 351.600 C 333.308 350.280,334.570 349.200,334.772 349.200 C 335.250 349.200,349.200 335.250,349.200 334.772 C 349.200 334.570,350.280 333.308,351.600 331.968 C 352.920 330.627,354.000 329.352,354.000 329.134 C 354.000 328.916,354.720 328.046,355.600 327.200 C 356.480 326.354,357.200 325.469,357.200 325.232 C 357.200 324.995,357.920 324.059,358.800 323.152 C 359.680 322.245,360.400 321.344,360.400 321.148 C 360.400 320.953,360.940 320.228,361.600 319.537 C 362.260 318.846,362.800 318.078,362.800 317.829 C 362.800 317.580,363.160 317.117,363.600 316.800 C 364.040 316.483,364.400 315.991,364.400 315.708 C 364.400 315.425,364.940 314.628,365.600 313.937 C 366.260 313.246,366.800 312.438,366.800 312.141 C 366.800 311.843,366.980 311.600,367.200 311.600 C 367.420 311.600,367.600 311.280,367.600 310.888 C 367.600 310.497,367.960 309.917,368.400 309.600 C 368.840 309.283,369.200 308.743,369.200 308.400 C 369.200 308.057,369.560 307.517,370.000 307.200 C 370.440 306.883,370.800 306.386,370.800 306.095 C 370.800 305.804,371.160 305.180,371.600 304.708 C 372.040 304.236,372.400 303.613,372.400 303.325 C 372.400 303.036,372.580 302.800,372.800 302.800 C 373.020 302.800,373.200 302.440,373.200 302.000 C 373.200 301.560,373.380 301.200,373.600 301.200 C 373.820 301.200,374.000 300.880,374.000 300.488 C 374.000 300.097,374.360 299.517,374.800 299.200 C 375.240 298.883,375.600 298.303,375.600 297.912 C 375.600 297.520,375.780 297.200,376.000 297.200 C 376.220 297.200,376.400 296.840,376.400 296.400 C 376.400 295.960,376.580 295.600,376.800 295.600 C 377.020 295.600,377.200 295.240,377.200 294.800 C 377.200 294.360,377.380 294.000,377.600 294.000 C 377.820 294.000,378.000 293.640,378.000 293.200 C 378.000 292.760,378.180 292.400,378.400 292.400 C 378.620 292.400,378.800 292.040,378.800 291.600 C 378.800 291.160,378.980 290.800,379.200 290.800 C 379.420 290.800,379.600 290.440,379.600 290.000 C 379.600 289.560,379.780 289.200,380.000 289.200 C 380.220 289.200,380.400 288.840,380.400 288.400 C 380.400 287.960,380.580 287.600,380.800 287.600 C 381.020 287.600,381.200 287.240,381.200 286.800 C 381.200 286.360,381.380 286.000,381.600 286.000 C 381.820 286.000,382.000 285.640,382.000 285.200 C 382.000 284.760,382.180 284.400,382.400 284.400 C 382.620 284.400,382.800 284.040,382.800 283.600 C 382.800 283.160,382.980 282.800,383.200 282.800 C 383.420 282.800,383.600 282.451,383.600 282.024 C 383.600 281.597,383.780 281.136,384.000 281.000 C 384.220 280.864,384.400 280.313,384.400 279.776 C 384.400 279.239,384.580 278.800,384.800 278.800 C 385.020 278.800,385.200 278.440,385.200 278.000 C 385.200 277.560,385.380 277.200,385.600 277.200 C 385.820 277.200,386.000 276.660,386.000 276.000 C 386.000 275.340,386.180 274.800,386.400 274.800 C 386.620 274.800,386.800 274.440,386.800 274.000 C 386.800 273.560,386.980 273.200,387.200 273.200 C 387.420 273.200,387.600 272.660,387.600 272.000 C 387.600 271.340,387.780 270.800,388.000 270.800 C 388.220 270.800,388.400 270.440,388.400 270.000 C 388.400 269.560,388.580 269.200,388.800 269.200 C 389.020 269.200,389.200 268.660,389.200 268.000 C 389.200 267.340,389.380 266.800,389.600 266.800 C 389.820 266.800,390.000 266.260,390.000 265.600 C 390.000 264.940,390.180 264.400,390.400 264.400 C 390.620 264.400,390.800 263.860,390.800 263.200 C 390.800 262.540,390.980 262.000,391.200 262.000 C 391.420 262.000,391.600 261.460,391.600 260.800 C 391.600 260.140,391.780 259.600,392.000 259.600 C 392.220 259.600,392.400 258.880,392.400 258.000 C 392.400 257.120,392.580 256.400,392.800 256.400 C 393.020 256.400,393.200 255.871,393.200 255.224 C 393.200 254.577,393.380 253.936,393.600 253.800 C 393.820 253.664,394.000 252.933,394.000 252.176 C 394.000 251.419,394.180 250.800,394.400 250.800 C 394.620 250.800,394.800 250.080,394.800 249.200 C 394.800 248.320,394.980 247.600,395.200 247.600 C 395.420 247.600,395.600 246.891,395.600 246.024 C 395.600 245.157,395.780 244.336,396.000 244.200 C 396.220 244.064,396.400 243.153,396.400 242.176 C 396.400 241.199,396.580 240.400,396.800 240.400 C 397.020 240.400,397.200 239.511,397.200 238.424 C 397.200 237.337,397.380 236.336,397.600 236.200 C 397.820 236.064,398.000 234.973,398.000 233.776 C 398.000 232.579,398.180 231.600,398.400 231.600 C 398.633 231.600,398.800 230.278,398.800 228.433 C 398.800 226.256,398.956 225.215,399.300 225.100 C 399.693 224.969,399.800 219.591,399.800 200.000 C 399.800 180.409,399.693 175.031,399.300 174.900 C 398.956 174.785,398.800 173.744,398.800 171.567 C 398.800 169.722,398.633 168.400,398.400 168.400 C 398.180 168.400,398.000 167.421,398.000 166.224 C 398.000 165.027,397.820 163.936,397.600 163.800 C 397.380 163.664,397.200 162.663,397.200 161.576 C 397.200 160.489,397.020 159.600,396.800 159.600 C 396.580 159.600,396.400 158.801,396.400 157.824 C 396.400 156.847,396.220 155.936,396.000 155.800 C 395.780 155.664,395.600 154.843,395.600 153.976 C 395.600 153.109,395.420 152.400,395.200 152.400 C 394.980 152.400,394.800 151.680,394.800 150.800 C 394.800 149.920,394.620 149.200,394.400 149.200 C 394.180 149.200,394.000 148.581,394.000 147.824 C 394.000 147.067,393.820 146.336,393.600 146.200 C 393.380 146.064,393.200 145.423,393.200 144.776 C 393.200 144.129,393.020 143.600,392.800 143.600 C 392.580 143.600,392.400 142.880,392.400 142.000 C 392.400 141.120,392.220 140.400,392.000 140.400 C 391.780 140.400,391.600 139.860,391.600 139.200 C 391.600 138.540,391.420 138.000,391.200 138.000 C 390.980 138.000,390.800 137.460,390.800 136.800 C 390.800 136.140,390.620 135.600,390.400 135.600 C 390.180 135.600,390.000 135.060,390.000 134.400 C 390.000 133.740,389.820 133.200,389.600 133.200 C 389.380 133.200,389.200 132.660,389.200 132.000 C 389.200 131.340,389.020 130.800,388.800 130.800 C 388.580 130.800,388.400 130.440,388.400 130.000 C 388.400 129.560,388.220 129.200,388.000 129.200 C 387.780 129.200,387.600 128.660,387.600 128.000 C 387.600 127.340,387.420 126.800,387.200 126.800 C 386.980 126.800,386.800 126.440,386.800 126.000 C 386.800 125.560,386.620 125.200,386.400 125.200 C 386.180 125.200,386.000 124.660,386.000 124.000 C 386.000 123.340,385.820 122.800,385.600 122.800 C 385.380 122.800,385.200 122.440,385.200 122.000 C 385.200 121.560,385.020 121.200,384.800 121.200 C 384.580 121.200,384.400 120.761,384.400 120.224 C 384.400 119.687,384.220 119.136,384.000 119.000 C 383.780 118.864,383.600 118.403,383.600 117.976 C 383.600 117.549,383.420 117.200,383.200 117.200 C 382.980 117.200,382.800 116.840,382.800 116.400 C 382.800 115.960,382.620 115.600,382.400 115.600 C 382.180 115.600,382.000 115.240,382.000 114.800 C 382.000 114.360,381.820 114.000,381.600 114.000 C 381.380 114.000,381.200 113.640,381.200 113.200 C 381.200 112.760,381.020 112.400,380.800 112.400 C 380.580 112.400,380.400 112.040,380.400 111.600 C 380.400 111.160,380.220 110.800,380.000 110.800 C 379.780 110.800,379.600 110.440,379.600 110.000 C 379.600 109.560,379.420 109.200,379.200 109.200 C 378.980 109.200,378.800 108.840,378.800 108.400 C 378.800 107.960,378.620 107.600,378.400 107.600 C 378.180 107.600,378.000 107.240,378.000 106.800 C 378.000 106.360,377.820 106.000,377.600 106.000 C 377.380 106.000,377.200 105.640,377.200 105.200 C 377.200 104.760,377.020 104.400,376.800 104.400 C 376.580 104.400,376.400 104.040,376.400 103.600 C 376.400 103.160,376.220 102.800,376.000 102.800 C 375.780 102.800,375.600 102.480,375.600 102.088 C 375.600 101.697,375.240 101.117,374.800 100.800 C 374.360 100.483,374.000 99.903,374.000 99.512 C 374.000 99.120,373.820 98.800,373.600 98.800 C 373.380 98.800,373.200 98.440,373.200 98.000 C 373.200 97.560,373.020 97.200,372.800 97.200 C 372.580 97.200,372.400 96.964,372.400 96.675 C 372.400 96.387,372.040 95.764,371.600 95.292 C 371.160 94.820,370.800 94.196,370.800 93.905 C 370.800 93.614,370.440 93.117,370.000 92.800 C 369.560 92.483,369.200 91.943,369.200 91.600 C 369.200 91.257,368.840 90.717,368.400 90.400 C 367.960 90.083,367.600 89.503,367.600 89.112 C 367.600 88.720,367.420 88.400,367.200 88.400 C 366.980 88.400,366.800 88.157,366.800 87.859 C 366.800 87.562,366.260 86.754,365.600 86.063 C 364.940 85.372,364.400 84.575,364.400 84.292 C 364.400 84.009,364.040 83.517,363.600 83.200 C 363.160 82.883,362.800 82.420,362.800 82.171 C 362.800 81.922,362.260 81.154,361.600 80.463 C 360.940 79.772,360.400 79.047,360.400 78.852 C 360.400 78.656,359.680 77.755,358.800 76.848 C 357.920 75.941,357.200 75.005,357.200 74.768 C 357.200 74.531,356.480 73.646,355.600 72.800 C 354.720 71.954,354.000 71.084,354.000 70.866 C 354.000 70.648,352.920 69.373,351.600 68.032 C 350.280 66.692,349.200 65.430,349.200 65.228 C 349.200 64.750,335.250 50.800,334.772 50.800 C 334.570 50.800,333.308 49.720,331.968 48.400 C 330.627 47.080,329.352 46.000,329.134 46.000 C 328.916 46.000,328.046 45.280,327.200 44.400 C 326.354 43.520,325.469 42.800,325.232 42.800 C 324.995 42.800,324.059 42.080,323.152 41.200 C 322.245 40.320,321.344 39.600,321.148 39.600 C 320.953 39.600,320.228 39.060,319.537 38.400 C 318.846 37.740,318.078 37.200,317.829 37.200 C 317.580 37.200,317.117 36.840,316.800 36.400 C 316.483 35.960,315.991 35.600,315.708 35.600 C 315.425 35.600,314.628 35.060,313.937 34.400 C 313.246 33.740,312.438 33.200,312.141 33.200 C 311.843 33.200,311.600 33.020,311.600 32.800 C 311.600 32.580,311.280 32.400,310.888 32.400 C 310.497 32.400,309.917 32.040,309.600 31.600 C 309.283 31.160,308.743 30.800,308.400 30.800 C 308.057 30.800,307.517 30.440,307.200 30.000 C 306.883 29.560,306.386 29.200,306.095 29.200 C 305.804 29.200,305.180 28.840,304.708 28.400 C 304.236 27.960,303.613 27.600,303.325 27.600 C 303.036 27.600,302.800 27.420,302.800 27.200 C 302.800 26.980,302.440 26.800,302.000 26.800 C 301.560 26.800,301.200 26.620,301.200 26.400 C 301.200 26.180,300.880 26.000,300.488 26.000 C 300.097 26.000,299.517 25.640,299.200 25.200 C 298.883 24.760,298.303 24.400,297.912 24.400 C 297.520 24.400,297.200 24.220,297.200 24.000 C 297.200 23.780,296.840 23.600,296.400 23.600 C 295.960 23.600,295.600 23.420,295.600 23.200 C 295.600 22.980,295.240 22.800,294.800 22.800 C 294.360 22.800,294.000 22.620,294.000 22.400 C 294.000 22.180,293.640 22.000,293.200 22.000 C 292.760 22.000,292.400 21.820,292.400 21.600 C 292.400 21.380,292.040 21.200,291.600 21.200 C 291.160 21.200,290.800 21.020,290.800 20.800 C 290.800 20.580,290.440 20.400,290.000 20.400 C 289.560 20.400,289.200 20.220,289.200 20.000 C 289.200 19.780,288.840 19.600,288.400 19.600 C 287.960 19.600,287.600 19.420,287.600 19.200 C 287.600 18.980,287.240 18.800,286.800 18.800 C 286.360 18.800,286.000 18.620,286.000 18.400 C 286.000 18.180,285.640 18.000,285.200 18.000 C 284.760 18.000,284.400 17.820,284.400 17.600 C 284.400 17.380,284.040 17.200,283.600 17.200 C 283.160 17.200,282.800 17.020,282.800 16.800 C 282.800 16.580,282.451 16.400,282.024 16.400 C 281.597 16.400,281.136 16.220,281.000 16.000 C 280.864 15.780,280.313 15.600,279.776 15.600 C 279.239 15.600,278.800 15.420,278.800 15.200 C 278.800 14.980,278.440 14.800,278.000 14.800 C 277.560 14.800,277.200 14.620,277.200 14.400 C 277.200 14.180,276.660 14.000,276.000 14.000 C 275.340 14.000,274.800 13.820,274.800 13.600 C 274.800 13.380,274.440 13.200,274.000 13.200 C 273.560 13.200,273.200 13.020,273.200 12.800 C 273.200 12.580,272.660 12.400,272.000 12.400 C 271.340 12.400,270.800 12.220,270.800 12.000 C 270.800 11.780,270.440 11.600,270.000 11.600 C 269.560 11.600,269.200 11.420,269.200 11.200 C 269.200 10.980,268.660 10.800,268.000 10.800 C 267.340 10.800,266.800 10.620,266.800 10.400 C 266.800 10.180,266.260 10.000,265.600 10.000 C 264.940 10.000,264.400 9.820,264.400 9.600 C 264.400 9.380,263.860 9.200,263.200 9.200 C 262.540 9.200,262.000 9.020,262.000 8.800 C 262.000 8.580,261.460 8.400,260.800 8.400 C 260.140 8.400,259.600 8.220,259.600 8.000 C 259.600 7.780,258.880 7.600,258.000 7.600 C 257.120 7.600,256.400 7.420,256.400 7.200 C 256.400 6.980,255.871 6.800,255.224 6.800 C 254.577 6.800,253.936 6.620,253.800 6.400 C 253.664 6.180,252.933 6.000,252.176 6.000 C 251.419 6.000,250.800 5.820,250.800 5.600 C 250.800 5.380,250.080 5.200,249.200 5.200 C 248.320 5.200,247.600 5.020,247.600 4.800 C 247.600 4.580,246.891 4.400,246.024 4.400 C 245.157 4.400,244.336 4.220,244.200 4.000 C 244.064 3.780,243.153 3.600,242.176 3.600 C 241.199 3.600,240.400 3.420,240.400 3.200 C 240.400 2.980,239.511 2.800,238.424 2.800 C 237.337 2.800,236.336 2.620,236.200 2.400 C 236.064 2.180,234.973 2.000,233.776 2.000 C 232.579 2.000,231.600 1.820,231.600 1.600 C 231.600 1.367,230.278 1.200,228.433 1.200 C 226.304 1.200,225.214 1.041,225.105 0.714 C 224.944 0.233,187.802 -0.118,178.500 0.274 M255.600 115.590 C 256.810 115.844,258.790 116.239,260.000 116.467 C 272.779 118.875,283.535 125.452,289.333 134.400 C 290.917 136.844,291.272 137.513,292.310 140.000 C 294.763 145.877,294.946 153.338,292.831 161.200 C 292.623 161.970,292.337 163.050,292.194 163.600 C 292.050 164.150,291.786 164.960,291.606 165.400 C 291.425 165.840,290.864 167.280,290.357 168.600 C 287.480 176.099,279.771 188.769,274.530 194.613 C 273.439 195.829,270.250 199.602,265.579 205.200 C 263.285 207.950,261.310 210.290,261.191 210.400 C 261.072 210.510,259.090 212.849,256.787 215.598 C 254.484 218.347,252.265 220.957,251.856 221.398 C 239.938 234.239,237.279 242.049,243.615 245.600 C 245.692 246.764,257.099 247.047,262.600 246.071 C 266.484 245.382,272.877 244.127,277.400 243.165 C 278.924 242.841,287.257 240.718,289.800 240.005 C 290.460 239.821,292.080 239.378,293.400 239.022 C 295.923 238.342,300.704 236.944,302.400 236.391 C 302.950 236.211,305.290 235.483,307.600 234.772 C 313.253 233.034,333.087 226.435,338.800 224.393 C 341.330 223.488,344.390 222.414,345.600 222.005 C 346.810 221.597,349.330 220.697,351.200 220.005 C 353.070 219.313,355.373 218.479,356.318 218.151 C 357.264 217.824,358.794 217.234,359.718 216.841 C 360.643 216.448,361.939 215.993,362.598 215.831 L 363.797 215.535 362.798 216.413 C 360.988 218.004,359.441 219.102,356.100 221.163 C 354.285 222.284,351.347 224.100,349.571 225.200 C 347.794 226.300,346.247 227.200,346.132 227.200 C 346.017 227.200,345.446 227.533,344.862 227.939 C 344.278 228.345,342.720 229.271,341.400 229.996 C 340.080 230.720,337.920 231.920,336.600 232.662 C 332.465 234.985,310.786 245.600,310.176 245.600 C 310.092 245.600,309.073 246.034,307.912 246.564 C 291.473 254.071,265.403 262.187,248.200 265.153 C 246.880 265.381,245.260 265.667,244.600 265.788 C 231.958 268.116,218.406 266.619,214.140 262.423 C 211.543 259.869,210.232 253.720,211.558 250.319 C 211.755 249.813,212.148 248.590,212.430 247.600 C 212.713 246.610,213.054 245.620,213.189 245.400 C 213.323 245.180,213.676 244.280,213.973 243.400 C 217.050 234.287,223.611 223.399,230.242 216.400 C 231.806 214.750,233.786 212.590,234.642 211.600 C 235.499 210.610,236.295 209.710,236.411 209.600 C 236.526 209.490,239.585 206.070,243.207 202.000 C 246.830 197.930,249.888 194.510,250.002 194.400 C 250.117 194.290,251.559 192.670,253.206 190.800 C 254.852 188.930,256.293 187.310,256.406 187.200 C 257.441 186.196,263.676 179.047,264.604 177.800 C 265.259 176.920,265.908 176.110,266.044 176.000 C 267.399 174.912,274.125 163.255,275.622 159.400 C 277.146 155.477,277.568 149.290,276.438 147.461 C 272.446 141.003,255.729 133.293,237.298 129.410 C 235.799 129.094,235.719 128.636,238.161 134.388 C 238.953 136.251,239.600 138.077,239.600 138.444 C 239.600 139.225,240.358 139.014,228.400 141.564 C 198.861 147.864,181.431 152.377,162.600 158.599 C 156.220 160.707,148.480 163.163,145.400 164.058 C 138.964 165.927,139.270 165.772,140.136 166.729 C 141.378 168.102,144.801 177.842,144.799 179.997 C 144.799 180.331,141.413 182.904,137.199 185.770 C 133.020 188.613,129.600 191.085,129.600 191.262 C 129.600 191.781,132.666 193.196,134.712 193.620 C 151.024 197.004,167.500 192.594,182.300 180.882 C 186.168 177.821,185.996 178.321,184.000 175.954 C 182.197 173.815,182.114 173.599,183.100 173.602 C 185.395 173.609,190.374 179.193,191.607 183.142 C 192.710 186.677,192.514 194.700,191.315 195.096 C 190.790 195.270,190.722 195.015,189.996 190.201 C 189.510 186.969,188.253 183.004,187.586 182.591 C 187.386 182.468,185.733 183.657,183.911 185.234 C 173.817 193.974,162.746 199.029,152.400 199.621 C 139.500 200.358,138.208 200.257,129.007 197.788 C 124.473 196.571,120.620 195.664,120.445 195.772 C 120.269 195.881,120.007 198.722,119.863 202.085 C 119.719 205.448,119.487 210.900,119.347 214.200 C 119.059 220.976,118.876 221.600,117.181 221.600 C 105.853 221.600,89.520 234.962,90.085 243.766 C 90.571 251.333,93.263 253.504,105.400 256.116 L 113.000 257.751 123.200 257.731 C 133.131 257.711,134.030 257.641,145.400 255.990 C 146.720 255.798,148.160 255.555,148.600 255.449 C 149.040 255.343,150.570 255.050,152.000 254.797 C 156.602 253.985,171.773 250.286,174.800 249.239 C 175.350 249.048,176.610 248.668,177.600 248.393 C 179.246 247.936,182.105 247.057,185.530 245.954 C 186.669 245.588,187.687 245.703,187.167 246.140 C 186.643 246.579,180.807 250.400,180.659 250.400 C 180.561 250.400,179.282 251.129,177.817 252.019 C 174.070 254.295,163.683 259.575,159.400 261.380 C 155.768 262.910,153.668 263.798,152.200 264.422 C 151.399 264.762,142.457 267.694,140.200 268.356 C 139.075 268.686,138.073 268.929,133.600 269.958 C 122.036 272.617,106.669 273.223,97.000 271.399 C 92.740 270.596,91.117 270.221,85.800 268.813 C 81.472 267.666,77.651 265.957,74.904 263.939 C 73.637 263.009,71.610 261.528,70.400 260.648 C 57.850 251.529,54.263 238.706,59.594 222.019 C 60.713 218.515,63.457 212.581,65.614 209.000 C 66.276 207.900,66.936 206.730,67.080 206.400 C 67.863 204.602,74.811 194.820,78.000 191.026 C 89.906 176.859,111.311 159.353,128.000 150.133 C 129.210 149.465,130.875 148.531,131.700 148.059 C 132.525 147.587,133.830 146.840,134.600 146.400 C 135.370 145.960,136.630 145.240,137.400 144.800 C 138.170 144.360,139.412 143.653,140.159 143.230 C 142.289 142.023,154.799 135.739,156.800 134.872 C 157.790 134.442,159.500 133.692,160.600 133.203 C 164.670 131.397,165.451 131.075,170.800 128.997 C 174.477 127.568,185.355 123.848,187.800 123.182 C 189.567 122.701,194.677 121.347,197.200 120.691 C 198.410 120.377,200.480 119.898,201.800 119.627 C 203.120 119.356,204.920 118.979,205.800 118.788 C 208.711 118.156,211.363 117.673,214.400 117.220 C 216.050 116.973,218.480 116.607,219.800 116.405 C 222.844 115.940,229.195 115.212,231.800 115.029 C 235.980 114.736,253.496 115.149,255.600 115.590 " stroke="none" fill="#fbfbfb" fill-rule="evenodd"></path><path id="path1" d="M236.000 115.054 C 232.118 115.181,224.452 115.876,221.200 116.397 C 219.990 116.591,217.650 116.952,216.000 117.200 C 211.640 117.854,208.422 118.404,206.600 118.807 C 205.720 119.002,204.100 119.347,203.000 119.575 C 199.798 120.237,195.606 121.287,188.600 123.179 C 187.940 123.358,185.960 123.976,184.200 124.553 C 182.440 125.130,179.830 125.971,178.400 126.422 C 175.901 127.209,175.419 127.384,173.200 128.310 C 172.650 128.540,170.130 129.537,167.600 130.527 C 165.070 131.516,161.830 132.863,160.400 133.520 C 158.970 134.177,156.900 135.112,155.800 135.599 C 153.526 136.604,142.555 142.099,140.535 143.243 C 139.801 143.660,138.570 144.360,137.800 144.800 C 137.030 145.240,135.770 145.960,135.000 146.400 C 134.230 146.840,132.925 147.587,132.100 148.059 C 131.275 148.531,129.610 149.465,128.400 150.133 C 122.462 153.414,102.124 167.440,100.800 169.167 C 100.690 169.310,100.060 169.842,99.400 170.348 C 81.484 184.093,63.047 208.960,58.879 225.000 C 58.650 225.880,58.248 227.410,57.985 228.400 C 56.961 232.256,57.426 241.907,58.804 245.400 C 58.977 245.840,59.351 246.813,59.634 247.563 C 62.876 256.144,75.095 265.773,86.600 268.814 C 87.260 268.988,88.790 269.392,90.000 269.712 C 92.155 270.281,94.170 270.680,99.800 271.653 C 103.411 272.277,118.794 272.268,123.000 271.640 C 127.482 270.970,130.699 270.414,132.800 269.945 C 136.932 269.024,138.252 268.707,139.200 268.408 C 139.750 268.235,141.010 267.866,142.000 267.589 C 147.093 266.162,154.703 263.330,160.553 260.682 C 166.168 258.142,176.647 252.679,178.862 251.138 C 179.446 250.732,180.037 250.400,180.175 250.400 C 180.544 250.400,186.000 246.764,186.000 246.518 C 186.000 246.207,184.149 246.604,181.000 247.590 C 178.123 248.490,177.898 248.556,172.800 250.009 C 169.157 251.047,161.197 253.098,159.000 253.565 C 152.713 254.902,147.686 255.850,144.000 256.394 C 136.869 257.446,135.445 257.603,128.834 258.063 C 121.830 258.551,113.631 258.186,110.000 257.224 C 109.230 257.020,107.520 256.644,106.200 256.388 C 100.575 255.298,99.731 255.118,98.400 254.730 C 78.118 248.807,85.744 224.625,110.060 217.756 C 112.117 217.175,113.956 216.557,114.146 216.384 C 114.341 216.206,114.173 210.176,113.763 202.637 C 112.917 187.039,112.751 187.731,116.738 190.189 L 119.637 191.976 122.959 190.442 C 128.798 187.744,139.129 178.539,139.186 175.984 C 139.194 175.645,138.013 172.608,136.563 169.235 C 134.388 164.176,134.020 163.018,134.463 162.617 C 135.685 161.513,176.845 150.546,205.174 143.776 C 221.329 139.916,234.762 136.632,235.024 136.479 C 236.345 135.706,232.820 130.039,229.083 126.926 C 226.054 124.403,226.284 124.353,234.273 125.804 C 257.498 130.021,273.267 136.673,276.498 143.614 C 277.882 146.588,277.823 151.251,276.321 157.600 C 275.276 162.014,267.880 174.920,264.400 178.400 C 264.290 178.510,263.215 179.770,262.010 181.200 C 260.806 182.630,259.726 183.890,259.610 184.000 C 259.495 184.110,257.870 185.910,256.000 188.000 C 254.130 190.090,252.510 191.890,252.400 192.000 C 252.290 192.110,250.850 193.730,249.200 195.600 C 247.550 197.470,246.108 199.090,245.994 199.200 C 245.881 199.310,244.441 200.926,242.794 202.792 C 237.803 208.447,236.272 210.124,229.825 217.000 C 229.000 217.880,227.848 219.230,227.265 220.000 C 226.682 220.770,226.099 221.490,225.970 221.600 C 224.301 223.024,218.366 233.414,215.803 239.400 C 210.233 252.410,209.871 257.845,214.281 262.254 C 218.111 266.084,229.997 267.750,241.275 266.036 C 242.884 265.792,245.460 265.400,247.000 265.165 C 248.540 264.931,250.520 264.587,251.400 264.402 C 252.280 264.217,254.080 263.841,255.400 263.568 C 260.783 262.452,272.055 259.456,276.800 257.880 C 278.450 257.331,281.240 256.429,283.000 255.873 C 286.279 254.839,291.572 253.005,293.000 252.409 C 293.440 252.225,295.780 251.308,298.200 250.370 C 300.620 249.432,303.730 248.155,305.110 247.532 C 306.491 246.910,307.700 246.400,307.798 246.400 C 307.896 246.400,309.017 245.933,310.288 245.361 C 323.702 239.335,337.791 232.063,347.800 226.001 C 355.618 221.266,358.971 219.149,360.376 218.063 C 361.133 217.479,361.938 216.875,362.164 216.722 C 362.849 216.260,362.133 215.916,361.339 216.326 C 360.365 216.828,359.075 217.349,356.400 218.322 C 355.190 218.762,353.390 219.429,352.400 219.804 C 351.410 220.179,349.610 220.814,348.400 221.216 C 347.190 221.618,345.120 222.344,343.800 222.831 C 336.770 225.422,320.917 230.779,312.000 233.576 C 309.030 234.508,306.150 235.425,305.600 235.615 C 304.515 235.989,300.983 237.055,298.900 237.637 C 296.465 238.317,294.602 238.845,293.300 239.223 C 290.318 240.088,288.924 240.471,287.600 240.789 C 286.830 240.974,284.400 241.583,282.200 242.144 C 278.534 243.077,277.346 243.355,272.600 244.387 C 255.095 248.194,244.192 248.021,241.039 243.887 C 238.290 240.283,242.736 230.030,250.008 223.200 C 250.125 223.090,251.206 221.830,252.410 220.400 C 253.615 218.970,254.696 217.710,254.813 217.600 C 254.930 217.490,256.909 215.150,259.211 212.400 C 261.513 209.650,263.493 207.310,263.611 207.200 C 263.729 207.090,265.709 204.750,268.011 202.000 C 270.313 199.250,272.290 196.910,272.404 196.800 C 274.163 195.103,280.969 185.932,282.893 182.666 C 285.734 177.841,285.921 177.501,287.547 174.200 C 292.541 164.056,293.776 159.461,293.783 151.000 C 293.801 127.389,272.087 113.881,236.000 115.054 " stroke="none" fill="#f38405" fill-rule="evenodd"></path><path id="path2" d="M228.800 125.733 C 228.800 125.849,229.842 126.937,231.115 128.152 C 233.455 130.383,235.200 133.059,235.200 134.414 C 235.200 134.820,235.380 135.264,235.600 135.400 C 236.850 136.173,235.036 137.600,232.805 137.600 C 232.168 137.600,231.548 137.761,231.426 137.958 C 231.305 138.155,230.439 138.429,229.503 138.567 C 225.345 139.182,224.782 139.305,224.574 139.642 C 224.452 139.839,223.744 140.000,223.000 140.000 C 222.256 140.000,221.548 140.161,221.426 140.358 C 221.305 140.555,220.529 140.814,219.703 140.935 C 216.856 141.351,215.398 141.655,214.600 142.000 C 214.160 142.190,213.260 142.437,212.600 142.548 C 211.940 142.660,210.590 142.953,209.600 143.200 C 208.610 143.447,207.260 143.740,206.600 143.852 C 205.940 143.963,205.040 144.210,204.600 144.400 C 204.160 144.590,203.260 144.837,202.600 144.948 C 201.940 145.060,200.590 145.353,199.600 145.600 C 198.610 145.847,197.260 146.140,196.600 146.252 C 195.940 146.363,195.040 146.610,194.600 146.800 C 193.802 147.145,192.344 147.449,189.497 147.865 C 188.671 147.986,187.895 148.245,187.774 148.442 C 187.652 148.639,186.944 148.800,186.200 148.800 C 185.456 148.800,184.748 148.961,184.626 149.158 C 184.505 149.355,183.729 149.610,182.903 149.725 C 182.076 149.840,180.590 150.144,179.600 150.400 C 178.610 150.656,177.124 150.960,176.297 151.075 C 175.471 151.190,174.695 151.445,174.574 151.642 C 174.452 151.839,173.834 152.000,173.200 152.000 C 172.566 152.000,171.948 152.160,171.827 152.356 C 171.706 152.551,171.021 152.805,170.304 152.919 C 169.587 153.032,168.325 153.322,167.500 153.563 C 166.675 153.803,165.325 154.197,164.500 154.437 C 163.675 154.678,162.413 154.968,161.696 155.081 C 160.979 155.195,160.294 155.449,160.173 155.644 C 160.052 155.840,159.434 156.000,158.800 156.000 C 158.166 156.000,157.536 156.180,157.400 156.400 C 157.264 156.620,156.634 156.800,156.000 156.800 C 155.366 156.800,154.736 156.980,154.600 157.200 C 154.464 157.420,153.834 157.600,153.200 157.600 C 152.566 157.600,151.948 157.760,151.827 157.956 C 151.706 158.151,151.021 158.405,150.304 158.519 C 149.111 158.708,147.945 159.011,144.600 160.000 C 141.255 160.989,140.089 161.292,138.896 161.481 C 138.179 161.595,137.494 161.849,137.373 162.044 C 137.252 162.240,136.634 162.400,136.000 162.400 C 134.641 162.400,134.227 162.893,134.753 163.884 C 134.962 164.278,135.397 165.230,135.719 166.000 C 136.041 166.770,136.596 168.075,136.953 168.900 C 137.309 169.725,137.870 171.030,138.200 171.800 C 138.530 172.570,139.088 173.824,139.439 174.586 L 140.078 175.973 138.339 178.462 C 136.825 180.629,135.587 181.825,130.381 186.153 C 127.066 188.908,123.187 191.213,120.264 192.163 C 119.650 192.363,117.528 191.528,116.800 190.800 C 116.461 190.461,114.093 189.200,113.795 189.200 C 113.640 189.200,113.623 191.315,113.757 193.900 C 114.439 207.052,114.787 212.785,115.014 214.600 C 115.272 216.668,114.475 217.600,112.449 217.600 C 111.763 217.600,109.320 218.337,108.305 218.849 C 107.923 219.042,107.355 219.200,107.043 219.200 C 106.731 219.200,105.694 219.586,104.738 220.057 C 103.782 220.528,102.550 221.108,102.000 221.346 C 96.615 223.675,88.800 232.031,88.800 235.462 C 88.800 235.764,88.642 236.323,88.449 236.705 C 87.254 239.072,86.777 243.609,87.566 245.105 C 87.768 245.487,88.205 246.430,88.539 247.200 C 88.872 247.970,89.725 249.140,90.434 249.800 C 91.143 250.460,91.636 250.820,91.528 250.600 C 88.109 243.608,88.662 239.055,93.605 233.510 C 98.296 228.247,106.333 223.521,113.844 221.608 L 118.200 220.499 118.477 216.749 C 118.629 214.687,118.937 209.056,119.161 204.235 C 119.609 194.621,119.592 194.686,121.600 195.192 C 123.465 195.662,128.448 196.986,131.300 197.769 C 137.972 199.600,137.458 199.555,147.465 199.188 C 154.962 198.912,157.556 198.672,159.600 198.064 C 168.686 195.362,177.931 190.083,184.233 183.998 C 187.678 180.672,189.333 181.980,190.449 188.912 C 191.094 192.917,191.919 192.748,191.967 188.600 C 192.022 183.911,189.411 178.429,185.949 175.964 C 184.379 174.846,184.112 175.196,185.384 176.708 C 186.702 178.274,186.833 177.995,183.500 180.717 C 173.973 188.498,165.220 192.577,153.376 194.754 C 150.297 195.320,139.747 195.334,137.277 194.775 C 126.638 192.368,126.609 192.091,136.318 185.589 C 142.713 181.306,143.819 180.417,143.928 179.470 C 144.146 177.595,141.364 169.535,139.738 167.327 C 138.528 165.684,138.556 165.269,139.900 164.972 C 142.846 164.319,150.292 162.019,161.200 158.390 C 166.370 156.670,173.840 154.350,177.800 153.234 C 181.760 152.119,185.540 151.041,186.200 150.838 C 188.070 150.264,207.803 145.456,212.600 144.406 C 213.480 144.214,215.100 143.851,216.200 143.600 C 217.300 143.349,218.920 142.989,219.800 142.800 C 220.680 142.611,222.210 142.271,223.200 142.044 C 224.190 141.818,226.800 141.260,229.000 140.804 C 231.200 140.349,233.651 139.802,234.446 139.588 C 235.242 139.375,236.175 139.200,236.520 139.200 C 236.866 139.200,237.599 139.029,238.150 138.819 L 239.153 138.438 237.734 134.919 C 236.954 132.984,236.049 130.884,235.724 130.254 C 234.780 128.426,235.497 128.336,240.611 129.638 C 257.957 134.058,268.206 138.440,274.082 143.948 C 277.093 146.772,277.746 146.448,275.664 143.165 C 273.906 140.393,270.740 137.906,266.070 135.628 C 263.722 134.482,261.487 133.377,261.105 133.172 C 260.723 132.968,260.059 132.800,259.629 132.800 C 259.199 132.800,258.736 132.620,258.600 132.400 C 258.464 132.180,257.924 132.000,257.400 132.000 C 256.876 132.000,256.336 131.820,256.200 131.600 C 256.064 131.380,255.524 131.200,255.000 131.200 C 254.476 131.200,253.936 131.020,253.800 130.800 C 253.664 130.580,253.034 130.400,252.400 130.400 C 251.766 130.400,251.136 130.220,251.000 130.000 C 250.864 129.780,250.144 129.600,249.400 129.600 C 248.656 129.600,247.948 129.439,247.826 129.242 C 247.705 129.045,246.884 128.775,246.003 128.642 C 245.121 128.509,243.679 128.291,242.797 128.158 C 241.916 128.025,241.095 127.755,240.974 127.558 C 240.852 127.361,239.989 127.200,239.056 127.200 C 238.123 127.200,237.189 127.037,236.980 126.839 C 236.771 126.640,235.700 126.365,234.600 126.228 C 229.599 125.604,228.800 125.536,228.800 125.733 " stroke="none" fill="#0e0d0b" fill-rule="evenodd"></path><path id="path3" d="M227.200 125.200 C 227.200 125.420,227.347 125.600,227.527 125.600 C 228.309 125.600,233.282 131.097,234.182 132.956 C 234.726 134.080,235.177 134.702,235.185 134.338 C 235.213 133.076,233.419 130.349,231.115 128.152 C 228.350 125.514,228.373 125.612,230.500 125.554 L 232.200 125.508 230.600 125.177 C 228.387 124.719,227.200 124.727,227.200 125.200 M232.800 126.000 C 233.130 126.213,234.120 126.369,235.000 126.347 C 236.541 126.307,236.556 126.294,235.400 126.000 C 233.532 125.525,232.064 125.525,232.800 126.000 M237.000 126.800 C 237.136 127.020,238.002 127.179,238.924 127.153 C 240.507 127.108,240.533 127.088,239.400 126.800 C 237.625 126.348,236.721 126.348,237.000 126.800 M240.974 127.558 C 241.095 127.755,241.871 128.018,242.697 128.142 C 246.879 128.774,247.262 128.745,244.600 128.001 C 241.485 127.130,240.646 127.028,240.974 127.558 M235.402 128.797 C 235.267 129.015,235.360 129.510,235.609 129.897 C 236.024 130.543,236.041 130.538,235.817 129.832 C 235.679 129.397,235.796 128.923,236.086 128.738 C 236.452 128.506,236.463 128.410,236.124 128.406 C 235.862 128.403,235.537 128.579,235.402 128.797 M247.800 129.200 C 247.936 129.420,248.622 129.582,249.324 129.560 C 250.543 129.522,250.555 129.506,249.600 129.200 C 248.164 128.740,247.516 128.740,247.800 129.200 M251.000 130.000 C 251.136 130.220,251.732 130.387,252.324 130.372 C 253.285 130.347,253.314 130.307,252.600 130.000 C 251.489 129.522,250.705 129.522,251.000 130.000 M253.800 130.800 C 253.936 131.020,254.476 131.200,255.000 131.200 C 255.524 131.200,256.064 131.380,256.200 131.600 C 256.336 131.820,256.851 132.000,257.344 132.000 C 257.837 132.000,258.437 132.197,258.678 132.438 C 258.918 132.678,259.449 132.805,259.858 132.718 C 260.286 132.628,259.247 132.105,257.399 131.481 C 253.877 130.292,253.434 130.208,253.800 130.800 M260.974 133.157 C 261.124 133.401,261.446 133.600,261.689 133.600 C 264.349 133.600,273.624 139.948,275.664 143.165 C 277.124 145.468,277.262 146.920,275.911 145.762 C 275.347 145.279,275.456 145.526,276.211 146.438 C 277.661 148.191,277.612 148.219,277.176 145.885 C 276.443 141.958,273.122 138.663,266.484 135.276 C 262.202 133.091,260.537 132.451,260.974 133.157 M235.317 135.727 C 235.514 136.241,235.157 136.512,233.685 136.965 C 232.216 137.416,232.038 137.550,232.881 137.572 C 235.075 137.629,236.832 136.161,235.532 135.358 C 235.218 135.164,235.147 135.286,235.317 135.727 M227.600 138.428 C 225.736 138.966,225.453 139.121,226.600 138.974 C 230.188 138.515,231.216 138.299,231.426 137.958 C 231.751 137.432,230.531 137.582,227.600 138.428 M222.800 139.600 C 221.845 139.906,221.857 139.922,223.076 139.960 C 223.778 139.982,224.464 139.820,224.600 139.600 C 224.884 139.140,224.236 139.140,222.800 139.600 M234.600 139.600 C 234.096 139.817,234.022 139.944,234.400 139.944 C 234.730 139.944,235.360 139.789,235.800 139.600 C 236.304 139.383,236.378 139.256,236.000 139.256 C 235.670 139.256,235.040 139.411,234.600 139.600 M217.600 140.828 C 215.736 141.366,215.453 141.521,216.600 141.374 C 220.188 140.915,221.216 140.699,221.426 140.358 C 221.751 139.832,220.531 139.982,217.600 140.828 M212.800 142.000 C 211.845 142.306,211.857 142.322,213.076 142.360 C 213.778 142.382,214.464 142.220,214.600 142.000 C 214.884 141.540,214.236 141.540,212.800 142.000 M223.400 142.000 C 222.896 142.217,222.822 142.344,223.200 142.344 C 223.530 142.344,224.160 142.189,224.600 142.000 C 225.104 141.783,225.178 141.656,224.800 141.656 C 224.470 141.656,223.840 141.811,223.400 142.000 M207.600 143.228 C 206.092 143.663,205.588 143.911,206.400 143.818 C 208.383 143.591,211.186 142.947,211.483 142.651 C 211.923 142.210,210.278 142.455,207.600 143.228 M199.400 145.211 C 196.980 145.848,195.630 146.299,196.400 146.213 C 197.170 146.128,198.610 145.850,199.600 145.596 C 200.590 145.343,202.076 145.040,202.903 144.925 C 203.729 144.810,204.505 144.555,204.626 144.358 C 204.957 143.822,204.217 143.943,199.400 145.211 M209.000 145.200 C 208.496 145.417,208.422 145.544,208.800 145.544 C 209.130 145.544,209.760 145.389,210.200 145.200 C 210.704 144.983,210.778 144.856,210.400 144.856 C 210.070 144.856,209.440 145.011,209.000 145.200 M190.800 147.228 C 188.936 147.766,188.653 147.921,189.800 147.774 C 193.388 147.315,194.416 147.099,194.626 146.758 C 194.951 146.232,193.731 146.382,190.800 147.228 M186.000 148.400 C 185.045 148.706,185.057 148.722,186.276 148.760 C 186.978 148.782,187.664 148.620,187.800 148.400 C 188.084 147.940,187.436 147.940,186.000 148.400 M179.200 150.028 C 176.890 150.662,175.630 151.108,176.400 151.019 C 177.170 150.930,178.610 150.650,179.600 150.396 C 180.590 150.143,182.076 149.840,182.903 149.725 C 184.427 149.512,185.451 148.768,184.124 148.838 C 183.726 148.859,181.510 149.394,179.200 150.028 M167.693 153.002 C 161.168 154.857,159.889 155.297,161.800 155.032 C 162.922 154.877,164.183 154.552,167.600 153.540 C 168.370 153.312,169.587 153.032,170.304 152.919 C 171.021 152.805,171.706 152.551,171.827 152.356 C 171.948 152.160,172.566 152.000,173.200 152.000 C 173.834 152.000,174.464 151.820,174.600 151.600 C 174.978 150.988,174.280 151.130,167.693 153.002 M158.600 155.600 C 157.886 155.907,157.915 155.947,158.876 155.972 C 159.468 155.987,160.064 155.820,160.200 155.600 C 160.495 155.122,159.711 155.122,158.600 155.600 M147.711 158.596 C 138.478 161.224,136.976 161.713,139.000 161.432 C 140.102 161.279,141.374 160.954,144.600 160.000 C 147.945 159.011,149.111 158.708,150.304 158.519 C 151.021 158.405,151.706 158.151,151.827 157.956 C 151.948 157.760,152.566 157.600,153.200 157.600 C 153.834 157.600,154.464 157.420,154.600 157.200 C 154.736 156.980,155.366 156.800,156.000 156.800 C 156.634 156.800,157.264 156.620,157.400 156.400 C 157.792 155.765,157.110 155.920,147.711 158.596 M135.729 161.878 C 133.746 162.264,133.811 162.836,136.573 169.257 C 138.018 172.618,139.194 175.645,139.186 175.984 C 139.129 178.539,128.798 187.744,122.959 190.442 L 119.637 191.976 116.759 190.201 C 113.187 187.999,113.182 188.003,113.283 192.724 L 113.366 196.600 113.498 192.900 C 113.571 190.865,113.730 189.200,113.853 189.200 C 114.108 189.200,116.497 190.497,116.800 190.800 C 117.528 191.528,119.650 192.363,120.264 192.163 C 123.187 191.213,127.066 188.908,130.381 186.153 C 135.587 181.825,136.825 180.629,138.339 178.462 L 140.078 175.973 139.392 174.486 C 138.627 172.830,137.868 171.074,135.766 166.100 C 135.418 165.275,134.962 164.278,134.753 163.884 C 134.227 162.893,134.641 162.400,136.000 162.400 C 136.634 162.400,137.264 162.220,137.400 162.000 C 137.650 161.595,137.310 161.571,135.729 161.878 M139.300 165.065 C 138.586 165.353,138.682 166.210,139.500 166.851 C 140.143 167.356,140.153 167.340,139.615 166.657 C 139.094 165.994,139.113 165.853,139.792 165.357 C 140.538 164.811,140.291 164.665,139.300 165.065 M183.600 174.718 C 183.600 174.929,183.856 175.314,184.168 175.573 C 184.624 175.952,184.716 175.907,184.633 175.344 C 184.525 174.611,183.600 174.050,183.600 174.718 M144.000 179.714 C 144.000 180.070,143.190 180.919,142.200 181.600 C 141.210 182.281,140.400 182.928,140.400 183.038 C 140.400 183.148,141.222 182.673,142.227 181.981 C 144.027 180.743,144.739 179.805,144.249 179.316 C 144.112 179.179,144.000 179.358,144.000 179.714 M184.181 184.100 L 182.600 185.800 184.300 184.219 C 185.881 182.748,186.184 182.400,185.881 182.400 C 185.816 182.400,185.051 183.165,184.181 184.100 M189.656 186.400 C 189.656 186.730,189.811 187.360,190.000 187.800 C 190.217 188.304,190.344 188.378,190.344 188.000 C 190.344 187.670,190.189 187.040,190.000 186.600 C 189.783 186.096,189.656 186.022,189.656 186.400 M191.600 191.357 C 191.600 191.737,191.420 191.936,191.200 191.800 C 190.980 191.664,190.800 191.823,190.800 192.153 C 190.800 192.483,190.975 192.861,191.188 192.993 C 191.620 193.260,192.240 191.307,191.848 190.915 C 191.712 190.778,191.600 190.977,191.600 191.357 M119.756 195.371 C 119.635 195.685,119.616 196.360,119.714 196.871 C 119.852 197.597,119.903 197.523,119.946 196.533 C 119.975 195.837,120.225 195.176,120.500 195.065 C 120.892 194.907,120.889 194.856,120.487 194.832 C 120.206 194.814,119.876 195.057,119.756 195.371 M150.100 195.076 C 150.485 195.176,151.115 195.176,151.500 195.076 C 151.885 194.975,151.570 194.893,150.800 194.893 C 150.030 194.893,149.715 194.975,150.100 195.076 M113.693 199.800 C 113.694 201.340,113.823 204.400,113.981 206.600 L 114.268 210.600 114.311 205.400 C 114.335 202.540,114.205 199.480,114.023 198.600 C 113.728 197.172,113.692 197.302,113.693 199.800 M155.800 198.800 L 153.800 199.074 155.600 199.131 C 156.590 199.162,157.670 199.013,158.000 198.800 C 158.330 198.587,158.420 198.438,158.200 198.469 C 157.980 198.500,156.900 198.649,155.800 198.800 M119.320 200.800 C 119.320 202.010,119.395 202.505,119.487 201.900 C 119.578 201.295,119.578 200.305,119.487 199.700 C 119.395 199.095,119.320 199.590,119.320 200.800 M142.291 199.489 C 143.001 199.577,144.261 199.579,145.091 199.492 C 145.921 199.405,145.340 199.333,143.800 199.331 C 142.260 199.329,141.581 199.400,142.291 199.489 M118.914 211.400 C 118.917 212.500,118.995 212.903,119.087 212.295 C 119.179 211.686,119.177 210.786,119.082 210.295 C 118.987 209.803,118.911 210.300,118.914 211.400 M114.356 213.776 L 114.200 216.552 110.255 217.685 C 103.115 219.735,96.472 223.423,93.037 227.243 C 90.395 230.182,86.772 237.820,87.318 239.302 C 87.419 239.576,87.624 239.260,87.775 238.600 C 87.925 237.940,88.217 237.087,88.424 236.705 C 88.631 236.323,88.800 235.764,88.800 235.462 C 88.800 232.031,96.615 223.675,102.000 221.346 C 102.550 221.108,103.782 220.528,104.738 220.057 C 105.694 219.586,106.731 219.200,107.043 219.200 C 107.355 219.200,107.923 219.042,108.305 218.849 C 109.320 218.337,111.763 217.600,112.449 217.600 C 114.895 217.600,115.557 216.212,114.833 212.600 C 114.530 211.085,114.505 211.148,114.356 213.776 M118.524 216.600 C 118.526 217.920,118.601 218.412,118.690 217.693 C 118.779 216.974,118.777 215.894,118.686 215.293 C 118.595 214.692,118.522 215.280,118.524 216.600 M117.000 220.800 L 115.800 221.105 117.100 221.153 C 117.815 221.179,118.400 221.020,118.400 220.800 C 118.400 220.580,118.355 220.421,118.300 220.447 C 118.245 220.473,117.660 220.632,117.000 220.800 M94.585 232.500 L 92.600 234.600 94.700 232.615 C 95.855 231.523,96.800 230.578,96.800 230.515 C 96.800 230.217,96.429 230.549,94.585 232.500 M86.924 242.200 C 86.926 243.520,87.001 244.012,87.090 243.293 C 87.179 242.574,87.177 241.494,87.086 240.893 C 86.995 240.292,86.922 240.880,86.924 242.200 M89.309 243.200 C 89.309 244.190,89.387 244.595,89.482 244.100 C 89.578 243.605,89.578 242.795,89.482 242.300 C 89.387 241.805,89.309 242.210,89.309 243.200 M87.200 245.250 C 87.200 246.359,88.942 249.235,90.425 250.575 C 92.307 252.275,93.083 252.423,92.130 250.900 C 91.203 249.417,91.018 249.249,91.362 250.199 C 91.588 250.824,91.380 250.739,90.410 249.810 C 89.139 248.592,88.000 246.679,88.000 245.762 C 88.000 245.479,87.820 245.136,87.600 245.000 C 87.380 244.864,87.200 244.977,87.200 245.250 " stroke="none" fill="#966c3c" fill-rule="evenodd"></path><path id="path4" d="M234.900 115.091 C 235.725 115.178,237.075 115.178,237.900 115.091 C 238.725 115.005,238.050 114.934,236.400 114.934 C 234.750 114.934,234.075 115.005,234.900 115.091 M245.091 115.089 C 245.801 115.177,247.061 115.179,247.891 115.092 C 248.721 115.005,248.140 114.933,246.600 114.931 C 245.060 114.929,244.381 115.000,245.091 115.089 M227.700 115.476 C 228.085 115.576,228.715 115.576,229.100 115.476 C 229.485 115.375,229.170 115.293,228.400 115.293 C 227.630 115.293,227.315 115.375,227.700 115.476 M201.800 119.600 C 201.296 119.817,201.222 119.944,201.600 119.944 C 201.930 119.944,202.560 119.789,203.000 119.600 C 203.504 119.383,203.578 119.256,203.200 119.256 C 202.870 119.256,202.240 119.411,201.800 119.600 M235.600 128.985 C 235.600 129.087,235.978 130.122,236.441 131.285 C 236.903 132.448,237.448 133.830,237.652 134.355 C 237.856 134.881,238.112 135.221,238.221 135.112 C 238.331 135.003,238.038 134.033,237.572 132.957 C 235.811 128.898,235.816 129.137,237.503 129.387 C 238.618 129.552,238.796 129.513,238.200 129.232 C 237.358 128.836,235.600 128.669,235.600 128.985 M240.609 130.188 C 242.826 130.889,245.049 131.346,244.761 131.041 C 244.467 130.731,240.147 129.585,239.480 129.640 C 239.216 129.661,239.724 129.908,240.609 130.188 M245.800 131.600 C 246.996 132.114,247.995 132.114,247.200 131.600 C 246.870 131.387,246.240 131.222,245.800 131.234 L 245.000 131.256 245.800 131.600 M249.986 132.834 C 251.188 133.261,252.350 133.550,252.567 133.478 C 253.027 133.324,249.107 131.986,248.325 132.029 C 248.036 132.045,248.784 132.407,249.986 132.834 M253.600 134.000 C 253.930 134.213,254.470 134.388,254.800 134.388 C 255.333 134.388,255.333 134.345,254.800 134.000 C 254.470 133.787,253.930 133.612,253.600 133.612 C 253.067 133.612,253.067 133.655,253.600 134.000 M258.400 135.701 C 263.119 137.808,264.550 138.383,264.702 138.231 C 264.872 138.062,263.078 137.178,259.851 135.841 C 258.122 135.125,256.831 135.000,258.400 135.701 M238.414 136.076 C 238.406 136.448,238.597 136.875,238.838 137.023 C 239.078 137.172,239.193 137.723,239.093 138.247 C 238.993 138.771,239.066 139.200,239.255 139.200 C 239.789 139.200,239.635 137.512,239.000 136.400 C 238.584 135.672,238.424 135.584,238.414 136.076 M235.800 139.600 L 235.000 139.944 235.800 139.932 C 236.240 139.926,237.050 139.776,237.600 139.600 L 238.600 139.280 237.600 139.268 C 237.050 139.262,236.240 139.411,235.800 139.600 M266.800 139.362 C 266.800 139.451,267.745 140.060,268.900 140.715 C 273.854 143.525,277.166 147.424,277.264 150.560 C 277.314 152.139,277.366 152.290,277.495 151.227 C 277.815 148.589,277.292 147.407,274.593 144.668 C 272.044 142.080,266.800 138.510,266.800 139.362 M231.800 140.400 L 231.000 140.744 231.800 140.725 C 232.240 140.714,233.140 140.568,233.800 140.400 L 235.000 140.095 233.800 140.075 C 233.140 140.065,232.240 140.211,231.800 140.400 M228.200 141.200 L 227.400 141.544 228.200 141.532 C 228.640 141.526,229.450 141.376,230.000 141.200 L 231.000 140.880 230.000 140.868 C 229.450 140.862,228.640 141.011,228.200 141.200 M224.600 142.000 L 223.800 142.344 224.600 142.332 C 225.040 142.326,225.850 142.176,226.400 142.000 L 227.400 141.680 226.400 141.668 C 225.850 141.662,225.040 141.811,224.600 142.000 M220.600 142.800 L 219.800 143.144 220.600 143.125 C 221.040 143.114,221.940 142.968,222.600 142.800 L 223.800 142.495 222.600 142.475 C 221.940 142.465,221.040 142.611,220.600 142.800 M216.600 143.621 C 215.940 143.807,214.860 144.081,214.200 144.229 C 213.540 144.377,213.180 144.564,213.400 144.643 C 213.620 144.722,215.150 144.450,216.800 144.038 C 218.450 143.625,219.350 143.287,218.800 143.285 C 218.250 143.283,217.260 143.434,216.600 143.621 M210.200 145.200 L 209.400 145.544 210.200 145.532 C 210.640 145.526,211.450 145.376,212.000 145.200 L 213.000 144.880 212.000 144.868 C 211.450 144.862,210.640 145.011,210.200 145.200 M206.600 146.000 L 205.800 146.344 206.600 146.332 C 207.040 146.326,207.850 146.176,208.400 146.000 L 209.400 145.680 208.400 145.668 C 207.850 145.662,207.040 145.811,206.600 146.000 M203.200 146.800 C 202.436 147.294,203.258 147.294,204.800 146.800 L 205.800 146.480 204.800 146.446 C 204.250 146.427,203.530 146.587,203.200 146.800 M198.200 147.936 C 196.880 148.282,196.070 148.615,196.400 148.678 C 196.730 148.740,198.260 148.450,199.800 148.032 C 201.340 147.614,202.150 147.280,201.600 147.290 C 201.050 147.300,199.520 147.591,198.200 147.936 M294.142 151.000 C 294.141 152.980,294.208 153.840,294.292 152.912 C 294.376 151.984,294.377 150.364,294.295 149.312 C 294.212 148.260,294.143 149.020,294.142 151.000 M193.400 149.200 L 192.600 149.544 193.400 149.544 C 193.840 149.544,194.560 149.389,195.000 149.200 L 195.800 148.856 195.000 148.856 C 194.560 148.856,193.840 149.011,193.400 149.200 M189.053 150.230 C 187.982 150.522,186.992 150.881,186.853 151.027 C 186.552 151.344,188.736 150.901,190.991 150.188 C 193.116 149.516,191.546 149.550,189.053 150.230 M183.053 151.830 C 181.982 152.122,180.992 152.481,180.853 152.627 C 180.552 152.944,182.736 152.501,184.991 151.788 C 187.116 151.116,185.546 151.150,183.053 151.830 M178.400 153.200 C 177.605 153.714,178.604 153.714,179.800 153.200 L 180.600 152.856 179.800 152.834 C 179.360 152.822,178.730 152.987,178.400 153.200 M175.600 154.000 C 174.805 154.514,175.804 154.514,177.000 154.000 L 177.800 153.656 177.000 153.634 C 176.560 153.622,175.930 153.787,175.600 154.000 M171.800 155.101 C 170.700 155.440,169.986 155.784,170.214 155.864 C 170.442 155.944,171.612 155.661,172.814 155.234 C 175.407 154.314,174.664 154.217,171.800 155.101 M168.000 156.400 C 167.467 156.745,167.467 156.788,168.000 156.788 C 168.330 156.788,168.870 156.613,169.200 156.400 C 169.733 156.055,169.733 156.012,169.200 156.012 C 168.870 156.012,168.330 156.187,168.000 156.400 M163.200 158.000 C 162.667 158.345,162.667 158.388,163.200 158.388 C 163.530 158.388,164.070 158.213,164.400 158.000 C 164.933 157.655,164.933 157.612,164.400 157.612 C 164.070 157.612,163.530 157.787,163.200 158.000 M160.800 158.800 C 160.267 159.145,160.267 159.188,160.800 159.188 C 161.130 159.188,161.670 159.013,162.000 158.800 C 162.533 158.455,162.533 158.412,162.000 158.412 C 161.670 158.412,161.130 158.587,160.800 158.800 M158.400 159.600 C 157.867 159.945,157.867 159.988,158.400 159.988 C 158.730 159.988,159.270 159.813,159.600 159.600 C 160.133 159.255,160.133 159.212,159.600 159.212 C 159.270 159.212,158.730 159.387,158.400 159.600 M156.000 160.400 C 155.467 160.745,155.467 160.788,156.000 160.788 C 156.330 160.788,156.870 160.613,157.200 160.400 C 157.733 160.055,157.733 160.012,157.200 160.012 C 156.870 160.012,156.330 160.187,156.000 160.400 M149.604 162.318 C 148.616 162.658,147.993 162.998,148.218 163.073 C 148.444 163.148,149.612 162.861,150.814 162.434 C 152.016 162.007,152.640 161.668,152.200 161.680 C 151.760 161.691,150.592 161.979,149.604 162.318 M144.400 164.026 C 142.980 164.509,142.692 164.690,143.586 164.537 C 145.210 164.258,148.076 163.251,147.200 163.267 C 146.870 163.273,145.610 163.615,144.400 164.026 M139.809 165.344 C 139.089 165.870,139.093 165.926,139.933 167.106 C 140.410 167.775,140.800 168.409,140.800 168.513 C 140.800 169.016,142.070 171.663,142.233 171.500 C 142.501 171.232,140.863 167.532,140.107 166.698 C 139.374 165.888,139.397 165.852,141.000 165.286 C 141.912 164.965,142.002 164.856,141.376 164.832 C 140.924 164.814,140.218 165.045,139.809 165.344 M142.412 172.400 C 142.412 172.730,142.587 173.270,142.800 173.600 C 143.145 174.133,143.188 174.133,143.188 173.600 C 143.188 173.270,143.013 172.730,142.800 172.400 C 142.455 171.867,142.412 171.867,142.412 172.400 M93.775 174.900 L 92.600 176.200 93.900 175.025 C 95.112 173.930,95.384 173.600,95.075 173.600 C 95.006 173.600,94.421 174.185,93.775 174.900 M182.400 173.828 C 182.400 173.954,183.164 174.962,184.097 176.069 L 185.794 178.081 184.597 179.061 C 181.032 181.981,176.686 185.088,173.915 186.698 C 172.193 187.699,170.856 188.589,170.944 188.677 C 171.432 189.165,179.491 183.721,185.300 178.979 C 186.246 178.207,186.193 177.928,184.806 176.354 C 182.812 174.091,183.213 173.785,185.767 175.619 C 187.940 177.180,190.061 180.003,191.162 182.800 C 191.638 184.010,191.921 184.460,191.790 183.800 C 191.178 180.702,188.500 176.933,185.392 174.795 C 183.811 173.707,182.400 173.251,182.400 173.828 M143.234 175.000 C 143.222 175.440,143.387 176.070,143.600 176.400 C 144.114 177.195,144.114 176.196,143.600 175.000 L 143.256 174.200 143.234 175.000 M144.121 178.800 L 144.200 180.600 136.713 185.600 C 132.149 188.648,129.221 190.856,129.213 191.256 C 129.200 191.888,132.195 193.605,133.296 193.596 C 133.573 193.594,132.855 193.152,131.700 192.614 C 128.871 191.297,128.625 191.603,137.199 185.770 C 145.137 180.370,145.172 180.332,144.381 178.000 C 144.109 177.198,144.057 177.357,144.121 178.800 M86.792 181.500 L 83.000 185.400 86.900 181.608 C 90.522 178.086,90.982 177.600,90.692 177.600 C 90.633 177.600,88.878 179.355,86.792 181.500 M260.975 182.100 L 259.800 183.400 261.100 182.225 C 261.815 181.579,262.400 180.994,262.400 180.925 C 262.400 180.616,262.070 180.888,260.975 182.100 M183.650 184.802 C 180.011 188.216,175.240 191.423,169.205 194.510 C 166.672 195.807,165.050 196.744,165.600 196.593 C 169.251 195.595,178.743 189.709,183.892 185.251 C 187.692 181.961,187.401 182.080,188.171 183.500 C 188.499 184.105,188.775 184.415,188.784 184.189 C 188.809 183.535,187.602 181.998,187.077 182.017 C 186.815 182.026,185.272 183.280,183.650 184.802 M257.775 185.700 L 256.600 187.000 257.900 185.825 C 258.615 185.179,259.200 184.594,259.200 184.525 C 259.200 184.216,258.870 184.488,257.775 185.700 M188.828 185.076 C 188.918 186.115,189.544 186.996,189.572 186.124 C 189.587 185.642,189.420 185.136,189.200 185.000 C 188.980 184.864,188.813 184.898,188.828 185.076 M192.140 188.400 C 192.140 190.270,192.209 191.035,192.293 190.100 C 192.377 189.165,192.377 187.635,192.293 186.700 C 192.209 185.765,192.140 186.530,192.140 188.400 M80.175 188.500 L 79.000 189.800 80.300 188.625 C 81.015 187.979,81.600 187.394,81.600 187.325 C 81.600 187.016,81.270 187.288,80.175 188.500 M189.675 187.800 C 189.686 188.240,189.832 189.140,190.000 189.800 L 190.305 191.000 190.325 189.800 C 190.335 189.140,190.189 188.240,190.000 187.800 L 189.656 187.000 189.675 187.800 M254.575 189.300 L 253.400 190.600 254.700 189.425 C 255.415 188.779,256.000 188.194,256.000 188.125 C 256.000 187.816,255.670 188.088,254.575 189.300 M168.600 189.499 C 167.940 189.866,165.780 190.748,163.800 191.459 C 161.820 192.171,160.458 192.764,160.773 192.776 C 161.993 192.827,170.400 189.503,170.400 188.971 C 170.400 188.654,169.806 188.829,168.600 189.499 M190.438 192.600 C 190.424 193.480,190.569 194.448,190.761 194.751 C 191.305 195.609,192.001 194.889,191.994 193.476 C 191.989 192.532,191.891 192.353,191.615 192.789 C 191.288 193.307,191.220 193.307,191.053 192.789 C 190.949 192.465,190.773 191.930,190.663 191.600 C 190.553 191.270,190.452 191.720,190.438 192.600 M155.800 193.623 C 154.040 194.013,153.140 194.341,153.800 194.352 C 155.077 194.373,159.526 193.407,159.907 193.027 C 160.230 192.703,159.427 192.820,155.800 193.623 M134.800 194.000 C 135.350 194.176,136.160 194.326,136.600 194.332 L 137.400 194.344 136.600 194.000 C 136.160 193.811,135.350 193.662,134.800 193.668 L 133.800 193.680 134.800 194.000 M138.885 194.860 C 140.132 195.214,148.576 195.209,150.800 194.852 C 151.865 194.681,149.611 194.571,145.285 194.582 C 141.261 194.592,138.381 194.717,138.885 194.860 M120.002 195.500 C 120.003 195.665,120.672 195.835,121.489 195.878 C 122.537 195.932,122.802 195.846,122.387 195.584 C 121.681 195.137,119.999 195.078,120.002 195.500 M247.775 196.900 L 246.600 198.200 247.900 197.025 C 248.615 196.379,249.200 195.794,249.200 195.725 C 249.200 195.416,248.870 195.688,247.775 196.900 M124.609 196.588 C 126.826 197.289,129.049 197.746,128.761 197.441 C 128.467 197.131,124.147 195.985,123.480 196.040 C 123.216 196.061,123.724 196.308,124.609 196.588 M160.491 197.917 C 158.891 198.466,157.665 198.998,157.766 199.099 C 157.968 199.302,164.400 197.235,164.400 196.967 C 164.400 196.670,163.457 196.899,160.491 197.917 M119.407 202.876 C 119.254 205.804,119.192 209.010,119.270 210.000 C 119.347 210.990,119.564 208.686,119.752 204.880 C 119.940 201.074,120.001 197.868,119.889 197.756 C 119.777 197.643,119.560 199.947,119.407 202.876 M130.609 198.188 C 132.826 198.889,135.049 199.346,134.761 199.041 C 134.467 198.731,130.147 197.585,129.480 197.640 C 129.216 197.661,129.724 197.908,130.609 198.188 M135.800 199.600 C 136.240 199.789,136.960 199.944,137.400 199.944 L 138.200 199.944 137.400 199.600 C 136.960 199.411,136.240 199.256,135.800 199.256 L 135.000 199.256 135.800 199.600 M143.200 199.600 L 139.800 199.851 143.600 199.871 C 145.690 199.882,149.560 199.767,152.200 199.616 L 157.000 199.340 151.800 199.345 C 148.940 199.347,145.070 199.462,143.200 199.600 M244.175 200.900 L 243.000 202.200 244.300 201.025 C 245.015 200.379,245.600 199.794,245.600 199.725 C 245.600 199.416,245.270 199.688,244.175 200.900 M240.975 204.500 L 239.800 205.800 241.100 204.625 C 241.815 203.979,242.400 203.394,242.400 203.325 C 242.400 203.016,242.070 203.288,240.975 204.500 M237.775 208.100 L 236.600 209.400 237.900 208.225 C 239.112 207.130,239.384 206.800,239.075 206.800 C 239.006 206.800,238.421 207.385,237.775 208.100 M234.575 211.700 L 233.400 213.000 234.700 211.825 C 235.415 211.179,236.000 210.594,236.000 210.525 C 236.000 210.216,235.670 210.488,234.575 211.700 M118.882 215.244 C 118.692 220.439,118.457 221.141,116.849 221.312 L 115.400 221.466 116.886 221.533 C 118.913 221.624,119.263 220.828,119.098 216.497 C 119.009 214.168,118.937 213.750,118.882 215.244 M111.200 222.554 C 108.168 223.613,104.800 225.076,104.800 225.335 C 104.800 225.435,106.285 224.913,108.100 224.176 C 109.915 223.439,112.300 222.577,113.400 222.260 C 114.500 221.943,115.040 221.675,114.600 221.665 C 114.160 221.655,112.630 222.055,111.200 222.554 M100.800 227.657 C 91.989 233.634,87.976 240.810,90.073 246.840 C 90.642 248.478,93.205 252.929,93.442 252.692 C 93.534 252.599,92.860 251.228,91.944 249.645 C 87.638 242.208,90.732 234.827,101.000 228.036 C 104.591 225.662,104.677 225.596,104.167 225.611 C 103.965 225.617,102.450 226.538,100.800 227.657 M57.301 233.000 C 57.305 233.880,57.387 234.193,57.483 233.695 C 57.579 233.198,57.575 232.478,57.475 232.095 C 57.375 231.713,57.296 232.120,57.301 233.000 M57.293 238.800 C 57.293 239.570,57.375 239.885,57.476 239.500 C 57.576 239.115,57.576 238.485,57.476 238.100 C 57.375 237.715,57.293 238.030,57.293 238.800 M241.688 244.613 C 242.286 245.243,242.847 245.677,242.935 245.579 C 243.023 245.480,242.533 244.965,241.847 244.434 L 240.600 243.469 241.688 244.613 M267.400 245.200 C 266.896 245.417,266.822 245.544,267.200 245.544 C 267.530 245.544,268.160 245.389,268.600 245.200 C 269.104 244.983,269.178 244.856,268.800 244.856 C 268.470 244.856,267.840 245.011,267.400 245.200 M185.600 246.000 C 185.164 246.282,185.143 246.389,185.524 246.394 C 185.812 246.397,185.928 246.593,185.782 246.830 C 185.636 247.066,185.895 247.022,186.358 246.733 C 186.821 246.444,187.200 246.071,187.200 245.904 C 187.200 245.482,186.320 245.535,185.600 246.000 M249.900 247.095 C 251.055 247.176,252.945 247.176,254.100 247.095 C 255.255 247.014,254.310 246.948,252.000 246.948 C 249.690 246.948,248.745 247.014,249.900 247.095 M159.400 253.200 C 158.896 253.417,158.822 253.544,159.200 253.544 C 159.530 253.544,160.160 253.389,160.600 253.200 C 161.104 252.983,161.178 252.856,160.800 252.856 C 160.470 252.856,159.840 253.011,159.400 253.200 M135.700 257.476 C 136.085 257.576,136.715 257.576,137.100 257.476 C 137.485 257.375,137.170 257.293,136.400 257.293 C 135.630 257.293,135.315 257.375,135.700 257.476 M129.300 257.876 C 129.685 257.976,130.315 257.976,130.700 257.876 C 131.085 257.775,130.770 257.693,130.000 257.693 C 129.230 257.693,128.915 257.775,129.300 257.876 M119.916 258.297 C 121.299 258.375,123.459 258.374,124.716 258.295 C 125.972 258.216,124.840 258.152,122.200 258.153 C 119.560 258.153,118.532 258.218,119.916 258.297 M225.700 266.676 C 226.085 266.776,226.715 266.776,227.100 266.676 C 227.485 266.575,227.170 266.493,226.400 266.493 C 225.630 266.493,225.315 266.575,225.700 266.676 M233.300 266.687 C 233.905 266.778,234.895 266.778,235.500 266.687 C 236.105 266.595,235.610 266.520,234.400 266.520 C 233.190 266.520,232.695 266.595,233.300 266.687 M105.305 272.287 C 105.914 272.379,106.814 272.377,107.305 272.282 C 107.797 272.187,107.300 272.111,106.200 272.114 C 105.100 272.117,104.697 272.195,105.305 272.287 M115.300 272.287 C 115.905 272.378,116.895 272.378,117.500 272.287 C 118.105 272.195,117.610 272.120,116.400 272.120 C 115.190 272.120,114.695 272.195,115.300 272.287 M110.500 272.676 C 110.885 272.776,111.515 272.776,111.900 272.676 C 112.285 272.575,111.970 272.493,111.200 272.493 C 110.430 272.493,110.115 272.575,110.500 272.676 " stroke="none" fill="#999999" fill-rule="evenodd"></path></g></svg>