<svg id="svg" version="1.1" xmlns="http://www.w3.org/2000/svg" xmlns:xlink="http://www.w3.org/1999/xlink" width="400" height="400" viewBox="0, 0, 400,400"><g id="svgg"><path id="path0" d="M190.000 57.979 C 186.810 58.142,183.480 58.392,182.600 58.533 C 181.720 58.675,178.750 59.151,176.000 59.591 C 99.088 71.916,46.014 147.278,59.651 224.800 C 76.120 318.410,179.288 370.111,264.099 327.255 C 307.338 305.406,335.107 265.437,341.675 215.600 C 342.447 209.742,342.325 189.048,341.481 182.800 C 331.131 106.163,267.819 53.993,190.000 57.979 M210.242 128.412 C 222.845 129.418,233.666 133.210,244.448 140.400 C 248.369 143.014,253.885 147.573,254.768 148.929 C 255.257 149.680,234.136 171.582,232.910 171.595 C 232.641 171.598,230.996 170.450,229.256 169.045 C 205.478 149.849,169.913 163.548,164.989 193.800 C 159.175 229.521,201.048 253.729,229.256 230.955 C 230.996 229.550,232.617 228.400,232.858 228.400 C 233.099 228.400,238.153 233.261,244.091 239.203 C 256.542 251.663,255.957 250.420,251.283 254.476 C 235.188 268.447,212.265 274.669,191.200 270.785 C 181.948 269.079,172.213 265.037,164.000 259.491 C 127.021 234.520,121.670 182.316,152.765 149.868 C 157.854 144.557,167.035 137.900,172.800 135.340 C 173.570 134.998,175.100 134.314,176.200 133.818 C 177.915 133.047,183.312 131.219,187.400 130.027 C 189.533 129.405,193.704 128.766,197.800 128.435 C 203.664 127.961,204.577 127.960,210.242 128.412 " stroke="none" fill="#1454f4" fill-rule="evenodd"></path><path id="path1" d="M178.500 0.274 C 176.465 0.360,174.800 0.603,174.800 0.815 C 174.800 1.030,173.383 1.200,171.600 1.200 C 169.733 1.200,168.400 1.367,168.400 1.600 C 168.400 1.820,167.500 2.000,166.400 2.000 C 165.300 2.000,164.400 2.180,164.400 2.400 C 164.400 2.622,163.333 2.800,162.000 2.800 C 160.667 2.800,159.600 2.978,159.600 3.200 C 159.600 3.420,158.801 3.600,157.824 3.600 C 156.847 3.600,155.936 3.780,155.800 4.000 C 155.664 4.220,154.843 4.400,153.976 4.400 C 153.109 4.400,152.400 4.580,152.400 4.800 C 152.400 5.020,151.680 5.200,150.800 5.200 C 149.920 5.200,149.200 5.380,149.200 5.600 C 149.200 5.820,148.581 6.000,147.824 6.000 C 147.067 6.000,146.336 6.180,146.200 6.400 C 146.064 6.620,145.423 6.800,144.776 6.800 C 144.129 6.800,143.600 6.980,143.600 7.200 C 143.600 7.420,142.880 7.600,142.000 7.600 C 141.120 7.600,140.400 7.780,140.400 8.000 C 140.400 8.220,139.860 8.400,139.200 8.400 C 138.540 8.400,138.000 8.580,138.000 8.800 C 138.000 9.020,137.460 9.200,136.800 9.200 C 136.140 9.200,135.600 9.380,135.600 9.600 C 135.600 9.820,135.060 10.000,134.400 10.000 C 133.740 10.000,133.200 10.180,133.200 10.400 C 133.200 10.620,132.660 10.800,132.000 10.800 C 131.340 10.800,130.800 10.980,130.800 11.200 C 130.800 11.420,130.440 11.600,130.000 11.600 C 129.560 11.600,129.200 11.780,129.200 12.000 C 129.200 12.220,128.660 12.400,128.000 12.400 C 127.340 12.400,126.800 12.580,126.800 12.800 C 126.800 13.020,126.440 13.200,126.000 13.200 C 125.560 13.200,125.200 13.380,125.200 13.600 C 125.200 13.820,124.660 14.000,124.000 14.000 C 123.340 14.000,122.800 14.180,122.800 14.400 C 122.800 14.620,122.440 14.800,122.000 14.800 C 121.560 14.800,121.200 14.980,121.200 15.200 C 121.200 15.420,120.761 15.600,120.224 15.600 C 119.687 15.600,119.136 15.780,119.000 16.000 C 118.864 16.220,118.403 16.400,117.976 16.400 C 117.549 16.400,117.200 16.580,117.200 16.800 C 117.200 17.020,116.840 17.200,116.400 17.200 C 115.960 17.200,115.600 17.380,115.600 17.600 C 115.600 17.820,115.240 18.000,114.800 18.000 C 114.360 18.000,114.000 18.180,114.000 18.400 C 114.000 18.620,113.640 18.800,113.200 18.800 C 112.760 18.800,112.400 18.980,112.400 19.200 C 112.400 19.420,112.040 19.600,111.600 19.600 C 111.160 19.600,110.800 19.780,110.800 20.000 C 110.800 20.220,110.440 20.400,110.000 20.400 C 109.560 20.400,109.200 20.580,109.200 20.800 C 109.200 21.020,108.840 21.200,108.400 21.200 C 107.960 21.200,107.600 21.380,107.600 21.600 C 107.600 21.820,107.240 22.000,106.800 22.000 C 106.360 22.000,106.000 22.180,106.000 22.400 C 106.000 22.620,105.640 22.800,105.200 22.800 C 104.760 22.800,104.400 22.980,104.400 23.200 C 104.400 23.420,104.040 23.600,103.600 23.600 C 103.160 23.600,102.800 23.780,102.800 24.000 C 102.800 24.220,102.564 24.400,102.275 24.400 C 101.987 24.400,101.364 24.760,100.892 25.200 C 100.420 25.640,99.756 26.000,99.417 26.000 C 99.078 26.000,98.800 26.180,98.800 26.400 C 98.800 26.620,98.440 26.800,98.000 26.800 C 97.560 26.800,97.200 26.980,97.200 27.200 C 97.200 27.420,96.964 27.600,96.675 27.600 C 96.387 27.600,95.764 27.960,95.292 28.400 C 94.820 28.840,94.196 29.200,93.905 29.200 C 93.614 29.200,93.117 29.560,92.800 30.000 C 92.483 30.440,91.943 30.800,91.600 30.800 C 91.257 30.800,90.717 31.160,90.400 31.600 C 90.083 32.040,89.503 32.400,89.112 32.400 C 88.720 32.400,88.400 32.580,88.400 32.800 C 88.400 33.020,88.157 33.200,87.859 33.200 C 87.562 33.200,86.754 33.740,86.063 34.400 C 85.372 35.060,84.575 35.600,84.292 35.600 C 84.009 35.600,83.517 35.960,83.200 36.400 C 82.883 36.840,82.420 37.200,82.171 37.200 C 81.922 37.200,81.154 37.740,80.463 38.400 C 79.772 39.060,79.047 39.600,78.852 39.600 C 78.656 39.600,77.755 40.320,76.848 41.200 C 75.941 42.080,75.005 42.800,74.768 42.800 C 74.531 42.800,73.646 43.520,72.800 44.400 C 71.954 45.280,71.082 46.000,70.862 46.000 C 70.642 46.000,69.186 47.260,67.628 48.800 C 66.069 50.340,64.626 51.600,64.419 51.600 C 63.930 51.600,51.600 63.930,51.600 64.419 C 51.600 64.626,50.340 66.069,48.800 67.628 C 47.260 69.186,46.000 70.642,46.000 70.862 C 46.000 71.082,45.280 71.954,44.400 72.800 C 43.520 73.646,42.800 74.531,42.800 74.768 C 42.800 75.005,42.080 75.941,41.200 76.848 C 40.320 77.755,39.600 78.656,39.600 78.852 C 39.600 79.047,39.060 79.772,38.400 80.463 C 37.740 81.154,37.200 81.922,37.200 82.171 C 37.200 82.420,36.840 82.883,36.400 83.200 C 35.960 83.517,35.600 84.009,35.600 84.292 C 35.600 84.575,35.060 85.372,34.400 86.063 C 33.740 86.754,33.200 87.562,33.200 87.859 C 33.200 88.157,33.020 88.400,32.800 88.400 C 32.580 88.400,32.400 88.720,32.400 89.112 C 32.400 89.503,32.040 90.083,31.600 90.400 C 31.160 90.717,30.800 91.257,30.800 91.600 C 30.800 91.943,30.440 92.483,30.000 92.800 C 29.560 93.117,29.200 93.614,29.200 93.905 C 29.200 94.196,28.840 94.820,28.400 95.292 C 27.960 95.764,27.600 96.387,27.600 96.675 C 27.600 96.964,27.420 97.200,27.200 97.200 C 26.980 97.200,26.800 97.560,26.800 98.000 C 26.800 98.440,26.620 98.800,26.400 98.800 C 26.180 98.800,26.000 99.078,26.000 99.417 C 26.000 99.756,25.640 100.420,25.200 100.892 C 24.760 101.364,24.400 101.987,24.400 102.275 C 24.400 102.564,24.220 102.800,24.000 102.800 C 23.780 102.800,23.600 103.160,23.600 103.600 C 23.600 104.040,23.420 104.400,23.200 104.400 C 22.980 104.400,22.800 104.760,22.800 105.200 C 22.800 105.640,22.620 106.000,22.400 106.000 C 22.180 106.000,22.000 106.360,22.000 106.800 C 22.000 107.240,21.820 107.600,21.600 107.600 C 21.380 107.600,21.200 107.960,21.200 108.400 C 21.200 108.840,21.020 109.200,20.800 109.200 C 20.580 109.200,20.400 109.560,20.400 110.000 C 20.400 110.440,20.220 110.800,20.000 110.800 C 19.780 110.800,19.600 111.160,19.600 111.600 C 19.600 112.040,19.420 112.400,19.200 112.400 C 18.980 112.400,18.800 112.760,18.800 113.200 C 18.800 113.640,18.620 114.000,18.400 114.000 C 18.180 114.000,18.000 114.360,18.000 114.800 C 18.000 115.240,17.820 115.600,17.600 115.600 C 17.380 115.600,17.200 115.960,17.200 116.400 C 17.200 116.840,17.020 117.200,16.800 117.200 C 16.580 117.200,16.400 117.549,16.400 117.976 C 16.400 118.403,16.220 118.864,16.000 119.000 C 15.780 119.136,15.600 119.687,15.600 120.224 C 15.600 120.761,15.420 121.200,15.200 121.200 C 14.980 121.200,14.800 121.560,14.800 122.000 C 14.800 122.440,14.620 122.800,14.400 122.800 C 14.180 122.800,14.000 123.340,14.000 124.000 C 14.000 124.660,13.820 125.200,13.600 125.200 C 13.380 125.200,13.200 125.560,13.200 126.000 C 13.200 126.440,13.020 126.800,12.800 126.800 C 12.580 126.800,12.400 127.340,12.400 128.000 C 12.400 128.660,12.220 129.200,12.000 129.200 C 11.780 129.200,11.600 129.560,11.600 130.000 C 11.600 130.440,11.420 130.800,11.200 130.800 C 10.980 130.800,10.800 131.340,10.800 132.000 C 10.800 132.660,10.620 133.200,10.400 133.200 C 10.180 133.200,10.000 133.740,10.000 134.400 C 10.000 135.060,9.820 135.600,9.600 135.600 C 9.380 135.600,9.200 136.140,9.200 136.800 C 9.200 137.460,9.020 138.000,8.800 138.000 C 8.580 138.000,8.400 138.540,8.400 139.200 C 8.400 139.860,8.220 140.400,8.000 140.400 C 7.780 140.400,7.600 141.120,7.600 142.000 C 7.600 142.880,7.420 143.600,7.200 143.600 C 6.980 143.600,6.800 144.129,6.800 144.776 C 6.800 145.423,6.620 146.064,6.400 146.200 C 6.180 146.336,6.000 147.067,6.000 147.824 C 6.000 148.581,5.820 149.200,5.600 149.200 C 5.380 149.200,5.200 149.920,5.200 150.800 C 5.200 151.680,5.020 152.400,4.800 152.400 C 4.580 152.400,4.400 153.109,4.400 153.976 C 4.400 154.843,4.220 155.664,4.000 155.800 C 3.780 155.936,3.600 156.847,3.600 157.824 C 3.600 158.801,3.420 159.600,3.200 159.600 C 2.978 159.600,2.800 160.667,2.800 162.000 C 2.800 163.333,2.622 164.400,2.400 164.400 C 2.180 164.400,2.000 165.300,2.000 166.400 C 2.000 167.500,1.820 168.400,1.600 168.400 C 1.367 168.400,1.200 169.722,1.200 171.567 C 1.200 173.744,1.044 174.785,0.700 174.900 C -0.032 175.144,-0.032 224.856,0.700 225.100 C 1.044 225.215,1.200 226.256,1.200 228.433 C 1.200 230.278,1.367 231.600,1.600 231.600 C 1.820 231.600,2.000 232.500,2.000 233.600 C 2.000 234.700,2.180 235.600,2.400 235.600 C 2.622 235.600,2.800 236.667,2.800 238.000 C 2.800 239.333,2.978 240.400,3.200 240.400 C 3.420 240.400,3.600 241.199,3.600 242.176 C 3.600 243.153,3.780 244.064,4.000 244.200 C 4.220 244.336,4.400 245.157,4.400 246.024 C 4.400 246.891,4.580 247.600,4.800 247.600 C 5.020 247.600,5.200 248.320,5.200 249.200 C 5.200 250.080,5.380 250.800,5.600 250.800 C 5.820 250.800,6.000 251.419,6.000 252.176 C 6.000 252.933,6.180 253.664,6.400 253.800 C 6.620 253.936,6.800 254.577,6.800 255.224 C 6.800 255.871,6.980 256.400,7.200 256.400 C 7.420 256.400,7.600 257.120,7.600 258.000 C 7.600 258.880,7.780 259.600,8.000 259.600 C 8.220 259.600,8.400 260.140,8.400 260.800 C 8.400 261.460,8.580 262.000,8.800 262.000 C 9.020 262.000,9.200 262.540,9.200 263.200 C 9.200 263.860,9.380 264.400,9.600 264.400 C 9.820 264.400,10.000 264.940,10.000 265.600 C 10.000 266.260,10.180 266.800,10.400 266.800 C 10.620 266.800,10.800 267.340,10.800 268.000 C 10.800 268.660,10.980 269.200,11.200 269.200 C 11.420 269.200,11.600 269.560,11.600 270.000 C 11.600 270.440,11.780 270.800,12.000 270.800 C 12.220 270.800,12.400 271.340,12.400 272.000 C 12.400 272.660,12.580 273.200,12.800 273.200 C 13.020 273.200,13.200 273.560,13.200 274.000 C 13.200 274.440,13.380 274.800,13.600 274.800 C 13.820 274.800,14.000 275.340,14.000 276.000 C 14.000 276.660,14.180 277.200,14.400 277.200 C 14.620 277.200,14.800 277.560,14.800 278.000 C 14.800 278.440,14.980 278.800,15.200 278.800 C 15.420 278.800,15.600 279.239,15.600 279.776 C 15.600 280.313,15.780 280.864,16.000 281.000 C 16.220 281.136,16.400 281.597,16.400 282.024 C 16.400 282.451,16.580 282.800,16.800 282.800 C 17.020 282.800,17.200 283.160,17.200 283.600 C 17.200 284.040,17.380 284.400,17.600 284.400 C 17.820 284.400,18.000 284.760,18.000 285.200 C 18.000 285.640,18.180 286.000,18.400 286.000 C 18.620 286.000,18.800 286.360,18.800 286.800 C 18.800 287.240,18.980 287.600,19.200 287.600 C 19.420 287.600,19.600 287.960,19.600 288.400 C 19.600 288.840,19.780 289.200,20.000 289.200 C 20.220 289.200,20.400 289.560,20.400 290.000 C 20.400 290.440,20.580 290.800,20.800 290.800 C 21.020 290.800,21.200 291.160,21.200 291.600 C 21.200 292.040,21.380 292.400,21.600 292.400 C 21.820 292.400,22.000 292.760,22.000 293.200 C 22.000 293.640,22.180 294.000,22.400 294.000 C 22.620 294.000,22.800 294.360,22.800 294.800 C 22.800 295.240,22.980 295.600,23.200 295.600 C 23.420 295.600,23.600 295.960,23.600 296.400 C 23.600 296.840,23.780 297.200,24.000 297.200 C 24.220 297.200,24.400 297.436,24.400 297.725 C 24.400 298.013,24.760 298.636,25.200 299.108 C 25.640 299.580,26.000 300.244,26.000 300.583 C 26.000 300.922,26.180 301.200,26.400 301.200 C 26.620 301.200,26.800 301.560,26.800 302.000 C 26.800 302.440,26.980 302.800,27.200 302.800 C 27.420 302.800,27.600 303.036,27.600 303.325 C 27.600 303.613,27.960 304.236,28.400 304.708 C 28.840 305.180,29.200 305.804,29.200 306.095 C 29.200 306.386,29.560 306.883,30.000 307.200 C 30.440 307.517,30.800 308.057,30.800 308.400 C 30.800 308.743,31.160 309.283,31.600 309.600 C 32.040 309.917,32.400 310.497,32.400 310.888 C 32.400 311.280,32.580 311.600,32.800 311.600 C 33.020 311.600,33.200 311.843,33.200 312.141 C 33.200 312.438,33.740 313.246,34.400 313.937 C 35.060 314.628,35.600 315.425,35.600 315.708 C 35.600 315.991,35.960 316.483,36.400 316.800 C 36.840 317.117,37.200 317.580,37.200 317.829 C 37.200 318.078,37.740 318.846,38.400 319.537 C 39.060 320.228,39.600 320.953,39.600 321.148 C 39.600 321.344,40.320 322.245,41.200 323.152 C 42.080 324.059,42.800 324.995,42.800 325.232 C 42.800 325.469,43.520 326.354,44.400 327.200 C 45.280 328.046,46.000 328.918,46.000 329.138 C 46.000 329.358,47.260 330.814,48.800 332.372 C 50.340 333.931,51.600 335.374,51.600 335.581 C 51.600 336.070,63.930 348.400,64.419 348.400 C 64.626 348.400,66.069 349.660,67.628 351.200 C 69.186 352.740,70.642 354.000,70.862 354.000 C 71.082 354.000,71.954 354.720,72.800 355.600 C 73.646 356.480,74.531 357.200,74.768 357.200 C 75.005 357.200,75.941 357.920,76.848 358.800 C 77.755 359.680,78.656 360.400,78.852 360.400 C 79.047 360.400,79.772 360.940,80.463 361.600 C 81.154 362.260,81.922 362.800,82.171 362.800 C 82.420 362.800,82.883 363.160,83.200 363.600 C 83.517 364.040,84.009 364.400,84.292 364.400 C 84.575 364.400,85.372 364.940,86.063 365.600 C 86.754 366.260,87.562 366.800,87.859 366.800 C 88.157 366.800,88.400 366.980,88.400 367.200 C 88.400 367.420,88.720 367.600,89.112 367.600 C 89.503 367.600,90.083 367.960,90.400 368.400 C 90.717 368.840,91.257 369.200,91.600 369.200 C 91.943 369.200,92.483 369.560,92.800 370.000 C 93.117 370.440,93.614 370.800,93.905 370.800 C 94.196 370.800,94.820 371.160,95.292 371.600 C 95.764 372.040,96.387 372.400,96.675 372.400 C 96.964 372.400,97.200 372.580,97.200 372.800 C 97.200 373.020,97.560 373.200,98.000 373.200 C 98.440 373.200,98.800 373.380,98.800 373.600 C 98.800 373.820,99.078 374.000,99.417 374.000 C 99.756 374.000,100.420 374.360,100.892 374.800 C 101.364 375.240,101.987 375.600,102.275 375.600 C 102.564 375.600,102.800 375.780,102.800 376.000 C 102.800 376.220,103.160 376.400,103.600 376.400 C 104.040 376.400,104.400 376.580,104.400 376.800 C 104.400 377.020,104.760 377.200,105.200 377.200 C 105.640 377.200,106.000 377.380,106.000 377.600 C 106.000 377.820,106.360 378.000,106.800 378.000 C 107.240 378.000,107.600 378.180,107.600 378.400 C 107.600 378.620,107.960 378.800,108.400 378.800 C 108.840 378.800,109.200 378.980,109.200 379.200 C 109.200 379.420,109.560 379.600,110.000 379.600 C 110.440 379.600,110.800 379.780,110.800 380.000 C 110.800 380.220,111.160 380.400,111.600 380.400 C 112.040 380.400,112.400 380.580,112.400 380.800 C 112.400 381.020,112.760 381.200,113.200 381.200 C 113.640 381.200,114.000 381.380,114.000 381.600 C 114.000 381.820,114.360 382.000,114.800 382.000 C 115.240 382.000,115.600 382.180,115.600 382.400 C 115.600 382.620,115.960 382.800,116.400 382.800 C 116.840 382.800,117.200 382.980,117.200 383.200 C 117.200 383.420,117.549 383.600,117.976 383.600 C 118.403 383.600,118.864 383.780,119.000 384.000 C 119.136 384.220,119.687 384.400,120.224 384.400 C 120.761 384.400,121.200 384.580,121.200 384.800 C 121.200 385.020,121.560 385.200,122.000 385.200 C 122.440 385.200,122.800 385.380,122.800 385.600 C 122.800 385.820,123.340 386.000,124.000 386.000 C 124.660 386.000,125.200 386.180,125.200 386.400 C 125.200 386.620,125.560 386.800,126.000 386.800 C 126.440 386.800,126.800 386.980,126.800 387.200 C 126.800 387.420,127.340 387.600,128.000 387.600 C 128.660 387.600,129.200 387.780,129.200 388.000 C 129.200 388.220,129.560 388.400,130.000 388.400 C 130.440 388.400,130.800 388.580,130.800 388.800 C 130.800 389.020,131.340 389.200,132.000 389.200 C 132.660 389.200,133.200 389.380,133.200 389.600 C 133.200 389.820,133.740 390.000,134.400 390.000 C 135.060 390.000,135.600 390.180,135.600 390.400 C 135.600 390.620,136.140 390.800,136.800 390.800 C 137.460 390.800,138.000 390.980,138.000 391.200 C 138.000 391.420,138.540 391.600,139.200 391.600 C 139.860 391.600,140.400 391.780,140.400 392.000 C 140.400 392.220,141.120 392.400,142.000 392.400 C 142.880 392.400,143.600 392.580,143.600 392.800 C 143.600 393.020,144.129 393.200,144.776 393.200 C 145.423 393.200,146.064 393.380,146.200 393.600 C 146.336 393.820,147.067 394.000,147.824 394.000 C 148.581 394.000,149.200 394.180,149.200 394.400 C 149.200 394.620,149.920 394.800,150.800 394.800 C 151.680 394.800,152.400 394.980,152.400 395.200 C 152.400 395.420,153.109 395.600,153.976 395.600 C 154.843 395.600,155.664 395.780,155.800 396.000 C 155.936 396.220,156.847 396.400,157.824 396.400 C 158.801 396.400,159.600 396.580,159.600 396.800 C 159.600 397.022,160.667 397.200,162.000 397.200 C 163.333 397.200,164.400 397.378,164.400 397.600 C 164.400 397.820,165.300 398.000,166.400 398.000 C 167.500 398.000,168.400 398.180,168.400 398.400 C 168.400 398.633,169.722 398.800,171.567 398.800 C 173.744 398.800,174.785 398.956,174.900 399.300 C 175.144 400.032,224.856 400.032,225.100 399.300 C 225.215 398.956,226.256 398.800,228.433 398.800 C 230.278 398.800,231.600 398.633,231.600 398.400 C 231.600 398.180,232.500 398.000,233.600 398.000 C 234.700 398.000,235.600 397.820,235.600 397.600 C 235.600 397.378,236.667 397.200,238.000 397.200 C 239.333 397.200,240.400 397.022,240.400 396.800 C 240.400 396.580,241.199 396.400,242.176 396.400 C 243.153 396.400,244.064 396.220,244.200 396.000 C 244.336 395.780,245.157 395.600,246.024 395.600 C 246.891 395.600,247.600 395.420,247.600 395.200 C 247.600 394.980,248.320 394.800,249.200 394.800 C 250.080 394.800,250.800 394.620,250.800 394.400 C 250.800 394.180,251.419 394.000,252.176 394.000 C 252.933 394.000,253.664 393.820,253.800 393.600 C 253.936 393.380,254.577 393.200,255.224 393.200 C 255.871 393.200,256.400 393.020,256.400 392.800 C 256.400 392.580,257.120 392.400,258.000 392.400 C 258.880 392.400,259.600 392.220,259.600 392.000 C 259.600 391.780,260.140 391.600,260.800 391.600 C 261.460 391.600,262.000 391.420,262.000 391.200 C 262.000 390.980,262.540 390.800,263.200 390.800 C 263.860 390.800,264.400 390.620,264.400 390.400 C 264.400 390.180,264.940 390.000,265.600 390.000 C 266.260 390.000,266.800 389.820,266.800 389.600 C 266.800 389.380,267.340 389.200,268.000 389.200 C 268.660 389.200,269.200 389.020,269.200 388.800 C 269.200 388.580,269.560 388.400,270.000 388.400 C 270.440 388.400,270.800 388.220,270.800 388.000 C 270.800 387.780,271.340 387.600,272.000 387.600 C 272.660 387.600,273.200 387.420,273.200 387.200 C 273.200 386.980,273.560 386.800,274.000 386.800 C 274.440 386.800,274.800 386.620,274.800 386.400 C 274.800 386.180,275.340 386.000,276.000 386.000 C 276.660 386.000,277.200 385.820,277.200 385.600 C 277.200 385.380,277.560 385.200,278.000 385.200 C 278.440 385.200,278.800 385.020,278.800 384.800 C 278.800 384.580,279.239 384.400,279.776 384.400 C 280.313 384.400,280.864 384.220,281.000 384.000 C 281.136 383.780,281.597 383.600,282.024 383.600 C 282.451 383.600,282.800 383.420,282.800 383.200 C 282.800 382.980,283.160 382.800,283.600 382.800 C 284.040 382.800,284.400 382.620,284.400 382.400 C 284.400 382.180,284.760 382.000,285.200 382.000 C 285.640 382.000,286.000 381.820,286.000 381.600 C 286.000 381.380,286.360 381.200,286.800 381.200 C 287.240 381.200,287.600 381.020,287.600 380.800 C 287.600 380.580,287.960 380.400,288.400 380.400 C 288.840 380.400,289.200 380.220,289.200 380.000 C 289.200 379.780,289.560 379.600,290.000 379.600 C 290.440 379.600,290.800 379.420,290.800 379.200 C 290.800 378.980,291.160 378.800,291.600 378.800 C 292.040 378.800,292.400 378.620,292.400 378.400 C 292.400 378.180,292.760 378.000,293.200 378.000 C 293.640 378.000,294.000 377.820,294.000 377.600 C 294.000 377.380,294.360 377.200,294.800 377.200 C 295.240 377.200,295.600 377.020,295.600 376.800 C 295.600 376.580,295.960 376.400,296.400 376.400 C 296.840 376.400,297.200 376.220,297.200 376.000 C 297.200 375.780,297.436 375.600,297.725 375.600 C 298.013 375.600,298.636 375.240,299.108 374.800 C 299.580 374.360,300.244 374.000,300.583 374.000 C 300.922 374.000,301.200 373.820,301.200 373.600 C 301.200 373.380,301.560 373.200,302.000 373.200 C 302.440 373.200,302.800 373.020,302.800 372.800 C 302.800 372.580,303.036 372.400,303.325 372.400 C 303.613 372.400,304.236 372.040,304.708 371.600 C 305.180 371.160,305.804 370.800,306.095 370.800 C 306.386 370.800,306.883 370.440,307.200 370.000 C 307.517 369.560,308.057 369.200,308.400 369.200 C 308.743 369.200,309.283 368.840,309.600 368.400 C 309.917 367.960,310.497 367.600,310.888 367.600 C 311.280 367.600,311.600 367.420,311.600 367.200 C 311.600 366.980,311.843 366.800,312.141 366.800 C 312.438 366.800,313.246 366.260,313.937 365.600 C 314.628 364.940,315.425 364.400,315.708 364.400 C 315.991 364.400,316.483 364.040,316.800 363.600 C 317.117 363.160,317.580 362.800,317.829 362.800 C 318.078 362.800,318.846 362.260,319.537 361.600 C 320.228 360.940,320.953 360.400,321.148 360.400 C 321.344 360.400,322.245 359.680,323.152 358.800 C 324.059 357.920,324.995 357.200,325.232 357.200 C 325.469 357.200,326.354 356.480,327.200 355.600 C 328.046 354.720,328.918 354.000,329.138 354.000 C 329.358 354.000,330.814 352.740,332.372 351.200 C 333.931 349.660,335.374 348.400,335.581 348.400 C 336.070 348.400,348.400 336.070,348.400 335.581 C 348.400 335.374,349.660 333.931,351.200 332.372 C 352.740 330.814,354.000 329.358,354.000 329.138 C 354.000 328.918,354.720 328.046,355.600 327.200 C 356.480 326.354,357.200 325.469,357.200 325.232 C 357.200 324.995,357.920 324.059,358.800 323.152 C 359.680 322.245,360.400 321.344,360.400 321.148 C 360.400 320.953,360.940 320.228,361.600 319.537 C 362.260 318.846,362.800 318.078,362.800 317.829 C 362.800 317.580,363.160 317.117,363.600 316.800 C 364.040 316.483,364.400 315.991,364.400 315.708 C 364.400 315.425,364.940 314.628,365.600 313.937 C 366.260 313.246,366.800 312.438,366.800 312.141 C 366.800 311.843,366.980 311.600,367.200 311.600 C 367.420 311.600,367.600 311.280,367.600 310.888 C 367.600 310.497,367.960 309.917,368.400 309.600 C 368.840 309.283,369.200 308.743,369.200 308.400 C 369.200 308.057,369.560 307.517,370.000 307.200 C 370.440 306.883,370.800 306.386,370.800 306.095 C 370.800 305.804,371.160 305.180,371.600 304.708 C 372.040 304.236,372.400 303.613,372.400 303.325 C 372.400 303.036,372.580 302.800,372.800 302.800 C 373.020 302.800,373.200 302.440,373.200 302.000 C 373.200 301.560,373.380 301.200,373.600 301.200 C 373.820 301.200,374.000 300.922,374.000 300.583 C 374.000 300.244,374.360 299.580,374.800 299.108 C 375.240 298.636,375.600 298.013,375.600 297.725 C 375.600 297.436,375.780 297.200,376.000 297.200 C 376.220 297.200,376.400 296.840,376.400 296.400 C 376.400 295.960,376.580 295.600,376.800 295.600 C 377.020 295.600,377.200 295.240,377.200 294.800 C 377.200 294.360,377.380 294.000,377.600 294.000 C 377.820 294.000,378.000 293.640,378.000 293.200 C 378.000 292.760,378.180 292.400,378.400 292.400 C 378.620 292.400,378.800 292.040,378.800 291.600 C 378.800 291.160,378.980 290.800,379.200 290.800 C 379.420 290.800,379.600 290.440,379.600 290.000 C 379.600 289.560,379.780 289.200,380.000 289.200 C 380.220 289.200,380.400 288.840,380.400 288.400 C 380.400 287.960,380.580 287.600,380.800 287.600 C 381.020 287.600,381.200 287.240,381.200 286.800 C 381.200 286.360,381.380 286.000,381.600 286.000 C 381.820 286.000,382.000 285.640,382.000 285.200 C 382.000 284.760,382.180 284.400,382.400 284.400 C 382.620 284.400,382.800 284.040,382.800 283.600 C 382.800 283.160,382.980 282.800,383.200 282.800 C 383.420 282.800,383.600 282.451,383.600 282.024 C 383.600 281.597,383.780 281.136,384.000 281.000 C 384.220 280.864,384.400 280.313,384.400 279.776 C 384.400 279.239,384.580 278.800,384.800 278.800 C 385.020 278.800,385.200 278.440,385.200 278.000 C 385.200 277.560,385.380 277.200,385.600 277.200 C 385.820 277.200,386.000 276.660,386.000 276.000 C 386.000 275.340,386.180 274.800,386.400 274.800 C 386.620 274.800,386.800 274.440,386.800 274.000 C 386.800 273.560,386.980 273.200,387.200 273.200 C 387.420 273.200,387.600 272.660,387.600 272.000 C 387.600 271.340,387.780 270.800,388.000 270.800 C 388.220 270.800,388.400 270.440,388.400 270.000 C 388.400 269.560,388.580 269.200,388.800 269.200 C 389.020 269.200,389.200 268.660,389.200 268.000 C 389.200 267.340,389.380 266.800,389.600 266.800 C 389.820 266.800,390.000 266.260,390.000 265.600 C 390.000 264.940,390.180 264.400,390.400 264.400 C 390.620 264.400,390.800 263.860,390.800 263.200 C 390.800 262.540,390.980 262.000,391.200 262.000 C 391.420 262.000,391.600 261.460,391.600 260.800 C 391.600 260.140,391.780 259.600,392.000 259.600 C 392.220 259.600,392.400 258.880,392.400 258.000 C 392.400 257.120,392.580 256.400,392.800 256.400 C 393.020 256.400,393.200 255.871,393.200 255.224 C 393.200 254.577,393.380 253.936,393.600 253.800 C 393.820 253.664,394.000 252.933,394.000 252.176 C 394.000 251.419,394.180 250.800,394.400 250.800 C 394.620 250.800,394.800 250.080,394.800 249.200 C 394.800 248.320,394.980 247.600,395.200 247.600 C 395.420 247.600,395.600 246.891,395.600 246.024 C 395.600 245.157,395.780 244.336,396.000 244.200 C 396.220 244.064,396.400 243.153,396.400 242.176 C 396.400 241.199,396.580 240.400,396.800 240.400 C 397.022 240.400,397.200 239.333,397.200 238.000 C 397.200 236.667,397.378 235.600,397.600 235.600 C 397.820 235.600,398.000 234.700,398.000 233.600 C 398.000 232.500,398.180 231.600,398.400 231.600 C 398.633 231.600,398.800 230.278,398.800 228.433 C 398.800 226.256,398.956 225.215,399.300 225.100 C 399.693 224.969,399.800 219.591,399.800 200.000 C 399.800 180.409,399.693 175.031,399.300 174.900 C 398.956 174.785,398.800 173.744,398.800 171.567 C 398.800 169.722,398.633 168.400,398.400 168.400 C 398.180 168.400,398.000 167.500,398.000 166.400 C 398.000 165.300,397.820 164.400,397.600 164.400 C 397.378 164.400,397.200 163.333,397.200 162.000 C 397.200 160.667,397.022 159.600,396.800 159.600 C 396.580 159.600,396.400 158.801,396.400 157.824 C 396.400 156.847,396.220 155.936,396.000 155.800 C 395.780 155.664,395.600 154.843,395.600 153.976 C 395.600 153.109,395.420 152.400,395.200 152.400 C 394.980 152.400,394.800 151.680,394.800 150.800 C 394.800 149.920,394.620 149.200,394.400 149.200 C 394.180 149.200,394.000 148.581,394.000 147.824 C 394.000 147.067,393.820 146.336,393.600 146.200 C 393.380 146.064,393.200 145.423,393.200 144.776 C 393.200 144.129,393.020 143.600,392.800 143.600 C 392.580 143.600,392.400 142.880,392.400 142.000 C 392.400 141.120,392.220 140.400,392.000 140.400 C 391.780 140.400,391.600 139.860,391.600 139.200 C 391.600 138.540,391.420 138.000,391.200 138.000 C 390.980 138.000,390.800 137.460,390.800 136.800 C 390.800 136.140,390.620 135.600,390.400 135.600 C 390.180 135.600,390.000 135.060,390.000 134.400 C 390.000 133.740,389.820 133.200,389.600 133.200 C 389.380 133.200,389.200 132.660,389.200 132.000 C 389.200 131.340,389.020 130.800,388.800 130.800 C 388.580 130.800,388.400 130.440,388.400 130.000 C 388.400 129.560,388.220 129.200,388.000 129.200 C 387.780 129.200,387.600 128.660,387.600 128.000 C 387.600 127.340,387.420 126.800,387.200 126.800 C 386.980 126.800,386.800 126.440,386.800 126.000 C 386.800 125.560,386.620 125.200,386.400 125.200 C 386.180 125.200,386.000 124.660,386.000 124.000 C 386.000 123.340,385.820 122.800,385.600 122.800 C 385.380 122.800,385.200 122.440,385.200 122.000 C 385.200 121.560,385.020 121.200,384.800 121.200 C 384.580 121.200,384.400 120.761,384.400 120.224 C 384.400 119.687,384.220 119.136,384.000 119.000 C 383.780 118.864,383.600 118.403,383.600 117.976 C 383.600 117.549,383.420 117.200,383.200 117.200 C 382.980 117.200,382.800 116.840,382.800 116.400 C 382.800 115.960,382.620 115.600,382.400 115.600 C 382.180 115.600,382.000 115.240,382.000 114.800 C 382.000 114.360,381.820 114.000,381.600 114.000 C 381.380 114.000,381.200 113.640,381.200 113.200 C 381.200 112.760,381.020 112.400,380.800 112.400 C 380.580 112.400,380.400 112.040,380.400 111.600 C 380.400 111.160,380.220 110.800,380.000 110.800 C 379.780 110.800,379.600 110.440,379.600 110.000 C 379.600 109.560,379.420 109.200,379.200 109.200 C 378.980 109.200,378.800 108.840,378.800 108.400 C 378.800 107.960,378.620 107.600,378.400 107.600 C 378.180 107.600,378.000 107.240,378.000 106.800 C 378.000 106.360,377.820 106.000,377.600 106.000 C 377.380 106.000,377.200 105.640,377.200 105.200 C 377.200 104.760,377.020 104.400,376.800 104.400 C 376.580 104.400,376.400 104.040,376.400 103.600 C 376.400 103.160,376.220 102.800,376.000 102.800 C 375.780 102.800,375.600 102.564,375.600 102.275 C 375.600 101.987,375.240 101.364,374.800 100.892 C 374.360 100.420,374.000 99.756,374.000 99.417 C 374.000 99.078,373.820 98.800,373.600 98.800 C 373.380 98.800,373.200 98.440,373.200 98.000 C 373.200 97.560,373.020 97.200,372.800 97.200 C 372.580 97.200,372.400 96.964,372.400 96.675 C 372.400 96.387,372.040 95.764,371.600 95.292 C 371.160 94.820,370.800 94.196,370.800 93.905 C 370.800 93.614,370.440 93.117,370.000 92.800 C 369.560 92.483,369.200 91.943,369.200 91.600 C 369.200 91.257,368.840 90.717,368.400 90.400 C 367.960 90.083,367.600 89.503,367.600 89.112 C 367.600 88.720,367.420 88.400,367.200 88.400 C 366.980 88.400,366.800 88.157,366.800 87.859 C 366.800 87.562,366.260 86.754,365.600 86.063 C 364.940 85.372,364.400 84.575,364.400 84.292 C 364.400 84.009,364.040 83.517,363.600 83.200 C 363.160 82.883,362.800 82.420,362.800 82.171 C 362.800 81.922,362.260 81.154,361.600 80.463 C 360.940 79.772,360.400 79.047,360.400 78.852 C 360.400 78.656,359.680 77.755,358.800 76.848 C 357.920 75.941,357.200 75.005,357.200 74.768 C 357.200 74.531,356.480 73.646,355.600 72.800 C 354.720 71.954,354.000 71.082,354.000 70.862 C 354.000 70.642,352.740 69.186,351.200 67.628 C 349.660 66.069,348.400 64.626,348.400 64.419 C 348.400 63.930,336.070 51.600,335.581 51.600 C 335.374 51.600,333.931 50.340,332.372 48.800 C 330.814 47.260,329.358 46.000,329.138 46.000 C 328.918 46.000,328.046 45.280,327.200 44.400 C 326.354 43.520,325.469 42.800,325.232 42.800 C 324.995 42.800,324.059 42.080,323.152 41.200 C 322.245 40.320,321.344 39.600,321.148 39.600 C 320.953 39.600,320.228 39.060,319.537 38.400 C 318.846 37.740,318.078 37.200,317.829 37.200 C 317.580 37.200,317.117 36.840,316.800 36.400 C 316.483 35.960,315.991 35.600,315.708 35.600 C 315.425 35.600,314.628 35.060,313.937 34.400 C 313.246 33.740,312.438 33.200,312.141 33.200 C 311.843 33.200,311.600 33.020,311.600 32.800 C 311.600 32.580,311.280 32.400,310.888 32.400 C 310.497 32.400,309.917 32.040,309.600 31.600 C 309.283 31.160,308.743 30.800,308.400 30.800 C 308.057 30.800,307.517 30.440,307.200 30.000 C 306.883 29.560,306.386 29.200,306.095 29.200 C 305.804 29.200,305.180 28.840,304.708 28.400 C 304.236 27.960,303.613 27.600,303.325 27.600 C 303.036 27.600,302.800 27.420,302.800 27.200 C 302.800 26.980,302.440 26.800,302.000 26.800 C 301.560 26.800,301.200 26.620,301.200 26.400 C 301.200 26.180,300.922 26.000,300.583 26.000 C 300.244 26.000,299.580 25.640,299.108 25.200 C 298.636 24.760,298.013 24.400,297.725 24.400 C 297.436 24.400,297.200 24.220,297.200 24.000 C 297.200 23.780,296.840 23.600,296.400 23.600 C 295.960 23.600,295.600 23.420,295.600 23.200 C 295.600 22.980,295.240 22.800,294.800 22.800 C 294.360 22.800,294.000 22.620,294.000 22.400 C 294.000 22.180,293.640 22.000,293.200 22.000 C 292.760 22.000,292.400 21.820,292.400 21.600 C 292.400 21.380,292.040 21.200,291.600 21.200 C 291.160 21.200,290.800 21.020,290.800 20.800 C 290.800 20.580,290.440 20.400,290.000 20.400 C 289.560 20.400,289.200 20.220,289.200 20.000 C 289.200 19.780,288.840 19.600,288.400 19.600 C 287.960 19.600,287.600 19.420,287.600 19.200 C 287.600 18.980,287.240 18.800,286.800 18.800 C 286.360 18.800,286.000 18.620,286.000 18.400 C 286.000 18.180,285.640 18.000,285.200 18.000 C 284.760 18.000,284.400 17.820,284.400 17.600 C 284.400 17.380,284.040 17.200,283.600 17.200 C 283.160 17.200,282.800 17.020,282.800 16.800 C 282.800 16.580,282.451 16.400,282.024 16.400 C 281.597 16.400,281.136 16.220,281.000 16.000 C 280.864 15.780,280.313 15.600,279.776 15.600 C 279.239 15.600,278.800 15.420,278.800 15.200 C 278.800 14.980,278.440 14.800,278.000 14.800 C 277.560 14.800,277.200 14.620,277.200 14.400 C 277.200 14.180,276.660 14.000,276.000 14.000 C 275.340 14.000,274.800 13.820,274.800 13.600 C 274.800 13.380,274.440 13.200,274.000 13.200 C 273.560 13.200,273.200 13.020,273.200 12.800 C 273.200 12.580,272.660 12.400,272.000 12.400 C 271.340 12.400,270.800 12.220,270.800 12.000 C 270.800 11.780,270.451 11.600,270.024 11.600 C 269.597 11.600,269.136 11.420,269.000 11.200 C 268.864 10.980,268.313 10.800,267.776 10.800 C 267.239 10.800,266.800 10.620,266.800 10.400 C 266.800 10.180,266.260 10.000,265.600 10.000 C 264.940 10.000,264.400 9.820,264.400 9.600 C 264.400 9.380,263.860 9.200,263.200 9.200 C 262.540 9.200,262.000 9.020,262.000 8.800 C 262.000 8.580,261.460 8.400,260.800 8.400 C 260.140 8.400,259.600 8.220,259.600 8.000 C 259.600 7.780,258.880 7.600,258.000 7.600 C 257.120 7.600,256.400 7.420,256.400 7.200 C 256.400 6.980,255.871 6.800,255.224 6.800 C 254.577 6.800,253.936 6.620,253.800 6.400 C 253.664 6.180,252.933 6.000,252.176 6.000 C 251.419 6.000,250.800 5.820,250.800 5.600 C 250.800 5.380,250.080 5.200,249.200 5.200 C 248.320 5.200,247.600 5.020,247.600 4.800 C 247.600 4.580,246.891 4.400,246.024 4.400 C 245.157 4.400,244.336 4.220,244.200 4.000 C 244.064 3.780,243.153 3.600,242.176 3.600 C 241.199 3.600,240.400 3.420,240.400 3.200 C 240.400 2.978,239.333 2.800,238.000 2.800 C 236.667 2.800,235.600 2.622,235.600 2.400 C 235.600 2.180,234.700 2.000,233.600 2.000 C 232.500 2.000,231.600 1.820,231.600 1.600 C 231.600 1.367,230.278 1.200,228.433 1.200 C 226.304 1.200,225.214 1.041,225.105 0.714 C 224.944 0.233,187.802 -0.118,178.500 0.274 M216.800 57.827 C 332.240 71.207,384.042 211.185,305.293 296.950 C 226.535 382.724,82.278 342.240,59.603 228.000 C 40.715 132.836,120.333 46.646,216.800 57.827 M195.600 129.441 C 151.203 134.494,122.462 180.779,137.218 223.459 C 144.371 244.148,161.132 260.546,182.299 267.564 C 197.283 272.532,216.462 271.829,231.084 265.776 C 239.916 262.120,254.000 252.812,254.000 250.630 C 254.000 250.389,249.244 245.450,243.431 239.654 L 232.862 229.115 230.131 231.310 C 203.103 253.034,163.844 234.490,163.844 200.000 C 163.844 165.910,203.057 147.059,229.673 168.354 L 232.877 170.918 243.438 160.362 C 249.247 154.556,254.000 149.624,254.000 149.402 C 254.000 149.181,252.582 147.769,250.848 146.266 C 236.216 133.582,215.270 127.203,195.600 129.441 " stroke="none" fill="#fbfbfc" fill-rule="evenodd"></path><path id="path2" d="M193.500 57.499 C 197.075 57.566,202.925 57.566,206.500 57.499 C 210.075 57.433,207.150 57.379,200.000 57.379 C 192.850 57.379,189.925 57.433,193.500 57.499 M181.600 58.000 L 179.800 58.280 181.400 58.293 C 182.280 58.300,183.540 58.168,184.200 58.000 C 185.800 57.593,184.219 57.593,181.600 58.000 M215.800 57.985 C 217.022 58.311,220.270 58.520,219.967 58.253 C 219.875 58.172,218.630 58.007,217.200 57.885 C 215.562 57.746,215.044 57.782,215.800 57.985 M176.200 58.800 C 175.122 59.074,175.102 59.106,176.000 59.113 C 176.550 59.117,177.450 58.976,178.000 58.800 C 179.344 58.369,177.892 58.369,176.200 58.800 M222.000 58.800 C 222.550 58.976,223.450 59.117,224.000 59.113 C 224.898 59.106,224.878 59.074,223.800 58.800 C 222.108 58.369,220.656 58.369,222.000 58.800 M171.800 59.600 C 170.722 59.874,170.702 59.906,171.600 59.913 C 172.150 59.917,173.050 59.776,173.600 59.600 C 174.944 59.169,173.492 59.169,171.800 59.600 M226.400 59.600 C 226.950 59.776,227.850 59.917,228.400 59.913 C 229.298 59.906,229.278 59.874,228.200 59.600 C 226.508 59.169,225.056 59.169,226.400 59.600 M168.000 60.400 C 167.196 60.657,167.157 60.723,167.800 60.732 C 168.240 60.738,168.960 60.589,169.400 60.400 C 170.419 59.962,169.368 59.962,168.000 60.400 M230.600 60.400 C 231.040 60.589,231.760 60.738,232.200 60.732 C 232.843 60.723,232.804 60.657,232.000 60.400 C 230.632 59.962,229.581 59.962,230.600 60.400 M164.800 61.200 C 163.976 61.464,163.941 61.526,164.600 61.554 C 165.040 61.573,165.670 61.413,166.000 61.200 C 166.701 60.747,166.214 60.747,164.800 61.200 M234.000 61.182 C 234.330 61.405,234.945 61.591,235.367 61.594 C 236.390 61.602,236.071 61.373,234.600 61.044 C 233.724 60.848,233.562 60.885,234.000 61.182 M129.800 75.200 C 129.140 75.637,128.780 75.992,129.000 75.988 C 129.401 75.982,131.576 74.423,131.200 74.412 C 131.090 74.408,130.460 74.763,129.800 75.200 M269.600 75.164 C 270.150 75.614,270.780 75.983,271.000 75.985 C 271.428 75.988,270.705 75.434,269.400 74.760 C 268.869 74.485,268.936 74.621,269.600 75.164 M127.000 76.800 C 126.340 77.237,125.980 77.592,126.200 77.588 C 126.601 77.582,128.776 76.023,128.400 76.012 C 128.290 76.008,127.660 76.363,127.000 76.800 M272.400 76.764 C 272.950 77.214,273.580 77.583,273.800 77.585 C 274.228 77.588,273.505 77.034,272.200 76.360 C 271.669 76.085,271.736 76.221,272.400 76.764 M120.895 80.611 C 119.743 81.386,118.800 82.108,118.800 82.215 C 118.800 82.321,119.790 81.751,121.000 80.947 C 122.922 79.671,123.487 79.200,123.095 79.200 C 123.037 79.200,122.047 79.835,120.895 80.611 M276.800 79.321 C 276.800 79.412,277.835 80.151,279.100 80.963 C 280.365 81.775,280.908 82.021,280.306 81.510 C 279.118 80.500,276.800 79.053,276.800 79.321 M113.600 85.831 C 111.730 87.272,109.930 88.735,109.600 89.082 C 109.270 89.428,110.845 88.322,113.100 86.624 C 116.652 83.950,117.547 83.184,117.100 83.205 C 117.045 83.207,115.470 84.389,113.600 85.831 M282.800 83.319 C 282.800 83.439,284.600 84.906,286.800 86.580 C 289.000 88.254,290.800 89.544,290.800 89.445 C 290.800 89.302,287.716 86.851,283.300 83.483 C 283.025 83.274,282.800 83.200,282.800 83.319 M105.345 92.720 C 103.569 94.414,102.946 95.080,103.962 94.200 C 104.977 93.320,106.500 92.004,107.346 91.275 C 108.192 90.547,108.814 89.881,108.729 89.796 C 108.644 89.710,107.121 91.026,105.345 92.720 M291.237 89.859 C 291.257 90.046,292.832 91.540,294.737 93.178 C 296.642 94.816,297.840 95.741,297.400 95.233 C 296.167 93.810,291.195 89.474,291.237 89.859 M98.591 98.809 C 97.512 99.904,96.754 100.800,96.905 100.800 C 97.282 100.800,100.893 97.160,100.704 96.971 C 100.620 96.887,99.669 97.714,98.591 98.809 M299.200 96.905 C 299.200 97.282,302.840 100.893,303.029 100.704 C 303.113 100.620,302.286 99.669,301.191 98.591 C 300.096 97.512,299.200 96.754,299.200 96.905 M92.660 105.292 C 91.005 107.102,89.718 108.651,89.801 108.734 C 89.883 108.816,90.547 108.192,91.275 107.346 C 92.004 106.500,93.390 104.951,94.355 103.904 C 95.320 102.857,96.010 102.000,95.889 102.000 C 95.768 102.000,94.315 103.481,92.660 105.292 M305.800 103.962 C 306.680 104.977,307.996 106.500,308.725 107.346 C 309.453 108.192,310.119 108.814,310.204 108.729 C 310.290 108.644,308.974 107.121,307.280 105.345 C 305.586 103.569,304.920 102.946,305.800 103.962 M86.566 112.700 C 85.080 114.625,83.693 116.425,83.483 116.700 C 83.274 116.975,83.200 117.200,83.319 117.200 C 83.439 117.200,84.906 115.400,86.580 113.200 C 88.254 111.000,89.544 109.200,89.445 109.200 C 89.347 109.200,88.051 110.775,86.566 112.700 M313.420 113.200 C 315.094 115.400,316.561 117.200,316.681 117.200 C 316.800 117.200,316.726 116.975,316.517 116.700 C 313.149 112.284,310.698 109.200,310.555 109.200 C 310.456 109.200,311.746 111.000,313.420 113.200 M80.887 120.500 C 79.427 122.656,79.112 123.200,79.320 123.200 C 79.412 123.200,80.144 122.210,80.947 121.000 C 81.751 119.790,82.325 118.800,82.223 118.800 C 82.122 118.800,81.520 119.565,80.887 120.500 M319.037 120.900 C 319.849 122.165,320.588 123.200,320.679 123.200 C 320.947 123.200,319.500 120.882,318.490 119.694 C 317.979 119.092,318.225 119.635,319.037 120.900 M76.653 127.300 L 75.933 128.600 76.758 127.600 C 77.489 126.713,77.814 126.000,77.486 126.000 C 77.424 126.000,77.049 126.585,76.653 127.300 M322.415 126.200 C 322.417 126.420,322.786 127.050,323.236 127.600 C 323.779 128.264,323.915 128.331,323.640 127.800 C 322.966 126.495,322.412 125.772,322.415 126.200 M75.053 130.100 L 74.333 131.400 75.158 130.400 C 75.889 129.513,76.214 128.800,75.886 128.800 C 75.824 128.800,75.449 129.385,75.053 130.100 M194.088 129.228 C 190.223 129.730,180.514 132.247,180.911 132.644 C 180.989 132.722,181.671 132.598,182.426 132.369 C 189.984 130.071,193.257 129.550,201.627 129.314 C 212.952 128.995,220.993 130.229,229.400 133.574 C 233.655 135.267,234.055 135.387,232.400 134.476 C 224.216 129.972,206.763 127.581,194.088 129.228 M324.015 129.000 C 324.017 129.220,324.386 129.850,324.836 130.400 C 325.379 131.064,325.515 131.131,325.240 130.600 C 324.566 129.295,324.012 128.572,324.015 129.000 M175.200 134.764 C 166.314 138.792,157.658 145.034,151.574 151.800 C 148.178 155.576,148.614 155.397,152.371 151.472 C 159.293 144.241,168.132 137.995,175.800 134.918 C 178.805 133.713,180.550 132.857,180.000 132.858 C 179.670 132.859,177.510 133.716,175.200 134.764 M237.800 137.325 C 243.781 140.477,254.000 148.095,254.000 149.402 C 254.000 149.624,249.247 154.556,243.438 160.362 L 232.877 170.918 229.673 168.354 C 226.815 166.068,220.679 162.389,219.753 162.407 C 219.559 162.410,220.840 163.187,222.600 164.132 C 226.135 166.030,228.635 167.749,230.883 169.829 C 231.698 170.583,232.509 171.200,232.685 171.200 C 233.181 171.200,254.400 149.852,254.400 149.353 C 254.400 147.496,236.723 135.146,234.153 135.209 C 233.959 135.213,235.600 136.166,237.800 137.325 M147.531 156.700 C 146.163 158.177,143.705 161.930,141.669 165.649 C 139.074 170.390,139.705 169.873,142.507 164.963 C 143.886 162.546,145.864 159.451,146.904 158.085 C 148.943 155.403,149.145 154.957,147.531 156.700 M200.000 159.560 C 199.010 159.692,200.990 159.805,204.400 159.811 C 208.416 159.818,209.825 159.726,208.400 159.550 C 205.774 159.227,202.472 159.231,200.000 159.560 M195.400 160.284 C 191.231 161.278,184.663 163.944,186.276 163.987 C 186.538 163.994,186.859 163.829,186.988 163.619 C 187.218 163.246,193.425 161.206,196.600 160.459 C 197.608 160.222,197.830 160.085,197.200 160.088 C 196.650 160.091,195.840 160.179,195.400 160.284 M212.200 160.420 C 213.080 160.643,214.942 161.192,216.337 161.642 C 217.733 162.091,218.959 162.374,219.062 162.272 C 219.348 161.985,214.346 160.455,212.361 160.222 L 210.600 160.016 212.200 160.420 M61.246 164.467 C 61.221 164.834,61.096 165.464,60.970 165.867 C 60.752 166.562,60.763 166.563,61.197 165.887 C 61.448 165.496,61.573 164.866,61.473 164.487 C 61.311 163.868,61.288 163.866,61.246 164.467 M183.600 165.065 C 179.353 167.560,174.700 171.830,171.326 176.328 C 169.709 178.483,166.175 185.108,166.479 185.412 C 166.561 185.494,167.422 183.946,168.392 181.972 C 171.486 175.673,177.798 168.805,183.481 165.554 C 184.646 164.887,185.600 164.264,185.600 164.171 C 185.600 163.903,185.508 163.944,183.600 165.065 M338.406 164.633 C 338.409 165.055,338.595 165.670,338.818 166.000 C 339.115 166.438,339.152 166.276,338.956 165.400 C 338.627 163.929,338.398 163.610,338.406 164.633 M60.250 168.450 C 59.917 170.117,60.240 170.440,60.600 168.800 C 60.752 168.109,60.793 167.459,60.691 167.358 C 60.589 167.256,60.391 167.747,60.250 168.450 M339.268 167.800 C 339.262 168.240,339.411 168.960,339.600 169.400 C 340.038 170.419,340.038 169.368,339.600 168.000 C 339.343 167.196,339.277 167.157,339.268 167.800 M59.649 171.400 C 59.616 171.840,59.496 172.650,59.383 173.200 L 59.177 174.200 59.606 173.219 C 59.842 172.679,59.961 171.869,59.872 171.419 C 59.713 170.621,59.707 170.621,59.649 171.400 M340.028 171.633 C 340.044 172.165,340.219 172.960,340.419 173.400 C 340.671 173.958,340.707 173.715,340.538 172.600 C 340.255 170.743,339.987 170.236,340.028 171.633 M138.097 173.088 C 136.473 176.911,134.089 185.422,134.521 185.855 C 134.635 185.969,134.945 185.013,135.209 183.731 C 135.771 180.999,137.406 175.745,138.472 173.243 C 138.883 172.277,139.150 171.417,139.065 171.331 C 138.979 171.246,138.543 172.036,138.097 173.088 M58.640 176.840 C 58.493 177.757,58.452 178.585,58.547 178.680 C 58.642 178.776,58.846 178.110,59.000 177.200 C 59.154 176.290,59.196 175.462,59.093 175.360 C 58.990 175.257,58.787 175.923,58.640 176.840 M340.887 176.000 C 340.883 176.550,341.024 177.450,341.200 178.000 C 341.631 179.344,341.631 177.892,341.200 176.200 C 340.926 175.122,340.894 175.102,340.887 176.000 M57.866 182.368 C 57.719 183.778,57.674 185.007,57.766 185.100 C 58.014 185.347,58.515 180.946,58.310 180.330 C 58.213 180.040,58.014 180.957,57.866 182.368 M341.647 181.433 C 341.673 182.295,341.839 183.540,342.015 184.200 C 342.218 184.956,342.254 184.438,342.115 182.800 C 341.867 179.886,341.575 179.031,341.647 181.433 M165.800 186.800 C 165.650 187.273,165.617 187.750,165.727 187.860 C 165.837 187.970,166.050 187.673,166.200 187.200 C 166.350 186.727,166.383 186.250,166.273 186.140 C 166.163 186.030,165.950 186.327,165.800 186.800 M133.785 188.585 C 133.630 189.823,133.593 190.927,133.703 191.037 C 133.813 191.147,134.030 190.223,134.185 188.985 C 134.339 187.746,134.376 186.643,134.266 186.533 C 134.156 186.423,133.939 187.346,133.785 188.585 M57.122 194.300 C 57.009 198.205,57.029 204.010,57.166 207.200 C 57.357 211.652,57.426 210.002,57.463 200.100 C 57.489 193.005,57.469 187.200,57.418 187.200 C 57.367 187.200,57.234 190.395,57.122 194.300 M342.570 200.000 C 342.570 210.638,342.619 211.819,342.839 206.500 C 342.988 202.925,342.988 197.075,342.839 193.500 C 342.619 188.181,342.570 189.362,342.570 200.000 M165.029 189.429 C 164.881 190.015,164.838 190.572,164.932 190.666 C 165.027 190.760,165.224 190.358,165.371 189.771 C 165.519 189.185,165.562 188.628,165.468 188.534 C 165.373 188.440,165.176 188.842,165.029 189.429 M164.218 193.018 C 164.065 194.039,164.030 194.963,164.140 195.073 C 164.250 195.183,164.465 194.439,164.618 193.418 C 164.771 192.398,164.806 191.473,164.696 191.363 C 164.586 191.253,164.371 191.998,164.218 193.018 M132.978 195.900 C 132.675 200.257,133.260 209.649,134.005 212.400 C 134.368 213.739,134.376 213.721,134.195 212.000 C 134.090 211.010,133.808 208.310,133.568 206.000 C 133.318 203.595,133.243 199.620,133.392 196.700 C 133.708 190.508,133.395 189.902,132.978 195.900 M163.740 200.000 C 163.740 201.870,163.809 202.635,163.893 201.700 C 163.977 200.765,163.977 199.235,163.893 198.300 C 163.809 197.365,163.740 198.130,163.740 200.000 M164.095 205.400 C 164.095 206.060,164.232 207.140,164.400 207.800 L 164.705 209.000 164.705 207.800 C 164.705 207.140,164.568 206.060,164.400 205.400 L 164.095 204.200 164.095 205.400 M164.856 209.600 C 164.856 209.930,165.011 210.560,165.200 211.000 C 165.417 211.504,165.544 211.578,165.544 211.200 C 165.544 210.870,165.389 210.240,165.200 209.800 C 164.983 209.296,164.856 209.222,164.856 209.600 M165.612 212.400 C 165.612 212.730,165.787 213.270,166.000 213.600 C 166.345 214.133,166.388 214.133,166.388 213.600 C 166.388 213.270,166.213 212.730,166.000 212.400 C 165.655 211.867,165.612 211.867,165.612 212.400 M134.442 214.294 C 134.238 216.696,140.286 233.600,141.349 233.600 C 141.458 233.600,140.855 232.115,140.008 230.300 C 138.253 226.537,135.615 219.146,135.569 217.861 C 135.533 216.838,134.503 213.579,134.442 214.294 M166.415 214.539 C 166.238 218.425,177.685 232.150,183.318 234.807 C 184.053 235.154,184.035 235.104,183.210 234.512 C 175.774 229.169,171.736 224.648,168.229 217.741 C 167.240 215.793,166.424 214.353,166.415 214.539 M57.885 217.200 C 58.007 218.630,58.172 219.875,58.253 219.967 C 58.520 220.270,58.311 217.022,57.985 215.800 C 57.782 215.044,57.746 215.562,57.885 217.200 M341.872 216.204 C 341.727 217.082,341.629 218.340,341.653 219.000 C 341.678 219.660,341.855 219.120,342.048 217.800 C 342.440 215.115,342.285 213.707,341.872 216.204 M58.487 221.800 C 58.491 222.240,58.632 223.140,58.800 223.800 C 59.074 224.878,59.106 224.898,59.113 224.000 C 59.117 223.450,58.976 222.550,58.800 222.000 C 58.549 221.216,58.481 221.173,58.487 221.800 M341.000 222.800 C 340.846 223.710,340.804 224.538,340.907 224.640 C 341.010 224.743,341.213 224.077,341.360 223.160 C 341.507 222.243,341.548 221.415,341.453 221.320 C 341.358 221.224,341.154 221.890,341.000 222.800 M59.287 226.200 C 59.291 226.640,59.432 227.540,59.600 228.200 C 59.874 229.278,59.906 229.298,59.913 228.400 C 59.917 227.850,59.776 226.950,59.600 226.400 C 59.349 225.616,59.281 225.573,59.287 226.200 M340.200 227.200 C 340.046 228.110,340.004 228.938,340.107 229.040 C 340.210 229.143,340.413 228.477,340.560 227.560 C 340.707 226.643,340.748 225.815,340.653 225.720 C 340.558 225.624,340.354 226.290,340.200 227.200 M232.220 229.167 C 231.687 230.031,225.745 234.180,222.704 235.813 C 220.887 236.788,219.619 237.590,219.886 237.593 C 220.971 237.608,226.503 234.213,230.131 231.304 L 232.862 229.115 243.431 239.654 C 249.244 245.450,254.000 250.389,254.000 250.630 C 254.000 251.265,248.174 256.141,244.110 258.906 C 226.661 270.779,202.292 274.192,182.299 267.564 C 166.388 262.289,151.754 250.782,143.754 237.255 C 141.836 234.012,141.471 233.548,142.452 235.600 C 143.389 237.559,145.830 241.298,147.773 243.747 C 171.422 273.568,213.137 280.220,244.404 259.157 C 248.383 256.476,254.400 251.372,254.400 250.676 C 254.400 250.181,233.212 228.800,232.721 228.800 C 232.570 228.800,232.345 228.965,232.220 229.167 M60.068 230.400 C 60.088 231.439,60.718 233.146,60.732 232.200 C 60.738 231.760,60.589 231.040,60.400 230.600 C 60.189 230.110,60.061 230.032,60.068 230.400 M339.400 231.200 C 339.248 231.891,339.207 232.541,339.309 232.642 C 339.411 232.744,339.609 232.253,339.750 231.550 C 339.891 230.847,339.931 230.198,339.841 230.108 C 339.750 230.017,339.552 230.509,339.400 231.200 M61.044 234.600 C 61.373 236.071,61.602 236.390,61.594 235.367 C 61.591 234.945,61.405 234.330,61.182 234.000 C 60.885 233.562,60.848 233.724,61.044 234.600 M338.649 234.215 C 338.512 234.573,338.415 235.166,338.434 235.533 C 338.453 235.900,338.627 235.669,338.821 235.020 C 339.198 233.758,339.065 233.133,338.649 234.215 M184.400 235.392 C 184.400 237.732,202.114 241.514,208.400 240.516 C 210.201 240.230,209.584 240.168,205.000 240.175 C 201.806 240.179,198.369 239.955,197.000 239.654 C 193.412 238.864,187.576 236.909,186.090 236.001 C 184.749 235.181,184.400 235.055,184.400 235.392 M216.200 238.394 C 215.100 238.787,213.390 239.303,212.400 239.540 L 210.600 239.970 212.361 239.771 C 214.951 239.477,220.950 237.460,218.700 237.640 C 218.425 237.662,217.300 238.001,216.200 238.394 M74.760 269.400 C 75.434 270.705,75.988 271.428,75.985 271.000 C 75.983 270.780,75.614 270.150,75.164 269.600 C 74.621 268.936,74.485 268.869,74.760 269.400 M324.614 269.835 C 324.241 270.404,324.005 270.938,324.089 271.022 C 324.173 271.107,324.558 270.641,324.944 269.988 C 325.806 268.528,325.548 268.409,324.614 269.835 M76.360 272.200 C 77.034 273.505,77.588 274.228,77.585 273.800 C 77.583 273.580,77.214 272.950,76.764 272.400 C 76.221 271.736,76.085 271.669,76.360 272.200 M323.014 272.635 C 322.641 273.204,322.405 273.738,322.489 273.822 C 322.573 273.907,322.958 273.441,323.344 272.788 C 324.206 271.328,323.948 271.209,323.014 272.635 M79.867 278.006 C 80.259 278.670,80.998 279.705,81.510 280.306 C 82.021 280.908,81.775 280.365,80.963 279.100 C 79.424 276.703,78.628 275.907,79.867 278.006 M319.037 279.100 C 318.225 280.365,317.979 280.908,318.490 280.306 C 319.500 279.118,320.947 276.800,320.679 276.800 C 320.588 276.800,319.849 277.835,319.037 279.100 M83.483 283.300 C 86.851 287.716,89.302 290.800,89.445 290.800 C 89.544 290.800,88.254 289.000,86.580 286.800 C 84.906 284.600,83.439 282.800,83.319 282.800 C 83.200 282.800,83.274 283.025,83.483 283.300 M313.420 286.800 C 311.746 289.000,310.456 290.800,310.555 290.800 C 310.698 290.800,313.149 287.716,316.517 283.300 C 316.726 283.025,316.800 282.800,316.681 282.800 C 316.561 282.800,315.094 284.600,313.420 286.800 M91.914 293.900 C 93.232 295.385,94.725 296.960,95.233 297.400 C 95.741 297.840,94.816 296.642,93.178 294.737 C 91.540 292.832,90.046 291.257,89.859 291.237 C 89.671 291.217,90.596 292.415,91.914 293.900 M306.822 294.737 C 305.184 296.642,304.259 297.840,304.767 297.400 C 306.190 296.167,310.526 291.195,310.141 291.237 C 309.954 291.257,308.460 292.832,306.822 294.737 M98.591 301.191 C 99.669 302.286,100.620 303.113,100.704 303.029 C 100.893 302.840,97.282 299.200,96.905 299.200 C 96.754 299.200,97.512 300.096,98.591 301.191 M300.871 301.076 C 299.921 302.066,299.211 302.945,299.295 303.029 C 299.379 303.113,300.331 302.286,301.409 301.191 C 302.488 300.096,303.197 299.217,302.985 299.238 C 302.773 299.258,301.822 300.085,300.871 301.076 M105.345 307.280 C 107.121 308.974,108.644 310.290,108.729 310.204 C 108.814 310.119,108.192 309.453,107.346 308.725 C 106.500 307.996,104.977 306.680,103.962 305.800 C 102.946 304.920,103.569 305.586,105.345 307.280 M295.999 305.709 C 295.009 306.639,293.505 307.996,292.657 308.725 C 291.810 309.453,291.186 310.119,291.271 310.204 C 291.356 310.290,292.950 308.937,294.813 307.199 C 296.676 305.461,298.110 304.034,298.000 304.029 C 297.890 304.023,296.990 304.779,295.999 305.709 M109.200 310.555 C 109.200 310.698,112.284 313.149,116.700 316.517 C 116.975 316.726,117.200 316.800,117.200 316.681 C 117.200 316.561,115.400 315.094,113.200 313.420 C 111.000 311.746,109.200 310.456,109.200 310.555 M287.073 313.172 C 283.916 315.608,281.480 317.732,283.200 316.548 C 284.709 315.510,290.800 310.716,290.800 310.567 C 290.800 310.298,290.759 310.327,287.073 313.172 M119.694 318.490 C 120.882 319.500,123.200 320.947,123.200 320.679 C 123.200 320.588,122.165 319.849,120.900 319.037 C 119.635 318.225,119.092 317.979,119.694 318.490 M279.087 318.968 C 276.726 320.602,276.164 321.175,277.906 320.172 C 279.250 319.399,281.556 317.623,281.200 317.636 C 281.090 317.641,280.139 318.240,279.087 318.968 M126.400 322.820 C 127.787 323.761,128.578 324.035,127.600 323.236 C 127.050 322.786,126.420 322.417,126.200 322.415 C 125.980 322.413,126.070 322.596,126.400 322.820 M272.400 323.236 C 271.736 323.779,271.669 323.915,272.200 323.640 C 273.505 322.966,274.228 322.412,273.800 322.415 C 273.580 322.417,272.950 322.786,272.400 323.236 M129.200 324.420 C 130.587 325.361,131.378 325.635,130.400 324.836 C 129.850 324.386,129.220 324.017,129.000 324.015 C 128.780 324.013,128.870 324.196,129.200 324.420 M269.600 324.836 C 268.936 325.379,268.869 325.515,269.400 325.240 C 270.705 324.566,271.428 324.012,271.000 324.015 C 270.780 324.017,270.150 324.386,269.600 324.836 M164.033 338.544 C 164.125 338.623,164.740 338.808,165.400 338.956 C 166.276 339.152,166.438 339.115,166.000 338.818 C 165.460 338.453,163.632 338.198,164.033 338.544 M234.000 338.818 C 233.562 339.115,233.724 339.152,234.600 338.956 C 236.071 338.627,236.390 338.398,235.367 338.406 C 234.945 338.409,234.330 338.595,234.000 338.818 M168.000 339.600 C 169.368 340.038,170.419 340.038,169.400 339.600 C 168.960 339.411,168.240 339.262,167.800 339.268 C 167.157 339.277,167.196 339.343,168.000 339.600 M230.600 339.600 C 229.581 340.038,230.632 340.038,232.000 339.600 C 232.804 339.343,232.843 339.277,232.200 339.268 C 231.760 339.262,231.040 339.411,230.600 339.600 M170.833 340.147 C 170.925 340.228,171.720 340.404,172.600 340.538 C 173.715 340.707,173.958 340.671,173.400 340.419 C 172.632 340.071,170.490 339.844,170.833 340.147 M226.600 340.419 C 226.042 340.671,226.285 340.707,227.400 340.538 C 228.280 340.404,229.075 340.228,229.167 340.147 C 229.510 339.844,227.368 340.071,226.600 340.419 M176.200 341.200 C 177.892 341.631,179.344 341.631,178.000 341.200 C 177.450 341.024,176.550 340.883,176.000 340.887 C 175.102 340.894,175.122 340.926,176.200 341.200 M222.000 341.200 C 220.656 341.631,222.108 341.631,223.800 341.200 C 224.878 340.926,224.898 340.894,224.000 340.887 C 223.450 340.883,222.550 341.024,222.000 341.200 M180.033 341.747 C 180.125 341.828,181.370 341.993,182.800 342.115 C 184.438 342.254,184.956 342.218,184.200 342.015 C 182.978 341.689,179.730 341.480,180.033 341.747 M215.800 342.015 C 215.044 342.218,215.562 342.254,217.200 342.115 C 218.630 341.993,219.875 341.828,219.967 341.747 C 220.270 341.480,217.022 341.689,215.800 342.015 M193.500 342.839 C 197.075 342.988,202.925 342.988,206.500 342.839 C 211.819 342.619,210.638 342.570,200.000 342.570 C 189.362 342.570,188.181 342.619,193.500 342.839 " stroke="none" fill="#a2bbfc" fill-rule="evenodd"></path><path id="path3" d="M202.900 128.691 C 203.725 128.778,205.075 128.778,205.900 128.691 C 206.725 128.605,206.050 128.534,204.400 128.534 C 202.750 128.534,202.075 128.605,202.900 128.691 M249.578 154.700 L 248.200 156.200 249.700 154.822 C 251.096 153.538,251.384 153.200,251.078 153.200 C 251.012 153.200,250.337 153.875,249.578 154.700 M203.107 159.890 C 203.826 159.979,204.906 159.977,205.507 159.886 C 206.108 159.795,205.520 159.722,204.200 159.724 C 202.880 159.726,202.388 159.801,203.107 159.890 M132.893 194.400 C 132.893 195.170,132.975 195.485,133.076 195.100 C 133.176 194.715,133.176 194.085,133.076 193.700 C 132.975 193.315,132.893 193.630,132.893 194.400 M57.334 200.000 C 57.334 201.650,57.405 202.325,57.491 201.500 C 57.578 200.675,57.578 199.325,57.491 198.500 C 57.405 197.675,57.334 198.350,57.334 200.000 M342.534 200.000 C 342.534 201.650,342.605 202.325,342.691 201.500 C 342.778 200.675,342.778 199.325,342.691 198.500 C 342.605 197.675,342.534 198.350,342.534 200.000 M132.893 205.600 C 132.893 206.370,132.975 206.685,133.076 206.300 C 133.176 205.915,133.176 205.285,133.076 204.900 C 132.975 204.515,132.893 204.830,132.893 205.600 M202.711 240.293 C 203.651 240.378,205.091 240.377,205.911 240.291 C 206.730 240.205,205.960 240.136,204.200 240.137 C 202.440 240.139,201.770 240.209,202.711 240.293 M202.900 271.491 C 203.725 271.578,205.075 271.578,205.900 271.491 C 206.725 271.405,206.050 271.334,204.400 271.334 C 202.750 271.334,202.075 271.405,202.900 271.491 M198.500 342.691 C 199.325 342.778,200.675 342.778,201.500 342.691 C 202.325 342.605,201.650 342.534,200.000 342.534 C 198.350 342.534,197.675 342.605,198.500 342.691 " stroke="none" fill="#87a4fc" fill-rule="evenodd"></path><path id="path4" d="M184.800 57.974 C 184.030 58.122,186.010 58.174,189.200 58.090 C 192.390 58.006,195.180 57.876,195.400 57.800 C 196.154 57.542,186.201 57.705,184.800 57.974 M204.600 57.800 C 204.820 57.876,207.610 58.009,210.800 58.097 C 214.095 58.187,215.909 58.125,215.000 57.951 C 213.466 57.659,203.776 57.518,204.600 57.800 M178.600 58.820 C 177.811 59.035,178.222 59.070,179.800 58.923 C 181.120 58.800,182.275 58.632,182.367 58.550 C 182.664 58.282,179.834 58.485,178.600 58.820 M217.633 58.550 C 217.725 58.632,218.880 58.800,220.200 58.923 C 221.778 59.070,222.189 59.035,221.400 58.820 C 220.166 58.485,217.336 58.282,217.633 58.550 M174.000 59.600 C 172.656 60.031,174.108 60.031,175.800 59.600 C 176.878 59.326,176.898 59.294,176.000 59.287 C 175.450 59.283,174.550 59.424,174.000 59.600 M224.200 59.600 C 225.892 60.031,227.344 60.031,226.000 59.600 C 225.450 59.424,224.550 59.283,224.000 59.287 C 223.102 59.294,223.122 59.326,224.200 59.600 M169.800 60.400 C 168.781 60.838,169.832 60.838,171.200 60.400 C 172.004 60.143,172.043 60.077,171.400 60.068 C 170.960 60.062,170.240 60.211,169.800 60.400 M228.800 60.400 C 230.168 60.838,231.219 60.838,230.200 60.400 C 229.760 60.211,229.040 60.062,228.600 60.068 C 227.957 60.077,227.996 60.143,228.800 60.400 M166.400 61.218 C 165.962 61.515,166.124 61.552,167.000 61.356 C 168.471 61.027,168.790 60.798,167.767 60.806 C 167.345 60.809,166.730 60.995,166.400 61.218 M231.633 60.944 C 231.725 61.023,232.340 61.208,233.000 61.356 C 233.876 61.552,234.038 61.515,233.600 61.218 C 233.060 60.853,231.232 60.598,231.633 60.944 M163.200 62.018 C 162.762 62.315,162.924 62.352,163.800 62.156 C 165.271 61.827,165.590 61.598,164.567 61.606 C 164.145 61.609,163.530 61.795,163.200 62.018 M234.833 61.744 C 234.925 61.823,235.540 62.008,236.200 62.156 C 237.076 62.352,237.238 62.315,236.800 62.018 C 236.260 61.653,234.432 61.398,234.833 61.744 M140.400 70.200 C 139.850 70.514,139.580 70.772,139.800 70.772 C 140.020 70.772,140.650 70.514,141.200 70.200 C 141.750 69.886,142.020 69.628,141.800 69.628 C 141.580 69.628,140.950 69.886,140.400 70.200 M258.800 70.200 C 259.350 70.514,259.980 70.772,260.200 70.772 C 260.420 70.772,260.150 70.514,259.600 70.200 C 259.050 69.886,258.420 69.628,258.200 69.628 C 257.980 69.628,258.250 69.886,258.800 70.200 M126.400 77.636 C 125.736 78.179,125.669 78.315,126.200 78.040 C 127.505 77.366,128.228 76.812,127.800 76.815 C 127.580 76.817,126.950 77.186,126.400 77.636 M272.400 77.220 C 273.787 78.161,274.578 78.435,273.600 77.636 C 273.050 77.186,272.420 76.817,272.200 76.815 C 271.980 76.813,272.070 76.996,272.400 77.220 M120.726 81.161 C 119.719 81.799,118.762 82.537,118.600 82.801 C 118.365 83.181,122.109 80.812,122.767 80.164 C 123.245 79.694,122.352 80.130,120.726 81.161 M277.200 80.101 C 277.310 80.226,278.390 81.002,279.600 81.826 C 280.810 82.650,281.489 82.972,281.109 82.541 C 280.730 82.110,279.650 81.334,278.709 80.816 C 277.769 80.299,277.090 79.977,277.200 80.101 M112.310 87.300 C 109.950 89.115,108.015 90.731,108.010 90.892 C 108.004 91.052,109.400 90.062,111.111 88.692 C 112.822 87.321,114.847 85.713,115.611 85.119 C 116.375 84.524,116.910 84.029,116.800 84.019 C 116.690 84.008,114.669 85.485,112.310 87.300 M284.389 85.062 C 289.094 88.916,291.998 91.145,291.982 90.892 C 291.963 90.592,287.451 87.012,284.600 85.034 L 283.000 83.924 284.389 85.062 M106.175 92.500 L 105.000 93.800 106.300 92.625 C 107.512 91.530,107.784 91.200,107.475 91.200 C 107.406 91.200,106.821 91.785,106.175 92.500 M292.400 91.325 C 292.400 91.394,292.985 91.979,293.700 92.625 L 295.000 93.800 293.825 92.500 C 292.730 91.288,292.400 91.016,292.400 91.325 M98.995 99.300 L 93.400 105.000 99.100 99.405 C 102.235 96.328,104.800 93.763,104.800 93.705 C 104.800 93.419,104.192 94.005,98.995 99.300 M300.600 99.200 C 303.674 102.280,306.279 104.800,306.389 104.800 C 306.499 104.800,304.074 102.280,301.000 99.200 C 297.926 96.120,295.321 93.600,295.211 93.600 C 295.101 93.600,297.526 96.120,300.600 99.200 M92.175 106.500 L 91.000 107.800 92.300 106.625 C 93.512 105.530,93.784 105.200,93.475 105.200 C 93.406 105.200,92.821 105.785,92.175 106.500 M306.400 105.325 C 306.400 105.394,306.985 105.979,307.700 106.625 L 309.000 107.800 307.825 106.500 C 306.730 105.288,306.400 105.016,306.400 105.325 M88.372 110.918 C 87.147 112.503,85.645 114.520,85.034 115.400 L 83.924 117.000 85.062 115.611 C 88.916 110.906,91.145 108.002,90.892 108.018 C 90.731 108.029,89.597 109.334,88.372 110.918 M311.308 111.111 C 312.679 112.822,314.312 114.847,314.938 115.611 L 316.076 117.000 314.966 115.400 C 312.988 112.549,309.408 108.037,309.108 108.018 C 308.948 108.008,309.938 109.400,311.308 111.111 M81.871 119.700 C 80.947 120.938,79.649 123.222,80.110 122.800 C 80.563 122.384,83.205 118.400,83.027 118.400 C 82.925 118.400,82.404 118.985,81.871 119.700 M318.174 120.400 C 320.073 123.189,320.377 123.457,319.184 121.291 C 318.666 120.350,317.890 119.270,317.459 118.891 C 317.028 118.511,317.350 119.190,318.174 120.400 M77.414 126.635 C 77.041 127.204,76.805 127.738,76.889 127.822 C 76.973 127.907,77.358 127.441,77.744 126.788 C 78.606 125.328,78.348 125.209,77.414 126.635 M321.960 126.200 C 322.634 127.505,323.188 128.228,323.185 127.800 C 323.183 127.580,322.814 126.950,322.364 126.400 C 321.821 125.736,321.685 125.669,321.960 126.200 M198.800 128.372 C 197.150 128.497,199.670 128.602,204.400 128.605 C 210.333 128.608,211.946 128.527,209.600 128.344 C 205.710 128.041,203.065 128.048,198.800 128.372 M191.400 129.200 C 190.330 129.472,190.308 129.505,191.200 129.505 C 191.750 129.505,192.740 129.368,193.400 129.200 C 194.470 128.928,194.492 128.895,193.600 128.895 C 193.050 128.895,192.060 129.032,191.400 129.200 M215.400 129.200 C 217.092 129.631,218.544 129.631,217.200 129.200 C 216.650 129.024,215.750 128.883,215.200 128.887 C 214.302 128.894,214.322 128.926,215.400 129.200 M187.600 130.000 C 186.836 130.494,187.658 130.494,189.200 130.000 L 190.200 129.680 189.200 129.646 C 188.650 129.627,187.930 129.787,187.600 130.000 M218.433 129.747 C 218.525 129.828,219.320 130.004,220.200 130.138 C 221.315 130.307,221.558 130.271,221.000 130.019 C 220.232 129.671,218.090 129.444,218.433 129.747 M184.600 130.800 C 183.581 131.238,184.632 131.238,186.000 130.800 C 186.804 130.543,186.843 130.477,186.200 130.468 C 185.760 130.462,185.040 130.611,184.600 130.800 M222.600 130.800 C 223.796 131.314,224.795 131.314,224.000 130.800 C 223.670 130.587,223.040 130.422,222.600 130.434 L 221.800 130.456 222.600 130.800 M224.800 131.370 C 224.800 131.596,228.932 132.801,229.107 132.626 C 229.253 132.481,225.680 131.200,225.129 131.200 C 224.948 131.200,224.800 131.276,224.800 131.370 M179.200 132.586 C 176.027 133.787,175.498 134.031,175.677 134.211 C 175.847 134.381,180.768 132.542,181.167 132.160 C 181.474 131.865,180.612 132.052,179.200 132.586 M231.633 133.765 C 231.979 134.108,238.000 136.746,238.000 136.554 C 238.000 136.444,236.640 135.735,234.978 134.977 C 232.178 133.701,231.218 133.354,231.633 133.765 M171.096 136.150 C 168.772 137.579,168.774 137.812,171.100 136.605 C 172.255 136.006,173.200 135.445,173.200 135.358 C 173.200 135.015,172.533 135.266,171.096 136.150 M167.200 138.433 L 166.200 139.248 167.500 138.614 C 168.215 138.265,168.800 137.894,168.800 137.790 C 168.800 137.392,168.163 137.648,167.200 138.433 M240.200 137.869 C 240.420 138.087,242.310 139.401,244.400 140.788 C 246.490 142.176,248.645 143.691,249.188 144.155 C 249.892 144.758,250.018 144.794,249.625 144.283 C 249.322 143.889,247.708 142.615,246.037 141.453 C 242.861 139.243,239.513 137.187,240.200 137.869 M70.065 140.617 C 69.395 142.088,69.523 142.402,70.247 141.065 C 70.586 140.440,70.788 139.854,70.696 139.763 C 70.605 139.671,70.321 140.056,70.065 140.617 M329.228 139.800 C 329.228 140.020,329.486 140.650,329.800 141.200 C 330.114 141.750,330.372 142.020,330.372 141.800 C 330.372 141.580,330.114 140.950,329.800 140.400 C 329.486 139.850,329.228 139.580,329.228 139.800 M162.629 141.408 C 161.544 142.158,160.374 143.075,160.029 143.447 C 159.683 143.818,160.535 143.342,161.922 142.388 C 163.308 141.434,164.534 140.507,164.645 140.327 C 164.952 139.830,164.761 139.933,162.629 141.408 M155.362 147.357 C 153.390 149.196,151.074 151.578,150.213 152.651 C 149.353 153.723,150.438 152.793,152.625 150.584 C 154.811 148.375,157.208 146.073,157.950 145.467 C 158.693 144.862,159.221 144.287,159.123 144.190 C 159.025 144.092,157.333 145.517,155.362 147.357 M252.300 146.828 C 253.455 148.036,254.400 149.220,254.400 149.459 C 254.400 150.001,233.326 171.200,232.787 171.200 C 232.571 171.200,231.159 170.165,229.650 168.900 C 227.081 166.746,223.600 164.481,223.600 164.964 C 223.600 165.083,224.143 165.460,224.807 165.804 C 225.471 166.147,227.455 167.592,229.217 169.014 C 230.979 170.436,232.641 171.598,232.910 171.595 C 233.180 171.592,238.315 166.655,244.321 160.624 C 256.606 148.288,255.867 149.615,252.229 146.415 L 250.200 144.631 252.300 146.828 M147.087 156.500 C 144.435 159.798,140.365 166.400,140.984 166.400 C 141.094 166.400,141.540 165.701,141.976 164.847 C 142.920 162.997,146.967 156.975,148.123 155.700 C 148.572 155.205,148.830 154.800,148.697 154.800 C 148.563 154.800,147.838 155.565,147.087 156.500 M197.600 160.402 C 197.000 160.595,197.640 160.637,199.200 160.506 C 200.630 160.386,201.875 160.223,201.967 160.144 C 202.289 159.865,198.588 160.084,197.600 160.402 M206.833 160.144 C 206.925 160.223,208.170 160.386,209.600 160.506 C 211.160 160.637,211.800 160.595,211.200 160.402 C 210.212 160.084,206.511 159.865,206.833 160.144 M192.600 161.634 C 190.500 162.444,191.239 162.365,194.600 161.418 C 195.769 161.088,196.185 160.856,195.600 160.858 C 195.050 160.860,193.700 161.209,192.600 161.634 M212.433 160.943 C 212.525 161.021,213.230 161.201,214.000 161.342 C 214.985 161.523,215.222 161.482,214.800 161.206 C 214.258 160.850,212.037 160.603,212.433 160.943 M186.889 163.784 C 185.300 164.546,184.000 165.268,184.000 165.390 C 184.000 165.512,185.035 165.103,186.300 164.482 C 187.565 163.860,189.050 163.150,189.600 162.903 C 190.150 162.656,190.415 162.442,190.189 162.427 C 189.963 162.412,188.478 163.023,186.889 163.784 M219.238 162.986 C 220.028 163.277,221.243 163.809,221.938 164.168 C 222.632 164.527,223.200 164.718,223.200 164.592 C 223.200 164.251,219.095 162.404,218.400 162.432 C 218.070 162.445,218.447 162.695,219.238 162.986 M61.849 163.415 C 61.712 163.773,61.615 164.366,61.634 164.733 C 61.653 165.100,61.827 164.869,62.021 164.220 C 62.398 162.958,62.265 162.333,61.849 163.415 M337.844 163.800 C 338.173 165.271,338.402 165.590,338.394 164.567 C 338.391 164.145,338.205 163.530,337.982 163.200 C 337.685 162.762,337.648 162.924,337.844 163.800 M61.049 166.615 C 60.912 166.973,60.815 167.566,60.834 167.933 C 60.853 168.300,61.027 168.069,61.221 167.420 C 61.598 166.158,61.465 165.533,61.049 166.615 M338.644 167.000 C 338.973 168.471,339.202 168.790,339.194 167.767 C 339.191 167.345,339.005 166.730,338.782 166.400 C 338.485 165.962,338.448 166.124,338.644 167.000 M178.800 168.975 C 175.794 171.393,169.616 178.661,169.604 179.795 C 169.602 180.012,170.209 179.292,170.953 178.195 C 172.902 175.321,176.768 171.060,179.147 169.166 C 180.932 167.745,181.483 167.192,181.100 167.203 C 181.045 167.205,180.010 168.002,178.800 168.975 M60.200 170.400 C 60.048 171.091,60.007 171.741,60.109 171.842 C 60.211 171.944,60.409 171.453,60.550 170.750 C 60.883 169.083,60.560 168.760,60.200 170.400 M339.268 169.600 C 339.288 170.639,339.918 172.346,339.932 171.400 C 339.938 170.960,339.789 170.240,339.600 169.800 C 339.389 169.310,339.261 169.232,339.268 169.600 M138.272 171.419 C 137.332 173.389,137.464 173.724,138.447 171.862 C 138.893 171.016,139.187 170.254,139.101 170.167 C 139.014 170.081,138.641 170.644,138.272 171.419 M59.422 174.622 C 59.272 175.425,59.228 176.162,59.326 176.260 C 59.424 176.357,59.627 175.781,59.778 174.978 C 59.928 174.175,59.972 173.438,59.874 173.340 C 59.776 173.243,59.573 173.819,59.422 174.622 M340.080 173.800 C 340.080 174.240,340.224 175.050,340.400 175.600 C 340.654 176.392,340.720 176.433,340.720 175.800 C 340.720 175.360,340.576 174.550,340.400 174.000 C 340.146 173.208,340.080 173.167,340.080 173.800 M136.677 175.477 C 136.300 176.493,136.058 177.391,136.138 177.472 C 136.219 177.552,136.600 176.793,136.985 175.785 C 137.370 174.776,137.612 173.879,137.523 173.790 C 137.435 173.701,137.054 174.460,136.677 175.477 M58.585 179.785 C 58.430 181.023,58.390 182.123,58.495 182.229 C 58.601 182.334,58.807 181.401,58.954 180.154 C 59.100 178.907,59.141 177.807,59.043 177.710 C 58.946 177.612,58.739 178.546,58.585 179.785 M341.077 179.800 C 341.200 181.120,341.368 182.275,341.450 182.367 C 341.718 182.664,341.515 179.834,341.180 178.600 C 340.965 177.811,340.930 178.222,341.077 179.800 M135.429 179.029 C 135.281 179.615,135.238 180.172,135.332 180.266 C 135.427 180.360,135.624 179.958,135.771 179.371 C 135.919 178.785,135.962 178.228,135.868 178.134 C 135.773 178.040,135.576 178.442,135.429 179.029 M168.180 182.440 C 167.611 183.562,167.213 184.547,167.295 184.629 C 167.377 184.711,167.927 183.793,168.518 182.589 C 169.108 181.385,169.506 180.400,169.402 180.400 C 169.298 180.400,168.748 181.318,168.180 182.440 M134.622 182.222 C 134.472 183.025,134.438 183.772,134.548 183.882 C 134.658 183.992,134.872 183.425,135.022 182.622 C 135.173 181.819,135.206 181.073,135.096 180.963 C 134.986 180.853,134.773 181.419,134.622 182.222 M57.856 185.445 C 57.715 186.472,57.626 188.412,57.657 189.756 C 57.701 191.662,57.785 191.277,58.035 188.011 C 58.373 183.586,58.285 182.315,57.856 185.445 M341.907 187.600 C 342.019 189.910,342.176 191.875,342.255 191.967 C 342.536 192.290,342.350 186.579,342.028 185.000 C 341.821 183.982,341.777 184.929,341.907 187.600 M133.999 184.433 C 133.999 184.525,133.729 186.130,133.400 188.000 C 133.071 189.870,132.822 191.850,132.847 192.400 C 132.872 192.950,133.221 191.424,133.622 189.009 C 134.024 186.595,134.273 184.540,134.176 184.443 C 134.079 184.346,134.000 184.342,133.999 184.433 M166.245 187.050 C 165.890 188.091,165.613 189.135,165.629 189.371 C 165.645 189.607,166.005 188.824,166.428 187.632 C 166.851 186.440,167.128 185.395,167.044 185.310 C 166.959 185.226,166.600 186.008,166.245 187.050 M165.056 190.884 C 164.921 191.388,164.828 192.250,164.849 192.800 C 164.872 193.389,165.031 193.071,165.236 192.025 C 165.603 190.152,165.473 189.327,165.056 190.884 M164.254 195.856 C 163.931 198.218,163.965 202.542,164.323 204.558 C 164.482 205.453,164.600 203.536,164.600 200.058 C 164.600 193.256,164.604 193.305,164.254 195.856 M132.554 200.000 C 132.554 202.750,132.618 203.875,132.696 202.500 C 132.774 201.125,132.774 198.875,132.696 197.500 C 132.618 196.125,132.554 197.250,132.554 200.000 M164.828 207.433 C 164.844 208.075,165.016 208.960,165.210 209.400 C 165.447 209.934,165.486 209.602,165.327 208.400 C 165.046 206.280,164.788 205.780,164.828 207.433 M132.869 207.600 C 132.856 208.150,132.995 209.320,133.177 210.200 C 133.389 211.226,133.516 211.441,133.531 210.800 C 133.544 210.250,133.405 209.080,133.223 208.200 C 133.011 207.174,132.884 206.959,132.869 207.600 M57.623 210.633 C 57.636 212.155,57.793 214.120,57.972 215.000 C 58.179 216.018,58.223 215.071,58.093 212.400 C 57.859 207.573,57.589 206.559,57.623 210.633 M342.077 210.244 C 342.035 211.588,341.915 213.568,341.811 214.644 L 341.622 216.600 342.029 214.649 C 342.252 213.576,342.372 211.596,342.295 210.249 L 342.154 207.800 342.077 210.244 M165.629 210.629 C 165.588 211.233,166.857 214.876,167.044 214.690 C 167.128 214.605,166.851 213.560,166.428 212.368 C 166.005 211.176,165.645 210.393,165.629 210.629 M133.628 213.033 C 133.644 213.675,133.816 214.560,134.010 215.000 C 134.247 215.534,134.286 215.202,134.127 214.000 C 133.846 211.880,133.588 211.380,133.628 213.033 M167.200 215.347 C 167.200 215.780,169.188 219.600,169.413 219.600 C 169.523 219.600,169.139 218.655,168.559 217.500 C 167.443 215.279,167.200 214.894,167.200 215.347 M134.480 216.600 C 134.480 217.040,134.624 217.850,134.800 218.400 C 135.054 219.192,135.120 219.233,135.120 218.600 C 135.120 218.160,134.976 217.350,134.800 216.800 C 134.546 216.008,134.480 215.967,134.480 216.600 M58.447 218.833 C 58.473 219.585,58.641 220.740,58.820 221.400 C 59.035 222.189,59.070 221.778,58.923 220.200 C 58.677 217.555,58.373 216.681,58.447 218.833 M341.046 219.846 C 340.900 221.093,340.859 222.193,340.957 222.290 C 341.054 222.388,341.261 221.454,341.415 220.215 C 341.570 218.977,341.610 217.877,341.505 217.771 C 341.399 217.666,341.193 218.599,341.046 219.846 M135.256 220.000 C 135.256 220.330,135.411 220.960,135.600 221.400 C 135.817 221.904,135.944 221.978,135.944 221.600 C 135.944 221.270,135.789 220.640,135.600 220.200 C 135.383 219.696,135.256 219.622,135.256 220.000 M169.600 220.161 C 169.600 220.578,171.923 223.905,172.434 224.221 C 172.758 224.421,171.265 222.115,169.723 220.033 C 169.656 219.942,169.600 219.999,169.600 220.161 M136.250 223.200 C 136.625 224.705,137.534 226.684,137.538 226.000 C 137.539 225.670,137.194 224.680,136.771 223.800 C 136.348 222.920,136.114 222.650,136.250 223.200 M340.240 224.840 C 340.093 225.757,340.052 226.585,340.147 226.680 C 340.242 226.776,340.446 226.110,340.600 225.200 C 340.754 224.290,340.796 223.462,340.693 223.360 C 340.590 223.257,340.387 223.923,340.240 224.840 M59.280 224.200 C 59.280 224.640,59.424 225.450,59.600 226.000 C 59.854 226.792,59.920 226.833,59.920 226.200 C 59.920 225.760,59.776 224.950,59.600 224.400 C 59.346 223.608,59.280 223.567,59.280 224.200 M173.800 225.970 C 175.204 227.755,178.554 230.973,180.000 231.927 C 181.282 232.772,181.265 232.738,179.804 231.525 C 178.926 230.796,177.036 229.019,175.604 227.576 C 174.172 226.134,173.360 225.411,173.800 225.970 M137.634 227.000 C 137.634 227.220,137.978 228.030,138.400 228.800 C 138.822 229.570,139.166 230.020,139.166 229.800 C 139.166 229.580,138.822 228.770,138.400 228.000 C 137.978 227.230,137.634 226.780,137.634 227.000 M60.068 228.600 C 60.062 229.040,60.211 229.760,60.400 230.200 C 60.838 231.219,60.838 230.168,60.400 228.800 C 60.143 227.996,60.077 227.957,60.068 228.600 M339.450 229.250 C 339.309 229.953,339.269 230.602,339.359 230.692 C 339.450 230.783,339.648 230.291,339.800 229.600 C 339.952 228.909,339.993 228.259,339.891 228.158 C 339.789 228.056,339.591 228.547,339.450 229.250 M229.600 230.658 C 226.205 233.537,222.230 235.888,218.447 237.254 C 216.771 237.860,215.617 238.365,215.882 238.378 C 218.107 238.481,225.770 234.404,229.840 230.951 C 231.235 229.768,232.544 228.800,232.750 228.800 C 233.313 228.800,254.400 250.065,254.400 250.633 C 254.400 251.478,249.085 256.075,244.750 258.980 C 240.323 261.946,239.187 262.811,240.800 261.988 C 244.966 259.861,254.170 252.482,254.626 250.903 C 254.908 249.929,233.921 228.369,232.748 228.427 C 232.447 228.442,231.030 229.446,229.600 230.658 M139.660 231.601 C 139.890 232.261,140.241 232.902,140.439 233.024 C 140.939 233.333,140.896 233.115,140.171 231.661 C 139.375 230.066,139.114 230.035,139.660 231.601 M60.806 232.233 C 60.809 232.655,60.995 233.270,61.218 233.600 C 61.515 234.038,61.552 233.876,61.356 233.000 C 61.027 231.529,60.798 231.210,60.806 232.233 M338.846 232.067 C 338.821 232.434,338.696 233.064,338.570 233.467 C 338.352 234.162,338.363 234.163,338.797 233.487 C 339.048 233.096,339.173 232.466,339.073 232.087 C 338.911 231.468,338.888 231.466,338.846 232.067 M141.653 235.200 C 144.390 240.916,157.985 256.948,159.128 255.806 C 159.235 255.699,158.800 255.213,158.161 254.727 C 153.874 251.461,146.637 242.983,143.109 237.090 C 141.004 233.575,140.664 233.133,141.653 235.200 M184.000 234.612 C 184.000 234.901,189.641 237.655,189.959 237.522 C 190.119 237.455,188.844 236.733,187.125 235.918 C 185.406 235.102,184.000 234.515,184.000 234.612 M61.606 235.433 C 61.609 235.855,61.795 236.470,62.018 236.800 C 62.315 237.238,62.352 237.076,62.156 236.200 C 61.827 234.729,61.598 234.410,61.606 235.433 M338.046 235.267 C 338.021 235.634,337.896 236.264,337.770 236.667 C 337.552 237.362,337.563 237.363,337.997 236.687 C 338.248 236.296,338.373 235.666,338.273 235.287 C 338.111 234.668,338.088 234.666,338.046 235.267 M190.800 237.728 C 190.800 238.023,194.947 239.206,195.862 239.173 C 196.268 239.158,195.700 238.892,194.600 238.582 C 193.500 238.273,192.195 237.905,191.700 237.766 C 191.205 237.627,190.800 237.610,190.800 237.728 M213.400 238.800 C 212.293 239.082,212.277 239.109,213.200 239.147 C 213.750 239.169,214.470 239.013,214.800 238.800 C 215.481 238.360,215.129 238.360,213.400 238.800 M197.600 239.580 C 198.599 239.920,201.082 240.132,200.767 239.851 C 200.675 239.769,199.700 239.599,198.600 239.472 C 197.251 239.316,196.926 239.351,197.600 239.580 M208.800 239.600 L 207.400 239.895 208.800 239.907 C 209.570 239.915,210.650 239.776,211.200 239.600 L 212.200 239.280 211.200 239.293 C 210.650 239.300,209.570 239.438,208.800 239.600 M159.794 256.391 C 159.930 256.610,160.869 257.360,161.882 258.057 C 162.895 258.753,163.601 259.125,163.451 258.883 C 163.302 258.641,162.362 257.891,161.363 257.217 C 160.365 256.543,159.659 256.171,159.794 256.391 M69.628 258.200 C 69.628 258.420,69.886 259.050,70.200 259.600 C 70.514 260.150,70.772 260.420,70.772 260.200 C 70.772 259.980,70.514 259.350,70.200 258.800 C 69.886 258.250,69.628 257.980,69.628 258.200 M329.665 259.017 C 328.995 260.488,329.123 260.802,329.847 259.465 C 330.186 258.840,330.388 258.254,330.296 258.163 C 330.205 258.071,329.921 258.456,329.665 259.017 M167.200 261.567 C 168.163 262.352,168.800 262.608,168.800 262.210 C 168.800 262.106,168.215 261.735,167.500 261.386 L 166.200 260.752 167.200 261.567 M169.200 262.579 C 169.200 262.689,169.740 263.059,170.400 263.400 C 171.060 263.741,171.600 263.931,171.600 263.821 C 171.600 263.711,171.060 263.341,170.400 263.000 C 169.740 262.659,169.200 262.469,169.200 262.579 M235.200 264.446 C 233.110 265.497,231.559 266.367,231.754 266.379 C 232.258 266.409,239.600 262.897,239.600 262.625 C 239.600 262.267,239.218 262.424,235.200 264.446 M172.000 264.195 C 172.000 264.405,174.735 265.611,175.149 265.583 C 175.470 265.562,172.701 264.039,172.300 264.017 C 172.135 264.008,172.000 264.088,172.000 264.195 M175.800 265.888 C 176.363 266.433,180.788 268.146,181.024 267.909 C 181.131 267.802,180.090 267.285,178.710 266.761 C 177.329 266.237,176.020 265.739,175.800 265.654 C 175.533 265.551,175.533 265.629,175.800 265.888 M225.200 268.411 C 223.330 269.031,222.083 269.552,222.430 269.569 C 223.081 269.601,228.773 267.760,229.132 267.402 C 229.483 267.050,228.691 267.254,225.200 268.411 M184.600 269.200 C 185.040 269.389,185.760 269.538,186.200 269.532 C 186.843 269.523,186.804 269.457,186.000 269.200 C 184.632 268.762,183.581 268.762,184.600 269.200 M187.600 269.994 C 187.930 270.211,188.635 270.391,189.167 270.394 C 190.451 270.402,190.125 270.175,188.400 269.858 C 187.415 269.677,187.178 269.718,187.600 269.994 M219.600 270.000 L 218.600 270.320 219.600 270.354 C 220.150 270.373,220.870 270.213,221.200 270.000 C 221.964 269.506,221.142 269.506,219.600 270.000 M191.400 270.800 C 193.092 271.231,194.544 271.231,193.200 270.800 C 192.650 270.624,191.750 270.483,191.200 270.487 C 190.302 270.494,190.322 270.526,191.400 270.800 M215.400 270.800 C 214.330 271.072,214.308 271.105,215.200 271.105 C 215.750 271.105,216.740 270.968,217.400 270.800 C 218.470 270.528,218.492 270.495,217.600 270.495 C 217.050 270.495,216.060 270.632,215.400 270.800 M200.100 271.695 C 202.465 271.869,206.335 271.869,208.700 271.695 C 212.488 271.416,211.976 271.379,204.400 271.379 C 196.824 271.379,196.312 271.416,200.100 271.695 M76.815 272.200 C 76.817 272.420,77.186 273.050,77.636 273.600 C 78.179 274.264,78.315 274.331,78.040 273.800 C 77.366 272.495,76.812 271.772,76.815 272.200 M322.253 273.300 L 321.533 274.600 322.358 273.600 C 323.089 272.713,323.414 272.000,323.086 272.000 C 323.024 272.000,322.649 272.585,322.253 273.300 M80.816 278.709 C 81.334 279.650,82.110 280.730,82.541 281.109 C 82.972 281.489,82.650 280.810,81.826 279.600 C 79.927 276.811,79.623 276.543,80.816 278.709 M318.229 279.500 C 317.382 280.765,317.039 281.489,317.466 281.109 C 318.183 280.471,320.229 277.200,319.910 277.200 C 319.833 277.200,319.077 278.235,318.229 279.500 M85.034 284.600 C 87.012 287.451,90.592 291.963,90.892 291.982 C 91.145 291.998,88.916 289.094,85.062 284.389 L 83.924 283.000 85.034 284.600 M313.984 285.500 C 313.043 286.765,311.477 288.745,310.505 289.900 C 309.533 291.055,308.887 291.992,309.069 291.982 C 309.508 291.957,316.315 283.200,315.896 283.200 C 315.786 283.200,314.926 284.235,313.984 285.500 M91.200 292.525 C 91.200 292.594,91.785 293.179,92.500 293.825 L 93.800 295.000 92.625 293.700 C 91.530 292.488,91.200 292.216,91.200 292.525 M307.375 293.700 L 306.200 295.000 307.500 293.825 C 308.215 293.179,308.800 292.594,308.800 292.525 C 308.800 292.216,308.470 292.488,307.375 293.700 M99.000 300.800 C 102.074 303.880,104.679 306.400,104.789 306.400 C 104.899 306.400,102.474 303.880,99.400 300.800 C 96.326 297.720,93.721 295.200,93.611 295.200 C 93.501 295.200,95.926 297.720,99.000 300.800 M300.595 300.900 L 295.000 306.600 300.700 301.005 C 303.835 297.928,306.400 295.363,306.400 295.305 C 306.400 295.019,305.792 295.605,300.595 300.900 M105.200 306.525 C 105.200 306.594,105.785 307.179,106.500 307.825 L 107.800 309.000 106.625 307.700 C 105.530 306.488,105.200 306.216,105.200 306.525 M293.375 307.700 L 292.200 309.000 293.500 307.825 C 294.215 307.179,294.800 306.594,294.800 306.525 C 294.800 306.216,294.470 306.488,293.375 307.700 M108.018 309.108 C 108.037 309.408,112.549 312.988,115.400 314.966 L 117.000 316.076 115.611 314.938 C 110.906 311.084,108.002 308.855,108.018 309.108 M288.789 311.364 C 287.133 312.704,285.153 314.312,284.389 314.938 L 283.000 316.076 284.600 314.971 C 285.917 314.062,287.441 312.895,291.967 309.331 C 292.058 309.259,292.058 309.139,291.967 309.064 C 291.875 308.990,290.445 310.025,288.789 311.364 M118.891 317.459 C 119.270 317.890,120.350 318.666,121.291 319.184 C 123.457 320.377,123.189 320.073,120.400 318.174 C 119.190 317.350,118.511 317.028,118.891 317.459 M279.400 318.261 C 276.791 320.103,276.616 320.337,278.709 319.184 C 279.650 318.666,280.713 317.918,281.071 317.521 C 281.983 316.513,281.694 316.642,279.400 318.261 M126.400 322.364 C 126.950 322.814,127.580 323.183,127.800 323.185 C 128.228 323.188,127.505 322.634,126.200 321.960 C 125.669 321.685,125.736 321.821,126.400 322.364 M273.000 322.400 C 272.340 322.837,271.980 323.192,272.200 323.188 C 272.601 323.182,274.776 321.623,274.400 321.612 C 274.290 321.608,273.660 321.963,273.000 322.400 M140.400 329.800 C 140.950 330.114,141.580 330.372,141.800 330.372 C 142.020 330.372,141.750 330.114,141.200 329.800 C 140.650 329.486,140.020 329.228,139.800 329.228 C 139.580 329.228,139.850 329.486,140.400 329.800 M258.800 329.800 C 258.250 330.114,257.980 330.372,258.200 330.372 C 258.420 330.372,259.050 330.114,259.600 329.800 C 260.150 329.486,260.420 329.228,260.200 329.228 C 259.980 329.228,259.350 329.486,258.800 329.800 M163.200 337.982 C 163.530 338.205,164.145 338.391,164.567 338.394 C 165.590 338.402,165.271 338.173,163.800 337.844 C 162.924 337.648,162.762 337.685,163.200 337.982 M235.600 338.000 C 234.776 338.264,234.741 338.326,235.400 338.354 C 235.840 338.373,236.470 338.213,236.800 338.000 C 237.501 337.547,237.014 337.547,235.600 338.000 M166.400 338.782 C 166.730 339.005,167.345 339.191,167.767 339.194 C 168.790 339.202,168.471 338.973,167.000 338.644 C 166.124 338.448,165.962 338.485,166.400 338.782 M232.400 338.800 C 231.576 339.064,231.541 339.126,232.200 339.154 C 232.640 339.173,233.270 339.013,233.600 338.800 C 234.301 338.347,233.814 338.347,232.400 338.800 M169.800 339.600 C 170.240 339.789,170.960 339.938,171.400 339.932 C 172.043 339.923,172.004 339.857,171.200 339.600 C 169.832 339.162,168.781 339.162,169.800 339.600 M228.800 339.600 C 227.996 339.857,227.957 339.923,228.600 339.932 C 229.040 339.938,229.760 339.789,230.200 339.600 C 231.219 339.162,230.168 339.162,228.800 339.600 M174.000 340.400 C 174.550 340.576,175.360 340.720,175.800 340.720 C 176.433 340.720,176.392 340.654,175.600 340.400 C 175.050 340.224,174.240 340.080,173.800 340.080 C 173.167 340.080,173.208 340.146,174.000 340.400 M224.400 340.400 C 223.608 340.654,223.567 340.720,224.200 340.720 C 224.640 340.720,225.450 340.576,226.000 340.400 C 226.792 340.146,226.833 340.080,226.200 340.080 C 225.760 340.080,224.950 340.224,224.400 340.400 M178.600 341.180 C 179.834 341.515,182.664 341.718,182.367 341.450 C 182.275 341.368,181.120 341.200,179.800 341.077 C 178.222 340.930,177.811 340.965,178.600 341.180 M219.000 341.200 L 217.400 341.486 218.800 341.496 C 219.570 341.501,220.740 341.368,221.400 341.200 C 223.028 340.786,221.313 340.786,219.000 341.200 M185.000 342.028 C 186.579 342.350,192.290 342.536,191.967 342.255 C 191.875 342.176,189.910 342.019,187.600 341.907 C 184.929 341.777,183.982 341.821,185.000 342.028 M211.000 342.000 L 207.800 342.253 210.600 342.304 C 212.140 342.331,214.120 342.205,215.000 342.023 C 216.940 341.622,215.859 341.615,211.000 342.000 " stroke="none" fill="#7a9cf4" fill-rule="evenodd"></path></g></svg>