<svg id="svg" version="1.1" xmlns="http://www.w3.org/2000/svg" xmlns:xlink="http://www.w3.org/1999/xlink" width="400" height="400" viewBox="0, 0, 400,400"><g id="svgg"><path id="path0" d="M199.856 59.799 C 199.715 60.166,199.600 83.407,199.600 111.447 L 199.600 162.428 197.900 163.171 C 196.237 163.897,194.630 164.648,182.000 170.597 C 178.590 172.204,172.200 175.177,167.800 177.205 C 163.400 179.233,156.740 182.327,153.000 184.080 C 149.260 185.833,144.220 188.179,141.800 189.292 C 139.380 190.406,135.007 192.461,132.083 193.859 C 129.158 195.256,126.659 196.400,126.530 196.400 C 125.728 196.400,115.600 201.673,115.603 202.089 C 115.604 202.370,116.099 202.890,116.703 203.245 C 117.306 203.600,120.230 205.376,123.200 207.193 C 126.170 209.010,130.130 211.405,132.000 212.515 C 133.870 213.624,136.300 215.108,137.400 215.812 C 138.500 216.516,139.940 217.398,140.600 217.772 C 141.260 218.145,142.917 219.115,144.282 219.926 C 153.386 225.335,155.567 226.645,160.400 229.609 C 163.370 231.430,167.960 234.214,170.600 235.795 C 173.240 237.377,177.830 240.164,180.800 241.989 C 183.770 243.814,189.331 247.208,193.158 249.532 L 200.117 253.755 201.558 252.936 C 202.351 252.486,205.762 250.426,209.137 248.358 C 212.512 246.291,216.202 244.044,217.337 243.363 C 218.472 242.683,223.180 239.823,227.800 237.006 C 232.420 234.190,236.766 231.565,237.458 231.174 C 238.149 230.782,240.219 229.524,242.058 228.378 C 243.896 227.232,245.940 225.985,246.600 225.606 C 247.944 224.837,254.340 220.982,259.800 217.652 C 261.780 216.445,264.390 214.887,265.600 214.191 C 266.810 213.495,271.130 210.890,275.200 208.404 C 279.270 205.917,283.095 203.625,283.700 203.312 C 285.215 202.526,285.283 202.718,280.737 195.052 C 278.502 191.283,274.337 184.240,271.481 179.400 C 268.624 174.560,265.530 169.340,264.603 167.800 C 263.677 166.260,261.337 162.300,259.402 159.000 C 256.052 153.286,248.176 139.923,241.012 127.800 C 239.192 124.720,235.317 118.150,232.401 113.200 C 229.485 108.250,226.402 103.065,225.550 101.677 C 224.697 100.289,224.000 99.069,224.000 98.965 C 224.000 98.862,222.958 97.117,221.684 95.089 C 220.410 93.060,218.035 89.060,216.406 86.200 C 204.202 64.770,200.323 58.582,199.856 59.799 M279.582 223.049 C 277.942 224.065,270.570 228.540,263.200 232.992 C 255.830 237.445,245.120 243.927,239.400 247.398 C 233.680 250.869,226.930 254.953,224.400 256.473 C 217.900 260.379,217.058 260.892,211.800 264.151 C 210.480 264.969,207.240 266.935,204.600 268.519 L 199.800 271.400 199.800 305.800 C 199.800 334.632,199.889 340.200,200.347 340.200 C 200.648 340.200,202.088 338.476,203.547 336.369 C 205.006 334.263,207.626 330.483,209.369 327.969 C 211.113 325.456,214.368 320.700,216.604 317.400 C 218.840 314.100,221.747 309.870,223.063 308.000 C 229.847 298.364,238.561 285.897,241.400 281.766 C 244.144 277.774,248.497 271.513,260.709 254.000 C 269.885 240.840,275.387 232.930,277.401 230.000 C 278.686 228.130,280.517 225.473,281.469 224.096 C 283.975 220.471,283.851 220.401,279.582 223.049 " stroke="none" fill="#6a7299" fill-rule="evenodd"></path><path id="path1" d="M178.500 0.274 C 176.465 0.360,174.800 0.603,174.800 0.815 C 174.800 1.030,173.383 1.200,171.600 1.200 C 169.733 1.200,168.400 1.367,168.400 1.600 C 168.400 1.820,167.511 2.000,166.424 2.000 C 165.337 2.000,164.336 2.180,164.200 2.400 C 164.064 2.620,162.973 2.800,161.776 2.800 C 160.579 2.800,159.600 2.980,159.600 3.200 C 159.600 3.420,158.801 3.600,157.824 3.600 C 156.847 3.600,155.936 3.780,155.800 4.000 C 155.664 4.220,154.843 4.400,153.976 4.400 C 153.109 4.400,152.400 4.580,152.400 4.800 C 152.400 5.020,151.680 5.200,150.800 5.200 C 149.920 5.200,149.200 5.380,149.200 5.600 C 149.200 5.820,148.581 6.000,147.824 6.000 C 147.067 6.000,146.336 6.180,146.200 6.400 C 146.064 6.620,145.423 6.800,144.776 6.800 C 144.129 6.800,143.600 6.980,143.600 7.200 C 143.600 7.420,142.880 7.600,142.000 7.600 C 141.120 7.600,140.400 7.780,140.400 8.000 C 140.400 8.220,139.860 8.400,139.200 8.400 C 138.540 8.400,138.000 8.580,138.000 8.800 C 138.000 9.020,137.460 9.200,136.800 9.200 C 136.140 9.200,135.600 9.380,135.600 9.600 C 135.600 9.820,135.060 10.000,134.400 10.000 C 133.740 10.000,133.200 10.180,133.200 10.400 C 133.200 10.620,132.660 10.800,132.000 10.800 C 131.340 10.800,130.800 10.980,130.800 11.200 C 130.800 11.420,130.440 11.600,130.000 11.600 C 129.560 11.600,129.200 11.780,129.200 12.000 C 129.200 12.220,128.660 12.400,128.000 12.400 C 127.340 12.400,126.800 12.580,126.800 12.800 C 126.800 13.020,126.440 13.200,126.000 13.200 C 125.560 13.200,125.200 13.380,125.200 13.600 C 125.200 13.820,124.660 14.000,124.000 14.000 C 123.340 14.000,122.800 14.180,122.800 14.400 C 122.800 14.620,122.440 14.800,122.000 14.800 C 121.560 14.800,121.200 14.980,121.200 15.200 C 121.200 15.420,120.761 15.600,120.224 15.600 C 119.687 15.600,119.136 15.780,119.000 16.000 C 118.864 16.220,118.403 16.400,117.976 16.400 C 117.549 16.400,117.200 16.580,117.200 16.800 C 117.200 17.020,116.840 17.200,116.400 17.200 C 115.960 17.200,115.600 17.380,115.600 17.600 C 115.600 17.820,115.240 18.000,114.800 18.000 C 114.360 18.000,114.000 18.180,114.000 18.400 C 114.000 18.620,113.640 18.800,113.200 18.800 C 112.760 18.800,112.400 18.980,112.400 19.200 C 112.400 19.420,112.040 19.600,111.600 19.600 C 111.160 19.600,110.800 19.780,110.800 20.000 C 110.800 20.220,110.440 20.400,110.000 20.400 C 109.560 20.400,109.200 20.580,109.200 20.800 C 109.200 21.020,108.840 21.200,108.400 21.200 C 107.960 21.200,107.600 21.380,107.600 21.600 C 107.600 21.820,107.240 22.000,106.800 22.000 C 106.360 22.000,106.000 22.180,106.000 22.400 C 106.000 22.620,105.640 22.800,105.200 22.800 C 104.760 22.800,104.400 22.980,104.400 23.200 C 104.400 23.420,104.040 23.600,103.600 23.600 C 103.160 23.600,102.800 23.780,102.800 24.000 C 102.800 24.220,102.480 24.400,102.088 24.400 C 101.697 24.400,101.117 24.760,100.800 25.200 C 100.483 25.640,99.903 26.000,99.512 26.000 C 99.120 26.000,98.800 26.180,98.800 26.400 C 98.800 26.620,98.440 26.800,98.000 26.800 C 97.560 26.800,97.200 26.980,97.200 27.200 C 97.200 27.420,96.964 27.600,96.675 27.600 C 96.387 27.600,95.764 27.960,95.292 28.400 C 94.820 28.840,94.196 29.200,93.905 29.200 C 93.614 29.200,93.117 29.560,92.800 30.000 C 92.483 30.440,91.943 30.800,91.600 30.800 C 91.257 30.800,90.717 31.160,90.400 31.600 C 90.083 32.040,89.503 32.400,89.112 32.400 C 88.720 32.400,88.400 32.550,88.400 32.732 C 88.400 32.915,87.905 33.319,87.300 33.630 C 86.695 33.940,85.909 34.511,85.553 34.897 C 85.197 35.284,84.652 35.600,84.341 35.600 C 84.031 35.600,83.517 35.960,83.200 36.400 C 82.883 36.840,82.420 37.200,82.171 37.200 C 81.922 37.200,81.154 37.740,80.463 38.400 C 79.772 39.060,79.047 39.600,78.852 39.600 C 78.656 39.600,77.755 40.320,76.848 41.200 C 75.941 42.080,75.005 42.800,74.768 42.800 C 74.531 42.800,73.646 43.520,72.800 44.400 C 71.954 45.280,71.084 46.000,70.866 46.000 C 70.648 46.000,69.413 47.035,68.121 48.300 C 66.829 49.565,65.072 51.128,64.217 51.773 C 62.202 53.293,53.293 62.202,51.773 64.217 C 51.128 65.072,49.565 66.829,48.300 68.121 C 47.035 69.413,46.000 70.648,46.000 70.866 C 46.000 71.084,45.280 71.954,44.400 72.800 C 43.520 73.646,42.800 74.531,42.800 74.768 C 42.800 75.005,42.080 75.941,41.200 76.848 C 40.320 77.755,39.600 78.656,39.600 78.852 C 39.600 79.047,39.060 79.772,38.400 80.463 C 37.740 81.154,37.200 81.922,37.200 82.171 C 37.200 82.420,36.840 82.883,36.400 83.200 C 35.960 83.517,35.600 84.031,35.600 84.341 C 35.600 84.652,35.284 85.197,34.897 85.553 C 34.511 85.909,33.940 86.695,33.630 87.300 C 33.319 87.905,32.915 88.400,32.732 88.400 C 32.550 88.400,32.400 88.720,32.400 89.112 C 32.400 89.503,32.040 90.083,31.600 90.400 C 31.160 90.717,30.800 91.257,30.800 91.600 C 30.800 91.943,30.440 92.483,30.000 92.800 C 29.560 93.117,29.200 93.614,29.200 93.905 C 29.200 94.196,28.840 94.820,28.400 95.292 C 27.960 95.764,27.600 96.387,27.600 96.675 C 27.600 96.964,27.420 97.200,27.200 97.200 C 26.980 97.200,26.800 97.560,26.800 98.000 C 26.800 98.440,26.620 98.800,26.400 98.800 C 26.180 98.800,26.000 99.120,26.000 99.512 C 26.000 99.903,25.640 100.483,25.200 100.800 C 24.760 101.117,24.400 101.697,24.400 102.088 C 24.400 102.480,24.220 102.800,24.000 102.800 C 23.780 102.800,23.600 103.160,23.600 103.600 C 23.600 104.040,23.420 104.400,23.200 104.400 C 22.980 104.400,22.800 104.760,22.800 105.200 C 22.800 105.640,22.620 106.000,22.400 106.000 C 22.180 106.000,22.000 106.360,22.000 106.800 C 22.000 107.240,21.820 107.600,21.600 107.600 C 21.380 107.600,21.200 107.960,21.200 108.400 C 21.200 108.840,21.020 109.200,20.800 109.200 C 20.580 109.200,20.400 109.560,20.400 110.000 C 20.400 110.440,20.220 110.800,20.000 110.800 C 19.780 110.800,19.600 111.160,19.600 111.600 C 19.600 112.040,19.420 112.400,19.200 112.400 C 18.980 112.400,18.800 112.760,18.800 113.200 C 18.800 113.640,18.620 114.000,18.400 114.000 C 18.180 114.000,18.000 114.360,18.000 114.800 C 18.000 115.240,17.820 115.600,17.600 115.600 C 17.380 115.600,17.200 115.960,17.200 116.400 C 17.200 116.840,17.020 117.200,16.800 117.200 C 16.580 117.200,16.400 117.549,16.400 117.976 C 16.400 118.403,16.220 118.864,16.000 119.000 C 15.780 119.136,15.600 119.687,15.600 120.224 C 15.600 120.761,15.420 121.200,15.200 121.200 C 14.980 121.200,14.800 121.560,14.800 122.000 C 14.800 122.440,14.620 122.800,14.400 122.800 C 14.180 122.800,14.000 123.340,14.000 124.000 C 14.000 124.660,13.820 125.200,13.600 125.200 C 13.380 125.200,13.200 125.560,13.200 126.000 C 13.200 126.440,13.020 126.800,12.800 126.800 C 12.580 126.800,12.400 127.340,12.400 128.000 C 12.400 128.660,12.220 129.200,12.000 129.200 C 11.780 129.200,11.600 129.560,11.600 130.000 C 11.600 130.440,11.420 130.800,11.200 130.800 C 10.980 130.800,10.800 131.340,10.800 132.000 C 10.800 132.660,10.620 133.200,10.400 133.200 C 10.180 133.200,10.000 133.740,10.000 134.400 C 10.000 135.060,9.820 135.600,9.600 135.600 C 9.380 135.600,9.200 136.140,9.200 136.800 C 9.200 137.460,9.020 138.000,8.800 138.000 C 8.580 138.000,8.400 138.540,8.400 139.200 C 8.400 139.860,8.220 140.400,8.000 140.400 C 7.780 140.400,7.600 141.120,7.600 142.000 C 7.600 142.880,7.420 143.600,7.200 143.600 C 6.980 143.600,6.800 144.129,6.800 144.776 C 6.800 145.423,6.620 146.064,6.400 146.200 C 6.180 146.336,6.000 147.067,6.000 147.824 C 6.000 148.581,5.820 149.200,5.600 149.200 C 5.380 149.200,5.200 149.920,5.200 150.800 C 5.200 151.680,5.020 152.400,4.800 152.400 C 4.580 152.400,4.400 153.109,4.400 153.976 C 4.400 154.843,4.220 155.664,4.000 155.800 C 3.780 155.936,3.600 156.847,3.600 157.824 C 3.600 158.801,3.420 159.600,3.200 159.600 C 2.980 159.600,2.800 160.579,2.800 161.776 C 2.800 162.973,2.620 164.064,2.400 164.200 C 2.180 164.336,2.000 165.337,2.000 166.424 C 2.000 167.511,1.820 168.400,1.600 168.400 C 1.367 168.400,1.200 169.722,1.200 171.567 C 1.200 173.744,1.044 174.785,0.700 174.900 C -0.032 175.144,-0.032 224.856,0.700 225.100 C 1.044 225.215,1.200 226.256,1.200 228.433 C 1.200 230.278,1.367 231.600,1.600 231.600 C 1.820 231.600,2.000 232.489,2.000 233.576 C 2.000 234.663,2.180 235.664,2.400 235.800 C 2.620 235.936,2.800 237.027,2.800 238.224 C 2.800 239.421,2.980 240.400,3.200 240.400 C 3.420 240.400,3.600 241.199,3.600 242.176 C 3.600 243.153,3.780 244.064,4.000 244.200 C 4.220 244.336,4.400 245.157,4.400 246.024 C 4.400 246.891,4.580 247.600,4.800 247.600 C 5.020 247.600,5.200 248.320,5.200 249.200 C 5.200 250.080,5.380 250.800,5.600 250.800 C 5.820 250.800,6.000 251.419,6.000 252.176 C 6.000 252.933,6.180 253.664,6.400 253.800 C 6.620 253.936,6.800 254.577,6.800 255.224 C 6.800 255.871,6.980 256.400,7.200 256.400 C 7.420 256.400,7.600 257.120,7.600 258.000 C 7.600 258.880,7.780 259.600,8.000 259.600 C 8.220 259.600,8.400 260.140,8.400 260.800 C 8.400 261.460,8.580 262.000,8.800 262.000 C 9.020 262.000,9.200 262.540,9.200 263.200 C 9.200 263.860,9.380 264.400,9.600 264.400 C 9.820 264.400,10.000 264.940,10.000 265.600 C 10.000 266.260,10.180 266.800,10.400 266.800 C 10.620 266.800,10.800 267.340,10.800 268.000 C 10.800 268.660,10.980 269.200,11.200 269.200 C 11.420 269.200,11.600 269.560,11.600 270.000 C 11.600 270.440,11.780 270.800,12.000 270.800 C 12.220 270.800,12.400 271.340,12.400 272.000 C 12.400 272.660,12.580 273.200,12.800 273.200 C 13.020 273.200,13.200 273.560,13.200 274.000 C 13.200 274.440,13.380 274.800,13.600 274.800 C 13.820 274.800,14.000 275.340,14.000 276.000 C 14.000 276.660,14.180 277.200,14.400 277.200 C 14.620 277.200,14.800 277.560,14.800 278.000 C 14.800 278.440,14.980 278.800,15.200 278.800 C 15.420 278.800,15.600 279.239,15.600 279.776 C 15.600 280.313,15.780 280.864,16.000 281.000 C 16.220 281.136,16.400 281.597,16.400 282.024 C 16.400 282.451,16.580 282.800,16.800 282.800 C 17.020 282.800,17.200 283.160,17.200 283.600 C 17.200 284.040,17.380 284.400,17.600 284.400 C 17.820 284.400,18.000 284.760,18.000 285.200 C 18.000 285.640,18.180 286.000,18.400 286.000 C 18.620 286.000,18.800 286.360,18.800 286.800 C 18.800 287.240,18.980 287.600,19.200 287.600 C 19.420 287.600,19.600 287.960,19.600 288.400 C 19.600 288.840,19.780 289.200,20.000 289.200 C 20.220 289.200,20.400 289.560,20.400 290.000 C 20.400 290.440,20.580 290.800,20.800 290.800 C 21.020 290.800,21.200 291.160,21.200 291.600 C 21.200 292.040,21.380 292.400,21.600 292.400 C 21.820 292.400,22.000 292.760,22.000 293.200 C 22.000 293.640,22.180 294.000,22.400 294.000 C 22.620 294.000,22.800 294.360,22.800 294.800 C 22.800 295.240,22.980 295.600,23.200 295.600 C 23.420 295.600,23.600 295.960,23.600 296.400 C 23.600 296.840,23.780 297.200,24.000 297.200 C 24.220 297.200,24.400 297.520,24.400 297.912 C 24.400 298.303,24.760 298.883,25.200 299.200 C 25.640 299.517,26.000 300.097,26.000 300.488 C 26.000 300.880,26.180 301.200,26.400 301.200 C 26.620 301.200,26.800 301.560,26.800 302.000 C 26.800 302.440,26.980 302.800,27.200 302.800 C 27.420 302.800,27.600 303.036,27.600 303.325 C 27.600 303.613,27.960 304.236,28.400 304.708 C 28.840 305.180,29.200 305.804,29.200 306.095 C 29.200 306.386,29.560 306.883,30.000 307.200 C 30.440 307.517,30.800 308.057,30.800 308.400 C 30.800 308.743,31.160 309.283,31.600 309.600 C 32.040 309.917,32.400 310.497,32.400 310.888 C 32.400 311.280,32.550 311.600,32.732 311.600 C 32.915 311.600,33.319 312.095,33.630 312.700 C 33.940 313.305,34.511 314.091,34.897 314.447 C 35.284 314.803,35.600 315.348,35.600 315.659 C 35.600 315.969,35.960 316.483,36.400 316.800 C 36.840 317.117,37.200 317.580,37.200 317.829 C 37.200 318.078,37.740 318.846,38.400 319.537 C 39.060 320.228,39.600 320.953,39.600 321.148 C 39.600 321.344,40.320 322.245,41.200 323.152 C 42.080 324.059,42.800 324.995,42.800 325.232 C 42.800 325.469,43.520 326.354,44.400 327.200 C 45.280 328.046,46.000 328.916,46.000 329.134 C 46.000 329.352,47.035 330.587,48.300 331.879 C 49.565 333.171,51.128 334.928,51.773 335.783 C 53.293 337.798,62.202 346.707,64.217 348.227 C 65.072 348.872,66.829 350.435,68.121 351.700 C 69.413 352.965,70.648 354.000,70.866 354.000 C 71.084 354.000,71.954 354.720,72.800 355.600 C 73.646 356.480,74.531 357.200,74.768 357.200 C 75.005 357.200,75.941 357.920,76.848 358.800 C 77.755 359.680,78.656 360.400,78.852 360.400 C 79.047 360.400,79.772 360.940,80.463 361.600 C 81.154 362.260,81.922 362.800,82.171 362.800 C 82.420 362.800,82.883 363.160,83.200 363.600 C 83.517 364.040,84.031 364.400,84.341 364.400 C 84.652 364.400,85.197 364.716,85.553 365.103 C 85.909 365.489,86.695 366.060,87.300 366.370 C 87.905 366.681,88.400 367.085,88.400 367.268 C 88.400 367.450,88.720 367.600,89.112 367.600 C 89.503 367.600,90.083 367.960,90.400 368.400 C 90.717 368.840,91.257 369.200,91.600 369.200 C 91.943 369.200,92.483 369.560,92.800 370.000 C 93.117 370.440,93.614 370.800,93.905 370.800 C 94.196 370.800,94.820 371.160,95.292 371.600 C 95.764 372.040,96.387 372.400,96.675 372.400 C 96.964 372.400,97.200 372.580,97.200 372.800 C 97.200 373.020,97.560 373.200,98.000 373.200 C 98.440 373.200,98.800 373.380,98.800 373.600 C 98.800 373.820,99.120 374.000,99.512 374.000 C 99.903 374.000,100.483 374.360,100.800 374.800 C 101.117 375.240,101.697 375.600,102.088 375.600 C 102.480 375.600,102.800 375.780,102.800 376.000 C 102.800 376.220,103.160 376.400,103.600 376.400 C 104.040 376.400,104.400 376.580,104.400 376.800 C 104.400 377.020,104.760 377.200,105.200 377.200 C 105.640 377.200,106.000 377.380,106.000 377.600 C 106.000 377.820,106.360 378.000,106.800 378.000 C 107.240 378.000,107.600 378.180,107.600 378.400 C 107.600 378.620,107.960 378.800,108.400 378.800 C 108.840 378.800,109.200 378.980,109.200 379.200 C 109.200 379.420,109.560 379.600,110.000 379.600 C 110.440 379.600,110.800 379.780,110.800 380.000 C 110.800 380.220,111.160 380.400,111.600 380.400 C 112.040 380.400,112.400 380.580,112.400 380.800 C 112.400 381.020,112.760 381.200,113.200 381.200 C 113.640 381.200,114.000 381.380,114.000 381.600 C 114.000 381.820,114.360 382.000,114.800 382.000 C 115.240 382.000,115.600 382.180,115.600 382.400 C 115.600 382.620,115.960 382.800,116.400 382.800 C 116.840 382.800,117.200 382.980,117.200 383.200 C 117.200 383.420,117.549 383.600,117.976 383.600 C 118.403 383.600,118.864 383.780,119.000 384.000 C 119.136 384.220,119.687 384.400,120.224 384.400 C 120.761 384.400,121.200 384.580,121.200 384.800 C 121.200 385.020,121.560 385.200,122.000 385.200 C 122.440 385.200,122.800 385.380,122.800 385.600 C 122.800 385.820,123.340 386.000,124.000 386.000 C 124.660 386.000,125.200 386.180,125.200 386.400 C 125.200 386.620,125.560 386.800,126.000 386.800 C 126.440 386.800,126.800 386.980,126.800 387.200 C 126.800 387.420,127.340 387.600,128.000 387.600 C 128.660 387.600,129.200 387.780,129.200 388.000 C 129.200 388.220,129.560 388.400,130.000 388.400 C 130.440 388.400,130.800 388.580,130.800 388.800 C 130.800 389.020,131.340 389.200,132.000 389.200 C 132.660 389.200,133.200 389.380,133.200 389.600 C 133.200 389.820,133.740 390.000,134.400 390.000 C 135.060 390.000,135.600 390.180,135.600 390.400 C 135.600 390.620,136.140 390.800,136.800 390.800 C 137.460 390.800,138.000 390.980,138.000 391.200 C 138.000 391.420,138.540 391.600,139.200 391.600 C 139.860 391.600,140.400 391.780,140.400 392.000 C 140.400 392.220,141.120 392.400,142.000 392.400 C 142.880 392.400,143.600 392.580,143.600 392.800 C 143.600 393.020,144.129 393.200,144.776 393.200 C 145.423 393.200,146.064 393.380,146.200 393.600 C 146.336 393.820,147.067 394.000,147.824 394.000 C 148.581 394.000,149.200 394.180,149.200 394.400 C 149.200 394.620,149.920 394.800,150.800 394.800 C 151.680 394.800,152.400 394.980,152.400 395.200 C 152.400 395.420,153.109 395.600,153.976 395.600 C 154.843 395.600,155.664 395.780,155.800 396.000 C 155.936 396.220,156.847 396.400,157.824 396.400 C 158.801 396.400,159.600 396.580,159.600 396.800 C 159.600 397.020,160.579 397.200,161.776 397.200 C 162.973 397.200,164.064 397.380,164.200 397.600 C 164.336 397.820,165.337 398.000,166.424 398.000 C 167.511 398.000,168.400 398.180,168.400 398.400 C 168.400 398.633,169.722 398.800,171.567 398.800 C 173.744 398.800,174.785 398.956,174.900 399.300 C 175.144 400.032,224.856 400.032,225.100 399.300 C 225.215 398.956,226.256 398.800,228.433 398.800 C 230.278 398.800,231.600 398.633,231.600 398.400 C 231.600 398.180,232.489 398.000,233.576 398.000 C 234.663 398.000,235.664 397.820,235.800 397.600 C 235.936 397.380,237.027 397.200,238.224 397.200 C 239.421 397.200,240.400 397.020,240.400 396.800 C 240.400 396.580,241.199 396.400,242.176 396.400 C 243.153 396.400,244.064 396.220,244.200 396.000 C 244.336 395.780,245.157 395.600,246.024 395.600 C 246.891 395.600,247.600 395.420,247.600 395.200 C 247.600 394.980,248.320 394.800,249.200 394.800 C 250.080 394.800,250.800 394.620,250.800 394.400 C 250.800 394.180,251.419 394.000,252.176 394.000 C 252.933 394.000,253.664 393.820,253.800 393.600 C 253.936 393.380,254.577 393.200,255.224 393.200 C 255.871 393.200,256.400 393.020,256.400 392.800 C 256.400 392.580,257.120 392.400,258.000 392.400 C 258.880 392.400,259.600 392.220,259.600 392.000 C 259.600 391.780,260.140 391.600,260.800 391.600 C 261.460 391.600,262.000 391.420,262.000 391.200 C 262.000 390.980,262.540 390.800,263.200 390.800 C 263.860 390.800,264.400 390.620,264.400 390.400 C 264.400 390.180,264.940 390.000,265.600 390.000 C 266.260 390.000,266.800 389.820,266.800 389.600 C 266.800 389.380,267.340 389.200,268.000 389.200 C 268.660 389.200,269.200 389.020,269.200 388.800 C 269.200 388.580,269.560 388.400,270.000 388.400 C 270.440 388.400,270.800 388.220,270.800 388.000 C 270.800 387.780,271.340 387.600,272.000 387.600 C 272.660 387.600,273.200 387.420,273.200 387.200 C 273.200 386.980,273.560 386.800,274.000 386.800 C 274.440 386.800,274.800 386.620,274.800 386.400 C 274.800 386.180,275.340 386.000,276.000 386.000 C 276.660 386.000,277.200 385.820,277.200 385.600 C 277.200 385.380,277.560 385.200,278.000 385.200 C 278.440 385.200,278.800 385.020,278.800 384.800 C 278.800 384.580,279.239 384.400,279.776 384.400 C 280.313 384.400,280.864 384.220,281.000 384.000 C 281.136 383.780,281.597 383.600,282.024 383.600 C 282.451 383.600,282.800 383.420,282.800 383.200 C 282.800 382.980,283.160 382.800,283.600 382.800 C 284.040 382.800,284.400 382.620,284.400 382.400 C 284.400 382.180,284.760 382.000,285.200 382.000 C 285.640 382.000,286.000 381.820,286.000 381.600 C 286.000 381.380,286.360 381.200,286.800 381.200 C 287.240 381.200,287.600 381.020,287.600 380.800 C 287.600 380.580,287.960 380.400,288.400 380.400 C 288.840 380.400,289.200 380.220,289.200 380.000 C 289.200 379.780,289.560 379.600,290.000 379.600 C 290.440 379.600,290.800 379.420,290.800 379.200 C 290.800 378.980,291.160 378.800,291.600 378.800 C 292.040 378.800,292.400 378.620,292.400 378.400 C 292.400 378.180,292.760 378.000,293.200 378.000 C 293.640 378.000,294.000 377.820,294.000 377.600 C 294.000 377.380,294.360 377.200,294.800 377.200 C 295.240 377.200,295.600 377.020,295.600 376.800 C 295.600 376.580,295.960 376.400,296.400 376.400 C 296.840 376.400,297.200 376.220,297.200 376.000 C 297.200 375.780,297.520 375.600,297.912 375.600 C 298.303 375.600,298.883 375.240,299.200 374.800 C 299.517 374.360,300.097 374.000,300.488 374.000 C 300.880 374.000,301.200 373.820,301.200 373.600 C 301.200 373.380,301.560 373.200,302.000 373.200 C 302.440 373.200,302.800 373.020,302.800 372.800 C 302.800 372.580,303.036 372.400,303.325 372.400 C 303.613 372.400,304.236 372.040,304.708 371.600 C 305.180 371.160,305.804 370.800,306.095 370.800 C 306.386 370.800,306.883 370.440,307.200 370.000 C 307.517 369.560,308.057 369.200,308.400 369.200 C 308.743 369.200,309.283 368.840,309.600 368.400 C 309.917 367.960,310.497 367.600,310.888 367.600 C 311.280 367.600,311.600 367.450,311.600 367.268 C 311.600 367.085,312.095 366.681,312.700 366.370 C 313.305 366.060,314.091 365.489,314.447 365.103 C 314.803 364.716,315.348 364.400,315.659 364.400 C 315.969 364.400,316.483 364.040,316.800 363.600 C 317.117 363.160,317.580 362.800,317.829 362.800 C 318.078 362.800,318.846 362.260,319.537 361.600 C 320.228 360.940,320.953 360.400,321.148 360.400 C 321.344 360.400,322.245 359.680,323.152 358.800 C 324.059 357.920,324.995 357.200,325.232 357.200 C 325.469 357.200,326.354 356.480,327.200 355.600 C 328.046 354.720,328.916 354.000,329.134 354.000 C 329.352 354.000,330.587 352.965,331.879 351.700 C 333.171 350.435,334.928 348.872,335.783 348.227 C 337.798 346.707,346.707 337.798,348.227 335.783 C 348.872 334.928,350.435 333.171,351.700 331.879 C 352.965 330.587,354.000 329.352,354.000 329.134 C 354.000 328.916,354.720 328.046,355.600 327.200 C 356.480 326.354,357.200 325.469,357.200 325.232 C 357.200 324.995,357.920 324.059,358.800 323.152 C 359.680 322.245,360.400 321.344,360.400 321.148 C 360.400 320.953,360.940 320.228,361.600 319.537 C 362.260 318.846,362.800 318.078,362.800 317.829 C 362.800 317.580,363.160 317.117,363.600 316.800 C 364.040 316.483,364.400 315.969,364.400 315.659 C 364.400 315.348,364.716 314.803,365.103 314.447 C 365.489 314.091,366.060 313.305,366.370 312.700 C 366.681 312.095,367.085 311.600,367.268 311.600 C 367.450 311.600,367.600 311.280,367.600 310.888 C 367.600 310.497,367.960 309.917,368.400 309.600 C 368.840 309.283,369.200 308.743,369.200 308.400 C 369.200 308.057,369.560 307.517,370.000 307.200 C 370.440 306.883,370.800 306.386,370.800 306.095 C 370.800 305.804,371.160 305.180,371.600 304.708 C 372.040 304.236,372.400 303.613,372.400 303.325 C 372.400 303.036,372.580 302.800,372.800 302.800 C 373.020 302.800,373.200 302.440,373.200 302.000 C 373.200 301.560,373.380 301.200,373.600 301.200 C 373.820 301.200,374.000 300.880,374.000 300.488 C 374.000 300.097,374.360 299.517,374.800 299.200 C 375.240 298.883,375.600 298.303,375.600 297.912 C 375.600 297.520,375.780 297.200,376.000 297.200 C 376.220 297.200,376.400 296.840,376.400 296.400 C 376.400 295.960,376.580 295.600,376.800 295.600 C 377.020 295.600,377.200 295.240,377.200 294.800 C 377.200 294.360,377.380 294.000,377.600 294.000 C 377.820 294.000,378.000 293.640,378.000 293.200 C 378.000 292.760,378.180 292.400,378.400 292.400 C 378.620 292.400,378.800 292.040,378.800 291.600 C 378.800 291.160,378.980 290.800,379.200 290.800 C 379.420 290.800,379.600 290.440,379.600 290.000 C 379.600 289.560,379.780 289.200,380.000 289.200 C 380.220 289.200,380.400 288.840,380.400 288.400 C 380.400 287.960,380.580 287.600,380.800 287.600 C 381.020 287.600,381.200 287.240,381.200 286.800 C 381.200 286.360,381.380 286.000,381.600 286.000 C 381.820 286.000,382.000 285.640,382.000 285.200 C 382.000 284.760,382.180 284.400,382.400 284.400 C 382.620 284.400,382.800 284.040,382.800 283.600 C 382.800 283.160,382.980 282.800,383.200 282.800 C 383.420 282.800,383.600 282.451,383.600 282.024 C 383.600 281.597,383.780 281.136,384.000 281.000 C 384.220 280.864,384.400 280.313,384.400 279.776 C 384.400 279.239,384.580 278.800,384.800 278.800 C 385.020 278.800,385.200 278.440,385.200 278.000 C 385.200 277.560,385.380 277.200,385.600 277.200 C 385.820 277.200,386.000 276.660,386.000 276.000 C 386.000 275.340,386.180 274.800,386.400 274.800 C 386.620 274.800,386.800 274.440,386.800 274.000 C 386.800 273.560,386.980 273.200,387.200 273.200 C 387.420 273.200,387.600 272.660,387.600 272.000 C 387.600 271.340,387.780 270.800,388.000 270.800 C 388.220 270.800,388.400 270.440,388.400 270.000 C 388.400 269.560,388.580 269.200,388.800 269.200 C 389.020 269.200,389.200 268.660,389.200 268.000 C 389.200 267.340,389.380 266.800,389.600 266.800 C 389.820 266.800,390.000 266.260,390.000 265.600 C 390.000 264.940,390.180 264.400,390.400 264.400 C 390.620 264.400,390.800 263.860,390.800 263.200 C 390.800 262.540,390.980 262.000,391.200 262.000 C 391.420 262.000,391.600 261.460,391.600 260.800 C 391.600 260.140,391.780 259.600,392.000 259.600 C 392.220 259.600,392.400 258.880,392.400 258.000 C 392.400 257.120,392.580 256.400,392.800 256.400 C 393.020 256.400,393.200 255.871,393.200 255.224 C 393.200 254.577,393.380 253.936,393.600 253.800 C 393.820 253.664,394.000 252.933,394.000 252.176 C 394.000 251.419,394.180 250.800,394.400 250.800 C 394.620 250.800,394.800 250.080,394.800 249.200 C 394.800 248.320,394.980 247.600,395.200 247.600 C 395.420 247.600,395.600 246.891,395.600 246.024 C 395.600 245.157,395.780 244.336,396.000 244.200 C 396.220 244.064,396.400 243.153,396.400 242.176 C 396.400 241.199,396.580 240.400,396.800 240.400 C 397.020 240.400,397.200 239.421,397.200 238.224 C 397.200 237.027,397.380 235.936,397.600 235.800 C 397.820 235.664,398.000 234.663,398.000 233.576 C 398.000 232.489,398.180 231.600,398.400 231.600 C 398.633 231.600,398.800 230.278,398.800 228.433 C 398.800 226.256,398.956 225.215,399.300 225.100 C 399.693 224.969,399.800 219.591,399.800 200.000 C 399.800 180.409,399.693 175.031,399.300 174.900 C 398.956 174.785,398.800 173.744,398.800 171.567 C 398.800 169.722,398.633 168.400,398.400 168.400 C 398.180 168.400,398.000 167.511,398.000 166.424 C 398.000 165.337,397.820 164.336,397.600 164.200 C 397.380 164.064,397.200 162.973,397.200 161.776 C 397.200 160.579,397.020 159.600,396.800 159.600 C 396.580 159.600,396.400 158.801,396.400 157.824 C 396.400 156.847,396.220 155.936,396.000 155.800 C 395.780 155.664,395.600 154.843,395.600 153.976 C 395.600 153.109,395.420 152.400,395.200 152.400 C 394.980 152.400,394.800 151.680,394.800 150.800 C 394.800 149.920,394.620 149.200,394.400 149.200 C 394.180 149.200,394.000 148.581,394.000 147.824 C 394.000 147.067,393.820 146.336,393.600 146.200 C 393.380 146.064,393.200 145.423,393.200 144.776 C 393.200 144.129,393.020 143.600,392.800 143.600 C 392.580 143.600,392.400 142.880,392.400 142.000 C 392.400 141.120,392.220 140.400,392.000 140.400 C 391.780 140.400,391.600 139.860,391.600 139.200 C 391.600 138.540,391.420 138.000,391.200 138.000 C 390.980 138.000,390.800 137.460,390.800 136.800 C 390.800 136.140,390.620 135.600,390.400 135.600 C 390.180 135.600,390.000 135.060,390.000 134.400 C 390.000 133.740,389.820 133.200,389.600 133.200 C 389.380 133.200,389.200 132.660,389.200 132.000 C 389.200 131.340,389.020 130.800,388.800 130.800 C 388.580 130.800,388.400 130.440,388.400 130.000 C 388.400 129.560,388.220 129.200,388.000 129.200 C 387.780 129.200,387.600 128.660,387.600 128.000 C 387.600 127.340,387.420 126.800,387.200 126.800 C 386.980 126.800,386.800 126.440,386.800 126.000 C 386.800 125.560,386.620 125.200,386.400 125.200 C 386.180 125.200,386.000 124.660,386.000 124.000 C 386.000 123.340,385.820 122.800,385.600 122.800 C 385.380 122.800,385.200 122.440,385.200 122.000 C 385.200 121.560,385.020 121.200,384.800 121.200 C 384.580 121.200,384.400 120.761,384.400 120.224 C 384.400 119.687,384.220 119.136,384.000 119.000 C 383.780 118.864,383.600 118.403,383.600 117.976 C 383.600 117.549,383.420 117.200,383.200 117.200 C 382.980 117.200,382.800 116.840,382.800 116.400 C 382.800 115.960,382.620 115.600,382.400 115.600 C 382.180 115.600,382.000 115.240,382.000 114.800 C 382.000 114.360,381.820 114.000,381.600 114.000 C 381.380 114.000,381.200 113.640,381.200 113.200 C 381.200 112.760,381.020 112.400,380.800 112.400 C 380.580 112.400,380.400 112.040,380.400 111.600 C 380.400 111.160,380.220 110.800,380.000 110.800 C 379.780 110.800,379.600 110.440,379.600 110.000 C 379.600 109.560,379.420 109.200,379.200 109.200 C 378.980 109.200,378.800 108.840,378.800 108.400 C 378.800 107.960,378.620 107.600,378.400 107.600 C 378.180 107.600,378.000 107.240,378.000 106.800 C 378.000 106.360,377.820 106.000,377.600 106.000 C 377.380 106.000,377.200 105.640,377.200 105.200 C 377.200 104.760,377.020 104.400,376.800 104.400 C 376.580 104.400,376.400 104.040,376.400 103.600 C 376.400 103.160,376.220 102.800,376.000 102.800 C 375.780 102.800,375.600 102.480,375.600 102.088 C 375.600 101.697,375.240 101.117,374.800 100.800 C 374.360 100.483,374.000 99.903,374.000 99.512 C 374.000 99.120,373.820 98.800,373.600 98.800 C 373.380 98.800,373.200 98.440,373.200 98.000 C 373.200 97.560,373.020 97.200,372.800 97.200 C 372.580 97.200,372.400 96.964,372.400 96.675 C 372.400 96.387,372.040 95.764,371.600 95.292 C 371.160 94.820,370.800 94.196,370.800 93.905 C 370.800 93.614,370.440 93.117,370.000 92.800 C 369.560 92.483,369.200 91.943,369.200 91.600 C 369.200 91.257,368.840 90.717,368.400 90.400 C 367.960 90.083,367.600 89.503,367.600 89.112 C 367.600 88.720,367.450 88.400,367.268 88.400 C 367.085 88.400,366.681 87.905,366.370 87.300 C 366.060 86.695,365.489 85.909,365.103 85.553 C 364.716 85.197,364.400 84.652,364.400 84.341 C 364.400 84.031,364.040 83.517,363.600 83.200 C 363.160 82.883,362.800 82.420,362.800 82.171 C 362.800 81.922,362.260 81.154,361.600 80.463 C 360.940 79.772,360.400 79.047,360.400 78.852 C 360.400 78.656,359.680 77.755,358.800 76.848 C 357.920 75.941,357.200 75.005,357.200 74.768 C 357.200 74.531,356.480 73.646,355.600 72.800 C 354.720 71.954,354.000 71.084,354.000 70.866 C 354.000 70.648,352.965 69.413,351.700 68.121 C 350.435 66.829,348.872 65.072,348.227 64.217 C 346.707 62.202,337.798 53.293,335.783 51.773 C 334.928 51.128,333.171 49.565,331.879 48.300 C 330.587 47.035,329.352 46.000,329.134 46.000 C 328.916 46.000,328.046 45.280,327.200 44.400 C 326.354 43.520,325.469 42.800,325.232 42.800 C 324.995 42.800,324.059 42.080,323.152 41.200 C 322.245 40.320,321.344 39.600,321.148 39.600 C 320.953 39.600,320.228 39.060,319.537 38.400 C 318.846 37.740,318.078 37.200,317.829 37.200 C 317.580 37.200,317.117 36.840,316.800 36.400 C 316.483 35.960,315.969 35.600,315.659 35.600 C 315.348 35.600,314.803 35.284,314.447 34.897 C 314.091 34.511,313.305 33.940,312.700 33.630 C 312.095 33.319,311.600 32.915,311.600 32.732 C 311.600 32.550,311.280 32.400,310.888 32.400 C 310.497 32.400,309.917 32.040,309.600 31.600 C 309.283 31.160,308.743 30.800,308.400 30.800 C 308.057 30.800,307.517 30.440,307.200 30.000 C 306.883 29.560,306.386 29.200,306.095 29.200 C 305.804 29.200,305.180 28.840,304.708 28.400 C 304.236 27.960,303.613 27.600,303.325 27.600 C 303.036 27.600,302.800 27.420,302.800 27.200 C 302.800 26.980,302.440 26.800,302.000 26.800 C 301.560 26.800,301.200 26.620,301.200 26.400 C 301.200 26.180,300.880 26.000,300.488 26.000 C 300.097 26.000,299.517 25.640,299.200 25.200 C 298.883 24.760,298.303 24.400,297.912 24.400 C 297.520 24.400,297.200 24.220,297.200 24.000 C 297.200 23.780,296.840 23.600,296.400 23.600 C 295.960 23.600,295.600 23.420,295.600 23.200 C 295.600 22.980,295.240 22.800,294.800 22.800 C 294.360 22.800,294.000 22.620,294.000 22.400 C 294.000 22.180,293.640 22.000,293.200 22.000 C 292.760 22.000,292.400 21.820,292.400 21.600 C 292.400 21.380,292.040 21.200,291.600 21.200 C 291.160 21.200,290.800 21.020,290.800 20.800 C 290.800 20.580,290.440 20.400,290.000 20.400 C 289.560 20.400,289.200 20.220,289.200 20.000 C 289.200 19.780,288.840 19.600,288.400 19.600 C 287.960 19.600,287.600 19.420,287.600 19.200 C 287.600 18.980,287.240 18.800,286.800 18.800 C 286.360 18.800,286.000 18.620,286.000 18.400 C 286.000 18.180,285.640 18.000,285.200 18.000 C 284.760 18.000,284.400 17.820,284.400 17.600 C 284.400 17.380,284.040 17.200,283.600 17.200 C 283.160 17.200,282.800 17.020,282.800 16.800 C 282.800 16.580,282.451 16.400,282.024 16.400 C 281.597 16.400,281.136 16.220,281.000 16.000 C 280.864 15.780,280.313 15.600,279.776 15.600 C 279.239 15.600,278.800 15.420,278.800 15.200 C 278.800 14.980,278.440 14.800,278.000 14.800 C 277.560 14.800,277.200 14.620,277.200 14.400 C 277.200 14.180,276.660 14.000,276.000 14.000 C 275.340 14.000,274.800 13.820,274.800 13.600 C 274.800 13.380,274.440 13.200,274.000 13.200 C 273.560 13.200,273.200 13.020,273.200 12.800 C 273.200 12.580,272.660 12.400,272.000 12.400 C 271.340 12.400,270.800 12.220,270.800 12.000 C 270.800 11.780,270.440 11.600,270.000 11.600 C 269.560 11.600,269.200 11.420,269.200 11.200 C 269.200 10.980,268.660 10.800,268.000 10.800 C 267.340 10.800,266.800 10.620,266.800 10.400 C 266.800 10.180,266.260 10.000,265.600 10.000 C 264.940 10.000,264.400 9.820,264.400 9.600 C 264.400 9.380,263.860 9.200,263.200 9.200 C 262.540 9.200,262.000 9.020,262.000 8.800 C 262.000 8.580,261.460 8.400,260.800 8.400 C 260.140 8.400,259.600 8.220,259.600 8.000 C 259.600 7.780,258.880 7.600,258.000 7.600 C 257.120 7.600,256.400 7.420,256.400 7.200 C 256.400 6.980,255.871 6.800,255.224 6.800 C 254.577 6.800,253.936 6.620,253.800 6.400 C 253.664 6.180,252.933 6.000,252.176 6.000 C 251.419 6.000,250.800 5.820,250.800 5.600 C 250.800 5.380,250.080 5.200,249.200 5.200 C 248.320 5.200,247.600 5.020,247.600 4.800 C 247.600 4.580,246.891 4.400,246.024 4.400 C 245.157 4.400,244.336 4.220,244.200 4.000 C 244.064 3.780,243.153 3.600,242.176 3.600 C 241.199 3.600,240.400 3.420,240.400 3.200 C 240.400 2.980,239.421 2.800,238.224 2.800 C 237.027 2.800,235.936 2.620,235.800 2.400 C 235.664 2.180,234.663 2.000,233.576 2.000 C 232.489 2.000,231.600 1.820,231.600 1.600 C 231.600 1.367,230.278 1.200,228.433 1.200 C 226.304 1.200,225.214 1.041,225.105 0.714 C 224.944 0.233,187.802 -0.118,178.500 0.274 M204.123 63.300 C 205.987 66.435,209.241 71.909,211.356 75.465 C 213.470 79.022,215.200 82.041,215.200 82.176 C 215.200 82.404,219.854 90.343,229.989 107.400 C 232.342 111.360,235.319 116.400,236.603 118.600 C 237.888 120.800,240.271 124.850,241.898 127.600 C 243.525 130.350,244.994 132.870,245.162 133.200 C 245.330 133.530,247.597 137.400,250.200 141.800 C 257.352 153.890,264.556 166.099,269.790 175.000 C 278.790 190.304,281.332 194.621,283.460 198.217 C 286.089 202.662,286.090 202.743,283.499 204.097 C 282.345 204.701,280.320 205.892,279.000 206.745 C 276.473 208.378,260.556 218.021,256.800 220.194 C 255.590 220.894,252.170 222.958,249.200 224.780 C 246.230 226.601,238.850 231.081,232.800 234.734 C 226.750 238.388,220.324 242.282,218.520 243.389 C 206.260 250.907,200.386 254.400,200.004 254.400 C 199.761 254.400,196.286 252.396,192.281 249.946 C 188.277 247.496,178.250 241.407,170.000 236.416 C 161.750 231.424,153.740 226.568,152.200 225.624 C 150.660 224.680,143.550 220.394,136.400 216.100 C 129.250 211.806,122.320 207.595,121.000 206.743 C 119.680 205.891,117.655 204.701,116.501 204.097 C 113.838 202.705,113.803 202.932,117.659 196.465 C 119.452 193.459,122.488 188.300,124.407 185.000 C 126.326 181.700,129.337 176.570,131.099 173.600 C 135.799 165.678,140.809 157.179,141.615 155.760 C 142.002 155.077,143.167 153.097,144.202 151.360 C 147.606 145.648,149.836 141.870,152.799 136.800 C 154.405 134.050,156.838 129.910,158.205 127.600 C 161.121 122.674,168.903 109.448,172.916 102.600 C 174.463 99.960,176.396 96.720,177.212 95.400 C 179.894 91.062,184.594 83.028,184.913 82.237 C 185.213 81.493,187.123 78.192,191.995 70.000 C 193.237 67.910,195.389 64.265,196.777 61.900 C 200.072 56.283,199.937 56.257,204.123 63.300 M285.200 219.606 C 285.200 219.830,283.932 221.855,282.383 224.106 C 280.833 226.358,278.017 230.450,276.124 233.200 C 271.668 239.674,257.497 260.059,252.488 267.200 C 251.640 268.410,249.651 271.290,248.070 273.600 C 242.815 281.276,239.060 286.697,232.800 295.643 C 222.621 310.189,222.208 310.785,218.435 316.400 C 216.439 319.370,214.113 322.790,213.267 324.000 C 212.420 325.210,209.259 329.755,206.242 334.100 C 199.612 343.647,200.270 343.446,195.994 337.227 C 195.001 335.782,192.391 332.015,190.194 328.855 C 187.997 325.695,185.561 322.095,184.779 320.855 C 183.997 319.615,181.285 315.630,178.752 312.000 C 176.218 308.370,172.012 302.340,169.403 298.600 C 166.795 294.860,163.927 290.771,163.030 289.512 C 160.988 286.646,156.433 280.043,154.676 277.400 C 152.716 274.454,149.947 270.449,145.845 264.631 C 143.840 261.788,140.490 256.987,138.400 253.961 C 136.310 250.935,133.250 246.526,131.600 244.164 C 129.950 241.801,126.710 237.121,124.400 233.764 C 122.090 230.407,119.075 226.041,117.700 224.062 C 114.516 219.480,114.612 218.438,118.000 220.803 C 118.550 221.187,120.800 222.582,123.000 223.903 C 125.200 225.224,130.330 228.331,134.400 230.807 C 138.470 233.283,142.790 235.885,144.000 236.589 C 145.210 237.292,149.980 240.175,154.600 242.995 C 159.220 245.814,163.540 248.432,164.200 248.812 C 164.860 249.192,168.730 251.530,172.800 254.009 C 176.870 256.487,181.135 259.074,182.278 259.758 C 183.421 260.441,187.700 263.025,191.787 265.500 C 195.874 267.975,199.500 270.000,199.846 270.000 C 200.420 270.000,204.039 267.875,219.600 258.401 C 222.570 256.592,229.860 252.189,235.800 248.615 C 241.740 245.041,250.110 239.987,254.400 237.382 C 282.461 220.347,285.200 218.766,285.200 219.606 " stroke="none" fill="#fbfbfb" fill-rule="evenodd"></path><path id="path2" d="M199.703 58.900 C 199.486 59.175,198.224 61.290,196.898 63.600 C 195.573 65.910,192.579 71.003,190.244 74.918 C 187.910 78.834,186.000 82.121,186.000 82.224 C 186.000 82.419,183.576 86.541,176.487 98.400 C 174.186 102.250,171.187 107.290,169.824 109.600 C 164.924 117.900,162.852 121.427,161.933 123.024 C 161.420 123.918,159.936 126.438,158.635 128.624 C 154.233 136.026,148.923 144.984,146.957 148.329 C 145.881 150.160,144.818 151.960,144.595 152.329 C 144.372 152.698,143.670 153.900,143.036 155.000 C 142.401 156.100,141.118 158.260,140.185 159.800 C 139.252 161.340,138.150 163.230,137.736 164.000 C 137.322 164.770,135.913 167.200,134.605 169.400 C 133.298 171.600,130.102 177.000,127.502 181.400 C 124.903 185.800,122.609 189.670,122.404 190.000 C 121.104 192.095,118.174 197.066,118.043 197.400 C 117.956 197.620,117.263 198.747,116.501 199.904 C 115.172 201.925,115.006 203.235,116.087 203.168 C 116.489 203.144,116.492 203.093,116.100 202.935 C 114.744 202.388,115.939 201.415,120.947 198.989 C 123.888 197.565,126.400 196.400,126.530 196.400 C 126.659 196.400,129.158 195.256,132.083 193.859 C 135.007 192.461,139.380 190.406,141.800 189.292 C 144.220 188.179,149.260 185.833,153.000 184.080 C 156.740 182.327,163.400 179.233,167.800 177.205 C 172.200 175.177,178.590 172.204,182.000 170.597 C 194.630 164.648,196.237 163.897,197.900 163.171 L 199.600 162.428 199.600 111.447 C 199.600 58.142,199.585 58.712,200.911 59.883 C 201.721 60.598,201.721 60.596,201.016 59.500 C 200.199 58.231,200.223 58.242,199.703 58.900 M204.600 66.000 C 204.941 66.660,205.311 67.200,205.421 67.200 C 205.531 67.200,205.341 66.660,205.000 66.000 C 204.659 65.340,204.289 64.800,204.179 64.800 C 204.069 64.800,204.259 65.340,204.600 66.000 M214.200 82.400 C 214.757 83.500,215.303 84.400,215.413 84.400 C 215.523 84.400,215.157 83.500,214.600 82.400 C 214.043 81.300,213.497 80.400,213.387 80.400 C 213.277 80.400,213.643 81.300,214.200 82.400 M218.000 89.000 C 218.726 90.320,219.502 91.580,219.725 91.800 C 219.948 92.020,219.541 91.120,218.821 89.800 C 218.101 88.480,217.325 87.220,217.096 87.000 C 216.867 86.780,217.274 87.680,218.000 89.000 M227.560 105.000 C 228.234 106.305,228.788 107.028,228.785 106.600 C 228.783 106.380,228.414 105.750,227.964 105.200 C 227.421 104.536,227.285 104.469,227.560 105.000 M229.149 107.800 C 229.365 108.240,229.834 108.960,230.193 109.400 L 230.844 110.200 230.451 109.400 C 230.235 108.960,229.766 108.240,229.407 107.800 L 228.756 107.000 229.149 107.800 M238.200 123.200 C 238.541 123.860,238.911 124.400,239.021 124.400 C 239.131 124.400,238.941 123.860,238.600 123.200 C 238.259 122.540,237.889 122.000,237.779 122.000 C 237.669 122.000,237.859 122.540,238.200 123.200 M248.600 140.800 C 248.941 141.460,249.311 142.000,249.421 142.000 C 249.531 142.000,249.341 141.460,249.000 140.800 C 248.659 140.140,248.289 139.600,248.179 139.600 C 248.069 139.600,248.259 140.140,248.600 140.800 M268.830 175.000 C 269.324 175.880,269.900 176.780,270.110 177.000 C 270.709 177.628,269.339 175.094,268.596 174.200 C 268.230 173.760,268.335 174.120,268.830 175.000 M144.400 220.150 C 144.400 220.244,145.041 220.699,145.824 221.161 C 146.607 221.623,147.136 221.820,146.999 221.598 C 146.731 221.164,144.400 219.866,144.400 220.150 M282.618 220.937 C 281.928 221.442,281.940 221.471,282.819 221.406 C 283.333 221.368,283.825 221.126,283.910 220.869 C 284.119 220.244,283.523 220.275,282.618 220.937 M117.200 221.864 C 117.200 222.010,118.251 223.585,119.536 225.364 C 120.821 227.144,123.026 230.291,124.436 232.357 C 125.846 234.423,127.900 237.405,129.000 238.984 C 130.100 240.563,132.046 243.372,133.324 245.227 C 134.602 247.082,135.978 249.050,136.382 249.600 C 138.151 252.010,148.831 267.358,155.031 276.400 C 157.370 279.810,160.611 284.490,162.233 286.800 C 163.856 289.110,166.485 292.890,168.074 295.200 C 169.664 297.510,172.502 301.572,174.382 304.226 C 177.974 309.298,184.092 318.138,186.821 322.200 C 187.708 323.520,189.697 326.400,191.242 328.600 C 192.787 330.800,195.294 334.431,196.814 336.669 C 200.046 341.431,200.066 341.447,201.047 340.297 C 201.634 339.609,201.649 339.530,201.118 339.941 C 200.742 340.231,200.247 340.353,200.018 340.211 C 199.396 339.827,199.438 271.922,200.060 271.300 C 200.406 270.954,200.332 270.852,199.760 270.886 C 199.056 270.928,194.707 268.425,185.800 262.853 C 183.820 261.615,181.709 260.331,181.109 260.001 C 179.269 258.987,151.302 242.060,148.466 240.243 C 147.000 239.304,144.990 238.077,144.000 237.517 C 143.010 236.956,139.770 235.012,136.800 233.195 C 133.830 231.378,129.278 228.611,126.684 227.046 C 124.090 225.481,121.030 223.622,119.884 222.916 C 117.769 221.612,117.200 221.389,117.200 221.864 M151.000 224.206 C 151.895 224.941,155.227 226.703,154.600 226.110 C 154.380 225.902,153.300 225.241,152.200 224.641 C 151.100 224.041,150.560 223.845,151.000 224.206 M271.100 227.829 C 269.605 228.640,269.696 228.978,271.200 228.200 C 271.860 227.859,272.400 227.494,272.400 227.390 C 272.400 227.132,272.357 227.147,271.100 227.829 M161.600 230.579 C 161.600 230.689,162.140 231.059,162.800 231.400 C 163.460 231.741,164.000 231.931,164.000 231.821 C 164.000 231.711,163.460 231.341,162.800 231.000 C 162.140 230.659,161.600 230.469,161.600 230.579 M174.200 238.207 C 174.640 238.566,175.360 239.035,175.800 239.251 L 176.600 239.644 175.800 238.993 C 175.360 238.634,174.640 238.165,174.200 237.949 L 173.400 237.556 174.200 238.207 M248.593 241.456 C 246.552 242.809,245.832 243.523,247.426 242.614 C 248.830 241.814,250.701 240.422,250.393 240.409 C 250.279 240.404,249.469 240.875,248.593 241.456 M179.400 241.407 C 179.840 241.766,180.560 242.235,181.000 242.451 L 181.800 242.844 181.000 242.193 C 180.560 241.834,179.840 241.365,179.400 241.149 L 178.600 240.756 179.400 241.407 M267.200 244.600 C 266.519 245.590,266.052 246.400,266.162 246.400 C 266.272 246.400,266.919 245.590,267.600 244.600 C 268.281 243.610,268.748 242.800,268.638 242.800 C 268.528 242.800,267.881 243.610,267.200 244.600 M244.081 244.172 C 242.325 245.414,241.897 245.945,243.400 245.018 C 245.478 243.735,246.191 243.199,245.789 243.220 C 245.575 243.230,244.807 243.659,244.081 244.172 M239.700 246.846 C 238.337 247.719,237.895 248.306,239.100 247.643 C 240.018 247.139,241.456 246.027,241.200 246.019 C 241.090 246.016,240.415 246.388,239.700 246.846 M209.100 265.429 C 207.605 266.240,207.696 266.578,209.200 265.800 C 209.860 265.459,210.400 265.094,210.400 264.990 C 210.400 264.732,210.357 264.747,209.100 265.429 M248.400 271.600 C 247.504 272.920,246.860 274.000,246.970 274.000 C 247.080 274.000,247.904 272.920,248.800 271.600 C 249.696 270.280,250.340 269.200,250.230 269.200 C 250.120 269.200,249.296 270.280,248.400 271.600 M245.600 275.600 C 245.130 276.260,244.836 276.800,244.946 276.800 C 245.056 276.800,245.530 276.260,246.000 275.600 C 246.470 274.940,246.764 274.400,246.654 274.400 C 246.544 274.400,246.070 274.940,245.600 275.600 M240.400 283.200 C 239.930 283.860,239.636 284.400,239.746 284.400 C 239.856 284.400,240.330 283.860,240.800 283.200 C 241.270 282.540,241.564 282.000,241.454 282.000 C 241.344 282.000,240.870 282.540,240.400 283.200 M236.800 288.400 C 236.330 289.060,236.036 289.600,236.146 289.600 C 236.256 289.600,236.730 289.060,237.200 288.400 C 237.670 287.740,237.964 287.200,237.854 287.200 C 237.744 287.200,237.270 287.740,236.800 288.400 M234.800 291.200 C 234.330 291.860,234.036 292.400,234.146 292.400 C 234.256 292.400,234.730 291.860,235.200 291.200 C 235.670 290.540,235.964 290.000,235.854 290.000 C 235.744 290.000,235.270 290.540,234.800 291.200 M231.200 296.400 C 230.730 297.060,230.436 297.600,230.546 297.600 C 230.656 297.600,231.130 297.060,231.600 296.400 C 232.070 295.740,232.364 295.200,232.254 295.200 C 232.144 295.200,231.670 295.740,231.200 296.400 M228.400 300.400 C 227.504 301.720,226.860 302.800,226.970 302.800 C 227.080 302.800,227.904 301.720,228.800 300.400 C 229.696 299.080,230.340 298.000,230.230 298.000 C 230.120 298.000,229.296 299.080,228.400 300.400 M222.985 308.100 C 222.368 309.035,222.120 309.589,222.432 309.331 C 223.033 308.834,224.564 306.400,224.276 306.400 C 224.183 306.400,223.602 307.165,222.985 308.100 M217.200 316.400 C 216.730 317.060,216.436 317.600,216.546 317.600 C 216.656 317.600,217.130 317.060,217.600 316.400 C 218.070 315.740,218.364 315.200,218.254 315.200 C 218.144 315.200,217.670 315.740,217.200 316.400 M212.913 322.900 C 211.653 324.539,208.768 328.900,209.275 328.400 C 210.065 327.621,213.728 322.400,213.484 322.400 C 213.382 322.400,213.125 322.625,212.913 322.900 M205.919 332.900 C 204.757 334.448,204.296 335.200,204.509 335.200 C 204.594 335.200,205.246 334.390,205.957 333.400 C 207.432 331.346,207.400 330.927,205.919 332.900 M202.800 337.400 C 202.119 338.390,201.652 339.200,201.762 339.200 C 201.872 339.200,202.519 338.390,203.200 337.400 C 203.881 336.410,204.348 335.600,204.238 335.600 C 204.128 335.600,203.481 336.410,202.800 337.400 " stroke="none" fill="#909cbb" fill-rule="evenodd"></path><path id="path3" d="M196.777 61.900 C 195.389 64.265,193.237 67.910,191.995 70.000 C 187.123 78.192,185.213 81.493,184.913 82.237 C 184.594 83.028,179.894 91.062,177.212 95.400 C 176.396 96.720,174.463 99.960,172.916 102.600 C 168.903 109.448,161.121 122.674,158.205 127.600 C 156.838 129.910,154.405 134.050,152.799 136.800 C 149.836 141.870,147.606 145.648,144.202 151.360 C 143.167 153.097,142.002 155.077,141.615 155.760 C 140.809 157.179,135.799 165.678,131.099 173.600 C 129.337 176.570,126.326 181.700,124.407 185.000 C 122.488 188.300,119.452 193.459,117.659 196.465 C 113.803 202.932,113.838 202.705,116.501 204.097 C 117.655 204.701,119.680 205.891,121.000 206.743 C 122.320 207.595,129.250 211.806,136.400 216.100 C 143.550 220.394,150.660 224.680,152.200 225.624 C 153.740 226.568,161.750 231.424,170.000 236.416 C 178.250 241.407,188.277 247.496,192.281 249.946 C 196.286 252.396,199.758 254.400,199.997 254.400 C 200.506 254.400,213.200 246.830,213.200 246.526 C 213.200 246.413,212.525 246.723,211.700 247.215 C 210.875 247.706,209.648 248.423,208.974 248.806 C 208.299 249.190,206.061 250.547,203.999 251.822 L 200.251 254.140 198.426 253.137 C 197.422 252.585,193.846 250.438,190.480 248.367 C 187.115 246.295,183.425 244.041,182.280 243.358 C 181.136 242.674,176.420 239.814,171.800 237.002 C 167.180 234.189,162.860 231.578,162.200 231.200 C 159.130 229.440,156.478 227.817,154.938 226.757 C 154.013 226.121,153.166 225.600,153.056 225.600 C 152.946 225.600,150.998 224.464,148.728 223.077 C 141.683 218.770,138.319 216.738,135.000 214.787 C 131.754 212.878,125.324 208.980,119.271 205.251 C 117.439 204.123,115.769 203.200,115.558 203.200 C 114.652 203.200,114.856 201.992,116.083 200.105 C 116.807 198.989,118.739 195.765,120.375 192.938 C 122.011 190.112,125.271 184.560,127.618 180.600 C 129.966 176.640,133.052 171.420,134.476 169.000 C 135.900 166.580,139.138 161.090,141.672 156.800 C 147.013 147.759,154.003 135.895,159.703 126.200 C 161.902 122.460,164.308 118.458,165.050 117.306 C 165.793 116.155,166.400 115.116,166.400 114.997 C 166.400 114.879,167.453 113.031,168.739 110.891 C 171.895 105.642,182.587 87.604,184.368 84.525 C 185.156 83.164,187.060 79.861,188.600 77.185 C 194.375 67.148,199.813 58.200,200.137 58.200 C 200.484 58.200,202.948 62.151,207.995 70.800 C 209.600 73.550,211.581 76.880,212.398 78.200 C 213.215 79.520,214.292 81.410,214.790 82.400 C 215.288 83.390,218.578 89.060,222.100 95.000 C 225.622 100.940,229.775 107.960,231.328 110.600 C 232.881 113.240,234.960 116.750,235.946 118.400 C 236.933 120.050,237.934 121.760,238.170 122.200 C 238.407 122.641,239.881 125.161,241.447 127.800 C 243.013 130.440,246.419 136.200,249.017 140.600 C 256.518 153.307,258.821 157.197,260.722 160.378 C 261.702 162.016,262.950 164.176,263.496 165.178 C 264.042 166.180,265.160 168.080,265.980 169.400 C 267.379 171.652,271.015 177.810,274.718 184.200 C 275.610 185.740,276.637 187.360,277.000 187.800 C 277.877 188.864,277.613 188.287,275.902 185.400 C 275.120 184.080,272.367 179.400,269.783 175.000 C 264.849 166.597,258.126 155.199,250.200 141.800 C 247.597 137.400,245.330 133.530,245.162 133.200 C 244.994 132.870,243.525 130.350,241.898 127.600 C 240.271 124.850,237.888 120.800,236.603 118.600 C 235.319 116.400,232.342 111.360,229.989 107.400 C 219.854 90.343,215.200 82.404,215.200 82.176 C 215.200 82.041,213.470 79.022,211.356 75.465 C 209.241 71.909,205.987 66.435,204.123 63.300 C 199.937 56.257,200.072 56.283,196.777 61.900 M277.600 188.949 C 277.600 189.248,281.273 195.200,281.457 195.200 C 281.680 195.200,281.780 195.390,279.612 191.700 C 278.103 189.131,277.600 188.443,277.600 188.949 M282.573 197.500 C 283.115 198.545,283.927 199.940,284.377 200.600 C 285.552 202.324,285.445 202.585,283.000 203.965 C 280.030 205.641,280.189 205.908,283.193 204.289 C 286.073 202.738,286.078 202.686,283.762 198.735 C 281.724 195.259,281.041 194.550,282.573 197.500 M277.762 207.115 C 276.463 207.948,274.545 209.125,273.500 209.732 C 272.455 210.338,271.600 210.924,271.600 211.034 C 271.600 211.358,279.001 206.955,280.180 205.930 C 281.059 205.166,279.966 205.701,277.762 207.115 M268.687 212.631 C 267.429 213.418,266.400 214.148,266.400 214.254 C 266.400 214.456,268.808 213.064,270.434 211.921 C 272.165 210.704,271.031 211.165,268.687 212.631 M264.081 215.372 C 262.325 216.614,261.897 217.145,263.400 216.218 C 265.478 214.935,266.191 214.399,265.789 214.420 C 265.575 214.430,264.807 214.859,264.081 215.372 M258.856 218.584 C 255.845 220.395,254.609 221.309,256.400 220.401 C 257.891 219.645,262.000 217.108,262.000 216.943 C 262.000 216.702,261.890 216.759,258.856 218.584 M273.379 225.924 C 267.230 229.621,258.690 234.778,254.400 237.382 C 250.110 239.987,241.740 245.041,235.800 248.615 C 229.860 252.189,222.570 256.592,219.600 258.401 C 204.039 267.875,200.420 270.000,199.846 270.000 C 199.500 270.000,195.874 267.975,191.787 265.500 C 187.700 263.025,183.421 260.441,182.278 259.758 C 181.135 259.074,176.870 256.487,172.800 254.009 C 168.730 251.530,164.860 249.192,164.200 248.812 C 163.540 248.432,159.220 245.814,154.600 242.995 C 149.980 240.175,145.210 237.292,144.000 236.589 C 142.790 235.885,138.470 233.283,134.400 230.807 C 130.330 228.331,125.200 225.224,123.000 223.903 C 120.800 222.582,118.550 221.187,118.000 220.803 C 114.612 218.438,114.516 219.480,117.700 224.062 C 119.075 226.041,122.090 230.407,124.400 233.764 C 126.710 237.121,129.950 241.801,131.600 244.164 C 133.250 246.526,136.310 250.935,138.400 253.961 C 140.490 256.987,143.840 261.788,145.845 264.631 C 149.947 270.449,152.716 274.454,154.676 277.400 C 156.433 280.043,160.988 286.646,163.030 289.512 C 163.927 290.771,166.795 294.860,169.403 298.600 C 172.012 302.340,176.218 308.370,178.752 312.000 C 181.285 315.630,183.997 319.615,184.779 320.855 C 185.561 322.095,187.997 325.695,190.194 328.855 C 192.391 332.015,195.001 335.782,195.994 337.227 C 200.270 343.446,199.612 343.647,206.242 334.100 C 209.259 329.755,212.420 325.210,213.267 324.000 C 214.113 322.790,216.439 319.370,218.435 316.400 C 222.208 310.785,222.621 310.189,232.800 295.643 C 239.060 286.697,242.815 281.276,248.070 273.600 C 249.651 271.290,251.640 268.410,252.488 267.200 C 257.497 260.059,271.668 239.674,276.124 233.200 C 278.017 230.450,280.833 226.358,282.383 224.106 C 286.812 217.671,287.246 217.583,273.379 225.924 M284.399 220.300 C 284.399 220.465,283.645 221.680,282.723 223.000 C 277.343 230.702,273.907 235.646,270.352 240.800 C 265.068 248.460,261.663 253.349,252.727 266.100 C 251.147 268.355,247.814 273.170,245.322 276.800 C 242.830 280.430,239.722 284.930,238.416 286.800 C 234.590 292.277,226.989 303.183,225.035 306.000 C 224.043 307.430,221.699 310.760,219.827 313.400 C 217.955 316.040,215.696 319.370,214.807 320.800 C 213.918 322.230,212.428 324.480,211.494 325.800 C 210.561 327.120,207.754 331.134,205.255 334.721 C 202.244 339.044,200.504 341.201,200.092 341.121 C 199.750 341.054,197.357 337.940,194.773 334.200 C 192.190 330.460,189.071 325.960,187.842 324.200 C 186.613 322.440,184.151 318.840,182.371 316.200 C 180.591 313.560,178.025 309.828,176.668 307.907 C 174.236 304.466,166.921 294.019,161.467 286.200 C 159.933 284.000,157.358 280.267,155.746 277.906 C 154.133 275.544,152.148 272.664,151.334 271.506 C 150.520 270.347,149.285 268.590,148.590 267.600 C 146.463 264.571,138.243 252.768,136.193 249.800 C 135.130 248.260,133.444 245.830,132.447 244.400 C 131.450 242.970,128.211 238.290,125.250 234.000 C 122.290 229.710,119.075 225.056,118.108 223.659 C 117.141 222.261,116.439 221.028,116.548 220.918 C 116.723 220.744,125.270 225.752,131.000 229.387 C 132.100 230.084,134.620 231.612,136.600 232.783 C 138.580 233.953,140.830 235.308,141.600 235.795 C 142.370 236.281,144.530 237.583,146.400 238.688 C 148.270 239.794,152.140 242.135,155.000 243.892 C 161.303 247.764,162.790 248.665,169.200 252.501 C 171.950 254.147,176.360 256.815,179.000 258.431 C 195.417 268.476,199.430 270.781,200.119 270.562 C 200.520 270.435,202.296 269.433,204.066 268.335 C 205.837 267.237,207.851 266.017,208.542 265.623 C 209.234 265.229,211.330 263.959,213.200 262.800 C 215.070 261.641,217.140 260.381,217.800 260.000 C 218.460 259.619,220.530 258.359,222.400 257.200 C 224.270 256.041,226.340 254.781,227.000 254.400 C 228.511 253.527,249.671 240.715,253.307 238.471 C 254.796 237.552,256.082 236.800,256.165 236.800 C 256.249 236.800,258.000 235.742,260.058 234.449 C 262.116 233.156,264.430 231.737,265.200 231.297 C 265.970 230.856,270.470 228.142,275.200 225.266 C 283.716 220.086,284.400 219.717,284.399 220.300 M253.000 222.053 C 251.900 222.734,250.820 223.476,250.600 223.703 C 250.157 224.158,252.914 222.590,254.434 221.521 C 256.031 220.398,255.139 220.729,253.000 222.053 M245.800 226.441 C 242.074 228.702,239.290 230.730,242.400 228.918 C 247.706 225.827,250.554 223.962,249.900 224.007 C 249.845 224.011,248.000 225.106,245.800 226.441 M237.400 231.530 C 235.640 232.591,232.040 234.762,229.400 236.354 C 226.760 237.947,224.420 239.445,224.200 239.684 C 223.933 239.973,223.933 240.046,224.200 239.903 C 225.565 239.171,240.270 230.236,240.580 229.950 C 241.359 229.233,240.513 229.653,237.400 231.530 M221.087 241.431 C 219.829 242.218,218.800 242.958,218.800 243.077 C 218.800 243.195,219.279 242.978,219.865 242.594 C 220.451 242.210,221.531 241.541,222.265 241.108 C 223.416 240.429,223.890 240.000,223.487 240.000 C 223.426 240.000,222.346 240.644,221.087 241.431 M216.000 244.455 C 214.215 245.675,212.867 246.819,213.915 246.226 C 215.527 245.313,218.523 243.202,218.191 243.213 C 217.976 243.220,216.990 243.779,216.000 244.455 " stroke="none" fill="#b2b8ce" fill-rule="evenodd"></path><path id="path4" d="M195.292 65.700 C 193.975 67.955,192.498 70.475,192.009 71.300 C 191.521 72.125,191.211 72.800,191.321 72.800 C 191.432 72.800,192.917 70.415,194.622 67.500 C 198.338 61.147,198.088 61.600,197.867 61.600 C 197.768 61.600,196.610 63.445,195.292 65.700 M190.200 74.400 C 189.859 75.060,189.669 75.600,189.779 75.600 C 189.889 75.600,190.259 75.060,190.600 74.400 C 190.941 73.740,191.131 73.200,191.021 73.200 C 190.911 73.200,190.541 73.740,190.200 74.400 M188.953 76.500 C 187.576 78.836,187.486 79.035,188.187 78.200 C 189.000 77.232,189.700 76.000,189.438 76.000 C 189.333 76.000,189.115 76.225,188.953 76.500 M179.908 92.100 C 179.033 93.449,178.248 95.056,178.687 94.600 C 179.248 94.017,180.898 91.200,180.679 91.200 C 180.576 91.200,180.229 91.605,179.908 92.100 M177.753 95.700 C 176.376 98.036,176.286 98.235,176.987 97.400 C 177.800 96.432,178.500 95.200,178.238 95.200 C 178.133 95.200,177.915 95.425,177.753 95.700 M175.353 99.700 C 173.976 102.036,173.886 102.235,174.587 101.400 C 175.400 100.432,176.100 99.200,175.838 99.200 C 175.733 99.200,175.515 99.425,175.353 99.700 M171.400 106.400 C 171.059 107.060,170.869 107.600,170.979 107.600 C 171.089 107.600,171.459 107.060,171.800 106.400 C 172.141 105.740,172.331 105.200,172.221 105.200 C 172.111 105.200,171.741 105.740,171.400 106.400 M164.953 117.300 C 163.576 119.636,163.486 119.835,164.187 119.000 C 165.000 118.032,165.700 116.800,165.438 116.800 C 165.333 116.800,165.115 117.025,164.953 117.300 M161.224 123.718 C 160.923 124.203,160.415 125.005,160.093 125.500 C 159.771 125.995,159.595 126.400,159.701 126.400 C 159.983 126.400,162.086 123.153,161.915 122.981 C 161.835 122.902,161.524 123.233,161.224 123.718 M155.751 132.900 C 155.383 133.615,154.819 134.650,154.498 135.200 C 153.939 136.159,153.943 136.167,154.589 135.400 C 155.378 134.463,156.907 131.600,156.618 131.600 C 156.510 131.600,156.119 132.185,155.751 132.900 M150.553 141.700 C 149.176 144.036,149.086 144.235,149.787 143.400 C 150.600 142.432,151.300 141.200,151.038 141.200 C 150.933 141.200,150.715 141.425,150.553 141.700 M146.600 148.400 C 146.259 149.060,146.069 149.600,146.179 149.600 C 146.289 149.600,146.659 149.060,147.000 148.400 C 147.341 147.740,147.531 147.200,147.421 147.200 C 147.311 147.200,146.941 147.740,146.600 148.400 M140.153 159.300 C 138.776 161.636,138.686 161.835,139.387 161.000 C 140.200 160.032,140.900 158.800,140.638 158.800 C 140.533 158.800,140.315 159.025,140.153 159.300 M136.416 165.718 C 135.080 167.843,134.334 169.200,134.501 169.200 C 134.756 169.200,137.258 165.125,137.100 164.967 C 137.028 164.895,136.720 165.233,136.416 165.718 M132.000 173.200 C 131.551 174.080,131.274 174.800,131.384 174.800 C 131.494 174.800,131.951 174.080,132.400 173.200 C 132.849 172.320,133.126 171.600,133.016 171.600 C 132.906 171.600,132.449 172.320,132.000 173.200 M127.000 181.600 C 126.659 182.260,126.469 182.800,126.579 182.800 C 126.689 182.800,127.059 182.260,127.400 181.600 C 127.741 180.940,127.931 180.400,127.821 180.400 C 127.711 180.400,127.341 180.940,127.000 181.600 M125.753 183.700 C 124.376 186.036,124.286 186.235,124.987 185.400 C 125.800 184.432,126.500 183.200,126.238 183.200 C 126.133 183.200,125.915 183.425,125.753 183.700 M116.490 221.269 C 116.575 221.526,117.067 221.768,117.581 221.806 C 118.460 221.871,118.472 221.842,117.782 221.337 C 116.877 220.675,116.281 220.644,116.490 221.269 M122.200 224.281 C 122.420 224.508,123.500 225.197,124.600 225.813 C 125.700 226.428,126.420 226.746,126.200 226.519 C 125.980 226.292,124.900 225.603,123.800 224.987 C 122.700 224.372,121.980 224.054,122.200 224.281 M133.200 230.979 C 133.200 231.089,133.740 231.459,134.400 231.800 C 135.060 232.141,135.600 232.331,135.600 232.221 C 135.600 232.111,135.060 231.741,134.400 231.400 C 133.740 231.059,133.200 230.869,133.200 230.979 M127.385 237.100 C 128.002 238.035,128.583 238.800,128.676 238.800 C 128.964 238.800,127.433 236.366,126.832 235.869 C 126.520 235.611,126.768 236.165,127.385 237.100 M129.600 240.400 C 130.070 241.060,130.544 241.600,130.654 241.600 C 130.764 241.600,130.470 241.060,130.000 240.400 C 129.530 239.740,129.056 239.200,128.946 239.200 C 128.836 239.200,129.130 239.740,129.600 240.400 M147.200 239.291 C 147.200 239.384,148.505 240.273,150.100 241.266 C 154.688 244.123,156.000 244.880,156.000 244.666 C 156.000 244.493,154.729 243.687,148.500 239.909 C 147.785 239.476,147.200 239.197,147.200 239.291 M159.000 246.607 C 159.440 246.966,160.160 247.435,160.600 247.651 L 161.400 248.044 160.600 247.393 C 160.160 247.034,159.440 246.565,159.000 246.349 L 158.200 245.956 159.000 246.607 M136.384 250.114 C 137.084 251.151,137.728 252.000,137.815 252.000 C 138.110 252.000,136.363 249.267,135.735 248.746 C 135.392 248.461,135.684 249.077,136.384 250.114 M167.000 251.396 C 167.894 252.139,170.428 253.509,169.800 252.910 C 169.580 252.700,168.680 252.124,167.800 251.630 C 166.920 251.135,166.560 251.030,167.000 251.396 M171.600 254.179 C 171.600 254.289,172.140 254.659,172.800 255.000 C 173.460 255.341,174.000 255.531,174.000 255.421 C 174.000 255.311,173.460 254.941,172.800 254.600 C 172.140 254.259,171.600 254.069,171.600 254.179 M142.000 258.200 C 142.681 259.190,143.328 260.000,143.438 260.000 C 143.548 260.000,143.081 259.190,142.400 258.200 C 141.719 257.210,141.072 256.400,140.962 256.400 C 140.852 256.400,141.319 257.210,142.000 258.200 M180.344 259.576 C 180.864 260.029,181.479 260.400,181.711 260.400 C 182.203 260.400,182.179 260.380,180.600 259.455 L 179.400 258.753 180.344 259.576 M147.044 265.389 C 148.475 267.485,149.730 269.200,149.833 269.200 C 150.103 269.200,145.295 262.106,144.830 261.819 C 144.617 261.687,145.613 263.293,147.044 265.389 M190.000 265.379 C 190.000 265.489,190.540 265.859,191.200 266.200 C 191.860 266.541,192.400 266.731,192.400 266.621 C 192.400 266.511,191.860 266.141,191.200 265.800 C 190.540 265.459,190.000 265.269,190.000 265.379 M151.642 271.968 C 152.560 273.306,153.387 274.400,153.479 274.400 C 153.674 274.400,153.447 274.014,151.895 271.710 C 151.270 270.781,150.581 269.912,150.366 269.779 C 150.150 269.645,150.725 270.631,151.642 271.968 M156.277 278.831 C 156.675 279.508,157.256 280.273,157.568 280.531 C 157.880 280.789,157.632 280.235,157.015 279.300 C 155.720 277.337,155.209 277.012,156.277 278.831 M159.599 283.500 C 160.122 284.215,160.613 284.800,160.689 284.800 C 160.993 284.800,160.001 283.300,159.345 282.767 C 158.913 282.416,159.010 282.696,159.599 283.500 M162.400 287.600 C 163.296 288.920,164.120 290.000,164.230 290.000 C 164.340 290.000,163.696 288.920,162.800 287.600 C 161.904 286.280,161.080 285.200,160.970 285.200 C 160.860 285.200,161.504 286.280,162.400 287.600 M167.600 295.000 C 168.713 296.650,169.714 298.000,169.824 298.000 C 169.934 298.000,169.113 296.650,168.000 295.000 C 166.887 293.350,165.886 292.000,165.776 292.000 C 165.666 292.000,166.487 293.350,167.600 295.000 M171.600 300.800 C 172.070 301.460,172.544 302.000,172.654 302.000 C 172.764 302.000,172.470 301.460,172.000 300.800 C 171.530 300.140,171.056 299.600,170.946 299.600 C 170.836 299.600,171.130 300.140,171.600 300.800 M176.677 308.031 C 177.075 308.708,177.656 309.473,177.968 309.731 C 178.280 309.989,178.032 309.435,177.415 308.500 C 176.120 306.537,175.609 306.212,176.677 308.031 M184.996 320.000 C 185.537 320.990,186.445 322.340,187.012 323.000 C 187.730 323.835,187.615 323.531,186.633 322.000 C 184.596 318.822,183.859 317.922,184.996 320.000 M188.800 325.600 C 189.270 326.260,189.744 326.800,189.854 326.800 C 189.964 326.800,189.670 326.260,189.200 325.600 C 188.730 324.940,188.256 324.400,188.146 324.400 C 188.036 324.400,188.330 324.940,188.800 325.600 M190.362 327.800 C 190.590 328.240,191.154 329.050,191.615 329.600 C 192.187 330.282,192.322 330.346,192.038 329.800 C 191.810 329.360,191.246 328.550,190.785 328.000 C 190.213 327.318,190.078 327.254,190.362 327.800 M195.035 334.659 C 196.516 336.826,197.994 338.870,198.321 339.200 C 198.647 339.530,197.611 337.865,196.018 335.499 C 194.425 333.134,192.946 331.090,192.732 330.958 C 192.518 330.826,193.554 332.491,195.035 334.659 " stroke="none" fill="#9da4bc" fill-rule="evenodd"></path></g></svg>