<svg id="svg" version="1.1" xmlns="http://www.w3.org/2000/svg" xmlns:xlink="http://www.w3.org/1999/xlink" width="400" height="400" viewBox="0, 0, 400,400"><g id="svgg"><path id="path0" d="M184.818 58.242 C 78.098 69.881,22.233 189.423,81.747 278.800 C 102.785 310.394,139.118 333.985,175.100 339.414 L 176.800 339.670 176.800 290.435 L 176.800 241.200 159.433 241.200 C 149.881 241.200,141.781 241.091,141.433 240.957 C 140.867 240.740,140.800 238.516,140.800 219.961 L 140.800 199.208 158.700 199.104 L 176.600 199.000 176.841 179.400 C 176.986 167.658,177.268 158.677,177.545 157.000 C 180.948 136.398,190.156 124.096,208.046 116.248 C 210.577 115.138,218.456 113.284,222.800 112.777 C 230.902 111.832,254.953 113.217,262.257 115.050 L 263.200 115.287 263.200 133.001 C 263.200 148.784,263.131 150.741,262.567 150.957 C 262.219 151.091,257.028 151.200,251.031 151.200 C 233.922 151.200,228.622 153.298,224.702 161.624 C 222.487 166.328,222.349 167.733,222.481 184.200 L 222.600 199.000 242.100 199.104 C 252.825 199.161,261.600 199.347,261.600 199.517 C 261.600 199.902,259.371 214.741,257.219 228.686 C 256.328 234.453,255.600 239.345,255.600 239.557 C 255.600 241.138,254.949 241.200,238.371 241.200 L 222.400 241.200 222.400 290.400 C 222.400 326.561,222.519 339.600,222.850 339.600 C 226.631 339.600,242.319 335.257,251.400 331.696 C 296.212 314.124,329.577 274.235,338.806 227.200 C 341.801 211.934,342.373 193.106,340.233 180.200 C 340.124 179.540,339.834 177.740,339.590 176.200 C 332.741 133.059,304.587 94.149,265.505 73.809 C 248.446 64.931,232.801 60.245,213.400 58.205 C 206.470 57.476,191.668 57.495,184.818 58.242 " stroke="none" fill="#1c74f4" fill-rule="evenodd"></path><path id="path1" d="M178.500 0.274 C 176.465 0.360,174.800 0.603,174.800 0.815 C 174.800 1.030,173.383 1.200,171.600 1.200 C 169.733 1.200,168.400 1.367,168.400 1.600 C 168.400 1.820,167.511 2.000,166.424 2.000 C 165.337 2.000,164.336 2.180,164.200 2.400 C 164.064 2.620,162.973 2.800,161.776 2.800 C 160.579 2.800,159.600 2.980,159.600 3.200 C 159.600 3.420,158.801 3.600,157.824 3.600 C 156.847 3.600,155.936 3.780,155.800 4.000 C 155.664 4.220,154.843 4.400,153.976 4.400 C 153.109 4.400,152.400 4.580,152.400 4.800 C 152.400 5.020,151.680 5.200,150.800 5.200 C 149.920 5.200,149.200 5.380,149.200 5.600 C 149.200 5.820,148.581 6.000,147.824 6.000 C 147.067 6.000,146.336 6.180,146.200 6.400 C 146.064 6.620,145.423 6.800,144.776 6.800 C 144.129 6.800,143.600 6.980,143.600 7.200 C 143.600 7.420,142.880 7.600,142.000 7.600 C 141.120 7.600,140.400 7.780,140.400 8.000 C 140.400 8.220,139.860 8.400,139.200 8.400 C 138.540 8.400,138.000 8.580,138.000 8.800 C 138.000 9.020,137.460 9.200,136.800 9.200 C 136.140 9.200,135.600 9.380,135.600 9.600 C 135.600 9.820,135.060 10.000,134.400 10.000 C 133.740 10.000,133.200 10.180,133.200 10.400 C 133.200 10.620,132.660 10.800,132.000 10.800 C 131.340 10.800,130.800 10.980,130.800 11.200 C 130.800 11.420,130.440 11.600,130.000 11.600 C 129.560 11.600,129.200 11.780,129.200 12.000 C 129.200 12.220,128.660 12.400,128.000 12.400 C 127.340 12.400,126.800 12.580,126.800 12.800 C 126.800 13.020,126.440 13.200,126.000 13.200 C 125.560 13.200,125.200 13.380,125.200 13.600 C 125.200 13.820,124.660 14.000,124.000 14.000 C 123.340 14.000,122.800 14.180,122.800 14.400 C 122.800 14.620,122.440 14.800,122.000 14.800 C 121.560 14.800,121.200 14.980,121.200 15.200 C 121.200 15.420,120.761 15.600,120.224 15.600 C 119.687 15.600,119.136 15.780,119.000 16.000 C 118.864 16.220,118.403 16.400,117.976 16.400 C 117.549 16.400,117.200 16.580,117.200 16.800 C 117.200 17.020,116.840 17.200,116.400 17.200 C 115.960 17.200,115.600 17.380,115.600 17.600 C 115.600 17.820,115.240 18.000,114.800 18.000 C 114.360 18.000,114.000 18.180,114.000 18.400 C 114.000 18.620,113.640 18.800,113.200 18.800 C 112.760 18.800,112.400 18.980,112.400 19.200 C 112.400 19.420,112.040 19.600,111.600 19.600 C 111.160 19.600,110.800 19.780,110.800 20.000 C 110.800 20.220,110.440 20.400,110.000 20.400 C 109.560 20.400,109.200 20.580,109.200 20.800 C 109.200 21.020,108.840 21.200,108.400 21.200 C 107.960 21.200,107.600 21.380,107.600 21.600 C 107.600 21.820,107.240 22.000,106.800 22.000 C 106.360 22.000,106.000 22.180,106.000 22.400 C 106.000 22.620,105.640 22.800,105.200 22.800 C 104.760 22.800,104.400 22.980,104.400 23.200 C 104.400 23.420,104.040 23.600,103.600 23.600 C 103.160 23.600,102.800 23.780,102.800 24.000 C 102.800 24.220,102.564 24.400,102.275 24.400 C 101.987 24.400,101.364 24.760,100.892 25.200 C 100.420 25.640,99.756 26.000,99.417 26.000 C 99.078 26.000,98.800 26.180,98.800 26.400 C 98.800 26.620,98.440 26.800,98.000 26.800 C 97.560 26.800,97.200 26.980,97.200 27.200 C 97.200 27.420,96.964 27.600,96.675 27.600 C 96.387 27.600,95.764 27.960,95.292 28.400 C 94.820 28.840,94.196 29.200,93.905 29.200 C 93.614 29.200,93.117 29.560,92.800 30.000 C 92.483 30.440,91.943 30.800,91.600 30.800 C 91.257 30.800,90.717 31.160,90.400 31.600 C 90.083 32.040,89.503 32.400,89.112 32.400 C 88.720 32.400,88.400 32.550,88.400 32.732 C 88.400 32.915,87.905 33.319,87.300 33.630 C 86.695 33.940,85.909 34.511,85.553 34.897 C 85.197 35.284,84.652 35.600,84.341 35.600 C 84.031 35.600,83.517 35.960,83.200 36.400 C 82.883 36.840,82.420 37.200,82.171 37.200 C 81.922 37.200,81.154 37.740,80.463 38.400 C 79.772 39.060,79.047 39.600,78.852 39.600 C 78.656 39.600,77.755 40.320,76.848 41.200 C 75.941 42.080,75.005 42.800,74.768 42.800 C 74.531 42.800,73.646 43.520,72.800 44.400 C 71.954 45.280,71.084 46.000,70.866 46.000 C 70.648 46.000,69.413 47.035,68.121 48.300 C 66.829 49.565,65.072 51.128,64.217 51.773 C 62.202 53.293,53.293 62.202,51.773 64.217 C 51.128 65.072,49.565 66.829,48.300 68.121 C 47.035 69.413,46.000 70.648,46.000 70.866 C 46.000 71.084,45.280 71.954,44.400 72.800 C 43.520 73.646,42.800 74.531,42.800 74.768 C 42.800 75.005,42.080 75.941,41.200 76.848 C 40.320 77.755,39.600 78.656,39.600 78.852 C 39.600 79.047,39.060 79.772,38.400 80.463 C 37.740 81.154,37.200 81.922,37.200 82.171 C 37.200 82.420,36.840 82.883,36.400 83.200 C 35.960 83.517,35.600 84.031,35.600 84.341 C 35.600 84.652,35.284 85.197,34.897 85.553 C 34.511 85.909,33.940 86.695,33.630 87.300 C 33.319 87.905,32.915 88.400,32.732 88.400 C 32.550 88.400,32.400 88.720,32.400 89.112 C 32.400 89.503,32.040 90.083,31.600 90.400 C 31.160 90.717,30.800 91.257,30.800 91.600 C 30.800 91.943,30.440 92.483,30.000 92.800 C 29.560 93.117,29.200 93.614,29.200 93.905 C 29.200 94.196,28.840 94.820,28.400 95.292 C 27.960 95.764,27.600 96.387,27.600 96.675 C 27.600 96.964,27.420 97.200,27.200 97.200 C 26.980 97.200,26.800 97.560,26.800 98.000 C 26.800 98.440,26.620 98.800,26.400 98.800 C 26.180 98.800,26.000 99.078,26.000 99.417 C 26.000 99.756,25.640 100.420,25.200 100.892 C 24.760 101.364,24.400 101.987,24.400 102.275 C 24.400 102.564,24.220 102.800,24.000 102.800 C 23.780 102.800,23.600 103.160,23.600 103.600 C 23.600 104.040,23.420 104.400,23.200 104.400 C 22.980 104.400,22.800 104.760,22.800 105.200 C 22.800 105.640,22.620 106.000,22.400 106.000 C 22.180 106.000,22.000 106.360,22.000 106.800 C 22.000 107.240,21.820 107.600,21.600 107.600 C 21.380 107.600,21.200 107.960,21.200 108.400 C 21.200 108.840,21.020 109.200,20.800 109.200 C 20.580 109.200,20.400 109.560,20.400 110.000 C 20.400 110.440,20.220 110.800,20.000 110.800 C 19.780 110.800,19.600 111.160,19.600 111.600 C 19.600 112.040,19.420 112.400,19.200 112.400 C 18.980 112.400,18.800 112.760,18.800 113.200 C 18.800 113.640,18.620 114.000,18.400 114.000 C 18.180 114.000,18.000 114.360,18.000 114.800 C 18.000 115.240,17.820 115.600,17.600 115.600 C 17.380 115.600,17.200 115.960,17.200 116.400 C 17.200 116.840,17.020 117.200,16.800 117.200 C 16.580 117.200,16.400 117.549,16.400 117.976 C 16.400 118.403,16.220 118.864,16.000 119.000 C 15.780 119.136,15.600 119.687,15.600 120.224 C 15.600 120.761,15.420 121.200,15.200 121.200 C 14.980 121.200,14.800 121.560,14.800 122.000 C 14.800 122.440,14.620 122.800,14.400 122.800 C 14.180 122.800,14.000 123.340,14.000 124.000 C 14.000 124.660,13.820 125.200,13.600 125.200 C 13.380 125.200,13.200 125.560,13.200 126.000 C 13.200 126.440,13.020 126.800,12.800 126.800 C 12.580 126.800,12.400 127.340,12.400 128.000 C 12.400 128.660,12.220 129.200,12.000 129.200 C 11.780 129.200,11.600 129.560,11.600 130.000 C 11.600 130.440,11.420 130.800,11.200 130.800 C 10.980 130.800,10.800 131.340,10.800 132.000 C 10.800 132.660,10.620 133.200,10.400 133.200 C 10.180 133.200,10.000 133.740,10.000 134.400 C 10.000 135.060,9.820 135.600,9.600 135.600 C 9.380 135.600,9.200 136.140,9.200 136.800 C 9.200 137.460,9.020 138.000,8.800 138.000 C 8.580 138.000,8.400 138.540,8.400 139.200 C 8.400 139.860,8.220 140.400,8.000 140.400 C 7.780 140.400,7.600 141.120,7.600 142.000 C 7.600 142.880,7.420 143.600,7.200 143.600 C 6.980 143.600,6.800 144.129,6.800 144.776 C 6.800 145.423,6.620 146.064,6.400 146.200 C 6.180 146.336,6.000 147.067,6.000 147.824 C 6.000 148.581,5.820 149.200,5.600 149.200 C 5.380 149.200,5.200 149.920,5.200 150.800 C 5.200 151.680,5.020 152.400,4.800 152.400 C 4.580 152.400,4.400 153.109,4.400 153.976 C 4.400 154.843,4.220 155.664,4.000 155.800 C 3.780 155.936,3.600 156.847,3.600 157.824 C 3.600 158.801,3.420 159.600,3.200 159.600 C 2.980 159.600,2.800 160.579,2.800 161.776 C 2.800 162.973,2.620 164.064,2.400 164.200 C 2.180 164.336,2.000 165.337,2.000 166.424 C 2.000 167.511,1.820 168.400,1.600 168.400 C 1.367 168.400,1.200 169.722,1.200 171.567 C 1.200 173.744,1.044 174.785,0.700 174.900 C -0.032 175.144,-0.032 224.856,0.700 225.100 C 1.044 225.215,1.200 226.256,1.200 228.433 C 1.200 230.278,1.367 231.600,1.600 231.600 C 1.820 231.600,2.000 232.489,2.000 233.576 C 2.000 234.663,2.180 235.664,2.400 235.800 C 2.620 235.936,2.800 237.027,2.800 238.224 C 2.800 239.421,2.980 240.400,3.200 240.400 C 3.420 240.400,3.600 241.199,3.600 242.176 C 3.600 243.153,3.780 244.064,4.000 244.200 C 4.220 244.336,4.400 245.157,4.400 246.024 C 4.400 246.891,4.580 247.600,4.800 247.600 C 5.020 247.600,5.200 248.320,5.200 249.200 C 5.200 250.080,5.380 250.800,5.600 250.800 C 5.820 250.800,6.000 251.419,6.000 252.176 C 6.000 252.933,6.180 253.664,6.400 253.800 C 6.620 253.936,6.800 254.577,6.800 255.224 C 6.800 255.871,6.980 256.400,7.200 256.400 C 7.420 256.400,7.600 257.120,7.600 258.000 C 7.600 258.880,7.780 259.600,8.000 259.600 C 8.220 259.600,8.400 260.140,8.400 260.800 C 8.400 261.460,8.580 262.000,8.800 262.000 C 9.020 262.000,9.200 262.540,9.200 263.200 C 9.200 263.860,9.380 264.400,9.600 264.400 C 9.820 264.400,10.000 264.940,10.000 265.600 C 10.000 266.260,10.180 266.800,10.400 266.800 C 10.620 266.800,10.800 267.340,10.800 268.000 C 10.800 268.660,10.980 269.200,11.200 269.200 C 11.420 269.200,11.600 269.560,11.600 270.000 C 11.600 270.440,11.780 270.800,12.000 270.800 C 12.220 270.800,12.400 271.340,12.400 272.000 C 12.400 272.660,12.580 273.200,12.800 273.200 C 13.020 273.200,13.200 273.560,13.200 274.000 C 13.200 274.440,13.380 274.800,13.600 274.800 C 13.820 274.800,14.000 275.340,14.000 276.000 C 14.000 276.660,14.180 277.200,14.400 277.200 C 14.620 277.200,14.800 277.560,14.800 278.000 C 14.800 278.440,14.980 278.800,15.200 278.800 C 15.420 278.800,15.600 279.239,15.600 279.776 C 15.600 280.313,15.780 280.864,16.000 281.000 C 16.220 281.136,16.400 281.597,16.400 282.024 C 16.400 282.451,16.580 282.800,16.800 282.800 C 17.020 282.800,17.200 283.160,17.200 283.600 C 17.200 284.040,17.380 284.400,17.600 284.400 C 17.820 284.400,18.000 284.760,18.000 285.200 C 18.000 285.640,18.180 286.000,18.400 286.000 C 18.620 286.000,18.800 286.360,18.800 286.800 C 18.800 287.240,18.980 287.600,19.200 287.600 C 19.420 287.600,19.600 287.960,19.600 288.400 C 19.600 288.840,19.780 289.200,20.000 289.200 C 20.220 289.200,20.400 289.560,20.400 290.000 C 20.400 290.440,20.580 290.800,20.800 290.800 C 21.020 290.800,21.200 291.160,21.200 291.600 C 21.200 292.040,21.380 292.400,21.600 292.400 C 21.820 292.400,22.000 292.760,22.000 293.200 C 22.000 293.640,22.180 294.000,22.400 294.000 C 22.620 294.000,22.800 294.360,22.800 294.800 C 22.800 295.240,22.980 295.600,23.200 295.600 C 23.420 295.600,23.600 295.960,23.600 296.400 C 23.600 296.840,23.780 297.200,24.000 297.200 C 24.220 297.200,24.400 297.436,24.400 297.725 C 24.400 298.013,24.760 298.636,25.200 299.108 C 25.640 299.580,26.000 300.244,26.000 300.583 C 26.000 300.922,26.180 301.200,26.400 301.200 C 26.620 301.200,26.800 301.560,26.800 302.000 C 26.800 302.440,26.980 302.800,27.200 302.800 C 27.420 302.800,27.600 303.036,27.600 303.325 C 27.600 303.613,27.960 304.236,28.400 304.708 C 28.840 305.180,29.200 305.804,29.200 306.095 C 29.200 306.386,29.560 306.883,30.000 307.200 C 30.440 307.517,30.800 308.057,30.800 308.400 C 30.800 308.743,31.160 309.283,31.600 309.600 C 32.040 309.917,32.400 310.497,32.400 310.888 C 32.400 311.280,32.550 311.600,32.732 311.600 C 32.915 311.600,33.319 312.095,33.630 312.700 C 33.940 313.305,34.511 314.091,34.897 314.447 C 35.284 314.803,35.600 315.348,35.600 315.659 C 35.600 315.969,35.960 316.483,36.400 316.800 C 36.840 317.117,37.200 317.580,37.200 317.829 C 37.200 318.078,37.740 318.846,38.400 319.537 C 39.060 320.228,39.600 320.953,39.600 321.148 C 39.600 321.344,40.320 322.245,41.200 323.152 C 42.080 324.059,42.800 324.995,42.800 325.232 C 42.800 325.469,43.520 326.354,44.400 327.200 C 45.280 328.046,46.000 328.916,46.000 329.134 C 46.000 329.352,47.035 330.587,48.300 331.879 C 49.565 333.171,51.128 334.928,51.773 335.783 C 53.293 337.798,62.202 346.707,64.217 348.227 C 65.072 348.872,66.829 350.435,68.121 351.700 C 69.413 352.965,70.648 354.000,70.866 354.000 C 71.084 354.000,71.954 354.720,72.800 355.600 C 73.646 356.480,74.531 357.200,74.768 357.200 C 75.005 357.200,75.941 357.920,76.848 358.800 C 77.755 359.680,78.656 360.400,78.852 360.400 C 79.047 360.400,79.772 360.940,80.463 361.600 C 81.154 362.260,81.922 362.800,82.171 362.800 C 82.420 362.800,82.883 363.160,83.200 363.600 C 83.517 364.040,84.031 364.400,84.341 364.400 C 84.652 364.400,85.197 364.716,85.553 365.103 C 85.909 365.489,86.695 366.060,87.300 366.370 C 87.905 366.681,88.400 367.085,88.400 367.268 C 88.400 367.450,88.720 367.600,89.112 367.600 C 89.503 367.600,90.083 367.960,90.400 368.400 C 90.717 368.840,91.257 369.200,91.600 369.200 C 91.943 369.200,92.483 369.560,92.800 370.000 C 93.117 370.440,93.614 370.800,93.905 370.800 C 94.196 370.800,94.820 371.160,95.292 371.600 C 95.764 372.040,96.387 372.400,96.675 372.400 C 96.964 372.400,97.200 372.580,97.200 372.800 C 97.200 373.020,97.560 373.200,98.000 373.200 C 98.440 373.200,98.800 373.380,98.800 373.600 C 98.800 373.820,99.078 374.000,99.417 374.000 C 99.756 374.000,100.420 374.360,100.892 374.800 C 101.364 375.240,101.987 375.600,102.275 375.600 C 102.564 375.600,102.800 375.780,102.800 376.000 C 102.800 376.220,103.160 376.400,103.600 376.400 C 104.040 376.400,104.400 376.580,104.400 376.800 C 104.400 377.020,104.760 377.200,105.200 377.200 C 105.640 377.200,106.000 377.380,106.000 377.600 C 106.000 377.820,106.360 378.000,106.800 378.000 C 107.240 378.000,107.600 378.180,107.600 378.400 C 107.600 378.620,107.960 378.800,108.400 378.800 C 108.840 378.800,109.200 378.980,109.200 379.200 C 109.200 379.420,109.560 379.600,110.000 379.600 C 110.440 379.600,110.800 379.780,110.800 380.000 C 110.800 380.220,111.160 380.400,111.600 380.400 C 112.040 380.400,112.400 380.580,112.400 380.800 C 112.400 381.020,112.760 381.200,113.200 381.200 C 113.640 381.200,114.000 381.380,114.000 381.600 C 114.000 381.820,114.360 382.000,114.800 382.000 C 115.240 382.000,115.600 382.180,115.600 382.400 C 115.600 382.620,115.960 382.800,116.400 382.800 C 116.840 382.800,117.200 382.980,117.200 383.200 C 117.200 383.420,117.549 383.600,117.976 383.600 C 118.403 383.600,118.864 383.780,119.000 384.000 C 119.136 384.220,119.687 384.400,120.224 384.400 C 120.761 384.400,121.200 384.580,121.200 384.800 C 121.200 385.020,121.560 385.200,122.000 385.200 C 122.440 385.200,122.800 385.380,122.800 385.600 C 122.800 385.820,123.340 386.000,124.000 386.000 C 124.660 386.000,125.200 386.180,125.200 386.400 C 125.200 386.620,125.560 386.800,126.000 386.800 C 126.440 386.800,126.800 386.980,126.800 387.200 C 126.800 387.420,127.340 387.600,128.000 387.600 C 128.660 387.600,129.200 387.780,129.200 388.000 C 129.200 388.220,129.560 388.400,130.000 388.400 C 130.440 388.400,130.800 388.580,130.800 388.800 C 130.800 389.020,131.340 389.200,132.000 389.200 C 132.660 389.200,133.200 389.380,133.200 389.600 C 133.200 389.820,133.740 390.000,134.400 390.000 C 135.060 390.000,135.600 390.180,135.600 390.400 C 135.600 390.620,136.140 390.800,136.800 390.800 C 137.460 390.800,138.000 390.980,138.000 391.200 C 138.000 391.420,138.540 391.600,139.200 391.600 C 139.860 391.600,140.400 391.780,140.400 392.000 C 140.400 392.220,141.120 392.400,142.000 392.400 C 142.880 392.400,143.600 392.580,143.600 392.800 C 143.600 393.020,144.129 393.200,144.776 393.200 C 145.423 393.200,146.064 393.380,146.200 393.600 C 146.336 393.820,147.067 394.000,147.824 394.000 C 148.581 394.000,149.200 394.180,149.200 394.400 C 149.200 394.620,149.920 394.800,150.800 394.800 C 151.680 394.800,152.400 394.980,152.400 395.200 C 152.400 395.420,153.109 395.600,153.976 395.600 C 154.843 395.600,155.664 395.780,155.800 396.000 C 155.936 396.220,156.847 396.400,157.824 396.400 C 158.801 396.400,159.600 396.580,159.600 396.800 C 159.600 397.020,160.579 397.200,161.776 397.200 C 162.973 397.200,164.064 397.380,164.200 397.600 C 164.336 397.820,165.337 398.000,166.424 398.000 C 167.511 398.000,168.400 398.180,168.400 398.400 C 168.400 398.633,169.722 398.800,171.567 398.800 C 173.744 398.800,174.785 398.956,174.900 399.300 C 175.144 400.032,224.856 400.032,225.100 399.300 C 225.215 398.956,226.256 398.800,228.433 398.800 C 230.278 398.800,231.600 398.633,231.600 398.400 C 231.600 398.180,232.489 398.000,233.576 398.000 C 234.663 398.000,235.664 397.820,235.800 397.600 C 235.936 397.380,237.027 397.200,238.224 397.200 C 239.421 397.200,240.400 397.020,240.400 396.800 C 240.400 396.580,241.199 396.400,242.176 396.400 C 243.153 396.400,244.064 396.220,244.200 396.000 C 244.336 395.780,245.157 395.600,246.024 395.600 C 246.891 395.600,247.600 395.420,247.600 395.200 C 247.600 394.980,248.320 394.800,249.200 394.800 C 250.080 394.800,250.800 394.620,250.800 394.400 C 250.800 394.180,251.419 394.000,252.176 394.000 C 252.933 394.000,253.664 393.820,253.800 393.600 C 253.936 393.380,254.577 393.200,255.224 393.200 C 255.871 393.200,256.400 393.020,256.400 392.800 C 256.400 392.580,257.120 392.400,258.000 392.400 C 258.880 392.400,259.600 392.220,259.600 392.000 C 259.600 391.780,260.140 391.600,260.800 391.600 C 261.460 391.600,262.000 391.420,262.000 391.200 C 262.000 390.980,262.540 390.800,263.200 390.800 C 263.860 390.800,264.400 390.620,264.400 390.400 C 264.400 390.180,264.940 390.000,265.600 390.000 C 266.260 390.000,266.800 389.820,266.800 389.600 C 266.800 389.380,267.340 389.200,268.000 389.200 C 268.660 389.200,269.200 389.020,269.200 388.800 C 269.200 388.580,269.560 388.400,270.000 388.400 C 270.440 388.400,270.800 388.220,270.800 388.000 C 270.800 387.780,271.340 387.600,272.000 387.600 C 272.660 387.600,273.200 387.420,273.200 387.200 C 273.200 386.980,273.560 386.800,274.000 386.800 C 274.440 386.800,274.800 386.620,274.800 386.400 C 274.800 386.180,275.340 386.000,276.000 386.000 C 276.660 386.000,277.200 385.820,277.200 385.600 C 277.200 385.380,277.560 385.200,278.000 385.200 C 278.440 385.200,278.800 385.020,278.800 384.800 C 278.800 384.580,279.239 384.400,279.776 384.400 C 280.313 384.400,280.864 384.220,281.000 384.000 C 281.136 383.780,281.597 383.600,282.024 383.600 C 282.451 383.600,282.800 383.420,282.800 383.200 C 282.800 382.980,283.160 382.800,283.600 382.800 C 284.040 382.800,284.400 382.620,284.400 382.400 C 284.400 382.180,284.760 382.000,285.200 382.000 C 285.640 382.000,286.000 381.820,286.000 381.600 C 286.000 381.380,286.360 381.200,286.800 381.200 C 287.240 381.200,287.600 381.020,287.600 380.800 C 287.600 380.580,287.960 380.400,288.400 380.400 C 288.840 380.400,289.200 380.220,289.200 380.000 C 289.200 379.780,289.560 379.600,290.000 379.600 C 290.440 379.600,290.800 379.420,290.800 379.200 C 290.800 378.980,291.160 378.800,291.600 378.800 C 292.040 378.800,292.400 378.620,292.400 378.400 C 292.400 378.180,292.760 378.000,293.200 378.000 C 293.640 378.000,294.000 377.820,294.000 377.600 C 294.000 377.380,294.360 377.200,294.800 377.200 C 295.240 377.200,295.600 377.020,295.600 376.800 C 295.600 376.580,295.960 376.400,296.400 376.400 C 296.840 376.400,297.200 376.220,297.200 376.000 C 297.200 375.780,297.436 375.600,297.725 375.600 C 298.013 375.600,298.636 375.240,299.108 374.800 C 299.580 374.360,300.244 374.000,300.583 374.000 C 300.922 374.000,301.200 373.820,301.200 373.600 C 301.200 373.380,301.560 373.200,302.000 373.200 C 302.440 373.200,302.800 373.020,302.800 372.800 C 302.800 372.580,303.036 372.400,303.325 372.400 C 303.613 372.400,304.236 372.040,304.708 371.600 C 305.180 371.160,305.804 370.800,306.095 370.800 C 306.386 370.800,306.883 370.440,307.200 370.000 C 307.517 369.560,308.057 369.200,308.400 369.200 C 308.743 369.200,309.283 368.840,309.600 368.400 C 309.917 367.960,310.497 367.600,310.888 367.600 C 311.280 367.600,311.600 367.450,311.600 367.268 C 311.600 367.085,312.095 366.681,312.700 366.370 C 313.305 366.060,314.091 365.489,314.447 365.103 C 314.803 364.716,315.348 364.400,315.659 364.400 C 315.969 364.400,316.483 364.040,316.800 363.600 C 317.117 363.160,317.580 362.800,317.829 362.800 C 318.078 362.800,318.846 362.260,319.537 361.600 C 320.228 360.940,320.953 360.400,321.148 360.400 C 321.344 360.400,322.245 359.680,323.152 358.800 C 324.059 357.920,324.995 357.200,325.232 357.200 C 325.469 357.200,326.354 356.480,327.200 355.600 C 328.046 354.720,328.916 354.000,329.134 354.000 C 329.352 354.000,330.587 352.965,331.879 351.700 C 333.171 350.435,334.928 348.872,335.783 348.227 C 337.798 346.707,346.707 337.798,348.227 335.783 C 348.872 334.928,350.435 333.171,351.700 331.879 C 352.965 330.587,354.000 329.352,354.000 329.134 C 354.000 328.916,354.720 328.046,355.600 327.200 C 356.480 326.354,357.200 325.469,357.200 325.232 C 357.200 324.995,357.920 324.059,358.800 323.152 C 359.680 322.245,360.400 321.344,360.400 321.148 C 360.400 320.953,360.940 320.228,361.600 319.537 C 362.260 318.846,362.800 318.078,362.800 317.829 C 362.800 317.580,363.160 317.117,363.600 316.800 C 364.040 316.483,364.400 315.969,364.400 315.659 C 364.400 315.348,364.716 314.803,365.103 314.447 C 365.489 314.091,366.060 313.305,366.370 312.700 C 366.681 312.095,367.085 311.600,367.268 311.600 C 367.450 311.600,367.600 311.280,367.600 310.888 C 367.600 310.497,367.960 309.917,368.400 309.600 C 368.840 309.283,369.200 308.743,369.200 308.400 C 369.200 308.057,369.560 307.517,370.000 307.200 C 370.440 306.883,370.800 306.386,370.800 306.095 C 370.800 305.804,371.160 305.180,371.600 304.708 C 372.040 304.236,372.400 303.613,372.400 303.325 C 372.400 303.036,372.580 302.800,372.800 302.800 C 373.020 302.800,373.200 302.440,373.200 302.000 C 373.200 301.560,373.380 301.200,373.600 301.200 C 373.820 301.200,374.000 300.922,374.000 300.583 C 374.000 300.244,374.360 299.580,374.800 299.108 C 375.240 298.636,375.600 298.013,375.600 297.725 C 375.600 297.436,375.780 297.200,376.000 297.200 C 376.220 297.200,376.400 296.840,376.400 296.400 C 376.400 295.960,376.580 295.600,376.800 295.600 C 377.020 295.600,377.200 295.240,377.200 294.800 C 377.200 294.360,377.380 294.000,377.600 294.000 C 377.820 294.000,378.000 293.640,378.000 293.200 C 378.000 292.760,378.180 292.400,378.400 292.400 C 378.620 292.400,378.800 292.040,378.800 291.600 C 378.800 291.160,378.980 290.800,379.200 290.800 C 379.420 290.800,379.600 290.440,379.600 290.000 C 379.600 289.560,379.780 289.200,380.000 289.200 C 380.220 289.200,380.400 288.840,380.400 288.400 C 380.400 287.960,380.580 287.600,380.800 287.600 C 381.020 287.600,381.200 287.240,381.200 286.800 C 381.200 286.360,381.380 286.000,381.600 286.000 C 381.820 286.000,382.000 285.640,382.000 285.200 C 382.000 284.760,382.180 284.400,382.400 284.400 C 382.620 284.400,382.800 284.040,382.800 283.600 C 382.800 283.160,382.980 282.800,383.200 282.800 C 383.420 282.800,383.600 282.451,383.600 282.024 C 383.600 281.597,383.780 281.136,384.000 281.000 C 384.220 280.864,384.400 280.313,384.400 279.776 C 384.400 279.239,384.580 278.800,384.800 278.800 C 385.020 278.800,385.200 278.440,385.200 278.000 C 385.200 277.560,385.380 277.200,385.600 277.200 C 385.820 277.200,386.000 276.660,386.000 276.000 C 386.000 275.340,386.180 274.800,386.400 274.800 C 386.620 274.800,386.800 274.440,386.800 274.000 C 386.800 273.560,386.980 273.200,387.200 273.200 C 387.420 273.200,387.600 272.660,387.600 272.000 C 387.600 271.340,387.780 270.800,388.000 270.800 C 388.220 270.800,388.400 270.440,388.400 270.000 C 388.400 269.560,388.580 269.200,388.800 269.200 C 389.020 269.200,389.200 268.660,389.200 268.000 C 389.200 267.340,389.380 266.800,389.600 266.800 C 389.820 266.800,390.000 266.260,390.000 265.600 C 390.000 264.940,390.180 264.400,390.400 264.400 C 390.620 264.400,390.800 263.860,390.800 263.200 C 390.800 262.540,390.980 262.000,391.200 262.000 C 391.420 262.000,391.600 261.460,391.600 260.800 C 391.600 260.140,391.780 259.600,392.000 259.600 C 392.220 259.600,392.400 258.880,392.400 258.000 C 392.400 257.120,392.580 256.400,392.800 256.400 C 393.020 256.400,393.200 255.871,393.200 255.224 C 393.200 254.577,393.380 253.936,393.600 253.800 C 393.820 253.664,394.000 252.933,394.000 252.176 C 394.000 251.419,394.180 250.800,394.400 250.800 C 394.620 250.800,394.800 250.080,394.800 249.200 C 394.800 248.320,394.980 247.600,395.200 247.600 C 395.420 247.600,395.600 246.891,395.600 246.024 C 395.600 245.157,395.780 244.336,396.000 244.200 C 396.220 244.064,396.400 243.153,396.400 242.176 C 396.400 241.199,396.580 240.400,396.800 240.400 C 397.020 240.400,397.200 239.421,397.200 238.224 C 397.200 237.027,397.380 235.936,397.600 235.800 C 397.820 235.664,398.000 234.663,398.000 233.576 C 398.000 232.489,398.180 231.600,398.400 231.600 C 398.633 231.600,398.800 230.278,398.800 228.433 C 398.800 226.256,398.956 225.215,399.300 225.100 C 399.693 224.969,399.800 219.591,399.800 200.000 C 399.800 180.409,399.693 175.031,399.300 174.900 C 398.956 174.785,398.800 173.744,398.800 171.567 C 398.800 169.722,398.633 168.400,398.400 168.400 C 398.180 168.400,398.000 167.511,398.000 166.424 C 398.000 165.337,397.820 164.336,397.600 164.200 C 397.380 164.064,397.200 162.973,397.200 161.776 C 397.200 160.579,397.020 159.600,396.800 159.600 C 396.580 159.600,396.400 158.801,396.400 157.824 C 396.400 156.847,396.220 155.936,396.000 155.800 C 395.780 155.664,395.600 154.843,395.600 153.976 C 395.600 153.109,395.420 152.400,395.200 152.400 C 394.980 152.400,394.800 151.680,394.800 150.800 C 394.800 149.920,394.620 149.200,394.400 149.200 C 394.180 149.200,394.000 148.581,394.000 147.824 C 394.000 147.067,393.820 146.336,393.600 146.200 C 393.380 146.064,393.200 145.423,393.200 144.776 C 393.200 144.129,393.020 143.600,392.800 143.600 C 392.580 143.600,392.400 142.880,392.400 142.000 C 392.400 141.120,392.220 140.400,392.000 140.400 C 391.780 140.400,391.600 139.860,391.600 139.200 C 391.600 138.540,391.420 138.000,391.200 138.000 C 390.980 138.000,390.800 137.460,390.800 136.800 C 390.800 136.140,390.620 135.600,390.400 135.600 C 390.180 135.600,390.000 135.060,390.000 134.400 C 390.000 133.740,389.820 133.200,389.600 133.200 C 389.380 133.200,389.200 132.660,389.200 132.000 C 389.200 131.340,389.020 130.800,388.800 130.800 C 388.580 130.800,388.400 130.440,388.400 130.000 C 388.400 129.560,388.220 129.200,388.000 129.200 C 387.780 129.200,387.600 128.660,387.600 128.000 C 387.600 127.340,387.420 126.800,387.200 126.800 C 386.980 126.800,386.800 126.440,386.800 126.000 C 386.800 125.560,386.620 125.200,386.400 125.200 C 386.180 125.200,386.000 124.660,386.000 124.000 C 386.000 123.340,385.820 122.800,385.600 122.800 C 385.380 122.800,385.200 122.440,385.200 122.000 C 385.200 121.560,385.020 121.200,384.800 121.200 C 384.580 121.200,384.400 120.761,384.400 120.224 C 384.400 119.687,384.220 119.136,384.000 119.000 C 383.780 118.864,383.600 118.403,383.600 117.976 C 383.600 117.549,383.420 117.200,383.200 117.200 C 382.980 117.200,382.800 116.840,382.800 116.400 C 382.800 115.960,382.620 115.600,382.400 115.600 C 382.180 115.600,382.000 115.240,382.000 114.800 C 382.000 114.360,381.820 114.000,381.600 114.000 C 381.380 114.000,381.200 113.640,381.200 113.200 C 381.200 112.760,381.020 112.400,380.800 112.400 C 380.580 112.400,380.400 112.040,380.400 111.600 C 380.400 111.160,380.220 110.800,380.000 110.800 C 379.780 110.800,379.600 110.440,379.600 110.000 C 379.600 109.560,379.420 109.200,379.200 109.200 C 378.980 109.200,378.800 108.840,378.800 108.400 C 378.800 107.960,378.620 107.600,378.400 107.600 C 378.180 107.600,378.000 107.240,378.000 106.800 C 378.000 106.360,377.820 106.000,377.600 106.000 C 377.380 106.000,377.200 105.640,377.200 105.200 C 377.200 104.760,377.020 104.400,376.800 104.400 C 376.580 104.400,376.400 104.040,376.400 103.600 C 376.400 103.160,376.220 102.800,376.000 102.800 C 375.780 102.800,375.600 102.564,375.600 102.275 C 375.600 101.987,375.240 101.364,374.800 100.892 C 374.360 100.420,374.000 99.756,374.000 99.417 C 374.000 99.078,373.820 98.800,373.600 98.800 C 373.380 98.800,373.200 98.440,373.200 98.000 C 373.200 97.560,373.020 97.200,372.800 97.200 C 372.580 97.200,372.400 96.964,372.400 96.675 C 372.400 96.387,372.040 95.764,371.600 95.292 C 371.160 94.820,370.800 94.196,370.800 93.905 C 370.800 93.614,370.440 93.117,370.000 92.800 C 369.560 92.483,369.200 91.943,369.200 91.600 C 369.200 91.257,368.840 90.717,368.400 90.400 C 367.960 90.083,367.600 89.503,367.600 89.112 C 367.600 88.720,367.450 88.400,367.268 88.400 C 367.085 88.400,366.681 87.905,366.370 87.300 C 366.060 86.695,365.489 85.909,365.103 85.553 C 364.716 85.197,364.400 84.652,364.400 84.341 C 364.400 84.031,364.040 83.517,363.600 83.200 C 363.160 82.883,362.800 82.420,362.800 82.171 C 362.800 81.922,362.260 81.154,361.600 80.463 C 360.940 79.772,360.400 79.047,360.400 78.852 C 360.400 78.656,359.680 77.755,358.800 76.848 C 357.920 75.941,357.200 75.005,357.200 74.768 C 357.200 74.531,356.480 73.646,355.600 72.800 C 354.720 71.954,354.000 71.084,354.000 70.866 C 354.000 70.648,352.965 69.413,351.700 68.121 C 350.435 66.829,348.872 65.072,348.227 64.217 C 346.707 62.202,337.798 53.293,335.783 51.773 C 334.928 51.128,333.171 49.565,331.879 48.300 C 330.587 47.035,329.352 46.000,329.134 46.000 C 328.916 46.000,328.046 45.280,327.200 44.400 C 326.354 43.520,325.469 42.800,325.232 42.800 C 324.995 42.800,324.059 42.080,323.152 41.200 C 322.245 40.320,321.344 39.600,321.148 39.600 C 320.953 39.600,320.228 39.060,319.537 38.400 C 318.846 37.740,318.078 37.200,317.829 37.200 C 317.580 37.200,317.117 36.840,316.800 36.400 C 316.483 35.960,315.969 35.600,315.659 35.600 C 315.348 35.600,314.803 35.284,314.447 34.897 C 314.091 34.511,313.305 33.940,312.700 33.630 C 312.095 33.319,311.600 32.915,311.600 32.732 C 311.600 32.550,311.280 32.400,310.888 32.400 C 310.497 32.400,309.917 32.040,309.600 31.600 C 309.283 31.160,308.743 30.800,308.400 30.800 C 308.057 30.800,307.517 30.440,307.200 30.000 C 306.883 29.560,306.386 29.200,306.095 29.200 C 305.804 29.200,305.180 28.840,304.708 28.400 C 304.236 27.960,303.613 27.600,303.325 27.600 C 303.036 27.600,302.800 27.420,302.800 27.200 C 302.800 26.980,302.440 26.800,302.000 26.800 C 301.560 26.800,301.200 26.620,301.200 26.400 C 301.200 26.180,300.922 26.000,300.583 26.000 C 300.244 26.000,299.580 25.640,299.108 25.200 C 298.636 24.760,298.013 24.400,297.725 24.400 C 297.436 24.400,297.200 24.220,297.200 24.000 C 297.200 23.780,296.840 23.600,296.400 23.600 C 295.960 23.600,295.600 23.420,295.600 23.200 C 295.600 22.980,295.240 22.800,294.800 22.800 C 294.360 22.800,294.000 22.620,294.000 22.400 C 294.000 22.180,293.640 22.000,293.200 22.000 C 292.760 22.000,292.400 21.820,292.400 21.600 C 292.400 21.380,292.040 21.200,291.600 21.200 C 291.160 21.200,290.800 21.020,290.800 20.800 C 290.800 20.580,290.440 20.400,290.000 20.400 C 289.560 20.400,289.200 20.220,289.200 20.000 C 289.200 19.780,288.840 19.600,288.400 19.600 C 287.960 19.600,287.600 19.420,287.600 19.200 C 287.600 18.980,287.240 18.800,286.800 18.800 C 286.360 18.800,286.000 18.620,286.000 18.400 C 286.000 18.180,285.640 18.000,285.200 18.000 C 284.760 18.000,284.400 17.820,284.400 17.600 C 284.400 17.380,284.040 17.200,283.600 17.200 C 283.160 17.200,282.800 17.020,282.800 16.800 C 282.800 16.580,282.451 16.400,282.024 16.400 C 281.597 16.400,281.136 16.220,281.000 16.000 C 280.864 15.780,280.313 15.600,279.776 15.600 C 279.239 15.600,278.800 15.420,278.800 15.200 C 278.800 14.980,278.440 14.800,278.000 14.800 C 277.560 14.800,277.200 14.620,277.200 14.400 C 277.200 14.180,276.660 14.000,276.000 14.000 C 275.340 14.000,274.800 13.820,274.800 13.600 C 274.800 13.380,274.440 13.200,274.000 13.200 C 273.560 13.200,273.200 13.020,273.200 12.800 C 273.200 12.580,272.660 12.400,272.000 12.400 C 271.340 12.400,270.800 12.220,270.800 12.000 C 270.800 11.780,270.451 11.600,270.024 11.600 C 269.597 11.600,269.136 11.420,269.000 11.200 C 268.864 10.980,268.313 10.800,267.776 10.800 C 267.239 10.800,266.800 10.620,266.800 10.400 C 266.800 10.180,266.260 10.000,265.600 10.000 C 264.940 10.000,264.400 9.820,264.400 9.600 C 264.400 9.380,263.860 9.200,263.200 9.200 C 262.540 9.200,262.000 9.020,262.000 8.800 C 262.000 8.580,261.460 8.400,260.800 8.400 C 260.140 8.400,259.600 8.220,259.600 8.000 C 259.600 7.780,258.880 7.600,258.000 7.600 C 257.120 7.600,256.400 7.420,256.400 7.200 C 256.400 6.980,255.871 6.800,255.224 6.800 C 254.577 6.800,253.936 6.620,253.800 6.400 C 253.664 6.180,252.933 6.000,252.176 6.000 C 251.419 6.000,250.800 5.820,250.800 5.600 C 250.800 5.380,250.080 5.200,249.200 5.200 C 248.320 5.200,247.600 5.020,247.600 4.800 C 247.600 4.580,246.891 4.400,246.024 4.400 C 245.157 4.400,244.336 4.220,244.200 4.000 C 244.064 3.780,243.153 3.600,242.176 3.600 C 241.199 3.600,240.400 3.420,240.400 3.200 C 240.400 2.980,239.421 2.800,238.224 2.800 C 237.027 2.800,235.936 2.620,235.800 2.400 C 235.664 2.180,234.663 2.000,233.576 2.000 C 232.489 2.000,231.600 1.820,231.600 1.600 C 231.600 1.367,230.278 1.200,228.433 1.200 C 226.304 1.200,225.214 1.041,225.105 0.714 C 224.944 0.233,187.802 -0.118,178.500 0.274 M212.600 57.172 C 220.562 57.920,230.295 59.603,235.600 61.147 C 238.073 61.867,239.766 62.346,241.200 62.730 C 242.881 63.180,246.289 64.308,247.400 64.781 C 247.840 64.969,249.280 65.520,250.600 66.007 C 256.087 68.029,265.209 72.305,269.400 74.818 C 270.500 75.478,271.670 76.137,272.000 76.281 C 275.002 77.597,287.262 86.473,293.400 91.776 C 303.600 100.588,319.079 119.032,322.120 126.000 C 322.264 126.330,322.923 127.500,323.584 128.600 C 324.246 129.700,326.155 133.390,327.828 136.800 C 330.721 142.699,331.137 143.598,331.946 145.700 C 332.524 147.201,333.273 148.960,333.647 149.695 C 333.841 150.077,334.000 150.741,334.000 151.171 C 334.000 151.601,334.180 152.064,334.400 152.200 C 334.620 152.336,334.800 152.876,334.800 153.400 C 334.800 153.924,334.959 154.451,335.152 154.570 C 335.346 154.690,335.603 155.196,335.724 155.694 C 335.944 156.598,336.485 158.554,337.249 161.200 C 338.773 166.481,340.624 175.549,341.249 180.800 C 343.076 196.138,342.467 213.511,339.595 228.000 C 339.356 229.210,339.059 230.876,338.937 231.703 C 338.815 232.529,338.555 233.305,338.358 233.426 C 338.161 233.548,338.000 234.256,338.000 235.000 C 338.000 235.744,337.820 236.464,337.600 236.600 C 337.380 236.736,337.200 237.218,337.200 237.671 C 337.200 238.426,335.950 242.689,335.168 244.600 C 334.988 245.040,334.578 246.210,334.257 247.200 C 332.468 252.725,327.619 263.496,324.534 268.800 C 323.958 269.790,323.175 271.140,322.793 271.800 C 318.629 279.003,313.153 286.655,307.619 293.000 C 305.278 295.685,293.927 306.939,291.800 308.684 C 284.716 314.496,272.961 322.800,271.817 322.800 C 271.743 322.800,270.538 323.485,269.141 324.322 C 265.849 326.294,259.894 329.195,253.800 331.797 C 253.140 332.078,251.520 332.704,250.200 333.186 C 248.880 333.669,247.487 334.230,247.105 334.432 C 246.723 334.634,246.136 334.800,245.800 334.800 C 245.464 334.800,244.877 334.959,244.495 335.154 C 243.274 335.776,238.525 337.200,237.671 337.200 C 237.218 337.200,236.748 337.360,236.627 337.556 C 236.506 337.751,235.821 338.012,235.104 338.134 C 234.387 338.256,232.900 338.554,231.800 338.796 C 226.878 339.880,225.666 340.079,223.600 340.137 L 221.400 340.200 221.400 290.400 L 221.400 240.600 238.000 240.400 L 254.600 240.200 254.868 238.200 C 255.113 236.379,255.409 234.404,256.400 228.000 C 256.587 226.790,256.947 224.450,257.200 222.800 C 257.453 221.150,257.813 218.810,258.000 217.600 C 258.187 216.390,258.547 214.050,258.800 212.400 C 259.053 210.750,259.428 208.320,259.633 207.000 C 259.838 205.680,260.117 203.565,260.251 202.300 L 260.496 200.000 241.328 200.000 C 226.953 200.000,222.040 199.880,221.680 199.520 C 221.045 198.885,221.002 171.436,221.632 168.331 C 222.250 165.282,222.887 163.059,223.270 162.620 C 223.451 162.411,223.600 161.993,223.600 161.692 C 223.600 159.054,232.151 151.600,235.176 151.600 C 235.541 151.600,236.011 151.438,236.220 151.241 C 236.934 150.566,240.203 150.328,251.304 150.141 L 262.409 149.954 262.304 132.877 L 262.200 115.800 260.000 115.503 C 238.824 112.646,223.213 112.659,213.200 115.543 C 212.430 115.765,211.350 116.066,210.800 116.213 C 204.057 118.012,194.716 124.201,189.992 130.000 C 189.006 131.210,188.065 132.260,187.900 132.333 C 187.735 132.407,187.600 132.700,187.600 132.984 C 187.600 133.269,187.334 133.723,187.008 133.993 C 186.398 134.500,186.145 134.933,184.092 139.000 C 181.178 144.770,180.321 147.423,178.729 155.600 C 178.483 156.869,178.195 166.550,178.051 178.467 C 177.913 189.834,177.650 199.284,177.467 199.467 C 177.284 199.650,169.184 199.890,159.467 200.000 L 141.800 200.200 141.696 220.300 L 141.593 240.400 159.316 240.400 C 172.568 240.400,177.161 240.521,177.520 240.880 C 178.099 241.459,178.215 339.041,177.637 339.953 C 177.261 340.548,174.799 340.420,171.100 339.614 C 165.730 338.444,163.543 337.922,161.200 337.254 C 160.430 337.034,159.350 336.737,158.800 336.594 C 158.250 336.450,157.440 336.193,157.000 336.022 C 156.560 335.851,155.480 335.493,154.600 335.227 C 152.942 334.725,149.342 333.430,147.600 332.707 C 147.050 332.479,146.240 332.155,145.800 331.987 C 143.628 331.157,136.248 327.831,135.000 327.119 C 134.560 326.869,133.030 326.043,131.600 325.285 C 114.413 316.172,98.400 302.454,85.743 286.000 C 83.671 283.307,76.743 273.056,76.281 272.000 C 76.136 271.670,75.478 270.500,74.818 269.400 C 72.206 265.045,67.243 254.386,65.600 249.600 C 65.336 248.830,64.969 247.840,64.786 247.400 C 64.342 246.334,63.028 242.239,62.412 240.000 C 62.140 239.010,61.755 237.787,61.558 237.281 C 61.361 236.776,61.200 235.931,61.200 235.405 C 61.200 234.878,61.039 234.348,60.842 234.226 C 60.645 234.105,60.387 233.329,60.268 232.503 C 60.149 231.676,59.861 230.100,59.628 229.000 C 55.661 210.292,55.642 188.056,59.579 170.300 C 59.810 169.255,60.190 167.545,60.422 166.500 C 60.654 165.455,60.944 164.013,61.066 163.296 C 61.188 162.579,61.449 161.894,61.644 161.773 C 61.840 161.652,62.000 161.185,62.000 160.736 C 62.000 159.996,64.692 151.491,65.619 149.300 C 66.262 147.780,66.890 146.243,67.254 145.300 C 79.811 112.683,110.574 81.496,143.600 67.905 C 145.223 67.236,146.546 66.713,147.400 66.400 C 147.840 66.239,148.650 65.912,149.200 65.673 C 151.327 64.748,159.960 62.000,160.736 62.000 C 161.185 62.000,161.652 61.840,161.773 61.644 C 161.894 61.449,162.579 61.188,163.296 61.066 C 164.013 60.944,165.455 60.654,166.500 60.422 C 167.545 60.190,169.255 59.810,170.300 59.579 C 175.500 58.426,180.419 57.740,187.137 57.232 C 189.853 57.027,192.193 56.739,192.337 56.592 C 192.670 56.254,207.291 56.673,212.600 57.172 " stroke="none" fill="#fbfbfc" fill-rule="evenodd"></path><path id="path2" d="M195.521 57.499 C 197.788 57.570,201.388 57.570,203.521 57.498 C 205.655 57.426,203.800 57.368,199.400 57.368 C 195.000 57.368,193.255 57.427,195.521 57.499 M183.800 58.018 C 183.084 58.211,183.971 58.252,186.000 58.119 C 187.870 57.997,189.475 57.830,189.567 57.749 C 189.882 57.467,184.998 57.695,183.800 58.018 M209.233 57.747 C 209.325 57.828,211.020 57.993,213.000 58.114 C 215.095 58.242,216.098 58.201,215.400 58.014 C 214.206 57.696,208.915 57.467,209.233 57.747 M177.600 58.821 C 176.952 59.042,177.445 59.080,179.000 58.931 C 180.320 58.804,181.475 58.632,181.567 58.550 C 181.890 58.259,178.586 58.484,177.600 58.821 M219.000 58.823 C 219.880 59.005,221.050 59.146,221.600 59.137 L 222.600 59.120 221.600 58.800 C 221.050 58.624,219.880 58.483,219.000 58.486 L 217.400 58.492 219.000 58.823 M173.000 59.600 L 172.200 59.944 173.000 59.925 C 173.440 59.914,174.340 59.768,175.000 59.600 L 176.200 59.295 175.000 59.275 C 174.340 59.265,173.440 59.411,173.000 59.600 M224.000 59.600 C 224.550 59.776,225.450 59.920,226.000 59.920 L 227.000 59.920 226.000 59.600 C 225.450 59.424,224.550 59.280,224.000 59.280 L 223.000 59.280 224.000 59.600 M169.000 60.400 L 168.200 60.744 169.000 60.732 C 169.440 60.726,170.250 60.576,170.800 60.400 L 171.800 60.080 170.800 60.068 C 170.250 60.062,169.440 60.211,169.000 60.400 M228.400 60.400 C 229.768 60.838,230.819 60.838,229.800 60.400 C 229.360 60.211,228.640 60.062,228.200 60.068 C 227.557 60.077,227.596 60.143,228.400 60.400 M165.600 61.200 C 164.836 61.694,165.658 61.694,167.200 61.200 L 168.200 60.880 167.200 60.846 C 166.650 60.827,165.930 60.987,165.600 61.200 M231.800 61.200 C 232.240 61.389,232.960 61.544,233.400 61.544 L 234.200 61.544 233.400 61.200 C 232.960 61.011,232.240 60.856,231.800 60.856 L 231.000 60.856 231.800 61.200 M162.400 62.000 C 161.605 62.514,162.604 62.514,163.800 62.000 L 164.600 61.656 163.800 61.634 C 163.360 61.622,162.730 61.787,162.400 62.000 M234.433 61.744 C 234.525 61.823,235.140 62.008,235.800 62.156 C 236.676 62.352,236.838 62.315,236.400 62.018 C 235.860 61.653,234.032 61.398,234.433 61.744 M159.600 62.800 C 158.805 63.314,159.804 63.314,161.000 62.800 L 161.800 62.456 161.000 62.434 C 160.560 62.422,159.930 62.587,159.600 62.800 M238.000 62.800 C 239.368 63.238,240.419 63.238,239.400 62.800 C 238.960 62.611,238.240 62.462,237.800 62.468 C 237.157 62.477,237.196 62.543,238.000 62.800 M156.800 63.600 C 156.005 64.114,157.004 64.114,158.200 63.600 L 159.000 63.256 158.200 63.234 C 157.760 63.222,157.130 63.387,156.800 63.600 M154.400 64.400 C 153.867 64.745,153.867 64.788,154.400 64.788 C 154.730 64.788,155.270 64.613,155.600 64.400 C 156.133 64.055,156.133 64.012,155.600 64.012 C 155.270 64.012,154.730 64.187,154.400 64.400 M151.000 65.629 C 150.120 66.052,149.850 66.286,150.400 66.150 C 151.905 65.775,153.884 64.866,153.200 64.862 C 152.870 64.861,151.880 65.206,151.000 65.629 M252.000 67.490 C 254.530 68.508,259.916 71.015,263.969 73.060 C 268.023 75.106,271.173 76.621,270.969 76.427 C 269.192 74.735,249.507 65.543,247.822 65.619 C 247.590 65.629,249.470 66.471,252.000 67.490 M140.472 69.872 C 139.302 70.425,138.429 70.962,138.532 71.066 C 138.636 71.169,139.773 70.710,141.060 70.046 C 143.884 68.589,143.455 68.462,140.472 69.872 M129.800 75.328 C 124.644 78.204,117.470 82.840,117.000 83.600 C 116.858 83.830,118.599 82.790,120.871 81.288 C 123.142 79.785,126.485 77.694,128.300 76.640 C 130.115 75.586,131.600 74.651,131.600 74.562 C 131.600 74.329,131.561 74.345,129.800 75.328 M271.625 76.937 C 271.816 77.146,275.524 79.589,277.100 80.544 C 278.545 81.420,277.306 80.318,275.500 79.122 C 273.350 77.697,271.223 76.498,271.625 76.937 M278.000 80.955 C 278.000 81.053,279.485 82.173,281.300 83.444 C 295.467 93.362,308.390 106.709,318.135 121.488 C 319.908 124.176,321.426 126.307,321.510 126.223 C 321.707 126.026,315.654 116.980,313.063 113.600 C 304.007 101.785,291.873 90.137,280.928 82.751 C 279.318 81.665,278.000 80.856,278.000 80.955 M113.945 85.704 C 103.962 93.213,90.976 106.335,84.854 115.100 C 83.133 117.563,84.276 116.393,86.807 113.100 C 94.224 103.449,103.367 94.308,113.100 86.812 C 116.012 84.569,116.674 83.988,116.300 84.004 C 116.245 84.007,115.185 84.772,113.945 85.704 M228.321 112.699 C 230.588 112.770,234.188 112.770,236.321 112.698 C 238.455 112.626,236.600 112.568,232.200 112.568 C 227.800 112.568,226.055 112.627,228.321 112.699 M219.600 113.200 L 218.200 113.495 219.600 113.507 C 220.370 113.515,221.450 113.376,222.000 113.200 L 223.000 112.880 222.000 112.893 C 221.450 112.900,220.370 113.038,219.600 113.200 M244.600 113.205 C 246.182 113.550,250.289 113.739,249.967 113.451 C 249.875 113.370,248.270 113.202,246.400 113.079 C 243.972 112.920,243.457 112.956,244.600 113.205 M215.600 114.000 L 214.600 114.320 215.600 114.354 C 216.150 114.373,216.870 114.213,217.200 114.000 C 217.964 113.506,217.142 113.506,215.600 114.000 M252.600 114.000 C 253.260 114.168,254.520 114.304,255.400 114.303 L 257.000 114.300 255.200 113.980 C 252.757 113.545,250.870 113.560,252.600 114.000 M259.000 114.800 C 259.440 114.989,260.340 115.135,261.000 115.125 L 262.200 115.105 261.000 114.800 C 260.340 114.632,259.440 114.486,259.000 114.475 L 258.200 114.456 259.000 114.800 M209.800 115.600 C 209.029 115.931,209.031 115.945,209.876 115.972 C 210.358 115.987,210.864 115.820,211.000 115.600 C 211.292 115.127,210.901 115.127,209.800 115.600 M83.121 117.500 C 81.714 119.132,78.104 124.831,75.520 129.500 C 73.660 132.862,74.537 131.921,76.640 128.300 C 77.694 126.485,79.777 123.155,81.268 120.900 C 83.894 116.929,84.378 116.042,83.121 117.500 M203.331 118.410 C 201.620 119.296,200.035 120.212,199.810 120.447 C 199.443 120.829,206.362 117.366,206.767 116.965 C 207.242 116.494,206.131 116.961,203.331 118.410 M196.580 122.557 C 193.753 124.644,189.124 129.366,187.031 132.300 C 184.853 135.351,185.569 134.877,187.937 131.700 C 190.214 128.644,193.992 124.888,197.100 122.589 C 199.010 121.176,199.426 120.800,199.080 120.800 C 199.014 120.800,197.889 121.591,196.580 122.557 M322.186 127.900 C 322.535 128.615,322.906 129.200,323.010 129.200 C 323.408 129.200,323.152 128.563,322.367 127.600 L 321.552 126.600 322.186 127.900 M323.786 130.700 C 324.135 131.415,324.506 132.000,324.610 132.000 C 325.008 132.000,324.752 131.363,323.967 130.400 L 323.152 129.400 323.786 130.700 M184.600 136.000 C 184.259 136.660,184.069 137.200,184.179 137.200 C 184.289 137.200,184.659 136.660,185.000 136.000 C 185.341 135.340,185.531 134.800,185.421 134.800 C 185.311 134.800,184.941 135.340,184.600 136.000 M327.078 136.995 C 327.444 137.762,327.814 138.319,327.901 138.232 C 328.084 138.049,326.870 135.600,326.596 135.600 C 326.495 135.600,326.712 136.228,327.078 136.995 M183.040 138.840 C 182.645 139.508,182.411 140.144,182.519 140.253 C 182.628 140.361,183.006 139.869,183.360 139.160 C 184.193 137.490,183.970 137.266,183.040 138.840 M328.017 139.100 C 328.039 139.501,329.562 142.270,329.583 141.949 C 329.611 141.535,328.405 138.800,328.195 138.800 C 328.088 138.800,328.008 138.935,328.017 139.100 M69.472 141.419 C 68.532 143.389,68.664 143.724,69.647 141.862 C 70.093 141.016,70.387 140.254,70.301 140.167 C 70.214 140.081,69.841 140.644,69.472 141.419 M180.200 145.600 C 180.050 146.073,180.017 146.550,180.127 146.660 C 180.237 146.770,180.450 146.473,180.600 146.000 C 180.750 145.527,180.783 145.050,180.673 144.940 C 180.563 144.830,180.350 145.127,180.200 145.600 M332.251 148.774 C 332.627 150.239,333.571 152.286,333.555 151.600 C 333.547 151.270,333.194 150.280,332.771 149.400 C 332.348 148.520,332.114 148.238,332.251 148.774 M65.415 151.415 C 65.030 152.424,64.804 153.337,64.913 153.446 C 65.021 153.555,65.400 152.793,65.754 151.754 C 66.590 149.299,66.325 149.034,65.415 151.415 M178.650 151.250 C 178.317 152.917,178.640 153.240,179.000 151.600 C 179.152 150.909,179.193 150.259,179.091 150.158 C 178.989 150.056,178.791 150.547,178.650 151.250 M252.329 150.404 C 246.461 150.516,241.526 150.741,241.363 150.904 C 240.927 151.340,262.097 151.253,262.788 150.816 C 263.754 150.205,263.427 150.192,252.329 150.404 M237.000 151.619 C 236.442 151.871,236.685 151.907,237.800 151.738 C 238.680 151.604,239.475 151.428,239.567 151.347 C 239.910 151.044,237.768 151.271,237.000 151.619 M177.840 155.240 C 177.693 156.157,177.652 156.985,177.747 157.080 C 177.842 157.176,178.046 156.510,178.200 155.600 C 178.354 154.690,178.396 153.862,178.293 153.760 C 178.190 153.657,177.987 154.323,177.840 155.240 M230.105 154.525 C 229.393 155.006,228.808 155.544,228.805 155.720 C 228.802 155.897,229.475 155.544,230.300 154.937 C 231.125 154.329,231.875 153.780,231.967 153.716 C 232.058 153.652,231.968 153.611,231.767 153.625 C 231.565 153.639,230.817 154.044,230.105 154.525 M64.200 154.800 C 64.050 155.273,64.017 155.750,64.127 155.860 C 64.237 155.970,64.450 155.673,64.600 155.200 C 64.750 154.727,64.783 154.250,64.673 154.140 C 64.563 154.030,64.350 154.327,64.200 154.800 M227.311 156.900 C 226.260 158.042,224.000 161.629,224.000 162.155 C 224.000 162.374,224.643 161.484,225.428 160.176 C 226.214 158.869,227.235 157.395,227.698 156.900 C 228.161 156.405,228.449 156.000,228.339 156.000 C 228.229 156.000,227.767 156.405,227.311 156.900 M63.473 156.953 C 63.323 157.345,63.211 157.966,63.225 158.333 C 63.242 158.775,63.381 158.674,63.637 158.034 C 63.849 157.503,63.961 156.882,63.885 156.654 C 63.809 156.427,63.624 156.561,63.473 156.953 M335.444 158.200 C 335.773 159.671,336.002 159.990,335.994 158.967 C 335.991 158.545,335.805 157.930,335.582 157.600 C 335.285 157.162,335.248 157.324,335.444 158.200 M177.139 158.900 C 176.925 159.250,176.652 199.106,176.864 198.881 C 177.104 198.627,177.536 158.800,177.300 158.800 C 177.245 158.800,177.173 158.845,177.139 158.900 M62.673 159.753 C 62.523 160.145,62.411 160.766,62.425 161.133 C 62.442 161.575,62.581 161.474,62.837 160.834 C 63.049 160.303,63.161 159.682,63.085 159.454 C 63.009 159.227,62.824 159.361,62.673 159.753 M61.873 162.553 C 61.723 162.945,61.611 163.566,61.625 163.933 C 61.642 164.375,61.781 164.274,62.037 163.634 C 62.249 163.103,62.361 162.482,62.285 162.254 C 62.209 162.027,62.024 162.161,61.873 162.553 M336.834 163.200 C 336.846 163.530,337.011 164.160,337.200 164.600 L 337.544 165.400 337.566 164.600 C 337.578 164.160,337.413 163.530,337.200 163.200 C 336.855 162.667,336.815 162.667,336.834 163.200 M60.978 166.178 C 60.827 166.981,60.794 167.727,60.904 167.837 C 61.014 167.947,61.227 167.381,61.378 166.578 C 61.528 165.775,61.562 165.028,61.452 164.918 C 61.342 164.808,61.128 165.375,60.978 166.178 M222.649 165.815 C 222.512 166.173,222.416 166.856,222.436 167.333 C 222.462 167.947,222.585 167.808,222.859 166.856 C 223.257 165.472,223.094 164.658,222.649 165.815 M337.646 166.400 C 337.665 166.730,337.824 167.450,338.000 168.000 L 338.320 169.000 338.354 168.000 C 338.373 167.450,338.213 166.730,338.000 166.400 C 337.655 165.867,337.616 165.867,337.646 166.400 M60.178 169.778 C 60.027 170.581,59.994 171.327,60.104 171.437 C 60.214 171.547,60.427 170.981,60.578 170.178 C 60.728 169.375,60.762 168.628,60.652 168.518 C 60.542 168.408,60.328 168.975,60.178 169.778 M221.900 171.559 C 221.118 178.230,221.632 200.848,222.527 199.140 C 222.567 199.063,222.510 192.250,222.400 184.000 C 222.271 174.329,222.093 169.909,221.900 171.559 M338.468 169.800 C 338.474 170.240,338.624 171.050,338.800 171.600 L 339.120 172.600 339.132 171.600 C 339.138 171.050,338.989 170.240,338.800 169.800 L 338.456 169.000 338.468 169.800 M59.476 173.210 C 59.330 173.755,59.227 174.650,59.246 175.200 C 59.271 175.918,59.384 175.757,59.649 174.627 C 60.055 172.895,59.900 171.625,59.476 173.210 M339.287 174.000 C 339.291 174.550,339.432 175.540,339.600 176.200 L 339.905 177.400 339.913 176.200 C 339.917 175.540,339.776 174.550,339.600 174.000 L 339.280 173.000 339.287 174.000 M58.669 177.956 C 58.521 178.695,58.421 179.863,58.447 180.550 C 58.479 181.412,58.605 181.125,58.855 179.623 C 59.253 177.221,59.097 175.817,58.669 177.956 M340.070 178.800 C 340.057 179.350,340.195 180.520,340.377 181.400 L 340.708 183.000 340.707 181.600 C 340.705 179.835,340.109 177.212,340.070 178.800 M57.872 184.204 C 57.727 185.082,57.631 186.700,57.658 187.800 C 57.698 189.456,57.765 189.250,58.048 186.600 C 58.416 183.149,58.303 181.598,57.872 184.204 M340.897 185.600 C 340.895 186.590,341.025 188.570,341.186 190.000 L 341.478 192.600 341.509 190.000 C 341.527 188.570,341.397 186.590,341.220 185.600 L 340.900 183.800 340.897 185.600 M57.368 199.400 C 57.368 203.800,57.426 205.655,57.498 203.521 C 57.570 201.388,57.570 197.788,57.499 195.521 C 57.427 193.255,57.368 195.000,57.368 199.400 M341.714 199.400 C 341.717 200.500,341.795 200.903,341.887 200.295 C 341.979 199.686,341.977 198.786,341.882 198.295 C 341.787 197.803,341.711 198.300,341.714 199.400 M260.939 201.503 C 260.881 203.687,260.895 203.721,261.216 202.200 C 261.650 200.146,261.676 199.199,261.300 199.203 C 261.135 199.204,260.973 200.239,260.939 201.503 M260.253 206.036 C 260.114 206.731,260.021 207.773,260.047 208.350 C 260.072 208.928,260.255 208.427,260.452 207.239 C 260.837 204.921,260.673 203.934,260.253 206.036 M341.071 210.540 C 340.892 212.706,340.832 214.566,340.938 214.671 C 341.230 214.963,341.684 210.015,341.531 208.200 C 341.448 207.203,341.274 208.086,341.071 210.540 M57.623 211.433 C 57.636 212.515,57.803 214.120,57.995 215.000 C 58.244 216.143,58.280 215.628,58.121 213.200 C 57.872 209.412,57.588 208.403,57.623 211.433 M259.476 211.210 C 259.330 211.755,259.228 212.740,259.249 213.400 C 259.280 214.357,259.359 214.236,259.642 212.800 C 260.029 210.833,259.902 209.617,259.476 211.210 M258.676 216.410 C 258.530 216.955,258.428 217.940,258.449 218.600 C 258.480 219.557,258.559 219.436,258.842 218.000 C 259.229 216.033,259.102 214.817,258.676 216.410 M340.270 218.157 C 340.111 219.453,340.061 220.594,340.160 220.693 C 340.426 220.959,340.903 217.418,340.719 216.547 C 340.632 216.136,340.430 216.860,340.270 218.157 M58.486 218.800 C 58.483 219.570,58.624 220.650,58.800 221.200 C 59.250 222.604,59.265 221.137,58.823 219.000 L 58.492 217.400 58.486 218.800 M257.876 221.610 C 257.730 222.155,257.628 223.140,257.649 223.800 C 257.680 224.757,257.759 224.636,258.042 223.200 C 258.429 221.233,258.302 220.017,257.876 221.610 M339.418 223.818 C 339.265 224.839,339.230 225.763,339.340 225.873 C 339.450 225.983,339.665 225.239,339.818 224.218 C 339.971 223.198,340.006 222.273,339.896 222.163 C 339.786 222.053,339.571 222.798,339.418 223.818 M59.275 224.200 C 59.265 224.860,59.411 225.760,59.600 226.200 L 59.944 227.000 59.925 226.200 C 59.914 225.760,59.768 224.860,59.600 224.200 L 59.295 223.000 59.275 224.200 M257.076 226.810 C 256.930 227.355,256.828 228.340,256.849 229.000 C 256.880 229.957,256.959 229.836,257.242 228.400 C 257.629 226.433,257.502 225.217,257.076 226.810 M338.622 227.822 C 338.472 228.625,338.438 229.372,338.548 229.482 C 338.658 229.592,338.872 229.025,339.022 228.222 C 339.173 227.419,339.206 226.673,339.096 226.563 C 338.986 226.453,338.773 227.019,338.622 227.822 M60.080 228.200 C 60.080 228.640,60.224 229.450,60.400 230.000 C 60.654 230.792,60.720 230.833,60.720 230.200 C 60.720 229.760,60.576 228.950,60.400 228.400 C 60.146 227.608,60.080 227.567,60.080 228.200 M337.850 231.650 C 337.709 232.353,337.669 233.002,337.759 233.092 C 337.850 233.183,338.048 232.691,338.200 232.000 C 338.352 231.309,338.393 230.659,338.291 230.558 C 338.189 230.456,337.991 230.947,337.850 231.650 M60.868 231.800 C 60.862 232.240,61.011 232.960,61.200 233.400 C 61.638 234.419,61.638 233.368,61.200 232.000 C 60.943 231.196,60.877 231.157,60.868 231.800 M256.276 232.010 C 256.130 232.555,256.028 233.540,256.049 234.200 C 256.080 235.157,256.159 235.036,256.442 233.600 C 256.829 231.633,256.702 230.417,256.276 232.010 M337.050 234.850 C 336.909 235.553,336.869 236.202,336.959 236.292 C 337.050 236.383,337.248 235.891,337.400 235.200 C 337.552 234.509,337.593 233.859,337.491 233.758 C 337.389 233.656,337.191 234.147,337.050 234.850 M61.668 235.000 C 61.662 235.440,61.811 236.160,62.000 236.600 C 62.438 237.619,62.438 236.568,62.000 235.200 C 61.743 234.396,61.677 234.357,61.668 235.000 M255.476 237.210 C 255.330 237.755,255.227 238.650,255.246 239.200 C 255.271 239.918,255.384 239.757,255.649 238.627 C 256.055 236.895,255.900 235.625,255.476 237.210 M336.229 237.829 C 336.081 238.415,336.051 238.984,336.161 239.094 C 336.271 239.204,336.481 238.815,336.629 238.229 C 336.776 237.642,336.806 237.073,336.696 236.963 C 336.586 236.853,336.376 237.242,336.229 237.829 M62.456 238.000 C 62.456 238.330,62.611 238.960,62.800 239.400 C 63.017 239.904,63.144 239.978,63.144 239.600 C 63.144 239.270,62.989 238.640,62.800 238.200 C 62.583 237.696,62.456 237.622,62.456 238.000 M335.429 240.629 C 335.281 241.215,335.238 241.772,335.332 241.866 C 335.427 241.960,335.624 241.558,335.771 240.971 C 335.919 240.385,335.962 239.828,335.868 239.734 C 335.773 239.640,335.576 240.042,335.429 240.629 M63.212 240.800 C 63.212 241.130,63.387 241.670,63.600 242.000 C 63.945 242.533,63.988 242.533,63.988 242.000 C 63.988 241.670,63.813 241.130,63.600 240.800 C 63.255 240.267,63.212 240.267,63.212 240.800 M159.100 241.098 L 176.800 241.208 176.800 290.429 L 176.800 339.649 174.900 339.436 L 173.000 339.222 174.505 339.652 C 177.453 340.494,177.214 345.033,177.102 290.312 L 177.000 241.000 159.200 240.994 L 141.400 240.987 159.100 241.098 M221.785 241.300 C 221.680 241.575,221.640 263.850,221.697 290.800 L 221.800 339.800 222.815 339.918 C 223.374 339.984,224.274 339.848,224.815 339.617 C 225.638 339.266,225.520 339.236,224.100 339.434 L 222.400 339.670 222.400 290.440 L 222.400 241.209 238.500 241.100 L 254.600 240.991 238.287 240.895 C 225.535 240.821,221.933 240.909,221.785 241.300 M64.028 243.476 C 64.013 243.958,64.180 244.464,64.400 244.600 C 64.873 244.892,64.873 244.501,64.400 243.400 C 64.069 242.629,64.055 242.631,64.028 243.476 M333.800 245.600 C 333.650 246.073,333.617 246.550,333.727 246.660 C 333.837 246.770,334.050 246.473,334.200 246.000 C 334.350 245.527,334.383 245.050,334.273 244.940 C 334.163 244.830,333.950 245.127,333.800 245.600 M65.612 248.000 C 65.612 248.330,65.787 248.870,66.000 249.200 C 66.345 249.733,66.388 249.733,66.388 249.200 C 66.388 248.870,66.213 248.330,66.000 248.000 C 65.655 247.467,65.612 247.467,65.612 248.000 M331.183 252.700 C 329.374 257.238,329.428 257.074,329.889 256.600 C 330.401 256.073,332.951 249.618,332.734 249.400 C 332.641 249.308,331.943 250.792,331.183 252.700 M66.400 250.064 C 66.400 250.173,66.871 251.418,67.446 252.831 C 68.021 254.244,68.656 255.830,68.857 256.355 C 69.058 256.881,69.305 257.229,69.405 257.128 C 69.505 257.028,68.949 255.432,68.168 253.581 C 66.855 250.468,66.400 249.562,66.400 250.064 M69.619 257.652 C 69.582 258.136,71.684 262.449,71.868 262.266 C 71.970 262.164,71.510 261.027,70.846 259.740 C 70.182 258.453,69.630 257.513,69.619 257.652 M326.270 263.449 C 325.006 265.987,324.139 267.962,324.342 267.836 C 324.800 267.553,328.934 259.201,328.722 258.988 C 328.637 258.903,327.533 260.911,326.270 263.449 M72.000 262.865 C 72.000 262.988,72.720 264.399,73.600 266.000 C 74.480 267.601,75.204 269.021,75.209 269.155 C 75.214 269.290,75.586 269.850,76.036 270.400 C 76.486 270.950,75.914 269.600,74.765 267.400 C 72.814 263.663,72.000 262.328,72.000 262.865 M321.309 272.498 C 311.321 289.422,295.658 305.955,279.000 317.159 C 274.421 320.239,273.096 321.258,274.800 320.387 C 275.749 319.902,279.257 317.540,283.200 314.729 C 297.501 304.535,312.033 288.753,321.204 273.457 C 322.767 270.848,323.976 268.642,323.888 268.555 C 323.801 268.468,322.640 270.242,321.309 272.498 M77.251 272.500 C 78.016 273.938,80.495 277.600,80.703 277.600 C 80.807 277.600,80.627 277.195,80.303 276.700 C 79.979 276.205,79.133 274.855,78.423 273.700 C 77.134 271.605,76.343 270.794,77.251 272.500 M82.793 280.990 C 90.069 291.772,101.920 304.111,113.600 313.063 C 116.980 315.654,126.026 321.707,126.223 321.510 C 126.307 321.426,124.176 319.908,121.488 318.135 C 106.332 308.141,92.359 294.527,82.863 280.500 C 81.932 279.125,81.081 278.000,80.973 278.000 C 80.864 278.000,81.683 279.345,82.793 280.990 M270.881 322.261 C 269.495 323.050,268.438 323.771,268.531 323.864 C 268.717 324.050,273.600 321.273,273.600 320.981 C 273.600 320.714,273.606 320.711,270.881 322.261 M127.561 322.285 C 128.677 323.116,133.143 325.600,133.521 325.600 C 133.941 325.600,132.381 324.636,129.400 323.055 C 127.860 322.238,127.032 321.892,127.561 322.285 M262.400 326.800 C 259.430 328.317,257.152 329.568,257.338 329.579 C 257.781 329.606,267.286 324.874,267.780 324.380 C 268.404 323.756,268.031 323.924,262.400 326.800 M134.000 325.798 C 134.000 326.067,138.049 328.084,138.229 327.905 C 138.311 327.823,137.393 327.273,136.189 326.682 C 134.985 326.092,134.000 325.694,134.000 325.798 M140.400 328.995 C 140.400 329.205,143.135 330.411,143.549 330.383 C 143.870 330.362,141.101 328.839,140.700 328.817 C 140.535 328.808,140.400 328.888,140.400 328.995 M252.711 331.130 C 250.791 331.913,249.299 332.633,249.395 332.728 C 249.598 332.932,256.019 330.439,256.580 329.939 C 257.215 329.373,256.396 329.625,252.711 331.130 M149.400 332.771 C 150.280 333.194,151.270 333.539,151.600 333.538 C 152.284 333.534,150.305 332.625,148.800 332.250 C 148.250 332.114,148.520 332.348,149.400 332.771 M242.800 334.800 C 242.267 335.145,242.267 335.188,242.800 335.188 C 243.130 335.188,243.670 335.013,244.000 334.800 C 244.533 334.455,244.533 334.412,244.000 334.412 C 243.670 334.412,243.130 334.587,242.800 334.800 M240.200 335.600 L 239.400 335.944 240.200 335.966 C 240.640 335.978,241.270 335.813,241.600 335.600 C 242.395 335.086,241.396 335.086,240.200 335.600 M160.200 336.400 C 160.640 336.589,161.270 336.744,161.600 336.744 C 161.978 336.744,161.904 336.617,161.400 336.400 C 160.960 336.211,160.330 336.056,160.000 336.056 C 159.622 336.056,159.696 336.183,160.200 336.400 M237.400 336.400 L 236.600 336.744 237.400 336.766 C 237.840 336.778,238.470 336.613,238.800 336.400 C 239.595 335.886,238.596 335.886,237.400 336.400 M163.200 337.200 C 163.530 337.413,164.160 337.578,164.600 337.566 L 165.400 337.544 164.600 337.200 C 163.404 336.686,162.405 336.686,163.200 337.200 M234.600 337.200 C 234.096 337.417,234.022 337.544,234.400 337.544 C 234.730 337.544,235.360 337.389,235.800 337.200 C 236.304 336.983,236.378 336.856,236.000 336.856 C 235.670 336.856,235.040 337.011,234.600 337.200 M166.200 338.000 C 166.640 338.189,167.450 338.338,168.000 338.332 L 169.000 338.320 168.000 338.000 C 167.450 337.824,166.640 337.674,166.200 337.668 L 165.400 337.656 166.200 338.000 M231.200 338.000 C 230.396 338.257,230.357 338.323,231.000 338.332 C 231.440 338.338,232.160 338.189,232.600 338.000 C 233.619 337.562,232.568 337.562,231.200 338.000 M169.800 338.800 C 170.240 338.989,171.050 339.138,171.600 339.132 L 172.600 339.120 171.600 338.800 C 171.050 338.624,170.240 338.474,169.800 338.468 L 169.000 338.456 169.800 338.800 M227.400 338.800 C 226.311 339.077,226.293 339.107,227.200 339.125 C 227.750 339.135,228.560 338.989,229.000 338.800 C 229.986 338.376,229.066 338.376,227.400 338.800 " stroke="none" fill="#80b4fc" fill-rule="evenodd"></path><path id="path3" d="M196.100 57.098 C 198.025 57.171,201.175 57.171,203.100 57.098 C 205.025 57.025,203.450 56.965,199.600 56.965 C 195.750 56.965,194.175 57.025,196.100 57.098 M189.505 57.483 C 190.002 57.579,190.722 57.575,191.105 57.475 C 191.487 57.375,191.080 57.296,190.200 57.301 C 189.320 57.305,189.007 57.387,189.505 57.483 M207.900 57.482 C 208.395 57.578,209.205 57.578,209.700 57.482 C 210.195 57.387,209.790 57.309,208.800 57.309 C 207.810 57.309,207.405 57.387,207.900 57.482 M171.600 59.600 C 170.796 59.857,170.757 59.923,171.400 59.932 C 171.840 59.938,172.560 59.789,173.000 59.600 C 174.019 59.162,172.968 59.162,171.600 59.600 M229.800 60.400 C 230.240 60.589,230.870 60.744,231.200 60.744 C 231.578 60.744,231.504 60.617,231.000 60.400 C 230.560 60.211,229.930 60.056,229.600 60.056 C 229.222 60.056,229.296 60.183,229.800 60.400 M131.100 74.229 C 129.605 75.040,129.696 75.378,131.200 74.600 C 131.860 74.259,132.400 73.894,132.400 73.790 C 132.400 73.532,132.357 73.547,131.100 74.229 M270.800 76.179 C 270.800 76.289,271.340 76.659,272.000 77.000 C 272.660 77.341,273.200 77.531,273.200 77.421 C 273.200 77.311,272.660 76.941,272.000 76.600 C 271.340 76.259,270.800 76.069,270.800 76.179 M277.200 80.124 C 277.200 80.217,277.965 80.798,278.900 81.415 C 279.835 82.032,280.389 82.280,280.131 81.968 C 279.634 81.367,277.200 79.836,277.200 80.124 M116.400 83.649 C 115.006 84.871,115.005 84.872,116.288 84.019 C 116.996 83.548,117.682 82.991,117.812 82.781 C 118.197 82.157,117.877 82.354,116.400 83.649 M283.200 84.125 C 283.200 84.224,283.861 84.809,284.668 85.425 C 285.476 86.041,286.011 86.341,285.856 86.091 C 285.540 85.579,283.200 83.847,283.200 84.125 M290.400 89.725 C 290.400 89.794,290.985 90.379,291.700 91.025 L 293.000 92.200 291.825 90.900 C 290.730 89.688,290.400 89.416,290.400 89.725 M106.175 91.700 L 105.000 93.000 106.300 91.825 C 107.512 90.730,107.784 90.400,107.475 90.400 C 107.406 90.400,106.821 90.985,106.175 91.700 M293.200 92.125 C 293.200 92.194,293.785 92.779,294.500 93.425 L 295.800 94.600 294.625 93.300 C 293.530 92.088,293.200 91.816,293.200 92.125 M98.594 98.900 L 93.400 104.200 98.700 99.006 C 103.623 94.181,104.181 93.600,103.894 93.600 C 103.836 93.600,101.451 95.985,98.594 98.900 M299.983 98.500 C 300.964 99.545,301.819 100.400,301.883 100.400 C 302.184 100.400,301.866 100.041,300.100 98.383 L 298.200 96.600 299.983 98.500 M304.800 103.725 C 304.800 103.794,305.385 104.379,306.100 105.025 L 307.400 106.200 306.225 104.900 C 305.130 103.688,304.800 103.416,304.800 103.725 M91.375 106.500 L 90.200 107.800 91.500 106.625 C 92.712 105.530,92.984 105.200,92.675 105.200 C 92.606 105.200,92.021 105.785,91.375 106.500 M222.000 113.192 C 221.436 113.369,222.307 113.414,224.000 113.297 C 225.650 113.183,227.075 113.024,227.167 112.945 C 227.487 112.667,222.992 112.882,222.000 113.192 M238.900 113.091 C 239.725 113.178,241.075 113.178,241.900 113.091 C 242.725 113.005,242.050 112.934,240.400 112.934 C 238.750 112.934,238.075 113.005,238.900 113.091 M217.200 114.006 C 216.778 114.282,217.015 114.323,218.000 114.142 C 219.725 113.825,220.051 113.598,218.767 113.606 C 218.235 113.609,217.530 113.789,217.200 114.006 M249.100 113.882 C 249.595 113.978,250.405 113.978,250.900 113.882 C 251.395 113.787,250.990 113.709,250.000 113.709 C 249.010 113.709,248.605 113.787,249.100 113.882 M213.600 114.818 C 213.162 115.115,213.324 115.152,214.200 114.956 C 215.671 114.627,215.990 114.398,214.967 114.406 C 214.545 114.409,213.930 114.595,213.600 114.818 M255.633 114.544 C 255.725 114.623,256.700 114.791,257.800 114.918 C 259.087 115.067,259.515 115.026,259.000 114.803 C 258.236 114.472,255.286 114.245,255.633 114.544 M83.375 116.668 C 82.759 117.476,82.459 118.011,82.709 117.856 C 83.221 117.540,84.953 115.200,84.675 115.200 C 84.576 115.200,83.991 115.861,83.375 116.668 M262.983 133.000 C 262.983 142.460,263.036 146.273,263.100 141.473 C 263.164 136.673,263.163 128.933,263.099 124.273 C 263.036 119.613,262.983 123.540,262.983 133.000 M198.200 121.835 L 197.000 122.866 198.300 122.006 C 199.015 121.533,199.600 121.068,199.600 120.973 C 199.600 120.673,199.431 120.778,198.200 121.835 M193.775 125.300 L 192.600 126.600 193.900 125.425 C 194.615 124.779,195.200 124.194,195.200 124.125 C 195.200 123.816,194.870 124.088,193.775 125.300 M190.175 128.900 L 189.000 130.200 190.300 129.025 C 191.015 128.379,191.600 127.794,191.600 127.725 C 191.600 127.416,191.270 127.688,190.175 128.900 M74.200 131.200 C 73.859 131.860,73.669 132.400,73.779 132.400 C 73.889 132.400,74.259 131.860,74.600 131.200 C 74.941 130.540,75.131 130.000,75.021 130.000 C 74.911 130.000,74.541 130.540,74.200 131.200 M179.449 149.015 C 179.312 149.373,179.215 149.966,179.234 150.333 C 179.253 150.700,179.427 150.469,179.621 149.820 C 179.998 148.558,179.865 147.933,179.449 149.015 M242.305 150.683 C 242.802 150.779,243.522 150.775,243.905 150.675 C 244.287 150.575,243.880 150.496,243.000 150.501 C 242.120 150.505,241.807 150.587,242.305 150.683 M239.300 151.076 C 239.685 151.176,240.315 151.176,240.700 151.076 C 241.085 150.975,240.770 150.893,240.000 150.893 C 239.230 150.893,238.915 150.975,239.300 151.076 M177.709 158.800 C 177.709 159.790,177.787 160.195,177.882 159.700 C 177.978 159.205,177.978 158.395,177.882 157.900 C 177.787 157.405,177.709 157.810,177.709 158.800 M177.320 166.000 C 177.320 167.210,177.395 167.705,177.487 167.100 C 177.578 166.495,177.578 165.505,177.487 164.900 C 177.395 164.295,177.320 164.790,177.320 166.000 M221.693 171.200 C 221.693 171.970,221.775 172.285,221.876 171.900 C 221.976 171.515,221.976 170.885,221.876 170.500 C 221.775 170.115,221.693 170.430,221.693 171.200 M59.450 172.050 C 59.117 173.717,59.440 174.040,59.800 172.400 C 59.952 171.709,59.993 171.059,59.891 170.958 C 59.789 170.856,59.591 171.347,59.450 172.050 M341.293 185.600 C 341.293 186.370,341.375 186.685,341.476 186.300 C 341.576 185.915,341.576 185.285,341.476 184.900 C 341.375 184.515,341.293 184.830,341.293 185.600 M57.301 190.200 C 57.305 191.080,57.387 191.393,57.483 190.895 C 57.579 190.398,57.575 189.678,57.475 189.295 C 57.375 188.913,57.296 189.320,57.301 190.200 M341.740 194.400 C 341.740 196.270,341.809 197.035,341.893 196.100 C 341.977 195.165,341.977 193.635,341.893 192.700 C 341.809 191.765,341.740 192.530,341.740 194.400 M56.965 199.600 C 56.965 203.450,57.025 205.025,57.098 203.100 C 57.171 201.175,57.171 198.025,57.098 196.100 C 57.025 194.175,56.965 195.750,56.965 199.600 M159.346 199.100 C 145.091 199.187,141.605 199.313,141.242 199.750 C 140.919 200.138,140.822 205.985,140.896 220.445 L 141.000 240.600 158.700 240.606 L 176.400 240.613 158.796 240.502 L 141.193 240.392 141.296 220.096 L 141.400 199.800 158.984 199.696 C 169.903 199.631,176.719 199.441,176.964 199.196 C 177.182 198.978,177.279 198.843,177.180 198.896 C 177.081 198.948,169.055 199.040,159.346 199.100 M221.862 199.300 C 221.964 199.465,230.754 199.600,241.396 199.600 C 260.467 199.600,260.747 199.612,260.925 200.406 C 261.076 201.077,261.097 201.060,261.053 200.306 L 261.000 199.400 241.338 199.200 C 230.524 199.090,221.760 199.135,221.862 199.300 M341.742 204.600 C 341.741 206.580,341.808 207.440,341.892 206.512 C 341.976 205.584,341.977 203.964,341.895 202.912 C 341.812 201.860,341.743 202.620,341.742 204.600 M57.309 208.800 C 57.309 209.790,57.387 210.195,57.482 209.700 C 57.578 209.205,57.578 208.395,57.482 207.900 C 57.387 207.405,57.309 207.810,57.309 208.800 M259.654 208.800 C 259.619 209.350,259.496 210.250,259.383 210.800 L 259.177 211.800 259.607 210.815 C 259.843 210.274,259.965 209.374,259.878 208.815 L 259.720 207.800 259.654 208.800 M258.854 214.000 C 258.819 214.550,258.696 215.450,258.583 216.000 L 258.377 217.000 258.807 216.015 C 259.043 215.474,259.165 214.574,259.078 214.015 L 258.920 213.000 258.854 214.000 M258.054 219.200 C 258.019 219.750,257.896 220.650,257.783 221.200 L 257.577 222.200 258.007 221.215 C 258.243 220.674,258.365 219.774,258.278 219.215 L 258.120 218.200 258.054 219.200 M340.222 220.622 C 340.072 221.425,340.028 222.162,340.126 222.260 C 340.224 222.357,340.427 221.781,340.578 220.978 C 340.728 220.175,340.772 219.438,340.674 219.340 C 340.576 219.243,340.373 219.819,340.222 220.622 M58.480 221.000 C 58.480 221.440,58.624 222.250,58.800 222.800 C 59.054 223.592,59.120 223.633,59.120 223.000 C 59.120 222.560,58.976 221.750,58.800 221.200 C 58.546 220.408,58.480 220.367,58.480 221.000 M257.254 224.400 C 257.219 224.950,257.096 225.850,256.983 226.400 L 256.777 227.400 257.207 226.415 C 257.443 225.874,257.565 224.974,257.478 224.415 L 257.320 223.400 257.254 224.400 M338.629 229.429 C 338.481 230.015,338.438 230.572,338.532 230.666 C 338.627 230.760,338.824 230.358,338.971 229.771 C 339.119 229.185,339.162 228.628,339.068 228.534 C 338.973 228.440,338.776 228.842,338.629 229.429 M256.493 230.000 C 256.493 230.770,256.575 231.085,256.676 230.700 C 256.776 230.315,256.776 229.685,256.676 229.300 C 256.575 228.915,256.493 229.230,256.493 230.000 M255.693 235.200 C 255.693 235.970,255.775 236.285,255.876 235.900 C 255.976 235.515,255.976 234.885,255.876 234.500 C 255.775 234.115,255.693 234.430,255.693 235.200 M254.800 239.729 C 254.800 240.332,253.372 240.401,238.700 240.500 L 222.600 240.609 238.713 240.705 C 255.126 240.802,256.425 240.691,255.049 239.316 C 254.912 239.179,254.800 239.365,254.800 239.729 M76.600 272.000 C 76.941 272.660,77.311 273.200,77.421 273.200 C 77.531 273.200,77.341 272.660,77.000 272.000 C 76.659 271.340,76.289 270.800,76.179 270.800 C 76.069 270.800,76.259 271.340,76.600 272.000 M79.867 277.206 C 80.259 277.870,80.998 278.905,81.510 279.506 C 82.021 280.108,81.775 279.565,80.963 278.300 C 79.424 275.903,78.628 275.107,79.867 277.206 M315.200 282.400 C 314.730 283.060,314.436 283.600,314.546 283.600 C 314.656 283.600,315.130 283.060,315.600 282.400 C 316.070 281.740,316.364 281.200,316.254 281.200 C 316.144 281.200,315.670 281.740,315.200 282.400 M306.975 292.900 L 305.800 294.200 307.100 293.025 C 307.815 292.379,308.400 291.794,308.400 291.725 C 308.400 291.416,308.070 291.688,306.975 292.900 M92.000 293.325 C 92.000 293.394,92.585 293.979,93.300 294.625 L 94.600 295.800 93.425 294.500 C 92.330 293.288,92.000 293.016,92.000 293.325 M303.781 296.500 L 302.200 298.200 303.900 296.619 C 304.835 295.749,305.600 294.984,305.600 294.919 C 305.600 294.616,305.252 294.919,303.781 296.500 M98.400 300.200 C 99.817 301.630,101.067 302.800,101.177 302.800 C 101.287 302.800,100.217 301.630,98.800 300.200 C 97.383 298.770,96.133 297.600,96.023 297.600 C 95.913 297.600,96.983 298.770,98.400 300.200 M296.181 304.100 L 294.600 305.800 296.300 304.219 C 297.235 303.349,298.000 302.584,298.000 302.519 C 298.000 302.216,297.652 302.519,296.181 304.100 M103.600 304.925 C 103.600 304.994,104.185 305.579,104.900 306.225 L 106.200 307.400 105.025 306.100 C 103.930 304.888,103.600 304.616,103.600 304.925 M113.200 312.946 C 113.200 313.056,113.740 313.530,114.400 314.000 C 115.060 314.470,115.600 314.764,115.600 314.654 C 115.600 314.544,115.060 314.070,114.400 313.600 C 113.740 313.130,113.200 312.836,113.200 312.946 M232.600 338.000 C 232.096 338.217,232.022 338.344,232.400 338.344 C 232.730 338.344,233.360 338.189,233.800 338.000 C 234.304 337.783,234.378 337.656,234.000 337.656 C 233.670 337.656,233.040 337.811,232.600 338.000 M229.000 338.800 C 228.496 339.017,228.422 339.144,228.800 339.144 C 229.130 339.144,229.760 338.989,230.200 338.800 C 230.704 338.583,230.778 338.456,230.400 338.456 C 230.070 338.456,229.440 338.611,229.000 338.800 M225.000 339.600 C 223.981 340.038,225.032 340.038,226.400 339.600 C 227.204 339.343,227.243 339.277,226.600 339.268 C 226.160 339.262,225.440 339.411,225.000 339.600 " stroke="none" fill="#a8ccfc" fill-rule="evenodd"></path><path id="path4" d="M191.200 56.753 C 190.430 56.889,194.191 57.000,199.558 57.000 C 204.925 57.000,208.615 56.875,207.758 56.723 C 205.861 56.386,193.148 56.409,191.200 56.753 M182.200 57.580 C 181.755 57.760,182.998 57.813,185.000 57.699 C 186.980 57.586,188.675 57.428,188.767 57.347 C 189.104 57.050,182.974 57.267,182.200 57.580 M210.433 57.347 C 210.525 57.428,212.220 57.581,214.200 57.688 C 216.180 57.794,217.350 57.746,216.800 57.580 C 215.797 57.279,210.120 57.071,210.433 57.347 M176.408 58.387 C 176.023 58.630,176.654 58.679,178.208 58.525 C 179.523 58.396,180.675 58.224,180.767 58.145 C 181.151 57.811,176.949 58.044,176.408 58.387 M218.033 58.146 C 218.125 58.226,219.370 58.387,220.800 58.502 C 222.327 58.626,223.070 58.578,222.600 58.385 C 221.826 58.067,217.696 57.851,218.033 58.146 M172.046 59.163 C 171.707 59.378,172.251 59.432,173.446 59.304 C 174.521 59.188,175.475 59.028,175.567 58.947 C 175.929 58.628,172.565 58.835,172.046 59.163 M223.633 58.944 C 223.725 59.023,224.700 59.191,225.800 59.318 C 227.087 59.467,227.515 59.426,227.000 59.203 C 226.236 58.872,223.286 58.645,223.633 58.944 M168.400 60.006 C 167.978 60.282,168.215 60.323,169.200 60.142 C 170.925 59.825,171.251 59.598,169.967 59.606 C 169.435 59.609,168.730 59.789,168.400 60.006 M228.033 59.743 C 228.125 59.822,228.920 59.997,229.800 60.132 C 230.890 60.299,231.209 60.255,230.800 59.995 C 230.253 59.646,227.645 59.409,228.033 59.743 M164.800 60.795 C 164.391 61.055,164.710 61.099,165.800 60.932 C 167.777 60.629,168.114 60.398,166.567 60.406 C 165.925 60.409,165.130 60.584,164.800 60.795 M231.633 60.547 C 231.725 60.628,232.520 60.814,233.400 60.962 C 234.546 61.154,234.830 61.114,234.400 60.821 C 233.860 60.453,231.232 60.193,231.633 60.547 M161.790 61.616 C 161.621 61.889,161.923 61.938,162.666 61.760 C 164.199 61.392,164.344 61.200,163.090 61.200 C 162.517 61.200,161.932 61.387,161.790 61.616 M235.233 61.344 C 235.325 61.423,235.940 61.608,236.600 61.756 C 237.476 61.952,237.638 61.915,237.200 61.618 C 236.660 61.253,234.832 60.998,235.233 61.344 M157.678 62.695 C 156.731 63.022,156.032 63.365,156.125 63.458 C 156.218 63.551,157.082 63.366,158.047 63.047 C 159.011 62.729,160.160 62.383,160.600 62.280 C 161.223 62.134,161.178 62.094,160.400 62.097 C 159.850 62.099,158.625 62.368,157.678 62.695 M238.033 62.144 C 238.125 62.223,238.740 62.408,239.400 62.556 C 240.276 62.752,240.438 62.715,240.000 62.418 C 239.460 62.053,237.632 61.798,238.033 62.144 M243.000 63.660 C 246.680 64.902,247.732 65.199,247.450 64.917 C 247.072 64.539,241.904 62.818,241.200 62.836 C 240.870 62.844,241.680 63.215,243.000 63.660 M250.800 66.461 C 256.815 68.906,257.648 69.202,257.403 68.805 C 257.265 68.582,256.981 68.400,256.772 68.400 C 256.563 68.400,255.628 68.062,254.696 67.650 C 251.727 66.336,248.708 65.199,248.247 65.221 C 248.001 65.232,249.150 65.790,250.800 66.461 M138.500 70.196 C 136.465 71.165,134.800 72.061,134.800 72.186 C 134.800 72.311,135.655 71.991,136.700 71.476 C 137.745 70.960,139.590 70.068,140.800 69.493 C 142.010 68.919,142.820 68.445,142.600 68.441 C 142.380 68.436,140.535 69.226,138.500 70.196 M258.033 69.329 C 258.687 69.837,268.793 74.712,268.624 74.438 C 268.389 74.058,258.711 69.200,258.189 69.200 C 258.012 69.200,257.942 69.258,258.033 69.329 M129.600 74.836 C 128.936 75.379,128.869 75.515,129.400 75.240 C 130.705 74.566,131.428 74.012,131.000 74.015 C 130.780 74.017,130.150 74.386,129.600 74.836 M269.200 74.990 C 269.200 75.094,269.785 75.465,270.500 75.814 L 271.800 76.448 270.800 75.633 C 269.837 74.848,269.200 74.592,269.200 74.990 M126.500 76.626 C 125.565 77.187,124.800 77.740,124.800 77.855 C 124.800 78.071,127.499 76.538,128.180 75.936 C 128.867 75.328,128.227 75.591,126.500 76.626 M273.805 77.734 C 277.245 80.035,278.000 80.498,278.000 80.305 C 278.000 80.053,272.490 76.400,272.110 76.400 C 271.945 76.400,272.708 77.000,273.805 77.734 M120.491 80.362 C 118.513 81.660,116.787 82.898,116.654 83.112 C 116.464 83.421,123.727 78.753,124.367 78.156 C 125.091 77.479,123.512 78.378,120.491 80.362 M279.600 81.370 C 279.600 81.480,280.725 82.330,282.100 83.258 C 295.036 91.990,309.929 107.586,319.377 122.292 C 320.681 124.323,321.820 125.914,321.906 125.827 C 322.127 125.607,316.862 117.763,313.456 113.238 C 306.519 104.021,297.711 95.065,287.600 86.949 C 284.419 84.395,279.600 81.035,279.600 81.370 M114.600 84.497 C 105.002 91.471,90.598 105.902,84.454 114.700 C 82.468 117.543,84.055 115.739,87.621 111.100 C 92.544 104.694,104.694 92.544,111.100 87.621 C 115.410 84.307,116.304 83.562,115.900 83.613 C 115.845 83.620,115.260 84.018,114.600 84.497 M229.700 113.097 C 231.185 113.174,233.615 113.174,235.100 113.097 C 236.585 113.020,235.370 112.957,232.400 112.957 C 229.430 112.957,228.215 113.020,229.700 113.097 M221.200 113.600 L 219.400 113.880 221.000 113.900 C 221.880 113.911,223.050 113.776,223.600 113.600 C 224.863 113.195,223.802 113.195,221.200 113.600 M242.200 113.612 C 243.769 113.947,248.695 114.141,248.367 113.854 C 248.275 113.774,246.490 113.610,244.400 113.489 C 241.815 113.340,241.112 113.379,242.200 113.612 M216.600 114.400 C 215.493 114.682,215.477 114.709,216.400 114.747 C 216.950 114.769,217.670 114.613,218.000 114.400 C 218.681 113.960,218.329 113.960,216.600 114.400 M251.000 114.379 C 252.216 114.710,255.873 114.926,255.567 114.649 C 255.475 114.566,254.140 114.398,252.600 114.275 C 250.834 114.135,250.243 114.173,251.000 114.379 M213.200 115.200 C 212.376 115.464,212.341 115.526,213.000 115.554 C 213.440 115.573,214.070 115.413,214.400 115.200 C 215.101 114.747,214.614 114.747,213.200 115.200 M257.800 115.197 C 258.564 115.528,261.514 115.755,261.167 115.456 C 261.075 115.377,260.100 115.209,259.000 115.082 C 257.713 114.933,257.285 114.974,257.800 115.197 M262.308 132.800 L 262.417 150.000 251.908 150.040 C 246.129 150.062,240.950 150.239,240.400 150.434 C 239.607 150.715,239.731 150.749,241.000 150.599 C 241.880 150.494,247.145 150.407,252.700 150.404 L 262.800 150.400 262.800 133.000 C 262.800 123.430,262.665 115.600,262.500 115.600 C 262.335 115.600,262.249 123.340,262.308 132.800 M82.721 117.100 C 81.466 118.555,77.261 125.202,78.101 124.400 C 78.405 124.111,83.528 116.400,83.417 116.400 C 83.366 116.400,83.052 116.715,82.721 117.100 M207.400 117.178 C 206.520 117.595,205.913 117.950,206.051 117.968 C 206.440 118.018,209.200 116.814,209.200 116.595 C 209.200 116.327,209.199 116.327,207.400 117.178 M203.865 118.647 C 203.240 118.986,202.806 119.339,202.900 119.433 C 203.087 119.620,205.600 118.446,205.600 118.171 C 205.600 117.862,205.018 118.022,203.865 118.647 M194.310 125.085 C 192.830 126.332,191.693 127.427,191.784 127.517 C 191.874 127.607,192.634 127.054,193.474 126.289 C 194.313 125.523,195.540 124.430,196.200 123.861 C 196.860 123.291,197.310 122.823,197.200 122.821 C 197.090 122.819,195.789 123.837,194.310 125.085 M77.108 125.700 C 76.233 127.049,75.448 128.656,75.887 128.200 C 76.448 127.617,78.098 124.800,77.879 124.800 C 77.776 124.800,77.429 125.205,77.108 125.700 M322.360 127.000 C 323.034 128.305,323.588 129.028,323.585 128.600 C 323.583 128.380,323.214 127.750,322.764 127.200 C 322.221 126.536,322.085 126.469,322.360 127.000 M189.466 130.096 C 188.472 131.250,187.736 132.270,187.830 132.363 C 187.923 132.457,188.047 132.458,188.105 132.367 C 188.163 132.275,188.984 131.255,189.929 130.100 C 192.157 127.378,191.811 127.375,189.466 130.096 M74.614 129.835 C 74.241 130.404,74.005 130.938,74.089 131.022 C 74.173 131.107,74.558 130.641,74.944 129.988 C 75.806 128.528,75.548 128.409,74.614 129.835 M323.960 129.800 C 324.634 131.105,325.188 131.828,325.185 131.400 C 325.183 131.180,324.814 130.550,324.364 130.000 C 323.821 129.336,323.685 129.269,323.960 129.800 M186.534 133.905 C 186.088 134.507,185.415 135.630,185.038 136.400 L 184.352 137.800 185.167 136.800 C 185.615 136.250,185.986 135.632,185.991 135.426 C 185.996 135.220,186.391 134.636,186.868 134.127 C 187.346 133.619,187.648 133.115,187.540 133.006 C 187.432 132.898,186.979 133.303,186.534 133.905 M70.980 136.840 C 70.411 137.962,70.013 138.947,70.095 139.029 C 70.177 139.111,70.727 138.193,71.318 136.989 C 71.908 135.785,72.306 134.800,72.202 134.800 C 72.098 134.800,71.548 135.718,70.980 136.840 M327.478 136.595 C 327.844 137.362,328.214 137.919,328.301 137.832 C 328.484 137.649,327.270 135.200,326.996 135.200 C 326.895 135.200,327.112 135.828,327.478 136.595 M183.586 139.101 C 182.745 140.787,182.740 140.800,182.947 140.800 C 183.205 140.800,184.442 138.308,184.269 138.136 C 184.195 138.062,183.888 138.496,183.586 139.101 M69.000 141.061 C 68.664 141.865,68.482 142.615,68.595 142.728 C 68.708 142.841,68.800 142.835,68.800 142.716 C 68.800 142.596,69.072 141.846,69.405 141.049 C 69.738 140.252,69.921 139.600,69.811 139.600 C 69.701 139.600,69.336 140.258,69.000 141.061 M329.807 141.479 C 330.407 142.914,330.800 143.562,330.800 143.116 C 330.800 142.684,329.585 140.000,329.389 140.000 C 329.279 140.000,329.467 140.666,329.807 141.479 M181.874 142.731 C 180.968 144.997,181.048 145.369,182.022 143.417 C 182.456 142.546,182.752 141.657,182.680 141.440 C 182.608 141.223,182.245 141.804,181.874 142.731 M180.046 148.067 C 180.021 148.434,179.896 149.064,179.770 149.467 C 179.552 150.162,179.563 150.163,179.997 149.487 C 180.248 149.096,180.373 148.466,180.273 148.087 C 180.111 147.468,180.088 147.466,180.046 148.067 M179.249 151.200 C 179.216 151.530,179.089 152.250,178.967 152.800 C 178.775 153.664,178.807 153.703,179.199 153.088 C 179.448 152.697,179.575 151.977,179.481 151.488 C 179.386 151.000,179.282 150.870,179.249 151.200 M236.204 151.194 C 236.052 151.440,236.455 151.494,237.280 151.337 C 239.049 151.000,239.201 150.800,237.690 150.800 C 237.007 150.800,236.338 150.977,236.204 151.194 M229.391 154.498 C 226.470 156.881,223.594 160.447,223.605 161.672 C 223.607 161.962,224.069 161.390,224.632 160.400 C 225.816 158.313,227.937 155.992,230.160 154.352 C 231.018 153.718,231.554 153.200,231.351 153.200 C 231.148 153.200,230.266 153.784,229.391 154.498 M178.246 156.347 C 178.089 157.527,178.046 158.579,178.150 158.683 C 178.417 158.950,178.922 155.364,178.707 154.725 C 178.611 154.436,178.403 155.166,178.246 156.347 M335.244 155.646 C 336.097 158.407,336.332 158.985,336.360 158.400 C 336.392 157.710,335.476 154.943,335.086 154.553 C 334.942 154.409,335.013 154.901,335.244 155.646 M62.600 158.145 C 62.221 159.349,62.007 160.574,62.124 160.867 C 62.253 161.191,62.351 161.087,62.374 160.600 C 62.395 160.160,62.686 159.012,63.021 158.049 C 63.357 157.086,63.554 156.221,63.460 156.127 C 63.366 156.032,62.979 156.940,62.600 158.145 M336.644 160.200 C 336.973 161.671,337.202 161.990,337.194 160.967 C 337.191 160.545,337.005 159.930,336.782 159.600 C 336.485 159.162,336.448 159.324,336.644 160.200 M177.545 162.100 C 177.515 163.035,177.380 171.810,177.245 181.600 L 177.000 199.400 159.200 199.600 L 141.400 199.800 141.393 220.200 L 141.385 240.600 141.593 220.400 L 141.800 200.200 159.515 200.000 C 174.677 199.829,177.284 199.714,177.609 199.200 C 177.994 198.590,178.182 160.400,177.800 160.400 C 177.690 160.400,177.575 161.165,177.545 162.100 M61.467 161.867 C 61.320 162.013,61.215 162.598,61.234 163.167 C 61.268 164.181,61.275 164.179,61.621 163.020 C 61.985 161.803,61.931 161.402,61.467 161.867 M337.458 163.200 C 337.775 164.925,338.002 165.251,337.994 163.967 C 337.991 163.435,337.811 162.730,337.594 162.400 C 337.318 161.978,337.277 162.215,337.458 163.200 M60.649 165.015 C 60.512 165.373,60.421 166.146,60.446 166.733 C 60.480 167.532,60.570 167.398,60.804 166.200 C 61.135 164.500,61.062 163.940,60.649 165.015 M222.249 165.015 C 222.112 165.373,222.018 166.056,222.041 166.533 C 222.067 167.081,222.203 166.886,222.410 166.003 C 222.760 164.516,222.665 163.933,222.249 165.015 M338.268 166.600 C 338.571 168.577,338.802 168.914,338.794 167.367 C 338.791 166.725,338.616 165.930,338.405 165.600 C 338.145 165.191,338.101 165.510,338.268 166.600 M59.849 168.615 C 59.712 168.973,59.618 169.656,59.641 170.133 C 59.667 170.681,59.803 170.486,60.010 169.603 C 60.360 168.116,60.265 167.533,59.849 168.615 M221.450 169.250 C 220.957 171.715,221.164 199.004,221.680 199.520 C 222.040 199.880,226.937 200.000,241.256 200.000 L 260.352 200.000 260.509 201.500 L 260.666 203.000 260.733 201.304 L 260.800 199.608 241.300 199.504 L 221.800 199.400 221.800 183.700 C 221.800 175.065,221.778 168.000,221.750 168.000 C 221.722 168.000,221.588 168.563,221.450 169.250 M339.068 170.200 C 339.371 172.177,339.602 172.514,339.594 170.967 C 339.591 170.325,339.416 169.530,339.205 169.200 C 338.945 168.791,338.901 169.110,339.068 170.200 M59.049 172.215 C 58.912 172.573,58.824 173.526,58.853 174.333 C 58.901 175.644,58.938 175.587,59.195 173.800 C 59.503 171.671,59.455 171.158,59.049 172.215 M339.882 174.200 C 340.009 175.300,340.177 176.275,340.256 176.367 C 340.555 176.714,340.328 173.764,339.997 173.000 C 339.774 172.485,339.733 172.913,339.882 174.200 M58.249 176.615 C 58.112 176.973,58.024 178.106,58.052 179.133 C 58.105 180.988,58.107 180.985,58.413 178.600 C 58.732 176.118,58.680 175.492,58.249 176.615 M340.687 179.400 C 340.811 180.940,340.977 182.275,341.056 182.367 C 341.359 182.717,341.127 178.161,340.803 177.400 C 340.597 176.916,340.551 177.708,340.687 179.400 M57.456 182.484 C 57.321 182.988,57.235 184.660,57.264 186.200 L 57.318 189.000 57.612 185.400 C 57.916 181.669,57.876 180.917,57.456 182.484 M341.491 186.623 C 341.702 191.485,341.903 192.122,341.925 188.000 C 341.936 186.130,341.807 184.250,341.640 183.823 C 341.472 183.395,341.405 184.655,341.491 186.623 M56.654 191.856 C 56.320 194.297,56.369 205.768,56.723 207.758 C 56.875 208.615,57.000 204.970,57.000 199.658 C 57.000 194.346,56.979 190.000,56.954 190.000 C 56.929 190.000,56.794 190.835,56.654 191.856 M342.165 199.400 C 342.166 203.360,342.226 204.926,342.298 202.880 C 342.371 200.834,342.371 197.594,342.298 195.680 C 342.224 193.766,342.165 195.440,342.165 199.400 M259.856 204.884 C 259.721 205.388,259.630 206.340,259.653 207.000 C 259.681 207.828,259.797 207.584,260.026 206.213 C 260.376 204.123,260.274 203.326,259.856 204.884 M341.679 210.650 C 341.636 212.218,341.511 214.107,341.401 214.850 L 341.203 216.200 341.618 214.878 C 341.847 214.151,341.972 212.261,341.897 210.678 L 341.759 207.800 341.679 210.650 M259.056 210.084 C 258.921 210.588,258.830 211.540,258.853 212.200 C 258.881 213.028,258.997 212.784,259.226 211.413 C 259.576 209.323,259.474 208.526,259.056 210.084 M57.240 213.033 C 57.262 214.555,57.415 216.250,57.580 216.800 C 57.746 217.350,57.794 216.180,57.688 214.200 C 57.456 209.878,57.184 209.171,57.240 213.033 M258.256 215.284 C 258.121 215.788,258.030 216.740,258.053 217.400 C 258.081 218.228,258.197 217.984,258.426 216.613 C 258.776 214.523,258.674 213.726,258.256 215.284 M340.867 218.400 C 340.824 219.390,340.696 220.650,340.583 221.200 L 340.377 222.200 340.807 221.215 C 341.044 220.674,341.171 219.414,341.091 218.415 L 340.944 216.600 340.867 218.400 M58.028 220.033 C 58.044 221.005,58.206 222.160,58.390 222.600 C 58.592 223.083,58.638 222.449,58.507 221.000 C 58.245 218.110,57.989 217.593,58.028 220.033 M257.456 220.484 C 257.321 220.988,257.230 221.940,257.253 222.600 C 257.281 223.428,257.397 223.184,257.626 221.813 C 257.976 219.723,257.874 218.926,257.456 220.484 M340.067 223.667 C 340.030 224.474,339.896 225.464,339.770 225.867 C 339.553 226.557,339.566 226.559,339.994 225.893 C 340.243 225.504,340.377 224.514,340.291 223.693 L 340.134 222.200 340.067 223.667 M58.828 224.833 C 58.844 225.585,59.012 226.560,59.203 227.000 C 59.426 227.515,59.467 227.087,59.318 225.800 C 59.044 223.422,58.789 222.919,58.828 224.833 M256.656 225.684 C 256.521 226.188,256.430 227.140,256.453 227.800 C 256.481 228.628,256.597 228.384,256.826 227.013 C 257.176 224.923,257.074 224.126,256.656 225.684 M339.260 228.067 C 339.227 228.654,339.096 229.464,338.970 229.867 C 338.752 230.560,338.765 230.561,339.195 229.890 C 339.446 229.499,339.577 228.689,339.486 228.090 L 339.320 227.000 339.260 228.067 M59.606 229.033 C 59.609 229.675,59.784 230.470,59.995 230.800 C 60.255 231.209,60.299 230.890,60.132 229.800 C 59.829 227.823,59.598 227.486,59.606 229.033 M255.876 230.810 C 255.730 231.355,255.628 232.340,255.649 233.000 C 255.680 233.957,255.759 233.836,256.042 232.400 C 256.429 230.433,256.302 229.217,255.876 230.810 M338.368 232.100 C 338.249 232.960,338.310 233.450,338.512 233.248 C 338.705 233.055,338.798 232.381,338.719 231.749 C 338.587 230.691,338.559 230.719,338.368 232.100 M60.400 232.710 C 60.400 233.393,60.577 234.062,60.794 234.196 C 61.040 234.348,61.094 233.945,60.937 233.120 C 60.600 231.351,60.400 231.199,60.400 232.710 M337.660 234.667 C 337.627 235.144,337.484 235.864,337.341 236.267 C 337.142 236.831,337.195 236.896,337.572 236.549 C 337.842 236.301,337.985 235.581,337.891 234.949 C 337.770 234.139,337.702 234.056,337.660 234.667 M61.206 235.633 C 61.209 236.165,61.389 236.870,61.606 237.200 C 61.882 237.622,61.923 237.385,61.742 236.400 C 61.425 234.675,61.198 234.349,61.206 235.633 M255.076 236.010 C 254.930 236.555,254.828 237.540,254.849 238.200 C 254.880 239.157,254.959 239.036,255.242 237.600 C 255.629 235.633,255.502 234.417,255.076 236.010 M336.826 237.800 C 336.805 238.240,336.514 239.388,336.179 240.351 C 335.843 241.314,335.646 242.179,335.740 242.273 C 336.037 242.570,337.299 238.092,337.076 237.533 C 336.947 237.209,336.849 237.313,336.826 237.800 M62.006 238.633 C 62.009 239.055,62.195 239.670,62.418 240.000 C 62.715 240.438,62.752 240.276,62.556 239.400 C 62.227 237.929,61.998 237.610,62.006 238.633 M176.700 240.665 C 177.096 240.825,177.200 251.165,177.200 290.489 L 177.200 340.111 174.700 339.899 C 173.226 339.774,172.528 339.822,173.000 340.015 C 174.471 340.619,177.491 340.462,177.757 339.767 C 177.891 339.419,178.000 317.135,178.000 290.247 C 178.000 240.577,177.993 240.328,176.620 240.432 C 176.389 240.449,176.425 240.554,176.700 240.665 M221.385 240.900 C 221.280 241.175,221.240 263.630,221.297 290.800 L 221.400 340.200 223.297 340.322 C 224.340 340.389,225.474 340.287,225.816 340.095 C 226.202 339.879,225.516 339.813,224.020 339.921 L 221.600 340.096 221.600 290.477 C 221.600 243.558,221.638 240.849,222.300 240.676 C 222.956 240.504,222.955 240.490,222.287 240.446 C 221.896 240.421,221.489 240.625,221.385 240.900 M62.836 241.200 C 62.818 241.904,64.539 247.072,64.917 247.450 C 65.199 247.732,64.902 246.680,63.660 243.000 C 63.215 241.680,62.844 240.870,62.836 241.200 M332.732 250.323 C 332.156 251.795,331.293 253.990,330.814 255.200 C 330.335 256.410,330.108 257.220,330.311 257.000 C 330.807 256.460,334.143 248.010,333.940 247.807 C 333.851 247.718,333.308 248.850,332.732 250.323 M66.812 252.625 C 66.805 252.859,67.160 253.795,67.600 254.706 C 68.040 255.616,68.400 256.539,68.400 256.757 C 68.400 256.975,68.582 257.265,68.805 257.403 C 69.027 257.540,68.835 256.703,68.377 255.542 C 67.420 253.113,66.830 252.013,66.812 252.625 M329.600 257.684 C 329.600 257.804,329.328 258.554,328.995 259.351 C 328.662 260.148,328.479 260.800,328.589 260.800 C 328.906 260.800,330.033 257.900,329.805 257.672 C 329.692 257.559,329.600 257.565,329.600 257.684 M69.212 258.156 C 69.192 258.736,74.054 268.386,74.507 268.666 C 74.778 268.834,74.799 268.727,74.567 268.362 C 74.371 268.053,73.089 265.550,71.717 262.800 C 70.346 260.050,69.219 257.960,69.212 258.156 M325.837 265.704 C 325.010 267.297,324.516 268.420,324.740 268.200 C 325.286 267.663,327.654 263.121,327.480 262.946 C 327.404 262.870,326.665 264.111,325.837 265.704 M323.453 270.100 L 322.733 271.400 323.558 270.400 C 324.289 269.513,324.614 268.800,324.286 268.800 C 324.224 268.800,323.849 269.385,323.453 270.100 M74.809 269.500 C 74.814 269.665,75.185 270.250,75.633 270.800 L 76.448 271.800 75.814 270.500 C 75.211 269.265,74.789 268.845,74.809 269.500 M322.024 272.518 C 321.723 273.003,321.215 273.805,320.893 274.300 C 320.571 274.795,320.395 275.200,320.501 275.200 C 320.783 275.200,322.886 271.953,322.715 271.781 C 322.635 271.702,322.324 272.033,322.024 272.518 M76.400 272.113 C 76.400 272.495,79.250 276.800,79.503 276.800 C 79.607 276.800,79.372 276.305,78.982 275.700 C 77.244 273.008,76.400 271.836,76.400 272.113 M317.904 279.000 C 316.649 280.870,315.699 282.400,315.791 282.400 C 316.010 282.400,319.354 277.668,319.961 276.500 C 320.843 274.800,320.181 275.605,317.904 279.000 M82.783 281.975 C 83.670 283.282,84.579 284.464,84.804 284.602 C 85.028 284.741,84.385 283.672,83.375 282.227 C 82.365 280.782,81.455 279.600,81.354 279.600 C 81.253 279.600,81.896 280.669,82.783 281.975 M314.353 284.100 C 313.857 284.815,312.310 286.795,310.914 288.500 C 309.519 290.205,308.517 291.592,308.688 291.582 C 309.203 291.551,315.933 282.800,315.442 282.800 C 315.339 282.800,314.849 283.385,314.353 284.100 M85.483 285.700 C 92.960 295.504,106.109 308.680,113.000 313.273 L 114.200 314.073 113.161 313.137 C 112.589 312.622,110.429 310.815,108.361 309.123 C 101.731 303.698,93.983 295.844,88.411 288.900 C 86.778 286.865,85.366 285.200,85.272 285.200 C 85.179 285.200,85.274 285.425,85.483 285.700 M301.282 299.125 C 292.382 308.228,283.855 315.151,274.811 320.618 C 273.054 321.680,271.680 322.613,271.758 322.691 C 272.310 323.243,284.353 314.820,291.800 308.674 C 295.645 305.501,309.181 291.876,308.341 292.025 C 308.264 292.039,305.087 295.234,301.282 299.125 M114.623 314.437 C 114.890 314.869,123.616 320.771,125.200 321.591 C 125.750 321.875,126.110 322.017,126.000 321.906 C 125.442 321.341,114.417 314.104,114.623 314.437 M126.400 322.164 C 126.400 322.397,131.119 325.200,131.510 325.200 C 131.851 325.200,130.718 324.444,128.300 323.056 C 127.255 322.457,126.400 322.055,126.400 322.164 M267.703 324.698 C 265.889 325.710,264.470 326.603,264.548 326.682 C 264.710 326.843,268.980 324.553,270.439 323.521 C 272.046 322.386,271.165 322.764,267.703 324.698 M133.765 326.343 C 134.035 326.779,137.626 328.507,137.833 328.301 C 137.912 328.221,136.979 327.666,135.759 327.067 C 134.538 326.469,133.641 326.143,133.765 326.343 M259.800 328.785 C 258.480 329.423,257.530 329.958,257.688 329.973 C 258.096 330.011,262.400 328.016,262.400 327.788 C 262.400 327.523,262.452 327.503,259.800 328.785 M140.000 329.389 C 140.000 329.706,142.900 330.833,143.128 330.605 C 143.241 330.492,143.235 330.400,143.116 330.400 C 142.996 330.400,142.246 330.128,141.449 329.795 C 140.652 329.462,140.000 329.279,140.000 329.389 M252.200 332.000 C 249.560 333.078,247.601 333.969,247.847 333.980 C 248.308 334.001,251.331 332.862,254.296 331.550 C 255.228 331.138,256.163 330.800,256.372 330.800 C 256.581 330.800,256.864 330.620,257.000 330.400 C 257.321 329.880,257.698 329.755,252.200 332.000 M149.662 333.395 C 150.011 333.745,155.379 335.600,155.998 335.586 C 156.329 335.579,155.070 335.040,153.200 334.389 C 149.681 333.164,149.333 333.066,149.662 333.395 M240.200 336.212 C 239.320 336.529,238.240 336.805,237.800 336.826 C 237.313 336.848,237.209 336.947,237.533 337.076 C 238.041 337.279,242.400 336.103,242.400 335.763 C 242.400 335.498,241.894 335.601,240.200 336.212 M159.600 336.782 C 159.930 337.005,160.545 337.191,160.967 337.194 C 161.990 337.202,161.671 336.973,160.200 336.644 C 159.324 336.448,159.162 336.485,159.600 336.782 M162.400 337.594 C 162.730 337.811,163.435 337.991,163.967 337.994 C 165.251 338.002,164.925 337.775,163.200 337.458 C 162.215 337.277,161.978 337.318,162.400 337.594 M235.200 337.600 L 234.200 337.920 235.276 337.960 C 235.868 337.982,236.464 337.820,236.600 337.600 C 236.881 337.145,236.620 337.145,235.200 337.600 M165.600 338.394 C 165.930 338.611,166.635 338.791,167.167 338.794 C 168.451 338.802,168.125 338.575,166.400 338.258 C 165.415 338.077,165.178 338.118,165.600 338.394 M232.000 338.400 C 230.616 338.691,230.614 338.695,231.800 338.741 C 232.460 338.767,233.270 338.613,233.600 338.400 C 234.266 337.970,234.045 337.970,232.000 338.400 M169.200 339.205 C 169.530 339.416,170.325 339.591,170.967 339.594 C 172.514 339.602,172.177 339.371,170.200 339.068 C 169.110 338.901,168.791 338.945,169.200 339.205 M228.400 339.200 C 227.016 339.491,227.014 339.495,228.200 339.541 C 228.860 339.567,229.670 339.413,230.000 339.200 C 230.666 338.770,230.445 338.770,228.400 339.200 " stroke="none" fill="#dcecfc" fill-rule="evenodd"></path></g></svg>