<svg id="svg" version="1.1" xmlns="http://www.w3.org/2000/svg" xmlns:xlink="http://www.w3.org/1999/xlink" width="400" height="400" viewBox="0, 0, 400,400"><g id="svgg"><path id="path0" d="M235.800 171.830 C 225.018 173.337,221.592 177.199,221.532 187.920 C 221.495 194.497,222.423 197.304,225.657 200.394 C 226.834 201.519,229.929 203.467,238.864 208.708 C 243.433 211.388,244.801 213.588,244.799 218.246 C 244.796 221.754,243.798 223.200,241.377 223.200 C 238.524 223.200,238.329 222.807,238.092 216.577 L 237.887 211.200 230.143 211.200 L 222.400 211.200 222.400 215.100 C 222.400 227.944,227.877 232.984,241.800 232.952 C 256.014 232.920,261.163 228.341,260.682 216.161 C 260.257 205.420,257.779 202.232,244.489 195.319 C 238.237 192.068,235.949 187.713,238.389 183.711 C 240.698 179.924,243.595 181.932,243.606 187.326 C 243.615 191.461,243.136 191.235,251.629 191.109 L 259.000 191.000 259.128 187.200 C 259.424 178.476,257.358 175.359,249.600 172.821 C 247.046 171.986,238.883 171.400,235.800 171.830 M267.075 177.859 C 266.924 178.010,266.800 179.254,266.800 180.624 C 266.800 183.329,266.577 183.600,264.352 183.600 L 263.169 183.600 263.284 187.100 L 263.400 190.600 265.000 190.800 L 266.600 191.000 266.824 208.400 C 267.128 232.039,267.262 232.241,282.400 231.922 L 288.200 231.800 288.320 229.008 C 288.495 224.958,288.324 224.549,286.348 224.284 C 283.940 223.961,283.999 224.414,284.104 207.000 L 284.200 191.000 286.300 190.879 L 288.400 190.758 288.400 187.179 L 288.400 183.600 287.100 183.595 C 284.258 183.583,284.046 183.374,283.917 180.458 L 283.800 177.800 275.575 177.692 C 271.051 177.633,267.226 177.708,267.075 177.859 M304.730 183.779 C 300.045 184.806,295.581 187.862,294.248 190.957 C 293.954 191.640,293.472 192.740,293.178 193.400 C 292.484 194.960,292.129 217.060,292.735 220.955 C 294.007 229.121,299.525 232.772,310.600 232.772 C 320.880 232.772,327.367 228.974,329.131 221.923 C 329.796 219.263,329.778 195.576,329.110 193.628 C 326.394 185.719,315.664 181.384,304.730 183.779 M358.000 183.750 C 355.930 184.439,353.504 185.800,352.638 186.757 C 351.540 187.971,351.261 187.814,351.123 185.900 L 351.000 184.200 342.800 184.200 L 334.600 184.200 334.490 210.600 C 334.429 225.120,334.477 237.405,334.597 237.900 C 334.814 238.796,334.850 238.800,342.808 238.800 L 350.800 238.800 350.806 234.100 C 350.813 228.481,351.083 227.780,352.681 229.227 C 355.590 231.860,358.208 232.802,362.594 232.794 C 368.183 232.783,373.232 229.898,374.290 226.110 C 375.162 222.990,374.635 191.875,373.675 189.800 C 371.161 184.363,364.214 181.681,358.000 183.750 M312.784 192.475 C 313.896 193.669,314.072 221.948,312.977 223.511 C 312.250 224.549,310.366 224.709,309.467 223.809 C 308.026 222.369,307.936 194.018,309.367 192.436 C 310.346 191.355,311.755 191.371,312.784 192.475 M355.269 192.262 C 356.339 193.231,356.404 222.490,355.338 223.669 C 354.540 224.550,352.682 224.625,351.865 223.808 C 350.422 222.365,350.329 194.025,351.762 192.442 C 352.676 191.433,354.262 191.351,355.269 192.262 " stroke="none" fill="#fc0606" fill-rule="evenodd"></path><path id="path1" d="M44.000 174.069 C 37.604 174.979,32.022 178.497,30.350 182.673 C 27.956 188.649,28.126 220.474,30.580 225.859 C 34.548 234.568,49.748 237.448,54.669 230.423 C 55.612 229.077,56.557 229.403,57.212 231.300 L 57.800 233.000 62.900 233.112 L 68.000 233.224 68.000 217.812 L 68.000 202.400 58.400 202.400 L 48.800 202.400 48.800 206.376 L 48.800 210.352 50.300 210.476 L 51.800 210.600 51.904 216.400 C 52.031 223.429,51.540 224.805,48.906 224.794 C 45.529 224.780,45.600 225.227,45.600 203.880 C 45.600 183.126,45.590 183.200,48.385 183.200 C 50.937 183.200,51.322 184.077,51.522 190.341 L 51.703 196.000 59.851 196.000 L 68.000 196.000 67.986 191.900 C 67.947 180.625,63.300 175.549,51.636 174.036 C 47.876 173.549,47.649 173.550,44.000 174.069 M84.800 185.379 C 76.399 187.275,72.854 191.748,72.814 200.500 L 72.800 203.600 80.140 203.600 L 87.480 203.600 87.755 198.733 C 88.050 193.521,88.345 192.840,90.326 192.813 C 92.611 192.781,93.594 194.592,93.598 198.840 C 93.602 203.089,92.585 204.173,86.766 206.129 C 74.189 210.357,73.107 211.423,72.871 219.826 C 72.580 230.246,75.366 233.797,83.800 233.755 C 87.963 233.735,89.634 233.149,91.753 230.967 C 93.397 229.275,94.000 229.451,94.000 231.624 L 94.000 233.200 101.957 233.200 C 108.844 233.200,109.947 233.115,110.157 232.567 C 110.935 230.540,110.040 196.162,109.130 193.126 C 107.225 186.765,95.373 182.991,84.800 185.379 M137.343 185.633 C 136.211 186.068,134.473 187.139,133.481 188.012 C 131.234 189.990,131.269 189.995,131.122 187.700 L 131.000 185.800 123.200 185.800 L 115.400 185.800 115.400 209.400 L 115.400 233.000 123.200 233.000 L 131.000 233.000 131.200 213.742 C 131.424 192.177,131.333 192.800,134.239 192.800 C 136.843 192.800,136.800 192.453,136.800 213.256 C 136.800 223.529,136.909 232.219,137.043 232.567 C 137.252 233.113,138.321 233.200,144.843 233.200 L 152.400 233.200 152.434 215.900 C 152.478 193.413,152.563 192.800,155.667 192.800 C 158.166 192.800,158.178 192.898,158.400 213.982 L 158.600 233.000 166.090 233.109 L 173.580 233.218 173.833 232.209 C 174.455 229.732,173.750 192.667,173.045 190.801 C 170.494 184.046,160.606 182.697,154.418 188.260 L 152.397 190.077 150.213 188.081 C 146.634 184.811,141.848 183.900,137.343 185.633 M191.800 185.362 C 185.592 186.896,182.073 189.820,180.521 194.735 C 179.316 198.553,179.472 221.317,180.725 224.459 C 183.261 230.813,188.739 233.661,198.600 233.752 C 210.743 233.864,216.598 228.935,216.599 218.600 L 216.600 213.800 209.300 213.691 L 202.000 213.582 201.966 216.691 C 201.888 223.892,201.085 226.000,198.418 226.000 C 196.078 226.000,195.800 225.073,195.800 217.259 L 195.800 210.200 206.200 210.000 L 216.600 209.800 216.726 204.600 C 216.964 194.772,214.780 190.006,208.669 187.016 C 204.385 184.920,196.657 184.162,191.800 185.362 M200.177 193.689 C 201.280 195.263,201.062 202.237,199.900 202.548 C 198.600 202.896,196.687 202.843,196.052 202.440 C 195.313 201.972,195.574 194.396,196.361 193.447 C 197.171 192.471,199.424 192.614,200.177 193.689 M93.600 216.974 C 93.600 222.934,93.279 225.048,92.275 225.686 C 87.276 228.864,85.781 216.070,90.683 212.066 C 93.493 209.771,93.600 209.951,93.600 216.974 " stroke="none" fill="#060606" fill-rule="evenodd"></path><path id="path2" d="M178.500 0.274 C 176.465 0.360,174.800 0.603,174.800 0.815 C 174.800 1.030,173.383 1.200,171.600 1.200 C 169.733 1.200,168.400 1.367,168.400 1.600 C 168.400 1.820,167.511 2.000,166.424 2.000 C 165.337 2.000,164.336 2.180,164.200 2.400 C 164.064 2.620,162.973 2.800,161.776 2.800 C 160.579 2.800,159.600 2.980,159.600 3.200 C 159.600 3.420,158.801 3.600,157.824 3.600 C 156.847 3.600,155.936 3.780,155.800 4.000 C 155.664 4.220,154.843 4.400,153.976 4.400 C 153.109 4.400,152.400 4.580,152.400 4.800 C 152.400 5.020,151.680 5.200,150.800 5.200 C 149.920 5.200,149.200 5.380,149.200 5.600 C 149.200 5.820,148.581 6.000,147.824 6.000 C 147.067 6.000,146.336 6.180,146.200 6.400 C 146.064 6.620,145.423 6.800,144.776 6.800 C 144.129 6.800,143.600 6.980,143.600 7.200 C 143.600 7.420,142.880 7.600,142.000 7.600 C 141.120 7.600,140.400 7.780,140.400 8.000 C 140.400 8.220,139.860 8.400,139.200 8.400 C 138.540 8.400,138.000 8.580,138.000 8.800 C 138.000 9.020,137.460 9.200,136.800 9.200 C 136.140 9.200,135.600 9.380,135.600 9.600 C 135.600 9.820,135.060 10.000,134.400 10.000 C 133.740 10.000,133.200 10.180,133.200 10.400 C 133.200 10.620,132.660 10.800,132.000 10.800 C 131.340 10.800,130.800 10.980,130.800 11.200 C 130.800 11.420,130.440 11.600,130.000 11.600 C 129.560 11.600,129.200 11.780,129.200 12.000 C 129.200 12.220,128.660 12.400,128.000 12.400 C 127.340 12.400,126.800 12.580,126.800 12.800 C 126.800 13.020,126.440 13.200,126.000 13.200 C 125.560 13.200,125.200 13.380,125.200 13.600 C 125.200 13.820,124.660 14.000,124.000 14.000 C 123.340 14.000,122.800 14.180,122.800 14.400 C 122.800 14.620,122.440 14.800,122.000 14.800 C 121.560 14.800,121.200 14.980,121.200 15.200 C 121.200 15.420,120.761 15.600,120.224 15.600 C 119.687 15.600,119.136 15.780,119.000 16.000 C 118.864 16.220,118.403 16.400,117.976 16.400 C 117.549 16.400,117.200 16.580,117.200 16.800 C 117.200 17.020,116.840 17.200,116.400 17.200 C 115.960 17.200,115.600 17.380,115.600 17.600 C 115.600 17.820,115.240 18.000,114.800 18.000 C 114.360 18.000,114.000 18.180,114.000 18.400 C 114.000 18.620,113.640 18.800,113.200 18.800 C 112.760 18.800,112.400 18.980,112.400 19.200 C 112.400 19.420,112.040 19.600,111.600 19.600 C 111.160 19.600,110.800 19.780,110.800 20.000 C 110.800 20.220,110.440 20.400,110.000 20.400 C 109.560 20.400,109.200 20.580,109.200 20.800 C 109.200 21.020,108.840 21.200,108.400 21.200 C 107.960 21.200,107.600 21.380,107.600 21.600 C 107.600 21.820,107.240 22.000,106.800 22.000 C 106.360 22.000,106.000 22.180,106.000 22.400 C 106.000 22.620,105.640 22.800,105.200 22.800 C 104.760 22.800,104.400 22.980,104.400 23.200 C 104.400 23.420,104.040 23.600,103.600 23.600 C 103.160 23.600,102.800 23.780,102.800 24.000 C 102.800 24.220,102.480 24.400,102.088 24.400 C 101.697 24.400,101.117 24.760,100.800 25.200 C 100.483 25.640,99.903 26.000,99.512 26.000 C 99.120 26.000,98.800 26.180,98.800 26.400 C 98.800 26.620,98.440 26.800,98.000 26.800 C 97.560 26.800,97.200 26.980,97.200 27.200 C 97.200 27.420,96.964 27.600,96.675 27.600 C 96.387 27.600,95.764 27.960,95.292 28.400 C 94.820 28.840,94.196 29.200,93.905 29.200 C 93.614 29.200,93.117 29.560,92.800 30.000 C 92.483 30.440,91.943 30.800,91.600 30.800 C 91.257 30.800,90.717 31.160,90.400 31.600 C 90.083 32.040,89.503 32.400,89.112 32.400 C 88.720 32.400,88.400 32.550,88.400 32.732 C 88.400 32.915,87.905 33.319,87.300 33.630 C 86.695 33.940,85.909 34.511,85.553 34.897 C 85.197 35.284,84.652 35.600,84.341 35.600 C 84.031 35.600,83.517 35.960,83.200 36.400 C 82.883 36.840,82.420 37.200,82.171 37.200 C 81.922 37.200,81.154 37.740,80.463 38.400 C 79.772 39.060,79.047 39.600,78.852 39.600 C 78.656 39.600,77.755 40.320,76.848 41.200 C 75.941 42.080,75.005 42.800,74.768 42.800 C 74.531 42.800,73.646 43.520,72.800 44.400 C 71.954 45.280,71.084 46.000,70.866 46.000 C 70.648 46.000,69.413 47.035,68.121 48.300 C 66.829 49.565,65.072 51.128,64.217 51.773 C 62.202 53.293,53.293 62.202,51.773 64.217 C 51.128 65.072,49.565 66.829,48.300 68.121 C 47.035 69.413,46.000 70.648,46.000 70.866 C 46.000 71.084,45.280 71.954,44.400 72.800 C 43.520 73.646,42.800 74.531,42.800 74.768 C 42.800 75.005,42.080 75.941,41.200 76.848 C 40.320 77.755,39.600 78.656,39.600 78.852 C 39.600 79.047,39.060 79.772,38.400 80.463 C 37.740 81.154,37.200 81.922,37.200 82.171 C 37.200 82.420,36.840 82.883,36.400 83.200 C 35.960 83.517,35.600 84.031,35.600 84.341 C 35.600 84.652,35.284 85.197,34.897 85.553 C 34.511 85.909,33.940 86.695,33.630 87.300 C 33.319 87.905,32.915 88.400,32.732 88.400 C 32.550 88.400,32.400 88.720,32.400 89.112 C 32.400 89.503,32.040 90.083,31.600 90.400 C 31.160 90.717,30.800 91.257,30.800 91.600 C 30.800 91.943,30.440 92.483,30.000 92.800 C 29.560 93.117,29.200 93.614,29.200 93.905 C 29.200 94.196,28.840 94.820,28.400 95.292 C 27.960 95.764,27.600 96.387,27.600 96.675 C 27.600 96.964,27.420 97.200,27.200 97.200 C 26.980 97.200,26.800 97.560,26.800 98.000 C 26.800 98.440,26.620 98.800,26.400 98.800 C 26.180 98.800,26.000 99.120,26.000 99.512 C 26.000 99.903,25.640 100.483,25.200 100.800 C 24.760 101.117,24.400 101.697,24.400 102.088 C 24.400 102.480,24.220 102.800,24.000 102.800 C 23.780 102.800,23.600 103.160,23.600 103.600 C 23.600 104.040,23.420 104.400,23.200 104.400 C 22.980 104.400,22.800 104.760,22.800 105.200 C 22.800 105.640,22.620 106.000,22.400 106.000 C 22.180 106.000,22.000 106.360,22.000 106.800 C 22.000 107.240,21.820 107.600,21.600 107.600 C 21.380 107.600,21.200 107.960,21.200 108.400 C 21.200 108.840,21.020 109.200,20.800 109.200 C 20.580 109.200,20.400 109.560,20.400 110.000 C 20.400 110.440,20.220 110.800,20.000 110.800 C 19.780 110.800,19.600 111.160,19.600 111.600 C 19.600 112.040,19.420 112.400,19.200 112.400 C 18.980 112.400,18.800 112.760,18.800 113.200 C 18.800 113.640,18.620 114.000,18.400 114.000 C 18.180 114.000,18.000 114.360,18.000 114.800 C 18.000 115.240,17.820 115.600,17.600 115.600 C 17.380 115.600,17.200 115.960,17.200 116.400 C 17.200 116.840,17.020 117.200,16.800 117.200 C 16.580 117.200,16.400 117.549,16.400 117.976 C 16.400 118.403,16.220 118.864,16.000 119.000 C 15.780 119.136,15.600 119.687,15.600 120.224 C 15.600 120.761,15.420 121.200,15.200 121.200 C 14.980 121.200,14.800 121.560,14.800 122.000 C 14.800 122.440,14.620 122.800,14.400 122.800 C 14.180 122.800,14.000 123.340,14.000 124.000 C 14.000 124.660,13.820 125.200,13.600 125.200 C 13.380 125.200,13.200 125.560,13.200 126.000 C 13.200 126.440,13.020 126.800,12.800 126.800 C 12.580 126.800,12.400 127.340,12.400 128.000 C 12.400 128.660,12.220 129.200,12.000 129.200 C 11.780 129.200,11.600 129.560,11.600 130.000 C 11.600 130.440,11.420 130.800,11.200 130.800 C 10.980 130.800,10.800 131.340,10.800 132.000 C 10.800 132.660,10.620 133.200,10.400 133.200 C 10.180 133.200,10.000 133.740,10.000 134.400 C 10.000 135.060,9.820 135.600,9.600 135.600 C 9.380 135.600,9.200 136.140,9.200 136.800 C 9.200 137.460,9.020 138.000,8.800 138.000 C 8.580 138.000,8.400 138.540,8.400 139.200 C 8.400 139.860,8.220 140.400,8.000 140.400 C 7.780 140.400,7.600 141.120,7.600 142.000 C 7.600 142.880,7.420 143.600,7.200 143.600 C 6.980 143.600,6.800 144.129,6.800 144.776 C 6.800 145.423,6.620 146.064,6.400 146.200 C 6.180 146.336,6.000 147.067,6.000 147.824 C 6.000 148.581,5.820 149.200,5.600 149.200 C 5.380 149.200,5.200 149.920,5.200 150.800 C 5.200 151.680,5.020 152.400,4.800 152.400 C 4.580 152.400,4.400 153.109,4.400 153.976 C 4.400 154.843,4.220 155.664,4.000 155.800 C 3.780 155.936,3.600 156.847,3.600 157.824 C 3.600 158.801,3.420 159.600,3.200 159.600 C 2.980 159.600,2.800 160.579,2.800 161.776 C 2.800 162.973,2.620 164.064,2.400 164.200 C 2.180 164.336,2.000 165.337,2.000 166.424 C 2.000 167.511,1.820 168.400,1.600 168.400 C 1.367 168.400,1.200 169.722,1.200 171.567 C 1.200 173.744,1.044 174.785,0.700 174.900 C -0.032 175.144,-0.032 224.856,0.700 225.100 C 1.044 225.215,1.200 226.256,1.200 228.433 C 1.200 230.278,1.367 231.600,1.600 231.600 C 1.820 231.600,2.000 232.489,2.000 233.576 C 2.000 234.663,2.180 235.664,2.400 235.800 C 2.620 235.936,2.800 237.027,2.800 238.224 C 2.800 239.421,2.980 240.400,3.200 240.400 C 3.420 240.400,3.600 241.199,3.600 242.176 C 3.600 243.153,3.780 244.064,4.000 244.200 C 4.220 244.336,4.400 245.157,4.400 246.024 C 4.400 246.891,4.580 247.600,4.800 247.600 C 5.020 247.600,5.200 248.320,5.200 249.200 C 5.200 250.080,5.380 250.800,5.600 250.800 C 5.820 250.800,6.000 251.419,6.000 252.176 C 6.000 252.933,6.180 253.664,6.400 253.800 C 6.620 253.936,6.800 254.577,6.800 255.224 C 6.800 255.871,6.980 256.400,7.200 256.400 C 7.420 256.400,7.600 257.120,7.600 258.000 C 7.600 258.880,7.780 259.600,8.000 259.600 C 8.220 259.600,8.400 260.140,8.400 260.800 C 8.400 261.460,8.580 262.000,8.800 262.000 C 9.020 262.000,9.200 262.540,9.200 263.200 C 9.200 263.860,9.380 264.400,9.600 264.400 C 9.820 264.400,10.000 264.940,10.000 265.600 C 10.000 266.260,10.180 266.800,10.400 266.800 C 10.620 266.800,10.800 267.340,10.800 268.000 C 10.800 268.660,10.980 269.200,11.200 269.200 C 11.420 269.200,11.600 269.560,11.600 270.000 C 11.600 270.440,11.780 270.800,12.000 270.800 C 12.220 270.800,12.400 271.340,12.400 272.000 C 12.400 272.660,12.580 273.200,12.800 273.200 C 13.020 273.200,13.200 273.560,13.200 274.000 C 13.200 274.440,13.380 274.800,13.600 274.800 C 13.820 274.800,14.000 275.340,14.000 276.000 C 14.000 276.660,14.180 277.200,14.400 277.200 C 14.620 277.200,14.800 277.560,14.800 278.000 C 14.800 278.440,14.980 278.800,15.200 278.800 C 15.420 278.800,15.600 279.239,15.600 279.776 C 15.600 280.313,15.780 280.864,16.000 281.000 C 16.220 281.136,16.400 281.597,16.400 282.024 C 16.400 282.451,16.580 282.800,16.800 282.800 C 17.020 282.800,17.200 283.160,17.200 283.600 C 17.200 284.040,17.380 284.400,17.600 284.400 C 17.820 284.400,18.000 284.760,18.000 285.200 C 18.000 285.640,18.180 286.000,18.400 286.000 C 18.620 286.000,18.800 286.360,18.800 286.800 C 18.800 287.240,18.980 287.600,19.200 287.600 C 19.420 287.600,19.600 287.960,19.600 288.400 C 19.600 288.840,19.780 289.200,20.000 289.200 C 20.220 289.200,20.400 289.560,20.400 290.000 C 20.400 290.440,20.580 290.800,20.800 290.800 C 21.020 290.800,21.200 291.160,21.200 291.600 C 21.200 292.040,21.380 292.400,21.600 292.400 C 21.820 292.400,22.000 292.760,22.000 293.200 C 22.000 293.640,22.180 294.000,22.400 294.000 C 22.620 294.000,22.800 294.360,22.800 294.800 C 22.800 295.240,22.980 295.600,23.200 295.600 C 23.420 295.600,23.600 295.960,23.600 296.400 C 23.600 296.840,23.780 297.200,24.000 297.200 C 24.220 297.200,24.400 297.520,24.400 297.912 C 24.400 298.303,24.760 298.883,25.200 299.200 C 25.640 299.517,26.000 300.097,26.000 300.488 C 26.000 300.880,26.180 301.200,26.400 301.200 C 26.620 301.200,26.800 301.560,26.800 302.000 C 26.800 302.440,26.980 302.800,27.200 302.800 C 27.420 302.800,27.600 303.036,27.600 303.325 C 27.600 303.613,27.960 304.236,28.400 304.708 C 28.840 305.180,29.200 305.804,29.200 306.095 C 29.200 306.386,29.560 306.883,30.000 307.200 C 30.440 307.517,30.800 308.057,30.800 308.400 C 30.800 308.743,31.160 309.283,31.600 309.600 C 32.040 309.917,32.400 310.497,32.400 310.888 C 32.400 311.280,32.550 311.600,32.732 311.600 C 32.915 311.600,33.319 312.095,33.630 312.700 C 33.940 313.305,34.511 314.091,34.897 314.447 C 35.284 314.803,35.600 315.348,35.600 315.659 C 35.600 315.969,35.960 316.483,36.400 316.800 C 36.840 317.117,37.200 317.580,37.200 317.829 C 37.200 318.078,37.740 318.846,38.400 319.537 C 39.060 320.228,39.600 320.953,39.600 321.148 C 39.600 321.344,40.320 322.245,41.200 323.152 C 42.080 324.059,42.800 324.995,42.800 325.232 C 42.800 325.469,43.520 326.354,44.400 327.200 C 45.280 328.046,46.000 328.916,46.000 329.134 C 46.000 329.352,47.035 330.587,48.300 331.879 C 49.565 333.171,51.128 334.928,51.773 335.783 C 53.293 337.798,62.202 346.707,64.217 348.227 C 65.072 348.872,66.829 350.435,68.121 351.700 C 69.413 352.965,70.648 354.000,70.866 354.000 C 71.084 354.000,71.954 354.720,72.800 355.600 C 73.646 356.480,74.531 357.200,74.768 357.200 C 75.005 357.200,75.941 357.920,76.848 358.800 C 77.755 359.680,78.656 360.400,78.852 360.400 C 79.047 360.400,79.772 360.940,80.463 361.600 C 81.154 362.260,81.922 362.800,82.171 362.800 C 82.420 362.800,82.883 363.160,83.200 363.600 C 83.517 364.040,84.031 364.400,84.341 364.400 C 84.652 364.400,85.197 364.716,85.553 365.103 C 85.909 365.489,86.695 366.060,87.300 366.370 C 87.905 366.681,88.400 367.085,88.400 367.268 C 88.400 367.450,88.720 367.600,89.112 367.600 C 89.503 367.600,90.083 367.960,90.400 368.400 C 90.717 368.840,91.257 369.200,91.600 369.200 C 91.943 369.200,92.483 369.560,92.800 370.000 C 93.117 370.440,93.614 370.800,93.905 370.800 C 94.196 370.800,94.820 371.160,95.292 371.600 C 95.764 372.040,96.387 372.400,96.675 372.400 C 96.964 372.400,97.200 372.580,97.200 372.800 C 97.200 373.020,97.560 373.200,98.000 373.200 C 98.440 373.200,98.800 373.380,98.800 373.600 C 98.800 373.820,99.120 374.000,99.512 374.000 C 99.903 374.000,100.483 374.360,100.800 374.800 C 101.117 375.240,101.697 375.600,102.088 375.600 C 102.480 375.600,102.800 375.780,102.800 376.000 C 102.800 376.220,103.160 376.400,103.600 376.400 C 104.040 376.400,104.400 376.580,104.400 376.800 C 104.400 377.020,104.760 377.200,105.200 377.200 C 105.640 377.200,106.000 377.380,106.000 377.600 C 106.000 377.820,106.360 378.000,106.800 378.000 C 107.240 378.000,107.600 378.180,107.600 378.400 C 107.600 378.620,107.960 378.800,108.400 378.800 C 108.840 378.800,109.200 378.980,109.200 379.200 C 109.200 379.420,109.560 379.600,110.000 379.600 C 110.440 379.600,110.800 379.780,110.800 380.000 C 110.800 380.220,111.160 380.400,111.600 380.400 C 112.040 380.400,112.400 380.580,112.400 380.800 C 112.400 381.020,112.760 381.200,113.200 381.200 C 113.640 381.200,114.000 381.380,114.000 381.600 C 114.000 381.820,114.360 382.000,114.800 382.000 C 115.240 382.000,115.600 382.180,115.600 382.400 C 115.600 382.620,115.960 382.800,116.400 382.800 C 116.840 382.800,117.200 382.980,117.200 383.200 C 117.200 383.420,117.549 383.600,117.976 383.600 C 118.403 383.600,118.864 383.780,119.000 384.000 C 119.136 384.220,119.687 384.400,120.224 384.400 C 120.761 384.400,121.200 384.580,121.200 384.800 C 121.200 385.020,121.560 385.200,122.000 385.200 C 122.440 385.200,122.800 385.380,122.800 385.600 C 122.800 385.820,123.340 386.000,124.000 386.000 C 124.660 386.000,125.200 386.180,125.200 386.400 C 125.200 386.620,125.560 386.800,126.000 386.800 C 126.440 386.800,126.800 386.980,126.800 387.200 C 126.800 387.420,127.340 387.600,128.000 387.600 C 128.660 387.600,129.200 387.780,129.200 388.000 C 129.200 388.220,129.560 388.400,130.000 388.400 C 130.440 388.400,130.800 388.580,130.800 388.800 C 130.800 389.020,131.340 389.200,132.000 389.200 C 132.660 389.200,133.200 389.380,133.200 389.600 C 133.200 389.820,133.740 390.000,134.400 390.000 C 135.060 390.000,135.600 390.180,135.600 390.400 C 135.600 390.620,136.140 390.800,136.800 390.800 C 137.460 390.800,138.000 390.980,138.000 391.200 C 138.000 391.420,138.540 391.600,139.200 391.600 C 139.860 391.600,140.400 391.780,140.400 392.000 C 140.400 392.220,141.120 392.400,142.000 392.400 C 142.880 392.400,143.600 392.580,143.600 392.800 C 143.600 393.020,144.129 393.200,144.776 393.200 C 145.423 393.200,146.064 393.380,146.200 393.600 C 146.336 393.820,147.067 394.000,147.824 394.000 C 148.581 394.000,149.200 394.180,149.200 394.400 C 149.200 394.620,149.920 394.800,150.800 394.800 C 151.680 394.800,152.400 394.980,152.400 395.200 C 152.400 395.420,153.109 395.600,153.976 395.600 C 154.843 395.600,155.664 395.780,155.800 396.000 C 155.936 396.220,156.847 396.400,157.824 396.400 C 158.801 396.400,159.600 396.580,159.600 396.800 C 159.600 397.020,160.579 397.200,161.776 397.200 C 162.973 397.200,164.064 397.380,164.200 397.600 C 164.336 397.820,165.337 398.000,166.424 398.000 C 167.511 398.000,168.400 398.180,168.400 398.400 C 168.400 398.633,169.722 398.800,171.567 398.800 C 173.744 398.800,174.785 398.956,174.900 399.300 C 175.144 400.032,224.856 400.032,225.100 399.300 C 225.215 398.956,226.256 398.800,228.433 398.800 C 230.278 398.800,231.600 398.633,231.600 398.400 C 231.600 398.180,232.489 398.000,233.576 398.000 C 234.663 398.000,235.664 397.820,235.800 397.600 C 235.936 397.380,237.027 397.200,238.224 397.200 C 239.421 397.200,240.400 397.020,240.400 396.800 C 240.400 396.580,241.199 396.400,242.176 396.400 C 243.153 396.400,244.064 396.220,244.200 396.000 C 244.336 395.780,245.157 395.600,246.024 395.600 C 246.891 395.600,247.600 395.420,247.600 395.200 C 247.600 394.980,248.320 394.800,249.200 394.800 C 250.080 394.800,250.800 394.620,250.800 394.400 C 250.800 394.180,251.419 394.000,252.176 394.000 C 252.933 394.000,253.664 393.820,253.800 393.600 C 253.936 393.380,254.577 393.200,255.224 393.200 C 255.871 393.200,256.400 393.020,256.400 392.800 C 256.400 392.580,257.120 392.400,258.000 392.400 C 258.880 392.400,259.600 392.220,259.600 392.000 C 259.600 391.780,260.140 391.600,260.800 391.600 C 261.460 391.600,262.000 391.420,262.000 391.200 C 262.000 390.980,262.540 390.800,263.200 390.800 C 263.860 390.800,264.400 390.620,264.400 390.400 C 264.400 390.180,264.940 390.000,265.600 390.000 C 266.260 390.000,266.800 389.820,266.800 389.600 C 266.800 389.380,267.340 389.200,268.000 389.200 C 268.660 389.200,269.200 389.020,269.200 388.800 C 269.200 388.580,269.560 388.400,270.000 388.400 C 270.440 388.400,270.800 388.220,270.800 388.000 C 270.800 387.780,271.340 387.600,272.000 387.600 C 272.660 387.600,273.200 387.420,273.200 387.200 C 273.200 386.980,273.560 386.800,274.000 386.800 C 274.440 386.800,274.800 386.620,274.800 386.400 C 274.800 386.180,275.340 386.000,276.000 386.000 C 276.660 386.000,277.200 385.820,277.200 385.600 C 277.200 385.380,277.560 385.200,278.000 385.200 C 278.440 385.200,278.800 385.020,278.800 384.800 C 278.800 384.580,279.239 384.400,279.776 384.400 C 280.313 384.400,280.864 384.220,281.000 384.000 C 281.136 383.780,281.597 383.600,282.024 383.600 C 282.451 383.600,282.800 383.420,282.800 383.200 C 282.800 382.980,283.160 382.800,283.600 382.800 C 284.040 382.800,284.400 382.620,284.400 382.400 C 284.400 382.180,284.760 382.000,285.200 382.000 C 285.640 382.000,286.000 381.820,286.000 381.600 C 286.000 381.380,286.360 381.200,286.800 381.200 C 287.240 381.200,287.600 381.020,287.600 380.800 C 287.600 380.580,287.960 380.400,288.400 380.400 C 288.840 380.400,289.200 380.220,289.200 380.000 C 289.200 379.780,289.560 379.600,290.000 379.600 C 290.440 379.600,290.800 379.420,290.800 379.200 C 290.800 378.980,291.160 378.800,291.600 378.800 C 292.040 378.800,292.400 378.620,292.400 378.400 C 292.400 378.180,292.760 378.000,293.200 378.000 C 293.640 378.000,294.000 377.820,294.000 377.600 C 294.000 377.380,294.360 377.200,294.800 377.200 C 295.240 377.200,295.600 377.020,295.600 376.800 C 295.600 376.580,295.960 376.400,296.400 376.400 C 296.840 376.400,297.200 376.220,297.200 376.000 C 297.200 375.780,297.520 375.600,297.912 375.600 C 298.303 375.600,298.883 375.240,299.200 374.800 C 299.517 374.360,300.097 374.000,300.488 374.000 C 300.880 374.000,301.200 373.820,301.200 373.600 C 301.200 373.380,301.560 373.200,302.000 373.200 C 302.440 373.200,302.800 373.020,302.800 372.800 C 302.800 372.580,303.036 372.400,303.325 372.400 C 303.613 372.400,304.236 372.040,304.708 371.600 C 305.180 371.160,305.804 370.800,306.095 370.800 C 306.386 370.800,306.883 370.440,307.200 370.000 C 307.517 369.560,308.057 369.200,308.400 369.200 C 308.743 369.200,309.283 368.840,309.600 368.400 C 309.917 367.960,310.497 367.600,310.888 367.600 C 311.280 367.600,311.600 367.450,311.600 367.268 C 311.600 367.085,312.095 366.681,312.700 366.370 C 313.305 366.060,314.091 365.489,314.447 365.103 C 314.803 364.716,315.348 364.400,315.659 364.400 C 315.969 364.400,316.483 364.040,316.800 363.600 C 317.117 363.160,317.580 362.800,317.829 362.800 C 318.078 362.800,318.846 362.260,319.537 361.600 C 320.228 360.940,320.953 360.400,321.148 360.400 C 321.344 360.400,322.245 359.680,323.152 358.800 C 324.059 357.920,324.995 357.200,325.232 357.200 C 325.469 357.200,326.354 356.480,327.200 355.600 C 328.046 354.720,328.916 354.000,329.134 354.000 C 329.352 354.000,330.587 352.965,331.879 351.700 C 333.171 350.435,334.928 348.872,335.783 348.227 C 337.798 346.707,346.707 337.798,348.227 335.783 C 348.872 334.928,350.435 333.171,351.700 331.879 C 352.965 330.587,354.000 329.352,354.000 329.134 C 354.000 328.916,354.720 328.046,355.600 327.200 C 356.480 326.354,357.200 325.469,357.200 325.232 C 357.200 324.995,357.920 324.059,358.800 323.152 C 359.680 322.245,360.400 321.344,360.400 321.148 C 360.400 320.953,360.940 320.228,361.600 319.537 C 362.260 318.846,362.800 318.078,362.800 317.829 C 362.800 317.580,363.160 317.117,363.600 316.800 C 364.040 316.483,364.400 315.969,364.400 315.659 C 364.400 315.348,364.716 314.803,365.103 314.447 C 365.489 314.091,366.060 313.305,366.370 312.700 C 366.681 312.095,367.085 311.600,367.268 311.600 C 367.450 311.600,367.600 311.280,367.600 310.888 C 367.600 310.497,367.960 309.917,368.400 309.600 C 368.840 309.283,369.200 308.743,369.200 308.400 C 369.200 308.057,369.560 307.517,370.000 307.200 C 370.440 306.883,370.800 306.386,370.800 306.095 C 370.800 305.804,371.160 305.180,371.600 304.708 C 372.040 304.236,372.400 303.613,372.400 303.325 C 372.400 303.036,372.580 302.800,372.800 302.800 C 373.020 302.800,373.200 302.440,373.200 302.000 C 373.200 301.560,373.380 301.200,373.600 301.200 C 373.820 301.200,374.000 300.880,374.000 300.488 C 374.000 300.097,374.360 299.517,374.800 299.200 C 375.240 298.883,375.600 298.303,375.600 297.912 C 375.600 297.520,375.780 297.200,376.000 297.200 C 376.220 297.200,376.400 296.840,376.400 296.400 C 376.400 295.960,376.580 295.600,376.800 295.600 C 377.020 295.600,377.200 295.240,377.200 294.800 C 377.200 294.360,377.380 294.000,377.600 294.000 C 377.820 294.000,378.000 293.640,378.000 293.200 C 378.000 292.760,378.180 292.400,378.400 292.400 C 378.620 292.400,378.800 292.040,378.800 291.600 C 378.800 291.160,378.980 290.800,379.200 290.800 C 379.420 290.800,379.600 290.440,379.600 290.000 C 379.600 289.560,379.780 289.200,380.000 289.200 C 380.220 289.200,380.400 288.840,380.400 288.400 C 380.400 287.960,380.580 287.600,380.800 287.600 C 381.020 287.600,381.200 287.240,381.200 286.800 C 381.200 286.360,381.380 286.000,381.600 286.000 C 381.820 286.000,382.000 285.640,382.000 285.200 C 382.000 284.760,382.180 284.400,382.400 284.400 C 382.620 284.400,382.800 284.040,382.800 283.600 C 382.800 283.160,382.980 282.800,383.200 282.800 C 383.420 282.800,383.600 282.451,383.600 282.024 C 383.600 281.597,383.780 281.136,384.000 281.000 C 384.220 280.864,384.400 280.313,384.400 279.776 C 384.400 279.239,384.580 278.800,384.800 278.800 C 385.020 278.800,385.200 278.440,385.200 278.000 C 385.200 277.560,385.380 277.200,385.600 277.200 C 385.820 277.200,386.000 276.660,386.000 276.000 C 386.000 275.340,386.180 274.800,386.400 274.800 C 386.620 274.800,386.800 274.440,386.800 274.000 C 386.800 273.560,386.980 273.200,387.200 273.200 C 387.420 273.200,387.600 272.660,387.600 272.000 C 387.600 271.340,387.780 270.800,388.000 270.800 C 388.220 270.800,388.400 270.440,388.400 270.000 C 388.400 269.560,388.580 269.200,388.800 269.200 C 389.020 269.200,389.200 268.660,389.200 268.000 C 389.200 267.340,389.380 266.800,389.600 266.800 C 389.820 266.800,390.000 266.260,390.000 265.600 C 390.000 264.940,390.180 264.400,390.400 264.400 C 390.620 264.400,390.800 263.860,390.800 263.200 C 390.800 262.540,390.980 262.000,391.200 262.000 C 391.420 262.000,391.600 261.460,391.600 260.800 C 391.600 260.140,391.780 259.600,392.000 259.600 C 392.220 259.600,392.400 258.880,392.400 258.000 C 392.400 257.120,392.580 256.400,392.800 256.400 C 393.020 256.400,393.200 255.871,393.200 255.224 C 393.200 254.577,393.380 253.936,393.600 253.800 C 393.820 253.664,394.000 252.933,394.000 252.176 C 394.000 251.419,394.180 250.800,394.400 250.800 C 394.620 250.800,394.800 250.080,394.800 249.200 C 394.800 248.320,394.980 247.600,395.200 247.600 C 395.420 247.600,395.600 246.891,395.600 246.024 C 395.600 245.157,395.780 244.336,396.000 244.200 C 396.220 244.064,396.400 243.153,396.400 242.176 C 396.400 241.199,396.580 240.400,396.800 240.400 C 397.020 240.400,397.200 239.421,397.200 238.224 C 397.200 237.027,397.380 235.936,397.600 235.800 C 397.820 235.664,398.000 234.663,398.000 233.576 C 398.000 232.489,398.180 231.600,398.400 231.600 C 398.633 231.600,398.800 230.278,398.800 228.433 C 398.800 226.256,398.956 225.215,399.300 225.100 C 399.693 224.969,399.800 219.591,399.800 200.000 C 399.800 180.409,399.693 175.031,399.300 174.900 C 398.956 174.785,398.800 173.744,398.800 171.567 C 398.800 169.722,398.633 168.400,398.400 168.400 C 398.180 168.400,398.000 167.511,398.000 166.424 C 398.000 165.337,397.820 164.336,397.600 164.200 C 397.380 164.064,397.200 162.973,397.200 161.776 C 397.200 160.579,397.020 159.600,396.800 159.600 C 396.580 159.600,396.400 158.801,396.400 157.824 C 396.400 156.847,396.220 155.936,396.000 155.800 C 395.780 155.664,395.600 154.843,395.600 153.976 C 395.600 153.109,395.420 152.400,395.200 152.400 C 394.980 152.400,394.800 151.680,394.800 150.800 C 394.800 149.920,394.620 149.200,394.400 149.200 C 394.180 149.200,394.000 148.581,394.000 147.824 C 394.000 147.067,393.820 146.336,393.600 146.200 C 393.380 146.064,393.200 145.423,393.200 144.776 C 393.200 144.129,393.020 143.600,392.800 143.600 C 392.580 143.600,392.400 142.880,392.400 142.000 C 392.400 141.120,392.220 140.400,392.000 140.400 C 391.780 140.400,391.600 139.860,391.600 139.200 C 391.600 138.540,391.420 138.000,391.200 138.000 C 390.980 138.000,390.800 137.460,390.800 136.800 C 390.800 136.140,390.620 135.600,390.400 135.600 C 390.180 135.600,390.000 135.060,390.000 134.400 C 390.000 133.740,389.820 133.200,389.600 133.200 C 389.380 133.200,389.200 132.660,389.200 132.000 C 389.200 131.340,389.020 130.800,388.800 130.800 C 388.580 130.800,388.400 130.440,388.400 130.000 C 388.400 129.560,388.220 129.200,388.000 129.200 C 387.780 129.200,387.600 128.660,387.600 128.000 C 387.600 127.340,387.420 126.800,387.200 126.800 C 386.980 126.800,386.800 126.440,386.800 126.000 C 386.800 125.560,386.620 125.200,386.400 125.200 C 386.180 125.200,386.000 124.660,386.000 124.000 C 386.000 123.340,385.820 122.800,385.600 122.800 C 385.380 122.800,385.200 122.440,385.200 122.000 C 385.200 121.560,385.020 121.200,384.800 121.200 C 384.580 121.200,384.400 120.761,384.400 120.224 C 384.400 119.687,384.220 119.136,384.000 119.000 C 383.780 118.864,383.600 118.403,383.600 117.976 C 383.600 117.549,383.420 117.200,383.200 117.200 C 382.980 117.200,382.800 116.840,382.800 116.400 C 382.800 115.960,382.620 115.600,382.400 115.600 C 382.180 115.600,382.000 115.240,382.000 114.800 C 382.000 114.360,381.820 114.000,381.600 114.000 C 381.380 114.000,381.200 113.640,381.200 113.200 C 381.200 112.760,381.020 112.400,380.800 112.400 C 380.580 112.400,380.400 112.040,380.400 111.600 C 380.400 111.160,380.220 110.800,380.000 110.800 C 379.780 110.800,379.600 110.440,379.600 110.000 C 379.600 109.560,379.420 109.200,379.200 109.200 C 378.980 109.200,378.800 108.840,378.800 108.400 C 378.800 107.960,378.620 107.600,378.400 107.600 C 378.180 107.600,378.000 107.240,378.000 106.800 C 378.000 106.360,377.820 106.000,377.600 106.000 C 377.380 106.000,377.200 105.640,377.200 105.200 C 377.200 104.760,377.020 104.400,376.800 104.400 C 376.580 104.400,376.400 104.040,376.400 103.600 C 376.400 103.160,376.220 102.800,376.000 102.800 C 375.780 102.800,375.600 102.480,375.600 102.088 C 375.600 101.697,375.240 101.117,374.800 100.800 C 374.360 100.483,374.000 99.903,374.000 99.512 C 374.000 99.120,373.820 98.800,373.600 98.800 C 373.380 98.800,373.200 98.440,373.200 98.000 C 373.200 97.560,373.020 97.200,372.800 97.200 C 372.580 97.200,372.400 96.964,372.400 96.675 C 372.400 96.387,372.040 95.764,371.600 95.292 C 371.160 94.820,370.800 94.196,370.800 93.905 C 370.800 93.614,370.440 93.117,370.000 92.800 C 369.560 92.483,369.200 91.943,369.200 91.600 C 369.200 91.257,368.840 90.717,368.400 90.400 C 367.960 90.083,367.600 89.503,367.600 89.112 C 367.600 88.720,367.450 88.400,367.268 88.400 C 367.085 88.400,366.681 87.905,366.370 87.300 C 366.060 86.695,365.489 85.909,365.103 85.553 C 364.716 85.197,364.400 84.652,364.400 84.341 C 364.400 84.031,364.040 83.517,363.600 83.200 C 363.160 82.883,362.800 82.420,362.800 82.171 C 362.800 81.922,362.260 81.154,361.600 80.463 C 360.940 79.772,360.400 79.047,360.400 78.852 C 360.400 78.656,359.680 77.755,358.800 76.848 C 357.920 75.941,357.200 75.005,357.200 74.768 C 357.200 74.531,356.480 73.646,355.600 72.800 C 354.720 71.954,354.000 71.084,354.000 70.866 C 354.000 70.648,352.965 69.413,351.700 68.121 C 350.435 66.829,348.872 65.072,348.227 64.217 C 346.707 62.202,337.798 53.293,335.783 51.773 C 334.928 51.128,333.171 49.565,331.879 48.300 C 330.587 47.035,329.352 46.000,329.134 46.000 C 328.916 46.000,328.046 45.280,327.200 44.400 C 326.354 43.520,325.469 42.800,325.232 42.800 C 324.995 42.800,324.059 42.080,323.152 41.200 C 322.245 40.320,321.344 39.600,321.148 39.600 C 320.953 39.600,320.228 39.060,319.537 38.400 C 318.846 37.740,318.078 37.200,317.829 37.200 C 317.580 37.200,317.117 36.840,316.800 36.400 C 316.483 35.960,315.969 35.600,315.659 35.600 C 315.348 35.600,314.803 35.284,314.447 34.897 C 314.091 34.511,313.305 33.940,312.700 33.630 C 312.095 33.319,311.600 32.915,311.600 32.732 C 311.600 32.550,311.280 32.400,310.888 32.400 C 310.497 32.400,309.917 32.040,309.600 31.600 C 309.283 31.160,308.743 30.800,308.400 30.800 C 308.057 30.800,307.517 30.440,307.200 30.000 C 306.883 29.560,306.386 29.200,306.095 29.200 C 305.804 29.200,305.180 28.840,304.708 28.400 C 304.236 27.960,303.613 27.600,303.325 27.600 C 303.036 27.600,302.800 27.420,302.800 27.200 C 302.800 26.980,302.440 26.800,302.000 26.800 C 301.560 26.800,301.200 26.620,301.200 26.400 C 301.200 26.180,300.880 26.000,300.488 26.000 C 300.097 26.000,299.517 25.640,299.200 25.200 C 298.883 24.760,298.303 24.400,297.912 24.400 C 297.520 24.400,297.200 24.220,297.200 24.000 C 297.200 23.780,296.840 23.600,296.400 23.600 C 295.960 23.600,295.600 23.420,295.600 23.200 C 295.600 22.980,295.240 22.800,294.800 22.800 C 294.360 22.800,294.000 22.620,294.000 22.400 C 294.000 22.180,293.640 22.000,293.200 22.000 C 292.760 22.000,292.400 21.820,292.400 21.600 C 292.400 21.380,292.040 21.200,291.600 21.200 C 291.160 21.200,290.800 21.020,290.800 20.800 C 290.800 20.580,290.440 20.400,290.000 20.400 C 289.560 20.400,289.200 20.220,289.200 20.000 C 289.200 19.780,288.840 19.600,288.400 19.600 C 287.960 19.600,287.600 19.420,287.600 19.200 C 287.600 18.980,287.240 18.800,286.800 18.800 C 286.360 18.800,286.000 18.620,286.000 18.400 C 286.000 18.180,285.640 18.000,285.200 18.000 C 284.760 18.000,284.400 17.820,284.400 17.600 C 284.400 17.380,284.040 17.200,283.600 17.200 C 283.160 17.200,282.800 17.020,282.800 16.800 C 282.800 16.580,282.451 16.400,282.024 16.400 C 281.597 16.400,281.136 16.220,281.000 16.000 C 280.864 15.780,280.313 15.600,279.776 15.600 C 279.239 15.600,278.800 15.420,278.800 15.200 C 278.800 14.980,278.440 14.800,278.000 14.800 C 277.560 14.800,277.200 14.620,277.200 14.400 C 277.200 14.180,276.660 14.000,276.000 14.000 C 275.340 14.000,274.800 13.820,274.800 13.600 C 274.800 13.380,274.440 13.200,274.000 13.200 C 273.560 13.200,273.200 13.020,273.200 12.800 C 273.200 12.580,272.660 12.400,272.000 12.400 C 271.340 12.400,270.800 12.220,270.800 12.000 C 270.800 11.780,270.440 11.600,270.000 11.600 C 269.560 11.600,269.200 11.420,269.200 11.200 C 269.200 10.980,268.660 10.800,268.000 10.800 C 267.340 10.800,266.800 10.620,266.800 10.400 C 266.800 10.180,266.260 10.000,265.600 10.000 C 264.940 10.000,264.400 9.820,264.400 9.600 C 264.400 9.380,263.860 9.200,263.200 9.200 C 262.540 9.200,262.000 9.020,262.000 8.800 C 262.000 8.580,261.460 8.400,260.800 8.400 C 260.140 8.400,259.600 8.220,259.600 8.000 C 259.600 7.780,258.880 7.600,258.000 7.600 C 257.120 7.600,256.400 7.420,256.400 7.200 C 256.400 6.980,255.871 6.800,255.224 6.800 C 254.577 6.800,253.936 6.620,253.800 6.400 C 253.664 6.180,252.933 6.000,252.176 6.000 C 251.419 6.000,250.800 5.820,250.800 5.600 C 250.800 5.380,250.080 5.200,249.200 5.200 C 248.320 5.200,247.600 5.020,247.600 4.800 C 247.600 4.580,246.891 4.400,246.024 4.400 C 245.157 4.400,244.336 4.220,244.200 4.000 C 244.064 3.780,243.153 3.600,242.176 3.600 C 241.199 3.600,240.400 3.420,240.400 3.200 C 240.400 2.980,239.421 2.800,238.224 2.800 C 237.027 2.800,235.936 2.620,235.800 2.400 C 235.664 2.180,234.663 2.000,233.576 2.000 C 232.489 2.000,231.600 1.820,231.600 1.600 C 231.600 1.367,230.278 1.200,228.433 1.200 C 226.304 1.200,225.214 1.041,225.105 0.714 C 224.944 0.233,187.802 -0.118,178.500 0.274 M246.227 171.616 C 255.672 173.272,258.752 176.366,259.621 185.071 C 260.296 191.828,261.091 191.236,251.509 191.108 L 243.400 191.000 243.283 187.413 C 243.153 183.428,242.644 182.400,240.800 182.400 C 238.349 182.400,237.234 187.385,238.945 190.693 C 239.482 191.731,245.626 196.000,246.583 196.000 C 248.000 196.000,256.722 202.548,258.412 204.880 C 260.980 208.425,262.039 219.622,260.283 224.655 C 256.247 236.218,228.550 236.619,223.632 225.186 C 222.610 222.811,221.912 217.678,222.080 213.783 L 222.200 211.000 230.200 211.000 L 238.200 211.000 238.400 216.336 C 238.588 221.341,238.659 221.720,239.544 222.436 C 242.489 224.818,244.842 221.528,244.193 215.937 C 243.808 212.619,242.562 211.336,235.929 207.426 C 225.391 201.213,224.495 200.510,222.716 197.047 C 219.455 190.702,220.585 179.656,224.893 175.763 C 229.038 172.019,238.278 170.223,246.227 171.616 M55.298 173.974 C 65.174 176.500,69.102 182.132,68.718 193.215 L 68.600 196.600 60.029 196.708 C 49.917 196.836,50.814 197.412,50.806 190.789 C 50.799 185.293,50.380 184.000,48.606 184.000 C 46.096 184.000,45.879 185.962,46.065 207.000 C 46.206 222.901,46.291 223.657,47.984 224.195 C 50.325 224.938,51.171 223.152,51.474 216.825 L 51.721 211.646 50.761 211.438 C 50.232 211.324,49.440 211.177,49.000 211.110 C 48.253 210.997,48.200 210.682,48.200 206.395 L 48.200 201.800 58.500 201.693 L 68.800 201.586 68.800 217.550 C 68.800 231.738,68.730 233.541,68.167 233.757 C 67.269 234.102,58.292 234.047,57.745 233.694 C 57.495 233.532,57.002 232.709,56.650 231.864 L 56.011 230.328 54.363 231.739 C 46.162 238.759,31.901 234.106,28.927 223.440 C 27.490 218.286,27.889 187.522,29.451 183.003 C 32.037 175.523,44.429 171.194,55.298 173.974 M283.920 177.680 C 284.192 177.952,284.400 179.253,284.400 180.680 L 284.400 183.200 286.600 183.200 L 288.800 183.200 288.800 187.200 L 288.800 191.200 286.600 191.200 L 284.400 191.200 284.400 206.924 C 284.400 224.341,284.330 223.879,287.000 224.080 L 288.600 224.200 288.714 228.089 L 288.829 231.978 287.757 232.247 C 286.069 232.670,274.355 232.138,272.381 231.549 C 266.989 229.937,266.747 228.994,266.447 208.400 L 266.200 191.400 264.700 191.276 L 263.200 191.152 263.200 187.200 L 263.200 183.248 264.700 183.124 L 266.200 183.000 266.318 180.326 C 266.411 178.205,266.577 177.615,267.118 177.472 C 268.793 177.032,283.453 177.213,283.920 177.680 M318.000 183.685 C 327.746 185.998,330.410 191.080,330.391 207.329 C 330.368 227.976,326.560 232.907,310.600 232.958 C 300.072 232.992,295.492 230.615,292.955 223.800 C 291.100 218.819,291.749 195.520,293.870 190.935 C 296.891 184.403,307.541 181.203,318.000 183.685 M368.581 183.992 C 374.397 186.485,375.200 189.461,375.200 208.538 C 375.200 223.718,374.991 225.924,373.316 228.455 C 369.715 233.896,359.005 234.808,352.949 230.188 C 352.236 229.645,351.551 229.200,351.427 229.200 C 351.302 229.200,351.200 231.450,351.200 234.200 L 351.200 239.200 342.800 239.200 L 334.400 239.200 334.400 211.647 L 334.400 184.093 335.300 183.852 C 335.795 183.719,339.463 183.608,343.451 183.605 C 351.020 183.600,351.956 183.806,351.364 185.349 C 350.786 186.855,351.552 187.394,352.712 186.299 C 356.189 183.016,363.741 181.917,368.581 183.992 M100.034 185.009 C 106.715 186.740,109.627 190.019,110.389 196.669 C 110.989 201.910,110.931 232.909,110.320 233.520 C 109.642 234.198,94.358 234.198,93.680 233.520 C 93.416 233.256,93.200 232.502,93.200 231.845 L 93.200 230.650 92.100 231.704 C 87.847 235.777,78.543 235.511,74.653 231.206 C 72.678 229.020,72.243 227.110,72.239 220.600 C 72.233 211.369,72.975 210.463,83.800 206.483 C 92.905 203.135,92.805 203.224,92.794 198.474 C 92.787 195.166,92.188 193.847,90.610 193.666 C 88.760 193.453,88.400 194.355,88.400 199.196 C 88.400 204.735,88.929 204.400,80.169 204.400 C 71.351 204.400,71.779 204.664,72.146 199.448 C 72.711 191.412,75.313 187.777,82.200 185.403 C 86.597 183.888,94.991 183.702,100.034 185.009 M145.349 184.604 C 147.856 185.257,150.700 186.994,151.682 188.472 L 152.296 189.398 154.178 187.663 C 160.239 182.076,170.517 183.309,173.557 189.988 C 174.432 191.909,174.771 233.118,173.917 233.660 C 173.038 234.218,159.053 234.075,158.283 233.500 C 157.675 233.046,157.603 231.208,157.507 213.685 C 157.391 192.712,157.477 193.459,155.209 193.696 C 153.262 193.900,153.212 194.419,153.206 214.420 C 153.201 228.362,153.079 233.161,152.720 233.520 C 152.213 234.027,138.284 234.237,137.033 233.757 C 136.469 233.541,136.397 231.540,136.377 215.457 C 136.349 193.515,136.286 193.040,133.506 193.738 C 131.872 194.148,131.840 194.502,131.685 214.396 C 131.577 228.339,131.413 233.471,131.069 233.690 C 130.511 234.044,116.598 234.096,115.300 233.748 L 114.400 233.507 114.400 209.602 C 114.400 189.784,114.494 185.620,114.951 185.241 C 115.335 184.922,117.978 184.816,123.651 184.892 L 131.800 185.000 131.924 186.500 C 132.072 188.287,132.128 188.300,133.742 186.939 C 136.822 184.342,141.066 183.488,145.349 184.604 M206.000 185.223 C 214.507 188.004,217.118 192.233,217.493 203.840 L 217.701 210.280 216.750 210.535 C 216.228 210.675,211.435 210.792,206.100 210.795 L 196.400 210.800 196.400 217.226 C 196.400 224.474,196.597 225.200,198.565 225.200 C 200.696 225.200,200.983 224.492,201.140 218.839 C 201.217 216.067,201.464 213.575,201.689 213.300 C 202.119 212.774,215.672 212.546,216.967 213.043 C 218.698 213.707,217.422 224.171,215.220 227.371 C 207.836 238.103,185.578 237.008,180.529 225.665 C 177.905 219.769,178.279 196.201,181.069 191.690 C 185.162 185.070,196.518 182.124,206.000 185.223 M309.549 192.661 C 308.764 193.605,308.545 221.311,309.310 222.800 C 310.153 224.440,312.438 224.231,312.894 222.471 C 313.538 219.985,313.092 192.828,312.400 192.391 C 311.473 191.806,310.156 191.931,309.549 192.661 M351.949 192.661 C 351.167 193.603,350.945 221.308,351.707 222.800 C 352.429 224.212,354.543 224.404,355.273 223.123 C 356.028 221.801,356.039 194.219,355.286 192.900 C 354.666 191.815,352.765 191.678,351.949 192.661 M196.880 194.080 C 196.575 194.385,196.400 195.920,196.400 198.280 L 196.400 202.000 198.455 202.000 L 200.511 202.000 200.297 198.500 C 200.006 193.720,198.800 192.160,196.880 194.080 M90.675 213.123 C 87.489 216.386,87.429 224.772,90.590 225.134 C 92.564 225.361,92.800 224.568,92.800 217.724 C 92.800 210.968,92.793 210.954,90.675 213.123 " stroke="none" fill="#fbfbfb" fill-rule="evenodd"></path><path id="path3" d="M42.200 174.008 C 41.692 174.231,42.276 174.274,43.800 174.124 C 45.120 173.995,46.275 173.824,46.367 173.744 C 46.721 173.437,42.957 173.675,42.200 174.008 M49.633 173.747 C 49.725 173.828,50.970 173.997,52.400 174.123 C 54.030 174.266,54.627 174.226,54.000 174.016 C 53.020 173.686,49.305 173.458,49.633 173.747 M39.200 174.800 C 38.667 175.145,38.667 175.188,39.200 175.188 C 39.530 175.188,40.070 175.013,40.400 174.800 C 40.933 174.455,40.933 174.412,40.400 174.412 C 40.070 174.412,39.530 174.587,39.200 174.800 M56.000 174.800 C 56.330 175.013,56.870 175.188,57.200 175.188 C 57.733 175.188,57.733 175.145,57.200 174.800 C 56.870 174.587,56.330 174.412,56.000 174.412 C 55.467 174.412,55.467 174.455,56.000 174.800 M59.950 176.399 C 61.132 177.051,62.347 177.790,62.650 178.041 C 62.967 178.305,63.200 178.332,63.200 178.105 C 63.200 177.714,58.802 175.193,58.144 175.207 C 57.955 175.211,58.767 175.748,59.950 176.399 M34.200 177.513 C 32.101 179.097,29.577 182.430,29.633 183.545 C 29.651 183.905,29.932 183.588,30.259 182.839 C 31.202 180.675,32.709 178.942,34.831 177.580 C 35.914 176.885,36.800 176.245,36.800 176.158 C 36.800 175.733,36.023 176.137,34.200 177.513 M64.270 179.212 C 64.749 179.755,65.602 181.010,66.165 182.000 C 66.729 182.990,67.193 183.610,67.195 183.378 C 67.202 182.740,65.042 179.480,64.168 178.812 C 63.560 178.346,63.581 178.429,64.270 179.212 M46.429 184.254 C 45.907 184.918,45.616 185.843,45.644 186.754 C 45.687 188.190,45.690 188.187,46.039 186.400 C 46.647 183.288,49.301 182.494,50.722 185.000 C 51.102 185.671,51.178 185.690,51.188 185.123 C 51.222 183.222,47.741 182.587,46.429 184.254 M67.268 184.600 C 67.274 185.040,67.424 185.850,67.600 186.400 L 67.920 187.400 67.932 186.400 C 67.938 185.850,67.789 185.040,67.600 184.600 L 67.256 183.800 67.268 184.600 M89.712 184.695 C 90.764 184.777,92.384 184.776,93.312 184.692 C 94.240 184.608,93.380 184.541,91.400 184.542 C 89.420 184.543,88.660 184.612,89.712 184.695 M141.105 184.683 C 141.602 184.779,142.322 184.775,142.705 184.675 C 143.087 184.575,142.680 184.496,141.800 184.501 C 140.920 184.505,140.607 184.587,141.105 184.683 M162.505 184.687 C 163.114 184.779,164.014 184.777,164.505 184.682 C 164.997 184.587,164.500 184.511,163.400 184.514 C 162.300 184.517,161.897 184.595,162.505 184.687 M196.311 184.693 C 197.251 184.778,198.691 184.777,199.511 184.691 C 200.330 184.605,199.560 184.536,197.800 184.537 C 196.040 184.539,195.370 184.609,196.311 184.693 M29.089 185.600 C 28.936 186.150,28.828 187.230,28.849 188.000 C 28.886 189.346,28.901 189.331,29.247 187.600 C 29.651 185.577,29.528 184.023,29.089 185.600 M84.000 185.221 C 83.570 185.514,83.854 185.554,85.000 185.362 C 86.984 185.030,87.304 184.798,85.767 184.806 C 85.125 184.809,84.330 184.996,84.000 185.221 M97.400 185.200 C 98.060 185.368,98.960 185.514,99.400 185.525 L 100.200 185.544 99.400 185.200 C 98.960 185.011,98.060 184.865,97.400 184.875 L 96.200 184.895 97.400 185.200 M158.600 185.200 C 158.308 185.673,158.699 185.673,159.800 185.200 C 160.571 184.869,160.569 184.855,159.724 184.828 C 159.242 184.813,158.736 184.980,158.600 185.200 M191.000 185.219 C 190.442 185.471,190.685 185.507,191.800 185.338 C 192.680 185.204,193.475 185.028,193.567 184.947 C 193.910 184.644,191.768 184.871,191.000 185.219 M202.033 184.947 C 202.125 185.028,202.920 185.214,203.800 185.362 C 204.946 185.554,205.230 185.514,204.800 185.221 C 204.260 184.853,201.632 184.593,202.033 184.947 M115.297 185.527 C 114.900 185.783,114.815 190.873,114.897 209.626 L 115.000 233.400 123.100 233.508 C 127.555 233.568,131.200 233.478,131.200 233.308 C 131.200 233.139,127.645 233.000,123.300 233.000 L 115.400 233.000 115.400 209.400 L 115.400 185.800 123.200 185.800 L 131.000 185.800 131.122 187.700 C 131.266 189.949,131.475 190.015,133.025 188.301 C 133.969 187.258,133.999 187.179,133.174 187.901 C 131.785 189.118,131.665 189.060,131.523 187.100 L 131.400 185.400 123.600 185.301 C 119.310 185.247,115.574 185.349,115.297 185.527 M102.386 186.481 C 103.816 187.030,105.304 188.052,106.686 189.434 C 107.849 190.597,108.800 191.394,108.800 191.205 C 108.800 189.845,102.750 185.566,100.904 185.621 C 100.517 185.632,101.184 186.019,102.386 186.481 M135.144 186.424 L 134.200 187.247 135.400 186.545 C 136.979 185.620,137.003 185.600,136.511 185.600 C 136.279 185.600,135.664 185.971,135.144 186.424 M148.011 186.259 C 148.555 186.622,149.765 187.649,150.699 188.541 L 152.398 190.164 153.899 188.721 C 154.725 187.928,156.030 186.901,156.800 186.441 C 157.622 185.949,157.924 185.602,157.532 185.601 C 157.165 185.601,155.840 186.536,154.588 187.681 L 152.311 189.761 151.256 188.537 C 150.175 187.284,147.935 185.600,147.349 185.600 C 147.169 185.600,147.467 185.897,148.011 186.259 M187.345 186.443 C 185.362 187.405,182.563 189.735,181.946 190.935 C 181.702 191.411,182.166 191.037,182.978 190.104 C 183.903 189.042,185.528 187.887,187.327 187.011 C 188.907 186.242,189.930 185.619,189.600 185.627 C 189.270 185.634,188.255 186.001,187.345 186.443 M78.800 187.241 C 76.945 188.352,74.866 190.343,74.166 191.680 C 73.184 193.554,73.552 193.433,74.794 191.473 C 75.558 190.270,76.880 189.014,78.456 187.995 C 81.008 186.346,81.276 185.759,78.800 187.241 M171.089 187.609 C 171.798 188.382,172.640 189.732,172.961 190.608 C 173.281 191.483,173.556 191.876,173.572 191.480 C 173.614 190.393,172.627 188.740,171.136 187.401 L 169.800 186.202 171.089 187.609 M210.260 187.941 C 211.571 188.788,213.219 190.264,213.922 191.220 C 214.625 192.175,215.200 192.775,215.200 192.551 C 215.200 191.331,209.636 186.400,208.260 186.400 C 208.049 186.400,208.949 187.093,210.260 187.941 M51.380 191.499 L 51.400 196.200 59.644 196.308 C 69.489 196.437,68.928 196.726,68.451 191.763 L 68.108 188.200 68.054 192.100 L 68.000 196.000 59.813 196.000 L 51.625 196.000 51.493 191.399 L 51.360 186.799 51.380 191.499 M88.700 193.357 C 88.315 193.649,88.000 194.133,88.000 194.433 C 88.000 194.746,88.266 194.599,88.623 194.089 C 89.417 192.954,91.222 192.920,92.218 194.020 C 93.337 195.256,93.340 201.938,92.222 203.174 C 91.605 203.857,91.579 203.983,92.094 203.785 C 94.153 202.995,94.082 194.314,92.009 193.205 C 90.975 192.652,89.542 192.717,88.700 193.357 M132.029 193.854 C 131.503 194.523,131.218 195.436,131.250 196.354 C 131.300 197.783,131.303 197.780,131.585 196.043 C 132.144 192.588,135.635 192.012,136.399 195.248 C 136.667 196.382,136.725 196.437,136.759 195.589 C 136.868 192.901,133.695 191.737,132.029 193.854 M153.600 193.600 C 153.160 194.040,152.814 194.715,152.832 195.100 C 152.851 195.541,153.012 195.392,153.265 194.699 C 153.745 193.386,155.223 192.900,156.697 193.571 C 157.618 193.991,157.677 193.974,157.218 193.422 C 156.496 192.551,154.553 192.647,153.600 193.600 M173.941 211.919 C 174.019 222.533,173.969 231.667,173.831 232.217 L 173.580 233.218 166.090 233.109 L 158.600 233.000 158.400 213.933 C 158.290 203.446,158.110 194.776,158.000 194.666 C 157.734 194.400,157.938 231.541,158.209 232.708 L 158.419 233.617 166.310 233.508 L 174.200 233.400 174.301 215.400 C 174.357 205.500,174.267 196.325,174.101 195.011 C 173.935 193.697,173.864 201.305,173.941 211.919 M196.480 193.280 C 196.216 193.544,196.000 193.917,196.000 194.109 C 196.000 194.300,196.283 194.174,196.629 193.829 C 197.908 192.549,199.823 193.164,200.383 195.034 C 200.635 195.878,200.741 195.976,200.766 195.389 C 200.853 193.327,197.891 191.869,196.480 193.280 M72.978 194.978 C 72.827 195.781,72.794 196.527,72.904 196.637 C 73.014 196.747,73.227 196.181,73.378 195.378 C 73.528 194.575,73.562 193.828,73.452 193.718 C 73.342 193.608,73.128 194.175,72.978 194.978 M180.273 194.153 C 180.123 194.545,180.011 195.166,180.025 195.533 C 180.042 195.975,180.181 195.874,180.437 195.234 C 180.649 194.703,180.761 194.082,180.685 193.854 C 180.609 193.627,180.424 193.761,180.273 194.153 M28.575 205.000 C 28.575 210.940,28.631 213.426,28.699 210.524 C 28.767 207.622,28.767 202.762,28.699 199.724 C 28.631 196.686,28.575 199.060,28.575 205.000 M109.912 201.400 C 110.020 205.140,110.174 208.275,110.254 208.367 C 110.543 208.697,110.346 197.761,110.035 196.200 C 109.854 195.291,109.801 197.539,109.912 201.400 M195.744 198.800 C 195.744 200.890,195.812 201.745,195.894 200.700 C 195.976 199.655,195.976 197.945,195.894 196.900 C 195.812 195.855,195.744 196.710,195.744 198.800 M216.056 195.800 C 216.056 196.240,216.211 196.960,216.400 197.400 L 216.744 198.200 216.744 197.400 C 216.744 196.960,216.589 196.240,216.400 195.800 L 216.056 195.000 216.056 195.800 M179.457 198.300 C 179.122 200.328,179.176 218.605,179.523 220.558 C 179.675 221.415,179.800 216.420,179.800 209.458 C 179.800 202.496,179.779 196.800,179.752 196.800 C 179.726 196.800,179.593 197.475,179.457 198.300 M87.600 200.600 L 87.600 203.600 80.219 203.600 L 72.838 203.600 72.691 201.300 L 72.543 199.000 72.571 201.400 L 72.600 203.800 80.300 203.909 L 88.000 204.017 88.000 200.809 C 88.000 199.044,87.910 197.600,87.800 197.600 C 87.690 197.600,87.600 198.950,87.600 200.600 M152.496 215.500 L 152.400 233.200 144.833 233.200 C 139.154 233.200,137.216 233.075,137.065 232.700 C 136.944 232.401,136.850 232.482,136.832 232.900 C 136.791 233.802,152.273 233.998,152.617 233.100 C 152.722 232.825,152.760 224.770,152.700 215.200 L 152.591 197.800 152.496 215.500 M216.793 204.600 L 216.600 209.800 206.200 210.000 L 195.800 210.200 195.785 216.700 L 195.769 223.201 195.895 216.800 L 196.020 210.400 206.422 210.400 C 214.611 210.400,216.868 210.289,217.025 209.878 C 217.136 209.591,217.172 207.116,217.106 204.378 L 216.986 199.400 216.793 204.600 M48.400 206.213 C 48.400 209.248,48.540 210.461,48.900 210.552 C 49.175 210.622,49.996 210.875,50.725 211.114 C 51.730 211.444,52.012 211.435,51.894 211.075 C 51.808 210.814,51.077 210.544,50.269 210.476 L 48.800 210.352 48.800 206.376 L 48.800 202.400 58.400 202.400 L 68.000 202.400 68.000 217.812 L 68.000 233.224 62.900 233.112 L 57.800 233.000 57.212 231.300 C 56.477 229.174,55.929 229.171,53.853 231.279 C 52.323 232.833,52.299 232.889,53.532 232.029 C 54.264 231.518,54.958 230.853,55.074 230.550 C 55.483 229.484,56.299 230.020,56.979 231.800 L 57.666 233.600 62.819 233.600 C 67.504 233.600,68.009 233.530,68.386 232.826 C 68.832 231.993,68.992 203.765,68.557 202.633 C 68.345 202.079,67.068 202.000,58.357 202.000 L 48.400 202.000 48.400 206.213 M197.100 202.682 C 197.595 202.778,198.405 202.778,198.900 202.682 C 199.395 202.587,198.990 202.509,198.000 202.509 C 197.010 202.509,196.605 202.587,197.100 202.682 M86.000 206.000 C 85.467 206.345,85.467 206.388,86.000 206.388 C 86.330 206.388,86.870 206.213,87.200 206.000 C 87.733 205.655,87.733 205.612,87.200 205.612 C 86.870 205.612,86.330 205.787,86.000 206.000 M80.800 207.878 C 80.030 208.214,78.970 208.655,78.445 208.856 C 77.919 209.058,77.568 209.301,77.664 209.397 C 77.822 209.555,82.767 207.717,83.167 207.352 C 83.566 206.988,82.081 207.317,80.800 207.878 M75.091 210.829 C 74.271 211.505,73.600 212.251,73.600 212.488 C 73.600 212.724,74.005 212.486,74.501 211.958 C 74.996 211.431,75.851 210.694,76.401 210.321 C 76.950 209.948,77.216 209.633,76.991 209.621 C 76.766 209.609,75.911 210.153,75.091 210.829 M90.287 212.500 C 88.645 214.031,87.563 216.096,88.114 216.647 C 88.229 216.763,88.447 216.295,88.598 215.609 C 88.886 214.296,91.874 211.090,92.586 211.330 C 92.848 211.419,93.000 213.813,93.000 217.874 C 93.000 224.962,92.817 225.566,90.651 225.646 C 89.914 225.674,89.701 225.770,90.132 225.882 C 92.961 226.613,93.600 224.966,93.600 216.940 C 93.600 209.789,93.434 209.567,90.287 212.500 M73.049 213.815 C 72.912 214.173,72.815 214.766,72.834 215.133 C 72.853 215.500,73.027 215.269,73.221 214.620 C 73.598 213.358,73.465 212.733,73.049 213.815 M201.769 213.735 C 201.656 214.030,201.626 215.695,201.702 217.435 L 201.839 220.600 201.920 217.091 L 202.000 213.582 209.300 213.691 L 216.600 213.800 216.823 217.600 L 217.047 221.400 217.123 217.543 C 217.187 214.347,217.091 213.644,216.567 213.443 C 215.189 212.914,201.984 213.175,201.769 213.735 M72.540 220.400 C 72.540 222.270,72.609 223.035,72.693 222.100 C 72.777 221.165,72.777 219.635,72.693 218.700 C 72.609 217.765,72.540 218.530,72.540 220.400 M28.828 220.833 C 28.844 221.585,29.012 222.560,29.203 223.000 C 29.426 223.515,29.467 223.087,29.318 221.800 C 29.044 219.422,28.789 218.919,28.828 220.833 M51.659 220.400 C 51.620 220.950,51.489 221.850,51.367 222.400 C 51.176 223.262,51.208 223.302,51.597 222.691 C 51.846 222.302,51.977 221.402,51.889 220.691 C 51.764 219.687,51.713 219.622,51.659 220.400 M45.640 221.326 C 45.581 222.992,46.663 224.775,47.744 224.794 C 47.934 224.797,47.711 224.485,47.249 224.100 C 46.787 223.715,46.245 222.680,46.045 221.800 C 45.739 220.456,45.674 220.380,45.640 221.326 M216.446 222.867 C 216.421 223.234,216.296 223.864,216.170 224.267 C 215.952 224.962,215.963 224.963,216.397 224.287 C 216.648 223.896,216.773 223.266,216.673 222.887 C 216.511 222.268,216.488 222.266,216.446 222.867 M180.028 223.476 C 180.013 223.958,180.180 224.464,180.400 224.600 C 180.873 224.892,180.873 224.501,180.400 223.400 C 180.069 222.629,180.055 222.631,180.028 223.476 M200.716 224.313 L 200.032 225.800 200.816 224.856 C 201.247 224.336,201.600 223.661,201.600 223.356 C 201.600 222.533,201.470 222.673,200.716 224.313 M88.032 223.851 C 88.014 224.319,88.299 224.949,88.665 225.251 C 89.260 225.742,89.287 225.715,88.920 225.000 C 88.693 224.560,88.408 223.930,88.286 223.600 C 88.133 223.188,88.053 223.267,88.032 223.851 M50.000 224.200 C 49.312 224.593,49.203 224.776,49.651 224.786 C 50.009 224.794,50.526 224.530,50.800 224.200 C 51.409 223.466,51.284 223.466,50.000 224.200 M29.632 224.320 C 29.596 224.898,30.707 227.200,31.021 227.200 C 31.131 227.200,30.971 226.705,30.665 226.100 C 30.360 225.495,30.009 224.730,29.886 224.400 C 29.736 223.997,29.653 223.971,29.632 224.320 M196.562 225.100 C 197.080 225.712,197.720 225.981,198.562 225.940 L 199.800 225.880 198.600 225.707 C 197.940 225.611,197.040 225.233,196.600 224.867 C 195.806 224.205,195.806 224.207,196.562 225.100 M180.801 225.422 C 180.807 226.914,184.451 230.760,186.988 231.952 C 189.617 233.188,189.745 232.975,187.211 231.579 C 184.502 230.086,183.407 229.097,181.944 226.822 C 181.315 225.844,180.801 225.214,180.801 225.422 M215.008 226.384 C 214.138 228.066,211.395 230.684,209.477 231.663 C 208.622 232.099,208.012 232.546,208.122 232.656 C 208.389 232.922,209.825 232.093,211.898 230.475 C 213.616 229.134,216.253 225.720,215.868 225.335 C 215.753 225.220,215.366 225.692,215.008 226.384 M72.834 226.600 C 72.822 227.040,72.987 227.670,73.200 228.000 C 73.714 228.795,73.714 227.796,73.200 226.600 L 72.856 225.800 72.834 226.600 M31.946 228.701 C 33.240 230.551,37.788 233.660,39.084 233.581 C 39.258 233.570,38.346 233.018,37.058 232.353 C 35.771 231.689,33.888 230.302,32.876 229.273 C 31.490 227.863,31.260 227.721,31.946 228.701 M73.600 228.945 C 73.600 230.235,77.717 233.625,79.235 233.585 C 79.546 233.577,78.851 233.112,77.691 232.550 C 76.398 231.925,75.198 230.965,74.591 230.072 C 74.046 229.270,73.600 228.763,73.600 228.945 M91.400 231.296 C 89.854 232.908,89.845 232.933,91.132 232.032 C 91.864 231.520,92.558 230.853,92.674 230.550 C 93.085 229.481,93.556 230.021,93.677 231.700 L 93.800 233.400 102.100 233.508 C 109.825 233.609,110.398 233.567,110.368 232.908 C 110.350 232.489,110.254 232.404,110.135 232.700 C 109.983 233.076,107.970 233.200,101.990 233.200 L 94.046 233.200 93.923 231.531 C 93.761 229.335,93.321 229.294,91.400 231.296 M190.200 233.200 C 190.640 233.389,191.360 233.544,191.800 233.544 L 192.600 233.544 191.800 233.200 C 191.360 233.011,190.640 232.856,190.200 232.856 L 189.400 232.856 190.200 233.200 M205.800 233.200 L 205.000 233.544 205.800 233.566 C 206.240 233.578,206.870 233.413,207.200 233.200 C 207.995 232.686,206.996 232.686,205.800 233.200 M40.200 234.000 C 40.640 234.189,41.360 234.338,41.800 234.332 C 42.443 234.323,42.404 234.257,41.600 234.000 C 40.232 233.562,39.181 233.562,40.200 234.000 M48.600 234.000 L 47.800 234.344 48.600 234.366 C 49.040 234.378,49.670 234.213,50.000 234.000 C 50.795 233.486,49.796 233.486,48.600 234.000 M80.715 234.072 C 81.092 234.221,82.480 234.344,83.800 234.344 C 85.120 234.344,86.508 234.221,86.885 234.072 C 87.262 233.922,85.874 233.800,83.800 233.800 C 81.726 233.800,80.338 233.922,80.715 234.072 M194.200 234.049 C 195.744 234.379,202.246 234.381,203.775 234.053 C 204.422 233.914,202.262 233.798,198.976 233.796 C 195.690 233.794,193.541 233.908,194.200 234.049 M44.100 234.676 C 44.485 234.776,45.115 234.776,45.500 234.676 C 45.885 234.575,45.570 234.493,44.800 234.493 C 44.030 234.493,43.715 234.575,44.100 234.676 " stroke="none" fill="#747474" fill-rule="evenodd"></path><path id="path4" d="M234.800 171.553 C 234.030 171.689,236.531 171.800,240.358 171.800 C 244.185 171.800,246.615 171.675,245.758 171.523 C 243.878 171.189,236.750 171.208,234.800 171.553 M231.000 172.400 L 230.200 172.744 231.000 172.744 C 231.440 172.744,232.160 172.589,232.600 172.400 L 233.400 172.056 232.600 172.056 C 232.160 172.056,231.440 172.211,231.000 172.400 M250.003 172.950 C 253.619 174.204,256.263 175.841,257.419 177.542 C 257.959 178.336,258.400 178.837,258.400 178.655 C 258.400 176.619,251.091 171.920,248.085 172.023 C 247.708 172.036,248.571 172.453,250.003 172.950 M227.347 173.985 C 225.332 175.141,222.380 178.130,222.421 178.972 C 222.433 179.207,222.748 178.953,223.121 178.406 C 224.486 176.408,225.848 175.181,228.000 174.011 C 229.210 173.353,230.020 172.813,229.800 172.811 C 229.580 172.809,228.476 173.337,227.347 173.985 M45.916 173.497 C 47.299 173.575,49.459 173.574,50.716 173.495 C 51.972 173.416,50.840 173.352,48.200 173.353 C 45.560 173.353,44.532 173.418,45.916 173.497 M40.800 174.000 C 39.996 174.257,39.957 174.323,40.600 174.332 C 41.040 174.338,41.760 174.189,42.200 174.000 C 43.219 173.562,42.168 173.562,40.800 174.000 M54.000 174.000 C 54.550 174.176,55.360 174.320,55.800 174.320 C 56.433 174.320,56.392 174.254,55.600 174.000 C 55.050 173.824,54.240 173.680,53.800 173.680 C 53.167 173.680,53.208 173.746,54.000 174.000 M37.639 175.022 C 36.891 175.347,36.365 175.699,36.471 175.805 C 36.577 175.910,37.369 175.645,38.232 175.214 C 40.063 174.301,39.627 174.159,37.639 175.022 M59.165 175.593 C 60.575 176.262,62.005 177.032,62.341 177.305 C 62.831 177.701,62.892 177.698,62.648 177.292 C 62.302 176.716,59.105 175.037,57.600 174.640 C 57.050 174.496,57.754 174.924,59.165 175.593 M275.600 177.587 L 283.800 177.800 284.029 180.600 L 284.259 183.400 284.329 180.780 C 284.430 177.065,284.739 177.186,275.420 177.287 L 267.400 177.375 275.600 177.587 M32.139 178.900 C 30.676 180.461,29.599 182.027,29.601 182.589 C 29.602 182.815,29.980 182.370,30.441 181.600 C 30.902 180.830,31.837 179.615,32.518 178.900 C 33.200 178.185,33.667 177.600,33.557 177.600 C 33.447 177.600,32.809 178.185,32.139 178.900 M63.200 177.660 C 63.200 177.775,63.904 178.610,64.764 179.514 C 65.625 180.419,66.711 182.113,67.178 183.279 C 67.645 184.446,67.919 184.860,67.787 184.200 C 67.392 182.238,63.200 176.261,63.200 177.660 M266.318 180.300 L 266.200 183.000 264.600 183.243 L 263.000 183.486 264.400 183.537 C 265.170 183.565,266.008 183.456,266.262 183.294 C 266.757 182.978,267.189 177.598,266.718 177.599 C 266.563 177.600,266.383 178.815,266.318 180.300 M258.446 179.600 C 258.465 179.930,258.624 180.650,258.800 181.200 L 259.120 182.200 259.154 181.200 C 259.173 180.650,259.013 179.930,258.800 179.600 C 258.455 179.067,258.416 179.067,258.446 179.600 M221.888 180.133 C 221.410 181.349,221.524 182.373,222.039 181.487 C 222.267 181.096,222.391 180.466,222.315 180.087 C 222.188 179.460,222.151 179.464,221.888 180.133 M240.800 182.291 C 241.350 182.391,242.115 182.754,242.500 183.098 C 242.911 183.466,243.200 183.539,243.200 183.276 C 243.200 182.658,241.844 181.989,240.726 182.054 C 239.835 182.107,239.837 182.116,240.800 182.291 M259.171 186.901 C 259.077 189.266,259.141 191.201,259.313 191.201 C 259.964 191.199,260.072 189.886,259.713 186.303 L 259.343 182.600 259.171 186.901 M309.700 183.087 C 310.305 183.178,311.295 183.178,311.900 183.087 C 312.505 182.995,312.010 182.920,310.800 182.920 C 309.590 182.920,309.095 182.995,309.700 183.087 M361.500 183.082 C 361.995 183.178,362.805 183.178,363.300 183.082 C 363.795 182.987,363.390 182.909,362.400 182.909 C 361.410 182.909,361.005 182.987,361.500 183.082 M29.000 184.400 C 28.848 185.091,28.814 185.747,28.924 185.857 C 29.034 185.967,29.248 185.491,29.400 184.800 C 29.552 184.109,29.586 183.453,29.476 183.343 C 29.366 183.233,29.152 183.709,29.000 184.400 M221.054 185.056 C 220.743 187.328,220.798 190.589,221.176 192.200 C 221.338 192.892,221.477 191.242,221.505 188.300 C 221.556 182.833,221.457 182.119,221.054 185.056 M286.700 183.493 L 288.400 183.646 288.400 187.202 L 288.400 190.758 286.300 190.879 L 284.200 191.000 284.089 206.600 C 283.978 222.168,284.055 224.000,284.822 224.000 C 285.094 224.000,285.092 223.745,284.814 223.226 C 284.549 222.731,284.400 216.833,284.400 206.826 L 284.400 191.200 286.600 191.200 L 288.800 191.200 288.800 187.200 L 288.800 183.200 286.900 183.270 L 285.000 183.340 286.700 183.493 M303.800 183.600 L 303.000 183.944 303.800 183.925 C 304.240 183.914,305.140 183.768,305.800 183.600 L 307.000 183.295 305.800 183.275 C 305.140 183.265,304.240 183.411,303.800 183.600 M315.400 183.600 C 316.060 183.768,317.050 183.909,317.600 183.913 L 318.600 183.920 317.600 183.600 C 317.050 183.424,316.060 183.283,315.400 183.287 L 314.200 183.295 315.400 183.600 M357.400 183.600 C 356.896 183.817,356.822 183.944,357.200 183.944 C 357.530 183.944,358.160 183.789,358.600 183.600 C 359.104 183.383,359.178 183.256,358.800 183.256 C 358.470 183.256,357.840 183.411,357.400 183.600 M366.200 183.600 C 367.396 184.114,368.395 184.114,367.600 183.600 C 367.270 183.387,366.640 183.222,366.200 183.234 L 365.400 183.256 366.200 183.600 M47.100 184.032 C 46.715 184.256,46.400 184.624,46.400 184.848 C 46.400 185.073,46.683 184.974,47.029 184.629 C 49.416 182.241,50.798 184.495,50.806 190.789 C 50.809 193.545,50.957 196.029,51.135 196.308 C 51.649 197.118,68.460 196.823,68.732 196.000 C 68.896 195.503,68.824 195.487,68.314 195.908 C 67.850 196.291,65.683 196.390,59.549 196.308 L 51.400 196.200 51.302 191.400 C 51.152 184.065,50.127 182.269,47.100 184.032 M343.000 183.896 C 349.565 183.994,350.668 184.101,351.100 184.681 C 351.375 185.051,351.600 185.175,351.600 184.956 C 351.600 183.756,350.549 183.601,343.020 183.691 L 335.400 183.781 343.000 183.896 M86.400 184.360 C 85.410 184.492,87.750 184.600,91.600 184.600 C 95.752 184.600,97.705 184.494,96.400 184.340 C 93.730 184.023,88.850 184.033,86.400 184.360 M139.200 184.382 C 137.154 184.805,135.172 185.734,133.742 186.939 C 132.128 188.300,132.072 188.287,131.924 186.500 L 131.800 185.000 123.651 184.892 C 117.978 184.816,115.335 184.922,114.951 185.241 C 114.343 185.745,114.095 233.600,114.700 233.600 C 114.865 233.600,114.952 222.804,114.894 209.609 L 114.788 185.618 115.694 185.395 C 116.192 185.273,119.930 185.224,124.000 185.286 L 131.400 185.400 131.523 187.100 C 131.671 189.146,131.646 189.142,133.733 187.442 C 136.414 185.257,138.144 184.690,142.200 184.663 C 144.436 184.649,145.345 184.537,144.600 184.367 C 143.042 184.013,140.954 184.019,139.200 184.382 M160.400 184.343 C 159.444 184.539,160.205 184.634,162.800 184.643 C 167.854 184.662,170.832 186.065,172.855 189.383 C 173.263 190.052,173.598 190.410,173.599 190.178 C 173.611 186.758,165.699 183.260,160.400 184.343 M193.400 184.357 C 192.520 184.491,194.590 184.601,198.000 184.602 C 201.799 184.604,203.426 184.501,202.200 184.337 C 199.785 184.015,195.589 184.024,193.400 184.357 M237.843 184.633 C 237.033 186.742,238.029 190.817,239.697 192.220 C 241.104 193.404,245.639 196.095,245.858 195.875 C 245.945 195.788,244.577 194.881,242.819 193.860 C 238.963 191.619,238.294 190.569,238.258 186.707 C 238.231 183.786,238.210 183.677,237.843 184.633 M243.254 187.276 C 243.225 189.188,243.340 190.839,243.511 190.945 C 243.683 191.051,243.764 189.847,243.693 188.269 C 243.493 183.848,243.315 183.443,243.254 187.276 M299.603 185.225 C 296.475 186.949,292.963 190.696,293.743 191.477 C 293.872 191.605,294.142 191.279,294.342 190.752 C 294.974 189.091,297.819 186.533,300.458 185.253 C 301.856 184.575,302.730 184.019,302.400 184.017 C 302.070 184.016,300.811 184.559,299.603 185.225 M321.400 185.390 C 324.676 186.982,325.887 187.973,327.406 190.308 C 328.017 191.248,328.598 191.935,328.697 191.836 C 329.847 190.686,321.617 183.949,319.142 184.014 C 318.844 184.022,319.860 184.641,321.400 185.390 M354.800 184.696 C 354.250 185.055,353.338 185.768,352.772 186.280 C 352.207 186.792,351.622 187.089,351.472 186.939 C 351.323 186.789,351.200 186.877,351.200 187.133 C 351.200 187.847,351.793 187.692,352.638 186.757 C 353.057 186.294,354.075 185.570,354.900 185.149 C 355.725 184.728,356.400 184.297,356.400 184.192 C 356.400 183.847,355.818 184.030,354.800 184.696 M368.600 184.400 C 368.736 184.620,369.084 184.800,369.373 184.800 C 370.218 184.800,373.050 188.134,373.587 189.760 C 373.858 190.582,374.162 191.171,374.263 191.070 C 374.540 190.793,373.332 188.095,372.404 186.915 C 371.075 185.225,367.752 183.028,368.600 184.400 M82.800 185.200 C 81.976 185.464,81.941 185.526,82.600 185.554 C 83.040 185.573,83.670 185.413,84.000 185.200 C 84.701 184.747,84.214 184.747,82.800 185.200 M99.400 185.200 C 99.840 185.389,100.560 185.538,101.000 185.532 C 101.643 185.523,101.604 185.457,100.800 185.200 C 99.432 184.762,98.381 184.762,99.400 185.200 M147.580 185.672 C 148.559 186.163,150.054 187.279,150.903 188.154 L 152.445 189.743 154.123 187.978 L 155.800 186.213 154.062 187.807 L 152.324 189.400 151.696 188.474 C 150.929 187.343,148.163 185.406,146.800 185.045 C 146.250 184.899,146.601 185.182,147.580 185.672 M189.800 185.200 C 189.296 185.417,189.222 185.544,189.600 185.544 C 189.930 185.544,190.560 185.389,191.000 185.200 C 191.504 184.983,191.578 184.856,191.200 184.856 C 190.870 184.856,190.240 185.011,189.800 185.200 M204.800 185.182 C 205.130 185.405,205.745 185.591,206.167 185.594 C 207.190 185.602,206.871 185.373,205.400 185.044 C 204.524 184.848,204.362 184.885,204.800 185.182 M45.854 187.456 C 45.529 189.828,45.611 219.813,45.947 221.376 C 46.086 222.023,46.200 214.238,46.200 204.076 C 46.200 193.914,46.179 185.600,46.154 185.600 C 46.129 185.600,45.994 186.435,45.854 187.456 M68.294 189.200 C 68.412 191.290,68.574 193.075,68.654 193.167 C 68.926 193.477,68.743 189.010,68.410 187.200 C 68.182 185.966,68.146 186.595,68.294 189.200 M80.100 186.196 C 79.385 186.507,78.800 186.856,78.800 186.972 C 78.800 187.219,80.826 186.396,81.380 185.924 C 81.905 185.476,81.614 185.538,80.100 186.196 M207.409 185.913 C 208.047 186.459,210.070 187.237,209.826 186.842 C 209.703 186.642,209.020 186.276,208.310 186.029 C 207.599 185.781,207.194 185.729,207.409 185.913 M185.400 187.153 C 183.175 188.542,179.398 193.531,180.065 194.198 C 180.155 194.289,180.653 193.468,181.172 192.376 C 182.064 190.497,183.767 188.645,186.004 187.121 C 187.360 186.197,186.891 186.221,185.400 187.153 M28.263 191.900 C 27.945 198.137,27.991 213.694,28.342 218.600 C 28.484 220.580,28.600 214.235,28.600 204.500 C 28.600 194.765,28.583 186.800,28.562 186.800 C 28.541 186.800,28.406 189.095,28.263 191.900 M76.131 188.900 C 74.362 190.524,72.804 193.120,72.830 194.400 C 72.836 194.730,73.202 194.063,73.642 192.918 C 74.188 191.497,75.084 190.259,76.465 189.018 C 77.577 188.018,78.373 187.200,78.234 187.200 C 78.096 187.200,77.149 187.965,76.131 188.900 M211.485 188.222 C 212.192 188.779,213.336 189.902,214.027 190.717 C 214.718 191.533,215.096 191.829,214.867 191.375 C 214.407 190.461,210.997 187.197,210.509 187.204 C 210.339 187.207,210.778 187.665,211.485 188.222 M263.200 190.865 C 263.200 191.023,263.875 191.208,264.700 191.276 L 266.200 191.400 266.400 208.467 C 266.510 217.854,266.695 225.629,266.810 225.744 C 267.042 225.975,266.841 192.074,266.606 191.345 C 266.447 190.851,263.200 190.394,263.200 190.865 M173.885 193.200 C 174.007 194.630,174.172 195.875,174.253 195.967 C 174.520 196.270,174.311 193.022,173.985 191.800 C 173.782 191.044,173.746 191.562,173.885 193.200 M109.032 191.800 C 109.188 192.240,109.556 193.680,109.851 195.000 L 110.386 197.400 110.170 195.232 C 110.052 194.040,109.683 192.600,109.352 192.032 C 109.015 191.455,108.874 191.353,109.032 191.800 M309.462 192.331 C 309.098 192.734,308.803 193.319,308.806 193.631 C 308.809 193.944,309.044 193.750,309.327 193.200 C 309.749 192.382,310.119 192.209,311.363 192.249 C 312.348 192.281,312.692 192.178,312.342 191.955 C 311.446 191.388,310.165 191.555,309.462 192.331 M351.862 192.331 C 351.498 192.734,351.203 193.319,351.206 193.631 C 351.209 193.944,351.438 193.750,351.715 193.200 C 352.938 190.771,355.254 191.782,355.634 194.910 L 355.887 197.000 355.944 194.962 C 356.027 191.938,353.622 190.387,351.862 192.331 M293.000 192.800 C 292.850 193.273,292.817 193.750,292.927 193.860 C 293.037 193.970,293.250 193.673,293.400 193.200 C 293.550 192.727,293.583 192.250,293.473 192.140 C 293.363 192.030,293.150 192.327,293.000 192.800 M374.600 208.858 C 374.600 218.154,374.714 225.229,374.853 224.580 C 375.187 223.017,375.194 194.062,374.860 192.878 C 374.717 192.371,374.600 199.562,374.600 208.858 M328.812 192.800 C 328.812 193.130,328.987 193.670,329.200 194.000 C 329.545 194.533,329.588 194.533,329.588 194.000 C 329.588 193.670,329.413 193.130,329.200 192.800 C 328.855 192.267,328.812 192.267,328.812 192.800 M313.119 207.009 C 313.254 223.104,313.174 223.800,311.186 223.800 C 310.134 223.800,309.708 223.572,309.318 222.800 C 308.971 222.115,308.810 222.012,308.806 222.471 C 308.789 224.346,311.857 225.110,312.977 223.511 C 313.648 222.554,313.956 193.468,313.300 193.061 C 313.135 192.959,313.054 199.236,313.119 207.009 M88.623 194.089 C 88.138 194.782,88.017 195.953,88.075 199.389 L 88.150 203.800 88.375 199.118 C 88.502 196.480,88.797 194.240,89.051 193.987 C 89.821 193.221,91.732 193.701,92.285 194.800 C 92.598 195.423,92.790 195.559,92.794 195.162 C 92.811 193.339,89.707 192.541,88.623 194.089 M132.623 193.734 C 131.410 194.621,131.245 197.401,131.305 216.000 L 131.362 233.800 131.616 214.400 C 131.756 203.730,131.899 194.968,131.935 194.929 C 132.811 193.965,133.427 193.600,134.180 193.600 C 136.191 193.600,136.185 193.547,136.414 214.361 L 136.628 233.800 136.705 215.400 C 136.779 197.421,136.608 194.231,135.529 193.548 C 134.741 193.048,133.448 193.131,132.623 193.734 M153.829 193.829 C 153.483 194.174,153.161 194.489,153.113 194.529 C 153.066 194.568,152.931 203.330,152.813 214.000 L 152.600 233.400 144.800 233.613 L 137.000 233.826 144.620 233.913 C 150.115 233.976,152.374 233.866,152.720 233.520 C 153.079 233.161,153.200 228.397,153.200 214.546 C 153.200 196.113,153.326 194.234,154.595 193.747 C 155.583 193.367,157.197 193.956,157.232 194.708 C 157.255 195.222,157.321 195.255,157.487 194.835 C 158.017 193.493,154.995 192.662,153.829 193.829 M196.629 193.829 C 196.141 194.316,196.000 195.353,196.000 198.449 L 196.000 202.440 198.300 202.320 L 200.600 202.200 200.588 198.600 C 200.581 196.350,200.382 194.700,200.058 194.200 L 199.540 193.400 199.812 194.200 C 199.961 194.640,200.180 196.575,200.297 198.500 L 200.511 202.000 198.455 202.000 L 196.400 202.000 196.400 198.249 C 196.400 194.272,196.587 193.826,198.400 193.493 L 199.400 193.309 198.329 193.254 C 197.739 193.225,196.974 193.483,196.629 193.829 M216.056 194.400 C 216.056 194.730,216.211 195.360,216.400 195.800 C 216.617 196.304,216.744 196.378,216.744 196.000 C 216.744 195.670,216.589 195.040,216.400 194.600 C 216.183 194.096,216.056 194.022,216.056 194.400 M221.612 194.400 C 221.612 194.730,221.787 195.270,222.000 195.600 C 222.345 196.133,222.388 196.133,222.388 195.600 C 222.388 195.270,222.213 194.730,222.000 194.400 C 221.655 193.867,221.612 193.867,221.612 194.400 M179.418 196.618 C 179.265 197.639,179.222 198.555,179.322 198.655 C 179.422 198.755,179.629 198.002,179.782 196.982 C 179.935 195.961,179.978 195.045,179.878 194.945 C 179.778 194.845,179.571 195.598,179.418 196.618 M292.250 196.050 C 291.923 197.687,292.002 220.325,292.340 221.524 C 292.483 222.032,292.600 216.227,292.600 208.624 C 292.600 201.021,292.578 194.800,292.550 194.800 C 292.522 194.800,292.387 195.363,292.250 196.050 M72.257 197.659 C 71.520 204.710,71.167 204.421,80.380 204.313 L 87.800 204.227 80.200 204.013 L 72.600 203.800 72.709 199.500 C 72.831 194.700,72.645 193.943,72.257 197.659 M329.710 207.400 C 329.711 214.736,329.837 218.902,330.017 217.600 C 330.416 214.711,330.417 199.561,330.018 197.000 C 329.834 195.814,329.708 200.047,329.710 207.400 M157.687 214.276 C 157.639 224.658,157.735 233.236,157.900 233.339 C 158.171 233.506,158.162 213.642,157.885 200.600 C 157.824 197.740,157.735 203.894,157.687 214.276 M247.200 196.800 C 247.750 197.230,248.380 197.582,248.600 197.582 C 248.820 197.582,248.550 197.230,248.000 196.800 C 247.450 196.370,246.820 196.018,246.600 196.018 C 246.380 196.018,246.650 196.370,247.200 196.800 M350.978 208.000 C 350.978 214.710,351.032 217.455,351.099 214.100 C 351.166 210.745,351.166 205.255,351.099 201.900 C 351.032 198.545,350.978 201.290,350.978 208.000 M222.836 197.300 C 224.277 200.094,226.550 202.022,232.100 205.159 C 235.844 207.275,234.720 206.248,230.603 203.791 C 226.633 201.422,224.361 199.459,223.368 197.538 C 223.044 196.912,222.688 196.400,222.576 196.400 C 222.464 196.400,222.581 196.805,222.836 197.300 M308.577 208.000 C 308.577 214.490,308.632 217.145,308.699 213.900 C 308.766 210.655,308.766 205.345,308.699 202.100 C 308.632 198.855,308.577 201.510,308.577 208.000 M92.924 199.000 C 92.926 200.320,93.001 200.812,93.090 200.093 C 93.179 199.374,93.177 198.294,93.086 197.693 C 92.995 197.092,92.922 197.680,92.924 199.000 M216.989 203.498 C 216.995 207.292,217.135 210.397,217.300 210.398 C 217.674 210.401,217.641 200.844,217.259 198.400 C 217.094 197.341,216.982 199.439,216.989 203.498 M249.200 197.739 C 249.200 197.831,250.399 198.687,251.865 199.642 C 255.336 201.904,258.015 204.556,259.094 206.800 C 259.571 207.790,259.969 208.320,259.980 207.978 C 260.011 207.026,257.919 203.966,256.152 202.377 C 253.889 200.343,249.200 197.215,249.200 197.739 M110.584 216.000 C 110.584 225.570,110.636 229.485,110.700 224.700 C 110.763 219.915,110.763 212.085,110.700 207.300 C 110.636 202.515,110.584 206.430,110.584 216.000 M178.969 209.400 C 178.970 214.020,179.028 215.855,179.099 213.478 C 179.170 211.101,179.169 207.321,179.098 205.078 C 179.027 202.835,178.969 204.780,178.969 209.400 M48.173 202.127 C 47.544 203.766,48.209 210.992,49.000 211.111 C 49.440 211.177,50.232 211.324,50.761 211.438 L 51.721 211.646 51.510 216.923 C 51.357 220.726,51.400 221.660,51.664 220.265 C 51.865 219.201,51.978 216.775,51.915 214.874 C 51.789 211.097,51.986 211.378,48.900 210.558 C 48.540 210.462,48.400 209.245,48.400 206.213 L 48.400 202.000 58.367 202.000 C 65.966 202.000,68.381 202.119,68.535 202.500 C 68.656 202.799,68.750 202.718,68.768 202.300 C 68.810 201.372,48.528 201.201,48.173 202.127 M92.432 202.077 C 92.414 202.450,92.000 203.035,91.511 203.377 C 91.022 203.720,90.814 204.000,91.049 204.000 C 91.729 204.000,92.903 202.498,92.673 201.923 C 92.533 201.574,92.453 201.625,92.432 202.077 M84.000 206.400 C 83.010 206.815,82.470 207.152,82.800 207.148 C 83.472 207.140,86.828 205.663,86.200 205.652 C 85.980 205.648,84.990 205.985,84.000 206.400 M235.020 206.736 C 235.648 207.292,238.400 208.879,238.400 208.686 C 238.400 208.445,235.294 206.400,234.929 206.400 C 234.770 206.400,234.811 206.551,235.020 206.736 M239.600 209.478 C 240.150 209.860,241.365 210.921,242.300 211.834 C 243.235 212.747,244.000 213.347,244.000 213.167 C 244.000 212.614,241.073 209.955,239.800 209.351 L 238.600 208.782 239.600 209.478 M260.056 209.600 C 260.056 210.150,260.211 210.960,260.400 211.400 C 260.713 212.129,260.744 212.112,260.744 211.200 C 260.744 210.650,260.589 209.840,260.400 209.400 C 260.087 208.671,260.056 208.688,260.056 209.600 M74.887 210.700 C 73.930 211.635,73.914 211.681,74.781 211.006 C 76.488 209.676,76.569 209.600,76.286 209.600 C 76.136 209.600,75.506 210.095,74.887 210.700 M196.000 217.338 C 196.000 223.551,196.076 224.345,196.731 224.938 C 197.695 225.810,199.759 225.789,200.432 224.900 C 200.882 224.304,200.878 224.275,200.401 224.700 C 199.510 225.494,197.295 225.325,196.814 224.426 C 196.578 223.985,196.400 220.893,196.400 217.233 L 196.400 210.814 206.500 210.700 L 216.600 210.586 206.300 210.493 L 196.000 210.400 196.000 217.338 M222.173 211.325 C 222.059 211.623,222.027 213.382,222.101 215.233 L 222.237 218.600 222.319 214.900 L 222.400 211.200 230.186 211.200 L 237.973 211.200 238.107 215.300 L 238.241 219.400 238.220 215.200 L 238.200 211.000 230.291 210.892 C 223.931 210.804,222.341 210.889,222.173 211.325 M90.486 212.810 C 89.559 213.701,88.800 214.599,88.800 214.806 C 88.800 215.013,89.543 214.376,90.451 213.391 C 92.751 210.896,92.764 210.917,92.906 217.400 L 93.033 223.201 93.017 217.333 C 92.998 210.667,92.899 210.491,90.486 212.810 M201.689 213.300 C 201.290 213.789,200.805 224.128,201.200 223.735 C 201.310 223.625,201.490 221.255,201.600 218.468 L 201.800 213.400 208.600 213.286 C 212.340 213.223,215.831 213.278,216.357 213.408 L 217.314 213.644 217.124 218.722 C 217.019 221.515,217.062 223.260,217.219 222.600 C 217.827 220.051,217.649 213.304,216.967 213.043 C 215.672 212.546,202.119 212.774,201.689 213.300 M260.944 217.200 C 260.944 219.290,261.012 220.145,261.094 219.100 C 261.176 218.055,261.176 216.345,261.094 215.300 C 261.012 214.255,260.944 215.110,260.944 217.200 M244.174 217.576 C 244.199 221.139,244.161 221.301,243.078 222.234 C 242.301 222.902,242.149 223.200,242.584 223.200 C 244.277 223.200,245.536 217.418,244.446 214.642 C 244.283 214.225,244.160 215.545,244.174 217.576 M72.259 216.500 C 71.948 219.089,71.982 222.750,72.341 225.400 C 72.506 226.615,72.610 224.848,72.606 220.900 C 72.599 213.575,72.604 213.632,72.259 216.500 M88.252 216.500 C 87.801 218.183,87.998 222.821,88.580 224.213 C 89.373 226.112,92.800 226.137,92.800 224.244 C 92.800 224.025,92.566 224.167,92.280 224.558 C 91.936 225.029,91.366 225.223,90.590 225.134 C 88.799 224.929,88.340 223.646,88.500 219.300 C 88.647 215.341,88.626 215.106,88.252 216.500 M179.293 220.600 C 179.294 221.260,179.432 222.340,179.600 223.000 C 180.023 224.663,180.042 223.026,179.623 221.000 C 179.345 219.655,179.292 219.591,179.293 220.600 M355.670 221.024 C 355.540 224.039,352.929 225.212,351.715 222.800 C 351.371 222.116,351.210 222.012,351.206 222.471 C 351.190 224.257,354.072 225.067,355.363 223.641 C 355.856 223.096,356.006 222.391,355.895 221.141 L 355.740 219.400 355.670 221.024 M222.480 220.800 C 222.480 221.350,222.624 222.250,222.800 222.800 L 223.120 223.800 223.120 222.800 C 223.120 222.250,222.976 221.350,222.800 220.800 L 222.480 219.800 222.480 220.800 M238.425 221.329 C 238.396 222.176,239.307 223.205,240.071 223.188 C 240.393 223.180,240.315 223.010,239.874 222.754 C 239.475 222.522,238.992 221.942,238.800 221.466 C 238.507 220.739,238.447 220.717,238.425 221.329 M329.050 222.050 C 328.909 222.753,328.869 223.402,328.959 223.492 C 329.050 223.583,329.248 223.091,329.400 222.400 C 329.552 221.709,329.593 221.059,329.491 220.958 C 329.389 220.856,329.191 221.347,329.050 222.050 M260.200 223.200 C 260.048 223.891,260.014 224.547,260.124 224.657 C 260.234 224.767,260.448 224.291,260.600 223.600 C 260.752 222.909,260.786 222.253,260.676 222.143 C 260.566 222.033,260.352 222.509,260.200 223.200 M29.043 223.600 C 29.802 228.003,36.586 234.449,40.400 234.390 C 40.730 234.385,39.920 233.937,38.600 233.395 C 33.950 231.485,31.059 228.571,29.529 224.252 C 28.982 222.707,28.862 222.546,29.043 223.600 M50.114 223.442 C 49.035 224.610,48.252 224.652,47.200 223.600 C 46.760 223.160,46.400 222.976,46.400 223.191 C 46.400 223.406,46.861 223.884,47.425 224.253 C 48.614 225.032,51.200 224.179,51.200 223.006 C 51.200 222.264,51.206 222.262,50.114 223.442 M215.806 225.707 C 215.398 226.638,213.969 228.477,212.632 229.794 C 211.294 231.110,210.776 231.780,211.480 231.281 C 213.759 229.666,217.337 224.803,216.708 224.175 C 216.620 224.086,216.214 224.776,215.806 225.707 M223.218 224.116 C 223.065 226.842,229.473 231.885,234.000 232.603 C 234.849 232.737,234.323 232.437,232.663 231.841 C 228.251 230.255,225.657 228.268,223.994 225.200 C 223.577 224.430,223.227 223.942,223.218 224.116 M286.699 224.274 C 288.270 224.488,288.488 225.122,288.320 229.008 L 288.200 231.800 282.600 232.017 L 277.000 232.235 282.400 232.311 C 289.166 232.407,288.859 232.618,288.716 227.967 L 288.600 224.200 287.000 224.149 C 285.710 224.108,285.652 224.132,286.699 224.274 M327.454 225.744 C 326.210 227.866,324.043 229.663,321.131 230.986 C 319.959 231.518,319.231 231.964,319.513 231.977 C 321.832 232.081,329.811 225.277,328.687 224.154 C 328.583 224.049,328.028 224.765,327.454 225.744 M180.573 225.796 C 181.199 227.296,183.621 230.513,183.907 230.226 C 184.003 230.131,183.594 229.546,182.998 228.926 C 182.403 228.307,181.566 227.035,181.139 226.100 C 180.208 224.061,179.743 223.812,180.573 225.796 M259.245 226.080 C 259.038 226.626,257.998 227.845,256.934 228.791 C 255.870 229.737,255.360 230.317,255.800 230.080 C 257.582 229.121,260.383 225.850,259.865 225.332 C 259.732 225.198,259.453 225.535,259.245 226.080 M293.600 225.428 C 293.600 226.776,298.776 231.757,299.464 231.070 C 299.600 230.934,299.281 230.655,298.755 230.450 C 297.544 229.978,295.318 227.789,294.561 226.324 C 294.021 225.281,293.600 224.888,293.600 225.428 M267.218 226.738 C 267.179 227.923,270.840 231.693,271.444 231.089 C 271.553 230.980,270.998 230.493,270.211 230.007 C 269.423 229.520,268.432 228.464,268.007 227.661 C 267.583 226.857,267.227 226.442,267.218 226.738 M72.811 227.926 C 72.783 229.259,75.014 232.061,76.880 233.036 C 78.722 233.998,78.578 233.660,76.568 232.300 C 75.341 231.470,74.315 230.349,73.734 229.200 C 73.233 228.210,72.817 227.637,72.811 227.926 M372.175 229.236 C 371.529 229.915,370.488 230.739,369.863 231.065 C 369.237 231.392,368.816 231.749,368.926 231.859 C 369.251 232.184,372.305 230.004,372.989 228.960 C 373.837 227.667,373.586 227.752,372.175 229.236 M351.043 229.033 C 350.909 229.381,350.800 231.721,350.800 234.233 L 350.800 238.800 342.833 238.800 C 336.834 238.800,334.817 238.677,334.665 238.300 C 334.544 238.001,334.450 238.082,334.432 238.500 C 334.402 239.145,335.055 239.200,342.800 239.200 L 351.200 239.200 351.200 234.200 C 351.200 231.450,351.272 229.200,351.360 229.200 C 351.448 229.200,352.432 229.814,353.548 230.565 C 355.632 231.968,358.283 233.050,358.674 232.659 C 358.795 232.538,358.378 232.319,357.747 232.172 C 356.248 231.824,353.599 230.304,352.638 229.241 C 351.727 228.235,351.367 228.188,351.043 229.033 M54.122 231.402 C 53.419 232.111,52.069 233.080,51.122 233.555 C 50.175 234.031,49.850 234.302,50.400 234.157 C 51.536 233.859,53.303 232.727,54.860 231.299 C 55.870 230.373,55.942 230.362,56.390 231.064 C 56.843 231.772,56.852 231.772,56.630 231.067 C 56.504 230.664,56.400 230.259,56.400 230.167 C 56.400 229.650,55.232 230.283,54.122 231.402 M92.000 231.150 C 91.450 231.730,90.550 232.524,90.000 232.914 L 89.000 233.623 90.000 233.163 C 90.550 232.909,91.495 232.241,92.100 231.676 L 93.200 230.650 93.200 231.845 C 93.200 233.945,93.471 234.008,102.180 233.913 L 110.200 233.825 102.000 233.613 L 93.800 233.400 93.677 231.700 C 93.536 229.752,93.375 229.699,92.000 231.150 M272.600 231.600 C 273.040 231.789,273.850 231.938,274.400 231.932 L 275.400 231.920 274.400 231.600 C 273.850 231.424,273.040 231.274,272.600 231.268 L 271.800 231.256 272.600 231.600 M300.400 231.600 C 300.730 231.813,301.270 231.988,301.600 231.988 C 302.133 231.988,302.133 231.945,301.600 231.600 C 301.270 231.387,300.730 231.212,300.400 231.212 C 299.867 231.212,299.867 231.255,300.400 231.600 M188.200 232.822 C 189.080 233.238,190.070 233.575,190.400 233.571 C 190.730 233.566,190.100 233.211,189.000 232.782 C 186.496 231.804,186.092 231.824,188.200 232.822 M249.000 232.400 L 248.200 232.744 249.000 232.744 C 249.440 232.744,250.160 232.589,250.600 232.400 L 251.400 232.056 250.600 232.056 C 250.160 232.056,249.440 232.211,249.000 232.400 M303.000 232.400 C 303.440 232.589,304.250 232.738,304.800 232.732 L 305.800 232.720 304.800 232.400 C 304.250 232.224,303.440 232.074,303.000 232.068 L 302.200 232.056 303.000 232.400 M316.400 232.400 L 315.400 232.720 316.400 232.732 C 316.950 232.738,317.760 232.589,318.200 232.400 L 319.000 232.056 318.200 232.068 C 317.760 232.074,316.950 232.224,316.400 232.400 M366.800 232.400 C 366.267 232.745,366.267 232.788,366.800 232.788 C 367.130 232.788,367.670 232.613,368.000 232.400 C 368.533 232.055,368.533 232.012,368.000 232.012 C 367.670 232.012,367.130 232.187,366.800 232.400 M68.291 232.908 C 68.073 233.474,67.254 233.595,62.917 233.701 L 57.800 233.826 62.800 233.907 C 67.809 233.988,69.050 233.749,68.722 232.766 C 68.595 232.384,68.477 232.423,68.291 232.908 M237.023 233.253 C 237.670 233.392,239.910 233.505,242.000 233.505 C 244.090 233.505,246.330 233.392,246.977 233.253 C 247.625 233.114,245.385 233.000,242.000 233.000 C 238.615 233.000,236.375 233.114,237.023 233.253 M308.700 233.093 C 309.635 233.177,311.165 233.177,312.100 233.093 C 313.035 233.009,312.270 232.940,310.400 232.940 C 308.530 232.940,307.765 233.009,308.700 233.093 M361.111 233.093 C 362.051 233.178,363.491 233.177,364.311 233.091 C 365.130 233.005,364.360 232.936,362.600 232.937 C 360.840 232.939,360.170 233.009,361.111 233.093 M79.400 234.000 C 79.840 234.189,80.470 234.344,80.800 234.344 C 81.178 234.344,81.104 234.217,80.600 234.000 C 80.160 233.811,79.530 233.656,79.200 233.656 C 78.822 233.656,78.896 233.783,79.400 234.000 M87.000 234.000 C 86.496 234.217,86.422 234.344,86.800 234.344 C 87.130 234.344,87.760 234.189,88.200 234.000 C 88.704 233.783,88.778 233.656,88.400 233.656 C 88.070 233.656,87.440 233.811,87.000 234.000 M119.300 233.898 C 121.445 233.970,124.955 233.970,127.100 233.898 C 129.245 233.826,127.490 233.767,123.200 233.767 C 118.910 233.767,117.155 233.826,119.300 233.898 M162.521 233.898 C 164.677 233.971,168.097 233.970,170.121 233.898 C 172.144 233.825,170.380 233.766,166.200 233.767 C 162.020 233.767,160.364 233.826,162.521 233.898 M192.000 234.000 C 192.550 234.176,193.540 234.317,194.200 234.313 L 195.400 234.305 194.200 234.000 C 193.540 233.832,192.550 233.691,192.000 233.687 L 191.000 233.680 192.000 234.000 M203.800 234.000 C 202.722 234.274,202.702 234.306,203.600 234.313 C 204.150 234.317,205.050 234.176,205.600 234.000 C 206.944 233.569,205.492 233.569,203.800 234.000 M42.931 234.899 C 43.993 235.080,45.883 235.074,47.131 234.885 C 49.189 234.573,49.009 234.542,45.200 234.555 C 41.670 234.566,41.308 234.621,42.931 234.899 M82.905 234.687 C 83.514 234.779,84.414 234.777,84.905 234.682 C 85.397 234.587,84.900 234.511,83.800 234.514 C 82.700 234.517,82.297 234.595,82.905 234.687 M197.700 234.691 C 198.525 234.778,199.875 234.778,200.700 234.691 C 201.525 234.605,200.850 234.534,199.200 234.534 C 197.550 234.534,196.875 234.605,197.700 234.691 " stroke="none" fill="#a7a7a7" fill-rule="evenodd"></path></g></svg>