<svg id="svg" version="1.1" xmlns="http://www.w3.org/2000/svg" xmlns:xlink="http://www.w3.org/1999/xlink" width="400" height="400" viewBox="0, 0, 400,400"><g id="svgg"><path id="path0" d="M112.274 163.459 C 112.123 163.610,112.000 181.523,112.000 203.267 L 112.000 242.800 121.602 242.800 L 131.204 242.800 131.102 203.100 L 131.000 163.400 121.774 163.293 C 116.699 163.234,112.424 163.309,112.274 163.459 M166.501 163.526 C 166.226 163.702,165.483 165.366,164.849 167.223 C 164.215 169.080,163.416 171.320,163.073 172.200 C 162.729 173.080,159.728 181.360,156.404 190.600 C 153.079 199.840,150.023 208.300,149.614 209.400 C 147.514 215.040,137.600 242.478,137.600 242.649 C 137.600 242.740,142.039 242.766,147.464 242.707 L 157.327 242.600 159.661 235.800 C 160.945 232.060,161.996 228.953,161.998 228.895 C 161.999 228.838,168.867 228.838,177.260 228.895 L 192.519 229.000 194.254 234.000 C 195.208 236.750,196.276 239.855,196.627 240.900 L 197.264 242.800 207.224 242.800 L 217.183 242.800 216.167 239.900 C 215.608 238.305,214.813 236.100,214.401 235.000 C 213.989 233.900,211.643 227.420,209.188 220.600 C 206.733 213.780,204.001 206.220,203.118 203.800 C 201.032 198.090,200.230 195.881,193.832 178.200 L 188.477 163.400 177.738 163.303 C 171.832 163.249,166.775 163.349,166.501 163.526 M224.274 163.459 C 223.673 164.061,223.966 215.227,224.589 218.400 C 227.831 234.911,238.858 243.409,257.000 243.378 C 272.598 243.351,283.910 236.109,288.414 223.266 C 290.302 217.881,290.472 214.767,290.330 188.000 L 290.200 163.400 280.900 163.293 L 271.600 163.185 271.587 187.293 C 271.571 216.949,271.382 218.591,267.563 222.336 C 262.120 227.672,250.974 227.469,246.248 221.948 C 242.910 218.048,243.025 219.130,242.800 189.600 L 242.600 163.400 233.574 163.293 C 228.610 163.234,224.425 163.309,224.274 163.459 M178.326 186.900 C 181.025 194.136,187.245 213.307,187.054 213.803 C 186.783 214.510,167.842 214.716,167.410 214.016 C 167.280 213.805,168.458 209.800,170.028 205.116 C 177.740 182.111,177.080 183.560,178.326 186.900 " stroke="none" fill="#141c2c" fill-rule="evenodd"></path><path id="path1" d="M178.500 0.274 C 176.465 0.360,174.800 0.603,174.800 0.815 C 174.800 1.030,173.383 1.200,171.600 1.200 C 169.733 1.200,168.400 1.367,168.400 1.600 C 168.400 1.820,167.500 2.000,166.400 2.000 C 165.300 2.000,164.400 2.180,164.400 2.400 C 164.400 2.622,163.333 2.800,162.000 2.800 C 160.667 2.800,159.600 2.978,159.600 3.200 C 159.600 3.420,158.801 3.600,157.824 3.600 C 156.847 3.600,155.936 3.780,155.800 4.000 C 155.664 4.220,154.843 4.400,153.976 4.400 C 153.109 4.400,152.400 4.580,152.400 4.800 C 152.400 5.020,151.680 5.200,150.800 5.200 C 149.920 5.200,149.200 5.380,149.200 5.600 C 149.200 5.820,148.581 6.000,147.824 6.000 C 147.067 6.000,146.336 6.180,146.200 6.400 C 146.064 6.620,145.423 6.800,144.776 6.800 C 144.129 6.800,143.600 6.980,143.600 7.200 C 143.600 7.420,142.880 7.600,142.000 7.600 C 141.120 7.600,140.400 7.780,140.400 8.000 C 140.400 8.220,139.860 8.400,139.200 8.400 C 138.540 8.400,138.000 8.580,138.000 8.800 C 138.000 9.020,137.460 9.200,136.800 9.200 C 136.140 9.200,135.600 9.380,135.600 9.600 C 135.600 9.820,135.060 10.000,134.400 10.000 C 133.740 10.000,133.200 10.180,133.200 10.400 C 133.200 10.620,132.660 10.800,132.000 10.800 C 131.340 10.800,130.800 10.980,130.800 11.200 C 130.800 11.420,130.440 11.600,130.000 11.600 C 129.560 11.600,129.200 11.780,129.200 12.000 C 129.200 12.220,128.660 12.400,128.000 12.400 C 127.340 12.400,126.800 12.580,126.800 12.800 C 126.800 13.020,126.440 13.200,126.000 13.200 C 125.560 13.200,125.200 13.380,125.200 13.600 C 125.200 13.820,124.660 14.000,124.000 14.000 C 123.340 14.000,122.800 14.180,122.800 14.400 C 122.800 14.620,122.440 14.800,122.000 14.800 C 121.560 14.800,121.200 14.980,121.200 15.200 C 121.200 15.420,120.761 15.600,120.224 15.600 C 119.687 15.600,119.136 15.780,119.000 16.000 C 118.864 16.220,118.403 16.400,117.976 16.400 C 117.549 16.400,117.200 16.580,117.200 16.800 C 117.200 17.020,116.840 17.200,116.400 17.200 C 115.960 17.200,115.600 17.380,115.600 17.600 C 115.600 17.820,115.240 18.000,114.800 18.000 C 114.360 18.000,114.000 18.180,114.000 18.400 C 114.000 18.620,113.640 18.800,113.200 18.800 C 112.760 18.800,112.400 18.980,112.400 19.200 C 112.400 19.420,112.040 19.600,111.600 19.600 C 111.160 19.600,110.800 19.780,110.800 20.000 C 110.800 20.220,110.440 20.400,110.000 20.400 C 109.560 20.400,109.200 20.580,109.200 20.800 C 109.200 21.020,108.840 21.200,108.400 21.200 C 107.960 21.200,107.600 21.380,107.600 21.600 C 107.600 21.820,107.240 22.000,106.800 22.000 C 106.360 22.000,106.000 22.180,106.000 22.400 C 106.000 22.620,105.640 22.800,105.200 22.800 C 104.760 22.800,104.400 22.980,104.400 23.200 C 104.400 23.420,104.040 23.600,103.600 23.600 C 103.160 23.600,102.800 23.780,102.800 24.000 C 102.800 24.220,102.480 24.400,102.088 24.400 C 101.697 24.400,101.117 24.760,100.800 25.200 C 100.483 25.640,99.903 26.000,99.512 26.000 C 99.120 26.000,98.800 26.180,98.800 26.400 C 98.800 26.620,98.440 26.800,98.000 26.800 C 97.560 26.800,97.200 26.980,97.200 27.200 C 97.200 27.420,96.964 27.600,96.675 27.600 C 96.387 27.600,95.764 27.960,95.292 28.400 C 94.820 28.840,94.196 29.200,93.905 29.200 C 93.614 29.200,93.117 29.560,92.800 30.000 C 92.483 30.440,91.943 30.800,91.600 30.800 C 91.257 30.800,90.717 31.160,90.400 31.600 C 90.083 32.040,89.503 32.400,89.112 32.400 C 88.720 32.400,88.400 32.580,88.400 32.800 C 88.400 33.020,88.157 33.200,87.859 33.200 C 87.562 33.200,86.754 33.740,86.063 34.400 C 85.372 35.060,84.575 35.600,84.292 35.600 C 84.009 35.600,83.517 35.960,83.200 36.400 C 82.883 36.840,82.420 37.200,82.171 37.200 C 81.922 37.200,81.154 37.740,80.463 38.400 C 79.772 39.060,79.047 39.600,78.852 39.600 C 78.656 39.600,77.755 40.320,76.848 41.200 C 75.941 42.080,75.005 42.800,74.768 42.800 C 74.531 42.800,73.646 43.520,72.800 44.400 C 71.954 45.280,71.082 46.000,70.862 46.000 C 70.642 46.000,69.186 47.260,67.628 48.800 C 66.069 50.340,64.626 51.600,64.419 51.600 C 63.930 51.600,51.600 63.930,51.600 64.419 C 51.600 64.626,50.340 66.069,48.800 67.628 C 47.260 69.186,46.000 70.642,46.000 70.862 C 46.000 71.082,45.280 71.954,44.400 72.800 C 43.520 73.646,42.800 74.531,42.800 74.768 C 42.800 75.005,42.080 75.941,41.200 76.848 C 40.320 77.755,39.600 78.656,39.600 78.852 C 39.600 79.047,39.060 79.772,38.400 80.463 C 37.740 81.154,37.200 81.922,37.200 82.171 C 37.200 82.420,36.840 82.883,36.400 83.200 C 35.960 83.517,35.600 84.009,35.600 84.292 C 35.600 84.575,35.060 85.372,34.400 86.063 C 33.740 86.754,33.200 87.562,33.200 87.859 C 33.200 88.157,33.020 88.400,32.800 88.400 C 32.580 88.400,32.400 88.720,32.400 89.112 C 32.400 89.503,32.040 90.083,31.600 90.400 C 31.160 90.717,30.800 91.257,30.800 91.600 C 30.800 91.943,30.440 92.483,30.000 92.800 C 29.560 93.117,29.200 93.614,29.200 93.905 C 29.200 94.196,28.840 94.820,28.400 95.292 C 27.960 95.764,27.600 96.387,27.600 96.675 C 27.600 96.964,27.420 97.200,27.200 97.200 C 26.980 97.200,26.800 97.560,26.800 98.000 C 26.800 98.440,26.620 98.800,26.400 98.800 C 26.180 98.800,26.000 99.120,26.000 99.512 C 26.000 99.903,25.640 100.483,25.200 100.800 C 24.760 101.117,24.400 101.697,24.400 102.088 C 24.400 102.480,24.220 102.800,24.000 102.800 C 23.780 102.800,23.600 103.160,23.600 103.600 C 23.600 104.040,23.420 104.400,23.200 104.400 C 22.980 104.400,22.800 104.760,22.800 105.200 C 22.800 105.640,22.620 106.000,22.400 106.000 C 22.180 106.000,22.000 106.360,22.000 106.800 C 22.000 107.240,21.820 107.600,21.600 107.600 C 21.380 107.600,21.200 107.960,21.200 108.400 C 21.200 108.840,21.020 109.200,20.800 109.200 C 20.580 109.200,20.400 109.560,20.400 110.000 C 20.400 110.440,20.220 110.800,20.000 110.800 C 19.780 110.800,19.600 111.160,19.600 111.600 C 19.600 112.040,19.420 112.400,19.200 112.400 C 18.980 112.400,18.800 112.760,18.800 113.200 C 18.800 113.640,18.620 114.000,18.400 114.000 C 18.180 114.000,18.000 114.360,18.000 114.800 C 18.000 115.240,17.820 115.600,17.600 115.600 C 17.380 115.600,17.200 115.960,17.200 116.400 C 17.200 116.840,17.020 117.200,16.800 117.200 C 16.580 117.200,16.400 117.549,16.400 117.976 C 16.400 118.403,16.220 118.864,16.000 119.000 C 15.780 119.136,15.600 119.687,15.600 120.224 C 15.600 120.761,15.420 121.200,15.200 121.200 C 14.980 121.200,14.800 121.560,14.800 122.000 C 14.800 122.440,14.620 122.800,14.400 122.800 C 14.180 122.800,14.000 123.340,14.000 124.000 C 14.000 124.660,13.820 125.200,13.600 125.200 C 13.380 125.200,13.200 125.560,13.200 126.000 C 13.200 126.440,13.020 126.800,12.800 126.800 C 12.580 126.800,12.400 127.340,12.400 128.000 C 12.400 128.660,12.220 129.200,12.000 129.200 C 11.780 129.200,11.600 129.560,11.600 130.000 C 11.600 130.440,11.420 130.800,11.200 130.800 C 10.980 130.800,10.800 131.340,10.800 132.000 C 10.800 132.660,10.620 133.200,10.400 133.200 C 10.180 133.200,10.000 133.740,10.000 134.400 C 10.000 135.060,9.820 135.600,9.600 135.600 C 9.380 135.600,9.200 136.140,9.200 136.800 C 9.200 137.460,9.020 138.000,8.800 138.000 C 8.580 138.000,8.400 138.540,8.400 139.200 C 8.400 139.860,8.220 140.400,8.000 140.400 C 7.780 140.400,7.600 141.120,7.600 142.000 C 7.600 142.880,7.420 143.600,7.200 143.600 C 6.980 143.600,6.800 144.129,6.800 144.776 C 6.800 145.423,6.620 146.064,6.400 146.200 C 6.180 146.336,6.000 147.067,6.000 147.824 C 6.000 148.581,5.820 149.200,5.600 149.200 C 5.380 149.200,5.200 149.920,5.200 150.800 C 5.200 151.680,5.020 152.400,4.800 152.400 C 4.580 152.400,4.400 153.109,4.400 153.976 C 4.400 154.843,4.220 155.664,4.000 155.800 C 3.780 155.936,3.600 156.847,3.600 157.824 C 3.600 158.801,3.420 159.600,3.200 159.600 C 2.978 159.600,2.800 160.667,2.800 162.000 C 2.800 163.333,2.622 164.400,2.400 164.400 C 2.180 164.400,2.000 165.300,2.000 166.400 C 2.000 167.500,1.820 168.400,1.600 168.400 C 1.367 168.400,1.200 169.722,1.200 171.567 C 1.200 173.744,1.044 174.785,0.700 174.900 C -0.032 175.144,-0.032 224.856,0.700 225.100 C 1.044 225.215,1.200 226.256,1.200 228.433 C 1.200 230.278,1.367 231.600,1.600 231.600 C 1.820 231.600,2.000 232.500,2.000 233.600 C 2.000 234.700,2.180 235.600,2.400 235.600 C 2.622 235.600,2.800 236.667,2.800 238.000 C 2.800 239.333,2.978 240.400,3.200 240.400 C 3.420 240.400,3.600 241.199,3.600 242.176 C 3.600 243.153,3.780 244.064,4.000 244.200 C 4.220 244.336,4.400 245.157,4.400 246.024 C 4.400 246.891,4.580 247.600,4.800 247.600 C 5.020 247.600,5.200 248.320,5.200 249.200 C 5.200 250.080,5.380 250.800,5.600 250.800 C 5.820 250.800,6.000 251.419,6.000 252.176 C 6.000 252.933,6.180 253.664,6.400 253.800 C 6.620 253.936,6.800 254.577,6.800 255.224 C 6.800 255.871,6.980 256.400,7.200 256.400 C 7.420 256.400,7.600 257.120,7.600 258.000 C 7.600 258.880,7.780 259.600,8.000 259.600 C 8.220 259.600,8.400 260.140,8.400 260.800 C 8.400 261.460,8.580 262.000,8.800 262.000 C 9.020 262.000,9.200 262.540,9.200 263.200 C 9.200 263.860,9.380 264.400,9.600 264.400 C 9.820 264.400,10.000 264.940,10.000 265.600 C 10.000 266.260,10.180 266.800,10.400 266.800 C 10.620 266.800,10.800 267.340,10.800 268.000 C 10.800 268.660,10.980 269.200,11.200 269.200 C 11.420 269.200,11.600 269.560,11.600 270.000 C 11.600 270.440,11.780 270.800,12.000 270.800 C 12.220 270.800,12.400 271.340,12.400 272.000 C 12.400 272.660,12.580 273.200,12.800 273.200 C 13.020 273.200,13.200 273.560,13.200 274.000 C 13.200 274.440,13.380 274.800,13.600 274.800 C 13.820 274.800,14.000 275.340,14.000 276.000 C 14.000 276.660,14.180 277.200,14.400 277.200 C 14.620 277.200,14.800 277.560,14.800 278.000 C 14.800 278.440,14.980 278.800,15.200 278.800 C 15.420 278.800,15.600 279.239,15.600 279.776 C 15.600 280.313,15.780 280.864,16.000 281.000 C 16.220 281.136,16.400 281.597,16.400 282.024 C 16.400 282.451,16.580 282.800,16.800 282.800 C 17.020 282.800,17.200 283.160,17.200 283.600 C 17.200 284.040,17.380 284.400,17.600 284.400 C 17.820 284.400,18.000 284.760,18.000 285.200 C 18.000 285.640,18.180 286.000,18.400 286.000 C 18.620 286.000,18.800 286.360,18.800 286.800 C 18.800 287.240,18.980 287.600,19.200 287.600 C 19.420 287.600,19.600 287.960,19.600 288.400 C 19.600 288.840,19.780 289.200,20.000 289.200 C 20.220 289.200,20.400 289.560,20.400 290.000 C 20.400 290.440,20.580 290.800,20.800 290.800 C 21.020 290.800,21.200 291.160,21.200 291.600 C 21.200 292.040,21.380 292.400,21.600 292.400 C 21.820 292.400,22.000 292.760,22.000 293.200 C 22.000 293.640,22.180 294.000,22.400 294.000 C 22.620 294.000,22.800 294.360,22.800 294.800 C 22.800 295.240,22.980 295.600,23.200 295.600 C 23.420 295.600,23.600 295.960,23.600 296.400 C 23.600 296.840,23.780 297.200,24.000 297.200 C 24.220 297.200,24.400 297.520,24.400 297.912 C 24.400 298.303,24.760 298.883,25.200 299.200 C 25.640 299.517,26.000 300.097,26.000 300.488 C 26.000 300.880,26.180 301.200,26.400 301.200 C 26.620 301.200,26.800 301.560,26.800 302.000 C 26.800 302.440,26.980 302.800,27.200 302.800 C 27.420 302.800,27.600 303.036,27.600 303.325 C 27.600 303.613,27.960 304.236,28.400 304.708 C 28.840 305.180,29.200 305.804,29.200 306.095 C 29.200 306.386,29.560 306.883,30.000 307.200 C 30.440 307.517,30.800 308.057,30.800 308.400 C 30.800 308.743,31.160 309.283,31.600 309.600 C 32.040 309.917,32.400 310.497,32.400 310.888 C 32.400 311.280,32.580 311.600,32.800 311.600 C 33.020 311.600,33.200 311.843,33.200 312.141 C 33.200 312.438,33.740 313.246,34.400 313.937 C 35.060 314.628,35.600 315.425,35.600 315.708 C 35.600 315.991,35.960 316.483,36.400 316.800 C 36.840 317.117,37.200 317.580,37.200 317.829 C 37.200 318.078,37.740 318.846,38.400 319.537 C 39.060 320.228,39.600 320.953,39.600 321.148 C 39.600 321.344,40.320 322.245,41.200 323.152 C 42.080 324.059,42.800 324.995,42.800 325.232 C 42.800 325.469,43.520 326.354,44.400 327.200 C 45.280 328.046,46.000 328.918,46.000 329.138 C 46.000 329.358,47.260 330.814,48.800 332.372 C 50.340 333.931,51.600 335.374,51.600 335.581 C 51.600 336.070,63.930 348.400,64.419 348.400 C 64.626 348.400,66.069 349.660,67.628 351.200 C 69.186 352.740,70.642 354.000,70.862 354.000 C 71.082 354.000,71.954 354.720,72.800 355.600 C 73.646 356.480,74.531 357.200,74.768 357.200 C 75.005 357.200,75.941 357.920,76.848 358.800 C 77.755 359.680,78.656 360.400,78.852 360.400 C 79.047 360.400,79.772 360.940,80.463 361.600 C 81.154 362.260,81.922 362.800,82.171 362.800 C 82.420 362.800,82.883 363.160,83.200 363.600 C 83.517 364.040,84.009 364.400,84.292 364.400 C 84.575 364.400,85.372 364.940,86.063 365.600 C 86.754 366.260,87.562 366.800,87.859 366.800 C 88.157 366.800,88.400 366.980,88.400 367.200 C 88.400 367.420,88.720 367.600,89.112 367.600 C 89.503 367.600,90.083 367.960,90.400 368.400 C 90.717 368.840,91.257 369.200,91.600 369.200 C 91.943 369.200,92.483 369.560,92.800 370.000 C 93.117 370.440,93.614 370.800,93.905 370.800 C 94.196 370.800,94.820 371.160,95.292 371.600 C 95.764 372.040,96.387 372.400,96.675 372.400 C 96.964 372.400,97.200 372.580,97.200 372.800 C 97.200 373.020,97.560 373.200,98.000 373.200 C 98.440 373.200,98.800 373.380,98.800 373.600 C 98.800 373.820,99.120 374.000,99.512 374.000 C 99.903 374.000,100.483 374.360,100.800 374.800 C 101.117 375.240,101.697 375.600,102.088 375.600 C 102.480 375.600,102.800 375.780,102.800 376.000 C 102.800 376.220,103.160 376.400,103.600 376.400 C 104.040 376.400,104.400 376.580,104.400 376.800 C 104.400 377.020,104.760 377.200,105.200 377.200 C 105.640 377.200,106.000 377.380,106.000 377.600 C 106.000 377.820,106.360 378.000,106.800 378.000 C 107.240 378.000,107.600 378.180,107.600 378.400 C 107.600 378.620,107.960 378.800,108.400 378.800 C 108.840 378.800,109.200 378.980,109.200 379.200 C 109.200 379.420,109.560 379.600,110.000 379.600 C 110.440 379.600,110.800 379.780,110.800 380.000 C 110.800 380.220,111.160 380.400,111.600 380.400 C 112.040 380.400,112.400 380.580,112.400 380.800 C 112.400 381.020,112.760 381.200,113.200 381.200 C 113.640 381.200,114.000 381.380,114.000 381.600 C 114.000 381.820,114.360 382.000,114.800 382.000 C 115.240 382.000,115.600 382.180,115.600 382.400 C 115.600 382.620,115.960 382.800,116.400 382.800 C 116.840 382.800,117.200 382.980,117.200 383.200 C 117.200 383.420,117.549 383.600,117.976 383.600 C 118.403 383.600,118.864 383.780,119.000 384.000 C 119.136 384.220,119.687 384.400,120.224 384.400 C 120.761 384.400,121.200 384.580,121.200 384.800 C 121.200 385.020,121.560 385.200,122.000 385.200 C 122.440 385.200,122.800 385.380,122.800 385.600 C 122.800 385.820,123.340 386.000,124.000 386.000 C 124.660 386.000,125.200 386.180,125.200 386.400 C 125.200 386.620,125.560 386.800,126.000 386.800 C 126.440 386.800,126.800 386.980,126.800 387.200 C 126.800 387.420,127.340 387.600,128.000 387.600 C 128.660 387.600,129.200 387.780,129.200 388.000 C 129.200 388.220,129.560 388.400,130.000 388.400 C 130.440 388.400,130.800 388.580,130.800 388.800 C 130.800 389.020,131.340 389.200,132.000 389.200 C 132.660 389.200,133.200 389.380,133.200 389.600 C 133.200 389.820,133.740 390.000,134.400 390.000 C 135.060 390.000,135.600 390.180,135.600 390.400 C 135.600 390.620,136.140 390.800,136.800 390.800 C 137.460 390.800,138.000 390.980,138.000 391.200 C 138.000 391.420,138.540 391.600,139.200 391.600 C 139.860 391.600,140.400 391.780,140.400 392.000 C 140.400 392.220,141.120 392.400,142.000 392.400 C 142.880 392.400,143.600 392.580,143.600 392.800 C 143.600 393.020,144.129 393.200,144.776 393.200 C 145.423 393.200,146.064 393.380,146.200 393.600 C 146.336 393.820,147.067 394.000,147.824 394.000 C 148.581 394.000,149.200 394.180,149.200 394.400 C 149.200 394.620,149.920 394.800,150.800 394.800 C 151.680 394.800,152.400 394.980,152.400 395.200 C 152.400 395.420,153.109 395.600,153.976 395.600 C 154.843 395.600,155.664 395.780,155.800 396.000 C 155.936 396.220,156.847 396.400,157.824 396.400 C 158.801 396.400,159.600 396.580,159.600 396.800 C 159.600 397.022,160.667 397.200,162.000 397.200 C 163.333 397.200,164.400 397.378,164.400 397.600 C 164.400 397.820,165.300 398.000,166.400 398.000 C 167.500 398.000,168.400 398.180,168.400 398.400 C 168.400 398.633,169.722 398.800,171.567 398.800 C 173.744 398.800,174.785 398.956,174.900 399.300 C 175.144 400.032,224.856 400.032,225.100 399.300 C 225.215 398.956,226.256 398.800,228.433 398.800 C 230.278 398.800,231.600 398.633,231.600 398.400 C 231.600 398.180,232.500 398.000,233.600 398.000 C 234.700 398.000,235.600 397.820,235.600 397.600 C 235.600 397.378,236.667 397.200,238.000 397.200 C 239.333 397.200,240.400 397.022,240.400 396.800 C 240.400 396.580,241.199 396.400,242.176 396.400 C 243.153 396.400,244.064 396.220,244.200 396.000 C 244.336 395.780,245.157 395.600,246.024 395.600 C 246.891 395.600,247.600 395.420,247.600 395.200 C 247.600 394.980,248.320 394.800,249.200 394.800 C 250.080 394.800,250.800 394.620,250.800 394.400 C 250.800 394.180,251.419 394.000,252.176 394.000 C 252.933 394.000,253.664 393.820,253.800 393.600 C 253.936 393.380,254.577 393.200,255.224 393.200 C 255.871 393.200,256.400 393.020,256.400 392.800 C 256.400 392.580,257.120 392.400,258.000 392.400 C 258.880 392.400,259.600 392.220,259.600 392.000 C 259.600 391.780,260.140 391.600,260.800 391.600 C 261.460 391.600,262.000 391.420,262.000 391.200 C 262.000 390.980,262.540 390.800,263.200 390.800 C 263.860 390.800,264.400 390.620,264.400 390.400 C 264.400 390.180,264.940 390.000,265.600 390.000 C 266.260 390.000,266.800 389.820,266.800 389.600 C 266.800 389.380,267.340 389.200,268.000 389.200 C 268.660 389.200,269.200 389.020,269.200 388.800 C 269.200 388.580,269.560 388.400,270.000 388.400 C 270.440 388.400,270.800 388.220,270.800 388.000 C 270.800 387.780,271.340 387.600,272.000 387.600 C 272.660 387.600,273.200 387.420,273.200 387.200 C 273.200 386.980,273.560 386.800,274.000 386.800 C 274.440 386.800,274.800 386.620,274.800 386.400 C 274.800 386.180,275.340 386.000,276.000 386.000 C 276.660 386.000,277.200 385.820,277.200 385.600 C 277.200 385.380,277.560 385.200,278.000 385.200 C 278.440 385.200,278.800 385.020,278.800 384.800 C 278.800 384.580,279.239 384.400,279.776 384.400 C 280.313 384.400,280.864 384.220,281.000 384.000 C 281.136 383.780,281.597 383.600,282.024 383.600 C 282.451 383.600,282.800 383.420,282.800 383.200 C 282.800 382.980,283.160 382.800,283.600 382.800 C 284.040 382.800,284.400 382.620,284.400 382.400 C 284.400 382.180,284.760 382.000,285.200 382.000 C 285.640 382.000,286.000 381.820,286.000 381.600 C 286.000 381.380,286.360 381.200,286.800 381.200 C 287.240 381.200,287.600 381.020,287.600 380.800 C 287.600 380.580,287.960 380.400,288.400 380.400 C 288.840 380.400,289.200 380.220,289.200 380.000 C 289.200 379.780,289.560 379.600,290.000 379.600 C 290.440 379.600,290.800 379.420,290.800 379.200 C 290.800 378.980,291.160 378.800,291.600 378.800 C 292.040 378.800,292.400 378.620,292.400 378.400 C 292.400 378.180,292.760 378.000,293.200 378.000 C 293.640 378.000,294.000 377.820,294.000 377.600 C 294.000 377.380,294.360 377.200,294.800 377.200 C 295.240 377.200,295.600 377.020,295.600 376.800 C 295.600 376.580,295.960 376.400,296.400 376.400 C 296.840 376.400,297.200 376.220,297.200 376.000 C 297.200 375.780,297.520 375.600,297.912 375.600 C 298.303 375.600,298.883 375.240,299.200 374.800 C 299.517 374.360,300.097 374.000,300.488 374.000 C 300.880 374.000,301.200 373.820,301.200 373.600 C 301.200 373.380,301.560 373.200,302.000 373.200 C 302.440 373.200,302.800 373.020,302.800 372.800 C 302.800 372.580,303.036 372.400,303.325 372.400 C 303.613 372.400,304.236 372.040,304.708 371.600 C 305.180 371.160,305.804 370.800,306.095 370.800 C 306.386 370.800,306.883 370.440,307.200 370.000 C 307.517 369.560,308.057 369.200,308.400 369.200 C 308.743 369.200,309.283 368.840,309.600 368.400 C 309.917 367.960,310.497 367.600,310.888 367.600 C 311.280 367.600,311.600 367.420,311.600 367.200 C 311.600 366.980,311.843 366.800,312.141 366.800 C 312.438 366.800,313.246 366.260,313.937 365.600 C 314.628 364.940,315.425 364.400,315.708 364.400 C 315.991 364.400,316.483 364.040,316.800 363.600 C 317.117 363.160,317.580 362.800,317.829 362.800 C 318.078 362.800,318.846 362.260,319.537 361.600 C 320.228 360.940,320.953 360.400,321.148 360.400 C 321.344 360.400,322.245 359.680,323.152 358.800 C 324.059 357.920,324.995 357.200,325.232 357.200 C 325.469 357.200,326.354 356.480,327.200 355.600 C 328.046 354.720,328.918 354.000,329.138 354.000 C 329.358 354.000,330.814 352.740,332.372 351.200 C 333.931 349.660,335.374 348.400,335.581 348.400 C 336.070 348.400,348.400 336.070,348.400 335.581 C 348.400 335.374,349.660 333.931,351.200 332.372 C 352.740 330.814,354.000 329.358,354.000 329.138 C 354.000 328.918,354.720 328.046,355.600 327.200 C 356.480 326.354,357.200 325.469,357.200 325.232 C 357.200 324.995,357.920 324.059,358.800 323.152 C 359.680 322.245,360.400 321.344,360.400 321.148 C 360.400 320.953,360.940 320.228,361.600 319.537 C 362.260 318.846,362.800 318.078,362.800 317.829 C 362.800 317.580,363.160 317.117,363.600 316.800 C 364.040 316.483,364.400 315.991,364.400 315.708 C 364.400 315.425,364.940 314.628,365.600 313.937 C 366.260 313.246,366.800 312.438,366.800 312.141 C 366.800 311.843,366.980 311.600,367.200 311.600 C 367.420 311.600,367.600 311.280,367.600 310.888 C 367.600 310.497,367.960 309.917,368.400 309.600 C 368.840 309.283,369.200 308.743,369.200 308.400 C 369.200 308.057,369.560 307.517,370.000 307.200 C 370.440 306.883,370.800 306.386,370.800 306.095 C 370.800 305.804,371.160 305.180,371.600 304.708 C 372.040 304.236,372.400 303.613,372.400 303.325 C 372.400 303.036,372.580 302.800,372.800 302.800 C 373.020 302.800,373.200 302.440,373.200 302.000 C 373.200 301.560,373.380 301.200,373.600 301.200 C 373.820 301.200,374.000 300.880,374.000 300.488 C 374.000 300.097,374.360 299.517,374.800 299.200 C 375.240 298.883,375.600 298.303,375.600 297.912 C 375.600 297.520,375.780 297.200,376.000 297.200 C 376.220 297.200,376.400 296.840,376.400 296.400 C 376.400 295.960,376.580 295.600,376.800 295.600 C 377.020 295.600,377.200 295.240,377.200 294.800 C 377.200 294.360,377.380 294.000,377.600 294.000 C 377.820 294.000,378.000 293.640,378.000 293.200 C 378.000 292.760,378.180 292.400,378.400 292.400 C 378.620 292.400,378.800 292.040,378.800 291.600 C 378.800 291.160,378.980 290.800,379.200 290.800 C 379.420 290.800,379.600 290.440,379.600 290.000 C 379.600 289.560,379.780 289.200,380.000 289.200 C 380.220 289.200,380.400 288.840,380.400 288.400 C 380.400 287.960,380.580 287.600,380.800 287.600 C 381.020 287.600,381.200 287.240,381.200 286.800 C 381.200 286.360,381.380 286.000,381.600 286.000 C 381.820 286.000,382.000 285.640,382.000 285.200 C 382.000 284.760,382.180 284.400,382.400 284.400 C 382.620 284.400,382.800 284.040,382.800 283.600 C 382.800 283.160,382.980 282.800,383.200 282.800 C 383.420 282.800,383.600 282.451,383.600 282.024 C 383.600 281.597,383.780 281.136,384.000 281.000 C 384.220 280.864,384.400 280.313,384.400 279.776 C 384.400 279.239,384.580 278.800,384.800 278.800 C 385.020 278.800,385.200 278.440,385.200 278.000 C 385.200 277.560,385.380 277.200,385.600 277.200 C 385.820 277.200,386.000 276.660,386.000 276.000 C 386.000 275.340,386.180 274.800,386.400 274.800 C 386.620 274.800,386.800 274.440,386.800 274.000 C 386.800 273.560,386.980 273.200,387.200 273.200 C 387.420 273.200,387.600 272.660,387.600 272.000 C 387.600 271.340,387.780 270.800,388.000 270.800 C 388.220 270.800,388.400 270.440,388.400 270.000 C 388.400 269.560,388.580 269.200,388.800 269.200 C 389.020 269.200,389.200 268.660,389.200 268.000 C 389.200 267.340,389.380 266.800,389.600 266.800 C 389.820 266.800,390.000 266.260,390.000 265.600 C 390.000 264.940,390.180 264.400,390.400 264.400 C 390.620 264.400,390.800 263.860,390.800 263.200 C 390.800 262.540,390.980 262.000,391.200 262.000 C 391.420 262.000,391.600 261.460,391.600 260.800 C 391.600 260.140,391.780 259.600,392.000 259.600 C 392.220 259.600,392.400 258.880,392.400 258.000 C 392.400 257.120,392.580 256.400,392.800 256.400 C 393.020 256.400,393.200 255.871,393.200 255.224 C 393.200 254.577,393.380 253.936,393.600 253.800 C 393.820 253.664,394.000 252.933,394.000 252.176 C 394.000 251.419,394.180 250.800,394.400 250.800 C 394.620 250.800,394.800 250.080,394.800 249.200 C 394.800 248.320,394.980 247.600,395.200 247.600 C 395.420 247.600,395.600 246.891,395.600 246.024 C 395.600 245.157,395.780 244.336,396.000 244.200 C 396.220 244.064,396.400 243.153,396.400 242.176 C 396.400 241.199,396.580 240.400,396.800 240.400 C 397.022 240.400,397.200 239.333,397.200 238.000 C 397.200 236.667,397.378 235.600,397.600 235.600 C 397.820 235.600,398.000 234.700,398.000 233.600 C 398.000 232.500,398.180 231.600,398.400 231.600 C 398.633 231.600,398.800 230.278,398.800 228.433 C 398.800 226.256,398.956 225.215,399.300 225.100 C 399.693 224.969,399.800 219.591,399.800 200.000 C 399.800 180.409,399.693 175.031,399.300 174.900 C 398.956 174.785,398.800 173.744,398.800 171.567 C 398.800 169.722,398.633 168.400,398.400 168.400 C 398.180 168.400,398.000 167.500,398.000 166.400 C 398.000 165.300,397.820 164.400,397.600 164.400 C 397.378 164.400,397.200 163.333,397.200 162.000 C 397.200 160.667,397.022 159.600,396.800 159.600 C 396.580 159.600,396.400 158.801,396.400 157.824 C 396.400 156.847,396.220 155.936,396.000 155.800 C 395.780 155.664,395.600 154.843,395.600 153.976 C 395.600 153.109,395.420 152.400,395.200 152.400 C 394.980 152.400,394.800 151.680,394.800 150.800 C 394.800 149.920,394.620 149.200,394.400 149.200 C 394.180 149.200,394.000 148.581,394.000 147.824 C 394.000 147.067,393.820 146.336,393.600 146.200 C 393.380 146.064,393.200 145.423,393.200 144.776 C 393.200 144.129,393.020 143.600,392.800 143.600 C 392.580 143.600,392.400 142.880,392.400 142.000 C 392.400 141.120,392.220 140.400,392.000 140.400 C 391.780 140.400,391.600 139.860,391.600 139.200 C 391.600 138.540,391.420 138.000,391.200 138.000 C 390.980 138.000,390.800 137.460,390.800 136.800 C 390.800 136.140,390.620 135.600,390.400 135.600 C 390.180 135.600,390.000 135.060,390.000 134.400 C 390.000 133.740,389.820 133.200,389.600 133.200 C 389.380 133.200,389.200 132.660,389.200 132.000 C 389.200 131.340,389.020 130.800,388.800 130.800 C 388.580 130.800,388.400 130.440,388.400 130.000 C 388.400 129.560,388.220 129.200,388.000 129.200 C 387.780 129.200,387.600 128.660,387.600 128.000 C 387.600 127.340,387.420 126.800,387.200 126.800 C 386.980 126.800,386.800 126.440,386.800 126.000 C 386.800 125.560,386.620 125.200,386.400 125.200 C 386.180 125.200,386.000 124.660,386.000 124.000 C 386.000 123.340,385.820 122.800,385.600 122.800 C 385.380 122.800,385.200 122.440,385.200 122.000 C 385.200 121.560,385.020 121.200,384.800 121.200 C 384.580 121.200,384.400 120.761,384.400 120.224 C 384.400 119.687,384.220 119.136,384.000 119.000 C 383.780 118.864,383.600 118.403,383.600 117.976 C 383.600 117.549,383.420 117.200,383.200 117.200 C 382.980 117.200,382.800 116.840,382.800 116.400 C 382.800 115.960,382.620 115.600,382.400 115.600 C 382.180 115.600,382.000 115.240,382.000 114.800 C 382.000 114.360,381.820 114.000,381.600 114.000 C 381.380 114.000,381.200 113.640,381.200 113.200 C 381.200 112.760,381.020 112.400,380.800 112.400 C 380.580 112.400,380.400 112.040,380.400 111.600 C 380.400 111.160,380.220 110.800,380.000 110.800 C 379.780 110.800,379.600 110.440,379.600 110.000 C 379.600 109.560,379.420 109.200,379.200 109.200 C 378.980 109.200,378.800 108.840,378.800 108.400 C 378.800 107.960,378.620 107.600,378.400 107.600 C 378.180 107.600,378.000 107.240,378.000 106.800 C 378.000 106.360,377.820 106.000,377.600 106.000 C 377.380 106.000,377.200 105.640,377.200 105.200 C 377.200 104.760,377.020 104.400,376.800 104.400 C 376.580 104.400,376.400 104.040,376.400 103.600 C 376.400 103.160,376.220 102.800,376.000 102.800 C 375.780 102.800,375.600 102.480,375.600 102.088 C 375.600 101.697,375.240 101.117,374.800 100.800 C 374.360 100.483,374.000 99.903,374.000 99.512 C 374.000 99.120,373.820 98.800,373.600 98.800 C 373.380 98.800,373.200 98.440,373.200 98.000 C 373.200 97.560,373.020 97.200,372.800 97.200 C 372.580 97.200,372.400 96.964,372.400 96.675 C 372.400 96.387,372.040 95.764,371.600 95.292 C 371.160 94.820,370.800 94.196,370.800 93.905 C 370.800 93.614,370.440 93.117,370.000 92.800 C 369.560 92.483,369.200 91.943,369.200 91.600 C 369.200 91.257,368.840 90.717,368.400 90.400 C 367.960 90.083,367.600 89.503,367.600 89.112 C 367.600 88.720,367.420 88.400,367.200 88.400 C 366.980 88.400,366.800 88.157,366.800 87.859 C 366.800 87.562,366.260 86.754,365.600 86.063 C 364.940 85.372,364.400 84.575,364.400 84.292 C 364.400 84.009,364.040 83.517,363.600 83.200 C 363.160 82.883,362.800 82.420,362.800 82.171 C 362.800 81.922,362.260 81.154,361.600 80.463 C 360.940 79.772,360.400 79.047,360.400 78.852 C 360.400 78.656,359.680 77.755,358.800 76.848 C 357.920 75.941,357.200 75.005,357.200 74.768 C 357.200 74.531,356.480 73.646,355.600 72.800 C 354.720 71.954,354.000 71.082,354.000 70.862 C 354.000 70.642,352.740 69.186,351.200 67.628 C 349.660 66.069,348.400 64.626,348.400 64.419 C 348.400 63.930,336.070 51.600,335.581 51.600 C 335.374 51.600,333.931 50.340,332.372 48.800 C 330.814 47.260,329.358 46.000,329.138 46.000 C 328.918 46.000,328.046 45.280,327.200 44.400 C 326.354 43.520,325.469 42.800,325.232 42.800 C 324.995 42.800,324.059 42.080,323.152 41.200 C 322.245 40.320,321.344 39.600,321.148 39.600 C 320.953 39.600,320.228 39.060,319.537 38.400 C 318.846 37.740,318.078 37.200,317.829 37.200 C 317.580 37.200,317.117 36.840,316.800 36.400 C 316.483 35.960,315.991 35.600,315.708 35.600 C 315.425 35.600,314.628 35.060,313.937 34.400 C 313.246 33.740,312.438 33.200,312.141 33.200 C 311.843 33.200,311.600 33.020,311.600 32.800 C 311.600 32.580,311.280 32.400,310.888 32.400 C 310.497 32.400,309.917 32.040,309.600 31.600 C 309.283 31.160,308.743 30.800,308.400 30.800 C 308.057 30.800,307.517 30.440,307.200 30.000 C 306.883 29.560,306.386 29.200,306.095 29.200 C 305.804 29.200,305.180 28.840,304.708 28.400 C 304.236 27.960,303.613 27.600,303.325 27.600 C 303.036 27.600,302.800 27.420,302.800 27.200 C 302.800 26.980,302.440 26.800,302.000 26.800 C 301.560 26.800,301.200 26.620,301.200 26.400 C 301.200 26.180,300.880 26.000,300.488 26.000 C 300.097 26.000,299.517 25.640,299.200 25.200 C 298.883 24.760,298.303 24.400,297.912 24.400 C 297.520 24.400,297.200 24.220,297.200 24.000 C 297.200 23.780,296.840 23.600,296.400 23.600 C 295.960 23.600,295.600 23.420,295.600 23.200 C 295.600 22.980,295.240 22.800,294.800 22.800 C 294.360 22.800,294.000 22.620,294.000 22.400 C 294.000 22.180,293.640 22.000,293.200 22.000 C 292.760 22.000,292.400 21.820,292.400 21.600 C 292.400 21.380,292.040 21.200,291.600 21.200 C 291.160 21.200,290.800 21.020,290.800 20.800 C 290.800 20.580,290.440 20.400,290.000 20.400 C 289.560 20.400,289.200 20.220,289.200 20.000 C 289.200 19.780,288.840 19.600,288.400 19.600 C 287.960 19.600,287.600 19.420,287.600 19.200 C 287.600 18.980,287.240 18.800,286.800 18.800 C 286.360 18.800,286.000 18.620,286.000 18.400 C 286.000 18.180,285.640 18.000,285.200 18.000 C 284.760 18.000,284.400 17.820,284.400 17.600 C 284.400 17.380,284.040 17.200,283.600 17.200 C 283.160 17.200,282.800 17.020,282.800 16.800 C 282.800 16.580,282.451 16.400,282.024 16.400 C 281.597 16.400,281.136 16.220,281.000 16.000 C 280.864 15.780,280.313 15.600,279.776 15.600 C 279.239 15.600,278.800 15.420,278.800 15.200 C 278.800 14.980,278.440 14.800,278.000 14.800 C 277.560 14.800,277.200 14.620,277.200 14.400 C 277.200 14.180,276.660 14.000,276.000 14.000 C 275.340 14.000,274.800 13.820,274.800 13.600 C 274.800 13.380,274.440 13.200,274.000 13.200 C 273.560 13.200,273.200 13.020,273.200 12.800 C 273.200 12.580,272.660 12.400,272.000 12.400 C 271.340 12.400,270.800 12.220,270.800 12.000 C 270.800 11.780,270.440 11.600,270.000 11.600 C 269.560 11.600,269.200 11.420,269.200 11.200 C 269.200 10.980,268.660 10.800,268.000 10.800 C 267.340 10.800,266.800 10.620,266.800 10.400 C 266.800 10.180,266.260 10.000,265.600 10.000 C 264.940 10.000,264.400 9.820,264.400 9.600 C 264.400 9.380,263.860 9.200,263.200 9.200 C 262.540 9.200,262.000 9.020,262.000 8.800 C 262.000 8.580,261.460 8.400,260.800 8.400 C 260.140 8.400,259.600 8.220,259.600 8.000 C 259.600 7.780,258.880 7.600,258.000 7.600 C 257.120 7.600,256.400 7.420,256.400 7.200 C 256.400 6.980,255.871 6.800,255.224 6.800 C 254.577 6.800,253.936 6.620,253.800 6.400 C 253.664 6.180,252.933 6.000,252.176 6.000 C 251.419 6.000,250.800 5.820,250.800 5.600 C 250.800 5.380,250.080 5.200,249.200 5.200 C 248.320 5.200,247.600 5.020,247.600 4.800 C 247.600 4.580,246.891 4.400,246.024 4.400 C 245.157 4.400,244.336 4.220,244.200 4.000 C 244.064 3.780,243.153 3.600,242.176 3.600 C 241.199 3.600,240.400 3.420,240.400 3.200 C 240.400 2.978,239.333 2.800,238.000 2.800 C 236.667 2.800,235.600 2.622,235.600 2.400 C 235.600 2.180,234.700 2.000,233.600 2.000 C 232.500 2.000,231.600 1.820,231.600 1.600 C 231.600 1.367,230.278 1.200,228.433 1.200 C 226.304 1.200,225.214 1.041,225.105 0.714 C 224.944 0.233,187.802 -0.118,178.500 0.274 M131.520 162.880 C 131.887 163.247,132.000 172.763,132.000 203.272 L 132.000 243.185 131.100 243.405 C 130.605 243.526,126.060 243.575,121.000 243.513 L 111.800 243.400 111.697 203.400 C 111.640 181.400,111.680 163.175,111.784 162.900 C 112.052 162.197,130.818 162.178,131.520 162.880 M188.881 163.100 C 189.213 163.485,191.593 169.650,194.169 176.800 C 196.744 183.950,199.200 190.745,199.626 191.900 C 200.052 193.055,200.748 194.945,201.174 196.100 C 201.600 197.255,204.312 204.770,207.200 212.800 C 210.088 220.830,212.800 228.345,213.226 229.500 C 217.584 241.318,218.090 242.870,217.714 243.246 C 217.504 243.456,212.912 243.568,206.995 243.507 L 196.643 243.400 194.422 236.999 C 193.200 233.478,192.054 230.373,191.876 230.099 C 191.406 229.374,163.066 229.375,162.524 230.100 C 162.318 230.375,161.363 233.030,160.401 236.000 C 159.440 238.970,158.412 241.895,158.116 242.500 L 157.579 243.600 147.413 243.600 C 136.193 243.600,136.382 243.647,137.327 241.069 C 137.663 240.151,140.304 232.830,143.195 224.800 C 146.086 216.770,148.800 209.255,149.226 208.100 C 149.652 206.945,150.360 205.010,150.800 203.800 C 151.240 202.590,151.948 200.655,152.374 199.500 C 152.800 198.345,155.152 191.820,157.600 185.000 C 164.694 165.240,165.511 163.105,166.138 162.706 C 167.251 161.998,188.243 162.361,188.881 163.100 M243.140 162.927 C 243.444 163.294,243.611 171.363,243.689 189.427 C 243.815 218.880,243.706 217.852,247.090 221.616 C 251.857 226.917,263.716 226.488,267.796 220.866 C 270.667 216.910,270.578 217.867,270.695 189.600 C 270.753 175.630,270.893 163.795,271.008 163.300 L 271.215 162.400 280.759 162.400 C 288.543 162.400,290.389 162.505,290.776 162.972 C 291.774 164.174,291.133 216.776,290.074 220.600 C 285.948 235.496,273.500 244.400,256.800 244.400 C 239.081 244.400,226.661 234.626,223.764 218.400 C 223.008 214.171,222.950 162.968,223.700 162.665 C 224.943 162.163,242.705 162.403,243.140 162.927 M177.046 186.800 C 176.343 188.502,168.400 212.659,168.400 213.093 C 168.400 213.683,185.797 213.852,186.160 213.265 C 186.310 213.022,178.868 190.241,177.449 186.600 C 177.363 186.380,177.182 186.470,177.046 186.800 " stroke="none" fill="#fbfbfb" fill-rule="evenodd"></path><path id="path2" d="M223.692 189.300 C 223.743 203.655,223.833 211.260,223.891 206.200 C 224.168 182.386,224.172 163.200,223.900 163.200 C 223.735 163.200,223.642 174.945,223.692 189.300 M242.701 179.700 C 242.756 188.775,242.850 200.250,242.909 205.200 C 242.968 210.150,243.057 202.725,243.108 188.700 C 243.159 174.675,243.065 163.200,242.900 163.200 C 242.735 163.200,242.645 170.625,242.701 179.700 M271.388 187.800 C 271.388 201.440,271.438 207.078,271.500 200.329 C 271.561 193.580,271.561 182.420,271.500 175.529 C 271.438 168.638,271.388 174.160,271.388 187.800 M290.400 188.120 L 290.600 213.000 290.703 188.423 C 290.760 174.906,290.670 163.710,290.503 163.543 C 290.336 163.376,290.290 174.436,290.400 188.120 M189.050 164.800 C 189.425 166.305,190.334 168.284,190.338 167.600 C 190.339 167.270,189.994 166.280,189.571 165.400 C 189.148 164.520,188.914 164.250,189.050 164.800 M163.815 169.015 C 163.430 170.024,163.204 170.937,163.313 171.046 C 163.421 171.155,163.800 170.393,164.154 169.354 C 164.508 168.315,164.734 167.401,164.657 167.323 C 164.579 167.246,164.200 168.007,163.815 169.015 M190.650 169.200 C 191.025 170.705,191.934 172.684,191.938 172.000 C 191.939 171.670,191.594 170.680,191.171 169.800 C 190.748 168.920,190.514 168.650,190.650 169.200 M192.250 173.600 C 192.625 175.105,193.534 177.084,193.538 176.400 C 193.539 176.070,193.194 175.080,192.771 174.200 C 192.348 173.320,192.114 173.050,192.250 173.600 M161.800 174.400 C 161.650 174.873,161.617 175.350,161.727 175.460 C 161.837 175.570,162.050 175.273,162.200 174.800 C 162.350 174.327,162.383 173.850,162.273 173.740 C 162.163 173.630,161.950 173.927,161.800 174.400 M160.615 177.815 C 160.230 178.824,160.004 179.737,160.113 179.846 C 160.221 179.955,160.600 179.193,160.954 178.154 C 161.308 177.115,161.534 176.201,161.457 176.123 C 161.379 176.046,161.000 176.807,160.615 177.815 M193.850 178.000 C 194.225 179.505,195.134 181.484,195.138 180.800 C 195.139 180.470,194.794 179.480,194.371 178.600 C 193.948 177.720,193.714 177.450,193.850 178.000 M159.015 182.215 C 158.630 183.224,158.404 184.137,158.513 184.246 C 158.621 184.355,159.000 183.593,159.354 182.554 C 159.708 181.515,159.934 180.601,159.857 180.523 C 159.779 180.446,159.400 181.207,159.015 182.215 M157.415 186.615 C 157.030 187.624,156.804 188.537,156.913 188.646 C 157.021 188.755,157.400 187.993,157.754 186.954 C 158.108 185.915,158.334 185.001,158.257 184.923 C 158.179 184.846,157.800 185.607,157.415 186.615 M176.437 186.065 C 176.195 186.761,176.078 187.412,176.179 187.512 C 176.279 187.612,176.479 187.223,176.624 186.647 C 176.940 185.388,177.449 185.295,177.810 186.430 C 177.954 186.887,178.153 187.180,178.251 187.082 C 178.499 186.834,177.540 184.800,177.175 184.800 C 177.012 184.800,176.680 185.369,176.437 186.065 M155.815 191.015 C 155.430 192.024,155.204 192.937,155.313 193.046 C 155.421 193.155,155.800 192.393,156.154 191.354 C 156.508 190.315,156.734 189.401,156.657 189.323 C 156.579 189.246,156.200 190.007,155.815 191.015 M179.212 190.400 C 179.212 190.730,179.387 191.270,179.600 191.600 C 179.945 192.133,179.988 192.133,179.988 191.600 C 179.988 191.270,179.813 190.730,179.600 190.400 C 179.255 189.867,179.212 189.867,179.212 190.400 M180.012 192.800 C 180.012 193.130,180.187 193.670,180.400 194.000 C 180.745 194.533,180.788 194.533,180.788 194.000 C 180.788 193.670,180.613 193.130,180.400 192.800 C 180.055 192.267,180.012 192.267,180.012 192.800 M199.450 193.600 C 199.825 195.105,200.734 197.084,200.738 196.400 C 200.739 196.070,200.394 195.080,199.971 194.200 C 199.548 193.320,199.314 193.050,199.450 193.600 M180.812 195.200 C 180.812 195.530,180.987 196.070,181.200 196.400 C 181.545 196.933,181.588 196.933,181.588 196.400 C 181.588 196.070,181.413 195.530,181.200 195.200 C 180.855 194.667,180.812 194.667,180.812 195.200 M173.000 196.000 C 172.850 196.473,172.817 196.950,172.927 197.060 C 173.037 197.170,173.250 196.873,173.400 196.400 C 173.550 195.927,173.583 195.450,173.473 195.340 C 173.363 195.230,173.150 195.527,173.000 196.000 M181.612 197.600 C 181.612 197.930,181.787 198.470,182.000 198.800 C 182.345 199.333,182.388 199.333,182.388 198.800 C 182.388 198.470,182.213 197.930,182.000 197.600 C 181.655 197.067,181.612 197.067,181.612 197.600 M172.200 198.400 C 172.050 198.873,172.017 199.350,172.127 199.460 C 172.237 199.570,172.450 199.273,172.600 198.800 C 172.750 198.327,172.783 197.850,172.673 197.740 C 172.563 197.630,172.350 197.927,172.200 198.400 M201.612 199.600 C 201.612 199.930,201.787 200.470,202.000 200.800 C 202.345 201.333,202.388 201.333,202.388 200.800 C 202.388 200.470,202.213 199.930,202.000 199.600 C 201.655 199.067,201.612 199.067,201.612 199.600 M182.412 200.000 C 182.412 200.330,182.587 200.870,182.800 201.200 C 183.145 201.733,183.188 201.733,183.188 201.200 C 183.188 200.870,183.013 200.330,182.800 200.000 C 182.455 199.467,182.412 199.467,182.412 200.000 M171.400 200.800 C 171.250 201.273,171.217 201.750,171.327 201.860 C 171.437 201.970,171.650 201.673,171.800 201.200 C 171.950 200.727,171.983 200.250,171.873 200.140 C 171.763 200.030,171.550 200.327,171.400 200.800 M202.650 202.400 C 203.025 203.905,203.934 205.884,203.938 205.200 C 203.939 204.870,203.594 203.880,203.171 203.000 C 202.748 202.120,202.514 201.850,202.650 202.400 M183.262 202.400 C 183.261 202.730,183.606 203.720,184.029 204.600 C 184.452 205.480,184.686 205.750,184.550 205.200 C 184.175 203.695,183.266 201.716,183.262 202.400 M170.600 203.200 C 170.450 203.673,170.417 204.150,170.527 204.260 C 170.637 204.370,170.850 204.073,171.000 203.600 C 171.150 203.127,171.183 202.650,171.073 202.540 C 170.963 202.430,170.750 202.727,170.600 203.200 M150.215 206.615 C 149.830 207.624,149.604 208.537,149.713 208.646 C 149.821 208.755,150.200 207.993,150.554 206.954 C 150.908 205.915,151.134 205.001,151.057 204.923 C 150.979 204.846,150.600 205.607,150.215 206.615 M169.800 205.600 C 169.650 206.073,169.617 206.550,169.727 206.660 C 169.837 206.770,170.050 206.473,170.200 206.000 C 170.350 205.527,170.383 205.050,170.273 204.940 C 170.163 204.830,169.950 205.127,169.800 205.600 M169.000 208.000 C 168.850 208.473,168.817 208.950,168.927 209.060 C 169.037 209.170,169.250 208.873,169.400 208.400 C 169.550 207.927,169.583 207.450,169.473 207.340 C 169.363 207.230,169.150 207.527,169.000 208.000 M204.812 208.400 C 204.812 208.730,204.987 209.270,205.200 209.600 C 205.545 210.133,205.588 210.133,205.588 209.600 C 205.588 209.270,205.413 208.730,205.200 208.400 C 204.855 207.867,204.812 207.867,204.812 208.400 M168.200 210.400 C 168.050 210.873,168.017 211.350,168.127 211.460 C 168.237 211.570,168.450 211.273,168.600 210.800 C 168.750 210.327,168.783 209.850,168.673 209.740 C 168.563 209.630,168.350 209.927,168.200 210.400 M205.850 211.200 C 206.225 212.705,207.134 214.684,207.138 214.000 C 207.139 213.670,206.794 212.680,206.371 211.800 C 205.948 210.920,205.714 210.650,205.850 211.200 M148.200 212.000 C 148.050 212.473,148.017 212.950,148.127 213.060 C 148.237 213.170,148.450 212.873,148.600 212.400 C 148.750 211.927,148.783 211.450,148.673 211.340 C 148.563 211.230,148.350 211.527,148.200 212.000 M186.524 212.400 L 186.600 213.800 177.418 213.800 L 168.236 213.800 167.989 212.800 L 167.741 211.800 167.445 212.696 C 166.903 214.335,167.279 214.400,177.236 214.400 C 187.710 214.400,187.712 214.400,186.862 212.113 C 186.449 211.004,186.448 211.005,186.524 212.400 M147.015 215.415 C 146.630 216.424,146.404 217.337,146.513 217.446 C 146.621 217.555,147.000 216.793,147.354 215.754 C 148.190 213.299,147.925 213.034,147.015 215.415 M270.622 215.422 C 270.472 216.225,270.438 216.972,270.548 217.082 C 270.658 217.192,270.872 216.625,271.022 215.822 C 271.173 215.019,271.206 214.273,271.096 214.163 C 270.986 214.053,270.773 214.619,270.622 215.422 M207.450 215.600 C 207.825 217.105,208.734 219.084,208.738 218.400 C 208.739 218.070,208.394 217.080,207.971 216.200 C 207.548 215.320,207.314 215.050,207.450 215.600 M243.256 215.400 C 243.256 215.840,243.411 216.560,243.600 217.000 L 243.944 217.800 243.944 217.000 C 243.944 216.560,243.789 215.840,243.600 215.400 L 243.256 214.600 243.256 215.400 M289.846 217.147 C 289.689 218.327,289.646 219.379,289.750 219.483 C 290.017 219.750,290.522 216.164,290.307 215.525 C 290.211 215.236,290.003 215.966,289.846 217.147 M224.087 217.400 C 224.083 218.060,224.224 219.050,224.400 219.600 L 224.720 220.600 224.713 219.600 C 224.709 219.050,224.568 218.060,224.400 217.400 L 224.095 216.200 224.087 217.400 M269.395 219.210 C 268.707 220.738,267.041 222.512,264.796 224.109 L 263.800 224.818 265.000 224.243 C 267.164 223.207,271.017 218.483,270.290 217.757 C 270.200 217.666,269.797 218.320,269.395 219.210 M244.001 218.300 C 244.012 220.417,249.800 225.635,252.087 225.590 C 252.369 225.584,251.465 225.029,250.079 224.357 C 247.608 223.159,245.640 221.136,244.770 218.900 C 244.430 218.027,243.998 217.690,244.001 218.300 M145.000 220.800 C 144.850 221.273,144.817 221.750,144.927 221.860 C 145.037 221.970,145.250 221.673,145.400 221.200 C 145.550 220.727,145.583 220.250,145.473 220.140 C 145.363 220.030,145.150 220.327,145.000 220.800 M224.834 221.400 C 224.822 221.840,224.987 222.470,225.200 222.800 C 225.714 223.595,225.714 222.596,225.200 221.400 L 224.856 220.600 224.834 221.400 M143.815 224.215 C 143.430 225.224,143.204 226.137,143.313 226.246 C 143.421 226.355,143.800 225.593,144.154 224.554 C 144.990 222.099,144.725 221.834,143.815 224.215 M225.609 223.851 C 225.596 224.522,226.817 227.316,227.031 227.103 C 227.132 227.002,226.855 226.127,226.416 225.160 C 225.977 224.192,225.614 223.603,225.609 223.851 M262.000 225.200 C 261.467 225.545,261.467 225.588,262.000 225.588 C 262.330 225.588,262.870 225.413,263.200 225.200 C 263.733 224.855,263.733 224.812,263.200 224.812 C 262.870 224.812,262.330 224.987,262.000 225.200 M254.931 226.072 C 256.053 226.280,257.812 226.281,259.131 226.076 C 261.228 225.750,261.081 225.723,257.200 225.719 C 253.570 225.716,253.262 225.764,254.931 226.072 M142.215 228.615 C 141.830 229.624,141.604 230.537,141.713 230.646 C 141.821 230.755,142.200 229.993,142.554 228.954 C 143.390 226.499,143.125 226.234,142.215 228.615 M227.200 227.818 C 227.200 228.462,231.340 234.028,232.846 235.409 C 235.169 237.540,237.579 239.354,237.797 239.136 C 237.894 239.040,236.901 238.180,235.591 237.226 C 233.082 235.399,230.207 232.178,228.527 229.312 C 227.598 227.726,227.200 227.278,227.200 227.818 M284.987 230.092 C 283.335 232.587,280.241 235.736,277.766 237.441 C 275.512 238.993,274.951 239.574,276.500 238.749 C 279.600 237.099,287.082 229.348,286.315 228.581 C 286.206 228.473,285.608 229.152,284.987 230.092 M161.000 231.600 C 160.850 232.073,160.817 232.550,160.927 232.660 C 161.037 232.770,161.250 232.473,161.400 232.000 C 161.550 231.527,161.583 231.050,161.473 230.940 C 161.363 230.830,161.150 231.127,161.000 231.600 M213.612 232.800 C 213.612 233.130,213.787 233.670,214.000 234.000 C 214.345 234.533,214.388 234.533,214.388 234.000 C 214.388 233.670,214.213 233.130,214.000 232.800 C 213.655 232.267,213.612 232.267,213.612 232.800 M193.612 233.200 C 193.612 233.530,193.787 234.070,194.000 234.400 C 194.345 234.933,194.388 234.933,194.388 234.400 C 194.388 234.070,194.213 233.530,194.000 233.200 C 193.655 232.667,193.612 232.667,193.612 233.200 M160.200 234.000 C 160.050 234.473,160.017 234.950,160.127 235.060 C 160.237 235.170,160.450 234.873,160.600 234.400 C 160.750 233.927,160.783 233.450,160.673 233.340 C 160.563 233.230,160.350 233.527,160.200 234.000 M194.412 235.600 C 194.412 235.930,194.587 236.470,194.800 236.800 C 195.145 237.333,195.188 237.333,195.188 236.800 C 195.188 236.470,195.013 235.930,194.800 235.600 C 194.455 235.067,194.412 235.067,194.412 235.600 M159.400 236.400 C 159.250 236.873,159.217 237.350,159.327 237.460 C 159.437 237.570,159.650 237.273,159.800 236.800 C 159.950 236.327,159.983 235.850,159.873 235.740 C 159.763 235.630,159.550 235.927,159.400 236.400 M215.212 237.200 C 215.212 237.530,215.387 238.070,215.600 238.400 C 215.945 238.933,215.988 238.933,215.988 238.400 C 215.988 238.070,215.813 237.530,215.600 237.200 C 215.255 236.667,215.212 236.667,215.212 237.200 M195.200 237.847 C 195.200 237.984,195.594 239.244,196.076 240.647 L 196.952 243.200 207.276 243.200 C 218.636 243.200,218.075 243.353,216.800 240.600 C 215.898 238.651,215.794 238.914,216.582 241.150 L 217.165 242.800 207.215 242.800 L 197.265 242.800 196.400 240.200 C 195.640 237.916,195.200 237.054,195.200 237.847 M158.246 239.846 C 157.410 242.301,157.675 242.566,158.585 240.185 C 158.970 239.176,159.196 238.263,159.087 238.154 C 158.979 238.045,158.600 238.807,158.246 239.846 M238.400 239.396 C 238.400 239.670,240.849 240.884,241.032 240.701 C 241.119 240.614,240.562 240.244,239.795 239.878 C 239.028 239.512,238.400 239.295,238.400 239.396 M273.600 240.000 C 272.830 240.422,272.344 240.774,272.520 240.783 C 272.944 240.805,275.200 239.632,275.200 239.390 C 275.200 239.128,275.177 239.137,273.600 240.000 M268.200 242.000 L 267.400 242.344 268.200 242.366 C 268.640 242.378,269.270 242.213,269.600 242.000 C 270.395 241.486,269.396 241.486,268.200 242.000 M137.200 242.900 C 137.200 243.065,141.790 243.200,147.400 243.200 C 153.010 243.200,157.600 243.065,157.600 242.900 C 157.600 242.735,153.010 242.600,147.400 242.600 C 141.790 242.600,137.200 242.735,137.200 242.900 M246.600 242.781 C 247.368 243.129,249.510 243.356,249.167 243.053 C 249.075 242.972,248.280 242.796,247.400 242.662 C 246.285 242.493,246.042 242.529,246.600 242.781 M265.200 242.800 L 264.200 243.120 265.200 243.154 C 265.750 243.173,266.470 243.013,266.800 242.800 C 267.564 242.306,266.742 242.306,265.200 242.800 M116.700 243.099 C 119.395 243.168,123.805 243.168,126.500 243.099 C 129.195 243.030,126.990 242.973,121.600 242.973 C 116.210 242.973,114.005 243.030,116.700 243.099 M250.876 243.660 C 252.055 243.992,261.022 243.986,262.577 243.653 C 263.225 243.514,260.649 243.400,256.854 243.400 C 253.058 243.400,250.368 243.517,250.876 243.660 " stroke="none" fill="#7c7c8c" fill-rule="evenodd"></path><path id="path3" d="M111.867 162.667 C 111.720 162.813,111.603 163.128,111.606 163.367 C 111.610 163.619,111.747 163.588,111.934 163.293 C 112.183 162.901,114.437 162.810,121.828 162.893 L 131.400 163.000 131.603 203.200 L 131.806 243.400 131.903 203.380 C 131.977 172.678,131.888 163.248,131.520 162.880 C 131.000 162.360,112.375 162.158,111.867 162.667 M166.137 162.706 C 165.882 162.868,169.482 162.953,174.137 162.896 C 187.970 162.726,189.322 162.566,177.600 162.487 C 171.550 162.446,166.391 162.544,166.137 162.706 M223.737 162.706 C 223.483 162.868,227.713 163.000,233.137 163.000 L 243.000 163.000 243.204 188.600 L 243.409 214.200 243.504 188.780 C 243.577 169.434,243.485 163.245,243.120 162.880 C 242.582 162.342,224.565 162.181,223.737 162.706 M280.800 162.789 L 290.600 163.000 290.804 188.600 L 291.009 214.200 291.104 188.780 C 291.177 169.434,291.085 163.245,290.720 162.880 C 290.368 162.528,287.672 162.424,280.620 162.489 L 271.000 162.579 280.800 162.789 M270.988 187.800 C 270.988 201.440,271.038 207.078,271.100 200.329 C 271.161 193.580,271.161 182.420,271.100 175.529 C 271.038 168.638,270.988 174.160,270.988 187.800 M164.091 166.900 C 163.410 168.784,163.504 169.294,164.226 167.630 C 164.553 166.877,164.766 166.099,164.701 165.902 C 164.635 165.705,164.360 166.154,164.091 166.900 M162.491 171.300 C 161.810 173.184,161.904 173.694,162.626 172.030 C 162.953 171.277,163.166 170.499,163.101 170.302 C 163.035 170.105,162.760 170.554,162.491 171.300 M199.216 191.454 C 199.207 191.704,199.463 192.514,199.784 193.254 C 200.106 193.994,200.376 194.396,200.384 194.146 C 200.393 193.896,200.137 193.086,199.816 192.346 C 199.494 191.606,199.224 191.204,199.216 191.454 M200.816 195.854 C 200.807 196.104,201.063 196.914,201.384 197.654 C 201.706 198.394,201.976 198.796,201.984 198.546 C 201.993 198.296,201.737 197.486,201.416 196.746 C 201.094 196.006,200.824 195.604,200.816 195.854 M150.491 204.500 C 149.810 206.384,149.904 206.894,150.626 205.230 C 150.953 204.477,151.166 203.699,151.101 203.502 C 151.035 203.305,150.760 203.754,150.491 204.500 M184.416 207.054 C 184.407 207.304,184.663 208.114,184.984 208.854 C 185.306 209.594,185.576 209.996,185.584 209.746 C 185.593 209.496,185.337 208.686,185.016 207.946 C 184.694 207.206,184.424 206.804,184.416 207.054 M148.891 208.900 C 148.210 210.784,148.304 211.294,149.026 209.630 C 149.353 208.877,149.566 208.099,149.501 207.902 C 149.435 207.705,149.160 208.154,148.891 208.900 M168.249 211.815 C 168.112 212.173,168.015 212.766,168.034 213.133 C 168.053 213.500,168.227 213.269,168.421 212.620 C 168.798 211.358,168.665 210.733,168.249 211.815 M223.309 214.400 C 223.309 215.390,223.387 215.795,223.482 215.300 C 223.578 214.805,223.578 213.995,223.482 213.500 C 223.387 213.005,223.309 213.410,223.309 214.400 M290.501 216.600 C 290.505 217.480,290.587 217.793,290.683 217.295 C 290.779 216.798,290.775 216.078,290.675 215.695 C 290.575 215.313,290.496 215.720,290.501 216.600 M269.932 216.400 C 269.806 216.950,269.578 217.760,269.426 218.200 C 269.274 218.640,269.442 218.495,269.799 217.877 C 270.157 217.259,270.385 216.449,270.305 216.077 C 270.202 215.594,270.095 215.687,269.932 216.400 M244.032 216.600 C 244.030 217.040,244.286 217.850,244.600 218.400 C 245.330 219.678,245.334 219.404,244.612 217.400 C 244.295 216.520,244.034 216.160,244.032 216.600 M223.693 217.600 C 223.693 218.370,223.775 218.685,223.876 218.300 C 223.976 217.915,223.976 217.285,223.876 216.900 C 223.775 216.515,223.693 216.830,223.693 217.600 M267.785 220.900 C 267.168 221.835,266.920 222.389,267.232 222.131 C 267.833 221.634,269.364 219.200,269.076 219.200 C 268.983 219.200,268.402 219.965,267.785 220.900 M245.513 220.200 C 245.745 220.640,246.618 221.630,247.453 222.400 C 248.833 223.672,247.657 222.158,245.278 219.600 C 245.175 219.490,245.281 219.760,245.513 220.200 M255.113 225.495 C 256.276 225.576,258.076 225.576,259.113 225.493 C 260.151 225.411,259.200 225.345,257.000 225.346 C 254.800 225.347,253.951 225.414,255.113 225.495 M212.816 229.054 C 212.807 229.304,213.063 230.114,213.384 230.854 C 213.706 231.594,213.976 231.996,213.984 231.746 C 213.993 231.496,213.737 230.686,213.416 229.946 C 213.094 229.206,212.824 228.804,212.816 229.054 M162.349 229.900 C 161.861 230.522,161.872 230.544,162.447 230.095 C 162.947 229.705,166.362 229.614,177.435 229.695 L 191.777 229.800 192.282 230.800 C 192.561 231.350,192.791 231.563,192.794 231.274 C 192.818 229.157,193.133 229.200,177.435 229.200 C 164.066 229.200,162.854 229.256,162.349 229.900 M284.800 231.200 C 284.330 231.860,284.036 232.400,284.146 232.400 C 284.256 232.400,284.730 231.860,285.200 231.200 C 285.670 230.540,285.964 230.000,285.854 230.000 C 285.744 230.000,285.270 230.540,284.800 231.200 M229.600 232.525 C 229.600 232.594,230.185 233.179,230.900 233.825 L 232.200 235.000 231.025 233.700 C 229.930 232.488,229.600 232.216,229.600 232.525 M282.000 234.600 C 281.028 235.590,280.323 236.400,280.433 236.400 C 280.543 236.400,281.428 235.590,282.400 234.600 C 283.372 233.610,284.077 232.800,283.967 232.800 C 283.857 232.800,282.972 233.610,282.000 234.600 M214.416 233.454 C 214.407 233.704,214.663 234.514,214.984 235.254 C 215.306 235.994,215.576 236.396,215.584 236.146 C 215.593 235.896,215.337 235.086,215.016 234.346 C 214.694 233.606,214.424 233.204,214.416 233.454 M233.564 236.535 C 234.149 237.263,236.400 238.977,236.400 238.694 C 236.400 238.606,235.635 237.926,234.700 237.183 C 233.765 236.440,233.254 236.148,233.564 236.535 M277.487 238.168 C 275.126 239.802,274.564 240.375,276.306 239.372 C 277.650 238.599,279.956 236.823,279.600 236.836 C 279.490 236.841,278.539 237.440,277.487 238.168 M137.031 241.818 C 136.891 242.379,136.882 243.009,137.011 243.218 C 137.291 243.670,157.460 243.750,157.739 243.300 C 157.841 243.135,153.246 243.051,147.528 243.113 L 137.131 243.226 137.397 242.013 C 137.719 240.549,137.393 240.375,137.031 241.818 M217.600 242.533 C 217.600 243.328,197.055 243.580,196.663 242.790 C 196.552 242.565,196.506 242.610,196.563 242.890 C 196.734 243.736,217.536 243.833,217.859 242.989 C 217.991 242.646,217.987 242.253,217.849 242.116 C 217.712 241.979,217.600 242.167,217.600 242.533 M111.947 243.307 C 112.116 243.476,116.562 243.566,121.827 243.507 L 131.400 243.399 121.519 243.199 C 116.085 243.090,111.777 243.138,111.947 243.307 M254.100 244.297 C 255.585 244.374,258.015 244.374,259.500 244.297 C 260.985 244.220,259.770 244.157,256.800 244.157 C 253.830 244.157,252.615 244.220,254.100 244.297 " stroke="none" fill="#bcbcc4" fill-rule="evenodd"></path><path id="path4" d="M121.598 163.096 L 131.196 163.214 131.301 203.307 L 131.406 243.400 131.403 203.200 L 131.400 163.000 121.700 162.989 L 112.000 162.978 121.598 163.096 M171.900 163.099 C 175.035 163.167,180.165 163.167,183.300 163.099 C 186.435 163.032,183.870 162.976,177.600 162.976 C 171.330 162.976,168.765 163.032,171.900 163.099 M228.723 163.099 C 231.431 163.168,235.751 163.168,238.323 163.099 C 240.895 163.029,238.680 162.972,233.400 162.973 C 228.120 162.973,226.015 163.030,228.723 163.099 M274.400 163.079 C 282.834 163.364,290.709 163.374,290.539 163.100 C 290.437 162.935,285.998 162.837,280.676 162.882 C 275.354 162.927,272.530 163.016,274.400 163.079 M223.388 188.000 C 223.388 201.750,223.438 207.375,223.500 200.500 C 223.561 193.625,223.561 182.375,223.500 175.500 C 223.438 168.625,223.388 174.250,223.388 188.000 M111.792 203.200 C 111.792 225.090,111.841 234.045,111.900 223.100 C 111.959 212.155,111.959 194.245,111.900 183.300 C 111.841 172.355,111.792 181.310,111.792 203.200 M290.493 214.000 C 290.493 214.770,290.575 215.085,290.676 214.700 C 290.776 214.315,290.776 213.685,290.676 213.300 C 290.575 212.915,290.493 213.230,290.493 214.000 M172.923 213.899 C 175.520 213.969,179.660 213.968,182.123 213.898 C 184.585 213.828,182.460 213.771,177.400 213.772 C 172.340 213.772,170.325 213.829,172.923 213.899 M162.349 229.500 C 161.864 230.119,161.874 230.143,162.435 229.705 C 162.906 229.338,166.774 229.182,177.435 229.100 L 191.800 228.990 177.349 228.895 C 163.995 228.807,162.856 228.853,162.349 229.500 " stroke="none" fill="#a6a9af" fill-rule="evenodd"></path></g></svg>