<svg id="svg" version="1.1" xmlns="http://www.w3.org/2000/svg" xmlns:xlink="http://www.w3.org/1999/xlink" width="400" height="400" viewBox="0, 0, 400,400"><g id="svgg"><path id="path0" d="M193.200 80.149 C 193.200 95.199,193.063 102.838,192.789 103.007 C 192.563 103.147,191.258 102.983,189.889 102.644 C 188.520 102.304,184.727 101.385,181.461 100.601 C 178.194 99.817,170.758 98.012,164.936 96.588 C 159.114 95.165,154.272 94.000,154.175 94.000 C 154.079 94.000,153.997 104.035,153.994 116.300 C 153.991 128.565,153.837 138.837,153.653 139.127 C 153.385 139.550,151.974 139.326,146.559 138.000 C 142.842 137.091,137.190 135.720,134.000 134.954 C 130.810 134.188,125.276 132.839,121.702 131.956 C 118.128 131.073,115.023 130.462,114.802 130.599 C 114.156 130.998,114.254 276.985,114.900 277.503 C 115.175 277.723,117.110 278.300,119.200 278.784 C 121.290 279.269,128.040 280.896,134.200 282.400 C 140.360 283.904,147.110 285.527,149.200 286.007 C 154.490 287.221,154.000 284.706,154.000 310.622 L 154.000 333.092 156.900 333.788 C 158.495 334.170,164.899 335.727,171.130 337.248 C 177.362 338.769,184.382 340.465,186.730 341.017 C 189.079 341.569,191.311 342.116,191.690 342.234 C 192.338 342.434,192.387 341.038,192.490 319.857 C 192.551 307.432,192.725 297.142,192.877 296.989 C 193.030 296.837,195.910 297.377,199.277 298.190 C 207.639 300.207,226.071 304.681,228.958 305.394 C 230.255 305.714,231.470 305.881,231.658 305.764 C 231.846 305.648,232.000 295.494,232.000 283.200 C 232.000 270.906,232.149 260.755,232.331 260.643 C 232.512 260.530,234.447 260.869,236.631 261.396 C 238.814 261.922,242.850 262.894,245.600 263.554 C 248.350 264.215,255.069 265.848,260.531 267.182 C 265.993 268.517,270.628 269.506,270.831 269.381 C 271.446 269.001,271.316 122.989,270.700 122.503 C 270.425 122.286,267.410 121.436,264.000 120.615 C 244.231 115.850,234.829 113.561,233.500 113.188 L 232.000 112.768 231.994 90.284 C 231.991 77.918,231.840 67.567,231.660 67.283 C 231.480 66.999,228.377 66.067,224.766 65.212 C 221.155 64.358,213.700 62.557,208.200 61.210 C 202.700 59.863,197.390 58.583,196.400 58.366 C 195.410 58.149,194.285 57.875,193.900 57.758 C 193.239 57.558,193.200 58.808,193.200 80.149 M153.600 169.597 C 166.722 172.784,186.744 177.635,193.400 179.239 C 197.530 180.234,200.396 181.128,200.700 181.515 C 201.227 182.187,201.478 266.410,200.957 267.767 C 200.619 268.648,200.761 268.671,189.926 266.029 C 184.577 264.724,178.310 263.204,176.000 262.650 C 173.690 262.096,167.660 260.636,162.600 259.406 C 157.540 258.175,152.230 256.892,150.800 256.554 C 149.370 256.215,147.615 255.758,146.900 255.538 L 145.600 255.138 145.600 211.569 C 145.600 170.343,145.638 168.000,146.300 167.997 C 146.685 167.995,149.970 168.715,153.600 169.597 " stroke="none" fill="#142444" fill-rule="evenodd"></path><path id="path1" d="M178.500 0.274 C 176.465 0.360,174.800 0.603,174.800 0.815 C 174.800 1.030,173.383 1.200,171.600 1.200 C 169.733 1.200,168.400 1.367,168.400 1.600 C 168.400 1.820,167.511 2.000,166.424 2.000 C 165.337 2.000,164.336 2.180,164.200 2.400 C 164.064 2.620,162.973 2.800,161.776 2.800 C 160.579 2.800,159.600 2.980,159.600 3.200 C 159.600 3.420,158.801 3.600,157.824 3.600 C 156.847 3.600,155.936 3.780,155.800 4.000 C 155.664 4.220,154.843 4.400,153.976 4.400 C 153.109 4.400,152.400 4.580,152.400 4.800 C 152.400 5.020,151.680 5.200,150.800 5.200 C 149.920 5.200,149.200 5.380,149.200 5.600 C 149.200 5.820,148.581 6.000,147.824 6.000 C 147.067 6.000,146.336 6.180,146.200 6.400 C 146.064 6.620,145.423 6.800,144.776 6.800 C 144.129 6.800,143.600 6.980,143.600 7.200 C 143.600 7.420,142.880 7.600,142.000 7.600 C 141.120 7.600,140.400 7.780,140.400 8.000 C 140.400 8.220,139.860 8.400,139.200 8.400 C 138.540 8.400,138.000 8.580,138.000 8.800 C 138.000 9.020,137.460 9.200,136.800 9.200 C 136.140 9.200,135.600 9.380,135.600 9.600 C 135.600 9.820,135.060 10.000,134.400 10.000 C 133.740 10.000,133.200 10.180,133.200 10.400 C 133.200 10.620,132.660 10.800,132.000 10.800 C 131.340 10.800,130.800 10.980,130.800 11.200 C 130.800 11.420,130.440 11.600,130.000 11.600 C 129.560 11.600,129.200 11.780,129.200 12.000 C 129.200 12.220,128.660 12.400,128.000 12.400 C 127.340 12.400,126.800 12.580,126.800 12.800 C 126.800 13.020,126.440 13.200,126.000 13.200 C 125.560 13.200,125.200 13.380,125.200 13.600 C 125.200 13.820,124.660 14.000,124.000 14.000 C 123.340 14.000,122.800 14.180,122.800 14.400 C 122.800 14.620,122.440 14.800,122.000 14.800 C 121.560 14.800,121.200 14.980,121.200 15.200 C 121.200 15.420,120.761 15.600,120.224 15.600 C 119.687 15.600,119.136 15.780,119.000 16.000 C 118.864 16.220,118.403 16.400,117.976 16.400 C 117.549 16.400,117.200 16.580,117.200 16.800 C 117.200 17.020,116.840 17.200,116.400 17.200 C 115.960 17.200,115.600 17.380,115.600 17.600 C 115.600 17.820,115.240 18.000,114.800 18.000 C 114.360 18.000,114.000 18.180,114.000 18.400 C 114.000 18.620,113.640 18.800,113.200 18.800 C 112.760 18.800,112.400 18.980,112.400 19.200 C 112.400 19.420,112.040 19.600,111.600 19.600 C 111.160 19.600,110.800 19.780,110.800 20.000 C 110.800 20.220,110.440 20.400,110.000 20.400 C 109.560 20.400,109.200 20.580,109.200 20.800 C 109.200 21.020,108.840 21.200,108.400 21.200 C 107.960 21.200,107.600 21.380,107.600 21.600 C 107.600 21.820,107.240 22.000,106.800 22.000 C 106.360 22.000,106.000 22.180,106.000 22.400 C 106.000 22.620,105.640 22.800,105.200 22.800 C 104.760 22.800,104.400 22.980,104.400 23.200 C 104.400 23.420,104.040 23.600,103.600 23.600 C 103.160 23.600,102.800 23.780,102.800 24.000 C 102.800 24.220,102.480 24.400,102.088 24.400 C 101.697 24.400,101.117 24.760,100.800 25.200 C 100.483 25.640,99.903 26.000,99.512 26.000 C 99.120 26.000,98.800 26.180,98.800 26.400 C 98.800 26.620,98.440 26.800,98.000 26.800 C 97.560 26.800,97.200 26.980,97.200 27.200 C 97.200 27.420,96.964 27.600,96.675 27.600 C 96.387 27.600,95.764 27.960,95.292 28.400 C 94.820 28.840,94.196 29.200,93.905 29.200 C 93.614 29.200,93.117 29.560,92.800 30.000 C 92.483 30.440,91.943 30.800,91.600 30.800 C 91.257 30.800,90.717 31.160,90.400 31.600 C 90.083 32.040,89.503 32.400,89.112 32.400 C 88.720 32.400,88.400 32.550,88.400 32.732 C 88.400 32.915,87.905 33.319,87.300 33.630 C 86.695 33.940,85.909 34.511,85.553 34.897 C 85.197 35.284,84.652 35.600,84.341 35.600 C 84.031 35.600,83.517 35.960,83.200 36.400 C 82.883 36.840,82.420 37.200,82.171 37.200 C 81.922 37.200,81.154 37.740,80.463 38.400 C 79.772 39.060,79.047 39.600,78.852 39.600 C 78.656 39.600,77.755 40.320,76.848 41.200 C 75.941 42.080,75.005 42.800,74.768 42.800 C 74.531 42.800,73.646 43.520,72.800 44.400 C 71.954 45.280,71.084 46.000,70.866 46.000 C 70.648 46.000,69.413 47.035,68.121 48.300 C 66.829 49.565,65.072 51.128,64.217 51.773 C 62.202 53.293,53.293 62.202,51.773 64.217 C 51.128 65.072,49.565 66.829,48.300 68.121 C 47.035 69.413,46.000 70.648,46.000 70.866 C 46.000 71.084,45.280 71.954,44.400 72.800 C 43.520 73.646,42.800 74.531,42.800 74.768 C 42.800 75.005,42.080 75.941,41.200 76.848 C 40.320 77.755,39.600 78.656,39.600 78.852 C 39.600 79.047,39.060 79.772,38.400 80.463 C 37.740 81.154,37.200 81.922,37.200 82.171 C 37.200 82.420,36.840 82.883,36.400 83.200 C 35.960 83.517,35.600 84.031,35.600 84.341 C 35.600 84.652,35.284 85.197,34.897 85.553 C 34.511 85.909,33.940 86.695,33.630 87.300 C 33.319 87.905,32.915 88.400,32.732 88.400 C 32.550 88.400,32.400 88.720,32.400 89.112 C 32.400 89.503,32.040 90.083,31.600 90.400 C 31.160 90.717,30.800 91.257,30.800 91.600 C 30.800 91.943,30.440 92.483,30.000 92.800 C 29.560 93.117,29.200 93.614,29.200 93.905 C 29.200 94.196,28.840 94.820,28.400 95.292 C 27.960 95.764,27.600 96.387,27.600 96.675 C 27.600 96.964,27.420 97.200,27.200 97.200 C 26.980 97.200,26.800 97.560,26.800 98.000 C 26.800 98.440,26.620 98.800,26.400 98.800 C 26.180 98.800,26.000 99.120,26.000 99.512 C 26.000 99.903,25.640 100.483,25.200 100.800 C 24.760 101.117,24.400 101.697,24.400 102.088 C 24.400 102.480,24.220 102.800,24.000 102.800 C 23.780 102.800,23.600 103.160,23.600 103.600 C 23.600 104.040,23.420 104.400,23.200 104.400 C 22.980 104.400,22.800 104.760,22.800 105.200 C 22.800 105.640,22.620 106.000,22.400 106.000 C 22.180 106.000,22.000 106.360,22.000 106.800 C 22.000 107.240,21.820 107.600,21.600 107.600 C 21.380 107.600,21.200 107.960,21.200 108.400 C 21.200 108.840,21.020 109.200,20.800 109.200 C 20.580 109.200,20.400 109.560,20.400 110.000 C 20.400 110.440,20.220 110.800,20.000 110.800 C 19.780 110.800,19.600 111.160,19.600 111.600 C 19.600 112.040,19.420 112.400,19.200 112.400 C 18.980 112.400,18.800 112.760,18.800 113.200 C 18.800 113.640,18.620 114.000,18.400 114.000 C 18.180 114.000,18.000 114.360,18.000 114.800 C 18.000 115.240,17.820 115.600,17.600 115.600 C 17.380 115.600,17.200 115.960,17.200 116.400 C 17.200 116.840,17.020 117.200,16.800 117.200 C 16.580 117.200,16.400 117.549,16.400 117.976 C 16.400 118.403,16.220 118.864,16.000 119.000 C 15.780 119.136,15.600 119.687,15.600 120.224 C 15.600 120.761,15.420 121.200,15.200 121.200 C 14.980 121.200,14.800 121.560,14.800 122.000 C 14.800 122.440,14.620 122.800,14.400 122.800 C 14.180 122.800,14.000 123.340,14.000 124.000 C 14.000 124.660,13.820 125.200,13.600 125.200 C 13.380 125.200,13.200 125.560,13.200 126.000 C 13.200 126.440,13.020 126.800,12.800 126.800 C 12.580 126.800,12.400 127.340,12.400 128.000 C 12.400 128.660,12.220 129.200,12.000 129.200 C 11.780 129.200,11.600 129.560,11.600 130.000 C 11.600 130.440,11.420 130.800,11.200 130.800 C 10.980 130.800,10.800 131.340,10.800 132.000 C 10.800 132.660,10.620 133.200,10.400 133.200 C 10.180 133.200,10.000 133.740,10.000 134.400 C 10.000 135.060,9.820 135.600,9.600 135.600 C 9.380 135.600,9.200 136.140,9.200 136.800 C 9.200 137.460,9.020 138.000,8.800 138.000 C 8.580 138.000,8.400 138.540,8.400 139.200 C 8.400 139.860,8.220 140.400,8.000 140.400 C 7.780 140.400,7.600 141.120,7.600 142.000 C 7.600 142.880,7.420 143.600,7.200 143.600 C 6.980 143.600,6.800 144.129,6.800 144.776 C 6.800 145.423,6.620 146.064,6.400 146.200 C 6.180 146.336,6.000 147.067,6.000 147.824 C 6.000 148.581,5.820 149.200,5.600 149.200 C 5.380 149.200,5.200 149.920,5.200 150.800 C 5.200 151.680,5.020 152.400,4.800 152.400 C 4.580 152.400,4.400 153.109,4.400 153.976 C 4.400 154.843,4.220 155.664,4.000 155.800 C 3.780 155.936,3.600 156.847,3.600 157.824 C 3.600 158.801,3.420 159.600,3.200 159.600 C 2.980 159.600,2.800 160.579,2.800 161.776 C 2.800 162.973,2.620 164.064,2.400 164.200 C 2.180 164.336,2.000 165.337,2.000 166.424 C 2.000 167.511,1.820 168.400,1.600 168.400 C 1.367 168.400,1.200 169.722,1.200 171.567 C 1.200 173.744,1.044 174.785,0.700 174.900 C -0.032 175.144,-0.032 224.856,0.700 225.100 C 1.044 225.215,1.200 226.256,1.200 228.433 C 1.200 230.278,1.367 231.600,1.600 231.600 C 1.820 231.600,2.000 232.489,2.000 233.576 C 2.000 234.663,2.180 235.664,2.400 235.800 C 2.620 235.936,2.800 237.027,2.800 238.224 C 2.800 239.421,2.980 240.400,3.200 240.400 C 3.420 240.400,3.600 241.199,3.600 242.176 C 3.600 243.153,3.780 244.064,4.000 244.200 C 4.220 244.336,4.400 245.157,4.400 246.024 C 4.400 246.891,4.580 247.600,4.800 247.600 C 5.020 247.600,5.200 248.320,5.200 249.200 C 5.200 250.080,5.380 250.800,5.600 250.800 C 5.820 250.800,6.000 251.419,6.000 252.176 C 6.000 252.933,6.180 253.664,6.400 253.800 C 6.620 253.936,6.800 254.577,6.800 255.224 C 6.800 255.871,6.980 256.400,7.200 256.400 C 7.420 256.400,7.600 257.120,7.600 258.000 C 7.600 258.880,7.780 259.600,8.000 259.600 C 8.220 259.600,8.400 260.140,8.400 260.800 C 8.400 261.460,8.580 262.000,8.800 262.000 C 9.020 262.000,9.200 262.540,9.200 263.200 C 9.200 263.860,9.380 264.400,9.600 264.400 C 9.820 264.400,10.000 264.940,10.000 265.600 C 10.000 266.260,10.180 266.800,10.400 266.800 C 10.620 266.800,10.800 267.340,10.800 268.000 C 10.800 268.660,10.980 269.200,11.200 269.200 C 11.420 269.200,11.600 269.560,11.600 270.000 C 11.600 270.440,11.780 270.800,12.000 270.800 C 12.220 270.800,12.400 271.340,12.400 272.000 C 12.400 272.660,12.580 273.200,12.800 273.200 C 13.020 273.200,13.200 273.560,13.200 274.000 C 13.200 274.440,13.380 274.800,13.600 274.800 C 13.820 274.800,14.000 275.340,14.000 276.000 C 14.000 276.660,14.180 277.200,14.400 277.200 C 14.620 277.200,14.800 277.560,14.800 278.000 C 14.800 278.440,14.980 278.800,15.200 278.800 C 15.420 278.800,15.600 279.239,15.600 279.776 C 15.600 280.313,15.780 280.864,16.000 281.000 C 16.220 281.136,16.400 281.597,16.400 282.024 C 16.400 282.451,16.580 282.800,16.800 282.800 C 17.020 282.800,17.200 283.160,17.200 283.600 C 17.200 284.040,17.380 284.400,17.600 284.400 C 17.820 284.400,18.000 284.760,18.000 285.200 C 18.000 285.640,18.180 286.000,18.400 286.000 C 18.620 286.000,18.800 286.360,18.800 286.800 C 18.800 287.240,18.980 287.600,19.200 287.600 C 19.420 287.600,19.600 287.960,19.600 288.400 C 19.600 288.840,19.780 289.200,20.000 289.200 C 20.220 289.200,20.400 289.560,20.400 290.000 C 20.400 290.440,20.580 290.800,20.800 290.800 C 21.020 290.800,21.200 291.160,21.200 291.600 C 21.200 292.040,21.380 292.400,21.600 292.400 C 21.820 292.400,22.000 292.760,22.000 293.200 C 22.000 293.640,22.180 294.000,22.400 294.000 C 22.620 294.000,22.800 294.360,22.800 294.800 C 22.800 295.240,22.980 295.600,23.200 295.600 C 23.420 295.600,23.600 295.960,23.600 296.400 C 23.600 296.840,23.780 297.200,24.000 297.200 C 24.220 297.200,24.400 297.520,24.400 297.912 C 24.400 298.303,24.760 298.883,25.200 299.200 C 25.640 299.517,26.000 300.097,26.000 300.488 C 26.000 300.880,26.180 301.200,26.400 301.200 C 26.620 301.200,26.800 301.560,26.800 302.000 C 26.800 302.440,26.980 302.800,27.200 302.800 C 27.420 302.800,27.600 303.036,27.600 303.325 C 27.600 303.613,27.960 304.236,28.400 304.708 C 28.840 305.180,29.200 305.804,29.200 306.095 C 29.200 306.386,29.560 306.883,30.000 307.200 C 30.440 307.517,30.800 308.057,30.800 308.400 C 30.800 308.743,31.160 309.283,31.600 309.600 C 32.040 309.917,32.400 310.497,32.400 310.888 C 32.400 311.280,32.550 311.600,32.732 311.600 C 32.915 311.600,33.319 312.095,33.630 312.700 C 33.940 313.305,34.511 314.091,34.897 314.447 C 35.284 314.803,35.600 315.348,35.600 315.659 C 35.600 315.969,35.960 316.483,36.400 316.800 C 36.840 317.117,37.200 317.580,37.200 317.829 C 37.200 318.078,37.740 318.846,38.400 319.537 C 39.060 320.228,39.600 320.953,39.600 321.148 C 39.600 321.344,40.320 322.245,41.200 323.152 C 42.080 324.059,42.800 324.995,42.800 325.232 C 42.800 325.469,43.520 326.354,44.400 327.200 C 45.280 328.046,46.000 328.916,46.000 329.134 C 46.000 329.352,47.035 330.587,48.300 331.879 C 49.565 333.171,51.128 334.928,51.773 335.783 C 53.293 337.798,62.202 346.707,64.217 348.227 C 65.072 348.872,66.829 350.435,68.121 351.700 C 69.413 352.965,70.648 354.000,70.866 354.000 C 71.084 354.000,71.954 354.720,72.800 355.600 C 73.646 356.480,74.531 357.200,74.768 357.200 C 75.005 357.200,75.941 357.920,76.848 358.800 C 77.755 359.680,78.656 360.400,78.852 360.400 C 79.047 360.400,79.772 360.940,80.463 361.600 C 81.154 362.260,81.922 362.800,82.171 362.800 C 82.420 362.800,82.883 363.160,83.200 363.600 C 83.517 364.040,84.031 364.400,84.341 364.400 C 84.652 364.400,85.197 364.716,85.553 365.103 C 85.909 365.489,86.695 366.060,87.300 366.370 C 87.905 366.681,88.400 367.085,88.400 367.268 C 88.400 367.450,88.720 367.600,89.112 367.600 C 89.503 367.600,90.083 367.960,90.400 368.400 C 90.717 368.840,91.257 369.200,91.600 369.200 C 91.943 369.200,92.483 369.560,92.800 370.000 C 93.117 370.440,93.614 370.800,93.905 370.800 C 94.196 370.800,94.820 371.160,95.292 371.600 C 95.764 372.040,96.387 372.400,96.675 372.400 C 96.964 372.400,97.200 372.580,97.200 372.800 C 97.200 373.020,97.560 373.200,98.000 373.200 C 98.440 373.200,98.800 373.380,98.800 373.600 C 98.800 373.820,99.120 374.000,99.512 374.000 C 99.903 374.000,100.483 374.360,100.800 374.800 C 101.117 375.240,101.697 375.600,102.088 375.600 C 102.480 375.600,102.800 375.780,102.800 376.000 C 102.800 376.220,103.160 376.400,103.600 376.400 C 104.040 376.400,104.400 376.580,104.400 376.800 C 104.400 377.020,104.760 377.200,105.200 377.200 C 105.640 377.200,106.000 377.380,106.000 377.600 C 106.000 377.820,106.360 378.000,106.800 378.000 C 107.240 378.000,107.600 378.180,107.600 378.400 C 107.600 378.620,107.960 378.800,108.400 378.800 C 108.840 378.800,109.200 378.980,109.200 379.200 C 109.200 379.420,109.560 379.600,110.000 379.600 C 110.440 379.600,110.800 379.780,110.800 380.000 C 110.800 380.220,111.160 380.400,111.600 380.400 C 112.040 380.400,112.400 380.580,112.400 380.800 C 112.400 381.020,112.760 381.200,113.200 381.200 C 113.640 381.200,114.000 381.380,114.000 381.600 C 114.000 381.820,114.360 382.000,114.800 382.000 C 115.240 382.000,115.600 382.180,115.600 382.400 C 115.600 382.620,115.960 382.800,116.400 382.800 C 116.840 382.800,117.200 382.980,117.200 383.200 C 117.200 383.420,117.549 383.600,117.976 383.600 C 118.403 383.600,118.864 383.780,119.000 384.000 C 119.136 384.220,119.687 384.400,120.224 384.400 C 120.761 384.400,121.200 384.580,121.200 384.800 C 121.200 385.020,121.560 385.200,122.000 385.200 C 122.440 385.200,122.800 385.380,122.800 385.600 C 122.800 385.820,123.340 386.000,124.000 386.000 C 124.660 386.000,125.200 386.180,125.200 386.400 C 125.200 386.620,125.560 386.800,126.000 386.800 C 126.440 386.800,126.800 386.980,126.800 387.200 C 126.800 387.420,127.340 387.600,128.000 387.600 C 128.660 387.600,129.200 387.780,129.200 388.000 C 129.200 388.220,129.560 388.400,130.000 388.400 C 130.440 388.400,130.800 388.580,130.800 388.800 C 130.800 389.020,131.340 389.200,132.000 389.200 C 132.660 389.200,133.200 389.380,133.200 389.600 C 133.200 389.820,133.740 390.000,134.400 390.000 C 135.060 390.000,135.600 390.180,135.600 390.400 C 135.600 390.620,136.140 390.800,136.800 390.800 C 137.460 390.800,138.000 390.980,138.000 391.200 C 138.000 391.420,138.540 391.600,139.200 391.600 C 139.860 391.600,140.400 391.780,140.400 392.000 C 140.400 392.220,141.120 392.400,142.000 392.400 C 142.880 392.400,143.600 392.580,143.600 392.800 C 143.600 393.020,144.129 393.200,144.776 393.200 C 145.423 393.200,146.064 393.380,146.200 393.600 C 146.336 393.820,147.067 394.000,147.824 394.000 C 148.581 394.000,149.200 394.180,149.200 394.400 C 149.200 394.620,149.920 394.800,150.800 394.800 C 151.680 394.800,152.400 394.980,152.400 395.200 C 152.400 395.420,153.109 395.600,153.976 395.600 C 154.843 395.600,155.664 395.780,155.800 396.000 C 155.936 396.220,156.847 396.400,157.824 396.400 C 158.801 396.400,159.600 396.580,159.600 396.800 C 159.600 397.020,160.579 397.200,161.776 397.200 C 162.973 397.200,164.064 397.380,164.200 397.600 C 164.336 397.820,165.337 398.000,166.424 398.000 C 167.511 398.000,168.400 398.180,168.400 398.400 C 168.400 398.633,169.722 398.800,171.567 398.800 C 173.744 398.800,174.785 398.956,174.900 399.300 C 175.144 400.032,224.856 400.032,225.100 399.300 C 225.215 398.956,226.256 398.800,228.433 398.800 C 230.278 398.800,231.600 398.633,231.600 398.400 C 231.600 398.180,232.489 398.000,233.576 398.000 C 234.663 398.000,235.664 397.820,235.800 397.600 C 235.936 397.380,237.027 397.200,238.224 397.200 C 239.421 397.200,240.400 397.020,240.400 396.800 C 240.400 396.580,241.199 396.400,242.176 396.400 C 243.153 396.400,244.064 396.220,244.200 396.000 C 244.336 395.780,245.157 395.600,246.024 395.600 C 246.891 395.600,247.600 395.420,247.600 395.200 C 247.600 394.980,248.320 394.800,249.200 394.800 C 250.080 394.800,250.800 394.620,250.800 394.400 C 250.800 394.180,251.419 394.000,252.176 394.000 C 252.933 394.000,253.664 393.820,253.800 393.600 C 253.936 393.380,254.577 393.200,255.224 393.200 C 255.871 393.200,256.400 393.020,256.400 392.800 C 256.400 392.580,257.120 392.400,258.000 392.400 C 258.880 392.400,259.600 392.220,259.600 392.000 C 259.600 391.780,260.140 391.600,260.800 391.600 C 261.460 391.600,262.000 391.420,262.000 391.200 C 262.000 390.980,262.540 390.800,263.200 390.800 C 263.860 390.800,264.400 390.620,264.400 390.400 C 264.400 390.180,264.940 390.000,265.600 390.000 C 266.260 390.000,266.800 389.820,266.800 389.600 C 266.800 389.380,267.340 389.200,268.000 389.200 C 268.660 389.200,269.200 389.020,269.200 388.800 C 269.200 388.580,269.560 388.400,270.000 388.400 C 270.440 388.400,270.800 388.220,270.800 388.000 C 270.800 387.780,271.340 387.600,272.000 387.600 C 272.660 387.600,273.200 387.420,273.200 387.200 C 273.200 386.980,273.560 386.800,274.000 386.800 C 274.440 386.800,274.800 386.620,274.800 386.400 C 274.800 386.180,275.340 386.000,276.000 386.000 C 276.660 386.000,277.200 385.820,277.200 385.600 C 277.200 385.380,277.560 385.200,278.000 385.200 C 278.440 385.200,278.800 385.020,278.800 384.800 C 278.800 384.580,279.239 384.400,279.776 384.400 C 280.313 384.400,280.864 384.220,281.000 384.000 C 281.136 383.780,281.597 383.600,282.024 383.600 C 282.451 383.600,282.800 383.420,282.800 383.200 C 282.800 382.980,283.160 382.800,283.600 382.800 C 284.040 382.800,284.400 382.620,284.400 382.400 C 284.400 382.180,284.760 382.000,285.200 382.000 C 285.640 382.000,286.000 381.820,286.000 381.600 C 286.000 381.380,286.360 381.200,286.800 381.200 C 287.240 381.200,287.600 381.020,287.600 380.800 C 287.600 380.580,287.960 380.400,288.400 380.400 C 288.840 380.400,289.200 380.220,289.200 380.000 C 289.200 379.780,289.560 379.600,290.000 379.600 C 290.440 379.600,290.800 379.420,290.800 379.200 C 290.800 378.980,291.160 378.800,291.600 378.800 C 292.040 378.800,292.400 378.620,292.400 378.400 C 292.400 378.180,292.760 378.000,293.200 378.000 C 293.640 378.000,294.000 377.820,294.000 377.600 C 294.000 377.380,294.360 377.200,294.800 377.200 C 295.240 377.200,295.600 377.020,295.600 376.800 C 295.600 376.580,295.960 376.400,296.400 376.400 C 296.840 376.400,297.200 376.220,297.200 376.000 C 297.200 375.780,297.520 375.600,297.912 375.600 C 298.303 375.600,298.883 375.240,299.200 374.800 C 299.517 374.360,300.097 374.000,300.488 374.000 C 300.880 374.000,301.200 373.820,301.200 373.600 C 301.200 373.380,301.560 373.200,302.000 373.200 C 302.440 373.200,302.800 373.020,302.800 372.800 C 302.800 372.580,303.036 372.400,303.325 372.400 C 303.613 372.400,304.236 372.040,304.708 371.600 C 305.180 371.160,305.804 370.800,306.095 370.800 C 306.386 370.800,306.883 370.440,307.200 370.000 C 307.517 369.560,308.057 369.200,308.400 369.200 C 308.743 369.200,309.283 368.840,309.600 368.400 C 309.917 367.960,310.497 367.600,310.888 367.600 C 311.280 367.600,311.600 367.450,311.600 367.268 C 311.600 367.085,312.095 366.681,312.700 366.370 C 313.305 366.060,314.091 365.489,314.447 365.103 C 314.803 364.716,315.348 364.400,315.659 364.400 C 315.969 364.400,316.483 364.040,316.800 363.600 C 317.117 363.160,317.580 362.800,317.829 362.800 C 318.078 362.800,318.846 362.260,319.537 361.600 C 320.228 360.940,320.953 360.400,321.148 360.400 C 321.344 360.400,322.245 359.680,323.152 358.800 C 324.059 357.920,324.995 357.200,325.232 357.200 C 325.469 357.200,326.354 356.480,327.200 355.600 C 328.046 354.720,328.916 354.000,329.134 354.000 C 329.352 354.000,330.587 352.965,331.879 351.700 C 333.171 350.435,334.928 348.872,335.783 348.227 C 337.798 346.707,346.707 337.798,348.227 335.783 C 348.872 334.928,350.435 333.171,351.700 331.879 C 352.965 330.587,354.000 329.352,354.000 329.134 C 354.000 328.916,354.720 328.046,355.600 327.200 C 356.480 326.354,357.200 325.469,357.200 325.232 C 357.200 324.995,357.920 324.059,358.800 323.152 C 359.680 322.245,360.400 321.344,360.400 321.148 C 360.400 320.953,360.940 320.228,361.600 319.537 C 362.260 318.846,362.800 318.078,362.800 317.829 C 362.800 317.580,363.160 317.117,363.600 316.800 C 364.040 316.483,364.400 315.969,364.400 315.659 C 364.400 315.348,364.716 314.803,365.103 314.447 C 365.489 314.091,366.060 313.305,366.370 312.700 C 366.681 312.095,367.085 311.600,367.268 311.600 C 367.450 311.600,367.600 311.280,367.600 310.888 C 367.600 310.497,367.960 309.917,368.400 309.600 C 368.840 309.283,369.200 308.743,369.200 308.400 C 369.200 308.057,369.560 307.517,370.000 307.200 C 370.440 306.883,370.800 306.386,370.800 306.095 C 370.800 305.804,371.160 305.180,371.600 304.708 C 372.040 304.236,372.400 303.613,372.400 303.325 C 372.400 303.036,372.580 302.800,372.800 302.800 C 373.020 302.800,373.200 302.440,373.200 302.000 C 373.200 301.560,373.380 301.200,373.600 301.200 C 373.820 301.200,374.000 300.880,374.000 300.488 C 374.000 300.097,374.360 299.517,374.800 299.200 C 375.240 298.883,375.600 298.303,375.600 297.912 C 375.600 297.520,375.780 297.200,376.000 297.200 C 376.220 297.200,376.400 296.840,376.400 296.400 C 376.400 295.960,376.580 295.600,376.800 295.600 C 377.020 295.600,377.200 295.240,377.200 294.800 C 377.200 294.360,377.380 294.000,377.600 294.000 C 377.820 294.000,378.000 293.640,378.000 293.200 C 378.000 292.760,378.180 292.400,378.400 292.400 C 378.620 292.400,378.800 292.040,378.800 291.600 C 378.800 291.160,378.980 290.800,379.200 290.800 C 379.420 290.800,379.600 290.440,379.600 290.000 C 379.600 289.560,379.780 289.200,380.000 289.200 C 380.220 289.200,380.400 288.840,380.400 288.400 C 380.400 287.960,380.580 287.600,380.800 287.600 C 381.020 287.600,381.200 287.240,381.200 286.800 C 381.200 286.360,381.380 286.000,381.600 286.000 C 381.820 286.000,382.000 285.640,382.000 285.200 C 382.000 284.760,382.180 284.400,382.400 284.400 C 382.620 284.400,382.800 284.040,382.800 283.600 C 382.800 283.160,382.980 282.800,383.200 282.800 C 383.420 282.800,383.600 282.451,383.600 282.024 C 383.600 281.597,383.780 281.136,384.000 281.000 C 384.220 280.864,384.400 280.313,384.400 279.776 C 384.400 279.239,384.580 278.800,384.800 278.800 C 385.020 278.800,385.200 278.440,385.200 278.000 C 385.200 277.560,385.380 277.200,385.600 277.200 C 385.820 277.200,386.000 276.660,386.000 276.000 C 386.000 275.340,386.180 274.800,386.400 274.800 C 386.620 274.800,386.800 274.440,386.800 274.000 C 386.800 273.560,386.980 273.200,387.200 273.200 C 387.420 273.200,387.600 272.660,387.600 272.000 C 387.600 271.340,387.780 270.800,388.000 270.800 C 388.220 270.800,388.400 270.440,388.400 270.000 C 388.400 269.560,388.580 269.200,388.800 269.200 C 389.020 269.200,389.200 268.660,389.200 268.000 C 389.200 267.340,389.380 266.800,389.600 266.800 C 389.820 266.800,390.000 266.260,390.000 265.600 C 390.000 264.940,390.180 264.400,390.400 264.400 C 390.620 264.400,390.800 263.860,390.800 263.200 C 390.800 262.540,390.980 262.000,391.200 262.000 C 391.420 262.000,391.600 261.460,391.600 260.800 C 391.600 260.140,391.780 259.600,392.000 259.600 C 392.220 259.600,392.400 258.880,392.400 258.000 C 392.400 257.120,392.580 256.400,392.800 256.400 C 393.020 256.400,393.200 255.871,393.200 255.224 C 393.200 254.577,393.380 253.936,393.600 253.800 C 393.820 253.664,394.000 252.933,394.000 252.176 C 394.000 251.419,394.180 250.800,394.400 250.800 C 394.620 250.800,394.800 250.080,394.800 249.200 C 394.800 248.320,394.980 247.600,395.200 247.600 C 395.420 247.600,395.600 246.891,395.600 246.024 C 395.600 245.157,395.780 244.336,396.000 244.200 C 396.220 244.064,396.400 243.153,396.400 242.176 C 396.400 241.199,396.580 240.400,396.800 240.400 C 397.020 240.400,397.200 239.421,397.200 238.224 C 397.200 237.027,397.380 235.936,397.600 235.800 C 397.820 235.664,398.000 234.663,398.000 233.576 C 398.000 232.489,398.180 231.600,398.400 231.600 C 398.633 231.600,398.800 230.278,398.800 228.433 C 398.800 226.256,398.956 225.215,399.300 225.100 C 399.693 224.969,399.800 219.591,399.800 200.000 C 399.800 180.409,399.693 175.031,399.300 174.900 C 398.956 174.785,398.800 173.744,398.800 171.567 C 398.800 169.722,398.633 168.400,398.400 168.400 C 398.180 168.400,398.000 167.511,398.000 166.424 C 398.000 165.337,397.820 164.336,397.600 164.200 C 397.380 164.064,397.200 162.973,397.200 161.776 C 397.200 160.579,397.020 159.600,396.800 159.600 C 396.580 159.600,396.400 158.801,396.400 157.824 C 396.400 156.847,396.220 155.936,396.000 155.800 C 395.780 155.664,395.600 154.843,395.600 153.976 C 395.600 153.109,395.420 152.400,395.200 152.400 C 394.980 152.400,394.800 151.680,394.800 150.800 C 394.800 149.920,394.620 149.200,394.400 149.200 C 394.180 149.200,394.000 148.581,394.000 147.824 C 394.000 147.067,393.820 146.336,393.600 146.200 C 393.380 146.064,393.200 145.423,393.200 144.776 C 393.200 144.129,393.020 143.600,392.800 143.600 C 392.580 143.600,392.400 142.880,392.400 142.000 C 392.400 141.120,392.220 140.400,392.000 140.400 C 391.780 140.400,391.600 139.860,391.600 139.200 C 391.600 138.540,391.420 138.000,391.200 138.000 C 390.980 138.000,390.800 137.460,390.800 136.800 C 390.800 136.140,390.620 135.600,390.400 135.600 C 390.180 135.600,390.000 135.060,390.000 134.400 C 390.000 133.740,389.820 133.200,389.600 133.200 C 389.380 133.200,389.200 132.660,389.200 132.000 C 389.200 131.340,389.020 130.800,388.800 130.800 C 388.580 130.800,388.400 130.440,388.400 130.000 C 388.400 129.560,388.220 129.200,388.000 129.200 C 387.780 129.200,387.600 128.660,387.600 128.000 C 387.600 127.340,387.420 126.800,387.200 126.800 C 386.980 126.800,386.800 126.440,386.800 126.000 C 386.800 125.560,386.620 125.200,386.400 125.200 C 386.180 125.200,386.000 124.660,386.000 124.000 C 386.000 123.340,385.820 122.800,385.600 122.800 C 385.380 122.800,385.200 122.440,385.200 122.000 C 385.200 121.560,385.020 121.200,384.800 121.200 C 384.580 121.200,384.400 120.761,384.400 120.224 C 384.400 119.687,384.220 119.136,384.000 119.000 C 383.780 118.864,383.600 118.403,383.600 117.976 C 383.600 117.549,383.420 117.200,383.200 117.200 C 382.980 117.200,382.800 116.840,382.800 116.400 C 382.800 115.960,382.620 115.600,382.400 115.600 C 382.180 115.600,382.000 115.240,382.000 114.800 C 382.000 114.360,381.820 114.000,381.600 114.000 C 381.380 114.000,381.200 113.640,381.200 113.200 C 381.200 112.760,381.020 112.400,380.800 112.400 C 380.580 112.400,380.400 112.040,380.400 111.600 C 380.400 111.160,380.220 110.800,380.000 110.800 C 379.780 110.800,379.600 110.440,379.600 110.000 C 379.600 109.560,379.420 109.200,379.200 109.200 C 378.980 109.200,378.800 108.840,378.800 108.400 C 378.800 107.960,378.620 107.600,378.400 107.600 C 378.180 107.600,378.000 107.240,378.000 106.800 C 378.000 106.360,377.820 106.000,377.600 106.000 C 377.380 106.000,377.200 105.640,377.200 105.200 C 377.200 104.760,377.020 104.400,376.800 104.400 C 376.580 104.400,376.400 104.040,376.400 103.600 C 376.400 103.160,376.220 102.800,376.000 102.800 C 375.780 102.800,375.600 102.480,375.600 102.088 C 375.600 101.697,375.240 101.117,374.800 100.800 C 374.360 100.483,374.000 99.903,374.000 99.512 C 374.000 99.120,373.820 98.800,373.600 98.800 C 373.380 98.800,373.200 98.440,373.200 98.000 C 373.200 97.560,373.020 97.200,372.800 97.200 C 372.580 97.200,372.400 96.964,372.400 96.675 C 372.400 96.387,372.040 95.764,371.600 95.292 C 371.160 94.820,370.800 94.196,370.800 93.905 C 370.800 93.614,370.440 93.117,370.000 92.800 C 369.560 92.483,369.200 91.943,369.200 91.600 C 369.200 91.257,368.840 90.717,368.400 90.400 C 367.960 90.083,367.600 89.503,367.600 89.112 C 367.600 88.720,367.450 88.400,367.268 88.400 C 367.085 88.400,366.681 87.905,366.370 87.300 C 366.060 86.695,365.489 85.909,365.103 85.553 C 364.716 85.197,364.400 84.652,364.400 84.341 C 364.400 84.031,364.040 83.517,363.600 83.200 C 363.160 82.883,362.800 82.420,362.800 82.171 C 362.800 81.922,362.260 81.154,361.600 80.463 C 360.940 79.772,360.400 79.047,360.400 78.852 C 360.400 78.656,359.680 77.755,358.800 76.848 C 357.920 75.941,357.200 75.005,357.200 74.768 C 357.200 74.531,356.480 73.646,355.600 72.800 C 354.720 71.954,354.000 71.084,354.000 70.866 C 354.000 70.648,352.965 69.413,351.700 68.121 C 350.435 66.829,348.872 65.072,348.227 64.217 C 346.707 62.202,337.798 53.293,335.783 51.773 C 334.928 51.128,333.171 49.565,331.879 48.300 C 330.587 47.035,329.352 46.000,329.134 46.000 C 328.916 46.000,328.046 45.280,327.200 44.400 C 326.354 43.520,325.469 42.800,325.232 42.800 C 324.995 42.800,324.059 42.080,323.152 41.200 C 322.245 40.320,321.344 39.600,321.148 39.600 C 320.953 39.600,320.228 39.060,319.537 38.400 C 318.846 37.740,318.078 37.200,317.829 37.200 C 317.580 37.200,317.117 36.840,316.800 36.400 C 316.483 35.960,315.969 35.600,315.659 35.600 C 315.348 35.600,314.803 35.284,314.447 34.897 C 314.091 34.511,313.305 33.940,312.700 33.630 C 312.095 33.319,311.600 32.915,311.600 32.732 C 311.600 32.550,311.280 32.400,310.888 32.400 C 310.497 32.400,309.917 32.040,309.600 31.600 C 309.283 31.160,308.743 30.800,308.400 30.800 C 308.057 30.800,307.517 30.440,307.200 30.000 C 306.883 29.560,306.386 29.200,306.095 29.200 C 305.804 29.200,305.180 28.840,304.708 28.400 C 304.236 27.960,303.613 27.600,303.325 27.600 C 303.036 27.600,302.800 27.420,302.800 27.200 C 302.800 26.980,302.440 26.800,302.000 26.800 C 301.560 26.800,301.200 26.620,301.200 26.400 C 301.200 26.180,300.880 26.000,300.488 26.000 C 300.097 26.000,299.517 25.640,299.200 25.200 C 298.883 24.760,298.303 24.400,297.912 24.400 C 297.520 24.400,297.200 24.220,297.200 24.000 C 297.200 23.780,296.840 23.600,296.400 23.600 C 295.960 23.600,295.600 23.420,295.600 23.200 C 295.600 22.980,295.240 22.800,294.800 22.800 C 294.360 22.800,294.000 22.620,294.000 22.400 C 294.000 22.180,293.640 22.000,293.200 22.000 C 292.760 22.000,292.400 21.820,292.400 21.600 C 292.400 21.380,292.040 21.200,291.600 21.200 C 291.160 21.200,290.800 21.020,290.800 20.800 C 290.800 20.580,290.440 20.400,290.000 20.400 C 289.560 20.400,289.200 20.220,289.200 20.000 C 289.200 19.780,288.840 19.600,288.400 19.600 C 287.960 19.600,287.600 19.420,287.600 19.200 C 287.600 18.980,287.240 18.800,286.800 18.800 C 286.360 18.800,286.000 18.620,286.000 18.400 C 286.000 18.180,285.640 18.000,285.200 18.000 C 284.760 18.000,284.400 17.820,284.400 17.600 C 284.400 17.380,284.040 17.200,283.600 17.200 C 283.160 17.200,282.800 17.020,282.800 16.800 C 282.800 16.580,282.451 16.400,282.024 16.400 C 281.597 16.400,281.136 16.220,281.000 16.000 C 280.864 15.780,280.313 15.600,279.776 15.600 C 279.239 15.600,278.800 15.420,278.800 15.200 C 278.800 14.980,278.440 14.800,278.000 14.800 C 277.560 14.800,277.200 14.620,277.200 14.400 C 277.200 14.180,276.660 14.000,276.000 14.000 C 275.340 14.000,274.800 13.820,274.800 13.600 C 274.800 13.380,274.440 13.200,274.000 13.200 C 273.560 13.200,273.200 13.020,273.200 12.800 C 273.200 12.580,272.660 12.400,272.000 12.400 C 271.340 12.400,270.800 12.220,270.800 12.000 C 270.800 11.780,270.440 11.600,270.000 11.600 C 269.560 11.600,269.200 11.420,269.200 11.200 C 269.200 10.980,268.660 10.800,268.000 10.800 C 267.340 10.800,266.800 10.620,266.800 10.400 C 266.800 10.180,266.260 10.000,265.600 10.000 C 264.940 10.000,264.400 9.820,264.400 9.600 C 264.400 9.380,263.860 9.200,263.200 9.200 C 262.540 9.200,262.000 9.020,262.000 8.800 C 262.000 8.580,261.460 8.400,260.800 8.400 C 260.140 8.400,259.600 8.220,259.600 8.000 C 259.600 7.780,258.880 7.600,258.000 7.600 C 257.120 7.600,256.400 7.420,256.400 7.200 C 256.400 6.980,255.871 6.800,255.224 6.800 C 254.577 6.800,253.936 6.620,253.800 6.400 C 253.664 6.180,252.933 6.000,252.176 6.000 C 251.419 6.000,250.800 5.820,250.800 5.600 C 250.800 5.380,250.080 5.200,249.200 5.200 C 248.320 5.200,247.600 5.020,247.600 4.800 C 247.600 4.580,246.891 4.400,246.024 4.400 C 245.157 4.400,244.336 4.220,244.200 4.000 C 244.064 3.780,243.153 3.600,242.176 3.600 C 241.199 3.600,240.400 3.420,240.400 3.200 C 240.400 2.980,239.421 2.800,238.224 2.800 C 237.027 2.800,235.936 2.620,235.800 2.400 C 235.664 2.180,234.663 2.000,233.576 2.000 C 232.489 2.000,231.600 1.820,231.600 1.600 C 231.600 1.367,230.278 1.200,228.433 1.200 C 226.304 1.200,225.214 1.041,225.105 0.714 C 224.944 0.233,187.802 -0.118,178.500 0.274 M197.400 57.605 C 199.682 58.253,203.752 59.268,207.000 60.000 C 209.304 60.519,211.132 60.961,213.400 61.548 C 214.280 61.776,216.620 62.339,218.600 62.800 C 222.055 63.604,223.058 63.847,226.600 64.735 C 230.726 65.770,231.836 66.112,232.300 66.490 C 232.689 66.808,232.800 71.932,232.800 89.649 L 232.800 112.400 233.672 112.400 C 234.151 112.400,235.096 112.568,235.772 112.773 C 237.257 113.224,239.511 113.794,242.200 114.400 C 244.409 114.898,246.136 115.314,248.700 115.967 C 249.635 116.205,251.075 116.571,251.900 116.781 C 252.725 116.991,255.020 117.539,257.000 118.000 C 262.384 119.253,266.252 120.227,268.228 120.827 C 268.904 121.032,269.813 121.200,270.248 121.200 C 272.069 121.200,272.000 118.243,272.000 196.237 C 272.000 277.157,272.183 271.165,269.729 270.401 C 268.406 269.989,266.195 269.430,263.400 268.800 C 261.474 268.366,260.114 268.035,256.900 267.219 C 256.075 267.009,253.780 266.461,251.800 266.000 C 249.820 265.539,247.525 264.991,246.700 264.781 C 245.304 264.426,244.412 264.203,240.500 263.225 C 238.350 262.688,235.606 262.070,234.103 261.784 L 232.807 261.538 232.703 284.069 L 232.600 306.600 231.621 306.738 C 231.083 306.814,230.003 306.694,229.221 306.471 C 228.440 306.248,227.080 305.886,226.200 305.666 C 225.320 305.446,223.880 305.083,223.000 304.858 C 222.120 304.634,220.500 304.248,219.400 304.000 C 217.474 303.566,216.114 303.235,212.900 302.419 C 212.075 302.209,209.780 301.661,207.800 301.200 C 205.820 300.739,203.480 300.176,202.600 299.948 C 201.720 299.720,200.280 299.357,199.400 299.140 C 198.520 298.923,197.247 298.578,196.572 298.373 C 195.896 298.168,194.861 298.000,194.272 298.000 L 193.200 298.000 193.200 320.635 L 193.200 343.270 191.500 343.002 C 190.565 342.854,189.080 342.554,188.200 342.335 C 187.320 342.116,185.925 341.771,185.100 341.568 C 184.275 341.366,182.880 341.020,182.000 340.800 C 181.120 340.580,179.725 340.231,178.900 340.025 C 178.075 339.819,176.500 339.448,175.400 339.200 C 173.474 338.766,172.114 338.435,168.900 337.619 C 168.075 337.409,165.780 336.861,163.800 336.400 C 159.173 335.323,157.844 334.988,155.400 334.282 L 153.400 333.704 153.200 310.792 L 153.000 287.881 150.600 287.326 C 149.280 287.022,147.480 286.583,146.600 286.353 C 145.720 286.123,144.325 285.769,143.500 285.567 C 142.675 285.365,141.325 285.031,140.500 284.825 C 139.675 284.619,138.100 284.248,137.000 284.000 C 135.074 283.566,133.714 283.235,130.500 282.419 C 129.675 282.209,127.380 281.661,125.400 281.200 C 121.109 280.201,119.028 279.676,117.372 279.173 C 116.696 278.968,115.747 278.800,115.262 278.800 C 114.682 278.800,114.246 278.446,113.987 277.766 C 113.433 276.308,113.653 130.187,114.210 129.630 C 114.490 129.350,115.124 129.354,116.210 129.644 C 117.085 129.877,118.475 130.232,119.300 130.434 C 121.045 130.860,123.375 131.441,125.500 131.981 C 126.325 132.191,128.620 132.739,130.600 133.200 C 134.445 134.095,135.946 134.461,138.800 135.200 C 141.261 135.837,143.039 136.268,145.400 136.800 C 146.500 137.048,148.030 137.409,148.800 137.603 C 149.570 137.797,150.560 138.036,151.000 138.133 C 151.440 138.230,152.114 138.438,152.497 138.596 C 153.153 138.867,153.199 137.579,153.297 116.142 L 153.400 93.400 154.800 93.461 C 155.570 93.495,156.965 93.720,157.900 93.961 C 159.922 94.483,161.882 94.957,164.600 95.580 C 165.700 95.833,167.275 96.210,168.100 96.420 C 168.925 96.629,170.275 96.971,171.100 97.180 C 171.925 97.390,173.500 97.767,174.600 98.020 C 176.947 98.558,178.982 99.045,181.200 99.600 C 182.080 99.820,183.520 100.180,184.400 100.400 C 187.917 101.279,189.466 101.628,190.900 101.861 L 192.400 102.105 192.400 79.719 C 192.400 67.407,192.529 57.204,192.687 57.046 C 192.988 56.745,195.362 57.026,197.400 57.605 M146.400 211.948 L 146.400 254.800 147.272 254.800 C 147.751 254.800,148.696 254.968,149.372 255.173 C 151.040 255.679,155.797 256.879,159.000 257.600 C 160.926 258.034,162.286 258.365,165.500 259.181 C 166.325 259.391,168.620 259.939,170.600 260.400 C 172.580 260.861,174.830 261.395,175.600 261.586 C 178.253 262.245,180.204 262.735,181.800 263.142 C 182.680 263.366,184.300 263.752,185.400 264.000 C 187.663 264.510,189.472 264.947,191.800 265.546 C 195.183 266.416,200.029 267.600,200.210 267.600 C 200.877 267.600,200.368 182.072,199.700 181.793 C 199.315 181.632,198.325 181.342,197.500 181.150 C 196.675 180.957,195.325 180.629,194.500 180.420 C 193.675 180.210,192.100 179.833,191.000 179.580 C 188.488 179.004,186.424 178.508,184.500 178.018 C 180.501 177.001,178.401 176.492,174.600 175.620 C 172.732 175.191,172.010 175.013,168.100 174.018 C 166.409 173.588,164.337 173.094,161.400 172.420 C 160.300 172.167,158.770 171.798,158.000 171.599 C 157.230 171.400,155.790 171.040,154.800 170.800 C 153.810 170.560,152.280 170.186,151.400 169.969 C 150.520 169.752,149.035 169.466,148.100 169.335 L 146.400 169.096 146.400 211.948 " stroke="none" fill="#fbfbfb" fill-rule="evenodd"></path><path id="path2" d="M192.897 80.145 L 192.800 102.889 191.300 102.667 L 189.800 102.445 191.117 102.886 C 193.261 103.602,193.214 104.138,193.100 79.977 L 192.993 57.400 192.897 80.145 M194.800 58.000 C 196.168 58.438,197.219 58.438,196.200 58.000 C 195.760 57.811,195.040 57.662,194.600 57.668 C 193.957 57.677,193.996 57.743,194.800 58.000 M200.833 59.344 C 200.925 59.423,201.540 59.608,202.200 59.756 C 203.076 59.952,203.238 59.915,202.800 59.618 C 202.260 59.253,200.432 58.998,200.833 59.344 M204.800 60.400 C 206.168 60.838,207.219 60.838,206.200 60.400 C 205.760 60.211,205.040 60.062,204.600 60.068 C 203.957 60.077,203.996 60.143,204.800 60.400 M208.200 61.200 C 208.640 61.389,209.270 61.544,209.600 61.544 C 209.978 61.544,209.904 61.417,209.400 61.200 C 208.960 61.011,208.330 60.856,208.000 60.856 C 207.622 60.856,207.696 60.983,208.200 61.200 M211.400 62.000 C 211.840 62.189,212.470 62.344,212.800 62.344 C 213.178 62.344,213.104 62.217,212.600 62.000 C 212.160 61.811,211.530 61.656,211.200 61.656 C 210.822 61.656,210.896 61.783,211.400 62.000 M214.033 62.544 C 214.125 62.623,214.740 62.808,215.400 62.956 C 216.276 63.152,216.438 63.115,216.000 62.818 C 215.460 62.453,213.632 62.198,214.033 62.544 M218.000 63.600 C 219.368 64.038,220.419 64.038,219.400 63.600 C 218.960 63.411,218.240 63.262,217.800 63.268 C 217.157 63.277,217.196 63.343,218.000 63.600 M221.200 64.400 C 222.568 64.838,223.619 64.838,222.600 64.400 C 222.160 64.211,221.440 64.062,221.000 64.068 C 220.357 64.077,220.396 64.143,221.200 64.400 M227.233 65.744 C 227.325 65.823,227.940 66.008,228.600 66.156 C 229.476 66.352,229.638 66.315,229.200 66.018 C 228.660 65.653,226.832 65.398,227.233 65.744 M153.697 116.300 L 153.793 139.000 153.900 116.622 C 153.982 99.332,154.120 94.171,154.503 93.928 C 154.855 93.704,154.796 93.610,154.300 93.606 C 153.640 93.600,153.606 94.909,153.697 116.300 M156.833 94.544 C 156.925 94.623,157.540 94.808,158.200 94.956 C 159.076 95.152,159.238 95.115,158.800 94.818 C 158.260 94.453,156.432 94.198,156.833 94.544 M160.800 95.600 C 162.168 96.038,163.219 96.038,162.200 95.600 C 161.760 95.411,161.040 95.262,160.600 95.268 C 159.957 95.277,159.996 95.343,160.800 95.600 M164.200 96.400 C 164.640 96.589,165.270 96.744,165.600 96.744 C 165.978 96.744,165.904 96.617,165.400 96.400 C 164.960 96.211,164.330 96.056,164.000 96.056 C 163.622 96.056,163.696 96.183,164.200 96.400 M167.400 97.200 C 167.840 97.389,168.470 97.544,168.800 97.544 C 169.178 97.544,169.104 97.417,168.600 97.200 C 168.160 97.011,167.530 96.856,167.200 96.856 C 166.822 96.856,166.896 96.983,167.400 97.200 M174.000 98.800 C 175.368 99.238,176.419 99.238,175.400 98.800 C 174.960 98.611,174.240 98.462,173.800 98.468 C 173.157 98.477,173.196 98.543,174.000 98.800 M177.200 99.600 C 178.568 100.038,179.619 100.038,178.600 99.600 C 178.160 99.411,177.440 99.262,177.000 99.268 C 176.357 99.277,176.396 99.343,177.200 99.600 M180.600 100.400 C 181.040 100.589,181.670 100.744,182.000 100.744 C 182.378 100.744,182.304 100.617,181.800 100.400 C 181.360 100.211,180.730 100.056,180.400 100.056 C 180.022 100.056,180.096 100.183,180.600 100.400 M183.233 100.944 C 183.325 101.023,183.940 101.208,184.600 101.356 C 185.476 101.552,185.638 101.515,185.200 101.218 C 184.660 100.853,182.832 100.598,183.233 100.944 M187.200 102.000 C 188.568 102.438,189.619 102.438,188.600 102.000 C 188.160 101.811,187.440 101.662,187.000 101.668 C 186.357 101.677,186.396 101.743,187.200 102.000 M233.400 113.200 C 233.840 113.389,234.470 113.544,234.800 113.544 C 235.178 113.544,235.104 113.417,234.600 113.200 C 234.160 113.011,233.530 112.856,233.200 112.856 C 232.822 112.856,232.896 112.983,233.400 113.200 M239.233 114.544 C 239.325 114.623,239.940 114.808,240.600 114.956 C 241.476 115.152,241.638 115.115,241.200 114.818 C 240.660 114.453,238.832 114.198,239.233 114.544 M243.400 115.600 C 243.840 115.789,244.470 115.944,244.800 115.944 C 245.178 115.944,245.104 115.817,244.600 115.600 C 244.160 115.411,243.530 115.256,243.200 115.256 C 242.822 115.256,242.896 115.383,243.400 115.600 M246.600 116.400 C 247.040 116.589,247.670 116.744,248.000 116.744 C 248.378 116.744,248.304 116.617,247.800 116.400 C 247.360 116.211,246.730 116.056,246.400 116.056 C 246.022 116.056,246.096 116.183,246.600 116.400 M249.800 117.200 C 250.240 117.389,250.870 117.544,251.200 117.544 C 251.578 117.544,251.504 117.417,251.000 117.200 C 250.560 117.011,249.930 116.856,249.600 116.856 C 249.222 116.856,249.296 116.983,249.800 117.200 M252.433 117.744 C 252.525 117.823,253.140 118.008,253.800 118.156 C 254.676 118.352,254.838 118.315,254.400 118.018 C 253.860 117.653,252.032 117.398,252.433 117.744 M256.400 118.800 C 257.768 119.238,258.819 119.238,257.800 118.800 C 257.360 118.611,256.640 118.462,256.200 118.468 C 255.557 118.477,255.596 118.543,256.400 118.800 M259.800 119.600 C 260.240 119.789,260.870 119.944,261.200 119.944 C 261.578 119.944,261.504 119.817,261.000 119.600 C 260.560 119.411,259.930 119.256,259.600 119.256 C 259.222 119.256,259.296 119.383,259.800 119.600 M265.633 120.944 C 265.725 121.023,266.340 121.208,267.000 121.356 C 267.876 121.552,268.038 121.515,267.600 121.218 C 267.060 120.853,265.232 120.598,265.633 120.944 M269.400 121.889 C 269.840 121.998,270.425 122.269,270.700 122.492 C 271.038 122.767,271.200 122.767,271.200 122.492 C 271.200 122.013,270.212 121.581,269.267 121.646 C 268.775 121.681,268.810 121.744,269.400 121.889 M117.000 130.800 C 117.440 130.989,118.070 131.144,118.400 131.144 C 118.778 131.144,118.704 131.017,118.200 130.800 C 117.760 130.611,117.130 130.456,116.800 130.456 C 116.422 130.456,116.496 130.583,117.000 130.800 M120.200 131.600 C 120.640 131.789,121.270 131.944,121.600 131.944 C 121.978 131.944,121.904 131.817,121.400 131.600 C 120.960 131.411,120.330 131.256,120.000 131.256 C 119.622 131.256,119.696 131.383,120.200 131.600 M123.400 132.400 C 123.840 132.589,124.470 132.744,124.800 132.744 C 125.178 132.744,125.104 132.617,124.600 132.400 C 124.160 132.211,123.530 132.056,123.200 132.056 C 122.822 132.056,122.896 132.183,123.400 132.400 M126.033 132.944 C 126.125 133.023,126.740 133.208,127.400 133.356 C 128.276 133.552,128.438 133.515,128.000 133.218 C 127.460 132.853,125.632 132.598,126.033 132.944 M130.000 134.000 C 131.368 134.438,132.419 134.438,131.400 134.000 C 130.960 133.811,130.240 133.662,129.800 133.668 C 129.157 133.677,129.196 133.743,130.000 134.000 M133.400 134.800 C 133.840 134.989,134.470 135.144,134.800 135.144 C 135.178 135.144,135.104 135.017,134.600 134.800 C 134.160 134.611,133.530 134.456,133.200 134.456 C 132.822 134.456,132.896 134.583,133.400 134.800 M139.233 136.144 C 139.325 136.223,139.940 136.408,140.600 136.556 C 141.476 136.752,141.638 136.715,141.200 136.418 C 140.660 136.053,138.832 135.798,139.233 136.144 M143.200 137.200 C 144.568 137.638,145.619 137.638,144.600 137.200 C 144.160 137.011,143.440 136.862,143.000 136.868 C 142.357 136.877,142.396 136.943,143.200 137.200 M146.600 138.000 C 147.040 138.189,147.670 138.344,148.000 138.344 C 148.378 138.344,148.304 138.217,147.800 138.000 C 147.360 137.811,146.730 137.656,146.400 137.656 C 146.022 137.656,146.096 137.783,146.600 138.000 M149.800 138.800 C 150.240 138.989,150.870 139.144,151.200 139.144 C 151.578 139.144,151.504 139.017,151.000 138.800 C 150.560 138.611,149.930 138.456,149.600 138.456 C 149.222 138.456,149.296 138.583,149.800 138.800 M147.400 168.400 C 147.840 168.589,148.470 168.744,148.800 168.744 C 149.178 168.744,149.104 168.617,148.600 168.400 C 148.160 168.211,147.530 168.056,147.200 168.056 C 146.822 168.056,146.896 168.183,147.400 168.400 M150.600 169.200 C 151.040 169.389,151.760 169.538,152.200 169.532 C 152.843 169.523,152.804 169.457,152.000 169.200 C 150.632 168.762,149.581 168.762,150.600 169.200 M154.000 169.982 C 154.330 170.205,154.945 170.391,155.367 170.394 C 156.390 170.402,156.071 170.173,154.600 169.844 C 153.724 169.648,153.562 169.685,154.000 169.982 M160.600 171.600 C 161.040 171.789,161.760 171.938,162.200 171.932 C 162.843 171.923,162.804 171.857,162.000 171.600 C 160.632 171.162,159.581 171.162,160.600 171.600 M163.800 172.400 C 164.240 172.589,164.960 172.738,165.400 172.732 C 166.043 172.723,166.004 172.657,165.200 172.400 C 163.832 171.962,162.781 171.962,163.800 172.400 M167.200 173.182 C 167.530 173.405,168.145 173.591,168.567 173.594 C 169.590 173.602,169.271 173.373,167.800 173.044 C 166.924 172.848,166.762 172.885,167.200 173.182 M170.600 174.000 C 171.040 174.189,171.670 174.344,172.000 174.344 C 172.378 174.344,172.304 174.217,171.800 174.000 C 171.360 173.811,170.730 173.656,170.400 173.656 C 170.022 173.656,170.096 173.783,170.600 174.000 M173.800 174.800 C 174.240 174.989,174.870 175.144,175.200 175.144 C 175.578 175.144,175.504 175.017,175.000 174.800 C 174.560 174.611,173.930 174.456,173.600 174.456 C 173.222 174.456,173.296 174.583,173.800 174.800 M177.000 175.600 C 177.440 175.789,178.160 175.938,178.600 175.932 C 179.243 175.923,179.204 175.857,178.400 175.600 C 177.032 175.162,175.981 175.162,177.000 175.600 M180.400 176.382 C 180.730 176.605,181.345 176.791,181.767 176.794 C 182.790 176.802,182.471 176.573,181.000 176.244 C 180.124 176.048,179.962 176.085,180.400 176.382 M187.000 178.000 C 187.440 178.189,188.160 178.338,188.600 178.332 C 189.243 178.323,189.204 178.257,188.400 178.000 C 187.032 177.562,185.981 177.562,187.000 178.000 M190.200 178.800 C 190.640 178.989,191.360 179.138,191.800 179.132 C 192.443 179.123,192.404 179.057,191.600 178.800 C 190.232 178.362,189.181 178.362,190.200 178.800 M193.600 179.582 C 193.930 179.805,194.545 179.991,194.967 179.994 C 195.990 180.002,195.671 179.773,194.200 179.444 C 193.324 179.248,193.162 179.285,193.600 179.582 M197.000 180.400 C 197.440 180.589,198.070 180.744,198.400 180.744 C 198.778 180.744,198.704 180.617,198.200 180.400 C 197.760 180.211,197.130 180.056,196.800 180.056 C 196.422 180.056,196.496 180.183,197.000 180.400 M200.993 224.800 C 200.993 248.450,201.041 258.125,201.100 246.300 C 201.159 234.475,201.159 215.125,201.100 203.300 C 201.041 191.475,200.993 201.150,200.993 224.800 M147.000 255.600 C 147.440 255.789,148.070 255.944,148.400 255.944 C 148.778 255.944,148.704 255.817,148.200 255.600 C 147.760 255.411,147.130 255.256,146.800 255.256 C 146.422 255.256,146.496 255.383,147.000 255.600 M150.200 256.400 C 150.640 256.589,151.270 256.744,151.600 256.744 C 151.978 256.744,151.904 256.617,151.400 256.400 C 150.960 256.211,150.330 256.056,150.000 256.056 C 149.622 256.056,149.696 256.183,150.200 256.400 M156.800 258.000 C 158.168 258.438,159.219 258.438,158.200 258.000 C 157.760 257.811,157.040 257.662,156.600 257.668 C 155.957 257.677,155.996 257.743,156.800 258.000 M160.200 258.800 C 160.640 258.989,161.270 259.144,161.600 259.144 C 161.978 259.144,161.904 259.017,161.400 258.800 C 160.960 258.611,160.330 258.456,160.000 258.456 C 159.622 258.456,159.696 258.583,160.200 258.800 M163.400 259.600 C 163.840 259.789,164.470 259.944,164.800 259.944 C 165.178 259.944,165.104 259.817,164.600 259.600 C 164.160 259.411,163.530 259.256,163.200 259.256 C 162.822 259.256,162.896 259.383,163.400 259.600 M169.233 260.944 C 169.325 261.023,169.940 261.208,170.600 261.356 C 171.476 261.552,171.638 261.515,171.200 261.218 C 170.660 260.853,168.832 260.598,169.233 260.944 M234.600 261.200 C 235.040 261.389,235.670 261.544,236.000 261.544 C 236.378 261.544,236.304 261.417,235.800 261.200 C 235.360 261.011,234.730 260.856,234.400 260.856 C 234.022 260.856,234.096 260.983,234.600 261.200 M173.200 262.000 C 174.568 262.438,175.619 262.438,174.600 262.000 C 174.160 261.811,173.440 261.662,173.000 261.668 C 172.357 261.677,172.396 261.743,173.200 262.000 M238.000 261.982 C 238.330 262.205,238.945 262.391,239.367 262.394 C 240.390 262.402,240.071 262.173,238.600 261.844 C 237.724 261.648,237.562 261.685,238.000 261.982 M176.600 262.800 C 177.040 262.989,177.670 263.144,178.000 263.144 C 178.378 263.144,178.304 263.017,177.800 262.800 C 177.360 262.611,176.730 262.456,176.400 262.456 C 176.022 262.456,176.096 262.583,176.600 262.800 M244.600 263.600 C 245.040 263.789,245.670 263.944,246.000 263.944 C 246.378 263.944,246.304 263.817,245.800 263.600 C 245.360 263.411,244.730 263.256,244.400 263.256 C 244.022 263.256,244.096 263.383,244.600 263.600 M183.200 264.400 C 184.568 264.838,185.619 264.838,184.600 264.400 C 184.160 264.211,183.440 264.062,183.000 264.068 C 182.357 264.077,182.396 264.143,183.200 264.400 M247.800 264.400 C 248.240 264.589,248.960 264.738,249.400 264.732 C 250.043 264.723,250.004 264.657,249.200 264.400 C 247.832 263.962,246.781 263.962,247.800 264.400 M186.600 265.200 C 187.040 265.389,187.670 265.544,188.000 265.544 C 188.378 265.544,188.304 265.417,187.800 265.200 C 187.360 265.011,186.730 264.856,186.400 264.856 C 186.022 264.856,186.096 264.983,186.600 265.200 M251.200 265.182 C 251.530 265.405,252.145 265.591,252.567 265.594 C 253.590 265.602,253.271 265.373,251.800 265.044 C 250.924 264.848,250.762 264.885,251.200 265.182 M189.800 266.000 C 190.240 266.189,190.870 266.344,191.200 266.344 C 191.578 266.344,191.504 266.217,191.000 266.000 C 190.560 265.811,189.930 265.656,189.600 265.656 C 189.222 265.656,189.296 265.783,189.800 266.000 M257.800 266.800 C 258.240 266.989,258.870 267.144,259.200 267.144 C 259.578 267.144,259.504 267.017,259.000 266.800 C 258.560 266.611,257.930 266.456,257.600 266.456 C 257.222 266.456,257.296 266.583,257.800 266.800 M195.633 267.344 C 195.725 267.423,196.340 267.608,197.000 267.756 C 197.876 267.952,198.038 267.915,197.600 267.618 C 197.060 267.253,195.232 266.998,195.633 267.344 M261.000 267.600 C 261.440 267.789,262.070 267.944,262.400 267.944 C 262.778 267.944,262.704 267.817,262.200 267.600 C 261.760 267.411,261.130 267.256,260.800 267.256 C 260.422 267.256,260.496 267.383,261.000 267.600 M264.200 268.400 C 264.640 268.589,265.360 268.738,265.800 268.732 C 266.443 268.723,266.404 268.657,265.600 268.400 C 264.232 267.962,263.181 267.962,264.200 268.400 M267.600 269.182 C 267.930 269.405,268.545 269.591,268.967 269.594 C 269.990 269.602,269.671 269.373,268.200 269.044 C 267.324 268.848,267.162 268.885,267.600 269.182 M114.749 277.700 C 115.051 278.085,115.681 278.379,116.149 278.354 C 116.957 278.310,116.960 278.297,116.200 278.111 C 115.760 278.002,115.130 277.708,114.800 277.457 C 114.278 277.060,114.272 277.091,114.749 277.700 M121.400 279.600 C 121.840 279.789,122.560 279.938,123.000 279.932 C 123.643 279.923,123.604 279.857,122.800 279.600 C 121.432 279.162,120.381 279.162,121.400 279.600 M124.600 280.400 C 125.040 280.589,125.760 280.738,126.200 280.732 C 126.843 280.723,126.804 280.657,126.000 280.400 C 124.632 279.962,123.581 279.962,124.600 280.400 M128.000 281.182 C 128.330 281.405,128.945 281.591,129.367 281.594 C 130.390 281.602,130.071 281.373,128.600 281.044 C 127.724 280.848,127.562 280.885,128.000 281.182 M131.400 282.000 C 131.840 282.189,132.470 282.344,132.800 282.344 C 133.178 282.344,133.104 282.217,132.600 282.000 C 132.160 281.811,131.530 281.656,131.200 281.656 C 130.822 281.656,130.896 281.783,131.400 282.000 M134.600 282.800 C 135.040 282.989,135.670 283.144,136.000 283.144 C 136.378 283.144,136.304 283.017,135.800 282.800 C 135.360 282.611,134.730 282.456,134.400 282.456 C 134.022 282.456,134.096 282.583,134.600 282.800 M137.800 283.600 C 138.240 283.789,138.960 283.938,139.400 283.932 C 140.043 283.923,140.004 283.857,139.200 283.600 C 137.832 283.162,136.781 283.162,137.800 283.600 M141.200 284.382 C 141.530 284.605,142.145 284.791,142.567 284.794 C 143.590 284.802,143.271 284.573,141.800 284.244 C 140.924 284.048,140.762 284.085,141.200 284.382 M147.800 286.000 C 148.240 286.189,148.960 286.338,149.400 286.332 C 150.043 286.323,150.004 286.257,149.200 286.000 C 147.832 285.562,146.781 285.562,147.800 286.000 M150.400 286.511 C 150.510 286.624,151.305 286.909,152.166 287.144 C 153.027 287.379,153.567 287.417,153.366 287.228 C 152.980 286.866,150.056 286.159,150.400 286.511 M153.795 310.795 C 153.800 333.093,153.810 333.390,154.600 333.472 C 155.216 333.535,155.239 333.507,154.703 333.348 C 154.053 333.156,153.999 331.632,153.898 310.671 L 153.790 288.200 153.795 310.795 M193.600 297.200 C 194.150 297.376,194.960 297.520,195.400 297.520 C 196.033 297.520,195.992 297.454,195.200 297.200 C 194.650 297.024,193.840 296.880,193.400 296.880 C 192.767 296.880,192.808 296.946,193.600 297.200 M192.587 320.200 C 192.587 332.520,192.638 337.618,192.700 331.528 C 192.762 325.439,192.762 315.359,192.700 309.128 C 192.638 302.898,192.587 307.880,192.587 320.200 M200.600 298.800 C 201.040 298.989,201.670 299.144,202.000 299.144 C 202.378 299.144,202.304 299.017,201.800 298.800 C 201.360 298.611,200.730 298.456,200.400 298.456 C 200.022 298.456,200.096 298.583,200.600 298.800 M203.800 299.600 C 204.240 299.789,204.960 299.938,205.400 299.932 C 206.043 299.923,206.004 299.857,205.200 299.600 C 203.832 299.162,202.781 299.162,203.800 299.600 M207.200 300.382 C 207.530 300.605,208.145 300.791,208.567 300.794 C 209.590 300.802,209.271 300.573,207.800 300.244 C 206.924 300.048,206.762 300.085,207.200 300.382 M213.800 302.000 C 214.240 302.189,214.870 302.344,215.200 302.344 C 215.578 302.344,215.504 302.217,215.000 302.000 C 214.560 301.811,213.930 301.656,213.600 301.656 C 213.222 301.656,213.296 301.783,213.800 302.000 M217.000 302.800 C 217.440 302.989,218.070 303.144,218.400 303.144 C 218.778 303.144,218.704 303.017,218.200 302.800 C 217.760 302.611,217.130 302.456,216.800 302.456 C 216.422 302.456,216.496 302.583,217.000 302.800 M220.200 303.600 C 220.640 303.789,221.360 303.938,221.800 303.932 C 222.443 303.923,222.404 303.857,221.600 303.600 C 220.232 303.162,219.181 303.162,220.200 303.600 M223.600 304.382 C 223.930 304.605,224.545 304.791,224.967 304.794 C 225.990 304.802,225.671 304.573,224.200 304.244 C 223.324 304.048,223.162 304.085,223.600 304.382 M227.000 305.200 C 227.440 305.389,228.070 305.544,228.400 305.544 C 228.778 305.544,228.704 305.417,228.200 305.200 C 227.760 305.011,227.130 304.856,226.800 304.856 C 226.422 304.856,226.496 304.983,227.000 305.200 M230.200 306.004 C 231.228 306.440,232.000 306.481,231.999 306.100 C 231.999 305.935,231.414 305.770,230.699 305.733 C 229.657 305.678,229.559 305.732,230.200 306.004 M156.600 334.000 C 157.040 334.189,157.670 334.344,158.000 334.344 C 158.378 334.344,158.304 334.217,157.800 334.000 C 157.360 333.811,156.730 333.656,156.400 333.656 C 156.022 333.656,156.096 333.783,156.600 334.000 M159.800 334.800 C 160.240 334.989,160.960 335.138,161.400 335.132 C 162.043 335.123,162.004 335.057,161.200 334.800 C 159.832 334.362,158.781 334.362,159.800 334.800 M163.000 335.600 C 163.440 335.789,164.160 335.938,164.600 335.932 C 165.243 335.923,165.204 335.857,164.400 335.600 C 163.032 335.162,161.981 335.162,163.000 335.600 M169.800 337.200 C 170.240 337.389,170.870 337.544,171.200 337.544 C 171.578 337.544,171.504 337.417,171.000 337.200 C 170.560 337.011,169.930 336.856,169.600 336.856 C 169.222 336.856,169.296 336.983,169.800 337.200 M173.000 338.000 C 173.440 338.189,174.070 338.344,174.400 338.344 C 174.778 338.344,174.704 338.217,174.200 338.000 C 173.760 337.811,173.130 337.656,172.800 337.656 C 172.422 337.656,172.496 337.783,173.000 338.000 M176.200 338.800 C 176.640 338.989,177.360 339.138,177.800 339.132 C 178.443 339.123,178.404 339.057,177.600 338.800 C 176.232 338.362,175.181 338.362,176.200 338.800 M179.600 339.582 C 179.930 339.805,180.545 339.991,180.967 339.994 C 181.990 340.002,181.671 339.773,180.200 339.444 C 179.324 339.248,179.162 339.285,179.600 339.582 M186.200 341.200 C 186.640 341.389,187.360 341.538,187.800 341.532 C 188.443 341.523,188.404 341.457,187.600 341.200 C 186.232 340.762,185.181 340.762,186.200 341.200 M189.400 342.000 C 189.840 342.189,190.560 342.338,191.000 342.332 C 191.643 342.323,191.604 342.257,190.800 342.000 C 189.432 341.562,188.381 341.562,189.400 342.000 " stroke="none" fill="#7c7c94" fill-rule="evenodd"></path><path id="path3" d="M232.091 89.676 C 232.041 102.148,232.135 112.436,232.300 112.538 C 232.572 112.707,232.568 96.386,232.290 75.200 C 232.231 70.690,232.142 77.204,232.091 89.676 M271.200 196.080 C 271.090 236.714,271.135 269.825,271.301 269.659 C 271.467 269.493,271.557 236.247,271.501 195.779 L 271.400 122.200 271.200 196.080 M114.196 204.000 C 114.196 244.370,114.243 260.885,114.300 240.700 C 114.357 220.515,114.357 187.485,114.300 167.300 C 114.243 147.115,114.196 163.630,114.196 204.000 M145.867 168.267 C 145.496 168.637,145.529 254.709,145.900 254.938 C 146.065 255.040,146.153 235.667,146.096 211.888 C 146.014 177.481,146.096 168.586,146.496 168.332 C 146.792 168.144,146.821 168.010,146.567 168.006 C 146.328 168.003,146.013 168.120,145.867 168.267 M232.091 283.500 C 232.141 295.985,232.231 302.600,232.290 298.200 C 232.568 277.590,232.572 260.800,232.300 260.800 C 232.135 260.800,232.041 271.015,232.091 283.500 " stroke="none" fill="#868c9c" fill-rule="evenodd"></path><path id="path4" d="M192.687 57.046 C 192.529 57.204,192.400 67.407,192.400 79.719 L 192.400 102.105 190.900 101.861 C 189.466 101.628,187.917 101.279,184.400 100.400 C 183.520 100.180,182.080 99.820,181.200 99.600 C 178.982 99.045,176.947 98.558,174.600 98.020 C 173.500 97.767,171.925 97.390,171.100 97.180 C 170.275 96.971,168.925 96.629,168.100 96.420 C 167.275 96.210,165.700 95.833,164.600 95.580 C 161.882 94.957,159.922 94.483,157.900 93.961 C 156.965 93.720,155.570 93.495,154.800 93.461 L 153.400 93.400 153.297 116.142 C 153.199 137.579,153.153 138.867,152.497 138.596 C 152.114 138.438,151.440 138.230,151.000 138.133 C 150.560 138.036,149.570 137.797,148.800 137.603 C 148.030 137.409,146.500 137.048,145.400 136.800 C 143.039 136.268,141.261 135.837,138.800 135.200 C 135.946 134.461,134.445 134.095,130.600 133.200 C 128.620 132.739,126.325 132.191,125.500 131.981 C 123.375 131.441,121.045 130.860,119.300 130.434 C 118.475 130.232,117.085 129.877,116.210 129.644 C 115.124 129.354,114.490 129.350,114.210 129.630 C 113.653 130.187,113.433 276.308,113.987 277.766 C 114.246 278.446,114.682 278.800,115.262 278.800 C 115.747 278.800,116.696 278.968,117.372 279.173 C 119.028 279.676,121.109 280.201,125.400 281.200 C 127.380 281.661,129.675 282.209,130.500 282.419 C 133.714 283.235,135.074 283.566,137.000 284.000 C 138.100 284.248,139.675 284.619,140.500 284.825 C 141.325 285.031,142.675 285.365,143.500 285.567 C 144.325 285.769,145.720 286.123,146.600 286.353 C 147.480 286.583,149.280 287.022,150.600 287.326 L 153.000 287.881 153.200 310.792 L 153.400 333.704 155.400 334.282 C 157.844 334.988,159.173 335.323,163.800 336.400 C 165.780 336.861,168.075 337.409,168.900 337.619 C 172.114 338.435,173.474 338.766,175.400 339.200 C 176.500 339.448,178.075 339.819,178.900 340.025 C 179.725 340.231,181.120 340.580,182.000 340.800 C 182.880 341.020,184.275 341.366,185.100 341.568 C 185.925 341.771,187.320 342.116,188.200 342.335 C 189.080 342.554,190.565 342.854,191.500 343.002 L 193.200 343.270 193.200 320.635 L 193.200 298.000 194.272 298.000 C 194.861 298.000,195.896 298.168,196.572 298.373 C 197.247 298.578,198.520 298.923,199.400 299.140 C 200.280 299.357,201.720 299.720,202.600 299.948 C 203.480 300.176,205.820 300.739,207.800 301.200 C 209.780 301.661,212.075 302.209,212.900 302.419 C 216.114 303.235,217.474 303.566,219.400 304.000 C 220.500 304.248,222.120 304.634,223.000 304.858 C 223.880 305.083,225.320 305.446,226.200 305.666 C 227.080 305.886,228.440 306.248,229.221 306.471 C 230.003 306.694,231.083 306.814,231.621 306.738 L 232.600 306.600 232.703 284.069 L 232.807 261.538 234.103 261.784 C 235.606 262.070,238.350 262.688,240.500 263.225 C 244.412 264.203,245.304 264.426,246.700 264.781 C 247.525 264.991,249.820 265.539,251.800 266.000 C 253.780 266.461,256.075 267.009,256.900 267.219 C 260.114 268.035,261.474 268.366,263.400 268.800 C 266.195 269.430,268.406 269.989,269.729 270.401 C 272.183 271.165,272.000 277.157,272.000 196.237 C 272.000 118.243,272.069 121.200,270.248 121.200 C 269.813 121.200,268.904 121.032,268.228 120.827 C 266.252 120.227,262.384 119.253,257.000 118.000 C 255.020 117.539,252.725 116.991,251.900 116.781 C 251.075 116.571,249.635 116.205,248.700 115.967 C 246.136 115.314,244.409 114.898,242.200 114.400 C 239.511 113.794,237.257 113.224,235.772 112.773 C 235.096 112.568,234.151 112.400,233.672 112.400 L 232.800 112.400 232.800 89.649 C 232.800 71.932,232.689 66.808,232.300 66.490 C 231.836 66.112,230.726 65.770,226.600 64.735 C 223.058 63.847,222.055 63.604,218.600 62.800 C 216.620 62.339,214.280 61.776,213.400 61.548 C 211.132 60.961,209.304 60.519,207.000 60.000 C 203.752 59.268,199.682 58.253,197.400 57.605 C 195.362 57.026,192.988 56.745,192.687 57.046 M197.985 58.213 C 200.303 58.770,202.830 59.393,203.600 59.597 C 204.370 59.800,207.250 60.504,210.000 61.159 C 222.225 64.075,231.845 66.423,232.092 66.552 C 232.142 66.578,232.277 76.930,232.392 89.555 L 232.600 112.510 236.600 113.478 C 238.800 114.011,243.525 115.156,247.100 116.023 C 250.675 116.890,256.615 118.327,260.300 119.215 C 268.569 121.208,270.040 121.596,270.800 121.982 C 271.330 122.252,271.400 130.885,271.400 196.044 L 271.400 269.800 269.800 269.715 C 268.920 269.668,267.570 269.451,266.800 269.231 C 266.030 269.012,263.060 268.278,260.200 267.600 C 257.340 266.922,254.370 266.201,253.600 265.999 C 252.830 265.796,249.140 264.894,245.400 263.995 C 241.660 263.095,237.299 262.035,235.708 261.638 C 234.118 261.241,232.723 261.010,232.608 261.125 C 232.494 261.240,232.400 271.389,232.400 283.679 C 232.400 303.132,232.323 306.055,231.803 306.254 C 231.289 306.452,228.400 305.856,222.800 304.397 C 222.030 304.197,219.060 303.478,216.200 302.800 C 213.340 302.122,210.370 301.401,209.600 301.199 C 207.935 300.760,194.895 297.621,193.926 297.425 C 192.819 297.201,192.800 297.600,192.800 320.664 L 192.800 342.864 191.500 342.610 C 190.109 342.339,181.125 340.210,178.800 339.600 C 178.030 339.398,175.060 338.678,172.200 338.000 C 169.340 337.322,166.370 336.601,165.600 336.397 C 164.830 336.194,161.815 335.447,158.900 334.737 L 153.600 333.446 153.600 310.772 C 153.600 293.098,153.490 288.016,153.100 287.725 C 152.825 287.520,150.170 286.771,147.200 286.062 C 144.230 285.353,141.170 284.606,140.400 284.403 C 139.630 284.199,136.750 283.495,134.000 282.839 C 118.230 279.072,114.955 278.200,114.500 277.651 C 113.873 276.894,113.756 131.603,114.382 130.434 C 114.740 129.764,115.135 129.813,120.882 131.236 C 124.247 132.069,130.060 133.488,133.800 134.390 C 137.540 135.292,141.230 136.196,142.000 136.398 C 147.674 137.887,153.045 139.096,153.298 138.939 C 153.464 138.837,153.600 128.593,153.600 116.176 C 153.600 90.923,153.299 93.178,156.554 94.032 C 159.293 94.750,160.775 95.114,166.200 96.400 C 169.060 97.078,172.030 97.798,172.800 98.000 C 173.570 98.202,176.540 98.922,179.400 99.600 C 182.260 100.278,185.230 100.999,186.000 101.202 C 189.551 102.140,192.226 102.685,192.500 102.526 C 192.665 102.431,192.800 92.193,192.800 79.776 C 192.800 62.364,192.911 57.200,193.285 57.200 C 193.551 57.200,195.666 57.656,197.985 58.213 M146.098 211.652 L 146.200 254.903 151.600 256.229 C 154.570 256.959,159.340 258.112,162.200 258.791 C 165.060 259.471,168.030 260.195,168.800 260.399 C 170.224 260.776,179.745 263.081,188.800 265.241 C 194.175 266.522,195.650 266.886,198.308 267.587 C 199.248 267.834,200.193 267.928,200.408 267.795 C 201.043 267.403,200.936 182.209,200.300 181.689 C 200.025 181.464,198.540 180.985,197.000 180.625 C 195.460 180.265,193.570 179.805,192.800 179.602 C 192.030 179.399,189.060 178.678,186.200 178.000 C 183.340 177.322,180.370 176.602,179.600 176.400 C 178.830 176.198,175.860 175.478,173.000 174.800 C 170.140 174.122,167.170 173.402,166.400 173.200 C 165.630 172.998,162.660 172.278,159.800 171.600 C 156.940 170.922,153.970 170.201,153.200 169.998 C 151.033 169.427,146.581 168.400,146.273 168.400 C 146.121 168.400,146.042 187.863,146.098 211.652 M151.400 169.969 C 152.280 170.186,153.810 170.560,154.800 170.800 C 155.790 171.040,157.230 171.400,158.000 171.599 C 158.770 171.798,160.300 172.167,161.400 172.420 C 164.337 173.094,166.409 173.588,168.100 174.018 C 172.010 175.013,172.732 175.191,174.600 175.620 C 178.401 176.492,180.501 177.001,184.500 178.018 C 186.424 178.508,188.488 179.004,191.000 179.580 C 192.100 179.833,193.675 180.210,194.500 180.420 C 195.325 180.629,196.675 180.957,197.500 181.150 C 198.325 181.342,199.315 181.632,199.700 181.793 C 200.368 182.072,200.877 267.600,200.210 267.600 C 200.029 267.600,195.183 266.416,191.800 265.546 C 189.472 264.947,187.663 264.510,185.400 264.000 C 184.300 263.752,182.680 263.366,181.800 263.142 C 180.204 262.735,178.253 262.245,175.600 261.586 C 174.830 261.395,172.580 260.861,170.600 260.400 C 168.620 259.939,166.325 259.391,165.500 259.181 C 162.286 258.365,160.926 258.034,159.000 257.600 C 155.797 256.879,151.040 255.679,149.372 255.173 C 148.696 254.968,147.751 254.800,147.272 254.800 L 146.400 254.800 146.400 211.948 L 146.400 169.096 148.100 169.335 C 149.035 169.466,150.520 169.752,151.400 169.969 " stroke="none" fill="#d4d4dc" fill-rule="evenodd"></path></g></svg>