<svg id="svg" version="1.1" xmlns="http://www.w3.org/2000/svg" xmlns:xlink="http://www.w3.org/1999/xlink" width="400" height="400" viewBox="0, 0, 400,400"><g id="svgg"><path id="path0" d="M128.966 71.967 C 128.875 72.058,128.800 128.827,128.800 198.119 L 128.800 324.104 130.700 323.861 C 131.745 323.727,136.020 323.249,140.200 322.800 C 144.380 322.350,149.330 321.816,151.200 321.612 C 154.414 321.263,162.648 320.693,173.400 320.076 L 178.200 319.800 178.301 266.300 C 178.393 218.114,178.532 210.841,179.312 213.500 C 179.425 213.885,180.453 216.810,181.596 220.000 C 182.740 223.190,183.821 226.250,184.000 226.800 C 184.179 227.350,185.259 230.410,186.400 233.600 C 187.541 236.790,188.620 239.850,188.798 240.400 C 188.975 240.950,189.870 243.470,190.787 246.000 C 191.704 248.530,192.786 251.590,193.191 252.800 C 193.597 254.010,194.677 257.070,195.591 259.600 C 196.506 262.130,197.590 265.190,198.001 266.400 C 198.412 267.610,199.493 270.670,200.404 273.200 C 201.315 275.730,202.210 278.250,202.393 278.800 C 202.575 279.350,203.659 282.410,204.800 285.600 C 205.941 288.790,207.021 291.850,207.200 292.400 C 207.379 292.950,208.459 296.010,209.600 299.200 C 210.741 302.390,211.821 305.450,212.000 306.000 C 212.961 308.960,216.411 318.474,216.759 319.124 C 217.117 319.793,217.834 319.911,222.882 320.139 C 234.936 320.681,249.466 321.874,260.600 323.236 C 262.800 323.505,265.320 323.742,266.200 323.762 L 267.800 323.800 267.909 198.600 C 267.969 129.740,267.920 72.994,267.801 72.497 L 267.583 71.594 243.092 71.697 L 218.600 71.800 218.501 126.600 C 218.447 156.740,218.313 181.638,218.202 181.930 C 217.948 182.603,217.064 181.813,216.714 180.600 C 216.587 180.160,215.547 177.190,214.404 174.000 C 213.260 170.810,212.179 167.750,212.000 167.200 C 211.821 166.650,210.747 163.590,209.611 160.400 C 205.958 150.132,205.160 147.881,203.588 143.400 C 202.739 140.980,201.298 136.930,200.386 134.400 C 199.475 131.870,198.397 128.810,197.991 127.600 C 197.586 126.390,196.504 123.330,195.587 120.800 C 194.670 118.270,193.775 115.750,193.598 115.200 C 193.420 114.650,192.341 111.590,191.200 108.400 C 190.059 105.210,188.979 102.150,188.800 101.600 C 188.621 101.050,187.541 97.990,186.400 94.800 C 185.259 91.610,184.179 88.550,184.000 88.000 C 183.821 87.450,182.741 84.390,181.598 81.200 C 180.456 78.010,179.358 74.860,179.159 74.200 C 178.960 73.540,178.655 72.779,178.481 72.509 C 178.179 72.041,129.426 71.507,128.966 71.967 " stroke="none" fill="#c5070f" fill-rule="evenodd"></path><path id="path1" d="M178.500 0.274 C 176.465 0.360,174.800 0.603,174.800 0.815 C 174.800 1.030,173.383 1.200,171.600 1.200 C 169.733 1.200,168.400 1.367,168.400 1.600 C 168.400 1.820,167.511 2.000,166.424 2.000 C 165.337 2.000,164.336 2.180,164.200 2.400 C 164.064 2.620,162.973 2.800,161.776 2.800 C 160.579 2.800,159.600 2.980,159.600 3.200 C 159.600 3.420,158.801 3.600,157.824 3.600 C 156.847 3.600,155.936 3.780,155.800 4.000 C 155.664 4.220,154.843 4.400,153.976 4.400 C 153.109 4.400,152.400 4.580,152.400 4.800 C 152.400 5.020,151.680 5.200,150.800 5.200 C 149.920 5.200,149.200 5.380,149.200 5.600 C 149.200 5.820,148.581 6.000,147.824 6.000 C 147.067 6.000,146.336 6.180,146.200 6.400 C 146.064 6.620,145.423 6.800,144.776 6.800 C 144.129 6.800,143.600 6.980,143.600 7.200 C 143.600 7.420,142.880 7.600,142.000 7.600 C 141.120 7.600,140.400 7.780,140.400 8.000 C 140.400 8.220,139.860 8.400,139.200 8.400 C 138.540 8.400,138.000 8.580,138.000 8.800 C 138.000 9.020,137.460 9.200,136.800 9.200 C 136.140 9.200,135.600 9.380,135.600 9.600 C 135.600 9.820,135.060 10.000,134.400 10.000 C 133.740 10.000,133.200 10.180,133.200 10.400 C 133.200 10.620,132.660 10.800,132.000 10.800 C 131.340 10.800,130.800 10.980,130.800 11.200 C 130.800 11.420,130.440 11.600,130.000 11.600 C 129.560 11.600,129.200 11.780,129.200 12.000 C 129.200 12.220,128.660 12.400,128.000 12.400 C 127.340 12.400,126.800 12.580,126.800 12.800 C 126.800 13.020,126.440 13.200,126.000 13.200 C 125.560 13.200,125.200 13.380,125.200 13.600 C 125.200 13.820,124.660 14.000,124.000 14.000 C 123.340 14.000,122.800 14.180,122.800 14.400 C 122.800 14.620,122.440 14.800,122.000 14.800 C 121.560 14.800,121.200 14.980,121.200 15.200 C 121.200 15.420,120.761 15.600,120.224 15.600 C 119.687 15.600,119.136 15.780,119.000 16.000 C 118.864 16.220,118.403 16.400,117.976 16.400 C 117.549 16.400,117.200 16.580,117.200 16.800 C 117.200 17.020,116.840 17.200,116.400 17.200 C 115.960 17.200,115.600 17.380,115.600 17.600 C 115.600 17.820,115.240 18.000,114.800 18.000 C 114.360 18.000,114.000 18.180,114.000 18.400 C 114.000 18.620,113.640 18.800,113.200 18.800 C 112.760 18.800,112.400 18.980,112.400 19.200 C 112.400 19.420,112.040 19.600,111.600 19.600 C 111.160 19.600,110.800 19.780,110.800 20.000 C 110.800 20.220,110.440 20.400,110.000 20.400 C 109.560 20.400,109.200 20.580,109.200 20.800 C 109.200 21.020,108.840 21.200,108.400 21.200 C 107.960 21.200,107.600 21.380,107.600 21.600 C 107.600 21.820,107.240 22.000,106.800 22.000 C 106.360 22.000,106.000 22.180,106.000 22.400 C 106.000 22.620,105.640 22.800,105.200 22.800 C 104.760 22.800,104.400 22.980,104.400 23.200 C 104.400 23.420,104.040 23.600,103.600 23.600 C 103.160 23.600,102.800 23.780,102.800 24.000 C 102.800 24.220,102.480 24.400,102.088 24.400 C 101.697 24.400,101.117 24.760,100.800 25.200 C 100.483 25.640,99.903 26.000,99.512 26.000 C 99.120 26.000,98.800 26.180,98.800 26.400 C 98.800 26.620,98.440 26.800,98.000 26.800 C 97.560 26.800,97.200 26.980,97.200 27.200 C 97.200 27.420,96.964 27.600,96.675 27.600 C 96.387 27.600,95.764 27.960,95.292 28.400 C 94.820 28.840,94.196 29.200,93.905 29.200 C 93.614 29.200,93.117 29.560,92.800 30.000 C 92.483 30.440,91.943 30.800,91.600 30.800 C 91.257 30.800,90.717 31.160,90.400 31.600 C 90.083 32.040,89.503 32.400,89.112 32.400 C 88.720 32.400,88.400 32.550,88.400 32.732 C 88.400 32.915,87.905 33.319,87.300 33.630 C 86.695 33.940,85.909 34.511,85.553 34.897 C 85.197 35.284,84.652 35.600,84.341 35.600 C 84.031 35.600,83.517 35.960,83.200 36.400 C 82.883 36.840,82.420 37.200,82.171 37.200 C 81.922 37.200,81.154 37.740,80.463 38.400 C 79.772 39.060,79.047 39.600,78.852 39.600 C 78.656 39.600,77.755 40.320,76.848 41.200 C 75.941 42.080,75.005 42.800,74.768 42.800 C 74.531 42.800,73.646 43.520,72.800 44.400 C 71.954 45.280,71.084 46.000,70.866 46.000 C 70.648 46.000,69.413 47.035,68.121 48.300 C 66.829 49.565,65.072 51.128,64.217 51.773 C 62.202 53.293,53.293 62.202,51.773 64.217 C 51.128 65.072,49.565 66.829,48.300 68.121 C 47.035 69.413,46.000 70.648,46.000 70.866 C 46.000 71.084,45.280 71.954,44.400 72.800 C 43.520 73.646,42.800 74.531,42.800 74.768 C 42.800 75.005,42.080 75.941,41.200 76.848 C 40.320 77.755,39.600 78.656,39.600 78.852 C 39.600 79.047,39.060 79.772,38.400 80.463 C 37.740 81.154,37.200 81.922,37.200 82.171 C 37.200 82.420,36.840 82.883,36.400 83.200 C 35.960 83.517,35.600 84.031,35.600 84.341 C 35.600 84.652,35.284 85.197,34.897 85.553 C 34.511 85.909,33.940 86.695,33.630 87.300 C 33.319 87.905,32.915 88.400,32.732 88.400 C 32.550 88.400,32.400 88.720,32.400 89.112 C 32.400 89.503,32.040 90.083,31.600 90.400 C 31.160 90.717,30.800 91.257,30.800 91.600 C 30.800 91.943,30.440 92.483,30.000 92.800 C 29.560 93.117,29.200 93.614,29.200 93.905 C 29.200 94.196,28.840 94.820,28.400 95.292 C 27.960 95.764,27.600 96.387,27.600 96.675 C 27.600 96.964,27.420 97.200,27.200 97.200 C 26.980 97.200,26.800 97.560,26.800 98.000 C 26.800 98.440,26.620 98.800,26.400 98.800 C 26.180 98.800,26.000 99.120,26.000 99.512 C 26.000 99.903,25.640 100.483,25.200 100.800 C 24.760 101.117,24.400 101.697,24.400 102.088 C 24.400 102.480,24.220 102.800,24.000 102.800 C 23.780 102.800,23.600 103.160,23.600 103.600 C 23.600 104.040,23.420 104.400,23.200 104.400 C 22.980 104.400,22.800 104.760,22.800 105.200 C 22.800 105.640,22.620 106.000,22.400 106.000 C 22.180 106.000,22.000 106.360,22.000 106.800 C 22.000 107.240,21.820 107.600,21.600 107.600 C 21.380 107.600,21.200 107.960,21.200 108.400 C 21.200 108.840,21.020 109.200,20.800 109.200 C 20.580 109.200,20.400 109.560,20.400 110.000 C 20.400 110.440,20.220 110.800,20.000 110.800 C 19.780 110.800,19.600 111.160,19.600 111.600 C 19.600 112.040,19.420 112.400,19.200 112.400 C 18.980 112.400,18.800 112.760,18.800 113.200 C 18.800 113.640,18.620 114.000,18.400 114.000 C 18.180 114.000,18.000 114.360,18.000 114.800 C 18.000 115.240,17.820 115.600,17.600 115.600 C 17.380 115.600,17.200 115.960,17.200 116.400 C 17.200 116.840,17.020 117.200,16.800 117.200 C 16.580 117.200,16.400 117.549,16.400 117.976 C 16.400 118.403,16.220 118.864,16.000 119.000 C 15.780 119.136,15.600 119.687,15.600 120.224 C 15.600 120.761,15.420 121.200,15.200 121.200 C 14.980 121.200,14.800 121.560,14.800 122.000 C 14.800 122.440,14.620 122.800,14.400 122.800 C 14.180 122.800,14.000 123.340,14.000 124.000 C 14.000 124.660,13.820 125.200,13.600 125.200 C 13.380 125.200,13.200 125.560,13.200 126.000 C 13.200 126.440,13.020 126.800,12.800 126.800 C 12.580 126.800,12.400 127.340,12.400 128.000 C 12.400 128.660,12.220 129.200,12.000 129.200 C 11.780 129.200,11.600 129.560,11.600 130.000 C 11.600 130.440,11.420 130.800,11.200 130.800 C 10.980 130.800,10.800 131.340,10.800 132.000 C 10.800 132.660,10.620 133.200,10.400 133.200 C 10.180 133.200,10.000 133.740,10.000 134.400 C 10.000 135.060,9.820 135.600,9.600 135.600 C 9.380 135.600,9.200 136.140,9.200 136.800 C 9.200 137.460,9.020 138.000,8.800 138.000 C 8.580 138.000,8.400 138.540,8.400 139.200 C 8.400 139.860,8.220 140.400,8.000 140.400 C 7.780 140.400,7.600 141.120,7.600 142.000 C 7.600 142.880,7.420 143.600,7.200 143.600 C 6.980 143.600,6.800 144.129,6.800 144.776 C 6.800 145.423,6.620 146.064,6.400 146.200 C 6.180 146.336,6.000 147.067,6.000 147.824 C 6.000 148.581,5.820 149.200,5.600 149.200 C 5.380 149.200,5.200 149.920,5.200 150.800 C 5.200 151.680,5.020 152.400,4.800 152.400 C 4.580 152.400,4.400 153.109,4.400 153.976 C 4.400 154.843,4.220 155.664,4.000 155.800 C 3.780 155.936,3.600 156.847,3.600 157.824 C 3.600 158.801,3.420 159.600,3.200 159.600 C 2.980 159.600,2.800 160.579,2.800 161.776 C 2.800 162.973,2.620 164.064,2.400 164.200 C 2.180 164.336,2.000 165.337,2.000 166.424 C 2.000 167.511,1.820 168.400,1.600 168.400 C 1.367 168.400,1.200 169.722,1.200 171.567 C 1.200 173.744,1.044 174.785,0.700 174.900 C -0.032 175.144,-0.032 224.856,0.700 225.100 C 1.044 225.215,1.200 226.256,1.200 228.433 C 1.200 230.278,1.367 231.600,1.600 231.600 C 1.820 231.600,2.000 232.489,2.000 233.576 C 2.000 234.663,2.180 235.664,2.400 235.800 C 2.620 235.936,2.800 237.027,2.800 238.224 C 2.800 239.421,2.980 240.400,3.200 240.400 C 3.420 240.400,3.600 241.199,3.600 242.176 C 3.600 243.153,3.780 244.064,4.000 244.200 C 4.220 244.336,4.400 245.157,4.400 246.024 C 4.400 246.891,4.580 247.600,4.800 247.600 C 5.020 247.600,5.200 248.320,5.200 249.200 C 5.200 250.080,5.380 250.800,5.600 250.800 C 5.820 250.800,6.000 251.419,6.000 252.176 C 6.000 252.933,6.180 253.664,6.400 253.800 C 6.620 253.936,6.800 254.577,6.800 255.224 C 6.800 255.871,6.980 256.400,7.200 256.400 C 7.420 256.400,7.600 257.120,7.600 258.000 C 7.600 258.880,7.780 259.600,8.000 259.600 C 8.220 259.600,8.400 260.140,8.400 260.800 C 8.400 261.460,8.580 262.000,8.800 262.000 C 9.020 262.000,9.200 262.540,9.200 263.200 C 9.200 263.860,9.380 264.400,9.600 264.400 C 9.820 264.400,10.000 264.940,10.000 265.600 C 10.000 266.260,10.180 266.800,10.400 266.800 C 10.620 266.800,10.800 267.340,10.800 268.000 C 10.800 268.660,10.980 269.200,11.200 269.200 C 11.420 269.200,11.600 269.560,11.600 270.000 C 11.600 270.440,11.780 270.800,12.000 270.800 C 12.220 270.800,12.400 271.340,12.400 272.000 C 12.400 272.660,12.580 273.200,12.800 273.200 C 13.020 273.200,13.200 273.560,13.200 274.000 C 13.200 274.440,13.380 274.800,13.600 274.800 C 13.820 274.800,14.000 275.340,14.000 276.000 C 14.000 276.660,14.180 277.200,14.400 277.200 C 14.620 277.200,14.800 277.560,14.800 278.000 C 14.800 278.440,14.980 278.800,15.200 278.800 C 15.420 278.800,15.600 279.239,15.600 279.776 C 15.600 280.313,15.780 280.864,16.000 281.000 C 16.220 281.136,16.400 281.597,16.400 282.024 C 16.400 282.451,16.580 282.800,16.800 282.800 C 17.020 282.800,17.200 283.160,17.200 283.600 C 17.200 284.040,17.380 284.400,17.600 284.400 C 17.820 284.400,18.000 284.760,18.000 285.200 C 18.000 285.640,18.180 286.000,18.400 286.000 C 18.620 286.000,18.800 286.360,18.800 286.800 C 18.800 287.240,18.980 287.600,19.200 287.600 C 19.420 287.600,19.600 287.960,19.600 288.400 C 19.600 288.840,19.780 289.200,20.000 289.200 C 20.220 289.200,20.400 289.560,20.400 290.000 C 20.400 290.440,20.580 290.800,20.800 290.800 C 21.020 290.800,21.200 291.160,21.200 291.600 C 21.200 292.040,21.380 292.400,21.600 292.400 C 21.820 292.400,22.000 292.760,22.000 293.200 C 22.000 293.640,22.180 294.000,22.400 294.000 C 22.620 294.000,22.800 294.360,22.800 294.800 C 22.800 295.240,22.980 295.600,23.200 295.600 C 23.420 295.600,23.600 295.960,23.600 296.400 C 23.600 296.840,23.780 297.200,24.000 297.200 C 24.220 297.200,24.400 297.520,24.400 297.912 C 24.400 298.303,24.760 298.883,25.200 299.200 C 25.640 299.517,26.000 300.097,26.000 300.488 C 26.000 300.880,26.180 301.200,26.400 301.200 C 26.620 301.200,26.800 301.560,26.800 302.000 C 26.800 302.440,26.980 302.800,27.200 302.800 C 27.420 302.800,27.600 303.036,27.600 303.325 C 27.600 303.613,27.960 304.236,28.400 304.708 C 28.840 305.180,29.200 305.804,29.200 306.095 C 29.200 306.386,29.560 306.883,30.000 307.200 C 30.440 307.517,30.800 308.057,30.800 308.400 C 30.800 308.743,31.160 309.283,31.600 309.600 C 32.040 309.917,32.400 310.497,32.400 310.888 C 32.400 311.280,32.550 311.600,32.732 311.600 C 32.915 311.600,33.319 312.095,33.630 312.700 C 33.940 313.305,34.511 314.091,34.897 314.447 C 35.284 314.803,35.600 315.348,35.600 315.659 C 35.600 315.969,35.960 316.483,36.400 316.800 C 36.840 317.117,37.200 317.580,37.200 317.829 C 37.200 318.078,37.740 318.846,38.400 319.537 C 39.060 320.228,39.600 320.953,39.600 321.148 C 39.600 321.344,40.320 322.245,41.200 323.152 C 42.080 324.059,42.800 324.995,42.800 325.232 C 42.800 325.469,43.520 326.354,44.400 327.200 C 45.280 328.046,46.000 328.916,46.000 329.134 C 46.000 329.352,47.035 330.587,48.300 331.879 C 49.565 333.171,51.128 334.928,51.773 335.783 C 53.293 337.798,62.202 346.707,64.217 348.227 C 65.072 348.872,66.829 350.435,68.121 351.700 C 69.413 352.965,70.648 354.000,70.866 354.000 C 71.084 354.000,71.954 354.720,72.800 355.600 C 73.646 356.480,74.531 357.200,74.768 357.200 C 75.005 357.200,75.941 357.920,76.848 358.800 C 77.755 359.680,78.656 360.400,78.852 360.400 C 79.047 360.400,79.772 360.940,80.463 361.600 C 81.154 362.260,81.922 362.800,82.171 362.800 C 82.420 362.800,82.883 363.160,83.200 363.600 C 83.517 364.040,84.031 364.400,84.341 364.400 C 84.652 364.400,85.197 364.716,85.553 365.103 C 85.909 365.489,86.695 366.060,87.300 366.370 C 87.905 366.681,88.400 367.085,88.400 367.268 C 88.400 367.450,88.720 367.600,89.112 367.600 C 89.503 367.600,90.083 367.960,90.400 368.400 C 90.717 368.840,91.257 369.200,91.600 369.200 C 91.943 369.200,92.483 369.560,92.800 370.000 C 93.117 370.440,93.614 370.800,93.905 370.800 C 94.196 370.800,94.820 371.160,95.292 371.600 C 95.764 372.040,96.387 372.400,96.675 372.400 C 96.964 372.400,97.200 372.580,97.200 372.800 C 97.200 373.020,97.560 373.200,98.000 373.200 C 98.440 373.200,98.800 373.380,98.800 373.600 C 98.800 373.820,99.120 374.000,99.512 374.000 C 99.903 374.000,100.483 374.360,100.800 374.800 C 101.117 375.240,101.697 375.600,102.088 375.600 C 102.480 375.600,102.800 375.780,102.800 376.000 C 102.800 376.220,103.160 376.400,103.600 376.400 C 104.040 376.400,104.400 376.580,104.400 376.800 C 104.400 377.020,104.760 377.200,105.200 377.200 C 105.640 377.200,106.000 377.380,106.000 377.600 C 106.000 377.820,106.360 378.000,106.800 378.000 C 107.240 378.000,107.600 378.180,107.600 378.400 C 107.600 378.620,107.960 378.800,108.400 378.800 C 108.840 378.800,109.200 378.980,109.200 379.200 C 109.200 379.420,109.560 379.600,110.000 379.600 C 110.440 379.600,110.800 379.780,110.800 380.000 C 110.800 380.220,111.160 380.400,111.600 380.400 C 112.040 380.400,112.400 380.580,112.400 380.800 C 112.400 381.020,112.760 381.200,113.200 381.200 C 113.640 381.200,114.000 381.380,114.000 381.600 C 114.000 381.820,114.360 382.000,114.800 382.000 C 115.240 382.000,115.600 382.180,115.600 382.400 C 115.600 382.620,115.960 382.800,116.400 382.800 C 116.840 382.800,117.200 382.980,117.200 383.200 C 117.200 383.420,117.549 383.600,117.976 383.600 C 118.403 383.600,118.864 383.780,119.000 384.000 C 119.136 384.220,119.687 384.400,120.224 384.400 C 120.761 384.400,121.200 384.580,121.200 384.800 C 121.200 385.020,121.560 385.200,122.000 385.200 C 122.440 385.200,122.800 385.380,122.800 385.600 C 122.800 385.820,123.340 386.000,124.000 386.000 C 124.660 386.000,125.200 386.180,125.200 386.400 C 125.200 386.620,125.560 386.800,126.000 386.800 C 126.440 386.800,126.800 386.980,126.800 387.200 C 126.800 387.420,127.340 387.600,128.000 387.600 C 128.660 387.600,129.200 387.780,129.200 388.000 C 129.200 388.220,129.560 388.400,130.000 388.400 C 130.440 388.400,130.800 388.580,130.800 388.800 C 130.800 389.020,131.340 389.200,132.000 389.200 C 132.660 389.200,133.200 389.380,133.200 389.600 C 133.200 389.820,133.740 390.000,134.400 390.000 C 135.060 390.000,135.600 390.180,135.600 390.400 C 135.600 390.620,136.140 390.800,136.800 390.800 C 137.460 390.800,138.000 390.980,138.000 391.200 C 138.000 391.420,138.540 391.600,139.200 391.600 C 139.860 391.600,140.400 391.780,140.400 392.000 C 140.400 392.220,141.120 392.400,142.000 392.400 C 142.880 392.400,143.600 392.580,143.600 392.800 C 143.600 393.020,144.129 393.200,144.776 393.200 C 145.423 393.200,146.064 393.380,146.200 393.600 C 146.336 393.820,147.067 394.000,147.824 394.000 C 148.581 394.000,149.200 394.180,149.200 394.400 C 149.200 394.620,149.920 394.800,150.800 394.800 C 151.680 394.800,152.400 394.980,152.400 395.200 C 152.400 395.420,153.109 395.600,153.976 395.600 C 154.843 395.600,155.664 395.780,155.800 396.000 C 155.936 396.220,156.847 396.400,157.824 396.400 C 158.801 396.400,159.600 396.580,159.600 396.800 C 159.600 397.020,160.579 397.200,161.776 397.200 C 162.973 397.200,164.064 397.380,164.200 397.600 C 164.336 397.820,165.337 398.000,166.424 398.000 C 167.511 398.000,168.400 398.180,168.400 398.400 C 168.400 398.633,169.722 398.800,171.567 398.800 C 173.744 398.800,174.785 398.956,174.900 399.300 C 175.144 400.032,224.856 400.032,225.100 399.300 C 225.215 398.956,226.256 398.800,228.433 398.800 C 230.278 398.800,231.600 398.633,231.600 398.400 C 231.600 398.180,232.489 398.000,233.576 398.000 C 234.663 398.000,235.664 397.820,235.800 397.600 C 235.936 397.380,237.027 397.200,238.224 397.200 C 239.421 397.200,240.400 397.020,240.400 396.800 C 240.400 396.580,241.199 396.400,242.176 396.400 C 243.153 396.400,244.064 396.220,244.200 396.000 C 244.336 395.780,245.157 395.600,246.024 395.600 C 246.891 395.600,247.600 395.420,247.600 395.200 C 247.600 394.980,248.320 394.800,249.200 394.800 C 250.080 394.800,250.800 394.620,250.800 394.400 C 250.800 394.180,251.419 394.000,252.176 394.000 C 252.933 394.000,253.664 393.820,253.800 393.600 C 253.936 393.380,254.577 393.200,255.224 393.200 C 255.871 393.200,256.400 393.020,256.400 392.800 C 256.400 392.580,257.120 392.400,258.000 392.400 C 258.880 392.400,259.600 392.220,259.600 392.000 C 259.600 391.780,260.140 391.600,260.800 391.600 C 261.460 391.600,262.000 391.420,262.000 391.200 C 262.000 390.980,262.540 390.800,263.200 390.800 C 263.860 390.800,264.400 390.620,264.400 390.400 C 264.400 390.180,264.940 390.000,265.600 390.000 C 266.260 390.000,266.800 389.820,266.800 389.600 C 266.800 389.380,267.340 389.200,268.000 389.200 C 268.660 389.200,269.200 389.020,269.200 388.800 C 269.200 388.580,269.560 388.400,270.000 388.400 C 270.440 388.400,270.800 388.220,270.800 388.000 C 270.800 387.780,271.340 387.600,272.000 387.600 C 272.660 387.600,273.200 387.420,273.200 387.200 C 273.200 386.980,273.560 386.800,274.000 386.800 C 274.440 386.800,274.800 386.620,274.800 386.400 C 274.800 386.180,275.340 386.000,276.000 386.000 C 276.660 386.000,277.200 385.820,277.200 385.600 C 277.200 385.380,277.560 385.200,278.000 385.200 C 278.440 385.200,278.800 385.020,278.800 384.800 C 278.800 384.580,279.239 384.400,279.776 384.400 C 280.313 384.400,280.864 384.220,281.000 384.000 C 281.136 383.780,281.597 383.600,282.024 383.600 C 282.451 383.600,282.800 383.420,282.800 383.200 C 282.800 382.980,283.160 382.800,283.600 382.800 C 284.040 382.800,284.400 382.620,284.400 382.400 C 284.400 382.180,284.760 382.000,285.200 382.000 C 285.640 382.000,286.000 381.820,286.000 381.600 C 286.000 381.380,286.360 381.200,286.800 381.200 C 287.240 381.200,287.600 381.020,287.600 380.800 C 287.600 380.580,287.960 380.400,288.400 380.400 C 288.840 380.400,289.200 380.220,289.200 380.000 C 289.200 379.780,289.560 379.600,290.000 379.600 C 290.440 379.600,290.800 379.420,290.800 379.200 C 290.800 378.980,291.160 378.800,291.600 378.800 C 292.040 378.800,292.400 378.620,292.400 378.400 C 292.400 378.180,292.760 378.000,293.200 378.000 C 293.640 378.000,294.000 377.820,294.000 377.600 C 294.000 377.380,294.360 377.200,294.800 377.200 C 295.240 377.200,295.600 377.020,295.600 376.800 C 295.600 376.580,295.960 376.400,296.400 376.400 C 296.840 376.400,297.200 376.220,297.200 376.000 C 297.200 375.780,297.520 375.600,297.912 375.600 C 298.303 375.600,298.883 375.240,299.200 374.800 C 299.517 374.360,300.097 374.000,300.488 374.000 C 300.880 374.000,301.200 373.820,301.200 373.600 C 301.200 373.380,301.560 373.200,302.000 373.200 C 302.440 373.200,302.800 373.020,302.800 372.800 C 302.800 372.580,303.036 372.400,303.325 372.400 C 303.613 372.400,304.236 372.040,304.708 371.600 C 305.180 371.160,305.804 370.800,306.095 370.800 C 306.386 370.800,306.883 370.440,307.200 370.000 C 307.517 369.560,308.057 369.200,308.400 369.200 C 308.743 369.200,309.283 368.840,309.600 368.400 C 309.917 367.960,310.497 367.600,310.888 367.600 C 311.280 367.600,311.600 367.450,311.600 367.268 C 311.600 367.085,312.095 366.681,312.700 366.370 C 313.305 366.060,314.091 365.489,314.447 365.103 C 314.803 364.716,315.348 364.400,315.659 364.400 C 315.969 364.400,316.483 364.040,316.800 363.600 C 317.117 363.160,317.580 362.800,317.829 362.800 C 318.078 362.800,318.846 362.260,319.537 361.600 C 320.228 360.940,320.953 360.400,321.148 360.400 C 321.344 360.400,322.245 359.680,323.152 358.800 C 324.059 357.920,324.995 357.200,325.232 357.200 C 325.469 357.200,326.354 356.480,327.200 355.600 C 328.046 354.720,328.916 354.000,329.134 354.000 C 329.352 354.000,330.587 352.965,331.879 351.700 C 333.171 350.435,334.928 348.872,335.783 348.227 C 337.798 346.707,346.707 337.798,348.227 335.783 C 348.872 334.928,350.435 333.171,351.700 331.879 C 352.965 330.587,354.000 329.352,354.000 329.134 C 354.000 328.916,354.720 328.046,355.600 327.200 C 356.480 326.354,357.200 325.469,357.200 325.232 C 357.200 324.995,357.920 324.059,358.800 323.152 C 359.680 322.245,360.400 321.344,360.400 321.148 C 360.400 320.953,360.940 320.228,361.600 319.537 C 362.260 318.846,362.800 318.078,362.800 317.829 C 362.800 317.580,363.160 317.117,363.600 316.800 C 364.040 316.483,364.400 315.969,364.400 315.659 C 364.400 315.348,364.716 314.803,365.103 314.447 C 365.489 314.091,366.060 313.305,366.370 312.700 C 366.681 312.095,367.085 311.600,367.268 311.600 C 367.450 311.600,367.600 311.280,367.600 310.888 C 367.600 310.497,367.960 309.917,368.400 309.600 C 368.840 309.283,369.200 308.743,369.200 308.400 C 369.200 308.057,369.560 307.517,370.000 307.200 C 370.440 306.883,370.800 306.386,370.800 306.095 C 370.800 305.804,371.160 305.180,371.600 304.708 C 372.040 304.236,372.400 303.613,372.400 303.325 C 372.400 303.036,372.580 302.800,372.800 302.800 C 373.020 302.800,373.200 302.440,373.200 302.000 C 373.200 301.560,373.380 301.200,373.600 301.200 C 373.820 301.200,374.000 300.880,374.000 300.488 C 374.000 300.097,374.360 299.517,374.800 299.200 C 375.240 298.883,375.600 298.303,375.600 297.912 C 375.600 297.520,375.780 297.200,376.000 297.200 C 376.220 297.200,376.400 296.840,376.400 296.400 C 376.400 295.960,376.580 295.600,376.800 295.600 C 377.020 295.600,377.200 295.240,377.200 294.800 C 377.200 294.360,377.380 294.000,377.600 294.000 C 377.820 294.000,378.000 293.640,378.000 293.200 C 378.000 292.760,378.180 292.400,378.400 292.400 C 378.620 292.400,378.800 292.040,378.800 291.600 C 378.800 291.160,378.980 290.800,379.200 290.800 C 379.420 290.800,379.600 290.440,379.600 290.000 C 379.600 289.560,379.780 289.200,380.000 289.200 C 380.220 289.200,380.400 288.840,380.400 288.400 C 380.400 287.960,380.580 287.600,380.800 287.600 C 381.020 287.600,381.200 287.240,381.200 286.800 C 381.200 286.360,381.380 286.000,381.600 286.000 C 381.820 286.000,382.000 285.640,382.000 285.200 C 382.000 284.760,382.180 284.400,382.400 284.400 C 382.620 284.400,382.800 284.040,382.800 283.600 C 382.800 283.160,382.980 282.800,383.200 282.800 C 383.420 282.800,383.600 282.451,383.600 282.024 C 383.600 281.597,383.780 281.136,384.000 281.000 C 384.220 280.864,384.400 280.313,384.400 279.776 C 384.400 279.239,384.580 278.800,384.800 278.800 C 385.020 278.800,385.200 278.440,385.200 278.000 C 385.200 277.560,385.380 277.200,385.600 277.200 C 385.820 277.200,386.000 276.660,386.000 276.000 C 386.000 275.340,386.180 274.800,386.400 274.800 C 386.620 274.800,386.800 274.440,386.800 274.000 C 386.800 273.560,386.980 273.200,387.200 273.200 C 387.420 273.200,387.600 272.660,387.600 272.000 C 387.600 271.340,387.780 270.800,388.000 270.800 C 388.220 270.800,388.400 270.440,388.400 270.000 C 388.400 269.560,388.580 269.200,388.800 269.200 C 389.020 269.200,389.200 268.660,389.200 268.000 C 389.200 267.340,389.380 266.800,389.600 266.800 C 389.820 266.800,390.000 266.260,390.000 265.600 C 390.000 264.940,390.180 264.400,390.400 264.400 C 390.620 264.400,390.800 263.860,390.800 263.200 C 390.800 262.540,390.980 262.000,391.200 262.000 C 391.420 262.000,391.600 261.460,391.600 260.800 C 391.600 260.140,391.780 259.600,392.000 259.600 C 392.220 259.600,392.400 258.880,392.400 258.000 C 392.400 257.120,392.580 256.400,392.800 256.400 C 393.020 256.400,393.200 255.871,393.200 255.224 C 393.200 254.577,393.380 253.936,393.600 253.800 C 393.820 253.664,394.000 252.933,394.000 252.176 C 394.000 251.419,394.180 250.800,394.400 250.800 C 394.620 250.800,394.800 250.080,394.800 249.200 C 394.800 248.320,394.980 247.600,395.200 247.600 C 395.420 247.600,395.600 246.891,395.600 246.024 C 395.600 245.157,395.780 244.336,396.000 244.200 C 396.220 244.064,396.400 243.153,396.400 242.176 C 396.400 241.199,396.580 240.400,396.800 240.400 C 397.020 240.400,397.200 239.421,397.200 238.224 C 397.200 237.027,397.380 235.936,397.600 235.800 C 397.820 235.664,398.000 234.663,398.000 233.576 C 398.000 232.489,398.180 231.600,398.400 231.600 C 398.633 231.600,398.800 230.278,398.800 228.433 C 398.800 226.256,398.956 225.215,399.300 225.100 C 399.693 224.969,399.800 219.591,399.800 200.000 C 399.800 180.409,399.693 175.031,399.300 174.900 C 398.956 174.785,398.800 173.744,398.800 171.567 C 398.800 169.722,398.633 168.400,398.400 168.400 C 398.180 168.400,398.000 167.511,398.000 166.424 C 398.000 165.337,397.820 164.336,397.600 164.200 C 397.380 164.064,397.200 162.973,397.200 161.776 C 397.200 160.579,397.020 159.600,396.800 159.600 C 396.580 159.600,396.400 158.801,396.400 157.824 C 396.400 156.847,396.220 155.936,396.000 155.800 C 395.780 155.664,395.600 154.843,395.600 153.976 C 395.600 153.109,395.420 152.400,395.200 152.400 C 394.980 152.400,394.800 151.680,394.800 150.800 C 394.800 149.920,394.620 149.200,394.400 149.200 C 394.180 149.200,394.000 148.581,394.000 147.824 C 394.000 147.067,393.820 146.336,393.600 146.200 C 393.380 146.064,393.200 145.423,393.200 144.776 C 393.200 144.129,393.020 143.600,392.800 143.600 C 392.580 143.600,392.400 142.880,392.400 142.000 C 392.400 141.120,392.220 140.400,392.000 140.400 C 391.780 140.400,391.600 139.860,391.600 139.200 C 391.600 138.540,391.420 138.000,391.200 138.000 C 390.980 138.000,390.800 137.460,390.800 136.800 C 390.800 136.140,390.620 135.600,390.400 135.600 C 390.180 135.600,390.000 135.060,390.000 134.400 C 390.000 133.740,389.820 133.200,389.600 133.200 C 389.380 133.200,389.200 132.660,389.200 132.000 C 389.200 131.340,389.020 130.800,388.800 130.800 C 388.580 130.800,388.400 130.440,388.400 130.000 C 388.400 129.560,388.220 129.200,388.000 129.200 C 387.780 129.200,387.600 128.660,387.600 128.000 C 387.600 127.340,387.420 126.800,387.200 126.800 C 386.980 126.800,386.800 126.440,386.800 126.000 C 386.800 125.560,386.620 125.200,386.400 125.200 C 386.180 125.200,386.000 124.660,386.000 124.000 C 386.000 123.340,385.820 122.800,385.600 122.800 C 385.380 122.800,385.200 122.440,385.200 122.000 C 385.200 121.560,385.020 121.200,384.800 121.200 C 384.580 121.200,384.400 120.761,384.400 120.224 C 384.400 119.687,384.220 119.136,384.000 119.000 C 383.780 118.864,383.600 118.403,383.600 117.976 C 383.600 117.549,383.420 117.200,383.200 117.200 C 382.980 117.200,382.800 116.840,382.800 116.400 C 382.800 115.960,382.620 115.600,382.400 115.600 C 382.180 115.600,382.000 115.240,382.000 114.800 C 382.000 114.360,381.820 114.000,381.600 114.000 C 381.380 114.000,381.200 113.640,381.200 113.200 C 381.200 112.760,381.020 112.400,380.800 112.400 C 380.580 112.400,380.400 112.040,380.400 111.600 C 380.400 111.160,380.220 110.800,380.000 110.800 C 379.780 110.800,379.600 110.440,379.600 110.000 C 379.600 109.560,379.420 109.200,379.200 109.200 C 378.980 109.200,378.800 108.840,378.800 108.400 C 378.800 107.960,378.620 107.600,378.400 107.600 C 378.180 107.600,378.000 107.240,378.000 106.800 C 378.000 106.360,377.820 106.000,377.600 106.000 C 377.380 106.000,377.200 105.640,377.200 105.200 C 377.200 104.760,377.020 104.400,376.800 104.400 C 376.580 104.400,376.400 104.040,376.400 103.600 C 376.400 103.160,376.220 102.800,376.000 102.800 C 375.780 102.800,375.600 102.480,375.600 102.088 C 375.600 101.697,375.240 101.117,374.800 100.800 C 374.360 100.483,374.000 99.903,374.000 99.512 C 374.000 99.120,373.820 98.800,373.600 98.800 C 373.380 98.800,373.200 98.440,373.200 98.000 C 373.200 97.560,373.020 97.200,372.800 97.200 C 372.580 97.200,372.400 96.964,372.400 96.675 C 372.400 96.387,372.040 95.764,371.600 95.292 C 371.160 94.820,370.800 94.196,370.800 93.905 C 370.800 93.614,370.440 93.117,370.000 92.800 C 369.560 92.483,369.200 91.943,369.200 91.600 C 369.200 91.257,368.840 90.717,368.400 90.400 C 367.960 90.083,367.600 89.503,367.600 89.112 C 367.600 88.720,367.450 88.400,367.268 88.400 C 367.085 88.400,366.681 87.905,366.370 87.300 C 366.060 86.695,365.489 85.909,365.103 85.553 C 364.716 85.197,364.400 84.652,364.400 84.341 C 364.400 84.031,364.040 83.517,363.600 83.200 C 363.160 82.883,362.800 82.420,362.800 82.171 C 362.800 81.922,362.260 81.154,361.600 80.463 C 360.940 79.772,360.400 79.047,360.400 78.852 C 360.400 78.656,359.680 77.755,358.800 76.848 C 357.920 75.941,357.200 75.005,357.200 74.768 C 357.200 74.531,356.480 73.646,355.600 72.800 C 354.720 71.954,354.000 71.084,354.000 70.866 C 354.000 70.648,352.965 69.413,351.700 68.121 C 350.435 66.829,348.872 65.072,348.227 64.217 C 346.707 62.202,337.798 53.293,335.783 51.773 C 334.928 51.128,333.171 49.565,331.879 48.300 C 330.587 47.035,329.352 46.000,329.134 46.000 C 328.916 46.000,328.046 45.280,327.200 44.400 C 326.354 43.520,325.469 42.800,325.232 42.800 C 324.995 42.800,324.059 42.080,323.152 41.200 C 322.245 40.320,321.344 39.600,321.148 39.600 C 320.953 39.600,320.228 39.060,319.537 38.400 C 318.846 37.740,318.078 37.200,317.829 37.200 C 317.580 37.200,317.117 36.840,316.800 36.400 C 316.483 35.960,315.969 35.600,315.659 35.600 C 315.348 35.600,314.803 35.284,314.447 34.897 C 314.091 34.511,313.305 33.940,312.700 33.630 C 312.095 33.319,311.600 32.915,311.600 32.732 C 311.600 32.550,311.280 32.400,310.888 32.400 C 310.497 32.400,309.917 32.040,309.600 31.600 C 309.283 31.160,308.743 30.800,308.400 30.800 C 308.057 30.800,307.517 30.440,307.200 30.000 C 306.883 29.560,306.386 29.200,306.095 29.200 C 305.804 29.200,305.180 28.840,304.708 28.400 C 304.236 27.960,303.613 27.600,303.325 27.600 C 303.036 27.600,302.800 27.420,302.800 27.200 C 302.800 26.980,302.440 26.800,302.000 26.800 C 301.560 26.800,301.200 26.620,301.200 26.400 C 301.200 26.180,300.880 26.000,300.488 26.000 C 300.097 26.000,299.517 25.640,299.200 25.200 C 298.883 24.760,298.303 24.400,297.912 24.400 C 297.520 24.400,297.200 24.220,297.200 24.000 C 297.200 23.780,296.840 23.600,296.400 23.600 C 295.960 23.600,295.600 23.420,295.600 23.200 C 295.600 22.980,295.240 22.800,294.800 22.800 C 294.360 22.800,294.000 22.620,294.000 22.400 C 294.000 22.180,293.640 22.000,293.200 22.000 C 292.760 22.000,292.400 21.820,292.400 21.600 C 292.400 21.380,292.040 21.200,291.600 21.200 C 291.160 21.200,290.800 21.020,290.800 20.800 C 290.800 20.580,290.440 20.400,290.000 20.400 C 289.560 20.400,289.200 20.220,289.200 20.000 C 289.200 19.780,288.840 19.600,288.400 19.600 C 287.960 19.600,287.600 19.420,287.600 19.200 C 287.600 18.980,287.240 18.800,286.800 18.800 C 286.360 18.800,286.000 18.620,286.000 18.400 C 286.000 18.180,285.640 18.000,285.200 18.000 C 284.760 18.000,284.400 17.820,284.400 17.600 C 284.400 17.380,284.040 17.200,283.600 17.200 C 283.160 17.200,282.800 17.020,282.800 16.800 C 282.800 16.580,282.451 16.400,282.024 16.400 C 281.597 16.400,281.136 16.220,281.000 16.000 C 280.864 15.780,280.313 15.600,279.776 15.600 C 279.239 15.600,278.800 15.420,278.800 15.200 C 278.800 14.980,278.440 14.800,278.000 14.800 C 277.560 14.800,277.200 14.620,277.200 14.400 C 277.200 14.180,276.660 14.000,276.000 14.000 C 275.340 14.000,274.800 13.820,274.800 13.600 C 274.800 13.380,274.440 13.200,274.000 13.200 C 273.560 13.200,273.200 13.020,273.200 12.800 C 273.200 12.580,272.660 12.400,272.000 12.400 C 271.340 12.400,270.800 12.220,270.800 12.000 C 270.800 11.780,270.440 11.600,270.000 11.600 C 269.560 11.600,269.200 11.420,269.200 11.200 C 269.200 10.980,268.660 10.800,268.000 10.800 C 267.340 10.800,266.800 10.620,266.800 10.400 C 266.800 10.180,266.260 10.000,265.600 10.000 C 264.940 10.000,264.400 9.820,264.400 9.600 C 264.400 9.380,263.860 9.200,263.200 9.200 C 262.540 9.200,262.000 9.020,262.000 8.800 C 262.000 8.580,261.460 8.400,260.800 8.400 C 260.140 8.400,259.600 8.220,259.600 8.000 C 259.600 7.780,258.880 7.600,258.000 7.600 C 257.120 7.600,256.400 7.420,256.400 7.200 C 256.400 6.980,255.871 6.800,255.224 6.800 C 254.577 6.800,253.936 6.620,253.800 6.400 C 253.664 6.180,252.933 6.000,252.176 6.000 C 251.419 6.000,250.800 5.820,250.800 5.600 C 250.800 5.380,250.080 5.200,249.200 5.200 C 248.320 5.200,247.600 5.020,247.600 4.800 C 247.600 4.580,246.891 4.400,246.024 4.400 C 245.157 4.400,244.336 4.220,244.200 4.000 C 244.064 3.780,243.153 3.600,242.176 3.600 C 241.199 3.600,240.400 3.420,240.400 3.200 C 240.400 2.980,239.421 2.800,238.224 2.800 C 237.027 2.800,235.936 2.620,235.800 2.400 C 235.664 2.180,234.663 2.000,233.576 2.000 C 232.489 2.000,231.600 1.820,231.600 1.600 C 231.600 1.367,230.278 1.200,228.433 1.200 C 226.304 1.200,225.214 1.041,225.105 0.714 C 224.944 0.233,187.802 -0.118,178.500 0.274 M178.700 71.729 C 178.975 72.004,179.581 73.302,180.046 74.615 C 180.511 75.927,181.787 79.520,182.883 82.600 C 183.979 85.680,185.021 88.650,185.200 89.200 C 185.379 89.750,186.459 92.810,187.600 96.000 C 188.741 99.190,189.821 102.250,190.000 102.800 C 190.179 103.350,191.256 106.410,192.395 109.600 C 193.533 112.790,195.545 118.460,196.866 122.200 C 199.965 130.979,202.919 139.316,204.448 143.600 C 205.115 145.470,205.995 147.990,206.404 149.200 C 206.812 150.410,207.894 153.470,208.809 156.000 C 209.723 158.530,210.803 161.590,211.209 162.800 C 211.614 164.010,212.693 167.070,213.606 169.600 C 214.519 172.130,215.656 175.354,216.133 176.765 L 217.000 179.329 217.200 125.450 C 217.376 78.139,217.473 71.525,218.000 71.191 C 218.949 70.592,267.317 70.677,267.920 71.280 C 268.670 72.030,268.614 324.125,267.863 324.748 C 267.568 324.993,267.242 325.108,267.138 325.005 C 266.779 324.646,254.599 323.194,245.400 322.414 C 242.760 322.190,238.530 321.830,236.000 321.613 C 233.470 321.396,228.250 321.101,224.400 320.958 C 216.143 320.652,216.305 320.713,215.268 317.507 C 214.823 316.128,214.064 313.920,213.584 312.600 C 212.248 308.935,208.766 299.127,208.400 298.000 C 208.221 297.450,207.141 294.390,206.000 291.200 C 204.859 288.010,203.779 284.950,203.600 284.400 C 203.421 283.850,202.341 280.790,201.200 277.600 C 200.059 274.410,198.078 268.830,196.798 265.200 C 193.727 256.489,190.652 247.803,189.152 243.600 C 188.485 241.730,187.605 239.210,187.196 238.000 C 186.788 236.790,186.061 234.720,185.581 233.400 C 184.081 229.273,180.765 219.891,180.067 217.800 C 179.435 215.906,179.389 218.567,179.200 267.880 C 179.070 301.838,178.861 320.085,178.600 320.320 C 178.380 320.518,173.610 320.984,168.000 321.356 C 162.390 321.728,155.100 322.298,151.800 322.623 C 139.615 323.823,137.342 324.063,134.723 324.428 C 130.638 324.996,128.528 324.911,128.243 324.167 C 127.826 323.081,127.962 71.798,128.380 71.380 C 128.995 70.764,178.075 71.104,178.700 71.729 " stroke="none" fill="#fcfbfb" fill-rule="evenodd"></path><path id="path2" d="M178.825 215.000 C 178.825 215.220,179.090 215.749,179.413 216.176 C 179.736 216.604,180.000 216.773,180.000 216.553 C 180.000 216.333,179.736 215.804,179.413 215.376 C 179.090 214.949,178.825 214.780,178.825 215.000 M174.100 320.691 C 174.925 320.778,176.275 320.778,177.100 320.691 C 177.925 320.605,177.250 320.534,175.600 320.534 C 173.950 320.534,173.275 320.605,174.100 320.691 M219.107 320.690 C 219.826 320.779,220.906 320.777,221.507 320.686 C 222.108 320.595,221.520 320.522,220.200 320.524 C 218.880 320.526,218.388 320.601,219.107 320.690 M168.300 321.089 C 169.015 321.178,170.185 321.178,170.900 321.089 C 171.615 321.001,171.030 320.928,169.600 320.928 C 168.170 320.928,167.585 321.001,168.300 321.089 M228.500 321.091 C 229.325 321.178,230.675 321.178,231.500 321.091 C 232.325 321.005,231.650 320.934,230.000 320.934 C 228.350 320.934,227.675 321.005,228.500 321.091 M234.705 321.483 C 235.202 321.579,235.922 321.575,236.305 321.475 C 236.687 321.375,236.280 321.296,235.400 321.301 C 234.520 321.305,234.207 321.387,234.705 321.483 M155.900 321.882 C 156.395 321.978,157.205 321.978,157.700 321.882 C 158.195 321.787,157.790 321.709,156.800 321.709 C 155.810 321.709,155.405 321.787,155.900 321.882 M240.100 321.887 C 240.705 321.978,241.695 321.978,242.300 321.887 C 242.905 321.795,242.410 321.720,241.200 321.720 C 239.990 321.720,239.495 321.795,240.100 321.887 M244.500 322.276 C 244.885 322.376,245.515 322.376,245.900 322.276 C 246.285 322.175,245.970 322.093,245.200 322.093 C 244.430 322.093,244.115 322.175,244.500 322.276 M147.300 322.676 C 147.685 322.776,148.315 322.776,148.700 322.676 C 149.085 322.575,148.770 322.493,148.000 322.493 C 147.230 322.493,146.915 322.575,147.300 322.676 M249.305 322.687 C 249.914 322.779,250.814 322.777,251.305 322.682 C 251.797 322.587,251.300 322.511,250.200 322.514 C 249.100 322.517,248.697 322.595,249.305 322.687 M144.100 323.076 C 144.485 323.176,145.115 323.176,145.500 323.076 C 145.885 322.975,145.570 322.893,144.800 322.893 C 144.030 322.893,143.715 322.975,144.100 323.076 M139.700 323.476 C 140.085 323.576,140.715 323.576,141.100 323.476 C 141.485 323.375,141.170 323.293,140.400 323.293 C 139.630 323.293,139.315 323.375,139.700 323.476 M257.105 323.483 C 257.602 323.579,258.322 323.575,258.705 323.475 C 259.087 323.375,258.680 323.296,257.800 323.301 C 256.920 323.305,256.607 323.387,257.105 323.483 M128.760 324.520 C 128.946 324.706,129.706 324.796,130.449 324.719 C 131.767 324.583,131.758 324.575,130.110 324.380 C 129.181 324.271,128.573 324.333,128.760 324.520 M263.700 324.276 C 264.085 324.376,264.715 324.376,265.100 324.276 C 265.485 324.175,265.170 324.093,264.400 324.093 C 263.630 324.093,263.315 324.175,263.700 324.276 " stroke="none" fill="#ecbcbc" fill-rule="evenodd"></path><path id="path3" d="M128.667 71.467 C 127.982 72.152,128.376 324.016,129.062 324.279 C 129.641 324.501,133.178 324.176,145.200 322.794 C 150.797 322.150,173.858 320.397,176.700 320.399 C 177.635 320.400,178.443 320.355,178.496 320.300 C 178.549 320.245,178.684 296.440,178.796 267.400 C 178.955 226.376,179.105 214.823,179.473 215.600 C 179.732 216.150,180.253 217.459,180.630 218.509 C 181.007 219.559,181.394 220.340,181.489 220.244 C 181.752 219.981,179.079 212.800,178.717 212.800 C 178.544 212.800,178.357 236.875,178.301 266.300 L 178.200 319.800 173.400 320.076 C 162.648 320.693,154.414 321.263,151.200 321.612 C 149.330 321.816,144.380 322.350,140.200 322.800 C 136.020 323.249,131.745 323.727,130.700 323.861 L 128.800 324.104 128.800 198.076 C 128.800 128.760,128.935 71.992,129.100 71.924 C 129.265 71.856,140.399 71.848,153.842 71.906 L 178.283 72.012 178.714 72.906 C 179.015 73.529,179.154 73.607,179.173 73.162 C 179.257 71.180,179.523 71.200,153.335 71.200 C 139.914 71.200,128.813 71.320,128.667 71.467 M217.843 71.833 C 217.709 72.181,217.600 96.851,217.600 126.656 C 217.600 162.682,217.466 180.764,217.200 180.600 C 216.575 180.214,216.731 181.188,217.401 181.858 C 218.407 182.864,218.399 183.268,218.501 126.600 L 218.600 71.800 242.974 71.697 C 262.209 71.615,267.416 71.700,267.668 72.097 C 267.898 72.458,267.989 72.403,267.994 71.900 C 268.003 70.873,218.237 70.806,217.843 71.833 M179.212 74.137 C 179.190 74.754,181.308 80.425,181.492 80.241 C 181.592 80.141,181.274 78.921,180.787 77.530 C 179.874 74.925,179.234 73.545,179.212 74.137 M181.612 80.937 C 181.590 81.554,183.708 87.225,183.892 87.041 C 183.992 86.941,183.674 85.721,183.187 84.330 C 182.274 81.725,181.634 80.345,181.612 80.937 M184.012 87.737 C 183.990 88.354,186.108 94.025,186.292 93.841 C 186.392 93.741,186.074 92.521,185.587 91.130 C 184.674 88.525,184.034 87.145,184.012 87.737 M186.412 94.537 C 186.390 95.154,188.508 100.825,188.692 100.641 C 188.792 100.541,188.474 99.321,187.987 97.930 C 187.074 95.325,186.434 93.945,186.412 94.537 M188.812 101.337 C 188.790 101.954,190.908 107.625,191.092 107.441 C 191.192 107.341,190.874 106.121,190.387 104.730 C 189.474 102.125,188.834 100.745,188.812 101.337 M191.212 108.137 C 191.190 108.754,193.308 114.425,193.492 114.241 C 193.592 114.141,193.274 112.921,192.787 111.530 C 191.874 108.925,191.234 107.545,191.212 108.137 M193.612 114.937 C 193.590 115.554,195.708 121.225,195.892 121.041 C 195.992 120.941,195.674 119.721,195.187 118.330 C 194.274 115.725,193.634 114.345,193.612 114.937 M196.059 122.000 C 196.059 122.330,196.393 123.320,196.800 124.200 C 197.207 125.080,197.541 125.530,197.541 125.200 C 197.541 124.870,197.207 123.880,196.800 123.000 C 196.393 122.120,196.059 121.670,196.059 122.000 M197.604 126.233 C 197.610 126.703,200.366 134.499,200.614 134.747 C 201.038 135.171,200.716 133.987,199.382 130.220 C 198.035 126.416,197.595 125.428,197.604 126.233 M200.859 135.600 C 200.859 135.930,201.193 136.920,201.600 137.800 C 202.007 138.680,202.341 139.130,202.341 138.800 C 202.341 138.470,202.007 137.480,201.600 136.600 C 201.193 135.720,200.859 135.270,200.859 135.600 M202.400 139.769 C 202.400 140.395,206.916 152.818,207.083 152.651 C 207.179 152.555,206.984 151.694,206.650 150.738 C 203.057 140.464,202.400 138.769,202.400 139.769 M207.212 153.337 C 207.190 153.954,209.308 159.625,209.492 159.441 C 209.592 159.341,209.274 158.121,208.787 156.730 C 207.874 154.125,207.234 152.745,207.212 153.337 M209.612 160.137 C 209.590 160.754,211.708 166.425,211.892 166.241 C 211.992 166.141,211.674 164.921,211.187 163.530 C 210.274 160.925,209.634 159.545,209.612 160.137 M212.012 166.937 C 211.990 167.554,214.108 173.225,214.292 173.041 C 214.392 172.941,214.074 171.721,213.587 170.330 C 212.674 167.725,212.034 166.345,212.012 166.937 M214.412 173.737 C 214.390 174.354,216.508 180.025,216.692 179.841 C 216.792 179.741,216.474 178.521,215.987 177.130 C 215.074 174.525,214.434 173.145,214.412 173.737 M181.600 221.102 C 181.600 221.520,183.564 226.897,183.805 227.138 C 184.198 227.531,183.977 226.662,182.948 223.763 C 181.988 221.058,181.600 220.292,181.600 221.102 M184.000 227.902 C 184.000 228.320,185.964 233.697,186.205 233.938 C 186.598 234.331,186.377 233.462,185.348 230.563 C 184.388 227.858,184.000 227.092,184.000 227.902 M186.400 234.702 C 186.400 235.120,188.364 240.497,188.605 240.738 C 188.998 241.131,188.777 240.262,187.748 237.363 C 186.788 234.658,186.400 233.892,186.400 234.702 M188.800 241.502 C 188.800 241.920,190.764 247.297,191.005 247.538 C 191.398 247.931,191.177 247.062,190.148 244.163 C 189.188 241.458,188.800 240.692,188.800 241.502 M191.259 248.400 C 191.259 248.730,191.593 249.720,192.000 250.600 C 192.407 251.480,192.741 251.930,192.741 251.600 C 192.741 251.270,192.407 250.280,192.000 249.400 C 191.593 248.520,191.259 248.070,191.259 248.400 M192.812 252.800 C 192.812 253.130,192.987 253.670,193.200 254.000 C 193.545 254.533,193.588 254.533,193.588 254.000 C 193.588 253.670,193.413 253.130,193.200 252.800 C 192.855 252.267,192.812 252.267,192.812 252.800 M193.600 255.102 C 193.600 255.520,195.564 260.897,195.805 261.138 C 196.198 261.531,195.977 260.662,194.948 257.763 C 193.988 255.058,193.600 254.292,193.600 255.102 M196.059 262.000 C 196.059 262.330,196.393 263.320,196.800 264.200 C 197.207 265.080,197.541 265.530,197.541 265.200 C 197.541 264.870,197.207 263.880,196.800 263.000 C 196.393 262.120,196.059 261.670,196.059 262.000 M197.612 266.400 C 197.612 266.730,197.787 267.270,198.000 267.600 C 198.345 268.133,198.388 268.133,198.388 267.600 C 198.388 267.270,198.213 266.730,198.000 266.400 C 197.655 265.867,197.612 265.867,197.612 266.400 M198.412 268.537 C 198.390 269.154,200.508 274.825,200.692 274.641 C 200.792 274.541,200.474 273.321,199.987 271.930 C 199.074 269.325,198.434 267.945,198.412 268.537 M200.859 275.600 C 200.859 275.930,201.193 276.920,201.600 277.800 C 202.007 278.680,202.341 279.130,202.341 278.800 C 202.341 278.470,202.007 277.480,201.600 276.600 C 201.193 275.720,200.859 275.270,200.859 275.600 M202.400 279.902 C 202.400 280.320,204.364 285.697,204.605 285.938 C 204.998 286.331,204.777 285.462,203.748 282.563 C 202.788 279.858,202.400 279.092,202.400 279.902 M204.800 286.702 C 204.800 287.120,206.764 292.497,207.005 292.738 C 207.398 293.131,207.177 292.262,206.148 289.363 C 205.188 286.658,204.800 285.892,204.800 286.702 M207.200 293.502 C 207.200 293.920,209.164 299.297,209.405 299.538 C 209.798 299.931,209.577 299.062,208.548 296.163 C 207.588 293.458,207.200 292.692,207.200 293.502 M209.600 300.302 C 209.600 300.720,211.564 306.097,211.805 306.338 C 212.198 306.731,211.977 305.862,210.948 302.963 C 209.988 300.258,209.600 299.492,209.600 300.302 M212.000 307.102 C 212.000 307.520,213.964 312.897,214.205 313.138 C 214.598 313.531,214.377 312.662,213.348 309.763 C 212.388 307.058,212.000 306.292,212.000 307.102 M214.427 313.802 C 214.395 314.284,216.314 319.647,216.634 319.967 C 216.965 320.298,222.866 320.736,227.000 320.737 C 232.371 320.737,230.585 320.419,223.372 320.090 L 217.003 319.800 216.084 317.400 C 214.844 314.161,214.459 313.325,214.427 313.802 M235.000 321.215 C 236.320 321.379,238.390 321.509,239.600 321.503 L 241.800 321.493 239.800 321.182 C 238.700 321.010,236.630 320.881,235.200 320.894 L 232.600 320.918 235.000 321.215 M245.000 322.018 C 246.100 322.190,247.810 322.325,248.800 322.319 L 250.600 322.308 249.000 321.977 C 248.120 321.795,246.410 321.660,245.200 321.676 L 243.000 321.707 245.000 322.018 M253.400 322.823 C 254.280 323.005,255.810 323.142,256.800 323.127 L 258.600 323.100 256.800 322.780 C 255.810 322.603,254.280 322.467,253.400 322.476 L 251.800 322.492 253.400 322.823 M260.600 323.623 C 261.480 323.805,262.830 323.943,263.600 323.930 L 265.000 323.905 263.800 323.600 C 263.140 323.432,261.790 323.294,260.800 323.293 L 259.000 323.292 260.600 323.623 M266.600 323.990 C 265.407 324.229,265.406 324.232,266.393 324.502 C 266.939 324.652,267.557 324.603,267.766 324.394 C 268.319 323.841,267.962 323.717,266.600 323.990 " stroke="none" fill="#ef9297" fill-rule="evenodd"></path><path id="path4" d="M128.480 71.280 C 128.108 71.652,128.022 100.232,128.099 197.980 L 128.198 324.200 128.399 197.818 L 128.600 71.436 129.600 71.158 C 130.438 70.925,130.467 70.873,129.780 70.840 C 129.329 70.818,128.744 71.016,128.480 71.280 M230.729 71.100 C 237.620 71.161,248.780 71.161,255.529 71.100 C 262.278 71.038,256.640 70.988,243.000 70.988 C 229.360 70.988,223.838 71.038,230.729 71.100 M268.198 198.000 C 268.198 267.630,268.244 296.115,268.300 261.300 C 268.356 226.485,268.356 169.515,268.300 134.700 C 268.244 99.885,268.198 128.370,268.198 198.000 M217.103 126.038 C 217.046 155.539,217.132 179.884,217.294 180.138 C 217.456 180.392,217.591 156.255,217.594 126.500 C 217.597 96.745,217.511 72.400,217.403 72.400 C 217.294 72.400,217.159 96.537,217.103 126.038 M178.994 267.600 C 178.994 296.310,179.042 308.055,179.100 293.700 C 179.158 279.345,179.158 255.855,179.100 241.500 C 179.042 227.145,178.994 238.890,178.994 267.600 M164.707 321.490 C 165.426 321.579,166.506 321.577,167.107 321.486 C 167.708 321.395,167.120 321.322,165.800 321.324 C 164.480 321.326,163.988 321.401,164.707 321.490 M159.300 321.887 C 159.905 321.978,160.895 321.978,161.500 321.887 C 162.105 321.795,161.610 321.720,160.400 321.720 C 159.190 321.720,158.695 321.795,159.300 321.887 M153.700 322.276 C 154.085 322.376,154.715 322.376,155.100 322.276 C 155.485 322.175,155.170 322.093,154.400 322.093 C 153.630 322.093,153.315 322.175,153.700 322.276 M149.700 322.676 C 150.085 322.776,150.715 322.776,151.100 322.676 C 151.485 322.575,151.170 322.493,150.400 322.493 C 149.630 322.493,149.315 322.575,149.700 322.676 M146.500 323.076 C 146.885 323.176,147.515 323.176,147.900 323.076 C 148.285 322.975,147.970 322.893,147.200 322.893 C 146.430 322.893,146.115 322.975,146.500 323.076 M138.500 323.876 C 138.885 323.976,139.515 323.976,139.900 323.876 C 140.285 323.775,139.970 323.693,139.200 323.693 C 138.430 323.693,138.115 323.775,138.500 323.876 " stroke="none" fill="#e4bfc0" fill-rule="evenodd"></path></g></svg>