<svg id="Layer_1" data-name="Layer 1" xmlns="http://www.w3.org/2000/svg" viewBox="0 0 1010.59 1010.59"><defs><style>.cls-1{fill:#fff;}.cls-2{fill:#56beb7;}</style></defs><circle class="cls-1" cx="506.82" cy="503.58" r="444.84"/><path class="cls-2" d="M233.38,377.21l58.31,167.91,55.15-167.91h84V623.1H369.32V474.16L314.87,623.1H263.59L209.14,474.16V623.1H147.67V377.21Z"/><path class="cls-2" d="M456.6,581.3q-12.12-21.07-12.12-48.83t12.12-48.82A81.65,81.65,0,0,1,491,451.15q22.31-11.41,52.16-11.41t52.16,11.41a81.65,81.65,0,0,1,34.43,32.5q12.12,21.08,12.12,48.82T629.78,581.3a81.69,81.69,0,0,1-34.43,32.49Q573,625.2,543.19,625.21T491,613.79A81.69,81.69,0,0,1,456.6,581.3Zm123.47-48.83q0-20-9.83-32.14t-27-12.12q-17.21,0-27.05,12.12t-9.83,32.14q0,20,9.83,32.14t27.05,12.12q17.22,0,27-12.12T580.07,532.47Z"/><path class="cls-2" d="M709.51,390.56q27.57-15.46,65.16-15.46,29.87,0,53.39,11.95a96.49,96.49,0,0,1,37.59,33.19q14.05,21.25,16.16,48.65H817.17q-3.51-18.27-15.63-29.33T771.16,428.5q-24.95,0-38.82,19.67t-13.87,52q0,32.33,13.87,52t38.82,19.67q18.26,0,30.38-11.06t15.63-29.33h64.64q-2.12,27.39-16.16,48.65a96.49,96.49,0,0,1-37.59,33.19q-23.53,12-53.39,12-37.59,0-65.16-15.46a104.68,104.68,0,0,1-42.33-43.56q-14.76-28.1-14.75-66t14.75-66A104.68,104.68,0,0,1,709.51,390.56Z"/><path class="cls-2" d="M505.3,67.2A438.22,438.22,0,0,1,675.81,909a438.22,438.22,0,0,1-341-807.37A435.43,435.43,0,0,1,505.3,67.2m0-61.9c-276.15,0-500,223.85-500,500s223.85,500,500,500,500-223.86,500-500-223.86-500-500-500Z"/></svg>