<svg id="svg" version="1.1" xmlns="http://www.w3.org/2000/svg" xmlns:xlink="http://www.w3.org/1999/xlink" width="400" height="400" viewBox="0, 0, 400,400"><g id="svgg"><path id="path0" d="M203.279 104.199 C 197.308 115.288,195.756 116.910,186.075 122.175 C 180.205 125.368,180.207 125.285,185.870 128.401 C 194.914 133.377,197.613 136.162,203.113 146.191 C 204.261 148.286,205.306 150.000,205.435 150.000 C 205.564 150.000,206.987 147.620,208.596 144.710 C 213.458 135.923,216.091 133.312,225.104 128.339 C 227.811 126.845,229.941 125.485,229.837 125.317 C 229.734 125.149,228.471 124.332,227.031 123.501 C 225.592 122.671,223.134 121.251,221.570 120.346 C 216.072 117.166,212.356 112.965,207.975 104.980 C 205.210 99.940,205.542 99.996,203.279 104.199 M275.391 138.235 C 241.217 150.529,220.019 196.862,230.712 235.890 C 241.068 273.688,276.853 302.600,309.123 299.241 C 316.504 298.473,316.320 298.859,311.463 294.350 C 303.583 287.035,295.599 275.926,288.466 262.351 C 267.661 222.754,264.201 174.744,279.512 138.099 C 280.209 136.430,280.428 136.423,275.391 138.235 M110.127 144.651 C 110.549 145.760,183.738 288.697,186.020 292.869 C 187.861 296.234,188.085 296.421,188.598 295.019 C 188.815 294.429,190.745 289.463,192.888 283.984 C 197.221 272.904,204.691 253.167,206.064 249.167 L 206.953 246.576 205.304 243.308 C 195.037 222.962,160.534 156.027,159.623 154.688 C 156.756 150.471,152.523 147.252,147.112 145.172 L 143.945 143.954 126.857 143.829 L 109.768 143.705 110.127 144.651 M116.335 258.887 C 116.014 259.263,114.992 260.977,114.064 262.695 C 107.718 274.441,98.272 286.100,89.531 292.971 L 84.814 296.680 97.973 296.950 C 112.624 297.251,148.516 296.919,149.233 296.476 C 150.060 295.964,149.248 294.755,147.006 293.164 C 139.598 287.905,128.205 274.024,122.639 263.477 C 120.081 258.629,119.720 258.203,118.164 258.203 C 117.460 258.203,116.664 258.500,116.335 258.887 " stroke="none" fill="#1c1c2b" fill-rule="evenodd"></path><path id="path1" d="M183.789 0.421 C 130.803 5.283,84.077 28.720,49.897 67.578 C 5.033 118.582,-11.051 189.013,7.266 254.252 C 36.063 356.814,140.930 418.902,245.117 395.075 C 352.308 370.561,419.710 262.602,395.075 154.883 C 376.838 75.141,311.294 14.613,229.492 1.973 C 218.806 0.322,194.037 -0.519,183.789 0.421 M207.784 104.199 C 211.275 110.472,213.140 113.162,215.774 115.727 C 218.094 117.987,219.537 118.952,227.268 123.414 C 230.849 125.481,230.917 125.353,224.261 129.099 C 215.696 133.918,213.376 136.309,208.391 145.451 C 206.909 148.168,205.571 150.391,205.417 150.391 C 205.263 150.391,203.781 147.943,202.123 144.951 C 197.194 136.055,194.355 133.217,185.683 128.517 C 179.538 125.187,179.459 125.481,187.682 121.065 C 194.581 117.360,197.575 114.267,201.931 106.348 C 203.733 103.071,205.310 100.391,205.436 100.391 C 205.561 100.391,206.618 102.105,207.784 104.199 M280.078 137.075 C 280.078 137.271,279.490 138.809,278.772 140.493 C 259.401 185.894,274.768 258.445,311.290 294.025 C 314.327 296.984,315.599 298.465,315.216 298.599 C 311.861 299.765,301.355 299.895,295.222 298.846 C 258.392 292.550,227.746 254.460,227.637 214.844 C 227.544 181.043,248.021 147.975,275.195 138.043 C 278.838 136.711,280.078 136.465,280.078 137.075 M146.289 144.666 C 151.839 146.610,156.294 149.834,159.538 154.252 C 160.280 155.263,169.618 173.133,180.290 193.963 C 190.962 214.793,201.389 235.130,203.460 239.156 L 207.227 246.476 206.181 249.508 C 204.769 253.603,195.376 278.337,191.404 288.419 C 188.744 295.172,188.108 296.475,187.685 296.037 C 186.957 295.282,181.948 285.709,167.584 257.617 C 160.663 244.082,144.897 213.286,132.548 189.182 C 120.198 165.077,110.002 145.003,109.890 144.573 C 109.616 143.525,110.655 143.467,128.711 143.525 L 143.164 143.571 146.289 144.666 M119.981 258.691 C 120.428 259.175,121.844 261.504,123.127 263.867 C 129.108 274.880,137.754 285.504,146.387 292.450 C 152.550 297.409,154.820 297.050,116.513 297.177 C 94.752 297.249,84.398 297.154,84.564 296.886 C 84.699 296.667,86.865 294.850,89.377 292.848 C 98.533 285.552,108.418 273.274,114.415 261.746 C 116.544 257.654,118.188 256.752,119.981 258.691 " stroke="none" fill="#ebb40c" fill-rule="evenodd"></path><path id="path2" d="M115.918 143.647 C 117.046 143.726,118.892 143.726,120.020 143.647 C 121.147 143.568,120.225 143.504,117.969 143.504 C 115.713 143.504,114.790 143.568,115.918 143.647 M227.469 214.453 C 227.469 215.850,227.540 216.421,227.626 215.723 C 227.713 215.024,227.713 213.882,227.626 213.184 C 227.540 212.485,227.469 213.057,227.469 214.453 M145.801 297.144 C 146.177 297.243,146.792 297.243,147.168 297.144 C 147.544 297.046,147.236 296.966,146.484 296.966 C 145.732 296.966,145.425 297.046,145.801 297.144 " stroke="none" fill="#987916" fill-rule="evenodd"></path><path id="path3" d="M126.270 143.651 C 128.794 143.719,132.925 143.719,135.449 143.651 C 137.974 143.583,135.908 143.527,130.859 143.527 C 125.811 143.527,123.745 143.583,126.270 143.651 M86.230 297.151 C 86.714 297.244,87.505 297.244,87.988 297.151 C 88.472 297.058,88.076 296.981,87.109 296.981 C 86.143 296.981,85.747 297.058,86.230 297.151 M142.681 297.155 C 143.275 297.245,144.154 297.243,144.634 297.150 C 145.115 297.057,144.629 296.984,143.555 296.987 C 142.480 296.990,142.087 297.066,142.681 297.155 " stroke="none" fill="#84641c" fill-rule="evenodd"></path><path id="path4" d="M270.061 188.867 C 270.059 190.801,270.125 191.641,270.207 190.734 C 270.289 189.828,270.290 188.246,270.209 187.219 C 270.129 186.192,270.062 186.934,270.061 188.867 M140.218 287.207 C 141.837 288.932,142.188 289.242,142.188 288.949 C 142.188 288.886,141.353 288.051,140.332 287.093 L 138.477 285.352 140.218 287.207 M93.066 297.167 C 95.591 297.235,99.722 297.235,102.246 297.167 C 104.771 297.099,102.705 297.043,97.656 297.043 C 92.607 297.043,90.542 297.099,93.066 297.167 M130.977 297.166 C 133.083 297.237,136.423 297.237,138.399 297.166 C 140.375 297.095,138.652 297.037,134.570 297.038 C 130.488 297.038,128.871 297.096,130.977 297.166 " stroke="none" fill="#745c1c" fill-rule="evenodd"></path></g></svg>