<svg id="svg" version="1.1" xmlns="http://www.w3.org/2000/svg" xmlns:xlink="http://www.w3.org/1999/xlink" width="400" height="400" viewBox="0, 0, 400,400"><g id="svgg"><path id="path0" d="M86.000 200.000 L 86.000 314.000 165.371 314.000 L 244.741 314.000 279.360 279.300 L 313.979 244.600 313.990 165.300 L 314.000 86.000 200.000 86.000 L 86.000 86.000 86.000 200.000 M139.800 104.155 C 161.520 110.066,169.704 143.282,154.444 163.590 C 152.384 166.332,152.345 166.012,155.218 169.926 C 158.055 173.792,158.211 173.278,153.200 176.561 C 146.103 181.211,146.902 181.191,143.968 176.789 C 142.221 174.168,141.651 173.583,141.003 173.749 C 140.561 173.862,139.120 174.231,137.800 174.571 C 113.449 180.829,94.793 155.265,102.354 126.000 C 106.686 109.234,123.157 99.625,139.800 104.155 M206.200 104.163 C 214.583 106.475,220.613 111.725,224.619 120.200 C 230.959 133.609,228.901 153.962,220.138 164.531 C 218.835 166.101,218.894 166.318,221.612 169.984 C 224.413 173.762,224.499 173.364,220.287 176.109 C 212.393 181.253,213.143 181.219,210.136 176.565 C 208.587 174.168,208.040 173.607,207.400 173.761 C 206.960 173.867,205.520 174.231,204.200 174.571 C 192.320 177.624,178.199 171.588,172.207 160.896 C 167.988 153.368,165.904 139.847,167.616 131.120 C 170.693 115.436,178.125 106.719,190.902 103.806 C 194.207 103.052,202.908 103.256,206.200 104.163 M272.200 104.167 C 293.916 110.219,302.017 143.528,286.673 163.681 C 285.954 164.627,285.241 165.602,285.090 165.849 C 284.939 166.096,285.898 167.798,287.222 169.630 C 290.235 173.803,290.357 173.475,284.400 177.230 C 278.312 181.068,279.072 181.092,276.257 176.965 C 274.255 174.029,273.789 173.567,273.057 173.789 C 258.568 178.174,243.869 172.305,237.475 159.581 C 229.914 144.533,231.895 123.188,241.849 112.436 C 246.358 107.566,250.089 105.455,257.400 103.637 C 259.821 103.035,269.363 103.377,272.200 104.167 M126.600 118.114 C 119.226 121.113,115.545 129.019,116.125 140.607 C 116.712 152.332,120.482 158.799,127.933 160.865 C 133.518 162.414,134.208 161.928,131.563 158.308 C 129.360 155.291,129.208 154.659,130.500 153.867 C 130.995 153.563,133.251 152.119,135.514 150.657 C 140.542 147.410,140.209 147.403,142.400 150.800 C 143.390 152.335,144.344 153.593,144.520 153.596 C 146.365 153.620,148.007 139.121,146.775 133.677 C 145.748 129.137,145.415 128.060,144.321 125.746 C 141.262 119.276,132.752 115.611,126.600 118.114 M191.686 118.436 C 186.316 120.545,182.851 126.711,182.087 135.516 C 180.742 151.009,187.212 161.600,198.020 161.600 C 199.571 161.600,199.509 161.083,197.665 158.636 C 196.037 156.476,195.049 154.814,195.268 154.605 C 195.814 154.081,205.700 148.000,206.005 148.000 C 206.219 148.000,207.231 149.260,208.255 150.800 C 210.281 153.846,210.639 154.075,211.174 152.668 C 214.076 145.036,213.627 131.942,210.235 125.276 C 206.951 118.823,198.570 115.733,191.686 118.436 M258.312 118.375 C 251.149 121.176,247.226 130.967,248.445 143.000 C 249.553 153.935,253.974 159.906,261.979 161.279 C 265.827 161.939,266.166 161.534,264.106 158.739 C 261.766 155.565,261.390 154.757,262.055 154.342 C 262.355 154.155,264.720 152.652,267.311 151.001 C 273.000 147.377,272.391 147.394,274.655 150.800 C 276.702 153.878,277.037 154.081,277.603 152.592 C 280.330 145.419,279.894 133.039,276.666 125.981 C 273.461 118.975,265.363 115.619,258.312 118.375 " stroke="none" fill="#041c7c" fill-rule="evenodd"></path><path id="path1" d="M178.500 0.274 C 176.465 0.360,174.800 0.603,174.800 0.815 C 174.800 1.030,173.383 1.200,171.600 1.200 C 169.733 1.200,168.400 1.367,168.400 1.600 C 168.400 1.820,167.421 2.000,166.224 2.000 C 165.027 2.000,163.936 2.180,163.800 2.400 C 163.664 2.620,162.663 2.800,161.576 2.800 C 160.489 2.800,159.600 2.980,159.600 3.200 C 159.600 3.420,158.801 3.600,157.824 3.600 C 156.847 3.600,155.936 3.780,155.800 4.000 C 155.664 4.220,154.843 4.400,153.976 4.400 C 153.109 4.400,152.400 4.580,152.400 4.800 C 152.400 5.020,151.680 5.200,150.800 5.200 C 149.920 5.200,149.200 5.380,149.200 5.600 C 149.200 5.820,148.581 6.000,147.824 6.000 C 147.067 6.000,146.336 6.180,146.200 6.400 C 146.064 6.620,145.423 6.800,144.776 6.800 C 144.129 6.800,143.600 6.980,143.600 7.200 C 143.600 7.420,142.880 7.600,142.000 7.600 C 141.120 7.600,140.400 7.780,140.400 8.000 C 140.400 8.220,139.860 8.400,139.200 8.400 C 138.540 8.400,138.000 8.580,138.000 8.800 C 138.000 9.020,137.460 9.200,136.800 9.200 C 136.140 9.200,135.600 9.380,135.600 9.600 C 135.600 9.820,135.060 10.000,134.400 10.000 C 133.740 10.000,133.200 10.180,133.200 10.400 C 133.200 10.620,132.660 10.800,132.000 10.800 C 131.340 10.800,130.800 10.980,130.800 11.200 C 130.800 11.420,130.440 11.600,130.000 11.600 C 129.560 11.600,129.200 11.780,129.200 12.000 C 129.200 12.220,128.660 12.400,128.000 12.400 C 127.340 12.400,126.800 12.580,126.800 12.800 C 126.800 13.020,126.440 13.200,126.000 13.200 C 125.560 13.200,125.200 13.380,125.200 13.600 C 125.200 13.820,124.660 14.000,124.000 14.000 C 123.340 14.000,122.800 14.180,122.800 14.400 C 122.800 14.620,122.440 14.800,122.000 14.800 C 121.560 14.800,121.200 14.980,121.200 15.200 C 121.200 15.420,120.761 15.600,120.224 15.600 C 119.687 15.600,119.136 15.780,119.000 16.000 C 118.864 16.220,118.403 16.400,117.976 16.400 C 117.549 16.400,117.200 16.580,117.200 16.800 C 117.200 17.020,116.840 17.200,116.400 17.200 C 115.960 17.200,115.600 17.380,115.600 17.600 C 115.600 17.820,115.240 18.000,114.800 18.000 C 114.360 18.000,114.000 18.180,114.000 18.400 C 114.000 18.620,113.640 18.800,113.200 18.800 C 112.760 18.800,112.400 18.980,112.400 19.200 C 112.400 19.420,112.040 19.600,111.600 19.600 C 111.160 19.600,110.800 19.780,110.800 20.000 C 110.800 20.220,110.440 20.400,110.000 20.400 C 109.560 20.400,109.200 20.580,109.200 20.800 C 109.200 21.020,108.840 21.200,108.400 21.200 C 107.960 21.200,107.600 21.380,107.600 21.600 C 107.600 21.820,107.240 22.000,106.800 22.000 C 106.360 22.000,106.000 22.180,106.000 22.400 C 106.000 22.620,105.640 22.800,105.200 22.800 C 104.760 22.800,104.400 22.980,104.400 23.200 C 104.400 23.420,104.040 23.600,103.600 23.600 C 103.160 23.600,102.800 23.780,102.800 24.000 C 102.800 24.220,102.564 24.400,102.275 24.400 C 101.987 24.400,101.364 24.760,100.892 25.200 C 100.420 25.640,99.756 26.000,99.417 26.000 C 99.078 26.000,98.800 26.180,98.800 26.400 C 98.800 26.620,98.440 26.800,98.000 26.800 C 97.560 26.800,97.200 26.980,97.200 27.200 C 97.200 27.420,96.964 27.600,96.675 27.600 C 96.387 27.600,95.764 27.960,95.292 28.400 C 94.820 28.840,94.196 29.200,93.905 29.200 C 93.614 29.200,93.117 29.560,92.800 30.000 C 92.483 30.440,91.943 30.800,91.600 30.800 C 91.257 30.800,90.717 31.160,90.400 31.600 C 90.083 32.040,89.503 32.400,89.112 32.400 C 88.720 32.400,88.400 32.580,88.400 32.800 C 88.400 33.020,88.157 33.200,87.859 33.200 C 87.562 33.200,86.754 33.740,86.063 34.400 C 85.372 35.060,84.575 35.600,84.292 35.600 C 84.009 35.600,83.517 35.960,83.200 36.400 C 82.883 36.840,82.420 37.200,82.171 37.200 C 81.922 37.200,81.154 37.740,80.463 38.400 C 79.772 39.060,79.047 39.600,78.852 39.600 C 78.656 39.600,77.755 40.320,76.848 41.200 C 75.941 42.080,75.005 42.800,74.768 42.800 C 74.531 42.800,73.646 43.520,72.800 44.400 C 71.954 45.280,71.084 46.000,70.866 46.000 C 70.648 46.000,69.373 47.080,68.032 48.400 C 66.692 49.720,65.430 50.800,65.228 50.800 C 64.750 50.800,50.800 64.750,50.800 65.228 C 50.800 65.430,49.720 66.692,48.400 68.032 C 47.080 69.373,46.000 70.648,46.000 70.866 C 46.000 71.084,45.280 71.954,44.400 72.800 C 43.520 73.646,42.800 74.531,42.800 74.768 C 42.800 75.005,42.080 75.941,41.200 76.848 C 40.320 77.755,39.600 78.656,39.600 78.852 C 39.600 79.047,39.060 79.772,38.400 80.463 C 37.740 81.154,37.200 81.922,37.200 82.171 C 37.200 82.420,36.840 82.883,36.400 83.200 C 35.960 83.517,35.600 84.009,35.600 84.292 C 35.600 84.575,35.060 85.372,34.400 86.063 C 33.740 86.754,33.200 87.562,33.200 87.859 C 33.200 88.157,33.020 88.400,32.800 88.400 C 32.580 88.400,32.400 88.720,32.400 89.112 C 32.400 89.503,32.040 90.083,31.600 90.400 C 31.160 90.717,30.800 91.257,30.800 91.600 C 30.800 91.943,30.440 92.483,30.000 92.800 C 29.560 93.117,29.200 93.614,29.200 93.905 C 29.200 94.196,28.840 94.820,28.400 95.292 C 27.960 95.764,27.600 96.387,27.600 96.675 C 27.600 96.964,27.420 97.200,27.200 97.200 C 26.980 97.200,26.800 97.560,26.800 98.000 C 26.800 98.440,26.620 98.800,26.400 98.800 C 26.180 98.800,26.000 99.078,26.000 99.417 C 26.000 99.756,25.640 100.420,25.200 100.892 C 24.760 101.364,24.400 101.987,24.400 102.275 C 24.400 102.564,24.220 102.800,24.000 102.800 C 23.780 102.800,23.600 103.160,23.600 103.600 C 23.600 104.040,23.420 104.400,23.200 104.400 C 22.980 104.400,22.800 104.760,22.800 105.200 C 22.800 105.640,22.620 106.000,22.400 106.000 C 22.180 106.000,22.000 106.360,22.000 106.800 C 22.000 107.240,21.820 107.600,21.600 107.600 C 21.380 107.600,21.200 107.960,21.200 108.400 C 21.200 108.840,21.020 109.200,20.800 109.200 C 20.580 109.200,20.400 109.560,20.400 110.000 C 20.400 110.440,20.220 110.800,20.000 110.800 C 19.780 110.800,19.600 111.160,19.600 111.600 C 19.600 112.040,19.420 112.400,19.200 112.400 C 18.980 112.400,18.800 112.760,18.800 113.200 C 18.800 113.640,18.620 114.000,18.400 114.000 C 18.180 114.000,18.000 114.360,18.000 114.800 C 18.000 115.240,17.820 115.600,17.600 115.600 C 17.380 115.600,17.200 115.960,17.200 116.400 C 17.200 116.840,17.020 117.200,16.800 117.200 C 16.580 117.200,16.400 117.549,16.400 117.976 C 16.400 118.403,16.220 118.864,16.000 119.000 C 15.780 119.136,15.600 119.687,15.600 120.224 C 15.600 120.761,15.420 121.200,15.200 121.200 C 14.980 121.200,14.800 121.560,14.800 122.000 C 14.800 122.440,14.620 122.800,14.400 122.800 C 14.180 122.800,14.000 123.340,14.000 124.000 C 14.000 124.660,13.820 125.200,13.600 125.200 C 13.380 125.200,13.200 125.560,13.200 126.000 C 13.200 126.440,13.020 126.800,12.800 126.800 C 12.580 126.800,12.400 127.340,12.400 128.000 C 12.400 128.660,12.220 129.200,12.000 129.200 C 11.780 129.200,11.600 129.560,11.600 130.000 C 11.600 130.440,11.420 130.800,11.200 130.800 C 10.980 130.800,10.800 131.340,10.800 132.000 C 10.800 132.660,10.620 133.200,10.400 133.200 C 10.180 133.200,10.000 133.740,10.000 134.400 C 10.000 135.060,9.820 135.600,9.600 135.600 C 9.380 135.600,9.200 136.140,9.200 136.800 C 9.200 137.460,9.020 138.000,8.800 138.000 C 8.580 138.000,8.400 138.540,8.400 139.200 C 8.400 139.860,8.220 140.400,8.000 140.400 C 7.780 140.400,7.600 141.120,7.600 142.000 C 7.600 142.880,7.420 143.600,7.200 143.600 C 6.980 143.600,6.800 144.129,6.800 144.776 C 6.800 145.423,6.620 146.064,6.400 146.200 C 6.180 146.336,6.000 147.067,6.000 147.824 C 6.000 148.581,5.820 149.200,5.600 149.200 C 5.380 149.200,5.200 149.920,5.200 150.800 C 5.200 151.680,5.020 152.400,4.800 152.400 C 4.580 152.400,4.400 153.109,4.400 153.976 C 4.400 154.843,4.220 155.664,4.000 155.800 C 3.780 155.936,3.600 156.847,3.600 157.824 C 3.600 158.801,3.420 159.600,3.200 159.600 C 2.980 159.600,2.800 160.489,2.800 161.576 C 2.800 162.663,2.620 163.664,2.400 163.800 C 2.180 163.936,2.000 165.027,2.000 166.224 C 2.000 167.421,1.820 168.400,1.600 168.400 C 1.367 168.400,1.200 169.722,1.200 171.567 C 1.200 173.744,1.044 174.785,0.700 174.900 C -0.032 175.144,-0.032 224.856,0.700 225.100 C 1.044 225.215,1.200 226.256,1.200 228.433 C 1.200 230.278,1.367 231.600,1.600 231.600 C 1.820 231.600,2.000 232.579,2.000 233.776 C 2.000 234.973,2.180 236.064,2.400 236.200 C 2.620 236.336,2.800 237.337,2.800 238.424 C 2.800 239.511,2.980 240.400,3.200 240.400 C 3.420 240.400,3.600 241.199,3.600 242.176 C 3.600 243.153,3.780 244.064,4.000 244.200 C 4.220 244.336,4.400 245.157,4.400 246.024 C 4.400 246.891,4.580 247.600,4.800 247.600 C 5.020 247.600,5.200 248.320,5.200 249.200 C 5.200 250.080,5.380 250.800,5.600 250.800 C 5.820 250.800,6.000 251.419,6.000 252.176 C 6.000 252.933,6.180 253.664,6.400 253.800 C 6.620 253.936,6.800 254.577,6.800 255.224 C 6.800 255.871,6.980 256.400,7.200 256.400 C 7.420 256.400,7.600 257.120,7.600 258.000 C 7.600 258.880,7.780 259.600,8.000 259.600 C 8.220 259.600,8.400 260.140,8.400 260.800 C 8.400 261.460,8.580 262.000,8.800 262.000 C 9.020 262.000,9.200 262.540,9.200 263.200 C 9.200 263.860,9.380 264.400,9.600 264.400 C 9.820 264.400,10.000 264.940,10.000 265.600 C 10.000 266.260,10.180 266.800,10.400 266.800 C 10.620 266.800,10.800 267.340,10.800 268.000 C 10.800 268.660,10.980 269.200,11.200 269.200 C 11.420 269.200,11.600 269.560,11.600 270.000 C 11.600 270.440,11.780 270.800,12.000 270.800 C 12.220 270.800,12.400 271.340,12.400 272.000 C 12.400 272.660,12.580 273.200,12.800 273.200 C 13.020 273.200,13.200 273.560,13.200 274.000 C 13.200 274.440,13.380 274.800,13.600 274.800 C 13.820 274.800,14.000 275.340,14.000 276.000 C 14.000 276.660,14.180 277.200,14.400 277.200 C 14.620 277.200,14.800 277.560,14.800 278.000 C 14.800 278.440,14.980 278.800,15.200 278.800 C 15.420 278.800,15.600 279.239,15.600 279.776 C 15.600 280.313,15.780 280.864,16.000 281.000 C 16.220 281.136,16.400 281.597,16.400 282.024 C 16.400 282.451,16.580 282.800,16.800 282.800 C 17.020 282.800,17.200 283.160,17.200 283.600 C 17.200 284.040,17.380 284.400,17.600 284.400 C 17.820 284.400,18.000 284.760,18.000 285.200 C 18.000 285.640,18.180 286.000,18.400 286.000 C 18.620 286.000,18.800 286.360,18.800 286.800 C 18.800 287.240,18.980 287.600,19.200 287.600 C 19.420 287.600,19.600 287.960,19.600 288.400 C 19.600 288.840,19.780 289.200,20.000 289.200 C 20.220 289.200,20.400 289.560,20.400 290.000 C 20.400 290.440,20.580 290.800,20.800 290.800 C 21.020 290.800,21.200 291.160,21.200 291.600 C 21.200 292.040,21.380 292.400,21.600 292.400 C 21.820 292.400,22.000 292.760,22.000 293.200 C 22.000 293.640,22.180 294.000,22.400 294.000 C 22.620 294.000,22.800 294.360,22.800 294.800 C 22.800 295.240,22.980 295.600,23.200 295.600 C 23.420 295.600,23.600 295.960,23.600 296.400 C 23.600 296.840,23.780 297.200,24.000 297.200 C 24.220 297.200,24.400 297.436,24.400 297.725 C 24.400 298.013,24.760 298.636,25.200 299.108 C 25.640 299.580,26.000 300.244,26.000 300.583 C 26.000 300.922,26.180 301.200,26.400 301.200 C 26.620 301.200,26.800 301.560,26.800 302.000 C 26.800 302.440,26.980 302.800,27.200 302.800 C 27.420 302.800,27.600 303.036,27.600 303.325 C 27.600 303.613,27.960 304.236,28.400 304.708 C 28.840 305.180,29.200 305.804,29.200 306.095 C 29.200 306.386,29.560 306.883,30.000 307.200 C 30.440 307.517,30.800 308.057,30.800 308.400 C 30.800 308.743,31.160 309.283,31.600 309.600 C 32.040 309.917,32.400 310.497,32.400 310.888 C 32.400 311.280,32.580 311.600,32.800 311.600 C 33.020 311.600,33.200 311.843,33.200 312.141 C 33.200 312.438,33.740 313.246,34.400 313.937 C 35.060 314.628,35.600 315.425,35.600 315.708 C 35.600 315.991,35.960 316.483,36.400 316.800 C 36.840 317.117,37.200 317.580,37.200 317.829 C 37.200 318.078,37.740 318.846,38.400 319.537 C 39.060 320.228,39.600 320.953,39.600 321.148 C 39.600 321.344,40.320 322.245,41.200 323.152 C 42.080 324.059,42.800 324.995,42.800 325.232 C 42.800 325.469,43.520 326.354,44.400 327.200 C 45.280 328.046,46.000 328.916,46.000 329.134 C 46.000 329.352,47.080 330.627,48.400 331.968 C 49.720 333.308,50.800 334.570,50.800 334.772 C 50.800 335.250,64.750 349.200,65.228 349.200 C 65.430 349.200,66.692 350.280,68.032 351.600 C 69.373 352.920,70.648 354.000,70.866 354.000 C 71.084 354.000,71.954 354.720,72.800 355.600 C 73.646 356.480,74.531 357.200,74.768 357.200 C 75.005 357.200,75.941 357.920,76.848 358.800 C 77.755 359.680,78.656 360.400,78.852 360.400 C 79.047 360.400,79.772 360.940,80.463 361.600 C 81.154 362.260,81.922 362.800,82.171 362.800 C 82.420 362.800,82.883 363.160,83.200 363.600 C 83.517 364.040,84.009 364.400,84.292 364.400 C 84.575 364.400,85.372 364.940,86.063 365.600 C 86.754 366.260,87.562 366.800,87.859 366.800 C 88.157 366.800,88.400 366.980,88.400 367.200 C 88.400 367.420,88.720 367.600,89.112 367.600 C 89.503 367.600,90.083 367.960,90.400 368.400 C 90.717 368.840,91.257 369.200,91.600 369.200 C 91.943 369.200,92.483 369.560,92.800 370.000 C 93.117 370.440,93.614 370.800,93.905 370.800 C 94.196 370.800,94.820 371.160,95.292 371.600 C 95.764 372.040,96.387 372.400,96.675 372.400 C 96.964 372.400,97.200 372.580,97.200 372.800 C 97.200 373.020,97.560 373.200,98.000 373.200 C 98.440 373.200,98.800 373.380,98.800 373.600 C 98.800 373.820,99.078 374.000,99.417 374.000 C 99.756 374.000,100.420 374.360,100.892 374.800 C 101.364 375.240,101.987 375.600,102.275 375.600 C 102.564 375.600,102.800 375.780,102.800 376.000 C 102.800 376.220,103.160 376.400,103.600 376.400 C 104.040 376.400,104.400 376.580,104.400 376.800 C 104.400 377.020,104.760 377.200,105.200 377.200 C 105.640 377.200,106.000 377.380,106.000 377.600 C 106.000 377.820,106.360 378.000,106.800 378.000 C 107.240 378.000,107.600 378.180,107.600 378.400 C 107.600 378.620,107.960 378.800,108.400 378.800 C 108.840 378.800,109.200 378.980,109.200 379.200 C 109.200 379.420,109.560 379.600,110.000 379.600 C 110.440 379.600,110.800 379.780,110.800 380.000 C 110.800 380.220,111.160 380.400,111.600 380.400 C 112.040 380.400,112.400 380.580,112.400 380.800 C 112.400 381.020,112.760 381.200,113.200 381.200 C 113.640 381.200,114.000 381.380,114.000 381.600 C 114.000 381.820,114.360 382.000,114.800 382.000 C 115.240 382.000,115.600 382.180,115.600 382.400 C 115.600 382.620,115.960 382.800,116.400 382.800 C 116.840 382.800,117.200 382.980,117.200 383.200 C 117.200 383.420,117.549 383.600,117.976 383.600 C 118.403 383.600,118.864 383.780,119.000 384.000 C 119.136 384.220,119.687 384.400,120.224 384.400 C 120.761 384.400,121.200 384.580,121.200 384.800 C 121.200 385.020,121.560 385.200,122.000 385.200 C 122.440 385.200,122.800 385.380,122.800 385.600 C 122.800 385.820,123.340 386.000,124.000 386.000 C 124.660 386.000,125.200 386.180,125.200 386.400 C 125.200 386.620,125.560 386.800,126.000 386.800 C 126.440 386.800,126.800 386.980,126.800 387.200 C 126.800 387.420,127.340 387.600,128.000 387.600 C 128.660 387.600,129.200 387.780,129.200 388.000 C 129.200 388.220,129.560 388.400,130.000 388.400 C 130.440 388.400,130.800 388.580,130.800 388.800 C 130.800 389.020,131.340 389.200,132.000 389.200 C 132.660 389.200,133.200 389.380,133.200 389.600 C 133.200 389.820,133.740 390.000,134.400 390.000 C 135.060 390.000,135.600 390.180,135.600 390.400 C 135.600 390.620,136.140 390.800,136.800 390.800 C 137.460 390.800,138.000 390.980,138.000 391.200 C 138.000 391.420,138.540 391.600,139.200 391.600 C 139.860 391.600,140.400 391.780,140.400 392.000 C 140.400 392.220,141.120 392.400,142.000 392.400 C 142.880 392.400,143.600 392.580,143.600 392.800 C 143.600 393.020,144.129 393.200,144.776 393.200 C 145.423 393.200,146.064 393.380,146.200 393.600 C 146.336 393.820,147.067 394.000,147.824 394.000 C 148.581 394.000,149.200 394.180,149.200 394.400 C 149.200 394.620,149.920 394.800,150.800 394.800 C 151.680 394.800,152.400 394.980,152.400 395.200 C 152.400 395.420,153.109 395.600,153.976 395.600 C 154.843 395.600,155.664 395.780,155.800 396.000 C 155.936 396.220,156.847 396.400,157.824 396.400 C 158.801 396.400,159.600 396.580,159.600 396.800 C 159.600 397.020,160.489 397.200,161.576 397.200 C 162.663 397.200,163.664 397.380,163.800 397.600 C 163.936 397.820,165.027 398.000,166.224 398.000 C 167.421 398.000,168.400 398.180,168.400 398.400 C 168.400 398.633,169.722 398.800,171.567 398.800 C 173.744 398.800,174.785 398.956,174.900 399.300 C 175.144 400.032,224.856 400.032,225.100 399.300 C 225.215 398.956,226.256 398.800,228.433 398.800 C 230.278 398.800,231.600 398.633,231.600 398.400 C 231.600 398.180,232.579 398.000,233.776 398.000 C 234.973 398.000,236.064 397.820,236.200 397.600 C 236.336 397.380,237.337 397.200,238.424 397.200 C 239.511 397.200,240.400 397.020,240.400 396.800 C 240.400 396.580,241.199 396.400,242.176 396.400 C 243.153 396.400,244.064 396.220,244.200 396.000 C 244.336 395.780,245.157 395.600,246.024 395.600 C 246.891 395.600,247.600 395.420,247.600 395.200 C 247.600 394.980,248.320 394.800,249.200 394.800 C 250.080 394.800,250.800 394.620,250.800 394.400 C 250.800 394.180,251.419 394.000,252.176 394.000 C 252.933 394.000,253.664 393.820,253.800 393.600 C 253.936 393.380,254.577 393.200,255.224 393.200 C 255.871 393.200,256.400 393.020,256.400 392.800 C 256.400 392.580,257.120 392.400,258.000 392.400 C 258.880 392.400,259.600 392.220,259.600 392.000 C 259.600 391.780,260.140 391.600,260.800 391.600 C 261.460 391.600,262.000 391.420,262.000 391.200 C 262.000 390.980,262.540 390.800,263.200 390.800 C 263.860 390.800,264.400 390.620,264.400 390.400 C 264.400 390.180,264.940 390.000,265.600 390.000 C 266.260 390.000,266.800 389.820,266.800 389.600 C 266.800 389.380,267.340 389.200,268.000 389.200 C 268.660 389.200,269.200 389.020,269.200 388.800 C 269.200 388.580,269.560 388.400,270.000 388.400 C 270.440 388.400,270.800 388.220,270.800 388.000 C 270.800 387.780,271.340 387.600,272.000 387.600 C 272.660 387.600,273.200 387.420,273.200 387.200 C 273.200 386.980,273.560 386.800,274.000 386.800 C 274.440 386.800,274.800 386.620,274.800 386.400 C 274.800 386.180,275.340 386.000,276.000 386.000 C 276.660 386.000,277.200 385.820,277.200 385.600 C 277.200 385.380,277.560 385.200,278.000 385.200 C 278.440 385.200,278.800 385.020,278.800 384.800 C 278.800 384.580,279.239 384.400,279.776 384.400 C 280.313 384.400,280.864 384.220,281.000 384.000 C 281.136 383.780,281.597 383.600,282.024 383.600 C 282.451 383.600,282.800 383.420,282.800 383.200 C 282.800 382.980,283.160 382.800,283.600 382.800 C 284.040 382.800,284.400 382.620,284.400 382.400 C 284.400 382.180,284.760 382.000,285.200 382.000 C 285.640 382.000,286.000 381.820,286.000 381.600 C 286.000 381.380,286.360 381.200,286.800 381.200 C 287.240 381.200,287.600 381.020,287.600 380.800 C 287.600 380.580,287.960 380.400,288.400 380.400 C 288.840 380.400,289.200 380.220,289.200 380.000 C 289.200 379.780,289.560 379.600,290.000 379.600 C 290.440 379.600,290.800 379.420,290.800 379.200 C 290.800 378.980,291.160 378.800,291.600 378.800 C 292.040 378.800,292.400 378.620,292.400 378.400 C 292.400 378.180,292.760 378.000,293.200 378.000 C 293.640 378.000,294.000 377.820,294.000 377.600 C 294.000 377.380,294.360 377.200,294.800 377.200 C 295.240 377.200,295.600 377.020,295.600 376.800 C 295.600 376.580,295.960 376.400,296.400 376.400 C 296.840 376.400,297.200 376.220,297.200 376.000 C 297.200 375.780,297.436 375.600,297.725 375.600 C 298.013 375.600,298.636 375.240,299.108 374.800 C 299.580 374.360,300.244 374.000,300.583 374.000 C 300.922 374.000,301.200 373.820,301.200 373.600 C 301.200 373.380,301.560 373.200,302.000 373.200 C 302.440 373.200,302.800 373.020,302.800 372.800 C 302.800 372.580,303.036 372.400,303.325 372.400 C 303.613 372.400,304.236 372.040,304.708 371.600 C 305.180 371.160,305.804 370.800,306.095 370.800 C 306.386 370.800,306.883 370.440,307.200 370.000 C 307.517 369.560,308.057 369.200,308.400 369.200 C 308.743 369.200,309.283 368.840,309.600 368.400 C 309.917 367.960,310.497 367.600,310.888 367.600 C 311.280 367.600,311.600 367.420,311.600 367.200 C 311.600 366.980,311.843 366.800,312.141 366.800 C 312.438 366.800,313.246 366.260,313.937 365.600 C 314.628 364.940,315.425 364.400,315.708 364.400 C 315.991 364.400,316.483 364.040,316.800 363.600 C 317.117 363.160,317.580 362.800,317.829 362.800 C 318.078 362.800,318.846 362.260,319.537 361.600 C 320.228 360.940,320.953 360.400,321.148 360.400 C 321.344 360.400,322.245 359.680,323.152 358.800 C 324.059 357.920,324.995 357.200,325.232 357.200 C 325.469 357.200,326.354 356.480,327.200 355.600 C 328.046 354.720,328.916 354.000,329.134 354.000 C 329.352 354.000,330.627 352.920,331.968 351.600 C 333.308 350.280,334.570 349.200,334.772 349.200 C 335.250 349.200,349.200 335.250,349.200 334.772 C 349.200 334.570,350.280 333.308,351.600 331.968 C 352.920 330.627,354.000 329.352,354.000 329.134 C 354.000 328.916,354.720 328.046,355.600 327.200 C 356.480 326.354,357.200 325.469,357.200 325.232 C 357.200 324.995,357.920 324.059,358.800 323.152 C 359.680 322.245,360.400 321.344,360.400 321.148 C 360.400 320.953,360.940 320.228,361.600 319.537 C 362.260 318.846,362.800 318.078,362.800 317.829 C 362.800 317.580,363.160 317.117,363.600 316.800 C 364.040 316.483,364.400 315.991,364.400 315.708 C 364.400 315.425,364.940 314.628,365.600 313.937 C 366.260 313.246,366.800 312.438,366.800 312.141 C 366.800 311.843,366.980 311.600,367.200 311.600 C 367.420 311.600,367.600 311.280,367.600 310.888 C 367.600 310.497,367.960 309.917,368.400 309.600 C 368.840 309.283,369.200 308.743,369.200 308.400 C 369.200 308.057,369.560 307.517,370.000 307.200 C 370.440 306.883,370.800 306.386,370.800 306.095 C 370.800 305.804,371.160 305.180,371.600 304.708 C 372.040 304.236,372.400 303.613,372.400 303.325 C 372.400 303.036,372.580 302.800,372.800 302.800 C 373.020 302.800,373.200 302.440,373.200 302.000 C 373.200 301.560,373.380 301.200,373.600 301.200 C 373.820 301.200,374.000 300.922,374.000 300.583 C 374.000 300.244,374.360 299.580,374.800 299.108 C 375.240 298.636,375.600 298.013,375.600 297.725 C 375.600 297.436,375.780 297.200,376.000 297.200 C 376.220 297.200,376.400 296.840,376.400 296.400 C 376.400 295.960,376.580 295.600,376.800 295.600 C 377.020 295.600,377.200 295.240,377.200 294.800 C 377.200 294.360,377.380 294.000,377.600 294.000 C 377.820 294.000,378.000 293.640,378.000 293.200 C 378.000 292.760,378.180 292.400,378.400 292.400 C 378.620 292.400,378.800 292.040,378.800 291.600 C 378.800 291.160,378.980 290.800,379.200 290.800 C 379.420 290.800,379.600 290.440,379.600 290.000 C 379.600 289.560,379.780 289.200,380.000 289.200 C 380.220 289.200,380.400 288.840,380.400 288.400 C 380.400 287.960,380.580 287.600,380.800 287.600 C 381.020 287.600,381.200 287.240,381.200 286.800 C 381.200 286.360,381.380 286.000,381.600 286.000 C 381.820 286.000,382.000 285.640,382.000 285.200 C 382.000 284.760,382.180 284.400,382.400 284.400 C 382.620 284.400,382.800 284.040,382.800 283.600 C 382.800 283.160,382.980 282.800,383.200 282.800 C 383.420 282.800,383.600 282.451,383.600 282.024 C 383.600 281.597,383.780 281.136,384.000 281.000 C 384.220 280.864,384.400 280.313,384.400 279.776 C 384.400 279.239,384.580 278.800,384.800 278.800 C 385.020 278.800,385.200 278.440,385.200 278.000 C 385.200 277.560,385.380 277.200,385.600 277.200 C 385.820 277.200,386.000 276.660,386.000 276.000 C 386.000 275.340,386.180 274.800,386.400 274.800 C 386.620 274.800,386.800 274.440,386.800 274.000 C 386.800 273.560,386.980 273.200,387.200 273.200 C 387.420 273.200,387.600 272.660,387.600 272.000 C 387.600 271.340,387.780 270.800,388.000 270.800 C 388.220 270.800,388.400 270.440,388.400 270.000 C 388.400 269.560,388.580 269.200,388.800 269.200 C 389.020 269.200,389.200 268.660,389.200 268.000 C 389.200 267.340,389.380 266.800,389.600 266.800 C 389.820 266.800,390.000 266.260,390.000 265.600 C 390.000 264.940,390.180 264.400,390.400 264.400 C 390.620 264.400,390.800 263.860,390.800 263.200 C 390.800 262.540,390.980 262.000,391.200 262.000 C 391.420 262.000,391.600 261.460,391.600 260.800 C 391.600 260.140,391.780 259.600,392.000 259.600 C 392.220 259.600,392.400 258.880,392.400 258.000 C 392.400 257.120,392.580 256.400,392.800 256.400 C 393.020 256.400,393.200 255.871,393.200 255.224 C 393.200 254.577,393.380 253.936,393.600 253.800 C 393.820 253.664,394.000 252.933,394.000 252.176 C 394.000 251.419,394.180 250.800,394.400 250.800 C 394.620 250.800,394.800 250.080,394.800 249.200 C 394.800 248.320,394.980 247.600,395.200 247.600 C 395.420 247.600,395.600 246.891,395.600 246.024 C 395.600 245.157,395.780 244.336,396.000 244.200 C 396.220 244.064,396.400 243.153,396.400 242.176 C 396.400 241.199,396.580 240.400,396.800 240.400 C 397.020 240.400,397.200 239.511,397.200 238.424 C 397.200 237.337,397.380 236.336,397.600 236.200 C 397.820 236.064,398.000 234.973,398.000 233.776 C 398.000 232.579,398.180 231.600,398.400 231.600 C 398.633 231.600,398.800 230.278,398.800 228.433 C 398.800 226.256,398.956 225.215,399.300 225.100 C 399.693 224.969,399.800 219.591,399.800 200.000 C 399.800 180.409,399.693 175.031,399.300 174.900 C 398.956 174.785,398.800 173.744,398.800 171.567 C 398.800 169.722,398.633 168.400,398.400 168.400 C 398.180 168.400,398.000 167.421,398.000 166.224 C 398.000 165.027,397.820 163.936,397.600 163.800 C 397.380 163.664,397.200 162.663,397.200 161.576 C 397.200 160.489,397.020 159.600,396.800 159.600 C 396.580 159.600,396.400 158.801,396.400 157.824 C 396.400 156.847,396.220 155.936,396.000 155.800 C 395.780 155.664,395.600 154.843,395.600 153.976 C 395.600 153.109,395.420 152.400,395.200 152.400 C 394.980 152.400,394.800 151.680,394.800 150.800 C 394.800 149.920,394.620 149.200,394.400 149.200 C 394.180 149.200,394.000 148.581,394.000 147.824 C 394.000 147.067,393.820 146.336,393.600 146.200 C 393.380 146.064,393.200 145.423,393.200 144.776 C 393.200 144.129,393.020 143.600,392.800 143.600 C 392.580 143.600,392.400 142.880,392.400 142.000 C 392.400 141.120,392.220 140.400,392.000 140.400 C 391.780 140.400,391.600 139.860,391.600 139.200 C 391.600 138.540,391.420 138.000,391.200 138.000 C 390.980 138.000,390.800 137.460,390.800 136.800 C 390.800 136.140,390.620 135.600,390.400 135.600 C 390.180 135.600,390.000 135.060,390.000 134.400 C 390.000 133.740,389.820 133.200,389.600 133.200 C 389.380 133.200,389.200 132.660,389.200 132.000 C 389.200 131.340,389.020 130.800,388.800 130.800 C 388.580 130.800,388.400 130.440,388.400 130.000 C 388.400 129.560,388.220 129.200,388.000 129.200 C 387.780 129.200,387.600 128.660,387.600 128.000 C 387.600 127.340,387.420 126.800,387.200 126.800 C 386.980 126.800,386.800 126.440,386.800 126.000 C 386.800 125.560,386.620 125.200,386.400 125.200 C 386.180 125.200,386.000 124.660,386.000 124.000 C 386.000 123.340,385.820 122.800,385.600 122.800 C 385.380 122.800,385.200 122.440,385.200 122.000 C 385.200 121.560,385.020 121.200,384.800 121.200 C 384.580 121.200,384.400 120.761,384.400 120.224 C 384.400 119.687,384.220 119.136,384.000 119.000 C 383.780 118.864,383.600 118.403,383.600 117.976 C 383.600 117.549,383.420 117.200,383.200 117.200 C 382.980 117.200,382.800 116.840,382.800 116.400 C 382.800 115.960,382.620 115.600,382.400 115.600 C 382.180 115.600,382.000 115.240,382.000 114.800 C 382.000 114.360,381.820 114.000,381.600 114.000 C 381.380 114.000,381.200 113.640,381.200 113.200 C 381.200 112.760,381.020 112.400,380.800 112.400 C 380.580 112.400,380.400 112.040,380.400 111.600 C 380.400 111.160,380.220 110.800,380.000 110.800 C 379.780 110.800,379.600 110.440,379.600 110.000 C 379.600 109.560,379.420 109.200,379.200 109.200 C 378.980 109.200,378.800 108.840,378.800 108.400 C 378.800 107.960,378.620 107.600,378.400 107.600 C 378.180 107.600,378.000 107.240,378.000 106.800 C 378.000 106.360,377.820 106.000,377.600 106.000 C 377.380 106.000,377.200 105.640,377.200 105.200 C 377.200 104.760,377.020 104.400,376.800 104.400 C 376.580 104.400,376.400 104.040,376.400 103.600 C 376.400 103.160,376.220 102.800,376.000 102.800 C 375.780 102.800,375.600 102.564,375.600 102.275 C 375.600 101.987,375.240 101.364,374.800 100.892 C 374.360 100.420,374.000 99.756,374.000 99.417 C 374.000 99.078,373.820 98.800,373.600 98.800 C 373.380 98.800,373.200 98.440,373.200 98.000 C 373.200 97.560,373.020 97.200,372.800 97.200 C 372.580 97.200,372.400 96.964,372.400 96.675 C 372.400 96.387,372.040 95.764,371.600 95.292 C 371.160 94.820,370.800 94.196,370.800 93.905 C 370.800 93.614,370.440 93.117,370.000 92.800 C 369.560 92.483,369.200 91.943,369.200 91.600 C 369.200 91.257,368.840 90.717,368.400 90.400 C 367.960 90.083,367.600 89.503,367.600 89.112 C 367.600 88.720,367.420 88.400,367.200 88.400 C 366.980 88.400,366.800 88.157,366.800 87.859 C 366.800 87.562,366.260 86.754,365.600 86.063 C 364.940 85.372,364.400 84.575,364.400 84.292 C 364.400 84.009,364.040 83.517,363.600 83.200 C 363.160 82.883,362.800 82.420,362.800 82.171 C 362.800 81.922,362.260 81.154,361.600 80.463 C 360.940 79.772,360.400 79.047,360.400 78.852 C 360.400 78.656,359.680 77.755,358.800 76.848 C 357.920 75.941,357.200 75.005,357.200 74.768 C 357.200 74.531,356.480 73.646,355.600 72.800 C 354.720 71.954,354.000 71.084,354.000 70.866 C 354.000 70.648,352.920 69.373,351.600 68.032 C 350.280 66.692,349.200 65.430,349.200 65.228 C 349.200 64.750,335.250 50.800,334.772 50.800 C 334.570 50.800,333.308 49.720,331.968 48.400 C 330.627 47.080,329.352 46.000,329.134 46.000 C 328.916 46.000,328.046 45.280,327.200 44.400 C 326.354 43.520,325.469 42.800,325.232 42.800 C 324.995 42.800,324.059 42.080,323.152 41.200 C 322.245 40.320,321.344 39.600,321.148 39.600 C 320.953 39.600,320.228 39.060,319.537 38.400 C 318.846 37.740,318.078 37.200,317.829 37.200 C 317.580 37.200,317.117 36.840,316.800 36.400 C 316.483 35.960,315.991 35.600,315.708 35.600 C 315.425 35.600,314.628 35.060,313.937 34.400 C 313.246 33.740,312.438 33.200,312.141 33.200 C 311.843 33.200,311.600 33.020,311.600 32.800 C 311.600 32.580,311.280 32.400,310.888 32.400 C 310.497 32.400,309.917 32.040,309.600 31.600 C 309.283 31.160,308.743 30.800,308.400 30.800 C 308.057 30.800,307.517 30.440,307.200 30.000 C 306.883 29.560,306.386 29.200,306.095 29.200 C 305.804 29.200,305.180 28.840,304.708 28.400 C 304.236 27.960,303.613 27.600,303.325 27.600 C 303.036 27.600,302.800 27.420,302.800 27.200 C 302.800 26.980,302.440 26.800,302.000 26.800 C 301.560 26.800,301.200 26.620,301.200 26.400 C 301.200 26.180,300.922 26.000,300.583 26.000 C 300.244 26.000,299.580 25.640,299.108 25.200 C 298.636 24.760,298.013 24.400,297.725 24.400 C 297.436 24.400,297.200 24.220,297.200 24.000 C 297.200 23.780,296.840 23.600,296.400 23.600 C 295.960 23.600,295.600 23.420,295.600 23.200 C 295.600 22.980,295.240 22.800,294.800 22.800 C 294.360 22.800,294.000 22.620,294.000 22.400 C 294.000 22.180,293.640 22.000,293.200 22.000 C 292.760 22.000,292.400 21.820,292.400 21.600 C 292.400 21.380,292.040 21.200,291.600 21.200 C 291.160 21.200,290.800 21.020,290.800 20.800 C 290.800 20.580,290.440 20.400,290.000 20.400 C 289.560 20.400,289.200 20.220,289.200 20.000 C 289.200 19.780,288.840 19.600,288.400 19.600 C 287.960 19.600,287.600 19.420,287.600 19.200 C 287.600 18.980,287.240 18.800,286.800 18.800 C 286.360 18.800,286.000 18.620,286.000 18.400 C 286.000 18.180,285.640 18.000,285.200 18.000 C 284.760 18.000,284.400 17.820,284.400 17.600 C 284.400 17.380,284.040 17.200,283.600 17.200 C 283.160 17.200,282.800 17.020,282.800 16.800 C 282.800 16.580,282.451 16.400,282.024 16.400 C 281.597 16.400,281.136 16.220,281.000 16.000 C 280.864 15.780,280.313 15.600,279.776 15.600 C 279.239 15.600,278.800 15.420,278.800 15.200 C 278.800 14.980,278.440 14.800,278.000 14.800 C 277.560 14.800,277.200 14.620,277.200 14.400 C 277.200 14.180,276.660 14.000,276.000 14.000 C 275.340 14.000,274.800 13.820,274.800 13.600 C 274.800 13.380,274.440 13.200,274.000 13.200 C 273.560 13.200,273.200 13.020,273.200 12.800 C 273.200 12.580,272.660 12.400,272.000 12.400 C 271.340 12.400,270.800 12.220,270.800 12.000 C 270.800 11.780,270.451 11.600,270.024 11.600 C 269.597 11.600,269.136 11.420,269.000 11.200 C 268.864 10.980,268.313 10.800,267.776 10.800 C 267.239 10.800,266.800 10.620,266.800 10.400 C 266.800 10.180,266.260 10.000,265.600 10.000 C 264.940 10.000,264.400 9.820,264.400 9.600 C 264.400 9.380,263.860 9.200,263.200 9.200 C 262.540 9.200,262.000 9.020,262.000 8.800 C 262.000 8.580,261.460 8.400,260.800 8.400 C 260.140 8.400,259.600 8.220,259.600 8.000 C 259.600 7.780,258.880 7.600,258.000 7.600 C 257.120 7.600,256.400 7.420,256.400 7.200 C 256.400 6.980,255.871 6.800,255.224 6.800 C 254.577 6.800,253.936 6.620,253.800 6.400 C 253.664 6.180,252.933 6.000,252.176 6.000 C 251.419 6.000,250.800 5.820,250.800 5.600 C 250.800 5.380,250.080 5.200,249.200 5.200 C 248.320 5.200,247.600 5.020,247.600 4.800 C 247.600 4.580,246.891 4.400,246.024 4.400 C 245.157 4.400,244.336 4.220,244.200 4.000 C 244.064 3.780,243.153 3.600,242.176 3.600 C 241.199 3.600,240.400 3.420,240.400 3.200 C 240.400 2.980,239.511 2.800,238.424 2.800 C 237.337 2.800,236.336 2.620,236.200 2.400 C 236.064 2.180,234.973 2.000,233.776 2.000 C 232.579 2.000,231.600 1.820,231.600 1.600 C 231.600 1.367,230.278 1.200,228.433 1.200 C 226.304 1.200,225.214 1.041,225.105 0.714 C 224.944 0.233,187.802 -0.118,178.500 0.274 M314.701 165.148 L 314.802 244.896 279.924 279.849 L 245.046 314.802 165.223 314.701 L 85.400 314.600 85.298 200.400 C 85.241 137.590,85.281 85.975,85.385 85.699 C 85.537 85.300,108.688 85.219,200.088 85.299 L 314.600 85.400 314.701 165.148 M126.600 104.251 C 122.302 105.102,120.951 105.521,118.000 106.919 C 110.276 110.579,105.013 118.066,102.337 129.200 C 101.610 132.229,101.618 146.221,102.349 149.200 C 105.584 162.385,111.765 169.787,122.400 173.213 C 126.297 174.469,136.127 174.627,139.314 173.486 C 142.038 172.510,141.978 172.478,144.400 176.193 C 146.943 180.094,146.344 180.070,151.925 176.492 C 157.030 173.218,156.926 173.507,154.302 169.936 C 153.116 168.321,152.031 166.805,151.890 166.567 C 151.750 166.329,152.546 164.889,153.658 163.367 C 156.800 159.069,158.875 154.464,159.952 149.400 C 160.186 148.300,160.562 146.555,160.789 145.523 C 161.923 140.348,161.054 130.244,158.886 123.400 C 156.280 115.169,148.205 107.120,140.570 105.140 C 136.776 104.157,129.436 103.690,126.600 104.251 M193.000 104.224 C 192.560 104.326,191.210 104.612,190.000 104.859 C 167.515 109.448,159.595 148.571,177.545 166.383 C 184.489 173.275,196.591 176.343,205.573 173.490 C 208.567 172.539,208.350 172.426,210.800 176.200 C 213.433 180.255,212.570 180.183,217.838 176.792 C 223.431 173.190,223.315 173.411,221.129 170.553 C 217.590 165.926,217.679 166.466,219.959 163.455 C 227.087 154.037,229.276 140.851,226.144 126.200 C 224.106 116.668,215.603 107.531,206.400 104.984 C 204.268 104.394,194.627 103.848,193.000 104.224 M257.800 104.379 C 250.141 105.661,242.937 110.645,238.978 117.401 C 235.430 123.456,233.957 129.788,233.952 139.000 C 233.944 155.568,239.703 166.647,251.000 171.798 C 256.429 174.273,267.123 175.140,271.550 173.463 C 274.120 172.490,274.193 172.526,276.442 175.900 C 277.579 177.605,278.646 179.152,278.813 179.339 C 279.094 179.652,288.800 173.809,288.800 173.327 C 288.800 173.209,287.930 171.915,286.866 170.452 C 283.648 166.029,283.689 166.482,286.198 162.985 C 291.443 155.674,293.409 149.007,293.386 138.600 C 293.371 131.498,292.785 127.991,290.677 122.400 C 285.643 109.045,272.607 101.899,257.800 104.379 M133.967 116.851 C 139.711 117.836,144.168 121.963,146.184 128.161 C 148.596 135.581,148.451 147.121,145.868 153.300 C 144.968 155.452,144.304 155.184,142.161 151.800 C 139.893 148.220,140.672 148.289,136.037 151.253 C 133.926 152.601,131.795 153.956,131.300 154.262 C 130.101 155.004,130.102 155.008,132.400 158.160 C 135.096 161.859,135.060 162.000,131.415 162.000 C 121.398 162.000,115.530 153.773,115.439 139.600 C 115.353 126.299,119.587 118.901,128.400 116.953 C 131.247 116.324,130.925 116.330,133.967 116.851 M202.400 117.495 C 212.538 120.899,217.159 137.618,212.011 152.266 C 211.565 153.534,211.200 154.624,211.200 154.686 C 211.200 155.611,209.588 154.154,207.988 151.782 L 205.952 148.765 204.476 149.650 C 200.254 152.183,196.400 154.830,196.400 155.197 C 196.400 155.425,197.312 156.867,198.428 158.400 C 200.877 161.767,200.780 162.000,196.934 162.000 C 186.828 162.000,180.773 152.600,181.306 137.739 C 181.878 121.781,190.505 113.501,202.400 117.495 M268.800 117.501 C 278.646 120.763,283.419 138.016,278.414 152.256 C 277.966 153.530,277.600 154.624,277.600 154.686 C 277.600 155.611,275.988 154.154,274.388 151.782 L 272.352 148.765 270.876 149.651 C 270.064 150.138,267.818 151.553,265.884 152.796 L 262.367 155.055 264.609 158.125 C 267.270 161.768,267.204 162.000,263.505 162.000 C 253.810 162.000,248.198 154.403,247.704 140.613 C 247.076 123.057,256.013 113.265,268.800 117.501 " stroke="none" fill="#fbfbfb" fill-rule="evenodd"></path><path id="path2" d="M176.981 111.700 L 175.400 113.400 177.100 111.819 C 178.681 110.348,178.984 110.000,178.681 110.000 C 178.616 110.000,177.851 110.765,176.981 111.700 M110.575 111.700 L 109.400 113.000 110.700 111.825 C 111.912 110.730,112.184 110.400,111.875 110.400 C 111.806 110.400,111.221 110.985,110.575 111.700 M152.000 111.800 C 152.746 112.570,153.447 113.200,153.557 113.200 C 153.667 113.200,153.146 112.570,152.400 111.800 C 151.654 111.030,150.953 110.400,150.843 110.400 C 150.733 110.400,151.254 111.030,152.000 111.800 M130.307 117.090 C 131.026 117.179,132.106 117.177,132.707 117.086 C 133.308 116.995,132.720 116.922,131.400 116.924 C 130.080 116.926,129.588 117.001,130.307 117.090 M196.307 117.090 C 197.026 117.179,198.106 117.177,198.707 117.086 C 199.308 116.995,198.720 116.922,197.400 116.924 C 196.080 116.926,195.588 117.001,196.307 117.090 M262.707 117.090 C 263.426 117.179,264.506 117.177,265.107 117.086 C 265.708 116.995,265.120 116.922,263.800 116.924 C 262.480 116.926,261.988 117.001,262.707 117.090 M293.701 135.800 C 293.705 136.680,293.787 136.993,293.883 136.495 C 293.979 135.998,293.975 135.278,293.875 134.895 C 293.775 134.513,293.696 134.920,293.701 135.800 M115.693 136.000 C 115.693 136.770,115.775 137.085,115.876 136.700 C 115.976 136.315,115.976 135.685,115.876 135.300 C 115.775 134.915,115.693 135.230,115.693 136.000 M167.337 139.000 C 167.339 140.760,167.409 141.430,167.493 140.489 C 167.578 139.549,167.577 138.109,167.491 137.289 C 167.405 136.470,167.336 137.240,167.337 139.000 M233.334 139.200 C 233.334 140.850,233.405 141.525,233.491 140.700 C 233.578 139.875,233.578 138.525,233.491 137.700 C 233.405 136.875,233.334 137.550,233.334 139.200 M100.920 139.200 C 100.920 140.410,100.995 140.905,101.087 140.300 C 101.178 139.695,101.178 138.705,101.087 138.100 C 100.995 137.495,100.920 137.990,100.920 139.200 M147.714 140.200 C 147.717 141.300,147.795 141.703,147.887 141.095 C 147.979 140.486,147.977 139.586,147.882 139.095 C 147.787 138.603,147.711 139.100,147.714 140.200 M115.701 142.200 C 115.705 143.080,115.787 143.393,115.883 142.895 C 115.979 142.398,115.975 141.678,115.875 141.295 C 115.775 140.913,115.696 141.320,115.701 142.200 M293.701 142.200 C 293.705 143.080,293.787 143.393,293.883 142.895 C 293.979 142.398,293.975 141.678,293.875 141.295 C 293.775 140.913,293.696 141.320,293.701 142.200 M131.505 161.883 C 132.002 161.979,132.722 161.975,133.105 161.875 C 133.487 161.775,133.080 161.696,132.200 161.701 C 131.320 161.705,131.007 161.787,131.505 161.883 M197.505 161.883 C 198.002 161.979,198.722 161.975,199.105 161.875 C 199.487 161.775,199.080 161.696,198.200 161.701 C 197.320 161.705,197.007 161.787,197.505 161.883 M263.500 161.882 C 263.995 161.978,264.805 161.978,265.300 161.882 C 265.795 161.787,265.390 161.709,264.400 161.709 C 263.410 161.709,263.005 161.787,263.500 161.882 M109.600 165.725 C 109.600 165.794,110.185 166.379,110.900 167.025 L 112.200 168.200 111.025 166.900 C 109.930 165.688,109.600 165.416,109.600 165.725 M176.000 165.725 C 176.000 165.794,176.585 166.379,177.300 167.025 L 178.600 168.200 177.425 166.900 C 176.330 165.688,176.000 165.416,176.000 165.725 M290.198 268.900 L 271.000 288.200 290.300 269.002 C 308.239 251.157,309.780 249.600,309.498 249.600 C 309.443 249.600,300.758 258.285,290.198 268.900 " stroke="none" fill="#9ca8cd" fill-rule="evenodd"></path><path id="path3" d="M85.785 86.099 C 85.681 86.375,85.641 137.810,85.698 200.400 L 85.800 314.200 165.416 314.301 L 245.032 314.402 279.717 279.434 L 314.402 244.466 314.301 165.133 L 314.200 85.800 200.088 85.699 C 109.008 85.619,85.937 85.700,85.785 86.099 M313.990 165.300 L 313.979 244.600 279.360 279.300 L 244.741 314.000 165.371 314.000 L 86.000 314.000 86.000 200.000 L 86.000 86.000 200.000 86.000 L 314.000 86.000 313.990 165.300 M125.800 103.611 C 125.072 103.802,125.702 103.841,127.400 103.709 C 128.940 103.589,130.275 103.425,130.367 103.345 C 130.673 103.078,127.016 103.291,125.800 103.611 M132.433 103.351 C 132.525 103.434,133.860 103.602,135.400 103.725 C 137.166 103.865,137.757 103.827,137.000 103.621 C 135.784 103.290,132.127 103.074,132.433 103.351 M192.200 103.611 C 191.472 103.802,192.102 103.841,193.800 103.709 C 195.340 103.589,196.675 103.425,196.767 103.345 C 197.073 103.078,193.416 103.291,192.200 103.611 M198.833 103.351 C 198.925 103.434,200.260 103.602,201.800 103.725 C 203.566 103.865,204.157 103.827,203.400 103.621 C 202.184 103.290,198.527 103.074,198.833 103.351 M258.000 103.611 C 257.391 103.812,258.096 103.853,259.800 103.716 C 261.340 103.592,262.675 103.425,262.767 103.345 C 263.096 103.058,258.978 103.287,258.000 103.611 M264.433 103.348 C 264.525 103.429,265.950 103.596,267.600 103.718 C 269.431 103.853,270.132 103.814,269.400 103.617 C 268.192 103.293,264.123 103.072,264.433 103.348 M122.200 104.400 C 121.696 104.617,121.622 104.744,122.000 104.744 C 122.330 104.744,122.960 104.589,123.400 104.400 C 123.904 104.183,123.978 104.056,123.600 104.056 C 123.270 104.056,122.640 104.211,122.200 104.400 M139.400 104.400 C 139.840 104.589,140.470 104.744,140.800 104.744 C 141.178 104.744,141.104 104.617,140.600 104.400 C 140.160 104.211,139.530 104.056,139.200 104.056 C 138.822 104.056,138.896 104.183,139.400 104.400 M188.600 104.400 C 188.096 104.617,188.022 104.744,188.400 104.744 C 188.730 104.744,189.360 104.589,189.800 104.400 C 190.304 104.183,190.378 104.056,190.000 104.056 C 189.670 104.056,189.040 104.211,188.600 104.400 M205.800 104.400 C 206.240 104.589,206.870 104.744,207.200 104.744 C 207.578 104.744,207.504 104.617,207.000 104.400 C 206.560 104.211,205.930 104.056,205.600 104.056 C 205.222 104.056,205.296 104.183,205.800 104.400 M254.400 104.400 C 253.605 104.914,254.604 104.914,255.800 104.400 L 256.600 104.056 255.800 104.034 C 255.360 104.022,254.730 104.187,254.400 104.400 M271.600 104.400 C 271.930 104.613,272.560 104.778,273.000 104.766 L 273.800 104.744 273.000 104.400 C 271.804 103.886,270.805 103.886,271.600 104.400 M143.158 105.637 C 144.125 106.066,144.988 106.345,145.075 106.258 C 145.248 106.086,142.165 104.782,141.692 104.828 C 141.531 104.844,142.191 105.208,143.158 105.637 M209.558 105.637 C 210.525 106.066,211.388 106.345,211.475 106.258 C 211.648 106.086,208.565 104.782,208.092 104.828 C 207.931 104.844,208.591 105.208,209.558 105.637 M116.935 106.518 C 112.908 108.652,107.832 113.594,106.168 117.000 L 105.582 118.200 106.291 117.214 C 110.409 111.488,112.520 109.473,117.094 106.905 C 119.669 105.459,119.538 105.139,116.935 106.518 M276.033 105.749 C 276.445 106.117,278.800 107.200,278.800 107.021 C 278.800 106.790,276.582 105.600,276.153 105.600 C 275.996 105.600,275.942 105.667,276.033 105.749 M145.600 106.518 C 145.600 106.611,146.635 107.369,147.900 108.203 C 149.165 109.036,149.889 109.367,149.509 108.938 C 148.841 108.183,145.600 106.176,145.600 106.518 M181.515 107.568 C 178.095 109.737,173.842 114.256,172.450 117.200 L 171.977 118.200 172.688 117.205 C 176.447 111.952,178.007 110.397,182.805 107.121 C 184.481 105.977,183.473 106.326,181.515 107.568 M212.000 106.518 C 212.000 106.611,213.035 107.369,214.300 108.203 C 215.565 109.036,216.289 109.367,215.909 108.938 C 215.241 108.183,212.000 106.176,212.000 106.518 M245.995 108.545 C 243.683 110.242,239.668 114.622,238.474 116.750 C 237.078 119.239,237.691 118.730,239.577 115.835 C 241.183 113.370,243.842 110.604,246.800 108.319 C 248.792 106.780,248.155 106.959,245.995 108.545 M280.000 107.847 C 280.550 108.222,282.614 110.165,284.587 112.165 C 286.560 114.164,287.738 115.170,287.203 114.400 C 285.870 112.478,281.941 108.753,280.328 107.883 C 279.241 107.295,279.181 107.289,280.000 107.847 M150.414 109.647 C 150.406 109.783,151.174 110.683,152.119 111.647 C 153.065 112.611,154.340 114.030,154.952 114.800 C 155.564 115.570,155.862 115.790,155.613 115.290 C 155.133 114.324,150.438 109.228,150.414 109.647 M216.800 109.661 C 216.800 109.783,217.565 110.680,218.500 111.653 C 219.435 112.626,220.707 114.047,221.326 114.811 C 222.297 116.009,222.279 115.946,221.194 114.350 C 220.005 112.601,216.800 109.181,216.800 109.661 M223.000 117.600 C 223.341 118.260,223.711 118.800,223.821 118.800 C 223.931 118.800,223.741 118.260,223.400 117.600 C 223.059 116.940,222.689 116.400,222.579 116.400 C 222.469 116.400,222.659 116.940,223.000 117.600 M129.911 117.493 C 130.851 117.578,132.291 117.577,133.111 117.491 C 133.930 117.405,133.160 117.336,131.400 117.337 C 129.640 117.339,128.970 117.409,129.911 117.493 M195.911 117.493 C 196.851 117.578,198.291 117.577,199.111 117.491 C 199.930 117.405,199.160 117.336,197.400 117.337 C 195.640 117.339,194.970 117.409,195.911 117.493 M262.311 117.493 C 263.251 117.578,264.691 117.577,265.511 117.491 C 266.330 117.405,265.560 117.336,263.800 117.337 C 262.040 117.339,261.370 117.409,262.311 117.493 M288.800 117.390 C 288.800 117.495,289.159 118.170,289.599 118.890 C 290.538 120.431,290.669 120.081,289.790 118.380 C 289.241 117.319,288.800 116.878,288.800 117.390 M156.800 117.739 C 156.800 118.166,158.114 120.419,158.271 120.262 C 158.477 120.056,157.295 117.600,156.990 117.600 C 156.885 117.600,156.800 117.662,156.800 117.739 M258.200 118.000 C 257.908 118.473,258.299 118.473,259.400 118.000 C 260.171 117.669,260.169 117.655,259.324 117.628 C 258.842 117.613,258.336 117.780,258.200 118.000 M269.180 118.446 C 270.160 118.880,271.195 119.430,271.480 119.667 C 271.766 119.904,272.000 119.932,272.000 119.729 C 272.000 119.307,268.631 117.585,267.889 117.628 C 267.620 117.644,268.201 118.012,269.180 118.446 M122.935 119.732 C 120.450 121.708,117.066 126.399,117.682 127.015 C 117.757 127.091,118.328 126.181,118.950 124.994 C 119.987 123.013,122.720 120.088,124.622 118.924 C 125.050 118.661,125.220 118.438,125.000 118.427 C 124.780 118.417,123.851 119.004,122.935 119.732 M139.302 119.710 C 140.315 120.431,141.713 121.736,142.407 122.610 C 144.488 125.232,144.528 124.826,142.459 122.072 C 141.524 120.826,138.417 118.400,137.758 118.400 C 137.593 118.400,138.288 118.990,139.302 119.710 M203.600 118.590 C 203.600 118.694,204.136 119.057,204.792 119.396 C 205.447 119.735,206.820 120.864,207.842 121.906 C 209.261 123.352,209.476 123.484,208.751 122.463 C 207.523 120.736,203.600 117.786,203.600 118.590 M254.836 120.009 C 253.716 120.894,252.800 121.736,252.800 121.879 C 252.800 122.022,253.205 121.767,253.700 121.312 C 254.195 120.856,255.300 120.015,256.156 119.442 C 257.012 118.869,257.523 118.400,257.292 118.400 C 257.061 118.400,255.956 119.124,254.836 120.009 M236.672 120.219 C 235.732 122.189,235.864 122.524,236.847 120.662 C 237.293 119.816,237.587 119.054,237.501 118.967 C 237.414 118.881,237.041 119.444,236.672 120.219 M186.965 121.454 C 185.774 122.693,184.806 123.908,184.813 124.154 C 184.820 124.399,185.215 124.060,185.692 123.400 C 186.169 122.740,187.273 121.525,188.146 120.700 C 189.019 119.875,189.598 119.200,189.432 119.200 C 189.266 119.200,188.156 120.214,186.965 121.454 M103.850 121.591 C 102.947 123.847,103.087 124.183,104.037 122.042 C 104.466 121.075,104.745 120.212,104.658 120.125 C 104.571 120.038,104.208 120.698,103.850 121.591 M273.768 121.600 C 275.864 124.043,276.285 124.426,275.304 123.000 C 274.850 122.340,273.971 121.350,273.350 120.800 C 272.601 120.136,272.741 120.404,273.768 121.600 M169.800 122.400 C 169.650 122.873,169.617 123.350,169.727 123.460 C 169.837 123.570,170.050 123.273,170.200 122.800 C 170.350 122.327,170.383 121.850,170.273 121.740 C 170.163 121.630,169.950 121.927,169.800 122.400 M235.400 123.200 C 235.250 123.673,235.217 124.150,235.327 124.260 C 235.437 124.370,235.650 124.073,235.800 123.600 C 235.950 123.127,235.983 122.650,235.873 122.540 C 235.763 122.430,235.550 122.727,235.400 123.200 M251.669 123.239 C 250.910 124.454,251.366 124.616,252.155 123.412 C 252.520 122.856,252.678 122.400,252.505 122.400 C 252.333 122.400,251.957 122.778,251.669 123.239 M225.612 123.200 C 225.612 123.530,225.787 124.070,226.000 124.400 C 226.345 124.933,226.388 124.933,226.388 124.400 C 226.388 124.070,226.213 123.530,226.000 123.200 C 225.655 122.667,225.612 122.667,225.612 123.200 M102.673 124.553 C 102.523 124.945,102.411 125.566,102.425 125.933 C 102.442 126.375,102.581 126.274,102.837 125.634 C 103.049 125.103,103.161 124.482,103.085 124.254 C 103.009 124.027,102.824 124.161,102.673 124.553 M169.000 124.800 C 168.850 125.273,168.817 125.750,168.927 125.860 C 169.037 125.970,169.250 125.673,169.400 125.200 C 169.550 124.727,169.583 124.250,169.473 124.140 C 169.363 124.030,169.150 124.327,169.000 124.800 M292.056 124.800 C 292.056 125.130,292.211 125.760,292.400 126.200 C 292.617 126.704,292.744 126.778,292.744 126.400 C 292.744 126.070,292.589 125.440,292.400 125.000 C 292.183 124.496,292.056 124.422,292.056 124.800 M234.629 125.829 C 234.481 126.415,234.438 126.972,234.532 127.066 C 234.627 127.160,234.824 126.758,234.971 126.171 C 235.119 125.585,235.162 125.028,235.068 124.934 C 234.973 124.840,234.776 125.242,234.629 125.829 M160.056 125.600 C 160.056 125.930,160.211 126.560,160.400 127.000 C 160.617 127.504,160.744 127.578,160.744 127.200 C 160.744 126.870,160.589 126.240,160.400 125.800 C 160.183 125.296,160.056 125.222,160.056 125.600 M226.434 125.800 C 226.422 126.240,226.587 126.870,226.800 127.200 C 227.314 127.995,227.314 126.996,226.800 125.800 L 226.456 125.000 226.434 125.800 M183.467 126.667 C 183.320 126.813,183.211 127.308,183.225 127.767 C 183.249 128.533,183.282 128.523,183.634 127.642 C 184.026 126.663,183.944 126.189,183.467 126.667 M101.800 128.000 C 101.648 128.691,101.614 129.347,101.724 129.457 C 101.834 129.567,102.048 129.091,102.200 128.400 C 102.352 127.709,102.386 127.053,102.276 126.943 C 102.166 126.833,101.952 127.309,101.800 128.000 M168.200 128.000 C 168.048 128.691,168.007 129.341,168.109 129.442 C 168.211 129.544,168.409 129.053,168.550 128.350 C 168.883 126.683,168.560 126.360,168.200 128.000 M292.868 127.800 C 292.874 128.240,293.024 129.050,293.200 129.600 L 293.520 130.600 293.532 129.600 C 293.538 129.050,293.389 128.240,293.200 127.800 L 292.856 127.000 292.868 127.800 M233.822 129.022 C 233.672 129.825,233.638 130.572,233.748 130.682 C 233.858 130.792,234.072 130.225,234.222 129.422 C 234.373 128.619,234.406 127.873,234.296 127.763 C 234.186 127.653,233.973 128.219,233.822 129.022 M145.656 128.800 C 145.656 129.130,145.811 129.760,146.000 130.200 C 146.217 130.704,146.344 130.778,146.344 130.400 C 146.344 130.070,146.189 129.440,146.000 129.000 C 145.783 128.496,145.656 128.422,145.656 128.800 M160.880 129.000 C 160.880 129.440,161.024 130.250,161.200 130.800 C 161.454 131.592,161.520 131.633,161.520 131.000 C 161.520 130.560,161.376 129.750,161.200 129.200 C 160.946 128.408,160.880 128.367,160.880 129.000 M227.280 129.200 C 227.280 129.750,227.424 130.650,227.600 131.200 L 227.920 132.200 227.920 131.200 C 227.920 130.650,227.776 129.750,227.600 129.200 L 227.280 128.200 227.280 129.200 M249.029 129.429 C 248.881 130.015,248.838 130.572,248.932 130.666 C 249.027 130.760,249.224 130.358,249.371 129.771 C 249.519 129.185,249.562 128.628,249.468 128.534 C 249.373 128.440,249.176 128.842,249.029 129.429 M182.649 129.415 C 182.512 129.773,182.415 130.366,182.434 130.733 C 182.453 131.100,182.627 130.869,182.821 130.220 C 183.198 128.958,183.065 128.333,182.649 129.415 M212.046 130.000 C 212.065 130.330,212.224 131.050,212.400 131.600 L 212.720 132.600 212.754 131.600 C 212.773 131.050,212.613 130.330,212.400 130.000 C 212.055 129.467,212.016 129.467,212.046 130.000 M116.182 132.182 C 116.029 133.202,115.994 134.127,116.104 134.237 C 116.214 134.347,116.429 133.602,116.582 132.582 C 116.735 131.561,116.770 130.637,116.660 130.527 C 116.550 130.417,116.335 131.161,116.182 132.182 M167.393 132.514 C 167.244 133.713,167.195 135.033,167.285 135.447 C 167.375 135.861,167.589 134.971,167.760 133.469 C 167.931 131.966,167.979 130.646,167.868 130.535 C 167.757 130.424,167.543 131.314,167.393 132.514 M278.468 131.000 C 278.474 131.440,278.624 132.250,278.800 132.800 L 279.120 133.800 279.132 132.800 C 279.138 132.250,278.989 131.440,278.800 131.000 L 278.456 130.200 278.468 131.000 M101.072 132.204 C 100.927 133.082,100.830 134.610,100.856 135.600 C 100.893 137.003,100.980 136.739,101.251 134.400 C 101.628 131.153,101.501 129.605,101.072 132.204 M293.800 138.571 C 293.800 142.735,293.914 145.615,294.053 144.971 C 294.394 143.389,294.406 135.036,294.070 132.800 C 293.922 131.810,293.800 134.407,293.800 138.571 M146.468 132.200 C 146.474 132.640,146.624 133.450,146.800 134.000 L 147.120 135.000 147.132 134.000 C 147.138 133.450,146.989 132.640,146.800 132.200 L 146.456 131.400 146.468 132.200 M181.859 133.488 C 181.721 134.319,181.631 135.900,181.659 137.000 C 181.697 138.523,181.787 138.192,182.035 135.614 C 182.377 132.056,182.283 130.919,181.859 133.488 M248.253 133.236 C 248.114 133.931,248.023 135.333,248.052 136.350 C 248.095 137.871,248.165 137.671,248.448 135.230 C 248.805 132.152,248.695 131.027,248.253 133.236 M233.059 134.500 C 232.738 137.173,232.777 142.073,233.139 144.400 C 233.305 145.470,233.422 143.403,233.428 139.300 C 233.439 131.684,233.423 131.474,233.059 134.500 M161.709 138.400 C 161.706 142.193,161.774 142.864,161.991 141.182 C 162.148 139.961,162.150 137.711,161.995 136.182 C 161.752 133.780,161.713 134.083,161.709 138.400 M213.000 140.056 C 213.000 143.631,213.114 146.026,213.253 145.378 C 213.586 143.823,213.592 135.654,213.260 134.478 C 213.117 133.970,213.000 136.480,213.000 140.056 M228.151 138.400 C 228.151 140.930,228.216 141.965,228.296 140.700 C 228.375 139.435,228.375 137.365,228.296 136.100 C 228.216 134.835,228.151 135.870,228.151 138.400 M279.380 140.200 C 279.383 143.500,279.502 145.660,279.645 145.000 C 279.998 143.372,280.005 138.209,279.657 136.000 C 279.480 134.872,279.376 136.440,279.380 140.200 M147.346 140.600 C 147.347 142.800,147.414 143.649,147.495 142.487 C 147.576 141.324,147.576 139.524,147.493 138.487 C 147.411 137.449,147.345 138.400,147.346 140.600 M115.714 139.000 C 115.717 140.100,115.795 140.503,115.887 139.895 C 115.979 139.286,115.977 138.386,115.882 137.895 C 115.787 137.403,115.711 137.900,115.714 139.000 M181.640 141.833 C 181.662 143.135,181.825 144.650,182.002 145.200 C 182.187 145.777,182.231 144.846,182.106 143.000 C 181.846 139.178,181.584 138.522,181.640 141.833 M248.040 142.433 C 248.062 143.625,248.227 145.050,248.406 145.600 C 248.599 146.192,248.642 145.376,248.511 143.600 C 248.247 140.036,247.984 139.383,248.040 142.433 M100.847 143.233 C 100.873 144.425,101.042 145.940,101.222 146.600 C 101.422 147.336,101.463 146.562,101.326 144.600 C 101.067 140.894,100.778 140.067,100.847 143.233 M167.301 143.800 C 167.297 144.900,167.432 146.340,167.600 147.000 L 167.905 148.200 167.918 147.000 C 167.924 146.340,167.790 144.900,167.618 143.800 L 167.307 141.800 167.301 143.800 M116.080 144.800 C 116.080 145.350,116.224 146.250,116.400 146.800 L 116.720 147.800 116.720 146.800 C 116.720 146.250,116.576 145.350,116.400 144.800 L 116.080 143.800 116.080 144.800 M227.400 146.000 C 227.246 146.910,227.211 147.744,227.321 147.854 C 227.431 147.964,227.646 147.310,227.800 146.400 C 227.954 145.490,227.989 144.656,227.879 144.546 C 227.769 144.436,227.554 145.090,227.400 146.000 M161.000 146.400 C 160.846 147.310,160.811 148.144,160.921 148.254 C 161.031 148.364,161.246 147.710,161.400 146.800 C 161.554 145.890,161.589 145.056,161.479 144.946 C 161.369 144.836,161.154 145.490,161.000 146.400 M146.654 147.154 C 146.500 148.118,146.458 148.991,146.561 149.094 C 146.830 149.363,147.315 146.545,147.107 145.922 C 147.012 145.636,146.808 146.190,146.654 147.154 M182.434 147.800 C 182.422 148.240,182.587 148.870,182.800 149.200 C 183.314 149.995,183.314 148.996,182.800 147.800 L 182.456 147.000 182.434 147.800 M233.680 148.000 C 233.680 148.550,233.824 149.450,234.000 150.000 L 234.320 151.000 234.320 150.000 C 234.320 149.450,234.176 148.550,234.000 148.000 L 233.680 147.000 233.680 148.000 M278.849 147.600 C 278.816 147.930,278.689 148.650,278.567 149.200 C 278.375 150.064,278.407 150.103,278.799 149.488 C 279.048 149.097,279.175 148.377,279.081 147.888 C 278.986 147.400,278.882 147.270,278.849 147.600 M293.022 148.622 C 292.872 149.425,292.828 150.162,292.926 150.260 C 293.024 150.357,293.227 149.781,293.378 148.978 C 293.528 148.175,293.572 147.438,293.474 147.340 C 293.376 147.243,293.173 147.819,293.022 148.622 M212.200 148.800 C 212.048 149.491,212.014 150.147,212.124 150.257 C 212.234 150.367,212.448 149.891,212.600 149.200 C 212.752 148.509,212.786 147.853,212.676 147.743 C 212.566 147.633,212.352 148.109,212.200 148.800 M138.081 148.972 C 136.048 150.409,136.013 150.648,138.000 149.527 C 138.990 148.968,140.070 148.410,140.400 148.287 C 140.826 148.128,140.767 148.060,140.200 148.051 C 139.760 148.045,138.807 148.459,138.081 148.972 M204.400 148.833 L 203.400 149.648 204.729 148.999 C 205.836 148.458,206.169 148.437,206.729 148.875 C 207.331 149.346,207.343 149.328,206.851 148.700 C 206.145 147.800,205.633 147.828,204.400 148.833 M271.374 148.443 C 271.193 148.736,271.367 148.801,271.888 148.635 C 272.529 148.432,272.954 148.834,274.157 150.782 C 275.875 153.566,276.718 154.498,277.232 154.180 C 277.802 153.828,277.666 153.200,277.069 153.429 C 276.740 153.555,275.828 152.563,274.666 150.816 C 272.877 148.126,271.972 147.474,271.374 148.443 M101.656 149.400 C 101.656 149.840,101.811 150.560,102.000 151.000 L 102.344 151.800 102.344 151.000 C 102.344 150.560,102.189 149.840,102.000 149.400 L 101.656 148.600 101.656 149.400 M168.068 149.400 C 168.062 149.840,168.211 150.560,168.400 151.000 C 168.838 152.019,168.838 150.968,168.400 149.600 C 168.143 148.796,168.077 148.757,168.068 149.400 M226.600 150.000 C 226.448 150.691,226.414 151.347,226.524 151.457 C 226.634 151.567,226.848 151.091,227.000 150.400 C 227.152 149.709,227.186 149.053,227.076 148.943 C 226.966 148.833,226.752 149.309,226.600 150.000 M160.273 149.753 C 160.123 150.145,160.011 150.766,160.025 151.133 C 160.042 151.575,160.181 151.474,160.437 150.834 C 160.649 150.303,160.761 149.682,160.685 149.454 C 160.609 149.227,160.424 149.361,160.273 149.753 M199.200 152.049 C 197.110 153.391,195.342 154.542,195.271 154.607 C 195.045 154.814,196.318 156.954,197.407 158.200 C 198.406 159.342,198.401 159.313,197.296 157.600 C 196.658 156.610,196.012 155.587,195.860 155.326 C 195.684 155.022,196.958 153.961,199.392 152.384 C 202.662 150.266,203.574 149.582,203.100 149.605 C 203.045 149.607,201.290 150.707,199.200 152.049 M266.800 151.243 C 264.048 152.974,262.723 154.046,264.400 153.184 C 265.679 152.526,269.600 149.932,269.600 149.743 C 269.600 149.495,269.458 149.571,266.800 151.243 M142.591 151.700 C 143.161 152.635,143.784 153.661,143.975 153.981 C 144.412 154.712,145.607 153.875,145.588 152.851 C 145.577 152.280,145.525 152.286,145.168 152.900 C 144.572 153.923,144.322 153.792,143.063 151.799 C 142.438 150.810,141.843 150.000,141.741 150.000 C 141.638 150.000,142.021 150.765,142.591 151.700 M249.628 150.676 C 249.613 151.158,249.780 151.664,250.000 151.800 C 250.473 152.092,250.473 151.701,250.000 150.600 C 249.669 149.829,249.655 149.831,249.628 150.676 M208.580 151.962 C 209.362 153.474,210.369 154.466,210.832 154.180 C 211.414 153.821,211.260 153.202,210.648 153.437 C 210.312 153.566,209.751 153.091,209.215 152.224 C 208.155 150.510,207.741 150.338,208.580 151.962 M292.200 151.600 C 292.050 152.073,292.017 152.550,292.127 152.660 C 292.237 152.770,292.450 152.473,292.600 152.000 C 292.750 151.527,292.783 151.050,292.673 150.940 C 292.563 150.830,292.350 151.127,292.200 151.600 M234.456 151.600 C 234.456 151.930,234.611 152.560,234.800 153.000 C 235.017 153.504,235.144 153.578,235.144 153.200 C 235.144 152.870,234.989 152.240,234.800 151.800 C 234.583 151.296,234.456 151.222,234.456 151.600 M102.456 152.400 C 102.456 152.730,102.611 153.360,102.800 153.800 C 103.017 154.304,103.144 154.378,103.144 154.000 C 103.144 153.670,102.989 153.040,102.800 152.600 C 102.583 152.096,102.456 152.022,102.456 152.400 M131.500 153.208 C 129.482 154.476,128.821 155.305,130.726 154.180 C 132.060 153.392,133.885 152.018,133.600 152.016 C 133.490 152.016,132.545 152.552,131.500 153.208 M159.400 152.800 C 159.250 153.273,159.217 153.750,159.327 153.860 C 159.437 153.970,159.650 153.673,159.800 153.200 C 159.950 152.727,159.983 152.250,159.873 152.140 C 159.763 152.030,159.550 152.327,159.400 152.800 M168.812 152.800 C 168.812 153.130,168.987 153.670,169.200 154.000 C 169.545 154.533,169.588 154.533,169.588 154.000 C 169.588 153.670,169.413 153.130,169.200 152.800 C 168.855 152.267,168.812 152.267,168.812 152.800 M262.268 154.180 C 261.422 154.821,261.593 155.275,263.891 158.473 C 265.941 161.327,265.891 160.809,263.819 157.720 C 262.139 155.215,262.064 154.993,262.672 154.320 C 263.445 153.467,263.283 153.411,262.268 154.180 M185.273 155.000 C 185.523 155.550,185.884 156.000,186.073 156.000 C 186.263 156.000,186.124 155.550,185.763 155.000 C 185.403 154.450,185.043 154.000,184.963 154.000 C 184.883 154.000,185.022 154.450,185.273 155.000 M235.212 154.400 C 235.212 154.730,235.387 155.270,235.600 155.600 C 235.945 156.133,235.988 156.133,235.988 155.600 C 235.988 155.270,235.813 154.730,235.600 154.400 C 235.255 153.867,235.212 153.867,235.212 154.400 M251.221 154.244 C 251.162 155.483,257.142 160.809,258.578 160.796 C 258.810 160.794,258.086 160.268,256.969 159.627 C 255.033 158.517,253.408 156.960,251.921 154.791 C 251.548 154.246,251.233 154.000,251.221 154.244 M119.204 154.668 C 119.199 155.283,123.927 160.004,124.532 159.987 C 124.789 159.980,124.462 159.575,123.803 159.087 C 122.311 157.981,121.688 157.358,120.304 155.596 C 119.702 154.828,119.207 154.411,119.204 154.668 M158.267 156.067 C 157.905 156.988,157.674 157.807,157.754 157.888 C 157.834 157.968,158.200 157.283,158.567 156.367 C 158.933 155.450,159.164 154.631,159.079 154.546 C 158.994 154.461,158.629 155.145,158.267 156.067 M169.628 154.892 C 169.582 155.365,170.886 158.448,171.058 158.275 C 171.145 158.188,170.866 157.325,170.437 156.358 C 170.008 155.391,169.644 154.731,169.628 154.892 M129.600 155.399 C 129.600 155.679,132.439 159.600,132.642 159.600 C 132.733 159.600,132.151 158.610,131.347 157.400 C 129.985 155.348,129.600 154.907,129.600 155.399 M290.420 156.547 C 290.199 157.129,289.739 158.144,289.399 158.803 C 289.058 159.461,288.871 160.000,288.983 160.000 C 289.324 160.000,291.269 155.936,291.038 155.705 C 290.919 155.586,290.641 155.965,290.420 156.547 M187.400 157.576 C 188.696 158.975,191.902 161.031,192.248 160.685 C 192.365 160.568,192.074 160.350,191.601 160.200 C 191.129 160.051,189.720 159.107,188.471 158.104 C 186.728 156.705,186.479 156.582,187.400 157.576 M223.482 158.611 C 222.892 159.815,222.494 160.800,222.598 160.800 C 222.867 160.800,224.884 156.751,224.705 156.571 C 224.623 156.489,224.073 157.407,223.482 158.611 M236.034 156.600 C 236.034 156.820,236.378 157.630,236.800 158.400 C 237.222 159.170,237.566 159.620,237.566 159.400 C 237.566 159.180,237.222 158.370,236.800 157.600 C 236.378 156.830,236.034 156.380,236.034 156.600 M156.447 159.909 C 156.023 160.738,154.940 162.398,154.039 163.598 C 151.974 166.345,151.941 166.087,154.863 170.020 L 157.326 173.335 156.163 174.303 C 155.456 174.892,155.326 175.109,155.833 174.857 C 157.853 173.854,157.804 173.449,155.228 169.941 C 152.344 166.012,152.384 166.332,154.439 163.598 C 156.061 161.438,157.802 158.400,157.416 158.400 C 157.306 158.400,156.870 159.079,156.447 159.909 M105.550 160.300 C 107.537 164.191,111.382 168.410,114.874 170.532 C 116.583 171.570,115.985 170.997,113.088 168.821 C 110.525 166.896,108.125 164.089,106.315 160.900 C 104.946 158.487,104.409 158.066,105.550 160.300 M198.915 160.548 C 199.182 161.123,199.535 161.595,199.700 161.597 C 200.246 161.603,200.012 160.935,199.215 160.213 C 198.447 159.518,198.440 159.526,198.915 160.548 M133.148 160.537 C 133.393 160.832,133.475 161.192,133.330 161.337 C 133.185 161.482,133.277 161.600,133.533 161.600 C 134.068 161.600,134.091 161.503,133.757 160.633 C 133.624 160.285,133.332 160.000,133.108 160.000 C 132.853 160.000,132.867 160.199,133.148 160.537 M238.428 161.500 C 238.919 162.325,239.674 163.360,240.106 163.800 C 240.538 164.240,240.215 163.565,239.389 162.300 C 237.711 159.731,237.044 159.176,238.428 161.500 M172.568 161.400 C 174.261 164.866,179.291 169.758,183.287 171.824 C 186.039 173.248,186.189 173.009,183.494 171.495 C 178.920 168.927,176.809 166.912,172.691 161.186 L 171.982 160.200 172.568 161.400 M287.593 161.811 C 287.114 162.586,286.507 163.441,286.244 163.711 C 284.097 165.913,284.113 166.030,287.170 170.164 C 288.627 172.134,289.142 173.153,288.964 173.714 C 288.799 174.233,288.864 174.407,289.157 174.226 C 289.955 173.733,289.632 172.967,287.208 169.611 C 285.892 167.789,284.939 166.096,285.090 165.849 C 285.241 165.602,285.961 164.617,286.690 163.659 C 288.101 161.806,288.945 160.400,288.647 160.400 C 288.547 160.400,288.073 161.035,287.593 161.811 M127.600 161.200 C 127.930 161.413,128.650 161.573,129.200 161.554 L 130.200 161.520 129.200 161.200 C 127.658 160.706,126.836 160.706,127.600 161.200 M193.400 161.181 C 194.168 161.529,196.310 161.756,195.967 161.453 C 195.875 161.372,195.080 161.196,194.200 161.062 C 193.085 160.893,192.842 160.929,193.400 161.181 M259.800 161.181 C 260.568 161.529,262.710 161.756,262.367 161.453 C 262.275 161.372,261.480 161.196,260.600 161.062 C 259.485 160.893,259.242 160.929,259.800 161.181 M220.027 164.164 C 218.386 166.354,218.326 166.005,220.978 169.672 C 223.455 173.097,223.595 173.613,222.300 174.563 C 221.507 175.145,221.499 175.177,222.233 174.833 C 224.241 173.894,224.186 173.456,221.622 169.998 C 218.820 166.218,218.815 166.195,220.400 164.200 C 221.060 163.369,221.600 162.625,221.600 162.545 C 221.600 162.171,221.250 162.532,220.027 164.164 M243.413 167.448 C 244.960 168.962,246.985 170.617,247.913 171.126 C 250.173 172.366,250.075 171.954,247.791 170.616 C 246.796 170.033,244.771 168.462,243.291 167.126 L 240.600 164.696 243.413 167.448 M116.400 171.396 C 116.400 171.670,118.849 172.884,119.032 172.701 C 119.119 172.614,118.562 172.244,117.795 171.878 C 117.028 171.512,116.400 171.295,116.400 171.396 M250.800 172.566 C 251.350 172.860,252.250 173.212,252.800 173.349 C 253.350 173.486,253.080 173.252,252.200 172.829 C 250.390 171.958,249.268 171.748,250.800 172.566 M207.600 173.468 C 207.930 173.565,209.190 175.108,210.400 176.899 C 211.610 178.689,212.870 180.220,213.200 180.300 C 213.680 180.417,213.672 180.364,213.159 180.036 C 212.807 179.811,211.569 178.180,210.409 176.413 C 209.122 174.453,208.046 173.218,207.650 173.246 C 207.115 173.285,207.106 173.324,207.600 173.468 M273.513 173.469 C 273.796 173.583,274.926 175.009,276.025 176.638 C 277.125 178.267,278.110 179.600,278.214 179.600 C 278.319 179.600,277.458 178.164,276.302 176.409 C 275.146 174.654,273.930 173.228,273.600 173.241 C 273.173 173.257,273.148 173.323,273.513 173.469 M122.200 174.000 C 123.396 174.514,124.395 174.514,123.600 174.000 C 123.270 173.787,122.640 173.622,122.200 173.634 L 121.400 173.656 122.200 174.000 M188.600 174.000 C 189.796 174.514,190.795 174.514,190.000 174.000 C 189.670 173.787,189.040 173.622,188.600 173.634 L 187.800 173.656 188.600 174.000 M254.600 174.000 C 255.040 174.189,255.670 174.344,256.000 174.344 C 256.378 174.344,256.304 174.217,255.800 174.000 C 255.360 173.811,254.730 173.656,254.400 173.656 C 254.022 173.656,254.096 173.783,254.600 174.000 M271.200 174.000 C 270.667 174.345,270.667 174.388,271.200 174.388 C 271.530 174.388,272.070 174.213,272.400 174.000 C 272.933 173.655,272.933 173.612,272.400 173.612 C 272.070 173.612,271.530 173.787,271.200 174.000 M126.079 174.860 C 127.254 175.192,135.422 175.186,136.979 174.853 C 137.627 174.714,135.233 174.600,131.658 174.600 C 128.082 174.600,125.572 174.717,126.079 174.860 M192.223 174.853 C 192.870 174.992,195.380 175.105,197.800 175.105 C 200.220 175.105,202.730 174.992,203.377 174.853 C 204.025 174.714,201.515 174.600,197.800 174.600 C 194.085 174.600,191.575 174.714,192.223 174.853 M258.221 174.853 C 259.778 175.186,267.946 175.192,269.121 174.860 C 269.628 174.717,267.118 174.600,263.542 174.600 C 259.967 174.600,257.573 174.714,258.221 174.853 M285.562 176.041 C 283.174 177.571,281.364 178.977,282.800 178.187 C 284.314 177.355,288.400 174.711,288.400 174.564 C 288.400 174.256,288.123 174.400,285.562 176.041 M217.162 177.641 C 214.774 179.171,212.964 180.577,214.400 179.787 C 215.914 178.955,220.000 176.311,220.000 176.164 C 220.000 175.856,219.723 176.000,217.162 177.641 M149.887 178.231 C 148.629 179.018,147.600 179.749,147.600 179.856 C 147.600 180.115,150.336 178.564,151.600 177.589 C 153.178 176.372,152.383 176.670,149.887 178.231 " stroke="none" fill="#7c84bc" fill-rule="evenodd"></path><path id="path4" d="M85.385 85.699 C 85.281 85.975,85.241 137.590,85.298 200.400 L 85.400 314.600 165.200 314.701 L 245.000 314.802 276.000 283.701 L 307.000 252.600 275.999 283.500 L 244.998 314.400 165.299 314.400 L 85.600 314.400 85.600 200.000 L 85.600 85.600 200.000 85.600 L 314.400 85.600 314.400 165.113 L 314.400 244.625 312.000 247.000 C 310.680 248.306,309.600 249.535,309.600 249.730 C 309.600 249.926,310.770 248.856,312.201 247.353 L 314.802 244.621 314.701 165.011 L 314.600 85.400 200.088 85.299 C 108.688 85.219,85.537 85.300,85.385 85.699 M129.712 103.895 C 130.764 103.977,132.384 103.976,133.312 103.892 C 134.240 103.808,133.380 103.741,131.400 103.742 C 129.420 103.743,128.660 103.812,129.712 103.895 M196.112 103.895 C 197.164 103.977,198.784 103.976,199.712 103.892 C 200.640 103.808,199.780 103.741,197.800 103.742 C 195.820 103.743,195.060 103.812,196.112 103.895 M261.900 103.893 C 262.835 103.977,264.365 103.977,265.300 103.893 C 266.235 103.809,265.470 103.740,263.600 103.740 C 261.730 103.740,260.965 103.809,261.900 103.893 M124.021 104.379 C 123.646 104.616,124.070 104.665,125.221 104.518 C 126.199 104.392,127.075 104.225,127.167 104.145 C 127.542 103.819,124.555 104.040,124.021 104.379 M136.305 104.283 C 136.802 104.379,137.522 104.375,137.905 104.275 C 138.287 104.175,137.880 104.096,137.000 104.101 C 136.120 104.105,135.807 104.187,136.305 104.283 M190.421 104.379 C 190.046 104.616,190.470 104.665,191.621 104.518 C 192.599 104.392,193.475 104.225,193.567 104.145 C 193.942 103.819,190.955 104.040,190.421 104.379 M202.033 104.145 C 202.125 104.225,203.001 104.392,203.979 104.518 C 205.130 104.665,205.554 104.616,205.179 104.379 C 204.645 104.040,201.658 103.819,202.033 104.145 M257.505 104.283 C 258.002 104.379,258.722 104.375,259.105 104.275 C 259.487 104.175,259.080 104.096,258.200 104.101 C 257.320 104.105,257.007 104.187,257.505 104.283 M268.305 104.283 C 268.802 104.379,269.522 104.375,269.905 104.275 C 270.287 104.175,269.880 104.096,269.000 104.101 C 268.120 104.105,267.807 104.187,268.305 104.283 M273.400 105.412 C 275.473 106.158,276.194 106.140,274.454 105.384 C 273.714 105.063,272.814 104.808,272.454 104.818 C 272.094 104.827,272.520 105.095,273.400 105.412 M250.700 106.229 C 250.095 106.557,249.600 106.914,249.600 107.023 C 249.600 107.132,250.095 106.971,250.700 106.665 C 251.305 106.360,252.070 106.009,252.400 105.886 C 252.933 105.688,252.933 105.661,252.400 105.648 C 252.070 105.639,251.305 105.901,250.700 106.229 M246.700 108.614 C 245.655 109.380,244.800 110.096,244.800 110.203 C 244.800 110.352,247.331 108.683,249.167 107.323 C 249.258 107.256,249.168 107.204,248.967 107.210 C 248.765 107.215,247.745 107.847,246.700 108.614 M151.788 112.000 C 155.484 116.006,155.449 115.972,154.496 114.600 C 154.037 113.940,152.618 112.410,151.341 111.200 C 149.130 109.104,149.152 109.142,151.788 112.000 M218.188 112.000 C 221.884 116.006,221.849 115.972,220.896 114.600 C 220.437 113.940,219.018 112.410,217.741 111.200 C 215.530 109.104,215.552 109.142,218.188 112.000 M110.786 111.900 L 108.600 114.200 110.900 112.014 C 113.037 109.982,113.383 109.600,113.086 109.600 C 113.024 109.600,111.989 110.635,110.786 111.900 M177.186 111.900 L 175.000 114.200 177.300 112.014 C 179.437 109.982,179.783 109.600,179.486 109.600 C 179.424 109.600,178.389 110.635,177.186 111.900 M284.000 111.800 C 284.746 112.570,285.447 113.200,285.557 113.200 C 285.667 113.200,285.146 112.570,284.400 111.800 C 283.654 111.030,282.953 110.400,282.843 110.400 C 282.733 110.400,283.254 111.030,284.000 111.800 M286.800 115.200 C 287.270 115.860,287.744 116.400,287.854 116.400 C 287.964 116.400,287.670 115.860,287.200 115.200 C 286.730 114.540,286.256 114.000,286.146 114.000 C 286.036 114.000,286.330 114.540,286.800 115.200 M174.323 115.100 C 173.618 115.921,173.090 116.800,173.301 116.800 C 173.383 116.800,173.849 116.260,174.337 115.600 C 175.301 114.296,175.292 113.972,174.323 115.100 M155.549 116.600 C 155.765 117.040,156.234 117.760,156.593 118.200 L 157.244 119.000 156.851 118.200 C 156.635 117.760,156.166 117.040,155.807 116.600 L 155.156 115.800 155.549 116.600 M222.699 117.968 C 223.303 119.050,223.865 119.868,223.947 119.786 C 224.121 119.612,222.057 116.000,221.783 116.000 C 221.683 116.000,222.095 116.886,222.699 117.968 M266.600 117.200 C 267.040 117.389,267.760 117.538,268.200 117.532 C 268.843 117.523,268.804 117.457,268.000 117.200 C 266.632 116.762,265.581 116.762,266.600 117.200 M136.600 117.812 C 138.604 118.534,138.878 118.530,137.600 117.800 C 137.050 117.486,136.240 117.230,135.800 117.232 C 135.360 117.234,135.720 117.495,136.600 117.812 M191.200 117.800 C 189.922 118.530,190.196 118.534,192.200 117.812 C 193.080 117.495,193.440 117.234,193.000 117.232 C 192.560 117.230,191.750 117.486,191.200 117.800 M171.781 119.237 C 171.429 119.918,171.212 120.545,171.299 120.632 C 171.386 120.719,171.756 120.162,172.122 119.395 C 172.944 117.670,172.659 117.538,171.781 119.237 M270.033 118.130 C 270.125 118.201,270.830 118.666,271.600 119.163 L 273.000 120.066 271.800 119.035 C 271.140 118.468,270.435 118.003,270.233 118.002 C 270.032 118.001,269.942 118.058,270.033 118.130 M121.556 120.356 C 120.590 121.211,119.477 122.516,119.083 123.256 C 118.450 124.442,118.447 124.482,119.060 123.600 C 119.442 123.050,120.641 121.745,121.723 120.700 C 124.098 118.407,123.995 118.195,121.556 120.356 M157.228 119.400 C 157.228 119.620,157.486 120.250,157.800 120.800 C 158.114 121.350,158.372 121.620,158.372 121.400 C 158.372 121.180,158.114 120.550,157.800 120.000 C 157.486 119.450,157.228 119.180,157.228 119.400 M186.709 121.125 C 185.719 122.183,184.699 123.488,184.443 124.025 L 183.977 125.000 184.687 124.000 C 185.078 123.450,186.188 122.145,187.154 121.100 C 188.119 120.055,188.819 119.200,188.709 119.200 C 188.599 119.200,187.699 120.066,186.709 121.125 M141.600 121.000 C 142.346 121.770,143.047 122.400,143.157 122.400 C 143.267 122.400,142.746 121.770,142.000 121.000 C 141.254 120.230,140.553 119.600,140.443 119.600 C 140.333 119.600,140.854 120.230,141.600 121.000 M236.596 121.472 C 236.258 122.281,236.033 123.100,236.097 123.291 C 236.161 123.482,236.516 122.820,236.887 121.819 C 237.693 119.645,237.470 119.379,236.596 121.472 M274.497 121.600 C 275.261 122.590,276.353 124.300,276.924 125.400 C 277.495 126.500,277.971 127.259,277.981 127.087 C 278.024 126.373,275.935 122.889,274.573 121.400 L 273.109 119.800 274.497 121.600 M224.713 122.219 C 225.084 123.220,225.439 123.882,225.503 123.691 C 225.631 123.306,224.493 120.400,224.214 120.400 C 224.117 120.400,224.342 121.219,224.713 122.219 M208.975 122.532 C 209.591 123.339,210.176 124.000,210.275 124.000 C 210.553 124.000,208.821 121.660,208.309 121.344 C 208.059 121.189,208.359 121.724,208.975 122.532 M291.606 125.033 C 291.609 125.455,291.795 126.070,292.018 126.400 C 292.315 126.838,292.352 126.676,292.156 125.800 C 291.827 124.329,291.598 124.010,291.606 125.033 M145.130 126.382 C 145.498 127.251,145.856 127.804,145.924 127.609 C 146.050 127.249,144.913 124.800,144.619 124.800 C 144.531 124.800,144.761 125.512,145.130 126.382 M235.246 125.267 C 235.221 125.634,235.096 126.264,234.970 126.667 C 234.752 127.362,234.763 127.363,235.197 126.687 C 235.448 126.296,235.573 125.666,235.473 125.287 C 235.311 124.668,235.288 124.666,235.246 125.267 M183.265 126.217 C 183.009 126.778,182.807 127.454,182.816 127.719 C 182.824 127.983,183.097 127.588,183.422 126.839 C 184.105 125.265,183.961 124.690,183.265 126.217 M116.649 128.215 C 116.512 128.573,116.415 129.166,116.434 129.533 C 116.453 129.900,116.627 129.669,116.821 129.020 C 117.198 127.758,117.065 127.133,116.649 128.215 M160.493 129.200 C 160.493 129.970,160.575 130.285,160.676 129.900 C 160.776 129.515,160.776 128.885,160.676 128.500 C 160.575 128.115,160.493 128.430,160.493 129.200 M146.244 129.400 C 146.573 130.871,146.802 131.190,146.794 130.167 C 146.791 129.745,146.605 129.130,146.382 128.800 C 146.085 128.362,146.048 128.524,146.244 129.400 M248.649 129.015 C 248.512 129.373,248.418 130.056,248.441 130.533 C 248.467 131.081,248.603 130.886,248.810 130.003 C 249.160 128.516,249.065 127.933,248.649 129.015 M101.714 132.200 C 101.717 133.300,101.795 133.703,101.887 133.095 C 101.979 132.486,101.977 131.586,101.882 131.095 C 101.787 130.603,101.711 131.100,101.714 132.200 M168.101 131.800 C 168.105 132.680,168.187 132.993,168.283 132.495 C 168.379 131.998,168.375 131.278,168.275 130.895 C 168.175 130.513,168.096 130.920,168.101 131.800 M279.293 132.400 C 279.293 133.170,279.375 133.485,279.476 133.100 C 279.576 132.715,279.576 132.085,279.476 131.700 C 279.375 131.315,279.293 131.630,279.293 132.400 M293.314 133.000 C 293.317 134.100,293.395 134.503,293.487 133.895 C 293.579 133.286,293.577 132.386,293.482 131.895 C 293.387 131.403,293.311 131.900,293.314 133.000 M115.701 133.400 C 115.705 134.280,115.787 134.593,115.883 134.095 C 115.979 133.598,115.975 132.878,115.875 132.495 C 115.775 132.113,115.696 132.520,115.701 133.400 M233.734 134.800 C 233.734 136.450,233.805 137.125,233.891 136.300 C 233.978 135.475,233.978 134.125,233.891 133.300 C 233.805 132.475,233.734 133.150,233.734 134.800 M147.293 134.000 C 147.293 134.770,147.375 135.085,147.476 134.700 C 147.576 134.315,147.576 133.685,147.476 133.300 C 147.375 132.915,147.293 133.230,147.293 134.000 M161.358 138.200 C 161.358 141.280,161.421 142.487,161.497 140.882 C 161.573 139.278,161.573 136.758,161.496 135.282 C 161.419 133.807,161.357 135.120,161.358 138.200 M227.755 138.200 C 227.756 141.060,227.820 142.178,227.897 140.683 C 227.974 139.189,227.974 136.849,227.896 135.483 C 227.818 134.118,227.755 135.340,227.755 138.200 M247.760 139.000 C 247.761 142.300,247.822 143.597,247.898 141.882 C 247.973 140.167,247.972 137.467,247.897 135.882 C 247.821 134.297,247.759 135.700,247.760 139.000 M181.359 139.200 C 181.359 142.390,181.421 143.695,181.497 142.100 C 181.573 140.505,181.573 137.895,181.497 136.300 C 181.421 134.705,181.359 136.010,181.359 139.200 M167.720 136.400 C 167.720 137.610,167.795 138.105,167.887 137.500 C 167.978 136.895,167.978 135.905,167.887 135.300 C 167.795 134.695,167.720 135.190,167.720 136.400 M101.351 139.200 C 101.351 141.730,101.416 142.765,101.496 141.500 C 101.575 140.235,101.575 138.165,101.496 136.900 C 101.416 135.635,101.351 136.670,101.351 139.200 M213.755 139.800 C 213.756 142.660,213.820 143.778,213.897 142.283 C 213.974 140.789,213.974 138.449,213.896 137.083 C 213.818 135.718,213.755 136.940,213.755 139.800 M115.337 139.000 C 115.339 140.760,115.409 141.430,115.493 140.489 C 115.578 139.549,115.577 138.109,115.491 137.289 C 115.405 136.470,115.336 137.240,115.337 139.000 M147.693 137.200 C 147.693 137.970,147.775 138.285,147.876 137.900 C 147.976 137.515,147.976 136.885,147.876 136.500 C 147.775 136.115,147.693 136.430,147.693 137.200 M280.146 140.600 C 280.147 142.800,280.214 143.649,280.295 142.487 C 280.376 141.324,280.376 139.524,280.293 138.487 C 280.211 137.449,280.145 138.400,280.146 140.600 M293.714 139.000 C 293.717 140.100,293.795 140.503,293.887 139.895 C 293.979 139.286,293.977 138.386,293.882 137.895 C 293.787 137.403,293.711 137.900,293.714 139.000 M167.720 142.000 C 167.720 143.210,167.795 143.705,167.887 143.100 C 167.978 142.495,167.978 141.505,167.887 140.900 C 167.795 140.295,167.720 140.790,167.720 142.000 M233.734 143.600 C 233.734 145.250,233.805 145.925,233.891 145.100 C 233.978 144.275,233.978 142.925,233.891 142.100 C 233.805 141.275,233.734 141.950,233.734 143.600 M147.701 143.400 C 147.705 144.280,147.787 144.593,147.883 144.095 C 147.979 143.598,147.975 142.878,147.875 142.495 C 147.775 142.113,147.696 142.520,147.701 143.400 M293.314 144.600 C 293.317 145.700,293.395 146.103,293.487 145.495 C 293.579 144.886,293.577 143.986,293.482 143.495 C 293.387 143.003,293.311 143.500,293.314 144.600 M115.701 145.000 C 115.705 145.880,115.787 146.193,115.883 145.695 C 115.979 145.198,115.975 144.478,115.875 144.095 C 115.775 143.713,115.696 144.120,115.701 145.000 M101.714 146.200 C 101.717 147.300,101.795 147.703,101.887 147.095 C 101.979 146.486,101.977 145.586,101.882 145.095 C 101.787 144.603,101.711 145.100,101.714 146.200 M168.109 146.400 C 168.109 147.390,168.187 147.795,168.282 147.300 C 168.378 146.805,168.378 145.995,168.282 145.500 C 168.187 145.005,168.109 145.410,168.109 146.400 M147.309 146.800 C 147.309 147.790,147.387 148.195,147.482 147.700 C 147.578 147.205,147.578 146.395,147.482 145.900 C 147.387 145.405,147.309 145.810,147.309 146.800 M160.493 147.200 C 160.493 147.970,160.575 148.285,160.676 147.900 C 160.776 147.515,160.776 146.885,160.676 146.500 C 160.575 146.115,160.493 146.430,160.493 147.200 M279.293 148.000 C 279.293 148.770,279.375 149.085,279.476 148.700 C 279.576 148.315,279.576 147.685,279.476 147.300 C 279.375 146.915,279.293 147.230,279.293 148.000 M204.488 149.263 C 203.780 149.712,203.200 150.166,203.200 150.272 C 203.200 150.378,203.819 150.083,204.576 149.615 L 205.952 148.765 207.988 151.782 C 209.278 153.694,210.276 154.783,210.712 154.754 C 211.337 154.711,211.339 154.691,210.732 154.530 C 210.364 154.433,209.315 153.204,208.399 151.799 C 206.165 148.369,206.034 148.284,204.488 149.263 M270.900 149.238 C 269.158 150.365,269.230 150.694,270.982 149.611 L 272.363 148.757 273.838 150.979 C 274.650 152.200,275.388 153.200,275.479 153.200 C 275.760 153.200,274.258 150.807,273.200 149.568 L 272.200 148.397 270.900 149.238 M146.570 149.900 C 145.467 154.837,144.738 155.228,142.656 151.997 C 141.807 150.678,141.021 149.600,140.910 149.600 C 140.715 149.600,140.972 150.029,143.121 153.300 C 144.681 155.675,146.064 154.512,146.926 150.100 C 147.234 148.525,146.916 148.347,146.570 149.900 M136.395 150.654 C 134.012 152.231,132.649 153.410,134.600 152.206 C 137.875 150.183,139.215 149.200,138.695 149.200 C 138.637 149.200,137.602 149.854,136.395 150.654 M182.619 150.201 C 182.775 150.860,183.057 151.568,183.245 151.773 C 183.432 151.978,183.415 151.549,183.205 150.819 C 182.718 149.118,182.244 148.619,182.619 150.201 M226.046 150.467 C 226.021 150.834,225.896 151.464,225.770 151.867 C 225.552 152.562,225.563 152.563,225.997 151.887 C 226.248 151.496,226.373 150.866,226.273 150.487 C 226.111 149.868,226.088 149.866,226.046 150.467 M249.230 150.800 C 249.228 151.376,250.357 153.666,250.386 153.146 C 250.394 153.006,250.137 152.286,249.816 151.546 C 249.494 150.806,249.231 150.470,249.230 150.800 M103.057 153.100 C 103.378 154.392,104.362 156.746,104.384 156.275 C 104.408 155.789,103.133 152.000,102.946 152.000 C 102.857 152.000,102.907 152.495,103.057 153.100 M183.604 152.526 C 183.592 153.574,186.921 158.129,188.394 159.081 C 188.954 159.443,188.627 158.953,187.656 157.975 C 186.697 157.009,185.394 155.314,184.760 154.209 C 184.126 153.104,183.606 152.347,183.604 152.526 M197.703 153.506 C 195.685 154.807,195.620 155.347,197.260 157.200 L 198.499 158.600 197.450 157.127 C 196.078 155.201,196.110 155.003,198.000 153.753 C 199.375 152.842,199.889 152.382,199.500 152.406 C 199.445 152.410,198.636 152.905,197.703 153.506 M264.000 153.600 C 263.010 154.258,262.339 154.797,262.509 154.798 C 262.857 154.800,266.000 152.774,266.000 152.547 C 266.000 152.292,265.842 152.375,264.000 153.600 M290.667 154.867 C 290.305 155.788,290.074 156.607,290.154 156.688 C 290.234 156.768,290.600 156.083,290.967 155.167 C 291.333 154.250,291.564 153.431,291.479 153.346 C 291.394 153.261,291.029 153.945,290.667 154.867 M119.038 155.124 C 119.457 155.852,120.230 156.842,120.756 157.324 C 121.319 157.840,121.095 157.378,120.212 156.200 C 118.323 153.683,118.079 153.459,119.038 155.124 M236.030 155.200 C 236.028 155.776,237.157 158.066,237.186 157.546 C 237.194 157.406,236.937 156.686,236.616 155.946 C 236.294 155.206,236.031 154.870,236.030 155.200 M224.400 155.284 C 224.400 155.404,224.128 156.154,223.795 156.951 C 223.462 157.748,223.279 158.400,223.389 158.400 C 223.706 158.400,224.833 155.500,224.605 155.272 C 224.492 155.159,224.400 155.165,224.400 155.284 M252.543 156.808 C 253.099 157.582,254.150 158.628,254.877 159.132 L 256.200 160.048 254.954 158.924 C 254.268 158.306,253.218 157.260,252.619 156.600 L 251.532 155.400 252.543 156.808 M171.200 157.753 C 171.200 158.182,172.390 160.400,172.621 160.400 C 172.731 160.400,172.523 159.815,172.159 159.100 C 171.417 157.640,171.200 157.336,171.200 157.753 M133.032 159.577 C 133.606 160.444,133.958 161.344,133.814 161.577 C 133.670 161.810,133.743 162.000,133.976 162.000 C 134.209 162.000,134.400 161.772,134.400 161.493 C 134.400 160.965,132.515 158.000,132.180 158.000 C 132.075 158.000,132.458 158.710,133.032 159.577 M122.269 158.832 C 122.766 159.433,125.200 160.964,125.200 160.676 C 125.200 160.583,124.435 160.002,123.500 159.385 C 122.565 158.768,122.011 158.520,122.269 158.832 M199.198 159.997 C 199.667 160.656,199.923 161.421,199.767 161.697 C 199.548 162.085,199.599 162.093,199.991 161.731 C 200.460 161.297,199.228 158.800,198.546 158.800 C 198.436 158.800,198.729 159.339,199.198 159.997 M265.598 159.997 C 266.067 160.656,266.323 161.421,266.167 161.697 C 265.948 162.085,265.999 162.093,266.391 161.731 C 266.860 161.297,265.628 158.800,264.946 158.800 C 264.836 158.800,265.129 159.339,265.598 159.997 M105.615 159.400 C 105.617 159.620,105.986 160.250,106.436 160.800 C 106.979 161.464,107.115 161.531,106.840 161.000 C 106.166 159.695,105.612 158.972,105.615 159.400 M128.705 161.883 C 129.202 161.979,129.922 161.975,130.305 161.875 C 130.687 161.775,130.280 161.696,129.400 161.701 C 128.520 161.705,128.207 161.787,128.705 161.883 M194.300 161.882 C 194.795 161.978,195.605 161.978,196.100 161.882 C 196.595 161.787,196.190 161.709,195.200 161.709 C 194.210 161.709,193.805 161.787,194.300 161.882 M260.705 161.883 C 261.202 161.979,261.922 161.975,262.305 161.875 C 262.687 161.775,262.280 161.696,261.400 161.701 C 260.520 161.705,260.207 161.787,260.705 161.883 M152.975 164.268 C 152.359 165.076,152.059 165.611,152.309 165.456 C 152.821 165.140,154.553 162.800,154.275 162.800 C 154.176 162.800,153.591 163.461,152.975 164.268 M219.267 164.377 C 218.570 165.244,218.000 166.067,218.000 166.207 C 218.000 166.436,218.833 165.480,220.358 163.500 C 221.452 162.082,220.492 162.852,219.267 164.377 M110.800 166.600 C 111.995 167.810,113.063 168.800,113.173 168.800 C 113.283 168.800,112.395 167.810,111.200 166.600 C 110.005 165.390,108.937 164.400,108.827 164.400 C 108.717 164.400,109.605 165.390,110.800 166.600 M177.200 166.600 C 178.395 167.810,179.463 168.800,179.573 168.800 C 179.683 168.800,178.795 167.810,177.600 166.600 C 176.405 165.390,175.337 164.400,175.227 164.400 C 175.117 164.400,176.005 165.390,177.200 166.600 M244.789 168.134 C 245.413 168.945,248.558 171.200,249.065 171.200 C 249.241 171.200,248.669 170.724,247.793 170.143 C 246.917 169.562,245.755 168.707,245.212 168.243 C 244.459 167.600,244.358 167.574,244.789 168.134 M220.175 169.332 C 220.791 170.139,221.376 170.800,221.475 170.800 C 221.753 170.800,220.021 168.460,219.509 168.144 C 219.259 167.989,219.559 168.524,220.175 169.332 M154.000 169.600 C 154.470 170.260,154.944 170.800,155.054 170.800 C 155.164 170.800,154.870 170.260,154.400 169.600 C 153.930 168.940,153.456 168.400,153.346 168.400 C 153.236 168.400,153.530 168.940,154.000 169.600 M286.800 170.400 C 287.270 171.060,287.744 171.600,287.854 171.600 C 287.964 171.600,287.670 171.060,287.200 170.400 C 286.730 169.740,286.256 169.200,286.146 169.200 C 286.036 169.200,286.330 169.740,286.800 170.400 M288.401 172.479 C 289.042 173.252,288.906 173.448,286.800 174.800 C 284.638 176.188,284.032 176.899,286.006 175.733 C 288.813 174.075,289.470 173.317,288.701 172.626 C 288.317 172.280,288.182 172.214,288.401 172.479 M120.746 173.016 C 121.486 173.337,122.386 173.592,122.746 173.582 C 123.106 173.573,122.680 173.305,121.800 172.988 C 119.727 172.242,119.006 172.260,120.746 173.016 M187.146 173.016 C 187.886 173.337,188.786 173.592,189.146 173.582 C 189.506 173.573,189.080 173.305,188.200 172.988 C 186.127 172.242,185.406 172.260,187.146 173.016 M207.600 173.084 C 207.930 173.205,208.540 173.596,208.957 173.952 C 209.681 174.572,209.689 174.561,209.160 173.700 C 208.856 173.205,208.246 172.814,207.804 172.832 C 207.230 172.854,207.172 172.926,207.600 173.084 M203.000 174.000 L 201.400 174.286 202.800 174.337 C 203.570 174.365,204.470 174.213,204.800 174.000 C 205.455 173.577,205.362 173.577,203.000 174.000 M125.505 174.283 C 126.002 174.379,126.722 174.375,127.105 174.275 C 127.487 174.175,127.080 174.096,126.200 174.101 C 125.320 174.105,125.007 174.187,125.505 174.283 M135.905 174.283 C 136.402 174.379,137.122 174.375,137.505 174.275 C 137.887 174.175,137.480 174.096,136.600 174.101 C 135.720 174.105,135.407 174.187,135.905 174.283 M191.905 174.283 C 192.402 174.379,193.122 174.375,193.505 174.275 C 193.887 174.175,193.480 174.096,192.600 174.101 C 191.720 174.105,191.407 174.187,191.905 174.283 M257.905 174.283 C 258.402 174.379,259.122 174.375,259.505 174.275 C 259.887 174.175,259.480 174.096,258.600 174.101 C 257.720 174.105,257.407 174.187,257.905 174.283 M268.100 174.276 C 268.485 174.376,269.115 174.376,269.500 174.276 C 269.885 174.175,269.570 174.093,268.800 174.093 C 268.030 174.093,267.715 174.175,268.100 174.276 M130.100 174.691 C 130.925 174.778,132.275 174.778,133.100 174.691 C 133.925 174.605,133.250 174.534,131.600 174.534 C 129.950 174.534,129.275 174.605,130.100 174.691 M196.500 174.691 C 197.325 174.778,198.675 174.778,199.500 174.691 C 200.325 174.605,199.650 174.534,198.000 174.534 C 196.350 174.534,195.675 174.605,196.500 174.691 M219.195 175.854 C 216.812 177.431,215.449 178.610,217.400 177.406 C 220.675 175.383,222.015 174.400,221.495 174.400 C 221.437 174.400,220.402 175.054,219.195 175.854 M262.500 174.691 C 263.325 174.778,264.675 174.778,265.500 174.691 C 266.325 174.605,265.650 174.534,264.000 174.534 C 262.350 174.534,261.675 174.605,262.500 174.691 M152.193 176.256 C 150.152 177.609,149.432 178.323,151.026 177.414 C 152.430 176.614,154.301 175.222,153.993 175.209 C 153.879 175.204,153.069 175.675,152.193 176.256 M280.088 179.023 C 279.599 179.366,278.991 179.518,278.737 179.361 C 278.452 179.185,278.385 179.252,278.562 179.538 C 278.949 180.165,279.233 180.113,280.400 179.200 C 281.592 178.268,281.357 178.135,280.088 179.023 " stroke="none" fill="#bcc4dc" fill-rule="evenodd"></path></g></svg>