<svg id="svg" version="1.1" xmlns="http://www.w3.org/2000/svg" xmlns:xlink="http://www.w3.org/1999/xlink" width="400" height="400" viewBox="0, 0, 400,400"><g id="svgg"><path id="path0" d="M131.801 163.255 C 119.518 166.221,112.800 174.247,112.800 185.956 C 112.800 198.141,118.015 203.176,137.309 209.621 C 149.943 213.841,152.938 216.362,152.150 222.113 C 150.903 231.213,134.557 230.416,132.996 221.179 L 132.730 219.600 122.536 219.600 L 112.342 219.600 112.616 221.900 C 113.794 231.807,121.070 239.295,132.600 242.467 C 136.761 243.612,148.795 243.766,152.400 242.720 C 165.653 238.876,172.354 230.555,171.912 218.490 C 171.499 207.229,166.025 202.078,147.807 195.807 C 135.544 191.586,132.805 189.575,132.801 184.794 C 132.795 175.345,147.457 174.454,150.197 183.736 L 150.688 185.400 160.617 185.507 C 171.839 185.628,171.347 185.770,170.777 182.579 C 168.059 167.382,150.585 158.719,131.801 163.255 M181.874 163.459 C 181.723 163.610,181.600 181.523,181.600 203.267 L 181.600 242.800 204.009 242.800 L 226.418 242.800 226.309 235.700 L 226.200 228.600 213.600 228.400 L 201.000 228.200 200.800 195.800 L 200.600 163.400 191.374 163.293 C 186.299 163.234,182.024 163.309,181.874 163.459 M228.242 163.533 C 228.129 163.716,228.552 165.291,229.182 167.033 C 230.426 170.470,231.085 172.323,236.000 186.200 C 237.792 191.260,239.773 196.840,240.401 198.600 C 241.030 200.360,242.653 204.950,244.007 208.800 C 245.362 212.650,247.341 218.230,248.406 221.200 C 249.470 224.170,251.446 229.750,252.796 233.600 C 254.146 237.450,255.441 241.095,255.674 241.700 L 256.097 242.800 268.149 242.795 L 280.200 242.789 283.333 233.895 C 285.057 229.003,287.442 222.255,288.633 218.900 C 289.825 215.545,291.802 209.965,293.026 206.500 C 294.250 203.035,295.767 198.760,296.397 197.000 C 298.017 192.472,303.540 176.894,306.015 169.872 C 307.332 166.134,307.964 163.804,307.725 163.565 C 307.500 163.340,303.451 163.229,297.827 163.293 L 288.309 163.400 284.201 175.800 C 281.941 182.620,277.519 196.030,274.374 205.600 C 271.229 215.170,268.594 223.079,268.518 223.176 C 268.013 223.825,266.720 220.448,262.401 207.200 C 252.334 176.315,248.291 164.186,247.902 163.700 C 247.438 163.120,228.596 162.959,228.242 163.533 " stroke="none" fill="#151d2d" fill-rule="evenodd"></path><path id="path1" d="M178.500 0.274 C 176.465 0.360,174.800 0.603,174.800 0.815 C 174.800 1.030,173.383 1.200,171.600 1.200 C 169.733 1.200,168.400 1.367,168.400 1.600 C 168.400 1.820,167.421 2.000,166.224 2.000 C 165.027 2.000,163.936 2.180,163.800 2.400 C 163.664 2.620,162.663 2.800,161.576 2.800 C 160.489 2.800,159.600 2.980,159.600 3.200 C 159.600 3.420,158.801 3.600,157.824 3.600 C 156.847 3.600,155.936 3.780,155.800 4.000 C 155.664 4.220,154.843 4.400,153.976 4.400 C 153.109 4.400,152.400 4.580,152.400 4.800 C 152.400 5.020,151.680 5.200,150.800 5.200 C 149.920 5.200,149.200 5.380,149.200 5.600 C 149.200 5.820,148.581 6.000,147.824 6.000 C 147.067 6.000,146.336 6.180,146.200 6.400 C 146.064 6.620,145.423 6.800,144.776 6.800 C 144.129 6.800,143.600 6.980,143.600 7.200 C 143.600 7.420,142.880 7.600,142.000 7.600 C 141.120 7.600,140.400 7.780,140.400 8.000 C 140.400 8.220,139.860 8.400,139.200 8.400 C 138.540 8.400,138.000 8.580,138.000 8.800 C 138.000 9.020,137.460 9.200,136.800 9.200 C 136.140 9.200,135.600 9.380,135.600 9.600 C 135.600 9.820,135.060 10.000,134.400 10.000 C 133.740 10.000,133.200 10.180,133.200 10.400 C 133.200 10.620,132.660 10.800,132.000 10.800 C 131.340 10.800,130.800 10.980,130.800 11.200 C 130.800 11.420,130.440 11.600,130.000 11.600 C 129.560 11.600,129.200 11.780,129.200 12.000 C 129.200 12.220,128.660 12.400,128.000 12.400 C 127.340 12.400,126.800 12.580,126.800 12.800 C 126.800 13.020,126.440 13.200,126.000 13.200 C 125.560 13.200,125.200 13.380,125.200 13.600 C 125.200 13.820,124.660 14.000,124.000 14.000 C 123.340 14.000,122.800 14.180,122.800 14.400 C 122.800 14.620,122.440 14.800,122.000 14.800 C 121.560 14.800,121.200 14.980,121.200 15.200 C 121.200 15.420,120.761 15.600,120.224 15.600 C 119.687 15.600,119.136 15.780,119.000 16.000 C 118.864 16.220,118.403 16.400,117.976 16.400 C 117.549 16.400,117.200 16.580,117.200 16.800 C 117.200 17.020,116.840 17.200,116.400 17.200 C 115.960 17.200,115.600 17.380,115.600 17.600 C 115.600 17.820,115.240 18.000,114.800 18.000 C 114.360 18.000,114.000 18.180,114.000 18.400 C 114.000 18.620,113.640 18.800,113.200 18.800 C 112.760 18.800,112.400 18.980,112.400 19.200 C 112.400 19.420,112.040 19.600,111.600 19.600 C 111.160 19.600,110.800 19.780,110.800 20.000 C 110.800 20.220,110.440 20.400,110.000 20.400 C 109.560 20.400,109.200 20.580,109.200 20.800 C 109.200 21.020,108.840 21.200,108.400 21.200 C 107.960 21.200,107.600 21.380,107.600 21.600 C 107.600 21.820,107.240 22.000,106.800 22.000 C 106.360 22.000,106.000 22.180,106.000 22.400 C 106.000 22.620,105.640 22.800,105.200 22.800 C 104.760 22.800,104.400 22.980,104.400 23.200 C 104.400 23.420,104.040 23.600,103.600 23.600 C 103.160 23.600,102.800 23.780,102.800 24.000 C 102.800 24.220,102.564 24.400,102.275 24.400 C 101.987 24.400,101.364 24.760,100.892 25.200 C 100.420 25.640,99.756 26.000,99.417 26.000 C 99.078 26.000,98.800 26.180,98.800 26.400 C 98.800 26.620,98.440 26.800,98.000 26.800 C 97.560 26.800,97.200 26.980,97.200 27.200 C 97.200 27.420,96.964 27.600,96.675 27.600 C 96.387 27.600,95.764 27.960,95.292 28.400 C 94.820 28.840,94.196 29.200,93.905 29.200 C 93.614 29.200,93.117 29.560,92.800 30.000 C 92.483 30.440,91.943 30.800,91.600 30.800 C 91.257 30.800,90.717 31.160,90.400 31.600 C 90.083 32.040,89.503 32.400,89.112 32.400 C 88.720 32.400,88.400 32.580,88.400 32.800 C 88.400 33.020,88.157 33.200,87.859 33.200 C 87.562 33.200,86.754 33.740,86.063 34.400 C 85.372 35.060,84.575 35.600,84.292 35.600 C 84.009 35.600,83.517 35.960,83.200 36.400 C 82.883 36.840,82.420 37.200,82.171 37.200 C 81.922 37.200,81.154 37.740,80.463 38.400 C 79.772 39.060,79.047 39.600,78.852 39.600 C 78.656 39.600,77.755 40.320,76.848 41.200 C 75.941 42.080,75.005 42.800,74.768 42.800 C 74.531 42.800,73.646 43.520,72.800 44.400 C 71.954 45.280,71.084 46.000,70.866 46.000 C 70.648 46.000,69.373 47.080,68.032 48.400 C 66.692 49.720,65.430 50.800,65.228 50.800 C 64.750 50.800,50.800 64.750,50.800 65.228 C 50.800 65.430,49.720 66.692,48.400 68.032 C 47.080 69.373,46.000 70.648,46.000 70.866 C 46.000 71.084,45.280 71.954,44.400 72.800 C 43.520 73.646,42.800 74.531,42.800 74.768 C 42.800 75.005,42.080 75.941,41.200 76.848 C 40.320 77.755,39.600 78.656,39.600 78.852 C 39.600 79.047,39.060 79.772,38.400 80.463 C 37.740 81.154,37.200 81.922,37.200 82.171 C 37.200 82.420,36.840 82.883,36.400 83.200 C 35.960 83.517,35.600 84.009,35.600 84.292 C 35.600 84.575,35.060 85.372,34.400 86.063 C 33.740 86.754,33.200 87.562,33.200 87.859 C 33.200 88.157,33.020 88.400,32.800 88.400 C 32.580 88.400,32.400 88.720,32.400 89.112 C 32.400 89.503,32.040 90.083,31.600 90.400 C 31.160 90.717,30.800 91.257,30.800 91.600 C 30.800 91.943,30.440 92.483,30.000 92.800 C 29.560 93.117,29.200 93.614,29.200 93.905 C 29.200 94.196,28.840 94.820,28.400 95.292 C 27.960 95.764,27.600 96.387,27.600 96.675 C 27.600 96.964,27.420 97.200,27.200 97.200 C 26.980 97.200,26.800 97.560,26.800 98.000 C 26.800 98.440,26.620 98.800,26.400 98.800 C 26.180 98.800,26.000 99.078,26.000 99.417 C 26.000 99.756,25.640 100.420,25.200 100.892 C 24.760 101.364,24.400 101.987,24.400 102.275 C 24.400 102.564,24.220 102.800,24.000 102.800 C 23.780 102.800,23.600 103.160,23.600 103.600 C 23.600 104.040,23.420 104.400,23.200 104.400 C 22.980 104.400,22.800 104.760,22.800 105.200 C 22.800 105.640,22.620 106.000,22.400 106.000 C 22.180 106.000,22.000 106.360,22.000 106.800 C 22.000 107.240,21.820 107.600,21.600 107.600 C 21.380 107.600,21.200 107.960,21.200 108.400 C 21.200 108.840,21.020 109.200,20.800 109.200 C 20.580 109.200,20.400 109.560,20.400 110.000 C 20.400 110.440,20.220 110.800,20.000 110.800 C 19.780 110.800,19.600 111.160,19.600 111.600 C 19.600 112.040,19.420 112.400,19.200 112.400 C 18.980 112.400,18.800 112.760,18.800 113.200 C 18.800 113.640,18.620 114.000,18.400 114.000 C 18.180 114.000,18.000 114.360,18.000 114.800 C 18.000 115.240,17.820 115.600,17.600 115.600 C 17.380 115.600,17.200 115.960,17.200 116.400 C 17.200 116.840,17.020 117.200,16.800 117.200 C 16.580 117.200,16.400 117.549,16.400 117.976 C 16.400 118.403,16.220 118.864,16.000 119.000 C 15.780 119.136,15.600 119.687,15.600 120.224 C 15.600 120.761,15.420 121.200,15.200 121.200 C 14.980 121.200,14.800 121.560,14.800 122.000 C 14.800 122.440,14.620 122.800,14.400 122.800 C 14.180 122.800,14.000 123.340,14.000 124.000 C 14.000 124.660,13.820 125.200,13.600 125.200 C 13.380 125.200,13.200 125.560,13.200 126.000 C 13.200 126.440,13.020 126.800,12.800 126.800 C 12.580 126.800,12.400 127.340,12.400 128.000 C 12.400 128.660,12.220 129.200,12.000 129.200 C 11.780 129.200,11.600 129.560,11.600 130.000 C 11.600 130.440,11.420 130.800,11.200 130.800 C 10.980 130.800,10.800 131.340,10.800 132.000 C 10.800 132.660,10.620 133.200,10.400 133.200 C 10.180 133.200,10.000 133.740,10.000 134.400 C 10.000 135.060,9.820 135.600,9.600 135.600 C 9.380 135.600,9.200 136.140,9.200 136.800 C 9.200 137.460,9.020 138.000,8.800 138.000 C 8.580 138.000,8.400 138.540,8.400 139.200 C 8.400 139.860,8.220 140.400,8.000 140.400 C 7.780 140.400,7.600 141.120,7.600 142.000 C 7.600 142.880,7.420 143.600,7.200 143.600 C 6.980 143.600,6.800 144.129,6.800 144.776 C 6.800 145.423,6.620 146.064,6.400 146.200 C 6.180 146.336,6.000 147.067,6.000 147.824 C 6.000 148.581,5.820 149.200,5.600 149.200 C 5.380 149.200,5.200 149.920,5.200 150.800 C 5.200 151.680,5.020 152.400,4.800 152.400 C 4.580 152.400,4.400 153.109,4.400 153.976 C 4.400 154.843,4.220 155.664,4.000 155.800 C 3.780 155.936,3.600 156.847,3.600 157.824 C 3.600 158.801,3.420 159.600,3.200 159.600 C 2.980 159.600,2.800 160.489,2.800 161.576 C 2.800 162.663,2.620 163.664,2.400 163.800 C 2.180 163.936,2.000 165.027,2.000 166.224 C 2.000 167.421,1.820 168.400,1.600 168.400 C 1.367 168.400,1.200 169.722,1.200 171.567 C 1.200 173.744,1.044 174.785,0.700 174.900 C -0.032 175.144,-0.032 224.856,0.700 225.100 C 1.044 225.215,1.200 226.256,1.200 228.433 C 1.200 230.278,1.367 231.600,1.600 231.600 C 1.820 231.600,2.000 232.579,2.000 233.776 C 2.000 234.973,2.180 236.064,2.400 236.200 C 2.620 236.336,2.800 237.337,2.800 238.424 C 2.800 239.511,2.980 240.400,3.200 240.400 C 3.420 240.400,3.600 241.199,3.600 242.176 C 3.600 243.153,3.780 244.064,4.000 244.200 C 4.220 244.336,4.400 245.157,4.400 246.024 C 4.400 246.891,4.580 247.600,4.800 247.600 C 5.020 247.600,5.200 248.320,5.200 249.200 C 5.200 250.080,5.380 250.800,5.600 250.800 C 5.820 250.800,6.000 251.419,6.000 252.176 C 6.000 252.933,6.180 253.664,6.400 253.800 C 6.620 253.936,6.800 254.577,6.800 255.224 C 6.800 255.871,6.980 256.400,7.200 256.400 C 7.420 256.400,7.600 257.120,7.600 258.000 C 7.600 258.880,7.780 259.600,8.000 259.600 C 8.220 259.600,8.400 260.140,8.400 260.800 C 8.400 261.460,8.580 262.000,8.800 262.000 C 9.020 262.000,9.200 262.540,9.200 263.200 C 9.200 263.860,9.380 264.400,9.600 264.400 C 9.820 264.400,10.000 264.940,10.000 265.600 C 10.000 266.260,10.180 266.800,10.400 266.800 C 10.620 266.800,10.800 267.340,10.800 268.000 C 10.800 268.660,10.980 269.200,11.200 269.200 C 11.420 269.200,11.600 269.560,11.600 270.000 C 11.600 270.440,11.780 270.800,12.000 270.800 C 12.220 270.800,12.400 271.340,12.400 272.000 C 12.400 272.660,12.580 273.200,12.800 273.200 C 13.020 273.200,13.200 273.560,13.200 274.000 C 13.200 274.440,13.380 274.800,13.600 274.800 C 13.820 274.800,14.000 275.340,14.000 276.000 C 14.000 276.660,14.180 277.200,14.400 277.200 C 14.620 277.200,14.800 277.560,14.800 278.000 C 14.800 278.440,14.980 278.800,15.200 278.800 C 15.420 278.800,15.600 279.239,15.600 279.776 C 15.600 280.313,15.780 280.864,16.000 281.000 C 16.220 281.136,16.400 281.597,16.400 282.024 C 16.400 282.451,16.580 282.800,16.800 282.800 C 17.020 282.800,17.200 283.160,17.200 283.600 C 17.200 284.040,17.380 284.400,17.600 284.400 C 17.820 284.400,18.000 284.760,18.000 285.200 C 18.000 285.640,18.180 286.000,18.400 286.000 C 18.620 286.000,18.800 286.360,18.800 286.800 C 18.800 287.240,18.980 287.600,19.200 287.600 C 19.420 287.600,19.600 287.960,19.600 288.400 C 19.600 288.840,19.780 289.200,20.000 289.200 C 20.220 289.200,20.400 289.560,20.400 290.000 C 20.400 290.440,20.580 290.800,20.800 290.800 C 21.020 290.800,21.200 291.160,21.200 291.600 C 21.200 292.040,21.380 292.400,21.600 292.400 C 21.820 292.400,22.000 292.760,22.000 293.200 C 22.000 293.640,22.180 294.000,22.400 294.000 C 22.620 294.000,22.800 294.360,22.800 294.800 C 22.800 295.240,22.980 295.600,23.200 295.600 C 23.420 295.600,23.600 295.960,23.600 296.400 C 23.600 296.840,23.780 297.200,24.000 297.200 C 24.220 297.200,24.400 297.436,24.400 297.725 C 24.400 298.013,24.760 298.636,25.200 299.108 C 25.640 299.580,26.000 300.244,26.000 300.583 C 26.000 300.922,26.180 301.200,26.400 301.200 C 26.620 301.200,26.800 301.560,26.800 302.000 C 26.800 302.440,26.980 302.800,27.200 302.800 C 27.420 302.800,27.600 303.036,27.600 303.325 C 27.600 303.613,27.960 304.236,28.400 304.708 C 28.840 305.180,29.200 305.804,29.200 306.095 C 29.200 306.386,29.560 306.883,30.000 307.200 C 30.440 307.517,30.800 308.057,30.800 308.400 C 30.800 308.743,31.160 309.283,31.600 309.600 C 32.040 309.917,32.400 310.497,32.400 310.888 C 32.400 311.280,32.580 311.600,32.800 311.600 C 33.020 311.600,33.200 311.843,33.200 312.141 C 33.200 312.438,33.740 313.246,34.400 313.937 C 35.060 314.628,35.600 315.425,35.600 315.708 C 35.600 315.991,35.960 316.483,36.400 316.800 C 36.840 317.117,37.200 317.580,37.200 317.829 C 37.200 318.078,37.740 318.846,38.400 319.537 C 39.060 320.228,39.600 320.953,39.600 321.148 C 39.600 321.344,40.320 322.245,41.200 323.152 C 42.080 324.059,42.800 324.995,42.800 325.232 C 42.800 325.469,43.520 326.354,44.400 327.200 C 45.280 328.046,46.000 328.916,46.000 329.134 C 46.000 329.352,47.080 330.627,48.400 331.968 C 49.720 333.308,50.800 334.570,50.800 334.772 C 50.800 335.250,64.750 349.200,65.228 349.200 C 65.430 349.200,66.692 350.280,68.032 351.600 C 69.373 352.920,70.648 354.000,70.866 354.000 C 71.084 354.000,71.954 354.720,72.800 355.600 C 73.646 356.480,74.531 357.200,74.768 357.200 C 75.005 357.200,75.941 357.920,76.848 358.800 C 77.755 359.680,78.656 360.400,78.852 360.400 C 79.047 360.400,79.772 360.940,80.463 361.600 C 81.154 362.260,81.922 362.800,82.171 362.800 C 82.420 362.800,82.883 363.160,83.200 363.600 C 83.517 364.040,84.009 364.400,84.292 364.400 C 84.575 364.400,85.372 364.940,86.063 365.600 C 86.754 366.260,87.562 366.800,87.859 366.800 C 88.157 366.800,88.400 366.980,88.400 367.200 C 88.400 367.420,88.720 367.600,89.112 367.600 C 89.503 367.600,90.083 367.960,90.400 368.400 C 90.717 368.840,91.257 369.200,91.600 369.200 C 91.943 369.200,92.483 369.560,92.800 370.000 C 93.117 370.440,93.614 370.800,93.905 370.800 C 94.196 370.800,94.820 371.160,95.292 371.600 C 95.764 372.040,96.387 372.400,96.675 372.400 C 96.964 372.400,97.200 372.580,97.200 372.800 C 97.200 373.020,97.560 373.200,98.000 373.200 C 98.440 373.200,98.800 373.380,98.800 373.600 C 98.800 373.820,99.078 374.000,99.417 374.000 C 99.756 374.000,100.420 374.360,100.892 374.800 C 101.364 375.240,101.987 375.600,102.275 375.600 C 102.564 375.600,102.800 375.780,102.800 376.000 C 102.800 376.220,103.160 376.400,103.600 376.400 C 104.040 376.400,104.400 376.580,104.400 376.800 C 104.400 377.020,104.760 377.200,105.200 377.200 C 105.640 377.200,106.000 377.380,106.000 377.600 C 106.000 377.820,106.360 378.000,106.800 378.000 C 107.240 378.000,107.600 378.180,107.600 378.400 C 107.600 378.620,107.960 378.800,108.400 378.800 C 108.840 378.800,109.200 378.980,109.200 379.200 C 109.200 379.420,109.560 379.600,110.000 379.600 C 110.440 379.600,110.800 379.780,110.800 380.000 C 110.800 380.220,111.160 380.400,111.600 380.400 C 112.040 380.400,112.400 380.580,112.400 380.800 C 112.400 381.020,112.760 381.200,113.200 381.200 C 113.640 381.200,114.000 381.380,114.000 381.600 C 114.000 381.820,114.360 382.000,114.800 382.000 C 115.240 382.000,115.600 382.180,115.600 382.400 C 115.600 382.620,115.960 382.800,116.400 382.800 C 116.840 382.800,117.200 382.980,117.200 383.200 C 117.200 383.420,117.549 383.600,117.976 383.600 C 118.403 383.600,118.864 383.780,119.000 384.000 C 119.136 384.220,119.687 384.400,120.224 384.400 C 120.761 384.400,121.200 384.580,121.200 384.800 C 121.200 385.020,121.560 385.200,122.000 385.200 C 122.440 385.200,122.800 385.380,122.800 385.600 C 122.800 385.820,123.340 386.000,124.000 386.000 C 124.660 386.000,125.200 386.180,125.200 386.400 C 125.200 386.620,125.560 386.800,126.000 386.800 C 126.440 386.800,126.800 386.980,126.800 387.200 C 126.800 387.420,127.340 387.600,128.000 387.600 C 128.660 387.600,129.200 387.780,129.200 388.000 C 129.200 388.220,129.560 388.400,130.000 388.400 C 130.440 388.400,130.800 388.580,130.800 388.800 C 130.800 389.020,131.340 389.200,132.000 389.200 C 132.660 389.200,133.200 389.380,133.200 389.600 C 133.200 389.820,133.740 390.000,134.400 390.000 C 135.060 390.000,135.600 390.180,135.600 390.400 C 135.600 390.620,136.140 390.800,136.800 390.800 C 137.460 390.800,138.000 390.980,138.000 391.200 C 138.000 391.420,138.540 391.600,139.200 391.600 C 139.860 391.600,140.400 391.780,140.400 392.000 C 140.400 392.220,141.120 392.400,142.000 392.400 C 142.880 392.400,143.600 392.580,143.600 392.800 C 143.600 393.020,144.129 393.200,144.776 393.200 C 145.423 393.200,146.064 393.380,146.200 393.600 C 146.336 393.820,147.067 394.000,147.824 394.000 C 148.581 394.000,149.200 394.180,149.200 394.400 C 149.200 394.620,149.920 394.800,150.800 394.800 C 151.680 394.800,152.400 394.980,152.400 395.200 C 152.400 395.420,153.109 395.600,153.976 395.600 C 154.843 395.600,155.664 395.780,155.800 396.000 C 155.936 396.220,156.847 396.400,157.824 396.400 C 158.801 396.400,159.600 396.580,159.600 396.800 C 159.600 397.020,160.489 397.200,161.576 397.200 C 162.663 397.200,163.664 397.380,163.800 397.600 C 163.936 397.820,165.027 398.000,166.224 398.000 C 167.421 398.000,168.400 398.180,168.400 398.400 C 168.400 398.633,169.722 398.800,171.567 398.800 C 173.744 398.800,174.785 398.956,174.900 399.300 C 175.144 400.032,224.856 400.032,225.100 399.300 C 225.215 398.956,226.256 398.800,228.433 398.800 C 230.278 398.800,231.600 398.633,231.600 398.400 C 231.600 398.180,232.579 398.000,233.776 398.000 C 234.973 398.000,236.064 397.820,236.200 397.600 C 236.336 397.380,237.337 397.200,238.424 397.200 C 239.511 397.200,240.400 397.020,240.400 396.800 C 240.400 396.580,241.199 396.400,242.176 396.400 C 243.153 396.400,244.064 396.220,244.200 396.000 C 244.336 395.780,245.157 395.600,246.024 395.600 C 246.891 395.600,247.600 395.420,247.600 395.200 C 247.600 394.980,248.320 394.800,249.200 394.800 C 250.080 394.800,250.800 394.620,250.800 394.400 C 250.800 394.180,251.419 394.000,252.176 394.000 C 252.933 394.000,253.664 393.820,253.800 393.600 C 253.936 393.380,254.577 393.200,255.224 393.200 C 255.871 393.200,256.400 393.020,256.400 392.800 C 256.400 392.580,257.120 392.400,258.000 392.400 C 258.880 392.400,259.600 392.220,259.600 392.000 C 259.600 391.780,260.140 391.600,260.800 391.600 C 261.460 391.600,262.000 391.420,262.000 391.200 C 262.000 390.980,262.540 390.800,263.200 390.800 C 263.860 390.800,264.400 390.620,264.400 390.400 C 264.400 390.180,264.940 390.000,265.600 390.000 C 266.260 390.000,266.800 389.820,266.800 389.600 C 266.800 389.380,267.340 389.200,268.000 389.200 C 268.660 389.200,269.200 389.020,269.200 388.800 C 269.200 388.580,269.560 388.400,270.000 388.400 C 270.440 388.400,270.800 388.220,270.800 388.000 C 270.800 387.780,271.340 387.600,272.000 387.600 C 272.660 387.600,273.200 387.420,273.200 387.200 C 273.200 386.980,273.560 386.800,274.000 386.800 C 274.440 386.800,274.800 386.620,274.800 386.400 C 274.800 386.180,275.340 386.000,276.000 386.000 C 276.660 386.000,277.200 385.820,277.200 385.600 C 277.200 385.380,277.560 385.200,278.000 385.200 C 278.440 385.200,278.800 385.020,278.800 384.800 C 278.800 384.580,279.239 384.400,279.776 384.400 C 280.313 384.400,280.864 384.220,281.000 384.000 C 281.136 383.780,281.597 383.600,282.024 383.600 C 282.451 383.600,282.800 383.420,282.800 383.200 C 282.800 382.980,283.160 382.800,283.600 382.800 C 284.040 382.800,284.400 382.620,284.400 382.400 C 284.400 382.180,284.760 382.000,285.200 382.000 C 285.640 382.000,286.000 381.820,286.000 381.600 C 286.000 381.380,286.360 381.200,286.800 381.200 C 287.240 381.200,287.600 381.020,287.600 380.800 C 287.600 380.580,287.960 380.400,288.400 380.400 C 288.840 380.400,289.200 380.220,289.200 380.000 C 289.200 379.780,289.560 379.600,290.000 379.600 C 290.440 379.600,290.800 379.420,290.800 379.200 C 290.800 378.980,291.160 378.800,291.600 378.800 C 292.040 378.800,292.400 378.620,292.400 378.400 C 292.400 378.180,292.760 378.000,293.200 378.000 C 293.640 378.000,294.000 377.820,294.000 377.600 C 294.000 377.380,294.360 377.200,294.800 377.200 C 295.240 377.200,295.600 377.020,295.600 376.800 C 295.600 376.580,295.960 376.400,296.400 376.400 C 296.840 376.400,297.200 376.220,297.200 376.000 C 297.200 375.780,297.436 375.600,297.725 375.600 C 298.013 375.600,298.636 375.240,299.108 374.800 C 299.580 374.360,300.244 374.000,300.583 374.000 C 300.922 374.000,301.200 373.820,301.200 373.600 C 301.200 373.380,301.560 373.200,302.000 373.200 C 302.440 373.200,302.800 373.020,302.800 372.800 C 302.800 372.580,303.036 372.400,303.325 372.400 C 303.613 372.400,304.236 372.040,304.708 371.600 C 305.180 371.160,305.804 370.800,306.095 370.800 C 306.386 370.800,306.883 370.440,307.200 370.000 C 307.517 369.560,308.057 369.200,308.400 369.200 C 308.743 369.200,309.283 368.840,309.600 368.400 C 309.917 367.960,310.497 367.600,310.888 367.600 C 311.280 367.600,311.600 367.420,311.600 367.200 C 311.600 366.980,311.843 366.800,312.141 366.800 C 312.438 366.800,313.246 366.260,313.937 365.600 C 314.628 364.940,315.425 364.400,315.708 364.400 C 315.991 364.400,316.483 364.040,316.800 363.600 C 317.117 363.160,317.580 362.800,317.829 362.800 C 318.078 362.800,318.846 362.260,319.537 361.600 C 320.228 360.940,320.953 360.400,321.148 360.400 C 321.344 360.400,322.245 359.680,323.152 358.800 C 324.059 357.920,324.995 357.200,325.232 357.200 C 325.469 357.200,326.354 356.480,327.200 355.600 C 328.046 354.720,328.916 354.000,329.134 354.000 C 329.352 354.000,330.627 352.920,331.968 351.600 C 333.308 350.280,334.570 349.200,334.772 349.200 C 335.250 349.200,349.200 335.250,349.200 334.772 C 349.200 334.570,350.280 333.308,351.600 331.968 C 352.920 330.627,354.000 329.352,354.000 329.134 C 354.000 328.916,354.720 328.046,355.600 327.200 C 356.480 326.354,357.200 325.469,357.200 325.232 C 357.200 324.995,357.920 324.059,358.800 323.152 C 359.680 322.245,360.400 321.344,360.400 321.148 C 360.400 320.953,360.940 320.228,361.600 319.537 C 362.260 318.846,362.800 318.078,362.800 317.829 C 362.800 317.580,363.160 317.117,363.600 316.800 C 364.040 316.483,364.400 315.991,364.400 315.708 C 364.400 315.425,364.940 314.628,365.600 313.937 C 366.260 313.246,366.800 312.438,366.800 312.141 C 366.800 311.843,366.980 311.600,367.200 311.600 C 367.420 311.600,367.600 311.280,367.600 310.888 C 367.600 310.497,367.960 309.917,368.400 309.600 C 368.840 309.283,369.200 308.743,369.200 308.400 C 369.200 308.057,369.560 307.517,370.000 307.200 C 370.440 306.883,370.800 306.386,370.800 306.095 C 370.800 305.804,371.160 305.180,371.600 304.708 C 372.040 304.236,372.400 303.613,372.400 303.325 C 372.400 303.036,372.580 302.800,372.800 302.800 C 373.020 302.800,373.200 302.440,373.200 302.000 C 373.200 301.560,373.380 301.200,373.600 301.200 C 373.820 301.200,374.000 300.922,374.000 300.583 C 374.000 300.244,374.360 299.580,374.800 299.108 C 375.240 298.636,375.600 298.013,375.600 297.725 C 375.600 297.436,375.780 297.200,376.000 297.200 C 376.220 297.200,376.400 296.840,376.400 296.400 C 376.400 295.960,376.580 295.600,376.800 295.600 C 377.020 295.600,377.200 295.240,377.200 294.800 C 377.200 294.360,377.380 294.000,377.600 294.000 C 377.820 294.000,378.000 293.640,378.000 293.200 C 378.000 292.760,378.180 292.400,378.400 292.400 C 378.620 292.400,378.800 292.040,378.800 291.600 C 378.800 291.160,378.980 290.800,379.200 290.800 C 379.420 290.800,379.600 290.440,379.600 290.000 C 379.600 289.560,379.780 289.200,380.000 289.200 C 380.220 289.200,380.400 288.840,380.400 288.400 C 380.400 287.960,380.580 287.600,380.800 287.600 C 381.020 287.600,381.200 287.240,381.200 286.800 C 381.200 286.360,381.380 286.000,381.600 286.000 C 381.820 286.000,382.000 285.640,382.000 285.200 C 382.000 284.760,382.180 284.400,382.400 284.400 C 382.620 284.400,382.800 284.040,382.800 283.600 C 382.800 283.160,382.980 282.800,383.200 282.800 C 383.420 282.800,383.600 282.451,383.600 282.024 C 383.600 281.597,383.780 281.136,384.000 281.000 C 384.220 280.864,384.400 280.313,384.400 279.776 C 384.400 279.239,384.580 278.800,384.800 278.800 C 385.020 278.800,385.200 278.440,385.200 278.000 C 385.200 277.560,385.380 277.200,385.600 277.200 C 385.820 277.200,386.000 276.660,386.000 276.000 C 386.000 275.340,386.180 274.800,386.400 274.800 C 386.620 274.800,386.800 274.440,386.800 274.000 C 386.800 273.560,386.980 273.200,387.200 273.200 C 387.420 273.200,387.600 272.660,387.600 272.000 C 387.600 271.340,387.780 270.800,388.000 270.800 C 388.220 270.800,388.400 270.440,388.400 270.000 C 388.400 269.560,388.580 269.200,388.800 269.200 C 389.020 269.200,389.200 268.660,389.200 268.000 C 389.200 267.340,389.380 266.800,389.600 266.800 C 389.820 266.800,390.000 266.260,390.000 265.600 C 390.000 264.940,390.180 264.400,390.400 264.400 C 390.620 264.400,390.800 263.860,390.800 263.200 C 390.800 262.540,390.980 262.000,391.200 262.000 C 391.420 262.000,391.600 261.460,391.600 260.800 C 391.600 260.140,391.780 259.600,392.000 259.600 C 392.220 259.600,392.400 258.880,392.400 258.000 C 392.400 257.120,392.580 256.400,392.800 256.400 C 393.020 256.400,393.200 255.871,393.200 255.224 C 393.200 254.577,393.380 253.936,393.600 253.800 C 393.820 253.664,394.000 252.933,394.000 252.176 C 394.000 251.419,394.180 250.800,394.400 250.800 C 394.620 250.800,394.800 250.080,394.800 249.200 C 394.800 248.320,394.980 247.600,395.200 247.600 C 395.420 247.600,395.600 246.891,395.600 246.024 C 395.600 245.157,395.780 244.336,396.000 244.200 C 396.220 244.064,396.400 243.153,396.400 242.176 C 396.400 241.199,396.580 240.400,396.800 240.400 C 397.020 240.400,397.200 239.511,397.200 238.424 C 397.200 237.337,397.380 236.336,397.600 236.200 C 397.820 236.064,398.000 234.973,398.000 233.776 C 398.000 232.579,398.180 231.600,398.400 231.600 C 398.633 231.600,398.800 230.278,398.800 228.433 C 398.800 226.256,398.956 225.215,399.300 225.100 C 399.693 224.969,399.800 219.591,399.800 200.000 C 399.800 180.409,399.693 175.031,399.300 174.900 C 398.956 174.785,398.800 173.744,398.800 171.567 C 398.800 169.722,398.633 168.400,398.400 168.400 C 398.180 168.400,398.000 167.421,398.000 166.224 C 398.000 165.027,397.820 163.936,397.600 163.800 C 397.380 163.664,397.200 162.663,397.200 161.576 C 397.200 160.489,397.020 159.600,396.800 159.600 C 396.580 159.600,396.400 158.801,396.400 157.824 C 396.400 156.847,396.220 155.936,396.000 155.800 C 395.780 155.664,395.600 154.843,395.600 153.976 C 395.600 153.109,395.420 152.400,395.200 152.400 C 394.980 152.400,394.800 151.680,394.800 150.800 C 394.800 149.920,394.620 149.200,394.400 149.200 C 394.180 149.200,394.000 148.581,394.000 147.824 C 394.000 147.067,393.820 146.336,393.600 146.200 C 393.380 146.064,393.200 145.423,393.200 144.776 C 393.200 144.129,393.020 143.600,392.800 143.600 C 392.580 143.600,392.400 142.880,392.400 142.000 C 392.400 141.120,392.220 140.400,392.000 140.400 C 391.780 140.400,391.600 139.860,391.600 139.200 C 391.600 138.540,391.420 138.000,391.200 138.000 C 390.980 138.000,390.800 137.460,390.800 136.800 C 390.800 136.140,390.620 135.600,390.400 135.600 C 390.180 135.600,390.000 135.060,390.000 134.400 C 390.000 133.740,389.820 133.200,389.600 133.200 C 389.380 133.200,389.200 132.660,389.200 132.000 C 389.200 131.340,389.020 130.800,388.800 130.800 C 388.580 130.800,388.400 130.440,388.400 130.000 C 388.400 129.560,388.220 129.200,388.000 129.200 C 387.780 129.200,387.600 128.660,387.600 128.000 C 387.600 127.340,387.420 126.800,387.200 126.800 C 386.980 126.800,386.800 126.440,386.800 126.000 C 386.800 125.560,386.620 125.200,386.400 125.200 C 386.180 125.200,386.000 124.660,386.000 124.000 C 386.000 123.340,385.820 122.800,385.600 122.800 C 385.380 122.800,385.200 122.440,385.200 122.000 C 385.200 121.560,385.020 121.200,384.800 121.200 C 384.580 121.200,384.400 120.761,384.400 120.224 C 384.400 119.687,384.220 119.136,384.000 119.000 C 383.780 118.864,383.600 118.403,383.600 117.976 C 383.600 117.549,383.420 117.200,383.200 117.200 C 382.980 117.200,382.800 116.840,382.800 116.400 C 382.800 115.960,382.620 115.600,382.400 115.600 C 382.180 115.600,382.000 115.240,382.000 114.800 C 382.000 114.360,381.820 114.000,381.600 114.000 C 381.380 114.000,381.200 113.640,381.200 113.200 C 381.200 112.760,381.020 112.400,380.800 112.400 C 380.580 112.400,380.400 112.040,380.400 111.600 C 380.400 111.160,380.220 110.800,380.000 110.800 C 379.780 110.800,379.600 110.440,379.600 110.000 C 379.600 109.560,379.420 109.200,379.200 109.200 C 378.980 109.200,378.800 108.840,378.800 108.400 C 378.800 107.960,378.620 107.600,378.400 107.600 C 378.180 107.600,378.000 107.240,378.000 106.800 C 378.000 106.360,377.820 106.000,377.600 106.000 C 377.380 106.000,377.200 105.640,377.200 105.200 C 377.200 104.760,377.020 104.400,376.800 104.400 C 376.580 104.400,376.400 104.040,376.400 103.600 C 376.400 103.160,376.220 102.800,376.000 102.800 C 375.780 102.800,375.600 102.564,375.600 102.275 C 375.600 101.987,375.240 101.364,374.800 100.892 C 374.360 100.420,374.000 99.756,374.000 99.417 C 374.000 99.078,373.820 98.800,373.600 98.800 C 373.380 98.800,373.200 98.440,373.200 98.000 C 373.200 97.560,373.020 97.200,372.800 97.200 C 372.580 97.200,372.400 96.964,372.400 96.675 C 372.400 96.387,372.040 95.764,371.600 95.292 C 371.160 94.820,370.800 94.196,370.800 93.905 C 370.800 93.614,370.440 93.117,370.000 92.800 C 369.560 92.483,369.200 91.943,369.200 91.600 C 369.200 91.257,368.840 90.717,368.400 90.400 C 367.960 90.083,367.600 89.503,367.600 89.112 C 367.600 88.720,367.420 88.400,367.200 88.400 C 366.980 88.400,366.800 88.157,366.800 87.859 C 366.800 87.562,366.260 86.754,365.600 86.063 C 364.940 85.372,364.400 84.575,364.400 84.292 C 364.400 84.009,364.040 83.517,363.600 83.200 C 363.160 82.883,362.800 82.420,362.800 82.171 C 362.800 81.922,362.260 81.154,361.600 80.463 C 360.940 79.772,360.400 79.047,360.400 78.852 C 360.400 78.656,359.680 77.755,358.800 76.848 C 357.920 75.941,357.200 75.005,357.200 74.768 C 357.200 74.531,356.480 73.646,355.600 72.800 C 354.720 71.954,354.000 71.084,354.000 70.866 C 354.000 70.648,352.920 69.373,351.600 68.032 C 350.280 66.692,349.200 65.430,349.200 65.228 C 349.200 64.750,335.250 50.800,334.772 50.800 C 334.570 50.800,333.308 49.720,331.968 48.400 C 330.627 47.080,329.352 46.000,329.134 46.000 C 328.916 46.000,328.046 45.280,327.200 44.400 C 326.354 43.520,325.469 42.800,325.232 42.800 C 324.995 42.800,324.059 42.080,323.152 41.200 C 322.245 40.320,321.344 39.600,321.148 39.600 C 320.953 39.600,320.228 39.060,319.537 38.400 C 318.846 37.740,318.078 37.200,317.829 37.200 C 317.580 37.200,317.117 36.840,316.800 36.400 C 316.483 35.960,315.991 35.600,315.708 35.600 C 315.425 35.600,314.628 35.060,313.937 34.400 C 313.246 33.740,312.438 33.200,312.141 33.200 C 311.843 33.200,311.600 33.020,311.600 32.800 C 311.600 32.580,311.280 32.400,310.888 32.400 C 310.497 32.400,309.917 32.040,309.600 31.600 C 309.283 31.160,308.743 30.800,308.400 30.800 C 308.057 30.800,307.517 30.440,307.200 30.000 C 306.883 29.560,306.386 29.200,306.095 29.200 C 305.804 29.200,305.180 28.840,304.708 28.400 C 304.236 27.960,303.613 27.600,303.325 27.600 C 303.036 27.600,302.800 27.420,302.800 27.200 C 302.800 26.980,302.440 26.800,302.000 26.800 C 301.560 26.800,301.200 26.620,301.200 26.400 C 301.200 26.180,300.922 26.000,300.583 26.000 C 300.244 26.000,299.580 25.640,299.108 25.200 C 298.636 24.760,298.013 24.400,297.725 24.400 C 297.436 24.400,297.200 24.220,297.200 24.000 C 297.200 23.780,296.840 23.600,296.400 23.600 C 295.960 23.600,295.600 23.420,295.600 23.200 C 295.600 22.980,295.240 22.800,294.800 22.800 C 294.360 22.800,294.000 22.620,294.000 22.400 C 294.000 22.180,293.640 22.000,293.200 22.000 C 292.760 22.000,292.400 21.820,292.400 21.600 C 292.400 21.380,292.040 21.200,291.600 21.200 C 291.160 21.200,290.800 21.020,290.800 20.800 C 290.800 20.580,290.440 20.400,290.000 20.400 C 289.560 20.400,289.200 20.220,289.200 20.000 C 289.200 19.780,288.840 19.600,288.400 19.600 C 287.960 19.600,287.600 19.420,287.600 19.200 C 287.600 18.980,287.240 18.800,286.800 18.800 C 286.360 18.800,286.000 18.620,286.000 18.400 C 286.000 18.180,285.640 18.000,285.200 18.000 C 284.760 18.000,284.400 17.820,284.400 17.600 C 284.400 17.380,284.040 17.200,283.600 17.200 C 283.160 17.200,282.800 17.020,282.800 16.800 C 282.800 16.580,282.451 16.400,282.024 16.400 C 281.597 16.400,281.136 16.220,281.000 16.000 C 280.864 15.780,280.313 15.600,279.776 15.600 C 279.239 15.600,278.800 15.420,278.800 15.200 C 278.800 14.980,278.440 14.800,278.000 14.800 C 277.560 14.800,277.200 14.620,277.200 14.400 C 277.200 14.180,276.660 14.000,276.000 14.000 C 275.340 14.000,274.800 13.820,274.800 13.600 C 274.800 13.380,274.440 13.200,274.000 13.200 C 273.560 13.200,273.200 13.020,273.200 12.800 C 273.200 12.580,272.660 12.400,272.000 12.400 C 271.340 12.400,270.800 12.220,270.800 12.000 C 270.800 11.780,270.451 11.600,270.024 11.600 C 269.597 11.600,269.136 11.420,269.000 11.200 C 268.864 10.980,268.313 10.800,267.776 10.800 C 267.239 10.800,266.800 10.620,266.800 10.400 C 266.800 10.180,266.260 10.000,265.600 10.000 C 264.940 10.000,264.400 9.820,264.400 9.600 C 264.400 9.380,263.860 9.200,263.200 9.200 C 262.540 9.200,262.000 9.020,262.000 8.800 C 262.000 8.580,261.460 8.400,260.800 8.400 C 260.140 8.400,259.600 8.220,259.600 8.000 C 259.600 7.780,258.880 7.600,258.000 7.600 C 257.120 7.600,256.400 7.420,256.400 7.200 C 256.400 6.980,255.871 6.800,255.224 6.800 C 254.577 6.800,253.936 6.620,253.800 6.400 C 253.664 6.180,252.933 6.000,252.176 6.000 C 251.419 6.000,250.800 5.820,250.800 5.600 C 250.800 5.380,250.080 5.200,249.200 5.200 C 248.320 5.200,247.600 5.020,247.600 4.800 C 247.600 4.580,246.891 4.400,246.024 4.400 C 245.157 4.400,244.336 4.220,244.200 4.000 C 244.064 3.780,243.153 3.600,242.176 3.600 C 241.199 3.600,240.400 3.420,240.400 3.200 C 240.400 2.980,239.511 2.800,238.424 2.800 C 237.337 2.800,236.336 2.620,236.200 2.400 C 236.064 2.180,234.973 2.000,233.776 2.000 C 232.579 2.000,231.600 1.820,231.600 1.600 C 231.600 1.367,230.278 1.200,228.433 1.200 C 226.304 1.200,225.214 1.041,225.105 0.714 C 224.944 0.233,187.802 -0.118,178.500 0.274 M152.050 162.720 C 162.937 165.653,169.662 172.473,171.383 182.325 C 172.131 186.613,172.683 186.400,160.794 186.400 C 150.032 186.400,149.600 186.307,149.600 183.991 C 149.600 181.361,145.675 178.410,141.758 178.096 C 136.648 177.686,133.523 180.105,133.459 184.519 C 133.389 189.373,135.197 190.599,150.600 196.139 C 169.008 202.759,175.179 210.796,172.364 224.480 C 166.661 252.205,115.977 250.480,112.004 222.427 C 111.464 218.613,110.934 218.799,122.349 218.806 C 133.354 218.813,132.976 218.729,133.762 221.339 C 135.454 226.963,142.370 229.674,147.866 226.869 C 152.471 224.518,152.816 217.966,148.486 215.109 C 145.428 213.091,144.743 212.792,138.544 210.772 C 117.731 203.991,112.190 198.732,112.228 185.800 C 112.256 176.608,114.853 171.607,122.267 166.470 C 128.666 162.037,142.875 160.248,152.050 162.720 M200.971 163.029 C 201.532 163.590,201.600 167.097,201.600 195.629 L 201.600 227.600 213.771 227.600 C 224.303 227.600,226.028 227.685,226.571 228.229 C 227.382 229.040,227.515 242.325,226.720 243.120 C 226.211 243.629,183.133 243.856,181.833 243.357 C 180.999 243.037,180.849 163.711,181.680 162.880 C 182.484 162.076,200.155 162.212,200.971 163.029 M248.090 162.900 C 248.684 163.361,250.689 169.267,263.200 207.400 C 265.654 214.880,267.814 221.157,268.000 221.349 C 268.187 221.542,272.666 208.584,277.988 192.453 C 285.282 170.347,287.825 163.108,288.406 162.797 C 288.888 162.539,292.788 162.426,298.887 162.493 L 308.600 162.600 308.564 163.800 C 308.544 164.460,306.147 171.660,303.239 179.800 C 300.330 187.940,295.274 202.160,292.003 211.400 C 288.732 220.640,284.881 231.515,283.445 235.566 C 282.009 239.617,280.601 243.081,280.317 243.263 C 280.033 243.445,274.407 243.551,267.815 243.497 L 255.830 243.400 255.311 242.400 C 255.025 241.850,253.356 237.306,251.601 232.302 C 247.041 219.300,230.644 173.021,228.751 167.810 C 227.261 163.707,227.203 163.387,227.855 162.910 C 228.844 162.187,247.161 162.178,248.090 162.900 " stroke="none" fill="#fbfbfb" fill-rule="evenodd"></path><path id="path2" d="M139.300 162.296 C 140.565 162.375,142.635 162.375,143.900 162.296 C 145.165 162.216,144.130 162.151,141.600 162.151 C 139.070 162.151,138.035 162.216,139.300 162.296 M132.600 162.800 C 131.581 163.238,132.632 163.238,134.000 162.800 C 134.804 162.543,134.843 162.477,134.200 162.468 C 133.760 162.462,133.040 162.611,132.600 162.800 M129.200 163.618 C 128.762 163.915,128.924 163.952,129.800 163.756 C 131.271 163.427,131.590 163.198,130.567 163.206 C 130.145 163.209,129.530 163.395,129.200 163.618 M248.133 164.171 C 248.385 164.705,248.655 165.078,248.732 165.001 C 248.981 164.753,248.358 163.200,248.011 163.200 C 247.826 163.200,247.881 163.637,248.133 164.171 M124.700 165.429 C 123.149 166.270,123.325 166.561,124.900 165.759 C 126.408 164.993,126.675 164.794,126.167 164.816 C 125.965 164.825,125.305 165.101,124.700 165.429 M156.833 164.929 C 157.493 165.439,160.800 167.194,160.800 167.034 C 160.800 166.776,157.436 164.800,156.998 164.800 C 156.816 164.800,156.742 164.858,156.833 164.929 M118.333 170.300 C 117.100 171.565,115.887 173.050,115.637 173.600 C 115.246 174.462,115.254 174.491,115.692 173.812 C 115.971 173.378,117.264 171.893,118.563 170.512 C 121.525 167.364,121.351 167.204,118.333 170.300 M164.448 170.201 C 165.684 171.520,167.169 173.317,167.748 174.193 C 168.326 175.069,168.800 175.641,168.800 175.465 C 168.800 174.786,166.377 171.712,164.335 169.801 L 162.200 167.802 164.448 170.201 M140.100 177.476 C 140.485 177.576,141.115 177.576,141.500 177.476 C 141.885 177.375,141.570 177.293,140.800 177.293 C 140.030 177.293,139.715 177.375,140.100 177.476 M135.728 178.754 C 134.116 179.921,132.582 182.434,132.941 183.318 C 133.079 183.658,133.146 183.641,133.168 183.260 C 133.252 181.841,134.691 179.798,136.349 178.746 C 137.343 178.116,137.968 177.600,137.738 177.600 C 137.508 177.600,136.603 178.119,135.728 178.754 M144.000 177.886 C 144.330 178.009,145.095 178.360,145.700 178.665 C 146.305 178.971,146.800 179.131,146.800 179.021 C 146.800 178.707,144.498 177.596,143.920 177.632 C 143.571 177.653,143.597 177.736,144.000 177.886 M170.673 182.000 C 170.804 182.990,170.976 183.875,171.056 183.967 C 171.357 184.314,171.128 181.764,170.790 181.000 C 170.553 180.466,170.514 180.798,170.673 182.000 M112.542 186.200 C 112.541 188.180,112.608 189.040,112.692 188.112 C 112.776 187.184,112.777 185.564,112.695 184.512 C 112.612 183.460,112.543 184.220,112.542 186.200 M134.482 189.421 C 135.077 190.073,136.157 190.928,136.882 191.321 C 138.151 192.008,138.163 192.008,137.209 191.317 C 136.665 190.923,135.585 190.068,134.809 189.418 L 133.400 188.236 134.482 189.421 M115.516 197.400 C 115.750 197.840,116.984 199.190,118.259 200.400 L 120.577 202.600 118.006 199.800 C 116.592 198.260,115.358 196.910,115.264 196.800 C 115.169 196.690,115.283 196.960,115.516 197.400 M162.800 202.279 C 164.587 203.555,168.091 206.962,169.259 208.560 C 169.887 209.418,170.400 209.911,170.400 209.656 C 170.400 208.938,164.638 203.089,163.136 202.283 C 161.866 201.601,161.850 201.601,162.800 202.279 M171.444 213.400 C 171.773 214.871,172.002 215.190,171.994 214.167 C 171.991 213.745,171.805 213.130,171.582 212.800 C 171.285 212.362,171.248 212.524,171.444 213.400 M149.138 215.078 C 149.434 215.195,150.199 216.117,150.838 217.124 C 151.477 218.132,152.000 218.768,152.000 218.538 C 152.000 217.831,149.625 214.798,149.097 214.832 C 148.742 214.854,148.753 214.924,149.138 215.078 M172.144 219.200 C 172.144 221.290,172.212 222.145,172.294 221.100 C 172.376 220.055,172.376 218.345,172.294 217.300 C 172.212 216.255,172.144 217.110,172.144 219.200 M112.047 220.300 C 112.073 220.905,112.243 221.940,112.425 222.600 C 112.661 223.457,112.695 223.202,112.541 221.707 L 112.327 219.614 122.663 219.500 L 133.000 219.386 122.500 219.293 L 112.000 219.200 112.047 220.300 M133.044 221.400 C 133.373 222.871,133.602 223.190,133.594 222.167 C 133.591 221.745,133.405 221.130,133.182 220.800 C 132.885 220.362,132.848 220.524,133.044 221.400 M267.232 221.820 C 267.195 222.303,268.006 223.200,268.480 223.200 C 268.656 223.200,268.800 223.020,268.800 222.800 C 268.800 222.580,268.545 222.400,268.233 222.400 C 267.922 222.400,267.576 222.175,267.465 221.900 C 267.354 221.625,267.249 221.589,267.232 221.820 M171.646 224.467 C 171.621 224.834,171.496 225.464,171.370 225.867 C 171.152 226.562,171.163 226.563,171.597 225.887 C 171.848 225.496,171.973 224.866,171.873 224.487 C 171.711 223.868,171.688 223.866,171.646 224.467 M112.806 225.033 C 112.809 225.455,112.995 226.070,113.218 226.400 C 113.515 226.838,113.552 226.676,113.356 225.800 C 113.027 224.329,112.798 224.010,112.806 225.033 M149.694 226.012 C 148.975 226.665,148.537 227.200,148.719 227.200 C 148.901 227.200,149.568 226.660,150.200 226.000 C 151.670 224.465,151.386 224.472,149.694 226.012 M136.400 226.579 C 136.400 226.689,136.940 227.059,137.600 227.400 C 138.260 227.741,138.800 227.931,138.800 227.821 C 138.800 227.711,138.260 227.341,137.600 227.000 C 136.940 226.659,136.400 226.469,136.400 226.579 M201.128 228.089 C 201.508 228.468,226.400 228.687,226.400 228.311 C 226.400 228.152,220.649 227.972,213.620 227.911 C 206.590 227.850,200.969 227.930,201.128 228.089 M141.261 228.460 C 142.065 228.631,143.505 228.628,144.461 228.452 C 145.964 228.177,145.766 228.134,143.000 228.141 C 140.474 228.146,140.108 228.213,141.261 228.460 M115.059 230.400 C 116.453 232.831,116.984 233.600,117.269 233.600 C 117.421 233.600,116.911 232.655,116.136 231.500 C 114.439 228.973,113.959 228.484,115.059 230.400 M169.400 230.400 C 169.059 231.060,168.869 231.600,168.979 231.600 C 169.089 231.600,169.459 231.060,169.800 230.400 C 170.141 229.740,170.331 229.200,170.221 229.200 C 170.111 229.200,169.741 229.740,169.400 230.400 M165.586 235.500 L 163.400 237.800 165.700 235.614 C 167.837 233.582,168.183 233.200,167.886 233.200 C 167.824 233.200,166.789 234.235,165.586 235.500 M118.800 235.400 C 119.546 236.170,120.247 236.800,120.357 236.800 C 120.467 236.800,119.946 236.170,119.200 235.400 C 118.454 234.630,117.753 234.000,117.643 234.000 C 117.533 234.000,118.054 234.630,118.800 235.400 M121.322 237.456 C 122.023 238.286,126.361 240.809,127.056 240.791 C 127.245 240.786,126.253 240.164,124.850 239.408 C 123.448 238.652,121.918 237.711,121.450 237.317 C 120.605 236.604,120.604 236.605,121.322 237.456 M161.497 238.766 C 159.898 239.791,159.603 240.206,161.000 239.466 C 162.676 238.577,163.471 238.008,163.000 238.035 C 162.780 238.048,162.104 238.377,161.497 238.766 M255.227 241.424 C 255.116 243.160,255.577 243.218,268.400 243.100 L 280.600 242.988 268.361 242.894 L 256.122 242.800 255.688 241.900 C 255.449 241.405,255.242 241.191,255.227 241.424 M133.000 242.800 C 133.440 242.989,134.070 243.144,134.400 243.144 C 134.778 243.144,134.704 243.017,134.200 242.800 C 133.760 242.611,133.130 242.456,132.800 242.456 C 132.422 242.456,132.496 242.583,133.000 242.800 M151.800 242.800 C 151.296 243.017,151.222 243.144,151.600 243.144 C 151.930 243.144,152.560 242.989,153.000 242.800 C 153.504 242.583,153.578 242.456,153.200 242.456 C 152.870 242.456,152.240 242.611,151.800 242.800 M192.700 243.100 C 198.915 243.162,209.085 243.162,215.300 243.100 C 221.515 243.038,216.430 242.987,204.000 242.987 C 191.570 242.987,186.485 243.038,192.700 243.100 M137.420 243.653 C 138.978 243.986,147.546 243.992,148.720 243.660 C 149.227 243.517,146.626 243.400,142.940 243.400 C 139.254 243.400,136.770 243.514,137.420 243.653 " stroke="none" fill="#7c848c" fill-rule="evenodd"></path><path id="path3" d="M136.905 161.887 C 137.514 161.979,138.414 161.977,138.905 161.882 C 139.397 161.787,138.900 161.711,137.800 161.714 C 136.700 161.717,136.297 161.795,136.905 161.887 M143.233 161.746 C 143.325 161.826,144.840 161.992,146.600 162.113 C 148.898 162.271,149.349 162.237,148.200 161.990 C 146.610 161.648,142.915 161.467,143.233 161.746 M130.800 162.800 C 129.996 163.057,129.957 163.123,130.600 163.132 C 131.040 163.138,131.760 162.989,132.200 162.800 C 133.219 162.362,132.168 162.362,130.800 162.800 M151.000 162.800 C 151.440 162.989,152.160 163.138,152.600 163.132 C 153.243 163.123,153.204 163.057,152.400 162.800 C 151.032 162.362,149.981 162.362,151.000 162.800 M181.680 162.880 C 181.312 163.248,181.223 172.678,181.297 203.380 L 181.394 243.400 181.597 203.200 L 181.800 163.000 190.950 162.892 C 197.363 162.817,200.264 162.921,200.650 163.241 C 201.108 163.622,201.200 169.052,201.200 195.849 L 201.200 228.000 213.700 227.906 L 226.200 227.812 213.900 227.700 L 201.600 227.588 201.600 195.623 C 201.600 167.096,201.532 163.590,200.971 163.029 C 200.155 162.212,182.484 162.076,181.680 162.880 M227.856 162.910 C 227.288 163.325,227.238 163.602,227.589 164.410 L 228.018 165.400 227.812 164.342 C 227.669 163.610,227.800 163.209,228.236 163.042 C 229.359 162.611,247.195 162.772,248.126 163.222 C 248.970 163.630,248.974 163.623,248.224 163.022 C 247.183 162.188,228.980 162.088,227.856 162.910 M291.200 162.673 C 297.496 162.956,308.708 162.973,308.539 162.700 C 308.437 162.535,303.908 162.435,298.476 162.478 C 293.044 162.521,289.770 162.609,291.200 162.673 M155.158 164.037 C 156.125 164.466,156.988 164.745,157.075 164.658 C 157.248 164.486,154.165 163.182,153.692 163.228 C 153.531 163.244,154.191 163.608,155.158 164.037 M123.900 165.429 C 122.405 166.240,122.496 166.578,124.000 165.800 C 124.660 165.459,125.200 165.094,125.200 164.990 C 125.200 164.732,125.157 164.747,123.900 165.429 M157.633 164.941 C 158.207 165.428,161.600 167.236,161.600 167.055 C 161.600 166.783,158.257 164.800,157.798 164.800 C 157.616 164.800,157.542 164.864,157.633 164.941 M117.796 170.004 C 117.166 170.662,116.782 171.200,116.943 171.200 C 117.356 171.200,119.322 169.188,119.113 168.980 C 119.019 168.886,118.426 169.346,117.796 170.004 M164.000 169.042 C 164.000 169.252,164.385 169.688,164.855 170.012 C 165.325 170.335,166.611 171.950,167.714 173.600 C 168.816 175.250,169.606 176.281,169.469 175.892 C 168.785 173.954,164.000 167.960,164.000 169.042 M139.700 177.887 C 140.305 177.978,141.295 177.978,141.900 177.887 C 142.505 177.795,142.010 177.720,140.800 177.720 C 139.590 177.720,139.095 177.795,139.700 177.887 M170.456 179.200 C 170.456 179.530,170.611 180.160,170.800 180.600 C 171.017 181.104,171.144 181.178,171.144 180.800 C 171.144 180.470,170.989 179.840,170.800 179.400 C 170.583 178.896,170.456 178.822,170.456 179.200 M134.384 180.423 C 133.905 181.096,133.579 181.713,133.661 181.794 C 133.743 181.876,134.214 181.326,134.708 180.571 C 135.823 178.871,135.571 178.756,134.384 180.423 M112.200 182.000 C 112.044 183.347,112.001 184.534,112.105 184.638 C 112.209 184.742,112.419 183.722,112.571 182.371 C 112.724 181.021,112.767 179.834,112.667 179.733 C 112.566 179.633,112.356 180.653,112.200 182.000 M147.600 180.105 C 147.600 180.247,148.050 181.028,148.600 181.838 C 149.150 182.649,149.600 183.141,149.600 182.934 C 149.600 182.726,149.150 181.945,148.600 181.200 C 148.050 180.455,147.600 179.962,147.600 180.105 M171.245 183.606 C 171.452 186.053,171.682 186.000,160.789 186.000 L 150.826 186.000 150.229 184.900 C 149.901 184.295,149.625 183.985,149.616 184.211 C 149.536 186.264,150.230 186.400,160.723 186.394 C 166.155 186.391,170.863 186.222,171.183 186.019 C 171.742 185.665,171.865 182.926,171.344 182.415 C 171.224 182.297,171.179 182.833,171.245 183.606 M132.856 184.800 C 132.856 185.130,133.011 185.760,133.200 186.200 C 133.417 186.704,133.544 186.778,133.544 186.400 C 133.544 186.070,133.389 185.440,133.200 185.000 C 132.983 184.496,132.856 184.422,132.856 184.800 M112.093 188.600 C 112.094 189.260,112.232 190.340,112.400 191.000 C 112.823 192.663,112.842 191.026,112.423 189.000 C 112.145 187.655,112.092 187.591,112.093 188.600 M135.585 189.971 C 136.347 190.647,137.142 191.200,137.352 191.200 C 137.562 191.200,137.658 191.148,137.567 191.084 C 137.475 191.020,136.680 190.467,135.800 189.855 L 134.200 188.742 135.585 189.971 M139.600 192.189 C 139.600 192.506,142.500 193.633,142.728 193.405 C 142.841 193.292,142.835 193.200,142.716 193.200 C 142.596 193.200,141.846 192.928,141.049 192.595 C 140.252 192.262,139.600 192.079,139.600 192.189 M117.183 199.900 C 118.358 201.275,119.398 202.400,119.494 202.400 C 119.792 202.400,117.335 199.450,116.162 198.400 C 115.548 197.850,116.007 198.525,117.183 199.900 M155.958 198.437 C 156.925 198.866,157.788 199.145,157.875 199.058 C 158.048 198.886,154.965 197.582,154.492 197.628 C 154.331 197.644,154.991 198.008,155.958 198.437 M166.407 204.743 C 167.689 206.025,169.291 207.947,169.969 209.015 C 170.646 210.083,171.200 210.768,171.200 210.538 C 171.200 209.520,166.297 203.630,164.739 202.776 C 164.375 202.576,165.126 203.462,166.407 204.743 M145.200 212.979 C 145.200 213.089,145.740 213.459,146.400 213.800 C 147.060 214.141,147.600 214.331,147.600 214.221 C 147.600 214.111,147.060 213.741,146.400 213.400 C 145.740 213.059,145.200 212.869,145.200 212.979 M172.272 215.400 C 172.399 216.500,172.569 217.475,172.651 217.567 C 172.932 217.882,172.720 215.399,172.380 214.400 C 172.151 213.726,172.116 214.051,172.272 215.400 M150.091 216.200 C 150.174 216.420,150.568 217.317,150.966 218.194 C 151.489 219.346,151.630 220.344,151.474 221.794 C 151.302 223.394,151.340 223.598,151.662 222.800 C 152.244 221.359,151.843 218.648,150.821 217.119 C 150.337 216.394,150.008 215.980,150.091 216.200 M117.300 219.099 C 120.105 219.168,124.695 219.168,127.500 219.099 C 130.305 219.030,128.010 218.974,122.400 218.974 C 116.790 218.974,114.495 219.030,117.300 219.099 M267.212 220.851 C 267.198 221.603,268.147 222.519,268.537 222.130 C 268.682 221.985,268.797 221.582,268.794 221.233 C 268.789 220.721,268.722 220.704,268.441 221.148 C 268.160 221.590,268.010 221.552,267.659 220.948 C 267.295 220.322,267.222 220.306,267.212 220.851 M172.218 223.018 C 172.065 224.039,172.022 224.955,172.122 225.055 C 172.222 225.155,172.429 224.402,172.582 223.382 C 172.735 222.361,172.778 221.445,172.678 221.345 C 172.578 221.245,172.371 221.998,172.218 223.018 M133.616 222.040 C 133.599 222.739,135.629 225.726,136.474 226.242 C 136.763 226.419,136.478 225.942,135.840 225.182 C 135.202 224.422,134.444 223.260,134.156 222.600 C 133.867 221.940,133.624 221.688,133.616 222.040 M112.068 223.200 C 112.088 224.239,112.718 225.946,112.732 225.000 C 112.738 224.560,112.589 223.840,112.400 223.400 C 112.189 222.910,112.061 222.832,112.068 223.200 M137.200 226.576 C 137.200 227.032,139.636 227.997,140.680 227.954 C 141.694 227.912,141.668 227.882,140.400 227.628 C 139.630 227.474,138.595 227.128,138.100 226.860 C 137.605 226.592,137.200 226.464,137.200 226.576 M144.500 227.876 C 144.885 227.976,145.515 227.976,145.900 227.876 C 146.285 227.775,145.970 227.693,145.200 227.693 C 144.430 227.693,144.115 227.775,144.500 227.876 M226.600 235.537 L 226.600 243.000 204.200 243.205 L 181.800 243.410 204.020 243.505 C 220.876 243.577,226.356 243.484,226.720 243.120 C 227.256 242.584,227.414 229.356,226.894 228.537 C 226.732 228.282,226.600 231.432,226.600 235.537 M115.008 231.216 C 115.354 231.885,116.754 233.564,118.118 234.949 C 120.359 237.222,120.404 237.249,118.583 235.233 C 117.474 234.005,116.154 232.325,115.650 231.500 C 114.551 229.699,114.127 229.511,115.008 231.216 M169.400 231.200 C 169.059 231.860,168.869 232.400,168.979 232.400 C 169.089 232.400,169.459 231.860,169.800 231.200 C 170.141 230.540,170.331 230.000,170.221 230.000 C 170.111 230.000,169.741 230.540,169.400 231.200 M167.051 234.564 C 166.256 235.534,164.659 237.005,163.503 237.833 C 160.991 239.632,160.131 240.432,161.800 239.418 C 164.405 237.835,169.640 232.800,168.682 232.800 C 168.580 232.800,167.846 233.594,167.051 234.564 M121.469 238.032 C 121.966 238.633,124.400 240.164,124.400 239.876 C 124.400 239.783,123.635 239.202,122.700 238.585 C 121.765 237.968,121.211 237.720,121.469 238.032 M158.800 240.800 C 158.030 241.222,157.544 241.574,157.720 241.583 C 158.144 241.605,160.400 240.432,160.400 240.190 C 160.400 239.928,160.377 239.937,158.800 240.800 M131.400 242.800 C 131.840 242.989,132.470 243.144,132.800 243.144 C 133.178 243.144,133.104 243.017,132.600 242.800 C 132.160 242.611,131.530 242.456,131.200 242.456 C 130.822 242.456,130.896 242.583,131.400 242.800 M153.200 242.818 C 152.762 243.115,152.924 243.152,153.800 242.956 C 155.271 242.627,155.590 242.398,154.567 242.406 C 154.145 242.409,153.530 242.595,153.200 242.818 M255.549 242.900 C 256.053 243.543,257.081 243.592,268.149 243.506 L 280.200 243.412 268.234 243.300 C 259.495 243.218,256.096 243.055,255.634 242.694 C 255.074 242.257,255.064 242.281,255.549 242.900 M135.000 243.600 C 135.660 243.768,136.650 243.905,137.200 243.905 C 138.092 243.905,138.070 243.872,137.000 243.600 C 136.340 243.432,135.350 243.295,134.800 243.295 C 133.908 243.295,133.930 243.328,135.000 243.600 M141.113 244.295 C 142.276 244.376,144.076 244.376,145.113 244.293 C 146.151 244.211,145.200 244.145,143.000 244.146 C 140.800 244.147,139.951 244.214,141.113 244.295 " stroke="none" fill="#a6a6af" fill-rule="evenodd"></path><path id="path4" d="M140.505 161.887 C 141.114 161.979,142.014 161.977,142.505 161.882 C 142.997 161.787,142.500 161.711,141.400 161.714 C 140.300 161.717,139.897 161.795,140.505 161.887 M186.500 163.099 C 189.085 163.168,193.315 163.168,195.900 163.099 C 198.485 163.029,196.370 162.972,191.200 162.972 C 186.030 162.972,183.915 163.029,186.500 163.099 M233.100 163.099 C 235.795 163.168,240.205 163.168,242.900 163.099 C 245.595 163.030,243.390 162.973,238.000 162.973 C 232.610 162.973,230.405 163.030,233.100 163.099 M293.323 163.099 C 296.141 163.168,300.641 163.168,303.323 163.099 C 306.005 163.030,303.700 162.973,298.200 162.973 C 292.700 162.974,290.505 163.030,293.323 163.099 M200.991 195.600 C 200.991 213.310,201.040 220.555,201.100 211.700 C 201.160 202.845,201.160 188.355,201.100 179.500 C 201.040 170.645,200.991 177.890,200.991 195.600 M112.101 186.200 C 112.105 187.080,112.187 187.393,112.283 186.895 C 112.379 186.398,112.375 185.678,112.275 185.295 C 112.175 184.913,112.096 185.320,112.101 186.200 M155.700 185.899 C 158.505 185.968,163.095 185.968,165.900 185.899 C 168.705 185.830,166.410 185.774,160.800 185.774 C 155.190 185.774,152.895 185.830,155.700 185.899 M166.200 204.800 C 167.059 205.680,167.852 206.400,167.962 206.400 C 168.072 206.400,167.459 205.680,166.600 204.800 C 165.741 203.920,164.948 203.200,164.838 203.200 C 164.728 203.200,165.341 203.920,166.200 204.800 M172.514 219.400 C 172.517 220.500,172.595 220.903,172.687 220.295 C 172.779 219.686,172.777 218.786,172.682 218.295 C 172.587 217.803,172.511 218.300,172.514 219.400 M226.565 235.800 C 226.566 239.760,226.626 241.326,226.698 239.280 C 226.771 237.234,226.771 233.994,226.698 232.080 C 226.624 230.166,226.565 231.840,226.565 235.800 M165.578 235.900 L 164.200 237.400 165.700 236.022 C 167.096 234.738,167.384 234.400,167.078 234.400 C 167.012 234.400,166.337 235.075,165.578 235.900 " stroke="none" fill="#888c98" fill-rule="evenodd"></path></g></svg>