<svg id="svg" version="1.1" xmlns="http://www.w3.org/2000/svg" xmlns:xlink="http://www.w3.org/1999/xlink" width="400" height="400" viewBox="0, 0, 400,400"><g id="svgg"><path id="path0" d="M119.001 163.255 C 106.718 166.221,100.000 174.247,100.000 185.956 C 100.000 198.133,105.240 203.197,124.456 209.593 C 137.034 213.780,140.315 216.539,139.379 222.145 C 137.871 231.173,121.748 230.361,120.196 221.179 L 119.930 219.600 109.719 219.600 L 99.508 219.600 99.790 221.900 C 101.004 231.814,108.286 239.299,119.800 242.467 C 123.961 243.612,135.995 243.766,139.600 242.720 C 152.853 238.876,159.554 230.555,159.112 218.490 C 158.690 206.991,153.111 201.907,133.740 195.372 C 123.096 191.781,120.005 189.401,120.001 184.794 C 119.995 175.345,134.657 174.454,137.397 183.736 L 137.888 185.400 147.817 185.507 C 159.039 185.628,158.547 185.770,157.977 182.579 C 155.259 167.382,137.785 158.719,119.001 163.255 M169.067 163.467 C 168.920 163.613,168.800 181.523,168.800 203.267 L 168.800 242.800 178.400 242.800 L 188.000 242.800 188.000 228.608 L 188.000 214.415 188.900 214.224 C 189.395 214.119,193.850 213.957,198.800 213.864 C 215.799 213.543,224.993 208.165,228.314 196.600 C 233.071 180.035,224.117 166.500,206.600 163.774 C 202.823 163.187,169.619 162.915,169.067 163.467 M231.424 163.562 C 231.296 163.768,231.707 164.896,232.337 166.068 C 232.966 167.241,235.243 171.620,237.395 175.800 C 239.548 179.980,242.430 185.560,243.799 188.200 C 245.168 190.840,247.958 196.240,249.999 200.200 C 252.039 204.160,254.765 209.406,256.055 211.857 L 258.400 216.315 258.400 229.557 L 258.400 242.800 268.000 242.800 L 277.600 242.800 277.600 229.546 L 277.600 216.291 283.055 205.646 C 286.056 199.791,288.913 194.280,289.404 193.400 C 289.895 192.520,292.322 187.840,294.797 183.000 C 297.272 178.160,300.535 171.844,302.047 168.965 C 303.559 166.085,304.677 163.610,304.531 163.465 C 304.005 162.938,284.128 163.162,283.695 163.700 C 283.349 164.130,280.910 169.344,275.603 181.000 C 273.150 186.387,268.650 196.201,268.582 196.309 C 268.244 196.854,267.174 195.458,266.106 193.081 C 264.770 190.105,264.534 189.592,256.958 173.200 L 252.428 163.400 242.042 163.293 C 235.890 163.230,231.561 163.340,231.424 163.562 M202.698 178.852 C 208.241 180.132,211.166 185.113,209.963 191.226 C 208.726 197.514,205.074 199.343,194.200 199.122 L 188.200 199.000 188.093 189.208 C 188.034 183.822,188.073 179.187,188.180 178.908 C 188.434 178.246,199.884 178.203,202.698 178.852 " stroke="none" fill="#151d2d" fill-rule="evenodd"></path><path id="path1" d="M178.500 0.274 C 176.465 0.360,174.800 0.603,174.800 0.815 C 174.800 1.030,173.383 1.200,171.600 1.200 C 169.733 1.200,168.400 1.367,168.400 1.600 C 168.400 1.820,167.500 2.000,166.400 2.000 C 165.300 2.000,164.400 2.180,164.400 2.400 C 164.400 2.622,163.333 2.800,162.000 2.800 C 160.667 2.800,159.600 2.978,159.600 3.200 C 159.600 3.420,158.801 3.600,157.824 3.600 C 156.847 3.600,155.936 3.780,155.800 4.000 C 155.664 4.220,154.843 4.400,153.976 4.400 C 153.109 4.400,152.400 4.580,152.400 4.800 C 152.400 5.020,151.680 5.200,150.800 5.200 C 149.920 5.200,149.200 5.380,149.200 5.600 C 149.200 5.820,148.581 6.000,147.824 6.000 C 147.067 6.000,146.336 6.180,146.200 6.400 C 146.064 6.620,145.423 6.800,144.776 6.800 C 144.129 6.800,143.600 6.980,143.600 7.200 C 143.600 7.420,142.880 7.600,142.000 7.600 C 141.120 7.600,140.400 7.780,140.400 8.000 C 140.400 8.220,139.860 8.400,139.200 8.400 C 138.540 8.400,138.000 8.580,138.000 8.800 C 138.000 9.020,137.460 9.200,136.800 9.200 C 136.140 9.200,135.600 9.380,135.600 9.600 C 135.600 9.820,135.060 10.000,134.400 10.000 C 133.740 10.000,133.200 10.180,133.200 10.400 C 133.200 10.620,132.660 10.800,132.000 10.800 C 131.340 10.800,130.800 10.980,130.800 11.200 C 130.800 11.420,130.440 11.600,130.000 11.600 C 129.560 11.600,129.200 11.780,129.200 12.000 C 129.200 12.220,128.660 12.400,128.000 12.400 C 127.340 12.400,126.800 12.580,126.800 12.800 C 126.800 13.020,126.440 13.200,126.000 13.200 C 125.560 13.200,125.200 13.380,125.200 13.600 C 125.200 13.820,124.660 14.000,124.000 14.000 C 123.340 14.000,122.800 14.180,122.800 14.400 C 122.800 14.620,122.440 14.800,122.000 14.800 C 121.560 14.800,121.200 14.980,121.200 15.200 C 121.200 15.420,120.761 15.600,120.224 15.600 C 119.687 15.600,119.136 15.780,119.000 16.000 C 118.864 16.220,118.403 16.400,117.976 16.400 C 117.549 16.400,117.200 16.580,117.200 16.800 C 117.200 17.020,116.840 17.200,116.400 17.200 C 115.960 17.200,115.600 17.380,115.600 17.600 C 115.600 17.820,115.240 18.000,114.800 18.000 C 114.360 18.000,114.000 18.180,114.000 18.400 C 114.000 18.620,113.640 18.800,113.200 18.800 C 112.760 18.800,112.400 18.980,112.400 19.200 C 112.400 19.420,112.040 19.600,111.600 19.600 C 111.160 19.600,110.800 19.780,110.800 20.000 C 110.800 20.220,110.440 20.400,110.000 20.400 C 109.560 20.400,109.200 20.580,109.200 20.800 C 109.200 21.020,108.840 21.200,108.400 21.200 C 107.960 21.200,107.600 21.380,107.600 21.600 C 107.600 21.820,107.240 22.000,106.800 22.000 C 106.360 22.000,106.000 22.180,106.000 22.400 C 106.000 22.620,105.640 22.800,105.200 22.800 C 104.760 22.800,104.400 22.980,104.400 23.200 C 104.400 23.420,104.040 23.600,103.600 23.600 C 103.160 23.600,102.800 23.780,102.800 24.000 C 102.800 24.220,102.480 24.400,102.088 24.400 C 101.697 24.400,101.117 24.760,100.800 25.200 C 100.483 25.640,99.903 26.000,99.512 26.000 C 99.120 26.000,98.800 26.180,98.800 26.400 C 98.800 26.620,98.440 26.800,98.000 26.800 C 97.560 26.800,97.200 26.980,97.200 27.200 C 97.200 27.420,96.964 27.600,96.675 27.600 C 96.387 27.600,95.764 27.960,95.292 28.400 C 94.820 28.840,94.196 29.200,93.905 29.200 C 93.614 29.200,93.117 29.560,92.800 30.000 C 92.483 30.440,91.943 30.800,91.600 30.800 C 91.257 30.800,90.717 31.160,90.400 31.600 C 90.083 32.040,89.503 32.400,89.112 32.400 C 88.720 32.400,88.400 32.580,88.400 32.800 C 88.400 33.020,88.157 33.200,87.859 33.200 C 87.562 33.200,86.754 33.740,86.063 34.400 C 85.372 35.060,84.575 35.600,84.292 35.600 C 84.009 35.600,83.517 35.960,83.200 36.400 C 82.883 36.840,82.420 37.200,82.171 37.200 C 81.922 37.200,81.154 37.740,80.463 38.400 C 79.772 39.060,79.047 39.600,78.852 39.600 C 78.656 39.600,77.755 40.320,76.848 41.200 C 75.941 42.080,75.005 42.800,74.768 42.800 C 74.531 42.800,73.646 43.520,72.800 44.400 C 71.954 45.280,71.082 46.000,70.862 46.000 C 70.642 46.000,69.186 47.260,67.628 48.800 C 66.069 50.340,64.626 51.600,64.419 51.600 C 63.930 51.600,51.600 63.930,51.600 64.419 C 51.600 64.626,50.340 66.069,48.800 67.628 C 47.260 69.186,46.000 70.642,46.000 70.862 C 46.000 71.082,45.280 71.954,44.400 72.800 C 43.520 73.646,42.800 74.531,42.800 74.768 C 42.800 75.005,42.080 75.941,41.200 76.848 C 40.320 77.755,39.600 78.656,39.600 78.852 C 39.600 79.047,39.060 79.772,38.400 80.463 C 37.740 81.154,37.200 81.922,37.200 82.171 C 37.200 82.420,36.840 82.883,36.400 83.200 C 35.960 83.517,35.600 84.009,35.600 84.292 C 35.600 84.575,35.060 85.372,34.400 86.063 C 33.740 86.754,33.200 87.562,33.200 87.859 C 33.200 88.157,33.020 88.400,32.800 88.400 C 32.580 88.400,32.400 88.720,32.400 89.112 C 32.400 89.503,32.040 90.083,31.600 90.400 C 31.160 90.717,30.800 91.257,30.800 91.600 C 30.800 91.943,30.440 92.483,30.000 92.800 C 29.560 93.117,29.200 93.614,29.200 93.905 C 29.200 94.196,28.840 94.820,28.400 95.292 C 27.960 95.764,27.600 96.387,27.600 96.675 C 27.600 96.964,27.420 97.200,27.200 97.200 C 26.980 97.200,26.800 97.560,26.800 98.000 C 26.800 98.440,26.620 98.800,26.400 98.800 C 26.180 98.800,26.000 99.120,26.000 99.512 C 26.000 99.903,25.640 100.483,25.200 100.800 C 24.760 101.117,24.400 101.697,24.400 102.088 C 24.400 102.480,24.220 102.800,24.000 102.800 C 23.780 102.800,23.600 103.160,23.600 103.600 C 23.600 104.040,23.420 104.400,23.200 104.400 C 22.980 104.400,22.800 104.760,22.800 105.200 C 22.800 105.640,22.620 106.000,22.400 106.000 C 22.180 106.000,22.000 106.360,22.000 106.800 C 22.000 107.240,21.820 107.600,21.600 107.600 C 21.380 107.600,21.200 107.960,21.200 108.400 C 21.200 108.840,21.020 109.200,20.800 109.200 C 20.580 109.200,20.400 109.560,20.400 110.000 C 20.400 110.440,20.220 110.800,20.000 110.800 C 19.780 110.800,19.600 111.160,19.600 111.600 C 19.600 112.040,19.420 112.400,19.200 112.400 C 18.980 112.400,18.800 112.760,18.800 113.200 C 18.800 113.640,18.620 114.000,18.400 114.000 C 18.180 114.000,18.000 114.360,18.000 114.800 C 18.000 115.240,17.820 115.600,17.600 115.600 C 17.380 115.600,17.200 115.960,17.200 116.400 C 17.200 116.840,17.020 117.200,16.800 117.200 C 16.580 117.200,16.400 117.549,16.400 117.976 C 16.400 118.403,16.220 118.864,16.000 119.000 C 15.780 119.136,15.600 119.687,15.600 120.224 C 15.600 120.761,15.420 121.200,15.200 121.200 C 14.980 121.200,14.800 121.560,14.800 122.000 C 14.800 122.440,14.620 122.800,14.400 122.800 C 14.180 122.800,14.000 123.340,14.000 124.000 C 14.000 124.660,13.820 125.200,13.600 125.200 C 13.380 125.200,13.200 125.560,13.200 126.000 C 13.200 126.440,13.020 126.800,12.800 126.800 C 12.580 126.800,12.400 127.340,12.400 128.000 C 12.400 128.660,12.220 129.200,12.000 129.200 C 11.780 129.200,11.600 129.560,11.600 130.000 C 11.600 130.440,11.420 130.800,11.200 130.800 C 10.980 130.800,10.800 131.340,10.800 132.000 C 10.800 132.660,10.620 133.200,10.400 133.200 C 10.180 133.200,10.000 133.740,10.000 134.400 C 10.000 135.060,9.820 135.600,9.600 135.600 C 9.380 135.600,9.200 136.140,9.200 136.800 C 9.200 137.460,9.020 138.000,8.800 138.000 C 8.580 138.000,8.400 138.540,8.400 139.200 C 8.400 139.860,8.220 140.400,8.000 140.400 C 7.780 140.400,7.600 141.120,7.600 142.000 C 7.600 142.880,7.420 143.600,7.200 143.600 C 6.980 143.600,6.800 144.129,6.800 144.776 C 6.800 145.423,6.620 146.064,6.400 146.200 C 6.180 146.336,6.000 147.067,6.000 147.824 C 6.000 148.581,5.820 149.200,5.600 149.200 C 5.380 149.200,5.200 149.920,5.200 150.800 C 5.200 151.680,5.020 152.400,4.800 152.400 C 4.580 152.400,4.400 153.109,4.400 153.976 C 4.400 154.843,4.220 155.664,4.000 155.800 C 3.780 155.936,3.600 156.847,3.600 157.824 C 3.600 158.801,3.420 159.600,3.200 159.600 C 2.978 159.600,2.800 160.667,2.800 162.000 C 2.800 163.333,2.622 164.400,2.400 164.400 C 2.180 164.400,2.000 165.300,2.000 166.400 C 2.000 167.500,1.820 168.400,1.600 168.400 C 1.367 168.400,1.200 169.722,1.200 171.567 C 1.200 173.744,1.044 174.785,0.700 174.900 C -0.032 175.144,-0.032 224.856,0.700 225.100 C 1.044 225.215,1.200 226.256,1.200 228.433 C 1.200 230.278,1.367 231.600,1.600 231.600 C 1.820 231.600,2.000 232.500,2.000 233.600 C 2.000 234.700,2.180 235.600,2.400 235.600 C 2.622 235.600,2.800 236.667,2.800 238.000 C 2.800 239.333,2.978 240.400,3.200 240.400 C 3.420 240.400,3.600 241.199,3.600 242.176 C 3.600 243.153,3.780 244.064,4.000 244.200 C 4.220 244.336,4.400 245.157,4.400 246.024 C 4.400 246.891,4.580 247.600,4.800 247.600 C 5.020 247.600,5.200 248.320,5.200 249.200 C 5.200 250.080,5.380 250.800,5.600 250.800 C 5.820 250.800,6.000 251.419,6.000 252.176 C 6.000 252.933,6.180 253.664,6.400 253.800 C 6.620 253.936,6.800 254.577,6.800 255.224 C 6.800 255.871,6.980 256.400,7.200 256.400 C 7.420 256.400,7.600 257.120,7.600 258.000 C 7.600 258.880,7.780 259.600,8.000 259.600 C 8.220 259.600,8.400 260.140,8.400 260.800 C 8.400 261.460,8.580 262.000,8.800 262.000 C 9.020 262.000,9.200 262.540,9.200 263.200 C 9.200 263.860,9.380 264.400,9.600 264.400 C 9.820 264.400,10.000 264.940,10.000 265.600 C 10.000 266.260,10.180 266.800,10.400 266.800 C 10.620 266.800,10.800 267.340,10.800 268.000 C 10.800 268.660,10.980 269.200,11.200 269.200 C 11.420 269.200,11.600 269.560,11.600 270.000 C 11.600 270.440,11.780 270.800,12.000 270.800 C 12.220 270.800,12.400 271.340,12.400 272.000 C 12.400 272.660,12.580 273.200,12.800 273.200 C 13.020 273.200,13.200 273.560,13.200 274.000 C 13.200 274.440,13.380 274.800,13.600 274.800 C 13.820 274.800,14.000 275.340,14.000 276.000 C 14.000 276.660,14.180 277.200,14.400 277.200 C 14.620 277.200,14.800 277.560,14.800 278.000 C 14.800 278.440,14.980 278.800,15.200 278.800 C 15.420 278.800,15.600 279.239,15.600 279.776 C 15.600 280.313,15.780 280.864,16.000 281.000 C 16.220 281.136,16.400 281.597,16.400 282.024 C 16.400 282.451,16.580 282.800,16.800 282.800 C 17.020 282.800,17.200 283.160,17.200 283.600 C 17.200 284.040,17.380 284.400,17.600 284.400 C 17.820 284.400,18.000 284.760,18.000 285.200 C 18.000 285.640,18.180 286.000,18.400 286.000 C 18.620 286.000,18.800 286.360,18.800 286.800 C 18.800 287.240,18.980 287.600,19.200 287.600 C 19.420 287.600,19.600 287.960,19.600 288.400 C 19.600 288.840,19.780 289.200,20.000 289.200 C 20.220 289.200,20.400 289.560,20.400 290.000 C 20.400 290.440,20.580 290.800,20.800 290.800 C 21.020 290.800,21.200 291.160,21.200 291.600 C 21.200 292.040,21.380 292.400,21.600 292.400 C 21.820 292.400,22.000 292.760,22.000 293.200 C 22.000 293.640,22.180 294.000,22.400 294.000 C 22.620 294.000,22.800 294.360,22.800 294.800 C 22.800 295.240,22.980 295.600,23.200 295.600 C 23.420 295.600,23.600 295.960,23.600 296.400 C 23.600 296.840,23.780 297.200,24.000 297.200 C 24.220 297.200,24.400 297.520,24.400 297.912 C 24.400 298.303,24.760 298.883,25.200 299.200 C 25.640 299.517,26.000 300.097,26.000 300.488 C 26.000 300.880,26.180 301.200,26.400 301.200 C 26.620 301.200,26.800 301.560,26.800 302.000 C 26.800 302.440,26.980 302.800,27.200 302.800 C 27.420 302.800,27.600 303.036,27.600 303.325 C 27.600 303.613,27.960 304.236,28.400 304.708 C 28.840 305.180,29.200 305.804,29.200 306.095 C 29.200 306.386,29.560 306.883,30.000 307.200 C 30.440 307.517,30.800 308.057,30.800 308.400 C 30.800 308.743,31.160 309.283,31.600 309.600 C 32.040 309.917,32.400 310.497,32.400 310.888 C 32.400 311.280,32.580 311.600,32.800 311.600 C 33.020 311.600,33.200 311.843,33.200 312.141 C 33.200 312.438,33.740 313.246,34.400 313.937 C 35.060 314.628,35.600 315.425,35.600 315.708 C 35.600 315.991,35.960 316.483,36.400 316.800 C 36.840 317.117,37.200 317.580,37.200 317.829 C 37.200 318.078,37.740 318.846,38.400 319.537 C 39.060 320.228,39.600 320.953,39.600 321.148 C 39.600 321.344,40.320 322.245,41.200 323.152 C 42.080 324.059,42.800 324.995,42.800 325.232 C 42.800 325.469,43.520 326.354,44.400 327.200 C 45.280 328.046,46.000 328.918,46.000 329.138 C 46.000 329.358,47.260 330.814,48.800 332.372 C 50.340 333.931,51.600 335.374,51.600 335.581 C 51.600 336.070,63.930 348.400,64.419 348.400 C 64.626 348.400,66.069 349.660,67.628 351.200 C 69.186 352.740,70.642 354.000,70.862 354.000 C 71.082 354.000,71.954 354.720,72.800 355.600 C 73.646 356.480,74.531 357.200,74.768 357.200 C 75.005 357.200,75.941 357.920,76.848 358.800 C 77.755 359.680,78.656 360.400,78.852 360.400 C 79.047 360.400,79.772 360.940,80.463 361.600 C 81.154 362.260,81.922 362.800,82.171 362.800 C 82.420 362.800,82.883 363.160,83.200 363.600 C 83.517 364.040,84.009 364.400,84.292 364.400 C 84.575 364.400,85.372 364.940,86.063 365.600 C 86.754 366.260,87.562 366.800,87.859 366.800 C 88.157 366.800,88.400 366.980,88.400 367.200 C 88.400 367.420,88.720 367.600,89.112 367.600 C 89.503 367.600,90.083 367.960,90.400 368.400 C 90.717 368.840,91.257 369.200,91.600 369.200 C 91.943 369.200,92.483 369.560,92.800 370.000 C 93.117 370.440,93.614 370.800,93.905 370.800 C 94.196 370.800,94.820 371.160,95.292 371.600 C 95.764 372.040,96.387 372.400,96.675 372.400 C 96.964 372.400,97.200 372.580,97.200 372.800 C 97.200 373.020,97.560 373.200,98.000 373.200 C 98.440 373.200,98.800 373.380,98.800 373.600 C 98.800 373.820,99.120 374.000,99.512 374.000 C 99.903 374.000,100.483 374.360,100.800 374.800 C 101.117 375.240,101.697 375.600,102.088 375.600 C 102.480 375.600,102.800 375.780,102.800 376.000 C 102.800 376.220,103.160 376.400,103.600 376.400 C 104.040 376.400,104.400 376.580,104.400 376.800 C 104.400 377.020,104.760 377.200,105.200 377.200 C 105.640 377.200,106.000 377.380,106.000 377.600 C 106.000 377.820,106.360 378.000,106.800 378.000 C 107.240 378.000,107.600 378.180,107.600 378.400 C 107.600 378.620,107.960 378.800,108.400 378.800 C 108.840 378.800,109.200 378.980,109.200 379.200 C 109.200 379.420,109.560 379.600,110.000 379.600 C 110.440 379.600,110.800 379.780,110.800 380.000 C 110.800 380.220,111.160 380.400,111.600 380.400 C 112.040 380.400,112.400 380.580,112.400 380.800 C 112.400 381.020,112.760 381.200,113.200 381.200 C 113.640 381.200,114.000 381.380,114.000 381.600 C 114.000 381.820,114.360 382.000,114.800 382.000 C 115.240 382.000,115.600 382.180,115.600 382.400 C 115.600 382.620,115.960 382.800,116.400 382.800 C 116.840 382.800,117.200 382.980,117.200 383.200 C 117.200 383.420,117.549 383.600,117.976 383.600 C 118.403 383.600,118.864 383.780,119.000 384.000 C 119.136 384.220,119.687 384.400,120.224 384.400 C 120.761 384.400,121.200 384.580,121.200 384.800 C 121.200 385.020,121.560 385.200,122.000 385.200 C 122.440 385.200,122.800 385.380,122.800 385.600 C 122.800 385.820,123.340 386.000,124.000 386.000 C 124.660 386.000,125.200 386.180,125.200 386.400 C 125.200 386.620,125.560 386.800,126.000 386.800 C 126.440 386.800,126.800 386.980,126.800 387.200 C 126.800 387.420,127.340 387.600,128.000 387.600 C 128.660 387.600,129.200 387.780,129.200 388.000 C 129.200 388.220,129.560 388.400,130.000 388.400 C 130.440 388.400,130.800 388.580,130.800 388.800 C 130.800 389.020,131.340 389.200,132.000 389.200 C 132.660 389.200,133.200 389.380,133.200 389.600 C 133.200 389.820,133.740 390.000,134.400 390.000 C 135.060 390.000,135.600 390.180,135.600 390.400 C 135.600 390.620,136.140 390.800,136.800 390.800 C 137.460 390.800,138.000 390.980,138.000 391.200 C 138.000 391.420,138.540 391.600,139.200 391.600 C 139.860 391.600,140.400 391.780,140.400 392.000 C 140.400 392.220,141.120 392.400,142.000 392.400 C 142.880 392.400,143.600 392.580,143.600 392.800 C 143.600 393.020,144.129 393.200,144.776 393.200 C 145.423 393.200,146.064 393.380,146.200 393.600 C 146.336 393.820,147.067 394.000,147.824 394.000 C 148.581 394.000,149.200 394.180,149.200 394.400 C 149.200 394.620,149.920 394.800,150.800 394.800 C 151.680 394.800,152.400 394.980,152.400 395.200 C 152.400 395.420,153.109 395.600,153.976 395.600 C 154.843 395.600,155.664 395.780,155.800 396.000 C 155.936 396.220,156.847 396.400,157.824 396.400 C 158.801 396.400,159.600 396.580,159.600 396.800 C 159.600 397.022,160.667 397.200,162.000 397.200 C 163.333 397.200,164.400 397.378,164.400 397.600 C 164.400 397.820,165.300 398.000,166.400 398.000 C 167.500 398.000,168.400 398.180,168.400 398.400 C 168.400 398.633,169.722 398.800,171.567 398.800 C 173.744 398.800,174.785 398.956,174.900 399.300 C 175.144 400.032,224.856 400.032,225.100 399.300 C 225.215 398.956,226.256 398.800,228.433 398.800 C 230.278 398.800,231.600 398.633,231.600 398.400 C 231.600 398.180,232.500 398.000,233.600 398.000 C 234.700 398.000,235.600 397.820,235.600 397.600 C 235.600 397.378,236.667 397.200,238.000 397.200 C 239.333 397.200,240.400 397.022,240.400 396.800 C 240.400 396.580,241.199 396.400,242.176 396.400 C 243.153 396.400,244.064 396.220,244.200 396.000 C 244.336 395.780,245.157 395.600,246.024 395.600 C 246.891 395.600,247.600 395.420,247.600 395.200 C 247.600 394.980,248.320 394.800,249.200 394.800 C 250.080 394.800,250.800 394.620,250.800 394.400 C 250.800 394.180,251.419 394.000,252.176 394.000 C 252.933 394.000,253.664 393.820,253.800 393.600 C 253.936 393.380,254.577 393.200,255.224 393.200 C 255.871 393.200,256.400 393.020,256.400 392.800 C 256.400 392.580,257.120 392.400,258.000 392.400 C 258.880 392.400,259.600 392.220,259.600 392.000 C 259.600 391.780,260.140 391.600,260.800 391.600 C 261.460 391.600,262.000 391.420,262.000 391.200 C 262.000 390.980,262.540 390.800,263.200 390.800 C 263.860 390.800,264.400 390.620,264.400 390.400 C 264.400 390.180,264.940 390.000,265.600 390.000 C 266.260 390.000,266.800 389.820,266.800 389.600 C 266.800 389.380,267.340 389.200,268.000 389.200 C 268.660 389.200,269.200 389.020,269.200 388.800 C 269.200 388.580,269.560 388.400,270.000 388.400 C 270.440 388.400,270.800 388.220,270.800 388.000 C 270.800 387.780,271.340 387.600,272.000 387.600 C 272.660 387.600,273.200 387.420,273.200 387.200 C 273.200 386.980,273.560 386.800,274.000 386.800 C 274.440 386.800,274.800 386.620,274.800 386.400 C 274.800 386.180,275.340 386.000,276.000 386.000 C 276.660 386.000,277.200 385.820,277.200 385.600 C 277.200 385.380,277.560 385.200,278.000 385.200 C 278.440 385.200,278.800 385.020,278.800 384.800 C 278.800 384.580,279.239 384.400,279.776 384.400 C 280.313 384.400,280.864 384.220,281.000 384.000 C 281.136 383.780,281.597 383.600,282.024 383.600 C 282.451 383.600,282.800 383.420,282.800 383.200 C 282.800 382.980,283.160 382.800,283.600 382.800 C 284.040 382.800,284.400 382.620,284.400 382.400 C 284.400 382.180,284.760 382.000,285.200 382.000 C 285.640 382.000,286.000 381.820,286.000 381.600 C 286.000 381.380,286.360 381.200,286.800 381.200 C 287.240 381.200,287.600 381.020,287.600 380.800 C 287.600 380.580,287.960 380.400,288.400 380.400 C 288.840 380.400,289.200 380.220,289.200 380.000 C 289.200 379.780,289.560 379.600,290.000 379.600 C 290.440 379.600,290.800 379.420,290.800 379.200 C 290.800 378.980,291.160 378.800,291.600 378.800 C 292.040 378.800,292.400 378.620,292.400 378.400 C 292.400 378.180,292.760 378.000,293.200 378.000 C 293.640 378.000,294.000 377.820,294.000 377.600 C 294.000 377.380,294.360 377.200,294.800 377.200 C 295.240 377.200,295.600 377.020,295.600 376.800 C 295.600 376.580,295.960 376.400,296.400 376.400 C 296.840 376.400,297.200 376.220,297.200 376.000 C 297.200 375.780,297.520 375.600,297.912 375.600 C 298.303 375.600,298.883 375.240,299.200 374.800 C 299.517 374.360,300.097 374.000,300.488 374.000 C 300.880 374.000,301.200 373.820,301.200 373.600 C 301.200 373.380,301.560 373.200,302.000 373.200 C 302.440 373.200,302.800 373.020,302.800 372.800 C 302.800 372.580,303.036 372.400,303.325 372.400 C 303.613 372.400,304.236 372.040,304.708 371.600 C 305.180 371.160,305.804 370.800,306.095 370.800 C 306.386 370.800,306.883 370.440,307.200 370.000 C 307.517 369.560,308.057 369.200,308.400 369.200 C 308.743 369.200,309.283 368.840,309.600 368.400 C 309.917 367.960,310.497 367.600,310.888 367.600 C 311.280 367.600,311.600 367.420,311.600 367.200 C 311.600 366.980,311.843 366.800,312.141 366.800 C 312.438 366.800,313.246 366.260,313.937 365.600 C 314.628 364.940,315.425 364.400,315.708 364.400 C 315.991 364.400,316.483 364.040,316.800 363.600 C 317.117 363.160,317.580 362.800,317.829 362.800 C 318.078 362.800,318.846 362.260,319.537 361.600 C 320.228 360.940,320.953 360.400,321.148 360.400 C 321.344 360.400,322.245 359.680,323.152 358.800 C 324.059 357.920,324.995 357.200,325.232 357.200 C 325.469 357.200,326.354 356.480,327.200 355.600 C 328.046 354.720,328.918 354.000,329.138 354.000 C 329.358 354.000,330.814 352.740,332.372 351.200 C 333.931 349.660,335.374 348.400,335.581 348.400 C 336.070 348.400,348.400 336.070,348.400 335.581 C 348.400 335.374,349.660 333.931,351.200 332.372 C 352.740 330.814,354.000 329.358,354.000 329.138 C 354.000 328.918,354.720 328.046,355.600 327.200 C 356.480 326.354,357.200 325.469,357.200 325.232 C 357.200 324.995,357.920 324.059,358.800 323.152 C 359.680 322.245,360.400 321.344,360.400 321.148 C 360.400 320.953,360.940 320.228,361.600 319.537 C 362.260 318.846,362.800 318.078,362.800 317.829 C 362.800 317.580,363.160 317.117,363.600 316.800 C 364.040 316.483,364.400 315.991,364.400 315.708 C 364.400 315.425,364.940 314.628,365.600 313.937 C 366.260 313.246,366.800 312.438,366.800 312.141 C 366.800 311.843,366.980 311.600,367.200 311.600 C 367.420 311.600,367.600 311.280,367.600 310.888 C 367.600 310.497,367.960 309.917,368.400 309.600 C 368.840 309.283,369.200 308.743,369.200 308.400 C 369.200 308.057,369.560 307.517,370.000 307.200 C 370.440 306.883,370.800 306.386,370.800 306.095 C 370.800 305.804,371.160 305.180,371.600 304.708 C 372.040 304.236,372.400 303.613,372.400 303.325 C 372.400 303.036,372.580 302.800,372.800 302.800 C 373.020 302.800,373.200 302.440,373.200 302.000 C 373.200 301.560,373.380 301.200,373.600 301.200 C 373.820 301.200,374.000 300.880,374.000 300.488 C 374.000 300.097,374.360 299.517,374.800 299.200 C 375.240 298.883,375.600 298.303,375.600 297.912 C 375.600 297.520,375.780 297.200,376.000 297.200 C 376.220 297.200,376.400 296.840,376.400 296.400 C 376.400 295.960,376.580 295.600,376.800 295.600 C 377.020 295.600,377.200 295.240,377.200 294.800 C 377.200 294.360,377.380 294.000,377.600 294.000 C 377.820 294.000,378.000 293.640,378.000 293.200 C 378.000 292.760,378.180 292.400,378.400 292.400 C 378.620 292.400,378.800 292.040,378.800 291.600 C 378.800 291.160,378.980 290.800,379.200 290.800 C 379.420 290.800,379.600 290.440,379.600 290.000 C 379.600 289.560,379.780 289.200,380.000 289.200 C 380.220 289.200,380.400 288.840,380.400 288.400 C 380.400 287.960,380.580 287.600,380.800 287.600 C 381.020 287.600,381.200 287.240,381.200 286.800 C 381.200 286.360,381.380 286.000,381.600 286.000 C 381.820 286.000,382.000 285.640,382.000 285.200 C 382.000 284.760,382.180 284.400,382.400 284.400 C 382.620 284.400,382.800 284.040,382.800 283.600 C 382.800 283.160,382.980 282.800,383.200 282.800 C 383.420 282.800,383.600 282.451,383.600 282.024 C 383.600 281.597,383.780 281.136,384.000 281.000 C 384.220 280.864,384.400 280.313,384.400 279.776 C 384.400 279.239,384.580 278.800,384.800 278.800 C 385.020 278.800,385.200 278.440,385.200 278.000 C 385.200 277.560,385.380 277.200,385.600 277.200 C 385.820 277.200,386.000 276.660,386.000 276.000 C 386.000 275.340,386.180 274.800,386.400 274.800 C 386.620 274.800,386.800 274.440,386.800 274.000 C 386.800 273.560,386.980 273.200,387.200 273.200 C 387.420 273.200,387.600 272.660,387.600 272.000 C 387.600 271.340,387.780 270.800,388.000 270.800 C 388.220 270.800,388.400 270.440,388.400 270.000 C 388.400 269.560,388.580 269.200,388.800 269.200 C 389.020 269.200,389.200 268.660,389.200 268.000 C 389.200 267.340,389.380 266.800,389.600 266.800 C 389.820 266.800,390.000 266.260,390.000 265.600 C 390.000 264.940,390.180 264.400,390.400 264.400 C 390.620 264.400,390.800 263.860,390.800 263.200 C 390.800 262.540,390.980 262.000,391.200 262.000 C 391.420 262.000,391.600 261.460,391.600 260.800 C 391.600 260.140,391.780 259.600,392.000 259.600 C 392.220 259.600,392.400 258.880,392.400 258.000 C 392.400 257.120,392.580 256.400,392.800 256.400 C 393.020 256.400,393.200 255.871,393.200 255.224 C 393.200 254.577,393.380 253.936,393.600 253.800 C 393.820 253.664,394.000 252.933,394.000 252.176 C 394.000 251.419,394.180 250.800,394.400 250.800 C 394.620 250.800,394.800 250.080,394.800 249.200 C 394.800 248.320,394.980 247.600,395.200 247.600 C 395.420 247.600,395.600 246.891,395.600 246.024 C 395.600 245.157,395.780 244.336,396.000 244.200 C 396.220 244.064,396.400 243.153,396.400 242.176 C 396.400 241.199,396.580 240.400,396.800 240.400 C 397.022 240.400,397.200 239.333,397.200 238.000 C 397.200 236.667,397.378 235.600,397.600 235.600 C 397.820 235.600,398.000 234.700,398.000 233.600 C 398.000 232.500,398.180 231.600,398.400 231.600 C 398.633 231.600,398.800 230.278,398.800 228.433 C 398.800 226.256,398.956 225.215,399.300 225.100 C 399.693 224.969,399.800 219.591,399.800 200.000 C 399.800 180.409,399.693 175.031,399.300 174.900 C 398.956 174.785,398.800 173.744,398.800 171.567 C 398.800 169.722,398.633 168.400,398.400 168.400 C 398.180 168.400,398.000 167.500,398.000 166.400 C 398.000 165.300,397.820 164.400,397.600 164.400 C 397.378 164.400,397.200 163.333,397.200 162.000 C 397.200 160.667,397.022 159.600,396.800 159.600 C 396.580 159.600,396.400 158.801,396.400 157.824 C 396.400 156.847,396.220 155.936,396.000 155.800 C 395.780 155.664,395.600 154.843,395.600 153.976 C 395.600 153.109,395.420 152.400,395.200 152.400 C 394.980 152.400,394.800 151.680,394.800 150.800 C 394.800 149.920,394.620 149.200,394.400 149.200 C 394.180 149.200,394.000 148.581,394.000 147.824 C 394.000 147.067,393.820 146.336,393.600 146.200 C 393.380 146.064,393.200 145.423,393.200 144.776 C 393.200 144.129,393.020 143.600,392.800 143.600 C 392.580 143.600,392.400 142.880,392.400 142.000 C 392.400 141.120,392.220 140.400,392.000 140.400 C 391.780 140.400,391.600 139.860,391.600 139.200 C 391.600 138.540,391.420 138.000,391.200 138.000 C 390.980 138.000,390.800 137.460,390.800 136.800 C 390.800 136.140,390.620 135.600,390.400 135.600 C 390.180 135.600,390.000 135.060,390.000 134.400 C 390.000 133.740,389.820 133.200,389.600 133.200 C 389.380 133.200,389.200 132.660,389.200 132.000 C 389.200 131.340,389.020 130.800,388.800 130.800 C 388.580 130.800,388.400 130.440,388.400 130.000 C 388.400 129.560,388.220 129.200,388.000 129.200 C 387.780 129.200,387.600 128.660,387.600 128.000 C 387.600 127.340,387.420 126.800,387.200 126.800 C 386.980 126.800,386.800 126.440,386.800 126.000 C 386.800 125.560,386.620 125.200,386.400 125.200 C 386.180 125.200,386.000 124.660,386.000 124.000 C 386.000 123.340,385.820 122.800,385.600 122.800 C 385.380 122.800,385.200 122.440,385.200 122.000 C 385.200 121.560,385.020 121.200,384.800 121.200 C 384.580 121.200,384.400 120.761,384.400 120.224 C 384.400 119.687,384.220 119.136,384.000 119.000 C 383.780 118.864,383.600 118.403,383.600 117.976 C 383.600 117.549,383.420 117.200,383.200 117.200 C 382.980 117.200,382.800 116.840,382.800 116.400 C 382.800 115.960,382.620 115.600,382.400 115.600 C 382.180 115.600,382.000 115.240,382.000 114.800 C 382.000 114.360,381.820 114.000,381.600 114.000 C 381.380 114.000,381.200 113.640,381.200 113.200 C 381.200 112.760,381.020 112.400,380.800 112.400 C 380.580 112.400,380.400 112.040,380.400 111.600 C 380.400 111.160,380.220 110.800,380.000 110.800 C 379.780 110.800,379.600 110.440,379.600 110.000 C 379.600 109.560,379.420 109.200,379.200 109.200 C 378.980 109.200,378.800 108.840,378.800 108.400 C 378.800 107.960,378.620 107.600,378.400 107.600 C 378.180 107.600,378.000 107.240,378.000 106.800 C 378.000 106.360,377.820 106.000,377.600 106.000 C 377.380 106.000,377.200 105.640,377.200 105.200 C 377.200 104.760,377.020 104.400,376.800 104.400 C 376.580 104.400,376.400 104.040,376.400 103.600 C 376.400 103.160,376.220 102.800,376.000 102.800 C 375.780 102.800,375.600 102.480,375.600 102.088 C 375.600 101.697,375.240 101.117,374.800 100.800 C 374.360 100.483,374.000 99.903,374.000 99.512 C 374.000 99.120,373.820 98.800,373.600 98.800 C 373.380 98.800,373.200 98.440,373.200 98.000 C 373.200 97.560,373.020 97.200,372.800 97.200 C 372.580 97.200,372.400 96.964,372.400 96.675 C 372.400 96.387,372.040 95.764,371.600 95.292 C 371.160 94.820,370.800 94.196,370.800 93.905 C 370.800 93.614,370.440 93.117,370.000 92.800 C 369.560 92.483,369.200 91.943,369.200 91.600 C 369.200 91.257,368.840 90.717,368.400 90.400 C 367.960 90.083,367.600 89.503,367.600 89.112 C 367.600 88.720,367.420 88.400,367.200 88.400 C 366.980 88.400,366.800 88.157,366.800 87.859 C 366.800 87.562,366.260 86.754,365.600 86.063 C 364.940 85.372,364.400 84.575,364.400 84.292 C 364.400 84.009,364.040 83.517,363.600 83.200 C 363.160 82.883,362.800 82.420,362.800 82.171 C 362.800 81.922,362.260 81.154,361.600 80.463 C 360.940 79.772,360.400 79.047,360.400 78.852 C 360.400 78.656,359.680 77.755,358.800 76.848 C 357.920 75.941,357.200 75.005,357.200 74.768 C 357.200 74.531,356.480 73.646,355.600 72.800 C 354.720 71.954,354.000 71.082,354.000 70.862 C 354.000 70.642,352.740 69.186,351.200 67.628 C 349.660 66.069,348.400 64.626,348.400 64.419 C 348.400 63.930,336.070 51.600,335.581 51.600 C 335.374 51.600,333.931 50.340,332.372 48.800 C 330.814 47.260,329.358 46.000,329.138 46.000 C 328.918 46.000,328.046 45.280,327.200 44.400 C 326.354 43.520,325.469 42.800,325.232 42.800 C 324.995 42.800,324.059 42.080,323.152 41.200 C 322.245 40.320,321.344 39.600,321.148 39.600 C 320.953 39.600,320.228 39.060,319.537 38.400 C 318.846 37.740,318.078 37.200,317.829 37.200 C 317.580 37.200,317.117 36.840,316.800 36.400 C 316.483 35.960,315.991 35.600,315.708 35.600 C 315.425 35.600,314.628 35.060,313.937 34.400 C 313.246 33.740,312.438 33.200,312.141 33.200 C 311.843 33.200,311.600 33.020,311.600 32.800 C 311.600 32.580,311.280 32.400,310.888 32.400 C 310.497 32.400,309.917 32.040,309.600 31.600 C 309.283 31.160,308.743 30.800,308.400 30.800 C 308.057 30.800,307.517 30.440,307.200 30.000 C 306.883 29.560,306.386 29.200,306.095 29.200 C 305.804 29.200,305.180 28.840,304.708 28.400 C 304.236 27.960,303.613 27.600,303.325 27.600 C 303.036 27.600,302.800 27.420,302.800 27.200 C 302.800 26.980,302.440 26.800,302.000 26.800 C 301.560 26.800,301.200 26.620,301.200 26.400 C 301.200 26.180,300.880 26.000,300.488 26.000 C 300.097 26.000,299.517 25.640,299.200 25.200 C 298.883 24.760,298.303 24.400,297.912 24.400 C 297.520 24.400,297.200 24.220,297.200 24.000 C 297.200 23.780,296.840 23.600,296.400 23.600 C 295.960 23.600,295.600 23.420,295.600 23.200 C 295.600 22.980,295.240 22.800,294.800 22.800 C 294.360 22.800,294.000 22.620,294.000 22.400 C 294.000 22.180,293.640 22.000,293.200 22.000 C 292.760 22.000,292.400 21.820,292.400 21.600 C 292.400 21.380,292.040 21.200,291.600 21.200 C 291.160 21.200,290.800 21.020,290.800 20.800 C 290.800 20.580,290.440 20.400,290.000 20.400 C 289.560 20.400,289.200 20.220,289.200 20.000 C 289.200 19.780,288.840 19.600,288.400 19.600 C 287.960 19.600,287.600 19.420,287.600 19.200 C 287.600 18.980,287.240 18.800,286.800 18.800 C 286.360 18.800,286.000 18.620,286.000 18.400 C 286.000 18.180,285.640 18.000,285.200 18.000 C 284.760 18.000,284.400 17.820,284.400 17.600 C 284.400 17.380,284.040 17.200,283.600 17.200 C 283.160 17.200,282.800 17.020,282.800 16.800 C 282.800 16.580,282.451 16.400,282.024 16.400 C 281.597 16.400,281.136 16.220,281.000 16.000 C 280.864 15.780,280.313 15.600,279.776 15.600 C 279.239 15.600,278.800 15.420,278.800 15.200 C 278.800 14.980,278.440 14.800,278.000 14.800 C 277.560 14.800,277.200 14.620,277.200 14.400 C 277.200 14.180,276.660 14.000,276.000 14.000 C 275.340 14.000,274.800 13.820,274.800 13.600 C 274.800 13.380,274.440 13.200,274.000 13.200 C 273.560 13.200,273.200 13.020,273.200 12.800 C 273.200 12.580,272.660 12.400,272.000 12.400 C 271.340 12.400,270.800 12.220,270.800 12.000 C 270.800 11.780,270.440 11.600,270.000 11.600 C 269.560 11.600,269.200 11.420,269.200 11.200 C 269.200 10.980,268.660 10.800,268.000 10.800 C 267.340 10.800,266.800 10.620,266.800 10.400 C 266.800 10.180,266.260 10.000,265.600 10.000 C 264.940 10.000,264.400 9.820,264.400 9.600 C 264.400 9.380,263.860 9.200,263.200 9.200 C 262.540 9.200,262.000 9.020,262.000 8.800 C 262.000 8.580,261.460 8.400,260.800 8.400 C 260.140 8.400,259.600 8.220,259.600 8.000 C 259.600 7.780,258.880 7.600,258.000 7.600 C 257.120 7.600,256.400 7.420,256.400 7.200 C 256.400 6.980,255.871 6.800,255.224 6.800 C 254.577 6.800,253.936 6.620,253.800 6.400 C 253.664 6.180,252.933 6.000,252.176 6.000 C 251.419 6.000,250.800 5.820,250.800 5.600 C 250.800 5.380,250.080 5.200,249.200 5.200 C 248.320 5.200,247.600 5.020,247.600 4.800 C 247.600 4.580,246.891 4.400,246.024 4.400 C 245.157 4.400,244.336 4.220,244.200 4.000 C 244.064 3.780,243.153 3.600,242.176 3.600 C 241.199 3.600,240.400 3.420,240.400 3.200 C 240.400 2.978,239.333 2.800,238.000 2.800 C 236.667 2.800,235.600 2.622,235.600 2.400 C 235.600 2.180,234.700 2.000,233.600 2.000 C 232.500 2.000,231.600 1.820,231.600 1.600 C 231.600 1.367,230.278 1.200,228.433 1.200 C 226.304 1.200,225.214 1.041,225.105 0.714 C 224.944 0.233,187.802 -0.118,178.500 0.274 M137.256 162.378 C 149.407 164.905,156.738 171.762,158.583 182.325 C 159.337 186.645,159.903 186.435,147.880 186.307 L 137.830 186.200 137.370 185.200 C 135.362 180.842,134.999 180.316,133.316 179.330 C 126.858 175.545,119.059 179.933,120.793 186.375 C 121.689 189.701,124.347 191.357,134.600 194.978 C 154.276 201.925,159.978 207.337,159.995 219.080 C 160.017 234.396,148.368 244.190,130.200 244.129 C 112.789 244.070,101.117 235.827,99.177 222.218 C 98.668 218.647,98.205 218.799,109.549 218.806 C 120.452 218.813,120.301 218.781,120.846 221.205 C 122.824 230.011,137.773 230.238,138.677 221.475 C 139.036 218.000,137.931 216.403,133.158 213.493 C 132.585 213.144,128.623 211.696,124.354 210.276 C 104.383 203.635,98.620 197.688,99.315 184.442 C 100.177 167.994,117.056 158.179,137.256 162.378 M207.600 163.176 C 224.030 166.165,233.153 179.580,229.362 195.174 C 226.037 208.849,215.683 214.800,195.216 214.800 L 188.800 214.800 188.800 228.786 C 188.800 242.204,188.769 242.789,188.026 243.186 C 187.198 243.629,170.142 243.783,169.033 243.357 C 168.181 243.031,168.051 163.720,168.900 162.845 C 169.560 162.165,203.647 162.456,207.600 163.176 M252.097 162.761 C 252.863 163.052,254.461 166.198,260.423 179.155 C 264.480 187.973,267.931 195.190,268.090 195.194 C 268.250 195.197,268.729 194.435,269.155 193.500 C 270.948 189.569,276.793 176.816,277.817 174.600 C 278.427 173.280,279.757 170.400,280.772 168.200 C 281.787 166.000,282.826 163.840,283.080 163.400 C 283.521 162.638,284.029 162.594,293.871 162.482 C 306.843 162.334,306.403 162.143,303.907 166.831 C 302.076 170.270,298.903 176.390,291.583 190.600 C 289.317 195.000,285.378 202.560,282.831 207.400 L 278.200 216.200 278.084 229.586 C 277.999 239.521,277.844 243.051,277.484 243.280 C 276.738 243.754,259.275 243.668,258.374 243.186 C 257.633 242.789,257.600 242.212,257.600 229.523 L 257.600 216.274 254.148 209.637 C 252.250 205.987,249.257 200.210,247.496 196.800 C 245.736 193.390,243.172 188.440,241.799 185.800 C 229.956 163.032,229.933 162.981,231.100 162.676 C 232.437 162.326,251.153 162.402,252.097 162.761 M188.800 188.800 L 188.800 198.400 195.127 198.400 C 205.981 198.400,209.600 196.000,209.600 188.800 C 209.600 181.600,205.981 179.200,195.127 179.200 L 188.800 179.200 188.800 188.800 " stroke="none" fill="#fbfbfb" fill-rule="evenodd"></path><path id="path2" d="M126.500 162.296 C 127.765 162.375,129.835 162.375,131.100 162.296 C 132.365 162.216,131.330 162.151,128.800 162.151 C 126.270 162.151,125.235 162.216,126.500 162.296 M119.800 162.800 C 118.781 163.238,119.832 163.238,121.200 162.800 C 122.004 162.543,122.043 162.477,121.400 162.468 C 120.960 162.462,120.240 162.611,119.800 162.800 M116.400 163.618 C 115.962 163.915,116.124 163.952,117.000 163.756 C 118.471 163.427,118.790 163.198,117.767 163.206 C 117.345 163.209,116.730 163.395,116.400 163.618 M204.033 163.346 C 204.125 163.426,205.190 163.594,206.400 163.719 C 207.820 163.866,208.246 163.829,207.600 163.613 C 206.609 163.283,203.713 163.065,204.033 163.346 M210.200 164.400 C 210.640 164.589,211.270 164.744,211.600 164.744 C 211.978 164.744,211.904 164.617,211.400 164.400 C 210.960 164.211,210.330 164.056,210.000 164.056 C 209.622 164.056,209.696 164.183,210.200 164.400 M111.900 165.429 C 110.349 166.270,110.525 166.561,112.100 165.759 C 113.608 164.993,113.875 164.794,113.367 164.816 C 113.165 164.825,112.505 165.101,111.900 165.429 M144.033 164.929 C 144.693 165.439,148.000 167.194,148.000 167.034 C 148.000 166.776,144.636 164.800,144.198 164.800 C 144.016 164.800,143.942 164.858,144.033 164.929 M232.600 167.200 C 232.941 167.860,233.311 168.400,233.421 168.400 C 233.531 168.400,233.341 167.860,233.000 167.200 C 232.659 166.540,232.289 166.000,232.179 166.000 C 232.069 166.000,232.259 166.540,232.600 167.200 M105.410 170.390 C 104.110 171.704,103.125 172.834,103.223 172.902 C 103.320 172.969,104.465 171.894,105.766 170.512 C 108.771 167.322,108.529 167.238,105.410 170.390 M151.648 170.201 C 152.884 171.520,154.369 173.317,154.948 174.193 C 155.526 175.069,156.000 175.641,156.000 175.465 C 156.000 174.786,153.577 171.712,151.535 169.801 L 149.400 167.802 151.648 170.201 M222.076 170.499 C 223.108 171.512,224.503 173.101,225.176 174.030 C 225.849 174.960,226.400 175.555,226.400 175.353 C 226.400 174.786,222.746 170.543,221.400 169.546 C 220.740 169.058,221.044 169.487,222.076 170.499 M300.800 171.200 C 300.351 172.080,300.074 172.800,300.184 172.800 C 300.294 172.800,300.751 172.080,301.200 171.200 C 301.649 170.320,301.926 169.600,301.816 169.600 C 301.706 169.600,301.249 170.320,300.800 171.200 M238.600 178.800 C 239.157 179.900,239.703 180.800,239.813 180.800 C 239.923 180.800,239.557 179.900,239.000 178.800 C 238.443 177.700,237.897 176.800,237.787 176.800 C 237.677 176.800,238.043 177.700,238.600 178.800 M127.300 177.476 C 127.685 177.576,128.315 177.576,128.700 177.476 C 129.085 177.375,128.770 177.293,128.000 177.293 C 127.230 177.293,126.915 177.375,127.300 177.476 M131.200 177.886 C 131.530 178.009,132.295 178.360,132.900 178.665 C 133.505 178.971,134.000 179.131,134.000 179.021 C 134.000 178.707,131.698 177.596,131.120 177.632 C 130.771 177.653,130.797 177.736,131.200 177.886 M188.263 178.700 C 188.162 178.865,191.494 179.000,195.668 179.000 C 199.843 179.000,202.840 178.883,202.329 178.740 C 201.017 178.372,188.486 178.337,188.263 178.700 M121.365 180.211 C 120.773 180.987,120.359 181.687,120.444 181.767 C 120.530 181.846,121.093 181.212,121.696 180.356 C 123.065 178.414,122.818 178.306,121.365 180.211 M206.845 181.142 C 207.639 181.816,208.518 182.920,208.798 183.596 C 209.079 184.272,209.388 184.745,209.486 184.647 C 209.982 184.151,207.618 181.039,206.200 180.322 C 205.760 180.099,206.050 180.468,206.845 181.142 M157.873 182.000 C 158.004 182.990,158.176 183.875,158.256 183.967 C 158.557 184.314,158.328 181.764,157.990 181.000 C 157.753 180.466,157.714 180.798,157.873 182.000 M229.073 184.000 C 229.204 184.990,229.376 185.875,229.456 185.967 C 229.757 186.314,229.528 183.764,229.190 183.000 C 228.953 182.466,228.914 182.798,229.073 184.000 M99.742 186.200 C 99.741 188.180,99.808 189.040,99.892 188.112 C 99.976 187.184,99.977 185.564,99.895 184.512 C 99.812 183.460,99.743 184.220,99.742 186.200 M294.200 184.000 C 293.859 184.660,293.669 185.200,293.779 185.200 C 293.889 185.200,294.259 184.660,294.600 184.000 C 294.941 183.340,295.131 182.800,295.021 182.800 C 294.911 182.800,294.541 183.340,294.200 184.000 M209.761 188.800 C 209.761 191.746,209.807 191.973,210.104 190.500 C 210.295 189.554,210.295 188.046,210.104 187.100 C 209.807 185.627,209.761 185.854,209.761 188.800 M121.682 189.421 C 122.277 190.073,123.357 190.928,124.082 191.321 C 125.351 192.008,125.363 192.008,124.409 191.317 C 123.865 190.923,122.785 190.068,122.009 189.418 L 120.600 188.236 121.682 189.421 M245.000 191.200 C 245.557 192.300,246.103 193.200,246.213 193.200 C 246.323 193.200,245.957 192.300,245.400 191.200 C 244.843 190.100,244.297 189.200,244.187 189.200 C 244.077 189.200,244.443 190.100,245.000 191.200 M229.040 193.240 C 228.893 194.157,228.852 194.985,228.947 195.080 C 229.042 195.176,229.246 194.510,229.400 193.600 C 229.554 192.690,229.596 191.862,229.493 191.760 C 229.390 191.657,229.187 192.323,229.040 193.240 M208.798 194.004 C 208.518 194.680,207.639 195.784,206.845 196.458 C 206.050 197.132,205.760 197.501,206.200 197.278 C 207.618 196.561,209.982 193.449,209.486 192.953 C 209.388 192.855,209.079 193.328,208.798 194.004 M288.200 195.600 C 287.643 196.700,287.277 197.600,287.387 197.600 C 287.497 197.600,288.043 196.700,288.600 195.600 C 289.157 194.500,289.523 193.600,289.413 193.600 C 289.303 193.600,288.757 194.500,288.200 195.600 M267.200 195.508 C 267.200 195.732,267.485 196.024,267.833 196.157 C 268.703 196.491,268.800 196.468,268.800 195.933 C 268.800 195.677,268.682 195.585,268.537 195.730 C 268.392 195.875,268.032 195.793,267.737 195.548 C 267.399 195.267,267.200 195.253,267.200 195.508 M105.200 200.200 C 106.395 201.410,107.463 202.400,107.573 202.400 C 107.683 202.400,106.795 201.410,105.600 200.200 C 104.405 198.990,103.337 198.000,103.227 198.000 C 103.117 198.000,104.005 198.990,105.200 200.200 M188.263 198.900 C 188.486 199.263,201.017 199.228,202.329 198.860 C 202.840 198.717,199.843 198.600,195.668 198.600 C 191.494 198.600,188.162 198.735,188.263 198.900 M250.600 202.000 C 251.157 203.100,251.703 204.000,251.813 204.000 C 251.923 204.000,251.557 203.100,251.000 202.000 C 250.443 200.900,249.897 200.000,249.787 200.000 C 249.677 200.000,250.043 200.900,250.600 202.000 M150.000 202.279 C 151.787 203.555,155.291 206.962,156.459 208.560 C 157.087 209.418,157.600 209.911,157.600 209.656 C 157.600 208.938,151.838 203.089,150.336 202.283 C 149.066 201.601,149.050 201.601,150.000 202.279 M226.000 201.861 C 226.000 202.078,225.356 203.008,224.569 203.928 C 223.782 204.848,223.287 205.594,223.469 205.588 C 223.980 205.569,226.544 202.011,226.255 201.722 C 226.115 201.582,226.000 201.644,226.000 201.861 M281.800 208.000 C 281.243 209.100,280.877 210.000,280.987 210.000 C 281.097 210.000,281.643 209.100,282.200 208.000 C 282.757 206.900,283.123 206.000,283.013 206.000 C 282.903 206.000,282.357 206.900,281.800 208.000 M220.000 208.449 C 218.606 209.671,218.605 209.672,219.888 208.819 C 220.596 208.348,221.282 207.791,221.412 207.581 C 221.797 206.957,221.477 207.154,220.000 208.449 M216.800 210.400 C 216.030 210.822,215.544 211.174,215.720 211.183 C 216.144 211.205,218.400 210.032,218.400 209.790 C 218.400 209.528,218.377 209.537,216.800 210.400 M158.644 213.400 C 158.973 214.871,159.202 215.190,159.194 214.167 C 159.191 213.745,159.005 213.130,158.782 212.800 C 158.485 212.362,158.448 212.524,158.644 213.400 M257.082 214.589 C 257.673 215.793,258.223 216.711,258.305 216.629 C 258.484 216.449,256.467 212.400,256.198 212.400 C 256.094 212.400,256.492 213.385,257.082 214.589 M209.200 213.200 C 208.376 213.464,208.341 213.526,209.000 213.554 C 209.440 213.573,210.070 213.413,210.400 213.200 C 211.101 212.747,210.614 212.747,209.200 213.200 M197.000 214.000 L 188.600 214.225 196.800 214.272 C 201.310 214.299,205.450 214.176,206.000 214.000 C 206.729 213.767,206.783 213.693,206.200 213.728 C 205.760 213.754,201.620 213.876,197.000 214.000 M136.338 215.078 C 136.634 215.195,137.399 216.117,138.038 217.124 C 138.677 218.132,139.200 218.768,139.200 218.538 C 139.200 217.831,136.825 214.798,136.297 214.832 C 135.942 214.854,135.953 214.924,136.338 215.078 M159.344 219.200 C 159.344 221.290,159.412 222.145,159.494 221.100 C 159.576 220.055,159.576 218.345,159.494 217.300 C 159.412 216.255,159.344 217.110,159.344 219.200 M99.260 220.500 C 99.315 221.700,99.333 221.716,99.486 220.707 L 99.652 219.613 109.926 219.500 L 120.200 219.386 109.700 219.293 L 99.200 219.200 99.260 220.500 M139.293 220.800 C 139.293 221.570,139.375 221.885,139.476 221.500 C 139.576 221.115,139.576 220.485,139.476 220.100 C 139.375 219.715,139.293 220.030,139.293 220.800 M158.846 224.467 C 158.821 224.834,158.696 225.464,158.570 225.867 C 158.352 226.562,158.363 226.563,158.797 225.887 C 159.048 225.496,159.173 224.866,159.073 224.487 C 158.911 223.868,158.888 223.866,158.846 224.467 M123.600 226.579 C 123.600 226.689,124.140 227.059,124.800 227.400 C 125.460 227.741,126.000 227.931,126.000 227.821 C 126.000 227.711,125.460 227.341,124.800 227.000 C 124.140 226.659,123.600 226.469,123.600 226.579 M131.300 228.276 C 131.685 228.376,132.315 228.376,132.700 228.276 C 133.085 228.175,132.770 228.093,132.000 228.093 C 131.230 228.093,130.915 228.175,131.300 228.276 M102.416 230.709 C 102.934 231.650,103.699 232.728,104.117 233.105 C 104.534 233.483,104.211 232.804,103.400 231.596 C 101.534 228.817,101.217 228.532,102.416 230.709 M156.600 230.400 C 156.259 231.060,156.069 231.600,156.179 231.600 C 156.289 231.600,156.659 231.060,157.000 230.400 C 157.341 229.740,157.531 229.200,157.421 229.200 C 157.311 229.200,156.941 229.740,156.600 230.400 M152.786 235.500 L 150.600 237.800 152.900 235.614 C 155.037 233.582,155.383 233.200,155.086 233.200 C 155.024 233.200,153.989 234.235,152.786 235.500 M106.000 235.400 C 106.746 236.170,107.447 236.800,107.557 236.800 C 107.667 236.800,107.146 236.170,106.400 235.400 C 105.654 234.630,104.953 234.000,104.843 234.000 C 104.733 234.000,105.254 234.630,106.000 235.400 M108.522 237.456 C 109.223 238.286,113.561 240.809,114.256 240.791 C 114.445 240.786,113.453 240.164,112.050 239.408 C 110.648 238.652,109.118 237.711,108.650 237.317 C 107.805 236.604,107.804 236.605,108.522 237.456 M148.697 238.766 C 147.098 239.791,146.803 240.206,148.200 239.466 C 149.876 238.577,150.671 238.008,150.200 238.035 C 149.980 238.048,149.304 238.377,148.697 238.766 M120.200 242.800 C 120.640 242.989,121.270 243.144,121.600 243.144 C 121.978 243.144,121.904 243.017,121.400 242.800 C 120.960 242.611,120.330 242.456,120.000 242.456 C 119.622 242.456,119.696 242.583,120.200 242.800 M139.000 242.800 C 138.496 243.017,138.422 243.144,138.800 243.144 C 139.130 243.144,139.760 242.989,140.200 242.800 C 140.704 242.583,140.778 242.456,140.400 242.456 C 140.070 242.456,139.440 242.611,139.000 242.800 M173.500 243.099 C 176.195 243.168,180.605 243.168,183.300 243.099 C 185.995 243.030,183.790 242.973,178.400 242.973 C 173.010 242.973,170.805 243.030,173.500 243.099 M263.100 243.099 C 265.795 243.168,270.205 243.168,272.900 243.099 C 275.595 243.030,273.390 242.973,268.000 242.973 C 262.610 242.973,260.405 243.030,263.100 243.099 M124.800 243.638 C 125.350 243.793,127.870 243.917,130.400 243.914 C 132.930 243.910,134.730 243.848,134.400 243.776 C 133.154 243.502,123.845 243.369,124.800 243.638 " stroke="none" fill="#7c848c" fill-rule="evenodd"></path><path id="path3" d="M122.200 162.002 C 121.519 162.176,122.385 162.218,124.200 162.098 C 125.960 161.983,127.475 161.823,127.567 161.744 C 127.875 161.477,123.412 161.691,122.200 162.002 M130.033 161.746 C 130.125 161.826,131.640 161.991,133.400 162.112 C 135.294 162.241,136.110 162.201,135.400 162.013 C 134.197 161.694,129.720 161.471,130.033 161.746 M118.000 162.800 C 117.208 163.054,117.167 163.120,117.800 163.120 C 118.240 163.120,119.050 162.976,119.600 162.800 C 120.392 162.546,120.433 162.480,119.800 162.480 C 119.360 162.480,118.550 162.624,118.000 162.800 M137.800 162.781 C 138.568 163.129,140.710 163.356,140.367 163.053 C 140.275 162.972,139.480 162.796,138.600 162.662 C 137.485 162.493,137.242 162.529,137.800 162.781 M168.880 162.880 C 168.512 163.248,168.423 172.678,168.497 203.380 L 168.594 243.400 168.797 203.200 L 169.000 163.000 187.600 163.000 C 197.830 163.000,204.670 162.883,202.800 162.740 C 196.325 162.244,169.405 162.355,168.880 162.880 M231.100 162.676 C 230.310 162.882,230.212 163.514,230.832 164.400 C 231.163 164.872,231.199 164.810,231.003 164.113 C 230.640 162.817,231.328 162.743,242.492 162.880 C 251.818 162.993,252.401 163.044,252.984 163.800 C 253.520 164.494,253.568 164.503,253.346 163.869 C 253.206 163.468,252.654 162.973,252.119 162.769 C 251.160 162.405,232.456 162.321,231.100 162.676 M283.912 162.728 C 283.533 162.878,287.943 162.952,293.712 162.892 C 305.221 162.775,305.613 162.841,304.627 164.747 C 304.271 165.436,304.069 166.000,304.179 166.000 C 304.990 166.000,305.653 163.428,304.971 162.929 C 304.192 162.360,285.300 162.180,283.912 162.728 M114.600 163.978 C 113.720 164.395,113.180 164.736,113.400 164.738 C 113.946 164.742,117.102 163.264,116.600 163.240 C 116.380 163.230,115.480 163.562,114.600 163.978 M208.000 163.600 C 208.550 163.776,209.360 163.920,209.800 163.920 C 210.433 163.920,210.392 163.854,209.600 163.600 C 209.050 163.424,208.240 163.280,207.800 163.280 C 207.167 163.280,207.208 163.346,208.000 163.600 M109.749 166.363 C 108.401 167.218,107.177 168.114,107.029 168.354 C 106.881 168.593,107.803 168.101,109.080 167.260 C 110.356 166.419,111.760 165.527,112.200 165.277 C 112.640 165.028,112.820 164.821,112.600 164.816 C 112.380 164.811,111.097 165.507,109.749 166.363 M145.400 165.277 C 145.840 165.527,147.268 166.435,148.574 167.296 C 149.880 168.157,150.713 168.577,150.424 168.229 C 149.826 167.509,145.475 164.794,144.948 164.812 C 144.756 164.819,144.960 165.028,145.400 165.277 M253.634 165.000 C 253.634 165.220,253.978 166.030,254.400 166.800 C 254.822 167.570,255.166 168.020,255.166 167.800 C 255.166 167.580,254.822 166.770,254.400 166.000 C 253.978 165.230,253.634 164.780,253.634 165.000 M216.710 166.401 C 218.408 167.437,218.964 167.436,217.400 166.400 C 216.740 165.963,216.020 165.605,215.800 165.604 C 215.580 165.604,215.989 165.962,216.710 166.401 M233.400 169.600 C 234.176 171.140,234.900 172.400,235.010 172.400 C 235.120 172.400,234.576 171.140,233.800 169.600 C 233.024 168.060,232.300 166.800,232.190 166.800 C 232.080 166.800,232.624 168.060,233.400 169.600 M281.200 166.884 C 281.200 167.004,280.928 167.754,280.595 168.551 C 280.262 169.348,280.079 170.000,280.189 170.000 C 280.506 170.000,281.633 167.100,281.405 166.872 C 281.292 166.759,281.200 166.765,281.200 166.884 M220.000 168.077 C 220.000 168.157,221.125 169.196,222.500 170.387 C 223.875 171.577,224.550 172.049,224.000 171.436 C 223.003 170.324,220.000 167.803,220.000 168.077 M152.000 169.804 C 152.000 169.970,152.335 170.397,152.745 170.753 C 153.154 171.109,154.260 172.570,155.201 174.000 C 156.142 175.430,156.801 176.281,156.665 175.892 C 156.062 174.158,152.000 168.857,152.000 169.804 M256.034 170.200 C 256.034 170.420,256.378 171.230,256.800 172.000 C 257.222 172.770,257.566 173.220,257.566 173.000 C 257.566 172.780,257.222 171.970,256.800 171.200 C 256.378 170.430,256.034 169.980,256.034 170.200 M299.437 174.681 C 298.443 176.596,297.690 178.224,297.765 178.299 C 297.840 178.373,298.742 176.807,299.769 174.817 C 300.797 172.828,301.549 171.200,301.441 171.200 C 301.332 171.200,300.431 172.767,299.437 174.681 M225.585 173.890 C 226.056 174.600,226.976 176.310,227.632 177.690 C 228.287 179.071,228.704 179.750,228.560 179.200 C 228.163 177.694,226.597 174.720,225.607 173.596 L 224.731 172.600 225.585 173.890 M101.381 175.237 C 101.029 175.918,100.812 176.545,100.899 176.632 C 100.986 176.719,101.356 176.162,101.722 175.395 C 102.544 173.670,102.259 173.538,101.381 175.237 M258.434 175.400 C 258.434 175.620,258.778 176.430,259.200 177.200 C 259.622 177.970,259.966 178.420,259.966 178.200 C 259.966 177.980,259.622 177.170,259.200 176.400 C 258.778 175.630,258.434 175.180,258.434 175.400 M276.400 177.284 C 276.400 177.404,276.128 178.154,275.795 178.951 C 275.462 179.748,275.279 180.400,275.389 180.400 C 275.706 180.400,276.833 177.500,276.605 177.272 C 276.492 177.159,276.400 177.165,276.400 177.284 M125.340 177.906 C 125.087 178.068,126.386 178.200,128.226 178.200 C 130.067 178.200,131.264 178.078,130.886 177.928 C 129.953 177.558,125.910 177.542,125.340 177.906 M157.656 179.200 C 157.656 179.530,157.811 180.160,158.000 180.600 C 158.217 181.104,158.344 181.178,158.344 180.800 C 158.344 180.470,158.189 179.840,158.000 179.400 C 157.783 178.896,157.656 178.822,157.656 179.200 M188.580 179.308 C 188.473 179.588,188.433 184.043,188.492 189.208 L 188.600 198.600 194.800 198.615 L 201.000 198.630 194.900 198.505 L 188.800 198.380 188.800 188.800 L 188.800 179.220 195.100 179.099 L 201.400 178.978 195.087 178.889 C 190.285 178.821,188.728 178.922,188.580 179.308 M121.584 180.423 C 121.105 181.096,120.779 181.713,120.861 181.794 C 120.943 181.876,121.414 181.326,121.908 180.571 C 123.023 178.871,122.771 178.756,121.584 180.423 M202.033 179.344 C 202.125 179.423,202.740 179.608,203.400 179.756 C 204.276 179.952,204.438 179.915,204.000 179.618 C 203.460 179.253,201.632 178.998,202.033 179.344 M240.231 182.817 C 241.258 184.807,242.160 186.373,242.235 186.299 C 242.408 186.125,238.823 179.200,238.559 179.200 C 238.451 179.200,239.203 180.828,240.231 182.817 M99.400 182.000 C 99.244 183.347,99.201 184.534,99.305 184.638 C 99.409 184.742,99.619 183.722,99.771 182.371 C 99.924 181.021,99.967 179.834,99.867 179.733 C 99.766 179.633,99.556 180.653,99.400 182.000 M205.923 180.900 C 206.639 181.395,207.578 182.340,208.010 183.000 C 208.441 183.660,208.796 183.975,208.797 183.700 C 208.801 183.057,205.755 180.000,205.111 180.000 C 204.842 180.000,205.208 180.405,205.923 180.900 M228.868 181.000 C 228.862 181.440,229.011 182.160,229.200 182.600 C 229.638 183.619,229.638 182.568,229.200 181.200 C 228.943 180.396,228.877 180.357,228.868 181.000 M260.834 180.600 C 260.834 180.820,261.178 181.630,261.600 182.400 C 262.022 183.170,262.366 183.620,262.366 183.400 C 262.366 183.180,262.022 182.370,261.600 181.600 C 261.178 180.830,260.834 180.380,260.834 180.600 M135.855 181.800 C 136.780 183.379,136.800 183.403,136.800 182.911 C 136.800 182.679,136.429 182.064,135.976 181.544 L 135.153 180.600 135.855 181.800 M274.272 182.219 C 273.332 184.189,273.464 184.524,274.447 182.662 C 274.893 181.816,275.187 181.054,275.101 180.967 C 275.014 180.881,274.641 181.444,274.272 182.219 M120.237 183.744 C 120.098 184.484,120.129 185.479,120.305 185.955 C 120.535 186.577,120.634 186.199,120.657 184.611 C 120.694 182.064,120.592 181.853,120.237 183.744 M158.325 184.058 L 158.200 185.800 148.084 185.907 L 137.967 186.014 137.399 184.707 C 137.087 183.988,136.824 183.675,136.816 184.011 C 136.757 186.293,137.259 186.400,147.923 186.394 C 158.802 186.387,159.014 186.343,158.865 184.140 C 158.723 182.031,158.473 181.993,158.325 184.058 M293.400 186.400 C 292.624 187.940,292.080 189.200,292.190 189.200 C 292.300 189.200,293.024 187.940,293.800 186.400 C 294.576 184.860,295.120 183.600,295.010 183.600 C 294.900 183.600,294.176 184.860,293.400 186.400 M229.751 188.800 C 229.751 191.330,229.816 192.365,229.896 191.100 C 229.975 189.835,229.975 187.765,229.896 186.500 C 229.816 185.235,229.751 186.270,229.751 188.800 M263.234 185.800 C 263.234 186.020,263.578 186.830,264.000 187.600 C 264.422 188.370,264.766 188.820,264.766 188.600 C 264.766 188.380,264.422 187.570,264.000 186.800 C 263.578 186.030,263.234 185.580,263.234 185.800 M271.855 187.455 C 271.476 188.249,271.253 188.986,271.359 189.093 C 271.466 189.199,271.836 188.609,272.182 187.782 C 272.998 185.829,272.749 185.580,271.855 187.455 M99.240 188.433 C 99.262 189.185,99.430 190.250,99.613 190.800 C 99.829 191.446,99.866 191.020,99.719 189.600 C 99.459 187.083,99.181 186.407,99.240 188.433 M120.801 187.411 C 120.797 188.571,124.827 192.008,126.178 191.996 C 126.410 191.994,125.648 191.446,124.483 190.779 C 123.319 190.111,122.015 188.988,121.585 188.282 C 121.155 187.577,120.802 187.185,120.801 187.411 M265.634 191.000 C 265.634 191.220,265.978 192.030,266.400 192.800 C 266.822 193.570,267.166 194.020,267.166 193.800 C 267.166 193.580,266.822 192.770,266.400 192.000 C 265.978 191.230,265.634 190.780,265.634 191.000 M246.221 194.441 C 247.008 196.004,247.727 197.207,247.819 197.115 C 248.005 196.929,245.251 191.600,244.968 191.600 C 244.870 191.600,245.434 192.878,246.221 194.441 M207.973 194.650 C 207.664 195.227,206.782 196.127,206.013 196.650 C 205.244 197.172,204.763 197.600,204.945 197.600 C 205.942 197.600,209.203 194.270,208.699 193.766 C 208.609 193.675,208.282 194.073,207.973 194.650 M229.029 195.029 C 228.881 195.615,228.838 196.172,228.932 196.266 C 229.027 196.360,229.224 195.958,229.371 195.371 C 229.519 194.785,229.562 194.228,229.468 194.134 C 229.373 194.040,229.176 194.442,229.029 195.029 M267.303 194.800 C 267.496 195.510,268.800 195.863,268.800 195.206 C 268.800 194.957,268.600 194.876,268.355 195.028 C 268.111 195.179,267.737 195.054,267.525 194.751 C 267.208 194.298,267.168 194.307,267.303 194.800 M101.400 196.000 C 101.741 196.660,102.111 197.200,102.221 197.200 C 102.331 197.200,102.141 196.660,101.800 196.000 C 101.459 195.340,101.089 194.800,100.979 194.800 C 100.869 194.800,101.059 195.340,101.400 196.000 M286.637 199.481 C 285.643 201.396,284.890 203.024,284.965 203.099 C 285.040 203.173,285.942 201.607,286.969 199.617 C 287.997 197.628,288.749 196.000,288.641 196.000 C 288.532 196.000,287.631 197.567,286.637 199.481 M104.261 199.809 C 105.310 201.024,106.626 202.312,107.184 202.672 C 107.743 203.031,106.947 202.037,105.416 200.463 C 102.084 197.036,101.660 196.796,104.261 199.809 M202.800 198.000 C 201.976 198.264,201.941 198.326,202.600 198.354 C 203.040 198.373,203.670 198.213,204.000 198.000 C 204.701 197.547,204.214 197.547,202.800 198.000 M227.078 200.605 C 226.712 201.372,226.495 202.000,226.596 202.000 C 226.870 202.000,228.084 199.551,227.901 199.368 C 227.814 199.281,227.444 199.838,227.078 200.605 M252.231 206.017 C 253.258 208.007,254.160 209.573,254.235 209.499 C 254.408 209.325,250.823 202.400,250.559 202.400 C 250.451 202.400,251.203 204.028,252.231 206.017 M154.459 205.600 C 155.687 207.030,157.075 208.830,157.544 209.600 C 158.013 210.370,158.398 210.795,158.399 210.544 C 158.401 209.888,155.145 205.613,153.568 204.200 C 152.797 203.510,153.176 204.104,154.459 205.600 M222.883 206.301 C 221.043 208.257,221.508 208.338,223.407 206.393 C 224.263 205.517,224.791 204.823,224.581 204.851 C 224.372 204.879,223.608 205.531,222.883 206.301 M219.087 209.368 C 216.600 211.090,216.179 211.584,218.200 210.409 C 219.651 209.566,221.652 207.968,221.189 208.022 C 221.085 208.034,220.139 208.640,219.087 209.368 M280.600 211.200 C 279.824 212.740,279.280 214.000,279.390 214.000 C 279.500 214.000,280.224 212.740,281.000 211.200 C 281.776 209.660,282.320 208.400,282.210 208.400 C 282.100 208.400,281.376 209.660,280.600 211.200 M126.000 210.800 C 126.330 211.013,126.870 211.188,127.200 211.188 C 127.733 211.188,127.733 211.145,127.200 210.800 C 126.870 210.587,126.330 210.412,126.000 210.412 C 125.467 210.412,125.467 210.455,126.000 210.800 M214.200 212.029 C 213.320 212.452,213.050 212.686,213.600 212.549 C 214.733 212.267,216.812 211.225,216.200 211.246 C 215.980 211.253,215.080 211.606,214.200 212.029 M132.955 213.324 C 133.370 213.586,134.607 214.403,135.703 215.140 C 136.799 215.877,137.585 216.299,137.449 216.079 C 137.122 215.550,132.958 212.793,132.532 212.824 C 132.349 212.836,132.540 213.061,132.955 213.324 M210.600 213.200 C 210.096 213.417,210.022 213.544,210.400 213.544 C 210.730 213.544,211.360 213.389,211.800 213.200 C 212.304 212.983,212.378 212.856,212.000 212.856 C 211.670 212.856,211.040 213.011,210.600 213.200 M159.481 215.600 C 159.606 216.810,159.774 217.875,159.854 217.967 C 160.135 218.287,159.917 215.391,159.587 214.400 C 159.371 213.754,159.334 214.180,159.481 215.600 M206.400 214.020 C 205.726 214.249,206.051 214.284,207.400 214.128 C 208.500 214.001,209.475 213.831,209.567 213.749 C 209.882 213.468,207.399 213.680,206.400 214.020 M188.310 228.762 C 188.249 236.661,188.335 243.041,188.500 242.938 C 188.665 242.836,188.800 236.467,188.800 228.785 L 188.800 214.818 196.100 214.699 L 203.400 214.581 195.910 214.490 L 188.420 214.400 188.310 228.762 M257.151 215.474 C 257.456 216.068,257.600 220.574,257.600 229.550 C 257.600 236.812,257.735 242.836,257.900 242.939 C 258.497 243.308,257.852 215.688,257.251 215.119 C 256.789 214.682,256.773 214.738,257.151 215.474 M277.849 216.615 C 277.712 216.973,277.640 223.146,277.690 230.333 L 277.779 243.400 277.990 229.800 C 278.215 215.199,278.220 215.649,277.849 216.615 M138.238 218.074 C 138.716 218.999,138.839 219.957,138.686 221.574 C 138.557 222.942,138.605 223.492,138.810 223.000 C 139.544 221.242,138.806 216.800,137.779 216.800 C 137.669 216.800,137.876 217.373,138.238 218.074 M104.500 219.099 C 107.305 219.168,111.895 219.168,114.700 219.099 C 117.505 219.030,115.210 218.974,109.600 218.974 C 103.990 218.974,101.695 219.030,104.500 219.099 M159.446 222.646 C 159.300 223.893,159.259 224.993,159.357 225.090 C 159.454 225.188,159.661 224.254,159.815 223.015 C 159.970 221.777,160.010 220.677,159.905 220.571 C 159.799 220.466,159.593 221.399,159.446 222.646 M120.832 222.449 C 120.814 222.805,121.535 223.885,122.434 224.849 L 124.068 226.600 122.688 224.800 C 121.928 223.810,121.207 222.730,121.085 222.400 C 120.899 221.897,120.858 221.905,120.832 222.449 M99.268 223.000 C 99.262 223.440,99.411 224.160,99.600 224.600 C 100.038 225.619,100.038 224.568,99.600 223.200 C 99.343 222.396,99.277 222.357,99.268 223.000 M124.400 226.576 C 124.400 227.032,126.836 227.997,127.880 227.954 C 128.894 227.912,128.868 227.882,127.600 227.628 C 126.830 227.474,125.795 227.128,125.300 226.860 C 124.805 226.592,124.400 226.464,124.400 226.576 M132.800 227.600 L 131.400 227.895 132.676 227.947 C 133.378 227.976,134.064 227.820,134.200 227.600 C 134.336 227.380,134.392 227.224,134.324 227.253 C 134.256 227.282,133.570 227.438,132.800 227.600 M102.277 231.274 C 102.675 231.975,104.080 233.655,105.400 235.007 C 107.624 237.286,107.652 237.302,105.783 235.233 C 104.674 234.005,103.354 232.325,102.850 231.500 C 101.737 229.677,101.266 229.491,102.277 231.274 M155.608 232.633 C 154.070 234.955,152.063 236.921,148.782 239.317 C 147.838 240.007,147.853 240.007,149.183 239.317 C 151.066 238.340,155.591 233.766,156.726 231.692 C 158.077 229.222,157.603 229.622,155.608 232.633 M146.053 240.653 C 145.313 240.976,144.801 241.334,144.916 241.450 C 145.137 241.671,147.600 240.515,147.600 240.190 C 147.600 239.963,147.713 239.929,146.053 240.653 M118.600 242.800 C 119.040 242.989,119.670 243.144,120.000 243.144 C 120.378 243.144,120.304 243.017,119.800 242.800 C 119.360 242.611,118.730 242.456,118.400 242.456 C 118.022 242.456,118.096 242.583,118.600 242.800 M140.400 242.818 C 139.962 243.115,140.124 243.152,141.000 242.956 C 142.471 242.627,142.790 242.398,141.767 242.406 C 141.345 242.409,140.730 242.595,140.400 242.818 M122.200 243.600 C 122.860 243.768,123.850 243.905,124.400 243.905 C 125.292 243.905,125.270 243.872,124.200 243.600 C 123.540 243.432,122.550 243.295,122.000 243.295 C 121.108 243.295,121.130 243.328,122.200 243.600 M136.400 243.600 C 135.056 244.031,136.508 244.031,138.200 243.600 C 139.278 243.326,139.298 243.294,138.400 243.287 C 137.850 243.283,136.950 243.424,136.400 243.600 M173.700 243.499 C 176.285 243.568,180.515 243.568,183.100 243.499 C 185.685 243.429,183.570 243.372,178.400 243.372 C 173.230 243.372,171.115 243.429,173.700 243.499 M263.300 243.499 C 265.885 243.568,270.115 243.568,272.700 243.499 C 275.285 243.429,273.170 243.372,268.000 243.372 C 262.830 243.372,260.715 243.429,263.300 243.499 M128.700 244.293 C 129.635 244.377,131.165 244.377,132.100 244.293 C 133.035 244.209,132.270 244.140,130.400 244.140 C 128.530 244.140,127.765 244.209,128.700 244.293 " stroke="none" fill="#a0a2ab" fill-rule="evenodd"></path><path id="path4" d="M128.100 161.876 C 128.485 161.976,129.115 161.976,129.500 161.876 C 129.885 161.775,129.570 161.693,128.800 161.693 C 128.030 161.693,127.715 161.775,128.100 161.876 M176.900 163.100 C 181.245 163.164,188.355 163.164,192.700 163.100 C 197.045 163.035,193.490 162.982,184.800 162.982 C 176.110 162.982,172.555 163.035,176.900 163.100 M236.500 163.099 C 239.305 163.168,243.895 163.168,246.700 163.099 C 249.505 163.030,247.210 162.974,241.600 162.974 C 235.990 162.974,233.695 163.030,236.500 163.099 M289.300 163.099 C 292.105 163.168,296.695 163.168,299.500 163.099 C 302.305 163.030,300.010 162.974,294.400 162.974 C 288.790 162.974,286.495 163.030,289.300 163.099 M188.267 179.067 C 187.897 179.436,187.929 198.309,188.300 198.538 C 188.465 198.640,188.600 194.241,188.600 188.762 C 188.600 183.283,188.585 178.800,188.567 178.800 C 188.548 178.800,188.413 178.920,188.267 179.067 M99.293 186.000 C 99.293 186.770,99.375 187.085,99.476 186.700 C 99.576 186.315,99.576 185.685,99.476 185.300 C 99.375 184.915,99.293 185.230,99.293 186.000 M142.900 185.899 C 145.705 185.968,150.295 185.968,153.100 185.899 C 155.905 185.830,153.610 185.774,148.000 185.774 C 142.390 185.774,140.095 185.830,142.900 185.899 M152.000 203.325 C 152.000 203.394,152.585 203.979,153.300 204.625 L 154.600 205.800 153.425 204.500 C 152.330 203.288,152.000 203.016,152.000 203.325 M188.180 228.800 C 188.180 236.610,188.234 239.805,188.299 235.900 C 188.365 231.995,188.365 225.605,188.299 221.700 C 188.234 217.795,188.180 220.990,188.180 228.800 M258.179 229.800 C 258.179 237.060,258.233 240.086,258.299 236.525 C 258.365 232.964,258.366 227.024,258.299 223.325 C 258.233 219.626,258.179 222.540,258.179 229.800 M159.693 219.200 C 159.693 219.970,159.775 220.285,159.876 219.900 C 159.976 219.515,159.976 218.885,159.876 218.500 C 159.775 218.115,159.693 218.430,159.693 219.200 M152.975 235.700 L 151.800 237.000 153.100 235.825 C 154.312 234.730,154.584 234.400,154.275 234.400 C 154.206 234.400,153.621 234.985,152.975 235.700 " stroke="none" fill="#848494" fill-rule="evenodd"></path></g></svg>