<svg id="svg" version="1.1" xmlns="http://www.w3.org/2000/svg" xmlns:xlink="http://www.w3.org/1999/xlink" width="400" height="400" viewBox="0, 0, 400,400"><g id="svgg"><path id="path0" d="M118.800 86.392 C 103.813 88.405,91.081 99.817,87.103 114.800 L 86.200 118.200 86.200 200.000 L 86.200 281.800 87.093 285.125 C 90.791 298.903,101.097 309.209,114.875 312.907 L 118.200 313.800 200.000 313.800 L 281.800 313.800 285.125 312.907 C 298.903 309.209,309.209 298.903,312.907 285.125 L 313.800 281.800 313.800 200.000 L 313.800 118.200 312.897 114.800 C 309.344 101.415,298.902 90.904,285.400 87.121 L 282.200 86.224 201.600 86.160 C 157.270 86.125,120.010 86.229,118.800 86.392 M266.000 128.334 C 268.397 129.578,270.469 131.631,271.641 133.923 L 272.600 135.800 272.600 200.000 L 272.600 264.200 271.666 266.000 C 270.422 268.397,268.369 270.469,266.077 271.641 L 264.200 272.600 200.000 272.600 L 135.800 272.600 133.923 271.641 C 131.631 270.469,129.578 268.397,128.334 266.000 L 127.400 264.200 127.400 200.000 L 127.400 135.800 128.335 134.000 C 129.915 130.958,132.080 129.037,135.400 127.729 C 136.308 127.372,152.147 127.274,200.400 127.329 L 264.200 127.400 266.000 128.334 M172.872 169.873 C 172.141 170.233,171.061 171.160,170.472 171.932 L 169.400 173.338 169.400 199.969 C 169.400 229.656,169.211 227.612,172.153 229.710 L 173.400 230.600 199.516 230.711 C 228.641 230.835,227.329 230.950,229.523 228.075 L 230.600 226.662 230.600 200.000 L 230.600 173.338 229.523 171.925 C 227.357 169.086,228.590 169.199,199.940 169.209 C 176.927 169.217,174.059 169.288,172.872 169.873 " stroke="none" fill="#040404" fill-rule="evenodd"></path><path id="path1" d="M178.500 0.274 C 176.465 0.360,174.800 0.603,174.800 0.815 C 174.800 1.030,173.383 1.200,171.600 1.200 C 169.733 1.200,168.400 1.367,168.400 1.600 C 168.400 1.820,167.421 2.000,166.224 2.000 C 165.027 2.000,163.936 2.180,163.800 2.400 C 163.664 2.620,162.663 2.800,161.576 2.800 C 160.489 2.800,159.600 2.980,159.600 3.200 C 159.600 3.420,158.801 3.600,157.824 3.600 C 156.847 3.600,155.936 3.780,155.800 4.000 C 155.664 4.220,154.843 4.400,153.976 4.400 C 153.109 4.400,152.400 4.580,152.400 4.800 C 152.400 5.020,151.680 5.200,150.800 5.200 C 149.920 5.200,149.200 5.380,149.200 5.600 C 149.200 5.820,148.581 6.000,147.824 6.000 C 147.067 6.000,146.336 6.180,146.200 6.400 C 146.064 6.620,145.423 6.800,144.776 6.800 C 144.129 6.800,143.600 6.980,143.600 7.200 C 143.600 7.420,142.880 7.600,142.000 7.600 C 141.120 7.600,140.400 7.780,140.400 8.000 C 140.400 8.220,139.860 8.400,139.200 8.400 C 138.540 8.400,138.000 8.580,138.000 8.800 C 138.000 9.020,137.460 9.200,136.800 9.200 C 136.140 9.200,135.600 9.380,135.600 9.600 C 135.600 9.820,135.060 10.000,134.400 10.000 C 133.740 10.000,133.200 10.180,133.200 10.400 C 133.200 10.620,132.660 10.800,132.000 10.800 C 131.340 10.800,130.800 10.980,130.800 11.200 C 130.800 11.420,130.440 11.600,130.000 11.600 C 129.560 11.600,129.200 11.780,129.200 12.000 C 129.200 12.220,128.660 12.400,128.000 12.400 C 127.340 12.400,126.800 12.580,126.800 12.800 C 126.800 13.020,126.440 13.200,126.000 13.200 C 125.560 13.200,125.200 13.380,125.200 13.600 C 125.200 13.820,124.660 14.000,124.000 14.000 C 123.340 14.000,122.800 14.180,122.800 14.400 C 122.800 14.620,122.440 14.800,122.000 14.800 C 121.560 14.800,121.200 14.980,121.200 15.200 C 121.200 15.420,120.761 15.600,120.224 15.600 C 119.687 15.600,119.136 15.780,119.000 16.000 C 118.864 16.220,118.403 16.400,117.976 16.400 C 117.549 16.400,117.200 16.580,117.200 16.800 C 117.200 17.020,116.840 17.200,116.400 17.200 C 115.960 17.200,115.600 17.380,115.600 17.600 C 115.600 17.820,115.240 18.000,114.800 18.000 C 114.360 18.000,114.000 18.180,114.000 18.400 C 114.000 18.620,113.640 18.800,113.200 18.800 C 112.760 18.800,112.400 18.980,112.400 19.200 C 112.400 19.420,112.040 19.600,111.600 19.600 C 111.160 19.600,110.800 19.780,110.800 20.000 C 110.800 20.220,110.440 20.400,110.000 20.400 C 109.560 20.400,109.200 20.580,109.200 20.800 C 109.200 21.020,108.840 21.200,108.400 21.200 C 107.960 21.200,107.600 21.380,107.600 21.600 C 107.600 21.820,107.240 22.000,106.800 22.000 C 106.360 22.000,106.000 22.180,106.000 22.400 C 106.000 22.620,105.640 22.800,105.200 22.800 C 104.760 22.800,104.400 22.980,104.400 23.200 C 104.400 23.420,104.040 23.600,103.600 23.600 C 103.160 23.600,102.800 23.780,102.800 24.000 C 102.800 24.220,102.480 24.400,102.088 24.400 C 101.697 24.400,101.117 24.760,100.800 25.200 C 100.483 25.640,99.903 26.000,99.512 26.000 C 99.120 26.000,98.800 26.180,98.800 26.400 C 98.800 26.620,98.440 26.800,98.000 26.800 C 97.560 26.800,97.200 26.980,97.200 27.200 C 97.200 27.420,96.964 27.600,96.675 27.600 C 96.387 27.600,95.764 27.960,95.292 28.400 C 94.820 28.840,94.196 29.200,93.905 29.200 C 93.614 29.200,93.117 29.560,92.800 30.000 C 92.483 30.440,91.943 30.800,91.600 30.800 C 91.257 30.800,90.717 31.160,90.400 31.600 C 90.083 32.040,89.503 32.400,89.112 32.400 C 88.720 32.400,88.400 32.580,88.400 32.800 C 88.400 33.020,88.157 33.200,87.859 33.200 C 87.562 33.200,86.754 33.740,86.063 34.400 C 85.372 35.060,84.575 35.600,84.292 35.600 C 84.009 35.600,83.517 35.960,83.200 36.400 C 82.883 36.840,82.420 37.200,82.171 37.200 C 81.922 37.200,81.154 37.740,80.463 38.400 C 79.772 39.060,79.047 39.600,78.852 39.600 C 78.656 39.600,77.755 40.320,76.848 41.200 C 75.941 42.080,75.005 42.800,74.768 42.800 C 74.531 42.800,73.646 43.520,72.800 44.400 C 71.954 45.280,71.084 46.000,70.866 46.000 C 70.648 46.000,69.373 47.080,68.032 48.400 C 66.692 49.720,65.430 50.800,65.228 50.800 C 64.750 50.800,50.800 64.750,50.800 65.228 C 50.800 65.430,49.720 66.692,48.400 68.032 C 47.080 69.373,46.000 70.648,46.000 70.866 C 46.000 71.084,45.280 71.954,44.400 72.800 C 43.520 73.646,42.800 74.531,42.800 74.768 C 42.800 75.005,42.080 75.941,41.200 76.848 C 40.320 77.755,39.600 78.656,39.600 78.852 C 39.600 79.047,39.060 79.772,38.400 80.463 C 37.740 81.154,37.200 81.922,37.200 82.171 C 37.200 82.420,36.840 82.883,36.400 83.200 C 35.960 83.517,35.600 84.009,35.600 84.292 C 35.600 84.575,35.060 85.372,34.400 86.063 C 33.740 86.754,33.200 87.562,33.200 87.859 C 33.200 88.157,33.020 88.400,32.800 88.400 C 32.580 88.400,32.400 88.720,32.400 89.112 C 32.400 89.503,32.040 90.083,31.600 90.400 C 31.160 90.717,30.800 91.257,30.800 91.600 C 30.800 91.943,30.440 92.483,30.000 92.800 C 29.560 93.117,29.200 93.614,29.200 93.905 C 29.200 94.196,28.840 94.820,28.400 95.292 C 27.960 95.764,27.600 96.387,27.600 96.675 C 27.600 96.964,27.420 97.200,27.200 97.200 C 26.980 97.200,26.800 97.560,26.800 98.000 C 26.800 98.440,26.620 98.800,26.400 98.800 C 26.180 98.800,26.000 99.120,26.000 99.512 C 26.000 99.903,25.640 100.483,25.200 100.800 C 24.760 101.117,24.400 101.697,24.400 102.088 C 24.400 102.480,24.220 102.800,24.000 102.800 C 23.780 102.800,23.600 103.160,23.600 103.600 C 23.600 104.040,23.420 104.400,23.200 104.400 C 22.980 104.400,22.800 104.760,22.800 105.200 C 22.800 105.640,22.620 106.000,22.400 106.000 C 22.180 106.000,22.000 106.360,22.000 106.800 C 22.000 107.240,21.820 107.600,21.600 107.600 C 21.380 107.600,21.200 107.960,21.200 108.400 C 21.200 108.840,21.020 109.200,20.800 109.200 C 20.580 109.200,20.400 109.560,20.400 110.000 C 20.400 110.440,20.220 110.800,20.000 110.800 C 19.780 110.800,19.600 111.160,19.600 111.600 C 19.600 112.040,19.420 112.400,19.200 112.400 C 18.980 112.400,18.800 112.760,18.800 113.200 C 18.800 113.640,18.620 114.000,18.400 114.000 C 18.180 114.000,18.000 114.360,18.000 114.800 C 18.000 115.240,17.820 115.600,17.600 115.600 C 17.380 115.600,17.200 115.960,17.200 116.400 C 17.200 116.840,17.020 117.200,16.800 117.200 C 16.580 117.200,16.400 117.549,16.400 117.976 C 16.400 118.403,16.220 118.864,16.000 119.000 C 15.780 119.136,15.600 119.687,15.600 120.224 C 15.600 120.761,15.420 121.200,15.200 121.200 C 14.980 121.200,14.800 121.560,14.800 122.000 C 14.800 122.440,14.620 122.800,14.400 122.800 C 14.180 122.800,14.000 123.340,14.000 124.000 C 14.000 124.660,13.820 125.200,13.600 125.200 C 13.380 125.200,13.200 125.560,13.200 126.000 C 13.200 126.440,13.020 126.800,12.800 126.800 C 12.580 126.800,12.400 127.340,12.400 128.000 C 12.400 128.660,12.220 129.200,12.000 129.200 C 11.780 129.200,11.600 129.560,11.600 130.000 C 11.600 130.440,11.420 130.800,11.200 130.800 C 10.980 130.800,10.800 131.340,10.800 132.000 C 10.800 132.660,10.620 133.200,10.400 133.200 C 10.180 133.200,10.000 133.740,10.000 134.400 C 10.000 135.060,9.820 135.600,9.600 135.600 C 9.380 135.600,9.200 136.140,9.200 136.800 C 9.200 137.460,9.020 138.000,8.800 138.000 C 8.580 138.000,8.400 138.540,8.400 139.200 C 8.400 139.860,8.220 140.400,8.000 140.400 C 7.780 140.400,7.600 141.120,7.600 142.000 C 7.600 142.880,7.420 143.600,7.200 143.600 C 6.980 143.600,6.800 144.129,6.800 144.776 C 6.800 145.423,6.620 146.064,6.400 146.200 C 6.180 146.336,6.000 147.067,6.000 147.824 C 6.000 148.581,5.820 149.200,5.600 149.200 C 5.380 149.200,5.200 149.920,5.200 150.800 C 5.200 151.680,5.020 152.400,4.800 152.400 C 4.580 152.400,4.400 153.109,4.400 153.976 C 4.400 154.843,4.220 155.664,4.000 155.800 C 3.780 155.936,3.600 156.847,3.600 157.824 C 3.600 158.801,3.420 159.600,3.200 159.600 C 2.980 159.600,2.800 160.489,2.800 161.576 C 2.800 162.663,2.620 163.664,2.400 163.800 C 2.180 163.936,2.000 165.027,2.000 166.224 C 2.000 167.421,1.820 168.400,1.600 168.400 C 1.367 168.400,1.200 169.722,1.200 171.567 C 1.200 173.744,1.044 174.785,0.700 174.900 C -0.032 175.144,-0.032 224.856,0.700 225.100 C 1.044 225.215,1.200 226.256,1.200 228.433 C 1.200 230.278,1.367 231.600,1.600 231.600 C 1.820 231.600,2.000 232.579,2.000 233.776 C 2.000 234.973,2.180 236.064,2.400 236.200 C 2.620 236.336,2.800 237.337,2.800 238.424 C 2.800 239.511,2.980 240.400,3.200 240.400 C 3.420 240.400,3.600 241.199,3.600 242.176 C 3.600 243.153,3.780 244.064,4.000 244.200 C 4.220 244.336,4.400 245.157,4.400 246.024 C 4.400 246.891,4.580 247.600,4.800 247.600 C 5.020 247.600,5.200 248.320,5.200 249.200 C 5.200 250.080,5.380 250.800,5.600 250.800 C 5.820 250.800,6.000 251.419,6.000 252.176 C 6.000 252.933,6.180 253.664,6.400 253.800 C 6.620 253.936,6.800 254.577,6.800 255.224 C 6.800 255.871,6.980 256.400,7.200 256.400 C 7.420 256.400,7.600 257.120,7.600 258.000 C 7.600 258.880,7.780 259.600,8.000 259.600 C 8.220 259.600,8.400 260.140,8.400 260.800 C 8.400 261.460,8.580 262.000,8.800 262.000 C 9.020 262.000,9.200 262.540,9.200 263.200 C 9.200 263.860,9.380 264.400,9.600 264.400 C 9.820 264.400,10.000 264.940,10.000 265.600 C 10.000 266.260,10.180 266.800,10.400 266.800 C 10.620 266.800,10.800 267.340,10.800 268.000 C 10.800 268.660,10.980 269.200,11.200 269.200 C 11.420 269.200,11.600 269.560,11.600 270.000 C 11.600 270.440,11.780 270.800,12.000 270.800 C 12.220 270.800,12.400 271.340,12.400 272.000 C 12.400 272.660,12.580 273.200,12.800 273.200 C 13.020 273.200,13.200 273.560,13.200 274.000 C 13.200 274.440,13.380 274.800,13.600 274.800 C 13.820 274.800,14.000 275.340,14.000 276.000 C 14.000 276.660,14.180 277.200,14.400 277.200 C 14.620 277.200,14.800 277.560,14.800 278.000 C 14.800 278.440,14.980 278.800,15.200 278.800 C 15.420 278.800,15.600 279.239,15.600 279.776 C 15.600 280.313,15.780 280.864,16.000 281.000 C 16.220 281.136,16.400 281.597,16.400 282.024 C 16.400 282.451,16.580 282.800,16.800 282.800 C 17.020 282.800,17.200 283.160,17.200 283.600 C 17.200 284.040,17.380 284.400,17.600 284.400 C 17.820 284.400,18.000 284.760,18.000 285.200 C 18.000 285.640,18.180 286.000,18.400 286.000 C 18.620 286.000,18.800 286.360,18.800 286.800 C 18.800 287.240,18.980 287.600,19.200 287.600 C 19.420 287.600,19.600 287.960,19.600 288.400 C 19.600 288.840,19.780 289.200,20.000 289.200 C 20.220 289.200,20.400 289.560,20.400 290.000 C 20.400 290.440,20.580 290.800,20.800 290.800 C 21.020 290.800,21.200 291.160,21.200 291.600 C 21.200 292.040,21.380 292.400,21.600 292.400 C 21.820 292.400,22.000 292.760,22.000 293.200 C 22.000 293.640,22.180 294.000,22.400 294.000 C 22.620 294.000,22.800 294.360,22.800 294.800 C 22.800 295.240,22.980 295.600,23.200 295.600 C 23.420 295.600,23.600 295.960,23.600 296.400 C 23.600 296.840,23.780 297.200,24.000 297.200 C 24.220 297.200,24.400 297.520,24.400 297.912 C 24.400 298.303,24.760 298.883,25.200 299.200 C 25.640 299.517,26.000 300.097,26.000 300.488 C 26.000 300.880,26.180 301.200,26.400 301.200 C 26.620 301.200,26.800 301.560,26.800 302.000 C 26.800 302.440,26.980 302.800,27.200 302.800 C 27.420 302.800,27.600 303.036,27.600 303.325 C 27.600 303.613,27.960 304.236,28.400 304.708 C 28.840 305.180,29.200 305.804,29.200 306.095 C 29.200 306.386,29.560 306.883,30.000 307.200 C 30.440 307.517,30.800 308.057,30.800 308.400 C 30.800 308.743,31.160 309.283,31.600 309.600 C 32.040 309.917,32.400 310.497,32.400 310.888 C 32.400 311.280,32.580 311.600,32.800 311.600 C 33.020 311.600,33.200 311.843,33.200 312.141 C 33.200 312.438,33.740 313.246,34.400 313.937 C 35.060 314.628,35.600 315.425,35.600 315.708 C 35.600 315.991,35.960 316.483,36.400 316.800 C 36.840 317.117,37.200 317.580,37.200 317.829 C 37.200 318.078,37.740 318.846,38.400 319.537 C 39.060 320.228,39.600 320.953,39.600 321.148 C 39.600 321.344,40.320 322.245,41.200 323.152 C 42.080 324.059,42.800 324.995,42.800 325.232 C 42.800 325.469,43.520 326.354,44.400 327.200 C 45.280 328.046,46.000 328.916,46.000 329.134 C 46.000 329.352,47.080 330.627,48.400 331.968 C 49.720 333.308,50.800 334.570,50.800 334.772 C 50.800 335.250,64.750 349.200,65.228 349.200 C 65.430 349.200,66.692 350.280,68.032 351.600 C 69.373 352.920,70.648 354.000,70.866 354.000 C 71.084 354.000,71.954 354.720,72.800 355.600 C 73.646 356.480,74.531 357.200,74.768 357.200 C 75.005 357.200,75.941 357.920,76.848 358.800 C 77.755 359.680,78.656 360.400,78.852 360.400 C 79.047 360.400,79.772 360.940,80.463 361.600 C 81.154 362.260,81.922 362.800,82.171 362.800 C 82.420 362.800,82.883 363.160,83.200 363.600 C 83.517 364.040,84.009 364.400,84.292 364.400 C 84.575 364.400,85.372 364.940,86.063 365.600 C 86.754 366.260,87.562 366.800,87.859 366.800 C 88.157 366.800,88.400 366.980,88.400 367.200 C 88.400 367.420,88.720 367.600,89.112 367.600 C 89.503 367.600,90.083 367.960,90.400 368.400 C 90.717 368.840,91.257 369.200,91.600 369.200 C 91.943 369.200,92.483 369.560,92.800 370.000 C 93.117 370.440,93.614 370.800,93.905 370.800 C 94.196 370.800,94.820 371.160,95.292 371.600 C 95.764 372.040,96.387 372.400,96.675 372.400 C 96.964 372.400,97.200 372.580,97.200 372.800 C 97.200 373.020,97.560 373.200,98.000 373.200 C 98.440 373.200,98.800 373.380,98.800 373.600 C 98.800 373.820,99.120 374.000,99.512 374.000 C 99.903 374.000,100.483 374.360,100.800 374.800 C 101.117 375.240,101.697 375.600,102.088 375.600 C 102.480 375.600,102.800 375.780,102.800 376.000 C 102.800 376.220,103.160 376.400,103.600 376.400 C 104.040 376.400,104.400 376.580,104.400 376.800 C 104.400 377.020,104.760 377.200,105.200 377.200 C 105.640 377.200,106.000 377.380,106.000 377.600 C 106.000 377.820,106.360 378.000,106.800 378.000 C 107.240 378.000,107.600 378.180,107.600 378.400 C 107.600 378.620,107.960 378.800,108.400 378.800 C 108.840 378.800,109.200 378.980,109.200 379.200 C 109.200 379.420,109.560 379.600,110.000 379.600 C 110.440 379.600,110.800 379.780,110.800 380.000 C 110.800 380.220,111.160 380.400,111.600 380.400 C 112.040 380.400,112.400 380.580,112.400 380.800 C 112.400 381.020,112.760 381.200,113.200 381.200 C 113.640 381.200,114.000 381.380,114.000 381.600 C 114.000 381.820,114.360 382.000,114.800 382.000 C 115.240 382.000,115.600 382.180,115.600 382.400 C 115.600 382.620,115.960 382.800,116.400 382.800 C 116.840 382.800,117.200 382.980,117.200 383.200 C 117.200 383.420,117.549 383.600,117.976 383.600 C 118.403 383.600,118.864 383.780,119.000 384.000 C 119.136 384.220,119.687 384.400,120.224 384.400 C 120.761 384.400,121.200 384.580,121.200 384.800 C 121.200 385.020,121.560 385.200,122.000 385.200 C 122.440 385.200,122.800 385.380,122.800 385.600 C 122.800 385.820,123.340 386.000,124.000 386.000 C 124.660 386.000,125.200 386.180,125.200 386.400 C 125.200 386.620,125.560 386.800,126.000 386.800 C 126.440 386.800,126.800 386.980,126.800 387.200 C 126.800 387.420,127.340 387.600,128.000 387.600 C 128.660 387.600,129.200 387.780,129.200 388.000 C 129.200 388.220,129.560 388.400,130.000 388.400 C 130.440 388.400,130.800 388.580,130.800 388.800 C 130.800 389.020,131.340 389.200,132.000 389.200 C 132.660 389.200,133.200 389.380,133.200 389.600 C 133.200 389.820,133.740 390.000,134.400 390.000 C 135.060 390.000,135.600 390.180,135.600 390.400 C 135.600 390.620,136.140 390.800,136.800 390.800 C 137.460 390.800,138.000 390.980,138.000 391.200 C 138.000 391.420,138.540 391.600,139.200 391.600 C 139.860 391.600,140.400 391.780,140.400 392.000 C 140.400 392.220,141.120 392.400,142.000 392.400 C 142.880 392.400,143.600 392.580,143.600 392.800 C 143.600 393.020,144.129 393.200,144.776 393.200 C 145.423 393.200,146.064 393.380,146.200 393.600 C 146.336 393.820,147.067 394.000,147.824 394.000 C 148.581 394.000,149.200 394.180,149.200 394.400 C 149.200 394.620,149.920 394.800,150.800 394.800 C 151.680 394.800,152.400 394.980,152.400 395.200 C 152.400 395.420,153.109 395.600,153.976 395.600 C 154.843 395.600,155.664 395.780,155.800 396.000 C 155.936 396.220,156.847 396.400,157.824 396.400 C 158.801 396.400,159.600 396.580,159.600 396.800 C 159.600 397.020,160.489 397.200,161.576 397.200 C 162.663 397.200,163.664 397.380,163.800 397.600 C 163.936 397.820,165.027 398.000,166.224 398.000 C 167.421 398.000,168.400 398.180,168.400 398.400 C 168.400 398.633,169.722 398.800,171.567 398.800 C 173.744 398.800,174.785 398.956,174.900 399.300 C 175.144 400.032,224.856 400.032,225.100 399.300 C 225.215 398.956,226.256 398.800,228.433 398.800 C 230.278 398.800,231.600 398.633,231.600 398.400 C 231.600 398.180,232.579 398.000,233.776 398.000 C 234.973 398.000,236.064 397.820,236.200 397.600 C 236.336 397.380,237.337 397.200,238.424 397.200 C 239.511 397.200,240.400 397.020,240.400 396.800 C 240.400 396.580,241.199 396.400,242.176 396.400 C 243.153 396.400,244.064 396.220,244.200 396.000 C 244.336 395.780,245.157 395.600,246.024 395.600 C 246.891 395.600,247.600 395.420,247.600 395.200 C 247.600 394.980,248.320 394.800,249.200 394.800 C 250.080 394.800,250.800 394.620,250.800 394.400 C 250.800 394.180,251.419 394.000,252.176 394.000 C 252.933 394.000,253.664 393.820,253.800 393.600 C 253.936 393.380,254.577 393.200,255.224 393.200 C 255.871 393.200,256.400 393.020,256.400 392.800 C 256.400 392.580,257.120 392.400,258.000 392.400 C 258.880 392.400,259.600 392.220,259.600 392.000 C 259.600 391.780,260.140 391.600,260.800 391.600 C 261.460 391.600,262.000 391.420,262.000 391.200 C 262.000 390.980,262.540 390.800,263.200 390.800 C 263.860 390.800,264.400 390.620,264.400 390.400 C 264.400 390.180,264.940 390.000,265.600 390.000 C 266.260 390.000,266.800 389.820,266.800 389.600 C 266.800 389.380,267.340 389.200,268.000 389.200 C 268.660 389.200,269.200 389.020,269.200 388.800 C 269.200 388.580,269.560 388.400,270.000 388.400 C 270.440 388.400,270.800 388.220,270.800 388.000 C 270.800 387.780,271.340 387.600,272.000 387.600 C 272.660 387.600,273.200 387.420,273.200 387.200 C 273.200 386.980,273.560 386.800,274.000 386.800 C 274.440 386.800,274.800 386.620,274.800 386.400 C 274.800 386.180,275.340 386.000,276.000 386.000 C 276.660 386.000,277.200 385.820,277.200 385.600 C 277.200 385.380,277.560 385.200,278.000 385.200 C 278.440 385.200,278.800 385.020,278.800 384.800 C 278.800 384.580,279.239 384.400,279.776 384.400 C 280.313 384.400,280.864 384.220,281.000 384.000 C 281.136 383.780,281.597 383.600,282.024 383.600 C 282.451 383.600,282.800 383.420,282.800 383.200 C 282.800 382.980,283.160 382.800,283.600 382.800 C 284.040 382.800,284.400 382.620,284.400 382.400 C 284.400 382.180,284.760 382.000,285.200 382.000 C 285.640 382.000,286.000 381.820,286.000 381.600 C 286.000 381.380,286.360 381.200,286.800 381.200 C 287.240 381.200,287.600 381.020,287.600 380.800 C 287.600 380.580,287.960 380.400,288.400 380.400 C 288.840 380.400,289.200 380.220,289.200 380.000 C 289.200 379.780,289.560 379.600,290.000 379.600 C 290.440 379.600,290.800 379.420,290.800 379.200 C 290.800 378.980,291.160 378.800,291.600 378.800 C 292.040 378.800,292.400 378.620,292.400 378.400 C 292.400 378.180,292.760 378.000,293.200 378.000 C 293.640 378.000,294.000 377.820,294.000 377.600 C 294.000 377.380,294.360 377.200,294.800 377.200 C 295.240 377.200,295.600 377.020,295.600 376.800 C 295.600 376.580,295.960 376.400,296.400 376.400 C 296.840 376.400,297.200 376.220,297.200 376.000 C 297.200 375.780,297.520 375.600,297.912 375.600 C 298.303 375.600,298.883 375.240,299.200 374.800 C 299.517 374.360,300.097 374.000,300.488 374.000 C 300.880 374.000,301.200 373.820,301.200 373.600 C 301.200 373.380,301.560 373.200,302.000 373.200 C 302.440 373.200,302.800 373.020,302.800 372.800 C 302.800 372.580,303.036 372.400,303.325 372.400 C 303.613 372.400,304.236 372.040,304.708 371.600 C 305.180 371.160,305.804 370.800,306.095 370.800 C 306.386 370.800,306.883 370.440,307.200 370.000 C 307.517 369.560,308.057 369.200,308.400 369.200 C 308.743 369.200,309.283 368.840,309.600 368.400 C 309.917 367.960,310.497 367.600,310.888 367.600 C 311.280 367.600,311.600 367.420,311.600 367.200 C 311.600 366.980,311.843 366.800,312.141 366.800 C 312.438 366.800,313.246 366.260,313.937 365.600 C 314.628 364.940,315.425 364.400,315.708 364.400 C 315.991 364.400,316.483 364.040,316.800 363.600 C 317.117 363.160,317.580 362.800,317.829 362.800 C 318.078 362.800,318.846 362.260,319.537 361.600 C 320.228 360.940,320.953 360.400,321.148 360.400 C 321.344 360.400,322.245 359.680,323.152 358.800 C 324.059 357.920,324.995 357.200,325.232 357.200 C 325.469 357.200,326.354 356.480,327.200 355.600 C 328.046 354.720,328.916 354.000,329.134 354.000 C 329.352 354.000,330.627 352.920,331.968 351.600 C 333.308 350.280,334.570 349.200,334.772 349.200 C 335.250 349.200,349.200 335.250,349.200 334.772 C 349.200 334.570,350.280 333.308,351.600 331.968 C 352.920 330.627,354.000 329.352,354.000 329.134 C 354.000 328.916,354.720 328.046,355.600 327.200 C 356.480 326.354,357.200 325.469,357.200 325.232 C 357.200 324.995,357.920 324.059,358.800 323.152 C 359.680 322.245,360.400 321.344,360.400 321.148 C 360.400 320.953,360.940 320.228,361.600 319.537 C 362.260 318.846,362.800 318.078,362.800 317.829 C 362.800 317.580,363.160 317.117,363.600 316.800 C 364.040 316.483,364.400 315.991,364.400 315.708 C 364.400 315.425,364.940 314.628,365.600 313.937 C 366.260 313.246,366.800 312.438,366.800 312.141 C 366.800 311.843,366.980 311.600,367.200 311.600 C 367.420 311.600,367.600 311.280,367.600 310.888 C 367.600 310.497,367.960 309.917,368.400 309.600 C 368.840 309.283,369.200 308.743,369.200 308.400 C 369.200 308.057,369.560 307.517,370.000 307.200 C 370.440 306.883,370.800 306.386,370.800 306.095 C 370.800 305.804,371.160 305.180,371.600 304.708 C 372.040 304.236,372.400 303.613,372.400 303.325 C 372.400 303.036,372.580 302.800,372.800 302.800 C 373.020 302.800,373.200 302.440,373.200 302.000 C 373.200 301.560,373.380 301.200,373.600 301.200 C 373.820 301.200,374.000 300.880,374.000 300.488 C 374.000 300.097,374.360 299.517,374.800 299.200 C 375.240 298.883,375.600 298.303,375.600 297.912 C 375.600 297.520,375.780 297.200,376.000 297.200 C 376.220 297.200,376.400 296.840,376.400 296.400 C 376.400 295.960,376.580 295.600,376.800 295.600 C 377.020 295.600,377.200 295.240,377.200 294.800 C 377.200 294.360,377.380 294.000,377.600 294.000 C 377.820 294.000,378.000 293.640,378.000 293.200 C 378.000 292.760,378.180 292.400,378.400 292.400 C 378.620 292.400,378.800 292.040,378.800 291.600 C 378.800 291.160,378.980 290.800,379.200 290.800 C 379.420 290.800,379.600 290.440,379.600 290.000 C 379.600 289.560,379.780 289.200,380.000 289.200 C 380.220 289.200,380.400 288.840,380.400 288.400 C 380.400 287.960,380.580 287.600,380.800 287.600 C 381.020 287.600,381.200 287.240,381.200 286.800 C 381.200 286.360,381.380 286.000,381.600 286.000 C 381.820 286.000,382.000 285.640,382.000 285.200 C 382.000 284.760,382.180 284.400,382.400 284.400 C 382.620 284.400,382.800 284.040,382.800 283.600 C 382.800 283.160,382.980 282.800,383.200 282.800 C 383.420 282.800,383.600 282.451,383.600 282.024 C 383.600 281.597,383.780 281.136,384.000 281.000 C 384.220 280.864,384.400 280.313,384.400 279.776 C 384.400 279.239,384.580 278.800,384.800 278.800 C 385.020 278.800,385.200 278.440,385.200 278.000 C 385.200 277.560,385.380 277.200,385.600 277.200 C 385.820 277.200,386.000 276.660,386.000 276.000 C 386.000 275.340,386.180 274.800,386.400 274.800 C 386.620 274.800,386.800 274.440,386.800 274.000 C 386.800 273.560,386.980 273.200,387.200 273.200 C 387.420 273.200,387.600 272.660,387.600 272.000 C 387.600 271.340,387.780 270.800,388.000 270.800 C 388.220 270.800,388.400 270.440,388.400 270.000 C 388.400 269.560,388.580 269.200,388.800 269.200 C 389.020 269.200,389.200 268.660,389.200 268.000 C 389.200 267.340,389.380 266.800,389.600 266.800 C 389.820 266.800,390.000 266.260,390.000 265.600 C 390.000 264.940,390.180 264.400,390.400 264.400 C 390.620 264.400,390.800 263.860,390.800 263.200 C 390.800 262.540,390.980 262.000,391.200 262.000 C 391.420 262.000,391.600 261.460,391.600 260.800 C 391.600 260.140,391.780 259.600,392.000 259.600 C 392.220 259.600,392.400 258.880,392.400 258.000 C 392.400 257.120,392.580 256.400,392.800 256.400 C 393.020 256.400,393.200 255.871,393.200 255.224 C 393.200 254.577,393.380 253.936,393.600 253.800 C 393.820 253.664,394.000 252.933,394.000 252.176 C 394.000 251.419,394.180 250.800,394.400 250.800 C 394.620 250.800,394.800 250.080,394.800 249.200 C 394.800 248.320,394.980 247.600,395.200 247.600 C 395.420 247.600,395.600 246.891,395.600 246.024 C 395.600 245.157,395.780 244.336,396.000 244.200 C 396.220 244.064,396.400 243.153,396.400 242.176 C 396.400 241.199,396.580 240.400,396.800 240.400 C 397.020 240.400,397.200 239.511,397.200 238.424 C 397.200 237.337,397.380 236.336,397.600 236.200 C 397.820 236.064,398.000 234.973,398.000 233.776 C 398.000 232.579,398.180 231.600,398.400 231.600 C 398.633 231.600,398.800 230.278,398.800 228.433 C 398.800 226.256,398.956 225.215,399.300 225.100 C 399.693 224.969,399.800 219.591,399.800 200.000 C 399.800 180.409,399.693 175.031,399.300 174.900 C 398.956 174.785,398.800 173.744,398.800 171.567 C 398.800 169.722,398.633 168.400,398.400 168.400 C 398.180 168.400,398.000 167.421,398.000 166.224 C 398.000 165.027,397.820 163.936,397.600 163.800 C 397.380 163.664,397.200 162.663,397.200 161.576 C 397.200 160.489,397.020 159.600,396.800 159.600 C 396.580 159.600,396.400 158.801,396.400 157.824 C 396.400 156.847,396.220 155.936,396.000 155.800 C 395.780 155.664,395.600 154.843,395.600 153.976 C 395.600 153.109,395.420 152.400,395.200 152.400 C 394.980 152.400,394.800 151.680,394.800 150.800 C 394.800 149.920,394.620 149.200,394.400 149.200 C 394.180 149.200,394.000 148.581,394.000 147.824 C 394.000 147.067,393.820 146.336,393.600 146.200 C 393.380 146.064,393.200 145.423,393.200 144.776 C 393.200 144.129,393.020 143.600,392.800 143.600 C 392.580 143.600,392.400 142.880,392.400 142.000 C 392.400 141.120,392.220 140.400,392.000 140.400 C 391.780 140.400,391.600 139.860,391.600 139.200 C 391.600 138.540,391.420 138.000,391.200 138.000 C 390.980 138.000,390.800 137.460,390.800 136.800 C 390.800 136.140,390.620 135.600,390.400 135.600 C 390.180 135.600,390.000 135.060,390.000 134.400 C 390.000 133.740,389.820 133.200,389.600 133.200 C 389.380 133.200,389.200 132.660,389.200 132.000 C 389.200 131.340,389.020 130.800,388.800 130.800 C 388.580 130.800,388.400 130.440,388.400 130.000 C 388.400 129.560,388.220 129.200,388.000 129.200 C 387.780 129.200,387.600 128.660,387.600 128.000 C 387.600 127.340,387.420 126.800,387.200 126.800 C 386.980 126.800,386.800 126.440,386.800 126.000 C 386.800 125.560,386.620 125.200,386.400 125.200 C 386.180 125.200,386.000 124.660,386.000 124.000 C 386.000 123.340,385.820 122.800,385.600 122.800 C 385.380 122.800,385.200 122.440,385.200 122.000 C 385.200 121.560,385.020 121.200,384.800 121.200 C 384.580 121.200,384.400 120.761,384.400 120.224 C 384.400 119.687,384.220 119.136,384.000 119.000 C 383.780 118.864,383.600 118.403,383.600 117.976 C 383.600 117.549,383.420 117.200,383.200 117.200 C 382.980 117.200,382.800 116.840,382.800 116.400 C 382.800 115.960,382.620 115.600,382.400 115.600 C 382.180 115.600,382.000 115.240,382.000 114.800 C 382.000 114.360,381.820 114.000,381.600 114.000 C 381.380 114.000,381.200 113.640,381.200 113.200 C 381.200 112.760,381.020 112.400,380.800 112.400 C 380.580 112.400,380.400 112.040,380.400 111.600 C 380.400 111.160,380.220 110.800,380.000 110.800 C 379.780 110.800,379.600 110.440,379.600 110.000 C 379.600 109.560,379.420 109.200,379.200 109.200 C 378.980 109.200,378.800 108.840,378.800 108.400 C 378.800 107.960,378.620 107.600,378.400 107.600 C 378.180 107.600,378.000 107.240,378.000 106.800 C 378.000 106.360,377.820 106.000,377.600 106.000 C 377.380 106.000,377.200 105.640,377.200 105.200 C 377.200 104.760,377.020 104.400,376.800 104.400 C 376.580 104.400,376.400 104.040,376.400 103.600 C 376.400 103.160,376.220 102.800,376.000 102.800 C 375.780 102.800,375.600 102.480,375.600 102.088 C 375.600 101.697,375.240 101.117,374.800 100.800 C 374.360 100.483,374.000 99.903,374.000 99.512 C 374.000 99.120,373.820 98.800,373.600 98.800 C 373.380 98.800,373.200 98.440,373.200 98.000 C 373.200 97.560,373.020 97.200,372.800 97.200 C 372.580 97.200,372.400 96.964,372.400 96.675 C 372.400 96.387,372.040 95.764,371.600 95.292 C 371.160 94.820,370.800 94.196,370.800 93.905 C 370.800 93.614,370.440 93.117,370.000 92.800 C 369.560 92.483,369.200 91.943,369.200 91.600 C 369.200 91.257,368.840 90.717,368.400 90.400 C 367.960 90.083,367.600 89.503,367.600 89.112 C 367.600 88.720,367.420 88.400,367.200 88.400 C 366.980 88.400,366.800 88.157,366.800 87.859 C 366.800 87.562,366.260 86.754,365.600 86.063 C 364.940 85.372,364.400 84.575,364.400 84.292 C 364.400 84.009,364.040 83.517,363.600 83.200 C 363.160 82.883,362.800 82.420,362.800 82.171 C 362.800 81.922,362.260 81.154,361.600 80.463 C 360.940 79.772,360.400 79.047,360.400 78.852 C 360.400 78.656,359.680 77.755,358.800 76.848 C 357.920 75.941,357.200 75.005,357.200 74.768 C 357.200 74.531,356.480 73.646,355.600 72.800 C 354.720 71.954,354.000 71.084,354.000 70.866 C 354.000 70.648,352.920 69.373,351.600 68.032 C 350.280 66.692,349.200 65.430,349.200 65.228 C 349.200 64.750,335.250 50.800,334.772 50.800 C 334.570 50.800,333.308 49.720,331.968 48.400 C 330.627 47.080,329.352 46.000,329.134 46.000 C 328.916 46.000,328.046 45.280,327.200 44.400 C 326.354 43.520,325.469 42.800,325.232 42.800 C 324.995 42.800,324.059 42.080,323.152 41.200 C 322.245 40.320,321.344 39.600,321.148 39.600 C 320.953 39.600,320.228 39.060,319.537 38.400 C 318.846 37.740,318.078 37.200,317.829 37.200 C 317.580 37.200,317.117 36.840,316.800 36.400 C 316.483 35.960,315.991 35.600,315.708 35.600 C 315.425 35.600,314.628 35.060,313.937 34.400 C 313.246 33.740,312.438 33.200,312.141 33.200 C 311.843 33.200,311.600 33.020,311.600 32.800 C 311.600 32.580,311.280 32.400,310.888 32.400 C 310.497 32.400,309.917 32.040,309.600 31.600 C 309.283 31.160,308.743 30.800,308.400 30.800 C 308.057 30.800,307.517 30.440,307.200 30.000 C 306.883 29.560,306.386 29.200,306.095 29.200 C 305.804 29.200,305.180 28.840,304.708 28.400 C 304.236 27.960,303.613 27.600,303.325 27.600 C 303.036 27.600,302.800 27.420,302.800 27.200 C 302.800 26.980,302.440 26.800,302.000 26.800 C 301.560 26.800,301.200 26.620,301.200 26.400 C 301.200 26.180,300.880 26.000,300.488 26.000 C 300.097 26.000,299.517 25.640,299.200 25.200 C 298.883 24.760,298.303 24.400,297.912 24.400 C 297.520 24.400,297.200 24.220,297.200 24.000 C 297.200 23.780,296.840 23.600,296.400 23.600 C 295.960 23.600,295.600 23.420,295.600 23.200 C 295.600 22.980,295.240 22.800,294.800 22.800 C 294.360 22.800,294.000 22.620,294.000 22.400 C 294.000 22.180,293.640 22.000,293.200 22.000 C 292.760 22.000,292.400 21.820,292.400 21.600 C 292.400 21.380,292.040 21.200,291.600 21.200 C 291.160 21.200,290.800 21.020,290.800 20.800 C 290.800 20.580,290.440 20.400,290.000 20.400 C 289.560 20.400,289.200 20.220,289.200 20.000 C 289.200 19.780,288.840 19.600,288.400 19.600 C 287.960 19.600,287.600 19.420,287.600 19.200 C 287.600 18.980,287.240 18.800,286.800 18.800 C 286.360 18.800,286.000 18.620,286.000 18.400 C 286.000 18.180,285.640 18.000,285.200 18.000 C 284.760 18.000,284.400 17.820,284.400 17.600 C 284.400 17.380,284.040 17.200,283.600 17.200 C 283.160 17.200,282.800 17.020,282.800 16.800 C 282.800 16.580,282.451 16.400,282.024 16.400 C 281.597 16.400,281.136 16.220,281.000 16.000 C 280.864 15.780,280.313 15.600,279.776 15.600 C 279.239 15.600,278.800 15.420,278.800 15.200 C 278.800 14.980,278.440 14.800,278.000 14.800 C 277.560 14.800,277.200 14.620,277.200 14.400 C 277.200 14.180,276.660 14.000,276.000 14.000 C 275.340 14.000,274.800 13.820,274.800 13.600 C 274.800 13.380,274.440 13.200,274.000 13.200 C 273.560 13.200,273.200 13.020,273.200 12.800 C 273.200 12.580,272.660 12.400,272.000 12.400 C 271.340 12.400,270.800 12.220,270.800 12.000 C 270.800 11.780,270.440 11.600,270.000 11.600 C 269.560 11.600,269.200 11.420,269.200 11.200 C 269.200 10.980,268.660 10.800,268.000 10.800 C 267.340 10.800,266.800 10.620,266.800 10.400 C 266.800 10.180,266.260 10.000,265.600 10.000 C 264.940 10.000,264.400 9.820,264.400 9.600 C 264.400 9.380,263.860 9.200,263.200 9.200 C 262.540 9.200,262.000 9.020,262.000 8.800 C 262.000 8.580,261.460 8.400,260.800 8.400 C 260.140 8.400,259.600 8.220,259.600 8.000 C 259.600 7.780,258.880 7.600,258.000 7.600 C 257.120 7.600,256.400 7.420,256.400 7.200 C 256.400 6.980,255.871 6.800,255.224 6.800 C 254.577 6.800,253.936 6.620,253.800 6.400 C 253.664 6.180,252.933 6.000,252.176 6.000 C 251.419 6.000,250.800 5.820,250.800 5.600 C 250.800 5.380,250.080 5.200,249.200 5.200 C 248.320 5.200,247.600 5.020,247.600 4.800 C 247.600 4.580,246.891 4.400,246.024 4.400 C 245.157 4.400,244.336 4.220,244.200 4.000 C 244.064 3.780,243.153 3.600,242.176 3.600 C 241.199 3.600,240.400 3.420,240.400 3.200 C 240.400 2.980,239.511 2.800,238.424 2.800 C 237.337 2.800,236.336 2.620,236.200 2.400 C 236.064 2.180,234.973 2.000,233.776 2.000 C 232.579 2.000,231.600 1.820,231.600 1.600 C 231.600 1.367,230.278 1.200,228.433 1.200 C 226.304 1.200,225.214 1.041,225.105 0.714 C 224.944 0.233,187.802 -0.118,178.500 0.274 M285.397 86.504 C 299.521 90.387,309.603 100.468,313.499 114.603 L 314.600 118.600 314.600 200.000 L 314.600 281.400 313.499 285.397 C 308.918 302.017,295.933 312.879,278.800 314.423 C 269.767 315.237,119.590 314.705,116.000 313.846 C 101.275 310.325,90.510 299.943,86.501 285.397 L 85.400 281.400 85.400 200.000 L 85.400 118.600 86.501 114.603 C 90.910 98.606,103.978 87.233,119.800 85.623 C 121.560 85.444,158.640 85.322,202.200 85.352 L 281.400 85.406 285.397 86.504 M136.269 128.170 C 132.238 129.260,128.865 132.832,128.021 136.904 C 127.716 138.373,127.618 157.611,127.693 201.200 L 127.800 263.400 128.916 265.673 C 130.180 268.247,132.118 270.126,134.780 271.358 L 136.600 272.200 200.000 272.200 L 263.400 272.200 265.673 271.084 C 268.247 269.820,270.126 267.882,271.358 265.220 L 272.200 263.400 272.200 200.000 L 272.200 136.600 271.358 134.780 C 270.126 132.118,268.247 130.180,265.673 128.916 L 263.400 127.800 200.800 127.724 C 150.367 127.663,137.825 127.749,136.269 128.170 M226.191 168.846 C 231.514 170.324,231.596 170.796,231.596 200.000 C 231.596 229.204,231.514 229.676,226.191 231.154 C 223.975 231.769,176.025 231.769,173.809 231.154 C 168.486 229.676,168.404 229.204,168.404 200.000 C 168.404 170.921,168.431 170.758,173.400 169.001 C 175.471 168.268,223.602 168.127,226.191 168.846 " stroke="none" fill="#fbfbfb" fill-rule="evenodd"></path><path id="path2" d="M119.600 85.953 C 118.830 86.089,154.991 86.200,199.958 86.200 C 244.925 86.200,281.015 86.075,280.158 85.923 C 278.233 85.581,121.541 85.610,119.600 85.953 M115.000 86.800 C 113.981 87.238,115.032 87.238,116.400 86.800 C 117.204 86.543,117.243 86.477,116.600 86.468 C 116.160 86.462,115.440 86.611,115.000 86.800 M283.600 86.800 C 284.968 87.238,286.019 87.238,285.000 86.800 C 284.560 86.611,283.840 86.462,283.400 86.468 C 282.757 86.477,282.796 86.543,283.600 86.800 M106.700 89.826 C 105.655 90.370,104.800 90.905,104.800 91.014 C 104.800 91.193,108.760 89.323,109.167 88.952 C 109.662 88.501,108.361 88.962,106.700 89.826 M290.833 88.952 C 291.241 89.324,295.200 91.193,295.200 91.013 C 295.200 90.788,291.380 88.800,290.947 88.800 C 290.793 88.800,290.742 88.868,290.833 88.952 M102.944 91.969 C 102.253 92.390,101.565 92.933,101.416 93.174 C 101.192 93.537,103.775 91.958,104.356 91.377 C 104.747 90.987,104.133 91.244,102.944 91.969 M295.610 91.326 C 296.209 91.974,298.895 93.597,298.418 93.022 C 298.110 92.651,297.305 92.066,296.629 91.723 C 295.953 91.379,295.495 91.201,295.610 91.326 M92.713 101.900 C 92.107 102.595,90.880 104.793,91.323 104.390 C 91.683 104.062,93.591 101.200,93.450 101.200 C 93.381 101.200,93.049 101.515,92.713 101.900 M307.374 102.600 C 308.767 104.652,309.052 104.895,308.277 103.371 C 307.934 102.695,307.349 101.890,306.978 101.582 C 306.607 101.274,306.785 101.732,307.374 102.600 M89.780 106.840 C 89.211 107.962,88.813 108.947,88.895 109.029 C 88.977 109.111,89.527 108.193,90.118 106.989 C 90.708 105.785,91.106 104.800,91.002 104.800 C 90.898 104.800,90.348 105.718,89.780 106.840 M309.882 106.989 C 310.473 108.193,311.023 109.111,311.105 109.029 C 311.284 108.849,309.267 104.800,308.998 104.800 C 308.894 104.800,309.292 105.785,309.882 106.989 M86.600 115.600 C 86.448 116.291,86.407 116.941,86.509 117.042 C 86.611 117.144,86.809 116.653,86.950 115.950 C 87.283 114.283,86.960 113.960,86.600 115.600 M312.868 114.800 C 312.888 115.839,313.518 117.546,313.532 116.600 C 313.538 116.160,313.389 115.440,313.200 115.000 C 312.989 114.510,312.861 114.432,312.868 114.800 M85.854 120.256 C 85.508 122.781,85.575 278.200,85.923 280.158 C 86.075 281.015,86.200 244.970,86.200 200.058 C 86.200 155.146,86.179 118.400,86.154 118.400 C 86.129 118.400,85.994 119.235,85.854 120.256 M313.800 200.000 C 313.800 244.944,313.925 281.015,314.077 280.158 C 314.439 278.122,314.439 121.878,314.077 119.842 C 313.925 118.985,313.800 155.056,313.800 200.000 M135.800 127.600 C 135.296 127.817,135.222 127.944,135.600 127.944 C 135.930 127.944,136.560 127.789,137.000 127.600 C 137.504 127.383,137.578 127.256,137.200 127.256 C 136.870 127.256,136.240 127.411,135.800 127.600 M263.000 127.600 C 263.440 127.789,264.070 127.944,264.400 127.944 C 264.778 127.944,264.704 127.817,264.200 127.600 C 263.760 127.411,263.130 127.256,262.800 127.256 C 262.422 127.256,262.496 127.383,263.000 127.600 M131.180 130.266 C 130.288 131.072,129.373 132.107,129.147 132.566 C 128.920 133.024,129.207 132.822,129.784 132.116 C 130.361 131.410,131.410 130.377,132.116 129.821 C 132.822 129.264,133.266 128.807,133.101 128.804 C 132.937 128.802,132.072 129.459,131.180 130.266 M267.884 129.821 C 268.590 130.377,269.639 131.410,270.216 132.116 C 270.793 132.822,271.080 133.024,270.853 132.566 C 270.411 131.668,267.392 128.797,266.899 128.804 C 266.734 128.807,267.178 129.264,267.884 129.821 M127.429 136.229 C 127.281 136.815,127.238 137.372,127.332 137.466 C 127.427 137.560,127.624 137.158,127.771 136.571 C 127.919 135.985,127.962 135.428,127.868 135.334 C 127.773 135.240,127.576 135.642,127.429 136.229 M272.056 135.600 C 272.056 135.930,272.211 136.560,272.400 137.000 C 272.617 137.504,272.744 137.578,272.744 137.200 C 272.744 136.870,272.589 136.240,272.400 135.800 C 272.183 135.296,272.056 135.222,272.056 135.600 M173.738 169.106 C 173.484 169.268,185.302 169.400,200.000 169.400 C 214.698 169.400,226.516 169.268,226.262 169.106 C 225.658 168.722,174.342 168.722,173.738 169.106 M227.956 170.317 C 228.482 170.741,229.262 171.518,229.691 172.044 C 230.119 172.570,230.336 172.730,230.174 172.400 C 229.692 171.421,228.664 170.353,227.804 169.936 C 227.194 169.640,227.230 169.732,227.956 170.317 M169.052 174.100 C 168.719 175.344,168.792 225.237,169.128 226.085 C 169.278 226.462,169.400 214.717,169.400 199.985 C 169.400 185.253,169.376 173.200,169.347 173.200 C 169.317 173.200,169.185 173.605,169.052 174.100 M230.600 200.000 C 230.600 214.698,230.732 226.516,230.894 226.262 C 231.056 226.008,231.188 214.190,231.188 200.000 C 231.188 185.810,231.056 173.992,230.894 173.738 C 230.732 173.484,230.600 185.302,230.600 200.000 M228.638 228.895 C 227.162 230.435,227.328 230.629,228.937 229.244 C 229.573 228.696,230.640 227.138,230.314 227.233 C 230.251 227.252,229.497 227.999,228.638 228.895 M173.915 230.872 C 174.847 231.242,225.681 231.263,226.262 230.894 C 226.516 230.732,214.687 230.600,199.976 230.600 C 185.266 230.600,173.538 230.722,173.915 230.872 M127.256 262.800 C 127.256 263.130,127.411 263.760,127.600 264.200 C 127.817 264.704,127.944 264.778,127.944 264.400 C 127.944 264.070,127.789 263.440,127.600 263.000 C 127.383 262.496,127.256 262.422,127.256 262.800 M272.229 263.429 C 272.081 264.015,272.038 264.572,272.132 264.666 C 272.227 264.760,272.424 264.358,272.571 263.771 C 272.719 263.185,272.762 262.628,272.668 262.534 C 272.573 262.440,272.376 262.842,272.229 263.429 M128.804 266.899 C 128.797 267.392,131.668 270.411,132.566 270.853 C 133.024 271.080,132.822 270.793,132.116 270.216 C 131.410 269.639,130.377 268.590,129.821 267.884 C 129.264 267.178,128.807 266.734,128.804 266.899 M268.921 269.047 C 267.777 270.234,267.163 271.034,267.555 270.824 C 268.274 270.439,271.200 267.369,271.200 266.999 C 271.200 266.690,271.129 266.753,268.921 269.047 M135.800 272.400 C 136.240 272.589,136.870 272.744,137.200 272.744 C 137.578 272.744,137.504 272.617,137.000 272.400 C 136.560 272.211,135.930 272.056,135.600 272.056 C 135.222 272.056,135.296 272.183,135.800 272.400 M263.000 272.400 C 262.496 272.617,262.422 272.744,262.800 272.744 C 263.130 272.744,263.760 272.589,264.200 272.400 C 264.704 272.183,264.778 272.056,264.400 272.056 C 264.070 272.056,263.440 272.211,263.000 272.400 M86.468 283.400 C 86.462 283.840,86.611 284.560,86.800 285.000 C 87.238 286.019,87.238 284.968,86.800 283.600 C 86.543 282.796,86.477 282.757,86.468 283.400 M313.050 284.050 C 312.909 284.753,312.869 285.402,312.959 285.492 C 313.050 285.583,313.248 285.091,313.400 284.400 C 313.552 283.709,313.593 283.059,313.491 282.958 C 313.389 282.856,313.191 283.347,313.050 284.050 M88.800 290.947 C 88.800 291.380,90.788 295.200,91.013 295.200 C 91.123 295.200,90.739 294.255,90.159 293.100 C 89.043 290.879,88.800 290.494,88.800 290.947 M309.882 293.011 C 309.292 294.215,308.894 295.200,308.998 295.200 C 309.267 295.200,311.284 291.151,311.105 290.971 C 311.023 290.889,310.473 291.807,309.882 293.011 M91.763 296.729 C 92.084 297.350,92.660 298.115,93.042 298.429 C 93.434 298.752,93.249 298.261,92.615 297.300 C 91.332 295.355,90.904 295.068,91.763 296.729 M307.385 297.300 C 306.751 298.261,306.566 298.752,306.958 298.429 C 307.618 297.887,308.996 295.600,308.663 295.600 C 308.577 295.600,308.002 296.365,307.385 297.300 M101.571 306.958 C 102.113 307.618,104.400 308.996,104.400 308.663 C 104.400 308.577,103.635 308.002,102.700 307.385 C 101.739 306.751,101.248 306.566,101.571 306.958 M297.281 307.372 C 295.427 308.683,295.194 309.006,296.629 308.277 C 297.305 307.934,298.092 307.371,298.378 307.026 C 299.071 306.191,298.854 306.260,297.281 307.372 M104.800 308.996 C 104.800 309.270,107.249 310.484,107.432 310.301 C 107.519 310.214,106.962 309.844,106.195 309.478 C 105.428 309.112,104.800 308.895,104.800 308.996 M292.800 310.000 C 291.590 310.639,290.741 311.171,290.913 311.181 C 291.338 311.207,295.200 309.236,295.200 308.993 C 295.200 308.726,295.255 308.703,292.800 310.000 M115.000 313.200 C 115.440 313.389,116.160 313.538,116.600 313.532 C 117.243 313.523,117.204 313.457,116.400 313.200 C 115.032 312.762,113.981 312.762,115.000 313.200 M283.600 313.200 C 282.796 313.457,282.757 313.523,283.400 313.532 C 283.840 313.538,284.560 313.389,285.000 313.200 C 286.019 312.762,284.968 312.762,283.600 313.200 M120.242 314.077 C 122.278 314.439,277.722 314.439,279.758 314.077 C 280.615 313.925,244.724 313.800,200.000 313.800 C 155.276 313.800,119.385 313.925,120.242 314.077 " stroke="none" fill="#747474" fill-rule="evenodd"></path><path id="path3" d="" stroke="none" fill="#848484" fill-rule="evenodd"></path><path id="path4" d="M161.300 85.500 C 182.585 85.557,217.415 85.557,238.700 85.500 C 259.985 85.443,242.570 85.396,200.000 85.396 C 157.430 85.396,140.015 85.443,161.300 85.500 M117.000 86.000 C 115.930 86.272,115.908 86.305,116.800 86.305 C 117.350 86.305,118.340 86.168,119.000 86.000 C 120.070 85.728,120.092 85.695,119.200 85.695 C 118.650 85.695,117.660 85.832,117.000 86.000 M281.000 86.000 C 281.660 86.168,282.650 86.305,283.200 86.305 C 284.092 86.305,284.070 86.272,283.000 86.000 C 282.340 85.832,281.350 85.695,280.800 85.695 C 279.908 85.695,279.930 85.728,281.000 86.000 M105.100 90.229 C 103.605 91.040,103.696 91.378,105.200 90.600 C 105.860 90.259,106.400 89.894,106.400 89.790 C 106.400 89.532,106.357 89.547,105.100 90.229 M293.600 89.779 C 293.600 89.889,294.140 90.259,294.800 90.600 C 295.460 90.941,296.000 91.131,296.000 91.021 C 296.000 90.911,295.460 90.541,294.800 90.200 C 294.140 89.859,293.600 89.669,293.600 89.779 M97.689 95.900 C 94.571 98.961,94.567 98.967,97.365 96.425 C 98.924 95.008,100.464 93.613,100.786 93.325 C 101.108 93.036,101.254 92.800,101.109 92.800 C 100.965 92.800,99.426 94.195,97.689 95.900 M303.000 96.800 C 304.306 98.120,305.465 99.200,305.575 99.200 C 305.685 99.200,304.706 98.120,303.400 96.800 C 302.094 95.480,300.935 94.400,300.825 94.400 C 300.715 94.400,301.694 95.480,303.000 96.800 M90.200 105.200 C 89.859 105.860,89.669 106.400,89.779 106.400 C 89.889 106.400,90.259 105.860,90.600 105.200 C 90.941 104.540,91.131 104.000,91.021 104.000 C 90.911 104.000,90.541 104.540,90.200 105.200 M309.400 105.200 C 309.741 105.860,310.111 106.400,310.221 106.400 C 310.331 106.400,310.141 105.860,309.800 105.200 C 309.459 104.540,309.089 104.000,308.979 104.000 C 308.869 104.000,309.059 104.540,309.400 105.200 M85.818 117.818 C 85.665 118.839,85.622 119.755,85.722 119.855 C 85.822 119.955,86.029 119.202,86.182 118.182 C 86.335 117.161,86.378 116.245,86.278 116.145 C 86.178 116.045,85.971 116.798,85.818 117.818 M313.695 116.800 C 313.695 117.350,313.832 118.340,314.000 119.000 C 314.272 120.070,314.305 120.092,314.305 119.200 C 314.305 118.650,314.168 117.660,314.000 117.000 C 313.728 115.930,313.695 115.908,313.695 116.800 M85.396 200.000 C 85.396 242.570,85.443 259.985,85.500 238.700 C 85.557 217.415,85.557 182.585,85.500 161.300 C 85.443 140.015,85.396 157.430,85.396 200.000 M314.596 200.000 C 314.596 242.570,314.643 259.985,314.700 238.700 C 314.757 217.415,314.757 182.585,314.700 161.300 C 314.643 140.015,314.596 157.430,314.596 200.000 M137.276 127.540 C 136.432 127.777,220.670 127.742,249.600 127.493 C 256.310 127.435,233.990 127.364,200.000 127.334 C 166.010 127.304,137.784 127.397,137.276 127.540 M127.450 137.650 C 127.118 139.311,127.206 261.536,127.540 262.724 C 127.683 263.232,127.800 235.017,127.800 200.024 C 127.800 165.031,127.778 136.400,127.750 136.400 C 127.722 136.400,127.588 136.963,127.450 137.650 M272.595 200.000 C 272.595 233.990,272.642 247.895,272.700 230.900 C 272.758 213.905,272.758 186.095,272.700 169.100 C 272.642 152.105,272.595 166.010,272.595 200.000 M187.300 168.700 C 194.285 168.761,205.715 168.761,212.700 168.700 C 219.685 168.639,213.970 168.588,200.000 168.588 C 186.030 168.588,180.315 168.639,187.300 168.700 M170.575 170.900 L 169.400 172.200 170.700 171.025 C 171.415 170.379,172.000 169.794,172.000 169.725 C 172.000 169.416,171.670 169.688,170.575 170.900 M228.000 169.725 C 228.000 169.794,228.585 170.379,229.300 171.025 L 230.600 172.200 229.425 170.900 C 228.330 169.688,228.000 169.416,228.000 169.725 M168.588 200.000 C 168.588 213.970,168.639 219.685,168.700 212.700 C 168.761 205.715,168.761 194.285,168.700 187.300 C 168.639 180.315,168.588 186.030,168.588 200.000 M231.388 200.000 C 231.388 213.970,231.439 219.685,231.500 212.700 C 231.561 205.715,231.561 194.285,231.500 187.300 C 231.439 180.315,231.388 186.030,231.388 200.000 M169.600 228.125 C 169.600 228.194,170.185 228.779,170.900 229.425 L 172.200 230.600 171.025 229.300 C 169.930 228.088,169.600 227.816,169.600 228.125 M228.975 229.300 L 227.800 230.600 229.100 229.425 C 229.815 228.779,230.400 228.194,230.400 228.125 C 230.400 227.816,230.070 228.088,228.975 229.300 M187.300 231.500 C 194.285 231.561,205.715 231.561,212.700 231.500 C 219.685 231.439,213.970 231.388,200.000 231.388 C 186.030 231.388,180.315 231.439,187.300 231.500 M137.676 272.460 C 138.184 272.603,166.230 272.720,200.000 272.720 C 233.770 272.720,261.816 272.603,262.324 272.460 C 262.832 272.317,234.786 272.200,200.000 272.200 C 165.214 272.200,137.168 272.317,137.676 272.460 M85.695 280.800 C 85.695 281.350,85.832 282.340,86.000 283.000 C 86.272 284.070,86.305 284.092,86.305 283.200 C 86.305 282.650,86.168 281.660,86.000 281.000 C 85.728 279.930,85.695 279.908,85.695 280.800 M313.818 281.818 C 313.665 282.839,313.622 283.755,313.722 283.855 C 313.822 283.955,314.029 283.202,314.182 282.182 C 314.335 281.161,314.378 280.245,314.278 280.145 C 314.178 280.045,313.971 280.798,313.818 281.818 M90.200 294.800 C 90.541 295.460,90.911 296.000,91.021 296.000 C 91.131 296.000,90.941 295.460,90.600 294.800 C 90.259 294.140,89.889 293.600,89.779 293.600 C 89.669 293.600,89.859 294.140,90.200 294.800 M309.400 294.800 C 309.059 295.460,308.869 296.000,308.979 296.000 C 309.089 296.000,309.459 295.460,309.800 294.800 C 310.141 294.140,310.331 293.600,310.221 293.600 C 310.111 293.600,309.741 294.140,309.400 294.800 M96.600 303.200 C 97.906 304.520,99.065 305.600,99.175 305.600 C 99.285 305.600,98.306 304.520,97.000 303.200 C 95.694 301.880,94.535 300.800,94.425 300.800 C 94.315 300.800,95.294 301.880,96.600 303.200 M302.987 303.300 L 300.600 305.800 303.100 303.413 C 304.475 302.099,305.600 300.974,305.600 300.913 C 305.600 300.617,305.205 300.978,302.987 303.300 M99.744 305.909 C 100.060 306.421,102.400 308.153,102.400 307.875 C 102.400 307.776,101.739 307.191,100.932 306.575 C 100.124 305.959,99.589 305.659,99.744 305.909 M294.700 309.429 C 293.205 310.240,293.296 310.578,294.800 309.800 C 295.460 309.459,296.000 309.094,296.000 308.990 C 296.000 308.732,295.957 308.747,294.700 309.429 M112.833 312.944 C 112.925 313.023,113.540 313.208,114.200 313.356 C 115.076 313.552,115.238 313.515,114.800 313.218 C 114.260 312.853,112.432 312.598,112.833 312.944 M285.200 313.218 C 284.762 313.515,284.924 313.552,285.800 313.356 C 287.271 313.027,287.590 312.798,286.567 312.806 C 286.145 312.809,285.530 312.995,285.200 313.218 M161.500 314.700 C 182.675 314.757,217.325 314.757,238.500 314.700 C 259.675 314.643,242.350 314.596,200.000 314.596 C 157.650 314.596,140.325 314.643,161.500 314.700 " stroke="none" fill="#9c9c9c" fill-rule="evenodd"></path></g></svg>