<svg id="svg" version="1.1" xmlns="http://www.w3.org/2000/svg" xmlns:xlink="http://www.w3.org/1999/xlink" width="400" height="400" viewBox="0, 0, 400,400"><g id="svgg"><path id="path0" d="M244.400 100.678 C 214.598 103.869,193.184 132.016,197.763 161.976 C 198.525 166.958,198.577 166.887,194.400 166.566 C 168.315 164.562,142.761 155.385,121.200 140.278 C 109.866 132.338,102.581 125.630,90.526 112.037 L 89.252 110.600 87.790 113.800 C 77.222 136.930,83.502 163.949,103.100 179.664 C 106.369 182.285,106.316 182.578,102.630 182.266 C 97.047 181.794,89.981 179.823,85.212 177.406 C 82.110 175.834,82.142 175.796,82.475 180.654 C 83.932 201.934,99.019 221.127,119.204 227.380 C 122.908 228.527,123.923 229.010,123.507 229.426 C 122.267 230.667,108.335 231.684,103.461 230.890 L 101.122 230.509 101.362 231.754 C 102.702 238.702,112.616 251.929,120.800 257.686 C 128.680 263.230,140.264 267.180,148.700 267.199 C 151.533 267.205,140.274 275.292,131.000 279.912 C 115.678 287.545,100.742 290.990,83.100 290.962 C 78.095 290.954,74.000 290.980,74.000 291.019 C 74.000 291.058,75.665 292.083,77.700 293.295 C 111.929 313.691,152.605 319.115,192.603 308.618 C 255.242 292.178,300.133 232.190,301.876 162.599 L 302.116 152.998 305.353 150.399 C 312.084 144.993,320.147 136.544,324.762 130.060 C 327.192 126.647,327.137 126.348,324.295 127.523 C 317.319 130.405,303.588 133.991,299.500 133.999 C 298.397 134.001,298.682 133.042,300.020 132.252 C 304.117 129.831,309.691 124.309,313.758 118.641 C 316.868 114.306,321.463 104.689,320.156 105.248 C 319.960 105.332,316.816 106.887,313.169 108.703 C 306.154 112.197,295.612 115.989,290.460 116.872 L 287.682 117.349 284.178 114.070 C 273.742 104.307,258.484 99.170,244.400 100.678 " stroke="none" fill="#2cace4" fill-rule="evenodd"></path><path id="path1" d="M178.500 0.274 C 176.465 0.360,174.800 0.603,174.800 0.815 C 174.800 1.030,173.383 1.200,171.600 1.200 C 169.733 1.200,168.400 1.367,168.400 1.600 C 168.400 1.820,167.511 2.000,166.424 2.000 C 165.337 2.000,164.336 2.180,164.200 2.400 C 164.064 2.620,162.973 2.800,161.776 2.800 C 160.579 2.800,159.600 2.980,159.600 3.200 C 159.600 3.420,158.801 3.600,157.824 3.600 C 156.847 3.600,155.936 3.780,155.800 4.000 C 155.664 4.220,154.843 4.400,153.976 4.400 C 153.109 4.400,152.400 4.580,152.400 4.800 C 152.400 5.020,151.680 5.200,150.800 5.200 C 149.920 5.200,149.200 5.380,149.200 5.600 C 149.200 5.820,148.581 6.000,147.824 6.000 C 147.067 6.000,146.336 6.180,146.200 6.400 C 146.064 6.620,145.423 6.800,144.776 6.800 C 144.129 6.800,143.600 6.980,143.600 7.200 C 143.600 7.420,142.880 7.600,142.000 7.600 C 141.120 7.600,140.400 7.780,140.400 8.000 C 140.400 8.220,139.860 8.400,139.200 8.400 C 138.540 8.400,138.000 8.580,138.000 8.800 C 138.000 9.020,137.460 9.200,136.800 9.200 C 136.140 9.200,135.600 9.380,135.600 9.600 C 135.600 9.820,135.060 10.000,134.400 10.000 C 133.740 10.000,133.200 10.180,133.200 10.400 C 133.200 10.620,132.660 10.800,132.000 10.800 C 131.340 10.800,130.800 10.980,130.800 11.200 C 130.800 11.420,130.440 11.600,130.000 11.600 C 129.560 11.600,129.200 11.780,129.200 12.000 C 129.200 12.220,128.660 12.400,128.000 12.400 C 127.340 12.400,126.800 12.580,126.800 12.800 C 126.800 13.020,126.440 13.200,126.000 13.200 C 125.560 13.200,125.200 13.380,125.200 13.600 C 125.200 13.820,124.660 14.000,124.000 14.000 C 123.340 14.000,122.800 14.180,122.800 14.400 C 122.800 14.620,122.440 14.800,122.000 14.800 C 121.560 14.800,121.200 14.980,121.200 15.200 C 121.200 15.420,120.761 15.600,120.224 15.600 C 119.687 15.600,119.136 15.780,119.000 16.000 C 118.864 16.220,118.403 16.400,117.976 16.400 C 117.549 16.400,117.200 16.580,117.200 16.800 C 117.200 17.020,116.840 17.200,116.400 17.200 C 115.960 17.200,115.600 17.380,115.600 17.600 C 115.600 17.820,115.240 18.000,114.800 18.000 C 114.360 18.000,114.000 18.180,114.000 18.400 C 114.000 18.620,113.640 18.800,113.200 18.800 C 112.760 18.800,112.400 18.980,112.400 19.200 C 112.400 19.420,112.040 19.600,111.600 19.600 C 111.160 19.600,110.800 19.780,110.800 20.000 C 110.800 20.220,110.440 20.400,110.000 20.400 C 109.560 20.400,109.200 20.580,109.200 20.800 C 109.200 21.020,108.840 21.200,108.400 21.200 C 107.960 21.200,107.600 21.380,107.600 21.600 C 107.600 21.820,107.240 22.000,106.800 22.000 C 106.360 22.000,106.000 22.180,106.000 22.400 C 106.000 22.620,105.640 22.800,105.200 22.800 C 104.760 22.800,104.400 22.980,104.400 23.200 C 104.400 23.420,104.040 23.600,103.600 23.600 C 103.160 23.600,102.800 23.780,102.800 24.000 C 102.800 24.220,102.480 24.400,102.088 24.400 C 101.697 24.400,101.117 24.760,100.800 25.200 C 100.483 25.640,99.903 26.000,99.512 26.000 C 99.120 26.000,98.800 26.180,98.800 26.400 C 98.800 26.620,98.440 26.800,98.000 26.800 C 97.560 26.800,97.200 26.980,97.200 27.200 C 97.200 27.420,96.964 27.600,96.675 27.600 C 96.387 27.600,95.764 27.960,95.292 28.400 C 94.820 28.840,94.196 29.200,93.905 29.200 C 93.614 29.200,93.117 29.560,92.800 30.000 C 92.483 30.440,91.943 30.800,91.600 30.800 C 91.257 30.800,90.717 31.160,90.400 31.600 C 90.083 32.040,89.503 32.400,89.112 32.400 C 88.720 32.400,88.400 32.550,88.400 32.732 C 88.400 32.915,87.905 33.319,87.300 33.630 C 86.695 33.940,85.909 34.511,85.553 34.897 C 85.197 35.284,84.652 35.600,84.341 35.600 C 84.031 35.600,83.517 35.960,83.200 36.400 C 82.883 36.840,82.420 37.200,82.171 37.200 C 81.922 37.200,81.154 37.740,80.463 38.400 C 79.772 39.060,79.047 39.600,78.852 39.600 C 78.656 39.600,77.755 40.320,76.848 41.200 C 75.941 42.080,75.005 42.800,74.768 42.800 C 74.531 42.800,73.646 43.520,72.800 44.400 C 71.954 45.280,71.084 46.000,70.866 46.000 C 70.648 46.000,69.413 47.035,68.121 48.300 C 66.829 49.565,65.072 51.128,64.217 51.773 C 62.202 53.293,53.293 62.202,51.773 64.217 C 51.128 65.072,49.565 66.829,48.300 68.121 C 47.035 69.413,46.000 70.648,46.000 70.866 C 46.000 71.084,45.280 71.954,44.400 72.800 C 43.520 73.646,42.800 74.531,42.800 74.768 C 42.800 75.005,42.080 75.941,41.200 76.848 C 40.320 77.755,39.600 78.656,39.600 78.852 C 39.600 79.047,39.060 79.772,38.400 80.463 C 37.740 81.154,37.200 81.922,37.200 82.171 C 37.200 82.420,36.840 82.883,36.400 83.200 C 35.960 83.517,35.600 84.031,35.600 84.341 C 35.600 84.652,35.284 85.197,34.897 85.553 C 34.511 85.909,33.940 86.695,33.630 87.300 C 33.319 87.905,32.915 88.400,32.732 88.400 C 32.550 88.400,32.400 88.720,32.400 89.112 C 32.400 89.503,32.040 90.083,31.600 90.400 C 31.160 90.717,30.800 91.257,30.800 91.600 C 30.800 91.943,30.440 92.483,30.000 92.800 C 29.560 93.117,29.200 93.614,29.200 93.905 C 29.200 94.196,28.840 94.820,28.400 95.292 C 27.960 95.764,27.600 96.387,27.600 96.675 C 27.600 96.964,27.420 97.200,27.200 97.200 C 26.980 97.200,26.800 97.560,26.800 98.000 C 26.800 98.440,26.620 98.800,26.400 98.800 C 26.180 98.800,26.000 99.120,26.000 99.512 C 26.000 99.903,25.640 100.483,25.200 100.800 C 24.760 101.117,24.400 101.697,24.400 102.088 C 24.400 102.480,24.220 102.800,24.000 102.800 C 23.780 102.800,23.600 103.160,23.600 103.600 C 23.600 104.040,23.420 104.400,23.200 104.400 C 22.980 104.400,22.800 104.760,22.800 105.200 C 22.800 105.640,22.620 106.000,22.400 106.000 C 22.180 106.000,22.000 106.360,22.000 106.800 C 22.000 107.240,21.820 107.600,21.600 107.600 C 21.380 107.600,21.200 107.960,21.200 108.400 C 21.200 108.840,21.020 109.200,20.800 109.200 C 20.580 109.200,20.400 109.560,20.400 110.000 C 20.400 110.440,20.220 110.800,20.000 110.800 C 19.780 110.800,19.600 111.160,19.600 111.600 C 19.600 112.040,19.420 112.400,19.200 112.400 C 18.980 112.400,18.800 112.760,18.800 113.200 C 18.800 113.640,18.620 114.000,18.400 114.000 C 18.180 114.000,18.000 114.360,18.000 114.800 C 18.000 115.240,17.820 115.600,17.600 115.600 C 17.380 115.600,17.200 115.960,17.200 116.400 C 17.200 116.840,17.020 117.200,16.800 117.200 C 16.580 117.200,16.400 117.549,16.400 117.976 C 16.400 118.403,16.220 118.864,16.000 119.000 C 15.780 119.136,15.600 119.687,15.600 120.224 C 15.600 120.761,15.420 121.200,15.200 121.200 C 14.980 121.200,14.800 121.560,14.800 122.000 C 14.800 122.440,14.620 122.800,14.400 122.800 C 14.180 122.800,14.000 123.340,14.000 124.000 C 14.000 124.660,13.820 125.200,13.600 125.200 C 13.380 125.200,13.200 125.560,13.200 126.000 C 13.200 126.440,13.020 126.800,12.800 126.800 C 12.580 126.800,12.400 127.340,12.400 128.000 C 12.400 128.660,12.220 129.200,12.000 129.200 C 11.780 129.200,11.600 129.560,11.600 130.000 C 11.600 130.440,11.420 130.800,11.200 130.800 C 10.980 130.800,10.800 131.340,10.800 132.000 C 10.800 132.660,10.620 133.200,10.400 133.200 C 10.180 133.200,10.000 133.740,10.000 134.400 C 10.000 135.060,9.820 135.600,9.600 135.600 C 9.380 135.600,9.200 136.140,9.200 136.800 C 9.200 137.460,9.020 138.000,8.800 138.000 C 8.580 138.000,8.400 138.540,8.400 139.200 C 8.400 139.860,8.220 140.400,8.000 140.400 C 7.780 140.400,7.600 141.120,7.600 142.000 C 7.600 142.880,7.420 143.600,7.200 143.600 C 6.980 143.600,6.800 144.129,6.800 144.776 C 6.800 145.423,6.620 146.064,6.400 146.200 C 6.180 146.336,6.000 147.067,6.000 147.824 C 6.000 148.581,5.820 149.200,5.600 149.200 C 5.380 149.200,5.200 149.920,5.200 150.800 C 5.200 151.680,5.020 152.400,4.800 152.400 C 4.580 152.400,4.400 153.109,4.400 153.976 C 4.400 154.843,4.220 155.664,4.000 155.800 C 3.780 155.936,3.600 156.847,3.600 157.824 C 3.600 158.801,3.420 159.600,3.200 159.600 C 2.980 159.600,2.800 160.579,2.800 161.776 C 2.800 162.973,2.620 164.064,2.400 164.200 C 2.180 164.336,2.000 165.337,2.000 166.424 C 2.000 167.511,1.820 168.400,1.600 168.400 C 1.367 168.400,1.200 169.722,1.200 171.567 C 1.200 173.744,1.044 174.785,0.700 174.900 C -0.032 175.144,-0.032 224.856,0.700 225.100 C 1.044 225.215,1.200 226.256,1.200 228.433 C 1.200 230.278,1.367 231.600,1.600 231.600 C 1.820 231.600,2.000 232.489,2.000 233.576 C 2.000 234.663,2.180 235.664,2.400 235.800 C 2.620 235.936,2.800 237.027,2.800 238.224 C 2.800 239.421,2.980 240.400,3.200 240.400 C 3.420 240.400,3.600 241.199,3.600 242.176 C 3.600 243.153,3.780 244.064,4.000 244.200 C 4.220 244.336,4.400 245.157,4.400 246.024 C 4.400 246.891,4.580 247.600,4.800 247.600 C 5.020 247.600,5.200 248.320,5.200 249.200 C 5.200 250.080,5.380 250.800,5.600 250.800 C 5.820 250.800,6.000 251.419,6.000 252.176 C 6.000 252.933,6.180 253.664,6.400 253.800 C 6.620 253.936,6.800 254.577,6.800 255.224 C 6.800 255.871,6.980 256.400,7.200 256.400 C 7.420 256.400,7.600 257.120,7.600 258.000 C 7.600 258.880,7.780 259.600,8.000 259.600 C 8.220 259.600,8.400 260.140,8.400 260.800 C 8.400 261.460,8.580 262.000,8.800 262.000 C 9.020 262.000,9.200 262.540,9.200 263.200 C 9.200 263.860,9.380 264.400,9.600 264.400 C 9.820 264.400,10.000 264.940,10.000 265.600 C 10.000 266.260,10.180 266.800,10.400 266.800 C 10.620 266.800,10.800 267.340,10.800 268.000 C 10.800 268.660,10.980 269.200,11.200 269.200 C 11.420 269.200,11.600 269.560,11.600 270.000 C 11.600 270.440,11.780 270.800,12.000 270.800 C 12.220 270.800,12.400 271.340,12.400 272.000 C 12.400 272.660,12.580 273.200,12.800 273.200 C 13.020 273.200,13.200 273.560,13.200 274.000 C 13.200 274.440,13.380 274.800,13.600 274.800 C 13.820 274.800,14.000 275.340,14.000 276.000 C 14.000 276.660,14.180 277.200,14.400 277.200 C 14.620 277.200,14.800 277.560,14.800 278.000 C 14.800 278.440,14.980 278.800,15.200 278.800 C 15.420 278.800,15.600 279.239,15.600 279.776 C 15.600 280.313,15.780 280.864,16.000 281.000 C 16.220 281.136,16.400 281.597,16.400 282.024 C 16.400 282.451,16.580 282.800,16.800 282.800 C 17.020 282.800,17.200 283.160,17.200 283.600 C 17.200 284.040,17.380 284.400,17.600 284.400 C 17.820 284.400,18.000 284.760,18.000 285.200 C 18.000 285.640,18.180 286.000,18.400 286.000 C 18.620 286.000,18.800 286.360,18.800 286.800 C 18.800 287.240,18.980 287.600,19.200 287.600 C 19.420 287.600,19.600 287.960,19.600 288.400 C 19.600 288.840,19.780 289.200,20.000 289.200 C 20.220 289.200,20.400 289.560,20.400 290.000 C 20.400 290.440,20.580 290.800,20.800 290.800 C 21.020 290.800,21.200 291.160,21.200 291.600 C 21.200 292.040,21.380 292.400,21.600 292.400 C 21.820 292.400,22.000 292.760,22.000 293.200 C 22.000 293.640,22.180 294.000,22.400 294.000 C 22.620 294.000,22.800 294.360,22.800 294.800 C 22.800 295.240,22.980 295.600,23.200 295.600 C 23.420 295.600,23.600 295.960,23.600 296.400 C 23.600 296.840,23.780 297.200,24.000 297.200 C 24.220 297.200,24.400 297.520,24.400 297.912 C 24.400 298.303,24.760 298.883,25.200 299.200 C 25.640 299.517,26.000 300.097,26.000 300.488 C 26.000 300.880,26.180 301.200,26.400 301.200 C 26.620 301.200,26.800 301.560,26.800 302.000 C 26.800 302.440,26.980 302.800,27.200 302.800 C 27.420 302.800,27.600 303.036,27.600 303.325 C 27.600 303.613,27.960 304.236,28.400 304.708 C 28.840 305.180,29.200 305.804,29.200 306.095 C 29.200 306.386,29.560 306.883,30.000 307.200 C 30.440 307.517,30.800 308.057,30.800 308.400 C 30.800 308.743,31.160 309.283,31.600 309.600 C 32.040 309.917,32.400 310.497,32.400 310.888 C 32.400 311.280,32.550 311.600,32.732 311.600 C 32.915 311.600,33.319 312.095,33.630 312.700 C 33.940 313.305,34.511 314.091,34.897 314.447 C 35.284 314.803,35.600 315.348,35.600 315.659 C 35.600 315.969,35.960 316.483,36.400 316.800 C 36.840 317.117,37.200 317.580,37.200 317.829 C 37.200 318.078,37.740 318.846,38.400 319.537 C 39.060 320.228,39.600 320.953,39.600 321.148 C 39.600 321.344,40.320 322.245,41.200 323.152 C 42.080 324.059,42.800 324.995,42.800 325.232 C 42.800 325.469,43.520 326.354,44.400 327.200 C 45.280 328.046,46.000 328.916,46.000 329.134 C 46.000 329.352,47.035 330.587,48.300 331.879 C 49.565 333.171,51.128 334.928,51.773 335.783 C 53.293 337.798,62.202 346.707,64.217 348.227 C 65.072 348.872,66.829 350.435,68.121 351.700 C 69.413 352.965,70.648 354.000,70.866 354.000 C 71.084 354.000,71.954 354.720,72.800 355.600 C 73.646 356.480,74.531 357.200,74.768 357.200 C 75.005 357.200,75.941 357.920,76.848 358.800 C 77.755 359.680,78.656 360.400,78.852 360.400 C 79.047 360.400,79.772 360.940,80.463 361.600 C 81.154 362.260,81.922 362.800,82.171 362.800 C 82.420 362.800,82.883 363.160,83.200 363.600 C 83.517 364.040,84.031 364.400,84.341 364.400 C 84.652 364.400,85.197 364.716,85.553 365.103 C 85.909 365.489,86.695 366.060,87.300 366.370 C 87.905 366.681,88.400 367.085,88.400 367.268 C 88.400 367.450,88.720 367.600,89.112 367.600 C 89.503 367.600,90.083 367.960,90.400 368.400 C 90.717 368.840,91.257 369.200,91.600 369.200 C 91.943 369.200,92.483 369.560,92.800 370.000 C 93.117 370.440,93.614 370.800,93.905 370.800 C 94.196 370.800,94.820 371.160,95.292 371.600 C 95.764 372.040,96.387 372.400,96.675 372.400 C 96.964 372.400,97.200 372.580,97.200 372.800 C 97.200 373.020,97.560 373.200,98.000 373.200 C 98.440 373.200,98.800 373.380,98.800 373.600 C 98.800 373.820,99.120 374.000,99.512 374.000 C 99.903 374.000,100.483 374.360,100.800 374.800 C 101.117 375.240,101.697 375.600,102.088 375.600 C 102.480 375.600,102.800 375.780,102.800 376.000 C 102.800 376.220,103.160 376.400,103.600 376.400 C 104.040 376.400,104.400 376.580,104.400 376.800 C 104.400 377.020,104.760 377.200,105.200 377.200 C 105.640 377.200,106.000 377.380,106.000 377.600 C 106.000 377.820,106.360 378.000,106.800 378.000 C 107.240 378.000,107.600 378.180,107.600 378.400 C 107.600 378.620,107.960 378.800,108.400 378.800 C 108.840 378.800,109.200 378.980,109.200 379.200 C 109.200 379.420,109.560 379.600,110.000 379.600 C 110.440 379.600,110.800 379.780,110.800 380.000 C 110.800 380.220,111.160 380.400,111.600 380.400 C 112.040 380.400,112.400 380.580,112.400 380.800 C 112.400 381.020,112.760 381.200,113.200 381.200 C 113.640 381.200,114.000 381.380,114.000 381.600 C 114.000 381.820,114.360 382.000,114.800 382.000 C 115.240 382.000,115.600 382.180,115.600 382.400 C 115.600 382.620,115.960 382.800,116.400 382.800 C 116.840 382.800,117.200 382.980,117.200 383.200 C 117.200 383.420,117.549 383.600,117.976 383.600 C 118.403 383.600,118.864 383.780,119.000 384.000 C 119.136 384.220,119.687 384.400,120.224 384.400 C 120.761 384.400,121.200 384.580,121.200 384.800 C 121.200 385.020,121.560 385.200,122.000 385.200 C 122.440 385.200,122.800 385.380,122.800 385.600 C 122.800 385.820,123.340 386.000,124.000 386.000 C 124.660 386.000,125.200 386.180,125.200 386.400 C 125.200 386.620,125.560 386.800,126.000 386.800 C 126.440 386.800,126.800 386.980,126.800 387.200 C 126.800 387.420,127.340 387.600,128.000 387.600 C 128.660 387.600,129.200 387.780,129.200 388.000 C 129.200 388.220,129.560 388.400,130.000 388.400 C 130.440 388.400,130.800 388.580,130.800 388.800 C 130.800 389.020,131.340 389.200,132.000 389.200 C 132.660 389.200,133.200 389.380,133.200 389.600 C 133.200 389.820,133.740 390.000,134.400 390.000 C 135.060 390.000,135.600 390.180,135.600 390.400 C 135.600 390.620,136.140 390.800,136.800 390.800 C 137.460 390.800,138.000 390.980,138.000 391.200 C 138.000 391.420,138.540 391.600,139.200 391.600 C 139.860 391.600,140.400 391.780,140.400 392.000 C 140.400 392.220,141.120 392.400,142.000 392.400 C 142.880 392.400,143.600 392.580,143.600 392.800 C 143.600 393.020,144.129 393.200,144.776 393.200 C 145.423 393.200,146.064 393.380,146.200 393.600 C 146.336 393.820,147.067 394.000,147.824 394.000 C 148.581 394.000,149.200 394.180,149.200 394.400 C 149.200 394.620,149.920 394.800,150.800 394.800 C 151.680 394.800,152.400 394.980,152.400 395.200 C 152.400 395.420,153.109 395.600,153.976 395.600 C 154.843 395.600,155.664 395.780,155.800 396.000 C 155.936 396.220,156.847 396.400,157.824 396.400 C 158.801 396.400,159.600 396.580,159.600 396.800 C 159.600 397.020,160.579 397.200,161.776 397.200 C 162.973 397.200,164.064 397.380,164.200 397.600 C 164.336 397.820,165.337 398.000,166.424 398.000 C 167.511 398.000,168.400 398.180,168.400 398.400 C 168.400 398.633,169.722 398.800,171.567 398.800 C 173.744 398.800,174.785 398.956,174.900 399.300 C 175.144 400.032,224.856 400.032,225.100 399.300 C 225.215 398.956,226.256 398.800,228.433 398.800 C 230.278 398.800,231.600 398.633,231.600 398.400 C 231.600 398.180,232.489 398.000,233.576 398.000 C 234.663 398.000,235.664 397.820,235.800 397.600 C 235.936 397.380,237.027 397.200,238.224 397.200 C 239.421 397.200,240.400 397.020,240.400 396.800 C 240.400 396.580,241.199 396.400,242.176 396.400 C 243.153 396.400,244.064 396.220,244.200 396.000 C 244.336 395.780,245.157 395.600,246.024 395.600 C 246.891 395.600,247.600 395.420,247.600 395.200 C 247.600 394.980,248.320 394.800,249.200 394.800 C 250.080 394.800,250.800 394.620,250.800 394.400 C 250.800 394.180,251.419 394.000,252.176 394.000 C 252.933 394.000,253.664 393.820,253.800 393.600 C 253.936 393.380,254.577 393.200,255.224 393.200 C 255.871 393.200,256.400 393.020,256.400 392.800 C 256.400 392.580,257.120 392.400,258.000 392.400 C 258.880 392.400,259.600 392.220,259.600 392.000 C 259.600 391.780,260.140 391.600,260.800 391.600 C 261.460 391.600,262.000 391.420,262.000 391.200 C 262.000 390.980,262.540 390.800,263.200 390.800 C 263.860 390.800,264.400 390.620,264.400 390.400 C 264.400 390.180,264.940 390.000,265.600 390.000 C 266.260 390.000,266.800 389.820,266.800 389.600 C 266.800 389.380,267.340 389.200,268.000 389.200 C 268.660 389.200,269.200 389.020,269.200 388.800 C 269.200 388.580,269.560 388.400,270.000 388.400 C 270.440 388.400,270.800 388.220,270.800 388.000 C 270.800 387.780,271.340 387.600,272.000 387.600 C 272.660 387.600,273.200 387.420,273.200 387.200 C 273.200 386.980,273.560 386.800,274.000 386.800 C 274.440 386.800,274.800 386.620,274.800 386.400 C 274.800 386.180,275.340 386.000,276.000 386.000 C 276.660 386.000,277.200 385.820,277.200 385.600 C 277.200 385.380,277.560 385.200,278.000 385.200 C 278.440 385.200,278.800 385.020,278.800 384.800 C 278.800 384.580,279.239 384.400,279.776 384.400 C 280.313 384.400,280.864 384.220,281.000 384.000 C 281.136 383.780,281.597 383.600,282.024 383.600 C 282.451 383.600,282.800 383.420,282.800 383.200 C 282.800 382.980,283.160 382.800,283.600 382.800 C 284.040 382.800,284.400 382.620,284.400 382.400 C 284.400 382.180,284.760 382.000,285.200 382.000 C 285.640 382.000,286.000 381.820,286.000 381.600 C 286.000 381.380,286.360 381.200,286.800 381.200 C 287.240 381.200,287.600 381.020,287.600 380.800 C 287.600 380.580,287.960 380.400,288.400 380.400 C 288.840 380.400,289.200 380.220,289.200 380.000 C 289.200 379.780,289.560 379.600,290.000 379.600 C 290.440 379.600,290.800 379.420,290.800 379.200 C 290.800 378.980,291.160 378.800,291.600 378.800 C 292.040 378.800,292.400 378.620,292.400 378.400 C 292.400 378.180,292.760 378.000,293.200 378.000 C 293.640 378.000,294.000 377.820,294.000 377.600 C 294.000 377.380,294.360 377.200,294.800 377.200 C 295.240 377.200,295.600 377.020,295.600 376.800 C 295.600 376.580,295.960 376.400,296.400 376.400 C 296.840 376.400,297.200 376.220,297.200 376.000 C 297.200 375.780,297.520 375.600,297.912 375.600 C 298.303 375.600,298.883 375.240,299.200 374.800 C 299.517 374.360,300.097 374.000,300.488 374.000 C 300.880 374.000,301.200 373.820,301.200 373.600 C 301.200 373.380,301.560 373.200,302.000 373.200 C 302.440 373.200,302.800 373.020,302.800 372.800 C 302.800 372.580,303.036 372.400,303.325 372.400 C 303.613 372.400,304.236 372.040,304.708 371.600 C 305.180 371.160,305.804 370.800,306.095 370.800 C 306.386 370.800,306.883 370.440,307.200 370.000 C 307.517 369.560,308.057 369.200,308.400 369.200 C 308.743 369.200,309.283 368.840,309.600 368.400 C 309.917 367.960,310.497 367.600,310.888 367.600 C 311.280 367.600,311.600 367.450,311.600 367.268 C 311.600 367.085,312.095 366.681,312.700 366.370 C 313.305 366.060,314.091 365.489,314.447 365.103 C 314.803 364.716,315.348 364.400,315.659 364.400 C 315.969 364.400,316.483 364.040,316.800 363.600 C 317.117 363.160,317.580 362.800,317.829 362.800 C 318.078 362.800,318.846 362.260,319.537 361.600 C 320.228 360.940,320.953 360.400,321.148 360.400 C 321.344 360.400,322.245 359.680,323.152 358.800 C 324.059 357.920,324.995 357.200,325.232 357.200 C 325.469 357.200,326.354 356.480,327.200 355.600 C 328.046 354.720,328.916 354.000,329.134 354.000 C 329.352 354.000,330.587 352.965,331.879 351.700 C 333.171 350.435,334.928 348.872,335.783 348.227 C 337.798 346.707,346.707 337.798,348.227 335.783 C 348.872 334.928,350.435 333.171,351.700 331.879 C 352.965 330.587,354.000 329.352,354.000 329.134 C 354.000 328.916,354.720 328.046,355.600 327.200 C 356.480 326.354,357.200 325.469,357.200 325.232 C 357.200 324.995,357.920 324.059,358.800 323.152 C 359.680 322.245,360.400 321.344,360.400 321.148 C 360.400 320.953,360.940 320.228,361.600 319.537 C 362.260 318.846,362.800 318.078,362.800 317.829 C 362.800 317.580,363.160 317.117,363.600 316.800 C 364.040 316.483,364.400 315.969,364.400 315.659 C 364.400 315.348,364.716 314.803,365.103 314.447 C 365.489 314.091,366.060 313.305,366.370 312.700 C 366.681 312.095,367.085 311.600,367.268 311.600 C 367.450 311.600,367.600 311.280,367.600 310.888 C 367.600 310.497,367.960 309.917,368.400 309.600 C 368.840 309.283,369.200 308.743,369.200 308.400 C 369.200 308.057,369.560 307.517,370.000 307.200 C 370.440 306.883,370.800 306.386,370.800 306.095 C 370.800 305.804,371.160 305.180,371.600 304.708 C 372.040 304.236,372.400 303.613,372.400 303.325 C 372.400 303.036,372.580 302.800,372.800 302.800 C 373.020 302.800,373.200 302.440,373.200 302.000 C 373.200 301.560,373.380 301.200,373.600 301.200 C 373.820 301.200,374.000 300.880,374.000 300.488 C 374.000 300.097,374.360 299.517,374.800 299.200 C 375.240 298.883,375.600 298.303,375.600 297.912 C 375.600 297.520,375.780 297.200,376.000 297.200 C 376.220 297.200,376.400 296.840,376.400 296.400 C 376.400 295.960,376.580 295.600,376.800 295.600 C 377.020 295.600,377.200 295.240,377.200 294.800 C 377.200 294.360,377.380 294.000,377.600 294.000 C 377.820 294.000,378.000 293.640,378.000 293.200 C 378.000 292.760,378.180 292.400,378.400 292.400 C 378.620 292.400,378.800 292.040,378.800 291.600 C 378.800 291.160,378.980 290.800,379.200 290.800 C 379.420 290.800,379.600 290.440,379.600 290.000 C 379.600 289.560,379.780 289.200,380.000 289.200 C 380.220 289.200,380.400 288.840,380.400 288.400 C 380.400 287.960,380.580 287.600,380.800 287.600 C 381.020 287.600,381.200 287.240,381.200 286.800 C 381.200 286.360,381.380 286.000,381.600 286.000 C 381.820 286.000,382.000 285.640,382.000 285.200 C 382.000 284.760,382.180 284.400,382.400 284.400 C 382.620 284.400,382.800 284.040,382.800 283.600 C 382.800 283.160,382.980 282.800,383.200 282.800 C 383.420 282.800,383.600 282.451,383.600 282.024 C 383.600 281.597,383.780 281.136,384.000 281.000 C 384.220 280.864,384.400 280.313,384.400 279.776 C 384.400 279.239,384.580 278.800,384.800 278.800 C 385.020 278.800,385.200 278.440,385.200 278.000 C 385.200 277.560,385.380 277.200,385.600 277.200 C 385.820 277.200,386.000 276.660,386.000 276.000 C 386.000 275.340,386.180 274.800,386.400 274.800 C 386.620 274.800,386.800 274.440,386.800 274.000 C 386.800 273.560,386.980 273.200,387.200 273.200 C 387.420 273.200,387.600 272.660,387.600 272.000 C 387.600 271.340,387.780 270.800,388.000 270.800 C 388.220 270.800,388.400 270.440,388.400 270.000 C 388.400 269.560,388.580 269.200,388.800 269.200 C 389.020 269.200,389.200 268.660,389.200 268.000 C 389.200 267.340,389.380 266.800,389.600 266.800 C 389.820 266.800,390.000 266.260,390.000 265.600 C 390.000 264.940,390.180 264.400,390.400 264.400 C 390.620 264.400,390.800 263.860,390.800 263.200 C 390.800 262.540,390.980 262.000,391.200 262.000 C 391.420 262.000,391.600 261.460,391.600 260.800 C 391.600 260.140,391.780 259.600,392.000 259.600 C 392.220 259.600,392.400 258.880,392.400 258.000 C 392.400 257.120,392.580 256.400,392.800 256.400 C 393.020 256.400,393.200 255.871,393.200 255.224 C 393.200 254.577,393.380 253.936,393.600 253.800 C 393.820 253.664,394.000 252.933,394.000 252.176 C 394.000 251.419,394.180 250.800,394.400 250.800 C 394.620 250.800,394.800 250.080,394.800 249.200 C 394.800 248.320,394.980 247.600,395.200 247.600 C 395.420 247.600,395.600 246.891,395.600 246.024 C 395.600 245.157,395.780 244.336,396.000 244.200 C 396.220 244.064,396.400 243.153,396.400 242.176 C 396.400 241.199,396.580 240.400,396.800 240.400 C 397.020 240.400,397.200 239.421,397.200 238.224 C 397.200 237.027,397.380 235.936,397.600 235.800 C 397.820 235.664,398.000 234.663,398.000 233.576 C 398.000 232.489,398.180 231.600,398.400 231.600 C 398.633 231.600,398.800 230.278,398.800 228.433 C 398.800 226.256,398.956 225.215,399.300 225.100 C 399.693 224.969,399.800 219.591,399.800 200.000 C 399.800 180.409,399.693 175.031,399.300 174.900 C 398.956 174.785,398.800 173.744,398.800 171.567 C 398.800 169.722,398.633 168.400,398.400 168.400 C 398.180 168.400,398.000 167.511,398.000 166.424 C 398.000 165.337,397.820 164.336,397.600 164.200 C 397.380 164.064,397.200 162.973,397.200 161.776 C 397.200 160.579,397.020 159.600,396.800 159.600 C 396.580 159.600,396.400 158.801,396.400 157.824 C 396.400 156.847,396.220 155.936,396.000 155.800 C 395.780 155.664,395.600 154.843,395.600 153.976 C 395.600 153.109,395.420 152.400,395.200 152.400 C 394.980 152.400,394.800 151.680,394.800 150.800 C 394.800 149.920,394.620 149.200,394.400 149.200 C 394.180 149.200,394.000 148.581,394.000 147.824 C 394.000 147.067,393.820 146.336,393.600 146.200 C 393.380 146.064,393.200 145.423,393.200 144.776 C 393.200 144.129,393.020 143.600,392.800 143.600 C 392.580 143.600,392.400 142.880,392.400 142.000 C 392.400 141.120,392.220 140.400,392.000 140.400 C 391.780 140.400,391.600 139.860,391.600 139.200 C 391.600 138.540,391.420 138.000,391.200 138.000 C 390.980 138.000,390.800 137.460,390.800 136.800 C 390.800 136.140,390.620 135.600,390.400 135.600 C 390.180 135.600,390.000 135.060,390.000 134.400 C 390.000 133.740,389.820 133.200,389.600 133.200 C 389.380 133.200,389.200 132.660,389.200 132.000 C 389.200 131.340,389.020 130.800,388.800 130.800 C 388.580 130.800,388.400 130.440,388.400 130.000 C 388.400 129.560,388.220 129.200,388.000 129.200 C 387.780 129.200,387.600 128.660,387.600 128.000 C 387.600 127.340,387.420 126.800,387.200 126.800 C 386.980 126.800,386.800 126.440,386.800 126.000 C 386.800 125.560,386.620 125.200,386.400 125.200 C 386.180 125.200,386.000 124.660,386.000 124.000 C 386.000 123.340,385.820 122.800,385.600 122.800 C 385.380 122.800,385.200 122.440,385.200 122.000 C 385.200 121.560,385.020 121.200,384.800 121.200 C 384.580 121.200,384.400 120.761,384.400 120.224 C 384.400 119.687,384.220 119.136,384.000 119.000 C 383.780 118.864,383.600 118.403,383.600 117.976 C 383.600 117.549,383.420 117.200,383.200 117.200 C 382.980 117.200,382.800 116.840,382.800 116.400 C 382.800 115.960,382.620 115.600,382.400 115.600 C 382.180 115.600,382.000 115.240,382.000 114.800 C 382.000 114.360,381.820 114.000,381.600 114.000 C 381.380 114.000,381.200 113.640,381.200 113.200 C 381.200 112.760,381.020 112.400,380.800 112.400 C 380.580 112.400,380.400 112.040,380.400 111.600 C 380.400 111.160,380.220 110.800,380.000 110.800 C 379.780 110.800,379.600 110.440,379.600 110.000 C 379.600 109.560,379.420 109.200,379.200 109.200 C 378.980 109.200,378.800 108.840,378.800 108.400 C 378.800 107.960,378.620 107.600,378.400 107.600 C 378.180 107.600,378.000 107.240,378.000 106.800 C 378.000 106.360,377.820 106.000,377.600 106.000 C 377.380 106.000,377.200 105.640,377.200 105.200 C 377.200 104.760,377.020 104.400,376.800 104.400 C 376.580 104.400,376.400 104.040,376.400 103.600 C 376.400 103.160,376.220 102.800,376.000 102.800 C 375.780 102.800,375.600 102.480,375.600 102.088 C 375.600 101.697,375.240 101.117,374.800 100.800 C 374.360 100.483,374.000 99.903,374.000 99.512 C 374.000 99.120,373.820 98.800,373.600 98.800 C 373.380 98.800,373.200 98.440,373.200 98.000 C 373.200 97.560,373.020 97.200,372.800 97.200 C 372.580 97.200,372.400 96.964,372.400 96.675 C 372.400 96.387,372.040 95.764,371.600 95.292 C 371.160 94.820,370.800 94.196,370.800 93.905 C 370.800 93.614,370.440 93.117,370.000 92.800 C 369.560 92.483,369.200 91.943,369.200 91.600 C 369.200 91.257,368.840 90.717,368.400 90.400 C 367.960 90.083,367.600 89.503,367.600 89.112 C 367.600 88.720,367.450 88.400,367.268 88.400 C 367.085 88.400,366.681 87.905,366.370 87.300 C 366.060 86.695,365.489 85.909,365.103 85.553 C 364.716 85.197,364.400 84.652,364.400 84.341 C 364.400 84.031,364.040 83.517,363.600 83.200 C 363.160 82.883,362.800 82.420,362.800 82.171 C 362.800 81.922,362.260 81.154,361.600 80.463 C 360.940 79.772,360.400 79.047,360.400 78.852 C 360.400 78.656,359.680 77.755,358.800 76.848 C 357.920 75.941,357.200 75.005,357.200 74.768 C 357.200 74.531,356.480 73.646,355.600 72.800 C 354.720 71.954,354.000 71.084,354.000 70.866 C 354.000 70.648,352.965 69.413,351.700 68.121 C 350.435 66.829,348.872 65.072,348.227 64.217 C 346.707 62.202,337.798 53.293,335.783 51.773 C 334.928 51.128,333.171 49.565,331.879 48.300 C 330.587 47.035,329.352 46.000,329.134 46.000 C 328.916 46.000,328.046 45.280,327.200 44.400 C 326.354 43.520,325.469 42.800,325.232 42.800 C 324.995 42.800,324.059 42.080,323.152 41.200 C 322.245 40.320,321.344 39.600,321.148 39.600 C 320.953 39.600,320.228 39.060,319.537 38.400 C 318.846 37.740,318.078 37.200,317.829 37.200 C 317.580 37.200,317.117 36.840,316.800 36.400 C 316.483 35.960,315.969 35.600,315.659 35.600 C 315.348 35.600,314.803 35.284,314.447 34.897 C 314.091 34.511,313.305 33.940,312.700 33.630 C 312.095 33.319,311.600 32.915,311.600 32.732 C 311.600 32.550,311.280 32.400,310.888 32.400 C 310.497 32.400,309.917 32.040,309.600 31.600 C 309.283 31.160,308.743 30.800,308.400 30.800 C 308.057 30.800,307.517 30.440,307.200 30.000 C 306.883 29.560,306.386 29.200,306.095 29.200 C 305.804 29.200,305.180 28.840,304.708 28.400 C 304.236 27.960,303.613 27.600,303.325 27.600 C 303.036 27.600,302.800 27.420,302.800 27.200 C 302.800 26.980,302.440 26.800,302.000 26.800 C 301.560 26.800,301.200 26.620,301.200 26.400 C 301.200 26.180,300.880 26.000,300.488 26.000 C 300.097 26.000,299.517 25.640,299.200 25.200 C 298.883 24.760,298.303 24.400,297.912 24.400 C 297.520 24.400,297.200 24.220,297.200 24.000 C 297.200 23.780,296.840 23.600,296.400 23.600 C 295.960 23.600,295.600 23.420,295.600 23.200 C 295.600 22.980,295.240 22.800,294.800 22.800 C 294.360 22.800,294.000 22.620,294.000 22.400 C 294.000 22.180,293.640 22.000,293.200 22.000 C 292.760 22.000,292.400 21.820,292.400 21.600 C 292.400 21.380,292.040 21.200,291.600 21.200 C 291.160 21.200,290.800 21.020,290.800 20.800 C 290.800 20.580,290.440 20.400,290.000 20.400 C 289.560 20.400,289.200 20.220,289.200 20.000 C 289.200 19.780,288.840 19.600,288.400 19.600 C 287.960 19.600,287.600 19.420,287.600 19.200 C 287.600 18.980,287.240 18.800,286.800 18.800 C 286.360 18.800,286.000 18.620,286.000 18.400 C 286.000 18.180,285.640 18.000,285.200 18.000 C 284.760 18.000,284.400 17.820,284.400 17.600 C 284.400 17.380,284.040 17.200,283.600 17.200 C 283.160 17.200,282.800 17.020,282.800 16.800 C 282.800 16.580,282.451 16.400,282.024 16.400 C 281.597 16.400,281.136 16.220,281.000 16.000 C 280.864 15.780,280.313 15.600,279.776 15.600 C 279.239 15.600,278.800 15.420,278.800 15.200 C 278.800 14.980,278.440 14.800,278.000 14.800 C 277.560 14.800,277.200 14.620,277.200 14.400 C 277.200 14.180,276.660 14.000,276.000 14.000 C 275.340 14.000,274.800 13.820,274.800 13.600 C 274.800 13.380,274.440 13.200,274.000 13.200 C 273.560 13.200,273.200 13.020,273.200 12.800 C 273.200 12.580,272.660 12.400,272.000 12.400 C 271.340 12.400,270.800 12.220,270.800 12.000 C 270.800 11.780,270.440 11.600,270.000 11.600 C 269.560 11.600,269.200 11.420,269.200 11.200 C 269.200 10.980,268.660 10.800,268.000 10.800 C 267.340 10.800,266.800 10.620,266.800 10.400 C 266.800 10.180,266.260 10.000,265.600 10.000 C 264.940 10.000,264.400 9.820,264.400 9.600 C 264.400 9.380,263.860 9.200,263.200 9.200 C 262.540 9.200,262.000 9.020,262.000 8.800 C 262.000 8.580,261.460 8.400,260.800 8.400 C 260.140 8.400,259.600 8.220,259.600 8.000 C 259.600 7.780,258.880 7.600,258.000 7.600 C 257.120 7.600,256.400 7.420,256.400 7.200 C 256.400 6.980,255.871 6.800,255.224 6.800 C 254.577 6.800,253.936 6.620,253.800 6.400 C 253.664 6.180,252.933 6.000,252.176 6.000 C 251.419 6.000,250.800 5.820,250.800 5.600 C 250.800 5.380,250.080 5.200,249.200 5.200 C 248.320 5.200,247.600 5.020,247.600 4.800 C 247.600 4.580,246.891 4.400,246.024 4.400 C 245.157 4.400,244.336 4.220,244.200 4.000 C 244.064 3.780,243.153 3.600,242.176 3.600 C 241.199 3.600,240.400 3.420,240.400 3.200 C 240.400 2.980,239.421 2.800,238.224 2.800 C 237.027 2.800,235.936 2.620,235.800 2.400 C 235.664 2.180,234.663 2.000,233.576 2.000 C 232.489 2.000,231.600 1.820,231.600 1.600 C 231.600 1.367,230.278 1.200,228.433 1.200 C 226.304 1.200,225.214 1.041,225.105 0.714 C 224.944 0.233,187.802 -0.118,178.500 0.274 M256.869 100.021 C 261.783 100.993,263.120 101.313,265.400 102.063 C 268.680 103.142,269.006 103.274,272.200 104.822 C 276.373 106.844,281.696 110.514,284.980 113.633 C 286.582 115.155,288.188 116.400,288.548 116.400 C 290.212 116.400,302.405 112.678,306.200 111.011 C 306.860 110.722,308.300 110.092,309.400 109.611 C 311.951 108.498,315.180 106.882,318.078 105.268 C 321.914 103.133,322.265 103.509,320.531 107.896 C 317.063 116.670,310.948 124.906,303.700 130.566 C 302.325 131.639,301.200 132.578,301.200 132.651 C 301.200 133.671,316.997 129.543,324.154 126.654 C 329.318 124.569,329.508 124.923,325.909 129.933 C 320.633 137.276,312.037 146.318,305.691 151.200 L 302.831 153.400 302.815 161.200 C 302.794 171.241,301.878 180.005,299.618 191.800 C 299.296 193.479,297.660 200.019,296.416 204.600 C 283.712 251.373,243.714 294.276,200.800 307.162 C 200.030 307.393,198.320 307.930,197.000 308.355 C 194.707 309.093,186.203 311.204,182.400 311.979 C 178.566 312.761,172.407 313.584,164.400 314.385 C 159.093 314.915,146.338 314.924,141.268 314.400 C 133.804 313.630,129.784 313.142,128.000 312.792 C 127.010 312.597,125.120 312.232,123.800 311.980 C 114.890 310.280,102.783 306.521,95.007 303.040 C 93.903 302.546,92.370 301.892,91.600 301.588 C 85.902 299.332,71.600 291.069,71.600 290.032 C 71.600 289.898,76.055 289.858,81.500 289.943 C 93.790 290.136,97.415 289.765,108.700 287.162 C 111.291 286.564,118.327 284.423,119.800 283.785 C 120.460 283.499,122.394 282.712,124.099 282.037 C 130.660 279.438,138.759 274.900,144.800 270.439 L 147.800 268.223 146.600 267.959 C 145.940 267.814,144.728 267.673,143.906 267.647 C 138.068 267.462,126.555 262.895,119.964 258.150 C 111.308 251.917,101.601 238.610,100.178 231.025 L 99.901 229.549 102.451 229.875 C 106.571 230.401,117.957 230.165,119.746 229.517 L 121.292 228.957 117.946 227.858 C 98.575 221.494,85.161 204.836,81.624 182.754 C 80.449 175.418,80.987 174.498,85.271 176.516 C 88.684 178.124,92.105 179.328,95.200 180.013 C 96.410 180.281,97.922 180.657,98.560 180.850 C 99.198 181.042,100.529 181.200,101.518 181.200 L 103.318 181.200 99.843 177.949 C 85.954 164.955,78.942 144.985,82.373 128.200 C 83.737 121.529,85.020 117.534,87.274 112.943 C 89.376 108.662,88.854 108.573,93.412 113.987 C 103.640 126.137,117.828 137.942,132.200 146.259 C 136.659 148.840,146.758 154.000,147.349 154.000 C 147.492 154.000,148.372 154.340,149.304 154.756 C 151.970 155.945,156.266 157.564,159.570 158.626 C 161.236 159.162,163.140 159.775,163.800 159.989 C 167.174 161.082,173.870 162.633,181.000 163.974 C 183.631 164.468,188.708 165.117,192.200 165.404 C 193.740 165.530,195.515 165.735,196.144 165.858 L 197.287 166.083 197.026 164.141 C 192.797 132.734,211.936 104.697,240.571 100.352 C 241.875 100.154,243.030 99.904,243.137 99.796 C 243.514 99.419,254.758 99.604,256.869 100.021 " stroke="none" fill="#fbfcfc" fill-rule="evenodd"></path><path id="path2" d="M242.000 100.400 C 240.656 100.831,242.108 100.831,243.800 100.400 C 244.878 100.126,244.898 100.094,244.000 100.087 C 243.450 100.083,242.550 100.224,242.000 100.400 M320.525 104.326 C 320.220 104.518,320.245 104.745,320.608 105.082 C 321.016 105.461,321.175 105.442,321.347 104.995 C 321.606 104.319,321.141 103.941,320.525 104.326 M217.585 110.829 L 216.200 112.058 217.700 110.981 C 219.026 110.030,219.457 109.600,219.085 109.600 C 219.022 109.600,218.347 110.153,217.585 110.829 M212.589 115.300 L 209.800 118.200 212.700 115.411 C 214.295 113.877,215.600 112.572,215.600 112.511 C 215.600 112.217,215.180 112.606,212.589 115.300 M96.200 118.000 C 97.283 119.100,98.260 120.000,98.370 120.000 C 98.480 120.000,97.683 119.100,96.600 118.000 C 95.517 116.900,94.540 116.000,94.430 116.000 C 94.320 116.000,95.117 116.900,96.200 118.000 M83.429 124.229 C 83.281 124.815,83.238 125.372,83.332 125.466 C 83.427 125.560,83.624 125.158,83.771 124.571 C 83.919 123.985,83.962 123.428,83.868 123.334 C 83.773 123.240,83.576 123.642,83.429 124.229 M105.000 126.800 C 106.083 127.900,107.060 128.800,107.170 128.800 C 107.280 128.800,106.483 127.900,105.400 126.800 C 104.317 125.700,103.340 124.800,103.230 124.800 C 103.120 124.800,103.917 125.700,105.000 126.800 M324.975 130.268 C 324.359 131.076,324.059 131.611,324.309 131.456 C 324.821 131.140,326.553 128.800,326.275 128.800 C 326.176 128.800,325.591 129.461,324.975 130.268 M301.011 131.912 C 298.806 133.562,299.447 134.150,302.457 133.239 C 303.658 132.876,303.589 132.857,301.800 133.059 L 299.800 133.285 301.500 132.008 C 302.952 130.917,303.508 130.363,303.100 130.412 C 303.045 130.419,302.105 131.094,301.011 131.912 M309.400 131.600 C 308.896 131.817,308.822 131.944,309.200 131.944 C 309.530 131.944,310.160 131.789,310.600 131.600 C 311.104 131.383,311.178 131.256,310.800 131.256 C 310.470 131.256,309.840 131.411,309.400 131.600 M82.146 137.000 C 82.147 139.200,82.214 140.049,82.295 138.887 C 82.376 137.724,82.376 135.924,82.293 134.887 C 82.211 133.849,82.145 134.800,82.146 137.000 M312.592 144.500 L 309.000 148.200 312.700 144.608 C 316.136 141.272,316.582 140.800,316.292 140.800 C 316.232 140.800,314.567 142.465,312.592 144.500 M169.000 162.000 C 169.440 162.189,170.070 162.344,170.400 162.344 C 170.778 162.344,170.704 162.217,170.200 162.000 C 169.760 161.811,169.130 161.656,168.800 161.656 C 168.422 161.656,168.496 161.783,169.000 162.000 M172.200 162.800 C 172.640 162.989,173.270 163.144,173.600 163.144 C 173.978 163.144,173.904 163.017,173.400 162.800 C 172.960 162.611,172.330 162.456,172.000 162.456 C 171.622 162.456,171.696 162.583,172.200 162.800 M89.400 164.800 C 89.741 165.460,90.111 166.000,90.221 166.000 C 90.331 166.000,90.141 165.460,89.800 164.800 C 89.459 164.140,89.089 163.600,88.979 163.600 C 88.869 163.600,89.059 164.140,89.400 164.800 M180.200 164.400 C 180.640 164.589,181.270 164.744,181.600 164.744 C 181.978 164.744,181.904 164.617,181.400 164.400 C 180.960 164.211,180.330 164.056,180.000 164.056 C 179.622 164.056,179.696 164.183,180.200 164.400 M191.505 165.883 C 192.002 165.979,192.722 165.975,193.105 165.875 C 193.487 165.775,193.080 165.696,192.200 165.701 C 191.320 165.705,191.007 165.787,191.505 165.883 M194.705 166.283 C 195.202 166.379,195.922 166.375,196.305 166.275 C 196.687 166.175,196.280 166.096,195.400 166.101 C 194.520 166.105,194.207 166.187,194.705 166.283 M302.109 170.000 C 302.109 170.990,302.187 171.395,302.282 170.900 C 302.378 170.405,302.378 169.595,302.282 169.100 C 302.187 168.605,302.109 169.010,302.109 170.000 M301.701 173.400 C 301.705 174.280,301.787 174.593,301.883 174.095 C 301.979 173.598,301.975 172.878,301.875 172.495 C 301.775 172.113,301.696 172.520,301.701 173.400 M98.000 175.800 C 99.860 177.670,101.472 179.200,101.582 179.200 C 101.692 179.200,100.260 177.670,98.400 175.800 C 96.540 173.930,94.928 172.400,94.818 172.400 C 94.708 172.400,96.140 173.930,98.000 175.800 M81.720 179.600 C 81.720 180.810,81.795 181.305,81.887 180.700 C 81.978 180.095,81.978 179.105,81.887 178.500 C 81.795 177.895,81.720 178.390,81.720 179.600 M104.000 181.175 C 104.000 181.381,103.415 181.622,102.700 181.711 C 101.564 181.852,101.613 181.880,103.087 181.936 C 104.438 181.987,104.729 181.880,104.545 181.400 C 104.286 180.726,104.000 180.607,104.000 181.175 M299.429 189.429 C 299.281 190.015,299.238 190.572,299.332 190.666 C 299.427 190.760,299.624 190.358,299.771 189.771 C 299.919 189.185,299.962 188.628,299.868 188.534 C 299.773 188.440,299.576 188.842,299.429 189.429 M97.200 214.600 C 98.395 215.810,99.463 216.800,99.573 216.800 C 99.683 216.800,98.795 215.810,97.600 214.600 C 96.405 213.390,95.337 212.400,95.227 212.400 C 95.117 212.400,96.005 213.390,97.200 214.600 M106.000 221.779 C 106.000 221.889,106.540 222.259,107.200 222.600 C 107.860 222.941,108.400 223.131,108.400 223.021 C 108.400 222.911,107.860 222.541,107.200 222.200 C 106.540 221.859,106.000 221.669,106.000 221.779 M100.538 230.617 C 100.408 230.957,100.413 231.347,100.551 231.484 C 100.688 231.621,100.800 231.446,100.800 231.094 C 100.800 230.743,101.205 230.378,101.700 230.282 L 102.600 230.109 101.687 230.054 C 101.186 230.025,100.668 230.278,100.538 230.617 M105.100 230.682 C 105.595 230.778,106.405 230.778,106.900 230.682 C 107.395 230.587,106.990 230.509,106.000 230.509 C 105.010 230.509,104.605 230.587,105.100 230.682 M114.100 230.676 C 114.485 230.776,115.115 230.776,115.500 230.676 C 115.885 230.575,115.570 230.493,114.800 230.493 C 114.030 230.493,113.715 230.575,114.100 230.676 M109.300 231.087 C 109.905 231.178,110.895 231.178,111.500 231.087 C 112.105 230.995,111.610 230.920,110.400 230.920 C 109.190 230.920,108.695 230.995,109.300 231.087 M109.600 248.125 C 109.600 248.194,110.185 248.779,110.900 249.425 L 112.200 250.600 111.025 249.300 C 109.930 248.088,109.600 247.816,109.600 248.125 M123.600 260.179 C 123.600 260.289,124.140 260.659,124.800 261.000 C 125.460 261.341,126.000 261.531,126.000 261.421 C 126.000 261.311,125.460 260.941,124.800 260.600 C 124.140 260.259,123.600 260.069,123.600 260.179 M137.000 266.000 C 137.440 266.189,138.070 266.344,138.400 266.344 C 138.778 266.344,138.704 266.217,138.200 266.000 C 137.760 265.811,137.130 265.656,136.800 265.656 C 136.422 265.656,136.496 265.783,137.000 266.000 M260.175 268.100 L 259.000 269.400 260.300 268.225 C 261.015 267.579,261.600 266.994,261.600 266.925 C 261.600 266.616,261.270 266.888,260.175 268.100 M146.300 267.493 C 147.567 267.607,148.002 267.818,148.006 268.323 C 148.011 268.897,148.069 268.910,148.385 268.411 C 148.904 267.591,148.148 267.198,146.200 267.276 L 144.600 267.340 146.300 267.493 M138.300 275.029 C 136.805 275.840,136.896 276.178,138.400 275.400 C 139.060 275.059,139.600 274.694,139.600 274.590 C 139.600 274.332,139.557 274.347,138.300 275.029 M251.775 276.500 L 250.600 277.800 251.900 276.625 C 252.615 275.979,253.200 275.394,253.200 275.325 C 253.200 275.016,252.870 275.288,251.775 276.500 M248.175 279.700 L 247.000 281.000 248.300 279.825 C 249.015 279.179,249.600 278.594,249.600 278.525 C 249.600 278.216,249.270 278.488,248.175 279.700 M108.200 287.600 C 107.696 287.817,107.622 287.944,108.000 287.944 C 108.330 287.944,108.960 287.789,109.400 287.600 C 109.904 287.383,109.978 287.256,109.600 287.256 C 109.270 287.256,108.640 287.411,108.200 287.600 M104.600 288.400 C 104.096 288.617,104.022 288.744,104.400 288.744 C 104.730 288.744,105.360 288.589,105.800 288.400 C 106.304 288.183,106.378 288.056,106.000 288.056 C 105.670 288.056,105.040 288.211,104.600 288.400 M72.400 290.376 C 72.400 290.583,72.608 290.881,72.862 291.038 C 73.138 291.209,73.215 291.149,73.054 290.888 C 72.887 290.616,73.279 290.391,74.092 290.290 C 75.389 290.129,75.388 290.128,73.900 290.064 C 73.075 290.029,72.400 290.169,72.400 290.376 M82.713 290.695 C 83.876 290.776,85.676 290.776,86.713 290.693 C 87.751 290.611,86.800 290.545,84.600 290.546 C 82.400 290.547,81.551 290.614,82.713 290.695 M185.400 310.800 C 184.896 311.017,184.822 311.144,185.200 311.144 C 185.530 311.144,186.160 310.989,186.600 310.800 C 187.104 310.583,187.178 310.456,186.800 310.456 C 186.470 310.456,185.840 310.611,185.400 310.800 M123.400 311.600 C 123.840 311.789,124.470 311.944,124.800 311.944 C 125.178 311.944,125.104 311.817,124.600 311.600 C 124.160 311.411,123.530 311.256,123.200 311.256 C 122.822 311.256,122.896 311.383,123.400 311.600 M127.800 312.400 C 128.240 312.589,128.960 312.738,129.400 312.732 C 130.043 312.723,130.004 312.657,129.200 312.400 C 127.832 311.962,126.781 311.962,127.800 312.400 M170.600 313.200 C 169.522 313.474,169.502 313.506,170.400 313.513 C 170.950 313.517,171.850 313.376,172.400 313.200 C 173.744 312.769,172.292 312.769,170.600 313.200 M139.700 313.876 C 140.085 313.976,140.715 313.976,141.100 313.876 C 141.485 313.775,141.170 313.693,140.400 313.693 C 139.630 313.693,139.315 313.775,139.700 313.876 M163.700 313.876 C 164.085 313.976,164.715 313.976,165.100 313.876 C 165.485 313.775,165.170 313.693,164.400 313.693 C 163.630 313.693,163.315 313.775,163.700 313.876 M143.300 314.287 C 143.905 314.378,144.895 314.378,145.500 314.287 C 146.105 314.195,145.610 314.120,144.400 314.120 C 143.190 314.120,142.695 314.195,143.300 314.287 M158.100 314.291 C 158.925 314.378,160.275 314.378,161.100 314.291 C 161.925 314.205,161.250 314.134,159.600 314.134 C 157.950 314.134,157.275 314.205,158.100 314.291 " stroke="none" fill="#a7dcf4" fill-rule="evenodd"></path><path id="path3" d="M243.824 100.347 C 243.177 100.486,245.770 100.600,249.586 100.601 C 253.404 100.601,255.822 100.476,254.962 100.324 C 253.050 99.984,245.440 100.000,243.824 100.347 M238.600 101.220 C 238.061 101.465,238.454 101.505,239.800 101.341 C 240.900 101.207,241.875 101.031,241.967 100.949 C 242.317 100.636,239.361 100.874,238.600 101.220 M256.833 100.949 C 256.925 101.031,257.900 101.207,259.000 101.341 C 260.346 101.505,260.739 101.465,260.200 101.220 C 259.439 100.874,256.483 100.636,256.833 100.949 M235.600 102.018 C 235.162 102.315,235.324 102.352,236.200 102.156 C 237.671 101.827,237.990 101.598,236.967 101.606 C 236.545 101.609,235.930 101.795,235.600 102.018 M262.000 102.000 C 263.368 102.438,264.419 102.438,263.400 102.000 C 262.960 101.811,262.240 101.662,261.800 101.668 C 261.157 101.677,261.196 101.743,262.000 102.000 M231.800 103.200 C 229.684 104.180,230.114 104.186,232.815 103.214 C 234.017 102.782,234.640 102.436,234.200 102.444 C 233.760 102.452,232.680 102.793,231.800 103.200 M225.892 105.735 C 219.317 109.256,210.996 116.275,208.033 120.800 C 207.339 121.860,207.482 121.762,208.621 120.400 C 213.783 114.229,220.062 109.154,226.651 105.829 C 228.603 104.844,229.930 104.045,229.600 104.054 C 229.270 104.063,227.601 104.820,225.892 105.735 M319.403 105.195 C 319.258 105.430,319.436 105.484,319.839 105.330 C 320.417 105.108,320.479 105.245,320.248 106.234 C 320.049 107.087,320.085 107.239,320.382 106.800 C 320.977 105.921,320.888 104.800,320.224 104.800 C 319.907 104.800,319.537 104.978,319.403 105.195 M316.711 106.560 C 314.616 107.805,314.284 108.263,316.200 107.265 C 318.205 106.220,319.119 105.603,318.600 105.644 C 318.380 105.661,317.530 106.074,316.711 106.560 M274.611 106.939 C 276.519 108.241,277.600 108.878,277.600 108.699 C 277.600 108.445,274.504 106.400,274.120 106.400 C 273.956 106.400,274.177 106.642,274.611 106.939 M319.600 107.684 C 319.600 107.804,319.328 108.554,318.995 109.351 C 318.662 110.148,318.473 110.800,318.576 110.800 C 318.931 110.800,320.104 107.970,319.852 107.719 C 319.714 107.580,319.600 107.565,319.600 107.684 M310.853 109.453 C 310.113 109.776,309.601 110.134,309.716 110.249 C 309.831 110.364,310.616 110.093,311.462 109.647 C 313.235 108.711,312.841 108.586,310.853 109.453 M88.800 110.824 C 88.800 111.057,88.964 111.146,89.164 111.023 C 89.364 110.899,90.972 112.463,92.738 114.499 C 100.921 123.930,109.578 131.949,118.700 138.549 C 122.614 141.381,120.827 139.684,116.300 136.270 C 113.825 134.404,111.436 132.545,110.992 132.139 C 110.548 131.732,109.378 130.696,108.392 129.836 C 102.214 124.444,91.821 113.608,90.280 110.952 C 89.905 110.304,88.800 110.209,88.800 110.824 M283.800 113.707 C 286.984 116.762,287.562 117.156,288.800 117.116 L 290.200 117.072 288.840 116.906 C 287.940 116.796,286.993 116.243,286.040 115.269 C 285.248 114.460,283.610 113.000,282.400 112.025 C 280.950 110.857,281.427 111.431,283.800 113.707 M307.253 111.053 C 306.513 111.376,306.001 111.734,306.116 111.849 C 306.231 111.964,307.016 111.693,307.862 111.247 C 309.635 110.311,309.241 110.186,307.253 111.053 M316.676 114.015 C 313.786 119.299,309.236 124.810,304.000 129.366 C 302.704 130.494,302.375 130.900,303.200 130.354 C 307.733 127.352,319.522 112.589,318.335 111.402 C 318.253 111.320,317.507 112.496,316.676 114.015 M87.342 113.813 C 86.765 115.031,86.378 116.111,86.481 116.214 C 86.584 116.317,87.134 115.321,87.704 114.001 C 89.005 110.985,88.745 110.850,87.342 113.813 M303.000 112.829 C 302.120 113.252,301.850 113.486,302.400 113.350 C 303.905 112.975,305.884 112.066,305.200 112.062 C 304.870 112.061,303.880 112.406,303.000 112.829 M294.400 115.618 C 293.962 115.915,294.124 115.952,295.000 115.756 C 296.471 115.427,296.790 115.198,295.767 115.206 C 295.345 115.209,294.730 115.395,294.400 115.618 M291.000 116.400 L 290.200 116.744 291.000 116.732 C 291.440 116.726,292.250 116.576,292.800 116.400 L 293.800 116.080 292.800 116.068 C 292.250 116.062,291.440 116.211,291.000 116.400 M84.651 120.760 C 84.293 121.855,84.014 123.076,84.031 123.475 C 84.047 123.874,84.403 123.041,84.821 121.623 C 85.721 118.570,85.588 117.895,84.651 120.760 M205.820 123.738 C 205.259 124.474,204.800 125.211,204.800 125.376 C 204.800 125.541,204.420 126.210,203.956 126.861 C 203.492 127.513,203.194 128.127,203.293 128.226 C 203.392 128.325,204.299 127.055,205.308 125.403 C 207.278 122.180,207.459 121.589,205.820 123.738 M83.456 125.284 C 83.321 125.788,83.228 126.650,83.249 127.200 C 83.272 127.789,83.431 127.471,83.636 126.425 C 84.003 124.552,83.873 123.727,83.456 125.284 M325.800 126.602 C 324.601 127.167,324.601 127.167,325.700 126.940 C 327.117 126.648,327.093 126.791,325.302 129.283 C 324.478 130.430,323.995 131.250,324.229 131.106 C 324.463 130.961,325.418 129.753,326.352 128.422 C 328.085 125.952,327.971 125.578,325.800 126.602 M322.200 128.029 C 321.320 128.452,321.050 128.686,321.600 128.549 C 322.733 128.267,324.812 127.225,324.200 127.246 C 323.980 127.253,323.080 127.606,322.200 128.029 M82.650 129.650 C 82.333 131.234,82.410 143.408,82.747 144.977 C 82.886 145.625,83.000 142.160,83.000 137.277 C 83.000 132.395,82.978 128.400,82.950 128.400 C 82.923 128.400,82.788 128.963,82.650 129.650 M201.423 131.806 C 200.560 133.872,200.674 134.106,201.647 132.262 C 202.093 131.416,202.365 130.632,202.252 130.519 C 202.139 130.406,201.766 130.985,201.423 131.806 M313.800 130.800 C 313.296 131.017,313.222 131.144,313.600 131.144 C 313.930 131.144,314.560 130.989,315.000 130.800 C 315.504 130.583,315.578 130.456,315.200 130.456 C 314.870 130.456,314.240 130.611,313.800 130.800 M300.105 132.125 C 298.420 133.264,298.418 134.018,300.100 133.940 L 301.400 133.880 300.208 133.705 L 299.017 133.529 300.408 132.375 C 302.053 131.012,301.918 130.900,300.105 132.125 M310.600 131.600 C 309.581 132.038,310.632 132.038,312.000 131.600 C 312.804 131.343,312.843 131.277,312.200 131.268 C 311.760 131.262,311.040 131.411,310.600 131.600 M321.189 134.700 C 317.012 139.706,311.299 145.456,306.900 149.083 C 304.645 150.942,302.800 152.547,302.800 152.648 C 302.800 153.614,315.056 142.347,318.941 137.809 C 320.074 136.486,321.331 135.043,321.735 134.602 C 322.645 133.608,324.104 131.600,323.915 131.600 C 323.838 131.600,322.612 132.995,321.189 134.700 M307.000 132.400 L 306.200 132.744 307.000 132.732 C 307.440 132.726,308.250 132.576,308.800 132.400 L 309.800 132.080 308.800 132.068 C 308.250 132.062,307.440 132.211,307.000 132.400 M302.800 133.220 C 302.126 133.449,302.451 133.484,303.800 133.328 C 304.900 133.201,305.875 133.031,305.967 132.949 C 306.282 132.668,303.799 132.880,302.800 133.220 M199.467 136.667 C 199.320 136.813,199.211 137.308,199.225 137.767 C 199.249 138.533,199.282 138.523,199.634 137.642 C 200.026 136.663,199.944 136.189,199.467 136.667 M198.649 139.415 C 198.512 139.773,198.416 140.456,198.436 140.933 C 198.462 141.547,198.585 141.408,198.859 140.456 C 199.257 139.072,199.094 138.258,198.649 139.415 M121.200 140.182 C 121.200 140.285,122.235 141.066,123.500 141.915 C 126.301 143.798,126.800 144.095,126.800 143.882 C 126.800 143.792,125.540 142.880,124.000 141.855 C 122.460 140.831,121.200 140.078,121.200 140.182 M197.849 142.615 C 197.712 142.973,197.620 143.836,197.644 144.533 C 197.682 145.637,197.733 145.571,198.036 144.025 C 198.393 142.205,198.294 141.457,197.849 142.615 M127.200 144.187 C 127.200 144.564,138.506 150.960,140.500 151.711 C 142.012 152.281,141.081 151.601,138.900 150.543 C 136.213 149.239,130.349 145.903,128.771 144.780 C 127.688 144.008,127.200 143.824,127.200 144.187 M83.275 147.400 C 83.265 148.060,83.411 148.960,83.600 149.400 L 83.944 150.200 83.925 149.400 C 83.914 148.960,83.768 148.060,83.600 147.400 L 83.295 146.200 83.275 147.400 M197.050 147.650 C 196.735 149.225,196.809 159.401,197.147 160.980 C 197.286 161.628,197.400 158.614,197.400 154.280 C 197.400 149.946,197.378 146.400,197.350 146.400 C 197.322 146.400,197.188 146.963,197.050 147.650 M84.006 151.033 C 84.009 151.455,84.195 152.070,84.418 152.400 C 84.715 152.838,84.752 152.676,84.556 151.800 C 84.227 150.329,83.998 150.010,84.006 151.033 M302.088 159.000 C 302.037 162.520,301.914 166.930,301.815 168.800 L 301.634 172.200 302.026 169.403 C 302.241 167.865,302.364 163.455,302.299 159.603 L 302.180 152.600 302.088 159.000 M84.828 153.876 C 84.813 154.358,84.980 154.864,85.200 155.000 C 85.673 155.292,85.673 154.901,85.200 153.800 C 84.869 153.029,84.855 153.031,84.828 153.876 M146.854 154.587 C 147.190 154.923,150.000 156.016,150.000 155.811 C 150.000 155.701,149.348 155.338,148.551 155.005 C 147.075 154.389,146.518 154.251,146.854 154.587 M85.609 155.851 C 85.596 156.522,86.817 159.316,87.031 159.103 C 87.132 159.002,86.855 158.127,86.416 157.160 C 85.977 156.192,85.614 155.603,85.609 155.851 M153.426 157.365 C 155.444 158.244,156.726 158.459,155.000 157.629 C 154.120 157.206,153.130 156.853,152.800 156.845 C 152.470 156.838,152.752 157.072,153.426 157.365 M156.800 158.585 C 156.800 158.830,160.894 160.039,161.084 159.850 C 161.165 159.769,160.335 159.409,159.240 159.051 C 157.112 158.355,156.800 158.295,156.800 158.585 M87.200 159.738 C 87.200 160.254,88.895 163.611,89.274 163.846 C 89.483 163.975,89.171 163.118,88.579 161.940 C 87.449 159.690,87.200 159.293,87.200 159.738 M163.764 160.843 C 165.063 161.263,166.202 161.532,166.293 161.440 C 166.474 161.260,162.293 159.975,161.738 160.040 C 161.552 160.062,162.464 160.423,163.764 160.843 M167.600 162.000 C 168.968 162.438,170.019 162.438,169.000 162.000 C 168.560 161.811,167.840 161.662,167.400 161.668 C 166.757 161.677,166.796 161.743,167.600 162.000 M170.800 162.800 C 172.168 163.238,173.219 163.238,172.200 162.800 C 171.760 162.611,171.040 162.462,170.600 162.468 C 169.957 162.477,169.996 162.543,170.800 162.800 M197.722 164.200 C 197.800 166.191,197.794 166.201,196.400 166.447 C 195.043 166.687,195.037 166.696,196.200 166.741 C 198.195 166.819,198.495 166.399,198.042 164.164 L 197.645 162.200 197.722 164.200 M174.200 163.600 C 175.892 164.031,177.344 164.031,176.000 163.600 C 175.450 163.424,174.550 163.283,174.000 163.287 C 173.102 163.294,173.122 163.326,174.200 163.600 M178.200 164.400 C 178.860 164.568,179.760 164.714,180.200 164.725 L 181.000 164.744 180.200 164.400 C 179.760 164.211,178.860 164.065,178.200 164.075 L 177.000 164.095 178.200 164.400 M90.047 165.300 C 92.075 169.145,98.935 176.974,102.752 179.800 C 105.450 181.798,105.284 182.128,101.706 181.876 C 99.337 181.709,99.027 181.738,100.400 181.999 C 105.871 183.038,106.562 182.441,103.100 179.664 C 98.559 176.023,92.407 169.095,90.583 165.568 C 90.251 164.925,89.888 164.400,89.776 164.400 C 89.664 164.400,89.786 164.805,90.047 165.300 M183.000 165.223 C 183.880 165.405,185.050 165.543,185.600 165.530 C 187.188 165.491,184.565 164.895,182.800 164.893 L 181.400 164.892 183.000 165.223 M188.800 166.020 C 189.790 166.197,191.410 166.330,192.400 166.317 L 194.200 166.293 192.200 165.982 C 191.100 165.810,189.480 165.677,188.600 165.685 L 187.000 165.700 188.800 166.020 M301.058 176.546 C 300.893 178.276,300.842 179.775,300.944 179.877 C 301.206 180.139,301.715 175.076,301.520 174.158 C 301.431 173.741,301.223 174.816,301.058 176.546 M81.879 178.900 C 82.185 182.730,82.508 182.993,82.336 179.272 C 82.204 176.431,82.227 176.348,83.088 176.514 C 83.576 176.608,83.881 176.530,83.764 176.342 C 82.719 174.651,81.654 176.095,81.879 178.900 M91.600 180.000 C 92.590 180.415,93.760 180.753,94.200 180.750 C 94.640 180.746,94.010 180.402,92.800 179.983 C 89.983 179.009,89.263 179.019,91.600 180.000 M96.000 181.200 C 96.550 181.376,97.360 181.526,97.800 181.532 L 98.600 181.544 97.800 181.200 C 97.360 181.011,96.550 180.862,96.000 180.868 L 95.000 180.880 96.000 181.200 M300.246 182.747 C 300.089 183.927,300.046 184.979,300.150 185.083 C 300.417 185.350,300.922 181.764,300.707 181.125 C 300.611 180.836,300.403 181.566,300.246 182.747 M82.428 184.233 C 82.444 185.095,82.617 186.160,82.814 186.600 C 83.048 187.122,83.088 186.637,82.932 185.200 C 82.643 182.558,82.389 182.070,82.428 184.233 M299.664 186.250 C 299.629 186.718,299.505 187.708,299.389 188.450 C 299.196 189.686,299.215 189.717,299.608 188.814 C 299.845 188.272,299.968 187.282,299.883 186.614 C 299.791 185.897,299.702 185.748,299.664 186.250 M83.246 188.400 C 83.227 188.950,83.387 189.670,83.600 190.000 C 84.094 190.764,84.094 189.942,83.600 188.400 L 83.280 187.400 83.246 188.400 M298.654 191.554 C 298.500 192.518,298.458 193.391,298.561 193.494 C 298.830 193.763,299.315 190.945,299.107 190.322 C 299.012 190.036,298.808 190.590,298.654 191.554 M84.034 191.400 C 84.022 191.840,84.187 192.470,84.400 192.800 C 84.914 193.595,84.914 192.596,84.400 191.400 L 84.056 190.600 84.034 191.400 M84.825 193.847 C 84.793 194.421,86.422 198.475,86.896 199.000 C 87.095 199.220,86.866 198.410,86.387 197.200 C 84.995 193.681,84.852 193.375,84.825 193.847 M298.049 194.400 C 298.016 194.730,297.889 195.450,297.767 196.000 C 297.575 196.864,297.607 196.903,297.999 196.288 C 298.248 195.897,298.375 195.177,298.281 194.688 C 298.186 194.200,298.082 194.070,298.049 194.400 M297.249 197.600 C 297.216 197.930,297.089 198.650,296.967 199.200 C 296.775 200.064,296.807 200.103,297.199 199.488 C 297.448 199.097,297.575 198.377,297.481 197.888 C 297.386 197.400,297.282 197.270,297.249 197.600 M295.911 202.861 C 295.541 204.241,295.303 205.436,295.382 205.515 C 295.598 205.731,296.863 201.190,296.713 200.739 C 296.642 200.525,296.281 201.480,295.911 202.861 M88.007 201.295 C 87.995 201.820,91.367 207.231,92.519 208.534 C 93.134 209.230,92.750 208.450,91.665 206.800 C 90.581 205.150,89.315 203.170,88.853 202.400 C 88.391 201.630,88.010 201.133,88.007 201.295 M294.846 206.467 C 294.821 206.834,294.696 207.464,294.570 207.867 C 294.352 208.562,294.363 208.563,294.797 207.887 C 295.048 207.496,295.173 206.866,295.073 206.487 C 294.911 205.868,294.888 205.866,294.846 206.467 M293.067 211.867 C 292.474 213.547,292.078 215.011,292.185 215.119 C 292.293 215.226,292.462 215.064,292.562 214.757 C 292.661 214.451,293.132 213.062,293.608 211.670 C 294.084 210.279,294.399 209.066,294.309 208.975 C 294.218 208.885,293.659 210.186,293.067 211.867 M95.057 211.800 C 97.944 215.295,104.028 220.573,106.800 221.988 C 108.228 222.716,107.417 222.030,104.200 219.786 C 102.660 218.711,99.601 216.025,97.402 213.816 C 95.203 211.607,94.148 210.700,95.057 211.800 M289.989 220.121 C 288.605 223.586,288.645 223.456,289.088 223.000 C 289.590 222.481,291.355 218.021,291.142 217.808 C 291.052 217.718,290.533 218.759,289.989 220.121 M108.200 222.706 C 108.768 223.301,111.663 224.870,111.849 224.684 C 111.934 224.599,111.058 224.025,109.902 223.409 C 108.746 222.792,107.980 222.476,108.200 222.706 M288.400 223.684 C 288.400 223.804,288.128 224.554,287.795 225.351 C 287.462 226.148,287.279 226.800,287.389 226.800 C 287.706 226.800,288.833 223.900,288.605 223.672 C 288.492 223.559,288.400 223.565,288.400 223.684 M112.400 224.995 C 112.400 225.205,115.135 226.411,115.549 226.383 C 115.870 226.362,113.101 224.839,112.700 224.817 C 112.535 224.808,112.400 224.888,112.400 224.995 M283.897 233.338 C 282.190 236.672,281.075 239.040,281.418 238.600 C 282.189 237.612,287.309 227.574,287.130 227.401 C 287.058 227.333,285.604 230.004,283.897 233.338 M123.032 229.147 C 122.914 229.339,122.049 229.628,121.109 229.790 C 120.169 229.953,119.612 230.167,119.870 230.266 C 120.547 230.526,123.600 229.641,123.600 229.185 C 123.600 228.706,123.317 228.687,123.032 229.147 M100.800 231.310 C 100.800 231.883,100.987 232.468,101.216 232.610 C 101.489 232.779,101.538 232.477,101.360 231.734 C 100.992 230.201,100.800 230.056,100.800 231.310 M103.200 230.802 C 105.032 231.147,108.670 231.322,108.367 231.051 C 108.275 230.970,106.670 230.804,104.800 230.683 C 102.330 230.524,101.892 230.557,103.200 230.802 M114.200 230.800 L 112.200 231.074 114.000 231.108 C 114.990 231.126,116.610 230.997,117.600 230.820 L 119.400 230.500 117.800 230.513 C 116.920 230.520,115.300 230.649,114.200 230.800 M102.400 235.384 C 102.400 235.847,104.799 240.530,105.277 241.000 C 105.501 241.220,105.014 240.050,104.195 238.400 C 102.637 235.260,102.400 234.862,102.400 235.384 M278.812 242.516 C 277.848 244.102,275.558 247.617,273.724 250.327 C 271.889 253.037,270.577 255.138,270.808 254.995 C 271.649 254.475,280.998 240.064,280.692 239.759 C 280.622 239.689,279.776 240.929,278.812 242.516 M105.600 241.775 C 105.600 244.449,117.877 256.785,123.759 260.022 C 126.063 261.290,125.509 260.818,121.800 258.352 C 117.597 255.558,111.275 249.405,108.493 245.400 C 105.972 241.769,105.600 241.304,105.600 241.775 M266.628 259.987 C 262.500 265.230,253.935 274.165,248.785 278.600 C 244.692 282.125,242.619 284.028,243.578 283.379 C 248.958 279.742,260.538 268.182,267.199 259.800 C 270.502 255.643,270.534 255.600,270.290 255.600 C 270.175 255.600,268.527 257.574,266.628 259.987 M129.000 262.704 C 129.525 263.178,133.579 264.807,134.153 264.775 C 134.625 264.748,134.319 264.605,130.800 263.213 C 129.590 262.734,128.780 262.505,129.000 262.704 M135.200 265.182 C 135.530 265.405,136.145 265.591,136.567 265.594 C 137.590 265.602,137.271 265.373,135.800 265.044 C 134.924 264.848,134.762 264.885,135.200 265.182 M138.200 266.000 C 138.640 266.189,139.360 266.338,139.800 266.332 C 140.443 266.323,140.404 266.257,139.600 266.000 C 138.232 265.562,137.181 265.562,138.200 266.000 M141.800 266.783 C 143.008 267.107,147.077 267.328,146.767 267.052 C 146.675 266.971,145.250 266.804,143.600 266.682 C 141.769 266.547,141.068 266.586,141.800 266.783 M148.279 267.517 C 148.988 267.968,148.555 268.404,144.589 271.228 C 139.143 275.106,138.869 275.320,140.600 274.344 C 145.849 271.382,150.490 267.189,148.500 267.206 C 148.026 267.210,147.955 267.311,148.279 267.517 M136.669 276.397 C 134.307 277.895,125.205 282.400,124.541 282.400 C 124.269 282.400,123.935 282.582,123.797 282.805 C 123.178 283.806,135.639 277.832,138.000 275.996 C 139.494 274.834,138.808 275.040,136.669 276.397 M240.800 285.235 L 239.400 286.448 240.895 285.524 C 241.717 285.016,242.392 284.465,242.395 284.300 C 242.402 283.864,242.338 283.902,240.800 285.235 M114.800 286.000 C 114.005 286.514,115.004 286.514,116.200 286.000 L 117.000 285.656 116.200 285.634 C 115.760 285.622,115.130 285.787,114.800 286.000 M233.931 289.939 C 231.143 291.840,228.922 293.456,228.996 293.529 C 229.178 293.711,238.670 287.333,238.992 286.814 C 239.350 286.233,239.527 286.124,233.931 289.939 M109.400 287.600 C 108.381 288.038,109.432 288.038,110.800 287.600 C 111.604 287.343,111.643 287.277,111.000 287.268 C 110.560 287.262,109.840 287.411,109.400 287.600 M105.800 288.419 C 105.242 288.671,105.485 288.707,106.600 288.538 C 107.480 288.404,108.275 288.228,108.367 288.147 C 108.710 287.844,106.568 288.071,105.800 288.419 M102.000 289.200 C 100.656 289.631,102.108 289.631,103.800 289.200 C 104.878 288.926,104.898 288.894,104.000 288.887 C 103.450 288.883,102.550 289.024,102.000 289.200 M96.400 290.000 C 94.312 290.439,96.746 290.457,99.200 290.020 L 101.000 289.700 99.400 289.703 C 98.520 289.704,97.170 289.838,96.400 290.000 M72.800 290.595 C 72.800 290.759,77.180 293.600,77.432 293.600 C 77.567 293.600,78.154 293.939,78.738 294.353 C 80.168 295.366,87.680 299.253,87.860 299.073 C 87.939 298.994,86.338 298.064,84.302 297.005 C 80.478 295.018,74.000 291.193,74.000 290.923 C 74.000 290.839,77.015 290.874,80.700 291.001 C 84.385 291.127,89.020 291.089,91.000 290.916 C 93.764 290.673,92.070 290.589,83.700 290.552 C 77.705 290.525,72.800 290.544,72.800 290.595 M227.100 294.229 C 226.495 294.557,226.000 294.910,226.000 295.013 C 226.000 295.399,226.632 295.157,227.600 294.400 C 228.789 293.470,228.611 293.409,227.100 294.229 M224.200 296.000 C 223.540 296.437,223.180 296.792,223.400 296.788 C 223.801 296.782,225.976 295.223,225.600 295.212 C 225.490 295.208,224.860 295.563,224.200 296.000 M218.800 298.800 C 216.710 299.878,215.139 300.769,215.308 300.780 C 215.733 300.808,222.800 297.239,222.800 296.996 C 222.800 296.724,223.007 296.631,218.800 298.800 M90.000 300.189 C 90.000 300.506,92.900 301.633,93.128 301.405 C 93.241 301.292,93.235 301.200,93.116 301.200 C 92.996 301.200,92.246 300.928,91.449 300.595 C 90.652 300.262,90.000 300.079,90.000 300.189 M212.800 301.600 C 212.030 302.022,211.513 302.374,211.651 302.383 C 212.065 302.411,214.800 301.205,214.800 300.995 C 214.800 300.646,214.225 300.820,212.800 301.600 M95.600 302.589 C 95.600 302.906,98.500 304.033,98.728 303.805 C 98.841 303.692,98.835 303.600,98.716 303.600 C 98.596 303.600,97.846 303.328,97.049 302.995 C 96.252 302.662,95.600 302.479,95.600 302.589 M202.400 305.618 C 197.986 307.234,197.371 307.757,201.463 306.414 C 204.091 305.551,207.634 304.050,207.000 304.068 C 206.780 304.074,204.710 304.772,202.400 305.618 M101.820 305.118 C 102.385 305.592,105.230 306.503,105.452 306.282 C 105.557 306.176,104.792 305.800,103.750 305.445 C 101.619 304.719,101.273 304.660,101.820 305.118 M108.400 307.364 C 108.400 307.600,112.567 308.808,113.262 308.773 C 113.558 308.759,113.047 308.511,112.126 308.223 C 109.662 307.453,108.400 307.162,108.400 307.364 M195.000 308.000 C 193.680 308.404,192.926 308.750,193.325 308.767 C 194.087 308.802,198.000 307.619,198.000 307.354 C 198.000 307.118,197.596 307.205,195.000 308.000 M114.400 309.200 C 114.730 309.413,115.360 309.578,115.800 309.566 L 116.600 309.544 115.800 309.200 C 114.604 308.686,113.605 308.686,114.400 309.200 M190.400 309.200 L 189.400 309.520 190.400 309.554 C 190.950 309.573,191.670 309.413,192.000 309.200 C 192.764 308.706,191.942 308.706,190.400 309.200 M117.400 310.000 C 117.840 310.189,118.560 310.338,119.000 310.332 C 119.643 310.323,119.604 310.257,118.800 310.000 C 117.432 309.562,116.381 309.562,117.400 310.000 M187.200 310.000 L 186.200 310.320 187.200 310.354 C 187.750 310.373,188.470 310.213,188.800 310.000 C 189.564 309.506,188.742 309.506,187.200 310.000 M120.600 310.800 C 121.040 310.989,121.940 311.135,122.600 311.125 L 123.800 311.105 122.600 310.800 C 121.940 310.632,121.040 310.486,120.600 310.475 L 119.800 310.456 120.600 310.800 M183.400 310.800 L 182.200 311.105 183.400 311.125 C 184.060 311.135,184.960 310.989,185.400 310.800 L 186.200 310.456 185.400 310.475 C 184.960 310.486,184.060 310.632,183.400 310.800 M124.600 311.590 C 125.364 311.928,127.914 312.157,127.567 311.856 C 127.475 311.776,126.590 311.604,125.600 311.473 C 124.398 311.314,124.066 311.353,124.600 311.590 M179.400 311.600 L 178.200 311.905 179.400 311.925 C 180.060 311.935,180.960 311.789,181.400 311.600 L 182.200 311.256 181.400 311.275 C 180.960 311.286,180.060 311.432,179.400 311.600 M129.200 312.393 C 130.188 312.716,133.489 312.935,133.167 312.656 C 133.075 312.576,131.920 312.411,130.600 312.288 C 129.109 312.149,128.579 312.189,129.200 312.393 M173.800 312.400 L 172.200 312.686 173.800 312.696 C 174.680 312.701,175.940 312.568,176.600 312.400 L 177.800 312.095 176.600 312.104 C 175.940 312.109,174.680 312.242,173.800 312.400 M135.000 313.205 C 136.582 313.550,140.689 313.739,140.367 313.451 C 140.275 313.370,138.670 313.202,136.800 313.079 C 134.372 312.920,133.857 312.956,135.000 313.205 M166.800 313.200 L 164.200 313.462 166.800 313.484 C 168.230 313.496,169.940 313.368,170.600 313.200 L 171.800 312.895 170.600 312.916 C 169.940 312.928,168.230 313.056,166.800 313.200 M146.105 314.150 C 148.817 314.351,153.475 314.349,157.105 314.143 C 163.311 313.792,163.244 313.787,152.400 313.793 C 142.764 313.799,141.983 313.843,146.105 314.150 " stroke="none" fill="#75c8ec" fill-rule="evenodd"></path><path id="path4" d="M246.319 99.898 C 248.144 99.972,251.024 99.972,252.719 99.897 C 254.414 99.822,252.920 99.761,249.400 99.762 C 245.880 99.762,244.494 99.824,246.319 99.898 M238.021 100.779 C 237.646 101.016,238.070 101.065,239.221 100.918 C 240.199 100.792,241.075 100.625,241.167 100.545 C 241.542 100.219,238.555 100.440,238.021 100.779 M258.305 100.683 C 258.802 100.779,259.522 100.775,259.905 100.675 C 260.287 100.575,259.880 100.496,259.000 100.501 C 258.120 100.505,257.807 100.587,258.305 100.683 M261.200 101.152 C 261.530 101.338,262.430 101.602,263.200 101.738 C 264.043 101.888,264.361 101.852,264.000 101.648 C 263.670 101.462,262.770 101.198,262.000 101.062 C 261.157 100.912,260.839 100.948,261.200 101.152 M231.800 102.614 C 230.185 103.354,231.151 103.355,232.854 102.616 C 233.594 102.294,233.930 102.039,233.600 102.048 C 233.270 102.057,232.460 102.312,231.800 102.614 M269.600 103.886 C 269.930 104.009,270.695 104.360,271.300 104.665 C 271.905 104.971,272.400 105.131,272.400 105.021 C 272.400 104.707,270.098 103.596,269.520 103.632 C 269.171 103.653,269.197 103.736,269.600 103.886 M224.597 105.858 C 222.327 107.062,218.000 109.929,218.000 110.230 C 218.000 110.340,219.035 109.728,220.300 108.870 C 221.565 108.011,223.545 106.816,224.700 106.213 C 225.855 105.610,226.800 105.045,226.800 104.958 C 226.800 104.704,226.692 104.748,224.597 105.858 M275.607 106.936 C 278.328 108.764,279.200 109.290,279.200 109.103 C 279.200 108.850,274.895 106.000,274.513 106.000 C 274.349 106.000,274.841 106.421,275.607 106.936 M310.500 109.034 C 309.785 109.346,309.200 109.694,309.200 109.807 C 309.200 110.015,312.006 108.927,312.346 108.587 C 312.686 108.247,311.820 108.457,310.500 109.034 M281.000 110.459 C 281.880 111.189,283.694 112.779,285.032 113.993 L 287.463 116.200 284.832 113.596 C 283.384 112.164,281.570 110.573,280.800 110.062 C 279.536 109.222,279.556 109.260,281.000 110.459 M88.619 110.300 C 88.415 110.837,88.463 110.891,88.825 110.531 C 89.085 110.273,89.591 110.155,89.949 110.269 C 90.512 110.447,90.519 110.417,90.000 110.044 C 89.170 109.446,88.927 109.492,88.619 110.300 M306.900 110.634 C 306.185 110.946,305.600 111.294,305.600 111.407 C 305.600 111.615,308.406 110.527,308.746 110.187 C 309.086 109.847,308.220 110.057,306.900 110.634 M91.999 112.799 C 92.919 113.898,93.881 114.926,94.136 115.083 C 94.391 115.239,93.723 114.340,92.651 113.084 C 91.580 111.828,90.618 110.800,90.514 110.800 C 90.410 110.800,91.079 111.699,91.999 112.799 M213.484 114.100 L 210.133 117.400 213.166 114.623 C 214.835 113.095,216.464 111.610,216.786 111.323 C 217.108 111.035,217.251 110.800,217.104 110.800 C 216.956 110.800,215.328 112.285,213.484 114.100 M301.904 112.515 C 300.641 112.969,299.682 113.416,299.774 113.507 C 299.929 113.663,304.802 112.074,305.167 111.749 C 305.568 111.391,304.021 111.755,301.904 112.515 M317.076 114.415 C 314.895 118.404,311.433 122.906,307.570 126.779 C 305.717 128.638,304.735 129.718,305.389 129.179 C 310.176 125.236,319.726 112.792,318.730 111.796 C 318.651 111.718,317.907 112.896,317.076 114.415 M295.200 114.800 C 294.376 115.064,294.341 115.126,295.000 115.154 C 295.440 115.173,296.070 115.013,296.400 114.800 C 297.101 114.347,296.614 114.347,295.200 114.800 M85.665 116.217 C 85.409 116.778,85.207 117.454,85.216 117.719 C 85.224 117.983,85.497 117.588,85.822 116.839 C 86.505 115.265,86.361 114.690,85.665 116.217 M97.466 118.918 C 99.190 120.853,102.220 123.884,104.200 125.655 L 107.800 128.874 104.400 125.597 C 102.530 123.795,99.500 120.763,97.666 118.860 L 94.332 115.400 97.466 118.918 M208.752 119.100 C 208.203 119.705,207.254 120.920,206.643 121.800 C 205.437 123.536,206.265 122.675,208.723 119.635 C 210.228 117.774,210.245 117.453,208.752 119.100 M83.849 121.415 C 83.712 121.773,83.615 122.366,83.634 122.733 C 83.653 123.100,83.827 122.869,84.021 122.220 C 84.398 120.958,84.265 120.333,83.849 121.415 M204.752 124.500 C 204.490 124.995,204.015 125.850,203.696 126.400 C 203.139 127.359,203.143 127.367,203.788 126.600 C 204.586 125.652,205.705 123.600,205.424 123.600 C 205.316 123.600,205.014 124.005,204.752 124.500 M327.590 125.463 C 328.199 125.766,328.094 126.335,327.167 127.738 L 326.334 129.000 327.371 127.800 C 328.444 126.559,328.577 125.543,327.690 125.363 C 327.410 125.306,327.365 125.351,327.590 125.463 M322.200 127.414 C 321.540 127.717,321.270 127.966,321.600 127.968 C 321.930 127.970,322.650 127.714,323.200 127.400 C 324.465 126.677,323.789 126.687,322.200 127.414 M82.120 131.200 C 82.120 132.410,82.195 132.905,82.287 132.300 C 82.378 131.695,82.378 130.705,82.287 130.100 C 82.195 129.495,82.120 129.990,82.120 131.200 M109.499 130.523 C 111.492 132.280,116.672 136.415,118.300 137.549 C 120.654 139.189,119.655 138.151,116.900 136.095 C 115.415 134.987,112.896 132.982,111.303 131.640 C 108.266 129.082,106.913 128.244,109.499 130.523 M312.800 130.414 C 311.370 130.817,310.532 131.158,310.938 131.173 C 311.776 131.204,316.000 130.034,316.000 129.772 C 316.000 129.533,315.752 129.583,312.800 130.414 M323.952 132.100 C 322.456 134.256,318.513 138.735,313.829 143.599 C 309.971 147.605,309.856 147.760,312.936 144.799 C 317.787 140.135,325.868 130.800,325.054 130.800 C 324.944 130.800,324.448 131.385,323.952 132.100 M300.856 132.413 L 299.911 133.200 301.056 133.168 C 301.685 133.151,301.967 133.044,301.683 132.930 C 301.287 132.770,301.275 132.592,301.632 132.161 C 302.278 131.383,301.974 131.482,300.856 132.413 M303.100 132.682 C 303.595 132.778,304.405 132.778,304.900 132.682 C 305.395 132.587,304.990 132.509,304.000 132.509 C 303.010 132.509,302.605 132.587,303.100 132.682 M199.057 136.457 C 198.690 137.593,198.459 138.592,198.544 138.677 C 198.628 138.762,199.001 137.904,199.371 136.771 C 199.742 135.639,199.973 134.640,199.885 134.551 C 199.797 134.463,199.424 135.321,199.057 136.457 M81.728 137.200 C 81.728 138.630,81.801 139.215,81.889 138.500 C 81.978 137.785,81.978 136.615,81.889 135.900 C 81.801 135.185,81.728 135.770,81.728 137.200 M120.210 138.816 C 120.345 139.034,121.748 140.078,123.328 141.136 C 126.563 143.301,127.610 143.925,127.000 143.322 C 126.268 142.598,119.961 138.413,120.210 138.816 M82.124 143.000 C 82.126 144.320,82.201 144.812,82.290 144.093 C 82.379 143.374,82.377 142.294,82.286 141.693 C 82.195 141.092,82.122 141.680,82.124 143.000 M197.293 143.600 C 197.293 144.370,197.375 144.685,197.476 144.300 C 197.576 143.915,197.576 143.285,197.476 142.900 C 197.375 142.515,197.293 142.830,197.293 143.600 M129.600 144.964 C 129.600 145.197,134.319 148.000,134.710 148.000 C 135.051 148.000,133.918 147.244,131.500 145.856 C 130.455 145.257,129.600 144.855,129.600 144.964 M82.852 148.000 C 82.830 148.550,83.083 149.810,83.415 150.800 C 83.907 152.272,83.971 152.345,83.764 151.200 C 83.175 147.948,82.894 146.959,82.852 148.000 M196.540 150.400 C 196.540 152.270,196.609 153.035,196.693 152.100 C 196.777 151.165,196.777 149.635,196.693 148.700 C 196.609 147.765,196.540 148.530,196.540 150.400 M135.400 148.346 C 135.833 148.780,139.708 150.858,140.988 151.343 C 142.488 151.913,141.272 151.146,138.143 149.550 C 136.415 148.668,135.180 148.127,135.400 148.346 M305.861 150.624 C 304.135 152.041,302.844 153.200,302.993 153.200 C 303.310 153.200,309.200 148.431,309.200 148.174 C 309.200 147.889,309.128 147.942,305.861 150.624 M84.257 153.900 C 84.578 155.192,85.562 157.546,85.584 157.075 C 85.608 156.589,84.333 152.800,84.146 152.800 C 84.057 152.800,84.107 153.295,84.257 153.900 M302.570 162.200 C 302.571 167.040,302.629 168.965,302.699 166.478 C 302.769 163.991,302.769 160.031,302.698 157.678 C 302.628 155.325,302.570 157.360,302.570 162.200 M147.254 154.187 C 147.590 154.523,150.400 155.616,150.400 155.411 C 150.400 155.301,149.748 154.938,148.951 154.605 C 147.475 153.989,146.918 153.851,147.254 154.187 M196.542 157.800 C 196.541 159.780,196.608 160.640,196.692 159.712 C 196.776 158.784,196.777 157.164,196.695 156.112 C 196.612 155.060,196.543 155.820,196.542 157.800 M152.968 156.617 C 154.270 157.158,155.530 157.592,155.768 157.583 C 156.006 157.574,155.134 157.124,153.832 156.583 C 152.530 156.042,151.270 155.608,151.032 155.617 C 150.794 155.626,151.666 156.076,152.968 156.617 M162.033 159.744 C 162.125 159.823,162.740 160.008,163.400 160.156 C 164.276 160.352,164.438 160.315,164.000 160.018 C 163.460 159.653,161.632 159.398,162.033 159.744 M86.828 160.200 C 86.828 160.420,87.086 161.050,87.400 161.600 C 87.714 162.150,87.972 162.420,87.972 162.200 C 87.972 161.980,87.714 161.350,87.400 160.800 C 87.086 160.250,86.828 159.980,86.828 160.200 M197.180 164.690 C 197.071 165.619,197.133 166.227,197.320 166.040 C 197.506 165.854,197.596 165.094,197.519 164.351 C 197.383 163.033,197.375 163.042,197.180 164.690 M178.500 163.876 C 178.885 163.976,179.515 163.976,179.900 163.876 C 180.285 163.775,179.970 163.693,179.200 163.693 C 178.430 163.693,178.115 163.775,178.500 163.876 M182.905 164.687 C 183.514 164.779,184.414 164.777,184.905 164.682 C 185.397 164.587,184.900 164.511,183.800 164.514 C 182.700 164.517,182.297 164.595,182.905 164.687 M189.107 165.490 C 189.826 165.579,190.906 165.577,191.507 165.486 C 192.108 165.395,191.520 165.322,190.200 165.324 C 188.880 165.326,188.388 165.401,189.107 165.490 M194.100 165.876 C 194.485 165.976,195.115 165.976,195.500 165.876 C 195.885 165.775,195.570 165.693,194.800 165.693 C 194.030 165.693,193.715 165.775,194.100 165.876 M91.077 168.031 C 91.475 168.708,92.056 169.473,92.368 169.731 C 92.680 169.989,92.432 169.435,91.815 168.500 C 90.520 166.537,90.009 166.212,91.077 168.031 M302.101 173.000 C 302.105 173.880,302.187 174.193,302.283 173.695 C 302.379 173.198,302.375 172.478,302.275 172.095 C 302.175 171.713,302.096 172.120,302.101 173.000 M98.927 176.955 L 103.253 181.200 101.573 181.200 C 100.649 181.200,99.242 181.027,98.446 180.815 C 97.133 180.465,93.763 179.620,91.200 178.999 C 90.392 178.803,90.431 178.861,91.400 179.303 C 92.060 179.603,93.680 180.083,95.000 180.368 C 96.320 180.653,97.922 181.047,98.560 181.243 C 100.132 181.727,104.000 181.696,104.000 181.200 C 104.000 180.980,103.835 180.800,103.634 180.800 C 103.432 180.800,101.317 178.980,98.934 176.755 L 94.600 172.710 98.927 176.955 M301.720 176.800 C 301.720 178.010,301.795 178.505,301.887 177.900 C 301.978 177.295,301.978 176.305,301.887 175.700 C 301.795 175.095,301.720 175.590,301.720 176.800 M81.367 175.742 C 81.252 176.040,81.223 177.435,81.302 178.842 L 81.446 181.400 81.523 178.529 C 81.586 176.171,81.725 175.626,82.300 175.476 C 82.956 175.304,82.955 175.290,82.287 175.246 C 81.896 175.221,81.481 175.444,81.367 175.742 M87.200 177.800 C 87.750 178.114,88.470 178.371,88.800 178.370 C 89.130 178.369,88.794 178.106,88.054 177.784 C 86.351 177.045,85.894 177.053,87.200 177.800 M300.901 183.000 C 300.905 183.880,300.987 184.193,301.083 183.695 C 301.179 183.198,301.175 182.478,301.075 182.095 C 300.975 181.713,300.896 182.120,300.901 183.000 M82.071 184.800 C 82.051 185.570,82.301 187.100,82.625 188.200 C 83.255 190.334,83.237 190.084,82.411 185.200 C 82.128 183.524,82.104 183.497,82.071 184.800 M300.093 188.000 C 300.093 188.770,300.175 189.085,300.276 188.700 C 300.376 188.315,300.376 187.685,300.276 187.300 C 300.175 186.915,300.093 187.230,300.093 188.000 M83.444 191.400 C 83.773 192.871,84.002 193.190,83.994 192.167 C 83.991 191.745,83.805 191.130,83.582 190.800 C 83.285 190.362,83.248 190.524,83.444 191.400 M299.087 192.200 C 298.443 195.755,298.418 196.509,299.012 194.407 C 299.352 193.201,299.574 191.851,299.504 191.407 C 299.428 190.926,299.259 191.246,299.087 192.200 M84.425 194.247 C 84.393 194.821,86.022 198.875,86.496 199.400 C 86.695 199.620,86.466 198.810,85.987 197.600 C 84.595 194.081,84.452 193.775,84.425 194.247 M296.846 201.667 C 296.821 202.034,296.696 202.664,296.570 203.067 C 296.352 203.762,296.363 203.763,296.797 203.087 C 297.048 202.696,297.173 202.066,297.073 201.687 C 296.911 201.068,296.888 201.066,296.846 201.667 M89.467 205.206 C 89.859 205.870,90.598 206.905,91.110 207.506 C 91.621 208.108,91.375 207.565,90.563 206.300 C 89.024 203.903,88.228 203.107,89.467 205.206 M295.699 205.590 C 294.996 207.842,295.113 208.558,295.843 206.473 C 296.176 205.523,296.392 204.576,296.323 204.369 C 296.254 204.161,295.973 204.711,295.699 205.590 M93.196 210.394 C 93.890 211.271,94.667 212.118,94.923 212.276 C 95.178 212.434,94.693 211.716,93.845 210.681 C 92.997 209.647,92.220 208.800,92.118 208.800 C 92.016 208.800,92.501 209.518,93.196 210.394 M97.377 215.090 C 98.685 216.459,99.840 217.494,99.944 217.390 C 100.048 217.285,100.054 217.155,99.957 217.100 C 99.861 217.045,98.706 216.010,97.391 214.800 L 95.000 212.600 97.377 215.090 M291.932 216.723 C 291.356 218.195,290.493 220.390,290.014 221.600 C 289.535 222.810,289.308 223.620,289.511 223.400 C 290.007 222.860,293.343 214.410,293.140 214.207 C 293.051 214.118,292.508 215.250,291.932 216.723 M288.800 224.084 C 288.800 224.204,288.528 224.954,288.195 225.751 C 287.862 226.548,287.679 227.200,287.789 227.200 C 288.106 227.200,289.233 224.300,289.005 224.072 C 288.892 223.959,288.800 223.965,288.800 224.084 M112.000 225.389 C 112.000 225.706,114.900 226.833,115.128 226.605 C 115.241 226.492,115.235 226.400,115.116 226.400 C 114.996 226.400,114.246 226.128,113.449 225.795 C 112.652 225.462,112.000 225.279,112.000 225.389 M286.475 229.419 C 285.270 231.900,285.405 232.247,286.646 229.861 C 287.201 228.794,287.587 227.853,287.503 227.770 C 287.419 227.686,286.957 228.428,286.475 229.419 M120.796 228.669 C 121.219 228.855,120.986 229.081,119.996 229.445 L 118.600 229.960 120.400 229.724 C 122.902 229.397,123.107 229.123,121.200 228.653 C 120.650 228.518,120.468 228.525,120.796 228.669 M100.000 230.476 C 100.000 231.247,100.060 231.277,100.500 230.722 C 100.775 230.376,101.270 229.996,101.600 229.878 C 101.932 229.759,101.708 229.649,101.100 229.632 C 100.225 229.606,100.000 229.779,100.000 230.476 M103.300 230.287 C 103.905 230.378,104.895 230.378,105.500 230.287 C 106.105 230.195,105.610 230.120,104.400 230.120 C 103.190 230.120,102.695 230.195,103.300 230.287 M115.300 230.287 C 115.905 230.378,116.895 230.378,117.500 230.287 C 118.105 230.195,117.610 230.120,116.400 230.120 C 115.190 230.120,114.695 230.195,115.300 230.287 M109.111 230.693 C 110.051 230.778,111.491 230.777,112.311 230.691 C 113.130 230.605,112.360 230.536,110.600 230.537 C 108.840 230.539,108.170 230.609,109.111 230.693 M100.400 231.884 C 100.400 232.451,101.563 235.200,101.802 235.200 C 101.907 235.200,101.696 234.435,101.332 233.500 C 100.595 231.607,100.400 231.269,100.400 231.884 M283.428 235.461 C 282.856 236.484,282.452 237.385,282.529 237.463 C 282.607 237.540,283.161 236.703,283.760 235.602 C 284.360 234.501,284.764 233.600,284.659 233.600 C 284.554 233.600,284.000 234.437,283.428 235.461 M102.679 237.500 C 102.967 238.294,104.000 239.897,104.000 239.550 C 104.000 239.202,102.763 236.800,102.583 236.800 C 102.496 236.800,102.539 237.115,102.679 237.500 M280.416 240.918 C 279.080 243.043,278.334 244.400,278.501 244.400 C 278.756 244.400,281.258 240.325,281.100 240.167 C 281.028 240.095,280.720 240.433,280.416 240.918 M275.060 249.400 C 273.375 251.930,272.083 254.000,272.189 254.000 C 272.295 254.000,273.614 252.155,275.119 249.900 C 278.267 245.183,278.505 244.800,278.285 244.800 C 278.196 244.800,276.745 246.870,275.060 249.400 M108.175 246.532 C 108.791 247.339,109.376 248.000,109.475 248.000 C 109.753 248.000,108.021 245.660,107.509 245.344 C 107.259 245.189,107.559 245.724,108.175 246.532 M109.600 248.525 C 109.600 248.594,110.185 249.179,110.900 249.825 L 112.200 251.000 111.025 249.700 C 109.930 248.488,109.600 248.216,109.600 248.525 M115.400 254.364 C 116.236 255.329,119.200 257.783,119.200 257.510 C 119.200 257.423,118.165 256.472,116.900 255.397 C 115.635 254.321,114.960 253.856,115.400 254.364 M271.144 255.100 C 269.993 256.489,269.506 257.200,269.704 257.200 C 269.814 257.200,270.386 256.570,270.973 255.800 C 272.063 254.371,272.195 253.832,271.144 255.100 M120.494 258.490 C 121.682 259.500,124.000 260.947,124.000 260.679 C 124.000 260.588,122.965 259.849,121.700 259.037 C 120.435 258.225,119.892 257.979,120.494 258.490 M267.934 259.300 C 267.201 260.235,265.463 262.350,264.073 264.000 C 261.739 266.771,261.711 266.825,263.713 264.701 C 266.009 262.265,269.785 257.600,269.460 257.600 C 269.354 257.600,268.667 258.365,267.934 259.300 M125.200 261.409 C 125.200 261.618,127.989 263.064,129.505 263.640 C 130.098 263.865,130.468 263.935,130.327 263.794 C 129.946 263.413,125.200 261.205,125.200 261.409 M142.300 267.482 C 142.795 267.578,143.605 267.578,144.100 267.482 C 144.595 267.387,144.190 267.309,143.200 267.309 C 142.210 267.309,141.805 267.387,142.300 267.482 M255.971 272.604 C 252.985 275.572,250.647 278.000,250.776 278.000 C 250.906 278.000,253.436 275.570,256.400 272.600 C 259.364 269.630,261.701 267.202,261.594 267.204 C 261.487 267.206,258.957 269.636,255.971 272.604 M146.535 267.890 C 147.651 268.057,147.657 268.074,146.935 268.887 C 146.210 269.702,146.212 269.706,147.100 269.160 C 148.433 268.342,148.232 267.589,146.700 267.660 C 145.440 267.718,145.435 267.725,146.535 267.890 M144.200 270.853 C 141.834 272.624,141.522 273.106,143.680 271.654 C 144.713 270.959,145.669 270.212,145.803 269.995 C 146.155 269.426,145.983 269.518,144.200 270.853 M140.100 273.646 C 138.737 274.519,138.295 275.106,139.500 274.443 C 140.418 273.939,141.856 272.827,141.600 272.819 C 141.490 272.816,140.815 273.188,140.100 273.646 M135.000 276.800 C 134.340 277.237,133.980 277.592,134.200 277.588 C 134.601 277.582,136.776 276.023,136.400 276.012 C 136.290 276.008,135.660 276.363,135.000 276.800 M249.039 279.157 C 248.662 279.573,246.542 281.328,244.328 283.057 C 239.574 286.769,237.410 288.625,239.800 286.941 C 242.199 285.250,248.923 279.816,249.549 279.061 C 250.308 278.146,249.881 278.227,249.039 279.157 M123.328 282.326 C 121.309 283.142,119.509 283.958,119.328 284.139 C 119.148 284.319,119.900 284.110,121.000 283.675 C 122.100 283.239,123.810 282.567,124.800 282.181 C 126.322 281.588,127.784 280.752,127.180 280.820 C 127.081 280.831,125.348 281.509,123.328 282.326 M115.678 285.095 C 114.731 285.422,114.027 285.760,114.113 285.847 C 114.200 285.933,115.334 285.654,116.635 285.227 C 117.936 284.800,118.640 284.462,118.200 284.476 C 117.760 284.490,116.625 284.768,115.678 285.095 M110.200 286.800 C 109.093 287.082,109.077 287.109,110.000 287.147 C 110.550 287.169,111.270 287.013,111.600 286.800 C 112.281 286.360,111.929 286.360,110.200 286.800 M234.093 290.565 C 230.674 292.885,228.957 294.200,230.400 293.393 C 231.790 292.615,238.000 288.364,238.000 288.190 C 238.000 287.908,238.081 287.858,234.093 290.565 M97.100 289.482 C 97.595 289.578,98.405 289.578,98.900 289.482 C 99.395 289.387,98.990 289.309,98.000 289.309 C 97.010 289.309,96.605 289.387,97.100 289.482 M71.600 289.980 C 71.600 290.322,73.426 291.845,74.700 292.565 C 75.851 293.215,75.085 292.394,73.800 291.600 C 72.114 290.558,72.035 290.108,73.500 289.887 C 74.385 289.752,74.307 289.708,73.100 289.660 C 72.275 289.627,71.600 289.771,71.600 289.980 M79.723 290.299 C 82.320 290.369,86.460 290.368,88.923 290.298 C 91.385 290.228,89.260 290.171,84.200 290.172 C 79.140 290.172,77.125 290.229,79.723 290.299 M75.600 292.904 C 75.600 293.087,79.425 295.492,81.100 296.361 C 82.695 297.189,82.056 296.500,80.300 295.499 C 79.365 294.966,77.925 294.123,77.100 293.626 C 76.275 293.128,75.600 292.803,75.600 292.904 M224.600 296.400 C 223.940 296.837,223.580 297.192,223.800 297.188 C 224.201 297.182,226.376 295.623,226.000 295.612 C 225.890 295.608,225.260 295.963,224.600 296.400 M82.404 296.916 C 82.792 297.344,87.316 299.618,87.471 299.462 C 87.556 299.377,86.588 298.788,85.318 298.153 C 82.690 296.840,82.114 296.596,82.404 296.916 M218.400 299.600 C 216.750 300.458,215.539 301.169,215.710 301.180 C 216.135 301.207,221.600 298.438,221.600 298.195 C 221.600 297.925,221.732 297.867,218.400 299.600 M213.400 301.978 C 212.520 302.395,211.913 302.750,212.051 302.768 C 212.440 302.818,215.200 301.614,215.200 301.395 C 215.200 301.127,215.199 301.127,213.400 301.978 M209.000 303.814 C 208.340 304.117,208.070 304.366,208.400 304.368 C 208.730 304.370,209.450 304.114,210.000 303.800 C 211.265 303.077,210.589 303.087,209.000 303.814 M100.746 305.416 C 101.486 305.737,102.296 305.993,102.546 305.984 C 102.796 305.976,102.394 305.706,101.654 305.384 C 100.914 305.063,100.104 304.807,99.854 304.816 C 99.604 304.824,100.006 305.094,100.746 305.416 M201.200 306.628 C 199.770 307.141,198.858 307.569,199.173 307.580 C 199.719 307.599,204.416 306.061,204.767 305.749 C 205.180 305.380,203.583 305.774,201.200 306.628 M110.800 308.752 C 111.130 308.938,112.030 309.202,112.800 309.338 C 113.643 309.488,113.961 309.452,113.600 309.248 C 113.270 309.062,112.370 308.798,111.600 308.662 C 110.757 308.512,110.439 308.548,110.800 308.752 M194.400 308.800 C 193.576 309.064,193.541 309.126,194.200 309.154 C 194.640 309.173,195.270 309.013,195.600 308.800 C 196.301 308.347,195.814 308.347,194.400 308.800 M116.440 310.174 C 116.889 310.622,121.367 311.634,122.184 311.471 C 122.822 311.344,122.773 311.297,121.960 311.254 C 121.388 311.225,120.398 311.035,119.760 310.833 C 117.961 310.264,116.176 309.909,116.440 310.174 M183.700 311.476 C 184.085 311.576,184.715 311.576,185.100 311.476 C 185.485 311.375,185.170 311.293,184.400 311.293 C 183.630 311.293,183.315 311.375,183.700 311.476 M180.400 312.000 C 179.033 312.288,179.028 312.295,180.200 312.319 C 180.860 312.333,181.760 312.189,182.200 312.000 C 183.162 311.587,182.364 311.587,180.400 312.000 M125.105 312.283 C 125.602 312.379,126.322 312.375,126.705 312.275 C 127.087 312.175,126.680 312.096,125.800 312.101 C 124.920 312.105,124.607 312.187,125.105 312.283 M129.500 313.082 C 129.995 313.178,130.805 313.178,131.300 313.082 C 131.795 312.987,131.390 312.909,130.400 312.909 C 129.410 312.909,129.005 312.987,129.500 313.082 M174.105 313.087 C 174.714 313.179,175.614 313.177,176.105 313.082 C 176.597 312.987,176.100 312.911,175.000 312.914 C 173.900 312.917,173.497 312.995,174.105 313.087 M135.907 313.890 C 136.626 313.979,137.706 313.977,138.307 313.886 C 138.908 313.795,138.320 313.722,137.000 313.724 C 135.680 313.726,135.188 313.801,135.907 313.890 M166.691 313.889 C 167.401 313.977,168.661 313.979,169.491 313.892 C 170.321 313.805,169.740 313.733,168.200 313.731 C 166.660 313.729,165.981 313.800,166.691 313.889 M140.500 314.276 C 140.885 314.376,141.515 314.376,141.900 314.276 C 142.285 314.175,141.970 314.093,141.200 314.093 C 140.430 314.093,140.115 314.175,140.500 314.276 M163.105 314.283 C 163.602 314.379,164.322 314.375,164.705 314.275 C 165.087 314.175,164.680 314.096,163.800 314.101 C 162.920 314.105,162.607 314.187,163.105 314.283 M148.100 314.699 C 150.685 314.768,154.915 314.768,157.500 314.699 C 160.085 314.629,157.970 314.572,152.800 314.572 C 147.630 314.572,145.515 314.629,148.100 314.699 " stroke="none" fill="#ccecfa" fill-rule="evenodd"></path></g></svg>