<svg id="svg" version="1.1" xmlns="http://www.w3.org/2000/svg" xmlns:xlink="http://www.w3.org/1999/xlink" width="400" height="400" viewBox="0, 0, 400,400"><g id="svgg"><path id="path0" d="M277.600 162.295 C 246.310 163.435,228.600 199.631,246.340 226.184 C 261.595 249.017,298.217 249.352,313.592 226.800 C 324.869 210.259,322.826 186.846,308.947 173.573 C 300.540 165.532,290.261 161.833,277.600 162.295 M192.600 163.240 C 180.392 166.224,173.600 174.316,173.600 185.877 C 173.600 198.123,178.829 203.194,198.056 209.593 C 210.855 213.853,213.746 216.308,212.934 222.228 C 211.701 231.225,195.342 230.328,193.796 221.179 L 193.530 219.600 183.319 219.600 L 173.108 219.600 173.390 221.900 C 175.042 235.392,186.409 243.358,204.000 243.351 C 221.770 243.344,232.800 234.183,232.800 219.430 C 232.800 207.478,227.011 202.008,207.340 195.372 C 196.696 191.781,193.605 189.401,193.601 184.794 C 193.595 175.345,208.257 174.454,210.997 183.736 L 211.488 185.400 221.417 185.507 C 232.639 185.628,232.147 185.770,231.577 182.579 C 229.871 173.040,222.661 165.735,212.574 163.327 C 208.188 162.280,196.732 162.230,192.600 163.240 M97.874 163.459 C 97.399 163.934,97.552 215.704,98.035 218.069 C 100.202 228.672,105.193 235.753,113.318 239.757 C 129.790 247.872,151.342 242.716,159.553 228.697 C 163.813 221.423,164.038 219.357,163.908 188.800 L 163.800 163.400 154.500 163.293 L 145.200 163.185 145.188 187.093 C 145.172 216.605,144.941 218.596,141.088 222.400 C 135.760 227.660,124.533 227.421,119.848 221.948 C 116.512 218.051,116.627 219.128,116.401 189.600 L 116.200 163.400 107.174 163.293 C 102.210 163.234,98.025 163.309,97.874 163.459 M287.296 180.389 C 307.137 186.573,306.335 220.049,286.213 225.625 C 270.976 229.847,258.943 219.655,259.028 202.600 C 259.114 185.434,271.715 175.533,287.296 180.389 " stroke="none" fill="#151d2d" fill-rule="evenodd"></path><path id="path1" d="M178.500 0.274 C 176.465 0.360,174.800 0.603,174.800 0.815 C 174.800 1.030,173.383 1.200,171.600 1.200 C 169.733 1.200,168.400 1.367,168.400 1.600 C 168.400 1.820,167.500 2.000,166.400 2.000 C 165.300 2.000,164.400 2.180,164.400 2.400 C 164.400 2.622,163.333 2.800,162.000 2.800 C 160.667 2.800,159.600 2.978,159.600 3.200 C 159.600 3.420,158.801 3.600,157.824 3.600 C 156.847 3.600,155.936 3.780,155.800 4.000 C 155.664 4.220,154.843 4.400,153.976 4.400 C 153.109 4.400,152.400 4.580,152.400 4.800 C 152.400 5.020,151.680 5.200,150.800 5.200 C 149.920 5.200,149.200 5.380,149.200 5.600 C 149.200 5.820,148.581 6.000,147.824 6.000 C 147.067 6.000,146.336 6.180,146.200 6.400 C 146.064 6.620,145.423 6.800,144.776 6.800 C 144.129 6.800,143.600 6.980,143.600 7.200 C 143.600 7.420,142.880 7.600,142.000 7.600 C 141.120 7.600,140.400 7.780,140.400 8.000 C 140.400 8.220,139.860 8.400,139.200 8.400 C 138.540 8.400,138.000 8.580,138.000 8.800 C 138.000 9.020,137.460 9.200,136.800 9.200 C 136.140 9.200,135.600 9.380,135.600 9.600 C 135.600 9.820,135.060 10.000,134.400 10.000 C 133.740 10.000,133.200 10.180,133.200 10.400 C 133.200 10.620,132.660 10.800,132.000 10.800 C 131.340 10.800,130.800 10.980,130.800 11.200 C 130.800 11.420,130.440 11.600,130.000 11.600 C 129.560 11.600,129.200 11.780,129.200 12.000 C 129.200 12.220,128.660 12.400,128.000 12.400 C 127.340 12.400,126.800 12.580,126.800 12.800 C 126.800 13.020,126.440 13.200,126.000 13.200 C 125.560 13.200,125.200 13.380,125.200 13.600 C 125.200 13.820,124.660 14.000,124.000 14.000 C 123.340 14.000,122.800 14.180,122.800 14.400 C 122.800 14.620,122.440 14.800,122.000 14.800 C 121.560 14.800,121.200 14.980,121.200 15.200 C 121.200 15.420,120.761 15.600,120.224 15.600 C 119.687 15.600,119.136 15.780,119.000 16.000 C 118.864 16.220,118.403 16.400,117.976 16.400 C 117.549 16.400,117.200 16.580,117.200 16.800 C 117.200 17.020,116.840 17.200,116.400 17.200 C 115.960 17.200,115.600 17.380,115.600 17.600 C 115.600 17.820,115.240 18.000,114.800 18.000 C 114.360 18.000,114.000 18.180,114.000 18.400 C 114.000 18.620,113.640 18.800,113.200 18.800 C 112.760 18.800,112.400 18.980,112.400 19.200 C 112.400 19.420,112.040 19.600,111.600 19.600 C 111.160 19.600,110.800 19.780,110.800 20.000 C 110.800 20.220,110.440 20.400,110.000 20.400 C 109.560 20.400,109.200 20.580,109.200 20.800 C 109.200 21.020,108.840 21.200,108.400 21.200 C 107.960 21.200,107.600 21.380,107.600 21.600 C 107.600 21.820,107.240 22.000,106.800 22.000 C 106.360 22.000,106.000 22.180,106.000 22.400 C 106.000 22.620,105.640 22.800,105.200 22.800 C 104.760 22.800,104.400 22.980,104.400 23.200 C 104.400 23.420,104.040 23.600,103.600 23.600 C 103.160 23.600,102.800 23.780,102.800 24.000 C 102.800 24.220,102.564 24.400,102.275 24.400 C 101.987 24.400,101.364 24.760,100.892 25.200 C 100.420 25.640,99.756 26.000,99.417 26.000 C 99.078 26.000,98.800 26.180,98.800 26.400 C 98.800 26.620,98.440 26.800,98.000 26.800 C 97.560 26.800,97.200 26.980,97.200 27.200 C 97.200 27.420,96.964 27.600,96.675 27.600 C 96.387 27.600,95.764 27.960,95.292 28.400 C 94.820 28.840,94.196 29.200,93.905 29.200 C 93.614 29.200,93.117 29.560,92.800 30.000 C 92.483 30.440,91.943 30.800,91.600 30.800 C 91.257 30.800,90.717 31.160,90.400 31.600 C 90.083 32.040,89.503 32.400,89.112 32.400 C 88.720 32.400,88.400 32.580,88.400 32.800 C 88.400 33.020,88.157 33.200,87.859 33.200 C 87.562 33.200,86.754 33.740,86.063 34.400 C 85.372 35.060,84.575 35.600,84.292 35.600 C 84.009 35.600,83.517 35.960,83.200 36.400 C 82.883 36.840,82.420 37.200,82.171 37.200 C 81.922 37.200,81.154 37.740,80.463 38.400 C 79.772 39.060,79.047 39.600,78.852 39.600 C 78.656 39.600,77.755 40.320,76.848 41.200 C 75.941 42.080,75.005 42.800,74.768 42.800 C 74.531 42.800,73.646 43.520,72.800 44.400 C 71.954 45.280,71.082 46.000,70.862 46.000 C 70.642 46.000,69.186 47.260,67.628 48.800 C 66.069 50.340,64.626 51.600,64.419 51.600 C 63.930 51.600,51.600 63.930,51.600 64.419 C 51.600 64.626,50.340 66.069,48.800 67.628 C 47.260 69.186,46.000 70.642,46.000 70.862 C 46.000 71.082,45.280 71.954,44.400 72.800 C 43.520 73.646,42.800 74.531,42.800 74.768 C 42.800 75.005,42.080 75.941,41.200 76.848 C 40.320 77.755,39.600 78.656,39.600 78.852 C 39.600 79.047,39.060 79.772,38.400 80.463 C 37.740 81.154,37.200 81.922,37.200 82.171 C 37.200 82.420,36.840 82.883,36.400 83.200 C 35.960 83.517,35.600 84.009,35.600 84.292 C 35.600 84.575,35.060 85.372,34.400 86.063 C 33.740 86.754,33.200 87.562,33.200 87.859 C 33.200 88.157,33.020 88.400,32.800 88.400 C 32.580 88.400,32.400 88.720,32.400 89.112 C 32.400 89.503,32.040 90.083,31.600 90.400 C 31.160 90.717,30.800 91.257,30.800 91.600 C 30.800 91.943,30.440 92.483,30.000 92.800 C 29.560 93.117,29.200 93.614,29.200 93.905 C 29.200 94.196,28.840 94.820,28.400 95.292 C 27.960 95.764,27.600 96.387,27.600 96.675 C 27.600 96.964,27.420 97.200,27.200 97.200 C 26.980 97.200,26.800 97.560,26.800 98.000 C 26.800 98.440,26.620 98.800,26.400 98.800 C 26.180 98.800,26.000 99.078,26.000 99.417 C 26.000 99.756,25.640 100.420,25.200 100.892 C 24.760 101.364,24.400 101.987,24.400 102.275 C 24.400 102.564,24.220 102.800,24.000 102.800 C 23.780 102.800,23.600 103.160,23.600 103.600 C 23.600 104.040,23.420 104.400,23.200 104.400 C 22.980 104.400,22.800 104.760,22.800 105.200 C 22.800 105.640,22.620 106.000,22.400 106.000 C 22.180 106.000,22.000 106.360,22.000 106.800 C 22.000 107.240,21.820 107.600,21.600 107.600 C 21.380 107.600,21.200 107.960,21.200 108.400 C 21.200 108.840,21.020 109.200,20.800 109.200 C 20.580 109.200,20.400 109.560,20.400 110.000 C 20.400 110.440,20.220 110.800,20.000 110.800 C 19.780 110.800,19.600 111.160,19.600 111.600 C 19.600 112.040,19.420 112.400,19.200 112.400 C 18.980 112.400,18.800 112.760,18.800 113.200 C 18.800 113.640,18.620 114.000,18.400 114.000 C 18.180 114.000,18.000 114.360,18.000 114.800 C 18.000 115.240,17.820 115.600,17.600 115.600 C 17.380 115.600,17.200 115.960,17.200 116.400 C 17.200 116.840,17.020 117.200,16.800 117.200 C 16.580 117.200,16.400 117.549,16.400 117.976 C 16.400 118.403,16.220 118.864,16.000 119.000 C 15.780 119.136,15.600 119.687,15.600 120.224 C 15.600 120.761,15.420 121.200,15.200 121.200 C 14.980 121.200,14.800 121.560,14.800 122.000 C 14.800 122.440,14.620 122.800,14.400 122.800 C 14.180 122.800,14.000 123.340,14.000 124.000 C 14.000 124.660,13.820 125.200,13.600 125.200 C 13.380 125.200,13.200 125.560,13.200 126.000 C 13.200 126.440,13.020 126.800,12.800 126.800 C 12.580 126.800,12.400 127.340,12.400 128.000 C 12.400 128.660,12.220 129.200,12.000 129.200 C 11.780 129.200,11.600 129.560,11.600 130.000 C 11.600 130.440,11.420 130.800,11.200 130.800 C 10.980 130.800,10.800 131.340,10.800 132.000 C 10.800 132.660,10.620 133.200,10.400 133.200 C 10.180 133.200,10.000 133.740,10.000 134.400 C 10.000 135.060,9.820 135.600,9.600 135.600 C 9.380 135.600,9.200 136.140,9.200 136.800 C 9.200 137.460,9.020 138.000,8.800 138.000 C 8.580 138.000,8.400 138.540,8.400 139.200 C 8.400 139.860,8.220 140.400,8.000 140.400 C 7.780 140.400,7.600 141.120,7.600 142.000 C 7.600 142.880,7.420 143.600,7.200 143.600 C 6.980 143.600,6.800 144.129,6.800 144.776 C 6.800 145.423,6.620 146.064,6.400 146.200 C 6.180 146.336,6.000 147.067,6.000 147.824 C 6.000 148.581,5.820 149.200,5.600 149.200 C 5.380 149.200,5.200 149.920,5.200 150.800 C 5.200 151.680,5.020 152.400,4.800 152.400 C 4.580 152.400,4.400 153.109,4.400 153.976 C 4.400 154.843,4.220 155.664,4.000 155.800 C 3.780 155.936,3.600 156.847,3.600 157.824 C 3.600 158.801,3.420 159.600,3.200 159.600 C 2.978 159.600,2.800 160.667,2.800 162.000 C 2.800 163.333,2.622 164.400,2.400 164.400 C 2.180 164.400,2.000 165.300,2.000 166.400 C 2.000 167.500,1.820 168.400,1.600 168.400 C 1.367 168.400,1.200 169.722,1.200 171.567 C 1.200 173.744,1.044 174.785,0.700 174.900 C -0.032 175.144,-0.032 224.856,0.700 225.100 C 1.044 225.215,1.200 226.256,1.200 228.433 C 1.200 230.278,1.367 231.600,1.600 231.600 C 1.820 231.600,2.000 232.500,2.000 233.600 C 2.000 234.700,2.180 235.600,2.400 235.600 C 2.622 235.600,2.800 236.667,2.800 238.000 C 2.800 239.333,2.978 240.400,3.200 240.400 C 3.420 240.400,3.600 241.199,3.600 242.176 C 3.600 243.153,3.780 244.064,4.000 244.200 C 4.220 244.336,4.400 245.157,4.400 246.024 C 4.400 246.891,4.580 247.600,4.800 247.600 C 5.020 247.600,5.200 248.320,5.200 249.200 C 5.200 250.080,5.380 250.800,5.600 250.800 C 5.820 250.800,6.000 251.419,6.000 252.176 C 6.000 252.933,6.180 253.664,6.400 253.800 C 6.620 253.936,6.800 254.577,6.800 255.224 C 6.800 255.871,6.980 256.400,7.200 256.400 C 7.420 256.400,7.600 257.120,7.600 258.000 C 7.600 258.880,7.780 259.600,8.000 259.600 C 8.220 259.600,8.400 260.140,8.400 260.800 C 8.400 261.460,8.580 262.000,8.800 262.000 C 9.020 262.000,9.200 262.540,9.200 263.200 C 9.200 263.860,9.380 264.400,9.600 264.400 C 9.820 264.400,10.000 264.940,10.000 265.600 C 10.000 266.260,10.180 266.800,10.400 266.800 C 10.620 266.800,10.800 267.340,10.800 268.000 C 10.800 268.660,10.980 269.200,11.200 269.200 C 11.420 269.200,11.600 269.560,11.600 270.000 C 11.600 270.440,11.780 270.800,12.000 270.800 C 12.220 270.800,12.400 271.340,12.400 272.000 C 12.400 272.660,12.580 273.200,12.800 273.200 C 13.020 273.200,13.200 273.560,13.200 274.000 C 13.200 274.440,13.380 274.800,13.600 274.800 C 13.820 274.800,14.000 275.340,14.000 276.000 C 14.000 276.660,14.180 277.200,14.400 277.200 C 14.620 277.200,14.800 277.560,14.800 278.000 C 14.800 278.440,14.980 278.800,15.200 278.800 C 15.420 278.800,15.600 279.239,15.600 279.776 C 15.600 280.313,15.780 280.864,16.000 281.000 C 16.220 281.136,16.400 281.597,16.400 282.024 C 16.400 282.451,16.580 282.800,16.800 282.800 C 17.020 282.800,17.200 283.160,17.200 283.600 C 17.200 284.040,17.380 284.400,17.600 284.400 C 17.820 284.400,18.000 284.760,18.000 285.200 C 18.000 285.640,18.180 286.000,18.400 286.000 C 18.620 286.000,18.800 286.360,18.800 286.800 C 18.800 287.240,18.980 287.600,19.200 287.600 C 19.420 287.600,19.600 287.960,19.600 288.400 C 19.600 288.840,19.780 289.200,20.000 289.200 C 20.220 289.200,20.400 289.560,20.400 290.000 C 20.400 290.440,20.580 290.800,20.800 290.800 C 21.020 290.800,21.200 291.160,21.200 291.600 C 21.200 292.040,21.380 292.400,21.600 292.400 C 21.820 292.400,22.000 292.760,22.000 293.200 C 22.000 293.640,22.180 294.000,22.400 294.000 C 22.620 294.000,22.800 294.360,22.800 294.800 C 22.800 295.240,22.980 295.600,23.200 295.600 C 23.420 295.600,23.600 295.960,23.600 296.400 C 23.600 296.840,23.780 297.200,24.000 297.200 C 24.220 297.200,24.400 297.436,24.400 297.725 C 24.400 298.013,24.760 298.636,25.200 299.108 C 25.640 299.580,26.000 300.244,26.000 300.583 C 26.000 300.922,26.180 301.200,26.400 301.200 C 26.620 301.200,26.800 301.560,26.800 302.000 C 26.800 302.440,26.980 302.800,27.200 302.800 C 27.420 302.800,27.600 303.036,27.600 303.325 C 27.600 303.613,27.960 304.236,28.400 304.708 C 28.840 305.180,29.200 305.804,29.200 306.095 C 29.200 306.386,29.560 306.883,30.000 307.200 C 30.440 307.517,30.800 308.057,30.800 308.400 C 30.800 308.743,31.160 309.283,31.600 309.600 C 32.040 309.917,32.400 310.497,32.400 310.888 C 32.400 311.280,32.580 311.600,32.800 311.600 C 33.020 311.600,33.200 311.843,33.200 312.141 C 33.200 312.438,33.740 313.246,34.400 313.937 C 35.060 314.628,35.600 315.425,35.600 315.708 C 35.600 315.991,35.960 316.483,36.400 316.800 C 36.840 317.117,37.200 317.580,37.200 317.829 C 37.200 318.078,37.740 318.846,38.400 319.537 C 39.060 320.228,39.600 320.953,39.600 321.148 C 39.600 321.344,40.320 322.245,41.200 323.152 C 42.080 324.059,42.800 324.995,42.800 325.232 C 42.800 325.469,43.520 326.354,44.400 327.200 C 45.280 328.046,46.000 328.918,46.000 329.138 C 46.000 329.358,47.260 330.814,48.800 332.372 C 50.340 333.931,51.600 335.374,51.600 335.581 C 51.600 336.070,63.930 348.400,64.419 348.400 C 64.626 348.400,66.069 349.660,67.628 351.200 C 69.186 352.740,70.642 354.000,70.862 354.000 C 71.082 354.000,71.954 354.720,72.800 355.600 C 73.646 356.480,74.531 357.200,74.768 357.200 C 75.005 357.200,75.941 357.920,76.848 358.800 C 77.755 359.680,78.656 360.400,78.852 360.400 C 79.047 360.400,79.772 360.940,80.463 361.600 C 81.154 362.260,81.922 362.800,82.171 362.800 C 82.420 362.800,82.883 363.160,83.200 363.600 C 83.517 364.040,84.009 364.400,84.292 364.400 C 84.575 364.400,85.372 364.940,86.063 365.600 C 86.754 366.260,87.562 366.800,87.859 366.800 C 88.157 366.800,88.400 366.980,88.400 367.200 C 88.400 367.420,88.720 367.600,89.112 367.600 C 89.503 367.600,90.083 367.960,90.400 368.400 C 90.717 368.840,91.257 369.200,91.600 369.200 C 91.943 369.200,92.483 369.560,92.800 370.000 C 93.117 370.440,93.614 370.800,93.905 370.800 C 94.196 370.800,94.820 371.160,95.292 371.600 C 95.764 372.040,96.387 372.400,96.675 372.400 C 96.964 372.400,97.200 372.580,97.200 372.800 C 97.200 373.020,97.560 373.200,98.000 373.200 C 98.440 373.200,98.800 373.380,98.800 373.600 C 98.800 373.820,99.078 374.000,99.417 374.000 C 99.756 374.000,100.420 374.360,100.892 374.800 C 101.364 375.240,101.987 375.600,102.275 375.600 C 102.564 375.600,102.800 375.780,102.800 376.000 C 102.800 376.220,103.160 376.400,103.600 376.400 C 104.040 376.400,104.400 376.580,104.400 376.800 C 104.400 377.020,104.760 377.200,105.200 377.200 C 105.640 377.200,106.000 377.380,106.000 377.600 C 106.000 377.820,106.360 378.000,106.800 378.000 C 107.240 378.000,107.600 378.180,107.600 378.400 C 107.600 378.620,107.960 378.800,108.400 378.800 C 108.840 378.800,109.200 378.980,109.200 379.200 C 109.200 379.420,109.560 379.600,110.000 379.600 C 110.440 379.600,110.800 379.780,110.800 380.000 C 110.800 380.220,111.160 380.400,111.600 380.400 C 112.040 380.400,112.400 380.580,112.400 380.800 C 112.400 381.020,112.760 381.200,113.200 381.200 C 113.640 381.200,114.000 381.380,114.000 381.600 C 114.000 381.820,114.360 382.000,114.800 382.000 C 115.240 382.000,115.600 382.180,115.600 382.400 C 115.600 382.620,115.960 382.800,116.400 382.800 C 116.840 382.800,117.200 382.980,117.200 383.200 C 117.200 383.420,117.549 383.600,117.976 383.600 C 118.403 383.600,118.864 383.780,119.000 384.000 C 119.136 384.220,119.687 384.400,120.224 384.400 C 120.761 384.400,121.200 384.580,121.200 384.800 C 121.200 385.020,121.560 385.200,122.000 385.200 C 122.440 385.200,122.800 385.380,122.800 385.600 C 122.800 385.820,123.340 386.000,124.000 386.000 C 124.660 386.000,125.200 386.180,125.200 386.400 C 125.200 386.620,125.560 386.800,126.000 386.800 C 126.440 386.800,126.800 386.980,126.800 387.200 C 126.800 387.420,127.340 387.600,128.000 387.600 C 128.660 387.600,129.200 387.780,129.200 388.000 C 129.200 388.220,129.560 388.400,130.000 388.400 C 130.440 388.400,130.800 388.580,130.800 388.800 C 130.800 389.020,131.340 389.200,132.000 389.200 C 132.660 389.200,133.200 389.380,133.200 389.600 C 133.200 389.820,133.740 390.000,134.400 390.000 C 135.060 390.000,135.600 390.180,135.600 390.400 C 135.600 390.620,136.140 390.800,136.800 390.800 C 137.460 390.800,138.000 390.980,138.000 391.200 C 138.000 391.420,138.540 391.600,139.200 391.600 C 139.860 391.600,140.400 391.780,140.400 392.000 C 140.400 392.220,141.120 392.400,142.000 392.400 C 142.880 392.400,143.600 392.580,143.600 392.800 C 143.600 393.020,144.129 393.200,144.776 393.200 C 145.423 393.200,146.064 393.380,146.200 393.600 C 146.336 393.820,147.067 394.000,147.824 394.000 C 148.581 394.000,149.200 394.180,149.200 394.400 C 149.200 394.620,149.920 394.800,150.800 394.800 C 151.680 394.800,152.400 394.980,152.400 395.200 C 152.400 395.420,153.109 395.600,153.976 395.600 C 154.843 395.600,155.664 395.780,155.800 396.000 C 155.936 396.220,156.847 396.400,157.824 396.400 C 158.801 396.400,159.600 396.580,159.600 396.800 C 159.600 397.022,160.667 397.200,162.000 397.200 C 163.333 397.200,164.400 397.378,164.400 397.600 C 164.400 397.820,165.300 398.000,166.400 398.000 C 167.500 398.000,168.400 398.180,168.400 398.400 C 168.400 398.633,169.722 398.800,171.567 398.800 C 173.744 398.800,174.785 398.956,174.900 399.300 C 175.144 400.032,224.856 400.032,225.100 399.300 C 225.215 398.956,226.256 398.800,228.433 398.800 C 230.278 398.800,231.600 398.633,231.600 398.400 C 231.600 398.180,232.500 398.000,233.600 398.000 C 234.700 398.000,235.600 397.820,235.600 397.600 C 235.600 397.378,236.667 397.200,238.000 397.200 C 239.333 397.200,240.400 397.022,240.400 396.800 C 240.400 396.580,241.199 396.400,242.176 396.400 C 243.153 396.400,244.064 396.220,244.200 396.000 C 244.336 395.780,245.157 395.600,246.024 395.600 C 246.891 395.600,247.600 395.420,247.600 395.200 C 247.600 394.980,248.320 394.800,249.200 394.800 C 250.080 394.800,250.800 394.620,250.800 394.400 C 250.800 394.180,251.419 394.000,252.176 394.000 C 252.933 394.000,253.664 393.820,253.800 393.600 C 253.936 393.380,254.577 393.200,255.224 393.200 C 255.871 393.200,256.400 393.020,256.400 392.800 C 256.400 392.580,257.120 392.400,258.000 392.400 C 258.880 392.400,259.600 392.220,259.600 392.000 C 259.600 391.780,260.140 391.600,260.800 391.600 C 261.460 391.600,262.000 391.420,262.000 391.200 C 262.000 390.980,262.540 390.800,263.200 390.800 C 263.860 390.800,264.400 390.620,264.400 390.400 C 264.400 390.180,264.940 390.000,265.600 390.000 C 266.260 390.000,266.800 389.820,266.800 389.600 C 266.800 389.380,267.340 389.200,268.000 389.200 C 268.660 389.200,269.200 389.020,269.200 388.800 C 269.200 388.580,269.560 388.400,270.000 388.400 C 270.440 388.400,270.800 388.220,270.800 388.000 C 270.800 387.780,271.340 387.600,272.000 387.600 C 272.660 387.600,273.200 387.420,273.200 387.200 C 273.200 386.980,273.560 386.800,274.000 386.800 C 274.440 386.800,274.800 386.620,274.800 386.400 C 274.800 386.180,275.340 386.000,276.000 386.000 C 276.660 386.000,277.200 385.820,277.200 385.600 C 277.200 385.380,277.560 385.200,278.000 385.200 C 278.440 385.200,278.800 385.020,278.800 384.800 C 278.800 384.580,279.239 384.400,279.776 384.400 C 280.313 384.400,280.864 384.220,281.000 384.000 C 281.136 383.780,281.597 383.600,282.024 383.600 C 282.451 383.600,282.800 383.420,282.800 383.200 C 282.800 382.980,283.160 382.800,283.600 382.800 C 284.040 382.800,284.400 382.620,284.400 382.400 C 284.400 382.180,284.760 382.000,285.200 382.000 C 285.640 382.000,286.000 381.820,286.000 381.600 C 286.000 381.380,286.360 381.200,286.800 381.200 C 287.240 381.200,287.600 381.020,287.600 380.800 C 287.600 380.580,287.960 380.400,288.400 380.400 C 288.840 380.400,289.200 380.220,289.200 380.000 C 289.200 379.780,289.560 379.600,290.000 379.600 C 290.440 379.600,290.800 379.420,290.800 379.200 C 290.800 378.980,291.160 378.800,291.600 378.800 C 292.040 378.800,292.400 378.620,292.400 378.400 C 292.400 378.180,292.760 378.000,293.200 378.000 C 293.640 378.000,294.000 377.820,294.000 377.600 C 294.000 377.380,294.360 377.200,294.800 377.200 C 295.240 377.200,295.600 377.020,295.600 376.800 C 295.600 376.580,295.960 376.400,296.400 376.400 C 296.840 376.400,297.200 376.220,297.200 376.000 C 297.200 375.780,297.436 375.600,297.725 375.600 C 298.013 375.600,298.636 375.240,299.108 374.800 C 299.580 374.360,300.244 374.000,300.583 374.000 C 300.922 374.000,301.200 373.820,301.200 373.600 C 301.200 373.380,301.560 373.200,302.000 373.200 C 302.440 373.200,302.800 373.020,302.800 372.800 C 302.800 372.580,303.036 372.400,303.325 372.400 C 303.613 372.400,304.236 372.040,304.708 371.600 C 305.180 371.160,305.804 370.800,306.095 370.800 C 306.386 370.800,306.883 370.440,307.200 370.000 C 307.517 369.560,308.057 369.200,308.400 369.200 C 308.743 369.200,309.283 368.840,309.600 368.400 C 309.917 367.960,310.497 367.600,310.888 367.600 C 311.280 367.600,311.600 367.420,311.600 367.200 C 311.600 366.980,311.843 366.800,312.141 366.800 C 312.438 366.800,313.246 366.260,313.937 365.600 C 314.628 364.940,315.425 364.400,315.708 364.400 C 315.991 364.400,316.483 364.040,316.800 363.600 C 317.117 363.160,317.580 362.800,317.829 362.800 C 318.078 362.800,318.846 362.260,319.537 361.600 C 320.228 360.940,320.953 360.400,321.148 360.400 C 321.344 360.400,322.245 359.680,323.152 358.800 C 324.059 357.920,324.995 357.200,325.232 357.200 C 325.469 357.200,326.354 356.480,327.200 355.600 C 328.046 354.720,328.918 354.000,329.138 354.000 C 329.358 354.000,330.814 352.740,332.372 351.200 C 333.931 349.660,335.374 348.400,335.581 348.400 C 336.070 348.400,348.400 336.070,348.400 335.581 C 348.400 335.374,349.660 333.931,351.200 332.372 C 352.740 330.814,354.000 329.358,354.000 329.138 C 354.000 328.918,354.720 328.046,355.600 327.200 C 356.480 326.354,357.200 325.469,357.200 325.232 C 357.200 324.995,357.920 324.059,358.800 323.152 C 359.680 322.245,360.400 321.344,360.400 321.148 C 360.400 320.953,360.940 320.228,361.600 319.537 C 362.260 318.846,362.800 318.078,362.800 317.829 C 362.800 317.580,363.160 317.117,363.600 316.800 C 364.040 316.483,364.400 315.991,364.400 315.708 C 364.400 315.425,364.940 314.628,365.600 313.937 C 366.260 313.246,366.800 312.438,366.800 312.141 C 366.800 311.843,366.980 311.600,367.200 311.600 C 367.420 311.600,367.600 311.280,367.600 310.888 C 367.600 310.497,367.960 309.917,368.400 309.600 C 368.840 309.283,369.200 308.743,369.200 308.400 C 369.200 308.057,369.560 307.517,370.000 307.200 C 370.440 306.883,370.800 306.386,370.800 306.095 C 370.800 305.804,371.160 305.180,371.600 304.708 C 372.040 304.236,372.400 303.613,372.400 303.325 C 372.400 303.036,372.580 302.800,372.800 302.800 C 373.020 302.800,373.200 302.440,373.200 302.000 C 373.200 301.560,373.380 301.200,373.600 301.200 C 373.820 301.200,374.000 300.922,374.000 300.583 C 374.000 300.244,374.360 299.580,374.800 299.108 C 375.240 298.636,375.600 298.013,375.600 297.725 C 375.600 297.436,375.780 297.200,376.000 297.200 C 376.220 297.200,376.400 296.840,376.400 296.400 C 376.400 295.960,376.580 295.600,376.800 295.600 C 377.020 295.600,377.200 295.240,377.200 294.800 C 377.200 294.360,377.380 294.000,377.600 294.000 C 377.820 294.000,378.000 293.640,378.000 293.200 C 378.000 292.760,378.180 292.400,378.400 292.400 C 378.620 292.400,378.800 292.040,378.800 291.600 C 378.800 291.160,378.980 290.800,379.200 290.800 C 379.420 290.800,379.600 290.440,379.600 290.000 C 379.600 289.560,379.780 289.200,380.000 289.200 C 380.220 289.200,380.400 288.840,380.400 288.400 C 380.400 287.960,380.580 287.600,380.800 287.600 C 381.020 287.600,381.200 287.240,381.200 286.800 C 381.200 286.360,381.380 286.000,381.600 286.000 C 381.820 286.000,382.000 285.640,382.000 285.200 C 382.000 284.760,382.180 284.400,382.400 284.400 C 382.620 284.400,382.800 284.040,382.800 283.600 C 382.800 283.160,382.980 282.800,383.200 282.800 C 383.420 282.800,383.600 282.451,383.600 282.024 C 383.600 281.597,383.780 281.136,384.000 281.000 C 384.220 280.864,384.400 280.313,384.400 279.776 C 384.400 279.239,384.580 278.800,384.800 278.800 C 385.020 278.800,385.200 278.440,385.200 278.000 C 385.200 277.560,385.380 277.200,385.600 277.200 C 385.820 277.200,386.000 276.660,386.000 276.000 C 386.000 275.340,386.180 274.800,386.400 274.800 C 386.620 274.800,386.800 274.440,386.800 274.000 C 386.800 273.560,386.980 273.200,387.200 273.200 C 387.420 273.200,387.600 272.660,387.600 272.000 C 387.600 271.340,387.780 270.800,388.000 270.800 C 388.220 270.800,388.400 270.440,388.400 270.000 C 388.400 269.560,388.580 269.200,388.800 269.200 C 389.020 269.200,389.200 268.660,389.200 268.000 C 389.200 267.340,389.380 266.800,389.600 266.800 C 389.820 266.800,390.000 266.260,390.000 265.600 C 390.000 264.940,390.180 264.400,390.400 264.400 C 390.620 264.400,390.800 263.860,390.800 263.200 C 390.800 262.540,390.980 262.000,391.200 262.000 C 391.420 262.000,391.600 261.460,391.600 260.800 C 391.600 260.140,391.780 259.600,392.000 259.600 C 392.220 259.600,392.400 258.880,392.400 258.000 C 392.400 257.120,392.580 256.400,392.800 256.400 C 393.020 256.400,393.200 255.871,393.200 255.224 C 393.200 254.577,393.380 253.936,393.600 253.800 C 393.820 253.664,394.000 252.933,394.000 252.176 C 394.000 251.419,394.180 250.800,394.400 250.800 C 394.620 250.800,394.800 250.080,394.800 249.200 C 394.800 248.320,394.980 247.600,395.200 247.600 C 395.420 247.600,395.600 246.891,395.600 246.024 C 395.600 245.157,395.780 244.336,396.000 244.200 C 396.220 244.064,396.400 243.153,396.400 242.176 C 396.400 241.199,396.580 240.400,396.800 240.400 C 397.022 240.400,397.200 239.333,397.200 238.000 C 397.200 236.667,397.378 235.600,397.600 235.600 C 397.820 235.600,398.000 234.700,398.000 233.600 C 398.000 232.500,398.180 231.600,398.400 231.600 C 398.633 231.600,398.800 230.278,398.800 228.433 C 398.800 226.256,398.956 225.215,399.300 225.100 C 399.693 224.969,399.800 219.591,399.800 200.000 C 399.800 180.409,399.693 175.031,399.300 174.900 C 398.956 174.785,398.800 173.744,398.800 171.567 C 398.800 169.722,398.633 168.400,398.400 168.400 C 398.180 168.400,398.000 167.500,398.000 166.400 C 398.000 165.300,397.820 164.400,397.600 164.400 C 397.378 164.400,397.200 163.333,397.200 162.000 C 397.200 160.667,397.022 159.600,396.800 159.600 C 396.580 159.600,396.400 158.801,396.400 157.824 C 396.400 156.847,396.220 155.936,396.000 155.800 C 395.780 155.664,395.600 154.843,395.600 153.976 C 395.600 153.109,395.420 152.400,395.200 152.400 C 394.980 152.400,394.800 151.680,394.800 150.800 C 394.800 149.920,394.620 149.200,394.400 149.200 C 394.180 149.200,394.000 148.581,394.000 147.824 C 394.000 147.067,393.820 146.336,393.600 146.200 C 393.380 146.064,393.200 145.423,393.200 144.776 C 393.200 144.129,393.020 143.600,392.800 143.600 C 392.580 143.600,392.400 142.880,392.400 142.000 C 392.400 141.120,392.220 140.400,392.000 140.400 C 391.780 140.400,391.600 139.860,391.600 139.200 C 391.600 138.540,391.420 138.000,391.200 138.000 C 390.980 138.000,390.800 137.460,390.800 136.800 C 390.800 136.140,390.620 135.600,390.400 135.600 C 390.180 135.600,390.000 135.060,390.000 134.400 C 390.000 133.740,389.820 133.200,389.600 133.200 C 389.380 133.200,389.200 132.660,389.200 132.000 C 389.200 131.340,389.020 130.800,388.800 130.800 C 388.580 130.800,388.400 130.440,388.400 130.000 C 388.400 129.560,388.220 129.200,388.000 129.200 C 387.780 129.200,387.600 128.660,387.600 128.000 C 387.600 127.340,387.420 126.800,387.200 126.800 C 386.980 126.800,386.800 126.440,386.800 126.000 C 386.800 125.560,386.620 125.200,386.400 125.200 C 386.180 125.200,386.000 124.660,386.000 124.000 C 386.000 123.340,385.820 122.800,385.600 122.800 C 385.380 122.800,385.200 122.440,385.200 122.000 C 385.200 121.560,385.020 121.200,384.800 121.200 C 384.580 121.200,384.400 120.761,384.400 120.224 C 384.400 119.687,384.220 119.136,384.000 119.000 C 383.780 118.864,383.600 118.403,383.600 117.976 C 383.600 117.549,383.420 117.200,383.200 117.200 C 382.980 117.200,382.800 116.840,382.800 116.400 C 382.800 115.960,382.620 115.600,382.400 115.600 C 382.180 115.600,382.000 115.240,382.000 114.800 C 382.000 114.360,381.820 114.000,381.600 114.000 C 381.380 114.000,381.200 113.640,381.200 113.200 C 381.200 112.760,381.020 112.400,380.800 112.400 C 380.580 112.400,380.400 112.040,380.400 111.600 C 380.400 111.160,380.220 110.800,380.000 110.800 C 379.780 110.800,379.600 110.440,379.600 110.000 C 379.600 109.560,379.420 109.200,379.200 109.200 C 378.980 109.200,378.800 108.840,378.800 108.400 C 378.800 107.960,378.620 107.600,378.400 107.600 C 378.180 107.600,378.000 107.240,378.000 106.800 C 378.000 106.360,377.820 106.000,377.600 106.000 C 377.380 106.000,377.200 105.640,377.200 105.200 C 377.200 104.760,377.020 104.400,376.800 104.400 C 376.580 104.400,376.400 104.040,376.400 103.600 C 376.400 103.160,376.220 102.800,376.000 102.800 C 375.780 102.800,375.600 102.564,375.600 102.275 C 375.600 101.987,375.240 101.364,374.800 100.892 C 374.360 100.420,374.000 99.756,374.000 99.417 C 374.000 99.078,373.820 98.800,373.600 98.800 C 373.380 98.800,373.200 98.440,373.200 98.000 C 373.200 97.560,373.020 97.200,372.800 97.200 C 372.580 97.200,372.400 96.964,372.400 96.675 C 372.400 96.387,372.040 95.764,371.600 95.292 C 371.160 94.820,370.800 94.196,370.800 93.905 C 370.800 93.614,370.440 93.117,370.000 92.800 C 369.560 92.483,369.200 91.943,369.200 91.600 C 369.200 91.257,368.840 90.717,368.400 90.400 C 367.960 90.083,367.600 89.503,367.600 89.112 C 367.600 88.720,367.420 88.400,367.200 88.400 C 366.980 88.400,366.800 88.157,366.800 87.859 C 366.800 87.562,366.260 86.754,365.600 86.063 C 364.940 85.372,364.400 84.575,364.400 84.292 C 364.400 84.009,364.040 83.517,363.600 83.200 C 363.160 82.883,362.800 82.420,362.800 82.171 C 362.800 81.922,362.260 81.154,361.600 80.463 C 360.940 79.772,360.400 79.047,360.400 78.852 C 360.400 78.656,359.680 77.755,358.800 76.848 C 357.920 75.941,357.200 75.005,357.200 74.768 C 357.200 74.531,356.480 73.646,355.600 72.800 C 354.720 71.954,354.000 71.082,354.000 70.862 C 354.000 70.642,352.740 69.186,351.200 67.628 C 349.660 66.069,348.400 64.626,348.400 64.419 C 348.400 63.930,336.070 51.600,335.581 51.600 C 335.374 51.600,333.931 50.340,332.372 48.800 C 330.814 47.260,329.358 46.000,329.138 46.000 C 328.918 46.000,328.046 45.280,327.200 44.400 C 326.354 43.520,325.469 42.800,325.232 42.800 C 324.995 42.800,324.059 42.080,323.152 41.200 C 322.245 40.320,321.344 39.600,321.148 39.600 C 320.953 39.600,320.228 39.060,319.537 38.400 C 318.846 37.740,318.078 37.200,317.829 37.200 C 317.580 37.200,317.117 36.840,316.800 36.400 C 316.483 35.960,315.991 35.600,315.708 35.600 C 315.425 35.600,314.628 35.060,313.937 34.400 C 313.246 33.740,312.438 33.200,312.141 33.200 C 311.843 33.200,311.600 33.020,311.600 32.800 C 311.600 32.580,311.280 32.400,310.888 32.400 C 310.497 32.400,309.917 32.040,309.600 31.600 C 309.283 31.160,308.743 30.800,308.400 30.800 C 308.057 30.800,307.517 30.440,307.200 30.000 C 306.883 29.560,306.386 29.200,306.095 29.200 C 305.804 29.200,305.180 28.840,304.708 28.400 C 304.236 27.960,303.613 27.600,303.325 27.600 C 303.036 27.600,302.800 27.420,302.800 27.200 C 302.800 26.980,302.440 26.800,302.000 26.800 C 301.560 26.800,301.200 26.620,301.200 26.400 C 301.200 26.180,300.922 26.000,300.583 26.000 C 300.244 26.000,299.580 25.640,299.108 25.200 C 298.636 24.760,298.013 24.400,297.725 24.400 C 297.436 24.400,297.200 24.220,297.200 24.000 C 297.200 23.780,296.840 23.600,296.400 23.600 C 295.960 23.600,295.600 23.420,295.600 23.200 C 295.600 22.980,295.240 22.800,294.800 22.800 C 294.360 22.800,294.000 22.620,294.000 22.400 C 294.000 22.180,293.640 22.000,293.200 22.000 C 292.760 22.000,292.400 21.820,292.400 21.600 C 292.400 21.380,292.040 21.200,291.600 21.200 C 291.160 21.200,290.800 21.020,290.800 20.800 C 290.800 20.580,290.440 20.400,290.000 20.400 C 289.560 20.400,289.200 20.220,289.200 20.000 C 289.200 19.780,288.840 19.600,288.400 19.600 C 287.960 19.600,287.600 19.420,287.600 19.200 C 287.600 18.980,287.240 18.800,286.800 18.800 C 286.360 18.800,286.000 18.620,286.000 18.400 C 286.000 18.180,285.640 18.000,285.200 18.000 C 284.760 18.000,284.400 17.820,284.400 17.600 C 284.400 17.380,284.040 17.200,283.600 17.200 C 283.160 17.200,282.800 17.020,282.800 16.800 C 282.800 16.580,282.451 16.400,282.024 16.400 C 281.597 16.400,281.136 16.220,281.000 16.000 C 280.864 15.780,280.313 15.600,279.776 15.600 C 279.239 15.600,278.800 15.420,278.800 15.200 C 278.800 14.980,278.440 14.800,278.000 14.800 C 277.560 14.800,277.200 14.620,277.200 14.400 C 277.200 14.180,276.660 14.000,276.000 14.000 C 275.340 14.000,274.800 13.820,274.800 13.600 C 274.800 13.380,274.440 13.200,274.000 13.200 C 273.560 13.200,273.200 13.020,273.200 12.800 C 273.200 12.580,272.660 12.400,272.000 12.400 C 271.340 12.400,270.800 12.220,270.800 12.000 C 270.800 11.780,270.451 11.600,270.024 11.600 C 269.597 11.600,269.136 11.420,269.000 11.200 C 268.864 10.980,268.313 10.800,267.776 10.800 C 267.239 10.800,266.800 10.620,266.800 10.400 C 266.800 10.180,266.260 10.000,265.600 10.000 C 264.940 10.000,264.400 9.820,264.400 9.600 C 264.400 9.380,263.860 9.200,263.200 9.200 C 262.540 9.200,262.000 9.020,262.000 8.800 C 262.000 8.580,261.460 8.400,260.800 8.400 C 260.140 8.400,259.600 8.220,259.600 8.000 C 259.600 7.780,258.880 7.600,258.000 7.600 C 257.120 7.600,256.400 7.420,256.400 7.200 C 256.400 6.980,255.871 6.800,255.224 6.800 C 254.577 6.800,253.936 6.620,253.800 6.400 C 253.664 6.180,252.933 6.000,252.176 6.000 C 251.419 6.000,250.800 5.820,250.800 5.600 C 250.800 5.380,250.080 5.200,249.200 5.200 C 248.320 5.200,247.600 5.020,247.600 4.800 C 247.600 4.580,246.891 4.400,246.024 4.400 C 245.157 4.400,244.336 4.220,244.200 4.000 C 244.064 3.780,243.153 3.600,242.176 3.600 C 241.199 3.600,240.400 3.420,240.400 3.200 C 240.400 2.978,239.333 2.800,238.000 2.800 C 236.667 2.800,235.600 2.622,235.600 2.400 C 235.600 2.180,234.700 2.000,233.600 2.000 C 232.500 2.000,231.600 1.820,231.600 1.600 C 231.600 1.367,230.278 1.200,228.433 1.200 C 226.304 1.200,225.214 1.041,225.105 0.714 C 224.944 0.233,187.802 -0.118,178.500 0.274 M211.000 162.357 C 223.097 164.866,230.304 171.673,232.225 182.400 C 232.977 186.599,233.508 186.400,221.546 186.400 C 210.837 186.400,210.400 186.305,210.400 183.991 C 210.400 178.294,198.345 175.911,195.208 180.987 C 191.666 186.717,195.136 190.411,208.379 195.007 C 227.795 201.746,233.600 207.283,233.600 219.064 C 233.600 250.744,177.810 253.958,172.795 222.568 C 172.156 218.569,171.571 218.769,183.554 218.893 L 193.800 219.000 194.473 221.100 C 197.317 229.978,211.111 230.393,212.286 221.635 C 212.947 216.705,209.930 214.253,198.656 210.562 C 178.093 203.830,172.221 197.862,172.916 184.400 C 173.767 167.895,190.633 158.133,211.000 162.357 M288.861 162.354 C 311.709 166.963,325.633 188.806,320.638 212.200 C 311.495 255.016,248.534 254.705,239.551 211.800 C 233.301 181.948,258.873 156.305,288.861 162.354 M116.676 162.900 C 116.854 163.175,117.090 175.280,117.200 189.800 L 117.400 216.200 118.433 218.402 C 122.660 227.412,137.287 228.182,142.300 219.659 C 144.327 216.214,144.387 215.310,144.394 188.380 C 144.398 169.460,144.517 163.243,144.880 162.880 C 145.588 162.172,163.179 162.204,164.152 162.915 C 165.328 163.776,164.931 215.655,163.714 220.000 C 159.132 236.363,145.933 245.330,128.001 244.260 C 112.333 243.326,101.925 235.278,97.921 221.000 C 96.815 217.057,96.227 163.410,97.282 162.741 C 98.179 162.172,116.301 162.321,116.676 162.900 M274.955 180.595 C 254.448 185.056,253.917 219.692,274.275 224.968 C 289.038 228.793,300.800 218.963,300.800 202.800 C 300.800 186.897,289.726 177.382,274.955 180.595 " stroke="none" fill="#fbfbfb" fill-rule="evenodd"></path><path id="path2" d="M201.305 161.887 C 201.914 161.979,202.814 161.977,203.305 161.882 C 203.797 161.787,203.300 161.711,202.200 161.714 C 201.100 161.717,200.697 161.795,201.305 161.887 M279.300 161.887 C 279.905 161.978,280.895 161.978,281.500 161.887 C 282.105 161.795,281.610 161.720,280.400 161.720 C 279.190 161.720,278.695 161.795,279.300 161.887 M102.523 163.099 C 105.120 163.169,109.260 163.168,111.723 163.098 C 114.185 163.028,112.060 162.971,107.000 162.972 C 101.940 162.972,99.925 163.029,102.523 163.099 M149.700 163.099 C 152.285 163.168,156.515 163.168,159.100 163.099 C 161.685 163.029,159.570 162.972,154.400 162.972 C 149.230 162.972,147.115 163.029,149.700 163.099 M172.909 186.000 C 172.909 186.990,172.987 187.395,173.082 186.900 C 173.178 186.405,173.178 185.595,173.082 185.100 C 172.987 184.605,172.909 185.010,172.909 186.000 M216.500 185.899 C 219.305 185.968,223.895 185.968,226.700 185.899 C 229.505 185.830,227.210 185.774,221.600 185.774 C 215.990 185.774,213.695 185.830,216.500 185.899 M227.400 205.200 C 228.483 206.300,229.460 207.200,229.570 207.200 C 229.680 207.200,228.883 206.300,227.800 205.200 C 226.717 204.100,225.740 203.200,225.630 203.200 C 225.520 203.200,226.317 204.100,227.400 205.200 M233.309 219.200 C 233.309 220.190,233.387 220.595,233.482 220.100 C 233.578 219.605,233.578 218.795,233.482 218.300 C 233.387 217.805,233.309 218.210,233.309 219.200 M129.905 225.883 C 130.402 225.979,131.122 225.975,131.505 225.875 C 131.887 225.775,131.480 225.696,130.600 225.701 C 129.720 225.705,129.407 225.787,129.905 225.883 M226.378 235.900 L 225.000 237.400 226.500 236.022 C 227.896 234.738,228.184 234.400,227.878 234.400 C 227.812 234.400,227.137 235.075,226.378 235.900 " stroke="none" fill="#888c98" fill-rule="evenodd"></path><path id="path3" d="M195.400 162.006 C 194.697 162.188,195.442 162.228,197.200 162.103 C 198.850 161.985,200.275 161.824,200.367 161.744 C 200.675 161.478,196.613 161.691,195.400 162.006 M204.900 161.887 C 205.505 161.978,206.495 161.978,207.100 161.887 C 207.705 161.795,207.210 161.720,206.000 161.720 C 204.790 161.720,204.295 161.795,204.900 161.887 M273.400 162.006 C 272.697 162.188,273.442 162.228,275.200 162.103 C 276.850 161.985,278.275 161.824,278.367 161.744 C 278.675 161.478,274.613 161.691,273.400 162.006 M282.433 161.745 C 282.525 161.825,283.860 161.989,285.400 162.109 C 287.098 162.241,287.728 162.202,287.000 162.011 C 285.784 161.691,282.127 161.478,282.433 161.745 M97.300 162.665 C 96.753 162.886,96.595 213.239,97.130 216.800 C 97.278 217.790,97.346 206.141,97.280 190.913 L 97.159 163.225 98.096 162.990 C 98.611 162.861,103.013 162.810,107.878 162.878 C 112.744 162.945,116.641 162.865,116.539 162.700 C 116.335 162.371,98.110 162.338,97.300 162.665 M144.860 162.927 C 144.421 163.456,143.962 215.372,144.400 214.934 C 144.510 214.824,144.690 203.094,144.800 188.867 L 145.000 163.000 153.800 162.887 C 158.640 162.825,163.005 162.873,163.500 162.995 L 164.400 163.215 164.497 188.308 L 164.594 213.400 164.701 188.400 C 164.800 165.250,164.758 163.363,164.128 162.900 C 163.123 162.162,145.475 162.187,144.860 162.927 M191.600 162.800 C 190.796 163.057,190.757 163.123,191.400 163.132 C 191.840 163.138,192.560 162.989,193.000 162.800 C 194.019 162.362,192.968 162.362,191.600 162.800 M211.800 162.800 C 212.240 162.989,212.960 163.138,213.400 163.132 C 214.043 163.123,214.004 163.057,213.200 162.800 C 211.832 162.362,210.781 162.362,211.800 162.800 M269.200 162.800 C 268.408 163.054,268.367 163.120,269.000 163.120 C 269.440 163.120,270.250 162.976,270.800 162.800 C 271.592 162.546,271.633 162.480,271.000 162.480 C 270.560 162.480,269.750 162.624,269.200 162.800 M289.600 162.800 C 290.150 162.976,290.960 163.120,291.400 163.120 C 292.033 163.120,291.992 163.054,291.200 162.800 C 290.650 162.624,289.840 162.480,289.400 162.480 C 288.767 162.480,288.808 162.546,289.600 162.800 M215.200 163.672 C 218.018 165.012,221.200 166.327,221.200 166.150 C 221.200 165.892,216.506 163.778,215.200 163.448 L 214.200 163.196 215.200 163.672 M116.917 189.000 C 116.883 203.080,116.979 214.909,117.128 215.286 C 117.376 215.913,117.347 182.980,117.086 169.200 C 117.026 166.010,116.950 174.920,116.917 189.000 M184.700 165.429 C 183.205 166.240,183.296 166.578,184.800 165.800 C 185.460 165.459,186.000 165.094,186.000 164.990 C 186.000 164.732,185.957 164.747,184.700 165.429 M298.000 165.600 C 298.770 166.022,299.580 166.366,299.800 166.366 C 300.020 166.366,299.570 166.022,298.800 165.600 C 298.030 165.178,297.220 164.834,297.000 164.834 C 296.780 164.834,297.230 165.178,298.000 165.600 M260.200 166.318 C 256.436 168.396,249.292 173.826,249.737 174.271 C 249.817 174.350,250.674 173.679,251.641 172.778 C 253.799 170.770,257.405 168.250,260.600 166.519 C 261.920 165.803,262.820 165.217,262.600 165.216 C 262.380 165.215,261.300 165.711,260.200 166.318 M300.400 166.525 C 300.400 166.619,301.811 167.613,303.535 168.733 C 309.042 172.312,313.331 177.152,316.883 183.800 C 318.584 186.984,318.935 187.048,317.360 183.887 C 314.436 178.020,309.266 172.085,304.187 168.765 C 300.734 166.508,300.400 166.310,300.400 166.525 M224.018 168.200 C 224.012 168.420,224.561 169.037,225.238 169.572 C 226.636 170.677,229.257 174.387,230.420 176.906 C 230.850 177.838,231.094 178.150,230.963 177.600 C 230.409 175.275,224.060 166.682,224.018 168.200 M178.496 170.142 C 177.613 171.101,176.684 172.316,176.433 172.842 C 175.986 173.780,175.992 173.779,176.683 172.800 C 177.072 172.250,178.164 171.035,179.110 170.100 C 180.057 169.165,180.667 168.400,180.466 168.400 C 180.266 168.400,179.379 169.184,178.496 170.142 M247.847 176.401 C 247.051 177.282,246.400 178.128,246.400 178.281 C 246.400 178.435,246.535 178.389,246.701 178.180 C 246.867 177.971,247.622 177.125,248.380 176.300 C 249.137 175.475,249.653 174.800,249.525 174.800 C 249.397 174.800,248.642 175.521,247.847 176.401 M199.117 177.928 C 198.742 178.078,199.979 178.203,201.868 178.206 C 203.757 178.210,204.874 178.093,204.351 177.946 C 203.099 177.595,199.980 177.585,199.117 177.928 M206.000 178.820 C 207.387 179.761,208.178 180.035,207.200 179.236 C 206.650 178.786,206.020 178.417,205.800 178.415 C 205.580 178.413,205.670 178.596,206.000 178.820 M231.256 179.200 C 231.256 179.530,231.411 180.160,231.600 180.600 C 231.817 181.104,231.944 181.178,231.944 180.800 C 231.944 180.470,231.789 179.840,231.600 179.400 C 231.383 178.896,231.256 178.822,231.256 179.200 M245.293 179.900 C 244.257 181.396,243.921 182.000,244.123 182.000 C 244.217 182.000,244.770 181.280,245.353 180.400 C 246.536 178.612,246.484 178.179,245.293 179.900 M195.184 180.423 C 194.705 181.096,194.379 181.713,194.461 181.794 C 194.543 181.876,195.014 181.326,195.508 180.571 C 196.623 178.871,196.371 178.756,195.184 180.423 M173.015 181.815 C 172.861 183.054,172.817 184.150,172.919 184.252 C 173.020 184.354,173.230 183.423,173.385 182.185 C 173.539 180.946,173.583 179.850,173.481 179.748 C 173.380 179.646,173.170 180.577,173.015 181.815 M279.505 179.883 C 280.002 179.979,280.722 179.975,281.105 179.875 C 281.487 179.775,281.080 179.696,280.200 179.701 C 279.320 179.705,279.007 179.787,279.505 179.883 M208.400 180.105 C 208.400 180.247,208.850 181.028,209.400 181.838 C 209.950 182.649,210.400 183.141,210.400 182.934 C 210.400 182.726,209.950 181.945,209.400 181.200 C 208.850 180.455,208.400 179.962,208.400 180.105 M274.200 180.410 C 273.666 180.647,273.998 180.686,275.200 180.527 C 276.190 180.396,277.075 180.224,277.167 180.144 C 277.514 179.843,274.964 180.072,274.200 180.410 M283.233 180.143 C 283.325 180.222,284.120 180.397,285.000 180.532 C 286.090 180.699,286.409 180.655,286.000 180.395 C 285.453 180.046,282.845 179.809,283.233 180.143 M270.098 181.973 C 268.051 183.102,265.264 185.200,265.812 185.200 C 265.962 185.200,266.650 184.722,267.342 184.138 C 268.034 183.554,269.680 182.564,271.000 181.939 C 272.320 181.313,273.130 180.804,272.800 180.808 C 272.470 180.811,271.254 181.336,270.098 181.973 M287.600 181.086 C 287.930 181.209,288.695 181.560,289.300 181.865 C 289.905 182.171,290.400 182.331,290.400 182.221 C 290.400 181.907,288.098 180.796,287.520 180.832 C 287.171 180.853,287.197 180.936,287.600 181.086 M232.110 183.411 C 232.136 184.297,232.021 185.242,231.855 185.511 C 231.417 186.220,211.995 186.210,211.199 185.500 C 210.722 185.075,210.718 185.104,211.168 185.700 C 211.648 186.333,212.637 186.400,221.573 186.400 C 232.927 186.400,232.898 186.407,232.389 183.600 L 232.062 181.800 232.110 183.411 M292.261 183.546 C 293.131 184.176,294.713 185.661,295.777 186.846 C 296.841 188.030,297.328 188.435,296.860 187.744 C 295.835 186.233,291.709 182.400,291.108 182.400 C 290.872 182.400,291.392 182.915,292.261 183.546 M193.861 183.995 C 193.730 184.652,193.762 185.569,193.934 186.033 C 194.157 186.635,194.255 186.294,194.277 184.838 C 194.312 182.510,194.202 182.288,193.861 183.995 M263.944 187.100 C 262.793 188.489,262.306 189.200,262.504 189.200 C 262.614 189.200,263.186 188.570,263.773 187.800 C 264.863 186.371,264.995 185.832,263.944 187.100 M194.400 187.511 C 194.400 188.155,197.457 191.201,198.100 191.197 C 198.375 191.196,198.060 190.841,197.400 190.410 C 196.740 189.978,195.795 189.039,195.300 188.323 C 194.805 187.608,194.400 187.242,194.400 187.511 M172.893 188.600 C 172.894 189.260,173.032 190.340,173.200 191.000 C 173.623 192.663,173.642 191.026,173.223 189.000 C 172.945 187.655,172.892 187.591,172.893 188.600 M261.472 191.019 C 260.532 192.989,260.664 193.324,261.647 191.462 C 262.093 190.616,262.387 189.854,262.301 189.767 C 262.214 189.681,261.841 190.244,261.472 191.019 M320.087 192.000 C 320.083 192.550,320.224 193.450,320.400 194.000 C 320.831 195.344,320.831 193.892,320.400 192.200 C 320.126 191.122,320.094 191.102,320.087 192.000 M200.400 192.214 C 200.400 192.493,203.306 193.631,203.691 193.503 C 203.882 193.439,203.220 193.084,202.219 192.713 C 201.219 192.342,200.400 192.117,200.400 192.214 M260.249 193.815 C 260.112 194.173,260.015 194.766,260.034 195.133 C 260.053 195.500,260.227 195.269,260.421 194.620 C 260.798 193.358,260.665 192.733,260.249 193.815 M300.262 196.200 C 300.396 197.080,300.572 197.875,300.653 197.967 C 300.956 198.310,300.729 196.168,300.381 195.400 C 300.129 194.842,300.093 195.085,300.262 196.200 M320.901 197.000 C 320.905 197.880,320.987 198.193,321.083 197.695 C 321.179 197.198,321.175 196.478,321.075 196.095 C 320.975 195.713,320.896 196.120,320.901 197.000 M259.456 197.284 C 259.321 197.788,259.235 199.190,259.264 200.400 C 259.315 202.485,259.332 202.443,259.603 199.600 C 259.904 196.437,259.862 195.771,259.456 197.284 M213.233 196.960 C 213.578 197.291,218.541 199.192,218.685 199.049 C 218.767 198.966,217.655 198.427,216.213 197.849 C 213.739 196.859,212.852 196.594,213.233 196.960 M238.934 199.600 C 238.934 201.250,239.005 201.925,239.091 201.100 C 239.178 200.275,239.178 198.925,239.091 198.100 C 239.005 197.275,238.934 197.950,238.934 199.600 M177.491 199.441 C 178.417 200.563,179.494 201.733,179.884 202.041 C 180.274 202.348,179.835 201.682,178.909 200.559 C 177.983 199.437,176.906 198.267,176.516 197.959 C 176.126 197.652,176.565 198.318,177.491 199.441 M321.348 202.800 C 321.348 205.110,321.414 206.055,321.495 204.900 C 321.576 203.745,321.576 201.855,321.495 200.700 C 321.414 199.545,321.348 200.490,321.348 202.800 M300.940 202.800 C 300.940 204.670,301.009 205.435,301.093 204.500 C 301.177 203.565,301.177 202.035,301.093 201.100 C 301.009 200.165,300.940 200.930,300.940 202.800 M227.593 205.117 C 229.278 206.807,230.744 208.762,231.554 210.400 C 232.262 211.830,232.723 212.550,232.579 212.000 C 231.941 209.565,227.617 203.879,225.568 202.783 C 225.210 202.591,226.121 203.642,227.593 205.117 M238.796 205.918 L 238.992 209.000 239.116 206.240 C 239.184 204.721,239.095 203.335,238.920 203.158 C 238.744 202.981,238.688 204.223,238.796 205.918 M259.260 205.400 C 259.258 206.720,259.402 208.160,259.580 208.600 C 259.768 209.065,259.826 208.227,259.719 206.600 C 259.478 202.942,259.264 202.384,259.260 205.400 M320.909 208.800 C 320.909 209.790,320.987 210.195,321.082 209.700 C 321.178 209.205,321.178 208.395,321.082 207.900 C 320.987 207.405,320.909 207.810,320.909 208.800 M300.449 208.200 C 300.416 208.640,300.296 209.450,300.183 210.000 L 299.977 211.000 300.406 210.019 C 300.642 209.479,300.761 208.669,300.672 208.219 C 300.513 207.421,300.507 207.421,300.449 208.200 M239.287 210.200 C 239.291 210.640,239.432 211.540,239.600 212.200 C 239.874 213.278,239.906 213.298,239.913 212.400 C 239.917 211.850,239.776 210.950,239.600 210.400 C 239.349 209.616,239.281 209.573,239.287 210.200 M260.006 210.633 C 260.009 211.055,260.195 211.670,260.418 212.000 C 260.715 212.438,260.752 212.276,260.556 211.400 C 260.227 209.929,259.998 209.610,260.006 210.633 M320.256 212.084 C 320.121 212.588,320.027 213.360,320.046 213.800 C 320.065 214.240,320.245 213.898,320.446 213.040 C 320.836 211.378,320.670 210.540,320.256 212.084 M206.000 212.979 C 206.000 213.089,206.540 213.459,207.200 213.800 C 207.860 214.141,208.400 214.331,208.400 214.221 C 208.400 214.111,207.860 213.741,207.200 213.400 C 206.540 213.059,206.000 212.869,206.000 212.979 M232.870 213.800 C 232.857 214.240,232.995 215.320,233.177 216.200 C 233.455 217.545,233.508 217.609,233.507 216.600 C 233.505 215.199,232.908 212.570,232.870 213.800 M164.120 215.600 C 164.120 216.810,164.195 217.305,164.287 216.700 C 164.378 216.095,164.378 215.105,164.287 214.500 C 164.195 213.895,164.120 214.390,164.120 215.600 M210.891 216.200 C 210.974 216.420,211.367 217.315,211.763 218.188 C 212.699 220.250,212.433 222.682,211.028 224.907 L 209.959 226.600 210.979 225.400 C 213.057 222.953,213.308 219.640,211.608 217.098 C 211.130 216.384,210.808 215.980,210.891 216.200 M263.547 218.123 C 264.199 219.071,265.046 220.106,265.428 220.423 C 265.811 220.740,265.350 219.965,264.404 218.700 C 262.391 216.007,261.833 215.631,263.547 218.123 M318.267 218.867 C 317.905 219.788,317.674 220.607,317.754 220.688 C 317.834 220.768,318.200 220.083,318.567 219.167 C 318.933 218.250,319.164 217.431,319.079 217.346 C 318.994 217.261,318.629 217.945,318.267 218.867 M294.386 220.269 C 292.390 222.342,292.352 222.413,293.948 221.090 C 295.474 219.825,297.105 218.000,296.709 218.000 C 296.634 218.000,295.589 219.021,294.386 220.269 M142.294 219.703 L 141.588 221.000 142.394 220.056 C 143.080 219.252,143.446 218.394,143.100 218.403 C 143.045 218.404,142.682 218.989,142.294 219.703 M163.400 219.600 C 163.248 220.291,163.207 220.941,163.309 221.042 C 163.411 221.144,163.609 220.653,163.750 219.950 C 164.083 218.283,163.760 217.960,163.400 219.600 M183.269 219.100 L 193.538 219.213 193.937 220.307 C 194.157 220.908,194.351 221.163,194.368 220.874 C 194.491 218.826,194.309 218.793,183.286 218.893 L 173.000 218.986 183.269 219.100 M97.668 219.600 C 97.688 220.639,98.318 222.346,98.332 221.400 C 98.338 220.960,98.189 220.240,98.000 219.800 C 97.789 219.310,97.661 219.232,97.668 219.600 M242.182 220.200 C 242.632 221.602,245.703 226.756,246.891 228.102 C 247.789 229.119,247.719 228.931,246.569 227.234 C 245.762 226.042,244.387 223.792,243.514 222.234 C 242.640 220.675,242.041 219.760,242.182 220.200 M119.779 221.287 C 120.494 222.403,123.797 224.814,124.569 224.782 C 124.806 224.773,124.334 224.413,123.520 223.983 C 122.706 223.553,121.374 222.526,120.561 221.701 C 119.427 220.550,119.245 220.454,119.779 221.287 M233.293 222.000 C 233.293 222.770,233.375 223.085,233.476 222.700 C 233.576 222.315,233.576 221.685,233.476 221.300 C 233.375 220.915,233.293 221.230,233.293 222.000 M266.400 220.986 C 266.400 221.165,266.715 221.560,267.100 221.863 C 267.936 222.521,269.573 223.451,269.000 222.943 C 266.918 221.096,266.400 220.706,266.400 220.986 M194.400 222.077 C 194.400 224.178,199.320 228.214,201.483 227.888 C 202.580 227.723,202.578 227.719,201.345 227.660 C 199.488 227.571,196.407 225.309,195.323 223.237 C 194.815 222.267,194.400 221.745,194.400 222.077 M290.600 223.200 C 289.940 223.637,289.580 223.992,289.800 223.988 C 290.201 223.982,292.376 222.423,292.000 222.412 C 291.890 222.408,291.260 222.763,290.600 223.200 M172.868 223.200 C 172.888 224.239,173.518 225.946,173.532 225.000 C 173.538 224.560,173.389 223.840,173.200 223.400 C 172.989 222.910,172.861 222.832,172.868 223.200 M315.800 224.000 C 315.459 224.660,315.269 225.200,315.379 225.200 C 315.489 225.200,315.859 224.660,316.200 224.000 C 316.541 223.340,316.731 222.800,316.621 222.800 C 316.511 222.800,316.141 223.340,315.800 224.000 M160.751 227.169 C 159.996 228.692,159.520 229.850,159.694 229.742 C 160.228 229.412,162.629 224.400,162.253 224.400 C 162.183 224.400,161.507 225.646,160.751 227.169 M125.800 225.190 C 126.564 225.528,129.114 225.757,128.767 225.456 C 128.675 225.376,127.790 225.204,126.800 225.073 C 125.598 224.914,125.266 224.953,125.800 225.190 M274.000 225.182 C 274.330 225.405,274.945 225.591,275.367 225.594 C 276.390 225.602,276.071 225.373,274.600 225.044 C 273.724 224.848,273.562 224.885,274.000 225.182 M285.200 225.200 C 284.376 225.464,284.341 225.526,285.000 225.554 C 285.440 225.573,286.070 225.413,286.400 225.200 C 287.101 224.747,286.614 224.747,285.200 225.200 M278.691 225.889 C 279.401 225.977,280.661 225.979,281.491 225.892 C 282.321 225.805,281.740 225.733,280.200 225.731 C 278.660 225.729,277.981 225.800,278.691 225.889 M206.000 227.600 C 204.616 227.891,204.614 227.895,205.800 227.941 C 206.460 227.967,207.270 227.813,207.600 227.600 C 208.266 227.170,208.045 227.170,206.000 227.600 M310.000 231.554 C 308.130 233.490,305.295 235.939,303.700 236.996 C 302.105 238.053,300.800 238.992,300.800 239.082 C 300.800 240.160,309.200 233.345,312.012 229.986 C 314.401 227.133,313.870 227.546,310.000 231.554 M101.202 229.204 C 102.890 232.358,107.823 237.689,110.099 238.818 C 110.595 239.064,110.370 238.758,109.600 238.139 C 106.506 235.651,104.367 233.412,102.749 230.969 C 101.078 228.445,100.354 227.620,101.202 229.204 M174.670 229.079 C 175.657 231.809,180.875 237.580,183.932 239.323 C 185.711 240.336,185.520 239.861,183.700 238.745 C 180.623 236.858,175.200 230.798,175.200 229.246 C 175.200 229.026,175.022 228.737,174.805 228.603 C 174.569 228.457,174.514 228.649,174.670 229.079 M250.213 232.014 C 252.943 234.776,259.600 239.790,259.600 239.086 C 259.600 238.981,258.390 238.108,256.910 237.147 C 255.431 236.186,252.866 234.095,251.210 232.500 C 247.563 228.987,246.898 228.663,250.213 232.014 M227.851 234.564 C 227.056 235.534,225.459 237.005,224.303 237.833 C 221.791 239.632,220.931 240.432,222.600 239.418 C 225.205 237.835,230.440 232.800,229.482 232.800 C 229.380 232.800,228.646 233.594,227.851 234.564 M154.860 235.042 C 154.562 235.378,154.399 235.732,154.495 235.829 C 154.592 235.926,154.998 235.644,155.398 235.202 C 155.797 234.761,155.961 234.407,155.762 234.415 C 155.563 234.424,155.157 234.705,154.860 235.042 M152.000 237.455 C 149.823 239.165,149.553 239.440,150.600 238.882 C 151.471 238.418,154.325 236.030,154.000 236.037 C 153.890 236.039,152.990 236.677,152.000 237.455 M111.200 239.379 C 111.200 239.489,111.740 239.859,112.400 240.200 C 113.060 240.541,113.600 240.731,113.600 240.621 C 113.600 240.511,113.060 240.141,112.400 239.800 C 111.740 239.459,111.200 239.269,111.200 239.379 M148.621 239.566 C 148.497 239.767,147.135 240.426,145.595 241.030 C 144.055 241.634,142.866 242.199,142.952 242.286 C 143.174 242.507,147.777 240.602,148.871 239.835 C 149.370 239.486,149.569 239.200,149.313 239.200 C 149.057 239.200,148.746 239.365,148.621 239.566 M261.200 240.000 C 261.970 240.422,262.780 240.766,263.000 240.766 C 263.220 240.766,262.770 240.422,262.000 240.000 C 261.230 239.578,260.420 239.234,260.200 239.234 C 259.980 239.234,260.430 239.578,261.200 240.000 M297.883 240.182 C 296.828 240.688,295.838 241.232,295.683 241.393 C 295.337 241.749,297.819 240.738,299.428 239.866 C 301.206 238.904,300.061 239.138,297.883 240.182 M219.600 240.800 C 218.830 241.222,218.344 241.574,218.520 241.583 C 218.944 241.605,221.200 240.432,221.200 240.190 C 221.200 239.928,221.177 239.937,219.600 240.800 M265.233 241.744 C 265.325 241.823,265.940 242.008,266.600 242.156 C 267.476 242.352,267.638 242.315,267.200 242.018 C 266.660 241.653,264.832 241.398,265.233 241.744 M293.200 242.018 C 292.762 242.315,292.924 242.352,293.800 242.156 C 295.271 241.827,295.590 241.598,294.567 241.606 C 294.145 241.609,293.530 241.795,293.200 242.018 M118.033 242.544 C 118.125 242.623,118.740 242.808,119.400 242.956 C 120.276 243.152,120.438 243.115,120.000 242.818 C 119.460 242.453,117.632 242.198,118.033 242.544 M140.400 242.818 C 139.962 243.115,140.124 243.152,141.000 242.956 C 142.471 242.627,142.790 242.398,141.767 242.406 C 141.345 242.409,140.730 242.595,140.400 242.818 M192.200 242.800 C 192.640 242.989,193.270 243.144,193.600 243.144 C 193.978 243.144,193.904 243.017,193.400 242.800 C 192.960 242.611,192.330 242.456,192.000 242.456 C 191.622 242.456,191.696 242.583,192.200 242.800 M214.200 242.800 C 213.696 243.017,213.622 243.144,214.000 243.144 C 214.330 243.144,214.960 242.989,215.400 242.800 C 215.904 242.583,215.978 242.456,215.600 242.456 C 215.270 242.456,214.640 242.611,214.200 242.800 M268.600 242.800 C 269.040 242.989,269.670 243.144,270.000 243.144 C 270.378 243.144,270.304 243.017,269.800 242.800 C 269.360 242.611,268.730 242.456,268.400 242.456 C 268.022 242.456,268.096 242.583,268.600 242.800 M290.600 242.800 C 290.096 243.017,290.022 243.144,290.400 243.144 C 290.730 243.144,291.360 242.989,291.800 242.800 C 292.304 242.583,292.378 242.456,292.000 242.456 C 291.670 242.456,291.040 242.611,290.600 242.800 M122.200 243.600 C 122.860 243.768,123.850 243.905,124.400 243.905 C 125.292 243.905,125.270 243.872,124.200 243.600 C 123.540 243.432,122.550 243.295,122.000 243.295 C 121.108 243.295,121.130 243.328,122.200 243.600 M136.400 243.620 C 135.726 243.849,136.051 243.884,137.400 243.728 C 138.500 243.601,139.475 243.431,139.567 243.349 C 139.882 243.068,137.399 243.280,136.400 243.620 M210.200 243.600 C 209.130 243.872,209.108 243.905,210.000 243.905 C 210.550 243.905,211.540 243.768,212.200 243.600 C 213.270 243.328,213.292 243.295,212.400 243.295 C 211.850 243.295,210.860 243.432,210.200 243.600 M272.200 243.600 C 273.892 244.031,275.344 244.031,274.000 243.600 C 273.450 243.424,272.550 243.283,272.000 243.287 C 271.102 243.294,271.122 243.326,272.200 243.600 M286.400 243.600 C 285.056 244.031,286.508 244.031,288.200 243.600 C 289.278 243.326,289.298 243.294,288.400 243.287 C 287.850 243.283,286.950 243.424,286.400 243.600 M128.300 244.295 C 129.455 244.376,131.345 244.376,132.500 244.295 C 133.655 244.214,132.710 244.148,130.400 244.148 C 128.090 244.148,127.145 244.214,128.300 244.295 M201.900 244.295 C 203.055 244.376,204.945 244.376,206.100 244.295 C 207.255 244.214,206.310 244.148,204.000 244.148 C 201.690 244.148,200.745 244.214,201.900 244.295 M278.512 244.295 C 279.564 244.377,281.184 244.376,282.112 244.292 C 283.040 244.208,282.180 244.141,280.200 244.142 C 278.220 244.143,277.460 244.212,278.512 244.295 " stroke="none" fill="#a7adb4" fill-rule="evenodd"></path><path id="path4" d="M200.100 162.296 C 201.365 162.375,203.435 162.375,204.700 162.296 C 205.965 162.216,204.930 162.151,202.400 162.151 C 199.870 162.151,198.835 162.216,200.100 162.296 M276.707 162.290 C 277.426 162.379,278.506 162.377,279.107 162.286 C 279.708 162.195,279.120 162.122,277.800 162.124 C 276.480 162.126,275.988 162.201,276.707 162.290 M281.507 162.290 C 282.226 162.379,283.306 162.377,283.907 162.286 C 284.508 162.195,283.920 162.122,282.600 162.124 C 281.280 162.126,280.788 162.201,281.507 162.290 M193.400 162.800 C 192.381 163.238,193.432 163.238,194.800 162.800 C 195.604 162.543,195.643 162.477,195.000 162.468 C 194.560 162.462,193.840 162.611,193.400 162.800 M209.800 162.800 C 210.240 162.989,210.960 163.138,211.400 163.132 C 212.043 163.123,212.004 163.057,211.200 162.800 C 209.832 162.362,208.781 162.362,209.800 162.800 M271.400 162.800 C 270.381 163.238,271.432 163.238,272.800 162.800 C 273.604 162.543,273.643 162.477,273.000 162.468 C 272.560 162.462,271.840 162.611,271.400 162.800 M287.600 162.800 C 288.150 162.976,288.960 163.120,289.400 163.120 C 290.033 163.120,289.992 163.054,289.200 162.800 C 288.650 162.624,287.840 162.480,287.400 162.480 C 286.767 162.480,286.808 162.546,287.600 162.800 M97.292 188.700 C 97.343 202.725,97.432 210.150,97.491 205.200 C 97.768 181.917,97.772 163.200,97.500 163.200 C 97.335 163.200,97.241 174.675,97.292 188.700 M116.301 179.500 C 116.356 188.465,116.450 199.850,116.509 204.800 C 116.568 209.750,116.657 202.415,116.708 188.500 C 116.759 174.585,116.665 163.200,116.500 163.200 C 116.335 163.200,116.245 170.535,116.301 179.500 M144.988 187.600 C 144.988 201.130,145.038 206.665,145.100 199.900 C 145.161 193.135,145.161 182.065,145.100 175.300 C 145.038 168.535,144.988 174.070,144.988 187.600 M164.000 187.520 L 164.200 211.800 164.303 187.823 C 164.360 174.636,164.270 163.710,164.103 163.543 C 163.936 163.376,163.890 174.166,164.000 187.520 M190.000 163.618 C 189.562 163.915,189.724 163.952,190.600 163.756 C 192.071 163.427,192.390 163.198,191.367 163.206 C 190.945 163.209,190.330 163.395,190.000 163.618 M212.833 163.344 C 212.925 163.423,213.540 163.608,214.200 163.756 C 215.076 163.952,215.238 163.915,214.800 163.618 C 214.260 163.253,212.432 162.998,212.833 163.344 M184.900 165.826 C 182.571 167.222,182.742 167.496,185.100 166.146 C 187.372 164.845,187.435 164.799,186.967 164.804 C 186.765 164.806,185.835 165.266,184.900 165.826 M217.633 164.929 C 218.293 165.439,221.600 167.194,221.600 167.034 C 221.600 166.776,218.236 164.800,217.798 164.800 C 217.616 164.800,217.542 164.858,217.633 164.929 M301.424 167.830 C 302.731 168.616,304.416 169.729,305.168 170.303 C 305.921 170.876,306.395 171.115,306.221 170.833 C 305.825 170.194,300.050 166.400,299.472 166.400 C 299.238 166.400,300.116 167.043,301.424 167.830 M256.664 168.861 C 254.055 170.671,249.174 175.152,247.972 176.839 C 247.541 177.445,248.856 176.278,250.894 174.247 C 252.932 172.216,255.725 169.864,257.100 169.020 C 258.475 168.177,259.600 167.422,259.600 167.343 C 259.600 166.965,258.806 167.375,256.664 168.861 M179.133 170.300 C 177.900 171.565,176.685 173.050,176.434 173.600 L 175.977 174.600 176.683 173.600 C 177.071 173.050,178.364 171.565,179.555 170.300 C 180.747 169.035,181.644 168.000,181.548 168.000 C 181.453 168.000,180.366 169.035,179.133 170.300 M225.450 170.402 C 226.785 171.833,228.189 173.605,228.568 174.339 C 228.948 175.073,229.353 175.580,229.468 175.465 C 229.824 175.109,227.376 171.899,225.146 169.800 C 223.078 167.853,223.086 167.869,225.450 170.402 M309.200 173.800 C 310.617 175.230,311.867 176.400,311.977 176.400 C 312.087 176.400,311.017 175.230,309.600 173.800 C 308.183 172.370,306.933 171.200,306.823 171.200 C 306.713 171.200,307.783 172.370,309.200 173.800 M312.400 176.917 C 312.400 177.086,313.210 178.433,314.200 179.908 C 315.190 181.384,316.000 182.453,316.000 182.283 C 316.000 182.114,315.190 180.767,314.200 179.292 C 313.210 177.816,312.400 176.747,312.400 176.917 M200.900 177.476 C 201.285 177.576,201.915 177.576,202.300 177.476 C 202.685 177.375,202.370 177.293,201.600 177.293 C 200.830 177.293,200.515 177.375,200.900 177.476 M196.528 178.754 C 194.916 179.921,193.382 182.434,193.741 183.318 C 193.879 183.658,193.946 183.641,193.968 183.260 C 194.052 181.841,195.491 179.798,197.149 178.746 C 198.143 178.116,198.768 177.600,198.538 177.600 C 198.308 177.600,197.403 178.119,196.528 178.754 M204.800 177.886 C 205.130 178.009,205.895 178.360,206.500 178.665 C 207.105 178.971,207.600 179.131,207.600 179.021 C 207.600 178.707,205.298 177.596,204.720 177.632 C 204.371 177.653,204.397 177.736,204.800 177.886 M245.910 179.700 C 244.976 180.932,243.643 183.228,244.110 182.800 C 244.522 182.423,247.213 178.400,247.054 178.400 C 246.967 178.400,246.452 178.985,245.910 179.700 M276.400 179.553 C 275.630 179.689,277.321 179.800,280.158 179.800 C 283.303 179.800,284.708 179.692,283.758 179.523 C 281.904 179.194,278.352 179.208,276.400 179.553 M231.473 182.000 C 231.604 182.990,231.776 183.875,231.856 183.967 C 232.157 184.314,231.928 181.764,231.590 181.000 C 231.353 180.466,231.314 180.798,231.473 182.000 M268.544 182.369 C 267.853 182.790,267.165 183.333,267.016 183.574 C 266.792 183.937,269.375 182.358,269.956 181.777 C 270.347 181.387,269.733 181.644,268.544 182.369 M290.600 181.848 C 290.820 182.065,292.033 183.018,293.295 183.966 C 294.557 184.914,295.955 186.279,296.400 187.000 C 296.845 187.720,297.508 188.555,297.872 188.855 C 298.237 189.155,297.861 188.459,297.036 187.309 C 296.212 186.159,294.877 184.702,294.069 184.070 C 292.475 182.824,289.951 181.207,290.600 181.848 M210.456 182.800 C 210.456 183.130,210.611 183.760,210.800 184.200 C 211.017 184.704,211.144 184.778,211.144 184.400 C 211.144 184.070,210.989 183.440,210.800 183.000 C 210.583 182.496,210.456 182.422,210.456 182.800 M173.342 186.200 C 173.341 188.180,173.408 189.040,173.492 188.112 C 173.576 187.184,173.577 185.564,173.495 184.512 C 173.412 183.460,173.343 184.220,173.342 186.200 M264.975 185.300 L 263.800 186.600 265.100 185.425 C 265.815 184.779,266.400 184.194,266.400 184.125 C 266.400 183.816,266.070 184.088,264.975 185.300 M263.113 187.500 C 262.507 188.195,261.280 190.393,261.723 189.990 C 262.083 189.662,263.991 186.800,263.850 186.800 C 263.781 186.800,263.449 187.115,263.113 187.500 M195.201 189.343 C 196.189 190.473,199.828 192.796,200.600 192.789 C 200.820 192.787,200.011 192.241,198.803 191.575 C 197.595 190.909,196.065 189.877,195.404 189.282 L 194.203 188.200 195.201 189.343 M173.656 191.200 C 173.656 191.530,173.811 192.160,174.000 192.600 C 174.217 193.104,174.344 193.178,174.344 192.800 C 174.344 192.470,174.189 191.840,174.000 191.400 C 173.783 190.896,173.656 190.822,173.656 191.200 M240.200 192.400 C 240.048 193.091,240.007 193.741,240.109 193.842 C 240.211 193.944,240.409 193.453,240.550 192.750 C 240.883 191.083,240.560 190.760,240.200 192.400 M320.080 194.200 C 320.080 194.640,320.224 195.450,320.400 196.000 C 320.654 196.792,320.720 196.833,320.720 196.200 C 320.720 195.760,320.576 194.950,320.400 194.400 C 320.146 193.608,320.080 193.567,320.080 194.200 M259.429 195.829 C 259.281 196.415,259.238 196.972,259.332 197.066 C 259.427 197.160,259.624 196.758,259.771 196.171 C 259.919 195.585,259.962 195.028,259.868 194.934 C 259.773 194.840,259.576 195.242,259.429 195.829 M239.456 196.084 C 239.321 196.588,239.232 197.720,239.258 198.600 C 239.297 199.920,239.359 199.780,239.613 197.800 C 239.937 195.278,239.870 194.541,239.456 196.084 M301.091 199.000 C 301.211 200.540,301.375 201.875,301.455 201.967 C 301.722 202.273,301.509 198.616,301.189 197.400 C 300.998 196.672,300.959 197.302,301.091 199.000 M178.800 200.200 C 179.995 201.410,181.063 202.400,181.173 202.400 C 181.283 202.400,180.395 201.410,179.200 200.200 C 178.005 198.990,176.937 198.000,176.827 198.000 C 176.717 198.000,177.605 198.990,178.800 200.200 M258.948 202.800 C 258.948 205.110,259.014 206.055,259.095 204.900 C 259.176 203.745,259.176 201.855,259.095 200.700 C 259.014 199.545,258.948 200.490,258.948 202.800 M320.934 202.800 C 320.934 204.450,321.005 205.125,321.091 204.300 C 321.178 203.475,321.178 202.125,321.091 201.300 C 321.005 200.475,320.934 201.150,320.934 202.800 M223.600 202.262 C 224.911 203.175,230.066 208.375,230.676 209.400 C 230.939 209.840,231.164 209.973,231.176 209.696 C 231.211 208.964,225.510 203.128,223.936 202.283 C 222.751 201.646,222.713 201.644,223.600 202.262 M301.066 206.368 C 300.919 207.778,300.874 209.007,300.966 209.100 C 301.214 209.347,301.715 204.946,301.510 204.330 C 301.413 204.040,301.214 204.957,301.066 206.368 M239.240 207.233 C 239.262 208.205,239.425 209.450,239.602 210.000 C 239.795 210.600,239.837 209.960,239.706 208.400 C 239.451 205.362,239.182 204.689,239.240 207.233 M259.268 208.800 C 259.288 209.839,259.918 211.546,259.932 210.600 C 259.938 210.160,259.789 209.440,259.600 209.000 C 259.389 208.510,259.261 208.432,259.268 208.800 M320.222 210.222 C 320.072 211.025,320.028 211.762,320.126 211.860 C 320.224 211.957,320.427 211.381,320.578 210.578 C 320.728 209.775,320.772 209.038,320.674 208.940 C 320.576 208.843,320.373 209.419,320.222 210.222 M300.229 211.029 C 300.081 211.615,300.038 212.172,300.132 212.266 C 300.227 212.360,300.424 211.958,300.571 211.371 C 300.719 210.785,300.762 210.228,300.668 210.134 C 300.573 210.040,300.376 210.442,300.229 211.029 M240.006 212.433 C 240.009 212.965,240.189 213.670,240.406 214.000 C 240.682 214.422,240.723 214.185,240.542 213.200 C 240.225 211.475,239.998 211.149,240.006 212.433 M232.244 213.400 C 232.573 214.871,232.802 215.190,232.794 214.167 C 232.791 213.745,232.605 213.130,232.382 212.800 C 232.085 212.362,232.048 212.524,232.244 213.400 M144.200 215.600 C 144.048 216.291,144.007 216.941,144.109 217.042 C 144.211 217.144,144.409 216.653,144.550 215.950 C 144.883 214.283,144.560 213.960,144.200 215.600 M209.938 215.078 C 210.234 215.195,210.999 216.117,211.638 217.124 C 212.277 218.132,212.800 218.722,212.800 218.436 C 212.800 217.704,210.431 214.793,209.866 214.832 C 209.582 214.851,209.610 214.947,209.938 215.078 M116.856 215.600 C 116.856 215.930,117.011 216.560,117.200 217.000 C 117.417 217.504,117.544 217.578,117.544 217.200 C 117.544 216.870,117.389 216.240,117.200 215.800 C 116.983 215.296,116.856 215.222,116.856 215.600 M163.440 217.240 C 163.293 218.157,163.252 218.985,163.347 219.080 C 163.442 219.176,163.646 218.510,163.800 217.600 C 163.954 216.690,163.996 215.862,163.893 215.760 C 163.790 215.657,163.587 216.323,163.440 217.240 M232.944 219.200 C 232.944 221.290,233.012 222.145,233.094 221.100 C 233.176 220.055,233.176 218.345,233.094 217.300 C 233.012 216.255,232.944 217.110,232.944 219.200 M261.600 215.786 C 261.600 216.341,264.306 219.773,265.868 221.198 L 267.400 222.596 265.749 220.798 C 264.840 219.809,263.535 218.208,262.849 217.240 C 262.162 216.272,261.600 215.618,261.600 215.786 M97.680 217.400 C 97.680 217.840,97.824 218.650,98.000 219.200 C 98.254 219.992,98.320 220.033,98.320 219.400 C 98.320 218.960,98.176 218.150,98.000 217.600 C 97.746 216.808,97.680 216.767,97.680 217.400 M294.600 220.528 C 292.623 222.556,292.294 223.012,293.481 222.081 C 294.855 221.004,298.020 217.526,297.534 217.628 C 297.460 217.643,296.140 218.948,294.600 220.528 M172.860 220.500 C 172.915 221.700,172.933 221.716,173.086 220.707 L 173.252 219.613 183.526 219.500 L 193.800 219.386 183.300 219.293 L 172.800 219.200 172.860 220.500 M118.786 220.600 C 120.035 222.341,121.457 223.698,122.600 224.241 C 123.260 224.555,123.440 224.584,123.000 224.306 C 122.560 224.028,121.303 222.900,120.206 221.800 C 119.110 220.700,118.471 220.160,118.786 220.600 M316.282 222.211 C 315.692 223.415,315.294 224.400,315.398 224.400 C 315.667 224.400,317.684 220.351,317.505 220.171 C 317.423 220.089,316.873 221.007,316.282 222.211 M140.581 222.471 C 139.256 223.871,139.203 223.984,140.251 223.171 C 141.332 222.331,142.646 220.800,142.285 220.800 C 142.217 220.800,141.451 221.552,140.581 222.471 M232.446 224.467 C 232.421 224.834,232.296 225.464,232.170 225.867 C 231.952 226.562,231.963 226.563,232.397 225.887 C 232.648 225.496,232.773 224.866,232.673 224.487 C 232.511 223.868,232.488 223.866,232.446 224.467 M210.494 226.012 C 209.775 226.665,209.337 227.200,209.519 227.200 C 209.701 227.200,210.368 226.660,211.000 226.000 C 212.470 224.465,212.186 224.472,210.494 226.012 M128.565 226.102 C 129.646 226.288,131.446 226.289,132.565 226.105 C 134.352 225.810,134.112 225.768,130.600 225.766 C 127.141 225.764,126.866 225.809,128.565 226.102 M275.600 225.993 C 276.588 226.316,279.889 226.535,279.567 226.256 C 279.475 226.176,278.320 226.011,277.000 225.888 C 275.509 225.749,274.979 225.789,275.600 225.993 M282.400 226.000 L 280.600 226.280 282.200 226.300 C 283.080 226.311,284.250 226.176,284.800 226.000 C 286.063 225.595,285.002 225.595,282.400 226.000 M197.200 226.579 C 197.200 226.689,197.740 227.059,198.400 227.400 C 199.060 227.741,199.600 227.931,199.600 227.821 C 199.600 227.711,199.060 227.341,198.400 227.000 C 197.740 226.659,197.200 226.469,197.200 226.579 M247.130 227.900 C 247.561 228.505,248.328 229.360,248.834 229.800 C 249.340 230.240,249.051 229.745,248.192 228.700 C 246.473 226.608,245.903 226.179,247.130 227.900 M101.324 228.600 C 101.662 229.260,102.238 230.160,102.604 230.600 C 102.970 231.040,102.865 230.680,102.370 229.800 C 101.280 227.858,100.464 226.922,101.324 228.600 M202.061 228.460 C 202.865 228.631,204.305 228.628,205.261 228.452 C 206.764 228.177,206.566 228.134,203.800 228.141 C 201.274 228.146,200.908 228.213,202.061 228.460 M309.200 231.886 C 307.330 233.798,306.611 234.694,307.601 233.879 C 309.135 232.616,313.090 228.389,312.722 228.406 C 312.655 228.409,311.070 229.975,309.200 231.886 M175.859 230.400 C 177.253 232.831,177.784 233.600,178.069 233.600 C 178.221 233.600,177.711 232.655,176.936 231.500 C 175.239 228.973,174.759 228.484,175.859 230.400 M230.200 230.400 C 229.859 231.060,229.669 231.600,229.779 231.600 C 229.889 231.600,230.259 231.060,230.600 230.400 C 230.941 229.740,231.131 229.200,231.021 229.200 C 230.911 229.200,230.541 229.740,230.200 230.400 M250.800 232.200 C 251.546 232.970,252.247 233.600,252.357 233.600 C 252.467 233.600,251.946 232.970,251.200 232.200 C 250.454 231.430,249.753 230.800,249.643 230.800 C 249.533 230.800,250.054 231.430,250.800 232.200 M104.626 233.313 C 105.446 234.365,106.856 235.777,107.759 236.451 L 109.400 237.676 107.889 236.329 C 107.059 235.588,105.649 234.176,104.757 233.191 L 103.135 231.400 104.626 233.313 M156.175 233.250 C 155.529 233.937,153.956 235.377,152.679 236.450 C 151.403 237.522,150.522 238.400,150.723 238.400 C 151.121 238.400,157.941 232.048,157.575 232.018 C 157.451 232.008,156.821 232.562,156.175 233.250 M226.386 235.500 L 224.200 237.800 226.500 235.614 C 228.637 233.582,228.983 233.200,228.686 233.200 C 228.624 233.200,227.589 234.235,226.386 235.500 M253.400 234.358 C 254.300 235.414,258.774 238.559,259.023 238.311 C 259.111 238.222,258.339 237.621,257.305 236.975 C 256.272 236.329,254.791 235.264,254.013 234.609 C 252.998 233.754,252.825 233.683,253.400 234.358 M179.600 235.400 C 180.346 236.170,181.047 236.800,181.157 236.800 C 181.267 236.800,180.746 236.170,180.000 235.400 C 179.254 234.630,178.553 234.000,178.443 234.000 C 178.333 234.000,178.854 234.630,179.600 235.400 M303.220 236.821 C 300.997 238.327,300.646 238.688,302.200 237.870 C 303.974 236.935,305.859 235.605,305.400 235.610 C 305.180 235.612,304.199 236.157,303.220 236.821 M182.122 237.466 C 182.835 238.301,187.188 240.818,187.856 240.781 C 188.045 240.771,187.300 240.295,186.200 239.724 C 185.100 239.153,183.570 238.221,182.800 237.653 C 181.669 236.819,181.539 236.783,182.122 237.466 M222.297 238.766 C 220.698 239.791,220.403 240.206,221.800 239.466 C 223.476 238.577,224.271 238.008,223.800 238.035 C 223.580 238.048,222.904 238.377,222.297 238.766 M112.000 239.396 C 112.000 239.670,114.449 240.884,114.632 240.701 C 114.719 240.614,114.162 240.244,113.395 239.878 C 112.628 239.512,112.000 239.295,112.000 239.396 M141.800 242.000 C 141.296 242.217,141.222 242.344,141.600 242.344 C 141.930 242.344,142.560 242.189,143.000 242.000 C 143.504 241.783,143.578 241.656,143.200 241.656 C 142.870 241.656,142.240 241.811,141.800 242.000 M120.400 242.782 C 120.730 243.005,121.345 243.191,121.767 243.194 C 122.790 243.202,122.471 242.973,121.000 242.644 C 120.124 242.448,119.962 242.485,120.400 242.782 M138.800 242.800 C 137.996 243.057,137.957 243.123,138.600 243.132 C 139.040 243.138,139.760 242.989,140.200 242.800 C 141.219 242.362,140.168 242.362,138.800 242.800 M193.800 242.800 C 194.240 242.989,194.870 243.144,195.200 243.144 C 195.578 243.144,195.504 243.017,195.000 242.800 C 194.560 242.611,193.930 242.456,193.600 242.456 C 193.222 242.456,193.296 242.583,193.800 242.800 M212.600 242.800 C 212.096 243.017,212.022 243.144,212.400 243.144 C 212.730 243.144,213.360 242.989,213.800 242.800 C 214.304 242.583,214.378 242.456,214.000 242.456 C 213.670 242.456,213.040 242.611,212.600 242.800 M270.200 242.800 C 270.640 242.989,271.360 243.138,271.800 243.132 C 272.443 243.123,272.404 243.057,271.600 242.800 C 270.232 242.362,269.181 242.362,270.200 242.800 M288.800 242.800 C 287.996 243.057,287.957 243.123,288.600 243.132 C 289.040 243.138,289.760 242.989,290.200 242.800 C 291.219 242.362,290.168 242.362,288.800 242.800 M130.400 243.600 L 125.800 243.840 130.200 243.880 C 132.620 243.902,135.050 243.776,135.600 243.600 C 136.341 243.363,136.393 243.290,135.800 243.320 C 135.360 243.342,132.930 243.468,130.400 243.600 M275.042 243.677 C 277.052 244.034,283.348 244.034,285.358 243.677 C 286.222 243.523,283.922 243.400,280.200 243.400 C 276.478 243.400,274.178 243.523,275.042 243.677 M201.700 243.896 C 202.965 243.975,205.035 243.975,206.300 243.896 C 207.565 243.816,206.530 243.751,204.000 243.751 C 201.470 243.751,200.435 243.816,201.700 243.896 " stroke="none" fill="#7c848c" fill-rule="evenodd"></path></g></svg>