<svg id="svg" version="1.1" xmlns="http://www.w3.org/2000/svg" xmlns:xlink="http://www.w3.org/1999/xlink" width="400" height="400" viewBox="0, 0, 400,400"><g id="svgg"><path id="path0" d="M76.254 163.513 C 76.147 163.685,77.145 166.880,78.471 170.613 C 79.797 174.346,82.316 181.450,84.070 186.400 C 85.823 191.350,87.773 196.840,88.403 198.600 C 89.033 200.360,90.550 204.635,91.774 208.100 C 92.998 211.565,95.005 217.235,96.234 220.700 C 97.462 224.165,99.544 230.060,100.859 233.800 C 102.175 237.540,103.441 241.095,103.674 241.700 L 104.097 242.800 116.149 242.799 L 128.200 242.798 130.266 236.899 C 131.402 233.655,133.262 228.390,134.399 225.200 C 135.536 222.010,137.517 216.430,138.800 212.800 C 140.083 209.170,142.065 203.590,143.204 200.400 C 144.343 197.210,145.422 194.150,145.600 193.600 C 145.779 193.050,148.195 186.211,150.968 178.402 C 153.741 170.593,155.922 163.974,155.815 163.694 C 155.663 163.298,153.489 163.209,145.975 163.293 L 136.331 163.400 132.607 174.600 C 130.559 180.760,126.134 194.170,122.774 204.400 C 119.414 214.630,116.601 223.079,116.523 223.176 C 116.054 223.759,114.999 221.319,112.817 214.600 C 104.086 187.712,96.249 164.127,95.905 163.700 C 95.448 163.132,76.600 162.953,76.254 163.513 M161.874 163.459 C 161.723 163.610,161.600 181.523,161.600 203.267 L 161.600 242.800 171.202 242.800 L 180.804 242.800 180.702 203.100 L 180.600 163.400 171.374 163.293 C 166.299 163.234,162.024 163.309,161.874 163.459 M189.200 163.426 C 189.200 163.557,194.837 172.155,201.727 182.532 C 208.617 192.909,214.385 201.621,214.546 201.892 C 214.957 202.587,215.118 202.322,194.820 234.400 C 192.245 238.470,190.006 242.025,189.845 242.300 C 189.614 242.695,191.808 242.799,200.276 242.797 L 211.000 242.794 213.844 237.897 C 222.713 222.628,225.050 218.802,225.509 218.801 C 225.789 218.800,229.569 224.191,233.909 230.780 L 241.800 242.760 252.743 242.780 C 261.343 242.796,263.643 242.693,263.486 242.300 C 263.376 242.025,257.597 233.270,250.643 222.844 C 243.689 212.418,238.000 203.667,238.000 203.399 C 238.000 203.130,239.464 200.591,241.254 197.755 C 243.043 194.920,246.887 188.820,249.797 184.200 C 252.706 179.580,256.800 173.100,258.895 169.800 C 260.989 166.500,262.624 163.665,262.528 163.500 C 262.298 163.106,242.343 163.121,241.722 163.516 C 241.262 163.809,240.286 165.426,231.723 180.093 C 229.574 183.774,227.581 186.875,227.296 186.985 C 226.962 187.113,223.950 182.924,218.888 175.292 L 211.000 163.400 200.100 163.294 C 194.105 163.235,189.200 163.294,189.200 163.426 M265.824 163.562 C 265.696 163.768,266.107 164.896,266.737 166.068 C 267.366 167.241,269.643 171.620,271.795 175.800 C 273.948 179.980,276.830 185.560,278.200 188.200 C 279.570 190.840,282.452 196.420,284.605 200.600 C 286.757 204.780,289.481 210.039,290.659 212.287 L 292.800 216.375 292.800 229.587 L 292.800 242.800 302.400 242.800 L 312.000 242.800 312.000 229.543 L 312.000 216.287 317.251 206.043 C 320.139 200.410,323.086 194.720,323.799 193.400 C 324.513 192.080,326.943 187.400,329.198 183.000 C 331.454 178.600,334.627 172.465,336.249 169.366 C 337.871 166.267,339.079 163.612,338.932 163.466 C 338.405 162.938,318.529 163.162,318.097 163.700 C 317.722 164.167,316.131 167.596,306.690 188.287 C 304.660 192.734,302.910 196.377,302.800 196.381 C 302.141 196.404,301.058 194.268,294.294 179.600 L 286.824 163.400 276.440 163.293 C 270.290 163.230,265.961 163.340,265.824 163.562 " stroke="none" fill="#151d2d" fill-rule="evenodd"></path><path id="path1" d="M178.500 0.274 C 176.465 0.360,174.800 0.603,174.800 0.815 C 174.800 1.030,173.383 1.200,171.600 1.200 C 169.733 1.200,168.400 1.367,168.400 1.600 C 168.400 1.820,167.421 2.000,166.224 2.000 C 165.027 2.000,163.936 2.180,163.800 2.400 C 163.664 2.620,162.663 2.800,161.576 2.800 C 160.489 2.800,159.600 2.980,159.600 3.200 C 159.600 3.420,158.801 3.600,157.824 3.600 C 156.847 3.600,155.936 3.780,155.800 4.000 C 155.664 4.220,154.843 4.400,153.976 4.400 C 153.109 4.400,152.400 4.580,152.400 4.800 C 152.400 5.020,151.680 5.200,150.800 5.200 C 149.920 5.200,149.200 5.380,149.200 5.600 C 149.200 5.820,148.581 6.000,147.824 6.000 C 147.067 6.000,146.336 6.180,146.200 6.400 C 146.064 6.620,145.423 6.800,144.776 6.800 C 144.129 6.800,143.600 6.980,143.600 7.200 C 143.600 7.420,142.880 7.600,142.000 7.600 C 141.120 7.600,140.400 7.780,140.400 8.000 C 140.400 8.220,139.860 8.400,139.200 8.400 C 138.540 8.400,138.000 8.580,138.000 8.800 C 138.000 9.020,137.460 9.200,136.800 9.200 C 136.140 9.200,135.600 9.380,135.600 9.600 C 135.600 9.820,135.060 10.000,134.400 10.000 C 133.740 10.000,133.200 10.180,133.200 10.400 C 133.200 10.620,132.660 10.800,132.000 10.800 C 131.340 10.800,130.800 10.980,130.800 11.200 C 130.800 11.420,130.440 11.600,130.000 11.600 C 129.560 11.600,129.200 11.780,129.200 12.000 C 129.200 12.220,128.660 12.400,128.000 12.400 C 127.340 12.400,126.800 12.580,126.800 12.800 C 126.800 13.020,126.440 13.200,126.000 13.200 C 125.560 13.200,125.200 13.380,125.200 13.600 C 125.200 13.820,124.660 14.000,124.000 14.000 C 123.340 14.000,122.800 14.180,122.800 14.400 C 122.800 14.620,122.440 14.800,122.000 14.800 C 121.560 14.800,121.200 14.980,121.200 15.200 C 121.200 15.420,120.761 15.600,120.224 15.600 C 119.687 15.600,119.136 15.780,119.000 16.000 C 118.864 16.220,118.403 16.400,117.976 16.400 C 117.549 16.400,117.200 16.580,117.200 16.800 C 117.200 17.020,116.840 17.200,116.400 17.200 C 115.960 17.200,115.600 17.380,115.600 17.600 C 115.600 17.820,115.240 18.000,114.800 18.000 C 114.360 18.000,114.000 18.180,114.000 18.400 C 114.000 18.620,113.640 18.800,113.200 18.800 C 112.760 18.800,112.400 18.980,112.400 19.200 C 112.400 19.420,112.040 19.600,111.600 19.600 C 111.160 19.600,110.800 19.780,110.800 20.000 C 110.800 20.220,110.440 20.400,110.000 20.400 C 109.560 20.400,109.200 20.580,109.200 20.800 C 109.200 21.020,108.840 21.200,108.400 21.200 C 107.960 21.200,107.600 21.380,107.600 21.600 C 107.600 21.820,107.240 22.000,106.800 22.000 C 106.360 22.000,106.000 22.180,106.000 22.400 C 106.000 22.620,105.640 22.800,105.200 22.800 C 104.760 22.800,104.400 22.980,104.400 23.200 C 104.400 23.420,104.040 23.600,103.600 23.600 C 103.160 23.600,102.800 23.780,102.800 24.000 C 102.800 24.220,102.564 24.400,102.275 24.400 C 101.987 24.400,101.364 24.760,100.892 25.200 C 100.420 25.640,99.756 26.000,99.417 26.000 C 99.078 26.000,98.800 26.180,98.800 26.400 C 98.800 26.620,98.440 26.800,98.000 26.800 C 97.560 26.800,97.200 26.980,97.200 27.200 C 97.200 27.420,96.964 27.600,96.675 27.600 C 96.387 27.600,95.764 27.960,95.292 28.400 C 94.820 28.840,94.196 29.200,93.905 29.200 C 93.614 29.200,93.117 29.560,92.800 30.000 C 92.483 30.440,91.943 30.800,91.600 30.800 C 91.257 30.800,90.717 31.160,90.400 31.600 C 90.083 32.040,89.503 32.400,89.112 32.400 C 88.720 32.400,88.400 32.580,88.400 32.800 C 88.400 33.020,88.157 33.200,87.859 33.200 C 87.562 33.200,86.754 33.740,86.063 34.400 C 85.372 35.060,84.575 35.600,84.292 35.600 C 84.009 35.600,83.517 35.960,83.200 36.400 C 82.883 36.840,82.420 37.200,82.171 37.200 C 81.922 37.200,81.154 37.740,80.463 38.400 C 79.772 39.060,79.047 39.600,78.852 39.600 C 78.656 39.600,77.755 40.320,76.848 41.200 C 75.941 42.080,75.005 42.800,74.768 42.800 C 74.531 42.800,73.646 43.520,72.800 44.400 C 71.954 45.280,71.084 46.000,70.866 46.000 C 70.648 46.000,69.373 47.080,68.032 48.400 C 66.692 49.720,65.430 50.800,65.228 50.800 C 64.750 50.800,50.800 64.750,50.800 65.228 C 50.800 65.430,49.720 66.692,48.400 68.032 C 47.080 69.373,46.000 70.648,46.000 70.866 C 46.000 71.084,45.280 71.954,44.400 72.800 C 43.520 73.646,42.800 74.531,42.800 74.768 C 42.800 75.005,42.080 75.941,41.200 76.848 C 40.320 77.755,39.600 78.656,39.600 78.852 C 39.600 79.047,39.060 79.772,38.400 80.463 C 37.740 81.154,37.200 81.922,37.200 82.171 C 37.200 82.420,36.840 82.883,36.400 83.200 C 35.960 83.517,35.600 84.009,35.600 84.292 C 35.600 84.575,35.060 85.372,34.400 86.063 C 33.740 86.754,33.200 87.562,33.200 87.859 C 33.200 88.157,33.020 88.400,32.800 88.400 C 32.580 88.400,32.400 88.720,32.400 89.112 C 32.400 89.503,32.040 90.083,31.600 90.400 C 31.160 90.717,30.800 91.257,30.800 91.600 C 30.800 91.943,30.440 92.483,30.000 92.800 C 29.560 93.117,29.200 93.614,29.200 93.905 C 29.200 94.196,28.840 94.820,28.400 95.292 C 27.960 95.764,27.600 96.387,27.600 96.675 C 27.600 96.964,27.420 97.200,27.200 97.200 C 26.980 97.200,26.800 97.560,26.800 98.000 C 26.800 98.440,26.620 98.800,26.400 98.800 C 26.180 98.800,26.000 99.078,26.000 99.417 C 26.000 99.756,25.640 100.420,25.200 100.892 C 24.760 101.364,24.400 101.987,24.400 102.275 C 24.400 102.564,24.220 102.800,24.000 102.800 C 23.780 102.800,23.600 103.160,23.600 103.600 C 23.600 104.040,23.420 104.400,23.200 104.400 C 22.980 104.400,22.800 104.760,22.800 105.200 C 22.800 105.640,22.620 106.000,22.400 106.000 C 22.180 106.000,22.000 106.360,22.000 106.800 C 22.000 107.240,21.820 107.600,21.600 107.600 C 21.380 107.600,21.200 107.960,21.200 108.400 C 21.200 108.840,21.020 109.200,20.800 109.200 C 20.580 109.200,20.400 109.560,20.400 110.000 C 20.400 110.440,20.220 110.800,20.000 110.800 C 19.780 110.800,19.600 111.160,19.600 111.600 C 19.600 112.040,19.420 112.400,19.200 112.400 C 18.980 112.400,18.800 112.760,18.800 113.200 C 18.800 113.640,18.620 114.000,18.400 114.000 C 18.180 114.000,18.000 114.360,18.000 114.800 C 18.000 115.240,17.820 115.600,17.600 115.600 C 17.380 115.600,17.200 115.960,17.200 116.400 C 17.200 116.840,17.020 117.200,16.800 117.200 C 16.580 117.200,16.400 117.549,16.400 117.976 C 16.400 118.403,16.220 118.864,16.000 119.000 C 15.780 119.136,15.600 119.687,15.600 120.224 C 15.600 120.761,15.420 121.200,15.200 121.200 C 14.980 121.200,14.800 121.560,14.800 122.000 C 14.800 122.440,14.620 122.800,14.400 122.800 C 14.180 122.800,14.000 123.340,14.000 124.000 C 14.000 124.660,13.820 125.200,13.600 125.200 C 13.380 125.200,13.200 125.560,13.200 126.000 C 13.200 126.440,13.020 126.800,12.800 126.800 C 12.580 126.800,12.400 127.340,12.400 128.000 C 12.400 128.660,12.220 129.200,12.000 129.200 C 11.780 129.200,11.600 129.560,11.600 130.000 C 11.600 130.440,11.420 130.800,11.200 130.800 C 10.980 130.800,10.800 131.340,10.800 132.000 C 10.800 132.660,10.620 133.200,10.400 133.200 C 10.180 133.200,10.000 133.740,10.000 134.400 C 10.000 135.060,9.820 135.600,9.600 135.600 C 9.380 135.600,9.200 136.140,9.200 136.800 C 9.200 137.460,9.020 138.000,8.800 138.000 C 8.580 138.000,8.400 138.540,8.400 139.200 C 8.400 139.860,8.220 140.400,8.000 140.400 C 7.780 140.400,7.600 141.120,7.600 142.000 C 7.600 142.880,7.420 143.600,7.200 143.600 C 6.980 143.600,6.800 144.129,6.800 144.776 C 6.800 145.423,6.620 146.064,6.400 146.200 C 6.180 146.336,6.000 147.067,6.000 147.824 C 6.000 148.581,5.820 149.200,5.600 149.200 C 5.380 149.200,5.200 149.920,5.200 150.800 C 5.200 151.680,5.020 152.400,4.800 152.400 C 4.580 152.400,4.400 153.109,4.400 153.976 C 4.400 154.843,4.220 155.664,4.000 155.800 C 3.780 155.936,3.600 156.847,3.600 157.824 C 3.600 158.801,3.420 159.600,3.200 159.600 C 2.980 159.600,2.800 160.489,2.800 161.576 C 2.800 162.663,2.620 163.664,2.400 163.800 C 2.180 163.936,2.000 165.027,2.000 166.224 C 2.000 167.421,1.820 168.400,1.600 168.400 C 1.367 168.400,1.200 169.722,1.200 171.567 C 1.200 173.744,1.044 174.785,0.700 174.900 C -0.032 175.144,-0.032 224.856,0.700 225.100 C 1.044 225.215,1.200 226.256,1.200 228.433 C 1.200 230.278,1.367 231.600,1.600 231.600 C 1.820 231.600,2.000 232.579,2.000 233.776 C 2.000 234.973,2.180 236.064,2.400 236.200 C 2.620 236.336,2.800 237.337,2.800 238.424 C 2.800 239.511,2.980 240.400,3.200 240.400 C 3.420 240.400,3.600 241.199,3.600 242.176 C 3.600 243.153,3.780 244.064,4.000 244.200 C 4.220 244.336,4.400 245.157,4.400 246.024 C 4.400 246.891,4.580 247.600,4.800 247.600 C 5.020 247.600,5.200 248.320,5.200 249.200 C 5.200 250.080,5.380 250.800,5.600 250.800 C 5.820 250.800,6.000 251.419,6.000 252.176 C 6.000 252.933,6.180 253.664,6.400 253.800 C 6.620 253.936,6.800 254.577,6.800 255.224 C 6.800 255.871,6.980 256.400,7.200 256.400 C 7.420 256.400,7.600 257.120,7.600 258.000 C 7.600 258.880,7.780 259.600,8.000 259.600 C 8.220 259.600,8.400 260.140,8.400 260.800 C 8.400 261.460,8.580 262.000,8.800 262.000 C 9.020 262.000,9.200 262.540,9.200 263.200 C 9.200 263.860,9.380 264.400,9.600 264.400 C 9.820 264.400,10.000 264.940,10.000 265.600 C 10.000 266.260,10.180 266.800,10.400 266.800 C 10.620 266.800,10.800 267.340,10.800 268.000 C 10.800 268.660,10.980 269.200,11.200 269.200 C 11.420 269.200,11.600 269.560,11.600 270.000 C 11.600 270.440,11.780 270.800,12.000 270.800 C 12.220 270.800,12.400 271.340,12.400 272.000 C 12.400 272.660,12.580 273.200,12.800 273.200 C 13.020 273.200,13.200 273.560,13.200 274.000 C 13.200 274.440,13.380 274.800,13.600 274.800 C 13.820 274.800,14.000 275.340,14.000 276.000 C 14.000 276.660,14.180 277.200,14.400 277.200 C 14.620 277.200,14.800 277.560,14.800 278.000 C 14.800 278.440,14.980 278.800,15.200 278.800 C 15.420 278.800,15.600 279.239,15.600 279.776 C 15.600 280.313,15.780 280.864,16.000 281.000 C 16.220 281.136,16.400 281.597,16.400 282.024 C 16.400 282.451,16.580 282.800,16.800 282.800 C 17.020 282.800,17.200 283.160,17.200 283.600 C 17.200 284.040,17.380 284.400,17.600 284.400 C 17.820 284.400,18.000 284.760,18.000 285.200 C 18.000 285.640,18.180 286.000,18.400 286.000 C 18.620 286.000,18.800 286.360,18.800 286.800 C 18.800 287.240,18.980 287.600,19.200 287.600 C 19.420 287.600,19.600 287.960,19.600 288.400 C 19.600 288.840,19.780 289.200,20.000 289.200 C 20.220 289.200,20.400 289.560,20.400 290.000 C 20.400 290.440,20.580 290.800,20.800 290.800 C 21.020 290.800,21.200 291.160,21.200 291.600 C 21.200 292.040,21.380 292.400,21.600 292.400 C 21.820 292.400,22.000 292.760,22.000 293.200 C 22.000 293.640,22.180 294.000,22.400 294.000 C 22.620 294.000,22.800 294.360,22.800 294.800 C 22.800 295.240,22.980 295.600,23.200 295.600 C 23.420 295.600,23.600 295.960,23.600 296.400 C 23.600 296.840,23.780 297.200,24.000 297.200 C 24.220 297.200,24.400 297.436,24.400 297.725 C 24.400 298.013,24.760 298.636,25.200 299.108 C 25.640 299.580,26.000 300.244,26.000 300.583 C 26.000 300.922,26.180 301.200,26.400 301.200 C 26.620 301.200,26.800 301.560,26.800 302.000 C 26.800 302.440,26.980 302.800,27.200 302.800 C 27.420 302.800,27.600 303.036,27.600 303.325 C 27.600 303.613,27.960 304.236,28.400 304.708 C 28.840 305.180,29.200 305.804,29.200 306.095 C 29.200 306.386,29.560 306.883,30.000 307.200 C 30.440 307.517,30.800 308.057,30.800 308.400 C 30.800 308.743,31.160 309.283,31.600 309.600 C 32.040 309.917,32.400 310.497,32.400 310.888 C 32.400 311.280,32.580 311.600,32.800 311.600 C 33.020 311.600,33.200 311.843,33.200 312.141 C 33.200 312.438,33.740 313.246,34.400 313.937 C 35.060 314.628,35.600 315.425,35.600 315.708 C 35.600 315.991,35.960 316.483,36.400 316.800 C 36.840 317.117,37.200 317.580,37.200 317.829 C 37.200 318.078,37.740 318.846,38.400 319.537 C 39.060 320.228,39.600 320.953,39.600 321.148 C 39.600 321.344,40.320 322.245,41.200 323.152 C 42.080 324.059,42.800 324.995,42.800 325.232 C 42.800 325.469,43.520 326.354,44.400 327.200 C 45.280 328.046,46.000 328.916,46.000 329.134 C 46.000 329.352,47.080 330.627,48.400 331.968 C 49.720 333.308,50.800 334.570,50.800 334.772 C 50.800 335.250,64.750 349.200,65.228 349.200 C 65.430 349.200,66.692 350.280,68.032 351.600 C 69.373 352.920,70.648 354.000,70.866 354.000 C 71.084 354.000,71.954 354.720,72.800 355.600 C 73.646 356.480,74.531 357.200,74.768 357.200 C 75.005 357.200,75.941 357.920,76.848 358.800 C 77.755 359.680,78.656 360.400,78.852 360.400 C 79.047 360.400,79.772 360.940,80.463 361.600 C 81.154 362.260,81.922 362.800,82.171 362.800 C 82.420 362.800,82.883 363.160,83.200 363.600 C 83.517 364.040,84.009 364.400,84.292 364.400 C 84.575 364.400,85.372 364.940,86.063 365.600 C 86.754 366.260,87.562 366.800,87.859 366.800 C 88.157 366.800,88.400 366.980,88.400 367.200 C 88.400 367.420,88.720 367.600,89.112 367.600 C 89.503 367.600,90.083 367.960,90.400 368.400 C 90.717 368.840,91.257 369.200,91.600 369.200 C 91.943 369.200,92.483 369.560,92.800 370.000 C 93.117 370.440,93.614 370.800,93.905 370.800 C 94.196 370.800,94.820 371.160,95.292 371.600 C 95.764 372.040,96.387 372.400,96.675 372.400 C 96.964 372.400,97.200 372.580,97.200 372.800 C 97.200 373.020,97.560 373.200,98.000 373.200 C 98.440 373.200,98.800 373.380,98.800 373.600 C 98.800 373.820,99.078 374.000,99.417 374.000 C 99.756 374.000,100.420 374.360,100.892 374.800 C 101.364 375.240,101.987 375.600,102.275 375.600 C 102.564 375.600,102.800 375.780,102.800 376.000 C 102.800 376.220,103.160 376.400,103.600 376.400 C 104.040 376.400,104.400 376.580,104.400 376.800 C 104.400 377.020,104.760 377.200,105.200 377.200 C 105.640 377.200,106.000 377.380,106.000 377.600 C 106.000 377.820,106.360 378.000,106.800 378.000 C 107.240 378.000,107.600 378.180,107.600 378.400 C 107.600 378.620,107.960 378.800,108.400 378.800 C 108.840 378.800,109.200 378.980,109.200 379.200 C 109.200 379.420,109.560 379.600,110.000 379.600 C 110.440 379.600,110.800 379.780,110.800 380.000 C 110.800 380.220,111.160 380.400,111.600 380.400 C 112.040 380.400,112.400 380.580,112.400 380.800 C 112.400 381.020,112.760 381.200,113.200 381.200 C 113.640 381.200,114.000 381.380,114.000 381.600 C 114.000 381.820,114.360 382.000,114.800 382.000 C 115.240 382.000,115.600 382.180,115.600 382.400 C 115.600 382.620,115.960 382.800,116.400 382.800 C 116.840 382.800,117.200 382.980,117.200 383.200 C 117.200 383.420,117.549 383.600,117.976 383.600 C 118.403 383.600,118.864 383.780,119.000 384.000 C 119.136 384.220,119.687 384.400,120.224 384.400 C 120.761 384.400,121.200 384.580,121.200 384.800 C 121.200 385.020,121.560 385.200,122.000 385.200 C 122.440 385.200,122.800 385.380,122.800 385.600 C 122.800 385.820,123.340 386.000,124.000 386.000 C 124.660 386.000,125.200 386.180,125.200 386.400 C 125.200 386.620,125.560 386.800,126.000 386.800 C 126.440 386.800,126.800 386.980,126.800 387.200 C 126.800 387.420,127.340 387.600,128.000 387.600 C 128.660 387.600,129.200 387.780,129.200 388.000 C 129.200 388.220,129.560 388.400,130.000 388.400 C 130.440 388.400,130.800 388.580,130.800 388.800 C 130.800 389.020,131.340 389.200,132.000 389.200 C 132.660 389.200,133.200 389.380,133.200 389.600 C 133.200 389.820,133.740 390.000,134.400 390.000 C 135.060 390.000,135.600 390.180,135.600 390.400 C 135.600 390.620,136.140 390.800,136.800 390.800 C 137.460 390.800,138.000 390.980,138.000 391.200 C 138.000 391.420,138.540 391.600,139.200 391.600 C 139.860 391.600,140.400 391.780,140.400 392.000 C 140.400 392.220,141.120 392.400,142.000 392.400 C 142.880 392.400,143.600 392.580,143.600 392.800 C 143.600 393.020,144.129 393.200,144.776 393.200 C 145.423 393.200,146.064 393.380,146.200 393.600 C 146.336 393.820,147.067 394.000,147.824 394.000 C 148.581 394.000,149.200 394.180,149.200 394.400 C 149.200 394.620,149.920 394.800,150.800 394.800 C 151.680 394.800,152.400 394.980,152.400 395.200 C 152.400 395.420,153.109 395.600,153.976 395.600 C 154.843 395.600,155.664 395.780,155.800 396.000 C 155.936 396.220,156.847 396.400,157.824 396.400 C 158.801 396.400,159.600 396.580,159.600 396.800 C 159.600 397.020,160.489 397.200,161.576 397.200 C 162.663 397.200,163.664 397.380,163.800 397.600 C 163.936 397.820,165.027 398.000,166.224 398.000 C 167.421 398.000,168.400 398.180,168.400 398.400 C 168.400 398.633,169.722 398.800,171.567 398.800 C 173.744 398.800,174.785 398.956,174.900 399.300 C 175.144 400.032,224.856 400.032,225.100 399.300 C 225.215 398.956,226.256 398.800,228.433 398.800 C 230.278 398.800,231.600 398.633,231.600 398.400 C 231.600 398.180,232.579 398.000,233.776 398.000 C 234.973 398.000,236.064 397.820,236.200 397.600 C 236.336 397.380,237.337 397.200,238.424 397.200 C 239.511 397.200,240.400 397.020,240.400 396.800 C 240.400 396.580,241.199 396.400,242.176 396.400 C 243.153 396.400,244.064 396.220,244.200 396.000 C 244.336 395.780,245.157 395.600,246.024 395.600 C 246.891 395.600,247.600 395.420,247.600 395.200 C 247.600 394.980,248.320 394.800,249.200 394.800 C 250.080 394.800,250.800 394.620,250.800 394.400 C 250.800 394.180,251.419 394.000,252.176 394.000 C 252.933 394.000,253.664 393.820,253.800 393.600 C 253.936 393.380,254.577 393.200,255.224 393.200 C 255.871 393.200,256.400 393.020,256.400 392.800 C 256.400 392.580,257.120 392.400,258.000 392.400 C 258.880 392.400,259.600 392.220,259.600 392.000 C 259.600 391.780,260.140 391.600,260.800 391.600 C 261.460 391.600,262.000 391.420,262.000 391.200 C 262.000 390.980,262.540 390.800,263.200 390.800 C 263.860 390.800,264.400 390.620,264.400 390.400 C 264.400 390.180,264.940 390.000,265.600 390.000 C 266.260 390.000,266.800 389.820,266.800 389.600 C 266.800 389.380,267.340 389.200,268.000 389.200 C 268.660 389.200,269.200 389.020,269.200 388.800 C 269.200 388.580,269.560 388.400,270.000 388.400 C 270.440 388.400,270.800 388.220,270.800 388.000 C 270.800 387.780,271.340 387.600,272.000 387.600 C 272.660 387.600,273.200 387.420,273.200 387.200 C 273.200 386.980,273.560 386.800,274.000 386.800 C 274.440 386.800,274.800 386.620,274.800 386.400 C 274.800 386.180,275.340 386.000,276.000 386.000 C 276.660 386.000,277.200 385.820,277.200 385.600 C 277.200 385.380,277.560 385.200,278.000 385.200 C 278.440 385.200,278.800 385.020,278.800 384.800 C 278.800 384.580,279.239 384.400,279.776 384.400 C 280.313 384.400,280.864 384.220,281.000 384.000 C 281.136 383.780,281.597 383.600,282.024 383.600 C 282.451 383.600,282.800 383.420,282.800 383.200 C 282.800 382.980,283.160 382.800,283.600 382.800 C 284.040 382.800,284.400 382.620,284.400 382.400 C 284.400 382.180,284.760 382.000,285.200 382.000 C 285.640 382.000,286.000 381.820,286.000 381.600 C 286.000 381.380,286.360 381.200,286.800 381.200 C 287.240 381.200,287.600 381.020,287.600 380.800 C 287.600 380.580,287.960 380.400,288.400 380.400 C 288.840 380.400,289.200 380.220,289.200 380.000 C 289.200 379.780,289.560 379.600,290.000 379.600 C 290.440 379.600,290.800 379.420,290.800 379.200 C 290.800 378.980,291.160 378.800,291.600 378.800 C 292.040 378.800,292.400 378.620,292.400 378.400 C 292.400 378.180,292.760 378.000,293.200 378.000 C 293.640 378.000,294.000 377.820,294.000 377.600 C 294.000 377.380,294.360 377.200,294.800 377.200 C 295.240 377.200,295.600 377.020,295.600 376.800 C 295.600 376.580,295.960 376.400,296.400 376.400 C 296.840 376.400,297.200 376.220,297.200 376.000 C 297.200 375.780,297.436 375.600,297.725 375.600 C 298.013 375.600,298.636 375.240,299.108 374.800 C 299.580 374.360,300.244 374.000,300.583 374.000 C 300.922 374.000,301.200 373.820,301.200 373.600 C 301.200 373.380,301.560 373.200,302.000 373.200 C 302.440 373.200,302.800 373.020,302.800 372.800 C 302.800 372.580,303.036 372.400,303.325 372.400 C 303.613 372.400,304.236 372.040,304.708 371.600 C 305.180 371.160,305.804 370.800,306.095 370.800 C 306.386 370.800,306.883 370.440,307.200 370.000 C 307.517 369.560,308.057 369.200,308.400 369.200 C 308.743 369.200,309.283 368.840,309.600 368.400 C 309.917 367.960,310.497 367.600,310.888 367.600 C 311.280 367.600,311.600 367.420,311.600 367.200 C 311.600 366.980,311.843 366.800,312.141 366.800 C 312.438 366.800,313.246 366.260,313.937 365.600 C 314.628 364.940,315.425 364.400,315.708 364.400 C 315.991 364.400,316.483 364.040,316.800 363.600 C 317.117 363.160,317.580 362.800,317.829 362.800 C 318.078 362.800,318.846 362.260,319.537 361.600 C 320.228 360.940,320.953 360.400,321.148 360.400 C 321.344 360.400,322.245 359.680,323.152 358.800 C 324.059 357.920,324.995 357.200,325.232 357.200 C 325.469 357.200,326.354 356.480,327.200 355.600 C 328.046 354.720,328.916 354.000,329.134 354.000 C 329.352 354.000,330.627 352.920,331.968 351.600 C 333.308 350.280,334.570 349.200,334.772 349.200 C 335.250 349.200,349.200 335.250,349.200 334.772 C 349.200 334.570,350.280 333.308,351.600 331.968 C 352.920 330.627,354.000 329.352,354.000 329.134 C 354.000 328.916,354.720 328.046,355.600 327.200 C 356.480 326.354,357.200 325.469,357.200 325.232 C 357.200 324.995,357.920 324.059,358.800 323.152 C 359.680 322.245,360.400 321.344,360.400 321.148 C 360.400 320.953,360.940 320.228,361.600 319.537 C 362.260 318.846,362.800 318.078,362.800 317.829 C 362.800 317.580,363.160 317.117,363.600 316.800 C 364.040 316.483,364.400 315.991,364.400 315.708 C 364.400 315.425,364.940 314.628,365.600 313.937 C 366.260 313.246,366.800 312.438,366.800 312.141 C 366.800 311.843,366.980 311.600,367.200 311.600 C 367.420 311.600,367.600 311.280,367.600 310.888 C 367.600 310.497,367.960 309.917,368.400 309.600 C 368.840 309.283,369.200 308.743,369.200 308.400 C 369.200 308.057,369.560 307.517,370.000 307.200 C 370.440 306.883,370.800 306.386,370.800 306.095 C 370.800 305.804,371.160 305.180,371.600 304.708 C 372.040 304.236,372.400 303.613,372.400 303.325 C 372.400 303.036,372.580 302.800,372.800 302.800 C 373.020 302.800,373.200 302.440,373.200 302.000 C 373.200 301.560,373.380 301.200,373.600 301.200 C 373.820 301.200,374.000 300.922,374.000 300.583 C 374.000 300.244,374.360 299.580,374.800 299.108 C 375.240 298.636,375.600 298.013,375.600 297.725 C 375.600 297.436,375.780 297.200,376.000 297.200 C 376.220 297.200,376.400 296.840,376.400 296.400 C 376.400 295.960,376.580 295.600,376.800 295.600 C 377.020 295.600,377.200 295.240,377.200 294.800 C 377.200 294.360,377.380 294.000,377.600 294.000 C 377.820 294.000,378.000 293.640,378.000 293.200 C 378.000 292.760,378.180 292.400,378.400 292.400 C 378.620 292.400,378.800 292.040,378.800 291.600 C 378.800 291.160,378.980 290.800,379.200 290.800 C 379.420 290.800,379.600 290.440,379.600 290.000 C 379.600 289.560,379.780 289.200,380.000 289.200 C 380.220 289.200,380.400 288.840,380.400 288.400 C 380.400 287.960,380.580 287.600,380.800 287.600 C 381.020 287.600,381.200 287.240,381.200 286.800 C 381.200 286.360,381.380 286.000,381.600 286.000 C 381.820 286.000,382.000 285.640,382.000 285.200 C 382.000 284.760,382.180 284.400,382.400 284.400 C 382.620 284.400,382.800 284.040,382.800 283.600 C 382.800 283.160,382.980 282.800,383.200 282.800 C 383.420 282.800,383.600 282.451,383.600 282.024 C 383.600 281.597,383.780 281.136,384.000 281.000 C 384.220 280.864,384.400 280.313,384.400 279.776 C 384.400 279.239,384.580 278.800,384.800 278.800 C 385.020 278.800,385.200 278.440,385.200 278.000 C 385.200 277.560,385.380 277.200,385.600 277.200 C 385.820 277.200,386.000 276.660,386.000 276.000 C 386.000 275.340,386.180 274.800,386.400 274.800 C 386.620 274.800,386.800 274.440,386.800 274.000 C 386.800 273.560,386.980 273.200,387.200 273.200 C 387.420 273.200,387.600 272.660,387.600 272.000 C 387.600 271.340,387.780 270.800,388.000 270.800 C 388.220 270.800,388.400 270.440,388.400 270.000 C 388.400 269.560,388.580 269.200,388.800 269.200 C 389.020 269.200,389.200 268.660,389.200 268.000 C 389.200 267.340,389.380 266.800,389.600 266.800 C 389.820 266.800,390.000 266.260,390.000 265.600 C 390.000 264.940,390.180 264.400,390.400 264.400 C 390.620 264.400,390.800 263.860,390.800 263.200 C 390.800 262.540,390.980 262.000,391.200 262.000 C 391.420 262.000,391.600 261.460,391.600 260.800 C 391.600 260.140,391.780 259.600,392.000 259.600 C 392.220 259.600,392.400 258.880,392.400 258.000 C 392.400 257.120,392.580 256.400,392.800 256.400 C 393.020 256.400,393.200 255.871,393.200 255.224 C 393.200 254.577,393.380 253.936,393.600 253.800 C 393.820 253.664,394.000 252.933,394.000 252.176 C 394.000 251.419,394.180 250.800,394.400 250.800 C 394.620 250.800,394.800 250.080,394.800 249.200 C 394.800 248.320,394.980 247.600,395.200 247.600 C 395.420 247.600,395.600 246.891,395.600 246.024 C 395.600 245.157,395.780 244.336,396.000 244.200 C 396.220 244.064,396.400 243.153,396.400 242.176 C 396.400 241.199,396.580 240.400,396.800 240.400 C 397.020 240.400,397.200 239.511,397.200 238.424 C 397.200 237.337,397.380 236.336,397.600 236.200 C 397.820 236.064,398.000 234.973,398.000 233.776 C 398.000 232.579,398.180 231.600,398.400 231.600 C 398.633 231.600,398.800 230.278,398.800 228.433 C 398.800 226.256,398.956 225.215,399.300 225.100 C 399.693 224.969,399.800 219.591,399.800 200.000 C 399.800 180.409,399.693 175.031,399.300 174.900 C 398.956 174.785,398.800 173.744,398.800 171.567 C 398.800 169.722,398.633 168.400,398.400 168.400 C 398.180 168.400,398.000 167.421,398.000 166.224 C 398.000 165.027,397.820 163.936,397.600 163.800 C 397.380 163.664,397.200 162.663,397.200 161.576 C 397.200 160.489,397.020 159.600,396.800 159.600 C 396.580 159.600,396.400 158.801,396.400 157.824 C 396.400 156.847,396.220 155.936,396.000 155.800 C 395.780 155.664,395.600 154.843,395.600 153.976 C 395.600 153.109,395.420 152.400,395.200 152.400 C 394.980 152.400,394.800 151.680,394.800 150.800 C 394.800 149.920,394.620 149.200,394.400 149.200 C 394.180 149.200,394.000 148.581,394.000 147.824 C 394.000 147.067,393.820 146.336,393.600 146.200 C 393.380 146.064,393.200 145.423,393.200 144.776 C 393.200 144.129,393.020 143.600,392.800 143.600 C 392.580 143.600,392.400 142.880,392.400 142.000 C 392.400 141.120,392.220 140.400,392.000 140.400 C 391.780 140.400,391.600 139.860,391.600 139.200 C 391.600 138.540,391.420 138.000,391.200 138.000 C 390.980 138.000,390.800 137.460,390.800 136.800 C 390.800 136.140,390.620 135.600,390.400 135.600 C 390.180 135.600,390.000 135.060,390.000 134.400 C 390.000 133.740,389.820 133.200,389.600 133.200 C 389.380 133.200,389.200 132.660,389.200 132.000 C 389.200 131.340,389.020 130.800,388.800 130.800 C 388.580 130.800,388.400 130.440,388.400 130.000 C 388.400 129.560,388.220 129.200,388.000 129.200 C 387.780 129.200,387.600 128.660,387.600 128.000 C 387.600 127.340,387.420 126.800,387.200 126.800 C 386.980 126.800,386.800 126.440,386.800 126.000 C 386.800 125.560,386.620 125.200,386.400 125.200 C 386.180 125.200,386.000 124.660,386.000 124.000 C 386.000 123.340,385.820 122.800,385.600 122.800 C 385.380 122.800,385.200 122.440,385.200 122.000 C 385.200 121.560,385.020 121.200,384.800 121.200 C 384.580 121.200,384.400 120.761,384.400 120.224 C 384.400 119.687,384.220 119.136,384.000 119.000 C 383.780 118.864,383.600 118.403,383.600 117.976 C 383.600 117.549,383.420 117.200,383.200 117.200 C 382.980 117.200,382.800 116.840,382.800 116.400 C 382.800 115.960,382.620 115.600,382.400 115.600 C 382.180 115.600,382.000 115.240,382.000 114.800 C 382.000 114.360,381.820 114.000,381.600 114.000 C 381.380 114.000,381.200 113.640,381.200 113.200 C 381.200 112.760,381.020 112.400,380.800 112.400 C 380.580 112.400,380.400 112.040,380.400 111.600 C 380.400 111.160,380.220 110.800,380.000 110.800 C 379.780 110.800,379.600 110.440,379.600 110.000 C 379.600 109.560,379.420 109.200,379.200 109.200 C 378.980 109.200,378.800 108.840,378.800 108.400 C 378.800 107.960,378.620 107.600,378.400 107.600 C 378.180 107.600,378.000 107.240,378.000 106.800 C 378.000 106.360,377.820 106.000,377.600 106.000 C 377.380 106.000,377.200 105.640,377.200 105.200 C 377.200 104.760,377.020 104.400,376.800 104.400 C 376.580 104.400,376.400 104.040,376.400 103.600 C 376.400 103.160,376.220 102.800,376.000 102.800 C 375.780 102.800,375.600 102.564,375.600 102.275 C 375.600 101.987,375.240 101.364,374.800 100.892 C 374.360 100.420,374.000 99.756,374.000 99.417 C 374.000 99.078,373.820 98.800,373.600 98.800 C 373.380 98.800,373.200 98.440,373.200 98.000 C 373.200 97.560,373.020 97.200,372.800 97.200 C 372.580 97.200,372.400 96.964,372.400 96.675 C 372.400 96.387,372.040 95.764,371.600 95.292 C 371.160 94.820,370.800 94.196,370.800 93.905 C 370.800 93.614,370.440 93.117,370.000 92.800 C 369.560 92.483,369.200 91.943,369.200 91.600 C 369.200 91.257,368.840 90.717,368.400 90.400 C 367.960 90.083,367.600 89.503,367.600 89.112 C 367.600 88.720,367.420 88.400,367.200 88.400 C 366.980 88.400,366.800 88.157,366.800 87.859 C 366.800 87.562,366.260 86.754,365.600 86.063 C 364.940 85.372,364.400 84.575,364.400 84.292 C 364.400 84.009,364.040 83.517,363.600 83.200 C 363.160 82.883,362.800 82.420,362.800 82.171 C 362.800 81.922,362.260 81.154,361.600 80.463 C 360.940 79.772,360.400 79.047,360.400 78.852 C 360.400 78.656,359.680 77.755,358.800 76.848 C 357.920 75.941,357.200 75.005,357.200 74.768 C 357.200 74.531,356.480 73.646,355.600 72.800 C 354.720 71.954,354.000 71.084,354.000 70.866 C 354.000 70.648,352.920 69.373,351.600 68.032 C 350.280 66.692,349.200 65.430,349.200 65.228 C 349.200 64.750,335.250 50.800,334.772 50.800 C 334.570 50.800,333.308 49.720,331.968 48.400 C 330.627 47.080,329.352 46.000,329.134 46.000 C 328.916 46.000,328.046 45.280,327.200 44.400 C 326.354 43.520,325.469 42.800,325.232 42.800 C 324.995 42.800,324.059 42.080,323.152 41.200 C 322.245 40.320,321.344 39.600,321.148 39.600 C 320.953 39.600,320.228 39.060,319.537 38.400 C 318.846 37.740,318.078 37.200,317.829 37.200 C 317.580 37.200,317.117 36.840,316.800 36.400 C 316.483 35.960,315.991 35.600,315.708 35.600 C 315.425 35.600,314.628 35.060,313.937 34.400 C 313.246 33.740,312.438 33.200,312.141 33.200 C 311.843 33.200,311.600 33.020,311.600 32.800 C 311.600 32.580,311.280 32.400,310.888 32.400 C 310.497 32.400,309.917 32.040,309.600 31.600 C 309.283 31.160,308.743 30.800,308.400 30.800 C 308.057 30.800,307.517 30.440,307.200 30.000 C 306.883 29.560,306.386 29.200,306.095 29.200 C 305.804 29.200,305.180 28.840,304.708 28.400 C 304.236 27.960,303.613 27.600,303.325 27.600 C 303.036 27.600,302.800 27.420,302.800 27.200 C 302.800 26.980,302.440 26.800,302.000 26.800 C 301.560 26.800,301.200 26.620,301.200 26.400 C 301.200 26.180,300.922 26.000,300.583 26.000 C 300.244 26.000,299.580 25.640,299.108 25.200 C 298.636 24.760,298.013 24.400,297.725 24.400 C 297.436 24.400,297.200 24.220,297.200 24.000 C 297.200 23.780,296.840 23.600,296.400 23.600 C 295.960 23.600,295.600 23.420,295.600 23.200 C 295.600 22.980,295.240 22.800,294.800 22.800 C 294.360 22.800,294.000 22.620,294.000 22.400 C 294.000 22.180,293.640 22.000,293.200 22.000 C 292.760 22.000,292.400 21.820,292.400 21.600 C 292.400 21.380,292.040 21.200,291.600 21.200 C 291.160 21.200,290.800 21.020,290.800 20.800 C 290.800 20.580,290.440 20.400,290.000 20.400 C 289.560 20.400,289.200 20.220,289.200 20.000 C 289.200 19.780,288.840 19.600,288.400 19.600 C 287.960 19.600,287.600 19.420,287.600 19.200 C 287.600 18.980,287.240 18.800,286.800 18.800 C 286.360 18.800,286.000 18.620,286.000 18.400 C 286.000 18.180,285.640 18.000,285.200 18.000 C 284.760 18.000,284.400 17.820,284.400 17.600 C 284.400 17.380,284.040 17.200,283.600 17.200 C 283.160 17.200,282.800 17.020,282.800 16.800 C 282.800 16.580,282.451 16.400,282.024 16.400 C 281.597 16.400,281.136 16.220,281.000 16.000 C 280.864 15.780,280.313 15.600,279.776 15.600 C 279.239 15.600,278.800 15.420,278.800 15.200 C 278.800 14.980,278.440 14.800,278.000 14.800 C 277.560 14.800,277.200 14.620,277.200 14.400 C 277.200 14.180,276.660 14.000,276.000 14.000 C 275.340 14.000,274.800 13.820,274.800 13.600 C 274.800 13.380,274.440 13.200,274.000 13.200 C 273.560 13.200,273.200 13.020,273.200 12.800 C 273.200 12.580,272.660 12.400,272.000 12.400 C 271.340 12.400,270.800 12.220,270.800 12.000 C 270.800 11.780,270.451 11.600,270.024 11.600 C 269.597 11.600,269.136 11.420,269.000 11.200 C 268.864 10.980,268.313 10.800,267.776 10.800 C 267.239 10.800,266.800 10.620,266.800 10.400 C 266.800 10.180,266.260 10.000,265.600 10.000 C 264.940 10.000,264.400 9.820,264.400 9.600 C 264.400 9.380,263.860 9.200,263.200 9.200 C 262.540 9.200,262.000 9.020,262.000 8.800 C 262.000 8.580,261.460 8.400,260.800 8.400 C 260.140 8.400,259.600 8.220,259.600 8.000 C 259.600 7.780,258.880 7.600,258.000 7.600 C 257.120 7.600,256.400 7.420,256.400 7.200 C 256.400 6.980,255.871 6.800,255.224 6.800 C 254.577 6.800,253.936 6.620,253.800 6.400 C 253.664 6.180,252.933 6.000,252.176 6.000 C 251.419 6.000,250.800 5.820,250.800 5.600 C 250.800 5.380,250.080 5.200,249.200 5.200 C 248.320 5.200,247.600 5.020,247.600 4.800 C 247.600 4.580,246.891 4.400,246.024 4.400 C 245.157 4.400,244.336 4.220,244.200 4.000 C 244.064 3.780,243.153 3.600,242.176 3.600 C 241.199 3.600,240.400 3.420,240.400 3.200 C 240.400 2.980,239.511 2.800,238.424 2.800 C 237.337 2.800,236.336 2.620,236.200 2.400 C 236.064 2.180,234.973 2.000,233.776 2.000 C 232.579 2.000,231.600 1.820,231.600 1.600 C 231.600 1.367,230.278 1.200,228.433 1.200 C 226.304 1.200,225.214 1.041,225.105 0.714 C 224.944 0.233,187.802 -0.118,178.500 0.274 M96.279 162.717 C 96.543 162.884,97.958 166.707,99.425 171.211 C 100.891 175.715,103.485 183.630,105.188 188.800 C 106.891 193.970,109.960 203.330,112.007 209.600 C 114.055 215.870,115.847 221.138,115.991 221.306 C 116.278 221.643,116.173 221.951,127.423 187.800 C 131.772 174.600,135.598 163.485,135.927 163.100 C 136.873 161.990,156.176 162.034,156.772 163.147 C 156.992 163.558,157.095 163.971,157.002 164.065 C 156.854 164.213,154.134 171.613,153.204 174.400 C 152.873 175.390,152.399 176.728,148.389 188.000 C 147.253 191.190,146.175 194.250,145.991 194.800 C 145.631 195.881,142.913 203.534,139.599 212.800 C 138.458 215.990,137.379 219.050,137.200 219.600 C 136.879 220.588,133.703 229.549,132.025 234.200 C 131.549 235.520,130.693 237.950,130.123 239.600 C 129.553 241.250,128.910 242.825,128.694 243.100 C 128.257 243.658,104.581 243.842,103.759 243.294 C 103.517 243.132,102.943 241.907,102.484 240.570 C 102.025 239.234,101.382 237.434,101.055 236.570 C 100.728 235.707,99.923 233.470,99.267 231.600 C 98.611 229.730,97.517 226.625,96.837 224.700 C 96.157 222.775,95.076 219.715,94.435 217.900 C 93.794 216.085,92.338 211.990,91.200 208.800 C 90.062 205.610,88.622 201.560,88.002 199.800 C 87.381 198.040,86.330 195.070,85.666 193.200 C 85.002 191.330,82.992 185.660,81.200 180.600 C 79.408 175.540,77.431 169.960,76.806 168.200 C 75.259 163.841,75.110 163.270,75.398 162.804 C 75.692 162.328,95.538 162.245,96.279 162.717 M181.120 162.880 C 181.487 163.247,181.600 172.763,181.600 203.272 L 181.600 243.185 180.700 243.405 C 180.205 243.526,175.660 243.575,170.600 243.513 L 161.400 243.400 161.297 203.400 C 161.240 181.400,161.280 163.175,161.384 162.900 C 161.652 162.197,180.418 162.178,181.120 162.880 M210.939 162.632 C 211.272 162.760,215.002 168.070,219.228 174.432 C 227.674 187.147,227.129 186.521,228.172 184.700 C 229.451 182.466,234.379 174.036,237.700 168.400 C 241.635 161.723,239.929 162.413,252.513 162.406 C 264.934 162.399,264.545 162.249,262.105 166.102 C 261.236 167.476,257.862 172.830,254.610 178.000 C 251.357 183.170,246.554 190.775,243.936 194.899 C 241.317 199.024,239.075 202.660,238.952 202.980 C 238.819 203.326,244.004 211.493,251.808 223.230 C 261.769 238.211,264.757 242.982,264.343 243.244 C 264.044 243.433,258.805 243.591,252.701 243.594 L 241.601 243.600 233.730 231.790 C 229.400 225.295,225.671 220.043,225.442 220.119 C 225.081 220.240,218.111 231.855,213.752 239.600 C 211.284 243.985,212.591 243.600,200.162 243.600 C 192.843 243.600,189.160 243.459,188.983 243.172 C 188.703 242.719,189.201 241.877,197.592 228.600 C 200.511 223.980,205.414 216.201,208.487 211.314 L 214.074 202.427 201.505 183.514 C 186.899 161.535,188.272 163.712,188.552 162.981 C 188.780 162.386,209.459 162.064,210.939 162.632 M287.283 163.100 C 287.617 163.485,288.710 165.600,289.711 167.800 C 290.712 170.000,292.332 173.510,293.310 175.600 C 294.288 177.690,295.543 180.390,296.098 181.600 C 297.471 184.593,299.215 188.375,300.964 192.155 C 301.767 193.890,302.500 195.234,302.593 195.141 C 302.738 194.996,305.713 188.602,308.800 181.800 C 313.333 171.813,316.961 164.044,317.440 163.300 C 318.182 162.146,339.413 161.847,339.849 162.985 C 339.973 163.306,338.233 167.131,335.984 171.485 C 333.734 175.838,330.365 182.370,328.496 186.000 C 326.627 189.630,324.244 194.220,323.201 196.200 C 322.157 198.180,319.345 203.580,316.952 208.200 L 312.600 216.600 312.400 230.000 L 312.200 243.400 303.000 243.513 C 297.940 243.575,293.395 243.526,292.900 243.405 L 292.000 243.185 292.000 229.877 L 292.000 216.568 290.667 213.984 C 289.934 212.563,287.659 208.160,285.613 204.200 C 283.567 200.240,280.544 194.390,278.896 191.200 C 277.248 188.010,274.776 183.240,273.404 180.600 C 265.597 165.588,264.679 163.692,264.920 163.064 C 265.319 162.023,286.379 162.058,287.283 163.100 " stroke="none" fill="#fbfbfb" fill-rule="evenodd"></path><path id="path2" d="M161.392 203.200 C 161.392 225.090,161.441 234.045,161.500 223.100 C 161.559 212.155,161.559 194.245,161.500 183.300 C 161.441 172.355,161.392 181.310,161.392 203.200 M312.179 229.800 C 312.179 237.060,312.233 240.086,312.299 236.525 C 312.365 232.964,312.366 227.024,312.299 223.325 C 312.233 219.626,312.179 222.540,312.179 229.800 " stroke="none" fill="#a5a6b2" fill-rule="evenodd"></path><path id="path3" d="M76.100 163.065 C 75.825 163.176,75.600 163.454,75.600 163.682 C 75.600 163.950,75.796 163.936,76.150 163.642 C 76.536 163.321,79.538 163.217,86.238 163.293 L 95.777 163.400 96.283 164.400 C 96.771 165.366,96.788 165.370,96.794 164.514 C 96.797 164.027,96.452 163.442,96.026 163.214 C 95.248 162.798,77.099 162.662,76.100 163.065 M146.200 163.096 C 153.956 163.190,155.472 163.305,155.862 163.828 C 156.142 164.205,156.421 164.290,156.573 164.044 C 157.190 163.045,154.988 162.803,146.126 162.892 L 137.000 162.984 146.200 163.096 M161.862 163.100 C 161.759 163.265,165.934 163.400,171.138 163.400 L 180.600 163.400 180.702 203.093 L 180.804 242.786 171.102 242.904 L 161.400 243.022 171.200 243.011 L 181.000 243.000 181.102 203.443 C 181.176 174.547,181.082 163.740,180.753 163.343 C 180.257 162.745,162.225 162.513,161.862 163.100 M194.900 163.099 C 197.705 163.168,202.295 163.168,205.100 163.099 C 207.905 163.030,205.610 162.974,200.000 162.974 C 194.390 162.974,192.095 163.030,194.900 163.099 M241.538 163.300 C 240.644 164.028,239.076 166.410,239.327 166.660 C 239.445 166.778,239.818 166.363,240.156 165.737 C 241.500 163.251,240.737 163.417,251.885 163.187 L 262.200 162.973 252.176 162.887 C 244.644 162.822,242.000 162.924,241.538 163.300 M265.700 163.065 C 265.425 163.176,265.200 163.454,265.200 163.682 C 265.200 163.957,265.381 163.948,265.732 163.656 C 266.081 163.367,269.709 163.175,276.232 163.100 L 286.200 162.985 276.200 162.924 C 270.700 162.891,265.975 162.954,265.700 163.065 M328.400 163.094 C 340.020 163.224,339.467 163.108,338.404 165.192 C 337.953 166.076,337.674 166.800,337.784 166.800 C 338.407 166.800,339.641 163.472,339.136 163.152 C 338.841 162.965,334.100 162.851,328.600 162.899 L 318.600 162.985 328.400 163.094 M188.815 163.400 C 188.817 163.620,189.186 164.250,189.636 164.800 C 190.179 165.464,190.315 165.531,190.040 165.000 C 189.366 163.695,188.812 162.972,188.815 163.400 M262.485 163.500 C 262.532 163.665,262.340 164.250,262.058 164.800 L 261.546 165.800 262.364 164.800 C 263.270 163.693,263.404 163.200,262.800 163.200 C 262.580 163.200,262.438 163.335,262.485 163.500 M317.249 164.252 C 316.583 165.714,316.874 165.795,317.689 164.374 C 318.060 163.728,318.220 163.200,318.046 163.200 C 317.871 163.200,317.513 163.673,317.249 164.252 M135.400 164.800 C 135.250 165.273,135.217 165.750,135.327 165.860 C 135.437 165.970,135.650 165.673,135.800 165.200 C 135.950 164.727,135.983 164.250,135.873 164.140 C 135.763 164.030,135.550 164.327,135.400 164.800 M287.219 164.300 C 287.245 164.709,289.557 169.064,289.581 168.748 C 289.609 168.378,287.571 164.000,287.371 164.000 C 287.277 164.000,287.208 164.135,287.219 164.300 M259.573 168.700 C 258.639 170.185,257.612 171.805,257.291 172.300 C 256.970 172.795,256.792 173.200,256.895 173.200 C 257.101 173.200,260.379 168.343,261.149 166.900 C 262.143 165.033,261.207 166.103,259.573 168.700 M266.470 166.300 C 267.289 168.094,270.055 173.200,270.208 173.200 C 270.318 173.200,269.594 171.580,268.600 169.600 C 267.606 167.620,266.689 166.000,266.563 166.000 C 266.437 166.000,266.395 166.135,266.470 166.300 M315.823 167.406 C 314.960 169.472,315.074 169.706,316.047 167.862 C 316.493 167.016,316.765 166.232,316.652 166.119 C 316.539 166.006,316.166 166.585,315.823 167.406 M134.600 167.200 C 134.450 167.673,134.417 168.150,134.527 168.260 C 134.637 168.370,134.850 168.073,135.000 167.600 C 135.150 167.127,135.183 166.650,135.073 166.540 C 134.963 166.430,134.750 166.727,134.600 167.200 M154.246 169.046 C 153.892 170.085,153.666 170.999,153.743 171.077 C 153.821 171.154,154.200 170.393,154.585 169.385 C 154.970 168.376,155.196 167.463,155.087 167.354 C 154.979 167.245,154.600 168.007,154.246 169.046 M237.028 170.261 C 236.016 171.944,235.265 173.398,235.358 173.492 C 235.491 173.624,237.313 170.692,239.081 167.500 C 239.172 167.335,239.162 167.200,239.057 167.200 C 238.953 167.200,238.039 168.577,237.028 170.261 M77.662 169.200 C 77.661 169.530,78.006 170.520,78.429 171.400 C 78.852 172.280,79.086 172.550,78.950 172.000 C 78.575 170.495,77.666 168.516,77.662 169.200 M133.800 169.600 C 133.650 170.073,133.617 170.550,133.727 170.660 C 133.837 170.770,134.050 170.473,134.200 170.000 C 134.350 169.527,134.383 169.050,134.273 168.940 C 134.163 168.830,133.950 169.127,133.800 169.600 M289.619 169.500 C 289.645 169.909,291.957 174.264,291.981 173.948 C 292.009 173.578,289.971 169.200,289.771 169.200 C 289.677 169.200,289.608 169.335,289.619 169.500 M333.384 174.858 C 332.138 177.356,331.292 179.220,331.505 179.000 C 332.119 178.363,336.017 170.683,335.824 170.490 C 335.728 170.394,334.630 172.360,333.384 174.858 M133.000 172.000 C 132.850 172.473,132.817 172.950,132.927 173.060 C 133.037 173.170,133.250 172.873,133.400 172.400 C 133.550 171.927,133.583 171.450,133.473 171.340 C 133.363 171.230,133.150 171.527,133.000 172.000 M313.423 172.606 C 312.560 174.672,312.674 174.906,313.647 173.062 C 314.093 172.216,314.365 171.432,314.252 171.319 C 314.139 171.206,313.766 171.785,313.423 172.606 M217.050 172.500 C 220.568 178.416,226.897 187.135,227.498 186.892 C 228.133 186.634,228.124 186.595,227.400 186.483 C 226.866 186.400,225.019 183.974,221.841 179.180 C 219.224 175.231,217.008 172.000,216.917 172.000 C 216.827 172.000,216.887 172.225,217.050 172.500 M132.200 174.400 C 132.050 174.873,132.017 175.350,132.127 175.460 C 132.237 175.570,132.450 175.273,132.600 174.800 C 132.750 174.327,132.783 173.850,132.673 173.740 C 132.563 173.630,132.350 173.927,132.200 174.400 M254.773 176.300 C 253.839 177.785,252.812 179.405,252.491 179.900 C 252.170 180.395,252.001 180.800,252.115 180.800 C 252.230 180.800,253.210 179.405,254.294 177.700 C 256.772 173.802,256.888 173.600,256.659 173.600 C 256.556 173.600,255.707 174.815,254.773 176.300 M151.846 175.846 C 151.492 176.885,151.266 177.799,151.343 177.877 C 151.421 177.954,151.800 177.193,152.185 176.185 C 152.570 175.176,152.796 174.263,152.687 174.154 C 152.579 174.045,152.200 174.807,151.846 175.846 M234.214 175.035 C 233.841 175.604,233.627 176.161,233.739 176.272 C 233.850 176.383,234.229 175.918,234.581 175.237 C 235.359 173.733,235.144 173.615,234.214 175.035 M292.019 174.700 C 292.045 175.109,294.357 179.464,294.381 179.148 C 294.409 178.778,292.371 174.400,292.171 174.400 C 292.077 174.400,292.008 174.535,292.019 174.700 M80.012 176.000 C 80.012 176.330,80.187 176.870,80.400 177.200 C 80.745 177.733,80.788 177.733,80.788 177.200 C 80.788 176.870,80.613 176.330,80.400 176.000 C 80.055 175.467,80.012 175.467,80.012 176.000 M131.400 176.800 C 131.250 177.273,131.217 177.750,131.327 177.860 C 131.437 177.970,131.650 177.673,131.800 177.200 C 131.950 176.727,131.983 176.250,131.873 176.140 C 131.763 176.030,131.550 176.327,131.400 176.800 M311.023 177.806 C 310.160 179.872,310.274 180.106,311.247 178.262 C 311.693 177.416,311.965 176.632,311.852 176.519 C 311.739 176.406,311.366 176.985,311.023 177.806 M232.708 177.700 C 231.833 179.049,231.048 180.656,231.487 180.200 C 232.048 179.617,233.698 176.800,233.479 176.800 C 233.376 176.800,233.029 177.205,232.708 177.700 M272.000 176.931 C 272.000 177.231,276.142 185.033,276.495 185.400 C 276.708 185.620,275.871 183.775,274.637 181.300 C 272.732 177.479,272.000 176.267,272.000 176.931 M130.600 179.200 C 130.450 179.673,130.417 180.150,130.527 180.260 C 130.637 180.370,130.850 180.073,131.000 179.600 C 131.150 179.127,131.183 178.650,131.073 178.540 C 130.963 178.430,130.750 178.727,130.600 179.200 M294.419 179.900 C 294.445 180.309,296.757 184.664,296.781 184.348 C 296.809 183.978,294.771 179.600,294.571 179.600 C 294.477 179.600,294.408 179.735,294.419 179.900 M101.612 180.400 C 101.612 180.730,101.787 181.270,102.000 181.600 C 102.345 182.133,102.388 182.133,102.388 181.600 C 102.388 181.270,102.213 180.730,102.000 180.400 C 101.655 179.867,101.612 179.867,101.612 180.400 M309.041 182.223 C 307.636 185.291,307.756 185.547,309.246 182.660 C 309.910 181.373,310.370 180.236,310.268 180.134 C 310.166 180.032,309.614 180.972,309.041 182.223 M129.800 181.600 C 129.650 182.073,129.617 182.550,129.727 182.660 C 129.837 182.770,130.050 182.473,130.200 182.000 C 130.350 181.527,130.383 181.050,130.273 180.940 C 130.163 180.830,129.950 181.127,129.800 181.600 M149.446 182.646 C 149.092 183.685,148.866 184.599,148.943 184.677 C 149.021 184.754,149.400 183.993,149.785 182.985 C 150.170 181.976,150.396 181.063,150.287 180.954 C 150.179 180.845,149.800 181.607,149.446 182.646 M230.214 181.835 C 229.841 182.404,229.627 182.961,229.739 183.072 C 229.850 183.183,230.229 182.718,230.581 182.037 C 231.359 180.533,231.144 180.415,230.214 181.835 M250.107 183.700 C 248.019 187.036,247.926 187.200,248.120 187.200 C 248.310 187.200,250.825 183.459,251.549 182.100 C 252.515 180.285,251.628 181.270,250.107 183.700 M82.462 182.800 C 82.461 183.130,82.806 184.120,83.229 185.000 C 83.652 185.880,83.886 186.150,83.750 185.600 C 83.375 184.095,82.466 182.116,82.462 182.800 M102.412 182.800 C 102.412 183.130,102.587 183.670,102.800 184.000 C 103.145 184.533,103.188 184.533,103.188 184.000 C 103.188 183.670,103.013 183.130,102.800 182.800 C 102.455 182.267,102.412 182.267,102.412 182.800 M327.421 186.358 C 326.415 188.361,325.674 190.000,325.774 190.000 C 326.051 190.000,329.594 183.061,329.410 182.877 C 329.322 182.789,328.427 184.355,327.421 186.358 M129.000 184.000 C 128.850 184.473,128.817 184.950,128.927 185.060 C 129.037 185.170,129.250 184.873,129.400 184.400 C 129.550 183.927,129.583 183.450,129.473 183.340 C 129.363 183.230,129.150 183.527,129.000 184.000 M228.614 184.635 C 228.241 185.204,228.027 185.761,228.139 185.872 C 228.250 185.983,228.629 185.518,228.981 184.837 C 229.759 183.333,229.544 183.215,228.614 184.635 M103.212 185.200 C 103.212 185.530,103.387 186.070,103.600 186.400 C 103.945 186.933,103.988 186.933,103.988 186.400 C 103.988 186.070,103.813 185.530,103.600 185.200 C 103.255 184.667,103.212 184.667,103.212 185.200 M296.819 185.100 C 296.845 185.509,299.157 189.864,299.181 189.548 C 299.209 189.178,297.171 184.800,296.971 184.800 C 296.877 184.800,296.808 184.935,296.819 185.100 M306.641 187.423 C 305.236 190.491,305.356 190.747,306.846 187.860 C 307.510 186.573,307.970 185.436,307.868 185.334 C 307.766 185.232,307.214 186.172,306.641 187.423 M104.012 187.600 C 104.012 187.930,104.187 188.470,104.400 188.800 C 104.745 189.333,104.788 189.333,104.788 188.800 C 104.788 188.470,104.613 187.930,104.400 187.600 C 104.055 187.067,104.012 187.067,104.012 187.600 M147.046 189.446 C 146.692 190.485,146.466 191.399,146.543 191.477 C 146.621 191.554,147.000 190.793,147.385 189.785 C 147.770 188.776,147.996 187.863,147.887 187.754 C 147.779 187.645,147.400 188.407,147.046 189.446 M245.329 191.286 C 244.462 192.669,243.415 194.340,243.003 195.000 C 241.547 197.331,243.119 195.358,245.180 192.267 C 246.328 190.545,247.187 189.054,247.087 188.954 C 246.988 188.854,246.197 189.904,245.329 191.286 M84.862 189.600 C 84.861 189.930,85.206 190.920,85.629 191.800 C 86.052 192.680,86.286 192.950,86.150 192.400 C 85.775 190.895,84.866 188.916,84.862 189.600 M278.400 189.331 C 278.400 189.631,282.542 197.433,282.895 197.800 C 283.108 198.020,282.271 196.175,281.037 193.700 C 279.132 189.879,278.400 188.667,278.400 189.331 M104.834 190.000 C 104.846 190.330,105.011 190.960,105.200 191.400 L 105.544 192.200 105.566 191.400 C 105.578 190.960,105.413 190.330,105.200 190.000 C 104.855 189.467,104.815 189.467,104.834 190.000 M299.219 190.300 C 299.245 190.709,301.557 195.064,301.581 194.748 C 301.609 194.378,299.571 190.000,299.371 190.000 C 299.277 190.000,299.208 190.135,299.219 190.300 M304.623 191.806 C 303.760 193.872,303.874 194.106,304.847 192.262 C 305.293 191.416,305.565 190.632,305.452 190.519 C 305.339 190.406,304.966 190.985,304.623 191.806 M145.800 192.800 C 145.650 193.273,145.617 193.750,145.727 193.860 C 145.837 193.970,146.050 193.673,146.200 193.200 C 146.350 192.727,146.383 192.250,146.273 192.140 C 146.163 192.030,145.950 192.327,145.800 192.800 M86.412 194.000 C 86.412 194.330,86.587 194.870,86.800 195.200 C 87.145 195.733,87.188 195.733,87.188 195.200 C 87.188 194.870,87.013 194.330,86.800 194.000 C 86.455 193.467,86.412 193.467,86.412 194.000 M321.384 198.058 C 320.138 200.556,319.292 202.420,319.505 202.200 C 320.119 201.563,324.017 193.883,323.824 193.690 C 323.728 193.594,322.630 195.560,321.384 198.058 M301.600 195.595 C 301.600 195.871,302.541 196.400,303.033 196.400 C 303.579 196.400,303.066 195.658,302.400 195.484 C 301.960 195.369,301.600 195.419,301.600 195.595 M240.507 198.900 C 238.419 202.236,238.326 202.400,238.520 202.400 C 238.710 202.400,241.225 198.659,241.949 197.300 C 242.915 195.485,242.028 196.470,240.507 198.900 M143.400 199.600 C 143.250 200.073,143.217 200.550,143.327 200.660 C 143.437 200.770,143.650 200.473,143.800 200.000 C 143.950 199.527,143.983 199.050,143.873 198.940 C 143.763 198.830,143.550 199.127,143.400 199.600 M284.000 200.131 C 284.000 200.431,288.142 208.233,288.495 208.600 C 288.708 208.820,287.871 206.975,286.637 204.500 C 284.732 200.679,284.000 199.467,284.000 200.131 M88.812 200.800 C 88.812 201.130,88.987 201.670,89.200 202.000 C 89.545 202.533,89.588 202.533,89.588 202.000 C 89.588 201.670,89.413 201.130,89.200 200.800 C 88.855 200.267,88.812 200.267,88.812 200.800 M212.722 205.300 C 211.118 207.719,210.294 209.200,210.550 209.200 C 210.695 209.200,212.843 205.920,214.152 203.700 C 214.973 202.308,213.935 203.470,212.722 205.300 M140.646 207.446 C 139.810 209.901,140.075 210.166,140.985 207.785 C 141.370 206.776,141.596 205.863,141.487 205.754 C 141.379 205.645,141.000 206.407,140.646 207.446 M314.984 210.458 C 313.738 212.956,312.892 214.820,313.105 214.600 C 313.719 213.963,317.617 206.283,317.424 206.090 C 317.328 205.994,316.230 207.960,314.984 210.458 M110.412 207.200 C 110.412 207.530,110.587 208.070,110.800 208.400 C 111.145 208.933,111.188 208.933,111.188 208.400 C 111.188 208.070,111.013 207.530,110.800 207.200 C 110.455 206.667,110.412 206.667,110.412 207.200 M91.262 207.600 C 91.261 207.930,91.606 208.920,92.029 209.800 C 92.452 210.680,92.686 210.950,92.550 210.400 C 92.175 208.895,91.266 206.916,91.262 207.600 M121.000 208.400 C 120.850 208.873,120.817 209.350,120.927 209.460 C 121.037 209.570,121.250 209.273,121.400 208.800 C 121.550 208.327,121.583 207.850,121.473 207.740 C 121.363 207.630,121.150 207.927,121.000 208.400 M111.212 209.600 C 111.212 209.930,111.387 210.470,111.600 210.800 C 111.945 211.333,111.988 211.333,111.988 210.800 C 111.988 210.470,111.813 209.930,111.600 209.600 C 111.255 209.067,111.212 209.067,111.212 209.600 M208.106 212.700 C 205.628 216.598,205.512 216.800,205.741 216.800 C 205.844 216.800,206.693 215.585,207.627 214.100 C 208.561 212.615,209.588 210.995,209.909 210.500 C 210.230 210.005,210.399 209.600,210.285 209.600 C 210.170 209.600,209.190 210.995,208.106 212.700 M120.200 210.800 C 120.050 211.273,120.017 211.750,120.127 211.860 C 120.237 211.970,120.450 211.673,120.600 211.200 C 120.750 210.727,120.783 210.250,120.673 210.140 C 120.563 210.030,120.350 210.327,120.200 210.800 M112.031 212.100 C 112.080 212.897,113.535 216.656,113.569 216.075 C 113.586 215.786,113.309 214.661,112.954 213.575 C 112.326 211.654,111.968 211.083,112.031 212.100 M119.400 213.200 C 119.250 213.673,119.217 214.150,119.327 214.260 C 119.437 214.370,119.650 214.073,119.800 213.600 C 119.950 213.127,119.983 212.650,119.873 212.540 C 119.763 212.430,119.550 212.727,119.400 213.200 M138.246 214.246 C 137.410 216.701,137.675 216.966,138.585 214.585 C 138.970 213.576,139.196 212.663,139.087 212.554 C 138.979 212.445,138.600 213.207,138.246 214.246 M93.662 214.400 C 93.661 214.730,94.006 215.720,94.429 216.600 C 94.852 217.480,95.086 217.750,94.950 217.200 C 94.575 215.695,93.666 213.716,93.662 214.400 M291.200 214.320 C 291.200 214.496,291.425 214.865,291.700 215.139 C 292.072 215.511,292.251 219.132,292.400 229.319 L 292.600 243.000 302.200 243.011 L 311.800 243.021 302.300 242.904 L 292.800 242.786 292.800 229.573 C 292.800 218.512,292.701 216.168,292.190 215.180 C 291.592 214.024,291.200 213.683,291.200 214.320 M118.600 215.600 C 118.450 216.073,118.417 216.550,118.527 216.660 C 118.637 216.770,118.850 216.473,119.000 216.000 C 119.150 215.527,119.183 215.050,119.073 214.940 C 118.963 214.830,118.750 215.127,118.600 215.600 M117.800 218.000 C 117.650 218.473,117.617 218.950,117.727 219.060 C 117.837 219.170,118.050 218.873,118.200 218.400 C 118.350 217.927,118.383 217.450,118.273 217.340 C 118.163 217.230,117.950 217.527,117.800 218.000 M203.524 219.900 C 201.552 222.870,200.677 224.400,200.950 224.400 C 201.048 224.400,201.893 223.185,202.827 221.700 C 203.761 220.215,204.788 218.595,205.109 218.100 C 205.430 217.605,205.608 217.200,205.505 217.200 C 205.402 217.200,204.510 218.415,203.524 219.900 M224.048 220.400 C 222.941 222.370,223.211 222.523,224.400 220.600 C 225.604 218.652,225.390 218.459,230.400 226.000 C 232.885 229.740,234.992 232.800,235.082 232.800 C 235.313 232.800,235.175 232.584,230.321 225.300 C 225.601 218.219,225.374 218.041,224.048 220.400 M116.964 220.653 C 116.568 222.306,116.396 222.495,115.764 221.970 C 115.454 221.713,115.200 221.668,115.200 221.871 C 115.200 222.292,116.031 223.200,116.417 223.200 C 116.760 223.200,117.712 219.979,117.447 219.714 C 117.333 219.599,117.115 220.022,116.964 220.653 M96.062 221.200 C 96.061 221.530,96.406 222.520,96.829 223.400 C 97.252 224.280,97.486 224.550,97.350 224.000 C 96.975 222.495,96.066 220.516,96.062 221.200 M222.186 223.700 L 221.552 225.000 222.367 224.000 C 223.152 223.037,223.408 222.400,223.010 222.400 C 222.906 222.400,222.535 222.985,222.186 223.700 M134.600 224.400 C 134.450 224.873,134.417 225.350,134.527 225.460 C 134.637 225.570,134.850 225.273,135.000 224.800 C 135.150 224.327,135.183 223.850,135.073 223.740 C 134.963 223.630,134.750 223.927,134.600 224.400 M199.122 226.900 C 197.518 229.319,196.694 230.800,196.950 230.800 C 197.095 230.800,199.243 227.520,200.552 225.300 C 201.373 223.908,200.335 225.070,199.122 226.900 M97.612 225.600 C 97.612 225.930,97.787 226.470,98.000 226.800 C 98.345 227.333,98.388 227.333,98.388 226.800 C 98.388 226.470,98.213 225.930,98.000 225.600 C 97.655 225.067,97.612 225.067,97.612 225.600 M220.752 226.100 C 220.490 226.595,220.015 227.450,219.696 228.000 C 219.139 228.959,219.143 228.967,219.788 228.200 C 220.586 227.252,221.705 225.200,221.424 225.200 C 221.316 225.200,221.014 225.605,220.752 226.100 M218.186 230.500 L 217.552 231.800 218.367 230.800 C 219.152 229.837,219.408 229.200,219.010 229.200 C 218.906 229.200,218.535 229.785,218.186 230.500 M131.846 232.246 C 131.010 234.701,131.275 234.966,132.185 232.585 C 132.570 231.576,132.796 230.663,132.687 230.554 C 132.579 230.445,132.200 231.207,131.846 232.246 M194.724 233.900 C 192.772 236.840,191.876 238.400,192.141 238.400 C 192.234 238.400,193.017 237.275,193.879 235.900 C 194.742 234.525,195.773 232.905,196.170 232.300 C 196.567 231.695,196.808 231.200,196.705 231.200 C 196.602 231.200,195.710 232.415,194.724 233.900 M100.062 232.400 C 100.061 232.730,100.406 233.720,100.829 234.600 C 101.252 235.480,101.486 235.750,101.350 235.200 C 100.975 233.695,100.066 231.716,100.062 232.400 M215.578 234.869 C 214.647 236.481,213.810 237.935,213.719 238.100 C 213.628 238.265,213.638 238.400,213.743 238.400 C 214.044 238.400,217.631 232.298,217.442 232.108 C 217.348 232.015,216.510 233.257,215.578 234.869 M129.446 239.046 C 128.610 241.501,128.875 241.766,129.785 239.385 C 130.170 238.376,130.396 237.463,130.287 237.354 C 130.179 237.245,129.800 238.007,129.446 239.046 M102.412 239.200 C 102.412 239.530,102.587 240.070,102.800 240.400 C 103.145 240.933,103.188 240.933,103.188 240.400 C 103.188 240.070,103.013 239.530,102.800 239.200 C 102.455 238.667,102.412 238.667,102.412 239.200 M212.139 240.772 L 211.000 242.799 200.267 242.800 L 189.535 242.800 190.400 241.400 C 190.876 240.630,191.175 240.000,191.065 240.000 C 190.831 240.000,189.200 242.577,189.200 242.947 C 189.200 243.086,194.123 243.200,200.140 243.200 L 211.080 243.200 212.356 241.149 C 213.057 240.020,213.551 239.018,213.454 238.921 C 213.357 238.824,212.765 239.657,212.139 240.772 M103.227 241.424 C 103.116 243.159,103.579 243.218,116.395 243.106 C 127.725 243.008,128.594 242.950,128.654 242.292 C 128.699 241.797,128.662 241.767,128.530 242.192 C 128.367 242.718,126.716 242.800,116.232 242.800 L 104.122 242.800 103.688 241.900 C 103.449 241.405,103.242 241.191,103.227 241.424 M263.445 242.173 C 263.653 242.715,262.365 242.801,252.540 242.900 L 241.400 243.013 252.700 243.107 C 263.977 243.200,265.559 243.011,263.605 241.803 C 263.379 241.663,263.310 241.822,263.445 242.173 " stroke="none" fill="#7c848c" fill-rule="evenodd"></path><path id="path4" d="M75.467 162.667 C 75.320 162.813,75.200 163.208,75.200 163.543 C 75.200 164.050,75.284 164.038,75.700 163.469 C 76.152 162.851,77.153 162.796,86.188 162.893 L 96.177 163.000 96.683 164.000 C 97.029 164.685,97.190 164.788,97.194 164.329 C 97.210 162.515,96.534 162.400,85.838 162.400 C 80.280 162.400,75.613 162.520,75.467 162.667 M139.800 162.680 C 148.780 162.965,156.709 162.974,156.539 162.700 C 156.437 162.535,151.818 162.437,146.276 162.483 C 140.734 162.529,137.820 162.617,139.800 162.680 M161.467 162.667 C 161.320 162.813,161.203 163.128,161.206 163.367 C 161.210 163.619,161.347 163.588,161.534 163.293 C 161.783 162.901,164.037 162.810,171.428 162.893 L 181.000 163.000 181.203 203.200 L 181.406 243.400 181.503 203.380 C 181.577 172.678,181.488 163.248,181.120 162.880 C 180.600 162.360,161.975 162.158,161.467 162.667 M188.538 163.017 C 188.408 163.357,188.413 163.747,188.551 163.884 C 188.688 164.021,188.800 163.836,188.800 163.473 C 188.800 162.878,189.895 162.802,199.900 162.700 L 211.000 162.587 199.887 162.493 C 190.184 162.412,188.745 162.478,188.538 163.017 M241.337 162.703 C 241.082 162.866,245.897 162.947,252.037 162.882 C 263.737 162.759,263.639 162.744,262.778 164.526 C 262.366 165.380,262.370 165.382,262.989 164.608 C 264.534 162.677,264.188 162.607,252.595 162.503 C 246.658 162.449,241.592 162.539,241.337 162.703 M265.061 162.700 C 264.959 162.865,269.808 162.949,275.836 162.888 L 286.797 162.775 287.597 164.088 C 288.037 164.809,288.398 165.199,288.399 164.954 C 288.399 164.709,288.027 164.034,287.571 163.454 L 286.742 162.400 275.995 162.400 C 270.084 162.400,265.164 162.535,265.061 162.700 M317.711 162.900 C 316.956 163.876,316.743 164.585,317.472 163.693 C 318.213 162.787,318.222 162.786,328.807 162.893 L 339.400 163.000 339.305 164.000 C 339.221 164.882,339.261 164.914,339.639 164.276 C 340.706 162.471,340.296 162.400,328.862 162.400 C 320.724 162.400,318.004 162.522,317.711 162.900 M265.600 165.600 C 266.049 166.480,266.506 167.200,266.616 167.200 C 266.726 167.200,266.449 166.480,266.000 165.600 C 265.551 164.720,265.094 164.000,264.984 164.000 C 264.874 164.000,265.151 164.720,265.600 165.600 M316.065 165.817 C 315.395 167.288,315.523 167.602,316.247 166.265 C 316.586 165.640,316.788 165.054,316.696 164.963 C 316.605 164.871,316.321 165.256,316.065 165.817 M261.446 166.600 C 261.091 167.150,260.509 168.095,260.153 168.700 L 259.505 169.800 260.310 168.826 C 261.260 167.676,262.521 165.600,262.269 165.600 C 262.171 165.600,261.801 166.050,261.446 166.600 M289.628 168.200 C 289.628 168.420,289.886 169.050,290.200 169.600 C 290.514 170.150,290.772 170.420,290.772 170.200 C 290.772 169.980,290.514 169.350,290.200 168.800 C 289.886 168.250,289.628 167.980,289.628 168.200 M237.353 168.900 C 235.976 171.236,235.886 171.435,236.587 170.600 C 237.400 169.632,238.100 168.400,237.838 168.400 C 237.733 168.400,237.515 168.625,237.353 168.900 M336.400 170.000 C 335.951 170.880,335.674 171.600,335.784 171.600 C 335.894 171.600,336.351 170.880,336.800 170.000 C 337.249 169.120,337.526 168.400,337.416 168.400 C 337.306 168.400,336.849 169.120,336.400 170.000 M154.091 170.900 C 153.410 172.784,153.504 173.294,154.226 171.630 C 154.553 170.877,154.766 170.099,154.701 169.902 C 154.635 169.705,154.360 170.154,154.091 170.900 M313.665 171.017 C 312.995 172.488,313.123 172.802,313.847 171.465 C 314.186 170.840,314.388 170.254,314.296 170.163 C 314.205 170.071,313.921 170.456,313.665 171.017 M292.028 173.400 C 292.028 173.620,292.286 174.250,292.600 174.800 C 292.914 175.350,293.172 175.620,293.172 175.400 C 293.172 175.180,292.914 174.550,292.600 174.000 C 292.286 173.450,292.028 173.180,292.028 173.400 M256.153 174.900 C 254.776 177.236,254.686 177.435,255.387 176.600 C 256.200 175.632,256.900 174.400,256.638 174.400 C 256.533 174.400,256.315 174.625,256.153 174.900 M271.600 177.200 C 272.266 178.520,272.902 179.600,273.012 179.600 C 273.122 179.600,272.666 178.520,272.000 177.200 C 271.334 175.880,270.698 174.800,270.588 174.800 C 270.478 174.800,270.934 175.880,271.600 177.200 M311.265 176.217 C 310.595 177.688,310.723 178.002,311.447 176.665 C 311.786 176.040,311.988 175.454,311.896 175.363 C 311.805 175.271,311.521 175.656,311.265 176.217 M231.753 178.500 C 230.376 180.836,230.286 181.035,230.987 180.200 C 231.800 179.232,232.500 178.000,232.238 178.000 C 232.133 178.000,231.915 178.225,231.753 178.500 M251.846 181.800 C 251.491 182.350,250.909 183.295,250.553 183.900 L 249.905 185.000 250.710 184.026 C 251.660 182.876,252.921 180.800,252.669 180.800 C 252.571 180.800,252.201 181.250,251.846 181.800 M330.000 182.400 C 329.551 183.280,329.274 184.000,329.384 184.000 C 329.494 184.000,329.951 183.280,330.400 182.400 C 330.849 181.520,331.126 180.800,331.016 180.800 C 330.906 180.800,330.449 181.520,330.000 182.400 M227.736 185.423 C 227.604 185.766,227.241 185.948,226.928 185.828 C 226.612 185.707,226.467 185.786,226.603 186.005 C 226.988 186.628,227.535 186.470,228.000 185.600 C 228.235 185.160,228.326 184.800,228.202 184.800 C 228.077 184.800,227.867 185.080,227.736 185.423 M247.846 188.200 C 247.491 188.750,246.909 189.695,246.553 190.300 L 245.905 191.400 246.710 190.426 C 247.660 189.276,248.921 187.200,248.669 187.200 C 248.571 187.200,248.201 187.650,247.846 188.200 M126.840 189.440 C 126.610 190.273,126.494 191.027,126.582 191.115 C 126.670 191.203,126.930 190.593,127.160 189.760 C 127.390 188.927,127.506 188.173,127.418 188.085 C 127.330 187.997,127.070 188.607,126.840 189.440 M304.865 190.217 C 304.195 191.688,304.323 192.002,305.047 190.665 C 305.386 190.040,305.588 189.454,305.496 189.363 C 305.405 189.271,305.121 189.656,304.865 190.217 M324.000 194.000 C 323.334 195.320,322.878 196.400,322.988 196.400 C 323.098 196.400,323.734 195.320,324.400 194.000 C 325.066 192.680,325.522 191.600,325.412 191.600 C 325.302 191.600,324.666 192.680,324.000 194.000 M106.248 193.000 C 106.391 193.660,106.666 194.470,106.859 194.800 C 107.084 195.184,107.118 194.968,106.952 194.200 C 106.809 193.540,106.534 192.730,106.341 192.400 C 106.116 192.016,106.082 192.232,106.248 193.000 M301.600 194.275 C 301.600 194.998,302.686 195.708,303.004 195.193 C 303.156 194.947,303.172 194.639,303.040 194.507 C 302.908 194.375,302.794 194.522,302.787 194.833 C 302.778 195.232,302.600 195.170,302.187 194.624 C 301.864 194.196,301.600 194.039,301.600 194.275 M242.553 196.500 C 241.176 198.836,241.086 199.035,241.787 198.200 C 242.600 197.232,243.300 196.000,243.038 196.000 C 242.933 196.000,242.715 196.225,242.553 196.500 M284.000 201.200 C 284.449 202.080,284.906 202.800,285.016 202.800 C 285.126 202.800,284.849 202.080,284.400 201.200 C 283.951 200.320,283.494 199.600,283.384 199.600 C 283.274 199.600,283.551 200.320,284.000 201.200 M142.891 202.500 C 142.210 204.384,142.304 204.894,143.026 203.230 C 143.353 202.477,143.566 201.699,143.501 201.502 C 143.435 201.305,143.160 201.754,142.891 202.500 M238.667 202.667 C 238.210 203.124,238.386 203.762,239.256 204.800 L 240.095 205.800 239.417 204.668 C 239.044 204.045,238.837 203.280,238.957 202.968 C 239.193 202.353,239.088 202.245,238.667 202.667 M89.216 203.054 C 89.207 203.304,89.463 204.114,89.784 204.854 C 90.106 205.594,90.376 205.996,90.384 205.746 C 90.393 205.496,90.137 204.686,89.816 203.946 C 89.494 203.206,89.224 202.804,89.216 203.054 M211.446 206.600 C 211.091 207.150,210.509 208.095,210.153 208.700 L 209.505 209.800 210.310 208.826 C 211.260 207.676,212.521 205.600,212.269 205.600 C 212.171 205.600,211.801 206.050,211.446 206.600 M206.953 213.700 C 205.576 216.036,205.486 216.235,206.187 215.400 C 207.000 214.432,207.700 213.200,207.438 213.200 C 207.333 213.200,207.115 213.425,206.953 213.700 M291.903 225.937 C 291.960 231.582,292.057 237.820,292.120 239.800 C 292.183 241.780,292.269 237.370,292.311 230.000 C 292.353 222.630,292.256 216.392,292.094 216.137 C 291.932 215.882,291.846 220.292,291.903 225.937 M224.634 220.257 C 224.426 220.798,224.486 220.827,224.973 220.422 C 225.299 220.152,225.781 220.064,226.044 220.227 C 226.348 220.415,226.419 220.354,226.238 220.062 C 225.822 219.388,224.925 219.497,224.634 220.257 M201.846 221.800 C 201.491 222.350,200.909 223.295,200.553 223.900 L 199.905 225.000 200.710 224.026 C 201.660 222.876,202.921 220.800,202.669 220.800 C 202.571 220.800,202.201 221.250,201.846 221.800 M221.508 225.700 C 220.633 227.049,219.848 228.656,220.287 228.200 C 220.848 227.617,222.498 224.800,222.279 224.800 C 222.176 224.800,221.829 225.205,221.508 225.700 M197.353 228.900 C 195.976 231.236,195.886 231.435,196.587 230.600 C 197.400 229.632,198.100 228.400,197.838 228.400 C 197.733 228.400,197.515 228.625,197.353 228.900 M131.691 234.100 C 131.010 235.984,131.104 236.494,131.826 234.830 C 132.153 234.077,132.366 233.299,132.301 233.102 C 132.235 232.905,131.960 233.354,131.691 234.100 M216.153 234.900 C 214.776 237.236,214.686 237.435,215.387 236.600 C 216.200 235.632,216.900 234.400,216.638 234.400 C 216.533 234.400,216.315 234.625,216.153 234.900 M193.046 235.800 C 192.691 236.350,192.109 237.295,191.753 237.900 L 191.105 239.000 191.910 238.026 C 192.860 236.876,194.121 234.800,193.869 234.800 C 193.771 234.800,193.401 235.250,193.046 235.800 M211.837 242.200 L 211.182 243.200 200.224 243.200 C 193.140 243.200,189.195 243.055,189.063 242.790 C 188.952 242.565,188.906 242.610,188.963 242.890 C 189.043 243.285,191.524 243.424,199.984 243.507 C 211.303 243.617,211.551 243.586,212.436 241.933 C 213.013 240.855,212.596 241.041,211.837 242.200 M241.149 242.900 C 241.652 243.541,242.643 243.592,252.949 243.507 L 264.200 243.413 253.033 243.300 C 244.936 243.218,241.692 243.051,241.233 242.694 C 240.674 242.258,240.664 242.282,241.149 242.900 M161.547 243.307 C 161.716 243.476,166.162 243.566,171.427 243.507 L 181.000 243.399 171.119 243.199 C 165.685 243.090,161.377 243.138,161.547 243.307 M302.400 243.200 L 292.600 243.421 302.276 243.511 C 308.394 243.567,312.044 243.453,312.200 243.200 C 312.336 242.980,312.392 242.840,312.324 242.889 C 312.256 242.938,307.790 243.078,302.400 243.200 M110.125 243.499 C 113.604 243.566,119.184 243.566,122.525 243.499 C 125.866 243.432,123.020 243.378,116.200 243.378 C 109.380 243.378,106.646 243.433,110.125 243.499 " stroke="none" fill="#bcbcc4" fill-rule="evenodd"></path></g></svg>