<svg width="28" height="28" viewBox="0 0 28 28" fill="none" xmlns="http://www.w3.org/2000/svg">
<path d="M14 28C21.732 28 28 21.732 28 14C28 6.26801 21.732 0 14 0C6.26801 0 0 6.26801 0 14C0 21.732 6.26801 28 14 28Z" fill="#D9DFE5"/>
<path d="M18.2186 7.71556L15.2974 12.0556C15.0955 12.3511 15.4839 12.7089 15.7636 12.46L18.6382 9.95556C18.7159 9.89333 18.8246 9.94 18.8246 10.0489V17.8733C18.8246 17.9822 18.6848 18.0289 18.6226 17.9511L9.9212 7.52889C9.64151 7.18667 9.23751 7 8.7869 7H8.47614C7.66815 7 7 7.66889 7 8.49333V19.5067C7 20.3311 7.66815 21 8.49168 21C9.00444 21 9.48613 20.7356 9.76582 20.2844L12.687 15.9444C12.889 15.6489 12.5006 15.2911 12.2209 15.54L9.34628 18.0289C9.26859 18.0911 9.15982 18.0444 9.15982 17.9356V10.1267C9.15982 10.0178 9.29967 9.97111 9.36182 10.0489L18.0633 20.4711C18.343 20.8133 18.7625 21 19.1976 21H19.5083C20.3319 21 21 20.3311 21 19.5067V8.49333C21 7.66889 20.3319 7 19.5083 7C18.98 7 18.4983 7.26444 18.2186 7.71556Z" fill="black"/>
</svg>
