<svg id="svg" version="1.1" xmlns="http://www.w3.org/2000/svg" xmlns:xlink="http://www.w3.org/1999/xlink" width="400" height="400" viewBox="0, 0, 400,400"><g id="svgg"><path id="path0" d="M176.600 73.200 C 176.464 73.420,176.022 73.600,175.618 73.600 C 174.765 73.600,172.400 75.552,172.400 76.256 C 172.400 76.518,172.256 76.793,172.079 76.867 C 171.903 76.940,170.247 80.060,168.400 83.800 C 166.553 87.540,164.897 90.660,164.721 90.733 C 164.544 90.807,164.400 91.064,164.400 91.306 C 164.400 91.912,153.895 112.968,153.510 113.133 C 153.340 113.207,153.200 113.469,153.200 113.716 C 153.200 114.328,141.499 137.766,141.110 137.933 C 140.939 138.007,140.800 138.305,140.800 138.596 C 140.800 139.245,138.725 143.348,138.304 143.533 C 138.137 143.607,138.000 143.877,138.000 144.134 C 138.000 144.390,136.269 148.020,134.153 152.200 C 129.356 161.676,127.712 164.964,120.653 179.200 C 117.544 185.470,114.865 190.660,114.700 190.733 C 114.535 190.807,114.400 191.053,114.400 191.282 C 114.400 191.621,105.193 210.281,103.677 213.016 C 103.438 213.447,100.823 218.660,97.865 224.600 C 87.074 246.275,80.430 259.411,80.020 259.883 C 79.789 260.149,79.600 260.539,79.600 260.750 C 79.600 261.339,77.518 265.382,77.137 265.533 C 76.951 265.607,76.800 265.896,76.800 266.175 C 76.800 266.455,76.081 268.105,75.202 269.842 C 74.323 271.579,73.603 273.279,73.602 273.620 C 73.601 273.961,73.426 274.414,73.213 274.627 C 71.850 275.990,73.505 280.776,75.867 282.302 L 77.262 283.205 178.558 283.102 L 279.853 283.000 281.627 281.313 L 283.400 279.625 283.400 276.713 L 283.400 273.800 268.443 243.888 C 260.216 227.437,253.331 213.881,253.143 213.765 C 252.954 213.648,252.800 213.231,252.800 212.838 C 252.800 212.444,252.440 211.707,252.000 211.200 C 251.560 210.693,251.200 209.967,251.200 209.588 C 251.200 209.208,250.930 208.674,250.600 208.400 C 250.270 208.126,250.000 207.586,250.000 207.200 C 250.000 206.814,249.742 206.283,249.426 206.021 C 249.110 205.759,248.738 205.030,248.600 204.400 C 248.462 203.770,248.090 203.041,247.774 202.779 C 247.458 202.517,247.200 201.977,247.200 201.580 C 247.200 201.182,246.939 200.596,246.620 200.277 C 246.301 199.958,245.923 199.232,245.781 198.665 C 245.638 198.097,245.269 197.423,244.961 197.167 C 244.652 196.911,244.396 196.409,244.391 196.051 C 244.386 195.693,244.030 194.950,243.600 194.400 C 243.170 193.850,242.814 193.107,242.809 192.749 C 242.804 192.391,242.530 191.874,242.200 191.600 C 241.870 191.326,241.600 190.837,241.600 190.514 C 241.600 190.191,241.240 189.469,240.800 188.909 C 240.360 188.350,240.000 187.578,240.000 187.195 C 240.000 186.812,239.730 186.274,239.400 186.000 C 239.070 185.726,238.800 185.186,238.800 184.800 C 238.800 184.414,238.542 183.883,238.226 183.621 C 237.910 183.359,237.538 182.630,237.400 182.000 C 237.262 181.370,236.890 180.641,236.574 180.379 C 236.258 180.117,236.000 179.586,236.000 179.200 C 236.000 178.814,235.748 178.289,235.439 178.033 C 235.131 177.777,234.762 177.103,234.619 176.535 C 234.477 175.968,234.099 175.242,233.780 174.923 C 233.461 174.604,233.200 174.018,233.200 173.620 C 233.200 173.223,232.948 172.689,232.639 172.433 C 232.331 172.177,231.962 171.503,231.819 170.935 C 231.677 170.368,231.299 169.642,230.980 169.323 C 230.661 169.004,230.400 168.418,230.400 168.020 C 230.400 167.623,230.148 167.089,229.839 166.833 C 229.531 166.577,229.162 165.903,229.019 165.335 C 228.877 164.768,228.499 164.042,228.180 163.723 C 227.861 163.404,227.600 162.818,227.600 162.420 C 227.600 162.023,227.330 161.474,227.000 161.200 C 226.670 160.926,226.400 160.377,226.400 159.980 C 226.400 159.582,226.139 158.996,225.820 158.677 C 225.501 158.358,225.123 157.632,224.981 157.065 C 224.838 156.497,224.469 155.823,224.161 155.567 C 223.852 155.311,223.600 154.777,223.600 154.380 C 223.600 153.982,223.339 153.396,223.020 153.077 C 222.701 152.758,222.323 152.032,222.181 151.465 C 222.038 150.897,221.669 150.223,221.361 149.967 C 221.052 149.711,220.800 149.177,220.800 148.780 C 220.800 148.382,220.539 147.796,220.220 147.477 C 219.901 147.158,219.523 146.432,219.381 145.865 C 219.238 145.297,218.869 144.623,218.561 144.367 C 218.252 144.111,218.000 143.637,218.000 143.314 C 218.000 142.991,217.640 142.269,217.200 141.709 C 216.760 141.150,216.400 140.378,216.400 139.995 C 216.400 139.612,216.130 139.074,215.800 138.800 C 215.470 138.526,215.200 137.975,215.200 137.575 C 215.200 137.175,215.046 136.752,214.858 136.636 C 214.670 136.519,212.314 132.054,209.623 126.712 C 206.932 121.370,204.030 115.740,203.175 114.200 C 202.319 112.660,201.508 111.130,201.371 110.800 C 200.547 108.812,197.758 103.378,197.504 103.267 C 197.337 103.193,197.200 102.965,197.200 102.759 C 197.200 102.439,191.398 90.510,190.411 88.800 C 190.220 88.470,189.319 86.670,188.409 84.800 C 187.499 82.930,186.599 81.130,186.409 80.800 C 186.219 80.470,185.683 79.418,185.218 78.462 C 183.245 74.403,177.880 71.128,176.600 73.200 M180.916 100.702 C 181.969 102.846,182.990 104.870,183.183 105.200 C 183.377 105.530,184.307 107.420,185.249 109.400 C 186.192 111.380,187.106 113.060,187.282 113.133 C 187.457 113.207,187.600 113.454,187.600 113.683 C 187.600 114.022,193.180 125.436,194.404 127.600 C 194.591 127.930,195.136 129.100,195.615 130.200 C 196.924 133.204,255.022 249.426,256.602 252.200 C 257.353 253.520,258.081 254.870,258.219 255.200 C 258.556 256.003,260.362 259.647,260.797 260.400 C 260.987 260.730,261.544 261.900,262.033 263.000 C 262.523 264.100,263.143 265.270,263.411 265.600 C 264.459 266.890,264.522 269.155,263.516 269.398 C 263.012 269.519,224.170 269.569,177.200 269.509 L 91.800 269.400 91.669 268.478 C 91.597 267.971,91.770 267.277,92.054 266.935 C 92.698 266.159,93.435 264.898,94.004 263.600 C 94.562 262.324,95.931 259.580,96.399 258.800 C 96.596 258.470,97.590 256.490,98.607 254.400 C 99.624 252.310,100.612 250.330,100.803 250.000 C 100.994 249.670,101.622 248.410,102.200 247.200 C 103.403 244.682,103.693 244.112,104.338 243.000 C 104.593 242.560,104.991 241.750,105.222 241.200 C 105.697 240.068,107.062 237.303,107.591 236.400 C 107.785 236.070,108.721 234.180,109.671 232.200 C 110.622 230.220,111.535 228.540,111.700 228.467 C 111.865 228.393,112.000 228.158,112.000 227.944 C 112.000 227.615,114.931 221.510,116.005 219.600 C 116.190 219.270,116.444 218.730,116.569 218.400 C 116.693 218.070,116.976 217.530,117.198 217.200 C 117.419 216.870,117.780 216.150,117.999 215.600 C 118.219 215.050,118.579 214.285,118.799 213.900 C 119.020 213.515,119.380 212.885,119.601 212.500 C 119.821 212.115,120.191 211.350,120.422 210.800 C 120.965 209.505,122.333 206.768,122.820 206.000 C 123.029 205.670,123.380 204.950,123.599 204.400 C 123.819 203.850,124.167 203.130,124.374 202.800 C 124.581 202.470,125.222 201.210,125.800 200.000 C 126.378 198.790,127.006 197.530,127.197 197.200 C 127.387 196.870,127.644 196.330,127.769 196.000 C 127.893 195.670,128.176 195.130,128.398 194.800 C 128.619 194.470,128.980 193.750,129.199 193.200 C 129.419 192.650,129.779 191.885,129.999 191.500 C 130.220 191.115,130.580 190.485,130.801 190.100 C 131.021 189.715,131.391 188.950,131.622 188.400 C 132.115 187.224,133.485 184.457,133.999 183.600 C 134.196 183.270,135.460 180.750,136.807 178.000 C 138.155 175.250,139.396 172.730,139.566 172.400 C 139.736 172.070,140.084 171.395,140.338 170.900 C 140.592 170.405,140.967 169.685,141.171 169.300 C 141.375 168.915,141.644 168.330,141.768 168.000 C 141.893 167.670,142.176 167.085,142.397 166.700 C 142.619 166.315,142.980 165.685,143.201 165.300 C 143.421 164.915,143.791 164.150,144.022 163.600 C 144.516 162.423,145.886 159.656,146.399 158.800 C 146.596 158.470,147.590 156.490,148.607 154.400 C 149.624 152.310,150.612 150.330,150.803 150.000 C 150.994 149.670,151.622 148.410,152.200 147.200 C 153.268 144.965,153.683 144.154,154.401 142.900 C 154.621 142.515,154.991 141.750,155.222 141.200 C 155.697 140.068,157.062 137.303,157.591 136.400 C 157.785 136.070,158.721 134.180,159.671 132.200 C 160.622 130.220,161.511 128.510,161.646 128.400 C 161.781 128.290,162.028 127.750,162.193 127.200 C 162.359 126.650,162.707 125.930,162.967 125.600 C 163.227 125.270,163.872 124.010,164.400 122.800 C 164.928 121.590,165.595 120.316,165.880 119.969 C 166.166 119.621,166.400 119.058,166.400 118.717 C 166.400 118.377,166.658 117.883,166.974 117.621 C 167.290 117.359,167.662 116.630,167.800 116.000 C 167.938 115.370,168.310 114.641,168.626 114.379 C 168.942 114.117,169.200 113.600,169.200 113.231 C 169.200 112.862,169.366 112.389,169.568 112.180 C 169.897 111.842,173.132 105.532,173.763 104.000 C 173.899 103.670,174.548 102.414,175.205 101.208 C 175.862 100.002,176.400 98.846,176.400 98.639 C 176.400 98.005,177.687 96.800,178.362 96.802 C 178.770 96.804,179.689 98.207,180.916 100.702 " stroke="none" fill="#050505" fill-rule="evenodd"></path><path id="path1" d="M225.597 76.494 C 223.901 77.643,224.459 76.633,213.883 97.692 C 206.496 112.401,204.996 115.664,205.449 116.041 C 205.752 116.292,206.000 116.825,206.000 117.225 C 206.000 117.625,206.157 118.050,206.348 118.168 C 206.539 118.286,207.189 119.422,207.793 120.691 C 208.396 121.961,209.037 123.270,209.217 123.600 C 209.397 123.930,210.654 126.450,212.010 129.200 C 213.366 131.950,214.627 134.470,214.812 134.800 C 214.998 135.130,215.631 136.390,216.219 137.600 C 216.808 138.810,217.438 140.070,217.619 140.400 C 217.801 140.730,218.431 141.990,219.019 143.200 C 219.608 144.410,220.238 145.670,220.419 146.000 C 220.970 147.000,222.714 150.560,222.966 151.200 C 223.097 151.530,223.731 152.700,224.375 153.800 C 225.020 154.900,225.559 156.038,225.573 156.329 C 225.588 156.619,225.870 157.127,226.200 157.457 C 226.530 157.787,226.800 158.394,226.800 158.805 C 226.800 159.216,226.980 159.664,227.199 159.800 C 227.419 159.935,228.060 161.071,228.624 162.323 C 229.188 163.575,229.807 164.870,229.999 165.200 C 230.192 165.530,230.831 166.790,231.419 168.000 C 232.008 169.210,232.646 170.470,232.838 170.800 C 233.029 171.130,233.659 172.390,234.237 173.600 C 234.815 174.810,235.445 176.070,235.637 176.400 C 235.829 176.730,236.459 177.990,237.037 179.200 C 237.615 180.410,238.245 181.670,238.437 182.000 C 238.629 182.330,239.259 183.590,239.837 184.800 C 240.415 186.010,241.037 187.270,241.219 187.600 C 241.401 187.930,242.031 189.190,242.619 190.400 C 243.208 191.610,243.838 192.870,244.019 193.200 C 244.201 193.530,244.831 194.790,245.419 196.000 C 246.008 197.210,246.638 198.470,246.819 198.800 C 247.370 199.800,249.114 203.360,249.366 204.000 C 249.497 204.330,250.131 205.500,250.775 206.600 C 251.420 207.700,251.959 208.915,251.973 209.300 C 251.988 209.685,252.177 210.000,252.392 210.000 C 252.608 210.000,252.906 210.495,253.053 211.100 C 253.201 211.705,253.655 212.629,254.061 213.154 C 254.467 213.679,254.800 214.354,254.800 214.654 C 254.800 214.954,254.977 215.200,255.192 215.200 C 255.408 215.200,255.702 215.695,255.846 216.300 C 255.990 216.905,256.332 217.670,256.606 218.000 C 256.881 218.330,257.240 219.042,257.405 219.581 C 257.571 220.121,257.952 220.809,258.253 221.110 C 258.554 221.411,258.800 221.982,258.800 222.380 C 258.800 222.777,259.052 223.311,259.361 223.567 C 259.669 223.823,260.038 224.497,260.181 225.065 C 260.323 225.632,260.701 226.358,261.020 226.677 C 261.339 226.996,261.600 227.582,261.600 227.980 C 261.600 228.377,261.852 228.911,262.161 229.167 C 262.469 229.423,262.838 230.097,262.981 230.665 C 263.123 231.232,263.501 231.958,263.820 232.277 C 264.139 232.596,264.400 233.182,264.400 233.580 C 264.400 233.977,264.670 234.526,265.000 234.800 C 265.330 235.074,265.600 235.608,265.600 235.988 C 265.600 236.367,265.960 237.093,266.400 237.600 C 266.840 238.107,267.200 238.833,267.200 239.212 C 267.200 239.592,267.470 240.126,267.800 240.400 C 268.130 240.674,268.400 241.163,268.400 241.486 C 268.400 241.809,268.760 242.531,269.200 243.091 C 269.640 243.650,270.000 244.422,270.000 244.805 C 270.000 245.188,270.270 245.726,270.600 246.000 C 270.930 246.274,271.200 246.763,271.200 247.086 C 271.200 247.409,271.560 248.131,272.000 248.691 C 272.440 249.250,272.800 250.022,272.800 250.405 C 272.800 250.788,273.070 251.326,273.400 251.600 C 273.730 251.874,274.000 252.363,274.000 252.686 C 274.000 253.009,274.360 253.731,274.800 254.291 C 275.240 254.850,275.600 255.622,275.600 256.005 C 275.600 256.388,275.870 256.926,276.200 257.200 C 276.530 257.474,276.800 257.963,276.800 258.286 C 276.800 258.609,277.160 259.331,277.600 259.891 C 278.040 260.450,278.400 261.244,278.400 261.654 C 278.400 262.064,278.577 262.400,278.792 262.400 C 279.008 262.400,279.302 262.895,279.446 263.500 C 279.590 264.105,279.932 264.870,280.206 265.200 C 280.481 265.530,280.840 266.242,281.005 266.781 C 281.171 267.321,281.552 268.009,281.853 268.310 C 282.154 268.611,282.400 269.182,282.400 269.580 C 282.400 269.977,282.670 270.526,283.000 270.800 C 283.330 271.074,283.600 271.466,283.600 271.671 C 283.600 271.876,283.979 272.877,284.443 273.894 C 285.546 276.316,285.285 278.261,283.556 280.493 C 282.829 281.432,282.594 281.891,283.034 281.513 C 283.765 280.886,285.711 280.817,305.675 280.713 C 326.532 280.605,327.555 280.566,328.361 279.835 C 329.901 278.441,330.292 277.191,329.761 275.360 C 329.376 274.032,321.330 257.420,319.997 255.200 C 319.799 254.870,317.274 249.830,314.386 244.000 C 308.278 231.670,308.657 232.425,308.062 231.400 C 307.807 230.960,307.420 230.188,307.203 229.683 C 306.723 228.572,296.895 208.847,296.398 208.000 C 296.205 207.670,293.679 202.630,290.786 196.800 C 287.893 190.970,285.379 185.930,285.200 185.600 C 284.581 184.460,281.158 177.646,261.796 139.000 C 251.104 117.660,242.197 99.930,242.003 99.600 C 241.809 99.270,241.178 98.010,240.600 96.800 C 239.620 94.748,239.185 93.903,238.334 92.400 C 238.148 92.070,237.893 91.530,237.768 91.200 C 237.644 90.870,237.375 90.285,237.171 89.900 C 236.967 89.515,236.592 88.795,236.338 88.300 C 236.084 87.805,235.723 87.130,235.537 86.800 C 235.351 86.470,235.009 85.750,234.778 85.200 C 231.381 77.107,228.595 74.465,225.597 76.494 M195.600 133.440 C 195.600 133.876,192.425 140.526,188.544 148.217 C 184.663 155.907,169.643 185.858,155.166 214.774 C 136.169 252.719,128.588 267.490,127.923 267.860 C 126.596 268.596,93.761 268.634,93.465 267.900 C 93.346 267.604,93.250 267.690,93.232 268.108 C 93.202 268.779,94.135 268.805,110.700 268.607 C 120.325 268.491,158.350 268.307,195.200 268.197 C 268.424 267.978,263.415 268.103,262.588 266.518 C 262.267 265.903,262.004 265.190,262.002 264.933 C 262.001 264.677,261.865 264.407,261.700 264.333 C 261.535 264.260,260.155 261.717,258.634 258.683 C 257.113 255.648,255.718 253.073,255.534 252.959 C 255.350 252.846,255.200 252.425,255.200 252.025 C 255.200 251.625,254.942 251.083,254.626 250.821 C 254.310 250.559,253.938 249.830,253.800 249.200 C 253.662 248.570,253.290 247.841,252.974 247.579 C 252.658 247.317,252.400 246.786,252.400 246.400 C 252.400 246.014,252.142 245.483,251.826 245.221 C 251.510 244.959,251.138 244.230,251.000 243.600 C 250.862 242.970,250.490 242.241,250.174 241.979 C 249.858 241.717,249.600 241.186,249.600 240.800 C 249.600 240.414,249.348 239.889,249.039 239.633 C 248.731 239.377,248.362 238.703,248.219 238.135 C 248.077 237.568,247.699 236.842,247.380 236.523 C 247.061 236.204,246.800 235.525,246.800 235.014 C 246.800 234.503,246.547 233.988,246.238 233.870 C 245.928 233.751,245.557 233.114,245.412 232.455 C 245.267 231.795,244.890 231.041,244.574 230.779 C 244.258 230.517,244.000 229.893,244.000 229.394 C 244.000 228.894,243.753 228.391,243.451 228.275 C 243.150 228.159,242.781 227.578,242.632 226.984 C 242.483 226.390,242.099 225.642,241.780 225.323 C 241.461 225.004,241.200 224.325,241.200 223.814 C 241.200 223.303,240.953 222.791,240.651 222.675 C 240.350 222.559,239.981 221.978,239.832 221.384 C 239.683 220.790,239.299 220.042,238.980 219.723 C 238.661 219.404,238.400 218.725,238.400 218.214 C 238.400 217.703,238.153 217.191,237.851 217.075 C 237.550 216.959,237.181 216.378,237.032 215.784 C 236.883 215.190,236.499 214.442,236.180 214.123 C 235.861 213.804,235.600 213.218,235.600 212.820 C 235.600 212.423,235.330 211.874,235.000 211.600 C 234.670 211.326,234.400 210.792,234.400 210.412 C 234.400 210.033,234.040 209.307,233.600 208.800 C 233.160 208.293,232.800 207.567,232.800 207.188 C 232.800 206.808,232.530 206.274,232.200 206.000 C 231.870 205.726,231.600 205.177,231.600 204.780 C 231.600 204.382,231.339 203.796,231.020 203.477 C 230.701 203.158,230.323 202.432,230.181 201.865 C 230.038 201.297,229.669 200.623,229.361 200.367 C 229.052 200.111,228.800 199.586,228.800 199.200 C 228.800 198.814,228.542 198.283,228.226 198.021 C 227.910 197.759,227.538 197.030,227.400 196.400 C 227.262 195.770,226.890 195.041,226.574 194.779 C 226.258 194.517,226.000 193.986,226.000 193.600 C 226.000 193.214,225.748 192.689,225.439 192.433 C 225.131 192.177,224.762 191.503,224.619 190.935 C 224.477 190.368,224.099 189.642,223.780 189.323 C 223.461 189.004,223.200 188.325,223.200 187.814 C 223.200 187.303,222.947 186.788,222.638 186.670 C 222.328 186.551,221.957 185.914,221.812 185.255 C 221.667 184.595,221.290 183.841,220.974 183.579 C 220.658 183.317,220.400 182.693,220.400 182.194 C 220.400 181.694,220.153 181.191,219.851 181.075 C 219.550 180.959,219.181 180.378,219.032 179.784 C 218.883 179.190,218.499 178.442,218.180 178.123 C 217.861 177.804,217.600 177.125,217.600 176.614 C 217.600 176.103,217.353 175.591,217.051 175.475 C 216.750 175.359,216.381 174.778,216.232 174.184 C 216.083 173.590,215.699 172.842,215.380 172.523 C 215.061 172.204,214.800 171.525,214.800 171.014 C 214.800 170.503,214.553 169.991,214.251 169.875 C 213.950 169.759,213.581 169.178,213.432 168.584 C 213.283 167.990,212.899 167.242,212.580 166.923 C 212.261 166.604,212.000 165.925,212.000 165.414 C 212.000 164.903,211.753 164.391,211.451 164.275 C 211.150 164.159,210.781 163.578,210.632 162.984 C 210.483 162.390,210.099 161.642,209.780 161.323 C 209.461 161.004,209.200 160.418,209.200 160.020 C 209.200 159.623,208.930 159.074,208.600 158.800 C 208.270 158.526,208.000 157.992,208.000 157.612 C 208.000 157.233,207.640 156.507,207.200 156.000 C 206.760 155.493,206.400 154.767,206.400 154.388 C 206.400 154.008,206.130 153.474,205.800 153.200 C 205.470 152.926,205.200 152.386,205.200 152.000 C 205.200 151.614,204.942 151.083,204.626 150.821 C 204.310 150.559,203.938 149.830,203.800 149.200 C 203.662 148.570,203.290 147.841,202.974 147.579 C 202.658 147.317,202.400 146.786,202.400 146.400 C 202.400 146.014,202.142 145.483,201.826 145.221 C 201.510 144.959,201.138 144.230,201.000 143.600 C 200.862 142.970,200.490 142.241,200.174 141.979 C 199.858 141.717,199.600 141.186,199.600 140.800 C 199.600 140.414,199.348 139.889,199.039 139.633 C 198.731 139.377,198.362 138.703,198.219 138.135 C 198.077 137.568,197.699 136.842,197.380 136.523 C 197.061 136.204,196.794 135.551,196.787 135.071 C 196.780 134.592,196.510 133.851,196.187 133.424 C 195.607 132.657,195.600 132.657,195.600 133.440 M78.315 284.472 C 79.257 284.846,278.307 284.874,278.538 284.500 C 278.640 284.335,233.477 284.200,178.177 284.200 C 122.876 284.200,77.938 284.322,78.315 284.472 " stroke="none" fill="#8cccac" fill-rule="evenodd"></path><path id="path2" d="M175.600 0.400 C 175.600 0.644,173.733 0.800,170.800 0.800 C 166.800 0.800,166.000 0.900,166.000 1.400 C 166.000 1.891,165.311 2.000,162.203 2.000 C 158.840 2.000,158.350 2.091,157.907 2.800 C 157.488 3.472,156.974 3.600,154.704 3.600 C 152.567 3.600,152.000 3.726,152.000 4.200 C 152.000 4.673,151.440 4.800,149.363 4.800 C 147.062 4.800,146.698 4.902,146.516 5.600 C 146.334 6.295,145.970 6.400,143.753 6.400 C 141.750 6.400,141.200 6.529,141.200 7.000 C 141.200 7.544,139.502 7.855,137.730 7.637 C 137.472 7.605,137.145 7.944,137.003 8.389 C 136.796 9.044,136.403 9.200,134.960 9.200 C 133.742 9.200,133.102 9.391,132.945 9.800 C 132.789 10.206,132.152 10.400,130.971 10.400 C 129.638 10.400,129.128 10.588,128.800 11.200 C 128.498 11.764,127.962 12.000,126.986 12.000 C 126.021 12.000,125.600 12.182,125.600 12.600 C 125.600 13.045,125.132 13.200,123.787 13.200 C 122.560 13.200,121.902 13.390,121.749 13.789 C 121.624 14.113,120.916 14.492,120.175 14.631 C 119.434 14.770,118.867 15.090,118.914 15.342 C 118.961 15.594,118.405 15.857,117.677 15.927 C 116.949 15.997,116.255 16.312,116.134 16.627 C 116.013 16.942,115.406 17.200,114.784 17.200 C 114.005 17.200,113.575 17.449,113.400 18.000 C 113.222 18.560,112.795 18.800,111.973 18.800 C 111.328 18.800,110.444 19.156,110.009 19.591 C 109.555 20.045,108.949 20.278,108.585 20.139 C 108.158 19.975,107.880 20.173,107.729 20.748 C 107.568 21.364,107.193 21.600,106.373 21.600 C 105.743 21.600,105.078 21.889,104.876 22.250 C 104.676 22.608,104.014 22.900,103.406 22.900 C 102.660 22.900,102.235 23.145,102.103 23.650 C 101.960 24.197,101.540 24.400,100.553 24.400 C 99.617 24.400,99.200 24.585,99.200 25.000 C 99.200 25.373,98.822 25.600,98.200 25.600 C 97.561 25.600,97.200 25.825,97.200 26.224 C 97.200 26.567,97.020 26.736,96.800 26.600 C 96.580 26.464,96.400 26.543,96.400 26.776 C 96.400 27.009,96.130 27.200,95.800 27.200 C 95.470 27.200,95.200 27.470,95.200 27.800 C 95.200 28.219,94.778 28.400,93.800 28.400 C 92.667 28.400,92.400 28.552,92.400 29.200 C 92.400 29.824,92.133 30.000,91.187 30.000 C 90.479 30.000,89.879 30.249,89.745 30.600 C 89.618 30.930,89.264 31.200,88.957 31.200 C 88.651 31.200,88.400 31.560,88.400 32.000 C 88.400 32.648,88.133 32.800,87.000 32.800 C 86.022 32.800,85.600 32.981,85.600 33.400 C 85.600 33.733,85.244 34.000,84.800 34.000 C 84.267 34.000,84.000 34.267,84.000 34.800 C 84.000 35.244,83.733 35.600,83.400 35.600 C 83.070 35.600,82.800 35.870,82.800 36.200 C 82.800 36.619,82.378 36.800,81.400 36.800 C 80.267 36.800,80.000 36.952,80.000 37.600 C 80.000 38.133,79.733 38.400,79.200 38.400 C 78.756 38.400,78.400 38.667,78.400 39.000 C 78.400 39.330,78.130 39.600,77.800 39.600 C 77.470 39.600,77.200 39.850,77.200 40.155 C 77.200 40.474,76.602 40.823,75.800 40.974 C 74.962 41.131,74.400 41.470,74.400 41.818 C 74.400 42.143,74.028 42.400,73.557 42.400 C 72.972 42.400,72.785 42.584,72.945 43.000 C 73.101 43.408,72.923 43.600,72.387 43.600 C 71.867 43.600,71.600 43.871,71.600 44.400 C 71.600 44.947,71.333 45.200,70.757 45.200 C 70.172 45.200,69.985 45.384,70.145 45.800 C 70.299 46.203,70.127 46.400,69.620 46.400 C 68.440 46.400,67.600 46.833,67.600 47.443 C 67.600 47.749,67.240 48.000,66.800 48.000 C 66.356 48.000,66.000 48.267,66.000 48.600 C 66.000 48.930,65.730 49.200,65.400 49.200 C 65.067 49.200,64.800 49.556,64.800 50.000 C 64.800 50.716,64.384 50.987,63.500 50.847 C 63.335 50.821,63.200 51.070,63.200 51.400 C 63.200 51.730,62.930 52.000,62.600 52.000 C 62.267 52.000,62.000 52.356,62.000 52.800 C 62.000 53.333,61.733 53.600,61.200 53.600 C 60.756 53.600,60.400 53.867,60.400 54.200 C 60.400 54.530,60.130 54.800,59.800 54.800 C 59.467 54.800,59.200 55.156,59.200 55.600 C 59.200 56.133,58.933 56.400,58.400 56.400 C 57.956 56.400,57.600 56.667,57.600 57.000 C 57.600 57.330,57.330 57.600,57.000 57.600 C 56.667 57.600,56.400 57.956,56.400 58.400 C 56.400 58.933,56.133 59.200,55.600 59.200 C 55.156 59.200,54.800 59.467,54.800 59.800 C 54.800 60.130,54.530 60.400,54.200 60.400 C 53.867 60.400,53.600 60.756,53.600 61.200 C 53.600 61.733,53.333 62.000,52.800 62.000 C 52.356 62.000,52.000 62.267,52.000 62.600 C 52.000 62.930,51.730 63.200,51.400 63.200 C 51.070 63.200,50.821 63.335,50.847 63.500 C 50.987 64.384,50.716 64.800,50.000 64.800 C 49.556 64.800,49.200 65.067,49.200 65.400 C 49.200 65.730,48.930 66.000,48.600 66.000 C 48.267 66.000,48.000 66.356,48.000 66.800 C 48.000 67.240,47.749 67.600,47.443 67.600 C 46.833 67.600,46.400 68.440,46.400 69.620 C 46.400 70.127,46.203 70.299,45.800 70.145 C 45.384 69.985,45.200 70.172,45.200 70.757 C 45.200 71.333,44.947 71.600,44.400 71.600 C 43.871 71.600,43.600 71.867,43.600 72.387 C 43.600 72.923,43.408 73.101,43.000 72.945 C 42.584 72.785,42.400 72.972,42.400 73.557 C 42.400 74.028,42.143 74.400,41.818 74.400 C 41.470 74.400,41.131 74.962,40.974 75.800 C 40.823 76.602,40.474 77.200,40.155 77.200 C 39.850 77.200,39.600 77.470,39.600 77.800 C 39.600 78.130,39.330 78.400,39.000 78.400 C 38.667 78.400,38.400 78.756,38.400 79.200 C 38.400 79.733,38.133 80.000,37.600 80.000 C 36.952 80.000,36.800 80.267,36.800 81.400 C 36.800 82.378,36.619 82.800,36.200 82.800 C 35.870 82.800,35.600 83.070,35.600 83.400 C 35.600 83.733,35.244 84.000,34.800 84.000 C 34.267 84.000,34.000 84.267,34.000 84.800 C 34.000 85.244,33.733 85.600,33.400 85.600 C 32.981 85.600,32.800 86.022,32.800 87.000 C 32.800 88.133,32.648 88.400,32.000 88.400 C 31.560 88.400,31.200 88.651,31.200 88.957 C 31.200 89.264,30.930 89.618,30.600 89.745 C 30.249 89.879,30.000 90.479,30.000 91.187 C 30.000 92.133,29.824 92.400,29.200 92.400 C 28.552 92.400,28.400 92.667,28.400 93.800 C 28.400 94.778,28.219 95.200,27.800 95.200 C 27.470 95.200,27.200 95.470,27.200 95.800 C 27.200 96.130,27.009 96.400,26.776 96.400 C 26.543 96.400,26.464 96.580,26.600 96.800 C 26.736 97.020,26.567 97.200,26.224 97.200 C 25.825 97.200,25.600 97.561,25.600 98.200 C 25.600 98.822,25.373 99.200,25.000 99.200 C 24.585 99.200,24.400 99.617,24.400 100.553 C 24.400 101.540,24.197 101.960,23.650 102.103 C 23.145 102.235,22.900 102.660,22.900 103.406 C 22.900 104.014,22.608 104.676,22.250 104.876 C 21.889 105.078,21.600 105.743,21.600 106.373 C 21.600 107.193,21.364 107.568,20.748 107.729 C 20.173 107.880,19.975 108.158,20.139 108.585 C 20.278 108.949,20.045 109.555,19.591 110.009 C 19.156 110.444,18.800 111.328,18.800 111.973 C 18.800 112.795,18.560 113.222,18.000 113.400 C 17.449 113.575,17.200 114.005,17.200 114.784 C 17.200 115.406,16.942 116.013,16.627 116.134 C 16.312 116.255,15.997 116.949,15.927 117.677 C 15.857 118.405,15.594 118.961,15.342 118.914 C 15.090 118.867,14.770 119.434,14.631 120.175 C 14.492 120.916,14.113 121.624,13.789 121.749 C 13.390 121.902,13.200 122.560,13.200 123.787 C 13.200 125.132,13.045 125.600,12.600 125.600 C 12.182 125.600,12.000 126.021,12.000 126.986 C 12.000 127.962,11.764 128.498,11.200 128.800 C 10.588 129.128,10.400 129.638,10.400 130.971 C 10.400 132.152,10.206 132.789,9.800 132.945 C 9.391 133.102,9.200 133.742,9.200 134.960 C 9.200 136.403,9.044 136.796,8.389 137.003 C 7.944 137.145,7.605 137.472,7.637 137.730 C 7.855 139.502,7.544 141.200,7.000 141.200 C 6.529 141.200,6.400 141.750,6.400 143.753 C 6.400 145.970,6.295 146.334,5.600 146.516 C 4.902 146.698,4.800 147.062,4.800 149.363 C 4.800 151.440,4.673 152.000,4.200 152.000 C 3.726 152.000,3.600 152.567,3.600 154.704 C 3.600 156.974,3.472 157.488,2.800 157.907 C 2.091 158.350,2.000 158.840,2.000 162.203 C 2.000 165.311,1.891 166.000,1.400 166.000 C 0.900 166.000,0.800 166.800,0.800 170.800 C 0.800 173.733,0.644 175.600,0.400 175.600 C 0.138 175.600,0.000 184.000,0.000 200.000 C 0.000 216.000,0.138 224.400,0.400 224.400 C 0.644 224.400,0.800 226.267,0.800 229.200 C 0.800 233.200,0.900 234.000,1.400 234.000 C 1.891 234.000,2.000 234.689,2.000 237.797 C 2.000 241.160,2.091 241.650,2.800 242.093 C 3.472 242.512,3.600 243.026,3.600 245.296 C 3.600 247.433,3.726 248.000,4.200 248.000 C 4.673 248.000,4.800 248.560,4.800 250.637 C 4.800 252.938,4.902 253.302,5.600 253.484 C 6.295 253.666,6.400 254.030,6.400 256.247 C 6.400 258.250,6.529 258.800,7.000 258.800 C 7.416 258.800,7.619 259.260,7.661 260.300 C 7.694 261.125,7.740 262.068,7.762 262.395 C 7.784 262.722,8.116 263.050,8.501 263.124 C 9.042 263.228,9.200 263.662,9.200 265.042 C 9.200 266.258,9.391 266.898,9.800 267.055 C 10.206 267.211,10.400 267.848,10.400 269.029 C 10.400 270.362,10.588 270.872,11.200 271.200 C 11.764 271.502,12.000 272.038,12.000 273.014 C 12.000 273.979,12.182 274.400,12.600 274.400 C 13.045 274.400,13.200 274.868,13.200 276.213 C 13.200 277.421,13.392 278.099,13.776 278.246 C 14.092 278.367,14.469 279.004,14.613 279.660 C 14.757 280.317,15.128 280.951,15.438 281.070 C 15.768 281.197,16.000 281.846,16.000 282.643 C 16.000 283.583,16.185 284.000,16.600 284.000 C 17.004 284.000,17.200 284.404,17.200 285.237 C 17.200 286.138,17.417 286.532,18.000 286.684 C 18.567 286.832,18.800 287.230,18.800 288.047 C 18.800 288.681,19.156 289.556,19.591 289.991 C 20.045 290.445,20.278 291.051,20.139 291.415 C 19.975 291.842,20.173 292.120,20.748 292.271 C 21.364 292.432,21.600 292.807,21.600 293.627 C 21.600 294.250,21.878 294.916,22.218 295.106 C 22.558 295.297,22.877 295.981,22.927 296.626 C 22.983 297.355,23.241 297.800,23.609 297.800 C 24.003 297.800,24.241 298.299,24.324 299.300 C 24.405 300.281,24.647 300.800,25.024 300.800 C 25.357 300.800,25.600 301.185,25.600 301.712 C 25.600 302.213,25.960 302.883,26.400 303.200 C 26.840 303.517,27.200 304.007,27.200 304.288 C 27.200 304.570,27.470 304.800,27.800 304.800 C 28.219 304.800,28.400 305.222,28.400 306.200 C 28.400 307.333,28.552 307.600,29.200 307.600 C 29.824 307.600,30.000 307.867,30.000 308.813 C 30.000 309.521,30.249 310.121,30.600 310.255 C 30.930 310.382,31.200 310.753,31.200 311.080 C 31.200 311.407,31.560 311.769,32.000 311.884 C 32.567 312.032,32.800 312.430,32.800 313.247 C 32.800 314.005,33.005 314.400,33.400 314.400 C 33.733 314.400,34.000 314.756,34.000 315.200 C 34.000 315.733,34.267 316.000,34.800 316.000 C 35.244 316.000,35.600 316.267,35.600 316.600 C 35.600 316.930,35.870 317.200,36.200 317.200 C 36.619 317.200,36.800 317.622,36.800 318.600 C 36.800 319.733,36.952 320.000,37.600 320.000 C 38.133 320.000,38.400 320.267,38.400 320.800 C 38.400 321.244,38.667 321.600,39.000 321.600 C 39.330 321.600,39.600 321.870,39.600 322.200 C 39.600 322.530,39.850 322.800,40.155 322.800 C 40.474 322.800,40.823 323.398,40.974 324.200 C 41.131 325.038,41.470 325.600,41.818 325.600 C 42.143 325.600,42.400 325.972,42.400 326.443 C 42.400 327.028,42.584 327.215,43.000 327.055 C 43.408 326.899,43.600 327.077,43.600 327.613 C 43.600 328.133,43.871 328.400,44.400 328.400 C 44.947 328.400,45.200 328.667,45.200 329.243 C 45.200 329.828,45.384 330.015,45.800 329.855 C 46.203 329.701,46.400 329.873,46.400 330.380 C 46.400 331.560,46.833 332.400,47.443 332.400 C 47.749 332.400,48.000 332.760,48.000 333.200 C 48.000 333.644,48.267 334.000,48.600 334.000 C 48.930 334.000,49.200 334.270,49.200 334.600 C 49.200 334.930,49.354 335.200,49.542 335.200 C 50.045 335.200,52.000 337.093,52.000 337.581 C 52.000 337.811,52.360 338.000,52.800 338.000 C 53.333 338.000,53.600 338.267,53.600 338.800 C 53.600 339.244,53.867 339.600,54.200 339.600 C 54.530 339.600,54.800 339.870,54.800 340.200 C 54.800 340.533,55.156 340.800,55.600 340.800 C 56.133 340.800,56.400 341.067,56.400 341.600 C 56.400 342.044,56.667 342.400,57.000 342.400 C 57.330 342.400,57.600 342.670,57.600 343.000 C 57.600 343.333,57.956 343.600,58.400 343.600 C 58.941 343.600,59.200 343.867,59.200 344.424 C 59.200 344.905,59.377 345.138,59.627 344.983 C 59.862 344.838,60.153 345.097,60.274 345.560 C 60.399 346.038,60.818 346.400,61.247 346.400 C 61.733 346.400,62.000 346.683,62.000 347.200 C 62.000 347.644,62.267 348.000,62.600 348.000 C 62.930 348.000,63.200 348.270,63.200 348.600 C 63.200 348.933,63.556 349.200,64.000 349.200 C 64.533 349.200,64.800 349.467,64.800 350.000 C 64.800 350.444,65.067 350.800,65.400 350.800 C 65.730 350.800,66.000 351.089,66.000 351.443 C 66.000 351.857,66.219 352.002,66.615 351.850 C 66.988 351.707,67.331 351.887,67.486 352.307 C 67.821 353.215,68.399 353.586,69.487 353.594 C 70.111 353.598,70.306 353.779,70.145 354.200 C 69.985 354.616,70.172 354.800,70.757 354.800 C 71.333 354.800,71.600 355.053,71.600 355.600 C 71.600 356.129,71.867 356.400,72.387 356.400 C 72.923 356.400,73.101 356.592,72.945 357.000 C 72.785 357.416,72.972 357.600,73.557 357.600 C 74.040 357.600,74.400 357.857,74.400 358.200 C 74.400 358.530,74.625 358.827,74.900 358.861 C 75.175 358.894,75.580 358.964,75.800 359.015 C 76.020 359.066,76.425 359.128,76.700 359.154 C 76.975 359.179,77.200 359.470,77.200 359.800 C 77.200 360.130,77.470 360.400,77.800 360.400 C 78.130 360.400,78.400 360.687,78.400 361.037 C 78.400 361.388,78.760 361.769,79.200 361.884 C 79.640 361.999,80.000 362.342,80.000 362.647 C 80.000 363.012,80.475 363.200,81.400 363.200 C 82.378 363.200,82.800 363.381,82.800 363.800 C 82.800 364.130,83.070 364.400,83.400 364.400 C 83.733 364.400,84.000 364.756,84.000 365.200 C 84.000 365.733,84.267 366.000,84.800 366.000 C 85.244 366.000,85.600 366.267,85.600 366.600 C 85.600 367.019,86.022 367.200,87.000 367.200 C 88.133 367.200,88.400 367.352,88.400 368.000 C 88.400 368.440,88.651 368.800,88.957 368.800 C 89.264 368.800,89.618 369.070,89.745 369.400 C 89.879 369.751,90.479 370.000,91.187 370.000 C 92.133 370.000,92.400 370.176,92.400 370.800 C 92.400 371.448,92.667 371.600,93.800 371.600 C 94.778 371.600,95.200 371.781,95.200 372.200 C 95.200 372.530,95.430 372.800,95.712 372.800 C 95.993 372.800,96.483 373.160,96.800 373.600 C 97.117 374.040,97.787 374.400,98.288 374.400 C 98.832 374.400,99.200 374.642,99.200 375.000 C 99.200 375.415,99.617 375.600,100.553 375.600 C 101.570 375.600,101.959 375.799,102.116 376.400 C 102.266 376.975,102.662 377.200,103.520 377.200 C 104.213 377.200,104.811 377.452,104.945 377.800 C 105.076 378.143,105.673 378.400,106.341 378.400 C 107.170 378.400,107.567 378.631,107.716 379.200 C 107.858 379.744,108.262 380.000,108.975 380.000 C 109.553 380.000,110.129 380.270,110.255 380.600 C 110.395 380.964,111.000 381.200,111.796 381.200 C 112.770 381.200,113.160 381.405,113.316 382.000 C 113.468 382.583,113.862 382.800,114.763 382.800 C 115.596 382.800,116.000 382.996,116.000 383.400 C 116.000 383.817,116.419 384.000,117.371 384.000 C 118.322 384.000,118.781 384.201,118.871 384.656 C 118.948 385.047,119.474 385.362,120.173 385.437 C 120.818 385.505,121.502 385.840,121.693 386.181 C 121.925 386.595,122.629 386.800,123.820 386.800 C 125.136 386.800,125.600 386.957,125.600 387.400 C 125.600 387.818,126.021 388.000,126.986 388.000 C 127.962 388.000,128.498 388.236,128.800 388.800 C 129.128 389.412,129.638 389.600,130.971 389.600 C 132.121 389.600,132.790 389.796,132.936 390.177 C 133.076 390.542,133.863 390.800,135.079 390.877 C 136.353 390.959,136.966 391.168,136.900 391.500 C 136.845 391.775,136.980 392.023,137.200 392.050 C 137.420 392.078,137.780 392.145,138.000 392.200 C 138.220 392.255,139.030 392.322,139.800 392.350 C 140.756 392.384,141.200 392.590,141.200 393.000 C 141.200 393.471,141.750 393.600,143.753 393.600 C 145.970 393.600,146.334 393.705,146.516 394.400 C 146.698 395.098,147.062 395.200,149.363 395.200 C 151.440 395.200,152.000 395.327,152.000 395.800 C 152.000 396.274,152.567 396.400,154.704 396.400 C 156.974 396.400,157.488 396.528,157.907 397.200 C 158.350 397.909,158.840 398.000,162.203 398.000 C 165.311 398.000,166.000 398.109,166.000 398.600 C 166.000 399.100,166.800 399.200,170.800 399.200 C 173.733 399.200,175.600 399.356,175.600 399.600 C 175.600 399.862,184.000 400.000,200.000 400.000 C 216.000 400.000,224.400 399.862,224.400 399.600 C 224.400 399.356,226.267 399.200,229.200 399.200 C 233.200 399.200,234.000 399.100,234.000 398.600 C 234.000 398.109,234.689 398.000,237.797 398.000 C 241.160 398.000,241.650 397.909,242.093 397.200 C 242.512 396.528,243.026 396.400,245.296 396.400 C 247.433 396.400,248.000 396.274,248.000 395.800 C 248.000 395.327,248.560 395.200,250.637 395.200 C 252.938 395.200,253.302 395.098,253.484 394.400 C 253.666 393.705,254.030 393.600,256.247 393.600 C 258.250 393.600,258.800 393.471,258.800 393.000 C 258.800 392.575,259.267 392.385,260.400 392.350 C 262.884 392.272,263.000 392.239,263.000 391.600 C 263.000 391.167,263.535 390.966,264.921 390.877 C 266.137 390.800,266.924 390.542,267.064 390.177 C 267.210 389.796,267.879 389.600,269.029 389.600 C 270.362 389.600,270.872 389.412,271.200 388.800 C 271.502 388.236,272.038 388.000,273.014 388.000 C 273.979 388.000,274.400 387.818,274.400 387.400 C 274.400 386.957,274.864 386.800,276.180 386.800 C 277.370 386.800,278.075 386.595,278.306 386.182 C 278.497 385.842,279.181 385.523,279.826 385.473 C 280.555 385.417,281.000 385.159,281.000 384.791 C 281.000 384.397,281.499 384.159,282.500 384.076 C 283.481 383.995,284.000 383.753,284.000 383.376 C 284.000 382.999,284.427 382.800,285.237 382.800 C 286.138 382.800,286.532 382.583,286.684 382.000 C 286.840 381.405,287.230 381.200,288.204 381.200 C 289.000 381.200,289.605 380.964,289.745 380.600 C 289.871 380.270,290.447 380.000,291.025 380.000 C 291.738 380.000,292.142 379.744,292.284 379.200 C 292.431 378.637,292.830 378.400,293.627 378.400 C 294.257 378.400,294.922 378.111,295.124 377.750 C 295.324 377.393,295.958 377.100,296.533 377.100 C 297.203 377.100,297.663 376.831,297.816 376.350 C 297.988 375.809,298.436 375.600,299.427 375.600 C 300.381 375.600,300.800 375.417,300.800 375.000 C 300.800 374.642,301.168 374.400,301.712 374.400 C 302.213 374.400,302.883 374.040,303.200 373.600 C 303.517 373.160,304.007 372.800,304.288 372.800 C 304.570 372.800,304.800 372.530,304.800 372.200 C 304.800 371.781,305.222 371.600,306.200 371.600 C 307.333 371.600,307.600 371.448,307.600 370.800 C 307.600 370.176,307.867 370.000,308.813 370.000 C 309.483 370.000,310.121 369.750,310.240 369.439 C 310.359 369.131,310.803 368.788,311.228 368.677 C 311.652 368.566,312.000 368.188,312.000 367.837 C 312.000 367.396,312.369 367.200,313.200 367.200 C 314.000 367.200,314.400 367.000,314.400 366.600 C 314.400 366.267,314.756 366.000,315.200 366.000 C 315.733 366.000,316.000 365.733,316.000 365.200 C 316.000 364.756,316.267 364.400,316.600 364.400 C 316.930 364.400,317.200 364.130,317.200 363.800 C 317.200 363.381,317.622 363.200,318.600 363.200 C 319.549 363.200,320.000 363.015,320.000 362.627 C 320.000 362.312,320.360 361.940,320.800 361.800 C 321.240 361.660,321.600 361.288,321.600 360.973 C 321.600 360.658,321.870 360.400,322.200 360.400 C 322.530 360.400,322.800 360.130,322.800 359.800 C 322.800 359.396,323.204 359.200,324.037 359.200 C 324.938 359.200,325.332 358.983,325.484 358.400 C 325.605 357.938,326.030 357.600,326.489 357.600 C 327.033 357.600,327.212 357.409,327.055 357.000 C 326.899 356.592,327.077 356.400,327.613 356.400 C 328.133 356.400,328.400 356.129,328.400 355.600 C 328.400 355.067,328.667 354.800,329.200 354.800 C 329.640 354.800,330.000 354.553,330.000 354.250 C 330.000 353.947,330.540 353.592,331.200 353.460 C 331.904 353.319,332.400 352.968,332.400 352.610 C 332.400 352.267,332.750 352.000,333.200 352.000 C 333.640 352.000,334.000 351.751,334.000 351.447 C 334.000 351.142,334.360 350.799,334.800 350.684 C 335.240 350.569,335.600 350.188,335.600 349.837 C 335.600 349.487,335.870 349.200,336.200 349.200 C 336.530 349.200,336.800 348.930,336.800 348.600 C 336.800 348.270,337.070 348.000,337.400 348.000 C 337.733 348.000,338.000 347.644,338.000 347.200 C 338.000 346.667,338.267 346.400,338.800 346.400 C 339.244 346.400,339.600 346.133,339.600 345.800 C 339.600 345.470,339.870 345.200,340.200 345.200 C 340.533 345.200,340.800 344.844,340.800 344.400 C 340.800 343.867,341.067 343.600,341.600 343.600 C 342.044 343.600,342.400 343.333,342.400 343.000 C 342.400 342.670,342.670 342.400,343.000 342.400 C 343.333 342.400,343.600 342.044,343.600 341.600 C 343.600 341.067,343.867 340.800,344.400 340.800 C 344.844 340.800,345.200 340.533,345.200 340.200 C 345.200 339.870,345.470 339.600,345.800 339.600 C 346.133 339.600,346.400 339.244,346.400 338.800 C 346.400 338.267,346.667 338.000,347.200 338.000 C 347.644 338.000,348.000 337.733,348.000 337.400 C 348.000 337.070,348.270 336.800,348.600 336.800 C 348.930 336.800,349.200 336.551,349.200 336.247 C 349.200 335.942,349.560 335.599,350.000 335.484 C 350.440 335.369,350.800 334.988,350.800 334.637 C 350.800 334.287,351.070 334.000,351.400 334.000 C 351.733 334.000,352.000 333.644,352.000 333.200 C 352.000 332.750,352.267 332.400,352.610 332.400 C 352.968 332.400,353.319 331.904,353.460 331.200 C 353.592 330.540,353.948 330.000,354.250 330.000 C 354.553 330.000,354.800 329.640,354.800 329.200 C 354.800 328.667,355.067 328.400,355.600 328.400 C 356.129 328.400,356.400 328.133,356.400 327.613 C 356.400 327.077,356.592 326.899,357.000 327.055 C 357.409 327.212,357.600 327.033,357.600 326.489 C 357.600 326.030,357.938 325.605,358.400 325.484 C 358.983 325.332,359.200 324.938,359.200 324.037 C 359.200 323.204,359.396 322.800,359.800 322.800 C 360.130 322.800,360.400 322.530,360.400 322.200 C 360.400 321.870,360.658 321.600,360.973 321.600 C 361.288 321.600,361.660 321.240,361.800 320.800 C 361.940 320.360,362.312 320.000,362.627 320.000 C 363.015 320.000,363.200 319.549,363.200 318.600 C 363.200 317.622,363.381 317.200,363.800 317.200 C 364.130 317.200,364.400 316.930,364.400 316.600 C 364.400 316.267,364.756 316.000,365.200 316.000 C 365.733 316.000,366.000 315.733,366.000 315.200 C 366.000 314.756,366.267 314.400,366.600 314.400 C 366.995 314.400,367.200 314.005,367.200 313.247 C 367.200 312.430,367.433 312.032,368.000 311.884 C 368.440 311.769,368.800 311.407,368.800 311.080 C 368.800 310.753,369.070 310.382,369.400 310.255 C 369.751 310.121,370.000 309.521,370.000 308.813 C 370.000 307.867,370.176 307.600,370.800 307.600 C 371.448 307.600,371.600 307.333,371.600 306.200 C 371.600 305.222,371.781 304.800,372.200 304.800 C 372.530 304.800,372.800 304.570,372.800 304.288 C 372.800 304.007,373.160 303.517,373.600 303.200 C 374.040 302.883,374.400 302.213,374.400 301.712 C 374.400 301.168,374.642 300.800,375.000 300.800 C 375.417 300.800,375.600 300.381,375.600 299.427 C 375.600 298.436,375.809 297.988,376.350 297.816 C 376.831 297.663,377.100 297.203,377.100 296.533 C 377.100 295.958,377.393 295.324,377.750 295.124 C 378.111 294.922,378.400 294.257,378.400 293.627 C 378.400 292.830,378.637 292.431,379.200 292.284 C 379.744 292.142,380.000 291.738,380.000 291.025 C 380.000 290.447,380.270 289.871,380.600 289.745 C 380.964 289.605,381.200 289.000,381.200 288.204 C 381.200 287.230,381.405 286.840,382.000 286.684 C 382.583 286.532,382.800 286.138,382.800 285.237 C 382.800 284.427,382.999 284.000,383.376 284.000 C 383.753 284.000,383.995 283.481,384.076 282.500 C 384.159 281.499,384.397 281.000,384.791 281.000 C 385.159 281.000,385.417 280.555,385.473 279.826 C 385.523 279.181,385.842 278.497,386.182 278.306 C 386.595 278.075,386.800 277.370,386.800 276.180 C 386.800 274.864,386.957 274.400,387.400 274.400 C 387.818 274.400,388.000 273.979,388.000 273.014 C 388.000 272.038,388.236 271.502,388.800 271.200 C 389.412 270.872,389.600 270.362,389.600 269.029 C 389.600 267.879,389.796 267.210,390.177 267.064 C 390.542 266.924,390.800 266.137,390.877 264.921 C 390.966 263.535,391.167 263.000,391.600 263.000 C 392.239 263.000,392.272 262.884,392.350 260.400 C 392.385 259.267,392.575 258.800,393.000 258.800 C 393.471 258.800,393.600 258.250,393.600 256.247 C 393.600 254.030,393.705 253.666,394.400 253.484 C 395.098 253.302,395.200 252.938,395.200 250.637 C 395.200 248.560,395.327 248.000,395.800 248.000 C 396.274 248.000,396.400 247.433,396.400 245.296 C 396.400 243.026,396.528 242.512,397.200 242.093 C 397.909 241.650,398.000 241.160,398.000 237.797 C 398.000 234.689,398.109 234.000,398.600 234.000 C 399.100 234.000,399.200 233.200,399.200 229.200 C 399.200 226.267,399.356 224.400,399.600 224.400 C 399.862 224.400,400.000 216.000,400.000 200.000 C 400.000 184.000,399.862 175.600,399.600 175.600 C 399.356 175.600,399.200 173.733,399.200 170.800 C 399.200 166.800,399.100 166.000,398.600 166.000 C 398.109 166.000,398.000 165.311,398.000 162.203 C 398.000 158.840,397.909 158.350,397.200 157.907 C 396.528 157.488,396.400 156.974,396.400 154.704 C 396.400 152.567,396.274 152.000,395.800 152.000 C 395.327 152.000,395.200 151.440,395.200 149.363 C 395.200 147.062,395.098 146.698,394.400 146.516 C 393.705 146.334,393.600 145.970,393.600 143.753 C 393.600 141.750,393.471 141.200,393.000 141.200 C 392.590 141.200,392.384 140.756,392.350 139.800 C 392.322 139.030,392.255 138.220,392.200 138.000 C 392.145 137.780,392.078 137.420,392.050 137.200 C 392.023 136.980,391.775 136.845,391.500 136.900 C 391.168 136.966,390.959 136.353,390.877 135.079 C 390.800 133.863,390.542 133.076,390.177 132.936 C 389.796 132.790,389.600 132.121,389.600 130.971 C 389.600 129.638,389.412 129.128,388.800 128.800 C 388.236 128.498,388.000 127.962,388.000 126.986 C 388.000 126.021,387.818 125.600,387.400 125.600 C 386.957 125.600,386.800 125.136,386.800 123.820 C 386.800 122.629,386.595 121.925,386.181 121.693 C 385.840 121.502,385.505 120.818,385.437 120.173 C 385.362 119.474,385.047 118.948,384.656 118.871 C 384.201 118.781,384.000 118.322,384.000 117.371 C 384.000 116.419,383.817 116.000,383.400 116.000 C 382.996 116.000,382.800 115.596,382.800 114.763 C 382.800 113.862,382.583 113.468,382.000 113.316 C 381.405 113.160,381.200 112.770,381.200 111.796 C 381.200 111.000,380.964 110.395,380.600 110.255 C 380.270 110.129,380.000 109.553,380.000 108.975 C 380.000 108.262,379.744 107.858,379.200 107.716 C 378.631 107.567,378.400 107.170,378.400 106.341 C 378.400 105.673,378.143 105.076,377.800 104.945 C 377.452 104.811,377.200 104.213,377.200 103.520 C 377.200 102.662,376.975 102.266,376.400 102.116 C 375.799 101.959,375.600 101.570,375.600 100.553 C 375.600 99.617,375.415 99.200,375.000 99.200 C 374.642 99.200,374.400 98.832,374.400 98.288 C 374.400 97.787,374.040 97.117,373.600 96.800 C 373.160 96.483,372.800 95.993,372.800 95.712 C 372.800 95.430,372.530 95.200,372.200 95.200 C 371.781 95.200,371.600 94.778,371.600 93.800 C 371.600 92.667,371.448 92.400,370.800 92.400 C 370.176 92.400,370.000 92.133,370.000 91.187 C 370.000 90.479,369.751 89.879,369.400 89.745 C 369.070 89.618,368.800 89.264,368.800 88.957 C 368.800 88.651,368.440 88.400,368.000 88.400 C 367.352 88.400,367.200 88.133,367.200 87.000 C 367.200 86.022,367.019 85.600,366.600 85.600 C 366.267 85.600,366.000 85.244,366.000 84.800 C 366.000 84.267,365.733 84.000,365.200 84.000 C 364.756 84.000,364.400 83.733,364.400 83.400 C 364.400 83.070,364.130 82.800,363.800 82.800 C 363.381 82.800,363.200 82.378,363.200 81.400 C 363.200 80.475,363.012 80.000,362.647 80.000 C 362.342 80.000,361.999 79.640,361.884 79.200 C 361.769 78.760,361.388 78.400,361.037 78.400 C 360.687 78.400,360.400 78.130,360.400 77.800 C 360.400 77.470,360.130 77.200,359.800 77.200 C 359.470 77.200,359.179 76.975,359.154 76.700 C 359.128 76.425,359.066 76.020,359.015 75.800 C 358.964 75.580,358.894 75.175,358.861 74.900 C 358.827 74.625,358.530 74.400,358.200 74.400 C 357.857 74.400,357.600 74.040,357.600 73.557 C 357.600 72.972,357.416 72.785,357.000 72.945 C 356.592 73.101,356.400 72.923,356.400 72.387 C 356.400 71.867,356.129 71.600,355.600 71.600 C 355.053 71.600,354.800 71.333,354.800 70.757 C 354.800 70.172,354.616 69.985,354.200 70.145 C 353.779 70.306,353.598 70.111,353.594 69.487 C 353.586 68.399,353.215 67.821,352.307 67.486 C 351.887 67.331,351.707 66.988,351.850 66.615 C 352.002 66.219,351.857 66.000,351.443 66.000 C 351.089 66.000,350.800 65.730,350.800 65.400 C 350.800 65.067,350.444 64.800,350.000 64.800 C 349.467 64.800,349.200 64.533,349.200 64.000 C 349.200 63.556,348.933 63.200,348.600 63.200 C 348.270 63.200,348.000 62.930,348.000 62.600 C 348.000 62.267,347.644 62.000,347.200 62.000 C 346.683 62.000,346.400 61.733,346.400 61.247 C 346.400 60.818,346.038 60.399,345.560 60.274 C 345.097 60.153,344.838 59.862,344.983 59.627 C 345.138 59.377,344.905 59.200,344.424 59.200 C 343.867 59.200,343.600 58.941,343.600 58.400 C 343.600 57.956,343.333 57.600,343.000 57.600 C 342.670 57.600,342.400 57.330,342.400 57.000 C 342.400 56.667,342.044 56.400,341.600 56.400 C 341.067 56.400,340.800 56.133,340.800 55.600 C 340.800 55.156,340.533 54.800,340.200 54.800 C 339.870 54.800,339.600 54.530,339.600 54.200 C 339.600 53.867,339.244 53.600,338.800 53.600 C 338.267 53.600,338.000 53.333,338.000 52.800 C 338.000 52.360,337.811 52.000,337.581 52.000 C 337.093 52.000,335.200 50.045,335.200 49.542 C 335.200 49.354,334.930 49.200,334.600 49.200 C 334.270 49.200,334.000 48.930,334.000 48.600 C 334.000 48.267,333.644 48.000,333.200 48.000 C 332.760 48.000,332.400 47.749,332.400 47.443 C 332.400 46.833,331.560 46.400,330.380 46.400 C 329.873 46.400,329.701 46.203,329.855 45.800 C 330.015 45.384,329.828 45.200,329.243 45.200 C 328.667 45.200,328.400 44.947,328.400 44.400 C 328.400 43.871,328.133 43.600,327.613 43.600 C 327.077 43.600,326.899 43.408,327.055 43.000 C 327.215 42.584,327.028 42.400,326.443 42.400 C 325.972 42.400,325.600 42.143,325.600 41.818 C 325.600 41.470,325.038 41.131,324.200 40.974 C 323.398 40.823,322.800 40.474,322.800 40.155 C 322.800 39.850,322.530 39.600,322.200 39.600 C 321.870 39.600,321.600 39.330,321.600 39.000 C 321.600 38.667,321.244 38.400,320.800 38.400 C 320.267 38.400,320.000 38.133,320.000 37.600 C 320.000 36.952,319.733 36.800,318.600 36.800 C 317.622 36.800,317.200 36.619,317.200 36.200 C 317.200 35.870,316.930 35.600,316.600 35.600 C 316.267 35.600,316.000 35.244,316.000 34.800 C 316.000 34.267,315.733 34.000,315.200 34.000 C 314.756 34.000,314.400 33.733,314.400 33.400 C 314.400 33.000,314.000 32.800,313.200 32.800 C 312.369 32.800,312.000 32.604,312.000 32.163 C 312.000 31.812,311.652 31.434,311.228 31.323 C 310.803 31.212,310.359 30.869,310.240 30.561 C 310.121 30.250,309.483 30.000,308.813 30.000 C 307.867 30.000,307.600 29.824,307.600 29.200 C 307.600 28.552,307.333 28.400,306.200 28.400 C 305.222 28.400,304.800 28.219,304.800 27.800 C 304.800 27.470,304.570 27.200,304.288 27.200 C 304.007 27.200,303.517 26.840,303.200 26.400 C 302.883 25.960,302.213 25.600,301.712 25.600 C 301.185 25.600,300.800 25.357,300.800 25.024 C 300.800 24.647,300.281 24.405,299.300 24.324 C 298.299 24.241,297.800 24.003,297.800 23.609 C 297.800 23.241,297.355 22.983,296.626 22.927 C 295.981 22.877,295.297 22.558,295.106 22.218 C 294.916 21.878,294.250 21.600,293.627 21.600 C 292.807 21.600,292.432 21.364,292.271 20.748 C 292.120 20.173,291.842 19.975,291.415 20.139 C 291.051 20.278,290.445 20.045,289.991 19.591 C 289.556 19.156,288.681 18.800,288.047 18.800 C 287.230 18.800,286.832 18.567,286.684 18.000 C 286.532 17.417,286.138 17.200,285.237 17.200 C 284.404 17.200,284.000 17.004,284.000 16.600 C 284.000 16.185,283.583 16.000,282.643 16.000 C 281.846 16.000,281.197 15.768,281.070 15.438 C 280.951 15.128,280.317 14.757,279.660 14.613 C 279.004 14.469,278.367 14.092,278.246 13.776 C 278.099 13.392,277.421 13.200,276.213 13.200 C 274.868 13.200,274.400 13.045,274.400 12.600 C 274.400 12.182,273.979 12.000,273.014 12.000 C 272.038 12.000,271.502 11.764,271.200 11.200 C 270.872 10.588,270.362 10.400,269.029 10.400 C 267.848 10.400,267.211 10.206,267.055 9.800 C 266.898 9.391,266.258 9.200,265.042 9.200 C 263.662 9.200,263.228 9.042,263.124 8.501 C 263.050 8.116,262.722 7.784,262.395 7.762 C 262.068 7.740,261.125 7.694,260.300 7.661 C 259.260 7.619,258.800 7.416,258.800 7.000 C 258.800 6.529,258.250 6.400,256.247 6.400 C 254.030 6.400,253.666 6.295,253.484 5.600 C 253.302 4.902,252.938 4.800,250.637 4.800 C 248.560 4.800,248.000 4.673,248.000 4.200 C 248.000 3.726,247.433 3.600,245.296 3.600 C 243.026 3.600,242.512 3.472,242.093 2.800 C 241.650 2.091,241.160 2.000,237.797 2.000 C 234.689 2.000,234.000 1.891,234.000 1.400 C 234.000 0.900,233.200 0.800,229.200 0.800 C 226.267 0.800,224.400 0.644,224.400 0.400 C 224.400 0.138,216.000 0.000,200.000 0.000 C 184.000 0.000,175.600 0.138,175.600 0.400 M181.743 72.600 C 182.073 72.930,182.470 73.200,182.626 73.200 C 183.575 73.200,188.000 80.296,188.000 81.819 C 188.000 82.139,188.153 82.400,188.339 82.400 C 188.526 82.400,188.970 83.075,189.326 83.900 C 189.682 84.725,190.148 85.670,190.362 86.000 C 190.576 86.330,191.215 87.590,191.783 88.800 C 192.350 90.010,192.978 91.270,193.178 91.600 C 193.379 91.930,193.644 92.470,193.769 92.800 C 193.893 93.130,194.161 93.670,194.364 94.000 C 194.567 94.330,196.863 98.881,199.466 104.113 C 202.070 109.345,204.400 113.986,204.644 114.426 C 205.028 115.120,206.279 112.853,213.976 97.513 C 224.430 76.682,223.898 77.645,225.597 76.494 C 228.595 74.465,231.381 77.107,234.778 85.200 C 235.009 85.750,235.351 86.470,235.537 86.800 C 235.723 87.130,236.084 87.805,236.338 88.300 C 236.592 88.795,236.967 89.515,237.171 89.900 C 237.375 90.285,237.644 90.870,237.768 91.200 C 237.893 91.530,238.176 92.115,238.397 92.500 C 239.108 93.736,239.527 94.553,240.600 96.800 C 241.178 98.010,241.809 99.270,242.003 99.600 C 242.197 99.930,251.104 117.660,261.796 139.000 C 281.158 177.646,284.581 184.460,285.200 185.600 C 285.379 185.930,287.893 190.970,290.786 196.800 C 293.679 202.630,296.205 207.670,296.398 208.000 C 296.895 208.847,306.723 228.572,307.203 229.683 C 307.420 230.188,307.779 230.915,307.999 231.300 C 308.673 232.477,308.964 233.056,314.386 244.000 C 317.274 249.830,319.799 254.870,319.997 255.200 C 321.330 257.420,329.376 274.032,329.761 275.360 C 330.292 277.191,329.901 278.441,328.361 279.835 C 327.555 280.566,326.532 280.605,305.662 280.713 L 283.806 280.827 282.403 282.186 C 281.631 282.934,280.503 283.668,279.896 283.817 C 279.289 283.967,278.694 284.249,278.573 284.444 C 278.109 285.194,79.231 284.823,77.185 284.069 C 74.028 282.905,72.321 281.005,71.868 278.148 C 71.565 276.239,72.126 272.691,72.765 272.478 C 73.004 272.399,73.200 271.911,73.200 271.395 C 73.200 270.879,73.428 270.219,73.706 269.929 C 74.143 269.472,77.076 263.734,77.759 262.000 C 77.889 261.670,78.176 261.085,78.397 260.700 C 78.619 260.315,78.981 259.685,79.203 259.300 C 79.643 258.535,80.205 257.339,80.565 256.400 C 80.691 256.070,80.976 255.485,81.197 255.100 C 81.908 253.864,82.327 253.047,83.400 250.800 C 83.978 249.590,84.619 248.330,84.826 248.000 C 85.033 247.670,85.381 246.950,85.601 246.400 C 85.820 245.850,86.172 245.130,86.383 244.800 C 87.074 243.720,88.800 240.058,88.800 239.674 C 88.800 239.467,89.070 239.074,89.400 238.800 C 89.730 238.526,90.000 238.037,90.000 237.714 C 90.000 237.391,90.360 236.669,90.800 236.109 C 91.240 235.550,91.600 234.756,91.600 234.346 C 91.600 233.936,91.777 233.600,91.992 233.600 C 92.208 233.600,92.503 233.105,92.648 232.500 C 92.792 231.895,93.066 231.201,93.256 230.958 C 93.952 230.068,95.600 226.743,95.600 226.228 C 95.600 225.936,95.852 225.489,96.161 225.233 C 96.469 224.977,96.843 224.281,96.992 223.688 C 97.141 223.094,97.389 222.516,97.541 222.404 C 97.789 222.223,100.748 216.335,101.363 214.800 C 101.495 214.470,102.131 213.300,102.775 212.200 C 103.420 211.100,103.959 209.907,103.973 209.549 C 103.988 209.191,104.270 208.674,104.600 208.400 C 104.930 208.126,105.200 207.637,105.200 207.314 C 105.200 206.991,105.560 206.269,106.000 205.709 C 106.440 205.150,106.800 204.351,106.800 203.934 C 106.800 203.516,107.070 203.071,107.400 202.945 C 107.730 202.818,108.000 202.294,108.000 201.781 C 108.000 201.267,108.180 200.736,108.399 200.600 C 108.619 200.465,109.260 199.329,109.824 198.077 C 110.388 196.825,111.019 195.530,111.227 195.200 C 111.617 194.582,112.158 193.454,112.569 192.400 C 112.698 192.070,113.331 190.900,113.975 189.800 C 114.620 188.700,115.159 187.507,115.173 187.149 C 115.188 186.791,115.470 186.274,115.800 186.000 C 116.130 185.726,116.400 185.186,116.400 184.800 C 116.400 184.414,116.658 183.883,116.974 183.621 C 117.290 183.359,117.661 182.632,117.799 182.006 C 117.936 181.379,118.308 180.767,118.624 180.646 C 118.941 180.524,119.200 179.980,119.200 179.436 C 119.200 178.892,119.366 178.345,119.569 178.219 C 119.772 178.094,120.524 176.778,121.240 175.296 C 121.956 173.813,122.662 172.510,122.809 172.400 C 122.956 172.290,123.202 171.690,123.355 171.066 C 123.507 170.442,123.808 169.722,124.023 169.466 C 124.662 168.704,127.600 162.731,127.600 162.194 C 127.600 161.921,127.870 161.474,128.200 161.200 C 128.530 160.926,128.800 160.392,128.800 160.013 C 128.800 159.634,129.160 158.998,129.600 158.600 C 130.040 158.202,130.400 157.465,130.400 156.962 C 130.400 156.459,130.591 155.929,130.825 155.785 C 131.058 155.640,131.418 155.135,131.624 154.661 C 131.830 154.188,132.179 153.530,132.399 153.200 C 132.620 152.870,132.980 152.150,133.199 151.600 C 133.419 151.050,133.779 150.285,133.999 149.900 C 134.220 149.515,134.580 148.885,134.801 148.500 C 135.021 148.115,135.391 147.350,135.622 146.800 C 136.532 144.632,137.685 142.394,137.990 142.206 C 138.167 142.097,138.430 141.534,138.575 140.955 C 138.721 140.377,139.101 139.642,139.420 139.323 C 139.739 139.004,140.000 138.406,140.000 137.995 C 140.000 137.584,140.157 137.150,140.349 137.031 C 140.647 136.848,142.115 134.003,142.946 132.000 C 143.083 131.670,143.363 131.130,143.569 130.800 C 143.774 130.470,144.044 129.930,144.169 129.600 C 144.293 129.270,144.576 128.730,144.798 128.400 C 145.019 128.070,145.380 127.350,145.599 126.800 C 145.819 126.250,146.166 125.530,146.370 125.200 C 146.575 124.870,146.844 124.330,146.969 124.000 C 147.093 123.670,147.376 123.130,147.598 122.800 C 147.819 122.470,148.180 121.750,148.399 121.200 C 148.619 120.650,148.966 119.930,149.170 119.600 C 149.375 119.270,149.644 118.730,149.769 118.400 C 149.893 118.070,150.176 117.530,150.398 117.200 C 150.619 116.870,150.980 116.150,151.199 115.600 C 151.419 115.050,151.766 114.330,151.970 114.000 C 152.175 113.670,152.444 113.130,152.569 112.800 C 152.693 112.470,152.976 111.930,153.198 111.600 C 153.419 111.270,153.780 110.550,153.999 110.000 C 154.219 109.450,154.566 108.730,154.770 108.400 C 154.975 108.070,155.244 107.530,155.369 107.200 C 155.493 106.870,155.776 106.330,155.998 106.000 C 156.219 105.670,156.580 104.950,156.799 104.400 C 157.019 103.850,157.379 103.085,157.599 102.700 C 157.820 102.315,158.180 101.685,158.401 101.300 C 158.621 100.915,158.991 100.150,159.222 99.600 C 159.765 98.305,161.133 95.568,161.620 94.800 C 161.829 94.470,162.180 93.750,162.399 93.200 C 162.619 92.650,162.979 91.885,163.199 91.500 C 163.420 91.115,163.780 90.485,164.001 90.100 C 164.221 89.715,164.587 88.950,164.813 88.400 C 165.380 87.020,165.539 86.690,165.969 86.000 C 166.174 85.670,166.444 85.130,166.569 84.800 C 166.693 84.470,166.948 83.930,167.135 83.600 C 167.322 83.270,167.684 82.595,167.938 82.100 C 168.192 81.605,168.608 80.795,168.862 80.300 C 169.116 79.805,169.477 79.130,169.663 78.800 C 169.849 78.470,170.179 77.790,170.395 77.289 C 170.611 76.789,170.974 76.159,171.200 75.889 C 172.755 74.043,173.611 73.200,173.932 73.200 C 174.135 73.200,174.526 72.930,174.800 72.600 C 175.159 72.167,176.111 72.000,178.220 72.000 C 180.285 72.000,181.319 72.176,181.743 72.600 M177.803 99.137 C 177.364 99.722,176.666 100.920,176.252 101.800 C 175.322 103.771,173.642 107.125,173.159 107.971 C 172.962 108.317,172.618 109.050,172.394 109.600 C 172.171 110.150,171.633 111.140,171.200 111.800 C 170.306 113.162,169.600 114.673,169.600 115.226 C 169.600 115.432,169.434 115.600,169.232 115.600 C 169.029 115.600,168.748 116.128,168.606 116.772 C 168.464 117.417,168.090 118.159,167.774 118.421 C 167.458 118.683,167.200 119.223,167.200 119.620 C 167.200 120.018,166.939 120.604,166.620 120.923 C 166.301 121.242,165.923 121.968,165.781 122.535 C 165.638 123.103,165.269 123.777,164.961 124.033 C 164.652 124.289,164.400 124.823,164.400 125.220 C 164.400 125.618,164.139 126.204,163.820 126.523 C 163.501 126.842,163.123 127.568,162.981 128.135 C 162.838 128.703,162.469 129.377,162.161 129.633 C 161.852 129.889,161.600 130.423,161.600 130.820 C 161.600 131.218,161.339 131.804,161.020 132.123 C 160.701 132.442,160.323 133.168,160.181 133.735 C 160.038 134.303,159.669 134.977,159.361 135.233 C 159.052 135.489,158.800 136.023,158.800 136.420 C 158.800 136.818,158.554 137.389,158.253 137.690 C 157.952 137.991,157.571 138.679,157.405 139.219 C 157.240 139.758,156.881 140.470,156.606 140.800 C 156.332 141.130,155.990 141.895,155.846 142.500 C 155.702 143.105,155.408 143.600,155.192 143.600 C 154.977 143.600,154.800 143.936,154.800 144.346 C 154.800 144.756,154.467 145.521,154.061 146.046 C 153.655 146.571,153.201 147.495,153.053 148.100 C 152.906 148.705,152.608 149.200,152.392 149.200 C 152.177 149.200,152.000 149.453,152.000 149.763 C 152.000 150.436,149.937 154.543,149.504 154.733 C 149.337 154.807,149.188 155.167,149.173 155.533 C 149.159 155.900,148.620 157.100,147.975 158.200 C 147.331 159.300,146.697 160.470,146.566 160.800 C 145.911 162.458,144.254 165.643,143.948 165.832 C 143.757 165.950,143.600 166.384,143.600 166.795 C 143.600 167.206,143.339 167.804,143.020 168.123 C 142.701 168.442,142.323 169.168,142.181 169.735 C 142.038 170.303,141.669 170.977,141.361 171.233 C 141.052 171.489,140.800 172.023,140.800 172.420 C 140.800 172.818,140.539 173.404,140.220 173.723 C 139.901 174.042,139.517 174.790,139.368 175.384 C 139.219 175.978,138.850 176.559,138.549 176.675 C 138.247 176.791,138.000 177.303,138.000 177.814 C 138.000 178.325,137.739 179.004,137.420 179.323 C 137.101 179.642,136.723 180.368,136.581 180.935 C 136.438 181.503,136.069 182.177,135.761 182.433 C 135.452 182.689,135.200 183.223,135.200 183.620 C 135.200 184.018,134.939 184.604,134.620 184.923 C 134.301 185.242,133.923 185.968,133.781 186.535 C 133.638 187.103,133.269 187.777,132.961 188.033 C 132.652 188.289,132.400 188.823,132.400 189.220 C 132.400 189.618,132.139 190.204,131.820 190.523 C 131.501 190.842,131.123 191.568,130.981 192.135 C 130.838 192.703,130.469 193.377,130.161 193.633 C 129.852 193.889,129.600 194.414,129.600 194.800 C 129.600 195.186,129.330 195.726,129.000 196.000 C 128.670 196.274,128.400 196.812,128.400 197.195 C 128.400 197.578,128.067 198.321,127.661 198.846 C 127.255 199.371,126.801 200.295,126.653 200.900 C 126.506 201.505,126.208 202.000,125.992 202.000 C 125.777 202.000,125.588 202.315,125.573 202.700 C 125.559 203.085,125.020 204.300,124.375 205.400 C 123.731 206.500,123.097 207.670,122.966 208.000 C 122.340 209.585,120.661 212.839,120.379 213.013 C 120.204 213.121,119.943 213.747,119.799 214.405 C 119.655 215.062,119.385 215.600,119.200 215.600 C 119.015 215.600,118.748 216.128,118.606 216.772 C 118.464 217.417,118.090 218.159,117.774 218.421 C 117.458 218.683,117.200 219.223,117.200 219.620 C 117.200 220.018,116.939 220.604,116.620 220.923 C 116.301 221.242,115.923 221.968,115.781 222.535 C 115.638 223.103,115.269 223.777,114.961 224.033 C 114.652 224.289,114.400 224.823,114.400 225.220 C 114.400 225.618,114.139 226.204,113.820 226.523 C 113.501 226.842,113.123 227.568,112.981 228.135 C 112.838 228.703,112.469 229.377,112.161 229.633 C 111.852 229.889,111.600 230.423,111.600 230.820 C 111.600 231.218,111.339 231.804,111.020 232.123 C 110.701 232.442,110.323 233.168,110.181 233.735 C 110.038 234.303,109.669 234.977,109.361 235.233 C 109.052 235.489,108.800 236.023,108.800 236.420 C 108.800 236.818,108.554 237.389,108.253 237.690 C 107.952 237.991,107.571 238.679,107.405 239.219 C 107.240 239.758,106.881 240.470,106.606 240.800 C 106.332 241.130,105.990 241.895,105.846 242.500 C 105.702 243.105,105.408 243.600,105.192 243.600 C 104.977 243.600,104.800 243.936,104.800 244.346 C 104.800 244.756,104.467 245.521,104.061 246.046 C 103.655 246.571,103.201 247.495,103.053 248.100 C 102.906 248.705,102.608 249.200,102.392 249.200 C 102.177 249.200,102.000 249.453,102.000 249.763 C 102.000 250.436,99.937 254.543,99.504 254.733 C 99.337 254.807,99.188 255.167,99.173 255.533 C 99.159 255.900,98.620 257.100,97.975 258.200 C 97.331 259.300,96.697 260.470,96.566 260.800 C 96.303 261.467,94.458 265.162,93.735 266.472 C 92.661 268.415,92.536 268.401,110.343 268.386 C 123.107 268.375,127.216 268.252,127.923 267.860 C 128.588 267.490,136.169 252.719,155.166 214.774 C 169.643 185.858,184.673 155.900,188.567 148.200 C 196.069 133.366,196.306 132.685,194.617 130.819 C 194.278 130.444,194.000 129.761,194.000 129.302 C 194.000 128.842,193.863 128.407,193.696 128.333 C 193.278 128.150,191.200 124.048,191.200 123.406 C 191.200 123.120,190.930 122.782,190.600 122.655 C 190.270 122.529,189.999 122.104,189.997 121.713 C 189.996 121.321,189.637 120.460,189.200 119.800 C 188.763 119.140,188.404 118.300,188.403 117.933 C 188.401 117.567,188.263 117.207,188.096 117.133 C 187.663 116.943,185.600 112.836,185.600 112.163 C 185.600 111.853,185.423 111.600,185.208 111.600 C 184.992 111.600,184.694 111.105,184.547 110.500 C 184.399 109.895,183.945 108.971,183.539 108.446 C 183.133 107.921,182.800 107.234,182.800 106.917 C 182.800 106.601,182.530 106.073,182.200 105.743 C 181.870 105.413,181.600 104.818,181.600 104.420 C 181.600 104.023,181.330 103.474,181.000 103.200 C 180.670 102.926,180.400 102.478,180.400 102.205 C 180.400 101.932,180.058 101.273,179.639 100.741 C 179.221 100.209,178.816 99.391,178.739 98.924 C 178.605 98.107,178.570 98.115,177.803 99.137 " stroke="none" fill="#fbfbfb" fill-rule="evenodd"></path><path id="path3" d="M174.863 72.770 C 173.172 73.743,171.266 75.825,170.559 77.473 C 170.258 78.173,169.829 78.858,169.606 78.996 C 169.383 79.134,169.200 79.575,169.200 79.975 C 169.200 80.375,168.948 80.911,168.639 81.167 C 168.331 81.423,167.957 82.120,167.808 82.716 C 167.659 83.312,167.263 84.105,166.928 84.477 C 166.592 84.849,166.389 85.368,166.477 85.630 C 166.564 85.892,167.614 84.148,168.810 81.753 C 174.891 69.577,181.068 68.897,186.572 79.800 C 187.349 81.340,187.988 82.384,187.993 82.119 C 188.019 80.418,183.298 73.200,182.158 73.200 C 181.888 73.200,181.595 72.986,181.508 72.724 C 181.220 71.859,176.388 71.892,174.863 72.770 M190.021 86.700 C 191.100 88.845,191.986 90.810,191.991 91.067 C 191.996 91.323,192.135 91.593,192.300 91.667 C 192.465 91.740,193.301 93.199,194.157 94.910 C 195.013 96.620,195.774 97.960,195.846 97.887 C 196.048 97.685,188.639 82.823,188.330 82.811 C 188.181 82.805,188.942 84.555,190.021 86.700 M165.673 86.887 C 165.413 87.147,165.200 87.515,165.200 87.705 C 165.200 88.048,163.499 91.657,162.799 92.800 C 162.597 93.130,161.353 95.621,160.035 98.335 C 158.717 101.050,157.465 103.481,157.252 103.738 C 157.039 103.994,156.742 104.691,156.593 105.286 C 156.444 105.881,156.069 106.577,155.761 106.833 C 155.452 107.089,155.200 107.577,155.200 107.917 C 155.200 108.258,154.912 108.856,154.559 109.245 C 154.206 109.635,153.991 110.172,154.079 110.438 C 154.168 110.704,156.972 105.460,160.309 98.783 C 166.145 87.110,166.716 85.844,165.673 86.887 M177.886 97.771 C 177.526 98.131,175.718 101.435,173.868 105.113 C 172.018 108.791,170.031 112.682,169.452 113.760 C 168.251 115.997,168.175 116.284,168.961 115.633 C 169.269 115.377,169.631 114.731,169.765 114.198 C 169.899 113.664,170.524 112.457,171.154 111.514 C 171.784 110.571,172.433 109.368,172.596 108.839 C 172.759 108.311,173.412 106.998,174.046 105.922 C 174.681 104.845,175.200 103.872,175.200 103.758 C 175.200 103.363,177.211 99.397,177.800 98.629 C 178.500 97.718,178.358 97.574,179.826 100.695 C 180.472 102.067,181.137 103.192,181.303 103.195 C 181.470 103.198,181.425 102.885,181.204 102.500 C 180.982 102.115,180.610 101.350,180.378 100.800 C 179.059 97.672,178.574 97.083,177.886 97.771 M196.000 98.527 C 196.000 98.949,198.513 103.620,198.661 103.473 C 198.735 103.398,198.260 102.290,197.605 101.009 C 196.412 98.676,196.000 98.040,196.000 98.527 M181.602 103.867 C 181.599 104.480,183.525 108.307,183.978 108.586 C 184.309 108.791,183.663 107.314,182.236 104.600 C 181.889 103.940,181.604 103.610,181.602 103.867 M198.800 104.118 C 198.800 104.711,204.490 115.455,205.092 116.000 C 205.682 116.533,205.707 116.533,205.317 116.000 C 205.076 115.670,203.603 112.898,202.045 109.839 C 199.318 104.487,198.800 103.574,198.800 104.118 M184.403 109.606 C 184.404 109.933,184.763 110.740,185.200 111.400 C 186.228 112.952,186.228 112.422,185.200 110.504 C 184.760 109.684,184.401 109.279,184.403 109.606 M152.811 112.977 C 152.327 113.977,151.780 114.889,151.596 115.002 C 151.412 115.116,151.143 115.747,150.999 116.405 C 150.855 117.062,150.571 117.600,150.368 117.600 C 150.166 117.600,150.000 117.807,150.000 118.060 C 150.000 118.591,147.933 122.899,147.532 123.204 C 147.384 123.316,147.139 123.903,146.987 124.508 C 146.836 125.113,146.563 125.699,146.381 125.812 C 145.997 126.049,144.000 130.170,144.000 130.726 C 144.000 130.933,143.730 131.326,143.400 131.600 C 143.070 131.874,142.800 132.414,142.800 132.800 C 142.800 133.186,142.548 133.711,142.239 133.967 C 141.931 134.223,141.557 134.920,141.408 135.516 C 141.259 136.112,140.863 136.905,140.528 137.277 C 140.192 137.649,139.992 138.175,140.082 138.446 C 140.172 138.717,143.336 132.753,147.111 125.191 C 150.887 117.630,153.912 111.379,153.834 111.301 C 153.756 111.222,153.295 111.977,152.811 112.977 M186.000 113.303 C 186.000 113.639,186.270 114.018,186.600 114.145 C 186.930 114.271,187.201 114.696,187.203 115.087 C 187.204 115.479,187.563 116.340,188.000 117.000 C 188.437 117.660,188.796 118.009,188.797 117.776 C 188.799 117.544,188.536 117.004,188.213 116.576 C 187.890 116.149,187.620 115.558,187.613 115.263 C 187.594 114.473,186.000 112.536,186.000 113.303 M166.987 118.657 C 165.461 121.673,165.368 122.006,166.374 120.856 C 166.828 120.336,167.200 119.630,167.200 119.287 C 167.200 118.944,167.488 118.344,167.841 117.955 C 168.194 117.565,168.412 117.037,168.327 116.781 C 168.241 116.524,167.638 117.369,166.987 118.657 M190.006 120.679 C 189.999 121.254,191.866 124.835,192.468 125.400 C 192.741 125.657,192.734 125.513,192.447 125.000 C 192.201 124.560,191.813 123.750,191.583 123.200 C 190.916 121.602,190.012 120.157,190.006 120.679 M165.082 122.610 C 164.940 123.045,164.638 123.715,164.412 124.100 C 163.805 125.131,163.725 125.290,158.006 136.800 C 155.109 142.630,152.583 147.670,152.392 148.000 C 151.982 148.708,145.076 162.416,144.835 163.000 C 144.744 163.220,144.952 163.168,145.296 162.884 C 145.640 162.600,146.038 161.903,146.181 161.335 C 146.323 160.768,146.701 160.042,147.020 159.723 C 147.339 159.404,147.600 158.818,147.600 158.420 C 147.600 158.023,147.852 157.489,148.161 157.233 C 148.469 156.977,148.838 156.303,148.981 155.735 C 149.123 155.168,149.501 154.442,149.820 154.123 C 150.139 153.804,150.400 153.218,150.400 152.820 C 150.400 152.423,150.652 151.889,150.961 151.633 C 151.269 151.377,151.638 150.703,151.781 150.135 C 151.923 149.568,152.301 148.842,152.620 148.523 C 152.939 148.204,153.200 147.606,153.200 147.195 C 153.200 146.784,153.357 146.350,153.548 146.232 C 153.739 146.114,154.389 144.978,154.993 143.709 C 155.596 142.439,156.242 141.130,156.428 140.800 C 156.614 140.470,157.231 139.210,157.799 138.000 C 158.366 136.790,158.995 135.530,159.196 135.200 C 159.689 134.389,161.061 131.630,161.583 130.400 C 161.816 129.850,162.533 128.500,163.177 127.400 C 163.820 126.300,164.359 125.144,164.373 124.831 C 164.388 124.519,164.688 123.944,165.041 123.555 C 165.394 123.165,165.605 122.616,165.511 122.333 C 165.404 122.011,165.244 122.113,165.082 122.610 M192.821 126.278 C 192.809 126.542,193.520 128.148,194.400 129.849 C 195.280 131.549,196.000 132.749,196.000 132.514 C 196.000 131.896,192.846 125.709,192.821 126.278 M139.273 139.687 C 139.013 139.947,138.800 140.315,138.800 140.505 C 138.800 140.849,137.097 144.462,136.399 145.600 C 136.196 145.930,135.566 147.190,134.999 148.400 C 134.431 149.610,133.809 150.870,133.616 151.200 C 133.100 152.083,132.966 152.350,110.965 196.310 C 99.813 218.591,90.535 236.917,90.345 237.034 C 90.155 237.151,90.000 237.537,90.000 237.892 C 90.000 238.247,89.712 238.856,89.359 239.245 C 89.006 239.635,88.798 240.189,88.896 240.477 C 88.994 240.765,98.628 221.920,110.306 198.600 C 121.983 175.280,133.438 152.431,135.760 147.824 C 139.827 139.755,140.300 138.660,139.273 139.687 M143.387 165.857 C 141.861 168.873,141.768 169.206,142.774 168.056 C 143.228 167.536,143.600 166.830,143.600 166.487 C 143.600 166.144,143.888 165.544,144.241 165.155 C 144.594 164.765,144.812 164.237,144.727 163.981 C 144.641 163.724,144.038 164.569,143.387 165.857 M141.386 170.015 C 141.174 170.442,140.224 172.368,139.276 174.295 C 138.328 176.223,137.398 178.070,137.209 178.400 C 136.057 180.411,130.400 191.973,130.400 192.317 C 130.400 192.546,130.263 192.793,130.096 192.867 C 129.929 192.940,129.011 194.620,128.056 196.600 C 127.100 198.580,126.165 200.470,125.977 200.800 C 125.546 201.558,121.457 209.662,121.235 210.200 C 121.144 210.420,121.352 210.368,121.696 210.084 C 122.040 209.800,122.438 209.103,122.581 208.535 C 122.723 207.968,123.101 207.242,123.420 206.923 C 123.739 206.604,124.000 206.018,124.000 205.620 C 124.000 205.223,124.252 204.689,124.561 204.433 C 124.869 204.177,125.238 203.503,125.381 202.935 C 125.523 202.368,125.901 201.642,126.220 201.323 C 126.539 201.004,126.800 200.418,126.800 200.020 C 126.800 199.623,127.052 199.089,127.361 198.833 C 127.669 198.577,128.038 197.903,128.181 197.335 C 128.323 196.768,128.701 196.042,129.020 195.723 C 129.339 195.404,129.600 194.806,129.600 194.395 C 129.600 193.984,129.757 193.550,129.948 193.432 C 130.139 193.314,130.789 192.178,131.393 190.909 C 131.996 189.639,132.642 188.330,132.828 188.000 C 133.014 187.670,133.631 186.410,134.199 185.200 C 134.766 183.990,135.392 182.730,135.590 182.400 C 136.048 181.636,137.854 177.991,138.166 177.200 C 138.297 176.870,138.931 175.700,139.575 174.600 C 140.220 173.500,140.759 172.285,140.773 171.900 C 140.788 171.515,140.968 171.200,141.173 171.200 C 141.555 171.200,142.193 169.660,141.923 169.390 C 141.840 169.307,141.599 169.588,141.386 170.015 M119.787 213.057 C 118.205 216.184,118.172 216.281,118.896 215.684 C 119.240 215.400,119.643 214.680,119.792 214.084 C 119.941 213.488,120.337 212.695,120.672 212.323 C 121.008 211.951,121.212 211.437,121.127 211.181 C 121.041 210.924,120.438 211.769,119.787 213.057 M116.987 218.657 C 115.461 221.673,115.368 222.006,116.374 220.856 C 116.828 220.336,117.200 219.630,117.200 219.287 C 117.200 218.944,117.488 218.344,117.841 217.955 C 118.194 217.565,118.412 217.037,118.327 216.781 C 118.241 216.524,117.638 217.369,116.987 218.657 M115.082 222.610 C 114.940 223.045,114.638 223.715,114.412 224.100 C 113.805 225.131,113.725 225.290,108.006 236.800 C 105.109 242.630,102.583 247.670,102.392 248.000 C 101.982 248.708,95.076 262.416,94.835 263.000 C 94.744 263.220,94.952 263.168,95.296 262.884 C 95.640 262.600,96.038 261.903,96.181 261.335 C 96.323 260.768,96.701 260.042,97.020 259.723 C 97.339 259.404,97.600 258.818,97.600 258.420 C 97.600 258.023,97.852 257.489,98.161 257.233 C 98.469 256.977,98.838 256.303,98.981 255.735 C 99.123 255.168,99.501 254.442,99.820 254.123 C 100.139 253.804,100.400 253.218,100.400 252.820 C 100.400 252.423,100.652 251.889,100.961 251.633 C 101.269 251.377,101.638 250.703,101.781 250.135 C 101.923 249.568,102.301 248.842,102.620 248.523 C 102.939 248.204,103.200 247.606,103.200 247.195 C 103.200 246.784,103.357 246.350,103.548 246.232 C 103.739 246.114,104.389 244.978,104.993 243.709 C 105.596 242.439,106.242 241.130,106.428 240.800 C 106.614 240.470,107.231 239.210,107.799 238.000 C 108.366 236.790,108.995 235.530,109.196 235.200 C 109.689 234.389,111.061 231.630,111.583 230.400 C 111.816 229.850,112.533 228.500,113.177 227.400 C 113.820 226.300,114.359 225.144,114.373 224.831 C 114.388 224.519,114.688 223.944,115.041 223.555 C 115.394 223.165,115.605 222.616,115.511 222.333 C 115.404 222.011,115.244 222.113,115.082 222.610 M87.768 242.698 C 87.349 243.524,86.762 244.505,86.462 244.877 C 86.163 245.249,85.988 245.765,86.074 246.022 C 86.160 246.280,86.818 245.370,87.536 244.000 C 88.254 242.629,88.771 241.438,88.685 241.352 C 88.599 241.266,88.186 241.871,87.768 242.698 M83.422 251.279 C 82.174 253.766,81.010 256.070,80.835 256.400 C 80.661 256.730,80.088 257.900,79.562 259.000 C 79.036 260.100,78.361 261.305,78.062 261.677 C 77.763 262.049,77.590 262.571,77.679 262.836 C 77.767 263.101,79.680 259.666,81.930 255.202 C 84.180 250.739,85.946 247.013,85.856 246.923 C 85.766 246.832,84.670 248.793,83.422 251.279 M74.641 268.876 C 70.996 276.215,71.055 279.768,74.869 282.769 C 76.927 284.387,76.524 284.381,178.800 284.360 C 281.458 284.338,279.366 284.370,281.414 282.796 C 282.790 281.738,283.879 280.318,283.078 280.626 C 282.705 280.769,282.400 281.044,282.400 281.237 C 282.400 281.430,281.648 282.086,280.729 282.694 L 279.058 283.800 178.229 283.800 L 77.400 283.800 75.874 282.852 C 71.293 280.003,71.269 276.299,75.775 267.428 C 76.773 265.464,77.521 263.788,77.438 263.704 C 77.354 263.621,76.096 265.948,74.641 268.876 M93.299 265.997 C 92.585 267.318,92.000 268.579,92.000 268.799 C 92.000 269.254,127.343 269.325,128.487 268.872 C 128.865 268.722,121.055 268.654,111.131 268.719 L 93.089 268.839 93.327 267.370 C 93.459 266.562,93.862 265.574,94.224 265.174 C 94.586 264.774,94.818 264.255,94.740 264.021 C 94.662 263.787,94.014 264.676,93.299 265.997 " stroke="none" fill="#9c9c9c" fill-rule="evenodd"></path><path id="path4" d="M175.178 73.113 C 172.696 74.222,171.486 76.432,151.424 116.509 C 64.805 289.540,72.223 274.539,72.513 276.062 C 72.678 276.931,72.695 276.920,72.746 275.924 C 72.775 275.332,72.980 274.736,73.200 274.600 C 73.420 274.464,73.601 274.048,73.602 273.676 C 73.603 273.304,74.323 271.579,75.202 269.842 C 76.081 268.105,76.800 266.455,76.800 266.175 C 76.800 265.896,76.951 265.607,77.137 265.533 C 77.518 265.382,79.600 261.339,79.600 260.750 C 79.600 260.539,79.789 260.149,80.020 259.883 C 80.430 259.411,87.074 246.275,97.865 224.600 C 100.823 218.660,103.438 213.447,103.677 213.016 C 105.193 210.281,114.400 191.621,114.400 191.282 C 114.400 191.053,114.535 190.807,114.700 190.733 C 114.865 190.660,117.544 185.470,120.653 179.200 C 127.712 164.964,129.356 161.676,134.153 152.200 C 136.269 148.020,138.000 144.390,138.000 144.134 C 138.000 143.877,138.137 143.607,138.304 143.533 C 138.725 143.348,140.800 139.245,140.800 138.596 C 140.800 138.305,140.939 138.007,141.110 137.933 C 141.499 137.766,153.200 114.328,153.200 113.716 C 153.200 113.469,153.340 113.207,153.510 113.133 C 153.895 112.968,164.400 91.912,164.400 91.306 C 164.400 91.064,164.544 90.807,164.721 90.733 C 164.897 90.660,166.553 87.540,168.400 83.800 C 170.247 80.060,171.903 76.940,172.079 76.867 C 172.256 76.793,172.400 76.518,172.400 76.256 C 172.400 75.576,174.752 73.600,175.561 73.600 C 175.935 73.600,176.450 73.390,176.707 73.133 C 178.372 71.468,183.401 74.569,185.185 78.363 C 185.661 79.373,186.208 80.470,186.402 80.800 C 186.596 81.130,187.499 82.930,188.409 84.800 C 189.319 86.670,190.220 88.470,190.411 88.800 C 191.398 90.510,197.200 102.439,197.200 102.759 C 197.200 102.965,197.337 103.193,197.504 103.267 C 197.758 103.378,200.547 108.812,201.371 110.800 C 201.508 111.130,202.319 112.660,203.175 114.200 C 204.030 115.740,206.932 121.370,209.623 126.712 C 212.314 132.054,214.670 136.519,214.858 136.636 C 215.046 136.752,215.200 137.175,215.200 137.575 C 215.200 137.975,215.470 138.526,215.800 138.800 C 216.130 139.074,216.400 139.612,216.400 139.995 C 216.400 140.378,216.760 141.150,217.200 141.709 C 217.640 142.269,218.000 142.991,218.000 143.314 C 218.000 143.637,218.252 144.111,218.561 144.367 C 218.869 144.623,219.238 145.297,219.381 145.865 C 219.523 146.432,219.901 147.158,220.220 147.477 C 220.539 147.796,220.800 148.382,220.800 148.780 C 220.800 149.177,221.052 149.711,221.361 149.967 C 221.669 150.223,222.038 150.897,222.181 151.465 C 222.323 152.032,222.701 152.758,223.020 153.077 C 223.339 153.396,223.600 153.982,223.600 154.380 C 223.600 154.777,223.852 155.311,224.161 155.567 C 224.469 155.823,224.838 156.497,224.981 157.065 C 225.123 157.632,225.501 158.358,225.820 158.677 C 226.139 158.996,226.400 159.582,226.400 159.980 C 226.400 160.377,226.670 160.926,227.000 161.200 C 227.330 161.474,227.600 162.023,227.600 162.420 C 227.600 162.818,227.861 163.404,228.180 163.723 C 228.499 164.042,228.877 164.768,229.019 165.335 C 229.162 165.903,229.531 166.577,229.839 166.833 C 230.148 167.089,230.400 167.623,230.400 168.020 C 230.400 168.418,230.661 169.004,230.980 169.323 C 231.299 169.642,231.677 170.368,231.819 170.935 C 231.962 171.503,232.331 172.177,232.639 172.433 C 232.948 172.689,233.200 173.223,233.200 173.620 C 233.200 174.018,233.461 174.604,233.780 174.923 C 234.099 175.242,234.477 175.968,234.619 176.535 C 234.762 177.103,235.131 177.777,235.439 178.033 C 235.748 178.289,236.000 178.814,236.000 179.200 C 236.000 179.586,236.258 180.117,236.574 180.379 C 236.890 180.641,237.262 181.370,237.400 182.000 C 237.538 182.630,237.910 183.359,238.226 183.621 C 238.542 183.883,238.800 184.414,238.800 184.800 C 238.800 185.186,239.070 185.726,239.400 186.000 C 239.730 186.274,240.000 186.812,240.000 187.195 C 240.000 187.578,240.360 188.350,240.800 188.909 C 241.240 189.469,241.600 190.191,241.600 190.514 C 241.600 190.837,241.870 191.326,242.200 191.600 C 242.530 191.874,242.804 192.391,242.809 192.749 C 242.814 193.107,243.170 193.850,243.600 194.400 C 244.030 194.950,244.386 195.693,244.391 196.051 C 244.396 196.409,244.652 196.911,244.961 197.167 C 245.269 197.423,245.638 198.097,245.781 198.665 C 245.923 199.232,246.301 199.958,246.620 200.277 C 246.939 200.596,247.200 201.182,247.200 201.580 C 247.200 201.977,247.458 202.517,247.774 202.779 C 248.090 203.041,248.462 203.770,248.600 204.400 C 248.738 205.030,249.110 205.759,249.426 206.021 C 249.742 206.283,250.000 206.814,250.000 207.200 C 250.000 207.586,250.270 208.126,250.600 208.400 C 250.930 208.674,251.200 209.208,251.200 209.588 C 251.200 209.967,251.560 210.693,252.000 211.200 C 252.440 211.707,252.800 212.444,252.800 212.838 C 252.800 213.231,252.954 213.648,253.143 213.765 C 253.331 213.881,260.216 227.437,268.443 243.888 L 283.400 273.800 283.400 276.713 L 283.400 279.625 281.627 281.313 L 279.853 283.000 178.558 283.102 L 77.262 283.205 75.860 282.302 C 74.944 281.713,74.102 280.636,73.436 279.200 C 72.744 277.709,72.413 277.293,72.408 277.908 C 72.396 279.274,74.155 281.783,75.874 282.852 L 77.400 283.800 177.800 283.800 C 233.020 283.800,278.677 283.666,279.261 283.502 C 283.337 282.358,286.027 277.371,284.443 273.894 C 283.979 272.877,283.600 271.876,283.600 271.671 C 283.600 271.466,283.330 271.074,283.000 270.800 C 282.670 270.526,282.400 269.977,282.400 269.580 C 282.400 269.182,282.154 268.611,281.853 268.310 C 281.552 268.009,281.171 267.321,281.005 266.781 C 280.840 266.242,280.481 265.530,280.206 265.200 C 279.932 264.870,279.590 264.105,279.446 263.500 C 279.302 262.895,279.008 262.400,278.792 262.400 C 278.577 262.400,278.400 262.064,278.400 261.654 C 278.400 261.244,278.040 260.450,277.600 259.891 C 277.160 259.331,276.800 258.609,276.800 258.286 C 276.800 257.963,276.530 257.474,276.200 257.200 C 275.870 256.926,275.600 256.388,275.600 256.005 C 275.600 255.622,275.240 254.850,274.800 254.291 C 274.360 253.731,274.000 253.009,274.000 252.686 C 274.000 252.363,273.730 251.874,273.400 251.600 C 273.070 251.326,272.800 250.788,272.800 250.405 C 272.800 250.022,272.440 249.250,272.000 248.691 C 271.560 248.131,271.200 247.409,271.200 247.086 C 271.200 246.763,270.930 246.274,270.600 246.000 C 270.270 245.726,270.000 245.188,270.000 244.805 C 270.000 244.422,269.640 243.650,269.200 243.091 C 268.760 242.531,268.400 241.809,268.400 241.486 C 268.400 241.163,268.130 240.674,267.800 240.400 C 267.470 240.126,267.200 239.592,267.200 239.212 C 267.200 238.833,266.840 238.107,266.400 237.600 C 265.960 237.093,265.600 236.367,265.600 235.988 C 265.600 235.608,265.330 235.074,265.000 234.800 C 264.670 234.526,264.400 233.977,264.400 233.580 C 264.400 233.182,264.139 232.596,263.820 232.277 C 263.501 231.958,263.123 231.232,262.981 230.665 C 262.838 230.097,262.469 229.423,262.161 229.167 C 261.852 228.911,261.600 228.377,261.600 227.980 C 261.600 227.582,261.339 226.996,261.020 226.677 C 260.701 226.358,260.323 225.632,260.181 225.065 C 260.038 224.497,259.669 223.823,259.361 223.567 C 259.052 223.311,258.800 222.777,258.800 222.380 C 258.800 221.982,258.554 221.411,258.253 221.110 C 257.952 220.809,257.571 220.121,257.405 219.581 C 257.240 219.042,256.881 218.330,256.606 218.000 C 256.332 217.670,255.990 216.905,255.846 216.300 C 255.702 215.695,255.408 215.200,255.192 215.200 C 254.977 215.200,254.800 214.954,254.800 214.654 C 254.800 214.354,254.467 213.679,254.061 213.154 C 253.655 212.629,253.201 211.705,253.053 211.100 C 252.906 210.495,252.608 210.000,252.392 210.000 C 252.177 210.000,251.988 209.685,251.973 209.300 C 251.959 208.915,251.420 207.700,250.775 206.600 C 250.131 205.500,249.497 204.330,249.366 204.000 C 249.114 203.360,247.370 199.800,246.819 198.800 C 246.638 198.470,246.008 197.210,245.419 196.000 C 244.831 194.790,244.201 193.530,244.019 193.200 C 243.838 192.870,243.208 191.610,242.619 190.400 C 242.031 189.190,241.401 187.930,241.219 187.600 C 241.037 187.270,240.415 186.010,239.837 184.800 C 239.259 183.590,238.629 182.330,238.437 182.000 C 238.245 181.670,237.615 180.410,237.037 179.200 C 236.459 177.990,235.829 176.730,235.637 176.400 C 235.445 176.070,234.815 174.810,234.237 173.600 C 233.659 172.390,233.029 171.130,232.838 170.800 C 232.646 170.470,232.008 169.210,231.419 168.000 C 230.831 166.790,230.192 165.530,229.999 165.200 C 229.807 164.870,229.188 163.575,228.624 162.323 C 228.060 161.071,227.419 159.935,227.199 159.800 C 226.980 159.664,226.800 159.216,226.800 158.805 C 226.800 158.394,226.530 157.787,226.200 157.457 C 225.870 157.127,225.588 156.619,225.573 156.329 C 225.559 156.038,225.020 154.900,224.375 153.800 C 223.731 152.700,223.097 151.530,222.966 151.200 C 222.714 150.560,220.970 147.000,220.419 146.000 C 220.238 145.670,219.608 144.410,219.019 143.200 C 218.431 141.990,217.801 140.730,217.619 140.400 C 217.438 140.070,216.808 138.810,216.219 137.600 C 215.631 136.390,214.998 135.130,214.812 134.800 C 214.627 134.470,213.366 131.950,212.010 129.200 C 210.654 126.450,209.397 123.930,209.217 123.600 C 209.037 123.270,208.396 121.961,207.793 120.691 C 207.189 119.422,206.539 118.286,206.348 118.168 C 206.157 118.050,206.000 117.647,206.000 117.273 C 206.000 116.899,205.669 116.386,205.265 116.133 C 204.860 115.881,201.845 110.302,198.565 103.737 C 195.284 97.172,192.465 91.740,192.300 91.667 C 192.135 91.593,192.000 91.340,192.000 91.103 C 192.000 90.443,185.016 76.660,183.954 75.223 C 182.117 72.738,178.150 71.784,175.178 73.113 M177.062 97.531 C 176.698 97.934,176.400 98.432,176.400 98.639 C 176.400 98.846,175.862 100.002,175.205 101.208 C 174.548 102.414,173.899 103.670,173.763 104.000 C 173.132 105.532,169.897 111.842,169.568 112.180 C 169.366 112.389,169.200 112.862,169.200 113.231 C 169.200 113.600,168.942 114.117,168.626 114.379 C 168.310 114.641,167.938 115.370,167.800 116.000 C 167.662 116.630,167.290 117.359,166.974 117.621 C 166.658 117.883,166.400 118.377,166.400 118.717 C 166.400 119.058,166.166 119.621,165.880 119.969 C 165.595 120.316,164.928 121.590,164.400 122.800 C 163.872 124.010,163.227 125.270,162.967 125.600 C 162.707 125.930,162.359 126.650,162.193 127.200 C 162.028 127.750,161.781 128.290,161.646 128.400 C 161.511 128.510,160.622 130.220,159.671 132.200 C 158.721 134.180,157.785 136.070,157.591 136.400 C 157.062 137.303,155.697 140.068,155.222 141.200 C 154.991 141.750,154.621 142.515,154.401 142.900 C 153.683 144.154,153.268 144.965,152.200 147.200 C 151.622 148.410,150.994 149.670,150.803 150.000 C 150.612 150.330,149.624 152.310,148.607 154.400 C 147.590 156.490,146.596 158.470,146.399 158.800 C 145.886 159.656,144.516 162.423,144.022 163.600 C 143.791 164.150,143.421 164.915,143.201 165.300 C 142.980 165.685,142.619 166.315,142.397 166.700 C 142.176 167.085,141.893 167.670,141.768 168.000 C 141.644 168.330,141.375 168.915,141.171 169.300 C 140.967 169.685,140.592 170.405,140.338 170.900 C 140.084 171.395,139.736 172.070,139.566 172.400 C 139.396 172.730,138.155 175.250,136.807 178.000 C 135.460 180.750,134.196 183.270,133.999 183.600 C 133.485 184.457,132.115 187.224,131.622 188.400 C 131.391 188.950,131.021 189.715,130.801 190.100 C 130.580 190.485,130.220 191.115,129.999 191.500 C 129.779 191.885,129.419 192.650,129.199 193.200 C 128.980 193.750,128.619 194.470,128.398 194.800 C 128.176 195.130,127.893 195.670,127.769 196.000 C 127.644 196.330,127.387 196.870,127.197 197.200 C 127.006 197.530,126.378 198.790,125.800 200.000 C 125.222 201.210,124.581 202.470,124.374 202.800 C 124.167 203.130,123.819 203.850,123.599 204.400 C 123.380 204.950,123.029 205.670,122.820 206.000 C 122.333 206.768,120.965 209.505,120.422 210.800 C 120.191 211.350,119.821 212.115,119.601 212.500 C 119.380 212.885,119.020 213.515,118.799 213.900 C 118.579 214.285,118.219 215.050,117.999 215.600 C 117.780 216.150,117.419 216.870,117.198 217.200 C 116.976 217.530,116.693 218.070,116.569 218.400 C 116.444 218.730,116.190 219.270,116.005 219.600 C 114.931 221.510,112.000 227.615,112.000 227.944 C 112.000 228.158,111.865 228.393,111.700 228.467 C 111.535 228.540,110.622 230.220,109.671 232.200 C 108.721 234.180,107.785 236.070,107.591 236.400 C 107.062 237.303,105.697 240.068,105.222 241.200 C 104.991 241.750,104.593 242.560,104.338 243.000 C 103.693 244.112,103.403 244.682,102.200 247.200 C 101.622 248.410,100.994 249.670,100.803 250.000 C 100.612 250.330,99.624 252.310,98.607 254.400 C 97.590 256.490,96.596 258.470,96.399 258.800 C 95.931 259.580,94.562 262.324,94.004 263.600 C 93.435 264.898,92.698 266.159,92.054 266.935 C 91.770 267.277,91.597 267.971,91.669 268.478 L 91.800 269.400 177.200 269.509 C 224.170 269.569,263.012 269.519,263.516 269.398 C 264.522 269.155,264.459 266.890,263.411 265.600 C 263.143 265.270,262.523 264.100,262.033 263.000 C 261.544 261.900,260.987 260.730,260.797 260.400 C 260.362 259.647,258.556 256.003,258.219 255.200 C 258.081 254.870,257.353 253.520,256.602 252.200 C 255.022 249.426,196.924 133.204,195.615 130.200 C 195.136 129.100,194.591 127.930,194.404 127.600 C 193.180 125.436,187.600 114.022,187.600 113.683 C 187.600 113.454,187.457 113.207,187.282 113.133 C 187.106 113.060,186.192 111.380,185.249 109.400 C 184.307 107.420,183.377 105.530,183.183 105.200 C 182.990 104.870,181.969 102.846,180.916 100.702 C 178.928 96.658,178.312 96.151,177.062 97.531 M180.405 100.800 C 180.960 102.037,186.717 113.576,187.191 114.400 C 187.381 114.730,188.281 116.530,189.191 118.400 C 190.101 120.270,191.006 122.070,191.202 122.400 C 193.238 125.826,196.347 133.005,196.964 135.700 C 197.102 136.305,197.378 136.800,197.576 136.800 C 197.774 136.800,198.052 137.328,198.194 137.972 C 198.336 138.617,198.710 139.359,199.026 139.621 C 199.342 139.883,199.600 140.414,199.600 140.800 C 199.600 141.186,199.858 141.717,200.174 141.979 C 200.490 142.241,200.862 142.970,201.000 143.600 C 201.138 144.230,201.510 144.959,201.826 145.221 C 202.142 145.483,202.400 146.014,202.400 146.400 C 202.400 146.786,202.658 147.317,202.974 147.579 C 203.290 147.841,203.662 148.570,203.800 149.200 C 203.938 149.830,204.310 150.559,204.626 150.821 C 204.942 151.083,205.200 151.614,205.200 152.000 C 205.200 152.386,205.470 152.926,205.800 153.200 C 206.130 153.474,206.400 154.008,206.400 154.388 C 206.400 154.767,206.760 155.493,207.200 156.000 C 207.640 156.507,208.000 157.233,208.000 157.612 C 208.000 157.992,208.270 158.526,208.600 158.800 C 208.930 159.074,209.200 159.623,209.200 160.020 C 209.200 160.418,209.461 161.004,209.780 161.323 C 210.099 161.642,210.483 162.390,210.632 162.984 C 210.781 163.578,211.150 164.159,211.451 164.275 C 211.753 164.391,212.000 164.903,212.000 165.414 C 212.000 165.925,212.261 166.604,212.580 166.923 C 212.899 167.242,213.283 167.990,213.432 168.584 C 213.581 169.178,213.950 169.759,214.251 169.875 C 214.553 169.991,214.800 170.503,214.800 171.014 C 214.800 171.525,215.061 172.204,215.380 172.523 C 215.699 172.842,216.083 173.590,216.232 174.184 C 216.381 174.778,216.750 175.359,217.051 175.475 C 217.353 175.591,217.600 176.103,217.600 176.614 C 217.600 177.125,217.861 177.804,218.180 178.123 C 218.499 178.442,218.883 179.190,219.032 179.784 C 219.181 180.378,219.550 180.959,219.851 181.075 C 220.153 181.191,220.400 181.694,220.400 182.194 C 220.400 182.693,220.658 183.317,220.974 183.579 C 221.290 183.841,221.667 184.595,221.812 185.255 C 221.957 185.914,222.328 186.551,222.638 186.670 C 222.947 186.788,223.200 187.303,223.200 187.814 C 223.200 188.325,223.461 189.004,223.780 189.323 C 224.099 189.642,224.477 190.368,224.619 190.935 C 224.762 191.503,225.131 192.177,225.439 192.433 C 225.748 192.689,226.000 193.214,226.000 193.600 C 226.000 193.986,226.258 194.517,226.574 194.779 C 226.890 195.041,227.262 195.770,227.400 196.400 C 227.538 197.030,227.910 197.759,228.226 198.021 C 228.542 198.283,228.800 198.814,228.800 199.200 C 228.800 199.586,229.052 200.111,229.361 200.367 C 229.669 200.623,230.038 201.297,230.181 201.865 C 230.323 202.432,230.701 203.158,231.020 203.477 C 231.339 203.796,231.600 204.382,231.600 204.780 C 231.600 205.177,231.870 205.726,232.200 206.000 C 232.530 206.274,232.800 206.808,232.800 207.188 C 232.800 207.567,233.160 208.293,233.600 208.800 C 234.040 209.307,234.400 210.033,234.400 210.412 C 234.400 210.792,234.670 211.326,235.000 211.600 C 235.330 211.874,235.600 212.423,235.600 212.820 C 235.600 213.218,235.861 213.804,236.180 214.123 C 236.499 214.442,236.883 215.190,237.032 215.784 C 237.181 216.378,237.550 216.959,237.851 217.075 C 238.153 217.191,238.400 217.703,238.400 218.214 C 238.400 218.725,238.661 219.404,238.980 219.723 C 239.299 220.042,239.683 220.790,239.832 221.384 C 239.981 221.978,240.350 222.559,240.651 222.675 C 240.953 222.791,241.200 223.303,241.200 223.814 C 241.200 224.325,241.461 225.004,241.780 225.323 C 242.099 225.642,242.483 226.390,242.632 226.984 C 242.781 227.578,243.150 228.159,243.451 228.275 C 243.753 228.391,244.000 228.894,244.000 229.394 C 244.000 229.893,244.258 230.517,244.574 230.779 C 244.890 231.041,245.267 231.795,245.412 232.455 C 245.557 233.114,245.928 233.751,246.238 233.870 C 246.547 233.988,246.800 234.503,246.800 235.014 C 246.800 235.525,247.061 236.204,247.380 236.523 C 247.699 236.842,248.077 237.568,248.219 238.135 C 248.362 238.703,248.731 239.377,249.039 239.633 C 249.348 239.889,249.600 240.414,249.600 240.800 C 249.600 241.186,249.858 241.717,250.174 241.979 C 250.490 242.241,250.862 242.970,251.000 243.600 C 251.138 244.230,251.510 244.959,251.826 245.221 C 252.142 245.483,252.400 246.014,252.400 246.400 C 252.400 246.786,252.658 247.317,252.974 247.579 C 253.290 247.841,253.662 248.570,253.800 249.200 C 253.938 249.830,254.310 250.559,254.626 250.821 C 254.942 251.083,255.200 251.625,255.200 252.025 C 255.200 252.425,255.350 252.846,255.534 252.959 C 255.718 253.073,257.113 255.648,258.634 258.683 C 260.155 261.717,261.535 264.260,261.700 264.333 C 261.865 264.407,262.001 264.677,262.002 264.933 C 262.004 265.190,262.257 265.882,262.564 266.472 C 262.872 267.061,263.020 267.646,262.895 267.772 C 262.769 267.897,232.929 268.000,196.582 268.000 C 138.745 268.000,130.318 268.075,129.062 268.600 C 127.530 269.240,92.000 269.541,92.000 268.913 C 92.000 268.669,101.416 249.732,102.399 248.000 C 102.586 247.670,105.109 242.630,108.006 236.800 C 113.067 226.615,113.715 225.330,114.464 224.000 C 114.650 223.670,114.993 222.950,115.227 222.400 C 115.626 221.461,125.272 202.100,125.988 200.800 C 126.170 200.470,127.100 198.580,128.056 196.600 C 129.011 194.620,129.929 192.940,130.096 192.867 C 130.263 192.793,130.400 192.546,130.400 192.317 C 130.400 191.973,136.057 180.411,137.209 178.400 C 137.398 178.070,138.295 176.270,139.203 174.400 C 140.111 172.530,141.011 170.730,141.204 170.400 C 141.397 170.070,143.916 165.030,146.802 159.200 C 149.689 153.370,152.205 148.330,152.395 148.000 C 152.584 147.670,155.109 142.630,158.006 136.800 C 160.903 130.970,163.408 125.930,163.573 125.600 C 163.739 125.270,164.083 124.640,164.338 124.200 C 164.593 123.760,164.990 122.950,165.221 122.400 C 165.451 121.850,166.730 119.240,168.064 116.600 C 169.397 113.960,172.005 108.791,173.860 105.113 C 178.448 96.014,178.301 96.110,180.405 100.800 " stroke="none" fill="#699779" fill-rule="evenodd"></path></g></svg>