<?xml version="1.0" encoding="utf-8"?>
<!-- Generator: Adobe Illustrator 24.3.0, SVG Export Plug-In . SVG Version: 6.00 Build 0)  -->
<svg version="1.1" id="Layer_1" xmlns="http://www.w3.org/2000/svg" xmlns:xlink="http://www.w3.org/1999/xlink" x="0px" y="0px"
	 viewBox="0 0 1024 1024" style="enable-background:new 0 0 1024 1024;" xml:space="preserve">
<style type="text/css">
	.st0{fill:#FFFFFF;}
	.st1{fill:#8247E5;}
</style>
<circle class="st0" cx="512" cy="512" r="512"/>
<path class="st1" d="M681.5,402.5c-12.3-7.1-28.2-7.1-41.8,0l-95.8,54.8l-65.1,35.7l-95.8,54.8c-12.3,7.1-28.2,7.1-41.8,0
	l-76.1-42.9c-12.3-7.1-20.9-20.2-20.9-34.5v-84.5c0-14.3,7.4-27.4,20.9-34.5l74.9-41.7c12.3-7.1,28.2-7.1,41.8,0l74.9,41.7
	c12.3,7.1,20.9,20.2,20.9,34.5v54.8l65.1-36.9v-54.8c0-14.3-7.4-27.4-20.9-34.5l-138.8-78.6c-12.3-7.1-28.2-7.1-41.8,0l-141.2,78.6
	c-13.5,7.1-20.9,20.2-20.9,34.5v158.4c0,14.3,7.4,27.4,20.9,34.5l141.2,78.6c12.3,7.1,28.2,7.1,41.8,0l95.8-53.6l65.1-36.9
	l95.8-53.6c12.3-7.1,28.2-7.1,41.8,0l74.9,41.7c12.3,7.1,20.9,20.2,20.9,34.5V637c0,14.3-7.4,27.4-20.9,34.5l-74.9,42.9
	c-12.3,7.1-28.2,7.1-41.8,0l-74.9-41.7c-12.3-7.1-20.9-20.2-20.9-34.5v-54.8l-65.1,36.9v54.8c0,14.3,7.4,27.4,20.9,34.5l141.2,78.6
	c12.3,7.1,28.2,7.1,41.8,0l141.2-78.6c12.3-7.1,20.9-20.2,20.9-34.5V516.8c0-14.3-7.4-27.4-20.9-34.5L681.5,402.5z"/>
</svg>
