<svg width="28" height="28" viewBox="0 0 28 28" fill="none" xmlns="http://www.w3.org/2000/svg">
<g opacity="0.5">
<path d="M27.5 14C27.5 21.4558 21.4558 27.5 14 27.5C6.54416 27.5 0.5 21.4558 0.5 14C0.5 6.54416 6.54416 0.5 14 0.5C21.4558 0.5 27.5 6.54416 27.5 14Z" stroke="#773CDB"/>
<path opacity="0.8" d="M18.3284 11.277C18.0147 11.0994 17.607 11.0994 17.262 11.277L14.8155 12.6385L13.1531 13.5264L10.7066 14.888C10.393 15.0655 9.98524 15.0655 9.64022 14.888L7.69557 13.8224C7.38192 13.6448 7.16236 13.3192 7.16236 12.9641V10.8626C7.16236 10.5074 7.35055 10.1818 7.69557 10.0042L9.60885 8.96829C9.9225 8.7907 10.3303 8.7907 10.6753 8.96829L12.5886 10.0042C12.9022 10.1818 13.1218 10.5074 13.1218 10.8626V12.2241L14.7841 11.3066V9.94503C14.7841 9.58985 14.596 9.26427 14.2509 9.08668L10.7066 7.13319C10.393 6.9556 9.98524 6.9556 9.64022 7.13319L6.03321 9.08668C5.68819 9.26427 5.5 9.58985 5.5 9.94503V13.8816C5.5 14.2368 5.68819 14.5624 6.03321 14.7399L9.64022 16.6934C9.95387 16.8711 10.3616 16.8711 10.7066 16.6934L13.1531 15.3615L14.8155 14.4439L17.262 13.112C17.5756 12.9345 17.9834 12.9345 18.3284 13.112L20.2417 14.148C20.5553 14.3256 20.7749 14.6511 20.7749 15.0063V17.1078C20.7749 17.463 20.5867 17.7886 20.2417 17.9662L18.3284 19.0317C18.0147 19.2093 17.607 19.2093 17.262 19.0317L15.3487 17.9957C15.035 17.8182 14.8155 17.4926 14.8155 17.1374V15.7759L13.1531 16.6934V18.055C13.1531 18.4101 13.3413 18.7357 13.6863 18.9133L17.2934 20.8668C17.607 21.0444 18.0147 21.0444 18.3598 20.8668L21.9668 18.9133C22.2804 18.7357 22.5 18.4101 22.5 18.055V14.1184C22.5 13.7632 22.3118 13.4376 21.9668 13.26L18.3284 11.277Z" fill="#773CDB"/>
</g>
</svg>
