<svg id="svg" version="1.1" xmlns="http://www.w3.org/2000/svg" xmlns:xlink="http://www.w3.org/1999/xlink" width="400" height="400.8" viewBox="0, 0, 400,400.8"><g id="svgg"><path id="path0" d="M108.975 126.121 C 108.865 126.408,108.826 128.973,108.887 131.821 L 109.000 137.000 115.600 137.224 C 125.947 137.576,127.154 138.619,129.219 148.981 C 129.534 150.562,129.804 160.436,130.023 178.381 C 130.204 193.241,130.528 206.210,130.743 207.200 C 130.959 208.190,131.347 210.170,131.606 211.600 C 134.788 229.153,144.271 241.090,158.407 245.337 C 165.493 247.466,178.658 249.547,185.300 249.588 L 187.200 249.600 187.200 264.793 L 187.200 279.986 176.900 280.093 L 166.600 280.200 166.600 285.600 L 166.600 291.000 198.511 291.102 L 230.423 291.205 230.311 285.702 L 230.200 280.200 220.219 280.093 C 212.846 280.014,210.157 279.857,209.925 279.493 C 209.529 278.868,209.510 250.748,209.906 250.174 C 210.254 249.671,215.765 248.794,218.555 248.797 C 244.865 248.833,261.793 235.119,265.952 210.400 C 267.072 203.741,267.200 200.351,267.207 177.284 C 267.218 139.115,267.747 137.642,281.600 137.207 L 288.200 137.000 288.312 131.631 C 288.396 127.604,288.296 126.181,287.912 125.937 C 286.936 125.318,265.536 125.541,262.326 126.204 C 253.224 128.084,248.420 134.114,246.058 146.624 C 245.761 148.194,245.599 154.820,245.597 165.424 C 245.594 183.210,245.077 199.535,244.356 204.600 C 241.793 222.596,234.181 232.031,219.195 235.788 C 216.888 236.366,214.349 237.011,213.554 237.220 C 211.439 237.776,210.119 237.686,209.843 236.967 C 209.209 235.317,209.586 138.071,210.229 137.429 C 210.766 136.891,212.280 136.800,220.640 136.800 L 230.423 136.800 230.311 131.300 L 230.200 125.800 198.400 125.800 L 166.600 125.800 166.600 131.400 L 166.600 137.000 176.800 137.200 L 187.000 137.400 187.102 187.700 C 187.184 228.466,187.106 238.000,186.689 238.000 C 185.518 238.000,174.634 234.718,170.874 233.232 C 162.125 229.773,156.524 222.269,153.829 210.400 C 152.145 202.984,152.000 200.278,152.000 176.199 C 152.000 140.003,150.266 132.998,140.020 127.810 C 135.966 125.757,109.664 124.326,108.975 126.121 " stroke="none" fill="#1d1d2d" fill-rule="evenodd"></path><path id="path1" d="M182.900 0.268 C 180.111 0.357,178.000 0.592,178.000 0.812 C 178.000 1.030,176.599 1.200,174.800 1.200 C 172.933 1.200,171.600 1.367,171.600 1.600 C 171.600 1.829,170.400 2.000,168.800 2.000 C 167.200 2.000,166.000 2.171,166.000 2.400 C 166.000 2.620,165.100 2.800,164.000 2.800 C 162.900 2.800,162.000 2.980,162.000 3.200 C 162.000 3.420,161.100 3.600,160.000 3.600 C 158.900 3.600,158.000 3.780,158.000 4.000 C 158.000 4.220,157.100 4.400,156.000 4.400 C 154.900 4.400,154.000 4.580,154.000 4.800 C 154.000 5.020,153.280 5.200,152.400 5.200 C 151.520 5.200,150.800 5.380,150.800 5.600 C 150.800 5.820,150.080 6.000,149.200 6.000 C 148.320 6.000,147.600 6.180,147.600 6.400 C 147.600 6.620,146.880 6.800,146.000 6.800 C 145.120 6.800,144.400 6.980,144.400 7.200 C 144.400 7.420,143.860 7.600,143.200 7.600 C 142.540 7.600,142.000 7.780,142.000 8.000 C 142.000 8.220,141.460 8.400,140.800 8.400 C 140.140 8.400,139.600 8.580,139.600 8.800 C 139.600 9.020,139.060 9.200,138.400 9.200 C 137.740 9.200,137.200 9.380,137.200 9.600 C 137.200 9.820,136.660 10.000,136.000 10.000 C 135.340 10.000,134.800 10.180,134.800 10.400 C 134.800 10.620,134.260 10.800,133.600 10.800 C 132.940 10.800,132.400 10.980,132.400 11.200 C 132.400 11.420,131.860 11.600,131.200 11.600 C 130.540 11.600,130.000 11.780,130.000 12.000 C 130.000 12.220,129.460 12.400,128.800 12.400 C 128.140 12.400,127.600 12.580,127.600 12.800 C 127.600 13.020,127.240 13.200,126.800 13.200 C 126.360 13.200,126.000 13.380,126.000 13.600 C 126.000 13.820,125.460 14.000,124.800 14.000 C 124.140 14.000,123.600 14.180,123.600 14.400 C 123.600 14.620,123.240 14.800,122.800 14.800 C 122.360 14.800,122.000 14.980,122.000 15.200 C 122.000 15.420,121.640 15.600,121.200 15.600 C 120.760 15.600,120.400 15.780,120.400 16.000 C 120.400 16.220,119.860 16.400,119.200 16.400 C 118.540 16.400,118.000 16.580,118.000 16.800 C 118.000 17.020,117.640 17.200,117.200 17.200 C 116.760 17.200,116.400 17.380,116.400 17.600 C 116.400 17.820,116.040 18.000,115.600 18.000 C 115.160 18.000,114.800 18.180,114.800 18.400 C 114.800 18.620,114.440 18.800,114.000 18.800 C 113.560 18.800,113.200 18.980,113.200 19.200 C 113.200 19.420,112.840 19.600,112.400 19.600 C 111.960 19.600,111.600 19.780,111.600 20.000 C 111.600 20.220,111.240 20.400,110.800 20.400 C 110.360 20.400,110.000 20.580,110.000 20.800 C 110.000 21.020,109.640 21.200,109.200 21.200 C 108.760 21.200,108.400 21.380,108.400 21.600 C 108.400 21.820,108.040 22.000,107.600 22.000 C 107.160 22.000,106.800 22.180,106.800 22.400 C 106.800 22.620,106.440 22.800,106.000 22.800 C 105.560 22.800,105.200 22.980,105.200 23.200 C 105.200 23.420,104.840 23.600,104.400 23.600 C 103.960 23.600,103.600 23.780,103.600 24.000 C 103.600 24.220,103.240 24.400,102.800 24.400 C 102.360 24.400,102.000 24.580,102.000 24.800 C 102.000 25.020,101.680 25.200,101.288 25.200 C 100.897 25.200,100.317 25.560,100.000 26.000 C 99.683 26.440,99.103 26.800,98.712 26.800 C 98.320 26.800,98.000 26.980,98.000 27.200 C 98.000 27.420,97.680 27.600,97.288 27.600 C 96.897 27.600,96.317 27.960,96.000 28.400 C 95.683 28.840,95.103 29.200,94.712 29.200 C 94.320 29.200,94.000 29.380,94.000 29.600 C 94.000 29.820,93.680 30.000,93.288 30.000 C 92.897 30.000,92.317 30.360,92.000 30.800 C 91.683 31.240,91.143 31.600,90.800 31.600 C 90.457 31.600,89.917 31.960,89.600 32.400 C 89.283 32.840,88.743 33.200,88.400 33.200 C 88.057 33.200,87.517 33.560,87.200 34.000 C 86.883 34.440,86.375 34.800,86.072 34.800 C 85.769 34.800,85.017 35.340,84.400 36.000 C 83.783 36.660,83.031 37.200,82.728 37.200 C 82.425 37.200,81.917 37.560,81.600 38.000 C 81.283 38.440,80.775 38.800,80.472 38.800 C 80.169 38.800,79.417 39.340,78.800 40.000 C 78.183 40.660,77.467 41.200,77.208 41.200 C 76.949 41.200,76.046 41.920,75.200 42.800 C 74.354 43.680,73.459 44.400,73.209 44.400 C 72.960 44.400,71.696 45.480,70.400 46.800 C 69.104 48.120,67.853 49.200,67.620 49.200 C 67.063 49.200,48.400 67.867,48.400 68.424 C 48.400 68.659,47.500 69.729,46.400 70.800 C 45.300 71.871,44.400 72.954,44.400 73.205 C 44.400 73.457,43.680 74.354,42.800 75.200 C 41.920 76.046,41.200 76.949,41.200 77.208 C 41.200 77.467,40.660 78.183,40.000 78.800 C 39.340 79.417,38.800 80.137,38.800 80.400 C 38.800 80.663,38.260 81.383,37.600 82.000 C 36.940 82.617,36.400 83.369,36.400 83.672 C 36.400 83.975,36.040 84.483,35.600 84.800 C 35.160 85.117,34.800 85.657,34.800 86.000 C 34.800 86.343,34.440 86.883,34.000 87.200 C 33.560 87.517,33.200 88.057,33.200 88.400 C 33.200 88.743,32.840 89.283,32.400 89.600 C 31.960 89.917,31.600 90.457,31.600 90.800 C 31.600 91.143,31.240 91.683,30.800 92.000 C 30.360 92.317,30.000 92.857,30.000 93.200 C 30.000 93.543,29.640 94.083,29.200 94.400 C 28.760 94.717,28.400 95.297,28.400 95.688 C 28.400 96.080,28.220 96.400,28.000 96.400 C 27.780 96.400,27.600 96.720,27.600 97.112 C 27.600 97.503,27.240 98.083,26.800 98.400 C 26.360 98.717,26.000 99.297,26.000 99.688 C 26.000 100.080,25.820 100.400,25.600 100.400 C 25.380 100.400,25.200 100.760,25.200 101.200 C 25.200 101.640,25.020 102.000,24.800 102.000 C 24.580 102.000,24.400 102.360,24.400 102.800 C 24.400 103.240,24.220 103.600,24.000 103.600 C 23.780 103.600,23.600 103.920,23.600 104.312 C 23.600 104.703,23.240 105.283,22.800 105.600 C 22.360 105.917,22.000 106.497,22.000 106.888 C 22.000 107.280,21.820 107.600,21.600 107.600 C 21.380 107.600,21.200 107.960,21.200 108.400 C 21.200 108.840,21.020 109.200,20.800 109.200 C 20.580 109.200,20.400 109.560,20.400 110.000 C 20.400 110.440,20.220 110.800,20.000 110.800 C 19.780 110.800,19.600 111.160,19.600 111.600 C 19.600 112.040,19.420 112.400,19.200 112.400 C 18.980 112.400,18.800 112.760,18.800 113.200 C 18.800 113.640,18.620 114.000,18.400 114.000 C 18.180 114.000,18.000 114.540,18.000 115.200 C 18.000 115.860,17.820 116.400,17.600 116.400 C 17.380 116.400,17.200 116.760,17.200 117.200 C 17.200 117.640,17.020 118.000,16.800 118.000 C 16.580 118.000,16.400 118.360,16.400 118.800 C 16.400 119.240,16.220 119.600,16.000 119.600 C 15.780 119.600,15.600 119.960,15.600 120.400 C 15.600 120.840,15.420 121.200,15.200 121.200 C 14.980 121.200,14.800 121.740,14.800 122.400 C 14.800 123.060,14.620 123.600,14.400 123.600 C 14.180 123.600,14.000 123.960,14.000 124.400 C 14.000 124.840,13.820 125.200,13.600 125.200 C 13.380 125.200,13.200 125.740,13.200 126.400 C 13.200 127.060,13.020 127.600,12.800 127.600 C 12.580 127.600,12.400 127.960,12.400 128.400 C 12.400 128.840,12.220 129.200,12.000 129.200 C 11.780 129.200,11.600 129.740,11.600 130.400 C 11.600 131.060,11.420 131.600,11.200 131.600 C 10.980 131.600,10.800 132.140,10.800 132.800 C 10.800 133.460,10.620 134.000,10.400 134.000 C 10.180 134.000,10.000 134.540,10.000 135.200 C 10.000 135.860,9.820 136.400,9.600 136.400 C 9.380 136.400,9.200 136.940,9.200 137.600 C 9.200 138.260,9.020 138.800,8.800 138.800 C 8.580 138.800,8.400 139.340,8.400 140.000 C 8.400 140.660,8.220 141.200,8.000 141.200 C 7.780 141.200,7.600 141.740,7.600 142.400 C 7.600 143.060,7.420 143.600,7.200 143.600 C 6.980 143.600,6.800 144.320,6.800 145.200 C 6.800 146.080,6.620 146.800,6.400 146.800 C 6.180 146.800,6.000 147.520,6.000 148.400 C 6.000 149.280,5.820 150.000,5.600 150.000 C 5.380 150.000,5.200 150.720,5.200 151.600 C 5.200 152.480,5.020 153.200,4.800 153.200 C 4.580 153.200,4.400 153.920,4.400 154.800 C 4.400 155.680,4.220 156.400,4.000 156.400 C 3.780 156.400,3.600 157.300,3.600 158.400 C 3.600 159.500,3.420 160.400,3.200 160.400 C 2.980 160.400,2.800 161.300,2.800 162.400 C 2.800 163.500,2.620 164.400,2.400 164.400 C 2.178 164.400,2.000 165.467,2.000 166.800 C 2.000 168.133,1.822 169.200,1.600 169.200 C 1.372 169.200,1.200 170.389,1.200 171.967 C 1.200 173.824,1.036 174.788,0.700 174.900 C -0.032 175.144,-0.032 225.656,0.700 225.900 C 1.036 226.012,1.200 226.976,1.200 228.833 C 1.200 230.411,1.372 231.600,1.600 231.600 C 1.822 231.600,2.000 232.667,2.000 234.000 C 2.000 235.333,2.178 236.400,2.400 236.400 C 2.620 236.400,2.800 237.300,2.800 238.400 C 2.800 239.500,2.980 240.400,3.200 240.400 C 3.420 240.400,3.600 241.300,3.600 242.400 C 3.600 243.500,3.780 244.400,4.000 244.400 C 4.220 244.400,4.400 245.300,4.400 246.400 C 4.400 247.500,4.580 248.400,4.800 248.400 C 5.020 248.400,5.200 249.120,5.200 250.000 C 5.200 250.880,5.380 251.600,5.600 251.600 C 5.820 251.600,6.000 252.140,6.000 252.800 C 6.000 253.460,6.180 254.000,6.400 254.000 C 6.620 254.000,6.800 254.720,6.800 255.600 C 6.800 256.480,6.980 257.200,7.200 257.200 C 7.420 257.200,7.600 257.740,7.600 258.400 C 7.600 259.060,7.780 259.600,8.000 259.600 C 8.220 259.600,8.400 260.140,8.400 260.800 C 8.400 261.460,8.580 262.000,8.800 262.000 C 9.020 262.000,9.200 262.540,9.200 263.200 C 9.200 263.860,9.380 264.400,9.600 264.400 C 9.820 264.400,10.000 264.940,10.000 265.600 C 10.000 266.260,10.180 266.800,10.400 266.800 C 10.620 266.800,10.800 267.340,10.800 268.000 C 10.800 268.660,10.980 269.200,11.200 269.200 C 11.420 269.200,11.600 269.740,11.600 270.400 C 11.600 271.060,11.780 271.600,12.000 271.600 C 12.220 271.600,12.400 271.960,12.400 272.400 C 12.400 272.840,12.580 273.200,12.800 273.200 C 13.020 273.200,13.200 273.740,13.200 274.400 C 13.200 275.060,13.380 275.600,13.600 275.600 C 13.820 275.600,14.000 275.960,14.000 276.400 C 14.000 276.840,14.180 277.200,14.400 277.200 C 14.620 277.200,14.800 277.740,14.800 278.400 C 14.800 279.060,14.980 279.600,15.200 279.600 C 15.420 279.600,15.600 279.960,15.600 280.400 C 15.600 280.840,15.780 281.200,16.000 281.200 C 16.220 281.200,16.400 281.560,16.400 282.000 C 16.400 282.440,16.580 282.800,16.800 282.800 C 17.020 282.800,17.200 283.340,17.200 284.000 C 17.200 284.660,17.380 285.200,17.600 285.200 C 17.820 285.200,18.000 285.560,18.000 286.000 C 18.000 286.440,18.180 286.800,18.400 286.800 C 18.620 286.800,18.800 287.160,18.800 287.600 C 18.800 288.040,18.980 288.400,19.200 288.400 C 19.420 288.400,19.600 288.760,19.600 289.200 C 19.600 289.640,19.780 290.000,20.000 290.000 C 20.220 290.000,20.400 290.360,20.400 290.800 C 20.400 291.240,20.580 291.600,20.800 291.600 C 21.020 291.600,21.200 291.960,21.200 292.400 C 21.200 292.840,21.380 293.200,21.600 293.200 C 21.820 293.200,22.000 293.560,22.000 294.000 C 22.000 294.440,22.180 294.800,22.400 294.800 C 22.620 294.800,22.800 295.120,22.800 295.512 C 22.800 295.903,23.160 296.483,23.600 296.800 C 24.040 297.117,24.400 297.697,24.400 298.088 C 24.400 298.480,24.580 298.800,24.800 298.800 C 25.020 298.800,25.200 299.160,25.200 299.600 C 25.200 300.040,25.380 300.400,25.600 300.400 C 25.820 300.400,26.000 300.720,26.000 301.112 C 26.000 301.503,26.360 302.083,26.800 302.400 C 27.240 302.717,27.600 303.297,27.600 303.688 C 27.600 304.080,27.780 304.400,28.000 304.400 C 28.220 304.400,28.400 304.720,28.400 305.112 C 28.400 305.503,28.760 306.083,29.200 306.400 C 29.640 306.717,30.000 307.257,30.000 307.600 C 30.000 307.943,30.360 308.483,30.800 308.800 C 31.240 309.117,31.600 309.657,31.600 310.000 C 31.600 310.343,31.960 310.883,32.400 311.200 C 32.840 311.517,33.200 312.057,33.200 312.400 C 33.200 312.743,33.560 313.283,34.000 313.600 C 34.440 313.917,34.800 314.457,34.800 314.800 C 34.800 315.143,35.160 315.683,35.600 316.000 C 36.040 316.317,36.400 316.825,36.400 317.128 C 36.400 317.431,36.940 318.183,37.600 318.800 C 38.260 319.417,38.800 320.137,38.800 320.400 C 38.800 320.663,39.340 321.383,40.000 322.000 C 40.660 322.617,41.200 323.333,41.200 323.592 C 41.200 323.851,41.920 324.754,42.800 325.600 C 43.680 326.446,44.400 327.343,44.400 327.595 C 44.400 327.846,45.300 328.929,46.400 330.000 C 47.500 331.071,48.400 332.141,48.400 332.376 C 48.400 332.933,67.063 351.600,67.620 351.600 C 67.853 351.600,69.104 352.680,70.400 354.000 C 71.696 355.320,72.963 356.400,73.217 356.400 C 73.471 356.400,74.183 356.940,74.800 357.600 C 75.417 358.260,76.133 358.800,76.392 358.800 C 76.651 358.800,77.554 359.520,78.400 360.400 C 79.246 361.280,80.182 362.000,80.480 362.000 C 80.779 362.000,81.283 362.360,81.600 362.800 C 81.917 363.240,82.425 363.600,82.728 363.600 C 83.031 363.600,83.783 364.140,84.400 364.800 C 85.017 365.460,85.769 366.000,86.072 366.000 C 86.375 366.000,86.883 366.360,87.200 366.800 C 87.517 367.240,88.057 367.600,88.400 367.600 C 88.743 367.600,89.283 367.960,89.600 368.400 C 89.917 368.840,90.497 369.200,90.888 369.200 C 91.280 369.200,91.600 369.380,91.600 369.600 C 91.600 369.820,91.920 370.000,92.312 370.000 C 92.703 370.000,93.283 370.360,93.600 370.800 C 93.917 371.240,94.457 371.600,94.800 371.600 C 95.143 371.600,95.683 371.960,96.000 372.400 C 96.317 372.840,96.897 373.200,97.288 373.200 C 97.680 373.200,98.000 373.380,98.000 373.600 C 98.000 373.820,98.360 374.000,98.800 374.000 C 99.240 374.000,99.600 374.180,99.600 374.400 C 99.600 374.620,99.920 374.800,100.312 374.800 C 100.703 374.800,101.283 375.160,101.600 375.600 C 101.917 376.040,102.497 376.400,102.888 376.400 C 103.280 376.400,103.600 376.580,103.600 376.800 C 103.600 377.020,103.960 377.200,104.400 377.200 C 104.840 377.200,105.200 377.380,105.200 377.600 C 105.200 377.820,105.560 378.000,106.000 378.000 C 106.440 378.000,106.800 378.180,106.800 378.400 C 106.800 378.620,107.160 378.800,107.600 378.800 C 108.040 378.800,108.400 378.980,108.400 379.200 C 108.400 379.420,108.760 379.600,109.200 379.600 C 109.640 379.600,110.000 379.780,110.000 380.000 C 110.000 380.220,110.360 380.400,110.800 380.400 C 111.240 380.400,111.600 380.580,111.600 380.800 C 111.600 381.020,111.960 381.200,112.400 381.200 C 112.840 381.200,113.200 381.380,113.200 381.600 C 113.200 381.820,113.560 382.000,114.000 382.000 C 114.440 382.000,114.800 382.180,114.800 382.400 C 114.800 382.620,115.160 382.800,115.600 382.800 C 116.040 382.800,116.400 382.980,116.400 383.200 C 116.400 383.420,116.760 383.600,117.200 383.600 C 117.640 383.600,118.000 383.780,118.000 384.000 C 118.000 384.220,118.540 384.400,119.200 384.400 C 119.860 384.400,120.400 384.580,120.400 384.800 C 120.400 385.020,120.760 385.200,121.200 385.200 C 121.640 385.200,122.000 385.380,122.000 385.600 C 122.000 385.820,122.360 386.000,122.800 386.000 C 123.240 386.000,123.600 386.180,123.600 386.400 C 123.600 386.620,124.140 386.800,124.800 386.800 C 125.460 386.800,126.000 386.980,126.000 387.200 C 126.000 387.420,126.360 387.600,126.800 387.600 C 127.240 387.600,127.600 387.780,127.600 388.000 C 127.600 388.220,128.140 388.400,128.800 388.400 C 129.460 388.400,130.000 388.580,130.000 388.800 C 130.000 389.020,130.540 389.200,131.200 389.200 C 131.860 389.200,132.400 389.380,132.400 389.600 C 132.400 389.820,132.940 390.000,133.600 390.000 C 134.260 390.000,134.800 390.180,134.800 390.400 C 134.800 390.620,135.340 390.800,136.000 390.800 C 136.660 390.800,137.200 390.980,137.200 391.200 C 137.200 391.420,137.740 391.600,138.400 391.600 C 139.060 391.600,139.600 391.780,139.600 392.000 C 139.600 392.220,140.140 392.400,140.800 392.400 C 141.460 392.400,142.000 392.580,142.000 392.800 C 142.000 393.020,142.720 393.200,143.600 393.200 C 144.480 393.200,145.200 393.380,145.200 393.600 C 145.200 393.820,145.740 394.000,146.400 394.000 C 147.060 394.000,147.600 394.180,147.600 394.400 C 147.600 394.620,148.320 394.800,149.200 394.800 C 150.080 394.800,150.800 394.980,150.800 395.200 C 150.800 395.420,151.520 395.600,152.400 395.600 C 153.280 395.600,154.000 395.780,154.000 396.000 C 154.000 396.220,154.900 396.400,156.000 396.400 C 157.100 396.400,158.000 396.580,158.000 396.800 C 158.000 397.020,158.900 397.200,160.000 397.200 C 161.100 397.200,162.000 397.380,162.000 397.600 C 162.000 397.820,162.900 398.000,164.000 398.000 C 165.100 398.000,166.000 398.180,166.000 398.400 C 166.000 398.629,167.200 398.800,168.800 398.800 C 170.400 398.800,171.600 398.971,171.600 399.200 C 171.600 399.433,172.922 399.600,174.767 399.600 C 176.944 399.600,177.985 399.756,178.100 400.100 C 178.344 400.831,221.656 400.831,221.900 400.100 C 222.015 399.756,223.056 399.600,225.233 399.600 C 227.078 399.600,228.400 399.433,228.400 399.200 C 228.400 398.971,229.600 398.800,231.200 398.800 C 232.800 398.800,234.000 398.629,234.000 398.400 C 234.000 398.180,234.900 398.000,236.000 398.000 C 237.100 398.000,238.000 397.820,238.000 397.600 C 238.000 397.380,238.900 397.200,240.000 397.200 C 241.100 397.200,242.000 397.020,242.000 396.800 C 242.000 396.580,242.900 396.400,244.000 396.400 C 245.100 396.400,246.000 396.220,246.000 396.000 C 246.000 395.780,246.720 395.600,247.600 395.600 C 248.480 395.600,249.200 395.420,249.200 395.200 C 249.200 394.980,249.920 394.800,250.800 394.800 C 251.680 394.800,252.400 394.620,252.400 394.400 C 252.400 394.180,253.120 394.000,254.000 394.000 C 254.880 394.000,255.600 393.820,255.600 393.600 C 255.600 393.380,256.140 393.200,256.800 393.200 C 257.460 393.200,258.000 393.020,258.000 392.800 C 258.000 392.580,258.540 392.400,259.200 392.400 C 259.860 392.400,260.400 392.220,260.400 392.000 C 260.400 391.780,260.940 391.600,261.600 391.600 C 262.260 391.600,262.800 391.420,262.800 391.200 C 262.800 390.980,263.340 390.800,264.000 390.800 C 264.660 390.800,265.200 390.620,265.200 390.400 C 265.200 390.180,265.740 390.000,266.400 390.000 C 267.060 390.000,267.600 389.820,267.600 389.600 C 267.600 389.380,268.140 389.200,268.800 389.200 C 269.460 389.200,270.000 389.020,270.000 388.800 C 270.000 388.580,270.540 388.400,271.200 388.400 C 271.860 388.400,272.400 388.220,272.400 388.000 C 272.400 387.780,272.760 387.600,273.200 387.600 C 273.640 387.600,274.000 387.420,274.000 387.200 C 274.000 386.980,274.540 386.800,275.200 386.800 C 275.860 386.800,276.400 386.620,276.400 386.400 C 276.400 386.180,276.760 386.000,277.200 386.000 C 277.640 386.000,278.000 385.820,278.000 385.600 C 278.000 385.380,278.360 385.200,278.800 385.200 C 279.240 385.200,279.600 385.020,279.600 384.800 C 279.600 384.580,280.140 384.400,280.800 384.400 C 281.460 384.400,282.000 384.220,282.000 384.000 C 282.000 383.780,282.360 383.600,282.800 383.600 C 283.240 383.600,283.600 383.420,283.600 383.200 C 283.600 382.980,283.960 382.800,284.400 382.800 C 284.840 382.800,285.200 382.620,285.200 382.400 C 285.200 382.180,285.560 382.000,286.000 382.000 C 286.440 382.000,286.800 381.820,286.800 381.600 C 286.800 381.380,287.160 381.200,287.600 381.200 C 288.040 381.200,288.400 381.020,288.400 380.800 C 288.400 380.580,288.760 380.400,289.200 380.400 C 289.640 380.400,290.000 380.220,290.000 380.000 C 290.000 379.780,290.360 379.600,290.800 379.600 C 291.240 379.600,291.600 379.420,291.600 379.200 C 291.600 378.980,291.960 378.800,292.400 378.800 C 292.840 378.800,293.200 378.620,293.200 378.400 C 293.200 378.180,293.560 378.000,294.000 378.000 C 294.440 378.000,294.800 377.820,294.800 377.600 C 294.800 377.380,295.160 377.200,295.600 377.200 C 296.040 377.200,296.400 377.020,296.400 376.800 C 296.400 376.580,296.760 376.400,297.200 376.400 C 297.640 376.400,298.000 376.220,298.000 376.000 C 298.000 375.780,298.320 375.600,298.712 375.600 C 299.103 375.600,299.683 375.240,300.000 374.800 C 300.317 374.360,300.897 374.000,301.288 374.000 C 301.680 374.000,302.000 373.820,302.000 373.600 C 302.000 373.380,302.320 373.200,302.712 373.200 C 303.103 373.200,303.683 372.840,304.000 372.400 C 304.317 371.960,304.897 371.600,305.288 371.600 C 305.680 371.600,306.000 371.420,306.000 371.200 C 306.000 370.980,306.320 370.800,306.712 370.800 C 307.103 370.800,307.683 370.440,308.000 370.000 C 308.317 369.560,308.857 369.200,309.200 369.200 C 309.543 369.200,310.083 368.840,310.400 368.400 C 310.717 367.960,311.257 367.600,311.600 367.600 C 311.943 367.600,312.483 367.240,312.800 366.800 C 313.117 366.360,313.625 366.000,313.928 366.000 C 314.231 366.000,314.983 365.460,315.600 364.800 C 316.217 364.140,316.969 363.600,317.272 363.600 C 317.575 363.600,318.083 363.240,318.400 362.800 C 318.717 362.360,319.225 362.000,319.528 362.000 C 319.831 362.000,320.583 361.460,321.200 360.800 C 321.817 360.140,322.533 359.600,322.792 359.600 C 323.051 359.600,323.954 358.880,324.800 358.000 C 325.646 357.120,326.541 356.400,326.791 356.400 C 327.040 356.400,328.304 355.320,329.600 354.000 C 330.896 352.680,332.147 351.600,332.380 351.600 C 332.937 351.600,351.600 332.933,351.600 332.376 C 351.600 332.141,352.500 331.071,353.600 330.000 C 354.700 328.929,355.600 327.846,355.600 327.595 C 355.600 327.343,356.320 326.446,357.200 325.600 C 358.080 324.754,358.800 323.851,358.800 323.592 C 358.800 323.333,359.340 322.617,360.000 322.000 C 360.660 321.383,361.200 320.663,361.200 320.400 C 361.200 320.137,361.740 319.417,362.400 318.800 C 363.060 318.183,363.600 317.431,363.600 317.128 C 363.600 316.825,363.960 316.317,364.400 316.000 C 364.840 315.683,365.200 315.143,365.200 314.800 C 365.200 314.457,365.560 313.917,366.000 313.600 C 366.440 313.283,366.800 312.743,366.800 312.400 C 366.800 312.057,367.160 311.517,367.600 311.200 C 368.040 310.883,368.400 310.343,368.400 310.000 C 368.400 309.657,368.760 309.117,369.200 308.800 C 369.640 308.483,370.000 307.943,370.000 307.600 C 370.000 307.257,370.360 306.717,370.800 306.400 C 371.240 306.083,371.600 305.503,371.600 305.112 C 371.600 304.720,371.780 304.400,372.000 304.400 C 372.220 304.400,372.400 304.080,372.400 303.688 C 372.400 303.297,372.760 302.717,373.200 302.400 C 373.640 302.083,374.000 301.503,374.000 301.112 C 374.000 300.720,374.180 300.400,374.400 300.400 C 374.620 300.400,374.800 300.040,374.800 299.600 C 374.800 299.160,374.980 298.800,375.200 298.800 C 375.420 298.800,375.600 298.440,375.600 298.000 C 375.600 297.560,375.780 297.200,376.000 297.200 C 376.220 297.200,376.400 296.880,376.400 296.488 C 376.400 296.097,376.760 295.517,377.200 295.200 C 377.640 294.883,378.000 294.303,378.000 293.912 C 378.000 293.520,378.180 293.200,378.400 293.200 C 378.620 293.200,378.800 292.840,378.800 292.400 C 378.800 291.960,378.980 291.600,379.200 291.600 C 379.420 291.600,379.600 291.240,379.600 290.800 C 379.600 290.360,379.780 290.000,380.000 290.000 C 380.220 290.000,380.400 289.640,380.400 289.200 C 380.400 288.760,380.580 288.400,380.800 288.400 C 381.020 288.400,381.200 288.040,381.200 287.600 C 381.200 287.160,381.380 286.800,381.600 286.800 C 381.820 286.800,382.000 286.260,382.000 285.600 C 382.000 284.940,382.180 284.400,382.400 284.400 C 382.620 284.400,382.800 284.040,382.800 283.600 C 382.800 283.160,382.980 282.800,383.200 282.800 C 383.420 282.800,383.600 282.440,383.600 282.000 C 383.600 281.560,383.780 281.200,384.000 281.200 C 384.220 281.200,384.400 280.840,384.400 280.400 C 384.400 279.960,384.580 279.600,384.800 279.600 C 385.020 279.600,385.200 279.060,385.200 278.400 C 385.200 277.740,385.380 277.200,385.600 277.200 C 385.820 277.200,386.000 276.840,386.000 276.400 C 386.000 275.960,386.180 275.600,386.400 275.600 C 386.620 275.600,386.800 275.060,386.800 274.400 C 386.800 273.740,386.980 273.200,387.200 273.200 C 387.420 273.200,387.600 272.840,387.600 272.400 C 387.600 271.960,387.780 271.600,388.000 271.600 C 388.220 271.600,388.400 271.060,388.400 270.400 C 388.400 269.740,388.580 269.200,388.800 269.200 C 389.020 269.200,389.200 268.660,389.200 268.000 C 389.200 267.340,389.380 266.800,389.600 266.800 C 389.820 266.800,390.000 266.260,390.000 265.600 C 390.000 264.940,390.180 264.400,390.400 264.400 C 390.620 264.400,390.800 263.860,390.800 263.200 C 390.800 262.540,390.980 262.000,391.200 262.000 C 391.420 262.000,391.600 261.460,391.600 260.800 C 391.600 260.140,391.780 259.600,392.000 259.600 C 392.220 259.600,392.400 259.060,392.400 258.400 C 392.400 257.740,392.580 257.200,392.800 257.200 C 393.020 257.200,393.200 256.480,393.200 255.600 C 393.200 254.720,393.380 254.000,393.600 254.000 C 393.820 254.000,394.000 253.280,394.000 252.400 C 394.000 251.520,394.180 250.800,394.400 250.800 C 394.620 250.800,394.800 250.080,394.800 249.200 C 394.800 248.320,394.980 247.600,395.200 247.600 C 395.420 247.600,395.600 246.880,395.600 246.000 C 395.600 245.120,395.780 244.400,396.000 244.400 C 396.220 244.400,396.400 243.500,396.400 242.400 C 396.400 241.300,396.580 240.400,396.800 240.400 C 397.020 240.400,397.200 239.500,397.200 238.400 C 397.200 237.300,397.380 236.400,397.600 236.400 C 397.822 236.400,398.000 235.333,398.000 234.000 C 398.000 232.667,398.178 231.600,398.400 231.600 C 398.628 231.600,398.800 230.411,398.800 228.833 C 398.800 226.976,398.964 226.012,399.300 225.900 C 399.693 225.769,399.800 220.311,399.800 200.400 C 399.800 180.489,399.693 175.031,399.300 174.900 C 398.964 174.788,398.800 173.824,398.800 171.967 C 398.800 170.389,398.628 169.200,398.400 169.200 C 398.178 169.200,398.000 168.133,398.000 166.800 C 398.000 165.467,397.822 164.400,397.600 164.400 C 397.380 164.400,397.200 163.500,397.200 162.400 C 397.200 161.300,397.020 160.400,396.800 160.400 C 396.580 160.400,396.400 159.500,396.400 158.400 C 396.400 157.300,396.220 156.400,396.000 156.400 C 395.780 156.400,395.600 155.500,395.600 154.400 C 395.600 153.300,395.420 152.400,395.200 152.400 C 394.980 152.400,394.800 151.680,394.800 150.800 C 394.800 149.920,394.620 149.200,394.400 149.200 C 394.180 149.200,394.000 148.660,394.000 148.000 C 394.000 147.340,393.820 146.800,393.600 146.800 C 393.380 146.800,393.200 146.080,393.200 145.200 C 393.200 144.320,393.020 143.600,392.800 143.600 C 392.580 143.600,392.400 143.060,392.400 142.400 C 392.400 141.740,392.220 141.200,392.000 141.200 C 391.780 141.200,391.600 140.660,391.600 140.000 C 391.600 139.340,391.420 138.800,391.200 138.800 C 390.980 138.800,390.800 138.260,390.800 137.600 C 390.800 136.940,390.620 136.400,390.400 136.400 C 390.180 136.400,390.000 135.860,390.000 135.200 C 390.000 134.540,389.820 134.000,389.600 134.000 C 389.380 134.000,389.200 133.460,389.200 132.800 C 389.200 132.140,389.020 131.600,388.800 131.600 C 388.580 131.600,388.400 131.060,388.400 130.400 C 388.400 129.740,388.220 129.200,388.000 129.200 C 387.780 129.200,387.600 128.840,387.600 128.400 C 387.600 127.960,387.420 127.600,387.200 127.600 C 386.980 127.600,386.800 127.060,386.800 126.400 C 386.800 125.740,386.620 125.200,386.400 125.200 C 386.180 125.200,386.000 124.840,386.000 124.400 C 386.000 123.960,385.820 123.600,385.600 123.600 C 385.380 123.600,385.200 123.060,385.200 122.400 C 385.200 121.740,385.020 121.200,384.800 121.200 C 384.580 121.200,384.400 120.840,384.400 120.400 C 384.400 119.960,384.220 119.600,384.000 119.600 C 383.780 119.600,383.600 119.240,383.600 118.800 C 383.600 118.360,383.420 118.000,383.200 118.000 C 382.980 118.000,382.800 117.460,382.800 116.800 C 382.800 116.140,382.620 115.600,382.400 115.600 C 382.180 115.600,382.000 115.240,382.000 114.800 C 382.000 114.360,381.820 114.000,381.600 114.000 C 381.380 114.000,381.200 113.640,381.200 113.200 C 381.200 112.760,381.020 112.400,380.800 112.400 C 380.580 112.400,380.400 112.040,380.400 111.600 C 380.400 111.160,380.220 110.800,380.000 110.800 C 379.780 110.800,379.600 110.440,379.600 110.000 C 379.600 109.560,379.420 109.200,379.200 109.200 C 378.980 109.200,378.800 108.840,378.800 108.400 C 378.800 107.960,378.620 107.600,378.400 107.600 C 378.180 107.600,378.000 107.240,378.000 106.800 C 378.000 106.360,377.820 106.000,377.600 106.000 C 377.380 106.000,377.200 105.680,377.200 105.288 C 377.200 104.897,376.840 104.317,376.400 104.000 C 375.960 103.683,375.600 103.103,375.600 102.712 C 375.600 102.320,375.420 102.000,375.200 102.000 C 374.980 102.000,374.800 101.640,374.800 101.200 C 374.800 100.760,374.620 100.400,374.400 100.400 C 374.180 100.400,374.000 100.080,374.000 99.688 C 374.000 99.297,373.640 98.717,373.200 98.400 C 372.760 98.083,372.400 97.503,372.400 97.112 C 372.400 96.720,372.220 96.400,372.000 96.400 C 371.780 96.400,371.600 96.080,371.600 95.688 C 371.600 95.297,371.240 94.717,370.800 94.400 C 370.360 94.083,370.000 93.543,370.000 93.200 C 370.000 92.857,369.640 92.317,369.200 92.000 C 368.760 91.683,368.400 91.143,368.400 90.800 C 368.400 90.457,368.040 89.917,367.600 89.600 C 367.160 89.283,366.800 88.743,366.800 88.400 C 366.800 88.057,366.440 87.517,366.000 87.200 C 365.560 86.883,365.200 86.343,365.200 86.000 C 365.200 85.657,364.840 85.117,364.400 84.800 C 363.960 84.483,363.600 83.975,363.600 83.672 C 363.600 83.369,363.060 82.617,362.400 82.000 C 361.740 81.383,361.200 80.663,361.200 80.400 C 361.200 80.137,360.660 79.417,360.000 78.800 C 359.340 78.183,358.800 77.467,358.800 77.208 C 358.800 76.949,358.080 76.046,357.200 75.200 C 356.320 74.354,355.600 73.457,355.600 73.205 C 355.600 72.954,354.700 71.871,353.600 70.800 C 352.500 69.729,351.600 68.659,351.600 68.424 C 351.600 67.867,332.937 49.200,332.380 49.200 C 332.147 49.200,330.896 48.120,329.600 46.800 C 328.304 45.480,327.037 44.400,326.783 44.400 C 326.529 44.400,325.817 43.860,325.200 43.200 C 324.583 42.540,323.867 42.000,323.608 42.000 C 323.349 42.000,322.446 41.280,321.600 40.400 C 320.754 39.520,319.818 38.800,319.520 38.800 C 319.221 38.800,318.717 38.440,318.400 38.000 C 318.083 37.560,317.575 37.200,317.272 37.200 C 316.969 37.200,316.217 36.660,315.600 36.000 C 314.983 35.340,314.231 34.800,313.928 34.800 C 313.625 34.800,313.117 34.440,312.800 34.000 C 312.483 33.560,311.943 33.200,311.600 33.200 C 311.257 33.200,310.717 32.840,310.400 32.400 C 310.083 31.960,309.503 31.600,309.112 31.600 C 308.720 31.600,308.400 31.420,308.400 31.200 C 308.400 30.980,308.080 30.800,307.688 30.800 C 307.297 30.800,306.717 30.440,306.400 30.000 C 306.083 29.560,305.543 29.200,305.200 29.200 C 304.857 29.200,304.317 28.840,304.000 28.400 C 303.683 27.960,303.103 27.600,302.712 27.600 C 302.320 27.600,302.000 27.420,302.000 27.200 C 302.000 26.980,301.640 26.800,301.200 26.800 C 300.760 26.800,300.400 26.620,300.400 26.400 C 300.400 26.180,300.080 26.000,299.688 26.000 C 299.297 26.000,298.717 25.640,298.400 25.200 C 298.083 24.760,297.503 24.400,297.112 24.400 C 296.720 24.400,296.400 24.220,296.400 24.000 C 296.400 23.780,296.040 23.600,295.600 23.600 C 295.160 23.600,294.800 23.420,294.800 23.200 C 294.800 22.980,294.440 22.800,294.000 22.800 C 293.560 22.800,293.200 22.620,293.200 22.400 C 293.200 22.180,292.840 22.000,292.400 22.000 C 291.960 22.000,291.600 21.820,291.600 21.600 C 291.600 21.380,291.240 21.200,290.800 21.200 C 290.360 21.200,290.000 21.020,290.000 20.800 C 290.000 20.580,289.640 20.400,289.200 20.400 C 288.760 20.400,288.400 20.220,288.400 20.000 C 288.400 19.780,288.040 19.600,287.600 19.600 C 287.160 19.600,286.800 19.420,286.800 19.200 C 286.800 18.980,286.440 18.800,286.000 18.800 C 285.560 18.800,285.200 18.620,285.200 18.400 C 285.200 18.180,284.840 18.000,284.400 18.000 C 283.960 18.000,283.600 17.820,283.600 17.600 C 283.600 17.380,283.240 17.200,282.800 17.200 C 282.360 17.200,282.000 17.020,282.000 16.800 C 282.000 16.580,281.460 16.400,280.800 16.400 C 280.140 16.400,279.600 16.220,279.600 16.000 C 279.600 15.780,279.240 15.600,278.800 15.600 C 278.360 15.600,278.000 15.420,278.000 15.200 C 278.000 14.980,277.640 14.800,277.200 14.800 C 276.760 14.800,276.400 14.620,276.400 14.400 C 276.400 14.180,275.860 14.000,275.200 14.000 C 274.540 14.000,274.000 13.820,274.000 13.600 C 274.000 13.380,273.640 13.200,273.200 13.200 C 272.760 13.200,272.400 13.020,272.400 12.800 C 272.400 12.580,271.860 12.400,271.200 12.400 C 270.540 12.400,270.000 12.220,270.000 12.000 C 270.000 11.780,269.460 11.600,268.800 11.600 C 268.140 11.600,267.600 11.420,267.600 11.200 C 267.600 10.980,267.060 10.800,266.400 10.800 C 265.740 10.800,265.200 10.620,265.200 10.400 C 265.200 10.180,264.660 10.000,264.000 10.000 C 263.340 10.000,262.800 9.820,262.800 9.600 C 262.800 9.380,262.260 9.200,261.600 9.200 C 260.940 9.200,260.400 9.020,260.400 8.800 C 260.400 8.580,259.860 8.400,259.200 8.400 C 258.540 8.400,258.000 8.220,258.000 8.000 C 258.000 7.780,257.280 7.600,256.400 7.600 C 255.520 7.600,254.800 7.420,254.800 7.200 C 254.800 6.980,254.260 6.800,253.600 6.800 C 252.940 6.800,252.400 6.620,252.400 6.400 C 252.400 6.180,251.680 6.000,250.800 6.000 C 249.920 6.000,249.200 5.820,249.200 5.600 C 249.200 5.380,248.480 5.200,247.600 5.200 C 246.720 5.200,246.000 5.020,246.000 4.800 C 246.000 4.580,245.100 4.400,244.000 4.400 C 242.900 4.400,242.000 4.220,242.000 4.000 C 242.000 3.780,241.100 3.600,240.000 3.600 C 238.900 3.600,238.000 3.420,238.000 3.200 C 238.000 2.980,237.100 2.800,236.000 2.800 C 234.900 2.800,234.000 2.620,234.000 2.400 C 234.000 2.171,232.800 2.000,231.200 2.000 C 229.600 2.000,228.400 1.829,228.400 1.600 C 228.400 1.367,227.078 1.200,225.233 1.200 C 223.346 1.200,222.009 1.028,221.924 0.773 C 221.777 0.331,192.715 -0.046,182.900 0.268 M137.578 125.993 C 144.358 128.013,148.984 133.561,150.924 142.000 C 152.519 148.938,152.525 149.046,152.609 172.400 C 152.710 200.773,152.859 203.201,155.013 211.800 C 158.268 224.789,163.807 230.509,177.026 234.533 C 184.771 236.890,185.850 237.200,186.311 237.200 C 186.694 237.200,186.800 226.404,186.800 187.607 L 186.800 138.014 176.500 137.907 L 166.200 137.800 166.200 131.600 L 166.200 125.400 198.356 125.298 C 221.780 125.223,230.660 125.318,231.056 125.647 C 231.902 126.349,231.829 136.514,230.971 137.371 C 230.434 137.909,228.921 138.000,220.571 138.000 L 210.800 138.000 210.800 187.445 L 210.800 236.889 212.300 236.617 C 228.660 233.653,237.035 227.483,241.101 215.400 C 243.930 206.994,244.381 201.578,244.395 175.800 C 244.412 144.216,245.586 137.373,252.124 130.730 C 257.020 125.755,259.708 125.142,276.000 125.286 L 289.000 125.400 289.111 131.145 C 289.254 138.513,289.784 137.998,282.051 138.009 C 273.677 138.021,272.141 138.725,270.136 143.477 C 268.398 147.593,268.356 148.279,268.004 177.600 C 267.794 195.126,267.499 206.633,267.225 208.000 C 266.983 209.210,266.585 211.190,266.341 212.400 C 263.233 227.827,255.044 239.326,243.583 244.359 C 238.782 246.467,238.705 246.493,233.800 247.621 C 229.898 248.518,223.223 249.304,214.900 249.847 L 210.800 250.115 210.800 264.857 L 210.800 279.600 220.957 279.600 C 229.850 279.600,231.145 279.679,231.357 280.233 C 231.717 281.169,231.640 290.918,231.269 291.502 C 231.016 291.900,224.210 291.983,198.575 291.902 L 166.200 291.800 166.200 285.800 L 166.200 279.800 176.500 279.693 L 186.800 279.586 186.800 265.207 C 186.800 248.465,187.316 250.000,181.691 250.000 C 176.795 250.000,169.073 248.814,160.400 246.730 C 142.794 242.498,132.650 228.417,129.621 204.000 C 129.370 201.982,129.198 191.414,129.196 178.000 C 129.192 139.390,128.703 138.020,114.949 138.006 C 107.446 137.999,107.946 138.499,108.089 131.145 L 108.200 125.400 112.600 125.149 C 121.214 124.657,134.611 125.110,137.578 125.993 " stroke="none" fill="#fbfbfb" fill-rule="evenodd"></path><path id="path2" d="M119.700 125.497 C 121.185 125.574,123.615 125.574,125.100 125.497 C 126.585 125.420,125.370 125.357,122.400 125.357 C 119.430 125.357,118.215 125.420,119.700 125.497 M108.575 126.122 C 108.464 126.409,108.426 128.884,108.489 131.622 L 108.604 136.600 108.802 131.099 C 108.997 125.678,108.970 125.091,108.575 126.122 M132.433 125.746 C 132.525 125.826,133.590 126.000,134.800 126.132 C 136.237 126.288,136.722 126.248,136.200 126.014 C 135.443 125.675,132.079 125.436,132.433 125.746 M230.321 131.199 L 230.442 136.800 220.650 136.800 C 212.281 136.800,210.766 136.891,210.229 137.429 C 209.586 138.071,209.209 235.317,209.843 236.967 C 210.112 237.668,212.071 237.785,213.400 237.180 C 213.945 236.932,213.595 236.891,212.300 237.053 L 210.400 237.291 210.400 187.445 L 210.400 137.600 220.171 137.600 C 228.595 137.600,230.031 137.512,230.583 136.960 C 231.326 136.217,231.341 125.979,230.600 125.732 C 230.342 125.646,230.243 127.590,230.321 131.199 M261.400 126.000 L 260.600 126.344 261.400 126.325 C 261.840 126.314,262.740 126.168,263.400 126.000 L 264.600 125.695 263.400 125.675 C 262.740 125.665,261.840 125.811,261.400 126.000 M287.912 125.937 C 288.296 126.181,288.396 127.604,288.312 131.631 L 288.200 137.000 282.000 137.221 L 275.800 137.442 282.200 137.421 L 288.600 137.400 288.711 131.500 C 288.813 126.070,288.765 125.600,288.111 125.606 C 287.592 125.611,287.538 125.700,287.912 125.937 M139.512 127.589 C 142.916 129.200,144.459 130.447,146.233 133.022 C 147.058 134.220,147.813 135.121,147.910 135.023 C 149.054 133.879,140.045 126.399,137.525 126.400 C 137.236 126.400,138.130 126.935,139.512 127.589 M255.578 128.350 C 252.992 130.023,250.640 132.654,249.233 135.449 C 247.449 138.993,247.737 139.136,249.597 135.631 C 251.427 132.183,253.392 130.027,256.200 128.386 C 257.300 127.744,258.010 127.214,257.778 127.209 C 257.546 127.204,256.556 127.718,255.578 128.350 M108.799 137.300 C 108.800 137.465,111.545 137.567,114.900 137.526 C 121.083 137.451,120.354 137.298,112.899 137.106 C 110.644 137.048,108.799 137.135,108.799 137.300 M166.400 137.287 C 166.400 137.445,171.071 137.625,176.781 137.687 C 182.490 137.749,187.032 137.671,186.874 137.514 C 186.497 137.137,166.399 136.914,166.400 137.287 M123.341 138.371 C 125.540 139.512,125.855 139.836,127.003 142.139 C 127.569 143.273,127.917 143.750,127.777 143.200 C 127.146 140.720,124.984 138.386,122.800 137.827 C 122.181 137.669,122.387 137.876,123.341 138.371 M271.722 139.700 C 270.427 141.062,268.784 144.002,268.823 144.884 C 268.836 145.168,269.295 144.410,269.843 143.200 C 270.392 141.990,271.407 140.415,272.099 139.700 C 272.791 138.985,273.267 138.400,273.157 138.400 C 273.047 138.400,272.401 138.985,271.722 139.700 M149.656 140.000 C 149.656 140.330,149.811 140.960,150.000 141.400 C 150.217 141.904,150.344 141.978,150.344 141.600 C 150.344 141.270,150.189 140.640,150.000 140.200 C 149.783 139.696,149.656 139.622,149.656 140.000 M246.673 141.753 C 246.523 142.145,246.411 142.766,246.425 143.133 C 246.442 143.575,246.581 143.474,246.837 142.834 C 247.049 142.303,247.161 141.682,247.085 141.454 C 247.009 141.227,246.824 141.361,246.673 141.753 M150.468 143.000 C 150.474 143.440,150.624 144.250,150.800 144.800 L 151.120 145.800 151.132 144.800 C 151.138 144.250,150.989 143.440,150.800 143.000 L 150.456 142.200 150.468 143.000 M128.056 145.000 C 128.056 145.440,128.211 146.160,128.400 146.600 L 128.744 147.400 128.744 146.600 C 128.744 146.160,128.589 145.440,128.400 145.000 L 128.056 144.200 128.056 145.000 M245.800 146.000 C 245.646 146.910,245.611 147.744,245.721 147.854 C 245.831 147.964,246.046 147.310,246.200 146.400 C 246.354 145.490,246.389 144.656,246.279 144.546 C 246.169 144.436,245.954 145.090,245.800 146.000 M268.200 146.800 C 268.048 147.491,268.014 148.147,268.124 148.257 C 268.234 148.367,268.448 147.891,268.600 147.200 C 268.752 146.509,268.786 145.853,268.676 145.743 C 268.566 145.633,268.352 146.109,268.200 146.800 M151.277 147.200 C 151.267 147.750,151.403 149.010,151.580 150.000 L 151.900 151.800 151.903 150.200 C 151.904 149.320,151.768 148.060,151.600 147.400 C 151.323 146.313,151.293 146.294,151.277 147.200 M128.863 149.200 C 128.854 149.750,128.995 150.920,129.177 151.800 L 129.508 153.400 129.514 151.800 C 129.517 150.920,129.376 149.750,129.200 149.200 L 128.880 148.200 128.863 149.200 M267.456 151.445 C 267.315 152.472,267.237 162.872,267.282 174.556 L 267.365 195.800 267.582 172.800 C 267.702 160.150,267.780 149.750,267.756 149.689 C 267.732 149.628,267.597 150.418,267.456 151.445 M245.100 152.359 C 244.935 153.766,244.827 164.296,244.861 175.759 C 244.913 193.564,244.971 195.464,245.258 188.800 C 245.666 179.329,245.533 148.664,245.100 152.359 M152.161 161.600 C 152.161 165.010,152.222 166.405,152.297 164.700 C 152.372 162.995,152.372 160.205,152.297 158.500 C 152.222 156.795,152.161 158.190,152.161 161.600 M129.700 180.600 C 129.677 191.820,129.781 201.810,129.930 202.800 C 130.184 204.496,130.118 165.225,129.860 161.800 C 129.794 160.920,129.722 169.380,129.700 180.600 M152.055 193.000 C 152.050 196.960,152.186 200.920,152.358 201.800 C 152.529 202.680,152.594 199.620,152.502 195.000 C 152.292 184.506,152.066 183.493,152.055 193.000 M244.240 202.131 C 244.069 203.634,244.021 204.954,244.132 205.065 C 244.411 205.344,244.917 201.081,244.715 200.153 C 244.625 199.739,244.411 200.629,244.240 202.131 M266.640 205.331 C 266.469 206.834,266.421 208.154,266.532 208.265 C 266.811 208.544,267.317 204.281,267.115 203.353 C 267.025 202.939,266.811 203.829,266.640 205.331 M152.875 205.400 C 152.886 205.840,153.032 206.740,153.200 207.400 L 153.505 208.600 153.525 207.400 C 153.535 206.740,153.389 205.840,153.200 205.400 L 152.856 204.600 152.875 205.400 M130.487 207.200 C 130.483 207.970,130.624 209.050,130.800 209.600 C 131.248 210.999,131.248 208.761,130.800 207.000 L 130.495 205.800 130.487 207.200 M243.400 208.000 C 243.246 208.910,243.211 209.744,243.321 209.854 C 243.431 209.964,243.646 209.310,243.800 208.400 C 243.954 207.490,243.989 206.656,243.879 206.546 C 243.769 206.436,243.554 207.090,243.400 208.000 M153.668 209.600 C 153.688 210.639,154.318 212.346,154.332 211.400 C 154.338 210.960,154.189 210.240,154.000 209.800 C 153.789 209.310,153.661 209.232,153.668 209.600 M265.822 211.022 C 265.672 211.825,265.628 212.562,265.726 212.660 C 265.824 212.757,266.027 212.181,266.178 211.378 C 266.328 210.575,266.372 209.838,266.274 209.740 C 266.176 209.643,265.973 210.219,265.822 211.022 M131.268 211.600 C 131.262 212.150,131.411 212.960,131.600 213.400 L 131.944 214.200 131.932 213.400 C 131.926 212.960,131.776 212.150,131.600 211.600 L 131.280 210.600 131.268 211.600 M242.629 211.829 C 242.481 212.415,242.438 212.972,242.532 213.066 C 242.627 213.160,242.824 212.758,242.971 212.171 C 243.119 211.585,243.162 211.028,243.068 210.934 C 242.973 210.840,242.776 211.242,242.629 211.829 M154.456 212.800 C 154.456 213.130,154.611 213.760,154.800 214.200 C 155.017 214.704,155.144 214.778,155.144 214.400 C 155.144 214.070,154.989 213.440,154.800 213.000 C 154.583 212.496,154.456 212.422,154.456 212.800 M241.637 215.233 C 241.367 216.134,240.353 218.430,239.383 220.336 C 238.413 222.241,237.899 223.440,238.242 223.000 C 239.643 221.200,242.741 214.207,242.322 213.789 C 242.215 213.682,241.907 214.332,241.637 215.233 M265.029 214.629 C 264.881 215.215,264.838 215.772,264.932 215.866 C 265.027 215.960,265.224 215.558,265.371 214.971 C 265.519 214.385,265.562 213.828,265.468 213.734 C 265.373 213.640,265.176 214.042,265.029 214.629 M132.056 215.200 C 132.056 215.530,132.211 216.160,132.400 216.600 C 132.617 217.104,132.744 217.178,132.744 216.800 C 132.744 216.470,132.589 215.840,132.400 215.400 C 132.183 214.896,132.056 214.822,132.056 215.200 M155.453 216.000 C 155.881 217.686,156.412 218.921,156.620 218.714 C 156.728 218.605,156.453 217.725,156.008 216.758 C 155.563 215.791,155.313 215.450,155.453 216.000 M264.229 217.429 C 264.081 218.015,264.051 218.584,264.161 218.694 C 264.271 218.804,264.481 218.415,264.629 217.829 C 264.776 217.242,264.806 216.673,264.696 216.563 C 264.586 216.453,264.376 216.842,264.229 217.429 M156.800 219.353 C 156.800 219.782,157.990 222.000,158.221 222.000 C 158.331 222.000,158.123 221.415,157.759 220.700 C 157.017 219.240,156.800 218.936,156.800 219.353 M159.083 223.569 C 160.592 226.448,168.024 232.816,169.852 232.796 C 170.044 232.794,169.390 232.317,168.400 231.736 C 164.881 229.670,161.688 226.738,159.083 223.180 C 158.393 222.238,158.393 222.253,159.083 223.569 M235.647 225.944 C 234.752 227.013,232.980 228.668,231.710 229.623 C 228.722 231.867,228.289 232.290,229.935 231.357 C 231.620 230.402,235.715 226.724,236.818 225.175 C 238.116 223.352,237.452 223.788,235.647 225.944 M136.000 226.153 C 136.000 226.582,137.190 228.800,137.421 228.800 C 137.531 228.800,137.323 228.215,136.959 227.500 C 136.217 226.040,136.000 225.736,136.000 226.153 M259.387 229.082 C 256.927 233.330,252.559 238.024,248.651 240.619 C 247.406 241.445,246.459 242.192,246.546 242.279 C 246.864 242.597,250.671 239.740,253.459 237.092 C 256.074 234.608,261.127 227.794,260.684 227.350 C 260.581 227.248,259.997 228.027,259.387 229.082 M138.466 230.832 C 141.448 236.138,152.104 244.800,155.650 244.800 C 155.940 244.800,154.879 244.178,153.292 243.417 C 147.557 240.669,142.302 236.136,139.244 231.300 C 137.672 228.813,137.157 228.504,138.466 230.832 M226.800 232.800 C 226.030 233.222,225.544 233.574,225.720 233.583 C 226.144 233.605,228.400 232.432,228.400 232.190 C 228.400 231.928,228.377 231.937,226.800 232.800 M172.800 234.000 C 173.130 234.213,173.670 234.388,174.000 234.388 C 174.533 234.388,174.533 234.345,174.000 234.000 C 173.670 233.787,173.130 233.612,172.800 233.612 C 172.267 233.612,172.267 233.655,172.800 234.000 M223.000 234.429 C 222.120 234.852,221.850 235.085,222.400 234.946 C 223.926 234.560,225.200 234.044,225.200 233.810 C 225.200 233.471,224.699 233.612,223.000 234.429 M175.200 234.800 C 175.530 235.013,176.070 235.188,176.400 235.188 C 176.933 235.188,176.933 235.145,176.400 234.800 C 176.070 234.587,175.530 234.412,175.200 234.412 C 174.667 234.412,174.667 234.455,175.200 234.800 M177.800 235.600 C 178.240 235.789,178.870 235.944,179.200 235.944 C 179.578 235.944,179.504 235.817,179.000 235.600 C 178.560 235.411,177.930 235.256,177.600 235.256 C 177.222 235.256,177.296 235.383,177.800 235.600 M219.000 235.600 C 218.496 235.817,218.422 235.944,218.800 235.944 C 219.130 235.944,219.760 235.789,220.200 235.600 C 220.704 235.383,220.778 235.256,220.400 235.256 C 220.070 235.256,219.440 235.411,219.000 235.600 M180.600 236.400 C 181.040 236.589,181.670 236.744,182.000 236.744 C 182.378 236.744,182.304 236.617,181.800 236.400 C 181.360 236.211,180.730 236.056,180.400 236.056 C 180.022 236.056,180.096 236.183,180.600 236.400 M215.400 236.400 L 214.600 236.744 215.400 236.744 C 215.840 236.744,216.560 236.589,217.000 236.400 L 217.800 236.056 217.000 236.056 C 216.560 236.056,215.840 236.211,215.400 236.400 M183.400 237.200 C 183.840 237.389,184.470 237.544,184.800 237.544 C 185.178 237.544,185.104 237.417,184.600 237.200 C 184.160 237.011,183.530 236.856,183.200 236.856 C 182.822 236.856,182.896 236.983,183.400 237.200 M159.400 246.000 C 159.840 246.189,160.470 246.344,160.800 246.344 C 161.178 246.344,161.104 246.217,160.600 246.000 C 160.160 245.811,159.530 245.656,159.200 245.656 C 158.822 245.656,158.896 245.783,159.400 246.000 M237.000 246.000 L 236.200 246.344 237.000 246.366 C 237.440 246.378,238.070 246.213,238.400 246.000 C 239.195 245.486,238.196 245.486,237.000 246.000 M162.600 246.800 C 163.040 246.989,163.760 247.138,164.200 247.132 C 164.843 247.123,164.804 247.057,164.000 246.800 C 162.632 246.362,161.581 246.362,162.600 246.800 M234.000 246.800 C 233.196 247.057,233.157 247.123,233.800 247.132 C 234.240 247.138,234.960 246.989,235.400 246.800 C 236.419 246.362,235.368 246.362,234.000 246.800 M166.200 247.600 C 166.640 247.789,167.450 247.938,168.000 247.932 L 169.000 247.920 168.000 247.600 C 167.450 247.424,166.640 247.274,166.200 247.268 L 165.400 247.256 166.200 247.600 M229.800 247.600 L 228.600 247.905 229.800 247.913 C 230.460 247.917,231.450 247.776,232.000 247.600 L 233.000 247.280 232.000 247.287 C 231.450 247.291,230.460 247.432,229.800 247.600 M170.600 248.400 C 171.040 248.589,171.940 248.735,172.600 248.725 L 173.800 248.705 172.600 248.400 C 171.940 248.232,171.040 248.086,170.600 248.075 L 169.800 248.056 170.600 248.400 M223.400 248.400 L 221.800 248.686 223.600 248.703 C 224.590 248.713,225.850 248.576,226.400 248.400 C 227.745 247.969,225.806 247.969,223.400 248.400 M176.200 249.201 C 177.779 249.549,182.290 249.743,181.967 249.448 C 181.875 249.365,180.180 249.195,178.200 249.072 C 175.640 248.912,175.062 248.950,176.200 249.201 M214.000 249.200 C 211.904 249.641,215.531 249.660,218.000 249.220 L 219.800 248.900 217.600 248.903 C 216.390 248.904,214.770 249.038,214.000 249.200 M209.843 250.233 C 209.146 252.049,209.615 280.000,210.343 280.000 C 210.484 280.000,210.600 273.160,210.600 264.800 C 210.600 250.701,210.488 248.551,209.843 250.233 M230.321 285.604 L 230.442 291.209 198.459 291.105 C 180.869 291.047,166.560 291.135,166.662 291.300 C 167.039 291.909,230.255 291.657,230.763 291.044 C 231.342 290.347,231.192 280.330,230.600 280.132 C 230.342 280.046,230.243 281.992,230.321 285.604 " stroke="none" fill="#8c8c94" fill-rule="evenodd"></path><path id="path3" d="M111.100 125.495 C 112.255 125.576,114.145 125.576,115.300 125.495 C 116.455 125.414,115.510 125.348,113.200 125.348 C 110.890 125.348,109.945 125.414,111.100 125.495 M128.505 125.487 C 129.114 125.579,130.014 125.577,130.505 125.482 C 130.997 125.387,130.500 125.311,129.400 125.314 C 128.300 125.317,127.897 125.395,128.505 125.487 M270.924 125.499 C 274.183 125.567,279.403 125.566,282.524 125.499 C 285.646 125.431,282.980 125.376,276.600 125.377 C 270.220 125.377,267.666 125.432,270.924 125.499 M166.159 131.600 C 166.159 134.790,166.221 136.095,166.297 134.500 C 166.373 132.905,166.373 130.295,166.297 128.700 C 166.221 127.105,166.159 128.410,166.159 131.600 M186.994 187.600 C 186.994 214.990,187.042 226.195,187.100 212.500 C 187.158 198.805,187.158 176.395,187.100 162.700 C 187.042 149.005,186.994 160.210,186.994 187.600 M152.109 154.000 C 152.109 154.990,152.187 155.395,152.282 154.900 C 152.378 154.405,152.378 153.595,152.282 153.100 C 152.187 152.605,152.109 153.010,152.109 154.000 M129.301 154.600 C 129.305 155.480,129.387 155.793,129.483 155.295 C 129.579 154.798,129.575 154.078,129.475 153.695 C 129.375 153.313,129.296 153.720,129.301 154.600 M267.720 155.600 C 267.720 156.810,267.795 157.305,267.887 156.700 C 267.978 156.095,267.978 155.105,267.887 154.500 C 267.795 153.895,267.720 154.390,267.720 155.600 M152.172 176.800 C 152.172 181.970,152.229 184.085,152.299 181.500 C 152.368 178.915,152.368 174.685,152.299 172.100 C 152.229 169.515,152.172 171.630,152.172 176.800 M267.334 198.400 C 267.334 200.050,267.405 200.725,267.491 199.900 C 267.578 199.075,267.578 197.725,267.491 196.900 C 267.405 196.075,267.334 196.750,267.334 198.400 M186.978 262.600 C 186.978 269.420,187.032 272.266,187.099 268.925 C 187.166 265.584,187.166 260.004,187.099 256.525 C 187.033 253.046,186.978 255.780,186.978 262.600 M215.723 279.899 C 218.541 279.968,223.041 279.968,225.723 279.899 C 228.405 279.830,226.100 279.773,220.600 279.773 C 215.100 279.774,212.905 279.830,215.723 279.899 M166.157 285.600 C 166.157 288.570,166.220 289.785,166.297 288.300 C 166.374 286.815,166.374 284.385,166.297 282.900 C 166.220 281.415,166.157 282.630,166.157 285.600 " stroke="none" fill="#aeaeae" fill-rule="evenodd"></path><path id="path4" d="M119.700 125.097 C 121.405 125.172,124.195 125.172,125.900 125.097 C 127.605 125.022,126.210 124.961,122.800 124.961 C 119.390 124.961,117.995 125.022,119.700 125.097 M108.267 125.467 C 107.768 125.965,107.964 137.004,108.480 137.520 C 108.820 137.860,110.776 137.975,115.180 137.915 L 121.400 137.831 115.000 137.615 L 108.600 137.400 108.489 131.631 C 108.405 127.283,108.503 125.781,108.889 125.537 C 109.183 125.350,109.216 125.210,108.967 125.206 C 108.728 125.203,108.413 125.320,108.267 125.467 M132.307 125.490 C 133.026 125.579,134.106 125.577,134.707 125.486 C 135.308 125.395,134.720 125.322,133.400 125.324 C 132.080 125.326,131.588 125.401,132.307 125.490 M166.262 125.500 C 166.094 125.772,189.119 125.769,219.400 125.493 C 225.780 125.435,216.476 125.345,198.724 125.294 C 180.972 125.242,166.364 125.335,166.262 125.500 M262.700 125.482 C 263.195 125.578,264.005 125.578,264.500 125.482 C 264.995 125.387,264.590 125.309,263.600 125.309 C 262.610 125.309,262.205 125.387,262.700 125.482 M288.289 125.486 C 288.624 125.724,288.818 127.648,288.906 131.617 L 289.035 137.400 289.018 131.433 C 289.003 126.478,288.898 125.438,288.400 125.302 C 287.968 125.185,287.937 125.236,288.289 125.486 M231.358 131.400 C 231.358 134.480,231.421 135.687,231.497 134.082 C 231.573 132.478,231.573 129.958,231.496 128.482 C 231.419 127.007,231.357 128.320,231.358 131.400 M145.077 130.885 C 146.197 132.141,147.583 134.112,148.157 135.263 C 148.730 136.415,149.200 137.080,149.200 136.741 C 149.200 135.802,146.300 131.578,144.572 130.000 C 143.402 128.931,143.521 129.140,145.077 130.885 M251.514 131.300 C 250.226 132.884,248.354 135.648,248.874 135.200 C 249.326 134.810,253.220 129.600,253.059 129.600 C 252.970 129.600,252.274 130.365,251.514 131.300 M166.346 137.707 C 166.516 137.876,171.232 137.966,176.827 137.907 L 187.000 137.799 176.519 137.599 C 170.755 137.490,166.177 137.538,166.346 137.707 M149.667 138.820 C 149.901 139.492,150.167 139.967,150.257 139.876 C 150.456 139.678,149.701 137.600,149.431 137.600 C 149.327 137.600,149.433 138.149,149.667 138.820 M210.498 187.267 C 210.580 227.135,210.701 236.954,211.110 237.037 C 211.390 237.094,211.436 237.049,211.210 236.937 C 210.933 236.799,210.800 220.684,210.800 187.374 L 210.800 138.014 220.700 137.900 L 230.600 137.785 220.498 137.693 L 210.397 137.600 210.498 187.267 M247.281 138.687 C 246.671 140.275,246.263 141.835,246.518 141.599 C 246.823 141.317,247.993 137.859,247.836 137.703 C 247.765 137.632,247.516 138.075,247.281 138.687 M279.119 137.898 C 280.944 137.972,283.824 137.972,285.519 137.897 C 287.214 137.822,285.720 137.761,282.200 137.762 C 278.680 137.762,277.294 137.824,279.119 137.898 M124.997 140.001 C 126.893 142.218,126.920 142.242,126.486 141.400 C 126.259 140.960,125.562 140.151,124.937 139.601 L 123.800 138.603 124.997 140.001 M271.365 140.611 C 270.773 141.387,270.359 142.087,270.444 142.167 C 270.530 142.246,271.093 141.612,271.696 140.756 C 273.065 138.814,272.818 138.706,271.365 140.611 M246.049 142.600 C 246.016 143.040,245.896 143.850,245.783 144.400 L 245.577 145.400 246.006 144.419 C 246.242 143.879,246.361 143.069,246.272 142.619 C 246.113 141.821,246.107 141.821,246.049 142.600 M245.301 147.000 C 245.305 147.880,245.387 148.193,245.483 147.695 C 245.579 147.198,245.575 146.478,245.475 146.095 C 245.375 145.713,245.296 146.120,245.301 147.000 M152.124 150.200 C 152.126 151.520,152.201 152.012,152.290 151.293 C 152.379 150.574,152.377 149.494,152.286 148.893 C 152.195 148.292,152.122 148.880,152.124 150.200 M128.501 149.800 C 128.505 150.680,128.587 150.993,128.683 150.495 C 128.779 149.998,128.775 149.278,128.675 148.895 C 128.575 148.513,128.496 148.920,128.501 149.800 M268.128 151.600 C 268.128 153.030,268.201 153.615,268.289 152.900 C 268.378 152.185,268.378 151.015,268.289 150.300 C 268.201 149.585,268.128 150.170,268.128 151.600 M244.587 175.200 C 244.587 187.630,244.638 192.715,244.700 186.500 C 244.762 180.285,244.762 170.115,244.700 163.900 C 244.638 157.685,244.587 162.770,244.587 175.200 M152.564 161.800 C 152.563 165.540,152.623 167.124,152.697 165.320 C 152.771 163.515,152.772 160.455,152.698 158.520 C 152.625 156.584,152.564 158.060,152.564 161.800 M129.387 179.000 C 129.387 191.760,129.438 197.038,129.500 190.729 C 129.562 184.419,129.562 173.979,129.500 167.529 C 129.438 161.078,129.387 166.240,129.387 179.000 M267.785 176.800 C 267.785 187.470,267.837 191.835,267.900 186.500 C 267.963 181.165,267.963 172.435,267.900 167.100 C 267.837 161.765,267.785 166.130,267.785 176.800 M152.561 191.200 C 152.561 194.610,152.622 196.005,152.697 194.300 C 152.772 192.595,152.772 189.805,152.697 188.100 C 152.622 186.395,152.561 187.790,152.561 191.200 M152.924 201.000 C 152.926 202.320,153.001 202.812,153.090 202.093 C 153.179 201.374,153.177 200.294,153.086 199.693 C 152.995 199.092,152.922 199.680,152.924 201.000 M244.093 200.000 C 244.093 200.770,244.175 201.085,244.276 200.700 C 244.376 200.315,244.376 199.685,244.276 199.300 C 244.175 198.915,244.093 199.230,244.093 200.000 M267.334 204.000 C 267.334 205.650,267.405 206.325,267.491 205.500 C 267.578 204.675,267.578 203.325,267.491 202.500 C 267.405 201.675,267.334 202.350,267.334 204.000 M243.714 203.800 C 243.717 204.900,243.795 205.303,243.887 204.695 C 243.979 204.086,243.977 203.186,243.882 202.695 C 243.787 202.203,243.711 202.700,243.714 203.800 M130.109 207.200 C 130.109 208.190,130.187 208.595,130.282 208.100 C 130.378 207.605,130.378 206.795,130.282 206.300 C 130.187 205.805,130.109 206.210,130.109 207.200 M153.693 207.200 C 153.693 207.970,153.775 208.285,153.876 207.900 C 153.976 207.515,153.976 206.885,153.876 206.500 C 153.775 206.115,153.693 206.430,153.693 207.200 M242.893 208.800 C 242.893 209.570,242.975 209.885,243.076 209.500 C 243.176 209.115,243.176 208.485,243.076 208.100 C 242.975 207.715,242.893 208.030,242.893 208.800 M266.493 210.400 C 266.493 211.170,266.575 211.485,266.676 211.100 C 266.776 210.715,266.776 210.085,266.676 209.700 C 266.575 209.315,266.493 209.630,266.493 210.400 M154.406 211.033 C 154.409 211.455,154.595 212.070,154.818 212.400 C 155.115 212.838,155.152 212.676,154.956 211.800 C 154.627 210.329,154.398 210.010,154.406 211.033 M264.062 219.700 C 263.856 220.415,263.566 221.360,263.418 221.800 C 263.251 222.296,263.366 222.219,263.719 221.600 C 264.334 220.522,264.935 218.400,264.626 218.400 C 264.523 218.400,264.269 218.985,264.062 219.700 M236.396 224.300 C 235.450 225.565,234.989 226.340,235.372 226.023 C 236.089 225.428,238.565 222.000,238.277 222.000 C 238.188 222.000,237.341 223.035,236.396 224.300 M261.536 225.943 C 260.730 227.625,260.129 229.058,260.199 229.130 C 260.269 229.201,261.001 227.895,261.826 226.226 C 262.651 224.557,263.252 223.124,263.163 223.040 C 263.073 222.956,262.341 224.262,261.536 225.943 M162.600 227.200 C 163.683 228.300,164.660 229.200,164.770 229.200 C 164.880 229.200,164.083 228.300,163.000 227.200 C 161.917 226.100,160.940 225.200,160.830 225.200 C 160.720 225.200,161.517 226.100,162.600 227.200 M232.967 228.229 L 231.400 229.658 233.100 228.362 C 234.653 227.178,235.032 226.800,234.667 226.800 C 234.593 226.800,233.828 227.443,232.967 228.229 M137.149 229.400 C 137.365 229.840,137.834 230.560,138.193 231.000 L 138.844 231.800 138.451 231.000 C 138.235 230.560,137.766 229.840,137.407 229.400 L 136.756 228.600 137.149 229.400 M165.469 229.632 C 165.966 230.233,168.400 231.764,168.400 231.476 C 168.400 231.383,167.635 230.802,166.700 230.185 C 165.765 229.568,165.211 229.320,165.469 229.632 M169.600 232.200 C 170.150 232.514,170.780 232.772,171.000 232.772 C 171.220 232.772,170.950 232.514,170.400 232.200 C 169.850 231.886,169.220 231.628,169.000 231.628 C 168.780 231.628,169.050 231.886,169.600 232.200 M139.647 233.176 C 140.150 233.932,141.561 235.568,142.781 236.810 C 144.882 238.949,144.904 238.960,143.197 237.034 C 142.206 235.915,140.795 234.280,140.063 233.400 C 138.907 232.011,138.852 231.982,139.647 233.176 M180.033 235.744 C 180.125 235.823,180.740 236.008,181.400 236.156 C 182.276 236.352,182.438 236.315,182.000 236.018 C 181.460 235.653,179.632 235.398,180.033 235.744 M248.800 241.057 C 248.030 241.617,245.970 242.778,244.221 243.638 C 242.473 244.497,241.275 245.200,241.560 245.200 C 242.318 245.200,248.002 242.167,249.400 241.016 C 250.963 239.730,250.591 239.755,248.800 241.057 M155.800 245.351 C 157.199 245.956,159.200 246.487,159.200 246.254 C 159.200 246.067,155.411 244.792,154.925 244.816 C 154.746 244.824,155.140 245.065,155.800 245.351 M239.400 245.814 C 238.395 246.298,238.363 246.353,239.200 246.151 C 239.750 246.019,240.371 245.750,240.580 245.555 C 241.098 245.071,240.814 245.133,239.400 245.814 M167.300 248.276 C 167.685 248.376,168.315 248.376,168.700 248.276 C 169.085 248.175,168.770 248.093,168.000 248.093 C 167.230 248.093,166.915 248.175,167.300 248.276 M229.300 248.276 C 229.685 248.376,230.315 248.376,230.700 248.276 C 231.085 248.175,230.770 248.093,230.000 248.093 C 229.230 248.093,228.915 248.175,229.300 248.276 M171.905 249.083 C 172.402 249.179,173.122 249.175,173.505 249.075 C 173.887 248.975,173.480 248.896,172.600 248.901 C 171.720 248.905,171.407 248.987,171.905 249.083 M222.707 249.090 C 223.426 249.179,224.506 249.177,225.107 249.086 C 225.708 248.995,225.120 248.922,223.800 248.924 C 222.480 248.926,221.988 249.001,222.707 249.090 M178.500 249.894 C 179.545 249.976,181.255 249.976,182.300 249.894 C 183.345 249.812,182.490 249.744,180.400 249.744 C 178.310 249.744,177.455 249.812,178.500 249.894 M213.500 249.889 C 214.215 249.978,215.385 249.978,216.100 249.889 C 216.815 249.801,216.230 249.728,214.800 249.728 C 213.370 249.728,212.785 249.801,213.500 249.889 M210.581 264.800 C 210.581 273.050,210.634 276.425,210.699 272.300 C 210.764 268.175,210.764 261.425,210.699 257.300 C 210.634 253.175,210.581 256.550,210.581 264.800 M186.874 277.100 L 186.800 279.600 176.624 279.600 C 171.027 279.600,166.364 279.735,166.261 279.900 C 166.159 280.065,170.747 280.149,176.455 280.087 C 188.092 279.960,187.335 280.198,187.097 276.752 L 186.948 274.600 186.874 277.100 M231.192 285.800 L 231.000 291.400 198.825 291.502 C 173.365 291.583,166.576 291.500,166.295 291.102 C 166.030 290.728,165.981 290.753,166.103 291.200 C 166.246 291.726,170.271 291.813,198.725 291.902 L 231.184 292.005 231.407 291.102 C 231.531 290.606,231.576 287.950,231.508 285.200 L 231.385 280.200 231.192 285.800 " stroke="none" fill="#c4c4cc" fill-rule="evenodd"></path></g></svg>