<svg id="Layer_1" data-name="Layer 1" xmlns="http://www.w3.org/2000/svg" xmlns:xlink="http://www.w3.org/1999/xlink" viewBox="0 0 210.7 196"><defs><style>.cls-1{fill:none;}.cls-2{clip-path:url(#clip-path);}.cls-3{fill:#ff9931;}.cls-4{fill:#fff;}.cls-5{fill:#006e3c;}.cls-6{fill:#06b23c;}</style><clipPath id="clip-path"><rect class="cls-1" width="210.7" height="196"/></clipPath></defs><title>RSK_R-BTC_Logo_RGB</title><g class="cls-2"><path class="cls-3" d="M97,188.19A90.19,90.19,0,1,1,187.22,98,90.29,90.29,0,0,1,97,188.19"/><path class="cls-4" d="M97,13.81A84.19,84.19,0,1,1,12.85,98,84.19,84.19,0,0,1,97,13.81m0-12A96.19,96.19,0,1,0,193.22,98,96.3,96.3,0,0,0,97,1.81"/><path class="cls-5" d="M197.37,44.67a51.41,51.41,0,0,0-18-4.3,30,30,0,0,0-15.49,3.32,28,28,0,0,0-2.61,1.61c-7.2,5.05-10.88,13-12.72,19.1L147.81,67l2.4-1.28L162.86,59a5.05,5.05,0,0,1,6.82,2l0,0,.07.12a5,5,0,0,1,.21.48l29.18-16.16c-.26-.12-1.53-.62-1.81-.75"/><path class="cls-6" d="M192.75,64.23c-14.46,23.89-40.21,12-40.21,12l9.29-5c.77-.46,5.84-3.13,5.84-3.13a5.16,5.16,0,0,0,2.12-6.8l29.39-15.88a45.76,45.76,0,0,1-6.43,18.81"/><path class="cls-4" d="M207.11,37.92c-1.28-.75-13-7.43-27.3-8a40,40,0,0,0-20.68,4.56,37,37,0,0,0-5.6,3.71c-12.88,10.31-16.22,27-17.07,34.33l-.07.59-.52.28-3.78,2A31.06,31.06,0,0,0,119,67.91l-.73-.2,3.78-15-9-2.32-3.75,14.92-6.76-1.81,3.74-14.86-9-2.32L93.58,61.1c-10.89-2.85-17.86-4.58-17.86-4.58s-1.5,7.53-2.15,9.34c0,0,1.85.45,3.84,1,1.31.38,7.72,1.07,5.58,9-1.2,4.46-8.2,34.37-8.75,36.41C73.61,114.7,73,116,70,115.38l-7.16-1.6-4.49,10.71c1.63.56,7.27,1.86,18,4.57L72.6,143.83l9,2.32,3.72-14.79,6.76,1.77L88.34,147.9l9,2.32,3.77-15c10.43,1.94,16.44,1.32,17.87,1.06,8.71-1.61,12.41-8.31,14-14.7,4.52-18-10.31-19.61-8.43-20,8.3-1.67,12.27-9.61,11.82-16.66l4.24-2.26.52-.29.51.28a58.12,58.12,0,0,0,24.12,6.77,38.54,38.54,0,0,0,17.53-3.34c.76-.35,1.5-.72,2.24-1.11C206.67,73.6,209.4,45.9,209.64,42.78l.21-3.22Zm-91.92,79.91c-2.46,9.82-19.11,4.87-19.11,4.87l-7.91-2L93.1,101l9.45,2.44s15.41,3.34,12.64,14.37m3-29.27c-2.26,9-16.13,4.83-16.13,4.83l-6.58-1.7,4.52-18,7.87,2s12.86,2.73,10.32,12.85m80.71-42.37v.11c-1.46,8.16-5.76,22.85-18.15,29.51l-.33.16a28.32,28.32,0,0,1-14.32,3,41.48,41.48,0,0,1-10.95-2l-2.57-.82,2.38-1.28,12.75-6.84a5.19,5.19,0,0,0,2.49-3,5.66,5.66,0,0,0,.21-1.34,5.18,5.18,0,0,0-.37-2.13,5,5,0,0,0-.21-.48l-.07-.12,0,0a5.05,5.05,0,0,0-6.82-2l-12.65,6.77L147.81,67l.79-2.61c1.84-6.09,5.52-14.05,12.72-19.1a28,28,0,0,1,2.61-1.61,30,30,0,0,1,15.49-3.32,51.41,51.41,0,0,1,18,4.3c.28.13.56.24.82.37l.79.38Z"/></g></svg>