<svg width="150" height="150" xmlns="http://www.w3.org/2000/svg">
 <g>
  <title>background</title>
  <rect x="-1" y="-1" width="152" height="152" id="canvas_background" fill="none"/>
 </g>

 <g>
  <title>Layer 1</title>
  <g id="svg_1">
   <g id="svg_10">
    <path fill="#006E3C" d="m73.3,58.5l0,-54c0,0 -17.5,8.7 -17.5,27.2c0,18.5 17.5,26.8 17.5,26.8" id="svg_5"/>
    <path fill="#00B43C" d="m73.3,4.5c0,0 17.5,8.7 17.5,27.2s-17.5,26.8 -17.5,26.8l0,-54z" id="svg_6"/>
    <path fill="#006E3C" d="m114,83.8l24,-13.6c0,0 -8.3,-5.6 -16.5,-0.9s-7.5,14.5 -7.5,14.5" id="svg_7"/>
    <path fill="#00B43C" d="m138,70.2c0,0 0.5,10 -7.7,14.6c-8.2,4.7 -16.3,-1 -16.3,-1l24,-13.6z" id="svg_8"/>
    <path d="m139.2,68c-0.4,-0.2 -10.5,-5.6 -19.1,-0.6c-6.9,4 -8.2,11.9 -8.5,15.2l-3.2,1.8c-1.6,-1.5 -3.7,-2.5 -6.1,-2.5s-4.5,0.9 -6.1,2.5l-14.4,-8.4c0.2,-0.7 0.3,-1.4 0.3,-2.1c0,-4 -2.7,-7.4 -6.3,-8.4l0,-5.2c4.2,-2.7 17.6,-12.6 17.6,-28.3c0,-18.2 -18,-29.5 -18.8,-30l-1.3,-0.8l-1.3,0.8c-0.8,0.5 -18.8,11.8 -18.8,30c0,15.7 13.4,25.5 17.6,28.3l0,5.2c-3.7,1 -6.3,4.4 -6.3,8.4c0,0.7 0.1,1.4 0.3,2.1l-14.5,8.4c-1.6,-1.5 -3.7,-2.5 -6.1,-2.5c-4.8,0 -8.8,3.9 -8.8,8.8c0,4 2.7,7.4 6.3,8.4l0,17.4c-3.6,1.1 -6.3,4.4 -6.3,8.4c0,4.8 3.9,8.8 8.8,8.8c2.6,0 4.9,-1.1 6.5,-2.9l14.1,8.1c-0.2,0.7 -0.3,1.4 -0.3,2.1c0,4.8 3.9,8.7 8.8,8.7c4.8,0 8.8,-3.9 8.8,-8.7c0,-0.7 -0.1,-1.4 -0.3,-2.1l14.1,-8.1c1.6,1.8 3.9,2.9 6.5,2.9c4.8,0 8.8,-3.9 8.8,-8.8c0,-4 -2.7,-7.4 -6.3,-8.4l0,-17.4c3.6,-1.1 6.3,-4.4 6.3,-8.4c0,-0.7 -0.1,-1.4 -0.2,-2l3.2,-1.8c1.8,0.9 5.5,2.3 9.6,2.3c2.5,0 5.2,-0.5 7.8,-2c8.5,-4.9 9,-16.4 9,-16.8l0,-1.5l-1.4,-0.9zm-34.4,25.7c-0.7,0.5 -1.5,0.8 -2.4,0.8c-0.5,0 -0.9,-0.1 -1.4,-0.3c-0.4,-0.1 -0.7,-0.3 -1,-0.6c-0.8,-0.6 -1.3,-1.5 -1.5,-2.5c0,-0.2 0,-0.4 0,-0.6s0,-0.3 0,-0.5c0.2,-1.4 1.1,-2.6 2.4,-3.1c0.4,-0.2 0.9,-0.3 1.4,-0.3s1.1,0.1 1.5,0.3c1.4,0.6 2.4,2 2.4,3.6c0,0.2 0,0.4 -0.1,0.6c-0.1,1.2 -0.6,2 -1.3,2.6m1.4,31.2c0,2.2 -1.8,3.9 -3.9,3.9c-0.7,0 -1.5,-0.2 -2,-0.6c-1.1,-0.7 -1.9,-1.9 -1.9,-3.3l0,-0.1l0,0c0,-0.4 0.1,-0.8 0.2,-1.2c0.2,-0.7 0.7,-1.3 1.3,-1.8c0.5,-0.4 1.1,-0.7 1.7,-0.8c0.2,0 0.4,-0.1 0.7,-0.1c0.9,0 1.8,0.3 2.4,0.8c1,0.8 1.5,1.9 1.5,3.2m-6.3,-8.4c-1.2,0.3 -2.3,0.9 -3.2,1.7l-14.8,-8.6l0,0c0.1,-0.6 0.2,-1.1 0.2,-1.7c0,-0.8 -0.1,-1.7 -0.4,-2.4l14.6,-8.5c1,1 2.2,1.7 3.6,2.1l0,17.4zm-26.6,28.4c-2,0 -3.6,-1.4 -3.9,-3.3c0,-0.2 0,-0.4 0,-0.6c0,-1.6 1,-3 2.4,-3.6c0.5,-0.2 1,-0.3 1.5,-0.3s1,0.1 1.5,0.3c1.4,0.6 2.4,2 2.4,3.6c0,0.2 0,0.4 0,0.6c-0.3,1.8 -2,3.3 -3.9,3.3m-8.6,-35.3l-14.8,8.6c-0.9,-0.8 -2,-1.4 -3.2,-1.7l0,-17.4c1.4,-0.4 2.6,-1.1 3.6,-2.1l14.6,8.4c-0.2,0.8 -0.4,1.6 -0.4,2.5c0,0.6 0.1,1.2 0.2,1.7l0,0zm-16.5,15.3c0,1.4 -0.7,2.6 -1.9,3.3c-0.6,0.4 -1.3,0.6 -2,0.6c-2.2,0 -3.9,-1.8 -3.9,-3.9c0,-1.2 0.6,-2.4 1.5,-3.1c0.7,-0.5 1.5,-0.8 2.4,-0.8c0.2,0 0.5,0 0.7,0.1c0.7,0.1 1.2,0.4 1.7,0.8c0.6,0.4 1,1.1 1.3,1.8c0.1,0.4 0.2,0.8 0.2,1.2c0,-0.1 0,-0.1 0,0m-7.9,-34.2c0,-2.2 1.8,-3.9 3.9,-3.9c0.5,0 1,0.1 1.4,0.3c1.3,0.5 2.2,1.7 2.4,3.1c0,0.2 0,0.4 0,0.6s0,0.4 0,0.6c-0.1,1 -0.7,1.9 -1.5,2.5c-0.3,0.2 -0.6,0.4 -1,0.6s-0.9,0.3 -1.4,0.3c-0.9,0 -1.8,-0.3 -2.4,-0.8c-0.8,-1 -1.4,-2.1 -1.4,-3.3m30.6,-19.9c0.7,-0.5 1.5,-0.8 2.4,-0.8s1.8,0.3 2.4,0.8c0.8,0.6 1.3,1.5 1.4,2.5c0,0.2 0,0.4 0,0.6c0,1.2 -0.6,2.4 -1.5,3.1c-0.3,0.2 -0.6,0.4 -1,0.6s-0.9,0.3 -1.4,0.3s-1,-0.1 -1.4,-0.3c-0.4,-0.1 -0.7,-0.3 -1,-0.6c-0.9,-0.7 -1.5,-1.8 -1.5,-3.1c0,-0.2 0,-0.4 0,-0.6c0.3,-1 0.8,-1.9 1.6,-2.5m6.3,37.2c0,1.2 -0.6,2.2 -1.5,2.9c-0.2,0.1 -0.4,0.3 -0.6,0.4c-0.6,0.3 -1.2,0.5 -1.9,0.5s-1.3,-0.2 -1.8,-0.5c-0.2,-0.1 -0.4,-0.2 -0.6,-0.4c-0.9,-0.7 -1.5,-1.8 -1.5,-3l0,-0.1c0,-0.4 0,-0.7 0.1,-1c0.2,-0.8 0.7,-1.5 1.3,-2.1c0.4,-0.3 0.9,-0.6 1.5,-0.7c0.3,-0.1 0.6,-0.1 1,-0.1s0.7,0 1,0.1c0.5,0.1 1,0.4 1.4,0.7c0.6,0.5 1.1,1.2 1.3,2c0.1,0.3 0.1,0.7 0.1,1.1c0.2,0.1 0.2,0.2 0.2,0.2l0,0zm16.6,-19.4c-0.2,0.7 -0.3,1.4 -0.3,2.1s0.1,1.5 0.3,2.2l-14.7,8.5c-1,-0.9 -2.1,-1.5 -3.4,-1.9l0,-17.2c1.4,-0.4 2.6,-1.1 3.6,-2.1l14.5,8.4zm-35.7,-56.5c0,-12.9 11.3,-22.2 15.2,-25c3.9,2.8 15.2,12.1 15.2,25c0,10.8 -8,18.6 -12.8,22.3l0,-20.4c0,-1.3 -1.1,-2.4 -2.4,-2.4c-1.4,0 -2.4,1.1 -2.4,2.4l0,20.4c-4.9,-3.7 -12.8,-11.5 -12.8,-22.3m9.1,48.1c1,1 2.3,1.7 3.6,2.1l0,17.2c-1.3,0.4 -2.4,1 -3.4,1.8l-14.8,-8.5c0.2,-0.7 0.3,-1.4 0.3,-2.1s-0.1,-1.4 -0.3,-2.1l14.6,-8.4zm-14.3,46.2c0.1,-0.5 0.1,-1 0.1,-1.5c0,-0.9 -0.1,-1.8 -0.4,-2.7l14.4,-8.3c1,1.1 2.4,1.9 3.9,2.4l0,16.3c-1.4,0.4 -2.6,1.1 -3.7,2.1l-14.3,-8.3zm26.5,8.3c-1,-1 -2.3,-1.7 -3.7,-2.1l0,-16.3c1.5,-0.4 2.9,-1.3 3.9,-2.4l14.4,8.3c-0.3,0.8 -0.4,1.7 -0.4,2.7c0,0.5 0,1 0.1,1.5l-14.3,8.3zm49.6,-51.8c-3.2,1.8 -6.8,1.5 -9.6,0.8l4.8,-2.8c1.2,-0.7 1.6,-2.1 0.9,-3.3c-0.7,-1.2 -2.1,-1.6 -3.3,-0.9l-4.8,2.8c0.7,-2.7 2.3,-6 5.5,-7.9c4.6,-2.7 10.3,-1 12.9,0.1c-0.4,2.7 -1.7,8.5 -6.4,11.2" id="svg_9"/>
   </g>
  </g>
 </g>
</svg>