<svg width="106" height="106" viewBox="0 0 106 106" fill="none" xmlns="http://www.w3.org/2000/svg">
<circle cx="53" cy="53" r="53" fill="#E2E7EC"/>
<path d="M50.9262 41.6685V13.5703C50.9262 13.5703 41.8203 18.0972 41.8203 27.7235C41.8203 37.3497 50.9262 41.6685 50.9262 41.6685Z" fill="#006E3C"/>
<path d="M50.9268 13.5703C50.9268 13.5703 60.0326 18.0972 60.0326 27.7235C60.0326 37.3497 50.9268 41.6685 50.9268 41.6685V13.5703Z" fill="#00B43C"/>
<path d="M72.1044 54.831L84.5925 47.7544C84.5925 47.7544 80.2737 44.8405 76.007 47.2861C71.7402 49.7317 72.1044 54.831 72.1044 54.831Z" fill="#006E3C"/>
<path d="M84.5916 47.75C84.5916 47.75 84.8518 52.9534 80.585 55.3469C76.3182 57.7925 72.1035 54.8266 72.1035 54.8266L84.5916 47.75Z" fill="#00B43C"/>
<path d="M85.216 46.6061C85.0079 46.5021 79.7525 43.6923 75.2776 46.2939C71.6873 48.3753 71.0108 52.4859 70.8547 54.2031L69.1896 55.1397C68.3571 54.3592 67.2644 53.8388 66.0156 53.8388C64.7668 53.8388 63.6741 54.3071 62.8415 55.1397L55.3487 50.7688C55.4528 50.4046 55.5048 50.0404 55.5048 49.6761C55.5048 47.5948 54.0999 45.8256 52.2267 45.3053V42.5996C54.4121 41.1946 61.3846 36.0433 61.3846 27.874C61.3846 18.4039 52.0185 12.5241 51.6023 12.2639L50.9258 11.8477L50.2494 12.2639C49.8331 12.5241 40.4671 18.4039 40.4671 27.874C40.4671 36.0433 47.4396 41.1426 49.625 42.5996V45.3053C47.6997 45.8256 46.3469 47.5948 46.3469 49.6761C46.3469 50.0404 46.3989 50.4046 46.503 50.7688L38.9581 55.1397C38.1256 54.3592 37.0328 53.8388 35.784 53.8388C33.2864 53.8388 31.2051 55.8681 31.2051 58.4178C31.2051 60.4991 32.61 62.2683 34.4832 62.7886V71.8425C32.61 72.4148 31.2051 74.132 31.2051 76.2133C31.2051 78.7109 33.2344 80.7923 35.784 80.7923C37.1369 80.7923 38.3337 80.2199 39.1662 79.2833L46.503 83.498C46.3989 83.8622 46.3469 84.2265 46.3469 84.5907C46.3469 87.0883 48.3762 89.1176 50.9258 89.1176C53.4235 89.1176 55.5048 87.0883 55.5048 84.5907C55.5048 84.2265 55.4528 83.8622 55.3487 83.498L62.6854 79.2833C63.518 80.2199 64.7148 80.7923 66.0676 80.7923C68.5652 80.7923 70.6466 78.7629 70.6466 76.2133C70.6466 74.132 69.2417 72.3628 67.3685 71.8425V62.7886C69.2417 62.2162 70.6466 60.4991 70.6466 58.4178C70.6466 58.0535 70.5946 57.6893 70.5425 57.3771L72.2076 56.4405C73.1442 56.9088 75.0695 57.6373 77.2028 57.6373C78.5037 57.6373 79.9086 57.3771 81.2615 56.5966C85.6843 54.047 85.9445 48.0631 85.9445 47.855V47.0744L85.216 46.6061V46.6061ZM67.3164 59.9788C66.9522 60.239 66.5359 60.3951 66.0676 60.3951C65.8075 60.3951 65.5993 60.343 65.3392 60.239C65.131 60.1869 64.9749 60.0829 64.8188 59.9268C64.4026 59.6146 64.1424 59.1463 64.0383 58.6259C64.0383 58.5219 64.0383 58.4178 64.0383 58.3137C64.0383 58.2097 64.0383 58.1576 64.0383 58.0536C64.1424 57.3251 64.6107 56.7007 65.2871 56.4405C65.4953 56.3364 65.7554 56.2844 66.0156 56.2844C66.2758 56.2844 66.588 56.3364 66.7961 56.4405C67.5246 56.7527 68.0449 57.4812 68.0449 58.3137C68.0449 58.4178 68.0449 58.5219 67.9929 58.6259C67.9408 59.2503 67.6807 59.6666 67.3164 59.9788V59.9788ZM68.0449 76.2133C68.0449 77.358 67.1083 78.2426 66.0156 78.2426C65.6514 78.2426 65.2351 78.1385 64.9749 77.9304C64.4026 77.5662 63.9863 76.9418 63.9863 76.2133V76.1613C63.9863 75.9531 64.0383 75.745 64.0903 75.5369C64.1944 75.1726 64.4546 74.8604 64.7668 74.6003C65.027 74.3921 65.3392 74.236 65.6514 74.184C65.7554 74.184 65.8595 74.132 66.0156 74.132C66.4839 74.132 66.9522 74.2881 67.2644 74.5482C67.7847 74.9645 68.0449 75.5369 68.0449 76.2133V76.2133ZM64.7668 71.8425C64.1424 71.9986 63.57 72.3108 63.1017 72.727L55.4007 68.2521C55.4528 67.9399 55.5048 67.6798 55.5048 67.3676C55.5048 66.9513 55.4528 66.483 55.2967 66.1188L62.8936 61.6959C63.4139 62.2162 64.0383 62.5805 64.7668 62.7886V71.8425V71.8425ZM50.9258 86.62C49.8852 86.62 49.0526 85.8916 48.8965 84.9029C48.8965 84.7989 48.8965 84.6948 48.8965 84.5907C48.8965 83.7582 49.4169 83.0297 50.1453 82.7175C50.4055 82.6134 50.6657 82.5614 50.9258 82.5614C51.186 82.5614 51.4462 82.6134 51.7063 82.7175C52.4348 83.0297 52.9551 83.7582 52.9551 84.5907C52.9551 84.6948 52.9551 84.7989 52.9551 84.9029C52.799 85.8395 51.9145 86.62 50.9258 86.62ZM46.4509 68.2521L38.75 72.727C38.2817 72.3108 37.7093 71.9986 37.0849 71.8425V62.7886C37.8134 62.5805 38.4378 62.2162 38.9581 61.6959L46.555 66.0667C46.4509 66.483 46.3469 66.8993 46.3469 67.3676C46.3469 67.6798 46.3989 67.992 46.4509 68.2521ZM37.8654 76.2133C37.8654 76.9418 37.5011 77.5662 36.8767 77.9304C36.5645 78.1385 36.2003 78.2426 35.8361 78.2426C34.6913 78.2426 33.8068 77.306 33.8068 76.2133C33.8068 75.5889 34.119 74.9645 34.5873 74.6003C34.9515 74.3401 35.3678 74.184 35.8361 74.184C35.9401 74.184 36.0962 74.184 36.2003 74.236C36.5645 74.2881 36.8247 74.4442 37.0849 74.6523C37.3971 74.8604 37.6052 75.2247 37.7613 75.5889C37.8134 75.797 37.8654 76.0052 37.8654 76.2133C37.8654 76.1613 37.8654 76.1613 37.8654 76.2133V76.2133ZM33.7547 58.4178C33.7547 57.273 34.6913 56.3885 35.784 56.3885C36.0442 56.3885 36.3044 56.4405 36.5125 56.5446C37.1889 56.8047 37.6573 57.4291 37.7613 58.1576C37.7613 58.2617 37.7613 58.3658 37.7613 58.4698C37.7613 58.5739 37.7613 58.678 37.7613 58.782C37.7093 59.3024 37.3971 59.7707 36.9808 60.0829C36.8247 60.1869 36.6686 60.291 36.4605 60.3951C36.2523 60.4991 35.9922 60.5512 35.732 60.5512C35.2637 60.5512 34.7954 60.3951 34.4832 60.1349C34.0669 59.6146 33.7547 59.0422 33.7547 58.4178V58.4178ZM49.677 48.0631C50.0413 47.8029 50.4575 47.6468 50.9258 47.6468C51.3941 47.6468 51.8624 47.8029 52.1746 48.0631C52.5909 48.3753 52.8511 48.8436 52.9031 49.3639C52.9031 49.468 52.9031 49.5721 52.9031 49.6761C52.9031 50.3005 52.5909 50.9249 52.1226 51.2892C51.9665 51.3932 51.8104 51.4973 51.6023 51.6014C51.3941 51.7054 51.134 51.7575 50.8738 51.7575C50.6136 51.7575 50.3535 51.7054 50.1453 51.6014C49.9372 51.5493 49.7811 51.4453 49.625 51.2892C49.1567 50.9249 48.8445 50.3526 48.8445 49.6761C48.8445 49.5721 48.8445 49.468 48.8445 49.3639C49.0006 48.8436 49.2608 48.3753 49.677 48.0631ZM52.9551 67.4196C52.9551 68.044 52.6429 68.5644 52.1746 68.9286C52.0706 68.9806 51.9665 69.0847 51.8624 69.1367C51.5502 69.2928 51.238 69.3969 50.8738 69.3969C50.5096 69.3969 50.1974 69.2928 49.9372 69.1367C49.8331 69.0847 49.7291 69.0327 49.625 68.9286C49.1567 68.5644 48.8445 67.992 48.8445 67.3676V67.3155C48.8445 67.1074 48.8445 66.9513 48.8965 66.7952C49.0006 66.3789 49.2608 66.0147 49.573 65.7025C49.7811 65.5464 50.0413 65.3903 50.3535 65.3383C50.5096 65.2862 50.6657 65.2862 50.8738 65.2862C51.0819 65.2862 51.238 65.2862 51.3941 65.3383C51.6543 65.3903 51.9145 65.5464 52.1226 65.7025C52.4348 65.9627 52.695 66.3269 52.799 66.7432C52.8511 66.8993 52.8511 67.1074 52.8511 67.3155C52.9551 67.3676 52.9551 67.4196 52.9551 67.4196V67.4196ZM61.5927 57.3251C61.4887 57.6893 61.4366 58.0535 61.4366 58.4178C61.4366 58.782 61.4887 59.1983 61.5927 59.5625L53.9438 63.9854C53.4234 63.5171 52.8511 63.2049 52.1746 62.9967V54.047C52.9031 53.8388 53.5275 53.4746 54.0479 52.9542L61.5927 57.3251V57.3251ZM43.0167 27.9261C43.0167 21.2137 48.8965 16.3746 50.9258 14.9176C52.9551 16.3746 58.8349 21.2137 58.8349 27.9261C58.8349 33.5457 54.6723 37.6043 52.1746 39.5296V28.9147C52.1746 28.2383 51.6023 27.6659 50.9258 27.6659C50.1974 27.6659 49.677 28.2383 49.677 28.9147V39.5296C47.1274 37.6043 43.0167 33.5457 43.0167 27.9261ZM47.7518 52.9542C48.2721 53.4746 48.9486 53.8388 49.625 54.047V62.9967C48.9486 63.2049 48.3762 63.5171 47.8558 63.9334L40.1549 59.5105C40.2589 59.1463 40.311 58.782 40.311 58.4178C40.311 58.0535 40.2589 57.6893 40.1549 57.3251L47.7518 52.9542V52.9542ZM40.311 76.9938C40.363 76.7336 40.363 76.4735 40.363 76.2133C40.363 75.745 40.311 75.2767 40.1549 74.8084L47.6477 70.4896C48.168 71.062 48.8965 71.4782 49.677 71.7384V80.2199C48.9486 80.428 48.3241 80.7923 47.7518 81.3126L40.311 76.9938V76.9938ZM54.0999 81.3126C53.5796 80.7923 52.9031 80.428 52.1746 80.2199V71.7384C52.9551 71.5303 53.6836 71.062 54.204 70.4896L61.6968 74.8084C61.5407 75.2247 61.4887 75.693 61.4887 76.2133C61.4887 76.4735 61.4887 76.7336 61.5407 76.9938L54.0999 81.3126ZM79.9086 54.3592C78.2435 55.2958 76.3703 55.1397 74.9133 54.7754L77.411 53.3185C78.0354 52.9543 78.2435 52.2258 77.8793 51.6014C77.515 50.977 76.7866 50.7688 76.1622 51.1331L73.6645 52.59C74.0288 51.1851 74.8613 49.468 76.5264 48.4794C78.9199 47.0744 81.8859 47.959 83.2387 48.5314C83.0306 49.9363 82.3542 52.9543 79.9086 54.3592" fill="black"/>
</svg>
