<svg id="Layer_1" data-name="Layer 1" xmlns="http://www.w3.org/2000/svg" viewBox="0 0 1010.59 1010.59"><defs><style>.cls-1{fill:#fff;}.cls-2{fill:#0083ff;}.cls-3{fill:#006e36;}.cls-4{fill:#00b22b;}</style></defs><path class="cls-1" d="M408.9,908.9C186.35,908.9,5.3,727.84,5.3,505.3s181-403.61,403.6-403.61a399.24,399.24,0,0,1,183.53,44.06A407.3,407.3,0,0,1,710.35,237c2.36-1.37,4.76-2.7,7.17-4,32.92-17.51,69.86-26.39,109.79-26.39,3.22,0,6.5.06,9.75.18,73.9,2.63,124,22.74,137,30.26l13.79,8.13A35.43,35.43,0,0,1,1005,280.21l-.88,6.79-.07,1.05c-6.93,103.17-52.46,182.09-128.21,222.22-4.59,2.42-8.85,4.5-13.09,6.4a219.79,219.79,0,0,1-51.15,15.74C797.6,742.36,622.33,908.9,408.9,908.9Z"/><path class="cls-2" d="M777.09,505.3c0,203.34-164.84,368.19-368.19,368.19S40.71,708.64,40.71,505.3,205.55,137.1,408.9,137.1,777.09,302,777.09,505.3"/><rect class="cls-1" x="376.73" y="193.04" width="39.9" height="39.9" rx="14.37"/><rect class="cls-1" x="376.73" y="248.91" width="39.9" height="39.9" rx="14.37"/><rect class="cls-1" x="209.13" y="400.55" width="39.9" height="39.9" rx="14.37"/><rect class="cls-1" x="272.98" y="400.55" width="39.9" height="39.9" rx="14.37"/><path class="cls-1" d="M327.26,304.78h67a14.37,14.37,0,0,1,14.37,14.37V330.3a14.38,14.38,0,0,1-14.38,14.38h-67a14.37,14.37,0,0,1-14.37-14.37V319.15A14.38,14.38,0,0,1,327.26,304.78Z"/><path class="cls-1" d="M335.24,400.55h11.15a14.37,14.37,0,0,1,14.37,14.37v67a14.38,14.38,0,0,1-14.38,14.38H335.23a14.37,14.37,0,0,1-14.37-14.37v-67A14.38,14.38,0,0,1,335.24,400.55Z"/><rect class="cls-1" x="464.52" y="400.55" width="127.69" height="39.9" rx="14.37"/><path class="cls-1" d="M263.41,352.66h98.94A14.37,14.37,0,0,1,376.73,367v11.15a14.38,14.38,0,0,1-14.38,14.38H263.41A14.37,14.37,0,0,1,249,378.19V367A14.38,14.38,0,0,1,263.41,352.66Z"/><rect class="cls-1" x="544.32" y="352.66" width="39.9" height="39.9" rx="14.37"/><rect class="cls-1" x="440.57" y="464.39" width="95.77" height="39.9" rx="14.38"/><rect class="cls-1" x="440.57" y="512.28" width="39.9" height="39.9" rx="14.37"/><path class="cls-1" d="M454.95,568.14H466.1a14.37,14.37,0,0,1,14.37,14.37v11.15A14.38,14.38,0,0,1,466.1,608H454.95a14.37,14.37,0,0,1-14.37-14.37V582.52A14.38,14.38,0,0,1,454.95,568.14Z"/><path class="cls-1" d="M447,217h11.15a14.37,14.37,0,0,1,14.37,14.37V330.3a14.38,14.38,0,0,1-14.38,14.38H447a14.37,14.37,0,0,1-14.37-14.37V231.36A14.38,14.38,0,0,1,447,217Z"/><rect class="cls-1" x="384.71" y="440.45" width="39.9" height="127.69" rx="14.37"/><rect class="cls-1" x="488.46" y="280.83" width="39.9" height="95.77" rx="14.38"/><path class="cls-3" d="M667.26,446.26,923,298.3s5.58-52.93-93.24-51.91S675,312.07,667.51,370.19s-.25,76.07-.25,76.07"/><path class="cls-4" d="M927.09,291.85l-255.78,148s-5.57,52.93,93.24,51.9S919.38,426,926.84,367.91s.25-76.06.25-76.06"/><path class="cls-1" d="M956.4,267.7c-6.27-3.61-50.48-23-120.61-25.56-37.31-1.33-71.59,6.11-101.65,22.1a180.79,180.79,0,0,0-27.56,18c-63.31,49.91-65,111.4-69.17,146.93l-50.11,24.5a20.87,20.87,0,0,0,8.08,40.11,21.28,21.28,0,0,0,9.18-2.08v0l.69-.37.13-.07,11.4-6,23.06-12.14L651,467.77c27.29,14,62.55,31,111.07,32.79,30.86,1.09,59.8-4.38,86.2-16.2,3.72-1.67,7.39-3.48,11-5.38,104-55.11,108.44-180.41,109.61-195.51l1-7.81Zm-30,36.21-.06.54c-7.18,39.53-28.32,110.7-89.21,143-.52.27-1.07.55-1.63.82-20.89,10.71-49.57,18.18-75.41,17.23a205.37,205.37,0,0,1-53.81-9.58l-15.16-6.47,16.7-8.7,62.69-33.12a24.5,24.5,0,0,0,13.25-21.31c.14-3.5,2.06-4.51.73-7.8-.32-.77-.67-1.55-1.07-2.3l-.34-.61a1.48,1.48,0,0,0-.16-.25c-4.34-7.51-12.12-9.68-20.88-10a24.91,24.91,0,0,0-12.66,3L687.11,401.1l-11.78,6.19s10.35-79.52,66.42-107.69c4.37-2.2,8.31-5.4,12.8-7.8,22.1-11.7,47.75-17.12,76.18-16.09,34.61,1.23,66.43,11.61,88.23,20.85,1.4.6,2.76,1.16,4.07,1.75l3.5,1.44Z"/><path class="cls-1" d="M173.76,660.84h31c28.55,0,47.36,16.72,47.36,41.44S233,743.37,204.75,743.37h-31Zm31,15H192.56v52.23h12.19c16.71,0,28.21-10.1,28.21-26.12s-11.5-25.76-28.21-26.11Z"/><path class="cls-1" d="M305.38,658.06c27.16,0,45.61,18.11,45.61,44.22s-18.45,43.87-45.61,43.87-45.61-17.76-45.61-43.87S278.22,658.06,305.38,658.06Zm0,71.38c15.32,0,26.11-11.49,26.11-27.51s-10.79-27.51-26.11-27.51-26.11,11.49-26.11,27.51C279.27,718.3,290.06,729.44,305.38,729.44Z"/><path class="cls-1" d="M362.48,743.37V660.84H382v65.81h34.47v16.72Z"/><path class="cls-1" d="M426.55,743.37V660.84h19.5v65.81h34.47v16.72Z"/><path class="cls-1" d="M566.87,743.37H546.33l-4.87-15H508.38l-4.53,15H483.31l27.85-82.53h28.21Zm-54.31-28.9h25.07l-12.54-36.91Z"/><path class="cls-1" d="M574.88,660.84h40c19.15,0,32.38,11.15,32.38,27.51a24.24,24.24,0,0,1-18.11,23.33L649.05,743H627.46l-16.36-28.9H594.38V743h-19.5ZM594,675.47v25.07h17.41c9.06,0,16-4.88,16-12.54,0-8-7-12.88-16-12.88Z"/></svg>