<svg id="Layer_1" data-name="Layer 1" xmlns="http://www.w3.org/2000/svg" viewBox="0 0 130.04 130.04"><defs><style>.cls-1{fill:#fff;}.cls-2{fill:#0083ff;}.cls-3{fill:#006e36;}.cls-4{fill:#00b22b;}</style></defs><title>Tanie_Rif_Tokens_August2020</title><path class="cls-1" d="M52.92,116.15a51.13,51.13,0,0,1,0-102.26,50.59,50.59,0,0,1,23.25,5.58A51.6,51.6,0,0,1,91.11,31l0.91-.5a29.29,29.29,0,0,1,13.91-3.34l1.23,0c9.36,0.33,15.7,2.88,17.36,3.83l1.75,1a4.49,4.49,0,0,1,2.17,4.44l-0.11.86V37.5c-0.88,13.07-6.65,23.07-16.24,28.15-0.58.31-1.12,0.57-1.66,0.81a27.88,27.88,0,0,1-6.48,2A51.2,51.2,0,0,1,52.92,116.15Z"/><path class="cls-2" d="M99.45,65A46.64,46.64,0,1,1,52.81,18.38,46.64,46.64,0,0,1,99.45,65"/><rect class="cls-1" x="46.88" y="39.49" width="4" height="4" rx="1.82" ry="1.82"/><rect class="cls-1" x="46.88" y="46.49" width="4" height="4" rx="1.82" ry="1.82"/><rect class="cls-1" x="27.88" y="67.49" width="4" height="4" rx="1.82" ry="1.82"/><rect class="cls-1" x="33.88" y="67.49" width="4" height="4" rx="1.82" ry="1.82"/><rect class="cls-1" x="39.88" y="53.49" width="12" height="4" rx="1.82" ry="1.82"/><rect class="cls-1" x="40.88" y="67.49" width="4" height="12" rx="1.82" ry="1.82"/><rect class="cls-1" x="57.88" y="67.49" width="17" height="4" rx="1.82" ry="1.82"/><rect class="cls-1" x="31.88" y="60.49" width="17" height="4" rx="1.82" ry="1.82"/><rect class="cls-1" x="67.88" y="59.49" width="4" height="4" rx="1.82" ry="1.82"/><rect class="cls-1" x="54.88" y="73.49" width="12" height="4" rx="1.82" ry="1.82"/><rect class="cls-1" x="54.88" y="80.49" width="4" height="4" rx="1.82" ry="1.82"/><rect class="cls-1" x="54.88" y="87.49" width="4" height="4" rx="1.82" ry="1.82"/><rect class="cls-1" x="53.88" y="43.49" width="4" height="17" rx="1.82" ry="1.82"/><rect class="cls-1" x="48.88" y="70.49" width="4" height="17" rx="1.82" ry="1.82"/><rect class="cls-1" x="61.88" y="51.49" width="4" height="12" rx="1.82" ry="1.82"/><path class="cls-3" d="M85.54,57.54l32.4-18.74s0.71-6.71-11.81-6.58S86.52,40.54,85.57,47.91s0,9.64,0,9.64"/><path class="cls-4" d="M118.46,38L86.05,56.72s-0.71,6.7,11.81,6.58S117.48,55,118.42,47.62s0-9.64,0-9.64"/><path class="cls-1" d="M122.28,34.92c-0.79-.46-6.39-2.92-15.28-3.24a25.17,25.17,0,0,0-12.88,2.8,22.89,22.89,0,0,0-3.49,2.28c-8,6.32-8.23,14.11-8.76,18.61l-6.35,3.1a2.64,2.64,0,0,0-1.62,2.44,2.72,2.72,0,0,0,2.73,2.64,10.75,10.75,0,0,0,1.25-.26h0v0h0l1.42-.77,2.91-1.54,1.41-.68a31.94,31.94,0,0,0,14.07,4.15,24.34,24.34,0,0,0,10.92-2.05c0.47-.21.94-0.44,1.39-0.68,13.17-7,13.74-22.86,13.88-24.77l0.13-1Zm-3.81,4.59v0.07c-0.91,5-3.59,14-11.3,18.11l-0.21.1A20.54,20.54,0,0,1,97.4,60a26.07,26.07,0,0,1-6.82-1.21l-1.92-.82,2.12-1.1,7.94-4.2a3.11,3.11,0,0,0,1.68-2.7,1.83,1.83,0,0,0,.09-1,3.1,3.1,0,0,0-.13-0.29l0-.08,0,0a2.89,2.89,0,0,0-2.64-1.27,3.15,3.15,0,0,0-1.6.37l-7.88,4.16-1.49.78S88,42.53,95.08,39c0.55-.28,1.05-0.68,1.62-1a18.9,18.9,0,0,1,9.65-2,32.34,32.34,0,0,1,11.18,2.64L118,38.8,118.49,39Z"/></svg>