<svg id="Layer_1" data-name="Layer 1" xmlns="http://www.w3.org/2000/svg" viewBox="0 0 1010.59 1010.59"><defs><style>.cls-1{fill:#fff;}.cls-2{fill:#0083ff;}.cls-3{fill:#006e36;}.cls-4{fill:#00b22b;}</style></defs><path class="cls-1" d="M408.9,908.9C186.35,908.9,5.3,727.84,5.3,505.3s181-403.61,403.6-403.61a399.24,399.24,0,0,1,183.53,44.06A407.3,407.3,0,0,1,710.35,237c2.36-1.37,4.76-2.7,7.17-4,32.92-17.51,69.86-26.39,109.79-26.39,3.22,0,6.5.06,9.75.18,73.9,2.63,124,22.74,137,30.26l13.79,8.13A35.43,35.43,0,0,1,1005,280.21l-.88,6.79-.07,1.05c-6.93,103.17-52.46,182.09-128.21,222.22-4.59,2.42-8.85,4.5-13.09,6.4a219.79,219.79,0,0,1-51.15,15.74C797.6,742.36,622.33,908.9,408.9,908.9Z"/><path class="cls-2" d="M777.09,505.31c0,203.35-164.84,368.2-368.19,368.2S40.71,708.66,40.71,505.31,205.55,137.12,408.9,137.12,777.09,302,777.09,505.31"/><rect class="cls-1" x="372.87" y="193.28" width="31.57" height="31.57" rx="14.37"/><path class="cls-1" d="M387.24,248.54h2.82a14.38,14.38,0,0,1,14.38,14.38v2.82a14.37,14.37,0,0,1-14.37,14.37h-2.82a14.38,14.38,0,0,1-14.38-14.38v-2.82A14.38,14.38,0,0,1,387.24,248.54Z"/><rect class="cls-1" x="214.99" y="414.3" width="31.57" height="31.57" rx="14.37"/><rect class="cls-1" x="270.25" y="414.3" width="31.57" height="31.57" rx="14.37"/><path class="cls-1" d="M324.09,303.79h66a14.37,14.37,0,0,1,14.37,14.37V321a14.37,14.37,0,0,1-14.37,14.37h-66A14.37,14.37,0,0,1,309.72,321v-2.82a14.38,14.38,0,0,1,14.38-14.38Z"/><path class="cls-1" d="M339.88,414.3h2.82a14.37,14.37,0,0,1,14.37,14.37v66A14.38,14.38,0,0,1,342.7,509h-2.82a14.37,14.37,0,0,1-14.37-14.37v-66A14.38,14.38,0,0,1,339.88,414.3Z"/><rect class="cls-1" x="459.7" y="406.41" width="134.19" height="31.57" rx="14.37"/><path class="cls-1" d="M260.94,359H366.38a14.38,14.38,0,0,1,14.38,14.38v2.82a14.38,14.38,0,0,1-14.38,14.38H260.94a14.37,14.37,0,0,1-14.37-14.37v-2.83A14.37,14.37,0,0,1,260.94,359Z"/><rect class="cls-1" x="538.63" y="351.15" width="31.57" height="31.57" rx="14.38"/><rect class="cls-1" x="436.01" y="461.67" width="94.72" height="31.57" rx="14.38"/><rect class="cls-1" x="436.01" y="516.92" width="31.57" height="31.57" rx="14.37"/><path class="cls-1" d="M450.39,572.18h2.82a14.37,14.37,0,0,1,14.37,14.37v2.82a14.38,14.38,0,0,1-14.38,14.38h-2.82A14.37,14.37,0,0,1,436,589.38v-2.82A14.38,14.38,0,0,1,450.39,572.18Z"/><path class="cls-1" d="M442.5,224.86h2.82a14.37,14.37,0,0,1,14.37,14.37V344.67A14.38,14.38,0,0,1,445.32,359h-2.82a14.37,14.37,0,0,1-14.37-14.37V239.23A14.38,14.38,0,0,1,442.5,224.86Z"/><rect class="cls-1" x="380.76" y="437.98" width="31.57" height="134.19" rx="14.37"/><rect class="cls-1" x="483.38" y="288.01" width="31.57" height="94.72" rx="14.38"/><path class="cls-3" d="M667.26,446.27,923,298.32s5.58-52.93-93.24-51.91S675,312.09,667.51,370.21s-.25,76.06-.25,76.06"/><path class="cls-4" d="M927.09,291.87l-255.78,148s-5.57,52.92,93.24,51.9,154.83-65.68,162.29-123.8.25-76.06.25-76.06"/><path class="cls-1" d="M956.4,267.7c-6.27-3.61-50.48-23-120.61-25.56-37.31-1.33-71.59,6.11-101.65,22.1a180.79,180.79,0,0,0-27.56,18c-63.31,49.91-65,111.4-69.17,146.93l-50.11,24.5a20.87,20.87,0,0,0,8.08,40.11,21.28,21.28,0,0,0,9.18-2.08v0l.69-.37.13-.07,11.4-6,23.06-12.14L651,467.77c27.29,14,62.55,31,111.07,32.79,30.86,1.09,59.8-4.38,86.2-16.2,3.72-1.67,7.39-3.48,11-5.38,104-55.11,108.44-180.41,109.61-195.51l1-7.81Zm-30,36.21-.06.54c-7.18,39.53-28.32,110.7-89.21,143-.52.27-1.07.55-1.63.82-20.89,10.71-49.57,18.18-75.41,17.23a205.37,205.37,0,0,1-53.81-9.58l-15.16-6.47,16.7-8.7,62.69-33.12a24.5,24.5,0,0,0,13.25-21.31c.14-3.5,2.06-4.51.73-7.8-.32-.77-.67-1.55-1.07-2.3l-.34-.61a1.48,1.48,0,0,0-.16-.25c-4.34-7.51-12.12-9.68-20.88-10a24.91,24.91,0,0,0-12.66,3L687.11,401.1l-11.78,6.19s10.35-79.52,66.42-107.69c4.37-2.2,8.31-5.4,12.8-7.8,22.1-11.7,47.75-17.12,76.18-16.09,34.61,1.23,66.43,11.61,88.23,20.85,1.4.6,2.76,1.16,4.07,1.75l3.5,1.44Z"/><path class="cls-1" d="M259.93,723.23v44.6H229.18V640.68H279q22.67,0,34.54,11.24t11.86,30.31a41.81,41.81,0,0,1-5.3,21.13,36.83,36.83,0,0,1-15.74,14.57q-10.43,5.3-25.36,5.3Zm34.17-41q0-16.72-18.52-16.73H259.93v33.1h15.65Q294.11,698.6,294.1,682.23Z"/><path class="cls-1" d="M405.78,767.83l-27.51-48h-7v48H340.5V640.68H393q15.11,0,25.53,5.22a36.06,36.06,0,0,1,15.65,14.3A41,41,0,0,1,439.42,681q0,13.85-7.65,23.56t-22.21,13.3l30.21,50Zm-34.53-69.06h19.07q9.17,0,13.48-4t4.32-12q0-7.56-4.41-11.87t-13.39-4.32H371.25Z"/><path class="cls-1" d="M547.94,647.07a60.87,60.87,0,0,1,23.11,23.2q8.46,14.84,8.46,33.54A66.43,66.43,0,0,1,571,737.44a61.34,61.34,0,0,1-23.2,23.29,67.2,67.2,0,0,1-64.92,0,61.34,61.34,0,0,1-23.2-23.29,66.43,66.43,0,0,1-8.54-33.63q0-18.7,8.54-33.54a61.52,61.52,0,0,1,23.2-23.2,67.55,67.55,0,0,1,65.1,0Zm-56.65,30q-8.9,9.81-8.9,26.71,0,16.73,8.9,26.61t24,9.89q14.93,0,23.92-9.89t9-26.61q0-16.72-8.9-26.62t-24-9.89Q500.2,667.3,491.29,677.1Z"/></svg>