<svg width="28" height="28" viewBox="0 0 28 28" fill="none" xmlns="http://www.w3.org/2000/svg">
<path d="M27.5 14C27.5 21.4558 21.4558 27.5 14 27.5C6.54416 27.5 0.5 21.4558 0.5 14C0.5 6.54416 6.54416 0.5 14 0.5C21.4558 0.5 27.5 6.54416 27.5 14Z" fill="white" stroke="#3AB24D"/>
<path d="M23.7863 12.7851C23.7222 12.7567 22.0771 11.8828 20.6883 12.6785C19.5844 13.3179 19.3494 14.6039 19.3209 15.1297L18.8081 15.4281C18.5589 15.1794 18.2028 15.0231 17.8111 15.0231C17.4194 15.0231 17.0775 15.1794 16.8282 15.4281L14.478 14.0782C14.5065 13.9716 14.5279 13.8579 14.5279 13.7371C14.5279 13.0835 14.0934 12.5435 13.5023 12.373V11.5346C14.186 11.1012 16.3653 9.50266 16.3653 6.95204C16.3653 4.03197 13.4382 2.19893 13.3171 2.12078L13.1177 2L12.8969 2.12078C12.7759 2.19893 9.86301 4.03197 9.86301 6.96625C9.86301 9.50977 12.0423 11.0941 12.726 11.5488V12.373C12.1349 12.5435 11.7005 13.0906 11.7005 13.7371C11.7005 13.8579 11.7147 13.9716 11.7503 14.0782L9.40008 15.4281C9.15082 15.1794 8.79472 15.0231 8.41726 15.0231C7.64097 15.0231 7 15.6625 7 16.4369C7 17.0764 7.43444 17.6306 8.02556 17.8011V20.6146C7.43444 20.7851 7 21.3322 7 21.9787C7 22.7531 7.64097 23.3925 8.41726 23.3925C8.83745 23.3925 9.20779 23.222 9.45706 22.9236L11.7432 24.2451C11.7147 24.3517 11.6933 24.4654 11.6933 24.5861C11.6933 25.3606 12.3343 26 13.1106 26C13.8869 26 14.5279 25.3606 14.5279 24.5861C14.5279 24.4654 14.5136 24.3517 14.478 24.2451L16.7641 22.9236C17.0276 23.2007 17.4051 23.3925 17.8039 23.3925C18.5802 23.3925 19.2212 22.7531 19.2212 21.9787C19.2212 21.3393 18.7868 20.7851 18.1956 20.6146V17.8011C18.7868 17.6306 19.2212 17.0835 19.2212 16.4369C19.2212 16.3304 19.207 16.2025 19.1927 16.1101L19.7055 15.8117C20.0046 15.9538 20.5957 16.1812 21.2652 16.1812C21.6711 16.1812 22.1056 16.0888 22.54 15.8544C23.9288 15.0657 24 13.1972 24 13.1332V12.8917L23.7863 12.7851ZM18.2099 16.9414C18.1031 17.0337 17.9606 17.0835 17.8182 17.0835C17.7398 17.0835 17.6615 17.0693 17.5974 17.0337C17.5333 17.0195 17.4763 16.984 17.4265 16.9414C17.3054 16.849 17.2057 16.6927 17.1915 16.5364C17.1915 16.508 17.1915 16.4725 17.1915 16.4441C17.1915 16.4156 17.1915 16.3943 17.1915 16.3659C17.2199 16.1314 17.3766 15.9467 17.5832 15.8544C17.6615 15.8259 17.7398 15.8046 17.8182 15.8046C17.9108 15.8046 17.9891 15.8188 18.0674 15.8544C18.3025 15.9467 18.4592 16.1812 18.4592 16.4441C18.4592 16.4725 18.4592 16.508 18.4449 16.5506C18.4164 16.714 18.3238 16.849 18.2099 16.9414ZM18.4449 21.9716C18.4449 22.3126 18.1672 22.611 17.8039 22.611C17.6829 22.611 17.5689 22.5826 17.4763 22.5187C17.2912 22.4121 17.1772 22.206 17.1772 21.9716V21.9574C17.1772 21.8934 17.1915 21.8153 17.2057 21.7726C17.2556 21.6661 17.3125 21.5524 17.4051 21.4956C17.4835 21.4316 17.576 21.389 17.6829 21.3748C17.7114 21.3748 17.7612 21.3606 17.7897 21.3606C17.9464 21.3606 18.0674 21.4103 18.1814 21.5027C18.3523 21.6021 18.4449 21.7726 18.4449 21.9716ZM17.4194 20.6217C17.2342 20.6856 17.049 20.778 16.9066 20.8988L14.4922 19.4991C14.5065 19.4068 14.5207 19.3144 14.5207 19.222C14.5207 19.0799 14.5065 18.9591 14.4566 18.8313L16.8211 17.4671C16.9778 17.6234 17.1772 17.7442 17.4122 17.8082V20.6217H17.4194ZM13.1106 25.2185C12.7972 25.2185 12.5337 24.984 12.491 24.6714C12.491 24.643 12.491 24.6075 12.491 24.579C12.491 24.3162 12.6619 24.0817 12.8827 23.9893C12.961 23.9609 13.0394 23.9396 13.1177 23.9396C13.1961 23.9396 13.2886 23.9538 13.3527 23.9893C13.5878 24.0817 13.7444 24.3162 13.7444 24.579C13.7444 24.6075 13.7444 24.643 13.7444 24.6714C13.6804 24.9911 13.4168 25.2185 13.1106 25.2185ZM11.7076 19.5062L9.29326 20.8917C9.13657 20.7709 8.96565 20.6714 8.78048 20.6146V17.8011C9.0155 17.7371 9.20067 17.6163 9.3716 17.46L11.7361 18.8242C11.7076 18.9449 11.672 19.087 11.672 19.2291C11.672 19.3215 11.6933 19.4139 11.7076 19.5062ZM9.02974 21.9716C9.02974 22.206 8.90867 22.405 8.73062 22.5187C8.63804 22.5826 8.53121 22.611 8.40302 22.611C8.06116 22.611 7.76204 22.3339 7.76204 21.9716C7.76204 21.7726 7.85463 21.5808 7.99707 21.4742C8.1039 21.3819 8.24633 21.3321 8.38877 21.3321C8.41726 21.3321 8.46711 21.3321 8.4956 21.3464C8.60243 21.3606 8.69501 21.4103 8.77336 21.4671C8.86594 21.5453 8.94428 21.6377 8.97277 21.7442C8.98701 21.8082 9.00126 21.865 9.00126 21.9432C9.02974 21.9574 9.02974 21.9716 9.02974 21.9716ZM7.75492 16.4441C7.75492 16.103 8.03268 15.8046 8.39589 15.8046C8.47424 15.8046 8.55258 15.8188 8.63092 15.8544C8.83033 15.9325 8.98701 16.1172 9.02262 16.3517C9.02262 16.3801 9.02262 16.4156 9.02262 16.4441C9.02262 16.4725 9.02262 16.508 9.02262 16.5364C9.00838 16.7069 8.91579 16.849 8.7876 16.9414C8.73775 16.9698 8.69501 17.0053 8.63092 17.0337C8.55258 17.0622 8.47424 17.0835 8.39589 17.0835C8.23921 17.0835 8.11814 17.0337 8.00419 16.9414C7.84751 16.8206 7.75492 16.6501 7.75492 16.4441ZM12.7047 13.2327C12.8115 13.1545 12.9539 13.0906 13.0964 13.0906C13.2388 13.0906 13.3741 13.1403 13.4881 13.2327C13.6091 13.325 13.6875 13.4814 13.7231 13.6377C13.7231 13.6661 13.7231 13.7016 13.7231 13.73C13.7231 13.929 13.6305 14.1208 13.4738 14.2274C13.424 14.2558 13.367 14.2913 13.3171 14.3197C13.2388 14.3481 13.1605 14.3694 13.0821 14.3694C13.0038 14.3694 12.9254 14.3552 12.8471 14.3197C12.783 14.3055 12.7403 14.27 12.6904 14.2274C12.548 14.1208 12.4411 13.929 12.4411 13.73C12.4411 13.7016 12.4411 13.6661 12.4411 13.6377C12.4981 13.4671 12.5765 13.325 12.7047 13.2327ZM13.7302 19.2576C13.7302 19.4423 13.6376 19.6128 13.4952 19.7265C13.4667 19.7407 13.4311 19.7762 13.4026 19.7904C13.31 19.8401 13.2174 19.8686 13.1035 19.8686C12.9966 19.8686 12.9041 19.8401 12.8044 19.7904C12.7759 19.7762 12.7403 19.762 12.7118 19.7265C12.5693 19.6199 12.4767 19.4494 12.4767 19.2433V19.2291C12.4767 19.1652 12.4767 19.1226 12.491 19.0586C12.5195 18.9165 12.5978 18.8099 12.7118 18.7318C12.7759 18.6821 12.8685 18.6394 12.9468 18.6252C12.9966 18.611 13.0536 18.611 13.1035 18.611C13.1676 18.611 13.2103 18.611 13.2744 18.6252C13.3527 18.6394 13.4311 18.6892 13.5094 18.7318C13.6163 18.8099 13.6946 18.9307 13.7302 19.0586C13.7444 19.1083 13.7587 19.1652 13.7587 19.2291C13.7302 19.2433 13.7302 19.2433 13.7302 19.2576ZM16.4365 16.103C16.408 16.2096 16.3867 16.3233 16.3867 16.4441C16.3867 16.5648 16.4009 16.6785 16.4365 16.7993L14.0364 18.1847C13.8798 18.0426 13.6946 17.9361 13.4881 17.8721V15.0941C13.7231 15.0302 13.9083 14.9094 14.0792 14.7531L16.4365 16.103ZM10.6322 6.95915C10.6322 4.87744 12.4696 3.37123 13.1106 2.92362C13.7302 3.37123 15.589 4.87744 15.589 6.95915C15.589 8.69982 14.3 9.97158 13.5165 10.5613V7.28597C13.5165 7.06572 13.3456 6.89521 13.1248 6.89521C12.9041 6.89521 12.7331 7.06572 12.7331 7.28597V10.5755C11.9212 9.97158 10.6322 8.71403 10.6322 6.95915ZM12.1135 14.7531C12.2845 14.9094 12.4696 15.0302 12.7047 15.0941V17.8721C12.5052 17.9361 12.3129 18.0284 12.1563 18.1705L9.75618 16.7851C9.78467 16.6785 9.80603 16.5648 9.80603 16.4441C9.80603 16.3233 9.79179 16.2096 9.75618 16.103L12.1135 14.7531ZM9.79179 22.2202C9.80603 22.1421 9.80603 22.0497 9.80603 21.9716C9.80603 21.8153 9.77754 21.6732 9.74194 21.5382L12.0779 20.2025C12.2488 20.373 12.4696 20.5151 12.7189 20.5933V23.2362C12.4839 23.3002 12.2845 23.421 12.1278 23.5773L9.79179 22.2202ZM14.0863 23.5773C13.9154 23.421 13.716 23.3002 13.4952 23.2362V20.5933C13.7444 20.5293 13.9652 20.3943 14.1362 20.2025L16.4721 21.5382C16.4223 21.6803 16.408 21.8153 16.408 21.9716C16.408 22.0497 16.408 22.1421 16.4223 22.2202L14.0863 23.5773ZM22.1483 15.1865C21.6213 15.4849 21.0444 15.4352 20.5886 15.3073L21.3649 14.8597C21.5501 14.7531 21.6142 14.5187 21.5073 14.3339C21.4005 14.1492 21.1655 14.0853 20.9589 14.1918L20.1827 14.6394C20.3037 14.206 20.553 13.659 21.0729 13.3677C21.8207 12.9343 22.7537 13.2114 23.1739 13.3819C23.1169 13.8224 22.8961 14.7531 22.1483 15.1865Z" fill="#3AB24D"/>
</svg>
