<svg width="96" height="96" viewBox="0 0 96 96" fill="none" xmlns="http://www.w3.org/2000/svg">
<circle cx="48" cy="48" r="46.5" fill="white" stroke="#F1F3F5" stroke-width="3"/>
<path d="M64.8743 43.4897C64.5684 43.1761 64.1536 43 63.7211 43H23.8174C23.0905 43 22.7266 43.9017 23.2408 44.4287L31.1257 52.5103C31.4316 52.8239 31.8464 53 32.2789 53H72.1826C72.9095 53 73.2734 52.0983 72.7592 51.5713L64.8743 43.4897Z" fill="url(#paint0_linear)"/>
<path d="M31.1257 58.5352C31.4316 58.2231 31.8464 58.0478 32.2789 58.0478H72.1826C72.9095 58.0478 73.2734 58.9452 72.7592 59.4697L64.8743 67.5126C64.5684 67.8247 64.1536 68 63.7211 68H23.8174C23.0905 68 22.7266 67.1027 23.2408 66.5781L31.1257 58.5352Z" fill="url(#paint1_linear)"/>
<path d="M31.1257 28.4874C31.4316 28.1753 31.8464 28 32.2789 28H72.1826C72.9095 28 73.2734 28.8973 72.7592 29.4219L64.8743 37.4648C64.5684 37.7769 64.1536 37.9522 63.7211 37.9522H23.8174C23.0905 37.9522 22.7266 37.0548 23.2408 36.5303L31.1257 28.4874Z" fill="url(#paint2_linear)"/>
<defs>
<linearGradient id="paint0_linear" x1="56.8029" y1="16.975" x2="28.0661" y2="70.6352" gradientUnits="userSpaceOnUse">
<stop stop-color="#00FFA3"/>
<stop offset="1" stop-color="#DC1FFF"/>
</linearGradient>
<linearGradient id="paint1_linear" x1="56.8029" y1="17.0278" x2="28.2797" y2="70.545" gradientUnits="userSpaceOnUse">
<stop stop-color="#00FFA3"/>
<stop offset="1" stop-color="#DC1FFF"/>
</linearGradient>
<linearGradient id="paint2_linear" x1="56.8029" y1="17.0278" x2="28.2797" y2="70.545" gradientUnits="userSpaceOnUse">
<stop stop-color="#00FFA3"/>
<stop offset="1" stop-color="#DC1FFF"/>
</linearGradient>
</defs>
</svg>
