<svg width="804" height="804" viewBox="0 0 804 804" fill="none" xmlns="http://www.w3.org/2000/svg">
<circle cx="402" cy="402" r="402" fill="#C0C1C8"/>
<path d="M163.649 217.001C167.449 224.401 187.349 263.801 207.849 304.501C263.049 414.201 326.949 540.601 370.749 627.201C387.749 660.701 393.949 672.201 395.949 673.401C399.549 675.501 403.749 675.701 407.449 673.701C410.549 672.101 415.149 663.501 439.049 615.601L443.949 605.701L423.249 574.601C405.749 548.501 398.449 537.901 382.249 515.501C381.449 514.401 365.249 491.901 346.249 465.501C327.249 439.101 311.249 416.801 310.549 416.001C309.349 414.501 286.849 383.301 281.749 376.101C280.349 374.101 274.349 365.701 268.349 357.501C262.349 349.201 255.549 339.801 253.149 336.501C250.849 333.201 248.049 329.401 247.149 328.101C246.149 326.801 244.049 323.801 242.349 321.501C240.749 319.101 232.449 307.601 223.949 295.801C215.449 284.101 197.449 259.201 184.049 240.501C170.549 221.801 158.949 205.801 158.149 205.001C157.349 204.201 159.849 209.601 163.649 217.001Z" fill="white"/>
<path d="M642.249 209.6C640.149 212.7 637.449 216.4 636.249 217.8C635.149 219.3 626.649 231.1 617.349 244C608.049 256.9 597.349 271.8 593.549 277C581.749 293.2 516.749 383.3 514.449 386.6C512.549 389.5 505.249 399.6 475.749 440.5C470.149 448.2 460.049 462.1 453.349 471.5C446.649 480.8 434.349 497.9 426.049 509.4L410.949 530.3L417.149 539.4C420.549 544.4 423.649 548.9 424.149 549.5C424.549 550 430.749 559 437.949 569.5C445.049 579.9 451.249 588.6 451.749 588.8C452.149 588.9 463.249 567.8 476.349 541.8C489.449 515.8 507.149 480.5 515.849 463.5C524.549 446.4 547.649 400.5 567.349 361.5C587.049 322.4 612.949 271 624.949 247.2C637.049 223.5 646.649 204 646.549 204C646.349 204 644.449 206.5 642.249 209.6Z" fill="white"/>
<path d="M199.649 214.3C195.649 216.7 193.649 221.7 194.849 226.1C195.449 228 201.849 237.6 209.249 247.5C221.649 264.3 287.749 354.1 296.249 365.7C298.349 368.6 300.149 371 300.249 371C300.349 371 300.549 369.8 300.549 368.2C300.649 356.3 303.649 338.9 307.449 327.3C318.749 293.9 346.049 274.9 390.649 269.5C392.149 269.4 434.349 269.2 484.349 269.1L575.449 269L585.349 255.4C604.049 230 605.749 227.3 605.949 224.4C606.149 220.2 604.349 216.4 601.149 214.3C598.549 212.6 589.549 212.5 400.549 212.5C212.549 212.5 202.449 212.6 199.649 214.3Z" fill="white"/>
<path d="M366.35 292.501C340.15 300.901 325.55 312.401 315.75 332.501C311.55 341.201 306.05 358.501 304.35 368.601L303.85 371.801L363.05 371.901C395.55 371.901 424.25 372.301 426.75 372.601C454.45 376.101 466.85 388.501 463.35 409.001C462.65 413.501 459.95 421.701 458.15 425.301C454.95 431.601 458.05 428.401 466.95 416.301C472.15 409.301 480.55 397.901 485.65 391.001C490.75 384.101 496.05 376.901 497.35 375.001C498.65 373.101 506.75 362.001 515.35 350.501C528.55 332.701 534.45 324.601 543.65 312.001C544.95 310.201 542.25 310.201 469.65 310.101C421.65 310.101 393.45 309.801 391.85 309.101C384.95 306.301 379.55 300.201 378.35 293.701C377.95 291.601 377.35 289.801 376.95 289.601C376.65 289.401 371.85 290.701 366.35 292.501Z" fill="white"/>
<path d="M431.35 386.7C434.05 394.6 430.65 404.1 423.05 409.5L418.65 412.5L375.25 412.8C351.35 412.9 331.85 413.3 331.85 413.6C331.85 414 339.55 424.6 348.95 437.4C358.35 450.1 366.85 461.6 367.85 463C368.85 464.4 374.25 471.8 379.85 479.5C392.85 497.3 394.55 499 400.25 499C405.85 499 407.05 497.9 416.65 484.8C420.85 479 429.55 467 435.95 458.3C447.35 442.8 447.65 442.3 449.85 433C452.65 421.3 453.35 407.2 451.35 400.6C450.55 398 448.55 394.1 446.85 392C443.85 388.2 435.15 383 431.75 383C430.25 383 430.25 383.4 431.35 386.7Z" fill="white"/>
</svg>
