<svg viewBox="0 0 28 28" fill="none" xmlns="http://www.w3.org/2000/svg">
<circle cx="14" cy="14" r="14" fill="#5E5E5E"/>
<path d="M5.69674 7.55822C5.82908 7.81594 6.52211 9.18807 7.23604 10.6055C9.15843 14.4259 11.3838 18.8279 12.9092 21.8438C13.5012 23.0105 13.7171 23.411 13.7868 23.4528C13.9122 23.5259 14.0584 23.5329 14.1873 23.4632C14.2952 23.4075 14.4554 23.108 15.2878 21.4398L15.4584 21.095L14.7375 20.012C14.1281 19.103 13.8739 18.7338 13.3097 17.9537C13.2818 17.9154 12.7176 17.1319 12.0559 16.2125C11.3943 15.293 10.837 14.5164 10.8127 14.4886C10.7709 14.4363 9.98729 13.3498 9.80967 13.099C9.76092 13.0294 9.55196 12.7368 9.34301 12.4513C9.13405 12.1622 8.89724 11.8348 8.81365 11.7199C8.73356 11.605 8.63604 11.4727 8.6047 11.4274C8.56987 11.3821 8.49674 11.2776 8.43754 11.1975C8.38181 11.1139 8.09276 10.7134 7.79674 10.3025C7.50072 9.89504 6.87385 9.02787 6.40719 8.37663C5.93704 7.72539 5.53306 7.16817 5.5052 7.14031C5.47734 7.11245 5.5644 7.30051 5.69674 7.55822Z" fill="white"/>
<path d="M22.3638 7.29792C22.2907 7.40588 22.1967 7.53474 22.1549 7.5835C22.1166 7.63574 21.8205 8.04668 21.4967 8.49593C21.1728 8.94519 20.8001 9.46409 20.6678 9.64519C20.2569 10.2094 17.9932 13.3472 17.9131 13.4621C17.8469 13.5631 17.5927 13.9148 16.5653 15.3392C16.3703 15.6074 16.0185 16.0915 15.7852 16.4188C15.5519 16.7427 15.1235 17.3382 14.8345 17.7387L14.3086 18.4666L14.5245 18.7835C14.6429 18.9576 14.7509 19.1143 14.7683 19.1352C14.7822 19.1527 14.9981 19.4661 15.2489 19.8318C15.4962 20.1939 15.7121 20.4969 15.7295 20.5039C15.7434 20.5074 16.13 19.7726 16.5862 18.8671C17.0424 17.9616 17.6588 16.7323 17.9618 16.1402C18.2648 15.5447 19.0693 13.9462 19.7554 12.588C20.4414 11.2263 21.3434 9.43623 21.7613 8.60738C22.1827 7.782 22.5171 7.1029 22.5136 7.1029C22.5066 7.1029 22.4404 7.18996 22.3638 7.29792Z" fill="white"/>
<path d="M6.94874 7.46466C6.80944 7.54824 6.73979 7.72237 6.78158 7.87561C6.80247 7.94178 7.02536 8.2761 7.28307 8.62088C7.71491 9.20595 10.0169 12.3333 10.3129 12.7373C10.3861 12.8383 10.4487 12.9219 10.4522 12.9219C10.4557 12.9219 10.4627 12.8801 10.4627 12.8244C10.4662 12.4099 10.5706 11.804 10.703 11.4C11.0965 10.2368 12.0472 9.57511 13.6005 9.38705C13.6527 9.38357 15.1224 9.3766 16.8637 9.37312L20.0363 9.36964L20.3811 8.896C21.0323 8.01143 21.0915 7.9174 21.0985 7.8164C21.1055 7.67013 21.0428 7.5378 20.9313 7.46466C20.8408 7.40546 20.5273 7.40197 13.9453 7.40197C7.39799 7.40197 7.04625 7.40546 6.94874 7.46466Z" fill="white"/>
<path d="M12.7547 10.1871C11.8423 10.4796 11.3338 10.8801 10.9926 11.5801C10.8463 11.8831 10.6547 12.4856 10.5955 12.8374L10.5781 12.9488L12.6398 12.9523C13.7717 12.9523 14.7712 12.9662 14.8582 12.9767C15.8229 13.0985 16.2547 13.5304 16.1329 14.2443C16.1085 14.401 16.0144 14.6866 15.9518 14.812C15.8403 15.0314 15.9483 14.9199 16.2582 14.4985C16.4393 14.2548 16.7319 13.8577 16.9095 13.6174C17.0871 13.3772 17.2717 13.1264 17.3169 13.0602C17.3622 12.9941 17.6443 12.6075 17.9438 12.207C18.4035 11.5871 18.609 11.305 18.9294 10.8662C18.9746 10.8035 18.8806 10.8035 16.3523 10.8C14.6806 10.8 13.6985 10.7896 13.6428 10.7652C13.4025 10.6677 13.2144 10.4553 13.1727 10.2289C13.1587 10.1558 13.1378 10.0931 13.1239 10.0861C13.1134 10.0791 12.9463 10.1244 12.7547 10.1871Z" fill="white"/>
<path d="M15.0199 13.468C15.1139 13.7431 14.9955 14.0739 14.7308 14.262L14.5776 14.3665L13.0661 14.3769C12.2338 14.3804 11.5547 14.3943 11.5547 14.4048C11.5547 14.4187 11.8228 14.7879 12.1502 15.2336C12.4776 15.6759 12.7736 16.0764 12.8084 16.1252C12.8432 16.1739 13.0313 16.4316 13.2263 16.6998C13.6791 17.3197 13.7383 17.3789 13.9368 17.3789C14.1318 17.3789 14.1736 17.3406 14.5079 16.8844C14.6542 16.6824 14.9572 16.2645 15.1801 15.9615C15.5771 15.4217 15.5875 15.4043 15.6641 15.0804C15.7617 14.6729 15.786 14.1819 15.7164 13.952C15.6885 13.8615 15.6189 13.7257 15.5597 13.6525C15.4552 13.5202 15.1522 13.3391 15.0338 13.3391C14.9816 13.3391 14.9816 13.353 15.0199 13.468Z" fill="white"/>
</svg>
