
<?xml version="1.0" standalone="no"?>
<!DOCTYPE svg PUBLIC "-//W3C//DTD SVG 20010904//EN"
 "http://www.w3.org/TR/2001/REC-SVG-20010904/DTD/svg10.dtd">
<svg version="1.0" xmlns="http://www.w3.org/2000/svg"
 width="500.000000pt" height="500.000000pt" viewBox="0 0 500.000000 500.000000"
 preserveAspectRatio="xMidYMid meet">
<metadata>
Created by potrace 1.11, written by Peter Selinger 2001-2013
</metadata>
<g transform="translate(0.000000,500.000000) scale(0.100000,-0.100000)"
fill="#000000" stroke="none">
<path d="M118 4720 c38 -74 237 -468 442 -875 552 -1097 1191 -2361 1629
-3227 170 -335 232 -450 252 -462 36 -21 78 -23 115 -3 31 16 77 102 316 581
l49 99 -207 311 c-175 261 -248 367 -410 591 -8 11 -170 236 -360 500 -190
264 -350 487 -357 495 -12 15 -237 327 -288 399 -14 20 -74 104 -134 186 -60
83 -128 177 -152 210 -23 33 -51 71 -60 84 -10 13 -31 43 -48 66 -16 24 -99
139 -184 257 -85 117 -265 366 -399 553 -135 187 -251 347 -259 355 -8 8 17
-46 55 -120z"/>
<path d="M4904 4794 c-21 -31 -48 -68 -60 -82 -11 -15 -96 -133 -189 -262 -93
-129 -200 -278 -238 -330 -118 -162 -768 -1063 -791 -1096 -19 -29 -92 -130
-387 -539 -56 -77 -157 -216 -224 -310 -67 -93 -190 -264 -273 -379 l-151
-209 62 -91 c34 -50 65 -95 70 -101 4 -5 66 -95 138 -200 71 -104 133 -191
138 -193 4 -1 115 210 246 470 131 260 308 613 395 783 87 171 318 630 515
1020 197 391 456 905 576 1143 121 237 217 432 216 432 -2 0 -21 -25 -43 -56z"/>
<path d="M478 4747 c-40 -24 -60 -74 -48 -118 6 -19 70 -115 144 -214 124
-168 785 -1066 870 -1182 21 -29 39 -53 40 -53 1 0 3 12 3 28 1 119 31 293 69
409 113 334 386 524 832 578 15 1 437 3 937 4 l911 1 99 136 c187 254 204 281
206 310 2 42 -16 80 -48 101 -26 17 -116 18 -2006 18 -1880 0 -1981 -1 -2009
-18z"/>
<path d="M2145 3965 c-262 -84 -408 -199 -506 -400 -42 -87 -97 -260 -114
-361 l-5 -32 592 -1 c325 0 612 -4 637 -7 277 -35 401 -159 366 -364 -7 -45
-34 -127 -52 -163 -32 -63 -1 -31 88 90 52 70 136 184 187 253 51 69 104 141
117 160 13 19 94 130 180 245 132 178 191 259 283 385 13 18 -14 18 -740 19
-480 0 -762 3 -778 10 -69 28 -123 89 -135 154 -4 21 -10 39 -14 41 -3 2 -51
-11 -106 -29z"/>
<path d="M2795 3023 c27 -79 -7 -174 -83 -228 l-44 -30 -434 -3 c-239 -1 -434
-5 -434 -8 0 -4 77 -110 171 -238 94 -127 179 -242 189 -256 10 -14 64 -88
120 -165 130 -178 147 -195 204 -195 56 0 68 11 164 142 42 58 129 178 193
265 114 155 117 160 139 253 28 117 35 258 15 324 -8 26 -28 65 -45 86 -30 38
-117 90 -151 90 -15 0 -15 -4 -4 -37z"/>
</g>
</svg>
