<svg width="400" height="400" viewBox="0 0 400 400" fill="none" xmlns="http://www.w3.org/2000/svg">
<mask id="mask0_618_71" style="mask-type:alpha" maskUnits="userSpaceOnUse" x="0" y="0" width="400" height="400">
<circle cx="200" cy="200" r="200" fill="white"/>
</mask>
<g mask="url(#mask0_618_71)">
<circle cx="204.913" cy="204.913" r="209.538" fill="white"/>
<path d="M133.005 10.9248C155.49 1.67629 179.941 -1.32949 204.045 -2.08093C240.346 -1.6185 277.514 3.00577 310.635 18.6127C336.647 30.6358 358.323 50.4624 375.433 73.1214C370.057 69.1907 366.993 62.8324 362.196 58.2659C353.409 49.8844 345.548 39.8266 333.93 35.2601C322.485 31.3295 310.172 30.3468 298.149 30.9248C268.034 33.0636 238.67 41.1561 210.288 51.2717C179.132 63.526 147.803 78.5549 124.566 103.353C119.941 107.977 117.225 114.104 112.716 118.786C102.08 111.561 91.7332 102.948 85.4326 91.5607C85.1436 90.9827 84.5078 89.7688 84.2188 89.1329C103.756 80 122.774 68.7861 137.745 53.0636C145.49 44.6821 152.716 32.948 148.727 21.2139C146.357 14.4509 138.612 13.5838 133.005 10.9248ZM216.473 245.549C245.664 256.301 275.144 266.243 305.028 274.855C331.213 281.965 366.068 288.902 393.352 288.728C390.519 295.607 387.167 302.254 375.259 308.613C351.213 316.358 328.149 326.994 306.646 340.289C293.467 348.902 280.057 358.497 272.311 372.543C269.19 378.035 269.132 384.509 270.808 390.405C270.462 390.809 269.768 391.561 269.479 391.965C260.115 394.393 250.346 399.595 240.577 395.838C224.219 390.578 210.751 379.017 199.479 366.474C185.722 350.173 174.45 330.347 173.063 308.671C172.658 288.266 185.375 270.462 200.288 257.746C205.375 253.353 210.982 249.48 216.473 245.549Z" fill="#2845AD"/>
<path d="M114.856 12.1387C120.81 10.6936 126.937 11.5029 133.007 10.9827C138.614 13.6416 146.359 14.5087 148.729 21.2139C152.66 32.948 145.492 44.6821 137.747 53.0636C122.776 68.7861 103.758 80 84.2207 89.133C84.5097 89.711 85.0877 90.9249 85.4345 91.5607C83.1802 90 80.4056 90.8671 78.1513 91.9075C63.2958 98.5549 47.8045 103.757 31.9085 107.514C25.7813 108.786 19.5964 110.116 13.2958 109.422C13.2958 105.78 15.8391 102.89 17.342 99.7688C32.3709 72.5434 53.1802 48.9017 78.2669 30.4624C89.3651 22.4856 101.041 14.1041 114.856 12.1387ZM210.29 51.2717C238.614 41.1561 267.978 33.0636 298.151 30.9249C310.174 30.3468 322.487 31.3295 333.932 35.2601C345.55 39.8844 353.411 49.9422 362.198 58.2659C366.995 62.8324 370.059 69.2486 375.435 73.1214C378.209 74.5087 379.192 77.9769 381.157 80.289C421.273 137.052 430.81 213.931 405.955 278.844C403.527 287.514 392.66 287.861 385.261 288.728C357.92 288.902 331.215 281.965 305.03 274.856C275.146 266.243 245.666 256.301 216.475 245.549C188.903 234.682 162.082 221.214 138.961 202.486C124.51 190.116 111.099 174.624 107.458 155.434C105.03 145.434 106.533 134.913 110.29 125.491C111.215 123.295 112.718 121.214 112.718 118.786C117.284 114.104 119.943 107.977 124.567 103.353C147.804 78.5549 179.134 63.526 210.29 51.2717ZM3.70041 129.769L4.85648 130.231C13.527 140.809 22.3709 151.329 31.0993 161.792C49.4808 182.832 65.2033 205.954 79.9432 229.653C100.579 261.445 119.076 296.301 122.833 334.566C123.18 355.202 123.296 376.012 119.943 396.474C113.989 397.977 108.093 394.162 102.776 391.85C63.0646 370.462 30.6368 336.012 11.2727 295.202C-13.0626 244.046 -15.9528 183.006 3.70041 129.769ZM375.261 308.613C380.521 307.225 385.781 305.145 391.33 305.376C392.833 309.191 389.943 312.428 388.151 315.549C370.695 343.757 346.88 368.035 318.614 385.434C309.134 391.387 299.018 397.977 287.4 397.399C281.851 397.803 276.475 395.434 272.371 391.792C271.677 391.85 270.174 391.965 269.481 392.023C269.828 391.619 270.521 390.867 270.81 390.462C269.192 384.566 269.25 378.035 272.313 372.601C280.059 358.555 293.469 348.96 306.648 340.347C328.151 326.994 351.215 316.358 375.261 308.613Z" fill="#5494F8"/>
</g>
</svg>
