<svg id="svg" version="1.1" xmlns="http://www.w3.org/2000/svg" xmlns:xlink="http://www.w3.org/1999/xlink" width="400" height="400" viewBox="0, 0, 400,400"><g id="svgg"><path id="path0" d="M208.105 17.487 C 208.714 17.579,209.614 17.577,210.105 17.482 C 210.597 17.387,210.100 17.311,209.000 17.314 C 207.900 17.317,207.497 17.395,208.105 17.487 M199.500 17.896 C 200.875 17.974,203.125 17.974,204.500 17.896 C 205.875 17.818,204.750 17.754,202.000 17.754 C 199.250 17.754,198.125 17.818,199.500 17.896 M213.500 17.896 C 214.875 17.974,217.125 17.974,218.500 17.896 C 219.875 17.818,218.750 17.754,216.000 17.754 C 213.250 17.754,212.125 17.818,213.500 17.896 M193.107 18.290 C 193.826 18.379,194.906 18.377,195.507 18.286 C 196.108 18.195,195.520 18.122,194.200 18.124 C 192.880 18.126,192.388 18.201,193.107 18.290 M221.633 18.149 C 221.725 18.231,223.510 18.396,225.600 18.515 C 228.310 18.669,228.826 18.636,227.400 18.400 C 225.335 18.059,221.339 17.885,221.633 18.149 M189.100 18.682 C 189.595 18.778,190.405 18.778,190.900 18.682 C 191.395 18.587,190.990 18.509,190.000 18.509 C 189.010 18.509,188.605 18.587,189.100 18.682 M184.000 19.200 C 182.650 19.484,182.643 19.495,183.800 19.500 C 184.460 19.503,185.540 19.368,186.200 19.200 C 187.860 18.778,186.007 18.778,184.000 19.200 M231.800 19.223 C 232.680 19.405,233.850 19.544,234.400 19.531 C 235.041 19.516,234.826 19.389,233.800 19.177 C 232.920 18.995,231.750 18.856,231.200 18.869 C 230.559 18.884,230.774 19.011,231.800 19.223 M237.600 20.000 C 238.150 20.176,238.960 20.320,239.400 20.320 C 240.033 20.320,239.992 20.254,239.200 20.000 C 238.650 19.824,237.840 19.680,237.400 19.680 C 236.767 19.680,236.808 19.746,237.600 20.000 M174.400 20.800 C 173.596 21.057,173.557 21.123,174.200 21.132 C 174.640 21.138,175.360 20.989,175.800 20.800 C 176.819 20.362,175.768 20.362,174.400 20.800 M242.200 20.800 C 242.640 20.989,243.360 21.138,243.800 21.132 C 244.443 21.123,244.404 21.057,243.600 20.800 C 242.232 20.362,241.181 20.362,242.200 20.800 M249.800 22.400 C 250.240 22.589,250.870 22.744,251.200 22.744 C 251.578 22.744,251.504 22.617,251.000 22.400 C 250.560 22.211,249.930 22.056,249.600 22.056 C 249.222 22.056,249.296 22.183,249.800 22.400 M256.000 23.982 C 256.330 24.205,256.945 24.391,257.367 24.394 C 258.390 24.402,258.071 24.173,256.600 23.844 C 255.724 23.648,255.562 23.685,256.000 23.982 M137.800 32.285 C 136.843 32.806,135.261 32.952,130.000 33.003 C 122.850 33.071,119.831 33.563,113.400 35.707 C 107.128 37.798,97.551 43.528,87.600 51.144 C 81.604 55.732,81.004 56.196,80.800 56.400 C 80.690 56.511,79.250 57.762,77.600 59.181 C 60.537 73.856,42.532 96.765,33.572 115.200 L 32.502 117.400 36.351 117.524 C 40.998 117.675,44.866 117.043,54.600 114.547 C 57.460 113.813,60.250 113.105,60.800 112.973 C 61.350 112.841,62.160 112.589,62.600 112.412 C 63.040 112.235,64.840 111.632,66.600 111.072 C 70.623 109.792,75.434 108.092,77.000 107.398 C 77.660 107.105,80.000 106.147,82.200 105.268 C 84.400 104.390,87.701 103.025,89.535 102.235 C 93.294 100.618,93.910 100.523,94.594 101.460 C 95.023 102.047,95.072 102.023,95.038 101.246 C 95.006 100.508,96.112 99.799,102.200 96.654 C 131.460 81.540,149.209 64.709,151.607 49.800 C 152.898 41.776,149.546 36.408,141.733 33.984 C 140.230 33.518,138.730 33.047,138.400 32.939 C 137.948 32.791,138.046 32.605,138.800 32.185 C 139.350 31.879,139.620 31.629,139.400 31.630 C 139.180 31.631,138.460 31.926,137.800 32.285 M289.200 36.579 C 289.200 36.689,289.740 37.059,290.400 37.400 C 291.060 37.741,291.600 37.931,291.600 37.821 C 291.600 37.711,291.060 37.341,290.400 37.000 C 289.740 36.659,289.200 36.469,289.200 36.579 M293.600 38.984 C 293.600 39.094,294.320 39.551,295.200 40.000 C 296.080 40.449,296.800 40.726,296.800 40.616 C 296.800 40.506,296.080 40.049,295.200 39.600 C 294.320 39.151,293.600 38.874,293.600 38.984 M298.000 41.379 C 298.000 41.489,298.540 41.859,299.200 42.200 C 299.860 42.541,300.400 42.731,300.400 42.621 C 300.400 42.511,299.860 42.141,299.200 41.800 C 298.540 41.459,298.000 41.269,298.000 41.379 M303.800 45.007 C 304.240 45.366,304.960 45.835,305.400 46.051 L 306.200 46.444 305.400 45.793 C 304.960 45.434,304.240 44.965,303.800 44.749 L 303.000 44.356 303.800 45.007 M306.600 46.681 C 307.287 47.364,312.400 50.881,312.400 50.670 C 312.400 50.560,311.275 49.675,309.900 48.704 C 307.192 46.791,305.938 46.022,306.600 46.681 M274.800 50.224 C 262.660 51.533,246.929 54.651,233.600 58.391 C 232.830 58.607,230.850 59.158,229.200 59.616 C 221.981 61.620,205.281 67.220,201.800 68.804 C 201.360 69.004,198.480 70.181,195.400 71.418 C 161.231 85.144,133.327 105.070,121.604 124.114 C 120.762 125.481,119.869 126.552,119.620 126.494 C 119.300 126.420,119.282 126.607,119.560 127.125 C 119.853 127.672,119.707 128.395,118.994 129.934 C 112.670 143.583,113.042 158.371,120.058 172.200 C 121.174 174.400,122.292 176.604,122.543 177.097 C 122.794 177.590,123.135 177.995,123.300 177.997 C 123.465 177.999,123.600 178.236,123.600 178.525 C 123.600 178.813,123.915 179.399,124.300 179.826 C 124.685 180.253,125.961 181.862,127.135 183.401 C 133.664 191.963,140.794 198.463,154.790 208.612 C 155.994 209.485,157.884 210.757,158.990 211.437 C 160.095 212.118,162.239 213.439,163.753 214.374 C 165.268 215.309,167.088 216.400,167.798 216.799 C 168.509 217.198,169.520 217.767,170.045 218.062 C 170.570 218.358,171.090 218.690,171.200 218.800 C 171.507 219.107,174.397 220.625,181.413 224.165 C 188.456 227.717,194.605 230.623,202.200 233.987 C 202.640 234.182,204.530 234.913,206.400 235.612 C 208.270 236.311,209.927 236.959,210.083 237.054 C 210.720 237.442,209.777 238.455,206.968 240.396 C 205.336 241.525,204.000 242.538,204.000 242.647 C 204.000 242.757,205.601 241.739,207.558 240.385 L 211.116 237.924 216.858 239.987 C 220.016 241.121,222.960 242.201,223.400 242.386 C 233.507 246.633,273.874 259.599,293.000 264.743 C 318.859 271.697,335.332 274.718,351.800 275.525 L 357.400 275.800 357.312 276.800 C 357.237 277.662,357.320 277.607,357.914 276.400 C 358.570 275.069,358.732 274.987,361.202 274.733 C 369.175 273.912,373.762 271.810,375.419 268.218 C 377.117 264.535,380.527 253.676,382.394 246.000 C 384.529 237.226,386.011 228.282,387.266 216.600 C 387.876 210.927,387.877 190.695,387.269 185.000 C 385.433 167.821,382.904 155.492,378.326 141.400 C 377.683 139.420,377.003 137.440,376.816 137.000 C 376.628 136.560,376.173 135.390,375.804 134.400 C 375.436 133.410,374.861 131.970,374.526 131.200 C 374.192 130.430,373.775 129.440,373.599 129.000 C 373.423 128.560,372.902 127.347,372.440 126.304 C 371.978 125.262,371.600 124.306,371.600 124.181 C 371.600 123.790,365.901 112.300,364.665 110.200 C 364.018 109.100,363.177 107.660,362.797 107.000 C 352.777 89.605,336.572 70.037,323.200 59.185 C 321.990 58.203,319.996 56.500,318.768 55.400 C 317.541 54.300,315.651 52.803,314.568 52.074 C 313.014 51.027,312.890 50.985,313.980 51.874 C 314.738 52.493,315.818 53.421,316.380 53.935 C 317.504 54.965,317.692 54.994,313.600 53.511 C 304.278 50.131,288.252 48.774,274.800 50.224 M95.811 103.600 C 96.565 104.977,99.227 108.769,99.604 109.002 C 99.828 109.141,99.169 108.027,98.139 106.527 C 96.275 103.812,95.158 102.407,95.811 103.600 M103.200 113.203 C 103.200 113.367,104.775 114.905,106.700 116.621 C 108.625 118.336,109.440 118.984,108.510 118.060 C 104.927 114.496,103.200 112.917,103.200 113.203 M114.897 123.433 C 115.027 123.644,115.991 124.432,117.037 125.184 C 118.084 125.935,118.833 126.378,118.703 126.167 C 118.573 125.956,117.609 125.168,116.563 124.416 C 115.516 123.665,114.767 123.222,114.897 123.433 M24.164 137.126 C 23.801 137.376,22.023 142.323,21.155 145.500 C 20.960 146.215,20.635 147.385,20.434 148.100 C 17.405 158.849,15.312 169.547,13.956 181.200 C 13.319 186.685,13.048 211.140,13.568 216.400 C 14.802 228.915,16.189 237.152,18.854 247.800 C 20.279 253.495,21.126 256.543,21.634 257.800 C 21.812 258.240,22.519 260.310,23.207 262.400 C 23.894 264.490,24.700 266.740,24.997 267.400 C 25.294 268.060,25.926 269.590,26.400 270.800 C 27.293 273.079,27.542 273.663,29.457 277.973 C 40.252 302.277,60.116 328.562,79.544 344.253 C 89.122 351.989,95.834 356.843,102.178 360.622 C 103.265 361.270,104.975 362.297,105.978 362.905 C 113.821 367.663,123.282 371.026,124.945 369.646 C 125.996 368.773,126.960 357.555,127.612 338.600 C 128.286 318.979,127.450 309.039,123.942 295.000 C 123.722 294.120,123.445 292.813,123.327 292.096 C 123.208 291.379,122.951 290.694,122.756 290.573 C 122.560 290.452,122.400 289.834,122.400 289.200 C 122.400 288.566,122.220 287.936,122.000 287.800 C 121.780 287.664,121.600 287.124,121.600 286.600 C 121.600 286.076,121.420 285.536,121.200 285.400 C 120.980 285.264,120.800 284.749,120.800 284.256 C 120.800 283.763,120.657 283.189,120.482 282.980 C 120.307 282.771,119.935 281.880,119.655 281.000 C 119.376 280.120,119.003 279.040,118.827 278.600 C 118.268 277.202,117.700 275.842,117.073 274.400 C 116.738 273.630,115.928 271.650,115.272 270.000 C 114.239 267.401,113.196 265.069,110.082 258.400 C 108.330 254.647,99.230 238.600,95.266 232.273 C 92.809 228.354,90.800 225.081,90.800 225.000 C 90.800 224.919,89.515 222.906,87.944 220.527 C 86.373 218.147,84.512 215.300,83.808 214.200 C 81.243 210.191,73.145 198.101,70.507 194.342 C 65.734 187.541,65.087 186.651,62.843 183.800 C 58.786 178.645,53.003 171.402,52.784 171.200 C 52.665 171.090,50.690 168.750,48.396 166.000 C 46.102 163.250,42.591 159.110,40.594 156.800 C 37.125 152.789,26.424 139.562,25.162 137.726 C 24.832 137.246,24.383 136.976,24.164 137.126 M202.000 244.049 C 200.606 245.271,200.605 245.272,201.888 244.419 C 202.596 243.948,203.282 243.391,203.412 243.181 C 203.797 242.557,203.477 242.754,202.000 244.049 M195.400 249.555 C 192.760 251.947,189.790 254.778,188.800 255.848 C 187.810 256.917,188.710 256.169,190.800 254.185 C 192.890 252.201,195.950 249.373,197.600 247.901 C 199.250 246.428,200.510 245.220,200.400 245.215 C 200.290 245.211,198.040 247.163,195.400 249.555 M184.155 261.300 C 183.115 262.675,182.092 264.025,181.883 264.300 C 181.673 264.575,181.592 264.800,181.703 264.800 C 181.813 264.800,182.919 263.450,184.161 261.800 C 185.403 260.150,186.335 258.800,186.233 258.800 C 186.131 258.800,185.196 259.925,184.155 261.300 M173.800 281.200 C 173.648 281.891,173.607 282.541,173.709 282.642 C 173.811 282.744,174.009 282.253,174.150 281.550 C 174.483 279.883,174.160 279.560,173.800 281.200 M173.018 285.018 C 172.865 286.039,172.822 286.955,172.922 287.055 C 173.022 287.155,173.229 286.402,173.382 285.382 C 173.535 284.361,173.578 283.445,173.478 283.345 C 173.378 283.245,173.171 283.998,173.018 285.018 M172.544 292.400 C 172.544 294.490,172.612 295.345,172.694 294.300 C 172.776 293.255,172.776 291.545,172.694 290.500 C 172.612 289.455,172.544 290.310,172.544 292.400 M350.600 290.400 C 350.259 291.060,350.069 291.600,350.179 291.600 C 350.289 291.600,350.659 291.060,351.000 290.400 C 351.341 289.740,351.531 289.200,351.421 289.200 C 351.311 289.200,350.941 289.740,350.600 290.400 M359.400 291.094 C 358.067 291.287,355.213 292.026,352.256 292.945 C 350.375 293.529,350.305 293.521,350.096 292.723 L 349.880 291.898 349.240 292.707 C 348.888 293.151,347.160 294.002,345.400 294.596 C 341.140 296.035,334.890 298.327,333.400 298.998 C 332.740 299.295,331.225 299.921,330.032 300.390 C 328.840 300.858,327.130 301.567,326.232 301.965 C 317.133 305.997,314.181 307.374,309.000 310.007 C 272.215 328.700,252.180 349.474,257.846 363.051 C 260.267 368.851,271.845 372.093,280.800 369.479 C 282.010 369.126,283.450 368.708,284.000 368.550 C 284.995 368.265,289.240 366.126,292.100 364.469 C 292.925 363.991,294.185 363.262,294.900 362.850 C 302.950 358.204,315.496 349.373,321.400 344.196 C 333.412 333.665,341.656 324.867,350.257 313.400 C 355.965 305.790,363.216 294.710,363.700 292.860 C 364.217 290.883,363.341 290.523,359.400 291.094 M181.400 323.200 C 181.741 323.860,182.111 324.400,182.221 324.400 C 182.331 324.400,182.141 323.860,181.800 323.200 C 181.459 322.540,181.089 322.000,180.979 322.000 C 180.869 322.000,181.059 322.540,181.400 323.200 M184.030 327.800 C 184.524 328.680,185.100 329.580,185.310 329.800 C 185.909 330.428,184.539 327.894,183.796 327.000 C 183.430 326.560,183.535 326.920,184.030 327.800 M189.591 336.388 C 190.057 337.041,190.642 337.702,190.891 337.856 C 191.141 338.011,190.841 337.476,190.225 336.668 C 188.888 334.915,188.384 334.692,189.591 336.388 M192.322 339.900 C 192.976 340.725,194.264 342.210,195.184 343.200 C 196.104 344.190,195.645 343.515,194.164 341.700 C 192.684 339.885,191.396 338.400,191.303 338.400 C 191.209 338.400,191.668 339.075,192.322 339.900 M200.600 349.200 C 202.792 351.400,204.675 353.200,204.785 353.200 C 204.895 353.200,203.192 351.400,201.000 349.200 C 198.808 347.000,196.925 345.200,196.815 345.200 C 196.705 345.200,198.408 347.000,200.600 349.200 M205.200 353.325 C 205.200 353.394,205.785 353.979,206.500 354.625 L 207.800 355.800 206.625 354.500 C 205.530 353.288,205.200 353.016,205.200 353.325 M208.600 356.366 C 209.378 357.261,211.600 358.998,211.600 358.712 C 211.600 358.634,210.745 357.867,209.700 357.008 C 208.655 356.149,208.160 355.860,208.600 356.366 M212.000 358.959 C 212.000 359.182,216.446 362.292,218.600 363.575 C 219.480 364.099,220.020 364.343,219.800 364.117 C 219.218 363.520,212.000 358.746,212.000 358.959 M243.800 369.600 C 243.296 369.817,243.222 369.944,243.600 369.944 C 243.930 369.944,244.560 369.789,245.000 369.600 C 245.504 369.383,245.578 369.256,245.200 369.256 C 244.870 369.256,244.240 369.411,243.800 369.600 M238.800 370.400 L 236.600 370.670 238.600 370.707 C 239.700 370.727,240.960 370.589,241.400 370.400 C 242.302 370.012,241.962 370.012,238.800 370.400 " stroke="none" fill="#5494f3" fill-rule="evenodd"></path><path id="path1" d="M172.400 0.283 C 170.970 0.371,169.629 0.613,169.420 0.821 C 169.211 1.030,168.187 1.200,167.144 1.200 C 166.101 1.200,165.136 1.380,165.000 1.600 C 164.864 1.820,163.874 2.000,162.800 2.000 C 161.726 2.000,160.736 2.180,160.600 2.400 C 160.464 2.620,159.643 2.800,158.776 2.800 C 157.909 2.800,157.200 2.980,157.200 3.200 C 157.200 3.420,156.390 3.600,155.400 3.600 C 154.410 3.600,153.600 3.780,153.600 4.000 C 153.600 4.220,152.880 4.400,152.000 4.400 C 151.120 4.400,150.400 4.580,150.400 4.800 C 150.400 5.020,149.781 5.200,149.024 5.200 C 148.267 5.200,147.536 5.380,147.400 5.600 C 147.264 5.820,146.623 6.000,145.976 6.000 C 145.329 6.000,144.800 6.180,144.800 6.400 C 144.800 6.620,144.260 6.800,143.600 6.800 C 142.940 6.800,142.400 6.980,142.400 7.200 C 142.400 7.420,141.860 7.600,141.200 7.600 C 140.540 7.600,140.000 7.780,140.000 8.000 C 140.000 8.220,139.471 8.400,138.824 8.400 C 138.177 8.400,137.536 8.580,137.400 8.800 C 137.264 9.020,136.700 9.200,136.147 9.200 C 135.594 9.200,133.759 9.663,132.071 10.230 C 129.054 11.241,127.904 11.697,124.489 13.231 C 123.548 13.654,122.513 14.000,122.189 14.000 C 121.865 14.000,121.600 14.180,121.600 14.400 C 121.600 14.620,121.347 14.800,121.038 14.800 C 120.729 14.800,119.784 15.142,118.938 15.561 C 118.092 15.979,115.600 17.167,113.400 18.200 C 106.216 21.574,104.400 22.515,104.400 22.860 C 104.400 23.047,104.040 23.200,103.600 23.200 C 103.160 23.200,102.800 23.346,102.800 23.525 C 102.800 23.704,102.170 24.098,101.400 24.400 C 100.630 24.702,100.000 25.096,100.000 25.275 C 100.000 25.454,99.730 25.600,99.400 25.600 C 99.070 25.600,98.800 25.780,98.800 26.000 C 98.800 26.220,98.480 26.400,98.088 26.400 C 97.697 26.400,97.117 26.760,96.800 27.200 C 96.483 27.640,95.943 28.000,95.600 28.000 C 95.257 28.000,94.717 28.360,94.400 28.800 C 94.083 29.240,93.503 29.600,93.112 29.600 C 92.720 29.600,92.400 29.780,92.400 30.000 C 92.400 30.220,92.080 30.400,91.688 30.400 C 91.297 30.400,90.717 30.760,90.400 31.200 C 90.083 31.640,89.503 32.000,89.112 32.000 C 88.720 32.000,88.400 32.180,88.400 32.400 C 88.400 32.620,88.164 32.800,87.875 32.800 C 87.587 32.800,86.964 33.160,86.492 33.600 C 86.020 34.040,85.473 34.400,85.276 34.400 C 85.079 34.400,84.354 34.940,83.663 35.600 C 82.972 36.260,82.175 36.800,81.892 36.800 C 81.609 36.800,81.117 37.160,80.800 37.600 C 80.483 38.040,80.011 38.400,79.752 38.400 C 79.493 38.400,78.362 39.300,77.239 40.400 C 76.115 41.500,75.044 42.400,74.857 42.400 C 74.671 42.400,73.954 42.940,73.263 43.600 C 72.572 44.260,71.820 44.800,71.590 44.800 C 71.361 44.800,70.575 45.385,69.845 46.100 C 69.114 46.815,67.014 48.750,65.179 50.400 C 60.908 54.240,54.240 60.908,50.400 65.179 C 48.750 67.014,46.815 69.114,46.100 69.845 C 45.385 70.575,44.800 71.361,44.800 71.590 C 44.800 71.820,44.260 72.572,43.600 73.263 C 42.940 73.954,42.400 74.671,42.400 74.857 C 42.400 75.044,41.500 76.115,40.400 77.239 C 39.300 78.362,38.400 79.493,38.400 79.752 C 38.400 80.011,38.040 80.483,37.600 80.800 C 37.160 81.117,36.800 81.609,36.800 81.892 C 36.800 82.175,36.260 82.972,35.600 83.663 C 34.940 84.354,34.400 85.079,34.400 85.276 C 34.400 85.473,34.040 86.020,33.600 86.492 C 33.160 86.964,32.800 87.587,32.800 87.875 C 32.800 88.164,32.620 88.400,32.400 88.400 C 32.180 88.400,32.000 88.720,32.000 89.112 C 32.000 89.503,31.640 90.083,31.200 90.400 C 30.760 90.717,30.400 91.297,30.400 91.688 C 30.400 92.080,30.220 92.400,30.000 92.400 C 29.780 92.400,29.600 92.720,29.600 93.112 C 29.600 93.503,29.240 94.083,28.800 94.400 C 28.360 94.717,28.000 95.257,28.000 95.600 C 28.000 95.943,27.640 96.483,27.200 96.800 C 26.760 97.117,26.400 97.697,26.400 98.088 C 26.400 98.480,26.220 98.800,26.000 98.800 C 25.780 98.800,25.600 99.070,25.600 99.400 C 25.600 99.730,25.454 100.000,25.275 100.000 C 25.096 100.000,24.702 100.630,24.400 101.400 C 24.098 102.170,23.704 102.800,23.525 102.800 C 23.346 102.800,23.200 103.160,23.200 103.600 C 23.200 104.040,23.047 104.400,22.860 104.400 C 22.515 104.400,21.574 106.216,18.200 113.400 C 17.167 115.600,15.979 118.092,15.561 118.938 C 15.142 119.784,14.800 120.729,14.800 121.038 C 14.800 121.347,14.620 121.600,14.400 121.600 C 14.180 121.600,14.000 121.865,14.000 122.189 C 14.000 122.513,13.654 123.548,13.231 124.489 C 11.697 127.904,11.241 129.054,10.230 132.071 C 9.663 133.759,9.200 135.594,9.200 136.147 C 9.200 136.700,9.020 137.264,8.800 137.400 C 8.580 137.536,8.400 138.177,8.400 138.824 C 8.400 139.471,8.220 140.000,8.000 140.000 C 7.780 140.000,7.600 140.540,7.600 141.200 C 7.600 141.860,7.420 142.400,7.200 142.400 C 6.980 142.400,6.800 142.940,6.800 143.600 C 6.800 144.260,6.620 144.800,6.400 144.800 C 6.180 144.800,6.000 145.329,6.000 145.976 C 6.000 146.623,5.820 147.264,5.600 147.400 C 5.380 147.536,5.200 148.267,5.200 149.024 C 5.200 149.781,5.020 150.400,4.800 150.400 C 4.580 150.400,4.400 151.120,4.400 152.000 C 4.400 152.880,4.220 153.600,4.000 153.600 C 3.780 153.600,3.600 154.410,3.600 155.400 C 3.600 156.390,3.420 157.200,3.200 157.200 C 2.980 157.200,2.800 157.909,2.800 158.776 C 2.800 159.643,2.620 160.464,2.400 160.600 C 2.180 160.736,2.000 161.726,2.000 162.800 C 2.000 163.874,1.820 164.864,1.600 165.000 C 1.380 165.136,1.200 166.101,1.200 167.144 C 1.200 168.187,0.975 169.265,0.700 169.540 C -0.031 170.271,-0.031 230.529,0.700 231.260 C 0.975 231.535,1.200 232.613,1.200 233.656 C 1.200 234.699,1.380 235.664,1.600 235.800 C 1.820 235.936,2.000 236.926,2.000 238.000 C 2.000 239.074,2.180 240.064,2.400 240.200 C 2.620 240.336,2.800 241.146,2.800 242.000 C 2.800 242.854,2.980 243.664,3.200 243.800 C 3.420 243.936,3.600 244.757,3.600 245.624 C 3.600 246.491,3.780 247.200,4.000 247.200 C 4.220 247.200,4.400 247.920,4.400 248.800 C 4.400 249.680,4.580 250.400,4.800 250.400 C 5.020 250.400,5.200 251.019,5.200 251.776 C 5.200 252.533,5.380 253.264,5.600 253.400 C 5.820 253.536,6.000 254.177,6.000 254.824 C 6.000 255.471,6.180 256.000,6.400 256.000 C 6.620 256.000,6.800 256.540,6.800 257.200 C 6.800 257.860,6.980 258.400,7.200 258.400 C 7.420 258.400,7.600 258.940,7.600 259.600 C 7.600 260.260,7.780 260.800,8.000 260.800 C 8.220 260.800,8.400 261.329,8.400 261.976 C 8.400 262.623,8.580 263.264,8.800 263.400 C 9.020 263.536,9.200 264.110,9.200 264.676 C 9.200 265.815,11.473 272.779,12.041 273.380 C 12.238 273.589,12.400 274.003,12.400 274.299 C 12.400 274.596,12.760 275.584,13.200 276.494 C 13.640 277.405,14.000 278.386,14.000 278.675 C 14.000 278.964,14.180 279.200,14.400 279.200 C 14.620 279.200,14.800 279.453,14.800 279.762 C 14.800 280.071,15.142 281.016,15.561 281.862 C 15.979 282.708,17.167 285.200,18.200 287.400 C 21.574 294.584,22.515 296.400,22.860 296.400 C 23.047 296.400,23.200 296.760,23.200 297.200 C 23.200 297.640,23.380 298.000,23.600 298.000 C 23.820 298.000,24.000 298.236,24.000 298.525 C 24.000 298.813,24.360 299.436,24.800 299.908 C 25.240 300.380,25.600 301.044,25.600 301.383 C 25.600 301.722,25.780 302.000,26.000 302.000 C 26.220 302.000,26.400 302.320,26.400 302.712 C 26.400 303.103,26.760 303.683,27.200 304.000 C 27.640 304.317,28.000 304.857,28.000 305.200 C 28.000 305.543,28.360 306.083,28.800 306.400 C 29.240 306.717,29.600 307.297,29.600 307.688 C 29.600 308.080,29.780 308.400,30.000 308.400 C 30.220 308.400,30.400 308.720,30.400 309.112 C 30.400 309.503,30.760 310.083,31.200 310.400 C 31.640 310.717,32.000 311.297,32.000 311.688 C 32.000 312.080,32.180 312.400,32.400 312.400 C 32.620 312.400,32.800 312.636,32.800 312.925 C 32.800 313.213,33.160 313.836,33.600 314.308 C 34.040 314.780,34.400 315.327,34.400 315.524 C 34.400 315.721,34.940 316.446,35.600 317.137 C 36.260 317.828,36.800 318.625,36.800 318.908 C 36.800 319.191,37.160 319.683,37.600 320.000 C 38.040 320.317,38.400 320.789,38.400 321.048 C 38.400 321.307,39.300 322.438,40.400 323.561 C 41.500 324.685,42.400 325.756,42.400 325.943 C 42.400 326.129,42.940 326.846,43.600 327.537 C 44.260 328.228,44.800 328.939,44.800 329.118 C 44.800 329.297,45.445 330.154,46.233 331.022 C 52.073 337.457,53.894 339.393,57.630 343.149 C 59.956 345.487,63.162 348.570,64.753 350.000 C 66.345 351.430,68.475 353.365,69.487 354.300 C 70.499 355.235,71.480 356.000,71.667 356.000 C 71.854 356.000,72.572 356.540,73.263 357.200 C 73.954 357.860,74.671 358.400,74.857 358.400 C 75.044 358.400,76.115 359.300,77.239 360.400 C 78.362 361.500,79.493 362.400,79.752 362.400 C 80.011 362.400,80.483 362.760,80.800 363.200 C 81.117 363.640,81.609 364.000,81.892 364.000 C 82.175 364.000,82.972 364.540,83.663 365.200 C 84.354 365.860,85.079 366.400,85.276 366.400 C 85.473 366.400,86.020 366.760,86.492 367.200 C 86.964 367.640,87.587 368.000,87.875 368.000 C 88.164 368.000,88.400 368.180,88.400 368.400 C 88.400 368.620,88.678 368.800,89.017 368.800 C 89.356 368.800,90.020 369.160,90.492 369.600 C 90.964 370.040,91.587 370.400,91.875 370.400 C 92.164 370.400,92.400 370.580,92.400 370.800 C 92.400 371.020,92.720 371.200,93.112 371.200 C 93.503 371.200,94.083 371.560,94.400 372.000 C 94.717 372.440,95.257 372.800,95.600 372.800 C 95.943 372.800,96.483 373.160,96.800 373.600 C 97.117 374.040,97.697 374.400,98.088 374.400 C 98.480 374.400,98.800 374.547,98.800 374.726 C 98.800 374.905,99.385 375.351,100.100 375.717 C 100.815 376.082,102.300 376.930,103.400 377.600 C 104.500 378.270,105.670 378.924,106.000 379.054 C 106.573 379.279,115.709 383.648,118.938 385.241 C 119.784 385.659,120.729 386.000,121.038 386.000 C 121.347 386.000,121.600 386.180,121.600 386.400 C 121.600 386.620,121.836 386.800,122.125 386.800 C 122.414 386.800,123.395 387.160,124.306 387.600 C 125.216 388.040,126.204 388.400,126.501 388.400 C 126.797 388.400,127.211 388.566,127.420 388.769 C 128.023 389.355,135.187 391.600,136.453 391.600 C 137.084 391.600,137.600 391.780,137.600 392.000 C 137.600 392.220,138.140 392.400,138.800 392.400 C 139.460 392.400,140.000 392.580,140.000 392.800 C 140.000 393.020,140.540 393.200,141.200 393.200 C 141.860 393.200,142.400 393.380,142.400 393.600 C 142.400 393.820,142.940 394.000,143.600 394.000 C 144.260 394.000,144.800 394.180,144.800 394.400 C 144.800 394.620,145.329 394.800,145.976 394.800 C 146.623 394.800,147.264 394.980,147.400 395.200 C 147.536 395.420,148.267 395.600,149.024 395.600 C 149.781 395.600,150.400 395.780,150.400 396.000 C 150.400 396.220,151.109 396.400,151.976 396.400 C 152.843 396.400,153.664 396.580,153.800 396.800 C 153.936 397.020,154.757 397.200,155.624 397.200 C 156.491 397.200,157.200 397.380,157.200 397.600 C 157.200 397.820,157.909 398.000,158.776 398.000 C 159.643 398.000,160.464 398.180,160.600 398.400 C 160.736 398.620,161.701 398.800,162.744 398.800 C 163.787 398.800,164.865 399.025,165.140 399.300 C 165.871 400.031,234.929 400.031,235.660 399.300 C 235.935 399.025,237.013 398.800,238.056 398.800 C 239.099 398.800,240.064 398.620,240.200 398.400 C 240.336 398.180,241.146 398.000,242.000 398.000 C 242.854 398.000,243.664 397.820,243.800 397.600 C 243.936 397.380,244.656 397.200,245.400 397.200 C 246.144 397.200,246.864 397.020,247.000 396.800 C 247.136 396.580,247.957 396.400,248.824 396.400 C 249.691 396.400,250.400 396.220,250.400 396.000 C 250.400 395.780,251.019 395.600,251.776 395.600 C 252.533 395.600,253.264 395.420,253.400 395.200 C 253.536 394.980,254.177 394.800,254.824 394.800 C 255.471 394.800,256.000 394.620,256.000 394.400 C 256.000 394.180,256.540 394.000,257.200 394.000 C 257.860 394.000,258.400 393.820,258.400 393.600 C 258.400 393.380,258.940 393.200,259.600 393.200 C 260.260 393.200,260.800 393.020,260.800 392.800 C 260.800 392.580,261.340 392.400,262.000 392.400 C 262.660 392.400,263.200 392.220,263.200 392.000 C 263.200 391.780,263.716 391.600,264.347 391.600 C 265.613 391.600,272.777 389.355,273.380 388.769 C 273.589 388.566,274.003 388.400,274.299 388.400 C 274.596 388.400,275.584 388.040,276.494 387.600 C 277.405 387.160,278.386 386.800,278.675 386.800 C 278.964 386.800,279.200 386.620,279.200 386.400 C 279.200 386.180,279.453 386.000,279.762 386.000 C 280.071 386.000,281.016 385.659,281.862 385.241 C 285.091 383.648,294.227 379.279,294.800 379.054 C 295.130 378.924,296.300 378.270,297.400 377.600 C 298.500 376.930,299.985 376.082,300.700 375.717 C 301.415 375.351,302.000 374.905,302.000 374.726 C 302.000 374.547,302.320 374.400,302.712 374.400 C 303.103 374.400,303.683 374.040,304.000 373.600 C 304.317 373.160,304.857 372.800,305.200 372.800 C 305.543 372.800,306.083 372.440,306.400 372.000 C 306.717 371.560,307.297 371.200,307.688 371.200 C 308.080 371.200,308.400 371.020,308.400 370.800 C 308.400 370.580,308.636 370.400,308.925 370.400 C 309.213 370.400,309.798 370.085,310.225 369.699 C 310.651 369.314,311.855 368.566,312.900 368.037 C 313.945 367.507,314.800 366.923,314.800 366.737 C 314.800 366.552,315.043 366.400,315.341 366.400 C 315.638 366.400,316.446 365.860,317.137 365.200 C 317.828 364.540,318.625 364.000,318.908 364.000 C 319.191 364.000,319.683 363.640,320.000 363.200 C 320.317 362.760,320.768 362.400,321.001 362.400 C 321.234 362.400,322.369 361.500,323.522 360.400 C 324.675 359.300,325.768 358.400,325.950 358.400 C 326.132 358.400,326.846 357.860,327.537 357.200 C 328.228 356.540,328.946 356.000,329.133 356.000 C 329.320 356.000,330.294 355.235,331.299 354.300 C 332.303 353.365,334.615 351.250,336.436 349.600 C 340.659 345.774,345.774 340.659,349.600 336.436 C 351.250 334.615,353.365 332.303,354.300 331.299 C 355.235 330.294,356.000 329.320,356.000 329.133 C 356.000 328.946,356.540 328.228,357.200 327.537 C 357.860 326.846,358.400 326.132,358.400 325.950 C 358.400 325.768,359.300 324.675,360.400 323.522 C 361.500 322.369,362.400 321.234,362.400 321.001 C 362.400 320.768,362.760 320.317,363.200 320.000 C 363.640 319.683,364.000 319.191,364.000 318.908 C 364.000 318.625,364.540 317.828,365.200 317.137 C 365.860 316.446,366.400 315.638,366.400 315.341 C 366.400 315.043,366.552 314.800,366.737 314.800 C 366.923 314.800,367.507 313.945,368.037 312.900 C 368.566 311.855,369.314 310.651,369.699 310.225 C 370.085 309.798,370.400 309.213,370.400 308.925 C 370.400 308.636,370.580 308.400,370.800 308.400 C 371.020 308.400,371.200 308.080,371.200 307.688 C 371.200 307.297,371.560 306.717,372.000 306.400 C 372.440 306.083,372.800 305.543,372.800 305.200 C 372.800 304.857,373.160 304.317,373.600 304.000 C 374.040 303.683,374.400 303.103,374.400 302.712 C 374.400 302.320,374.547 302.000,374.726 302.000 C 374.905 302.000,375.351 301.415,375.717 300.700 C 376.082 299.985,376.930 298.500,377.600 297.400 C 378.270 296.300,378.924 295.130,379.054 294.800 C 379.279 294.227,383.648 285.091,385.241 281.862 C 385.659 281.016,386.000 280.071,386.000 279.762 C 386.000 279.453,386.180 279.200,386.400 279.200 C 386.620 279.200,386.800 278.964,386.800 278.675 C 386.800 278.386,387.160 277.405,387.600 276.494 C 388.040 275.584,388.400 274.596,388.400 274.299 C 388.400 274.003,388.566 273.589,388.769 273.380 C 389.355 272.777,391.600 265.613,391.600 264.347 C 391.600 263.716,391.780 263.200,392.000 263.200 C 392.220 263.200,392.400 262.660,392.400 262.000 C 392.400 261.340,392.580 260.800,392.800 260.800 C 393.020 260.800,393.200 260.260,393.200 259.600 C 393.200 258.940,393.380 258.400,393.600 258.400 C 393.820 258.400,394.000 257.860,394.000 257.200 C 394.000 256.540,394.180 256.000,394.400 256.000 C 394.620 256.000,394.800 255.471,394.800 254.824 C 394.800 254.177,394.980 253.536,395.200 253.400 C 395.420 253.264,395.600 252.533,395.600 251.776 C 395.600 251.019,395.780 250.400,396.000 250.400 C 396.220 250.400,396.400 249.691,396.400 248.824 C 396.400 247.957,396.580 247.136,396.800 247.000 C 397.020 246.864,397.200 246.144,397.200 245.400 C 397.200 244.656,397.380 243.936,397.600 243.800 C 397.820 243.664,398.000 242.854,398.000 242.000 C 398.000 241.146,398.180 240.336,398.400 240.200 C 398.620 240.064,398.800 239.099,398.800 238.056 C 398.800 237.013,399.025 235.935,399.300 235.660 C 400.031 234.929,400.031 165.871,399.300 165.140 C 399.025 164.865,398.800 163.787,398.800 162.744 C 398.800 161.701,398.620 160.736,398.400 160.600 C 398.180 160.464,398.000 159.643,398.000 158.776 C 398.000 157.909,397.820 157.200,397.600 157.200 C 397.380 157.200,397.200 156.491,397.200 155.624 C 397.200 154.757,397.020 153.936,396.800 153.800 C 396.580 153.664,396.400 152.843,396.400 151.976 C 396.400 151.109,396.220 150.400,396.000 150.400 C 395.780 150.400,395.600 149.781,395.600 149.024 C 395.600 148.267,395.420 147.536,395.200 147.400 C 394.980 147.264,394.800 146.623,394.800 145.976 C 394.800 145.329,394.620 144.800,394.400 144.800 C 394.180 144.800,394.000 144.260,394.000 143.600 C 394.000 142.940,393.820 142.400,393.600 142.400 C 393.380 142.400,393.200 141.860,393.200 141.200 C 393.200 140.540,393.020 140.000,392.800 140.000 C 392.580 140.000,392.400 139.460,392.400 138.800 C 392.400 138.140,392.220 137.600,392.000 137.600 C 391.780 137.600,391.600 137.084,391.600 136.453 C 391.600 135.187,389.355 128.023,388.769 127.420 C 388.566 127.211,388.400 126.797,388.400 126.501 C 388.400 126.204,388.040 125.216,387.600 124.306 C 387.160 123.395,386.800 122.414,386.800 122.125 C 386.800 121.836,386.620 121.600,386.400 121.600 C 386.180 121.600,386.000 121.347,386.000 121.038 C 386.000 120.729,385.659 119.784,385.241 118.938 C 383.648 115.709,379.279 106.573,379.054 106.000 C 378.924 105.670,378.270 104.500,377.600 103.400 C 376.930 102.300,376.082 100.815,375.717 100.100 C 375.351 99.385,374.905 98.800,374.726 98.800 C 374.547 98.800,374.400 98.480,374.400 98.088 C 374.400 97.697,374.040 97.117,373.600 96.800 C 373.160 96.483,372.800 95.943,372.800 95.600 C 372.800 95.257,372.440 94.717,372.000 94.400 C 371.560 94.083,371.200 93.503,371.200 93.112 C 371.200 92.720,371.020 92.400,370.800 92.400 C 370.580 92.400,370.400 92.164,370.400 91.875 C 370.400 91.587,370.040 90.964,369.600 90.492 C 369.160 90.020,368.800 89.356,368.800 89.017 C 368.800 88.678,368.620 88.400,368.400 88.400 C 368.180 88.400,368.000 88.164,368.000 87.875 C 368.000 87.587,367.640 86.964,367.200 86.492 C 366.760 86.020,366.400 85.473,366.400 85.276 C 366.400 85.079,365.860 84.354,365.200 83.663 C 364.540 82.972,364.000 82.175,364.000 81.892 C 364.000 81.609,363.640 81.117,363.200 80.800 C 362.760 80.483,362.400 80.011,362.400 79.752 C 362.400 79.493,361.500 78.362,360.400 77.239 C 359.300 76.115,358.400 75.044,358.400 74.857 C 358.400 74.671,357.860 73.954,357.200 73.263 C 356.540 72.572,356.000 71.854,356.000 71.667 C 356.000 71.480,355.235 70.499,354.300 69.487 C 353.365 68.475,351.430 66.345,350.000 64.753 C 348.570 63.162,345.487 59.956,343.149 57.630 C 339.393 53.894,337.457 52.073,331.022 46.233 C 330.154 45.445,329.297 44.800,329.118 44.800 C 328.939 44.800,328.228 44.260,327.537 43.600 C 326.846 42.940,326.129 42.400,325.943 42.400 C 325.756 42.400,324.685 41.500,323.561 40.400 C 322.438 39.300,321.307 38.400,321.048 38.400 C 320.789 38.400,320.317 38.040,320.000 37.600 C 319.683 37.160,319.191 36.800,318.908 36.800 C 318.625 36.800,317.828 36.260,317.137 35.600 C 316.446 34.940,315.721 34.400,315.524 34.400 C 315.327 34.400,314.780 34.040,314.308 33.600 C 313.836 33.160,313.213 32.800,312.925 32.800 C 312.636 32.800,312.400 32.620,312.400 32.400 C 312.400 32.180,312.080 32.000,311.688 32.000 C 311.297 32.000,310.717 31.640,310.400 31.200 C 310.083 30.760,309.503 30.400,309.112 30.400 C 308.720 30.400,308.400 30.220,308.400 30.000 C 308.400 29.780,308.080 29.600,307.688 29.600 C 307.297 29.600,306.717 29.240,306.400 28.800 C 306.083 28.360,305.543 28.000,305.200 28.000 C 304.857 28.000,304.317 27.640,304.000 27.200 C 303.683 26.760,303.103 26.400,302.712 26.400 C 302.320 26.400,302.000 26.220,302.000 26.000 C 302.000 25.780,301.722 25.600,301.383 25.600 C 301.044 25.600,300.380 25.240,299.908 24.800 C 299.436 24.360,298.813 24.000,298.525 24.000 C 298.236 24.000,298.000 23.820,298.000 23.600 C 298.000 23.380,297.640 23.200,297.200 23.200 C 296.760 23.200,296.400 23.047,296.400 22.860 C 296.400 22.515,294.584 21.574,287.400 18.200 C 285.200 17.167,282.708 15.979,281.862 15.561 C 281.016 15.142,280.071 14.800,279.762 14.800 C 279.453 14.800,279.200 14.620,279.200 14.400 C 279.200 14.180,278.964 14.000,278.675 14.000 C 278.386 14.000,277.405 13.640,276.494 13.200 C 275.584 12.760,274.596 12.400,274.299 12.400 C 274.003 12.400,273.589 12.238,273.380 12.041 C 272.779 11.473,265.815 9.200,264.676 9.200 C 264.110 9.200,263.536 9.020,263.400 8.800 C 263.264 8.580,262.623 8.400,261.976 8.400 C 261.329 8.400,260.800 8.220,260.800 8.000 C 260.800 7.780,260.260 7.600,259.600 7.600 C 258.940 7.600,258.400 7.420,258.400 7.200 C 258.400 6.980,257.860 6.800,257.200 6.800 C 256.540 6.800,256.000 6.620,256.000 6.400 C 256.000 6.180,255.471 6.000,254.824 6.000 C 254.177 6.000,253.536 5.820,253.400 5.600 C 253.264 5.380,252.533 5.200,251.776 5.200 C 251.019 5.200,250.400 5.020,250.400 4.800 C 250.400 4.580,249.680 4.400,248.800 4.400 C 247.920 4.400,247.200 4.220,247.200 4.000 C 247.200 3.780,246.491 3.600,245.624 3.600 C 244.757 3.600,243.936 3.420,243.800 3.200 C 243.664 2.980,242.854 2.800,242.000 2.800 C 241.146 2.800,240.336 2.620,240.200 2.400 C 240.064 2.180,239.074 2.000,238.000 2.000 C 236.926 2.000,235.936 1.820,235.800 1.600 C 235.664 1.380,234.699 1.200,233.656 1.200 C 232.613 1.200,231.535 0.975,231.260 0.700 C 230.776 0.215,179.442 -0.148,172.400 0.283 M225.000 17.576 C 230.277 18.045,236.987 19.003,242.000 20.002 C 243.210 20.243,244.920 20.540,245.800 20.661 C 246.680 20.783,247.571 21.044,247.780 21.241 C 247.989 21.438,248.606 21.600,249.152 21.600 C 249.697 21.600,250.696 21.768,251.372 21.973 C 252.047 22.178,253.410 22.550,254.400 22.800 C 259.379 24.056,261.329 24.639,267.200 26.624 C 272.634 28.462,275.428 29.532,278.705 31.031 C 279.870 31.564,280.909 32.000,281.013 32.000 C 281.117 32.000,283.767 33.229,286.901 34.731 C 291.867 37.110,294.111 38.305,299.800 41.593 C 305.530 44.906,318.536 53.856,319.600 55.219 C 319.710 55.360,321.330 56.692,323.200 58.180 C 344.492 75.115,367.619 108.215,376.808 134.905 C 377.396 136.613,377.994 138.128,378.138 138.272 C 378.282 138.416,378.400 138.917,378.400 139.387 C 378.400 139.856,378.549 140.411,378.730 140.620 C 378.912 140.829,379.296 141.810,379.584 142.800 C 379.872 143.790,380.436 145.590,380.838 146.800 C 383.025 153.380,385.429 164.359,386.576 173.000 C 386.926 175.640,387.385 179.060,387.595 180.600 C 388.949 190.509,388.944 211.188,387.587 221.000 C 387.374 222.540,386.918 225.960,386.573 228.600 C 385.602 236.049,383.111 247.704,381.187 253.800 C 379.818 258.140,378.306 262.720,378.019 263.400 C 377.833 263.840,377.464 264.830,377.200 265.600 C 375.714 269.927,375.220 270.704,373.079 272.078 C 370.713 273.596,365.985 275.035,362.106 275.417 C 358.708 275.752,358.827 275.673,357.609 278.400 C 357.068 279.610,355.313 283.193,353.708 286.362 C 352.103 289.531,350.850 292.184,350.924 292.257 C 350.997 292.330,352.831 291.940,354.998 291.390 C 365.342 288.766,366.760 289.852,362.351 297.019 C 356.129 307.135,349.575 316.147,342.225 324.694 C 328.167 341.041,306.379 358.291,288.470 367.252 C 278.119 372.432,268.242 372.604,261.241 367.727 L 258.682 365.944 255.241 367.008 C 253.348 367.593,251.487 368.236,251.105 368.436 C 250.723 368.636,249.969 368.800,249.429 368.800 C 248.889 368.800,248.348 368.960,248.227 369.156 C 248.106 369.351,247.421 369.608,246.704 369.727 C 245.987 369.845,244.590 370.156,243.600 370.416 C 238.941 371.644,234.366 371.267,229.000 369.213 C 226.791 368.368,225.882 367.950,222.000 365.996 C 218.293 364.130,214.359 361.732,212.438 360.166 C 212.087 359.880,210.270 358.424,208.400 356.929 C 199.806 350.060,192.349 341.654,185.224 330.805 C 182.333 326.401,176.400 314.487,176.400 313.084 C 176.400 312.796,176.257 312.389,176.082 312.180 C 175.907 311.971,175.535 311.080,175.255 310.200 C 174.976 309.320,174.600 308.240,174.419 307.800 C 174.239 307.360,173.902 306.280,173.671 305.400 C 173.440 304.520,173.014 302.900,172.725 301.800 C 172.005 299.059,172.007 285.657,172.728 283.200 C 174.376 277.581,175.070 275.754,177.210 271.400 C 182.494 260.650,192.620 249.793,206.311 240.200 C 208.998 238.317,209.876 237.200,208.669 237.200 C 208.175 237.200,204.561 235.827,201.800 234.589 C 198.799 233.244,195.248 231.678,193.600 230.973 C 183.673 226.723,167.146 217.670,156.897 210.868 C 141.780 200.835,130.919 190.709,123.645 179.866 C 122.080 177.535,120.800 175.539,120.800 175.431 C 120.800 175.323,120.294 174.372,119.676 173.318 C 112.347 160.813,111.709 143.537,118.079 130.060 C 118.739 128.662,119.126 127.393,118.940 127.239 C 118.753 127.084,117.520 126.158,116.200 125.180 C 114.880 124.202,113.710 123.312,113.600 123.201 C 113.490 123.090,112.590 122.375,111.600 121.612 C 105.633 117.009,99.863 110.855,96.075 105.054 C 93.484 101.085,93.881 101.174,88.787 103.424 C 66.179 113.409,36.075 121.196,32.259 118.046 C 30.638 116.708,43.992 94.712,53.536 83.000 C 59.153 76.107,69.942 64.758,75.212 60.199 C 89.071 48.210,103.935 38.135,111.800 35.400 C 118.436 33.093,127.444 31.716,133.073 32.149 C 136.014 32.375,136.603 32.299,138.486 31.447 C 143.547 29.159,144.420 28.800,144.916 28.800 C 145.204 28.800,145.611 28.645,145.820 28.456 C 146.029 28.267,148.810 27.255,152.000 26.206 C 157.737 24.321,159.084 23.918,162.200 23.155 C 163.080 22.940,164.520 22.582,165.400 22.360 C 166.280 22.138,167.720 21.796,168.600 21.600 C 169.480 21.404,171.010 21.051,172.000 20.815 C 175.080 20.082,179.421 19.322,185.800 18.399 C 187.120 18.208,190.810 17.853,194.000 17.610 C 197.190 17.367,199.980 17.088,200.200 16.991 C 200.863 16.698,220.276 17.156,225.000 17.576 M25.559 136.883 C 26.787 138.849,34.075 147.739,51.531 168.563 C 57.851 176.103,64.046 183.920,67.049 188.144 C 75.604 200.179,81.058 208.317,90.545 223.200 C 102.345 241.713,112.570 260.707,117.355 273.000 C 118.639 276.300,119.840 279.360,120.023 279.800 C 120.306 280.478,121.762 284.894,123.189 289.400 C 123.544 290.522,124.386 293.563,125.238 296.800 C 125.783 298.871,127.053 305.244,127.829 309.800 C 129.473 319.460,128.222 361.908,126.072 369.400 C 124.407 375.202,99.269 361.965,78.600 344.402 C 56.220 325.385,36.035 297.759,26.432 273.000 C 25.493 270.580,24.579 268.240,24.400 267.800 C 23.241 264.949,20.705 257.606,19.979 255.000 C 19.463 253.144,18.837 250.930,18.426 249.500 C 14.560 236.050,11.392 209.603,12.150 197.107 C 13.567 173.760,15.363 161.974,19.602 148.200 C 20.076 146.660,20.555 145.040,20.666 144.600 C 20.776 144.160,21.020 143.440,21.207 143.000 C 21.484 142.349,22.640 138.949,23.416 136.500 C 23.672 135.695,24.961 135.925,25.559 136.883 " stroke="none" fill="#fafbfb" fill-rule="evenodd"></path><path id="path2" d="M200.400 18.026 C 191.931 18.407,181.198 19.611,175.800 20.787 C 174.920 20.978,173.120 21.358,171.800 21.631 C 169.753 22.053,165.152 23.184,160.600 24.384 C 159.035 24.796,148.209 28.434,144.549 29.778 C 140.370 31.312,137.686 32.689,138.400 32.932 C 138.730 33.044,140.230 33.518,141.733 33.984 C 149.546 36.408,152.898 41.776,151.607 49.800 C 149.209 64.711,131.388 81.607,102.200 96.645 C 98.240 98.685,94.946 100.612,94.880 100.926 C 94.100 104.660,118.454 128.802,120.301 126.126 C 120.577 125.727,121.814 123.870,123.051 122.000 C 135.150 103.710,162.348 84.696,195.400 71.418 C 198.480 70.181,201.360 69.004,201.800 68.804 C 205.281 67.220,221.981 61.620,229.200 59.616 C 230.850 59.158,232.830 58.607,233.600 58.391 C 268.914 48.484,301.596 46.937,316.134 54.484 C 320.068 56.526,313.688 51.525,305.600 46.227 C 300.764 43.059,299.394 42.245,293.400 38.980 C 290.248 37.262,282.104 33.200,281.813 33.200 C 281.709 33.200,280.639 32.750,279.435 32.199 C 274.902 30.125,264.776 26.502,258.800 24.815 C 257.810 24.536,256.550 24.169,256.000 24.000 C 254.503 23.540,252.043 22.905,249.800 22.400 C 248.700 22.152,247.170 21.788,246.400 21.591 C 245.630 21.394,244.370 21.138,243.600 21.021 C 242.830 20.905,241.120 20.618,239.800 20.384 C 228.631 18.403,212.917 17.463,200.400 18.026 M207.391 240.500 C 200.698 245.136,194.284 250.541,189.163 255.861 C 186.382 258.749,180.682 266.206,179.336 268.716 C 178.898 269.532,178.343 270.560,178.103 271.000 C 173.356 279.706,171.580 292.488,173.767 302.200 C 180.304 331.228,207.140 361.924,232.710 369.620 C 235.993 370.608,243.475 370.181,247.000 368.804 C 247.440 368.632,248.610 368.264,249.600 367.986 C 250.590 367.708,253.047 366.941,255.060 366.280 L 258.720 365.080 257.960 363.307 C 252.073 349.574,271.918 328.850,309.000 310.007 C 314.181 307.374,317.133 305.997,326.232 301.965 C 327.130 301.567,328.840 300.858,330.032 300.390 C 331.225 299.921,332.740 299.295,333.400 298.998 C 334.952 298.300,341.279 295.978,345.534 294.546 L 348.867 293.424 350.420 290.765 C 352.950 286.433,357.716 276.512,357.463 276.103 C 357.335 275.895,354.478 275.601,351.115 275.451 C 331.759 274.587,305.871 269.082,270.600 258.330 C 266.098 256.957,236.220 247.060,231.600 245.410 C 227.457 243.931,224.349 242.785,223.400 242.386 C 222.265 241.909,211.358 238.000,211.162 238.000 C 211.073 238.000,209.376 239.125,207.391 240.500 " stroke="none" fill="#0c3ca4" fill-rule="evenodd"></path><path id="path3" d="M201.513 17.495 C 202.676 17.576,204.476 17.576,205.513 17.493 C 206.551 17.411,205.600 17.345,203.400 17.346 C 201.200 17.347,200.351 17.414,201.513 17.495 M212.700 17.495 C 213.855 17.576,215.745 17.576,216.900 17.495 C 218.055 17.414,217.110 17.348,214.800 17.348 C 212.490 17.348,211.545 17.414,212.700 17.495 M193.500 17.889 C 194.215 17.978,195.385 17.978,196.100 17.889 C 196.815 17.801,196.230 17.728,194.800 17.728 C 193.370 17.728,192.785 17.801,193.500 17.889 M221.900 17.889 C 222.615 17.978,223.785 17.978,224.500 17.889 C 225.215 17.801,224.630 17.728,223.200 17.728 C 221.770 17.728,221.185 17.801,221.900 17.889 M189.500 18.282 C 189.995 18.378,190.805 18.378,191.300 18.282 C 191.795 18.187,191.390 18.109,190.400 18.109 C 189.410 18.109,189.005 18.187,189.500 18.282 M226.705 18.283 C 227.202 18.379,227.922 18.375,228.305 18.275 C 228.687 18.175,228.280 18.096,227.400 18.101 C 226.520 18.105,226.207 18.187,226.705 18.283 M184.400 18.807 C 183.779 19.011,184.309 19.051,185.800 18.912 C 187.120 18.789,188.275 18.624,188.367 18.544 C 188.689 18.265,185.388 18.484,184.400 18.807 M229.233 18.545 C 229.325 18.625,230.660 18.789,232.200 18.909 C 233.898 19.041,234.528 19.002,233.800 18.811 C 232.584 18.491,228.927 18.278,229.233 18.545 M180.900 19.476 C 181.285 19.576,181.915 19.576,182.300 19.476 C 182.685 19.375,182.370 19.293,181.600 19.293 C 180.830 19.293,180.515 19.375,180.900 19.476 M235.905 19.483 C 236.402 19.579,237.122 19.575,237.505 19.475 C 237.887 19.375,237.480 19.296,236.600 19.301 C 235.720 19.305,235.407 19.387,235.905 19.483 M176.100 20.276 C 176.485 20.376,177.115 20.376,177.500 20.276 C 177.885 20.175,177.570 20.093,176.800 20.093 C 176.030 20.093,175.715 20.175,176.100 20.276 M240.500 20.276 C 240.885 20.376,241.515 20.376,241.900 20.276 C 242.285 20.175,241.970 20.093,241.200 20.093 C 240.430 20.093,240.115 20.175,240.500 20.276 M171.000 21.219 C 170.442 21.471,170.685 21.507,171.800 21.338 C 172.680 21.204,173.475 21.028,173.567 20.947 C 173.910 20.644,171.768 20.871,171.000 21.219 M167.600 22.006 C 167.178 22.282,167.415 22.323,168.400 22.142 C 170.125 21.825,170.451 21.598,169.167 21.606 C 168.635 21.609,167.930 21.789,167.600 22.006 M164.400 22.818 C 163.962 23.115,164.124 23.152,165.000 22.956 C 166.471 22.627,166.790 22.398,165.767 22.406 C 165.345 22.409,164.730 22.595,164.400 22.818 M252.400 22.800 C 253.768 23.238,254.819 23.238,253.800 22.800 C 253.360 22.611,252.640 22.462,252.200 22.468 C 251.557 22.477,251.596 22.543,252.400 22.800 M254.833 23.344 C 254.925 23.423,255.540 23.608,256.200 23.756 C 257.076 23.952,257.238 23.915,256.800 23.618 C 256.260 23.253,254.432 22.998,254.833 23.344 M158.400 24.418 C 157.962 24.715,158.124 24.752,159.000 24.556 C 160.471 24.227,160.790 23.998,159.767 24.006 C 159.345 24.009,158.730 24.195,158.400 24.418 M262.564 25.643 C 263.863 26.063,264.995 26.338,265.079 26.254 C 265.282 26.052,261.394 24.789,260.725 24.840 C 260.436 24.862,261.264 25.223,262.564 25.643 M152.000 26.426 C 146.573 28.318,143.972 29.305,144.092 29.425 C 144.164 29.497,146.737 28.676,149.811 27.600 C 152.885 26.524,155.130 25.647,154.800 25.651 C 154.470 25.655,153.210 26.004,152.000 26.426 M270.200 28.155 C 270.860 28.455,271.850 28.811,272.400 28.946 C 273.203 29.143,273.164 29.084,272.200 28.645 C 271.540 28.345,270.550 27.989,270.000 27.854 C 269.197 27.657,269.236 27.716,270.200 28.155 M275.158 30.037 C 276.125 30.466,276.988 30.745,277.075 30.658 C 277.248 30.486,274.165 29.182,273.692 29.228 C 273.531 29.244,274.191 29.608,275.158 30.037 M277.600 30.995 C 277.600 31.205,280.335 32.411,280.749 32.383 C 281.070 32.362,278.301 30.839,277.900 30.817 C 277.735 30.808,277.600 30.888,277.600 30.995 M137.376 32.181 C 136.769 32.636,135.731 32.716,132.600 32.548 C 130.400 32.430,127.627 32.484,126.438 32.667 C 124.797 32.920,125.761 32.994,130.438 32.976 C 135.381 32.957,136.837 32.822,137.800 32.292 C 138.460 31.929,138.809 31.625,138.576 31.616 C 138.344 31.607,137.804 31.862,137.376 32.181 M282.800 33.400 C 283.350 33.714,283.980 33.972,284.200 33.972 C 284.420 33.972,284.150 33.714,283.600 33.400 C 283.050 33.086,282.420 32.828,282.200 32.828 C 281.980 32.828,282.250 33.086,282.800 33.400 M120.200 33.600 C 119.696 33.817,119.622 33.944,120.000 33.944 C 120.330 33.944,120.960 33.789,121.400 33.600 C 121.904 33.383,121.978 33.256,121.600 33.256 C 121.270 33.256,120.640 33.411,120.200 33.600 M290.000 36.837 C 297.581 40.945,299.771 42.078,299.400 41.696 C 298.875 41.156,287.820 35.198,287.357 35.206 C 287.161 35.209,288.350 35.943,290.000 36.837 M103.383 40.050 C 99.601 42.214,91.710 47.498,91.321 48.128 C 91.195 48.333,93.051 47.150,95.446 45.499 C 97.841 43.849,101.465 41.556,103.500 40.404 C 106.703 38.591,107.584 38.000,107.083 38.000 C 107.019 38.000,105.354 38.923,103.383 40.050 M300.000 42.118 C 300.000 42.234,301.215 43.093,302.700 44.027 C 304.185 44.961,305.805 45.988,306.300 46.309 C 306.795 46.630,307.200 46.797,307.200 46.682 C 307.200 46.566,305.985 45.707,304.500 44.773 C 303.015 43.839,301.395 42.812,300.900 42.491 C 300.405 42.170,300.000 42.003,300.000 42.118 M307.800 47.088 C 308.020 47.311,310.460 49.122,313.222 51.112 C 315.985 53.103,318.505 55.045,318.822 55.428 C 319.140 55.811,320.589 57.074,322.043 58.234 C 324.962 60.563,324.877 60.490,328.225 63.600 C 329.630 64.906,330.025 65.172,329.196 64.255 C 326.338 61.092,317.646 53.787,311.800 49.634 C 308.378 47.202,307.128 46.407,307.800 47.088 M85.647 52.205 C 82.923 54.292,80.853 55.998,81.047 55.996 C 81.241 55.994,82.210 55.344,83.200 54.552 C 84.190 53.760,86.305 52.126,87.900 50.921 C 90.410 49.024,91.121 48.385,90.700 48.405 C 90.645 48.407,88.371 50.117,85.647 52.205 M77.200 59.064 C 68.508 66.667,57.848 78.067,51.168 86.904 C 49.132 89.597,47.295 92.025,47.084 92.300 C 46.874 92.575,46.788 92.800,46.893 92.800 C 46.999 92.800,48.911 90.386,51.143 87.436 C 57.996 78.380,69.375 66.233,77.713 59.073 C 79.425 57.603,80.685 56.409,80.513 56.420 C 80.341 56.431,78.850 57.621,77.200 59.064 M334.855 70.039 C 337.135 72.481,339.962 75.586,341.139 76.939 C 342.315 78.293,343.742 79.850,344.310 80.400 C 344.878 80.950,344.366 80.239,343.172 78.820 C 340.406 75.534,331.201 65.600,330.922 65.600 C 330.806 65.600,332.576 67.598,334.855 70.039 M348.278 85.618 C 351.214 89.466,353.764 92.533,352.920 91.200 C 352.075 89.867,345.942 82.011,345.562 81.777 C 345.339 81.638,346.560 83.367,348.278 85.618 M356.232 96.500 C 359.425 101.235,360.039 102.043,359.195 100.400 C 358.542 99.129,353.598 92.000,353.369 92.000 C 353.275 92.000,354.563 94.025,356.232 96.500 M43.293 97.900 C 42.257 99.396,41.921 100.000,42.123 100.000 C 42.217 100.000,42.770 99.280,43.353 98.400 C 44.536 96.612,44.484 96.179,43.293 97.900 M39.564 103.900 C 37.044 108.120,37.110 108.000,37.331 108.000 C 37.429 108.000,38.280 106.695,39.221 105.100 C 40.163 103.505,41.195 101.795,41.513 101.300 C 41.831 100.805,41.993 100.400,41.873 100.400 C 41.752 100.400,40.713 101.975,39.564 103.900 M93.670 101.300 C 94.012 101.575,95.123 103.105,96.138 104.700 C 97.153 106.295,98.086 107.600,98.211 107.600 C 98.336 107.600,97.920 106.835,97.286 105.900 C 96.652 104.965,95.710 103.435,95.193 102.500 C 94.676 101.565,93.981 100.800,93.650 100.800 C 93.123 100.800,93.126 100.863,93.670 101.300 M88.200 102.800 C 86.880 103.426,85.980 103.944,86.200 103.950 C 86.420 103.956,87.680 103.445,89.000 102.815 C 90.320 102.184,91.220 101.667,91.000 101.665 C 90.780 101.663,89.520 102.174,88.200 102.800 M360.150 102.600 C 360.474 103.260,361.031 104.160,361.389 104.600 C 361.997 105.348,362.001 105.322,361.450 104.200 C 361.126 103.540,360.569 102.640,360.211 102.200 C 359.603 101.452,359.599 101.478,360.150 102.600 M79.400 106.429 C 78.520 106.852,78.250 107.086,78.800 106.949 C 79.933 106.667,82.012 105.625,81.400 105.646 C 81.180 105.653,80.280 106.006,79.400 106.429 M362.809 107.100 C 362.814 107.265,363.185 107.850,363.633 108.400 L 364.448 109.400 363.814 108.100 C 363.211 106.865,362.789 106.445,362.809 107.100 M100.000 110.125 C 100.000 110.194,100.585 110.779,101.300 111.425 L 102.600 112.600 101.425 111.300 C 100.330 110.088,100.000 109.816,100.000 110.125 M59.800 113.200 C 59.296 113.417,59.222 113.544,59.600 113.544 C 59.930 113.544,60.560 113.389,61.000 113.200 C 61.504 112.983,61.578 112.856,61.200 112.856 C 60.870 112.856,60.240 113.011,59.800 113.200 M57.000 114.000 L 56.200 114.344 57.000 114.366 C 57.440 114.378,58.070 114.213,58.400 114.000 C 59.195 113.486,58.196 113.486,57.000 114.000 M105.791 116.199 C 108.216 118.543,113.384 122.911,115.200 124.152 C 116.372 124.952,115.032 123.716,112.400 121.569 C 110.970 120.402,108.270 118.109,106.400 116.474 L 103.000 113.501 105.791 116.199 M33.072 115.419 C 32.132 117.389,32.264 117.724,33.247 115.862 C 33.693 115.016,33.987 114.254,33.901 114.167 C 33.814 114.081,33.441 114.644,33.072 115.419 M53.800 114.800 L 53.000 115.144 53.800 115.144 C 54.240 115.144,54.960 114.989,55.400 114.800 L 56.200 114.456 55.400 114.456 C 54.960 114.456,54.240 114.611,53.800 114.800 M50.600 115.600 L 49.800 115.944 50.600 115.944 C 51.040 115.944,51.760 115.789,52.200 115.600 L 53.000 115.256 52.200 115.256 C 51.760 115.256,51.040 115.411,50.600 115.600 M47.000 116.419 C 46.442 116.671,46.685 116.707,47.800 116.538 C 48.680 116.404,49.475 116.228,49.567 116.147 C 49.910 115.844,47.768 116.071,47.000 116.419 M42.400 117.200 L 41.400 117.520 42.400 117.513 C 42.950 117.509,43.940 117.368,44.600 117.200 L 45.800 116.895 44.600 116.887 C 43.940 116.883,42.950 117.024,42.400 117.200 M34.000 117.959 C 34.770 118.107,36.570 118.113,38.000 117.974 C 40.364 117.745,40.237 117.721,36.600 117.707 C 34.168 117.698,33.149 117.797,34.000 117.959 M370.034 120.600 C 370.034 120.820,370.378 121.630,370.800 122.400 C 371.222 123.170,371.566 123.620,371.566 123.400 C 371.566 123.180,371.222 122.370,370.800 121.600 C 370.378 120.830,370.034 120.380,370.034 120.600 M371.600 124.084 C 371.600 124.516,372.815 127.200,373.011 127.200 C 373.121 127.200,372.933 126.534,372.593 125.721 C 371.993 124.286,371.600 123.638,371.600 124.084 M116.473 125.026 C 116.843 125.452,117.743 126.141,118.473 126.557 C 120.039 127.450,119.626 127.007,117.400 125.404 C 116.469 124.734,116.082 124.576,116.473 125.026 M118.672 129.819 C 117.732 131.789,117.864 132.124,118.847 130.262 C 119.293 129.416,119.587 128.654,119.501 128.567 C 119.414 128.481,119.041 129.044,118.672 129.819 M116.257 136.057 C 115.890 137.193,115.659 138.192,115.744 138.277 C 115.828 138.362,116.201 137.504,116.571 136.371 C 116.942 135.239,117.173 134.240,117.085 134.151 C 116.997 134.063,116.624 134.921,116.257 136.057 M25.544 138.300 C 25.982 138.905,26.908 140.030,27.601 140.800 C 28.294 141.570,28.027 141.075,27.007 139.700 C 25.988 138.325,25.062 137.200,24.949 137.200 C 24.837 137.200,25.105 137.695,25.544 138.300 M115.249 139.400 C 115.216 139.840,115.096 140.650,114.983 141.200 L 114.777 142.200 115.206 141.219 C 115.442 140.679,115.561 139.869,115.472 139.419 C 115.313 138.621,115.307 138.621,115.249 139.400 M114.257 145.259 C 113.950 148.200,113.983 152.185,114.340 155.200 C 114.491 156.479,114.600 154.345,114.600 150.100 C 114.600 141.845,114.606 141.923,114.257 145.259 M33.628 148.400 C 37.249 152.941,43.961 160.800,44.219 160.800 C 44.423 160.800,32.182 146.059,31.099 145.000 C 30.648 144.560,31.787 146.090,33.628 148.400 M20.600 146.000 C 20.450 146.473,20.417 146.950,20.527 147.060 C 20.637 147.170,20.850 146.873,21.000 146.400 C 21.150 145.927,21.183 145.450,21.073 145.340 C 20.963 145.230,20.750 145.527,20.600 146.000 M379.612 145.600 C 379.612 145.930,379.787 146.470,380.000 146.800 C 380.345 147.333,380.388 147.333,380.388 146.800 C 380.388 146.470,380.213 145.930,380.000 145.600 C 379.655 145.067,379.612 145.067,379.612 145.600 M380.456 148.000 C 380.456 148.330,380.611 148.960,380.800 149.400 C 381.017 149.904,381.144 149.978,381.144 149.600 C 381.144 149.270,380.989 148.640,380.800 148.200 C 380.583 147.696,380.456 147.622,380.456 148.000 M19.800 148.800 C 19.650 149.273,19.617 149.750,19.727 149.860 C 19.837 149.970,20.050 149.673,20.200 149.200 C 20.350 148.727,20.383 148.250,20.273 148.140 C 20.163 148.030,19.950 148.327,19.800 148.800 M381.249 150.600 C 381.232 150.820,381.572 152.260,382.004 153.800 C 382.437 155.340,382.701 155.957,382.591 155.171 C 382.372 153.613,381.298 149.953,381.249 150.600 M19.029 151.829 C 18.881 152.415,18.838 152.972,18.932 153.066 C 19.027 153.160,19.224 152.758,19.371 152.171 C 19.519 151.585,19.562 151.028,19.468 150.934 C 19.373 150.840,19.176 151.242,19.029 151.829 M18.250 154.850 C 17.917 156.517,18.240 156.840,18.600 155.200 C 18.752 154.509,18.793 153.859,18.691 153.758 C 18.589 153.656,18.391 154.147,18.250 154.850 M17.422 158.222 C 17.272 159.025,17.228 159.762,17.326 159.860 C 17.424 159.957,17.627 159.381,17.778 158.578 C 17.928 157.775,17.972 157.038,17.874 156.940 C 17.776 156.843,17.573 157.419,17.422 158.222 M382.843 157.200 C 382.828 157.530,383.066 158.700,383.372 159.800 C 383.678 160.900,383.941 161.530,383.957 161.200 C 383.972 160.870,383.734 159.700,383.428 158.600 C 383.122 157.500,382.859 156.870,382.843 157.200 M115.062 159.000 C 115.196 159.880,115.372 160.675,115.453 160.767 C 115.756 161.110,115.529 158.968,115.181 158.200 C 114.929 157.642,114.893 157.885,115.062 159.000 M16.640 162.040 C 16.493 162.957,16.452 163.785,16.547 163.880 C 16.642 163.976,16.846 163.310,17.000 162.400 C 17.154 161.490,17.196 160.662,17.093 160.560 C 16.990 160.457,16.787 161.123,16.640 162.040 M48.487 166.143 C 50.749 168.861,52.664 171.032,52.742 170.967 C 52.908 170.829,44.849 161.200,44.566 161.200 C 44.461 161.200,46.225 163.424,48.487 166.143 M115.834 162.400 C 116.131 164.036,118.359 170.000,118.672 170.000 C 118.789 170.000,118.750 169.685,118.583 169.300 C 118.417 168.915,117.673 166.890,116.930 164.800 C 116.187 162.710,115.693 161.630,115.834 162.400 M15.840 166.040 C 15.693 166.957,15.652 167.785,15.747 167.880 C 15.842 167.976,16.046 167.310,16.200 166.400 C 16.354 165.490,16.396 164.662,16.293 164.560 C 16.190 164.457,15.987 165.123,15.840 166.040 M385.072 168.200 C 385.199 169.300,385.369 170.275,385.451 170.367 C 385.732 170.682,385.520 168.199,385.180 167.200 C 384.951 166.526,384.916 166.851,385.072 168.200 M15.260 169.250 C 15.227 169.828,15.111 170.908,15.001 171.650 L 14.803 173.000 15.224 171.657 C 15.455 170.919,15.572 169.839,15.482 169.257 L 15.320 168.200 15.260 169.250 M55.032 174.000 C 56.069 175.320,57.199 176.625,57.542 176.900 C 57.886 177.175,57.119 176.095,55.838 174.500 C 54.558 172.905,53.428 171.600,53.328 171.600 C 53.229 171.600,53.995 172.680,55.032 174.000 M386.109 174.800 C 386.109 175.790,386.187 176.195,386.282 175.700 C 386.378 175.205,386.378 174.395,386.282 173.900 C 386.187 173.405,386.109 173.810,386.109 174.800 M14.464 174.650 C 14.429 175.338,14.311 176.508,14.201 177.250 L 14.003 178.600 14.424 177.258 C 14.655 176.520,14.773 175.350,14.686 174.658 L 14.528 173.400 14.464 174.650 M121.786 176.300 C 122.135 177.015,122.506 177.600,122.610 177.600 C 123.008 177.600,122.752 176.963,121.967 176.000 L 121.152 175.000 121.786 176.300 M386.920 181.200 C 386.920 182.410,386.995 182.905,387.087 182.300 C 387.178 181.695,387.178 180.705,387.087 180.100 C 386.995 179.495,386.920 179.990,386.920 181.200 M61.393 181.900 C 62.412 183.275,63.338 184.400,63.451 184.400 C 63.729 184.400,62.331 182.503,60.799 180.800 C 60.106 180.030,60.373 180.525,61.393 181.900 M13.452 183.153 C 13.298 184.997,13.252 186.585,13.349 186.683 C 13.600 186.933,14.126 180.977,13.910 180.332 C 13.812 180.039,13.606 181.309,13.452 183.153 M126.477 183.127 C 128.095 185.377,130.239 187.968,130.496 187.983 C 130.658 187.992,129.780 186.740,128.545 185.200 C 126.504 182.656,125.196 181.345,126.477 183.127 M387.301 185.400 C 387.305 186.280,387.387 186.593,387.483 186.095 C 387.579 185.598,387.575 184.878,387.475 184.495 C 387.375 184.113,387.296 184.520,387.301 185.400 M387.750 191.400 C 387.751 193.820,387.816 194.758,387.896 193.485 C 387.976 192.212,387.975 190.232,387.894 189.085 C 387.814 187.938,387.749 188.980,387.750 191.400 M66.740 189.116 C 67.233 189.809,67.844 190.504,68.097 190.660 C 68.350 190.817,68.154 190.377,67.660 189.684 C 67.167 188.991,66.556 188.296,66.303 188.140 C 66.050 187.983,66.246 188.423,66.740 189.116 M12.978 200.600 C 12.978 207.420,13.032 210.266,13.099 206.925 C 13.166 203.584,13.166 198.004,13.099 194.525 C 13.033 191.046,12.978 193.780,12.978 200.600 M135.615 193.315 C 138.373 196.002,141.613 198.992,142.815 199.961 C 144.094 200.992,143.674 200.505,141.800 198.785 C 140.040 197.170,136.900 194.173,134.823 192.124 C 132.746 190.076,130.946 188.407,130.823 188.415 C 130.700 188.423,132.857 190.628,135.615 193.315 M70.740 194.671 C 72.082 196.689,73.375 198.461,73.613 198.608 C 74.106 198.913,69.794 192.513,68.891 191.600 C 68.565 191.270,69.397 192.652,70.740 194.671 M388.151 200.800 C 388.151 203.330,388.216 204.365,388.296 203.100 C 388.375 201.835,388.375 199.765,388.296 198.500 C 388.216 197.235,388.151 198.270,388.151 200.800 M145.200 201.769 C 145.200 201.899,147.225 203.496,149.700 205.319 C 155.562 209.636,156.800 210.497,156.800 210.254 C 156.800 210.144,154.685 208.511,152.100 206.625 C 149.515 204.740,146.905 202.823,146.300 202.365 C 145.695 201.908,145.200 201.639,145.200 201.769 M387.750 210.200 C 387.751 212.620,387.816 213.558,387.896 212.285 C 387.976 211.012,387.975 209.032,387.894 207.885 C 387.814 206.738,387.749 207.780,387.750 210.200 M157.200 210.550 C 157.200 210.695,160.480 212.843,162.700 214.152 C 164.092 214.973,162.930 213.935,161.100 212.722 C 158.681 211.118,157.200 210.294,157.200 210.550 M82.587 212.375 C 82.921 213.021,83.376 213.661,83.598 213.799 C 83.820 213.936,83.623 213.407,83.161 212.624 C 82.148 210.907,81.735 210.728,82.587 212.375 M84.470 215.200 C 86.237 218.064,90.483 224.400,90.635 224.400 C 90.836 224.400,89.537 222.296,86.684 218.000 C 84.777 215.130,83.182 213.111,84.470 215.200 M163.800 214.690 C 164.020 214.900,164.920 215.476,165.800 215.970 C 166.680 216.465,167.040 216.570,166.600 216.204 C 165.706 215.461,163.172 214.091,163.800 214.690 M13.489 218.200 C 13.608 220.180,13.772 221.875,13.853 221.967 C 14.124 222.274,13.944 218.219,13.606 216.400 C 13.370 215.131,13.336 215.663,13.489 218.200 M387.309 216.400 C 387.309 217.390,387.387 217.795,387.482 217.300 C 387.578 216.805,387.578 215.995,387.482 215.500 C 387.387 215.005,387.309 215.410,387.309 216.400 M167.600 216.990 C 167.600 217.094,168.185 217.465,168.900 217.814 L 170.200 218.448 169.200 217.633 C 168.237 216.848,167.600 216.592,167.600 216.990 M386.920 220.400 C 386.920 221.610,386.995 222.105,387.087 221.500 C 387.178 220.895,387.178 219.905,387.087 219.300 C 386.995 218.695,386.920 219.190,386.920 220.400 M14.285 225.600 C 14.407 227.030,14.572 228.275,14.653 228.367 C 14.920 228.670,14.711 225.422,14.385 224.200 C 14.182 223.444,14.146 223.962,14.285 225.600 M90.800 224.873 C 90.800 225.212,96.792 234.896,97.314 235.400 C 97.779 235.849,96.780 234.111,93.866 229.400 C 91.489 225.557,90.800 224.540,90.800 224.873 M386.101 227.000 C 386.105 227.880,386.187 228.193,386.283 227.695 C 386.379 227.198,386.375 226.478,386.275 226.095 C 386.175 225.713,386.096 226.120,386.101 227.000 M189.200 228.400 C 190.410 229.039,191.580 229.562,191.800 229.562 C 192.020 229.562,191.210 229.039,190.000 228.400 C 188.790 227.761,187.620 227.238,187.400 227.238 C 187.180 227.238,187.990 227.761,189.200 228.400 M15.072 231.000 C 15.199 232.100,15.369 233.075,15.451 233.167 C 15.732 233.482,15.520 230.999,15.180 230.000 C 14.951 229.326,14.916 229.651,15.072 231.000 M194.800 231.000 C 195.350 231.314,195.980 231.572,196.200 231.572 C 196.420 231.572,196.150 231.314,195.600 231.000 C 195.050 230.686,194.420 230.428,194.200 230.428 C 193.980 230.428,194.250 230.686,194.800 231.000 M385.055 233.055 C 384.913 234.086,384.874 235.008,384.969 235.102 C 385.063 235.196,385.265 234.439,385.418 233.418 C 385.571 232.398,385.610 231.476,385.504 231.371 C 385.398 231.265,385.196 232.023,385.055 233.055 M15.687 234.600 C 15.691 235.040,15.832 235.940,16.000 236.600 C 16.274 237.678,16.306 237.698,16.313 236.800 C 16.317 236.250,16.176 235.350,16.000 234.800 C 15.749 234.016,15.681 233.973,15.687 234.600 M208.300 236.634 C 210.201 237.465,209.946 237.954,206.296 240.486 C 204.483 241.743,202.370 243.332,201.600 244.016 C 200.798 244.730,201.225 244.512,202.600 243.506 C 203.920 242.540,206.112 240.980,207.472 240.037 C 210.567 237.892,210.815 237.333,209.009 236.578 C 208.248 236.260,207.485 236.015,207.313 236.033 C 207.141 236.051,207.585 236.321,208.300 236.634 M16.487 238.600 C 16.491 239.040,16.632 239.940,16.800 240.600 C 17.074 241.678,17.106 241.698,17.113 240.800 C 17.117 240.250,16.976 239.350,16.800 238.800 C 16.549 238.016,16.481 237.973,16.487 238.600 M383.422 241.422 C 383.272 242.225,383.228 242.962,383.326 243.060 C 383.424 243.157,383.627 242.581,383.778 241.778 C 383.928 240.975,383.972 240.238,383.874 240.140 C 383.776 240.043,383.573 240.619,383.422 241.422 M102.400 244.200 C 103.344 245.960,104.299 247.580,104.521 247.800 C 104.744 248.020,104.156 246.760,103.216 245.000 C 102.275 243.240,101.320 241.620,101.094 241.400 C 100.868 241.180,101.456 242.440,102.400 244.200 M17.462 243.400 C 17.596 244.280,17.772 245.075,17.853 245.167 C 18.156 245.510,17.929 243.368,17.581 242.600 C 17.329 242.042,17.293 242.285,17.462 243.400 M382.070 247.270 C 381.581 249.274,381.253 250.986,381.341 251.075 C 381.430 251.163,381.906 249.599,382.400 247.600 C 382.894 245.601,383.222 243.888,383.128 243.795 C 383.035 243.702,382.558 245.265,382.070 247.270 M197.400 247.251 C 190.257 253.261,178.800 266.449,178.800 268.661 C 178.800 268.825,179.980 267.223,181.422 265.102 C 185.664 258.864,189.566 254.680,198.800 246.468 C 201.045 244.472,200.025 245.042,197.400 247.251 M18.262 246.791 C 18.591 248.684,19.513 251.542,19.555 250.800 C 19.574 250.470,19.236 249.120,18.805 247.800 C 18.373 246.480,18.129 246.026,18.262 246.791 M105.800 250.400 C 106.357 251.500,106.903 252.400,107.013 252.400 C 107.123 252.400,106.757 251.500,106.200 250.400 C 105.643 249.300,105.097 248.400,104.987 248.400 C 104.877 248.400,105.243 249.300,105.800 250.400 M380.629 252.629 C 380.481 253.215,380.438 253.772,380.532 253.866 C 380.627 253.960,380.824 253.558,380.971 252.971 C 381.119 252.385,381.162 251.828,381.068 251.734 C 380.973 251.640,380.776 252.042,380.629 252.629 M379.800 255.200 C 379.650 255.673,379.617 256.150,379.727 256.260 C 379.837 256.370,380.050 256.073,380.200 255.600 C 380.350 255.127,380.383 254.650,380.273 254.540 C 380.163 254.430,379.950 254.727,379.800 255.200 M112.834 264.200 C 112.834 264.420,113.178 265.230,113.600 266.000 C 114.022 266.770,114.366 267.220,114.366 267.000 C 114.366 266.780,114.022 265.970,113.600 265.200 C 113.178 264.430,112.834 263.980,112.834 264.200 M375.005 269.185 C 374.857 269.650,374.031 270.498,373.168 271.069 C 371.282 272.317,371.055 272.820,372.900 271.664 C 374.342 270.761,375.877 268.944,375.510 268.576 C 375.380 268.446,375.152 268.720,375.005 269.185 M176.616 272.900 C 175.663 274.935,174.773 277.050,174.639 277.600 L 174.396 278.600 174.862 277.600 C 177.718 271.476,178.717 269.200,178.549 269.200 C 178.439 269.200,177.569 270.865,176.616 272.900 M115.326 270.000 C 115.802 271.533,116.957 274.240,117.289 274.600 C 117.716 275.064,116.142 270.932,115.542 270.015 C 115.201 269.494,115.168 269.492,115.326 270.000 M364.000 274.421 C 363.570 274.714,363.854 274.754,365.000 274.562 C 366.984 274.230,367.304 273.998,365.767 274.006 C 365.125 274.009,364.330 274.196,364.000 274.421 M358.480 275.280 C 358.216 275.544,358.000 275.938,358.000 276.156 C 358.000 276.375,358.225 276.258,358.500 275.897 C 358.775 275.536,359.720 275.172,360.600 275.088 L 362.200 274.934 360.580 274.867 C 359.689 274.830,358.744 275.016,358.480 275.280 M29.234 278.200 C 29.234 278.420,29.578 279.230,30.000 280.000 C 30.422 280.770,30.766 281.220,30.766 281.000 C 30.766 280.780,30.422 279.970,30.000 279.200 C 29.578 278.430,29.234 277.980,29.234 278.200 M173.829 279.829 C 173.681 280.415,173.638 280.972,173.732 281.066 C 173.827 281.160,174.024 280.758,174.171 280.171 C 174.319 279.585,174.362 279.028,174.268 278.934 C 174.173 278.840,173.976 279.242,173.829 279.829 M172.509 287.200 C 172.509 288.190,172.587 288.595,172.682 288.100 C 172.778 287.605,172.778 286.795,172.682 286.300 C 172.587 285.805,172.509 286.210,172.509 287.200 M351.427 289.487 C 349.580 292.965,349.573 293.913,351.400 293.178 C 352.159 292.873,352.154 292.855,351.300 292.828 C 350.158 292.792,350.143 292.891,351.805 289.590 C 353.602 286.023,353.309 285.943,351.427 289.487 M172.140 292.400 C 172.140 294.270,172.209 295.035,172.293 294.100 C 172.377 293.165,172.377 291.635,172.293 290.700 C 172.209 289.765,172.140 290.530,172.140 292.400 M35.400 290.800 C 35.741 291.460,36.111 292.000,36.221 292.000 C 36.331 292.000,36.141 291.460,35.800 290.800 C 35.459 290.140,35.089 289.600,34.979 289.600 C 34.869 289.600,35.059 290.140,35.400 290.800 M359.600 290.807 C 358.979 291.011,359.509 291.051,361.000 290.912 C 362.320 290.789,363.475 290.624,363.567 290.544 C 363.889 290.265,360.588 290.484,359.600 290.807 M363.732 292.521 C 363.668 293.721,363.690 293.743,364.099 292.887 C 364.363 292.333,364.389 291.830,364.167 291.608 C 363.945 291.387,363.773 291.747,363.732 292.521 M123.212 292.400 C 123.212 292.730,123.387 293.270,123.600 293.600 C 123.945 294.133,123.988 294.133,123.988 293.600 C 123.988 293.270,123.813 292.730,123.600 292.400 C 123.255 291.867,123.212 291.867,123.212 292.400 M36.524 292.600 C 36.859 293.436,40.099 298.800,40.269 298.800 C 40.496 298.800,38.030 294.441,37.081 293.166 C 36.686 292.635,36.435 292.380,36.524 292.600 M124.034 295.400 C 124.022 295.840,124.187 296.470,124.400 296.800 C 124.914 297.595,124.914 296.596,124.400 295.400 L 124.056 294.600 124.034 295.400 M361.908 296.100 C 361.033 297.449,360.248 299.056,360.687 298.600 C 361.248 298.017,362.898 295.200,362.679 295.200 C 362.576 295.200,362.229 295.605,361.908 296.100 M172.509 297.600 C 172.509 298.590,172.587 298.995,172.682 298.500 C 172.778 298.005,172.778 297.195,172.682 296.700 C 172.587 296.205,172.509 296.610,172.509 297.600 M124.868 298.600 C 124.874 299.040,125.024 299.850,125.200 300.400 L 125.520 301.400 125.532 300.400 C 125.538 299.850,125.389 299.040,125.200 298.600 L 124.856 297.800 124.868 298.600 M41.206 300.600 C 42.568 302.906,46.883 309.204,47.261 309.438 C 47.582 309.636,40.933 299.575,40.495 299.200 C 40.366 299.090,40.686 299.720,41.206 300.600 M356.681 304.414 C 354.783 307.282,353.372 309.541,353.545 309.434 C 354.185 309.039,360.677 299.200,360.299 299.200 C 360.207 299.200,358.579 301.546,356.681 304.414 M125.872 303.400 C 125.999 304.500,126.169 305.475,126.251 305.567 C 126.532 305.882,126.320 303.399,125.980 302.400 C 125.751 301.726,125.716 302.051,125.872 303.400 M173.268 302.600 C 173.262 303.040,173.411 303.760,173.600 304.200 C 174.038 305.219,174.038 304.168,173.600 302.800 C 173.343 301.996,173.277 301.957,173.268 302.600 M126.470 306.600 C 126.457 307.040,126.595 308.120,126.777 309.000 C 127.055 310.345,127.108 310.409,127.107 309.400 C 127.105 307.999,126.508 305.370,126.470 306.600 M349.820 314.000 C 346.362 318.544,346.018 319.363,349.273 315.300 C 351.810 312.134,353.334 310.000,353.059 310.000 C 352.951 310.000,351.494 311.800,349.820 314.000 M127.517 316.400 C 127.623 319.590,127.775 322.275,127.855 322.367 C 128.122 322.673,127.934 314.627,127.627 312.600 C 127.454 311.456,127.407 313.081,127.517 316.400 M48.690 311.700 C 48.903 311.975,50.401 313.910,52.019 316.000 C 59.387 325.519,76.152 342.964,78.877 343.948 C 79.101 344.029,78.413 343.309,77.346 342.348 C 66.411 332.494,59.647 325.321,52.028 315.500 C 50.194 313.135,48.605 311.200,48.497 311.200 C 48.390 311.200,48.476 311.425,48.690 311.700 M177.018 314.500 C 177.168 314.995,177.455 315.576,177.656 315.791 C 177.857 316.006,177.819 315.601,177.572 314.891 C 177.065 313.438,176.597 313.108,177.018 314.500 M342.400 323.267 C 337.502 328.939,330.566 336.010,325.246 340.754 C 323.182 342.596,321.682 344.034,321.915 343.951 C 322.769 343.645,333.260 333.798,336.506 330.255 C 342.216 324.024,347.078 318.398,346.749 318.402 C 346.667 318.403,344.710 320.592,342.400 323.267 M128.151 327.200 C 128.151 329.730,128.216 330.765,128.296 329.500 C 128.375 328.235,128.375 326.165,128.296 324.900 C 128.216 323.635,128.151 324.670,128.151 327.200 M181.200 323.298 C 181.200 324.110,188.911 336.400,189.421 336.400 C 189.531 336.400,188.563 334.825,187.271 332.900 C 185.978 330.975,184.158 328.050,183.225 326.400 C 181.499 323.346,181.200 322.888,181.200 323.298 M127.495 342.162 C 127.327 347.640,127.262 352.196,127.351 352.284 C 127.598 352.532,128.082 338.160,127.933 335.000 C 127.860 333.460,127.663 336.683,127.495 342.162 M190.038 337.369 C 190.442 338.099,193.620 342.117,195.046 343.700 C 197.356 346.263,196.961 345.345,194.519 342.473 C 190.192 337.384,189.800 336.937,190.038 337.369 M79.600 344.494 C 79.600 344.614,81.355 346.111,83.500 347.820 C 88.541 351.837,88.400 351.731,88.400 351.497 C 88.400 351.387,86.735 349.984,84.700 348.379 C 82.665 346.774,80.685 345.194,80.300 344.869 C 79.915 344.543,79.600 344.374,79.600 344.494 M199.800 348.743 C 201.560 350.573,204.620 353.420,206.600 355.069 C 208.637 356.765,209.071 357.056,207.600 355.740 C 206.170 354.461,203.110 351.614,200.800 349.414 C 196.787 345.592,196.742 345.562,199.800 348.743 M316.000 348.437 C 313.214 350.603,311.414 352.286,313.400 350.868 C 316.079 348.955,319.249 346.400,318.935 346.408 C 318.751 346.412,317.430 347.325,316.000 348.437 M88.800 351.725 C 88.800 351.824,89.461 352.409,90.268 353.025 C 91.076 353.641,91.611 353.941,91.456 353.691 C 91.140 353.179,88.800 351.447,88.800 351.725 M310.200 352.832 C 307.827 354.626,307.508 355.132,309.733 353.572 C 311.414 352.394,312.329 351.575,311.924 351.611 C 311.856 351.617,311.080 352.167,310.200 352.832 M126.931 355.800 C 126.933 357.340,127.005 357.921,127.092 357.091 C 127.179 356.261,127.177 355.001,127.089 354.291 C 127.000 353.581,126.929 354.260,126.931 355.800 M304.287 356.968 C 301.926 358.602,301.364 359.175,303.106 358.172 C 304.450 357.399,306.756 355.623,306.400 355.636 C 306.290 355.641,305.339 356.240,304.287 356.968 M211.400 358.984 C 212.474 359.908,217.017 363.059,218.300 363.770 C 219.398 364.379,218.715 363.628,217.500 362.890 C 216.785 362.456,214.850 361.167,213.200 360.026 C 211.550 358.885,210.740 358.416,211.400 358.984 M126.520 360.800 C 126.520 362.010,126.595 362.505,126.687 361.900 C 126.778 361.295,126.778 360.305,126.687 359.700 C 126.595 359.095,126.520 359.590,126.520 360.800 M100.600 359.890 C 100.820 360.100,101.720 360.676,102.600 361.170 C 103.480 361.665,103.840 361.770,103.400 361.404 C 102.506 360.661,99.972 359.291,100.600 359.890 M298.500 360.626 C 296.612 361.758,296.177 362.349,297.900 361.441 C 299.109 360.803,300.716 359.631,300.400 359.617 C 300.290 359.612,299.435 360.066,298.500 360.626 M106.000 363.220 C 107.387 364.161,108.178 364.435,107.200 363.636 C 106.650 363.186,106.020 362.817,105.800 362.815 C 105.580 362.813,105.670 362.996,106.000 363.220 M293.600 363.633 L 292.600 364.448 293.900 363.814 C 294.615 363.465,295.200 363.094,295.200 362.990 C 295.200 362.592,294.563 362.848,293.600 363.633 M126.064 364.650 C 126.029 365.338,125.911 366.507,125.801 367.250 L 125.603 368.600 126.024 367.258 C 126.255 366.520,126.373 365.350,126.286 364.658 L 126.128 363.400 126.064 364.650 M219.200 364.179 C 219.200 364.289,219.740 364.659,220.400 365.000 C 221.060 365.341,221.600 365.531,221.600 365.421 C 221.600 365.311,221.060 364.941,220.400 364.600 C 219.740 364.259,219.200 364.069,219.200 364.179 M290.800 365.233 L 289.800 366.048 291.100 365.414 C 291.815 365.065,292.400 364.694,292.400 364.590 C 292.400 364.192,291.763 364.448,290.800 365.233 M258.800 365.481 C 259.130 365.602,259.940 366.172,260.600 366.750 L 261.800 367.800 260.625 366.500 C 259.979 365.785,259.169 365.214,258.825 365.232 C 258.287 365.259,258.283 365.293,258.800 365.481 M262.000 367.779 C 262.000 367.889,262.540 368.259,263.200 368.600 C 263.860 368.941,264.400 369.131,264.400 369.021 C 264.400 368.911,263.860 368.541,263.200 368.200 C 262.540 367.859,262.000 367.669,262.000 367.779 M246.400 369.200 C 245.576 369.464,245.541 369.526,246.200 369.554 C 246.640 369.573,247.270 369.413,247.600 369.200 C 248.301 368.747,247.814 368.747,246.400 369.200 M119.400 369.600 C 119.840 369.789,120.560 369.938,121.000 369.932 C 121.643 369.923,121.604 369.857,120.800 369.600 C 119.432 369.162,118.381 369.162,119.400 369.600 M124.973 369.576 C 124.768 369.775,124.060 370.015,123.400 370.109 L 122.200 370.280 123.400 370.334 C 124.613 370.388,125.958 369.825,125.562 369.428 C 125.443 369.310,125.179 369.376,124.973 369.576 M265.200 369.600 C 265.530 369.813,266.070 369.988,266.400 369.988 C 266.933 369.988,266.933 369.945,266.400 369.600 C 266.070 369.387,265.530 369.212,265.200 369.212 C 264.667 369.212,264.667 369.255,265.200 369.600 M280.200 369.600 C 279.696 369.817,279.622 369.944,280.000 369.944 C 280.330 369.944,280.960 369.789,281.400 369.600 C 281.904 369.383,281.978 369.256,281.600 369.256 C 281.270 369.256,280.640 369.411,280.200 369.600 M241.400 370.419 C 240.842 370.671,241.085 370.707,242.200 370.538 C 243.080 370.404,243.875 370.228,243.967 370.147 C 244.310 369.844,242.168 370.071,241.400 370.419 M268.476 370.460 C 268.984 370.603,271.020 370.720,273.000 370.720 C 274.980 370.720,277.016 370.603,277.524 370.460 C 278.032 370.317,275.996 370.200,273.000 370.200 C 270.004 370.200,267.968 370.317,268.476 370.460 M237.905 371.083 C 238.402 371.179,239.122 371.175,239.505 371.075 C 239.887 370.975,239.480 370.896,238.600 370.901 C 237.720 370.905,237.407 370.987,237.905 371.083 " stroke="none" fill="#92b2ef" fill-rule="evenodd"></path><path id="path4" d="M204.478 17.098 C 206.831 17.169,210.791 17.169,213.278 17.099 C 215.765 17.029,213.840 16.971,209.000 16.970 C 204.160 16.970,202.125 17.028,204.478 17.098 M197.100 17.482 C 197.595 17.578,198.405 17.578,198.900 17.482 C 199.395 17.387,198.990 17.309,198.000 17.309 C 197.010 17.309,196.605 17.387,197.100 17.482 M219.505 17.483 C 220.002 17.579,220.722 17.575,221.105 17.475 C 221.487 17.375,221.080 17.296,220.200 17.301 C 219.320 17.305,219.007 17.387,219.505 17.483 M190.500 17.876 C 190.885 17.976,191.515 17.976,191.900 17.876 C 192.285 17.775,191.970 17.693,191.200 17.693 C 190.430 17.693,190.115 17.775,190.500 17.876 M226.305 17.883 C 226.802 17.979,227.522 17.975,227.905 17.875 C 228.287 17.775,227.880 17.696,227.000 17.701 C 226.120 17.705,225.807 17.787,226.305 17.883 M183.000 18.800 C 181.981 19.238,183.032 19.238,184.400 18.800 C 185.204 18.543,185.243 18.477,184.600 18.468 C 184.160 18.462,183.440 18.611,183.000 18.800 M178.000 19.606 C 177.578 19.882,177.815 19.923,178.800 19.742 C 180.525 19.425,180.851 19.198,179.567 19.206 C 179.035 19.209,178.330 19.389,178.000 19.606 M238.033 19.344 C 238.125 19.423,238.740 19.608,239.400 19.756 C 240.276 19.952,240.438 19.915,240.000 19.618 C 239.460 19.253,237.632 18.998,238.033 19.344 M123.800 32.573 C 109.115 34.711,96.160 42.077,75.212 60.199 C 69.942 64.758,59.153 76.107,53.536 83.000 C 43.992 94.712,30.638 116.708,32.259 118.046 C 36.077 121.197,66.205 113.402,88.800 103.417 C 91.191 102.360,93.345 101.647,93.800 101.761 C 94.553 101.949,94.558 101.929,93.884 101.424 C 93.270 100.965,92.889 101.022,91.219 101.828 C 73.359 110.444,42.962 119.099,34.168 118.072 C 32.077 117.828,32.106 117.245,34.419 112.916 C 45.016 93.085,60.174 73.930,76.400 59.861 C 78.710 57.859,80.690 56.108,80.800 55.970 C 81.367 55.262,93.576 46.311,97.670 43.602 C 105.347 38.523,112.524 35.186,118.400 33.964 C 123.594 32.884,129.214 32.341,132.876 32.564 C 135.008 32.694,136.835 32.666,136.936 32.500 C 137.257 31.975,127.541 32.028,123.800 32.573 M291.200 36.984 C 291.200 37.094,291.920 37.551,292.800 38.000 C 293.680 38.449,294.400 38.726,294.400 38.616 C 294.400 38.506,293.680 38.049,292.800 37.600 C 291.920 37.151,291.200 36.874,291.200 36.984 M320.000 55.785 C 320.000 55.879,321.841 57.541,324.092 59.478 C 356.765 87.602,379.930 129.849,386.010 172.400 C 386.859 178.345,387.104 179.574,387.155 178.148 C 387.313 173.739,383.496 154.797,380.838 146.800 C 380.436 145.590,379.872 143.790,379.584 142.800 C 379.296 141.810,378.912 140.829,378.730 140.620 C 378.549 140.411,378.400 139.856,378.400 139.387 C 378.400 138.917,378.282 138.416,378.138 138.272 C 377.994 138.128,377.396 136.613,376.808 134.905 C 369.754 114.418,354.314 89.570,337.601 71.810 C 331.562 65.393,320.000 54.866,320.000 55.785 M97.954 107.936 C 98.399 108.560,99.079 109.325,99.465 109.636 C 99.852 109.946,99.560 109.435,98.817 108.500 C 97.291 106.580,96.725 106.210,97.954 107.936 M102.800 113.450 C 102.800 113.661,103.655 114.636,104.700 115.617 L 106.600 117.400 104.800 115.407 C 103.810 114.312,102.955 113.337,102.900 113.241 C 102.845 113.145,102.800 113.239,102.800 113.450 M118.963 127.097 C 119.117 127.371,118.711 128.721,118.061 130.097 C 111.710 143.536,112.357 160.828,119.676 173.318 C 120.294 174.372,120.800 175.323,120.800 175.431 C 120.800 175.997,126.849 184.524,129.116 187.153 C 141.302 201.285,158.684 213.688,184.000 226.312 C 188.290 228.452,192.610 230.549,193.600 230.973 C 195.248 231.678,198.799 233.244,201.800 234.589 C 204.501 235.800,208.170 237.200,208.640 237.200 C 208.916 237.200,209.226 237.474,209.330 237.808 C 209.484 238.304,209.508 238.297,209.459 237.771 C 209.419 237.338,207.691 236.435,204.200 235.021 C 166.071 219.583,137.610 199.688,122.914 178.200 C 113.301 164.143,111.579 146.573,118.278 130.869 C 119.415 128.203,119.597 127.445,119.190 127.069 C 118.799 126.708,118.747 126.714,118.963 127.097 M23.416 136.500 C 22.640 138.949,21.484 142.349,21.207 143.000 C 21.020 143.440,20.776 144.160,20.666 144.600 C 20.555 145.040,20.079 146.660,19.608 148.200 C 16.916 156.997,13.529 174.217,13.646 178.507 C 13.704 180.598,13.780 180.242,14.613 174.000 C 15.442 167.787,17.160 159.183,18.817 152.948 C 19.510 150.337,20.169 147.806,20.281 147.325 C 20.815 145.019,23.867 136.646,24.210 136.542 C 24.425 136.477,25.808 138.017,27.285 139.965 C 29.788 143.266,36.959 151.957,49.429 166.800 C 83.026 206.792,115.009 260.623,123.220 291.000 C 127.761 307.798,128.712 317.182,128.004 338.200 C 127.263 360.169,126.293 369.726,124.753 370.215 C 121.016 371.401,108.025 365.295,94.600 356.044 C 50.082 325.365,21.480 279.009,14.239 225.800 C 13.914 223.411,13.675 222.455,13.647 223.427 C 13.621 224.321,13.762 226.031,13.960 227.227 C 14.158 228.422,14.530 230.750,14.787 232.400 C 15.602 237.630,17.277 245.501,18.426 249.500 C 18.837 250.930,19.463 253.144,19.979 255.000 C 20.705 257.606,23.241 264.949,24.400 267.800 C 24.579 268.240,25.493 270.580,26.432 273.000 C 36.035 297.759,56.220 325.385,78.600 344.402 C 99.269 361.965,124.407 375.202,126.072 369.400 C 128.222 361.908,129.473 319.460,127.829 309.800 C 127.053 305.244,125.783 298.871,125.238 296.800 C 124.386 293.563,123.544 290.522,123.189 289.400 C 121.762 284.894,120.306 280.478,120.023 279.800 C 119.840 279.360,118.639 276.300,117.355 273.000 C 111.093 256.911,98.595 234.904,78.964 205.400 C 74.821 199.173,72.506 195.821,67.049 188.144 C 64.046 183.920,57.851 176.103,51.531 168.563 C 34.075 147.739,26.787 138.849,25.559 136.883 C 24.961 135.925,23.672 135.695,23.416 136.500 M387.281 181.400 C 387.275 182.500,387.410 184.300,387.582 185.400 L 387.893 187.400 387.924 185.000 C 387.940 183.680,387.805 181.880,387.623 181.000 L 387.292 179.400 387.281 181.400 M13.094 182.156 C 12.932 183.232,12.824 185.122,12.853 186.356 C 12.904 188.497,12.922 188.454,13.257 185.400 C 13.665 181.667,13.541 179.188,13.094 182.156 M388.193 200.800 C 388.193 212.795,388.220 213.298,388.535 207.300 C 388.724 203.705,388.724 197.895,388.535 194.300 C 388.220 188.302,388.193 188.805,388.193 200.800 M12.262 194.100 C 11.945 198.164,12.003 204.862,12.387 208.600 C 12.578 210.464,12.695 207.958,12.737 201.100 C 12.803 190.298,12.689 188.614,12.262 194.100 M12.823 215.433 C 12.836 216.955,13.004 218.920,13.197 219.800 C 13.435 220.889,13.476 220.060,13.324 217.200 C 13.066 212.359,12.789 211.384,12.823 215.433 M387.457 217.728 C 387.274 219.669,387.216 221.349,387.329 221.462 C 387.642 221.775,388.082 217.611,387.927 215.800 C 387.831 214.674,387.692 215.246,387.457 217.728 M386.666 224.800 C 385.483 234.846,382.541 248.143,379.231 258.402 C 378.351 261.131,377.710 263.443,377.806 263.539 C 377.902 263.636,378.064 263.464,378.166 263.157 C 378.493 262.173,380.796 255.042,381.187 253.800 C 383.753 245.668,387.564 226.001,387.123 223.164 C 387.040 222.634,386.835 223.370,386.666 224.800 M207.400 239.435 L 206.200 240.466 207.500 239.606 C 208.215 239.133,208.800 238.668,208.800 238.573 C 208.800 238.273,208.631 238.378,207.400 239.435 M190.792 253.100 L 187.000 257.000 190.900 253.208 C 193.045 251.122,194.800 249.367,194.800 249.308 C 194.800 249.018,194.314 249.478,190.792 253.100 M185.375 258.900 L 184.200 260.200 185.500 259.025 C 186.712 257.930,186.984 257.600,186.675 257.600 C 186.606 257.600,186.021 258.185,185.375 258.900 M376.182 267.127 C 374.381 271.721,370.654 273.846,362.607 274.868 C 360.623 275.120,358.826 275.481,358.613 275.671 C 358.390 275.868,358.732 275.930,359.413 275.816 C 360.066 275.706,361.883 275.435,363.452 275.212 C 369.205 274.396,374.489 272.029,375.531 269.803 C 376.659 267.392,377.737 264.404,377.548 264.214 C 377.460 264.126,376.845 265.437,376.182 267.127 M172.649 283.415 C 172.512 283.773,172.418 284.456,172.441 284.933 C 172.467 285.481,172.603 285.286,172.810 284.403 C 173.160 282.916,173.065 282.333,172.649 283.415 M353.484 286.214 C 352.671 287.856,352.093 289.200,352.198 289.200 C 352.465 289.200,355.285 283.551,355.106 283.373 C 355.027 283.293,354.297 284.572,353.484 286.214 M356.400 291.079 C 354.090 291.641,351.795 292.124,351.300 292.151 C 350.323 292.204,350.030 292.800,350.980 292.800 C 351.300 292.800,352.605 292.516,353.880 292.170 C 367.405 288.494,367.325 290.088,352.965 310.416 C 337.219 332.706,311.600 355.094,288.472 366.774 C 277.852 372.136,266.750 372.146,260.658 366.798 C 259.205 365.522,258.560 365.360,257.600 366.032 C 257.124 366.365,257.178 366.403,257.860 366.212 C 258.477 366.039,259.439 366.472,261.260 367.740 C 268.241 372.603,278.131 372.426,288.470 367.252 C 306.379 358.291,328.167 341.041,342.225 324.694 C 349.575 316.147,356.129 307.135,362.351 297.019 C 366.603 290.106,365.386 288.890,356.400 291.079 M200.400 349.800 C 202.481 351.890,204.274 353.600,204.384 353.600 C 204.494 353.600,202.881 351.890,200.800 349.800 C 198.719 347.710,196.926 346.000,196.816 346.000 C 196.706 346.000,198.319 347.710,200.400 349.800 M217.200 363.379 C 217.200 363.489,217.740 363.859,218.400 364.200 C 219.060 364.541,219.600 364.731,219.600 364.621 C 219.600 364.511,219.060 364.141,218.400 363.800 C 217.740 363.459,217.200 363.269,217.200 363.379 " stroke="none" fill="#a1c4fc" fill-rule="evenodd"></path></g></svg>