<svg id="svg" version="1.1" xmlns="http://www.w3.org/2000/svg" xmlns:xlink="http://www.w3.org/1999/xlink" width="400" height="400" viewBox="0, 0, 400,400"><g id="svgg"><path id="path0" d="M120.596 108.500 C 120.498 108.775,120.154 109.990,119.831 111.200 C 117.865 118.579,117.500 119.878,117.190 120.600 C 117.001 121.040,116.485 122.840,116.044 124.600 C 115.123 128.276,113.916 132.654,112.791 136.400 C 112.362 137.830,111.851 139.855,111.657 140.900 L 111.303 142.800 123.852 142.800 L 136.400 142.800 136.400 220.804 L 136.400 298.808 155.500 298.704 L 174.600 298.600 174.800 220.800 L 175.000 143.000 187.500 142.894 C 194.375 142.836,200.001 142.656,200.003 142.494 C 200.007 142.006,197.964 133.860,197.621 133.000 C 197.446 132.560,196.978 130.760,196.582 129.000 C 196.185 127.240,195.735 125.620,195.581 125.400 C 195.427 125.180,195.208 124.460,195.095 123.800 C 194.982 123.140,194.132 119.720,193.205 116.200 C 192.278 112.680,191.427 109.395,191.313 108.900 L 191.107 108.000 155.941 108.000 C 128.170 108.000,120.737 108.105,120.596 108.500 M211.600 203.200 L 211.600 298.400 230.800 298.400 L 250.000 298.400 250.000 259.880 C 250.000 230.453,250.113 221.247,250.480 220.880 C 250.837 220.523,254.898 220.400,266.280 220.400 L 281.600 220.400 281.600 204.600 L 281.600 188.800 266.043 188.800 C 252.226 188.800,250.458 188.729,250.243 188.167 C 249.744 186.867,249.971 143.389,250.480 142.880 C 250.841 142.519,255.964 142.400,271.080 142.400 L 291.200 142.400 291.200 141.206 C 291.200 140.549,291.025 139.244,290.811 138.306 C 290.260 135.895,289.643 132.627,288.449 125.800 C 288.218 124.480,287.747 121.960,287.403 120.200 C 287.058 118.440,286.606 115.920,286.397 114.600 C 285.853 111.164,285.377 109.010,285.043 108.469 C 284.824 108.116,275.724 108.000,248.176 108.000 L 211.600 108.000 211.600 203.200 " stroke="none" fill="#f6c911" fill-rule="evenodd"></path><path id="path1" d="M182.784 0.144 C 182.665 0.266,181.090 0.397,179.284 0.435 C 177.478 0.474,176.000 0.636,176.000 0.796 C 176.000 0.955,173.975 1.213,171.500 1.368 C 169.025 1.524,166.940 1.819,166.867 2.025 C 166.793 2.231,165.848 2.400,164.767 2.400 C 163.685 2.400,162.800 2.564,162.800 2.764 C 162.800 2.964,161.270 3.256,159.400 3.411 C 157.530 3.567,156.000 3.853,156.000 4.047 C 156.000 4.241,155.370 4.400,154.600 4.400 C 153.830 4.400,153.200 4.566,153.200 4.768 C 153.200 4.971,152.030 5.262,150.600 5.415 C 149.170 5.568,148.000 5.852,148.000 6.047 C 148.000 6.241,147.370 6.400,146.600 6.400 C 145.830 6.400,145.200 6.567,145.200 6.771 C 145.200 6.975,144.210 7.266,143.000 7.417 C 141.790 7.568,140.800 7.851,140.800 8.046 C 140.800 8.241,140.361 8.400,139.824 8.400 C 139.287 8.400,138.749 8.559,138.629 8.754 C 138.508 8.948,137.602 9.229,136.614 9.377 C 135.627 9.525,134.714 9.816,134.586 10.023 C 134.458 10.230,133.913 10.400,133.376 10.400 C 132.839 10.400,132.400 10.557,132.400 10.749 C 132.400 10.941,131.680 11.213,130.800 11.354 C 129.920 11.494,129.200 11.787,129.200 12.005 C 129.200 12.222,128.851 12.400,128.424 12.400 C 127.997 12.400,127.551 12.556,127.432 12.747 C 127.314 12.939,126.494 13.211,125.609 13.352 C 124.724 13.494,124.000 13.787,124.000 14.005 C 124.000 14.222,123.550 14.400,123.000 14.400 C 122.450 14.400,122.000 14.580,122.000 14.800 C 122.000 15.020,121.640 15.200,121.200 15.200 C 120.760 15.200,120.400 15.391,120.400 15.624 C 120.400 15.857,120.200 15.924,119.955 15.772 C 119.711 15.621,119.396 15.665,119.255 15.870 C 118.971 16.284,116.282 17.600,115.719 17.600 C 115.109 17.600,113.206 18.583,113.203 18.900 C 113.201 19.065,112.840 19.200,112.400 19.200 C 111.960 19.200,111.600 19.366,111.600 19.568 C 111.600 19.771,111.060 20.055,110.400 20.200 C 109.740 20.345,109.200 20.629,109.200 20.832 C 109.200 21.034,108.840 21.200,108.400 21.200 C 107.960 21.200,107.600 21.360,107.600 21.557 C 107.600 21.753,107.128 22.032,106.552 22.176 C 105.975 22.321,105.241 22.702,104.919 23.023 C 104.598 23.345,104.189 23.517,104.010 23.406 C 103.830 23.295,103.581 23.474,103.454 23.802 C 103.328 24.131,102.859 24.400,102.413 24.400 C 101.966 24.400,101.600 24.580,101.600 24.800 C 101.600 25.020,101.330 25.200,101.000 25.200 C 100.670 25.200,100.400 25.360,100.400 25.557 C 100.400 25.753,99.950 26.026,99.400 26.164 C 98.850 26.302,98.400 26.592,98.400 26.808 C 98.400 27.023,98.040 27.200,97.600 27.200 C 97.160 27.200,96.800 27.360,96.800 27.557 C 96.800 27.753,96.343 28.028,95.784 28.168 C 95.225 28.309,94.875 28.598,95.007 28.812 C 95.139 29.025,94.877 29.200,94.424 29.200 C 93.971 29.200,93.600 29.360,93.600 29.557 C 93.600 29.753,93.150 30.026,92.600 30.164 C 92.050 30.302,91.600 30.592,91.600 30.808 C 91.600 31.023,91.330 31.200,91.000 31.200 C 90.670 31.200,90.400 31.368,90.400 31.573 C 90.400 31.778,89.995 32.074,89.500 32.230 C 89.005 32.387,88.330 32.823,88.000 33.200 C 87.670 33.577,86.995 34.013,86.500 34.170 C 86.005 34.326,85.600 34.622,85.600 34.827 C 85.600 35.032,85.412 35.200,85.183 35.200 C 84.791 35.200,84.338 35.513,83.015 36.700 C 82.708 36.975,82.264 37.200,82.029 37.200 C 81.793 37.200,81.600 37.341,81.600 37.514 C 81.600 37.686,81.015 38.169,80.300 38.585 C 79.585 39.002,78.634 39.761,78.187 40.272 C 77.740 40.782,77.188 41.200,76.959 41.200 C 76.731 41.200,76.153 41.650,75.675 42.200 C 75.197 42.750,74.608 43.200,74.367 43.200 C 74.126 43.200,73.141 44.010,72.179 45.000 C 71.217 45.990,70.271 46.800,70.076 46.800 C 69.501 46.800,67.992 48.258,68.274 48.541 C 68.417 48.683,68.332 48.800,68.085 48.800 C 67.526 48.800,65.600 50.692,65.600 51.242 C 65.600 51.465,65.412 51.531,65.182 51.389 C 64.674 51.075,61.601 53.973,61.600 54.767 C 61.600 55.078,61.480 55.213,61.332 55.066 C 60.958 54.692,59.600 55.995,59.600 56.729 C 59.600 57.061,59.477 57.211,59.328 57.061 C 58.970 56.703,56.766 58.821,57.038 59.261 C 57.153 59.448,56.994 59.600,56.686 59.600 C 55.984 59.600,54.703 60.970,55.066 61.332 C 55.213 61.480,55.078 61.600,54.767 61.600 C 53.973 61.601,51.075 64.674,51.389 65.182 C 51.531 65.412,51.465 65.600,51.242 65.600 C 50.692 65.600,48.800 67.526,48.800 68.085 C 48.800 68.332,48.683 68.417,48.541 68.274 C 48.258 67.992,46.800 69.501,46.800 70.076 C 46.800 70.271,45.990 71.217,45.000 72.179 C 44.010 73.141,43.200 74.126,43.200 74.367 C 43.200 74.608,42.750 75.197,42.200 75.675 C 41.650 76.153,41.200 76.731,41.200 76.959 C 41.200 77.188,40.782 77.740,40.272 78.187 C 39.761 78.634,39.002 79.585,38.585 80.300 C 38.169 81.015,37.686 81.600,37.514 81.600 C 37.341 81.600,37.200 81.793,37.200 82.029 C 37.200 82.264,36.975 82.708,36.700 83.015 C 35.513 84.338,35.200 84.791,35.200 85.183 C 35.200 85.412,35.032 85.600,34.827 85.600 C 34.622 85.600,34.326 86.005,34.170 86.500 C 34.013 86.995,33.577 87.670,33.200 88.000 C 32.823 88.330,32.387 89.005,32.230 89.500 C 32.074 89.995,31.768 90.400,31.549 90.400 C 31.331 90.400,31.244 90.548,31.356 90.729 C 31.468 90.909,31.208 91.358,30.780 91.725 C 30.351 92.092,30.000 92.664,30.000 92.996 C 30.000 93.328,29.820 93.600,29.600 93.600 C 29.380 93.600,29.200 93.971,29.200 94.424 C 29.200 94.877,29.025 95.139,28.812 95.007 C 28.598 94.875,28.309 95.225,28.168 95.784 C 28.028 96.343,27.753 96.800,27.557 96.800 C 27.360 96.800,27.200 97.160,27.200 97.600 C 27.200 98.040,27.023 98.400,26.808 98.400 C 26.592 98.400,26.302 98.850,26.164 99.400 C 26.026 99.950,25.753 100.400,25.557 100.400 C 25.360 100.400,25.200 100.670,25.200 101.000 C 25.200 101.330,25.020 101.600,24.800 101.600 C 24.580 101.600,24.400 101.966,24.400 102.413 C 24.400 102.859,24.131 103.328,23.802 103.454 C 23.474 103.581,23.295 103.830,23.406 104.010 C 23.517 104.189,23.345 104.598,23.023 104.919 C 22.702 105.241,22.321 105.975,22.176 106.552 C 22.032 107.128,21.753 107.600,21.557 107.600 C 21.360 107.600,21.200 107.960,21.200 108.400 C 21.200 108.840,21.034 109.200,20.832 109.200 C 20.629 109.200,20.345 109.740,20.200 110.400 C 20.055 111.060,19.771 111.600,19.568 111.600 C 19.366 111.600,19.200 111.960,19.200 112.400 C 19.200 112.840,19.065 113.201,18.900 113.203 C 18.583 113.206,17.600 115.109,17.600 115.719 C 17.600 116.282,16.284 118.971,15.870 119.255 C 15.665 119.396,15.621 119.711,15.772 119.955 C 15.924 120.200,15.857 120.400,15.624 120.400 C 15.391 120.400,15.200 120.760,15.200 121.200 C 15.200 121.640,15.020 122.000,14.800 122.000 C 14.580 122.000,14.400 122.450,14.400 123.000 C 14.400 123.550,14.222 124.000,14.005 124.000 C 13.787 124.000,13.494 124.724,13.352 125.609 C 13.211 126.494,12.939 127.314,12.747 127.432 C 12.556 127.551,12.400 127.997,12.400 128.424 C 12.400 128.851,12.222 129.200,12.005 129.200 C 11.787 129.200,11.494 129.920,11.354 130.800 C 11.213 131.680,10.941 132.400,10.749 132.400 C 10.557 132.400,10.400 132.839,10.400 133.376 C 10.400 133.913,10.230 134.458,10.023 134.586 C 9.816 134.714,9.525 135.627,9.377 136.614 C 9.229 137.602,8.948 138.508,8.754 138.629 C 8.559 138.749,8.400 139.287,8.400 139.824 C 8.400 140.361,8.241 140.800,8.046 140.800 C 7.851 140.800,7.568 141.790,7.417 143.000 C 7.266 144.210,6.975 145.200,6.771 145.200 C 6.567 145.200,6.400 145.830,6.400 146.600 C 6.400 147.370,6.241 148.000,6.047 148.000 C 5.852 148.000,5.568 149.170,5.415 150.600 C 5.262 152.030,4.971 153.200,4.768 153.200 C 4.566 153.200,4.400 153.830,4.400 154.600 C 4.400 155.370,4.241 156.000,4.047 156.000 C 3.853 156.000,3.567 157.530,3.411 159.400 C 3.256 161.270,2.964 162.800,2.764 162.800 C 2.564 162.800,2.400 163.685,2.400 164.767 C 2.400 165.848,2.231 166.793,2.025 166.867 C 1.819 166.940,1.524 169.025,1.368 171.500 C 1.213 173.975,0.955 176.000,0.796 176.000 C 0.334 176.000,0.200 181.391,0.200 200.000 C 0.200 218.609,0.334 224.000,0.796 224.000 C 0.955 224.000,1.213 226.025,1.368 228.500 C 1.524 230.975,1.819 233.060,2.025 233.133 C 2.231 233.207,2.400 234.152,2.400 235.233 C 2.400 236.315,2.559 237.200,2.753 237.200 C 2.947 237.200,3.233 238.730,3.389 240.600 C 3.544 242.470,3.836 244.000,4.036 244.000 C 4.236 244.000,4.400 244.630,4.400 245.400 C 4.400 246.170,4.566 246.800,4.768 246.800 C 4.971 246.800,5.261 247.968,5.414 249.395 C 5.567 250.822,5.851 251.892,6.046 251.772 C 6.241 251.651,6.400 252.283,6.400 253.176 C 6.400 254.069,6.567 254.800,6.771 254.800 C 6.975 254.800,7.266 255.790,7.417 257.000 C 7.568 258.210,7.851 259.200,8.046 259.200 C 8.241 259.200,8.400 259.614,8.400 260.120 C 8.400 260.626,8.574 261.214,8.787 261.427 C 9.001 261.641,9.286 262.532,9.421 263.407 C 9.556 264.283,9.832 265.171,10.034 265.380 C 10.235 265.589,10.400 266.174,10.400 266.680 C 10.400 267.186,10.557 267.600,10.749 267.600 C 10.941 267.600,11.213 268.320,11.354 269.200 C 11.494 270.080,11.787 270.800,12.005 270.800 C 12.222 270.800,12.400 271.250,12.400 271.800 C 12.400 272.350,12.557 272.800,12.749 272.800 C 12.941 272.800,13.213 273.520,13.354 274.400 C 13.494 275.280,13.787 276.000,14.005 276.000 C 14.222 276.000,14.400 276.450,14.400 277.000 C 14.400 277.550,14.580 278.000,14.800 278.000 C 15.020 278.000,15.200 278.371,15.200 278.824 C 15.200 279.324,15.374 279.540,15.643 279.374 C 15.941 279.189,15.997 279.378,15.816 279.950 C 15.656 280.454,15.720 280.800,15.973 280.800 C 16.208 280.800,16.400 281.160,16.400 281.600 C 16.400 282.040,16.580 282.400,16.800 282.400 C 17.020 282.400,17.200 282.669,17.200 282.997 C 17.200 283.831,18.523 286.800,18.894 286.800 C 19.062 286.800,19.200 287.160,19.200 287.600 C 19.200 288.040,19.366 288.400,19.568 288.400 C 19.771 288.400,20.055 288.940,20.200 289.600 C 20.345 290.260,20.629 290.800,20.832 290.800 C 21.034 290.800,21.200 291.160,21.200 291.600 C 21.200 292.040,21.366 292.400,21.568 292.400 C 21.771 292.400,22.055 292.940,22.200 293.600 C 22.345 294.260,22.629 294.800,22.832 294.800 C 23.034 294.800,23.200 295.141,23.200 295.557 C 23.200 295.974,23.470 296.418,23.800 296.545 C 24.130 296.671,24.400 297.141,24.400 297.587 C 24.400 298.034,24.580 298.400,24.800 298.400 C 25.020 298.400,25.200 298.670,25.200 299.000 C 25.200 299.330,25.360 299.600,25.557 299.600 C 25.753 299.600,26.026 300.050,26.164 300.600 C 26.302 301.150,26.592 301.600,26.808 301.600 C 27.023 301.600,27.200 301.960,27.200 302.400 C 27.200 302.840,27.360 303.200,27.557 303.200 C 27.753 303.200,28.026 303.650,28.164 304.200 C 28.302 304.750,28.592 305.200,28.808 305.200 C 29.023 305.200,29.200 305.470,29.200 305.800 C 29.200 306.130,29.380 306.400,29.600 306.400 C 29.820 306.400,30.000 306.681,30.000 307.024 C 30.000 307.367,30.178 307.537,30.395 307.403 C 30.622 307.263,30.689 307.423,30.553 307.779 C 30.422 308.121,30.514 308.400,30.757 308.400 C 31.001 308.400,31.200 308.670,31.200 309.000 C 31.200 309.330,31.368 309.600,31.573 309.600 C 31.778 309.600,32.074 310.005,32.230 310.500 C 32.387 310.995,32.823 311.670,33.200 312.000 C 33.577 312.330,34.013 313.005,34.170 313.500 C 34.326 313.995,34.622 314.400,34.827 314.400 C 35.032 314.400,35.200 314.593,35.200 314.829 C 35.200 315.064,35.425 315.508,35.700 315.815 C 36.887 317.138,37.200 317.591,37.200 317.983 C 37.200 318.212,37.341 318.400,37.514 318.400 C 37.686 318.400,38.169 318.985,38.585 319.700 C 39.002 320.415,39.761 321.366,40.272 321.813 C 40.782 322.260,41.200 322.812,41.200 323.041 C 41.200 323.269,41.650 323.847,42.200 324.325 C 42.750 324.803,43.200 325.392,43.200 325.633 C 43.200 325.874,44.010 326.859,45.000 327.821 C 45.990 328.783,46.800 329.748,46.800 329.966 C 46.800 330.487,50.721 334.400,51.243 334.400 C 51.465 334.400,51.531 334.588,51.389 334.818 C 51.066 335.340,56.424 340.832,56.944 340.511 C 57.153 340.382,57.211 340.458,57.074 340.680 C 56.792 341.136,58.512 342.919,58.930 342.604 C 59.078 342.492,59.118 342.512,59.018 342.649 C 58.711 343.068,64.726 348.893,65.178 348.614 C 65.410 348.470,65.600 348.535,65.600 348.758 C 65.600 349.308,67.526 351.200,68.085 351.200 C 68.332 351.200,68.417 351.317,68.274 351.459 C 67.992 351.742,69.501 353.200,70.076 353.200 C 70.271 353.200,71.217 354.010,72.179 355.000 C 73.141 355.990,74.126 356.800,74.367 356.800 C 74.608 356.800,75.197 357.250,75.675 357.800 C 76.153 358.350,76.731 358.800,76.959 358.800 C 77.188 358.800,77.740 359.218,78.187 359.728 C 78.634 360.239,79.585 360.998,80.300 361.415 C 81.015 361.831,81.600 362.314,81.600 362.486 C 81.600 362.659,81.793 362.800,82.029 362.800 C 82.264 362.800,82.708 363.025,83.015 363.300 C 84.338 364.487,84.791 364.800,85.183 364.800 C 85.412 364.800,85.600 364.968,85.600 365.173 C 85.600 365.378,86.005 365.674,86.500 365.830 C 86.995 365.987,87.670 366.423,88.000 366.800 C 88.330 367.177,89.005 367.613,89.500 367.770 C 89.995 367.926,90.400 368.222,90.400 368.427 C 90.400 368.632,90.670 368.800,91.000 368.800 C 91.330 368.800,91.600 368.977,91.600 369.192 C 91.600 369.408,92.050 369.698,92.600 369.836 C 93.150 369.974,93.600 370.247,93.600 370.443 C 93.600 370.640,93.971 370.800,94.424 370.800 C 94.877 370.800,95.139 370.975,95.007 371.188 C 94.875 371.402,95.225 371.691,95.784 371.832 C 96.343 371.972,96.800 372.247,96.800 372.443 C 96.800 372.640,97.160 372.800,97.600 372.800 C 98.040 372.800,98.400 372.977,98.400 373.192 C 98.400 373.408,98.850 373.698,99.400 373.836 C 99.950 373.974,100.400 374.247,100.400 374.443 C 100.400 374.640,100.670 374.800,101.000 374.800 C 101.330 374.800,101.600 374.980,101.600 375.200 C 101.600 375.420,101.966 375.600,102.413 375.600 C 102.859 375.600,103.329 375.870,103.455 376.200 C 103.582 376.530,104.026 376.800,104.443 376.800 C 104.859 376.800,105.200 376.966,105.200 377.168 C 105.200 377.371,105.740 377.655,106.400 377.800 C 107.060 377.945,107.600 378.229,107.600 378.432 C 107.600 378.634,107.945 378.800,108.367 378.800 C 108.788 378.800,109.193 378.935,109.267 379.100 C 109.477 379.573,111.856 380.800,112.562 380.800 C 112.913 380.800,113.200 380.938,113.200 381.106 C 113.200 381.428,116.121 382.800,116.808 382.800 C 117.319 382.800,118.917 383.686,119.260 384.158 C 119.402 384.355,119.817 384.402,120.180 384.263 C 120.568 384.114,120.741 384.173,120.597 384.405 C 120.463 384.622,120.723 384.800,121.176 384.800 C 121.629 384.800,122.000 384.980,122.000 385.200 C 122.000 385.420,122.450 385.600,123.000 385.600 C 123.550 385.600,124.000 385.778,124.000 385.995 C 124.000 386.213,124.720 386.506,125.600 386.646 C 126.480 386.787,127.200 387.059,127.200 387.251 C 127.200 387.443,127.650 387.600,128.200 387.600 C 128.750 387.600,129.200 387.778,129.200 387.995 C 129.200 388.213,129.920 388.506,130.800 388.646 C 131.680 388.787,132.400 389.059,132.400 389.251 C 132.400 389.443,132.820 389.600,133.333 389.600 C 133.847 389.600,134.392 389.725,134.545 389.878 C 134.698 390.031,135.043 390.202,135.312 390.257 C 135.580 390.313,136.340 390.468,137.000 390.603 C 137.660 390.738,138.371 391.017,138.580 391.224 C 138.789 391.431,139.374 391.600,139.880 391.600 C 140.386 391.600,140.800 391.762,140.800 391.961 C 140.800 392.159,141.880 392.447,143.199 392.600 C 144.519 392.753,145.498 393.041,145.376 393.239 C 145.253 393.438,145.793 393.600,146.576 393.600 C 147.359 393.600,148.000 393.759,148.000 393.953 C 148.000 394.148,149.170 394.432,150.600 394.585 C 152.030 394.738,153.200 395.029,153.200 395.232 C 153.200 395.434,153.830 395.600,154.600 395.600 C 155.370 395.600,156.000 395.759,156.000 395.953 C 156.000 396.147,157.530 396.433,159.400 396.589 C 161.270 396.744,162.800 397.036,162.800 397.236 C 162.800 397.436,163.685 397.600,164.767 397.600 C 165.848 397.600,166.793 397.766,166.867 397.970 C 166.940 398.173,168.980 398.468,171.400 398.626 C 173.870 398.787,175.925 399.107,176.085 399.356 C 176.289 399.673,183.133 399.800,200.000 399.800 C 216.867 399.800,223.711 399.673,223.915 399.356 C 224.075 399.107,226.130 398.787,228.600 398.626 C 231.020 398.468,233.060 398.173,233.133 397.970 C 233.207 397.766,234.137 397.600,235.200 397.600 C 236.263 397.600,237.193 397.435,237.267 397.234 C 237.340 397.033,238.840 396.742,240.600 396.586 C 242.360 396.430,243.897 396.151,244.016 395.964 C 244.134 395.778,244.809 395.582,245.516 395.528 C 246.222 395.474,246.800 395.302,246.800 395.147 C 246.800 394.991,247.970 394.738,249.400 394.585 C 250.830 394.432,252.000 394.148,252.000 393.953 C 252.000 393.759,252.630 393.600,253.400 393.600 C 254.170 393.600,254.800 393.433,254.800 393.229 C 254.800 393.025,255.790 392.734,257.000 392.583 C 258.210 392.432,259.200 392.149,259.200 391.954 C 259.200 391.759,259.740 391.600,260.400 391.600 C 261.060 391.600,261.600 391.440,261.600 391.245 C 261.600 391.050,262.406 390.770,263.391 390.622 C 264.376 390.475,265.286 390.184,265.414 389.977 C 265.542 389.770,266.087 389.600,266.624 389.600 C 267.161 389.600,267.600 389.443,267.600 389.251 C 267.600 389.059,268.320 388.787,269.200 388.646 C 270.080 388.506,270.800 388.213,270.800 387.995 C 270.800 387.778,271.235 387.600,271.767 387.600 C 272.298 387.600,272.793 387.430,272.867 387.221 C 272.940 387.013,273.630 386.733,274.400 386.600 C 275.170 386.467,275.860 386.187,275.933 385.979 C 276.007 385.770,276.502 385.600,277.033 385.600 C 277.565 385.600,278.000 385.420,278.000 385.200 C 278.000 384.980,278.360 384.800,278.800 384.800 C 279.240 384.800,279.600 384.626,279.600 384.413 C 279.600 384.199,279.870 384.129,280.200 384.255 C 280.530 384.382,280.800 384.286,280.800 384.043 C 280.800 383.799,281.160 383.600,281.600 383.600 C 282.040 383.600,282.400 383.420,282.400 383.200 C 282.400 382.980,282.669 382.800,282.997 382.800 C 283.831 382.800,286.800 381.477,286.800 381.106 C 286.800 380.938,287.087 380.800,287.438 380.800 C 288.144 380.800,290.523 379.573,290.733 379.100 C 290.807 378.935,291.212 378.800,291.633 378.800 C 292.055 378.800,292.400 378.634,292.400 378.432 C 292.400 378.229,292.940 377.945,293.600 377.800 C 294.260 377.655,294.800 377.371,294.800 377.168 C 294.800 376.966,295.141 376.800,295.557 376.800 C 295.974 376.800,296.418 376.530,296.545 376.200 C 296.671 375.870,297.141 375.600,297.587 375.600 C 298.034 375.600,298.400 375.420,298.400 375.200 C 298.400 374.980,298.670 374.800,299.000 374.800 C 299.330 374.800,299.600 374.620,299.600 374.400 C 299.600 374.180,299.842 374.000,300.139 374.000 C 300.435 374.000,301.088 373.644,301.590 373.208 C 302.092 372.773,302.660 372.513,302.852 372.632 C 303.043 372.750,303.200 372.676,303.200 372.467 C 303.200 372.258,303.650 371.974,304.200 371.836 C 304.750 371.698,305.200 371.408,305.200 371.192 C 305.200 370.977,305.470 370.800,305.800 370.800 C 306.130 370.800,306.400 370.640,306.400 370.443 C 306.400 370.247,306.850 369.974,307.400 369.836 C 307.950 369.698,308.400 369.408,308.400 369.192 C 308.400 368.977,308.670 368.800,309.000 368.800 C 309.330 368.800,309.600 368.632,309.600 368.427 C 309.600 368.222,310.005 367.926,310.500 367.770 C 310.995 367.613,311.670 367.177,312.000 366.800 C 312.330 366.423,313.005 365.987,313.500 365.830 C 313.995 365.674,314.400 365.378,314.400 365.173 C 314.400 364.968,314.588 364.800,314.817 364.800 C 315.265 364.800,316.071 364.207,317.099 363.120 C 317.453 362.747,317.891 362.532,318.071 362.644 C 318.252 362.756,318.400 362.669,318.400 362.451 C 318.400 362.232,318.751 361.942,319.181 361.806 C 319.610 361.670,320.582 360.938,321.341 360.179 C 322.099 359.421,322.886 358.800,323.088 358.800 C 323.290 358.800,323.847 358.350,324.325 357.800 C 324.803 357.250,325.392 356.800,325.633 356.800 C 325.874 356.800,326.859 355.990,327.821 355.000 C 328.783 354.010,329.753 353.200,329.977 353.200 C 330.200 353.200,331.402 352.165,332.647 350.900 C 333.892 349.635,335.105 348.600,335.343 348.600 C 335.581 348.600,336.004 348.150,336.282 347.600 C 336.561 347.050,336.791 346.763,336.794 346.962 C 336.797 347.161,337.160 346.998,337.600 346.600 C 338.040 346.202,338.400 345.623,338.400 345.314 C 338.400 345.006,338.541 344.840,338.712 344.946 C 339.133 345.206,345.274 339.008,344.934 338.667 C 344.787 338.520,344.939 338.400,345.271 338.400 C 345.604 338.400,346.202 338.040,346.600 337.600 C 346.998 337.160,347.161 336.797,346.962 336.794 C 346.763 336.791,347.050 336.561,347.600 336.282 C 348.150 336.004,348.600 335.581,348.600 335.343 C 348.600 335.105,349.635 333.892,350.900 332.647 C 352.165 331.402,353.200 330.200,353.200 329.977 C 353.200 329.753,354.010 328.783,355.000 327.821 C 355.990 326.859,356.800 325.874,356.800 325.633 C 356.800 325.392,357.250 324.803,357.800 324.325 C 358.350 323.847,358.800 323.290,358.800 323.088 C 358.800 322.886,359.421 322.099,360.179 321.341 C 360.938 320.582,361.670 319.610,361.806 319.181 C 361.942 318.751,362.232 318.400,362.451 318.400 C 362.669 318.400,362.756 318.252,362.644 318.071 C 362.532 317.891,362.747 317.453,363.120 317.099 C 364.207 316.071,364.800 315.265,364.800 314.817 C 364.800 314.588,364.968 314.400,365.173 314.400 C 365.378 314.400,365.674 313.995,365.830 313.500 C 365.987 313.005,366.423 312.330,366.800 312.000 C 367.177 311.670,367.613 310.995,367.770 310.500 C 367.926 310.005,368.222 309.600,368.427 309.600 C 368.632 309.600,368.800 309.330,368.800 309.000 C 368.800 308.670,368.977 308.400,369.192 308.400 C 369.408 308.400,369.698 307.950,369.836 307.400 C 369.974 306.850,370.247 306.400,370.443 306.400 C 370.640 306.400,370.800 306.130,370.800 305.800 C 370.800 305.470,370.977 305.200,371.192 305.200 C 371.408 305.200,371.698 304.750,371.836 304.200 C 371.974 303.650,372.258 303.200,372.467 303.200 C 372.676 303.200,372.750 303.043,372.632 302.852 C 372.513 302.660,372.773 302.092,373.208 301.590 C 373.644 301.088,374.000 300.435,374.000 300.139 C 374.000 299.842,374.180 299.600,374.400 299.600 C 374.620 299.600,374.800 299.330,374.800 299.000 C 374.800 298.670,374.980 298.400,375.200 298.400 C 375.420 298.400,375.600 298.034,375.600 297.587 C 375.600 297.141,375.870 296.671,376.200 296.545 C 376.530 296.418,376.800 295.974,376.800 295.557 C 376.800 295.141,376.966 294.800,377.168 294.800 C 377.371 294.800,377.655 294.260,377.800 293.600 C 377.945 292.940,378.229 292.400,378.432 292.400 C 378.634 292.400,378.800 292.055,378.800 291.633 C 378.800 291.212,378.935 290.807,379.100 290.733 C 379.573 290.523,380.800 288.144,380.800 287.438 C 380.800 287.087,380.938 286.800,381.106 286.800 C 381.477 286.800,382.800 283.831,382.800 282.997 C 382.800 282.669,382.980 282.400,383.200 282.400 C 383.420 282.400,383.600 282.040,383.600 281.600 C 383.600 281.160,383.799 280.800,384.043 280.800 C 384.286 280.800,384.382 280.530,384.255 280.200 C 384.129 279.870,384.199 279.600,384.413 279.600 C 384.626 279.600,384.800 279.240,384.800 278.800 C 384.800 278.360,384.980 278.000,385.200 278.000 C 385.420 278.000,385.600 277.565,385.600 277.033 C 385.600 276.502,385.770 276.007,385.979 275.933 C 386.187 275.860,386.467 275.170,386.600 274.400 C 386.733 273.630,387.013 272.940,387.221 272.867 C 387.430 272.793,387.600 272.298,387.600 271.767 C 387.600 271.235,387.778 270.800,387.995 270.800 C 388.213 270.800,388.506 270.080,388.646 269.200 C 388.787 268.320,389.059 267.600,389.251 267.600 C 389.443 267.600,389.600 267.161,389.600 266.624 C 389.600 266.087,389.770 265.542,389.977 265.414 C 390.184 265.286,390.475 264.376,390.622 263.391 C 390.770 262.406,391.050 261.600,391.245 261.600 C 391.440 261.600,391.600 261.060,391.600 260.400 C 391.600 259.740,391.759 259.200,391.954 259.200 C 392.149 259.200,392.432 258.210,392.583 257.000 C 392.734 255.790,393.025 254.800,393.229 254.800 C 393.433 254.800,393.600 254.170,393.600 253.400 C 393.600 252.630,393.759 252.000,393.953 252.000 C 394.148 252.000,394.432 250.830,394.585 249.400 C 394.738 247.970,394.991 246.800,395.147 246.800 C 395.302 246.800,395.474 246.222,395.528 245.516 C 395.582 244.809,395.778 244.134,395.964 244.016 C 396.151 243.897,396.430 242.360,396.586 240.600 C 396.742 238.840,397.033 237.340,397.234 237.267 C 397.435 237.193,397.600 236.263,397.600 235.200 C 397.600 234.137,397.766 233.207,397.970 233.133 C 398.173 233.060,398.468 231.020,398.626 228.600 C 398.787 226.130,399.107 224.075,399.356 223.915 C 399.673 223.711,399.800 216.867,399.800 200.000 C 399.800 183.133,399.673 176.289,399.356 176.085 C 399.107 175.925,398.787 173.870,398.626 171.400 C 398.468 168.980,398.173 166.940,397.970 166.867 C 397.766 166.793,397.600 165.848,397.600 164.767 C 397.600 163.685,397.436 162.800,397.236 162.800 C 397.036 162.800,396.744 161.270,396.589 159.400 C 396.433 157.530,396.147 156.000,395.953 156.000 C 395.759 156.000,395.600 155.370,395.600 154.600 C 395.600 153.830,395.434 153.200,395.232 153.200 C 395.029 153.200,394.738 152.030,394.585 150.600 C 394.432 149.170,394.148 148.000,393.953 148.000 C 393.759 148.000,393.600 147.359,393.600 146.576 C 393.600 145.793,393.438 145.253,393.239 145.376 C 393.041 145.498,392.753 144.519,392.600 143.199 C 392.447 141.880,392.159 140.800,391.961 140.800 C 391.762 140.800,391.600 140.386,391.600 139.880 C 391.600 139.374,391.431 138.789,391.224 138.580 C 391.017 138.371,390.738 137.660,390.603 137.000 C 390.468 136.340,390.313 135.580,390.257 135.312 C 390.202 135.043,390.031 134.698,389.878 134.545 C 389.725 134.392,389.600 133.847,389.600 133.333 C 389.600 132.820,389.443 132.400,389.251 132.400 C 389.059 132.400,388.787 131.680,388.646 130.800 C 388.506 129.920,388.213 129.200,387.995 129.200 C 387.778 129.200,387.600 128.750,387.600 128.200 C 387.600 127.650,387.443 127.200,387.251 127.200 C 387.059 127.200,386.787 126.480,386.646 125.600 C 386.506 124.720,386.213 124.000,385.995 124.000 C 385.778 124.000,385.600 123.550,385.600 123.000 C 385.600 122.450,385.420 122.000,385.200 122.000 C 384.980 122.000,384.800 121.629,384.800 121.176 C 384.800 120.723,384.622 120.463,384.405 120.597 C 384.173 120.741,384.114 120.568,384.263 120.180 C 384.402 119.817,384.355 119.402,384.158 119.260 C 383.686 118.917,382.800 117.319,382.800 116.808 C 382.800 116.121,381.428 113.200,381.106 113.200 C 380.938 113.200,380.800 112.913,380.800 112.562 C 380.800 111.856,379.573 109.477,379.100 109.267 C 378.935 109.193,378.800 108.788,378.800 108.367 C 378.800 107.945,378.634 107.600,378.432 107.600 C 378.229 107.600,377.945 107.060,377.800 106.400 C 377.655 105.740,377.371 105.200,377.168 105.200 C 376.966 105.200,376.800 104.859,376.800 104.443 C 376.800 104.026,376.530 103.582,376.200 103.455 C 375.870 103.329,375.600 102.859,375.600 102.413 C 375.600 101.966,375.420 101.600,375.200 101.600 C 374.980 101.600,374.800 101.330,374.800 101.000 C 374.800 100.670,374.640 100.400,374.443 100.400 C 374.247 100.400,373.974 99.950,373.836 99.400 C 373.698 98.850,373.408 98.400,373.192 98.400 C 372.977 98.400,372.800 98.040,372.800 97.600 C 372.800 97.160,372.640 96.800,372.443 96.800 C 372.247 96.800,371.972 96.343,371.832 95.784 C 371.691 95.225,371.402 94.875,371.188 95.007 C 370.975 95.139,370.800 94.877,370.800 94.424 C 370.800 93.971,370.640 93.600,370.443 93.600 C 370.247 93.600,369.974 93.150,369.836 92.600 C 369.698 92.050,369.408 91.600,369.192 91.600 C 368.977 91.600,368.800 91.330,368.800 91.000 C 368.800 90.670,368.632 90.400,368.427 90.400 C 368.222 90.400,367.926 89.995,367.770 89.500 C 367.613 89.005,367.177 88.330,366.800 88.000 C 366.423 87.670,365.987 86.995,365.830 86.500 C 365.674 86.005,365.378 85.600,365.173 85.600 C 364.968 85.600,364.800 85.407,364.800 85.171 C 364.800 84.936,364.575 84.492,364.300 84.185 C 363.113 82.862,362.800 82.409,362.800 82.017 C 362.800 81.788,362.659 81.600,362.486 81.600 C 362.314 81.600,361.831 81.015,361.415 80.300 C 360.998 79.585,360.239 78.634,359.728 78.187 C 359.218 77.740,358.800 77.188,358.800 76.959 C 358.800 76.731,358.350 76.153,357.800 75.675 C 357.250 75.197,356.800 74.608,356.800 74.367 C 356.800 74.126,355.990 73.141,355.000 72.179 C 354.010 71.217,353.200 70.271,353.200 70.076 C 353.200 69.501,351.742 67.992,351.459 68.274 C 351.317 68.417,351.200 68.332,351.200 68.085 C 351.200 67.526,349.308 65.600,348.758 65.600 C 348.535 65.600,348.470 65.410,348.614 65.178 C 348.933 64.661,343.024 58.722,342.585 59.118 C 342.413 59.273,342.385 59.201,342.524 58.958 C 342.838 58.406,341.063 56.682,340.606 57.096 C 340.422 57.263,340.378 57.212,340.509 56.982 C 340.823 56.428,335.356 51.056,334.818 51.389 C 334.588 51.531,334.400 51.465,334.400 51.243 C 334.400 50.721,330.487 46.800,329.966 46.800 C 329.748 46.800,328.783 45.990,327.821 45.000 C 326.859 44.010,325.874 43.200,325.633 43.200 C 325.392 43.200,324.803 42.750,324.325 42.200 C 323.847 41.650,323.269 41.200,323.041 41.200 C 322.812 41.200,322.260 40.782,321.813 40.272 C 321.366 39.761,320.415 39.002,319.700 38.585 C 318.985 38.169,318.400 37.686,318.400 37.514 C 318.400 37.341,318.207 37.200,317.971 37.200 C 317.736 37.200,317.292 36.975,316.985 36.700 C 315.662 35.513,315.209 35.200,314.817 35.200 C 314.588 35.200,314.400 35.032,314.400 34.827 C 314.400 34.622,313.995 34.326,313.500 34.170 C 313.005 34.013,312.330 33.577,312.000 33.200 C 311.670 32.823,310.995 32.387,310.500 32.230 C 310.005 32.074,309.600 31.778,309.600 31.573 C 309.600 31.368,309.330 31.200,309.000 31.200 C 308.670 31.200,308.400 31.001,308.400 30.757 C 308.400 30.514,308.121 30.422,307.779 30.553 C 307.423 30.689,307.263 30.622,307.403 30.395 C 307.537 30.178,307.367 30.000,307.024 30.000 C 306.681 30.000,306.400 29.820,306.400 29.600 C 306.400 29.380,306.130 29.200,305.800 29.200 C 305.470 29.200,305.200 29.023,305.200 28.808 C 305.200 28.592,304.750 28.302,304.200 28.164 C 303.650 28.026,303.200 27.753,303.200 27.557 C 303.200 27.360,302.840 27.200,302.400 27.200 C 301.960 27.200,301.600 27.023,301.600 26.808 C 301.600 26.592,301.150 26.302,300.600 26.164 C 300.050 26.026,299.600 25.753,299.600 25.557 C 299.600 25.360,299.330 25.200,299.000 25.200 C 298.670 25.200,298.400 25.020,298.400 24.800 C 298.400 24.580,298.034 24.400,297.587 24.400 C 297.141 24.400,296.671 24.130,296.545 23.800 C 296.418 23.470,295.974 23.200,295.557 23.200 C 295.141 23.200,294.800 23.034,294.800 22.832 C 294.800 22.629,294.260 22.345,293.600 22.200 C 292.940 22.055,292.400 21.771,292.400 21.568 C 292.400 21.366,292.040 21.200,291.600 21.200 C 291.160 21.200,290.800 21.034,290.800 20.832 C 290.800 20.629,290.260 20.345,289.600 20.200 C 288.940 20.055,288.400 19.771,288.400 19.568 C 288.400 19.366,288.040 19.200,287.600 19.200 C 287.160 19.200,286.800 19.062,286.800 18.894 C 286.800 18.523,283.831 17.200,282.997 17.200 C 282.669 17.200,282.400 17.020,282.400 16.800 C 282.400 16.580,282.040 16.400,281.600 16.400 C 281.160 16.400,280.800 16.208,280.800 15.973 C 280.800 15.720,280.454 15.656,279.950 15.816 C 279.378 15.997,279.189 15.941,279.374 15.643 C 279.540 15.374,279.324 15.200,278.824 15.200 C 278.371 15.200,278.000 15.020,278.000 14.800 C 278.000 14.580,277.550 14.400,277.000 14.400 C 276.450 14.400,276.000 14.222,276.000 14.005 C 276.000 13.787,275.280 13.494,274.400 13.354 C 273.520 13.213,272.800 12.941,272.800 12.749 C 272.800 12.557,272.350 12.400,271.800 12.400 C 271.250 12.400,270.800 12.222,270.800 12.005 C 270.800 11.787,270.080 11.494,269.200 11.354 C 268.320 11.213,267.600 10.941,267.600 10.749 C 267.600 10.557,267.186 10.400,266.680 10.400 C 266.174 10.400,265.589 10.235,265.380 10.034 C 265.171 9.832,264.283 9.556,263.407 9.421 C 262.532 9.286,261.641 9.001,261.427 8.787 C 261.214 8.574,260.626 8.400,260.120 8.400 C 259.614 8.400,259.200 8.241,259.200 8.046 C 259.200 7.851,258.210 7.568,257.000 7.417 C 255.790 7.266,254.800 6.975,254.800 6.771 C 254.800 6.567,254.069 6.400,253.176 6.400 C 252.283 6.400,251.651 6.241,251.772 6.046 C 251.892 5.851,250.822 5.567,249.395 5.414 C 247.968 5.261,246.800 4.971,246.800 4.768 C 246.800 4.566,246.170 4.400,245.400 4.400 C 244.630 4.400,244.000 4.236,244.000 4.036 C 244.000 3.836,242.470 3.544,240.600 3.389 C 238.730 3.233,237.200 2.947,237.200 2.753 C 237.200 2.559,236.315 2.400,235.233 2.400 C 234.152 2.400,233.207 2.231,233.133 2.025 C 233.060 1.819,230.975 1.524,228.500 1.368 C 226.025 1.213,224.000 0.943,224.000 0.768 C 224.000 0.593,223.685 0.433,223.300 0.412 C 219.686 0.219,182.948 -0.025,182.784 0.144 M191.916 108.519 C 192.178 109.244,192.510 110.689,192.652 111.730 C 192.795 112.770,193.067 113.718,193.256 113.835 C 193.445 113.952,193.600 114.566,193.600 115.200 C 193.600 115.834,193.767 116.456,193.972 116.583 C 194.177 116.709,194.467 117.800,194.618 119.006 C 194.769 120.213,195.051 121.200,195.246 121.200 C 195.441 121.200,195.600 121.819,195.600 122.576 C 195.600 123.333,195.767 124.056,195.972 124.183 C 196.177 124.309,196.468 125.402,196.619 126.612 C 196.770 127.821,197.052 128.909,197.247 129.029 C 197.441 129.149,197.600 129.766,197.600 130.400 C 197.600 131.034,197.767 131.656,197.972 131.783 C 198.177 131.909,198.468 133.002,198.619 134.212 C 198.770 135.421,199.052 136.509,199.247 136.629 C 199.441 136.749,199.600 137.341,199.600 137.944 C 199.600 138.547,199.765 139.211,199.967 139.420 C 200.169 139.629,200.459 140.655,200.613 141.700 L 200.891 143.600 188.246 143.600 L 175.602 143.600 175.501 221.500 L 175.400 299.400 155.700 299.504 L 136.000 299.608 136.000 221.604 L 136.000 143.600 123.387 143.600 C 109.731 143.600,109.709 143.596,110.702 141.473 C 110.927 140.993,111.443 139.115,111.849 137.300 C 112.255 135.485,112.725 134.000,112.894 134.000 C 113.062 134.000,113.200 133.370,113.200 132.600 C 113.200 131.830,113.359 131.200,113.554 131.200 C 113.749 131.200,114.031 130.213,114.182 129.006 C 114.333 127.800,114.623 126.709,114.828 126.583 C 115.033 126.456,115.200 125.823,115.200 125.176 C 115.200 124.529,115.359 124.000,115.554 124.000 C 115.749 124.000,116.031 123.013,116.182 121.806 C 116.333 120.600,116.623 119.509,116.828 119.383 C 117.033 119.256,117.200 118.623,117.200 117.976 C 117.200 117.329,117.359 116.800,117.554 116.800 C 117.749 116.800,118.031 115.813,118.182 114.606 C 118.333 113.400,118.623 112.309,118.828 112.183 C 119.033 112.056,119.200 111.434,119.200 110.800 C 119.200 110.166,119.380 109.536,119.600 109.400 C 119.820 109.264,120.000 108.713,120.000 108.176 L 120.000 107.200 155.720 107.200 L 191.439 107.200 191.916 108.519 M286.238 109.400 C 286.528 110.500,286.773 112.039,286.782 112.820 C 286.792 113.601,286.963 114.411,287.161 114.620 C 287.360 114.829,287.612 115.810,287.723 116.800 C 287.833 117.790,288.220 120.220,288.584 122.200 C 288.948 124.180,289.407 126.790,289.604 128.000 C 289.802 129.210,290.147 130.920,290.372 131.800 C 290.597 132.680,290.785 134.064,290.790 134.876 C 290.796 135.688,290.980 136.464,291.200 136.600 C 291.420 136.736,291.600 137.545,291.600 138.398 C 291.600 139.250,291.785 140.433,292.010 141.027 C 293.044 143.746,294.217 143.600,271.373 143.600 L 250.800 143.600 250.800 165.995 L 250.800 188.391 266.618 188.495 L 282.436 188.600 282.409 204.490 C 282.395 213.229,282.277 220.654,282.149 220.990 C 281.944 221.522,279.934 221.600,266.357 221.600 L 250.800 221.600 250.800 259.967 C 250.800 281.069,250.691 298.619,250.557 298.967 C 250.140 300.053,211.797 299.916,211.214 298.826 C 210.748 297.956,210.604 107.929,211.069 107.465 C 211.217 107.317,228.072 107.242,248.524 107.298 L 285.712 107.400 286.238 109.400 " stroke="none" fill="#1b1b1b" fill-rule="evenodd"></path><path id="path2" d="M120.000 107.500 C 120.000 107.665,136.110 107.800,155.800 107.800 C 175.490 107.800,191.600 107.665,191.600 107.500 C 191.600 107.335,175.490 107.200,155.800 107.200 C 136.110 107.200,120.000 107.335,120.000 107.500 M211.069 107.465 C 210.921 107.612,210.844 150.678,210.899 203.167 L 210.998 298.600 211.199 203.200 L 211.400 107.800 248.156 107.698 C 277.175 107.617,285.041 107.701,285.522 108.098 C 286.022 108.511,286.095 108.494,285.932 108.000 C 285.722 107.367,211.696 106.838,211.069 107.465 M191.862 109.600 C 191.998 110.370,192.262 111.270,192.448 111.600 C 192.652 111.961,192.688 111.643,192.538 110.800 C 192.402 110.030,192.138 109.130,191.952 108.800 C 191.748 108.439,191.712 108.757,191.862 109.600 M286.034 110.400 C 286.022 110.950,286.187 111.670,286.400 112.000 C 286.909 112.787,286.909 111.384,286.400 110.200 C 286.085 109.467,286.054 109.484,286.034 110.400 M118.643 112.443 C 118.256 113.666,117.995 115.200,118.174 115.200 C 118.445 115.200,119.213 112.280,118.999 112.065 C 118.900 111.966,118.740 112.136,118.643 112.443 M286.840 114.876 C 286.959 116.446,287.520 117.416,287.560 116.124 C 287.582 115.422,287.420 114.736,287.200 114.600 C 286.980 114.464,286.818 114.588,286.840 114.876 M193.826 117.400 C 194.257 119.235,194.827 120.032,194.540 118.400 C 194.405 117.630,194.125 116.820,193.919 116.600 C 193.683 116.349,193.648 116.647,193.826 117.400 M287.877 120.200 C 288.004 121.300,288.264 122.470,288.453 122.800 C 288.660 123.159,288.695 122.676,288.540 121.600 C 288.167 118.998,287.598 117.799,287.877 120.200 M116.643 119.643 C 116.256 120.866,115.995 122.400,116.174 122.400 C 116.445 122.400,117.213 119.480,116.999 119.265 C 116.900 119.166,116.740 119.336,116.643 119.643 M194.806 121.500 C 194.824 122.377,195.588 122.959,195.594 122.100 C 195.597 121.605,195.420 121.200,195.200 121.200 C 194.980 121.200,194.803 121.335,194.806 121.500 M195.826 125.000 C 196.257 126.835,196.827 127.632,196.540 126.000 C 196.405 125.230,196.125 124.420,195.919 124.200 C 195.683 123.949,195.648 124.247,195.826 125.000 M288.846 125.800 C 288.915 127.431,289.515 128.787,289.554 127.400 C 289.573 126.740,289.413 125.930,289.200 125.600 C 288.881 125.106,288.818 125.141,288.846 125.800 M114.667 126.667 C 114.520 126.813,114.411 127.308,114.425 127.767 C 114.449 128.533,114.482 128.523,114.834 127.642 C 115.226 126.663,115.144 126.189,114.667 126.667 M290.075 131.800 C 290.065 132.460,290.211 133.360,290.400 133.800 L 290.744 134.600 290.725 133.800 C 290.714 133.360,290.568 132.460,290.400 131.800 L 290.095 130.600 290.075 131.800 M197.826 132.600 C 198.257 134.435,198.827 135.232,198.540 133.600 C 198.405 132.830,198.125 132.020,197.919 131.800 C 197.683 131.549,197.648 131.847,197.826 132.600 M290.828 136.876 C 290.896 138.144,291.542 139.054,291.572 137.924 C 291.587 137.332,291.420 136.736,291.200 136.600 C 290.980 136.464,290.813 136.588,290.828 136.876 M111.646 137.667 C 111.621 138.034,111.496 138.664,111.370 139.067 C 111.152 139.762,111.163 139.763,111.597 139.087 C 111.848 138.696,111.973 138.066,111.873 137.687 C 111.711 137.068,111.688 137.066,111.646 137.667 M199.628 139.476 C 199.718 140.515,200.344 141.396,200.372 140.524 C 200.387 140.042,200.220 139.536,200.000 139.400 C 199.780 139.264,199.613 139.298,199.628 139.476 M291.718 141.600 L 291.800 143.000 271.200 143.200 L 250.600 143.400 250.595 165.800 L 250.590 188.200 250.698 165.900 L 250.807 143.600 271.376 143.600 C 294.098 143.600,293.072 143.721,292.026 141.158 C 291.672 140.290,291.643 140.332,291.718 141.600 M110.545 141.800 C 109.861 143.582,110.037 143.605,123.487 143.506 L 136.200 143.412 123.454 143.300 L 110.709 143.189 110.899 142.194 C 111.109 141.094,110.903 140.865,110.545 141.800 M200.400 142.400 C 200.400 143.183,200.133 143.200,187.800 143.200 L 175.200 143.200 175.200 221.207 L 175.200 299.215 155.600 299.107 C 144.820 299.048,136.000 299.137,136.000 299.304 C 136.000 299.471,144.865 299.561,155.700 299.504 L 175.400 299.400 175.501 221.500 L 175.602 143.600 188.201 143.600 L 200.800 143.600 200.800 142.600 C 200.800 142.050,200.710 141.600,200.600 141.600 C 200.490 141.600,200.400 141.960,200.400 142.400 M281.905 204.638 L 281.800 221.000 266.200 221.200 L 250.600 221.400 250.597 260.100 L 250.594 298.800 250.699 260.200 L 250.804 221.600 266.359 221.600 C 279.934 221.600,281.944 221.522,282.149 220.990 C 282.442 220.225,282.513 188.780,282.222 188.489 C 282.105 188.372,281.962 195.639,281.905 204.638 M211.544 299.304 C 211.711 299.471,220.567 299.561,231.224 299.504 L 250.600 299.400 230.920 299.200 C 220.096 299.090,211.376 299.137,211.544 299.304 " stroke="none" fill="#2d2524" fill-rule="evenodd"></path><path id="path3" d="M138.530 107.900 C 148.172 107.960,163.832 107.960,173.330 107.900 C 182.829 107.840,174.940 107.791,155.800 107.791 C 136.660 107.791,128.889 107.840,138.530 107.900 M285.047 108.386 C 285.216 108.709,285.479 109.609,285.631 110.386 C 285.907 111.792,285.908 111.793,285.954 110.576 C 285.979 109.904,285.717 109.004,285.370 108.576 C 285.024 108.149,284.879 108.064,285.047 108.386 M211.397 203.200 C 211.397 255.450,211.443 276.825,211.500 250.700 C 211.557 224.575,211.557 181.825,211.500 155.700 C 211.443 129.575,211.397 150.950,211.397 203.200 M119.246 112.067 C 119.221 112.434,119.096 113.064,118.970 113.467 C 118.752 114.162,118.763 114.163,119.197 113.487 C 119.448 113.096,119.573 112.466,119.473 112.087 C 119.311 111.468,119.288 111.466,119.246 112.067 M192.244 112.600 C 192.573 114.071,192.802 114.390,192.794 113.367 C 192.791 112.945,192.605 112.330,192.382 112.000 C 192.085 111.562,192.048 111.724,192.244 112.600 M286.428 114.633 C 286.444 115.495,286.609 116.560,286.796 117.000 C 287.008 117.498,287.051 116.969,286.912 115.600 C 286.644 112.965,286.389 112.457,286.428 114.633 M118.249 115.415 C 118.112 115.773,118.015 116.366,118.034 116.733 C 118.053 117.100,118.227 116.869,118.421 116.220 C 118.798 114.958,118.665 114.333,118.249 115.415 M193.268 116.200 C 193.262 116.640,193.411 117.360,193.600 117.800 C 194.038 118.819,194.038 117.768,193.600 116.400 C 193.343 115.596,193.277 115.557,193.268 116.200 M194.262 120.400 C 194.398 121.170,194.662 122.070,194.848 122.400 C 195.052 122.761,195.088 122.443,194.938 121.600 C 194.802 120.830,194.538 119.930,194.352 119.600 C 194.148 119.239,194.112 119.557,194.262 120.400 M287.462 120.600 C 287.596 121.480,287.772 122.275,287.853 122.367 C 288.156 122.710,287.929 120.568,287.581 119.800 C 287.329 119.242,287.293 119.485,287.462 120.600 M195.228 124.276 C 195.213 124.758,195.380 125.264,195.600 125.400 C 196.073 125.692,196.073 125.301,195.600 124.200 C 195.269 123.429,195.255 123.431,195.228 124.276 M288.428 125.633 C 288.444 126.385,288.612 127.360,288.803 127.800 C 289.026 128.315,289.067 127.887,288.918 126.600 C 288.644 124.222,288.389 123.719,288.428 125.633 M115.464 125.500 C 114.969 127.325,114.808 128.568,115.139 128.000 C 115.534 127.325,116.068 124.800,115.817 124.800 C 115.727 124.800,115.569 125.115,115.464 125.500 M114.229 129.829 C 114.081 130.415,114.038 130.972,114.132 131.066 C 114.227 131.160,114.424 130.758,114.571 130.171 C 114.719 129.585,114.762 129.028,114.668 128.934 C 114.573 128.840,114.376 129.242,114.229 129.829 M289.256 130.600 C 289.256 131.040,289.411 131.760,289.600 132.200 L 289.944 133.000 289.944 132.200 C 289.944 131.760,289.789 131.040,289.600 130.600 L 289.256 129.800 289.256 130.600 M113.246 133.667 C 113.221 134.034,113.096 134.664,112.970 135.067 C 112.752 135.762,112.763 135.763,113.197 135.087 C 113.448 134.696,113.573 134.066,113.473 133.687 C 113.311 133.068,113.288 133.066,113.246 133.667 M290.501 136.600 C 290.505 137.480,290.587 137.793,290.683 137.295 C 290.779 136.798,290.775 136.078,290.675 135.695 C 290.575 135.313,290.496 135.720,290.501 136.600 M199.044 138.600 C 199.373 140.071,199.602 140.390,199.594 139.367 C 199.591 138.945,199.405 138.330,199.182 138.000 C 198.885 137.562,198.848 137.724,199.044 138.600 M111.083 141.498 C 110.754 143.222,110.593 143.200,123.623 143.200 L 135.998 143.200 136.100 220.900 L 136.202 298.600 136.301 220.700 L 136.400 142.800 123.869 142.800 L 111.339 142.800 111.515 141.600 C 111.735 140.097,111.368 140.010,111.083 141.498 M291.200 141.600 C 291.200 142.389,290.933 142.400,271.080 142.400 C 255.964 142.400,250.841 142.519,250.480 142.880 C 250.116 143.244,250.023 148.768,250.095 165.780 L 250.190 188.200 250.395 165.600 L 250.600 143.000 271.100 142.896 L 291.600 142.793 291.600 141.796 C 291.600 141.248,291.510 140.800,291.400 140.800 C 291.290 140.800,291.200 141.160,291.200 141.600 M200.000 142.328 C 200.000 142.664,196.608 142.817,187.500 142.894 L 175.000 143.000 174.800 220.800 L 174.600 298.600 155.400 298.808 L 136.200 299.016 155.600 299.008 L 175.000 299.000 175.101 221.100 L 175.202 143.200 187.577 143.200 C 199.241 143.200,201.167 143.034,200.240 142.107 C 200.108 141.975,200.000 142.074,200.000 142.328 M281.600 204.600 L 281.600 220.400 266.280 220.400 C 254.898 220.400,250.837 220.523,250.480 220.880 C 250.113 221.247,250.000 230.452,250.000 259.876 L 250.000 298.392 230.700 298.500 L 211.400 298.608 230.898 298.704 L 250.396 298.800 250.498 259.900 L 250.600 221.000 266.300 220.895 L 282.000 220.791 282.000 204.795 C 282.000 195.998,281.910 188.800,281.800 188.800 C 281.690 188.800,281.600 195.910,281.600 204.600 " stroke="none" fill="#6e6c32" fill-rule="evenodd"></path><path id="path4" d="M211.462 107.900 C 211.360 108.065,227.864 108.153,248.138 108.095 C 282.472 107.997,285.034 108.037,285.500 108.671 C 285.775 109.046,286.000 109.175,286.000 108.956 C 286.000 107.620,285.444 107.600,248.344 107.600 C 228.161 107.600,211.564 107.735,211.462 107.900 M291.600 142.133 C 291.600 142.747,289.975 142.800,271.224 142.800 C 260.017 142.800,250.764 142.935,250.662 143.100 C 250.560 143.265,259.736 143.352,271.053 143.293 C 292.076 143.183,293.229 143.096,291.849 141.716 C 291.712 141.579,291.600 141.767,291.600 142.133 M258.500 188.700 C 262.845 188.764,269.955 188.764,274.300 188.700 C 278.645 188.635,275.090 188.582,266.400 188.582 C 257.710 188.582,254.155 188.635,258.500 188.700 M250.661 221.100 C 250.492 221.373,262.743 221.366,276.400 221.086 C 279.370 221.025,274.836 220.936,266.324 220.888 C 257.812 220.839,250.764 220.935,250.661 221.100 M211.303 298.400 C 211.445 298.923,213.983 299.001,231.033 299.006 L 250.600 299.012 231.221 298.902 C 216.358 298.818,211.760 298.677,211.491 298.296 C 211.233 297.932,211.183 297.960,211.303 298.400 " stroke="none" fill="#6c5e38" fill-rule="evenodd"></path></g></svg>