<svg id="svg" version="1.1" xmlns="http://www.w3.org/2000/svg" xmlns:xlink="http://www.w3.org/1999/xlink" width="400" height="400" viewBox="0, 0, 400,400"><g id="svgg"><path id="path0" d="M0.000 200.000 L 0.000 400.000 200.000 400.000 L 400.000 400.000 400.000 200.000 L 400.000 0.000 200.000 0.000 L 0.000 0.000 0.000 200.000 M235.669 107.862 C 236.071 108.226,236.400 109.000,236.400 109.582 C 236.400 110.164,236.550 110.811,236.733 111.020 C 236.916 111.229,237.389 112.840,237.784 114.600 C 238.179 116.360,238.639 118.160,238.806 118.600 C 239.185 119.602,239.889 122.107,240.380 124.200 C 240.586 125.080,240.956 126.520,241.203 127.400 C 241.449 128.280,241.898 129.990,242.200 131.200 C 242.502 132.410,242.956 134.120,243.208 135.000 C 243.461 135.880,243.890 137.590,244.161 138.800 C 244.432 140.010,244.794 141.309,244.965 141.687 C 245.650 143.201,245.300 143.245,232.793 143.223 C 226.087 143.210,220.375 143.345,220.101 143.523 C 219.706 143.779,219.581 160.014,219.501 221.623 L 219.400 299.400 200.000 299.400 L 180.600 299.400 180.499 221.623 C 180.419 160.016,180.294 143.778,179.899 143.520 C 179.625 143.341,173.910 143.211,167.200 143.232 C 154.404 143.271,153.501 143.139,155.162 141.478 C 155.403 141.237,155.600 140.647,155.600 140.166 C 155.600 139.206,156.661 135.407,157.237 134.305 C 157.437 133.923,157.600 133.269,157.600 132.851 C 157.600 131.983,158.694 128.145,159.237 127.105 C 159.437 126.723,159.600 126.069,159.600 125.651 C 159.600 124.907,160.571 121.382,161.211 119.800 C 161.389 119.360,161.838 117.740,162.208 116.200 C 162.578 114.660,163.023 113.040,163.197 112.600 C 163.370 112.160,163.730 110.990,163.997 110.000 C 164.264 109.010,164.666 107.975,164.890 107.700 C 165.602 106.828,234.700 106.986,235.669 107.862 " stroke="none" fill="#1c1c1c" fill-rule="evenodd"></path><path id="path1" d="M165.016 108.900 C 164.928 109.175,164.499 110.660,164.062 112.200 C 163.626 113.740,162.873 116.350,162.391 118.000 C 161.908 119.650,161.251 121.990,160.931 123.200 C 160.610 124.410,160.180 125.985,159.974 126.700 C 158.983 130.145,158.720 131.132,158.351 132.800 C 158.132 133.790,157.809 134.960,157.632 135.400 C 156.990 136.998,156.426 139.036,156.166 140.694 L 155.900 142.388 168.250 142.494 L 180.600 142.600 180.701 220.500 L 180.802 298.400 200.000 298.400 L 219.198 298.400 219.299 220.500 L 219.400 142.600 231.700 142.494 C 243.076 142.396,243.999 142.336,243.983 141.694 C 243.962 140.885,243.444 138.477,242.801 136.200 C 242.552 135.320,242.102 133.610,241.800 132.400 C 241.498 131.190,241.048 129.480,240.800 128.600 C 240.552 127.720,240.102 126.010,239.800 124.800 C 239.498 123.590,239.068 121.970,238.843 121.200 C 237.946 118.120,236.971 114.396,235.990 110.300 L 235.535 108.400 200.355 108.400 C 172.562 108.400,165.141 108.505,165.016 108.900 " stroke="none" fill="#fbe304" fill-rule="evenodd"></path><path id="path2" d="M164.880 108.480 C 164.616 108.744,164.418 109.329,164.440 109.780 C 164.473 110.467,164.525 110.438,164.758 109.600 L 165.036 108.600 200.418 108.397 L 235.800 108.193 200.580 108.097 C 173.611 108.023,165.248 108.112,164.880 108.480 M236.006 110.633 C 236.009 111.055,236.195 111.670,236.418 112.000 C 236.715 112.438,236.752 112.276,236.556 111.400 C 236.227 109.929,235.998 109.610,236.006 110.633 M162.673 115.753 C 162.523 116.145,162.411 116.766,162.425 117.133 C 162.442 117.575,162.581 117.474,162.837 116.834 C 163.049 116.303,163.161 115.682,163.085 115.454 C 163.009 115.227,162.824 115.361,162.673 115.753 M237.848 117.800 C 237.991 118.460,238.266 119.270,238.459 119.600 C 238.684 119.984,238.718 119.768,238.552 119.000 C 238.409 118.340,238.134 117.530,237.941 117.200 C 237.716 116.816,237.682 117.032,237.848 117.800 M160.649 122.615 C 160.512 122.973,160.418 123.656,160.441 124.133 C 160.467 124.681,160.603 124.486,160.810 123.603 C 161.160 122.116,161.065 121.533,160.649 122.615 M240.006 125.833 C 240.009 126.255,240.195 126.870,240.418 127.200 C 240.715 127.638,240.752 127.476,240.556 126.600 C 240.227 125.129,239.998 124.810,240.006 125.833 M158.600 130.000 C 158.450 130.473,158.417 130.950,158.527 131.060 C 158.637 131.170,158.850 130.873,159.000 130.400 C 159.150 129.927,159.183 129.450,159.073 129.340 C 158.963 129.230,158.750 129.527,158.600 130.000 M242.006 133.433 C 242.009 133.855,242.195 134.470,242.418 134.800 C 242.715 135.238,242.752 135.076,242.556 134.200 C 242.227 132.729,241.998 132.410,242.006 133.433 M157.646 133.867 C 157.621 134.124,157.484 134.664,157.341 135.067 C 157.140 135.636,157.194 135.697,157.579 135.342 C 157.852 135.091,157.989 134.551,157.884 134.142 C 157.779 133.734,157.672 133.610,157.646 133.867 M243.832 140.709 L 244.100 142.388 231.756 142.494 C 220.281 142.593,219.406 142.650,219.346 143.308 C 219.301 143.803,219.338 143.833,219.470 143.408 C 219.634 142.881,221.328 142.800,232.187 142.800 L 244.715 142.800 244.336 141.111 C 243.831 138.865,243.494 138.596,243.832 140.709 M155.774 140.700 C 155.642 141.305,155.464 142.025,155.379 142.300 C 155.258 142.693,157.920 142.800,167.779 142.800 C 175.954 142.800,180.404 142.943,180.537 143.210 C 180.649 143.436,180.694 143.391,180.637 143.110 C 180.556 142.713,177.811 142.577,168.215 142.494 L 155.897 142.388 156.123 140.994 C 156.391 139.344,156.121 139.116,155.774 140.700 M219.396 221.200 C 219.396 263.550,219.443 280.875,219.500 259.700 C 219.557 238.525,219.557 203.875,219.500 182.700 C 219.443 161.525,219.396 178.850,219.396 221.200 M190.300 298.700 C 195.635 298.763,204.365 298.763,209.700 298.700 C 215.035 298.637,210.670 298.585,200.000 298.585 C 189.330 298.585,184.965 298.637,190.300 298.700 " stroke="none" fill="#ac9c08" fill-rule="evenodd"></path><path id="path3" d="M244.550 142.100 C 244.761 142.755,243.966 142.806,232.087 142.894 L 219.400 142.988 231.974 143.100 C 244.519 143.211,245.541 143.123,244.746 141.997 C 244.394 141.498,244.361 141.515,244.550 142.100 M161.525 143.099 C 165.114 143.166,170.874 143.166,174.325 143.099 C 177.776 143.033,174.840 142.978,167.800 142.978 C 160.760 142.979,157.936 143.033,161.525 143.099 M180.598 221.200 L 180.600 299.000 199.967 299.000 C 215.342 299.000,219.355 298.895,219.437 298.490 C 219.494 298.210,219.449 298.165,219.337 298.390 C 219.202 298.661,212.658 298.800,199.968 298.800 L 180.802 298.800 180.699 221.100 L 180.597 143.400 180.598 221.200 " stroke="none" fill="#746c0c" fill-rule="evenodd"></path><path id="path4" d="M164.883 107.700 C 164.551 108.099,171.597 108.179,199.934 108.095 C 232.955 107.997,235.434 108.037,235.900 108.671 C 236.175 109.046,236.400 109.166,236.400 108.938 C 236.400 108.710,236.071 108.226,235.669 107.862 C 234.700 106.986,165.607 106.828,164.883 107.700 M237.606 115.033 C 237.609 115.455,237.795 116.070,238.018 116.400 C 238.315 116.838,238.352 116.676,238.156 115.800 C 237.827 114.329,237.598 114.010,237.606 115.033 M160.046 123.267 C 160.021 123.634,159.896 124.264,159.770 124.667 C 159.552 125.362,159.563 125.363,159.997 124.687 C 160.248 124.296,160.373 123.666,160.273 123.287 C 160.111 122.668,160.088 122.666,160.046 123.267 M158.046 130.467 C 158.021 130.834,157.896 131.464,157.770 131.867 C 157.552 132.562,157.563 132.563,157.997 131.887 C 158.248 131.496,158.373 130.866,158.273 130.487 C 158.111 129.868,158.088 129.866,158.046 130.467 M243.444 137.000 C 243.773 138.471,244.002 138.790,243.994 137.767 C 243.991 137.345,243.805 136.730,243.582 136.400 C 243.285 135.962,243.248 136.124,243.444 137.000 M156.046 137.667 C 156.021 138.034,155.896 138.664,155.770 139.067 C 155.552 139.762,155.563 139.763,155.997 139.087 C 156.248 138.696,156.373 138.066,156.273 137.687 C 156.111 137.068,156.088 137.066,156.046 137.667 M154.945 141.800 C 154.637 142.602,155.051 143.601,155.687 143.594 C 156.081 143.589,156.074 143.508,155.657 143.244 C 155.317 143.028,155.215 142.583,155.384 142.050 C 155.688 141.092,155.301 140.872,154.945 141.800 M180.662 299.300 C 180.764 299.465,189.466 299.600,200.000 299.600 C 210.534 299.600,219.236 299.465,219.338 299.300 C 219.440 299.135,210.738 299.000,200.000 299.000 C 189.262 299.000,180.560 299.135,180.662 299.300 " stroke="none" fill="#444434" fill-rule="evenodd"></path></g></svg>