<svg id="svg" version="1.1" xmlns="http://www.w3.org/2000/svg" xmlns:xlink="http://www.w3.org/1999/xlink" width="400" height="400" viewBox="0, 0, 400,400"><g id="svgg"><path id="path0" d="M267.822 76.900 C 267.737 77.175,267.547 78.120,267.399 79.000 C 267.251 79.880,266.961 81.410,266.755 82.400 C 266.548 83.390,266.271 85.051,266.139 86.092 L 265.900 87.983 274.050 88.092 L 282.200 88.200 282.311 93.454 L 282.423 98.708 279.511 100.848 C 277.910 102.025,276.395 103.171,276.145 103.394 C 275.895 103.617,273.895 105.150,271.701 106.800 C 265.377 111.555,265.822 110.115,265.680 126.300 L 265.561 140.000 278.356 140.000 L 291.151 140.000 291.412 138.100 C 291.556 137.055,291.825 135.660,292.010 135.000 C 292.469 133.369,293.200 129.667,293.200 128.978 C 293.200 128.521,291.814 128.398,285.700 128.309 L 278.200 128.200 278.200 122.600 L 278.200 117.000 284.495 112.000 C 287.957 109.250,291.256 106.666,291.827 106.257 C 294.313 104.477,294.397 104.023,294.399 92.361 C 294.401 76.220,294.582 76.400,278.361 76.400 C 270.401 76.400,267.939 76.517,267.822 76.900 M163.282 104.478 C 163.017 104.743,162.800 105.242,162.800 105.586 C 162.800 105.930,162.440 107.196,162.000 108.400 C 161.560 109.604,161.200 110.902,161.200 111.286 C 161.200 111.669,160.775 113.292,160.256 114.892 C 159.736 116.491,159.002 119.060,158.623 120.600 C 158.245 122.140,157.784 123.760,157.600 124.200 C 157.416 124.640,156.962 126.260,156.592 127.800 C 156.222 129.340,155.777 130.960,155.605 131.400 C 154.412 134.442,153.570 138.815,154.137 139.025 C 154.391 139.120,160.090 139.243,166.800 139.299 L 179.000 139.400 179.101 218.300 L 179.202 297.200 198.600 297.200 L 217.998 297.200 218.099 218.300 L 218.200 139.400 230.900 139.294 C 241.765 139.204,243.600 139.104,243.600 138.600 C 243.600 137.877,242.806 134.491,242.381 133.400 C 242.210 132.960,241.761 131.250,241.385 129.600 C 241.008 127.950,240.554 126.240,240.376 125.800 C 240.197 125.360,239.744 123.650,239.369 122.000 C 238.994 120.350,238.553 118.640,238.389 118.200 C 238.033 117.244,237.490 115.307,236.370 111.000 C 235.912 109.240,235.327 106.990,235.069 106.000 L 234.600 104.200 199.182 104.098 C 171.966 104.019,163.653 104.107,163.282 104.478 " stroke="none" fill="#f9dd07" fill-rule="evenodd"></path><path id="path1" d="M0.000 200.000 L 0.000 400.000 200.000 400.000 L 400.000 400.000 400.000 200.000 L 400.000 0.000 200.000 0.000 L 0.000 0.000 0.000 200.000 M290.905 76.500 C 294.833 78.695,295.000 79.359,295.000 92.767 C 295.000 101.505,294.884 104.172,294.500 104.300 C 294.225 104.392,293.998 104.677,293.996 104.933 C 293.994 105.190,293.499 105.789,292.896 106.265 C 290.821 107.903,282.998 114.036,281.606 115.117 C 278.409 117.600,278.400 117.622,278.400 122.858 L 278.400 127.600 286.013 127.600 C 294.694 127.600,294.318 127.428,293.579 131.060 C 293.317 132.347,293.023 134.030,292.926 134.800 C 292.830 135.570,292.588 136.560,292.389 137.000 C 292.191 137.440,291.977 138.340,291.914 139.000 L 291.800 140.200 278.200 140.200 L 264.600 140.200 264.482 128.600 C 264.412 121.678,264.525 116.435,264.764 115.600 C 264.984 114.830,265.264 113.562,265.385 112.782 C 265.627 111.223,267.590 108.856,270.200 106.976 C 271.080 106.343,272.149 105.504,272.575 105.112 C 273.002 104.720,273.484 104.400,273.647 104.400 C 273.810 104.400,274.181 104.169,274.471 103.887 C 274.762 103.605,276.575 102.150,278.500 100.654 L 282.000 97.934 282.000 93.367 L 282.000 88.800 273.600 88.800 L 265.200 88.800 265.198 87.700 C 265.196 86.457,266.274 80.438,266.832 78.572 C 267.035 77.896,267.200 77.041,267.200 76.672 C 267.200 75.794,289.356 75.634,290.905 76.500 M235.344 105.000 C 235.543 105.660,235.838 106.560,235.997 107.000 C 236.157 107.440,236.594 109.150,236.969 110.800 C 237.344 112.450,237.803 114.160,237.988 114.600 C 238.591 116.033,239.600 120.227,239.600 121.303 C 239.600 121.880,239.780 122.464,240.000 122.600 C 240.220 122.736,240.400 123.276,240.400 123.800 C 240.400 124.324,240.555 124.848,240.744 124.965 C 240.933 125.082,241.205 126.030,241.348 127.070 C 241.583 128.790,242.006 130.399,242.799 132.600 C 243.493 134.525,244.438 139.215,244.206 139.590 C 244.042 139.856,239.541 140.000,231.376 140.000 L 218.800 140.000 218.800 218.367 C 218.800 261.469,218.691 297.019,218.557 297.367 C 218.340 297.932,216.204 298.000,198.557 298.000 L 178.800 298.000 178.800 219.000 L 178.800 140.000 166.024 140.000 C 152.661 140.000,152.333 139.956,153.092 138.262 C 153.516 137.316,155.137 131.308,155.483 129.400 C 155.603 128.740,155.841 128.020,156.013 127.800 C 156.185 127.580,156.453 126.543,156.609 125.495 C 156.765 124.447,157.052 123.492,157.246 123.371 C 157.441 123.251,157.600 122.634,157.600 122.000 C 157.600 121.366,157.780 120.736,158.000 120.600 C 158.220 120.464,158.400 119.945,158.400 119.448 C 158.400 118.623,159.188 115.805,159.979 113.800 C 160.272 113.057,161.771 107.482,162.291 105.200 C 162.661 103.578,161.967 103.606,199.190 103.705 L 234.981 103.800 235.344 105.000 " stroke="none" fill="#1b1b1b" fill-rule="evenodd"></path><path id="path2" d="M291.200 77.325 C 291.200 77.394,291.785 77.979,292.500 78.625 L 293.800 79.800 292.625 78.500 C 291.530 77.288,291.200 77.016,291.200 77.325 M294.573 92.200 C 294.573 97.700,294.630 100.005,294.699 97.323 C 294.768 94.641,294.768 90.141,294.699 87.323 C 294.630 84.505,294.574 86.700,294.573 92.200 M265.728 87.400 C 265.806 88.164,266.178 88.209,274.067 88.400 C 278.609 88.510,282.241 88.465,282.139 88.300 C 282.037 88.135,278.377 88.000,274.006 88.000 C 266.782 88.000,266.040 87.936,265.852 87.300 C 265.692 86.755,265.664 86.778,265.728 87.400 M162.446 105.667 C 162.421 106.034,162.296 106.664,162.170 107.067 C 161.952 107.762,161.963 107.763,162.397 107.087 C 162.648 106.696,162.773 106.066,162.673 105.687 C 162.511 105.068,162.488 105.066,162.446 105.667 M235.206 106.633 C 235.209 107.055,235.395 107.670,235.618 108.000 C 235.915 108.438,235.952 108.276,235.756 107.400 C 235.427 105.929,235.198 105.610,235.206 106.633 M236.056 109.600 C 236.056 109.930,236.211 110.560,236.400 111.000 C 236.617 111.504,236.744 111.578,236.744 111.200 C 236.744 110.870,236.589 110.240,236.400 109.800 C 236.183 109.296,236.056 109.222,236.056 109.600 M160.600 112.400 C 160.448 113.091,160.407 113.741,160.509 113.842 C 160.611 113.944,160.809 113.453,160.950 112.750 C 161.283 111.083,160.960 110.760,160.600 112.400 M237.206 114.233 C 237.209 114.655,237.395 115.270,237.618 115.600 C 237.915 116.038,237.952 115.876,237.756 115.000 C 237.427 113.529,237.198 113.210,237.206 114.233 M265.379 127.200 C 265.379 134.350,265.433 137.275,265.499 133.700 C 265.566 130.125,265.566 124.275,265.499 120.700 C 265.433 117.125,265.379 120.050,265.379 127.200 M158.649 119.015 C 158.512 119.373,158.415 119.966,158.434 120.333 C 158.453 120.700,158.627 120.469,158.821 119.820 C 159.198 118.558,159.065 117.933,158.649 119.015 M239.044 121.000 C 239.373 122.471,239.602 122.790,239.594 121.767 C 239.591 121.345,239.405 120.730,239.182 120.400 C 238.885 119.962,238.848 120.124,239.044 121.000 M278.348 128.109 C 278.519 128.279,281.975 128.369,286.029 128.308 L 293.400 128.198 285.719 127.999 C 281.495 127.890,278.178 127.939,278.348 128.109 M242.856 135.200 C 242.856 135.530,243.011 136.160,243.200 136.600 C 243.417 137.104,243.544 137.178,243.544 136.800 C 243.544 136.470,243.389 135.840,243.200 135.400 C 242.983 134.896,242.856 134.822,242.856 135.200 M291.849 135.415 C 291.712 135.773,291.615 136.366,291.634 136.733 C 291.653 137.100,291.827 136.869,292.021 136.220 C 292.398 134.958,292.265 134.333,291.849 135.415 M243.600 138.794 C 243.600 139.043,238.908 139.228,230.900 139.294 L 218.200 139.400 218.099 218.300 L 217.998 297.200 198.599 297.200 L 179.200 297.200 179.200 218.387 C 179.200 155.700,179.098 139.538,178.700 139.394 C 177.824 139.078,153.199 138.987,153.200 139.300 C 153.200 139.465,158.960 139.600,166.000 139.600 L 178.800 139.600 178.800 218.600 L 178.800 297.600 198.600 297.600 L 218.400 297.600 218.400 218.600 L 218.400 139.600 231.200 139.600 C 242.311 139.600,244.000 139.521,244.000 139.000 C 244.000 138.670,243.910 138.400,243.800 138.400 C 243.690 138.400,243.600 138.577,243.600 138.794 " stroke="none" fill="#746c0c" fill-rule="evenodd"></path><path id="path3" d="M291.600 76.925 C 291.600 76.994,292.185 77.579,292.900 78.225 L 294.200 79.400 293.025 78.100 C 291.930 76.888,291.600 76.616,291.600 76.925 M266.649 78.615 C 266.512 78.973,266.418 79.656,266.441 80.133 C 266.467 80.681,266.603 80.486,266.810 79.603 C 267.160 78.116,267.065 77.533,266.649 78.615 M294.973 92.200 C 294.973 97.700,295.030 100.005,295.099 97.323 C 295.168 94.641,295.168 90.141,295.099 87.323 C 295.030 84.505,294.974 86.700,294.973 92.200 M265.649 84.200 C 265.616 84.640,265.496 85.450,265.383 86.000 L 265.177 87.000 265.606 86.019 C 265.842 85.479,265.961 84.669,265.872 84.219 C 265.713 83.421,265.707 83.421,265.649 84.200 M269.322 88.699 C 271.699 88.770,275.479 88.769,277.722 88.698 C 279.965 88.627,278.020 88.569,273.400 88.569 C 268.780 88.570,266.945 88.628,269.322 88.699 M198.874 103.900 L 234.747 104.004 235.010 104.832 C 235.155 105.288,235.361 105.572,235.469 105.464 C 235.577 105.357,235.464 104.893,235.218 104.434 L 234.772 103.600 198.886 103.698 L 163.000 103.796 198.874 103.900 M273.100 104.703 C 272.495 105.078,272.000 105.529,272.000 105.705 C 272.000 105.880,272.540 105.625,273.200 105.137 C 274.255 104.357,274.627 103.976,274.300 104.011 C 274.245 104.016,273.705 104.328,273.100 104.703 M264.643 115.833 C 264.217 116.942,264.365 139.931,264.800 140.200 C 265.063 140.363,265.200 136.137,265.200 127.824 C 265.200 115.545,265.152 114.506,264.643 115.833 M238.806 118.633 C 238.809 119.055,238.995 119.670,239.218 120.000 C 239.515 120.438,239.552 120.276,239.356 119.400 C 239.027 117.929,238.798 117.610,238.806 118.633 M285.874 127.895 C 293.451 128.016,293.551 128.028,293.713 128.909 C 293.853 129.669,293.872 129.652,293.839 128.800 L 293.800 127.800 286.000 127.786 L 278.200 127.773 285.874 127.895 M292.446 135.467 C 292.421 135.724,292.284 136.264,292.141 136.667 C 291.940 137.236,291.994 137.297,292.379 136.942 C 292.652 136.691,292.789 136.151,292.684 135.742 C 292.579 135.334,292.472 135.210,292.446 135.467 M152.934 138.627 C 152.441 139.914,153.460 140.011,166.226 139.900 L 179.000 139.788 166.053 139.694 C 153.326 139.602,153.110 139.586,153.316 138.800 C 153.563 137.854,153.280 137.725,152.934 138.627 M231.400 139.592 L 218.600 139.800 218.599 218.400 L 218.597 297.000 218.700 218.500 L 218.802 140.000 231.377 140.000 C 239.330 140.000,244.044 139.853,244.200 139.600 C 244.336 139.380,244.392 139.241,244.324 139.292 C 244.256 139.342,238.440 139.477,231.400 139.592 " stroke="none" fill="#454430" fill-rule="evenodd"></path><path id="path4" d="M267.350 76.587 C 267.226 76.910,267.217 77.405,267.331 77.687 C 267.444 77.969,267.551 77.787,267.568 77.282 L 267.600 76.365 278.963 76.482 C 285.212 76.547,290.117 76.468,289.863 76.306 C 288.883 75.684,267.594 75.950,267.350 76.587 M292.341 78.304 C 293.144 79.131,293.878 79.758,293.973 79.698 C 294.199 79.554,291.528 76.800,291.163 76.800 C 291.009 76.800,291.539 77.477,292.341 78.304 M266.449 81.400 C 266.416 81.840,266.296 82.650,266.183 83.200 L 265.977 84.200 266.406 83.219 C 266.642 82.679,266.761 81.869,266.672 81.419 C 266.513 80.621,266.507 80.621,266.449 81.400 M265.452 86.500 C 265.124 87.725,265.141 88.400,265.500 88.398 C 265.665 88.397,265.832 87.767,265.872 86.998 C 265.954 85.390,265.799 85.206,265.452 86.500 M281.922 93.386 L 282.044 98.298 280.343 99.549 C 279.408 100.237,278.787 100.800,278.964 100.800 C 279.140 100.800,279.986 100.245,280.842 99.566 L 282.400 98.333 282.400 93.590 C 282.400 90.981,282.265 88.763,282.100 88.661 C 281.935 88.558,281.855 90.685,281.922 93.386 M275.400 103.444 L 273.800 104.876 275.500 103.604 C 276.963 102.510,277.491 101.983,277.100 102.006 C 277.045 102.009,276.280 102.656,275.400 103.444 M293.320 104.959 C 293.144 105.266,291.695 106.536,290.100 107.782 C 288.505 109.027,287.200 110.132,287.200 110.239 C 287.200 110.616,293.553 105.501,293.762 104.955 C 294.038 104.235,293.733 104.237,293.320 104.959 M268.467 108.635 C 267.545 109.425,266.593 110.460,266.351 110.935 C 266.095 111.440,266.389 111.252,267.056 110.484 C 267.685 109.760,268.740 108.731,269.400 108.198 C 270.060 107.665,270.497 107.222,270.372 107.214 C 270.247 107.206,269.389 107.846,268.467 108.635 M281.000 115.044 L 279.400 116.476 281.100 115.204 C 282.563 114.110,283.091 113.583,282.700 113.606 C 282.645 113.609,281.880 114.256,281.000 115.044 M278.154 122.800 C 278.154 125.550,278.218 126.675,278.296 125.300 C 278.374 123.925,278.374 121.675,278.296 120.300 C 278.218 118.925,278.154 120.050,278.154 122.800 M292.656 132.484 C 292.521 132.988,292.428 133.850,292.449 134.400 C 292.472 134.989,292.631 134.671,292.836 133.625 C 293.203 131.752,293.073 130.927,292.656 132.484 M291.648 138.000 C 291.526 140.021,291.784 139.982,277.980 140.100 L 265.000 140.211 278.086 140.306 C 292.505 140.410,292.375 140.432,291.880 137.879 C 291.724 137.075,291.704 137.086,291.648 138.000 M188.672 297.900 C 193.992 297.963,202.812 297.963,208.272 297.900 C 213.733 297.837,209.380 297.785,198.600 297.785 C 187.820 297.785,183.353 297.837,188.672 297.900 " stroke="none" fill="#795a1c" fill-rule="evenodd"></path></g></svg>