<svg id="svg" version="1.1" xmlns="http://www.w3.org/2000/svg" xmlns:xlink="http://www.w3.org/1999/xlink" width="400" height="400" viewBox="0, 0, 400,400"><g id="svgg"><path id="path0" d="M258.958 84.069 C 258.671 84.532,258.060 87.801,257.344 92.700 L 257.096 94.400 263.468 94.400 C 271.421 94.400,270.800 93.756,270.800 102.000 C 270.800 110.123,271.204 109.600,264.920 109.600 L 260.000 109.600 260.000 114.600 L 260.000 119.600 264.626 119.600 C 271.147 119.600,270.800 119.221,270.800 126.334 C 270.800 133.734,271.370 133.200,263.476 133.200 L 257.112 133.200 257.335 134.500 C 257.458 135.215,257.821 137.330,258.142 139.200 C 259.073 144.621,257.866 144.082,268.755 143.931 C 282.839 143.736,282.400 144.259,282.400 127.683 C 282.400 115.151,282.365 114.951,280.034 114.211 C 279.088 113.911,279.332 112.939,280.441 112.587 C 282.201 112.028,282.400 110.693,282.400 99.453 C 282.400 83.274,282.896 83.856,268.939 83.675 C 261.343 83.576,259.210 83.660,258.958 84.069 M165.063 108.298 C 164.865 108.619,163.765 112.461,163.201 114.800 C 163.015 115.570,162.567 117.190,162.204 118.400 C 160.790 123.116,159.638 127.321,159.326 128.905 C 159.206 129.513,158.949 130.108,158.754 130.229 C 158.559 130.349,158.400 130.866,158.400 131.378 C 158.400 132.278,157.462 135.764,156.779 137.400 C 156.488 138.099,155.852 141.210,155.813 142.124 C 155.806 142.302,160.969 142.432,167.286 142.413 C 173.603 142.393,179.228 142.492,179.786 142.632 L 180.800 142.887 180.800 220.601 C 180.800 291.096,180.859 298.337,181.433 298.557 C 182.259 298.874,217.741 298.874,218.567 298.557 C 219.141 298.337,219.200 291.111,219.200 220.771 C 219.200 143.817,219.206 143.225,219.994 142.803 C 220.507 142.528,224.939 142.388,232.494 142.406 C 243.515 142.433,244.197 142.393,244.143 141.717 C 244.075 140.852,243.422 137.993,242.792 135.800 C 242.539 134.920,242.110 133.210,241.839 132.000 C 241.568 130.790,241.245 129.530,241.120 129.200 C 240.805 128.362,240.066 125.702,239.620 123.800 C 239.198 121.998,238.793 120.482,237.804 117.000 C 237.429 115.680,236.977 113.970,236.800 113.200 C 236.622 112.430,236.227 110.990,235.921 110.000 L 235.365 108.200 200.307 108.098 C 181.026 108.042,165.166 108.132,165.063 108.298 " stroke="none" fill="#fadd07" fill-rule="evenodd"></path><path id="path1" d="M0.000 200.000 L 0.000 400.000 200.000 400.000 L 400.000 400.000 400.000 200.000 L 400.000 0.000 200.000 0.000 L 0.000 0.000 0.000 200.000 M278.000 83.234 C 279.936 83.680,281.341 84.756,282.238 86.480 C 282.851 87.659,283.101 111.587,282.500 111.613 C 281.333 111.661,280.781 113.621,281.687 114.501 C 283.556 116.316,284.622 133.708,283.149 138.372 C 281.327 144.142,280.689 144.400,268.263 144.400 C 257.220 144.400,258.161 144.717,257.767 140.866 C 257.639 139.620,257.383 138.150,257.196 137.600 C 257.010 137.050,256.744 135.745,256.604 134.700 L 256.351 132.800 262.804 132.800 C 270.980 132.800,270.456 133.267,270.311 126.117 L 270.200 120.600 264.900 120.488 L 259.600 120.377 259.600 114.588 L 259.600 108.800 264.367 108.800 C 270.967 108.800,270.400 109.436,270.400 102.037 C 270.400 94.199,271.023 94.800,262.900 94.800 L 256.360 94.800 256.632 92.300 C 256.782 90.925,257.036 89.620,257.197 89.400 C 257.358 89.180,257.605 87.830,257.746 86.400 C 257.919 84.651,258.224 83.636,258.678 83.300 C 259.528 82.671,275.320 82.617,278.000 83.234 M235.669 107.862 C 236.071 108.226,236.400 109.000,236.400 109.582 C 236.400 110.164,236.550 110.811,236.733 111.020 C 236.916 111.229,237.389 112.840,237.784 114.600 C 238.179 116.360,238.639 118.160,238.806 118.600 C 239.185 119.602,239.889 122.107,240.380 124.200 C 240.586 125.080,240.956 126.520,241.203 127.400 C 241.449 128.280,241.898 129.990,242.200 131.200 C 242.502 132.410,242.956 134.120,243.208 135.000 C 243.461 135.880,243.890 137.590,244.161 138.800 C 244.432 140.010,244.796 141.315,244.970 141.700 C 245.816 143.575,245.648 143.600,232.214 143.600 L 219.602 143.600 219.501 221.500 L 219.400 299.400 200.000 299.400 L 180.600 299.400 180.499 221.500 L 180.398 143.600 167.786 143.600 C 154.215 143.600,153.891 143.548,155.137 141.552 C 155.392 141.145,155.600 140.469,155.600 140.051 C 155.600 139.183,156.694 135.345,157.237 134.305 C 157.437 133.923,157.600 133.269,157.600 132.851 C 157.600 131.983,158.694 128.145,159.237 127.105 C 159.437 126.723,159.600 126.069,159.600 125.651 C 159.600 124.907,160.571 121.382,161.211 119.800 C 161.389 119.360,161.838 117.740,162.208 116.200 C 162.578 114.660,163.023 113.040,163.197 112.600 C 163.370 112.160,163.730 110.990,163.997 110.000 C 164.264 109.010,164.666 107.975,164.890 107.700 C 165.602 106.828,234.700 106.986,235.669 107.862 " stroke="none" fill="#1c1c1c" fill-rule="evenodd"></path><path id="path2" d="M258.643 83.833 C 258.255 84.843,258.360 85.008,258.910 84.255 C 259.375 83.620,260.261 83.568,268.873 83.679 C 274.073 83.745,278.118 83.668,277.863 83.506 C 276.829 82.850,258.903 83.154,258.643 83.833 M281.667 87.220 C 281.901 87.892,282.167 88.367,282.257 88.276 C 282.456 88.078,281.701 86.000,281.431 86.000 C 281.327 86.000,281.433 86.549,281.667 87.220 M270.367 108.000 C 270.201 108.993,270.165 109.001,265.000 109.218 L 259.800 109.437 264.851 109.518 C 270.188 109.605,271.072 109.333,270.700 107.719 C 270.574 107.172,270.495 107.239,270.367 108.000 M235.844 109.800 C 236.173 111.271,236.402 111.590,236.394 110.567 C 236.391 110.145,236.205 109.530,235.982 109.200 C 235.685 108.762,235.648 108.924,235.844 109.800 M280.523 112.478 C 279.209 113.113,279.135 113.845,280.332 114.357 C 281.346 114.790,281.359 114.781,280.600 114.186 C 279.807 113.566,279.809 113.553,280.800 112.789 C 281.912 111.932,281.834 111.844,280.523 112.478 M236.806 113.433 C 236.809 113.855,236.995 114.470,237.218 114.800 C 237.515 115.238,237.552 115.076,237.356 114.200 C 237.027 112.729,236.798 112.410,236.806 113.433 M282.575 127.600 C 282.575 133.430,282.631 135.815,282.699 132.900 C 282.767 129.985,282.767 125.215,282.699 122.300 C 282.631 119.385,282.575 121.770,282.575 127.600 M262.300 119.896 C 263.675 119.974,265.925 119.974,267.300 119.896 C 268.675 119.818,267.550 119.754,264.800 119.754 C 262.050 119.754,260.925 119.818,262.300 119.896 M238.806 120.633 C 238.809 121.055,238.995 121.670,239.218 122.000 C 239.515 122.438,239.552 122.276,239.356 121.400 C 239.027 119.929,238.798 119.610,238.806 120.633 M159.849 125.415 C 159.712 125.773,159.615 126.366,159.634 126.733 C 159.653 127.100,159.827 126.869,160.021 126.220 C 160.398 124.958,160.265 124.333,159.849 125.415 M257.061 133.100 C 256.958 133.265,258.882 133.353,261.337 133.295 C 269.428 133.105,270.296 132.952,263.724 132.876 C 260.162 132.834,257.163 132.935,257.061 133.100 M257.458 136.800 C 257.775 138.525,258.002 138.851,257.994 137.567 C 257.991 137.035,257.811 136.330,257.594 136.000 C 257.318 135.578,257.277 135.815,257.458 136.800 M243.656 139.200 C 243.656 139.530,243.811 140.160,244.000 140.600 C 244.217 141.104,244.344 141.178,244.344 140.800 C 244.344 140.470,244.189 139.840,244.000 139.400 C 243.783 138.896,243.656 138.822,243.656 139.200 M155.849 139.815 C 155.712 140.173,155.615 140.766,155.634 141.133 C 155.653 141.500,155.827 141.269,156.021 140.620 C 156.398 139.358,156.265 138.733,155.849 139.815 M281.052 141.265 C 280.453 142.180,280.253 142.688,280.608 142.394 C 281.212 141.892,282.585 139.600,282.281 139.600 C 282.205 139.600,281.652 140.349,281.052 141.265 M155.281 142.444 C 155.433 142.900,157.718 143.019,167.932 143.106 L 180.398 143.211 180.499 221.106 L 180.600 299.000 200.000 299.000 L 219.400 299.000 219.501 221.106 L 219.602 143.211 232.068 143.106 C 242.282 143.019,244.567 142.900,244.719 142.444 C 244.831 142.108,244.726 141.998,244.453 142.167 C 244.205 142.321,238.779 142.431,232.395 142.412 C 224.899 142.390,220.508 142.528,219.994 142.803 C 219.206 143.225,219.200 143.817,219.200 220.771 C 219.200 291.111,219.141 298.337,218.567 298.557 C 217.741 298.874,182.259 298.874,181.433 298.557 C 180.859 298.337,180.800 291.096,180.800 220.601 L 180.800 142.887 179.786 142.632 C 179.228 142.492,173.648 142.393,167.385 142.412 C 161.123 142.431,155.796 142.321,155.548 142.168 C 155.274 141.998,155.169 142.107,155.281 142.444 M258.432 142.424 C 258.335 144.321,258.860 144.424,268.001 144.300 L 276.600 144.183 267.933 144.092 L 259.267 144.000 258.865 142.900 C 258.644 142.295,258.449 142.081,258.432 142.424 " stroke="none" fill="#746c0c" fill-rule="evenodd"></path><path id="path3" d="M263.500 83.099 C 265.975 83.169,270.025 83.169,272.500 83.099 C 274.975 83.028,272.950 82.971,268.000 82.971 C 263.050 82.971,261.025 83.028,263.500 83.099 M257.840 85.240 C 257.693 86.157,257.652 86.985,257.747 87.080 C 257.842 87.176,258.046 86.510,258.200 85.600 C 258.354 84.690,258.396 83.862,258.293 83.760 C 258.190 83.657,257.987 84.323,257.840 85.240 M279.235 83.700 C 279.328 83.755,280.033 84.340,280.802 85.000 L 282.200 86.200 281.025 84.900 C 280.379 84.185,279.674 83.600,279.458 83.600 C 279.243 83.600,279.143 83.645,279.235 83.700 M256.954 89.777 C 256.832 90.094,256.803 90.679,256.889 91.077 C 256.987 91.528,257.124 91.312,257.254 90.500 C 257.471 89.138,257.330 88.796,256.954 89.777 M164.883 107.700 C 164.551 108.099,171.597 108.179,199.934 108.095 C 232.955 107.997,235.434 108.037,235.900 108.671 C 236.175 109.046,236.400 109.166,236.400 108.938 C 236.400 108.710,236.071 108.226,235.669 107.862 C 234.700 106.986,165.607 106.828,164.883 107.700 M264.600 108.800 L 259.400 109.037 264.400 109.112 C 267.150 109.154,269.670 109.013,270.000 108.800 C 270.330 108.587,270.420 108.446,270.200 108.488 C 269.980 108.529,267.460 108.670,264.600 108.800 M237.606 115.033 C 237.609 115.455,237.795 116.070,238.018 116.400 C 238.315 116.838,238.352 116.676,238.156 115.800 C 237.827 114.329,237.598 114.010,237.606 115.033 M283.000 127.600 C 283.000 133.498,283.132 138.116,283.294 137.862 C 283.456 137.608,283.588 132.990,283.588 127.600 C 283.588 122.210,283.456 117.592,283.294 117.338 C 283.132 117.084,283.000 121.702,283.000 127.600 M160.046 123.267 C 160.021 123.634,159.896 124.264,159.770 124.667 C 159.552 125.362,159.563 125.363,159.997 124.687 C 160.248 124.296,160.373 123.666,160.273 123.287 C 160.111 122.668,160.088 122.666,160.046 123.267 M158.046 130.467 C 158.021 130.834,157.896 131.464,157.770 131.867 C 157.552 132.562,157.563 132.563,157.997 131.887 C 158.248 131.496,158.373 130.866,158.273 130.487 C 158.111 129.868,158.088 129.866,158.046 130.467 M256.806 136.233 C 256.809 136.655,256.995 137.270,257.218 137.600 C 257.515 138.038,257.552 137.876,257.356 137.000 C 257.027 135.529,256.798 135.210,256.806 136.233 M243.444 137.000 C 243.773 138.471,244.002 138.790,243.994 137.767 C 243.991 137.345,243.805 136.730,243.582 136.400 C 243.285 135.962,243.248 136.124,243.444 137.000 M156.046 137.667 C 156.021 138.034,155.896 138.664,155.770 139.067 C 155.552 139.762,155.563 139.763,155.997 139.087 C 156.248 138.696,156.373 138.066,156.273 137.687 C 156.111 137.068,156.088 137.066,156.046 137.667 M257.687 140.600 C 257.691 141.040,257.832 141.940,258.000 142.600 C 258.274 143.678,258.306 143.698,258.313 142.800 C 258.317 142.250,258.176 141.350,258.000 140.800 C 257.749 140.016,257.681 139.973,257.687 140.600 M154.945 141.800 C 154.261 143.582,154.437 143.605,167.887 143.506 L 180.600 143.412 167.854 143.300 L 155.109 143.189 155.299 142.194 C 155.509 141.094,155.303 140.865,154.945 141.800 M232.200 143.200 L 219.400 143.417 232.076 143.508 C 240.196 143.567,244.842 143.456,245.000 143.200 C 245.136 142.980,245.192 142.841,245.124 142.892 C 245.056 142.942,239.240 143.081,232.200 143.200 M180.662 299.300 C 180.764 299.465,189.466 299.600,200.000 299.600 C 210.534 299.600,219.236 299.465,219.338 299.300 C 219.440 299.135,210.738 299.000,200.000 299.000 C 189.262 299.000,180.560 299.135,180.662 299.300 " stroke="none" fill="#47442e" fill-rule="evenodd"></path><path id="path4" d="M282.576 99.200 C 282.576 105.470,282.632 108.035,282.699 104.900 C 282.767 101.765,282.767 96.635,282.699 93.500 C 282.632 90.365,282.576 92.930,282.576 99.200 M256.502 94.000 C 256.638 94.499,257.700 94.603,262.833 94.617 L 269.000 94.634 263.017 94.506 C 258.888 94.417,256.926 94.226,256.686 93.889 C 256.436 93.536,256.385 93.567,256.502 94.000 M270.559 101.600 C 270.559 104.790,270.621 106.095,270.697 104.500 C 270.773 102.905,270.773 100.295,270.697 98.700 C 270.621 97.105,270.559 98.410,270.559 101.600 M259.782 114.699 L 259.800 120.200 264.901 120.219 L 270.001 120.237 265.012 120.107 L 260.022 119.976 259.894 114.588 L 259.765 109.199 259.782 114.699 M282.974 127.600 C 282.974 133.210,283.030 135.505,283.099 132.700 C 283.168 129.895,283.168 125.305,283.099 122.500 C 283.030 119.695,282.974 121.990,282.974 127.600 M270.554 126.400 C 270.554 129.150,270.618 130.275,270.696 128.900 C 270.774 127.525,270.774 125.275,270.696 123.900 C 270.618 122.525,270.554 123.650,270.554 126.400 M256.695 133.100 C 256.611 133.265,256.674 133.940,256.834 134.600 C 257.111 135.744,257.123 135.730,257.081 134.300 C 257.036 132.776,256.967 132.563,256.695 133.100 M280.200 142.650 C 279.481 143.262,279.334 143.505,279.833 143.257 C 280.566 142.893,281.941 141.576,281.549 141.614 C 281.467 141.622,280.860 142.088,280.200 142.650 " stroke="none" fill="#755f1f" fill-rule="evenodd"></path></g></svg>