<svg id="svg" version="1.1" xmlns="http://www.w3.org/2000/svg" xmlns:xlink="http://www.w3.org/1999/xlink" width="400" height="400" viewBox="0, 0, 400,400"><g id="svgg"><path id="path0" d="M234.629 86.629 C 234.283 86.974,234.000 87.861,234.000 88.598 L 234.000 89.940 228.432 90.070 C 222.197 90.216,222.413 90.138,222.116 92.347 C 221.902 93.946,221.883 93.961,220.050 94.080 L 218.200 94.200 218.079 96.079 L 217.958 97.958 216.079 98.079 L 214.200 98.200 213.782 102.400 C 213.305 107.197,212.980 108.130,211.206 109.800 C 210.505 110.460,209.388 112.170,208.724 113.600 C 208.060 115.030,207.117 116.650,206.629 117.200 C 205.678 118.270,204.718 121.117,203.997 125.000 C 203.752 126.320,203.394 127.940,203.202 128.600 C 201.663 133.872,201.707 139.250,203.343 145.600 C 203.882 147.690,204.449 150.300,204.604 151.400 C 204.872 153.299,206.505 156.800,207.123 156.800 C 207.434 156.800,208.407 158.924,209.156 161.238 C 209.412 162.029,210.050 162.905,210.573 163.186 C 211.097 163.466,211.857 164.346,212.263 165.141 C 213.134 166.850,213.388 167.137,215.100 168.340 C 215.815 168.843,216.400 169.505,216.400 169.810 C 216.400 170.116,217.255 170.854,218.300 171.450 C 219.345 172.046,220.560 172.919,221.000 173.389 C 221.440 173.860,223.060 174.840,224.600 175.568 C 226.140 176.296,227.766 177.227,228.214 177.635 C 229.189 178.525,233.080 179.816,236.668 180.441 C 238.099 180.690,240.196 181.233,241.329 181.647 C 244.258 182.718,250.985 182.702,253.952 181.618 C 255.129 181.187,256.927 180.716,257.946 180.571 C 261.899 180.009,266.336 178.604,267.200 177.641 C 267.530 177.274,269.060 176.373,270.600 175.639 C 272.140 174.905,273.913 173.790,274.539 173.161 C 275.166 172.532,276.471 171.621,277.439 171.138 C 278.408 170.654,279.200 170.048,279.200 169.790 C 279.200 169.174,280.298 167.973,281.856 166.885 C 282.546 166.403,283.233 165.522,283.383 164.926 C 283.532 164.330,284.232 163.293,284.937 162.621 C 285.642 161.950,286.776 160.227,287.456 158.793 C 288.932 155.684,289.531 155.126,291.956 154.599 L 293.800 154.198 293.921 152.099 L 294.042 150.000 295.541 150.000 C 298.055 150.000,298.000 150.307,298.000 136.149 C 298.000 121.837,298.030 122.000,295.386 122.000 L 294.029 122.000 293.914 118.100 L 293.800 114.200 291.900 114.078 L 290.000 113.956 290.000 112.010 C 290.000 110.188,289.926 110.047,288.841 109.809 C 287.467 109.507,286.604 108.608,286.248 107.106 C 286.080 106.400,285.646 105.926,285.023 105.770 C 283.987 105.510,282.935 104.516,282.236 103.134 C 281.996 102.661,281.088 102.029,280.218 101.730 C 279.348 101.430,278.268 100.845,277.818 100.429 C 277.368 100.014,275.830 99.003,274.400 98.182 C 272.970 97.362,271.440 96.293,271.000 95.807 C 270.560 95.321,269.210 94.598,268.000 94.200 C 265.666 93.433,264.332 92.721,262.951 91.504 C 262.397 91.016,260.824 90.564,258.426 90.204 C 254.822 89.662,251.818 88.308,250.382 86.578 C 249.644 85.689,235.523 85.734,234.629 86.629 M261.366 195.500 C 260.597 200.654,259.718 201.410,253.999 201.831 C 251.532 202.013,250.212 202.242,250.800 202.386 C 251.568 202.575,251.881 203.000,252.147 204.216 C 252.338 205.087,252.547 205.997,252.611 206.237 C 252.674 206.477,253.375 206.982,254.168 207.358 C 256.445 208.438,256.934 209.496,256.426 212.243 C 255.873 215.232,255.883 215.426,256.629 216.171 C 257.459 217.001,258.211 216.965,259.084 216.053 C 260.425 214.653,262.044 214.061,263.378 214.481 C 266.679 215.521,268.501 216.536,269.087 217.664 C 269.354 218.179,269.759 218.582,269.987 218.560 C 270.214 218.538,270.580 218.493,270.800 218.460 C 272.008 218.279,270.999 212.617,269.487 211.093 C 268.607 210.205,268.864 209.718,271.200 207.853 C 276.294 203.784,276.371 200.517,271.339 201.960 C 269.658 202.442,265.200 199.472,265.200 197.869 C 265.200 197.248,262.606 193.600,262.165 193.600 C 261.856 193.600,261.535 194.362,261.366 195.500 M99.141 218.268 C 98.457 218.450,98.015 219.551,98.005 221.100 C 98.001 221.911,97.805 222.000,96.028 222.000 L 94.057 222.000 93.611 224.100 C 93.044 226.768,92.551 227.401,90.249 228.420 C 89.221 228.874,87.815 229.799,87.124 230.474 C 86.433 231.150,84.952 232.113,83.834 232.615 C 82.715 233.117,81.214 234.160,80.497 234.933 C 79.780 235.706,78.657 236.456,78.000 236.600 C 77.343 236.744,76.225 237.478,75.515 238.231 C 73.996 239.842,72.274 240.045,70.691 238.800 C 67.855 236.569,66.000 238.074,66.000 242.607 L 66.000 245.956 64.100 246.078 L 62.200 246.200 62.080 248.059 C 61.955 249.981,61.530 250.375,59.400 250.538 C 58.866 250.580,58.596 250.892,58.588 251.479 C 58.581 251.962,58.446 252.487,58.288 252.645 C 57.556 253.377,58.124 253.970,59.797 254.220 C 61.807 254.522,63.049 256.869,62.047 258.473 C 61.665 259.086,61.011 262.263,59.000 273.283 C 58.216 277.577,57.010 280.205,55.352 281.230 L 54.000 282.065 54.000 289.404 C 54.000 297.601,54.122 298.000,56.629 298.000 L 58.000 298.000 58.017 301.700 C 58.047 308.086,58.589 309.581,60.879 309.594 C 61.898 309.600,61.965 309.717,62.079 311.700 L 62.200 313.800 64.100 313.922 L 66.000 314.044 66.000 316.022 C 66.000 317.110,66.141 318.000,66.312 318.000 C 66.484 318.000,66.833 318.551,67.087 319.225 C 67.374 319.986,67.997 320.619,68.730 320.896 C 69.743 321.278,69.960 321.631,70.256 323.368 C 70.650 325.686,71.016 325.867,75.478 325.953 L 77.956 326.000 78.078 327.900 L 78.200 329.800 80.079 329.921 L 81.958 330.042 82.079 331.921 L 82.200 333.800 86.100 333.914 L 90.000 334.029 90.000 335.534 C 90.000 337.875,90.326 338.000,96.429 338.000 L 101.898 338.000 102.156 339.612 C 102.522 341.904,103.019 342.000,114.452 342.000 C 124.413 342.000,126.000 341.808,126.000 340.604 C 126.000 338.650,127.788 338.002,133.318 337.953 C 140.820 337.885,141.228 337.749,141.778 335.122 C 141.980 334.158,142.205 334.031,143.902 333.922 L 145.800 333.800 145.922 331.900 C 146.038 330.091,146.100 330.000,147.222 330.000 C 148.372 330.000,148.400 329.951,148.400 327.966 C 148.400 326.045,148.518 325.814,150.500 323.829 C 151.655 322.672,152.802 321.495,153.048 321.211 C 153.295 320.928,154.195 320.002,155.048 319.153 C 155.902 318.303,156.816 317.382,157.081 317.104 C 157.345 316.827,157.795 316.384,158.081 316.119 C 158.951 315.313,159.485 314.582,160.167 313.265 C 160.569 312.486,161.557 311.630,162.751 311.025 C 164.047 310.368,164.851 309.642,165.191 308.823 C 165.630 307.763,167.275 307.110,168.100 307.668 C 168.990 308.269,170.000 306.524,170.000 304.386 L 170.000 302.000 171.520 302.000 C 173.878 302.000,174.000 301.682,174.000 295.540 C 174.000 291.065,173.888 289.977,173.400 289.704 C 170.597 288.136,170.813 274.400,173.640 274.400 C 174.883 274.400,173.959 270.241,172.423 268.927 C 171.556 268.185,170.724 267.192,170.574 266.720 C 170.425 266.248,169.993 265.529,169.615 265.124 C 168.915 264.372,167.600 260.259,167.600 258.820 C 167.600 257.808,166.355 255.099,165.697 254.679 C 165.075 254.281,163.600 251.443,163.600 250.644 C 163.600 250.321,162.978 249.398,162.218 248.592 C 161.458 247.786,160.293 246.288,159.629 245.263 C 158.965 244.238,157.533 242.548,156.446 241.507 C 155.360 240.465,154.410 239.469,154.336 239.292 C 154.261 239.115,153.391 238.347,152.403 237.585 C 151.415 236.823,149.797 235.422,148.808 234.471 C 147.818 233.520,146.520 232.644,145.922 232.524 C 145.325 232.405,144.138 231.710,143.286 230.981 C 142.434 230.251,140.581 229.269,139.168 228.797 C 137.756 228.326,135.430 227.385,134.000 226.706 C 132.570 226.027,131.040 225.326,130.600 225.149 C 130.160 224.971,127.010 224.529,123.600 224.165 C 116.302 223.386,115.215 222.870,114.447 219.820 L 113.988 218.000 106.894 218.046 C 102.992 218.072,99.503 218.172,99.141 218.268 M195.400 225.382 C 194.093 225.788,193.824 226.041,193.928 226.759 C 194.627 231.544,199.200 232.474,199.200 227.831 C 199.200 224.788,198.584 224.391,195.400 225.382 M228.936 228.916 C 226.675 230.466,226.250 233.379,227.861 236.286 C 229.210 238.722,229.324 238.788,232.200 238.788 C 235.079 238.788,235.115 238.764,236.477 236.065 C 237.325 234.382,237.473 233.719,237.177 232.939 C 236.969 232.394,236.800 231.560,236.800 231.086 C 236.800 228.447,231.682 227.034,228.936 228.916 M123.797 236.203 C 125.836 236.538,127.828 237.112,128.397 237.531 C 128.949 237.936,130.480 238.604,131.800 239.014 C 134.429 239.831,136.800 241.075,136.800 241.637 C 136.800 241.835,137.655 242.391,138.700 242.875 C 139.745 243.358,141.273 244.394,142.096 245.177 C 142.918 245.959,143.818 246.798,144.096 247.040 C 144.373 247.283,145.282 248.228,146.116 249.140 C 146.950 250.053,147.760 250.801,147.916 250.803 C 148.225 250.805,149.600 253.070,149.600 253.576 C 149.600 253.748,150.215 254.540,150.967 255.337 C 151.718 256.134,152.449 257.313,152.590 257.956 C 152.732 258.599,153.426 260.087,154.134 261.263 C 155.889 264.178,156.274 265.284,156.830 269.000 C 158.342 279.120,157.188 292.267,154.532 295.173 C 154.043 295.708,153.328 297.196,152.943 298.480 C 151.151 304.463,145.544 306.514,141.076 302.822 C 140.043 301.969,138.418 300.893,137.465 300.431 C 136.511 299.970,135.498 299.158,135.214 298.626 C 134.930 298.095,134.284 297.557,133.780 297.431 C 132.597 297.134,130.400 295.288,130.400 294.591 C 130.400 294.296,130.009 293.930,129.531 293.778 C 128.645 293.497,127.941 293.009,127.081 292.081 C 126.816 291.796,125.898 290.896,125.040 290.081 C 124.183 289.267,123.283 288.351,123.040 288.046 C 122.798 287.741,121.761 286.692,120.735 285.713 C 119.710 284.735,118.763 283.545,118.632 283.068 C 118.501 282.590,117.825 281.840,117.129 281.400 C 116.433 280.960,115.516 279.925,115.092 279.099 C 114.668 278.273,113.789 277.220,113.140 276.758 C 112.491 276.295,111.680 275.217,111.337 274.360 C 110.990 273.491,110.264 272.581,109.697 272.301 C 109.112 272.013,108.152 270.784,107.440 269.410 C 106.758 268.096,105.812 266.701,105.338 266.311 C 104.864 265.921,103.971 264.508,103.354 263.170 C 102.736 261.832,101.923 260.573,101.546 260.371 C 100.874 260.011,99.145 256.769,98.575 254.800 C 98.415 254.250,97.951 253.565,97.542 253.277 C 97.134 252.990,96.259 251.665,95.599 250.334 C 94.938 249.003,93.928 247.544,93.355 247.093 C 90.455 244.812,92.730 240.707,97.736 239.186 C 99.249 238.727,100.847 238.015,101.288 237.604 C 101.771 237.154,103.224 236.678,104.945 236.407 C 106.515 236.159,108.070 235.897,108.400 235.825 C 110.189 235.431,120.655 235.689,123.797 236.203 M78.800 259.973 C 78.800 260.178,79.142 260.455,79.560 260.587 C 79.978 260.720,80.430 261.265,80.564 261.799 C 80.698 262.332,81.436 263.379,82.204 264.125 C 82.972 264.871,83.600 265.688,83.600 265.940 C 83.600 266.193,83.735 266.401,83.900 266.401 C 84.065 266.402,84.550 267.253,84.977 268.292 C 85.405 269.331,86.271 270.616,86.901 271.147 C 87.532 271.678,88.405 272.870,88.841 273.797 C 89.276 274.724,90.045 275.703,90.549 275.973 C 91.052 276.242,91.796 277.034,92.201 277.731 C 93.012 279.129,94.190 280.399,100.980 287.200 C 107.503 293.733,110.418 296.400,111.035 296.400 C 111.330 296.400,111.779 296.805,112.033 297.300 C 112.631 298.468,114.016 299.580,114.887 299.591 C 115.264 299.596,116.200 300.226,116.965 300.992 C 117.731 301.757,119.087 302.700,119.979 303.086 C 120.870 303.473,121.600 303.926,121.600 304.094 C 121.600 304.262,121.836 304.400,122.125 304.400 C 122.414 304.400,123.155 304.927,123.772 305.571 C 124.389 306.215,125.458 306.956,126.147 307.218 C 128.754 308.210,130.746 309.190,131.005 309.609 C 131.153 309.847,132.232 310.466,133.403 310.985 C 142.476 314.997,131.033 321.399,114.800 321.393 C 107.107 321.391,100.899 320.320,98.590 318.599 C 97.925 318.103,96.410 317.360,95.224 316.949 C 94.038 316.537,92.486 315.660,91.775 315.000 C 91.063 314.340,89.878 313.455,89.141 313.034 C 88.403 312.612,87.157 311.622,86.371 310.834 C 85.586 310.045,84.459 308.974,83.867 308.454 C 83.276 307.934,82.685 307.079,82.553 306.554 C 82.421 306.029,82.094 305.600,81.826 305.600 C 81.132 305.600,79.820 304.030,79.195 302.448 C 78.901 301.705,78.260 300.696,77.771 300.207 C 76.583 299.019,75.866 297.514,75.026 294.444 C 74.642 293.039,74.001 291.538,73.602 291.110 C 71.199 288.531,71.184 270.620,73.580 266.017 C 73.985 265.238,74.605 263.788,74.956 262.794 C 75.700 260.690,78.800 258.415,78.800 259.973 " stroke="none" fill="#f2ecd0" fill-rule="evenodd"></path><path id="path1" d="M175.015 55.184 C 174.259 55.974,173.965 56.621,174.110 57.177 C 174.318 57.972,169.589 58.400,164.879 58.013 C 164.372 57.971,163.663 58.176,163.302 58.469 C 162.830 58.851,162.730 58.860,162.947 58.500 C 163.112 58.225,163.057 58.000,162.824 58.000 C 162.591 58.000,162.400 58.163,162.400 58.363 C 162.400 58.562,162.040 58.631,161.600 58.516 C 161.044 58.370,160.800 58.504,160.800 58.953 C 160.800 59.309,160.609 59.600,160.376 59.600 C 160.143 59.600,160.064 59.420,160.200 59.200 C 160.546 58.640,159.860 58.700,159.280 59.280 C 158.700 59.860,158.640 60.546,159.200 60.200 C 159.420 60.064,159.600 60.143,159.600 60.376 C 159.600 60.609,159.330 60.800,159.000 60.800 C 158.670 60.800,158.400 61.070,158.400 61.400 C 158.400 61.879,157.809 62.000,155.480 62.000 C 153.698 62.000,152.350 62.195,152.021 62.500 C 151.590 62.900,151.539 62.900,151.765 62.500 C 152.166 61.790,151.378 61.879,150.629 62.629 C 149.879 63.378,149.790 64.166,150.500 63.765 C 150.900 63.539,150.900 63.590,150.500 64.021 C 150.225 64.318,150.000 64.884,150.000 65.280 C 150.000 66.008,148.385 66.222,144.502 66.010 C 142.744 65.914,141.872 66.851,142.078 68.614 L 142.239 70.000 140.220 70.039 C 139.109 70.060,137.526 70.046,136.702 70.008 C 134.826 69.922,134.000 70.705,134.000 72.571 C 134.000 73.874,131.825 74.740,130.661 73.900 C 130.585 73.845,130.225 74.047,129.861 74.349 C 129.498 74.651,129.197 74.741,129.194 74.549 C 129.191 74.357,129.013 74.470,128.800 74.800 C 128.542 75.200,128.410 75.233,128.406 74.900 C 128.403 74.625,128.220 74.400,128.000 74.400 C 127.780 74.400,127.600 74.670,127.600 75.000 C 127.600 75.330,127.330 75.600,127.000 75.600 C 126.670 75.600,126.400 75.780,126.400 76.000 C 126.400 76.220,126.625 76.403,126.900 76.406 C 127.233 76.410,127.200 76.542,126.800 76.800 C 126.470 77.013,126.357 77.191,126.549 77.194 C 126.741 77.197,126.708 77.429,126.476 77.708 C 126.244 77.988,125.382 78.185,124.561 78.146 C 122.680 78.058,122.057 78.673,122.145 80.533 C 122.202 81.748,122.075 82.007,121.407 82.043 C 120.963 82.066,120.060 82.111,119.400 82.143 C 118.360 82.192,118.192 82.360,118.143 83.400 C 118.111 84.060,118.066 84.905,118.043 85.278 C 118.010 85.796,117.550 85.985,116.100 86.078 L 114.200 86.200 114.079 88.079 L 113.958 89.958 112.079 90.079 L 110.200 90.200 110.078 92.100 C 109.960 93.934,109.911 94.002,108.678 94.046 C 106.410 94.128,106.201 94.190,106.146 94.800 C 106.117 95.130,106.072 95.975,106.046 96.678 C 106.002 97.911,105.934 97.960,104.100 98.078 L 102.200 98.200 102.079 100.079 L 101.958 101.958 100.079 102.079 L 98.200 102.200 98.078 104.100 C 97.955 106.022,97.816 106.156,96.079 106.013 C 94.811 105.909,93.941 106.735,94.019 107.968 C 94.151 110.046,94.037 110.335,93.177 110.110 C 91.432 109.654,90.092 111.702,90.044 114.900 C 89.993 118.242,90.153 117.994,87.956 118.131 C 86.318 118.233,86.196 118.320,86.143 119.420 C 86.111 120.069,86.066 120.902,86.043 121.272 C 86.019 121.644,85.598 122.006,85.100 122.082 C 84.605 122.157,84.249 122.453,84.310 122.739 C 84.370 123.025,84.256 123.158,84.055 123.034 C 83.583 122.742,82.714 123.780,83.103 124.170 C 83.267 124.333,83.134 124.407,82.809 124.333 C 82.444 124.251,82.164 124.560,82.076 125.144 C 81.971 125.839,82.074 126.009,82.466 125.786 C 82.896 125.542,82.903 125.588,82.500 126.021 C 82.225 126.318,82.000 127.334,82.000 128.280 C 82.000 130.003,81.745 130.240,80.114 130.033 C 78.825 129.870,78.112 131.449,78.039 134.631 C 77.966 137.741,77.622 138.537,76.531 138.118 C 76.233 138.004,75.751 138.109,75.458 138.352 C 75.166 138.594,74.779 138.660,74.599 138.497 C 74.419 138.333,74.394 138.413,74.542 138.672 C 74.691 138.932,74.639 139.252,74.426 139.384 C 74.214 139.515,74.050 140.382,74.062 141.311 C 74.118 145.533,74.005 146.400,73.400 146.400 C 73.070 146.400,72.800 146.670,72.800 147.000 C 72.800 147.330,72.609 147.600,72.376 147.600 C 72.143 147.600,72.064 147.420,72.200 147.200 C 72.546 146.640,71.860 146.700,71.280 147.280 C 70.700 147.860,70.640 148.546,71.200 148.200 C 71.420 148.064,71.600 148.143,71.600 148.376 C 71.600 148.609,71.310 148.800,70.957 148.800 C 70.465 148.800,70.374 149.043,70.573 149.834 C 70.741 150.504,70.686 150.777,70.416 150.610 C 70.137 150.437,70.000 151.933,70.000 155.158 C 70.000 160.202,69.224 162.151,67.200 162.189 C 66.870 162.195,66.625 162.513,66.655 162.896 C 66.685 163.278,66.574 163.507,66.408 163.405 C 66.242 163.302,66.088 164.857,66.067 166.861 C 66.030 170.446,65.828 171.392,65.278 170.551 C 65.111 170.296,63.209 170.110,60.529 170.088 C 55.618 170.047,54.000 170.782,54.000 173.055 C 54.000 173.672,53.757 174.015,53.300 174.043 C 52.915 174.066,52.060 174.111,51.400 174.143 C 50.360 174.192,50.192 174.360,50.143 175.400 C 50.111 176.060,50.066 176.915,50.043 177.300 C 50.006 177.894,49.587 178.000,47.280 178.000 C 45.658 178.000,44.343 178.202,44.021 178.500 C 43.590 178.900,43.539 178.900,43.765 178.500 C 44.166 177.790,43.378 177.879,42.629 178.629 C 41.879 179.378,41.790 180.166,42.500 179.765 C 42.900 179.539,42.900 179.590,42.500 180.021 C 42.225 180.318,42.000 180.884,42.000 181.280 C 42.000 181.683,41.692 182.019,41.300 182.043 C 40.915 182.066,40.060 182.111,39.400 182.143 C 38.360 182.192,38.192 182.360,38.143 183.400 C 38.111 184.060,38.066 184.915,38.043 185.300 C 38.006 185.897,37.583 186.000,35.176 186.000 C 33.623 186.000,32.449 186.155,32.566 186.345 C 32.683 186.534,32.289 186.669,31.689 186.645 C 30.749 186.606,30.606 186.749,30.645 187.689 C 30.669 188.289,30.534 188.683,30.345 188.566 C 30.155 188.449,30.000 188.723,30.000 189.176 C 30.000 189.776,29.742 190.000,29.055 190.000 C 27.835 190.000,26.000 191.835,26.000 193.055 C 26.000 193.883,25.811 194.000,24.480 194.000 C 22.569 194.000,22.000 194.564,22.000 196.458 L 22.000 197.956 20.100 198.078 L 18.200 198.200 18.079 200.079 L 17.958 201.958 16.079 202.079 L 14.200 202.200 14.078 204.100 C 13.954 206.041,13.846 206.138,11.968 206.019 C 10.679 205.938,9.848 206.892,10.093 208.172 C 10.359 209.567,9.945 210.007,8.236 210.141 C 6.719 210.261,5.966 210.900,6.048 212.000 C 6.256 214.811,5.969 216.348,5.244 216.293 C 4.778 216.258,4.569 216.025,4.700 215.685 C 4.875 215.228,4.970 215.225,5.250 215.666 C 5.480 216.030,5.590 216.049,5.594 215.724 C 5.606 214.758,4.779 214.785,3.782 215.782 C 2.739 216.824,2.796 217.841,3.874 217.427 C 4.233 217.289,4.402 217.393,4.303 217.691 C 4.213 217.961,3.703 218.187,3.170 218.191 C 2.298 218.199,2.188 218.392,2.078 220.100 C 1.968 221.815,1.861 222.000,0.978 222.000 L 0.000 222.000 0.000 240.000 L 0.000 258.000 1.000 258.000 C 1.814 258.000,2.008 258.205,2.043 259.100 C 2.156 262.048,1.952 261.842,4.878 261.957 C 5.873 261.997,5.966 262.146,6.078 263.900 L 6.200 265.800 8.100 265.922 C 10.114 266.051,10.084 266.009,10.103 268.700 C 10.107 269.233,10.373 269.625,10.755 269.661 C 11.110 269.694,11.580 269.764,11.800 269.815 C 12.020 269.866,12.605 269.928,13.100 269.954 C 13.823 269.991,14.000 270.236,14.000 271.200 C 14.000 272.548,15.280 274.079,16.322 273.975 C 20.034 273.606,21.937 274.002,22.200 275.200 C 22.345 275.860,22.674 276.403,22.932 276.406 C 23.202 276.410,23.146 276.576,22.800 276.800 C 22.470 277.013,22.380 277.213,22.600 277.245 C 22.820 277.276,23.450 277.384,24.000 277.484 C 24.550 277.585,27.480 277.755,30.510 277.862 C 36.361 278.069,37.623 278.539,38.092 280.686 C 38.177 281.079,38.462 281.355,38.724 281.300 C 38.986 281.245,39.200 281.358,39.200 281.552 C 39.200 281.746,42.574 281.881,46.698 281.852 L 54.195 281.800 54.749 280.200 C 55.534 277.934,55.950 275.580,56.358 271.107 C 56.615 268.286,56.956 266.801,57.595 265.719 C 58.937 263.444,60.055 256.010,59.236 254.800 C 58.969 254.405,57.901 254.132,56.115 254.000 C 53.577 253.813,53.408 253.741,53.525 252.900 C 53.620 252.217,53.451 252.000,52.825 252.000 C 52.371 252.000,52.000 251.809,52.000 251.576 C 52.000 251.343,52.168 251.256,52.372 251.383 C 52.577 251.509,52.850 251.443,52.978 251.235 C 53.280 250.746,52.102 250.412,50.700 250.590 C 50.095 250.667,49.600 250.594,49.600 250.429 C 49.600 250.264,46.153 250.094,41.941 250.051 C 33.557 249.967,33.495 249.956,33.824 248.646 C 33.973 248.054,33.808 247.543,33.349 247.170 C 32.758 246.691,32.700 246.690,32.985 247.162 C 33.215 247.543,33.175 247.632,32.862 247.438 C 32.608 247.281,32.400 246.920,32.400 246.635 C 32.400 246.260,31.559 246.106,29.352 246.078 C 25.572 246.029,25.927 246.660,25.927 240.000 C 25.927 233.556,25.771 234.088,27.727 233.873 C 29.730 233.652,29.825 233.520,29.967 230.750 C 29.995 230.195,31.234 229.655,32.962 229.444 C 33.161 229.420,33.381 229.130,33.451 228.800 C 34.152 225.511,34.215 225.397,35.268 225.522 C 36.580 225.677,37.725 224.567,37.495 223.363 C 37.257 222.120,37.540 221.826,39.400 221.382 C 40.796 221.049,41.046 220.813,41.361 219.538 C 41.717 218.097,42.480 217.634,44.800 217.448 C 45.130 217.422,45.416 217.130,45.437 216.800 C 45.581 214.423,46.464 213.611,48.521 213.960 C 49.168 214.069,49.831 212.965,49.927 211.621 C 50.046 209.944,49.737 210.145,52.612 209.874 C 56.381 209.520,57.143 209.100,57.444 207.212 C 57.684 205.717,57.795 205.600,58.989 205.600 C 60.549 205.600,61.589 204.564,61.630 202.969 L 61.661 201.800 62.178 203.200 C 62.462 203.970,62.618 204.735,62.524 204.900 C 62.430 205.065,62.588 205.203,62.876 205.206 C 63.287 205.211,63.281 205.287,62.849 205.561 C 62.122 206.022,62.698 206.925,63.518 206.610 C 64.068 206.399,64.062 206.468,63.474 207.118 C 62.758 207.909,63.820 209.605,64.694 209.066 C 65.792 208.387,65.948 209.711,66.072 220.721 C 66.180 230.242,66.295 232.090,66.800 232.409 C 67.293 232.720,67.299 232.789,66.833 232.794 C 65.834 232.805,66.724 233.296,68.015 233.446 C 69.821 233.657,70.000 233.863,70.000 235.737 L 70.000 237.426 71.900 237.402 C 73.469 237.382,74.029 237.158,75.111 236.118 C 75.832 235.425,76.957 234.741,77.611 234.598 C 78.265 234.454,78.800 234.113,78.800 233.840 C 78.800 233.135,80.314 231.926,82.324 231.028 C 83.273 230.604,84.201 229.974,84.387 229.628 C 84.698 229.051,87.478 227.507,90.071 226.471 C 90.670 226.232,91.442 225.411,91.823 224.608 C 92.198 223.818,92.825 222.948,93.216 222.674 C 93.886 222.205,93.929 220.677,93.942 197.040 C 93.957 172.146,93.964 171.900,94.778 171.330 C 95.230 171.014,95.600 170.500,95.600 170.190 C 95.600 169.830,95.839 169.717,96.258 169.878 C 97.611 170.397,98.000 168.935,98.000 163.324 C 98.000 159.349,98.127 157.992,98.500 157.968 C 101.899 157.747,101.886 157.764,101.963 153.498 C 102.031 149.745,102.092 149.600,103.575 149.600 C 105.207 149.600,105.588 148.882,105.866 145.277 C 106.128 141.884,106.356 141.586,108.800 141.437 C 109.456 141.397,109.520 141.124,109.846 137.000 C 110.106 133.699,109.884 134.060,111.735 133.935 C 113.740 133.800,114.000 133.489,114.000 131.218 C 114.000 130.186,114.176 130.003,115.386 129.776 C 117.539 129.372,117.911 128.502,117.977 123.722 L 118.000 122.044 119.900 121.922 L 121.800 121.800 121.921 119.921 L 122.042 118.042 123.921 117.921 L 125.800 117.800 125.921 115.921 L 126.042 114.042 127.921 113.921 L 129.800 113.800 129.921 111.921 L 130.042 110.042 131.921 109.921 L 133.800 109.800 133.920 107.939 L 134.041 106.078 137.587 105.939 C 141.645 105.780,141.595 105.807,141.884 103.653 C 142.098 102.054,142.117 102.039,143.950 101.920 L 145.800 101.800 145.922 99.900 L 146.044 98.000 149.393 98.000 C 153.235 98.000,154.000 97.563,154.000 95.371 L 154.000 94.000 156.500 93.954 C 157.875 93.929,159.299 93.937,159.665 93.973 C 160.030 94.009,160.448 93.847,160.592 93.613 C 160.737 93.378,161.051 93.308,161.289 93.455 C 161.539 93.609,161.609 93.539,161.455 93.289 C 161.308 93.051,161.378 92.737,161.613 92.592 C 161.847 92.448,162.009 92.030,161.973 91.665 C 161.815 90.055,161.929 90.000,165.429 90.000 C 169.354 90.000,170.000 89.637,170.000 87.429 L 170.000 86.000 175.500 85.969 C 178.525 85.952,181.540 85.874,182.200 85.796 C 182.860 85.718,183.850 85.597,184.400 85.527 C 184.950 85.457,185.416 85.130,185.437 84.800 C 185.457 84.470,185.611 83.705,185.780 83.100 L 186.087 82.000 195.143 81.994 C 200.125 81.991,206.720 81.978,209.800 81.964 C 212.880 81.951,219.650 81.954,224.845 81.970 L 234.289 82.000 234.098 83.000 C 233.960 83.721,234.081 84.000,234.530 84.000 C 234.949 84.000,235.101 84.277,234.992 84.843 C 234.862 85.516,234.988 85.644,235.615 85.480 C 236.047 85.367,236.400 85.415,236.400 85.586 C 236.400 85.757,239.495 85.927,243.279 85.964 C 250.917 86.039,253.320 86.412,254.800 87.750 C 256.677 89.447,257.811 89.899,260.609 90.063 C 262.144 90.153,263.940 90.514,264.600 90.865 C 265.260 91.216,267.240 92.260,269.000 93.184 C 270.760 94.108,272.740 95.373,273.400 95.996 C 274.060 96.618,275.277 97.405,276.104 97.745 C 277.925 98.493,280.853 100.909,284.149 104.384 C 285.497 105.805,287.376 107.712,288.324 108.622 C 289.802 110.040,290.052 110.516,290.071 111.944 C 290.084 112.861,290.281 113.726,290.509 113.867 C 290.769 114.028,290.804 113.914,290.603 113.562 C 290.344 113.107,290.386 113.096,290.821 113.500 C 291.118 113.775,291.954 114.000,292.680 114.000 C 293.975 114.000,294.000 114.033,294.000 115.776 C 294.000 116.753,294.208 117.681,294.462 117.838 C 294.771 118.029,294.818 117.938,294.603 117.562 C 294.344 117.107,294.386 117.096,294.821 117.500 C 295.118 117.775,295.954 118.000,296.680 118.000 C 297.971 118.000,298.398 118.930,298.032 120.947 C 297.747 122.516,299.388 125.031,300.952 125.424 C 301.528 125.568,302.015 125.982,302.032 126.343 C 302.193 129.595,302.477 129.983,304.700 129.994 C 306.053 130.000,306.083 130.057,306.104 132.689 C 306.108 133.179,306.253 133.491,306.428 133.383 C 306.602 133.275,306.841 133.342,306.958 133.532 C 307.075 133.722,307.736 133.894,308.427 133.913 C 310.056 133.959,309.955 133.731,310.036 137.541 C 310.116 141.309,310.518 142.000,312.629 142.000 C 314.124 142.000,314.104 141.934,314.067 146.800 C 314.052 148.804,314.378 149.694,315.036 149.441 C 315.346 149.322,315.600 149.377,315.600 149.563 C 315.600 149.748,316.057 149.900,316.617 149.900 C 317.996 149.900,317.947 149.759,318.031 153.911 C 318.091 156.880,318.222 157.600,318.702 157.600 C 319.211 157.600,319.218 157.698,318.749 158.275 C 318.262 158.874,318.290 158.919,319.000 158.674 C 319.759 158.412,319.763 158.427,319.074 158.962 C 318.055 159.753,318.946 161.116,320.696 161.444 L 322.000 161.689 322.017 164.745 C 322.067 173.796,322.589 176.088,324.793 176.920 C 326.023 177.384,326.739 181.926,325.600 182.040 C 325.380 182.062,324.705 182.098,324.100 182.119 C 322.649 182.171,322.078 182.757,322.170 184.101 C 322.291 185.861,321.927 186.062,318.644 186.044 C 315.132 186.026,314.000 186.698,314.000 188.800 C 314.000 189.973,313.956 190.000,312.000 190.000 L 310.000 190.000 309.978 185.900 C 309.941 178.728,309.647 175.114,309.054 174.520 C 308.914 174.381,308.800 174.499,308.800 174.782 C 308.800 175.188,308.676 175.195,308.218 174.815 C 307.897 174.549,307.419 174.464,307.156 174.627 C 306.852 174.815,306.781 174.754,306.962 174.462 C 307.131 174.188,306.993 174.000,306.624 174.000 C 306.107 174.000,306.000 173.410,306.000 170.571 C 306.000 166.793,305.666 166.101,303.878 166.179 C 302.151 166.255,302.012 165.981,301.960 162.406 C 301.907 158.747,301.590 158.104,299.878 158.179 C 298.166 158.254,297.788 157.683,297.633 154.785 C 297.568 153.570,294.129 153.859,293.370 155.143 C 293.016 155.743,292.070 156.586,291.268 157.017 C 290.466 157.447,289.743 158.160,289.662 158.600 C 289.351 160.289,287.878 162.953,286.469 164.374 C 285.661 165.189,284.692 166.429,284.317 167.131 C 283.941 167.833,283.171 168.583,282.606 168.798 C 282.042 169.012,281.468 169.506,281.331 169.894 C 280.998 170.841,279.161 172.800,278.606 172.800 C 278.362 172.800,277.452 173.528,276.583 174.417 C 275.714 175.307,274.103 176.463,273.002 176.987 C 271.901 177.510,270.640 178.268,270.200 178.669 C 269.157 179.622,267.932 180.182,265.000 181.047 C 263.680 181.436,261.790 182.148,260.800 182.629 C 255.123 185.389,240.117 185.375,234.400 182.605 C 233.410 182.125,231.520 181.419,230.200 181.036 C 227.272 180.185,226.203 179.680,225.024 178.587 C 224.183 177.808,221.608 176.400,221.024 176.400 C 220.883 176.400,220.063 175.680,219.200 174.800 C 218.337 173.920,217.490 173.200,217.316 173.200 C 216.709 173.199,214.912 171.392,214.630 170.500 C 214.474 170.005,214.131 169.600,213.869 169.600 C 213.126 169.600,211.388 167.821,210.841 166.499 C 210.569 165.841,209.940 165.119,209.443 164.892 C 208.914 164.651,208.023 163.400,207.294 161.874 C 206.610 160.440,205.813 159.117,205.525 158.934 C 204.627 158.363,202.400 152.675,202.400 150.954 C 202.400 150.649,202.235 150.400,202.033 150.400 C 199.277 150.400,198.849 127.884,201.532 124.087 C 201.955 123.489,202.435 122.370,202.600 121.600 C 203.236 118.627,204.884 114.827,205.641 114.587 C 206.059 114.454,206.400 114.103,206.400 113.806 C 206.400 112.629,208.609 108.926,210.062 107.669 C 211.408 106.504,211.600 106.119,211.600 104.591 C 211.600 103.075,211.758 102.752,212.800 102.136 C 214.141 101.345,214.443 99.665,213.400 98.800 C 212.916 98.399,212.799 98.408,212.794 98.851 C 212.790 99.182,212.671 99.241,212.494 99.000 C 211.987 98.310,211.201 98.369,211.173 99.100 C 211.151 99.657,211.057 99.617,210.712 98.900 C 210.473 98.405,210.115 98.000,209.915 98.000 C 209.716 98.000,209.688 98.225,209.853 98.500 C 210.090 98.895,210.027 98.898,209.554 98.515 C 208.249 97.460,188.800 97.962,188.800 99.051 C 188.800 99.353,188.609 99.600,188.376 99.600 C 188.143 99.600,188.064 99.420,188.200 99.200 C 188.546 98.640,187.860 98.700,187.280 99.280 C 186.700 99.860,186.640 100.546,187.200 100.200 C 187.420 100.064,187.600 100.143,187.600 100.376 C 187.600 100.609,187.330 100.800,187.000 100.800 C 186.670 100.800,186.400 101.070,186.400 101.400 C 186.400 101.993,184.519 102.127,177.090 102.060 C 176.003 102.050,175.279 102.204,175.410 102.417 C 175.541 102.628,175.340 102.675,174.951 102.526 C 174.416 102.321,174.321 102.416,174.526 102.951 C 174.673 103.335,174.627 103.540,174.422 103.414 C 174.219 103.288,174.069 103.731,174.088 104.398 C 174.134 106.022,174.229 105.981,170.259 106.037 C 166.080 106.096,163.758 106.998,163.065 108.832 C 162.667 109.889,162.450 110.000,160.792 110.000 C 158.563 110.000,158.000 110.500,158.000 112.480 L 158.000 114.000 155.500 114.046 C 154.125 114.071,152.701 114.063,152.335 114.027 C 151.970 113.991,151.552 114.153,151.408 114.387 C 151.263 114.622,150.932 114.691,150.672 114.542 C 150.413 114.394,150.333 114.419,150.497 114.599 C 150.660 114.779,150.594 115.166,150.352 115.458 C 150.109 115.751,150.004 116.233,150.118 116.531 C 150.493 117.508,149.704 118.171,148.281 118.075 C 146.663 117.966,145.824 118.769,146.093 120.172 C 146.368 121.612,145.939 122.008,143.970 122.130 C 142.317 122.233,142.196 122.319,142.143 123.420 C 142.111 124.069,142.066 124.905,142.043 125.278 C 142.010 125.796,141.550 125.985,140.100 126.078 L 138.200 126.200 138.078 128.100 C 137.985 129.550,137.796 130.010,137.278 130.043 C 136.905 130.066,136.069 130.111,135.420 130.143 C 134.319 130.196,134.233 130.317,134.130 131.970 C 134.007 133.946,133.699 134.280,132.101 134.170 C 130.757 134.078,130.171 134.649,130.119 136.100 C 130.098 136.705,130.062 137.380,130.040 137.600 C 130.018 137.820,129.580 138.000,129.067 138.000 C 128.553 138.000,127.998 138.135,127.833 138.300 C 127.668 138.465,127.368 138.600,127.167 138.600 C 126.965 138.600,126.845 138.707,126.900 138.839 C 126.955 138.970,126.786 139.335,126.525 139.649 C 126.260 139.969,126.050 141.437,126.050 142.972 C 126.050 145.913,125.821 146.289,124.101 146.170 C 122.552 146.063,122.198 146.645,122.076 149.497 C 121.960 152.208,120.887 153.871,119.076 154.145 C 118.254 154.270,118.193 154.516,118.086 158.139 C 117.985 161.518,117.883 162.000,117.266 162.000 C 116.877 162.000,116.318 162.225,116.021 162.500 C 115.590 162.900,115.539 162.900,115.765 162.500 C 116.166 161.790,115.378 161.879,114.629 162.629 C 113.879 163.378,113.790 164.166,114.500 163.765 C 114.900 163.539,114.900 163.590,114.500 164.021 C 114.159 164.389,114.000 166.058,114.000 169.280 C 114.000 173.288,113.906 174.000,113.376 174.000 C 113.033 174.000,112.842 174.144,112.951 174.321 C 113.060 174.497,112.576 174.632,111.875 174.621 C 110.700 174.602,110.602 174.700,110.621 175.875 C 110.632 176.576,110.505 177.065,110.337 176.961 C 109.839 176.653,109.970 216.882,110.470 217.484 C 111.019 218.146,111.743 218.160,111.347 217.500 C 111.132 217.142,111.233 217.151,111.704 217.533 C 112.066 217.826,112.685 218.001,113.081 217.921 C 113.476 217.841,114.248 218.186,114.796 218.688 C 116.370 220.130,118.154 220.800,120.414 220.800 C 122.416 220.800,125.353 221.422,126.200 222.025 C 126.420 222.181,127.410 222.439,128.400 222.597 C 130.167 222.878,132.862 223.544,135.564 224.366 C 136.314 224.594,137.304 225.112,137.764 225.518 C 138.224 225.923,139.904 226.753,141.498 227.362 C 143.092 227.971,144.719 228.879,145.113 229.381 C 145.508 229.882,146.274 230.427,146.815 230.593 C 147.946 230.937,149.976 232.398,152.000 234.324 C 152.770 235.056,153.853 235.927,154.406 236.259 C 154.960 236.590,155.806 237.463,156.288 238.197 C 156.770 238.932,157.682 239.840,158.317 240.214 C 158.951 240.589,159.794 241.499,160.192 242.237 C 160.589 242.974,161.695 244.438,162.650 245.489 C 163.605 246.540,164.578 248.080,164.812 248.912 C 165.046 249.743,165.847 251.052,166.593 251.820 C 167.537 252.792,168.210 254.094,168.808 256.108 C 169.280 257.699,170.255 260.170,170.974 261.600 C 171.694 263.030,172.603 265.430,172.994 266.933 C 173.386 268.436,173.953 269.760,174.253 269.876 C 174.554 269.991,174.800 270.257,174.800 270.466 C 174.800 270.676,174.665 270.764,174.500 270.662 C 174.335 270.560,174.168 271.314,174.129 272.338 C 174.089 273.362,173.871 276.859,173.642 280.110 C 173.361 284.128,173.358 286.625,173.634 287.910 C 173.858 288.949,174.023 290.492,174.002 291.337 C 173.942 293.731,174.166 293.825,180.258 293.942 C 185.857 294.050,186.594 294.162,186.177 294.837 C 185.805 295.439,186.416 297.628,186.934 297.547 C 187.190 297.507,187.670 297.592,188.000 297.735 C 188.492 297.950,229.264 297.847,231.750 297.625 C 232.840 297.527,233.500 296.712,233.500 295.462 C 233.500 293.972,233.191 294.055,239.123 293.964 C 242.039 293.919,244.522 293.726,244.640 293.535 C 244.759 293.344,245.051 293.308,245.289 293.455 C 245.539 293.609,245.609 293.539,245.455 293.289 C 245.308 293.051,245.382 292.735,245.621 292.587 C 245.859 292.440,245.958 292.067,245.840 291.760 C 245.291 290.330,245.989 290.000,249.563 290.000 C 253.522 290.000,254.000 289.733,254.000 287.520 L 254.000 286.000 257.100 285.953 C 258.805 285.927,260.411 285.931,260.670 285.963 C 261.313 286.043,261.664 285.380,261.891 283.658 C 262.125 281.887,261.659 282.146,265.199 281.821 C 268.563 281.512,269.600 280.880,269.600 279.138 C 269.600 278.234,269.785 277.993,270.500 277.967 C 273.503 277.855,273.649 277.759,273.873 275.727 C 274.073 273.906,273.915 274.058,275.743 273.935 C 277.457 273.819,277.774 273.500,277.862 271.800 C 277.897 271.140,277.942 270.465,277.962 270.300 C 277.983 270.135,278.684 270.000,279.520 270.000 C 281.436 270.000,282.000 269.436,282.000 267.520 C 282.000 266.109,282.086 265.996,283.200 265.950 C 285.527 265.853,285.808 265.626,285.935 263.740 C 286.042 262.154,286.556 261.531,287.469 261.882 C 287.767 261.996,288.249 261.891,288.542 261.648 C 288.834 261.406,289.221 261.340,289.401 261.503 C 289.581 261.667,289.606 261.587,289.458 261.328 C 289.309 261.068,289.378 260.737,289.613 260.592 C 289.847 260.448,290.009 260.030,289.973 259.665 C 289.937 259.299,289.929 257.885,289.954 256.522 L 290.000 254.044 291.900 253.922 L 293.800 253.800 294.000 251.800 C 294.195 249.853,294.235 249.798,295.544 249.736 C 297.395 249.648,297.692 249.218,297.884 246.341 C 298.013 244.413,298.234 243.711,298.852 243.278 C 299.293 242.970,299.565 242.486,299.457 242.204 C 299.333 241.882,299.509 241.750,299.930 241.850 C 301.728 242.280,302.768 234.493,301.180 232.500 C 301.136 232.445,301.078 232.180,301.050 231.912 C 300.924 230.683,296.800 229.798,296.800 231.000 C 296.800 231.330,296.609 231.600,296.376 231.600 C 296.143 231.600,296.064 231.420,296.200 231.200 C 296.558 230.621,295.774 230.708,295.281 231.302 C 295.052 231.578,294.740 232.298,294.589 232.902 C 294.280 234.132,292.133 234.573,292.133 233.406 C 292.133 232.957,292.263 232.920,292.667 233.255 C 292.960 233.499,293.223 233.586,293.250 233.449 C 293.349 232.956,293.474 232.588,293.777 231.900 C 293.947 231.515,293.982 230.930,293.855 230.600 C 293.661 230.094,294.185 230.000,297.184 230.000 C 301.252 230.000,302.000 229.592,302.000 227.371 L 302.000 226.000 305.100 225.953 C 306.805 225.927,308.345 225.930,308.521 225.960 C 308.939 226.031,310.031 224.939,309.960 224.521 C 309.930 224.345,309.927 223.705,309.953 223.100 L 310.000 222.000 313.520 222.000 C 317.525 222.000,318.000 221.737,318.000 219.520 L 318.000 218.000 321.520 218.000 C 323.724 218.000,325.219 217.821,325.520 217.520 C 326.071 216.969,326.096 217.088,326.001 219.800 C 325.919 222.140,325.944 222.100,324.567 222.100 C 322.907 222.100,322.067 223.232,322.068 225.467 C 322.072 234.139,322.052 234.339,321.177 234.110 C 319.764 233.740,318.006 235.799,318.054 237.768 C 318.075 238.666,318.072 240.885,318.047 242.700 L 318.000 246.000 316.480 246.000 C 314.265 246.000,314.000 246.476,314.000 250.458 L 314.000 253.956 312.100 254.078 L 310.200 254.200 310.081 256.258 C 309.983 257.943,309.812 258.356,309.140 258.532 C 308.623 258.667,308.419 258.941,308.589 259.273 C 308.738 259.563,308.585 259.463,308.250 259.051 C 307.680 258.351,307.597 258.346,306.971 258.971 C 306.346 259.597,306.351 259.679,307.051 260.226 C 307.588 260.646,307.630 260.782,307.200 260.706 C 306.810 260.637,306.610 260.908,306.630 261.480 C 306.646 261.964,306.511 262.269,306.330 262.157 C 306.148 262.044,306.000 262.863,306.000 263.976 L 306.000 266.000 304.480 266.000 C 302.564 266.000,302.000 266.564,302.000 268.480 C 302.000 269.902,301.923 270.000,300.800 270.000 C 299.081 270.000,297.881 271.330,298.078 273.017 C 298.210 274.149,298.090 274.391,297.301 274.589 C 296.740 274.730,296.465 275.018,296.613 275.312 C 296.749 275.580,296.582 275.458,296.242 275.041 C 295.732 274.413,295.519 274.370,295.013 274.790 C 294.359 275.332,294.152 276.201,294.766 275.821 C 295.340 275.466,294.268 278.147,293.639 278.639 C 293.330 278.881,293.205 279.284,293.360 279.535 C 293.542 279.829,293.422 279.907,293.023 279.754 C 292.683 279.623,292.519 279.332,292.658 279.106 C 292.801 278.875,292.668 278.784,292.356 278.898 C 292.050 279.009,291.845 279.302,291.900 279.550 C 291.955 279.797,291.775 279.955,291.500 279.900 C 291.197 279.839,291.005 280.222,291.013 280.870 C 291.021 281.459,290.902 281.863,290.748 281.768 C 290.595 281.673,290.094 282.092,289.634 282.698 C 289.174 283.304,288.908 283.485,289.042 283.100 C 289.208 282.623,289.081 282.400,288.643 282.400 C 288.289 282.400,288.000 282.659,288.000 282.976 C 288.000 283.293,287.822 283.663,287.605 283.797 C 287.373 283.940,287.304 283.742,287.437 283.321 C 287.641 282.677,287.598 282.683,287.033 283.376 C 286.685 283.804,286.403 284.434,286.406 284.776 C 286.412 285.325,286.459 285.328,286.800 284.800 C 287.013 284.470,287.191 284.389,287.194 284.620 C 287.205 285.359,286.272 286.000,285.187 286.000 C 284.607 286.000,283.998 286.135,283.833 286.300 C 283.668 286.465,283.323 286.600,283.067 286.600 C 282.810 286.600,282.600 286.810,282.600 287.067 C 282.600 287.323,282.465 287.668,282.300 287.833 C 282.135 287.998,282.000 288.553,282.000 289.067 C 282.000 289.939,281.048 290.306,279.479 290.040 C 278.832 289.931,278.169 291.035,278.073 292.379 C 277.952 294.089,278.058 294.000,275.975 294.130 L 274.238 294.238 274.130 295.975 C 273.993 298.180,274.259 298.034,270.360 298.042 C 266.506 298.051,266.000 298.330,266.000 300.449 C 266.000 302.170,266.091 302.141,261.100 302.051 C 259.675 302.026,259.200 302.165,259.200 302.609 C 259.200 302.934,258.917 303.200,258.571 303.200 C 258.165 303.200,257.968 303.518,258.016 304.100 C 258.167 305.968,258.116 306.000,255.055 306.000 C 251.782 306.000,250.000 307.077,250.000 309.055 C 250.000 310.069,249.933 310.076,240.216 310.067 C 238.821 310.066,237.871 310.322,237.016 310.931 C 236.347 311.407,235.710 311.798,235.600 311.798 C 235.490 311.799,235.431 311.894,235.470 312.010 C 235.508 312.125,235.238 312.619,234.870 313.108 L 234.200 313.996 217.400 314.016 C 184.440 314.056,186.000 314.094,186.000 313.267 C 186.000 312.863,185.867 312.401,185.705 312.238 C 185.543 312.076,185.408 311.655,185.405 311.302 C 185.397 310.324,183.667 310.051,177.974 310.129 C 173.457 310.191,172.763 310.115,172.580 309.536 C 172.464 309.171,172.075 308.631,171.715 308.336 C 171.167 307.887,171.177 307.979,171.776 308.900 L 172.492 310.000 171.246 310.000 C 170.340 310.000,170.000 309.814,170.000 309.320 C 170.000 308.791,169.893 308.747,169.520 309.120 C 169.256 309.384,168.448 309.600,167.724 309.600 C 166.662 309.600,166.233 309.868,165.504 310.987 C 165.007 311.751,164.006 312.696,163.279 313.087 C 162.512 313.501,161.609 314.498,161.126 315.466 C 160.333 317.051,153.547 324.291,151.751 325.469 C 151.172 325.848,150.817 326.627,150.636 327.913 C 150.491 328.951,150.284 330.385,150.176 331.100 C 150.026 332.101,150.127 332.400,150.614 332.400 C 150.962 332.400,151.149 332.560,151.028 332.755 C 150.547 333.533,151.990 333.890,155.917 333.965 C 159.978 334.042,163.047 335.430,162.196 336.806 C 161.978 337.159,162.954 338.057,163.458 337.967 C 163.646 337.933,166.160 337.927,169.045 337.953 L 174.289 338.000 174.110 338.937 C 174.006 339.482,174.208 340.151,174.594 340.537 C 174.959 340.902,175.109 341.215,174.929 341.234 C 174.748 341.253,175.136 341.429,175.791 341.624 C 176.446 341.819,191.901 341.981,210.136 341.984 L 243.292 341.988 244.688 340.592 C 245.531 339.749,245.993 338.959,245.855 338.598 C 245.657 338.084,246.440 338.000,251.398 338.000 C 257.796 338.000,258.000 337.914,258.000 335.226 L 258.000 334.000 261.700 333.980 C 269.124 333.940,269.419 333.853,269.800 331.598 L 270.070 330.000 272.135 329.976 C 277.537 329.915,277.684 329.856,277.813 327.705 L 277.902 326.200 280.651 325.896 C 282.163 325.729,283.670 325.570,284.000 325.542 C 284.854 325.469,285.666 324.749,285.471 324.236 C 285.019 323.048,285.973 322.000,287.507 322.000 C 289.425 322.000,290.000 321.439,290.000 319.568 L 290.000 318.096 292.500 317.843 C 293.875 317.704,295.352 317.584,295.782 317.576 C 296.964 317.556,297.549 316.877,297.511 315.568 C 297.469 314.087,297.462 314.094,299.511 313.889 C 301.584 313.682,301.665 313.607,301.873 311.727 C 302.073 309.906,301.915 310.058,303.743 309.935 C 305.622 309.808,305.852 309.525,305.950 307.222 C 305.997 306.109,306.104 306.037,307.900 305.922 L 309.800 305.800 309.921 303.921 L 310.042 302.042 311.921 301.921 L 313.800 301.800 313.921 299.921 L 314.042 298.042 315.921 297.921 L 317.800 297.800 317.922 295.900 L 318.044 294.000 319.542 294.000 C 321.457 294.000,322.000 293.431,322.001 291.420 C 322.002 289.839,322.036 289.799,323.412 289.770 C 325.660 289.721,325.911 289.150,325.976 283.922 L 326.000 282.044 327.900 281.922 L 329.800 281.800 329.922 279.900 C 330.042 278.033,330.067 278.000,331.393 278.000 C 333.565 278.000,334.000 277.228,334.000 273.371 L 334.000 270.000 335.520 270.000 C 337.544 270.000,338.000 269.439,338.000 266.947 C 338.000 265.196,338.133 264.812,338.811 264.597 C 339.257 264.455,339.927 263.858,340.301 263.270 C 340.675 262.681,341.210 262.056,341.490 261.880 C 341.845 261.658,342.000 260.408,342.000 257.780 L 342.000 254.000 343.100 253.953 C 343.705 253.927,344.345 253.930,344.521 253.960 C 345.462 254.119,345.892 252.761,345.966 249.394 C 346.045 245.816,346.308 245.160,347.544 245.454 C 349.453 245.909,349.908 243.821,349.972 234.318 L 350.000 230.036 351.386 229.776 C 353.818 229.320,353.790 229.473,353.900 215.711 C 354.001 203.109,353.872 201.771,352.581 202.019 C 352.445 202.045,352.213 201.933,352.067 201.769 C 351.920 201.606,352.001 201.586,352.247 201.726 C 352.492 201.867,352.974 201.670,353.318 201.291 C 353.987 200.551,354.000 200.509,354.000 199.022 C 354.000 198.139,354.185 198.032,355.900 197.922 L 357.800 197.800 357.922 195.900 L 358.044 194.000 360.522 193.954 C 361.885 193.929,363.299 193.937,363.665 193.973 C 364.030 194.009,364.448 193.847,364.592 193.613 C 364.737 193.378,365.068 193.309,365.328 193.458 C 365.587 193.606,365.667 193.581,365.503 193.401 C 365.340 193.221,365.406 192.834,365.648 192.542 C 365.891 192.249,365.996 191.767,365.882 191.469 C 365.531 190.554,366.246 189.900,367.655 189.846 C 369.496 189.775,369.934 189.404,369.837 188.000 C 369.721 186.321,369.955 186.096,372.000 185.925 C 373.026 185.839,373.821 185.565,373.850 185.287 C 373.878 185.019,373.923 184.180,373.950 183.422 C 373.999 182.070,374.036 182.042,375.900 181.922 L 377.800 181.800 377.921 179.921 L 378.042 178.042 379.921 177.921 L 381.800 177.800 381.921 175.921 L 382.042 174.042 383.921 173.921 L 385.800 173.800 385.921 171.921 L 386.042 170.042 387.921 169.921 L 389.800 169.800 389.921 167.921 L 390.042 166.042 391.921 165.921 L 393.800 165.800 394.000 163.850 C 394.198 161.918,394.213 161.900,395.705 161.812 C 397.858 161.684,397.915 161.540,397.976 156.100 C 397.999 154.133,398.063 154.000,399.000 154.000 L 400.000 154.000 400.000 136.027 L 400.000 118.053 398.900 117.927 C 397.920 117.814,397.814 117.659,397.930 116.501 C 398.094 114.862,397.383 114.144,395.600 114.147 C 394.259 114.150,394.194 114.083,394.070 112.580 C 393.909 110.626,393.359 109.935,392.032 110.019 C 390.153 110.138,390.000 110.034,390.000 108.629 C 390.000 106.525,389.319 106.128,385.616 106.074 C 381.747 106.018,381.726 106.008,381.842 104.324 C 381.960 102.619,381.364 101.935,379.831 102.016 C 379.154 102.052,377.600 102.063,376.377 102.041 L 374.154 102.000 373.777 100.371 C 373.570 99.476,373.293 98.801,373.161 98.871 C 373.030 98.942,372.651 98.774,372.319 98.499 C 371.977 98.215,370.780 98.022,369.558 98.053 C 368.371 98.084,365.143 98.085,362.384 98.055 L 357.368 98.000 357.384 96.905 C 357.393 96.303,357.190 95.808,356.933 95.805 C 356.677 95.802,356.317 95.636,356.133 95.436 C 355.942 95.226,356.001 95.187,356.272 95.342 C 356.532 95.491,356.846 95.449,356.970 95.248 C 357.094 95.048,356.896 94.769,356.530 94.628 C 356.164 94.488,355.717 94.604,355.538 94.886 C 355.352 95.180,355.210 95.214,355.206 94.967 C 355.197 94.318,355.465 94.330,337.031 94.150 C 320.481 93.988,319.843 93.954,319.309 93.191 C 318.558 92.120,317.521 92.196,316.475 93.400 C 315.491 94.531,315.786 94.705,317.112 93.777 C 317.601 93.434,318.205 93.280,318.455 93.434 C 318.985 93.762,317.388 94.764,316.300 94.786 C 315.915 94.794,315.597 95.025,315.594 95.300 C 315.589 95.674,315.503 95.666,315.250 95.266 C 314.982 94.845,314.855 94.880,314.642 95.434 C 314.487 95.839,314.590 96.274,314.886 96.462 C 315.268 96.704,315.275 96.789,314.913 96.794 C 314.644 96.797,314.529 97.070,314.655 97.400 C 314.782 97.730,314.696 98.000,314.465 98.000 C 314.233 98.000,313.989 97.145,313.922 96.100 C 313.806 94.298,313.738 94.197,312.600 94.143 C 311.940 94.111,311.095 94.066,310.722 94.043 C 310.204 94.010,310.015 93.550,309.922 92.100 L 309.800 90.200 307.900 90.078 L 306.000 89.956 306.000 88.378 C 306.000 87.215,305.836 86.800,305.376 86.800 C 305.033 86.800,304.849 86.644,304.966 86.454 C 305.084 86.264,304.690 86.104,304.090 86.097 C 302.087 86.077,302.000 86.019,301.994 84.700 C 301.983 82.475,301.664 82.258,297.930 81.929 C 297.051 81.851,296.926 81.711,297.230 81.144 C 297.717 80.235,297.703 79.489,297.205 79.797 C 296.986 79.933,296.907 79.788,297.028 79.472 C 297.148 79.159,296.966 78.796,296.623 78.664 C 296.270 78.529,295.997 78.636,295.994 78.913 C 295.989 79.271,295.901 79.263,295.659 78.881 C 295.473 78.589,294.210 78.267,292.765 78.143 C 289.990 77.905,289.624 77.655,289.904 76.189 C 290.166 74.821,289.260 74.122,287.293 74.171 C 285.559 74.215,285.400 74.038,285.583 72.276 C 285.688 71.263,284.774 70.195,284.366 70.855 C 284.127 71.242,283.921 71.232,283.414 70.812 C 282.823 70.321,281.449 70.086,278.800 70.024 C 278.030 70.005,277.781 69.770,277.717 69.000 C 277.545 66.945,277.445 66.721,276.547 66.380 C 276.040 66.187,274.945 66.044,274.113 66.061 C 269.945 66.148,269.617 65.969,269.396 63.500 C 269.319 62.630,268.802 62.059,268.794 62.833 C 268.789 63.299,268.721 63.293,268.409 62.800 C 268.114 62.331,266.933 62.171,263.015 62.067 C 258.675 61.953,257.994 61.845,257.954 61.267 C 257.928 60.900,257.866 60.420,257.815 60.200 C 257.764 59.980,257.692 59.440,257.655 59.000 C 257.599 58.332,257.524 58.299,257.200 58.800 C 256.865 59.319,256.811 59.310,256.806 58.734 C 256.801 58.218,256.418 58.069,255.100 58.072 C 245.115 58.090,245.642 58.266,245.255 54.800 C 245.195 54.267,245.145 54.267,244.800 54.800 C 244.497 55.268,244.411 55.280,244.406 54.853 C 244.402 54.504,244.110 54.382,243.599 54.516 C 243.159 54.631,242.896 54.568,243.015 54.376 C 243.138 54.177,228.737 54.023,209.683 54.020 L 176.135 54.015 175.015 55.184 M342.400 122.628 C 342.400 122.943,342.625 123.203,342.900 123.206 C 343.241 123.210,343.214 123.330,342.816 123.582 C 341.841 124.199,343.487 125.707,344.909 125.499 C 345.528 125.408,346.118 125.467,346.219 125.630 C 346.320 125.793,349.852 125.944,354.069 125.964 C 362.761 126.007,361.989 125.833,362.142 127.779 C 362.297 129.740,362.799 129.987,366.653 129.994 C 370.005 130.000,370.642 130.379,370.438 132.247 C 370.358 132.980,371.445 133.638,372.867 133.717 L 374.200 133.792 374.074 137.896 C 373.953 141.840,373.914 142.000,373.054 142.000 C 372.562 142.000,371.918 142.225,371.621 142.500 C 371.190 142.900,371.139 142.900,371.365 142.500 C 371.746 141.824,371.276 141.867,370.571 142.571 C 369.867 143.276,369.824 143.746,370.500 143.365 C 370.900 143.139,370.900 143.190,370.500 143.621 C 370.225 143.918,370.000 144.647,370.000 145.243 C 370.000 146.138,369.858 146.288,369.177 146.110 C 368.134 145.837,365.941 147.843,366.028 148.991 C 366.142 150.503,366.011 150.691,364.986 150.495 C 363.561 150.223,362.287 151.449,362.499 152.891 C 362.588 153.501,362.513 154.000,362.331 154.000 C 362.149 154.000,362.000 154.900,362.000 156.000 C 362.000 157.980,361.987 158.000,360.700 158.046 C 357.935 158.144,358.145 157.936,358.046 160.678 C 358.002 161.911,357.934 161.960,356.100 162.078 L 354.200 162.200 354.078 164.100 L 353.956 166.000 352.378 166.000 C 351.510 166.000,350.665 166.002,350.500 166.004 C 350.335 166.006,350.092 162.780,349.959 158.835 C 349.761 152.925,349.603 151.546,349.059 151.002 C 348.577 150.520,348.398 150.485,348.394 150.871 C 348.390 151.193,348.273 151.244,348.094 151.000 C 347.932 150.780,347.440 150.538,347.000 150.462 C 345.935 150.278,346.022 150.608,345.937 146.465 C 345.854 142.374,345.665 142.039,343.500 142.142 L 342.000 142.214 341.956 139.407 C 341.931 137.863,341.938 136.240,341.971 135.800 C 342.048 134.763,339.670 131.575,338.510 131.159 C 338.266 131.072,338.021 130.100,337.966 129.000 C 337.839 126.462,337.467 126.000,335.551 126.000 L 334.000 126.000 334.000 124.029 C 334.000 121.704,333.896 121.750,338.845 121.928 C 341.600 122.028,342.400 122.185,342.400 122.628 M300.300 123.300 C 300.245 123.575,300.419 123.757,300.686 123.705 C 300.991 123.645,301.075 123.867,300.911 124.305 C 300.693 124.886,300.750 124.919,301.258 124.506 C 301.747 124.110,301.867 124.121,301.867 124.561 C 301.867 124.863,301.582 125.054,301.233 124.985 C 300.885 124.917,300.454 124.847,300.276 124.831 C 300.098 124.814,300.064 124.620,300.200 124.400 C 300.336 124.180,300.145 124.000,299.775 124.000 C 299.222 124.000,299.191 123.893,299.600 123.400 C 300.207 122.669,300.433 122.637,300.300 123.300 M214.708 187.100 C 215.033 187.799,215.070 188.243,214.812 188.329 C 214.177 188.541,215.506 189.660,216.297 189.580 C 217.956 189.410,218.400 189.613,218.400 190.539 C 218.400 191.753,219.559 193.074,220.924 193.417 L 222.000 193.687 221.994 197.943 C 221.991 200.285,221.813 202.470,221.600 202.800 C 221.342 203.200,221.210 203.233,221.206 202.900 C 221.203 202.625,220.930 202.400,220.600 202.400 C 220.270 202.400,220.000 202.687,220.000 203.037 C 220.000 203.388,219.640 203.769,219.200 203.884 C 218.375 204.100,218.065 205.200,218.829 205.200 C 219.759 205.200,216.778 207.351,215.800 207.386 C 215.580 207.394,215.394 207.580,215.386 207.800 C 215.315 209.808,214.686 210.000,208.186 210.000 C 202.051 210.000,202.000 209.993,201.954 209.100 C 201.928 208.605,201.866 208.020,201.815 207.800 C 201.764 207.580,201.694 207.126,201.661 206.791 C 201.618 206.366,201.103 206.162,199.959 206.117 C 199.057 206.081,198.236 205.970,198.136 205.870 C 197.954 205.688,197.923 190.341,198.104 190.165 C 198.157 190.115,199.010 190.006,200.000 189.924 C 201.027 189.838,201.821 189.565,201.850 189.287 C 201.878 189.019,201.923 188.170,201.950 187.400 L 202.000 186.000 208.100 186.003 L 214.200 186.006 214.708 187.100 M265.251 191.316 C 266.659 191.900,267.200 192.863,267.842 195.932 C 268.557 199.349,269.138 199.741,273.317 199.631 C 278.169 199.502,280.530 201.021,278.836 203.180 C 278.396 203.741,277.661 204.946,277.203 205.858 C 276.652 206.953,275.933 207.691,275.085 208.031 C 273.483 208.673,271.482 210.280,271.935 210.560 C 272.121 210.675,272.590 212.115,272.977 213.759 C 273.365 215.404,274.009 217.046,274.408 217.407 C 275.053 217.991,275.075 218.206,274.603 219.332 C 273.602 221.722,268.750 221.538,267.285 219.055 C 266.715 218.088,265.963 217.581,264.216 216.988 L 261.903 216.201 260.051 218.250 C 258.733 219.709,257.739 220.415,256.600 220.702 C 255.720 220.923,254.693 221.232,254.318 221.388 C 251.465 222.574,250.919 215.770,253.633 212.857 C 254.055 212.404,254.400 211.767,254.400 211.440 C 254.400 211.114,254.589 210.731,254.819 210.588 C 255.479 210.181,254.536 209.304,252.868 208.774 C 252.061 208.517,250.988 207.878,250.484 207.354 C 249.980 206.829,249.440 206.400,249.284 206.400 C 248.929 206.399,246.800 202.647,246.800 202.022 C 246.800 200.404,248.840 199.600,252.958 199.594 C 257.093 199.588,258.922 199.108,259.072 197.990 C 259.115 197.665,259.264 196.371,259.403 195.113 C 259.844 191.100,261.748 189.864,265.251 191.316 M4.300 216.082 C 4.208 216.526,4.374 216.608,5.649 216.750 C 5.957 216.784,5.935 216.997,5.579 217.425 C 5.116 217.983,5.023 217.985,4.719 217.442 C 4.525 217.095,4.082 216.928,3.689 217.054 C 3.105 217.242,3.091 217.210,3.600 216.844 C 3.930 216.606,4.054 216.409,3.876 216.406 C 3.698 216.403,3.664 216.220,3.800 216.000 C 4.139 215.451,4.421 215.497,4.300 216.082 M199.618 223.313 C 202.305 225.430,202.380 231.988,199.726 232.654 C 197.424 233.232,193.164 232.613,192.375 231.585 C 191.481 230.421,191.299 225.421,192.113 224.371 C 193.299 222.840,198.150 222.156,199.618 223.313 M234.823 224.500 C 235.236 224.995,235.579 225.545,235.587 225.723 C 235.612 226.334,238.180 228.400,238.915 228.400 C 241.060 228.400,242.117 229.746,241.372 231.528 C 241.058 232.281,240.794 233.281,240.786 233.749 C 240.779 234.217,240.425 235.320,240.000 236.200 C 239.526 237.182,239.222 238.670,239.214 240.051 C 239.196 242.932,238.568 243.562,236.966 242.302 C 235.300 240.992,229.206 240.968,227.388 242.265 C 225.517 243.599,224.800 242.955,224.800 239.941 C 224.800 238.610,224.550 236.954,224.244 236.260 C 222.029 231.240,222.164 229.031,224.715 228.552 C 226.121 228.288,228.800 226.265,228.800 225.467 C 228.800 223.544,233.408 222.804,234.823 224.500 M286.587 234.306 C 286.359 234.468,286.179 234.945,286.187 235.367 C 286.194 235.788,285.969 236.210,285.688 236.304 C 285.406 236.398,285.226 236.256,285.288 235.988 C 285.473 235.184,284.543 235.114,283.782 235.875 C 283.260 236.398,283.123 236.429,283.267 235.993 C 283.375 235.667,283.876 235.192,284.380 234.939 C 285.218 234.517,285.233 234.461,284.549 234.285 C 284.137 234.179,284.520 234.075,285.400 234.053 C 286.280 234.030,286.814 234.144,286.587 234.306 M282.772 237.700 C 282.787 237.865,282.395 237.986,281.900 237.968 C 281.405 237.951,281.225 237.846,281.500 237.735 C 281.775 237.624,282.013 237.143,282.028 236.667 C 282.056 235.814,282.676 236.676,282.772 237.700 M284.516 237.200 C 284.301 238.021,283.200 238.336,283.200 237.576 C 283.200 237.343,283.361 237.252,283.558 237.374 C 283.755 237.496,284.019 237.326,284.146 236.998 C 284.483 236.119,284.759 236.270,284.516 237.200 " stroke="none" fill="#23aae3" fill-rule="evenodd"></path><path id="path2" d="M175.141 54.268 C 174.353 54.477,173.899 55.890,174.499 56.261 C 174.733 56.406,174.810 56.340,174.671 56.115 C 174.351 55.597,175.752 54.296,176.197 54.699 C 176.379 54.865,176.399 54.775,176.241 54.500 C 176.082 54.225,175.918 54.021,175.876 54.046 C 175.834 54.072,175.503 54.172,175.141 54.268 M282.960 70.572 C 283.597 70.925,284.212 71.121,284.326 71.007 C 284.642 70.691,284.313 70.491,282.999 70.198 L 281.800 69.931 282.960 70.572 M234.288 84.816 C 234.515 85.682,234.899 85.566,235.043 84.588 C 235.090 84.265,234.892 84.000,234.602 84.000 C 234.268 84.000,234.153 84.299,234.288 84.816 M316.697 91.634 C 315.902 92.096,314.223 95.156,314.572 95.505 C 314.697 95.631,314.803 95.478,314.806 95.167 C 314.811 94.700,314.881 94.706,315.200 95.200 C 315.458 95.600,315.590 95.633,315.594 95.300 C 315.597 95.025,315.915 94.794,316.300 94.786 C 317.388 94.764,318.985 93.762,318.455 93.434 C 318.205 93.280,317.601 93.434,317.112 93.777 C 315.786 94.705,315.491 94.531,316.475 93.400 C 317.524 92.194,318.616 92.116,319.293 93.200 C 319.820 94.043,320.800 94.292,320.800 93.582 C 320.800 92.086,318.112 90.810,316.697 91.634 M210.406 98.300 C 210.422 99.056,211.188 99.811,211.194 99.076 C 211.198 98.632,211.378 98.463,211.662 98.638 C 211.948 98.815,212.015 98.748,211.838 98.462 C 211.523 97.952,210.396 97.824,210.406 98.300 M163.398 107.602 C 162.375 108.732,162.810 108.837,163.886 107.720 C 164.373 107.214,164.626 106.800,164.448 106.800 C 164.270 106.800,163.797 107.161,163.398 107.602 M90.629 110.629 C 89.580 111.677,89.926 112.209,91.000 111.200 C 91.550 110.683,92.000 110.202,92.000 110.130 C 92.000 109.776,91.185 110.072,90.629 110.629 M83.018 123.018 C 81.828 124.209,81.808 124.267,82.600 124.267 C 82.930 124.267,83.112 124.178,83.003 124.070 C 82.721 123.788,83.634 122.774,83.979 122.987 C 84.137 123.085,84.267 122.903,84.267 122.582 C 84.267 121.810,84.205 121.832,83.018 123.018 M298.631 123.018 C 298.360 124.098,299.228 125.600,300.123 125.600 C 300.343 125.600,300.135 125.264,299.661 124.853 C 298.692 124.012,298.558 123.356,299.300 123.083 C 299.671 122.947,299.684 122.777,299.351 122.421 C 299.009 122.056,298.837 122.199,298.631 123.018 M299.600 123.400 C 299.191 123.893,299.222 124.000,299.775 124.000 C 300.145 124.000,300.336 124.180,300.200 124.400 C 300.064 124.620,300.098 124.814,300.276 124.831 C 300.454 124.847,300.885 124.917,301.233 124.985 C 301.582 125.054,301.867 124.863,301.867 124.561 C 301.867 124.121,301.747 124.110,301.258 124.506 C 300.750 124.919,300.693 124.886,300.911 124.305 C 301.075 123.867,300.991 123.645,300.686 123.705 C 300.419 123.757,300.245 123.575,300.300 123.300 C 300.433 122.637,300.207 122.669,299.600 123.400 M338.892 131.424 C 339.492 131.750,340.250 132.508,340.576 133.108 C 341.015 133.919,341.172 134.015,341.184 133.482 C 341.205 132.553,339.447 130.795,338.518 130.816 C 337.985 130.828,338.081 130.985,338.892 131.424 M367.141 146.268 C 366.353 146.477,365.899 147.890,366.499 148.261 C 366.733 148.406,366.810 148.340,366.671 148.115 C 366.351 147.597,367.752 146.296,368.197 146.699 C 368.379 146.865,368.399 146.775,368.241 146.500 C 368.082 146.225,367.918 146.021,367.876 146.046 C 367.834 146.072,367.503 146.172,367.141 146.268 M95.600 170.209 C 95.600 170.530,95.240 171.018,94.800 171.293 C 93.957 171.820,93.708 172.800,94.418 172.800 C 95.693 172.800,97.235 170.252,96.200 169.855 C 95.835 169.715,95.600 169.854,95.600 170.209 M55.141 170.268 C 54.779 170.364,54.383 170.838,54.261 171.321 C 54.073 172.066,54.116 172.109,54.538 171.600 C 54.812 171.270,55.289 170.775,55.598 170.500 C 55.907 170.225,56.079 170.021,55.980 170.046 C 55.881 170.072,55.503 170.172,55.141 170.268 M306.962 174.462 C 306.781 174.754,306.852 174.815,307.156 174.627 C 307.419 174.464,307.897 174.549,308.218 174.815 C 308.561 175.100,308.800 175.131,308.800 174.892 C 308.800 174.668,308.515 174.376,308.167 174.243 C 307.327 173.920,307.293 173.927,306.962 174.462 M322.800 175.552 C 322.800 175.942,324.355 177.398,324.523 177.164 C 324.587 177.074,324.226 176.601,323.720 176.114 C 323.214 175.627,322.800 175.374,322.800 175.552 M214.198 186.999 C 214.491 188.313,214.691 188.642,215.007 188.326 C 215.121 188.212,214.925 187.597,214.572 186.960 L 213.931 185.800 214.198 186.999 M27.141 190.268 C 26.779 190.364,26.383 190.838,26.261 191.321 C 26.073 192.066,26.116 192.109,26.538 191.600 C 26.812 191.270,27.289 190.775,27.598 190.500 C 27.907 190.225,28.079 190.021,27.980 190.046 C 27.881 190.072,27.503 190.172,27.141 190.268 M218.400 191.877 C 218.400 192.534,219.914 193.698,220.477 193.473 C 220.889 193.308,220.882 193.256,220.447 193.232 C 220.143 193.214,219.558 192.812,219.147 192.339 C 218.736 191.865,218.400 191.657,218.400 191.877 M93.734 199.200 C 93.734 200.850,93.805 201.525,93.891 200.700 C 93.978 199.875,93.978 198.525,93.891 197.700 C 93.805 196.875,93.734 197.550,93.734 199.200 M353.204 201.396 C 352.932 201.723,352.522 201.875,352.293 201.734 C 352.049 201.583,351.996 201.670,352.166 201.945 C 352.325 202.202,352.623 202.309,352.828 202.183 C 353.032 202.056,353.200 202.143,353.200 202.376 C 353.200 202.609,353.402 202.800,353.649 202.800 C 353.976 202.800,353.979 202.656,353.658 202.270 C 353.338 201.884,353.346 201.614,353.690 201.270 C 353.948 201.012,354.056 200.800,353.929 200.800 C 353.802 200.800,353.476 201.068,353.204 201.396 M219.600 202.904 C 219.600 203.255,219.285 203.624,218.900 203.724 C 218.244 203.896,218.245 203.910,218.913 203.954 C 219.636 204.001,220.306 202.973,219.849 202.516 C 219.712 202.379,219.600 202.553,219.600 202.904 M217.100 206.276 C 216.715 206.376,216.400 206.661,216.400 206.909 C 216.400 207.243,216.283 207.243,215.950 206.910 C 215.308 206.268,214.313 207.196,214.889 207.900 C 215.160 208.231,215.162 208.400,214.896 208.400 C 214.674 208.400,214.390 208.805,214.263 209.300 C 214.039 210.173,214.055 210.170,214.786 209.210 C 215.201 208.665,215.508 208.043,215.470 207.828 C 215.431 207.613,215.580 207.421,215.800 207.403 C 216.020 207.384,216.740 207.068,217.400 206.701 C 218.579 206.044,218.487 205.913,217.100 206.276 M62.400 206.862 C 62.400 207.022,62.583 207.266,62.807 207.404 C 63.030 207.542,63.122 207.802,63.011 207.982 C 62.900 208.162,63.061 208.518,63.369 208.774 C 63.762 209.100,64.008 209.111,64.194 208.810 C 64.340 208.573,64.229 208.430,63.948 208.490 C 63.378 208.613,63.185 207.628,63.653 206.986 C 63.834 206.738,63.642 206.571,63.178 206.571 C 62.750 206.571,62.400 206.702,62.400 206.862 M5.411 214.783 C 5.281 214.993,4.944 215.077,4.662 214.968 C 4.081 214.745,2.532 216.265,2.932 216.666 C 3.076 216.809,2.993 217.168,2.748 217.463 C 2.309 217.992,2.366 218.018,3.900 217.996 C 4.065 217.993,4.205 217.768,4.211 217.496 C 4.229 216.623,4.808 216.028,5.413 216.260 C 5.837 216.423,6.000 216.195,6.000 215.443 C 6.000 214.352,5.809 214.138,5.411 214.783 M4.800 215.551 C 4.800 216.063,3.624 216.957,3.333 216.667 C 3.043 216.376,3.937 215.200,4.449 215.200 C 4.642 215.200,4.800 215.358,4.800 215.551 M4.639 216.737 C 4.229 217.400,5.051 218.062,5.546 217.466 C 5.919 217.016,5.893 216.845,5.423 216.664 C 5.094 216.538,4.742 216.571,4.639 216.737 M318.629 234.629 C 317.580 235.677,317.926 236.209,319.000 235.200 C 319.550 234.683,320.000 234.202,320.000 234.130 C 320.000 233.776,319.185 234.072,318.629 234.629 M284.432 234.906 C 283.899 235.178,283.375 235.667,283.267 235.993 C 283.123 236.429,283.260 236.398,283.782 235.875 C 284.543 235.114,285.473 235.184,285.288 235.988 C 285.226 236.256,285.406 236.398,285.688 236.304 C 286.292 236.103,286.379 234.724,285.800 234.540 C 285.580 234.470,284.964 234.635,284.432 234.906 M284.146 236.998 C 284.019 237.326,283.755 237.496,283.558 237.374 C 283.361 237.252,283.200 237.343,283.200 237.576 C 283.200 238.336,284.301 238.021,284.516 237.200 C 284.759 236.270,284.483 236.119,284.146 236.998 M107.400 238.435 C 105.860 238.881,103.970 239.429,103.200 239.652 C 102.430 239.876,100.900 240.253,99.800 240.490 C 96.149 241.279,94.096 244.494,95.771 246.800 C 96.011 247.130,96.565 248.120,97.003 249.000 C 97.442 249.880,98.185 251.027,98.656 251.548 C 99.126 252.070,100.004 253.751,100.606 255.285 C 101.208 256.820,102.208 258.595,102.829 259.230 C 103.450 259.865,104.133 261.017,104.346 261.791 C 104.560 262.564,105.379 263.950,106.167 264.870 C 106.955 265.791,107.600 266.782,107.600 267.072 C 107.600 267.362,107.766 267.600,107.968 267.600 C 108.171 267.600,108.446 268.095,108.579 268.700 C 108.713 269.305,109.472 270.430,110.267 271.200 C 111.061 271.970,111.955 273.174,112.251 273.876 C 112.548 274.578,113.423 275.634,114.195 276.224 C 114.968 276.813,115.600 277.544,115.600 277.848 C 115.600 278.152,116.545 279.367,117.700 280.549 C 118.855 281.731,120.250 283.184,120.800 283.779 C 121.350 284.374,122.160 285.247,122.600 285.720 C 123.643 286.841,128.791 291.760,131.639 294.358 C 132.870 295.481,134.069 296.400,134.304 296.400 C 134.539 296.400,135.360 297.010,136.128 297.757 C 136.897 298.503,138.622 299.698,139.963 300.412 C 141.303 301.127,142.400 301.862,142.400 302.046 C 142.400 302.639,145.908 304.010,146.673 303.717 C 149.290 302.713,151.620 299.349,152.264 295.647 C 152.554 293.975,153.146 292.128,153.579 291.543 C 156.120 288.106,156.124 268.333,153.585 265.400 C 153.204 264.960,152.770 264.150,152.621 263.600 C 152.472 263.050,152.195 262.240,152.006 261.800 C 151.817 261.360,151.350 260.137,150.970 259.081 C 150.589 258.026,149.952 256.988,149.555 256.776 C 149.157 256.563,148.530 255.717,148.160 254.895 C 147.520 253.472,146.280 252.014,143.236 249.104 C 140.001 246.011,138.085 244.400,137.644 244.400 C 137.104 244.400,135.305 243.288,134.405 242.398 C 133.796 241.796,132.019 241.175,126.400 239.597 C 124.750 239.134,122.950 238.558,122.400 238.318 C 120.425 237.454,110.519 237.531,107.400 238.435 M32.471 246.664 C 32.542 247.027,32.903 247.369,33.272 247.423 C 34.088 247.542,33.816 246.568,32.940 246.232 C 32.535 246.077,32.384 246.216,32.471 246.664 M52.000 251.685 C 52.000 251.858,52.360 252.000,52.800 252.000 C 53.240 252.000,53.600 251.831,53.600 251.625 C 53.600 251.419,53.240 251.277,52.800 251.310 C 52.360 251.343,52.000 251.512,52.000 251.685 M308.403 258.389 C 307.895 258.711,307.889 258.843,308.362 259.283 C 308.785 259.677,308.850 259.680,308.633 259.297 C 308.455 258.981,308.695 258.654,309.274 258.422 C 309.783 258.218,309.930 258.042,309.600 258.031 C 309.270 258.021,308.732 258.182,308.403 258.389 M106.961 262.522 C 105.822 263.167,105.214 261.871,105.863 260.181 C 106.076 259.624,106.257 259.749,106.827 260.848 C 107.422 261.994,107.442 262.249,106.961 262.522 M306.187 260.840 C 306.041 261.302,306.088 261.848,306.293 262.053 C 306.524 262.284,306.654 262.078,306.633 261.513 C 306.613 260.955,306.806 260.643,307.130 260.710 C 307.421 260.770,307.545 260.635,307.406 260.410 C 306.999 259.750,306.474 259.935,306.187 260.840 M77.276 262.500 C 76.481 264.057,75.901 265.745,75.591 267.400 C 75.426 268.280,75.001 270.440,74.646 272.200 C 73.839 276.200,73.839 281.405,74.647 284.800 C 74.987 286.230,75.362 288.030,75.480 288.800 C 75.598 289.570,75.833 290.380,76.002 290.600 C 76.171 290.820,76.441 291.796,76.602 292.770 C 76.904 294.598,78.366 297.568,79.635 298.930 C 80.034 299.358,80.476 300.269,80.618 300.954 C 80.760 301.639,81.574 302.920,82.427 303.800 C 83.281 304.680,85.300 306.759,86.913 308.420 C 88.527 310.081,90.428 311.680,91.137 311.974 C 91.847 312.268,92.736 312.891,93.114 313.360 C 93.725 314.118,97.686 315.897,100.400 316.634 C 100.950 316.783,101.860 317.229,102.422 317.624 C 105.689 319.923,122.445 319.945,127.396 317.656 C 128.278 317.249,129.465 316.803,130.033 316.667 C 130.602 316.530,131.931 315.935,132.988 315.344 C 135.244 314.083,135.155 313.942,130.826 311.935 C 129.410 311.278,127.823 310.405,127.301 309.993 C 126.778 309.582,125.715 309.036,124.940 308.780 C 124.164 308.524,122.366 307.434,120.944 306.357 C 119.521 305.281,118.161 304.400,117.920 304.400 C 117.680 304.400,116.617 303.590,115.559 302.600 C 114.500 301.610,113.365 300.800,113.035 300.800 C 112.429 300.800,110.400 299.008,110.400 298.473 C 110.400 298.313,109.768 297.841,108.995 297.425 C 108.222 297.009,106.557 295.687,105.295 294.488 C 100.139 289.590,96.299 285.758,95.474 284.687 C 94.993 284.063,93.949 282.888,93.154 282.076 C 92.359 281.264,91.357 280.022,90.928 279.316 C 90.499 278.609,89.675 277.659,89.096 277.204 C 88.518 276.749,87.644 275.575,87.154 274.594 C 86.664 273.613,85.979 272.720,85.632 272.610 C 85.284 272.500,84.391 271.283,83.647 269.907 C 82.902 268.530,81.710 266.683,80.996 265.802 C 80.283 264.921,79.403 263.615,79.040 262.900 C 78.260 261.365,77.897 261.283,77.276 262.500 M340.591 262.828 C 340.447 263.283,339.760 264.002,339.064 264.426 C 338.179 264.966,338.015 265.197,338.518 265.199 C 339.398 265.200,341.200 263.466,341.200 262.618 C 341.200 261.748,340.901 261.850,340.591 262.828 M110.891 264.700 C 111.229 265.085,111.639 265.850,111.802 266.400 C 112.215 267.795,112.773 268.400,113.646 268.400 C 114.073 268.400,114.908 269.131,115.588 270.100 C 116.244 271.035,116.920 271.928,117.090 272.085 C 117.261 272.242,119.200 274.102,121.400 276.217 C 123.600 278.332,125.890 280.321,126.488 280.636 C 127.087 280.951,127.763 281.557,127.991 281.982 C 128.218 282.408,129.305 283.261,130.406 283.878 C 131.506 284.495,132.494 285.274,132.601 285.608 C 132.708 285.942,133.471 286.567,134.298 286.997 C 135.829 287.794,138.175 289.398,139.129 290.300 C 139.419 290.575,139.914 290.800,140.229 290.800 C 140.543 290.800,140.800 290.943,140.800 291.118 C 140.800 291.293,141.605 291.768,142.588 292.173 C 143.572 292.579,144.679 293.246,145.050 293.655 C 145.561 294.220,146.290 294.400,148.062 294.400 C 150.081 294.400,150.400 294.502,150.400 295.150 C 150.400 295.563,150.504 296.420,150.631 297.056 C 150.818 297.991,150.607 298.485,149.531 299.635 C 148.799 300.417,147.887 301.449,147.504 301.928 C 146.720 302.910,145.518 303.060,144.729 302.274 C 143.936 301.486,139.856 298.935,138.904 298.633 C 138.446 298.488,137.807 297.965,137.484 297.472 C 137.161 296.979,136.043 296.136,135.000 295.600 C 133.956 295.063,132.917 294.217,132.691 293.720 C 132.464 293.222,131.944 292.709,131.535 292.579 C 130.924 292.385,126.510 288.448,125.000 286.750 C 124.780 286.503,123.654 285.378,122.497 284.250 C 121.340 283.123,120.395 282.032,120.397 281.826 C 120.401 281.337,118.766 279.600,118.302 279.600 C 117.689 279.600,116.852 278.546,116.569 277.421 C 116.414 276.803,115.657 275.920,114.789 275.345 C 113.682 274.612,113.209 273.972,113.016 272.943 C 112.864 272.135,112.200 271.001,111.451 270.270 C 109.235 268.106,108.258 265.502,109.280 264.480 C 109.921 263.839,110.164 263.873,110.891 264.700 M78.368 266.900 C 78.338 268.527,78.319 268.552,77.931 267.487 C 77.707 266.875,77.626 266.110,77.750 265.787 C 78.156 264.729,78.401 265.170,78.368 266.900 M296.403 274.389 C 295.895 274.711,295.889 274.843,296.362 275.283 C 296.690 275.588,296.810 275.609,296.656 275.334 C 296.500 275.056,296.840 274.706,297.498 274.466 C 298.354 274.153,298.422 274.057,297.800 274.038 C 297.360 274.024,296.732 274.182,296.403 274.389 M294.389 276.421 C 294.147 276.872,294.006 277.514,294.075 277.846 C 294.144 278.179,294.398 277.809,294.640 277.025 C 295.135 275.423,295.042 275.200,294.389 276.421 M292.668 278.967 C 292.548 279.279,292.671 279.618,292.940 279.721 C 293.218 279.828,293.429 279.585,293.429 279.155 C 293.429 278.267,292.979 278.156,292.668 278.967 M283.396 286.407 C 283.258 286.630,282.932 286.691,282.672 286.542 C 282.413 286.394,282.333 286.419,282.497 286.599 C 282.660 286.779,282.570 287.213,282.297 287.563 C 281.868 288.113,281.887 288.132,282.437 287.703 C 282.787 287.430,283.192 287.295,283.337 287.403 C 283.482 287.512,283.512 287.482,283.403 287.337 C 283.295 287.192,283.407 286.832,283.652 286.537 C 283.897 286.242,283.997 286.000,283.873 286.000 C 283.749 286.000,283.534 286.183,283.396 286.407 M245.002 293.198 C 244.603 293.639,244.407 294.000,244.567 294.000 C 244.988 294.000,246.128 292.795,245.912 292.579 C 245.811 292.478,245.402 292.756,245.002 293.198 M251.295 306.266 C 251.018 306.378,250.603 306.859,250.373 307.335 C 250.016 308.076,250.033 308.114,250.496 307.600 C 250.793 307.270,251.289 306.775,251.598 306.500 C 252.187 305.976,252.129 305.931,251.295 306.266 M170.267 307.067 C 169.351 307.982,170.025 310.000,171.246 310.000 C 172.459 310.000,172.476 309.976,171.880 309.067 C 171.383 308.307,171.371 308.133,171.817 308.133 C 172.118 308.133,172.272 308.283,172.159 308.467 C 172.045 308.650,172.154 308.800,172.400 308.800 C 172.646 308.800,172.758 308.944,172.650 309.119 C 172.542 309.295,172.618 309.700,172.820 310.019 C 173.106 310.471,173.189 310.396,173.194 309.682 C 173.203 308.249,171.028 306.305,170.267 307.067 M237.100 310.276 C 236.715 310.376,236.400 310.661,236.400 310.909 C 236.400 311.243,236.283 311.243,235.950 310.910 C 235.308 310.268,234.313 311.196,234.889 311.900 C 235.160 312.231,235.162 312.400,234.896 312.400 C 234.674 312.400,234.390 312.805,234.263 313.300 C 234.039 314.173,234.055 314.170,234.786 313.210 C 235.201 312.665,235.508 312.035,235.470 311.810 C 235.431 311.584,235.584 311.431,235.810 311.470 C 236.035 311.508,236.665 311.197,237.210 310.779 C 237.754 310.360,238.110 310.035,238.000 310.055 C 237.890 310.076,237.485 310.175,237.100 310.276 M130.600 314.000 C 130.751 314.244,130.177 314.389,129.124 314.372 C 127.794 314.350,127.583 314.265,128.200 314.000 C 129.307 313.524,130.306 313.524,130.600 314.000 M150.243 332.969 C 150.364 333.282,150.743 333.646,151.088 333.778 C 151.579 333.967,151.616 333.901,151.260 333.472 C 151.011 333.172,150.925 332.808,151.070 332.663 C 151.215 332.518,151.039 332.400,150.679 332.400 C 150.278 332.400,150.110 332.620,150.243 332.969 M244.618 340.618 C 244.058 341.178,243.600 341.725,243.600 341.832 C 243.600 342.281,245.215 341.120,245.605 340.391 C 246.179 339.319,245.840 339.397,244.618 340.618 " stroke="none" fill="#3469b3" fill-rule="evenodd"></path><path id="path3" d="M105.863 260.181 C 105.214 261.871,105.822 263.167,106.961 262.522 C 107.442 262.249,107.422 261.994,106.827 260.848 C 106.257 259.749,106.076 259.624,105.863 260.181 M109.280 264.480 C 108.258 265.502,109.235 268.106,111.451 270.270 C 112.200 271.001,112.864 272.135,113.016 272.943 C 113.209 273.972,113.682 274.612,114.789 275.345 C 115.657 275.920,116.414 276.803,116.569 277.421 C 116.852 278.546,117.689 279.600,118.302 279.600 C 118.766 279.600,120.401 281.337,120.397 281.826 C 120.395 282.032,121.340 283.123,122.497 284.250 C 123.654 285.378,124.780 286.503,125.000 286.750 C 126.510 288.448,130.924 292.385,131.535 292.579 C 131.944 292.709,132.464 293.222,132.691 293.720 C 132.917 294.217,133.956 295.063,135.000 295.600 C 136.043 296.136,137.161 296.979,137.484 297.472 C 137.807 297.965,138.446 298.488,138.904 298.633 C 139.856 298.935,143.936 301.486,144.729 302.274 C 145.518 303.060,146.720 302.910,147.504 301.928 C 147.887 301.449,148.799 300.417,149.531 299.635 C 150.607 298.485,150.818 297.991,150.631 297.056 C 150.504 296.420,150.400 295.563,150.400 295.150 C 150.400 294.502,150.081 294.400,148.062 294.400 C 146.290 294.400,145.561 294.220,145.050 293.655 C 144.679 293.246,143.572 292.579,142.588 292.173 C 141.605 291.768,140.800 291.293,140.800 291.118 C 140.800 290.943,140.543 290.800,140.229 290.800 C 139.914 290.800,139.419 290.575,139.129 290.300 C 138.175 289.398,135.829 287.794,134.298 286.997 C 133.471 286.567,132.708 285.942,132.601 285.608 C 132.494 285.274,131.506 284.495,130.406 283.878 C 129.305 283.261,128.218 282.408,127.991 281.982 C 127.763 281.557,127.087 280.951,126.488 280.636 C 125.890 280.321,123.600 278.332,121.400 276.217 C 119.200 274.102,117.261 272.242,117.090 272.085 C 116.920 271.928,116.244 271.035,115.588 270.100 C 114.908 269.131,114.073 268.400,113.646 268.400 C 112.773 268.400,112.215 267.795,111.802 266.400 C 111.231 264.474,110.127 263.633,109.280 264.480 M77.750 265.787 C 77.626 266.110,77.707 266.875,77.931 267.487 C 78.319 268.552,78.338 268.527,78.368 266.900 C 78.401 265.170,78.156 264.729,77.750 265.787 M171.708 307.237 C 172.098 307.464,172.295 307.846,172.147 308.086 C 171.972 308.369,172.064 308.407,172.406 308.196 C 172.804 307.950,172.864 308.059,172.644 308.634 C 172.413 309.241,172.455 309.298,172.847 308.909 C 173.384 308.376,172.318 306.788,171.438 306.812 C 171.197 306.819,171.319 307.010,171.708 307.237 M128.200 314.000 C 127.583 314.265,127.794 314.350,129.124 314.372 C 130.177 314.389,130.751 314.244,130.600 314.000 C 130.306 313.524,129.307 313.524,128.200 314.000 " stroke="none" fill="#0c2c66" fill-rule="evenodd"></path><path id="path4" d="M251.200 87.194 C 252.937 88.722,255.537 90.008,256.826 89.976 C 257.741 89.954,257.754 89.924,257.038 89.476 C 256.619 89.214,255.710 88.517,255.017 87.927 C 254.323 87.337,253.226 86.736,252.578 86.590 C 251.930 86.445,251.040 86.244,250.600 86.144 C 250.015 86.012,250.176 86.294,251.200 87.194 M260.146 90.394 C 261.216 90.588,262.476 91.086,262.946 91.500 C 264.331 92.720,265.663 93.432,268.000 94.200 C 269.210 94.598,270.560 95.321,271.000 95.807 C 271.440 96.293,272.970 97.362,274.400 98.182 C 275.830 99.003,277.368 100.014,277.818 100.429 C 278.268 100.845,279.348 101.430,280.218 101.730 C 281.088 102.029,281.996 102.661,282.236 103.134 C 283.018 104.679,285.600 106.738,285.600 105.817 C 285.600 105.018,277.923 98.492,276.104 97.745 C 275.277 97.405,274.060 96.618,273.400 95.996 C 272.740 95.373,270.760 94.108,269.000 93.184 C 267.240 92.260,265.260 91.218,264.600 90.868 C 263.940 90.519,262.230 90.189,260.800 90.137 L 258.200 90.041 260.146 90.394 M212.300 102.432 C 211.802 102.722,211.600 103.345,211.600 104.589 C 211.600 106.120,211.409 106.503,210.062 107.669 C 208.609 108.926,206.400 112.629,206.400 113.806 C 206.400 114.103,206.059 114.454,205.641 114.587 C 204.884 114.827,203.236 118.627,202.600 121.600 C 202.435 122.370,201.955 123.489,201.532 124.087 C 198.849 127.884,199.277 150.400,202.033 150.400 C 202.235 150.400,202.400 150.649,202.400 150.954 C 202.400 152.675,204.627 158.363,205.525 158.934 C 205.813 159.117,206.610 160.440,207.294 161.874 C 208.023 163.400,208.914 164.651,209.443 164.892 C 209.940 165.119,210.569 165.841,210.841 166.499 C 211.388 167.821,213.126 169.600,213.869 169.600 C 214.131 169.600,214.474 170.005,214.630 170.500 C 214.912 171.392,216.709 173.199,217.316 173.200 C 217.490 173.200,218.337 173.920,219.200 174.800 C 220.063 175.680,220.883 176.400,221.024 176.400 C 221.608 176.400,224.183 177.808,225.024 178.587 C 226.203 179.680,227.272 180.185,230.200 181.036 C 231.520 181.419,233.410 182.125,234.400 182.605 C 240.117 185.375,255.123 185.389,260.800 182.629 C 261.790 182.148,263.680 181.436,265.000 181.047 C 267.932 180.182,269.157 179.622,270.200 178.669 C 270.640 178.268,271.901 177.510,273.002 176.987 C 274.103 176.463,275.714 175.307,276.583 174.417 C 277.452 173.528,278.362 172.800,278.606 172.800 C 279.161 172.800,280.998 170.841,281.331 169.894 C 281.468 169.506,282.042 169.012,282.606 168.798 C 283.171 168.583,283.941 167.833,284.317 167.131 C 284.692 166.429,285.661 165.189,286.469 164.374 C 287.878 162.953,289.351 160.289,289.662 158.600 C 289.743 158.160,290.466 157.447,291.268 157.017 C 292.070 156.586,293.007 155.758,293.350 155.177 L 293.974 154.120 292.046 154.560 C 289.521 155.136,288.936 155.675,287.456 158.793 C 286.776 160.227,285.642 161.950,284.937 162.621 C 284.232 163.293,283.532 164.330,283.383 164.926 C 283.233 165.522,282.546 166.403,281.856 166.885 C 280.298 167.973,279.200 169.174,279.200 169.790 C 279.200 170.048,278.408 170.654,277.439 171.138 C 276.471 171.621,275.166 172.532,274.539 173.161 C 273.913 173.790,272.140 174.905,270.600 175.639 C 269.060 176.373,267.530 177.274,267.200 177.641 C 266.336 178.604,261.899 180.009,257.946 180.571 C 256.927 180.716,255.129 181.187,253.952 181.618 C 250.985 182.702,244.258 182.718,241.329 181.647 C 240.196 181.233,238.099 180.690,236.668 180.441 C 233.080 179.816,229.189 178.525,228.214 177.635 C 227.766 177.227,226.140 176.296,224.600 175.568 C 223.060 174.840,221.440 173.860,221.000 173.389 C 220.560 172.919,219.345 172.046,218.300 171.450 C 217.255 170.854,216.400 170.116,216.400 169.810 C 216.400 169.505,215.815 168.843,215.100 168.340 C 213.388 167.137,213.134 166.850,212.263 165.141 C 211.857 164.346,211.097 163.466,210.573 163.186 C 210.050 162.905,209.412 162.029,209.156 161.238 C 208.407 158.924,207.434 156.800,207.123 156.800 C 206.505 156.800,204.872 153.299,204.604 151.400 C 204.449 150.300,203.882 147.690,203.343 145.600 C 201.707 139.250,201.663 133.872,203.202 128.600 C 203.394 127.940,203.752 126.320,203.997 125.000 C 204.718 121.117,205.678 118.270,206.629 117.200 C 207.117 116.650,208.060 115.030,208.724 113.600 C 209.388 112.170,210.499 110.460,211.194 109.800 C 212.843 108.232,213.520 106.676,213.674 104.100 C 213.803 101.953,213.582 101.685,212.300 102.432 M286.288 107.327 C 286.519 108.533,287.409 109.400,288.800 109.774 L 289.800 110.042 288.800 109.202 C 288.250 108.740,287.416 107.899,286.946 107.333 L 286.092 106.303 286.288 107.327 M260.750 191.654 C 259.925 192.537,259.592 193.391,259.403 195.113 C 259.264 196.371,259.115 197.665,259.072 197.990 C 258.922 199.108,257.093 199.588,252.958 199.594 C 248.840 199.600,246.800 200.404,246.800 202.022 C 246.800 202.647,248.929 206.399,249.284 206.400 C 249.440 206.400,249.980 206.829,250.484 207.354 C 250.988 207.878,252.061 208.517,252.868 208.774 C 254.536 209.304,255.479 210.181,254.819 210.588 C 254.589 210.731,254.400 211.114,254.400 211.440 C 254.400 211.767,254.055 212.404,253.633 212.857 C 250.919 215.770,251.465 222.574,254.318 221.388 C 254.693 221.232,255.720 220.923,256.600 220.702 C 257.739 220.415,258.733 219.709,260.051 218.250 L 261.903 216.201 264.216 216.988 C 265.963 217.581,266.715 218.088,267.285 219.055 C 268.750 221.538,273.602 221.722,274.603 219.332 C 275.075 218.206,275.053 217.991,274.408 217.407 C 274.009 217.046,273.365 215.404,272.977 213.759 C 272.590 212.115,272.121 210.675,271.935 210.560 C 271.482 210.280,273.483 208.673,275.085 208.031 C 275.933 207.691,276.652 206.953,277.203 205.858 C 277.661 204.946,278.396 203.741,278.836 203.180 C 280.530 201.021,278.169 199.502,273.317 199.631 C 269.138 199.741,268.557 199.349,267.842 195.932 C 266.831 191.100,263.272 188.953,260.750 191.654 M263.940 195.627 C 264.633 196.741,265.200 197.750,265.200 197.869 C 265.200 199.472,269.658 202.442,271.339 201.960 C 274.504 201.052,275.401 201.541,274.639 203.757 C 274.058 205.448,273.747 205.818,271.200 207.853 C 268.864 209.718,268.607 210.205,269.487 211.093 C 270.999 212.617,272.008 218.279,270.800 218.460 C 270.580 218.493,270.214 218.538,269.987 218.560 C 269.759 218.582,269.354 218.179,269.087 217.664 C 268.501 216.536,266.679 215.521,263.378 214.481 C 262.044 214.061,260.425 214.653,259.084 216.053 C 258.211 216.965,257.459 217.001,256.629 216.171 C 255.883 215.426,255.873 215.232,256.426 212.243 C 256.934 209.496,256.445 208.438,254.168 207.358 C 253.375 206.982,252.674 206.477,252.611 206.237 C 252.547 205.997,252.338 205.087,252.147 204.216 C 251.881 203.000,251.568 202.575,250.800 202.386 C 250.212 202.242,251.532 202.013,253.999 201.831 C 259.718 201.410,260.597 200.654,261.366 195.500 C 261.731 193.048,262.356 193.079,263.940 195.627 M114.496 220.021 C 115.214 222.847,116.429 223.400,123.600 224.165 C 127.010 224.529,130.160 224.971,130.600 225.149 C 131.040 225.326,132.570 226.027,134.000 226.706 C 135.430 227.385,137.756 228.326,139.168 228.797 C 140.581 229.269,142.434 230.251,143.286 230.981 C 144.138 231.710,145.325 232.405,145.922 232.524 C 146.520 232.644,147.818 233.520,148.808 234.471 C 149.797 235.422,151.415 236.823,152.403 237.585 C 153.391 238.347,154.261 239.115,154.336 239.292 C 154.410 239.469,155.360 240.465,156.446 241.507 C 157.533 242.548,158.965 244.238,159.629 245.263 C 160.293 246.288,161.458 247.786,162.218 248.592 C 162.978 249.398,163.600 250.321,163.600 250.644 C 163.600 251.443,165.075 254.281,165.697 254.679 C 166.355 255.099,167.600 257.808,167.600 258.820 C 167.600 260.303,168.925 264.383,169.664 265.176 C 170.069 265.611,170.400 266.140,170.400 266.353 C 170.400 266.884,172.333 269.136,173.177 269.588 C 174.101 270.082,172.542 264.545,170.828 261.246 C 170.186 260.011,169.275 257.699,168.805 256.108 C 168.208 254.091,167.539 252.794,166.593 251.820 C 165.847 251.052,165.046 249.743,164.812 248.912 C 164.578 248.080,163.605 246.540,162.650 245.489 C 161.695 244.438,160.589 242.974,160.192 242.237 C 159.794 241.499,158.951 240.589,158.317 240.214 C 157.682 239.840,156.770 238.932,156.288 238.197 C 155.806 237.463,154.960 236.590,154.406 236.259 C 153.853 235.927,152.770 235.056,152.000 234.324 C 149.976 232.398,147.946 230.937,146.815 230.593 C 146.274 230.427,145.508 229.882,145.113 229.381 C 144.719 228.879,143.092 227.971,141.498 227.362 C 139.904 226.753,138.224 225.923,137.764 225.518 C 137.304 225.112,136.314 224.594,135.564 224.366 C 132.862 223.544,130.167 222.878,128.400 222.597 C 127.410 222.439,126.420 222.176,126.200 222.013 C 125.481 221.478,123.854 221.141,120.526 220.835 C 117.876 220.591,116.984 220.330,115.852 219.467 C 114.045 218.089,114.010 218.103,114.496 220.021 M92.492 223.500 C 92.073 224.105,91.616 224.917,91.476 225.303 C 91.337 225.690,90.722 226.208,90.111 226.453 C 87.459 227.517,84.699 229.048,84.387 229.628 C 84.201 229.974,83.273 230.604,82.324 231.028 C 80.314 231.926,78.800 233.135,78.800 233.840 C 78.800 234.113,78.249 234.457,77.576 234.605 C 76.903 234.753,75.766 235.461,75.048 236.178 C 73.945 237.281,73.483 237.470,72.058 237.403 C 70.032 237.307,69.545 237.864,70.781 238.865 C 72.247 240.052,74.021 239.815,75.515 238.231 C 76.225 237.478,77.343 236.744,78.000 236.600 C 78.657 236.456,79.780 235.706,80.497 234.933 C 81.214 234.160,82.715 233.117,83.834 232.615 C 84.952 232.113,86.439 231.144,87.138 230.461 C 87.837 229.777,89.294 228.838,90.376 228.372 C 92.433 227.487,93.246 226.357,93.739 223.700 C 94.034 222.111,93.513 222.027,92.492 223.500 M193.400 223.283 C 191.423 224.417,190.792 229.526,192.375 231.585 C 193.164 232.613,197.424 233.232,199.726 232.654 C 202.380 231.988,202.305 225.430,199.618 223.313 C 198.835 222.696,194.460 222.675,193.400 223.283 M229.462 224.331 C 229.098 224.734,228.800 225.245,228.800 225.467 C 228.800 226.265,226.121 228.288,224.715 228.552 C 222.164 229.031,222.029 231.240,224.244 236.260 C 224.550 236.954,224.800 238.610,224.800 239.941 C 224.800 242.955,225.517 243.599,227.388 242.265 C 229.206 240.968,235.300 240.992,236.966 242.302 C 238.568 243.562,239.196 242.932,239.214 240.051 C 239.222 238.670,239.526 237.182,240.000 236.200 C 240.425 235.320,240.779 234.217,240.786 233.749 C 240.794 233.281,241.058 232.281,241.372 231.528 C 242.117 229.746,241.060 228.400,238.915 228.400 C 238.180 228.400,235.612 226.334,235.587 225.723 C 235.506 223.777,230.909 222.732,229.462 224.331 M198.720 225.280 C 199.404 225.964,199.337 229.788,198.630 230.375 C 196.924 231.791,194.377 229.832,193.928 226.759 C 193.739 225.461,197.684 224.244,198.720 225.280 M235.500 229.113 C 236.221 229.729,236.800 230.608,236.800 231.086 C 236.800 231.560,236.969 232.394,237.177 232.939 C 237.473 233.719,237.325 234.382,236.477 236.065 C 235.115 238.764,235.079 238.788,232.200 238.788 C 229.324 238.788,229.210 238.722,227.861 236.286 C 224.784 230.733,230.794 225.090,235.500 229.113 M108.400 235.825 C 108.070 235.897,106.515 236.159,104.945 236.407 C 103.224 236.678,101.771 237.154,101.288 237.604 C 100.847 238.015,99.249 238.727,97.736 239.186 C 92.730 240.707,90.455 244.812,93.355 247.093 C 93.928 247.544,94.938 249.003,95.599 250.334 C 96.259 251.665,97.134 252.990,97.542 253.277 C 97.951 253.565,98.415 254.250,98.575 254.800 C 99.145 256.769,100.874 260.011,101.546 260.371 C 101.923 260.573,102.736 261.832,103.354 263.170 C 103.971 264.508,104.864 265.921,105.338 266.311 C 105.812 266.701,106.758 268.096,107.440 269.410 C 108.152 270.784,109.112 272.013,109.697 272.301 C 110.264 272.581,110.990 273.491,111.337 274.360 C 111.680 275.217,112.491 276.295,113.140 276.758 C 113.789 277.220,114.668 278.273,115.092 279.099 C 115.516 279.925,116.433 280.960,117.129 281.400 C 117.825 281.840,118.501 282.590,118.632 283.068 C 118.763 283.545,119.710 284.735,120.735 285.713 C 121.761 286.692,122.798 287.741,123.040 288.046 C 123.283 288.351,124.183 289.267,125.040 290.081 C 125.898 290.896,126.816 291.796,127.081 292.081 C 127.941 293.009,128.645 293.497,129.531 293.778 C 130.009 293.930,130.400 294.296,130.400 294.591 C 130.400 295.288,132.597 297.134,133.780 297.431 C 134.284 297.557,134.930 298.095,135.214 298.626 C 135.498 299.158,136.511 299.970,137.465 300.431 C 138.418 300.893,140.043 301.969,141.076 302.822 C 145.544 306.514,151.151 304.463,152.943 298.480 C 153.328 297.196,154.043 295.708,154.532 295.173 C 157.188 292.267,158.342 279.120,156.830 269.000 C 156.274 265.284,155.889 264.178,154.134 261.263 C 153.426 260.087,152.732 258.599,152.590 257.956 C 152.449 257.313,151.718 256.134,150.967 255.337 C 150.215 254.540,149.600 253.748,149.600 253.576 C 149.600 253.070,148.225 250.805,147.916 250.803 C 147.760 250.801,146.950 250.053,146.116 249.140 C 145.282 248.228,144.373 247.283,144.096 247.040 C 143.818 246.798,142.918 245.959,142.096 245.177 C 141.273 244.394,139.745 243.358,138.700 242.875 C 137.655 242.391,136.800 241.835,136.800 241.637 C 136.800 241.075,134.429 239.831,131.800 239.014 C 130.480 238.604,128.949 237.936,128.397 237.531 C 126.505 236.139,112.429 234.938,108.400 235.825 M122.400 238.318 C 122.950 238.558,124.750 239.134,126.400 239.597 C 132.019 241.175,133.796 241.796,134.405 242.398 C 135.305 243.288,137.104 244.400,137.644 244.400 C 138.085 244.400,140.001 246.011,143.236 249.104 C 146.280 252.014,147.520 253.472,148.160 254.895 C 148.530 255.717,149.157 256.563,149.555 256.776 C 149.952 256.988,150.589 258.026,150.970 259.081 C 151.350 260.137,151.817 261.360,152.006 261.800 C 152.195 262.240,152.472 263.050,152.621 263.600 C 152.770 264.150,153.204 264.960,153.585 265.400 C 156.124 268.333,156.120 288.106,153.579 291.543 C 153.146 292.128,152.554 293.975,152.264 295.647 C 151.620 299.349,149.290 302.713,146.673 303.717 C 145.908 304.010,142.400 302.639,142.400 302.046 C 142.400 301.862,141.303 301.127,139.963 300.412 C 138.622 299.698,136.897 298.503,136.128 297.757 C 135.360 297.010,134.539 296.400,134.304 296.400 C 134.069 296.400,132.870 295.481,131.639 294.358 C 128.791 291.760,123.643 286.841,122.600 285.720 C 122.160 285.247,121.350 284.374,120.800 283.779 C 120.250 283.184,118.855 281.731,117.700 280.549 C 116.545 279.367,115.600 278.152,115.600 277.848 C 115.600 277.544,114.968 276.813,114.195 276.224 C 113.423 275.634,112.548 274.578,112.251 273.876 C 111.955 273.174,111.061 271.970,110.267 271.200 C 109.472 270.430,108.713 269.305,108.579 268.700 C 108.446 268.095,108.171 267.600,107.968 267.600 C 107.766 267.600,107.600 267.362,107.600 267.072 C 107.600 266.782,106.955 265.791,106.167 264.870 C 105.379 263.950,104.560 262.564,104.346 261.791 C 104.133 261.017,103.450 259.865,102.829 259.230 C 102.208 258.595,101.208 256.820,100.606 255.285 C 100.004 253.751,99.126 252.070,98.656 251.548 C 98.185 251.027,97.442 249.880,97.003 249.000 C 96.565 248.120,96.011 247.130,95.771 246.800 C 94.096 244.494,96.149 241.279,99.800 240.490 C 100.900 240.253,102.430 239.876,103.200 239.652 C 103.970 239.429,105.860 238.881,107.400 238.435 C 110.519 237.531,120.425 237.454,122.400 238.318 M58.949 254.605 C 60.109 255.767,59.236 262.938,57.595 265.719 C 56.956 266.801,56.615 268.286,56.358 271.107 C 55.937 275.727,55.528 278.002,54.706 280.294 L 54.098 281.987 55.306 281.294 C 56.865 280.399,58.239 277.435,58.985 273.355 C 61.044 262.097,61.664 259.087,62.047 258.473 C 62.675 257.467,61.801 254.402,60.885 254.395 C 60.508 254.392,59.750 254.269,59.200 254.122 C 58.223 253.861,58.217 253.872,58.949 254.605 M76.697 260.305 C 76.027 260.721,75.344 261.697,74.956 262.794 C 74.605 263.788,73.985 265.238,73.580 266.017 C 72.136 268.790,71.347 277.445,71.977 283.600 C 72.559 289.285,72.757 290.203,73.602 291.110 C 74.001 291.538,74.642 293.039,75.026 294.444 C 75.866 297.514,76.583 299.019,77.771 300.207 C 78.260 300.696,78.901 301.705,79.195 302.448 C 79.820 304.030,81.132 305.600,81.826 305.600 C 82.094 305.600,82.421 306.029,82.553 306.554 C 82.685 307.079,83.276 307.934,83.867 308.454 C 84.459 308.974,85.586 310.045,86.371 310.834 C 87.157 311.622,88.403 312.612,89.141 313.034 C 89.878 313.455,91.063 314.340,91.775 315.000 C 92.486 315.660,94.038 316.537,95.224 316.949 C 96.410 317.360,97.925 318.103,98.590 318.599 C 104.210 322.789,125.369 322.291,133.000 317.789 C 137.728 315.000,137.849 312.951,133.403 310.985 C 132.232 310.466,131.153 309.847,131.005 309.609 C 130.746 309.190,128.754 308.210,126.147 307.218 C 125.458 306.956,124.389 306.215,123.772 305.571 C 123.155 304.927,122.414 304.400,122.125 304.400 C 121.836 304.400,121.600 304.262,121.600 304.094 C 121.600 303.926,120.870 303.473,119.979 303.086 C 119.087 302.700,117.731 301.757,116.965 300.992 C 116.200 300.226,115.264 299.596,114.887 299.591 C 114.016 299.580,112.631 298.468,112.033 297.300 C 111.779 296.805,111.330 296.400,111.035 296.400 C 110.418 296.400,107.503 293.733,100.980 287.200 C 94.190 280.399,93.012 279.129,92.201 277.731 C 91.796 277.034,91.052 276.242,90.549 275.973 C 90.045 275.703,89.276 274.724,88.841 273.797 C 88.405 272.870,87.532 271.678,86.901 271.147 C 86.271 270.616,85.405 269.331,84.977 268.292 C 84.550 267.253,84.065 266.402,83.900 266.401 C 83.735 266.401,83.600 266.193,83.600 265.940 C 83.600 265.688,82.972 264.871,82.204 264.125 C 81.436 263.379,80.698 262.332,80.564 261.799 C 80.430 261.265,79.978 260.720,79.560 260.587 C 79.142 260.455,78.800 260.178,78.800 259.973 C 78.800 259.406,77.924 259.544,76.697 260.305 M79.040 262.900 C 79.403 263.615,80.283 264.921,80.996 265.802 C 81.710 266.683,82.902 268.530,83.647 269.907 C 84.391 271.283,85.284 272.500,85.632 272.610 C 85.979 272.720,86.664 273.613,87.154 274.594 C 87.644 275.575,88.518 276.749,89.096 277.204 C 89.675 277.659,90.499 278.609,90.928 279.316 C 91.357 280.022,92.359 281.264,93.154 282.076 C 93.949 282.888,94.993 284.063,95.474 284.687 C 96.299 285.758,100.139 289.590,105.295 294.488 C 106.557 295.687,108.222 297.009,108.995 297.425 C 109.768 297.841,110.400 298.313,110.400 298.473 C 110.400 299.008,112.429 300.800,113.035 300.800 C 113.365 300.800,114.500 301.610,115.559 302.600 C 116.617 303.590,117.680 304.400,117.920 304.400 C 118.161 304.400,119.521 305.281,120.944 306.357 C 122.366 307.434,124.164 308.524,124.940 308.780 C 125.715 309.036,126.778 309.582,127.301 309.993 C 127.823 310.405,129.410 311.278,130.826 311.935 C 135.155 313.942,135.244 314.083,132.988 315.344 C 131.931 315.935,130.602 316.530,130.033 316.667 C 129.465 316.803,128.278 317.249,127.396 317.656 C 122.445 319.945,105.689 319.923,102.422 317.624 C 101.860 317.229,100.950 316.783,100.400 316.634 C 97.686 315.897,93.725 314.118,93.114 313.360 C 92.736 312.891,91.847 312.268,91.137 311.974 C 90.428 311.680,88.527 310.081,86.913 308.420 C 85.300 306.759,83.281 304.680,82.427 303.800 C 81.574 302.920,80.760 301.639,80.618 300.954 C 80.476 300.269,80.034 299.358,79.635 298.930 C 78.366 297.568,76.904 294.598,76.602 292.770 C 76.441 291.796,76.171 290.820,76.002 290.600 C 75.833 290.380,75.598 289.570,75.480 288.800 C 75.362 288.030,74.987 286.230,74.647 284.800 C 73.839 281.405,73.839 276.200,74.646 272.200 C 75.001 270.440,75.426 268.280,75.591 267.400 C 76.495 262.570,77.925 260.705,79.040 262.900 M172.504 275.714 C 171.261 277.820,170.961 285.627,172.037 287.864 C 172.916 289.693,174.305 290.703,173.732 289.097 C 173.389 288.135,173.479 276.266,173.838 275.100 C 174.202 273.919,173.324 274.323,172.504 275.714 M169.537 306.992 C 169.221 307.313,168.184 307.528,166.749 307.569 C 165.967 307.592,165.567 307.914,165.191 308.823 C 164.851 309.642,164.047 310.368,162.751 311.025 C 161.557 311.630,160.569 312.486,160.167 313.265 C 159.485 314.582,158.951 315.313,158.081 316.119 C 157.795 316.384,157.345 316.827,157.081 317.104 C 156.816 317.382,155.902 318.303,155.048 319.153 C 154.195 320.002,153.295 320.928,153.048 321.211 C 152.802 321.495,151.655 322.672,150.500 323.829 C 147.995 326.337,147.314 330.000,149.353 330.000 C 150.359 330.000,150.784 329.158,150.795 327.146 C 150.798 326.499,151.147 325.864,151.700 325.502 C 153.537 324.298,160.321 317.074,161.126 315.466 C 161.609 314.498,162.512 313.501,163.279 313.087 C 164.006 312.696,165.007 311.751,165.504 310.987 C 166.240 309.858,166.658 309.600,167.755 309.600 C 168.496 309.600,169.318 309.340,169.582 309.022 C 170.067 308.438,170.024 306.496,169.537 306.992 " stroke="none" fill="#72b4de" fill-rule="evenodd"></path></g></svg>