<?xml version="1.0" encoding="UTF-8"?>
<svg width="24px" height="24px" viewBox="0 0 24 24" version="1.1" xmlns="http://www.w3.org/2000/svg" xmlns:xlink="http://www.w3.org/1999/xlink">
    <title>Coin / Uniswap@1.5x</title>
    <g id="Coin-/-Uniswap" stroke="none" stroke-width="1" fill="none" fill-rule="evenodd">
        <g fill="#FCF3F8">
            <circle id="Oval" cx="12" cy="12" r="12"></circle>
        </g>
        <g id="UNISWAP" transform="translate(2.000000, 0.000000)" fill="#FF057B">
            <path d="M7.07588521,4.79284948 C6.8531432,4.75773402 6.84374911,4.75360979 6.94857515,4.73724278 C7.14945089,4.70584021 7.62379882,4.74863041 7.95067456,4.82762938 C8.71370414,5.01197474 9.4080355,5.48421495 10.1492308,6.32291598 L10.3461657,6.54573247 L10.6278817,6.49970567 C11.8146036,6.30588866 13.0217751,6.45992474 14.0315858,6.93400515 C14.3093609,7.06443247 14.7473254,7.32405309 14.802071,7.39076598 C14.819432,7.41202577 14.8514911,7.54889381 14.8731124,7.69494124 C14.9482012,8.20021856 14.9106036,8.58751701 14.7586154,8.8767866 C14.675858,9.0342 14.6711716,9.08409124 14.7267692,9.21878351 C14.7712899,9.3262732 14.8950533,9.40583505 15.017645,9.4057268 C15.2685799,9.40540206 15.5386864,8.99309845 15.6638343,8.41948454 L15.7134675,8.19163454 L15.8119882,8.30500206 C16.3520947,8.92695928 16.776426,9.77517526 16.8492781,10.3788711 L16.8682367,10.5363711 L16.7774911,10.393268 C16.6211361,10.1470052 16.464142,9.9793299 16.2631598,9.84412887 C15.9007101,9.60046392 15.5175976,9.51743814 14.5026746,9.46309794 C13.5861657,9.41406186 13.0674675,9.3345 12.5530296,9.16401031 C11.6779527,8.87403711 11.2367929,8.48783196 10.1971598,7.10166959 C9.73544379,6.48596907 9.45010651,6.14532526 9.16615385,5.87099381 C8.52113609,5.24766186 7.88730178,4.92075464 7.07588521,4.79284948 Z" id="Path" fill-rule="nonzero"></path>
            <path d="M15.0088047,6.16753763 C15.0318107,5.7549634 15.0868757,5.48284021 15.1975385,5.23432577 C15.2413136,5.13596134 15.282426,5.05544691 15.2887101,5.05544691 C15.2951006,5.05544691 15.2760355,5.12805928 15.246426,5.21677887 C15.1659053,5.45796495 15.1526982,5.78784897 15.2081893,6.17166186 C15.2784852,6.65864536 15.3185325,6.72890876 15.8249822,7.25495876 C16.062497,7.50169794 16.3387811,7.81288763 16.4390059,7.94649742 L16.6211361,8.18942629 L16.4390059,8.01580825 C16.2162959,7.80350258 15.7040947,7.38944536 15.5908757,7.33025567 C15.5150414,7.29056134 15.5037515,7.29125412 15.4569941,7.33859072 C15.413858,7.38220361 15.4048047,7.44774742 15.3987337,7.75759485 C15.3894675,8.24051907 15.3247101,8.55047474 15.168355,8.86040876 C15.0838935,9.02804072 15.0704734,8.99226495 15.1470533,8.80305928 C15.204142,8.66178557 15.21,8.5996732 15.209574,8.13218505 C15.2086154,7.19287887 15.0989112,6.96706392 14.4554911,6.5802201 C14.292426,6.48222371 14.0238107,6.34089588 13.8586154,6.26614021 C13.6933136,6.19137371 13.5620947,6.12626289 13.5668876,6.12140258 C13.5851006,6.10296804 14.2126509,6.28912113 14.4651834,6.38786443 C14.8408402,6.53474536 14.9029349,6.55377526 14.9485207,6.53605515 C14.9790888,6.52418041 14.9938935,6.43365309 15.0088047,6.16753763 Z" id="Path" fill-rule="nonzero"></path>
            <path d="M7.50855621,7.77442732 C7.05636213,7.14171031 6.77658462,6.17159691 6.83715621,5.44640412 L6.85588047,5.22199639 L6.95881065,5.24108041 C7.15211361,5.27691031 7.48544379,5.40298608 7.64147929,5.49932629 C8.06975148,5.76366649 8.25507692,6.11170361 8.44370414,7.00538351 C8.49898225,7.26714742 8.57151479,7.56337732 8.60485207,7.66365773 C8.65853254,7.82508711 8.86143195,8.20213454 9.0264142,8.44701186 C9.14527811,8.62337938 9.06635503,8.70694639 8.80370414,8.68285052 C8.40248521,8.64604639 7.85907692,8.26489639 7.50855621,7.77442732 Z" id="Path" fill-rule="nonzero"></path>
            <path d="M14.460284,12.4834175 C12.3470414,11.6187371 11.6027574,10.8680412 11.6027574,9.60154639 C11.6027574,9.41525258 11.6090414,9.26273196 11.6167101,9.26273196 C11.6243787,9.26273196 11.7061775,9.32421649 11.7984142,9.39944845 C12.2268994,9.74876289 12.7068284,9.89792784 14.0353136,10.0949381 C14.8169822,10.2107629 15.2568639,10.3043969 15.6627692,10.4412216 C16.9525917,10.8759433 17.7505562,11.758268 17.9408876,12.9599227 C17.9961657,13.3091289 17.963787,13.9639175 17.8741065,14.3090103 C17.8032781,14.5815773 17.5872781,15.0729124 17.5300828,15.0917474 C17.514213,15.0970515 17.4985562,15.035134 17.4945089,14.9509175 C17.4727811,14.4997423 17.2483669,14.060366 16.871645,13.7312938 C16.4431598,13.3571907 15.8675858,13.0592938 14.460284,12.4834175 Z" id="Path" fill-rule="nonzero"></path>
            <path d="M12.9767219,12.8426907 C12.9502012,12.6825928 12.9042959,12.4780052 12.8746864,12.388268 L12.8206864,12.2249227 L12.9209112,12.339232 C13.0594793,12.4972732 13.1689704,12.6995876 13.2618462,12.9691237 C13.3326746,13.1747938 13.3406627,13.2359536 13.3401537,13.5701134 C13.3395976,13.8982113 13.3307574,13.9670567 13.2652544,14.1521598 C13.1621538,14.4441031 13.0341302,14.6510722 12.8193018,14.8731959 C12.4333136,15.2725206 11.9369822,15.4935619 11.2208166,15.5852474 C11.0963077,15.6011598 10.733432,15.6280052 10.4144379,15.6448918 C9.61050888,15.687433 9.08137278,15.7752216 8.60602367,15.9448454 C8.53764497,15.969201 8.47661538,15.9840309 8.47043787,15.9777526 C8.45115976,15.9583763 8.77484024,15.762232 9.04228402,15.6313608 C9.41921893,15.446799 9.79455621,15.3460206 10.6353373,15.2037835 C11.0507219,15.1334227 11.4796331,15.0481237 11.5885917,15.014134 C12.6171479,14.6936134 13.1459645,13.8664948 12.9767219,12.8426907 Z" id="Path" fill-rule="nonzero"></path>
            <path d="M13.9454201,14.5912113 C13.6646627,13.9777732 13.6002249,13.3855515 13.7540237,12.8331649 C13.770426,12.7741701 13.7969467,12.7257835 13.8128166,12.7257835 C13.8287929,12.7257835 13.8950414,12.7622629 13.9601183,12.8067526 C14.0894201,12.8951907 14.3489822,13.0443557 15.0403314,13.4274433 C15.9029467,13.9054639 16.3948047,14.2755619 16.7293491,14.6984845 C17.0222485,15.0689072 17.2035266,15.4906392 17.2907574,16.0050309 C17.3401775,16.296433 17.3112071,16.9974433 17.237716,17.2909021 C17.0057396,18.2159845 16.4666982,18.9425412 15.6978107,19.3666546 C15.5851243,19.4286804 15.4839408,19.4796649 15.4730769,19.47999 C15.4621065,19.4802062 15.5031124,19.3741237 15.5642485,19.2442268 C15.8229586,18.6946546 15.852355,18.1601289 15.6568047,17.565201 C15.5370888,17.2009485 15.2929704,16.7563763 14.8000473,16.0051392 C14.2269231,15.1316907 14.0864379,14.8992835 13.9454201,14.5912113 Z" id="Path" fill-rule="nonzero"></path>
            <path d="M6.0078142,17.9009845 C6.7920284,17.2280103 7.76779882,16.7499897 8.65661538,16.6032062 C9.0396213,16.5399897 9.67782249,16.5651031 10.032497,16.6573299 C10.6010414,16.8051959 11.1096213,17.136433 11.3741893,17.5311031 C11.6326864,17.9167887 11.7435621,18.2528969 11.8590178,19.0006701 C11.9046036,19.2956443 11.9541302,19.5919175 11.9691479,19.6589227 C12.0558462,20.0465567 12.2245562,20.3563608 12.4337396,20.5119124 C12.7658343,20.758933 13.337787,20.7743041 13.9003669,20.5513144 C13.9957988,20.5134278 14.0787692,20.487232 14.0845207,20.4931856 C14.1049704,20.5137526 13.8216568,20.706433 13.6218462,20.8079691 C13.3529112,20.9444691 13.1390414,20.9972938 12.8548757,20.9972938 C12.3395858,20.9972938 11.9118462,20.7308969 11.5548284,20.1876031 C11.4846391,20.0807629 11.3267929,19.760567 11.2039882,19.4760928 C10.8271598,18.6024278 10.6409822,18.3363557 10.2034438,18.0450619 C9.82256805,17.7916546 9.33145562,17.7461907 8.96197633,17.9303196 C8.47661538,18.1721443 8.3412426,18.8024691 8.68888757,19.2020103 C8.82702959,19.360701 9.08467456,19.497634 9.29534911,19.5242629 C9.68943195,19.5741649 10.0281302,19.2694485 10.0281302,18.8650361 C10.0281302,18.6024278 9.92886391,18.4526134 9.67878107,18.3378711 C9.33742012,18.1813454 8.97039053,18.3643918 8.97209467,18.6903247 C8.97284024,18.8293144 9.03248521,18.9166701 9.16956213,18.9796701 C9.25753846,19.0201546 9.25956213,19.0234021 9.18777515,19.0082474 C8.87453254,18.9422165 8.80114793,18.5583711 9.05304142,18.3035567 C9.35542012,17.9976495 9.98084024,18.132634 10.1955621,18.5501443 C10.2857751,18.7255052 10.296213,19.0748196 10.2176095,19.2857938 C10.0415503,19.7578608 9.52828402,20.0061804 9.00756213,19.8710876 C8.65310059,19.7790773 8.50867456,19.6794897 8.08125444,19.2319948 C7.33858935,18.4544536 7.05025917,18.3037732 5.97951479,18.133933 L5.77433609,18.1013505 L6.0078142,17.9009845 Z" id="Path" fill-rule="nonzero"></path>
            <path d="M0.407300592,0.483270619 C2.88760473,3.54277577 6.71153964,8.30625773 6.90138107,8.57294691 C7.05811953,8.79315464 6.99913491,8.99112835 6.73060473,9.14625773 C6.58127929,9.23253093 6.27426746,9.31999485 6.12055385,9.31999485 C5.94669941,9.31999485 5.75082959,9.23491237 5.60820355,9.0973299 C5.50740355,9.00019948 5.10051834,8.38270206 4.16123787,6.90148763 C3.44253728,5.76810464 2.84109231,4.82791082 2.82467929,4.81217165 C2.78674083,4.77576804 2.78739053,4.77699124 4.08794911,7.14202423 C4.90459527,8.62709227 5.18028284,9.15210309 5.18028284,9.22235567 C5.18028284,9.36513402 5.14193964,9.44025773 4.9685858,9.6367268 C4.67960592,9.96439175 4.55043195,10.3325412 4.45717278,11.0944948 C4.35263432,11.948567 4.05866982,12.5518299 3.24401538,13.5844021 C2.76713254,14.1888557 2.68910414,14.299701 2.56878107,14.5432577 C2.41721893,14.8501392 2.37554201,15.0219278 2.3586497,15.4093454 C2.34079882,15.8189536 2.37556331,16.0835103 2.49869822,16.4751495 C2.60649586,16.8179691 2.71901183,17.0444227 3.00666036,17.4972216 C3.25490059,17.8879948 3.3978355,18.1783144 3.3978355,18.2919742 C3.3978355,18.3823608 3.41481302,18.3824691 3.79948047,18.2941392 C4.72004734,18.0829485 5.46753728,17.7113351 5.88793846,17.2559381 C6.14811834,16.9740619 6.20920118,16.8185103 6.21118225,16.4321753 C6.21248166,16.179634 6.20373728,16.126701 6.13654083,15.9813247 C6.02716686,15.7448041 5.82803787,15.5481186 5.38916805,15.2431856 C4.81411598,14.8436443 4.56850651,14.5220412 4.50066036,14.0797423 C4.44500947,13.7167887 4.50957515,13.4606753 4.82769586,12.7830464 C5.15696805,12.0817113 5.2385645,11.782732 5.2937574,11.075768 C5.32940592,10.6190722 5.37878343,10.4388402 5.50790414,10.2943299 C5.64258462,10.1435412 5.76381302,10.0924485 6.09710059,10.0462268 C6.64046627,9.97077835 6.98646036,9.82789175 7.2708497,9.56149485 C7.51760947,9.33049485 7.62081657,9.1078299 7.63668639,8.7726634 L7.64872189,8.51862835 L7.5107929,8.35526134 C7.01152189,7.76360258 0.0729372781,0.018185567 0.0422094675,0.018185567 C0.0356485207,0.018185567 0.199949112,0.227481959 0.407300592,0.483270619 Z M3.67810296,15.8727526 C3.79099172,15.6695722 3.73101657,15.4083711 3.54218698,15.2808557 C3.36377396,15.160268 3.08661657,15.2169897 3.08661657,15.3741649 C3.08661657,15.4221186 3.11270059,15.4569742 3.17149349,15.4877165 C3.27049349,15.5394588 3.27768284,15.5976959 3.1997929,15.7166598 C3.12091243,15.8372474 3.12727101,15.9431134 3.2177503,16.0150979 C3.3635716,16.1311392 3.56999645,16.0673814 3.67810296,15.8727526 Z" id="Shape"></path>
            <path d="M7.99157396,10.1794794 C7.73648521,10.2590412 7.48853254,10.5337732 7.41178225,10.8219278 C7.3649503,10.9977216 7.39152426,11.3060103 7.46169231,11.4011598 C7.57501775,11.5549794 7.68450888,11.5954639 7.9812426,11.5934072 C8.56214201,11.5892938 9.0672071,11.3361031 9.12589349,11.0194794 C9.1740355,10.7600103 8.95217751,10.4004124 8.64671006,10.2425876 C8.48907692,10.1611856 8.15378698,10.1288196 7.99157396,10.1794794 Z M8.67067456,10.7190928 C8.76024852,10.5897371 8.72105325,10.4498814 8.56874556,10.3553814 C8.27850888,10.1752577 7.83979882,10.3243144 7.83979882,10.6028351 C7.83979882,10.7415 8.06857988,10.8928299 8.27829586,10.8928299 C8.41792899,10.8928299 8.60900592,10.8081804 8.67067456,10.7190928 Z" id="Shape"></path>
        </g>
    </g>
</svg>