<svg id="svg" version="1.1" xmlns="http://www.w3.org/2000/svg" xmlns:xlink="http://www.w3.org/1999/xlink" width="400" height="400" viewBox="0, 0, 400,400"><g id="svgg"><path id="path0" d="M119.200 16.784 C 118.210 16.971,116.893 17.321,116.274 17.562 C 115.655 17.803,114.536 18.000,113.788 18.000 C 112.374 18.000,107.945 20.171,105.847 21.892 C 105.212 22.413,103.984 23.200,103.116 23.643 C 100.843 24.802,97.673 27.932,96.816 29.862 C 96.411 30.776,95.525 32.017,94.849 32.620 C 92.940 34.320,90.934 38.673,90.261 42.571 C 89.900 44.664,89.335 46.448,88.794 47.208 C 87.470 49.068,87.785 56.345,89.335 59.711 C 90.212 61.615,90.401 62.602,90.405 65.311 C 90.409 68.076,90.568 68.877,91.405 70.341 C 92.214 71.757,92.400 72.625,92.400 74.991 C 92.400 76.637,92.674 78.659,93.032 79.650 C 93.380 80.612,93.803 83.482,93.973 86.028 C 94.231 89.895,94.448 90.946,95.294 92.428 C 96.113 93.862,96.351 94.940,96.541 98.085 C 96.671 100.221,97.052 102.628,97.388 103.434 C 97.773 104.356,98.000 106.149,98.000 108.278 C 98.000 111.189,98.143 111.902,99.031 113.418 C 99.867 114.844,100.123 115.958,100.381 119.289 C 100.586 121.945,100.983 124.037,101.501 125.200 C 102.056 126.442,102.376 128.269,102.535 131.094 C 102.662 133.346,102.987 135.596,103.258 136.094 C 103.529 136.592,103.871 138.850,104.019 141.110 C 104.249 144.630,104.434 145.428,105.312 146.661 C 106.894 148.885,105.081 150.500,97.742 153.402 C 95.950 154.111,94.090 155.058,93.608 155.506 C 93.127 155.955,91.914 156.528,90.913 156.780 C 88.899 157.287,85.244 159.095,82.242 161.069 C 81.165 161.778,78.870 162.927,77.142 163.623 C 75.414 164.320,74.000 165.047,74.000 165.238 C 74.000 165.430,73.055 166.059,71.900 166.637 C 70.745 167.215,69.440 168.015,69.000 168.414 C 68.560 168.813,67.261 169.610,66.112 170.185 C 64.964 170.760,63.771 171.591,63.462 172.033 C 63.152 172.475,62.036 173.413,60.981 174.118 C 59.927 174.823,58.364 175.865,57.510 176.433 C 56.151 177.337,47.189 185.620,44.562 188.400 C 44.042 188.950,41.618 191.470,39.176 194.000 C 36.408 196.867,34.307 199.438,33.600 200.824 C 32.976 202.047,32.178 203.286,31.827 203.578 C 31.475 203.870,30.765 204.951,30.247 205.981 C 29.730 207.011,28.653 208.710,27.853 209.757 C 27.054 210.804,26.400 211.884,26.400 212.155 C 26.400 212.427,26.017 213.060,25.550 213.562 C 24.760 214.409,22.405 221.536,22.396 223.104 C 22.394 223.487,21.944 224.763,21.396 225.940 C 20.772 227.279,20.400 228.794,20.400 229.989 C 20.400 231.333,20.074 232.477,19.300 233.850 C 18.225 235.755,18.194 235.993,17.952 244.200 C 17.815 248.820,17.492 254.795,17.233 257.477 C 16.383 266.273,16.801 282.466,17.917 283.975 C 18.650 284.965,18.905 286.024,19.183 289.225 C 19.375 291.431,19.741 293.487,19.996 293.795 C 20.252 294.103,20.703 295.220,20.999 296.277 C 21.796 299.124,23.942 304.083,24.773 304.999 C 25.172 305.440,25.892 307.001,26.372 308.470 C 26.852 309.938,27.477 311.332,27.761 311.567 C 28.044 311.803,28.610 312.761,29.018 313.698 C 29.691 315.243,31.132 317.110,34.399 320.671 C 35.040 321.370,35.851 322.630,36.201 323.471 C 37.117 325.676,51.770 340.130,53.752 340.784 C 54.591 341.061,56.361 342.382,57.883 343.867 C 59.348 345.295,61.291 346.815,62.202 347.243 C 63.113 347.671,64.609 348.692,65.526 349.511 C 68.409 352.086,69.518 352.823,72.083 353.865 C 73.456 354.423,75.073 355.295,75.677 355.803 C 76.281 356.312,77.726 357.042,78.888 357.428 C 80.049 357.813,81.630 358.619,82.400 359.220 C 83.170 359.821,84.464 360.523,85.275 360.779 C 86.086 361.036,87.195 361.596,87.739 362.024 C 88.283 362.452,90.027 363.241,91.614 363.778 C 93.201 364.315,94.891 365.122,95.369 365.571 C 95.847 366.020,97.235 366.731,98.454 367.150 C 99.673 367.569,101.015 368.111,101.435 368.354 C 102.493 368.965,109.456 371.200,110.306 371.201 C 110.688 371.202,111.585 371.560,112.301 371.996 C 113.740 372.874,119.147 374.400,120.816 374.400 C 121.441 374.400,122.374 374.870,123.073 375.539 C 124.098 376.518,124.706 376.717,127.417 376.963 C 129.151 377.120,131.606 377.598,132.872 378.024 C 134.139 378.451,135.819 378.800,136.607 378.800 C 137.394 378.800,138.795 379.172,139.719 379.627 C 140.936 380.225,142.689 380.547,146.071 380.793 C 150.000 381.079,151.023 381.297,152.507 382.166 C 154.091 383.095,154.685 383.200,158.352 383.200 C 160.597 383.200,163.731 383.458,165.317 383.774 C 167.379 384.185,172.244 384.395,182.400 384.511 C 190.467 384.604,197.018 384.845,197.568 385.071 C 198.186 385.325,199.124 385.333,200.168 385.096 C 201.065 384.891,208.820 384.600,217.400 384.449 C 228.229 384.259,233.344 384.026,234.126 383.687 C 234.815 383.389,237.214 383.200,240.305 383.200 C 245.084 383.200,245.438 383.144,246.846 382.168 C 248.128 381.280,248.963 381.090,252.867 380.800 C 255.760 380.585,258.194 380.162,259.594 379.631 C 260.801 379.174,262.529 378.800,263.433 378.800 C 264.337 378.800,265.656 378.511,266.364 378.158 C 267.072 377.805,268.784 377.376,270.170 377.204 C 274.375 376.682,276.328 374.315,273.935 372.639 C 272.846 371.877,272.552 372.062,272.244 373.706 C 271.955 375.245,268.010 376.153,258.931 376.768 C 258.673 376.786,257.921 377.255,257.261 377.810 C 256.172 378.726,255.642 378.838,251.571 379.010 C 248.734 379.130,246.639 379.421,245.879 379.800 C 245.009 380.234,243.335 380.400,239.814 380.400 C 235.486 380.400,234.855 380.489,234.082 381.209 C 232.499 382.684,229.920 382.800,198.605 382.800 L 168.119 382.800 166.160 381.738 C 164.439 380.805,163.640 380.655,159.600 380.510 C 156.967 380.416,154.350 380.098,153.479 379.767 C 152.643 379.450,150.033 379.081,147.679 378.948 C 144.093 378.745,143.109 378.540,141.605 377.680 C 140.308 376.939,138.921 376.573,136.605 376.361 C 131.736 375.915,128.842 375.317,125.991 374.167 C 124.566 373.592,122.217 372.885,120.771 372.595 C 119.325 372.304,117.103 371.505,115.833 370.818 C 114.290 369.983,112.592 369.451,110.717 369.216 C 108.561 368.945,107.666 368.629,106.855 367.852 C 106.201 367.226,105.115 366.742,104.000 366.579 C 100.760 366.107,98.347 365.241,97.589 364.277 C 97.107 363.664,95.921 363.081,94.222 362.621 C 92.780 362.231,91.600 361.749,91.600 361.550 C 91.600 361.110,87.669 359.274,86.022 358.944 C 85.367 358.813,84.572 358.311,84.256 357.829 C 83.895 357.279,82.731 356.667,81.140 356.192 C 79.638 355.743,78.187 354.998,77.591 354.371 C 77.024 353.775,75.607 353.026,74.361 352.664 C 73.140 352.309,71.794 351.635,71.370 351.165 C 70.947 350.696,69.842 349.955,68.915 349.519 C 67.989 349.083,67.116 348.365,66.976 347.924 C 66.825 347.450,65.820 346.722,64.523 346.149 C 63.313 345.614,61.735 344.552,61.015 343.788 C 60.295 343.025,59.435 342.400,59.104 342.400 C 58.774 342.400,58.075 341.767,57.552 340.994 C 56.937 340.087,56.103 339.453,55.198 339.205 C 54.427 338.995,53.504 338.502,53.146 338.111 C 52.788 337.720,49.303 334.250,45.402 330.400 C 39.928 324.998,38.096 322.928,37.374 321.333 C 36.858 320.191,36.092 319.156,35.663 319.020 C 35.236 318.884,34.661 318.231,34.387 317.568 C 34.112 316.905,33.410 316.116,32.827 315.814 C 32.047 315.411,31.576 314.648,31.047 312.933 C 30.651 311.650,29.816 309.951,29.192 309.159 C 28.567 308.366,27.762 306.705,27.402 305.467 C 27.018 304.146,26.358 302.910,25.802 302.473 C 24.847 301.722,23.600 297.974,23.600 295.856 C 23.600 295.291,23.084 294.237,22.454 293.514 C 21.393 292.298,21.294 291.900,21.118 288.170 C 20.995 285.552,20.696 283.674,20.264 282.809 C 19.387 281.051,19.350 272.308,20.200 267.865 C 20.530 266.140,20.800 264.047,20.800 263.214 C 20.800 261.766,21.581 260.514,22.137 261.070 C 22.282 261.215,22.399 261.978,22.397 262.767 C 22.393 265.101,24.040 271.547,25.004 272.968 C 25.495 273.692,26.218 275.255,26.610 276.442 C 27.002 277.629,27.771 279.191,28.318 279.912 C 29.378 281.309,29.622 281.710,32.349 286.545 C 33.310 288.250,34.526 289.926,35.050 290.270 C 35.574 290.613,36.560 291.940,37.241 293.217 C 38.933 296.392,53.347 310.840,56.651 312.674 C 57.914 313.375,59.501 314.553,60.178 315.292 C 60.855 316.032,62.217 317.029,63.205 317.509 C 64.192 317.989,65.450 318.791,66.000 319.291 C 67.714 320.849,69.761 322.272,70.726 322.578 C 71.236 322.739,72.547 323.665,73.640 324.635 C 74.733 325.606,75.846 326.400,76.113 326.400 C 76.677 326.399,86.116 331.006,87.600 332.006 C 88.150 332.377,89.492 332.979,90.582 333.344 C 91.672 333.709,93.022 334.437,93.582 334.962 C 94.229 335.568,95.833 336.223,97.983 336.760 C 99.843 337.224,102.044 338.052,102.872 338.600 C 103.701 339.149,105.239 339.796,106.290 340.040 C 107.340 340.283,109.294 341.001,110.630 341.636 C 111.967 342.270,114.811 343.150,116.951 343.590 C 119.090 344.030,121.597 344.819,122.521 345.344 C 123.496 345.897,126.381 346.748,129.400 347.371 C 132.260 347.962,135.500 348.888,136.600 349.429 C 138.198 350.215,139.211 350.411,141.640 350.406 C 144.123 350.401,145.026 350.583,146.562 351.400 C 148.029 352.180,149.032 352.400,151.122 352.400 C 152.603 352.400,155.054 352.758,156.600 353.200 C 158.781 353.824,160.597 354.000,164.839 354.000 C 169.847 354.000,172.800 354.436,172.800 355.175 C 172.800 356.283,175.459 356.400,200.519 356.398 L 226.200 356.397 228.600 355.200 C 230.916 354.045,231.193 354.003,236.513 354.002 C 240.592 354.000,242.412 353.838,243.513 353.378 C 244.343 353.031,247.167 352.603,249.904 352.408 C 253.860 352.128,255.084 351.890,256.235 351.178 C 257.397 350.460,258.032 350.340,259.641 350.530 C 262.276 350.842,262.293 350.858,262.846 353.671 C 263.158 355.256,263.707 356.554,264.406 357.358 C 265.000 358.041,265.712 359.556,265.988 360.723 C 266.265 361.891,266.917 363.353,267.438 363.972 C 267.958 364.590,268.736 365.885,269.167 366.848 C 270.125 368.993,273.180 372.598,272.346 370.600 C 272.071 369.940,271.631 369.130,271.369 368.800 C 269.687 366.679,267.141 359.975,266.272 355.379 C 265.943 353.642,265.496 352.400,265.198 352.400 C 264.671 352.400,264.158 342.996,264.359 337.000 C 264.399 335.809,264.511 335.553,264.800 336.000 C 265.118 336.493,265.189 336.450,265.194 335.764 C 265.201 334.857,267.151 332.044,267.800 332.005 C 268.020 331.992,268.481 331.412,268.824 330.715 C 269.167 330.018,270.018 329.167,270.715 328.824 C 271.412 328.481,271.986 328.009,271.991 327.775 C 272.003 327.200,274.124 325.200,274.722 325.200 C 274.985 325.200,275.200 324.941,275.200 324.624 C 275.200 324.306,276.010 323.225,277.000 322.221 C 277.990 321.217,278.800 320.075,278.800 319.683 C 278.800 319.291,279.515 318.168,280.389 317.186 L 281.977 315.400 282.054 316.800 C 282.255 320.500,282.339 321.272,282.561 321.494 C 282.692 321.626,282.800 321.154,282.800 320.447 C 282.800 318.947,283.800 316.825,284.860 316.077 C 285.267 315.790,285.600 315.148,285.600 314.650 C 285.600 312.951,286.784 309.755,287.749 308.848 C 288.278 308.350,288.938 307.135,289.215 306.147 C 289.553 304.940,290.151 304.020,291.038 303.344 C 291.765 302.790,292.556 301.739,292.797 301.010 C 293.080 300.152,293.641 299.514,294.383 299.207 C 295.015 298.945,295.742 298.222,296.000 297.600 C 296.258 296.978,296.951 296.269,297.541 296.024 C 298.131 295.780,298.846 295.055,299.130 294.413 C 299.462 293.664,300.127 293.088,300.991 292.803 C 301.731 292.559,302.778 291.783,303.318 291.079 C 303.945 290.263,305.050 289.538,306.372 289.076 C 307.511 288.677,308.546 288.086,308.670 287.761 C 308.952 287.026,310.927 286.181,313.241 285.804 C 314.271 285.636,315.448 285.097,316.082 284.502 C 316.676 283.943,318.026 283.254,319.082 282.970 C 320.961 282.464,320.972 282.453,319.600 282.404 C 318.830 282.376,317.499 282.229,316.642 282.077 L 315.083 281.800 316.177 280.500 C 316.779 279.785,317.487 279.200,317.751 279.200 C 318.220 279.200,323.356 274.137,330.012 267.113 C 331.830 265.195,333.458 263.713,333.631 263.819 C 333.804 263.926,334.030 263.875,334.134 263.707 C 334.349 263.358,336.411 263.409,345.150 263.978 C 351.810 264.411,352.473 264.537,353.992 265.653 C 354.547 266.061,356.524 266.778,358.386 267.247 C 360.487 267.777,362.308 268.519,363.186 269.203 C 363.964 269.810,365.081 270.417,365.669 270.553 C 366.257 270.689,367.247 271.226,367.869 271.746 C 368.491 272.267,369.923 273.158,371.050 273.728 C 372.178 274.297,373.203 275.030,373.328 275.357 C 373.453 275.683,374.241 276.140,375.078 276.373 C 377.432 277.027,377.751 276.951,377.023 275.911 C 376.175 274.700,376.241 272.203,377.200 269.200 C 377.640 267.823,378.000 266.269,378.000 265.748 C 378.000 264.342,379.002 264.586,380.025 266.241 C 381.247 268.218,380.968 275.279,379.591 277.213 L 378.738 278.411 379.819 279.705 C 381.563 281.794,381.936 281.850,382.661 280.125 C 383.815 277.383,383.570 247.146,382.357 242.642 C 382.122 241.768,382.034 240.530,382.162 239.892 C 382.327 239.066,382.104 238.237,381.388 237.016 C 380.610 235.688,380.334 234.542,380.166 231.950 C 380.020 229.691,379.639 227.883,378.996 226.400 C 378.471 225.190,377.635 222.769,377.139 221.021 C 376.605 219.140,375.801 217.343,375.170 216.621 C 374.546 215.906,373.911 214.496,373.639 213.221 C 373.384 212.023,372.758 210.493,372.248 209.821 C 371.739 209.149,370.689 207.430,369.916 206.000 C 367.570 201.660,365.453 198.319,364.921 198.114 C 364.321 197.884,360.400 192.675,360.400 192.108 C 360.400 191.571,350.742 181.835,349.330 180.948 C 346.666 179.275,342.793 176.249,342.245 175.412 C 341.918 174.914,340.784 174.003,339.725 173.388 C 338.666 172.773,337.350 171.934,336.800 171.523 C 333.513 169.070,331.885 167.962,330.150 167.001 C 329.077 166.407,327.896 165.651,327.526 165.321 C 327.155 164.992,324.372 163.471,321.342 161.942 C 318.312 160.413,315.258 158.807,314.557 158.373 C 313.855 157.940,312.236 157.225,310.960 156.786 C 309.683 156.347,308.251 155.624,307.778 155.179 C 307.305 154.735,305.767 153.940,304.359 153.412 C 296.345 150.407,294.793 149.639,294.106 148.336 C 293.073 146.379,293.955 137.600,295.184 137.600 C 295.812 137.600,296.361 135.072,296.357 132.200 C 296.355 130.660,296.631 128.500,296.972 127.400 C 297.319 126.280,297.593 123.936,297.596 122.071 C 297.599 119.250,297.752 118.483,298.597 117.042 C 299.380 115.705,299.667 114.474,299.935 111.294 C 300.139 108.883,300.523 106.871,300.885 106.319 C 301.693 105.086,302.368 101.709,302.121 100.142 C 302.011 99.451,302.299 97.391,302.761 95.566 C 303.222 93.741,303.608 91.247,303.617 90.024 C 303.641 87.029,304.195 84.340,304.895 83.824 C 306.037 82.981,306.400 81.588,306.400 78.046 C 306.400 76.062,306.670 73.402,307.000 72.135 C 307.330 70.869,307.600 68.716,307.600 67.353 C 307.600 65.429,307.847 64.398,308.700 62.752 C 310.385 59.502,310.412 45.832,308.738 43.365 C 308.153 42.504,307.556 41.170,307.409 40.400 C 306.881 37.617,305.883 34.980,304.988 34.000 C 304.486 33.450,303.800 32.333,303.465 31.517 C 302.508 29.191,294.606 21.565,291.590 20.058 C 290.219 19.373,288.891 18.641,288.639 18.433 C 284.669 15.137,261.183 15.729,256.755 19.236 C 255.946 19.876,255.187 20.400,255.068 20.400 C 253.366 20.400,244.882 27.891,243.516 30.600 C 243.073 31.480,242.384 32.560,241.986 33.000 C 240.634 34.494,238.299 40.478,237.998 43.218 C 237.839 44.665,237.460 46.288,237.155 46.824 C 236.693 47.636,236.582 54.914,236.491 90.046 C 236.365 139.032,236.964 133.778,231.600 132.955 C 225.990 132.095,172.813 132.189,170.400 133.064 C 166.929 134.323,161.882 134.284,160.865 132.992 L 160.000 131.892 160.000 88.356 L 160.000 44.821 158.794 41.710 C 157.111 37.368,155.512 34.000,155.133 34.000 C 154.957 34.000,154.335 33.055,153.751 31.900 C 152.136 28.708,145.951 23.047,142.000 21.146 C 133.035 16.831,126.041 15.493,119.200 16.784 M133.429 206.661 C 136.561 207.712,143.600 213.492,143.600 215.014 C 143.600 215.261,144.141 216.279,144.801 217.277 C 146.523 219.876,148.000 224.218,148.000 226.680 C 148.000 227.978,148.398 229.789,149.055 231.482 C 150.620 235.514,150.709 237.780,149.401 240.218 C 148.619 241.676,148.284 242.993,148.135 245.200 C 147.929 248.250,146.496 252.770,145.318 254.084 C 144.981 254.460,144.302 255.630,143.809 256.684 C 142.854 258.725,139.573 262.257,137.100 263.906 C 136.275 264.456,135.600 265.039,135.600 265.201 C 135.600 266.659,125.500 266.784,123.932 265.345 C 123.419 264.875,122.190 264.093,121.200 263.608 C 119.569 262.808,115.958 259.419,114.587 257.400 C 114.288 256.960,113.118 254.084,111.988 251.010 L 109.932 245.420 110.066 235.210 C 110.200 225.017,110.202 224.997,111.252 223.200 C 111.831 222.210,112.427 220.663,112.577 219.762 C 112.748 218.731,113.322 217.622,114.125 216.770 C 114.826 216.024,115.853 214.513,116.407 213.411 C 116.961 212.309,117.951 211.077,118.607 210.673 C 126.172 206.015,129.121 205.216,133.429 206.661 M272.000 206.837 C 274.798 207.547,281.835 213.712,283.423 216.845 C 283.950 217.886,284.811 219.371,285.336 220.144 C 285.861 220.917,286.415 222.491,286.568 223.642 C 286.720 224.793,287.105 226.356,287.423 227.116 C 288.277 229.161,288.232 242.167,287.360 245.416 C 287.008 246.727,286.497 248.721,286.225 249.847 C 285.952 250.973,285.349 252.302,284.885 252.801 C 284.420 253.300,283.924 254.237,283.782 254.884 C 283.640 255.530,283.034 256.631,282.437 257.330 C 281.839 258.028,280.848 259.473,280.234 260.541 C 279.328 262.117,278.694 262.674,276.859 263.505 C 275.617 264.068,274.074 264.964,273.430 265.497 C 271.665 266.959,264.129 266.739,262.000 265.164 C 261.230 264.594,260.028 263.902,259.328 263.627 C 257.695 262.984,254.238 259.016,253.339 256.752 C 252.956 255.788,252.139 254.200,251.522 253.222 C 250.905 252.244,250.400 251.038,250.400 250.542 C 250.400 250.046,249.758 247.876,248.973 245.720 L 247.545 241.800 247.711 236.000 C 247.859 230.819,247.989 229.944,248.929 227.800 C 249.507 226.480,249.985 224.643,249.991 223.719 C 250.001 221.801,250.460 220.627,252.300 217.809 C 253.015 216.714,253.600 215.665,253.600 215.477 C 253.600 215.034,257.739 210.942,259.800 209.348 C 263.742 206.298,267.126 205.602,272.000 206.837 M312.731 284.039 C 313.456 285.199,313.175 285.338,310.276 285.247 C 308.516 285.193,308.623 284.614,310.548 283.776 C 312.173 283.069,312.122 283.063,312.731 284.039 M304.392 298.005 C 304.079 298.198,303.963 298.496,304.133 298.667 C 304.304 298.837,304.592 298.737,304.773 298.443 C 305.047 298.000,305.140 298.002,305.320 298.455 C 305.457 298.799,305.548 298.824,305.568 298.524 C 305.614 297.841,305.055 297.595,304.392 298.005 M301.298 301.192 C 300.963 301.728,300.946 302.043,301.243 302.227 C 301.896 302.630,302.539 301.777,302.131 301.049 C 301.822 300.496,301.722 300.513,301.298 301.192 M298.028 304.166 C 297.561 304.729,297.577 304.784,298.143 304.566 C 298.578 304.400,298.800 304.524,298.800 304.934 C 298.800 305.740,298.127 306.150,297.866 305.502 C 297.721 305.143,297.654 305.135,297.632 305.476 C 297.580 306.255,298.272 306.437,298.812 305.786 C 299.155 305.373,299.196 304.917,298.942 304.347 C 298.602 303.586,298.522 303.570,298.028 304.166 M295.060 307.870 C 295.312 308.051,295.611 308.650,295.723 309.200 C 295.899 310.061,295.918 310.038,295.863 309.031 C 295.828 308.371,295.538 307.791,295.200 307.700 C 294.799 307.593,294.752 307.649,295.060 307.870 M294.501 309.800 C 294.505 310.680,294.587 310.993,294.683 310.495 C 294.779 309.998,294.775 309.278,294.675 308.895 C 294.575 308.513,294.496 308.920,294.501 309.800 M285.084 312.650 C 284.033 313.700,283.350 311.731,284.300 310.389 L 285.000 309.400 285.127 310.940 C 285.196 311.787,285.177 312.556,285.084 312.650 " stroke="none" fill="#d38b4c" fill-rule="evenodd"></path><path id="path1" d="M101.600 0.800 C 101.600 1.502,101.333 1.600,99.426 1.600 C 96.134 1.600,95.200 2.084,95.200 3.790 C 95.200 5.162,95.158 5.200,93.643 5.200 C 91.996 5.200,91.600 5.633,91.600 7.433 C 91.600 8.295,91.426 8.400,90.000 8.400 L 88.400 8.400 88.400 10.000 C 88.400 11.593,87.694 11.994,85.500 11.647 C 85.335 11.621,85.200 11.780,85.200 12.000 C 85.200 12.220,84.868 12.400,84.462 12.400 C 83.600 12.400,82.543 13.474,82.341 14.556 C 82.248 15.054,81.802 15.354,81.035 15.436 C 79.301 15.620,78.810 16.369,78.542 19.245 C 78.299 21.838,78.295 21.846,77.149 21.678 C 76.441 21.574,76.000 21.689,76.000 21.978 C 76.000 22.236,75.820 22.336,75.600 22.200 C 75.356 22.049,75.200 22.648,75.200 23.733 C 75.200 25.307,75.082 25.543,74.180 25.769 C 73.140 26.030,71.501 28.986,71.632 30.366 C 71.665 30.715,71.671 32.654,71.646 34.676 L 71.600 38.352 70.100 38.476 L 68.600 38.600 68.495 51.700 L 68.389 64.800 69.995 64.800 L 71.600 64.800 71.619 73.700 C 71.648 87.176,71.788 88.000,74.049 88.000 L 75.200 88.000 75.231 93.500 C 75.248 96.525,75.267 100.800,75.274 103.000 C 75.289 107.382,75.533 108.000,77.249 108.000 L 78.400 108.000 78.400 114.320 C 78.400 121.145,78.530 121.600,80.480 121.600 L 81.600 121.600 81.600 130.000 L 81.600 138.400 78.400 138.400 L 75.200 138.400 75.200 140.000 L 75.200 141.600 73.100 141.647 C 71.945 141.673,70.832 141.662,70.626 141.623 C 69.194 141.347,68.400 142.055,68.400 143.608 L 68.400 145.200 65.600 145.200 C 64.060 145.200,62.685 145.185,62.545 145.166 C 62.085 145.104,61.612 146.178,61.606 147.300 C 61.600 148.316,61.477 148.400,60.000 148.400 L 58.400 148.400 58.400 150.000 L 58.400 151.600 55.900 151.647 C 54.525 151.673,53.246 151.667,53.058 151.633 C 52.547 151.542,51.582 152.442,51.642 152.953 C 51.872 154.901,51.631 155.200,49.826 155.200 C 47.304 155.200,46.030 155.794,45.541 157.198 C 45.266 157.985,44.850 158.400,44.335 158.400 C 42.909 158.400,42.000 159.167,42.000 160.370 C 42.000 161.372,41.817 161.545,40.501 161.792 C 38.806 162.110,38.415 162.536,38.406 164.076 C 38.401 165.029,38.229 165.166,36.900 165.276 C 35.486 165.393,35.393 165.485,35.277 166.878 C 35.159 168.305,35.096 168.360,33.477 168.478 C 31.858 168.596,31.796 168.651,31.677 170.077 C 31.562 171.465,31.465 171.562,30.077 171.677 C 28.648 171.796,28.596 171.855,28.477 173.500 C 28.355 175.192,28.346 175.200,26.777 175.200 C 25.584 175.200,25.200 175.359,25.200 175.854 C 25.200 176.637,23.516 178.280,22.514 178.475 C 21.841 178.606,21.747 178.889,21.643 181.100 C 21.608 181.821,21.365 182.000,20.414 182.000 C 19.153 182.000,18.400 182.888,18.400 184.374 C 18.400 184.982,18.144 185.200,17.429 185.200 C 15.773 185.200,15.200 186.184,15.200 189.029 L 15.200 191.600 14.029 191.600 C 12.538 191.600,11.600 192.535,11.600 194.021 C 11.600 194.924,11.379 195.240,10.616 195.432 C 9.146 195.801,8.803 196.446,8.531 199.354 C 8.313 201.697,8.188 202.001,7.442 202.006 C 5.611 202.019,5.407 202.516,5.267 207.311 L 5.135 211.852 4.032 211.690 C 2.646 211.487,1.527 212.535,1.618 213.953 C 1.977 219.562,1.567 225.200,0.800 225.200 C 0.006 225.200,0.000 225.467,0.000 258.400 C 0.000 291.333,0.006 291.600,0.800 291.600 C 1.573 291.600,2.031 296.868,1.634 301.185 C 1.391 303.818,1.930 304.800,3.618 304.800 L 5.200 304.800 5.201 308.100 C 5.203 311.682,5.976 313.685,7.551 314.185 C 8.183 314.385,8.384 314.848,8.479 316.320 C 8.599 318.179,8.617 318.201,10.100 318.324 C 11.624 318.450,12.017 319.494,11.618 322.354 C 11.382 324.044,11.997 324.800,13.608 324.800 L 15.200 324.800 15.200 326.600 C 15.200 327.590,15.368 328.400,15.573 328.400 C 15.778 328.400,16.051 328.731,16.180 329.136 C 16.308 329.541,16.851 330.106,17.387 330.393 C 18.167 330.811,18.385 331.281,18.480 332.757 C 18.598 334.573,18.622 334.602,20.100 334.724 C 21.557 334.845,21.916 335.365,21.633 336.942 C 21.498 337.694,22.571 338.400,23.849 338.400 C 25.159 338.400,25.200 338.449,25.200 340.000 L 25.200 341.600 26.800 341.600 L 28.400 341.600 28.400 343.200 L 28.400 344.800 30.000 344.800 C 31.581 344.800,31.935 345.264,31.633 346.942 C 31.498 347.694,32.571 348.400,33.849 348.400 C 35.159 348.400,35.200 348.449,35.200 350.000 L 35.200 351.600 36.800 351.600 L 38.400 351.600 38.400 353.200 L 38.400 354.800 40.000 354.800 C 41.502 354.800,41.600 354.871,41.600 355.971 C 41.600 357.866,42.485 358.400,45.629 358.400 L 48.400 358.400 48.400 359.977 C 48.400 361.546,48.408 361.555,50.100 361.677 C 51.328 361.766,51.765 361.960,51.675 362.374 C 51.327 363.977,51.983 364.800,53.608 364.800 C 55.163 364.800,55.200 364.833,55.200 366.210 C 55.200 367.935,56.132 368.400,59.589 368.400 C 61.686 368.400,61.905 368.478,61.727 369.159 C 61.375 370.503,62.272 371.541,63.901 371.676 C 65.089 371.774,65.426 371.981,65.524 372.671 C 65.727 374.098,66.672 374.525,70.057 374.721 C 73.420 374.916,74.935 375.719,75.272 377.486 C 75.387 378.085,75.904 378.219,78.481 378.316 L 81.554 378.433 81.677 379.916 L 81.800 381.400 85.100 381.516 C 88.109 381.622,88.400 381.704,88.400 382.442 C 88.400 384.402,89.041 384.800,92.190 384.800 L 95.152 384.800 95.276 386.298 C 95.431 388.176,95.859 388.288,103.100 388.353 L 108.400 388.400 108.400 390.000 L 108.400 391.600 111.800 391.600 C 115.133 391.600,115.200 391.619,115.200 392.571 C 115.200 394.566,115.953 394.800,122.358 394.800 L 128.259 394.800 128.629 396.295 C 129.118 398.266,129.642 398.348,141.900 398.377 C 151.326 398.399,151.600 398.423,151.600 399.200 C 151.600 399.996,151.867 400.000,200.000 400.000 C 248.133 400.000,248.400 399.996,248.400 399.200 C 248.400 398.423,248.667 398.400,257.771 398.400 C 268.063 398.400,268.400 398.324,268.400 396.003 L 268.400 394.864 275.740 394.732 C 283.490 394.593,284.227 394.419,284.476 392.671 C 284.591 391.863,284.852 391.792,288.075 391.685 L 291.550 391.570 291.675 393.085 L 291.800 394.600 295.100 394.716 L 298.400 394.832 298.400 396.373 C 298.400 398.238,298.722 398.400,302.433 398.400 C 304.933 398.400,305.200 398.477,305.200 399.200 C 305.200 399.991,305.467 400.000,330.000 400.000 C 354.533 400.000,354.800 399.991,354.800 399.200 C 354.800 398.477,355.067 398.400,357.567 398.400 C 361.278 398.400,361.600 398.238,361.600 396.373 L 361.600 394.832 364.900 394.716 L 368.200 394.600 368.324 393.100 L 368.448 391.600 370.850 391.600 C 373.883 391.600,374.800 391.132,374.800 389.586 C 374.800 388.541,374.940 388.400,375.971 388.400 C 377.465 388.400,378.400 387.465,378.400 385.971 C 378.400 384.871,378.498 384.800,380.000 384.800 L 381.600 384.800 381.600 383.200 L 381.600 381.600 383.200 381.600 L 384.800 381.600 384.800 380.000 C 384.800 378.498,384.871 378.400,385.971 378.400 C 387.465 378.400,388.400 377.465,388.400 375.971 C 388.400 374.934,388.539 374.800,389.610 374.800 C 391.096 374.800,391.600 373.729,391.600 370.574 C 391.600 368.541,391.663 368.400,392.567 368.400 C 394.513 368.400,394.800 368.053,394.800 365.703 C 394.800 363.439,395.956 361.600,397.378 361.600 C 398.164 361.600,398.400 360.668,398.400 357.567 C 398.400 355.067,398.477 354.800,399.200 354.800 C 399.991 354.800,400.000 354.533,400.000 330.000 C 400.000 305.467,399.991 305.200,399.200 305.200 C 398.425 305.200,398.400 304.933,398.400 296.800 C 398.400 288.667,398.425 288.400,399.200 288.400 C 399.993 288.400,400.000 288.133,400.000 256.800 C 400.000 225.467,399.993 225.200,399.200 225.200 C 398.438 225.200,398.400 224.932,398.395 219.500 C 398.388 212.295,398.326 212.062,396.353 211.746 L 394.800 211.498 394.800 208.349 C 394.800 206.516,394.633 205.200,394.400 205.200 C 394.180 205.200,394.000 204.943,394.000 204.629 C 394.000 204.315,393.505 203.671,392.900 203.197 C 392.061 202.540,391.753 201.893,391.600 200.468 C 391.404 198.640,391.368 198.597,389.900 198.476 C 388.426 198.354,388.400 198.323,388.396 196.676 C 388.386 192.883,388.060 192.112,386.355 191.839 C 384.850 191.599,384.800 191.539,384.800 189.995 C 384.800 188.401,384.799 188.400,383.200 188.400 L 381.600 188.400 381.594 185.700 C 381.586 182.424,381.373 182.042,379.481 181.906 C 378.104 181.807,378.002 181.711,378.001 180.514 C 378.000 179.149,377.159 178.400,375.626 178.400 C 374.983 178.400,374.800 178.146,374.800 177.249 C 374.800 175.824,373.923 175.045,372.602 175.297 C 371.735 175.463,371.600 175.345,371.600 174.421 C 371.600 172.953,370.825 172.073,369.400 171.925 C 368.395 171.820,368.180 171.605,368.075 170.600 C 367.932 169.221,367.054 168.400,365.724 168.400 C 364.973 168.400,364.800 168.185,364.800 167.249 C 364.800 165.824,363.923 165.045,362.602 165.297 C 361.735 165.463,361.600 165.345,361.600 164.421 C 361.600 162.953,360.825 162.073,359.400 161.925 C 358.366 161.817,358.182 161.618,358.073 160.480 C 357.919 158.880,356.927 158.400,353.774 158.400 L 351.600 158.400 351.600 156.800 L 351.600 155.200 349.800 155.200 C 348.202 155.200,347.999 155.099,347.994 154.300 C 347.982 152.522,346.310 151.635,342.924 151.610 C 341.741 151.601,341.639 151.491,341.524 150.100 C 341.404 148.644,341.350 148.596,339.700 148.477 C 338.118 148.363,338.000 148.273,338.000 147.191 C 338.000 145.675,337.068 145.200,334.097 145.200 L 331.741 145.200 331.371 143.705 C 330.937 141.958,329.989 141.662,324.700 141.623 L 321.600 141.600 321.600 140.000 L 321.600 138.400 319.800 138.400 C 318.075 138.400,318.000 138.351,318.000 137.224 C 318.000 135.928,317.670 135.616,315.835 135.177 C 314.650 134.894,314.667 134.880,316.253 134.841 C 318.424 134.787,318.388 134.978,318.395 123.527 C 318.400 114.683,318.449 114.038,319.136 113.820 C 319.541 113.692,320.111 113.140,320.404 112.593 C 320.696 112.047,321.085 111.600,321.268 111.600 C 321.450 111.600,321.600 109.272,321.600 106.427 L 321.600 101.253 322.691 101.127 C 324.628 100.902,324.788 99.961,324.794 88.700 L 324.800 78.400 325.971 78.400 C 328.549 78.400,328.450 79.374,328.319 55.214 C 328.190 31.478,328.242 32.000,326.007 32.000 C 324.957 32.000,324.902 31.898,324.691 29.570 C 324.459 27.010,323.631 25.600,322.360 25.600 C 321.789 25.600,321.619 25.214,321.522 23.700 C 321.401 21.818,321.386 21.799,319.900 21.676 L 318.400 21.552 318.400 19.402 C 318.400 16.135,317.913 15.200,316.210 15.200 C 314.832 15.200,314.800 15.163,314.800 13.605 C 314.800 12.056,314.753 12.002,313.221 11.757 C 311.750 11.522,311.634 11.406,311.521 10.052 L 311.400 8.600 308.123 8.484 L 304.846 8.368 304.723 6.884 C 304.607 5.484,304.515 5.393,303.100 5.276 C 301.685 5.159,301.600 5.075,301.600 3.790 C 301.600 2.303,300.658 1.492,299.078 1.619 C 294.983 1.945,291.600 1.575,291.600 0.800 C 291.600 0.011,291.333 0.000,271.600 0.000 C 251.867 0.000,251.600 0.011,251.600 0.800 C 251.600 1.517,251.333 1.600,249.033 1.600 C 245.530 1.600,245.200 1.776,245.200 3.643 C 245.200 5.196,245.196 5.200,243.580 5.200 C 241.544 5.200,239.677 6.144,239.193 7.419 C 238.873 8.261,238.563 8.400,237.010 8.400 L 235.200 8.400 235.200 10.000 C 235.200 11.581,234.736 11.935,233.058 11.633 C 232.547 11.542,231.582 12.442,231.642 12.953 C 231.854 14.751,231.587 15.153,230.100 15.276 C 228.622 15.398,228.598 15.427,228.480 17.243 C 228.385 18.719,228.167 19.189,227.387 19.607 C 226.851 19.894,226.308 20.459,226.180 20.864 C 226.051 21.269,225.778 21.600,225.573 21.600 C 225.368 21.600,225.200 22.399,225.200 23.376 C 225.200 25.139,225.189 25.153,223.700 25.276 C 222.875 25.344,222.184 25.580,222.165 25.800 C 222.146 26.020,222.016 26.470,221.876 26.800 C 221.736 27.130,221.572 28.390,221.511 29.600 C 221.410 31.610,221.314 31.811,220.400 31.928 C 218.687 32.148,218.400 32.996,218.400 37.833 C 218.400 42.309,218.399 42.314,217.374 42.571 C 216.268 42.848,215.100 45.003,215.221 46.542 C 215.258 47.014,215.269 61.845,215.244 79.500 L 215.200 111.600 200.700 111.606 C 187.529 111.612,185.061 111.761,185.166 112.545 C 185.185 112.685,185.200 113.340,185.200 114.000 L 185.200 115.200 181.800 115.200 L 178.400 115.200 178.400 74.029 C 178.400 28.492,178.564 31.309,175.935 31.695 L 174.800 31.861 174.800 28.531 L 174.800 25.200 173.216 25.200 L 171.632 25.200 171.516 21.900 L 171.400 18.600 169.900 18.476 C 168.626 18.370,168.400 18.210,168.400 17.409 C 168.400 15.634,167.999 15.200,166.357 15.200 C 164.808 15.200,164.800 15.192,164.800 13.605 C 164.800 12.056,164.753 12.002,163.221 11.757 C 161.750 11.522,161.634 11.406,161.521 10.052 C 161.407 8.688,161.309 8.592,159.900 8.476 C 158.626 8.370,158.400 8.210,158.400 7.409 C 158.400 5.367,158.124 5.200,154.757 5.200 L 151.600 5.200 151.600 3.608 C 151.600 2.055,150.806 1.347,149.374 1.623 C 147.393 2.004,144.800 1.538,144.800 0.800 C 144.800 0.010,144.533 0.000,123.200 0.000 C 101.867 0.000,101.600 0.010,101.600 0.800 M133.093 17.374 C 134.899 17.937,138.515 19.469,142.000 21.146 C 145.951 23.047,152.136 28.708,153.751 31.900 C 154.335 33.055,154.957 34.000,155.133 34.000 C 155.512 34.000,157.111 37.368,158.794 41.710 L 160.000 44.821 160.000 88.356 L 160.000 131.892 160.865 132.992 C 161.882 134.284,166.929 134.323,170.400 133.064 C 172.813 132.189,225.990 132.095,231.600 132.955 C 236.964 133.778,236.365 139.032,236.491 90.046 C 236.582 54.914,236.693 47.636,237.155 46.824 C 237.460 46.288,237.839 44.665,237.998 43.218 C 238.299 40.478,240.634 34.494,241.986 33.000 C 242.384 32.560,243.073 31.480,243.516 30.600 C 244.882 27.891,253.366 20.400,255.068 20.400 C 255.187 20.400,255.946 19.876,256.755 19.236 C 261.183 15.729,284.669 15.137,288.639 18.433 C 288.891 18.641,290.219 19.373,291.590 20.058 C 294.606 21.565,302.508 29.191,303.465 31.517 C 303.800 32.333,304.486 33.450,304.988 34.000 C 305.883 34.980,306.881 37.617,307.409 40.400 C 307.556 41.170,308.153 42.504,308.738 43.365 C 310.412 45.832,310.385 59.502,308.700 62.752 C 307.847 64.398,307.600 65.429,307.600 67.353 C 307.600 68.716,307.330 70.869,307.000 72.135 C 306.670 73.402,306.400 76.062,306.400 78.046 C 306.400 81.588,306.037 82.981,304.895 83.824 C 304.195 84.340,303.641 87.029,303.617 90.024 C 303.608 91.247,303.222 93.741,302.761 95.566 C 302.299 97.391,302.011 99.451,302.121 100.142 C 302.368 101.709,301.693 105.086,300.885 106.319 C 300.523 106.871,300.139 108.883,299.935 111.294 C 299.667 114.474,299.380 115.705,298.597 117.042 C 297.752 118.483,297.599 119.250,297.596 122.071 C 297.593 123.936,297.319 126.280,296.972 127.400 C 296.631 128.500,296.355 130.660,296.357 132.200 C 296.361 135.072,295.812 137.600,295.184 137.600 C 293.955 137.600,293.073 146.379,294.106 148.336 C 294.793 149.639,296.345 150.407,304.359 153.412 C 305.767 153.940,307.305 154.735,307.778 155.179 C 308.251 155.624,309.683 156.347,310.960 156.786 C 312.236 157.225,313.855 157.940,314.557 158.373 C 315.258 158.807,318.312 160.413,321.342 161.942 C 324.372 163.471,327.155 164.992,327.526 165.321 C 327.896 165.651,329.077 166.407,330.150 167.001 C 331.885 167.962,333.513 169.070,336.800 171.523 C 337.350 171.934,338.666 172.773,339.725 173.388 C 340.784 174.003,341.918 174.914,342.245 175.412 C 342.793 176.249,346.666 179.275,349.330 180.948 C 350.742 181.835,360.400 191.571,360.400 192.108 C 360.400 192.675,364.321 197.884,364.921 198.114 C 365.453 198.319,367.570 201.660,369.916 206.000 C 370.689 207.430,371.739 209.149,372.248 209.821 C 372.758 210.493,373.384 212.023,373.639 213.221 C 373.911 214.496,374.546 215.906,375.170 216.621 C 375.801 217.343,376.605 219.140,377.139 221.021 C 377.635 222.769,378.471 225.190,378.996 226.400 C 379.639 227.883,380.020 229.691,380.166 231.950 C 380.334 234.542,380.610 235.688,381.388 237.016 C 382.104 238.237,382.327 239.066,382.162 239.892 C 382.034 240.530,382.122 241.768,382.357 242.642 C 383.547 247.061,383.817 277.379,382.691 280.056 L 382.078 281.511 380.139 281.150 C 377.193 280.601,376.971 280.483,376.210 279.071 C 375.822 278.350,374.984 277.461,374.348 277.096 C 373.713 276.732,373.022 275.983,372.813 275.433 C 372.596 274.863,371.694 274.058,370.716 273.562 C 369.772 273.083,368.491 272.265,367.869 271.745 C 367.247 271.225,366.257 270.689,365.669 270.553 C 365.081 270.417,363.964 269.810,363.186 269.203 C 362.308 268.519,360.487 267.777,358.386 267.247 C 356.524 266.778,354.547 266.061,353.992 265.653 C 352.473 264.537,351.810 264.411,345.150 263.978 C 336.411 263.409,334.349 263.358,334.134 263.707 C 334.030 263.875,333.804 263.926,333.631 263.819 C 333.458 263.713,331.830 265.195,330.012 267.113 C 323.356 274.137,318.220 279.200,317.751 279.200 C 317.146 279.200,315.083 281.616,315.409 281.942 C 315.542 282.075,321.084 282.305,327.725 282.453 C 340.262 282.732,341.842 282.940,343.570 284.536 C 344.216 285.132,345.570 285.684,347.200 286.016 C 349.112 286.405,350.081 286.843,350.860 287.672 C 351.444 288.293,352.126 288.800,352.376 288.800 C 353.215 288.800,355.789 290.311,356.800 291.396 C 357.350 291.987,358.386 292.715,359.103 293.016 C 359.819 293.316,360.569 293.994,360.770 294.522 C 360.971 295.051,361.780 295.863,362.568 296.328 C 363.356 296.793,364.000 297.437,364.000 297.759 C 364.000 298.082,364.543 298.732,365.206 299.204 C 365.869 299.677,366.706 300.634,367.065 301.332 C 367.424 302.029,368.311 303.296,369.037 304.147 C 369.763 304.997,370.611 306.437,370.921 307.347 C 371.231 308.256,371.933 309.659,372.481 310.465 C 373.083 311.350,373.742 313.267,374.148 315.309 C 374.517 317.168,375.220 319.479,375.709 320.444 C 377.158 323.301,377.052 335.956,375.550 339.400 C 374.974 340.720,374.278 343.022,374.003 344.515 C 373.729 346.008,373.112 347.808,372.634 348.515 C 372.155 349.222,371.443 350.610,371.050 351.600 C 370.657 352.590,370.015 353.760,369.622 354.200 C 369.229 354.640,368.264 356.022,367.477 357.272 C 365.896 359.782,359.662 366.123,357.838 367.077 C 357.199 367.411,355.953 368.209,355.068 368.850 C 352.543 370.679,347.106 373.171,344.650 373.625 C 343.420 373.852,341.376 374.520,340.107 375.109 C 335.768 377.122,321.205 376.920,318.521 374.809 C 318.028 374.422,316.528 373.982,315.176 373.829 C 312.303 373.504,310.902 373.028,309.800 372.002 C 309.360 371.593,307.989 370.881,306.754 370.421 C 305.519 369.960,304.169 369.208,303.754 368.749 C 303.339 368.290,302.328 367.572,301.506 367.152 C 300.684 366.733,299.712 365.933,299.346 365.374 C 298.981 364.816,298.181 364.100,297.569 363.784 C 296.957 363.468,296.341 362.845,296.200 362.400 C 296.059 361.955,295.402 361.311,294.740 360.969 C 294.078 360.627,293.291 359.757,292.990 359.037 C 292.689 358.317,291.836 357.265,291.095 356.700 C 290.207 356.022,289.578 355.082,289.248 353.936 C 288.973 352.981,288.315 351.837,287.785 351.394 C 287.110 350.829,286.584 349.638,286.030 347.420 C 285.595 345.679,284.962 344.099,284.624 343.910 C 282.904 342.947,282.442 339.705,282.386 328.217 C 282.362 323.387,282.237 318.543,282.108 317.453 L 281.873 315.472 280.337 317.222 C 279.492 318.184,278.800 319.291,278.800 319.683 C 278.800 320.075,277.990 321.217,277.000 322.221 C 276.010 323.225,275.200 324.306,275.200 324.624 C 275.200 324.941,274.985 325.200,274.722 325.200 C 274.124 325.200,272.003 327.200,271.991 327.775 C 271.986 328.009,271.412 328.481,270.715 328.824 C 270.018 329.167,269.167 330.018,268.824 330.715 C 268.481 331.412,268.020 331.992,267.800 332.005 C 267.151 332.044,265.201 334.857,265.194 335.764 C 265.189 336.450,265.118 336.493,264.800 336.000 C 264.348 335.300,264.285 336.299,264.358 343.000 C 264.429 349.452,264.701 351.117,265.806 351.841 C 266.953 352.592,267.126 353.029,267.813 356.902 C 268.253 359.381,268.609 360.265,269.587 361.302 C 270.318 362.077,270.913 363.224,271.064 364.150 C 271.223 365.120,271.735 366.070,272.433 366.692 C 273.954 368.048,274.800 370.359,274.800 373.162 C 274.800 376.037,274.009 376.728,270.170 377.204 C 268.784 377.376,267.072 377.805,266.364 378.158 C 265.656 378.511,264.337 378.800,263.433 378.800 C 262.529 378.800,260.801 379.174,259.594 379.631 C 258.194 380.162,255.760 380.585,252.867 380.800 C 248.963 381.090,248.128 381.280,246.846 382.168 C 245.438 383.144,245.084 383.200,240.305 383.200 C 237.214 383.200,234.815 383.389,234.126 383.687 C 233.344 384.026,228.229 384.259,217.400 384.449 C 208.820 384.600,201.065 384.891,200.168 385.096 C 199.124 385.333,198.186 385.325,197.568 385.071 C 197.018 384.845,190.467 384.604,182.400 384.511 C 172.244 384.395,167.379 384.185,165.317 383.774 C 163.731 383.458,160.597 383.200,158.352 383.200 C 154.685 383.200,154.091 383.095,152.507 382.166 C 151.023 381.297,150.000 381.079,146.071 380.793 C 142.689 380.547,140.936 380.225,139.719 379.627 C 138.795 379.172,137.394 378.800,136.607 378.800 C 135.819 378.800,134.139 378.451,132.872 378.024 C 131.606 377.598,129.151 377.120,127.417 376.963 C 124.706 376.717,124.098 376.518,123.073 375.539 C 122.374 374.870,121.441 374.400,120.816 374.400 C 119.147 374.400,113.740 372.874,112.301 371.996 C 111.585 371.560,110.688 371.202,110.306 371.201 C 109.456 371.200,102.493 368.965,101.435 368.354 C 101.015 368.111,99.673 367.569,98.454 367.150 C 97.235 366.731,95.847 366.020,95.369 365.571 C 94.891 365.122,93.201 364.315,91.614 363.778 C 90.027 363.241,88.283 362.452,87.739 362.024 C 87.195 361.596,86.086 361.036,85.275 360.779 C 84.464 360.523,83.170 359.821,82.400 359.220 C 81.630 358.619,80.049 357.813,78.888 357.428 C 77.726 357.042,76.281 356.312,75.677 355.803 C 75.073 355.295,73.456 354.423,72.083 353.865 C 69.518 352.823,68.409 352.086,65.526 349.511 C 64.609 348.692,63.113 347.671,62.202 347.243 C 61.291 346.815,59.348 345.295,57.883 343.867 C 56.361 342.382,54.591 341.061,53.752 340.784 C 51.770 340.130,37.117 325.676,36.201 323.471 C 35.851 322.630,35.040 321.370,34.399 320.671 C 31.132 317.110,29.691 315.243,29.018 313.698 C 28.610 312.761,28.044 311.803,27.761 311.567 C 27.477 311.332,26.852 309.938,26.372 308.470 C 25.892 307.001,25.172 305.440,24.773 304.999 C 23.942 304.083,21.796 299.124,20.999 296.277 C 20.703 295.220,20.252 294.103,19.996 293.795 C 19.741 293.487,19.375 291.431,19.183 289.225 C 18.905 286.024,18.650 284.965,17.917 283.975 C 16.801 282.466,16.383 266.273,17.233 257.477 C 17.492 254.795,17.815 248.820,17.952 244.200 C 18.194 235.993,18.225 235.755,19.300 233.850 C 20.074 232.477,20.400 231.333,20.400 229.989 C 20.400 228.794,20.772 227.279,21.396 225.940 C 21.944 224.763,22.394 223.487,22.396 223.104 C 22.405 221.536,24.760 214.409,25.550 213.562 C 26.017 213.060,26.400 212.427,26.400 212.155 C 26.400 211.884,27.054 210.804,27.853 209.757 C 28.653 208.710,29.730 207.011,30.247 205.981 C 30.765 204.951,31.475 203.870,31.827 203.578 C 32.178 203.286,32.976 202.047,33.600 200.824 C 34.307 199.438,36.408 196.867,39.176 194.000 C 41.618 191.470,44.042 188.950,44.562 188.400 C 47.189 185.620,56.151 177.337,57.510 176.433 C 58.364 175.865,59.927 174.823,60.981 174.118 C 62.036 173.413,63.152 172.475,63.462 172.033 C 63.771 171.591,64.964 170.760,66.112 170.185 C 67.261 169.610,68.560 168.813,69.000 168.414 C 69.440 168.015,70.745 167.215,71.900 166.637 C 73.055 166.059,74.000 165.430,74.000 165.238 C 74.000 165.047,75.414 164.320,77.142 163.623 C 78.870 162.927,81.165 161.778,82.242 161.069 C 85.244 159.095,88.899 157.287,90.913 156.780 C 91.914 156.528,93.127 155.955,93.608 155.506 C 94.090 155.058,95.950 154.111,97.742 153.402 C 105.081 150.500,106.894 148.885,105.312 146.661 C 104.434 145.428,104.249 144.630,104.019 141.110 C 103.871 138.850,103.529 136.592,103.258 136.094 C 102.987 135.596,102.662 133.346,102.535 131.094 C 102.376 128.269,102.056 126.442,101.501 125.200 C 100.983 124.037,100.586 121.945,100.381 119.289 C 100.123 115.958,99.867 114.844,99.031 113.418 C 98.143 111.902,98.000 111.189,98.000 108.278 C 98.000 106.149,97.773 104.356,97.388 103.434 C 97.052 102.628,96.671 100.221,96.541 98.085 C 96.351 94.940,96.113 93.862,95.294 92.428 C 94.448 90.946,94.231 89.895,93.973 86.028 C 93.803 83.482,93.380 80.612,93.032 79.650 C 92.674 78.659,92.400 76.637,92.400 74.991 C 92.400 72.625,92.214 71.757,91.405 70.341 C 90.568 68.877,90.409 68.076,90.405 65.311 C 90.401 62.602,90.212 61.615,89.335 59.711 C 87.785 56.345,87.470 49.068,88.794 47.208 C 89.335 46.448,89.900 44.664,90.261 42.571 C 90.934 38.673,92.940 34.320,94.849 32.620 C 95.525 32.017,96.411 30.776,96.816 29.862 C 97.673 27.932,100.843 24.802,103.116 23.643 C 103.984 23.200,105.212 22.413,105.847 21.892 C 107.945 20.171,112.374 18.000,113.788 18.000 C 114.536 18.000,115.655 17.803,116.274 17.562 C 119.585 16.273,129.220 16.165,133.093 17.374 M126.600 206.575 C 124.839 207.022,123.028 207.951,118.607 210.673 C 117.951 211.077,116.961 212.309,116.407 213.411 C 115.853 214.513,114.826 216.024,114.125 216.770 C 113.322 217.622,112.748 218.731,112.577 219.762 C 112.427 220.663,111.831 222.210,111.252 223.200 C 110.202 224.997,110.200 225.017,110.066 235.210 L 109.932 245.420 111.988 251.010 C 113.118 254.084,114.288 256.960,114.587 257.400 C 115.958 259.419,119.569 262.808,121.200 263.608 C 122.190 264.093,123.419 264.875,123.932 265.345 C 125.500 266.784,135.600 266.659,135.600 265.201 C 135.600 265.039,136.275 264.456,137.100 263.906 C 139.573 262.257,142.854 258.725,143.809 256.684 C 144.302 255.630,144.981 254.460,145.318 254.084 C 146.496 252.770,147.929 248.250,148.135 245.200 C 148.284 242.993,148.619 241.676,149.401 240.218 C 150.709 237.780,150.620 235.514,149.055 231.482 C 148.398 229.789,148.000 227.978,148.000 226.680 C 148.000 224.218,146.523 219.876,144.801 217.277 C 144.141 216.279,143.600 215.261,143.600 215.014 C 143.600 214.767,142.550 213.493,141.268 212.183 C 135.917 206.716,131.979 205.211,126.600 206.575 M266.185 206.412 C 263.906 206.729,262.129 207.546,259.800 209.348 C 257.739 210.942,253.600 215.034,253.600 215.477 C 253.600 215.665,253.015 216.714,252.300 217.809 C 250.460 220.627,250.001 221.801,249.991 223.719 C 249.985 224.643,249.507 226.480,248.929 227.800 C 247.989 229.944,247.859 230.819,247.711 236.000 L 247.545 241.800 248.973 245.720 C 249.758 247.876,250.400 250.046,250.400 250.542 C 250.400 251.038,250.905 252.244,251.522 253.222 C 252.139 254.200,252.956 255.788,253.339 256.752 C 254.238 259.016,257.695 262.984,259.328 263.627 C 260.028 263.902,261.230 264.594,262.000 265.164 C 264.129 266.739,271.665 266.959,273.430 265.497 C 274.074 264.964,275.617 264.068,276.859 263.505 C 278.694 262.674,279.328 262.117,280.234 260.541 C 280.848 259.473,281.839 258.028,282.437 257.330 C 283.034 256.631,283.640 255.530,283.782 254.884 C 283.924 254.237,284.420 253.300,284.885 252.801 C 285.349 252.302,285.952 250.973,286.225 249.847 C 286.497 248.721,287.008 246.727,287.360 245.416 C 288.232 242.167,288.277 229.161,287.423 227.116 C 287.105 226.356,286.720 224.793,286.568 223.642 C 286.415 222.491,285.861 220.917,285.336 220.144 C 284.811 219.371,283.950 217.886,283.423 216.845 C 282.510 215.044,277.176 209.703,274.537 207.948 C 272.530 206.614,269.172 205.996,266.185 206.412 M310.548 283.776 C 308.623 284.614,308.516 285.193,310.276 285.247 C 313.175 285.338,313.456 285.199,312.731 284.039 C 312.122 283.063,312.173 283.069,310.548 283.776 M314.800 298.400 C 314.800 298.620,315.070 298.800,315.400 298.800 C 315.730 298.800,316.000 298.620,316.000 298.400 C 316.000 298.180,315.730 298.000,315.400 298.000 C 315.070 298.000,314.800 298.180,314.800 298.400 M310.998 301.603 C 310.695 302.094,311.795 302.574,312.387 302.208 C 312.621 302.063,312.709 301.777,312.583 301.572 C 312.278 301.078,311.311 301.097,310.998 301.603 M321.378 301.635 C 320.890 302.426,321.775 302.677,323.600 302.266 C 325.379 301.865,325.386 301.857,324.200 301.578 C 322.365 301.145,321.672 301.159,321.378 301.635 M307.644 304.547 C 307.298 304.964,307.338 305.217,307.812 305.610 C 308.581 306.248,309.340 305.630,308.970 304.667 C 308.660 303.857,308.248 303.820,307.644 304.547 M317.392 304.564 C 316.634 305.126,316.631 305.182,317.308 305.869 C 318.152 306.725,319.400 306.184,319.400 304.962 C 319.400 304.003,318.413 303.807,317.392 304.564 M329.000 304.285 C 327.816 304.570,327.489 305.021,327.787 305.960 C 328.103 306.955,332.099 306.782,333.200 305.726 C 334.425 304.552,331.733 303.628,329.000 304.285 M297.894 304.639 C 297.534 305.000,298.030 306.029,298.442 305.774 C 298.639 305.652,298.800 305.293,298.800 304.976 C 298.800 304.387,298.323 304.210,297.894 304.639 M314.262 307.531 C 313.456 308.422,313.426 308.958,314.149 309.558 C 315.351 310.555,316.998 308.602,315.984 307.381 C 315.355 306.622,315.061 306.648,314.262 307.531 M334.629 307.429 C 334.283 307.774,334.000 308.281,334.000 308.555 C 334.000 308.829,333.018 309.460,331.817 309.958 C 330.537 310.488,329.533 311.182,329.389 311.636 C 329.254 312.061,328.641 312.668,328.028 312.986 C 327.415 313.303,326.685 314.112,326.407 314.783 C 326.129 315.454,325.436 316.228,324.868 316.502 C 324.114 316.865,323.667 317.574,323.217 319.123 C 322.878 320.291,322.176 321.686,321.658 322.224 C 320.308 323.623,319.971 325.382,319.668 332.596 C 319.437 338.117,319.309 339.008,318.733 339.118 C 316.743 339.499,316.528 322.814,318.500 320.987 C 319.105 320.426,319.600 319.649,319.600 319.259 C 319.600 318.161,321.542 314.397,322.248 314.126 C 322.594 313.993,323.214 313.100,323.625 312.142 C 324.124 310.977,324.618 310.400,325.116 310.400 C 326.125 310.400,327.762 308.600,327.463 307.820 C 326.590 305.544,317.789 312.348,317.020 315.895 C 316.865 316.607,316.287 317.546,315.735 317.980 C 312.427 320.582,311.829 341.286,315.002 343.364 C 315.592 343.751,316.173 344.791,316.579 346.186 C 316.974 347.546,317.568 348.623,318.124 348.987 C 318.621 349.312,319.542 350.393,320.171 351.389 C 320.801 352.385,321.550 353.200,321.836 353.200 C 322.812 353.200,324.551 355.029,324.271 355.760 C 323.778 357.045,320.652 356.472,320.402 355.052 C 320.247 354.168,319.878 353.799,318.803 353.452 C 317.790 353.124,317.211 352.587,316.700 351.500 C 316.311 350.675,315.753 350.000,315.459 350.000 C 314.663 350.000,313.725 348.769,313.417 347.321 C 313.268 346.617,312.633 345.537,312.006 344.921 C 310.908 343.841,309.600 340.095,309.600 338.030 C 309.600 337.560,309.150 336.107,308.600 334.800 C 307.416 331.987,307.234 327.869,308.210 325.981 C 308.545 325.333,309.075 323.099,309.388 321.016 C 309.992 316.993,310.499 315.600,311.360 315.600 C 311.910 315.600,313.200 312.707,313.200 311.474 C 313.200 309.521,310.921 310.492,310.723 312.530 C 310.629 313.500,310.303 313.942,309.344 314.400 C 308.023 315.031,307.636 316.099,306.961 320.971 C 306.776 322.306,306.373 323.234,305.712 323.847 C 303.869 325.554,303.712 336.066,305.500 337.985 C 306.081 338.608,306.481 339.899,306.838 342.304 C 307.247 345.048,307.541 345.901,308.308 346.567 C 308.835 347.025,309.694 348.334,310.217 349.476 C 310.739 350.618,311.703 351.948,312.358 352.433 C 313.014 352.917,313.762 353.826,314.021 354.452 C 314.317 355.166,315.167 355.927,316.302 356.494 C 317.297 356.991,318.383 357.812,318.715 358.319 C 319.526 359.557,321.252 360.400,322.975 360.400 C 324.325 360.400,324.403 360.477,324.655 362.053 L 324.919 363.706 327.856 363.484 C 329.760 363.340,331.572 362.905,333.011 362.246 C 334.436 361.594,336.334 361.135,338.315 360.964 C 344.124 360.461,349.385 358.319,354.652 354.312 C 355.890 353.371,357.465 352.212,358.151 351.738 C 359.427 350.858,361.070 349.223,363.953 345.969 C 364.844 344.962,365.971 343.072,366.456 341.769 C 366.940 340.466,367.570 339.123,367.855 338.784 C 369.473 336.857,369.647 326.501,368.104 323.886 C 367.667 323.147,366.925 321.512,366.455 320.254 C 365.984 318.996,364.924 317.264,364.099 316.404 C 363.275 315.545,362.240 314.462,361.800 313.999 C 358.739 310.773,353.996 308.726,348.000 308.043 C 346.130 307.830,343.790 307.471,342.800 307.246 C 339.913 306.587,335.369 306.689,334.629 307.429 M304.474 307.876 C 303.820 309.123,304.681 310.836,305.443 309.803 C 306.105 308.905,306.042 307.542,305.327 307.307 C 305.067 307.221,304.683 307.477,304.474 307.876 M294.708 309.900 C 294.520 311.965,294.651 312.539,295.228 312.183 C 295.706 311.887,295.718 308.000,295.240 308.000 C 295.042 308.000,294.803 308.855,294.708 309.900 M284.300 310.389 C 283.426 311.624,283.414 312.243,284.257 312.567 C 285.163 312.914,285.272 312.710,285.127 310.940 L 285.000 309.400 284.300 310.389 M339.741 311.387 C 340.430 311.909,340.383 311.967,339.067 312.214 C 337.257 312.553,336.386 312.092,337.416 311.339 C 338.336 310.666,338.802 310.676,339.741 311.387 M301.448 312.300 C 300.616 315.132,301.056 318.873,302.018 317.153 C 302.742 315.859,302.942 311.600,302.279 311.600 C 301.935 311.600,301.561 311.915,301.448 312.300 M291.455 315.908 C 291.124 317.911,291.184 321.615,291.563 322.583 C 291.921 323.499,292.391 320.307,292.397 316.924 C 292.401 314.447,291.803 313.803,291.455 315.908 M335.200 314.800 C 335.200 315.020,334.682 315.200,334.049 315.200 C 332.613 315.200,331.923 315.994,332.079 317.466 C 332.164 318.261,332.021 318.600,331.600 318.600 C 331.260 318.600,331.071 318.340,331.164 318.000 C 331.254 317.670,331.408 316.824,331.505 316.121 C 331.668 314.947,331.819 314.830,333.341 314.691 C 334.254 314.608,335.045 314.508,335.100 314.470 C 335.155 314.431,335.200 314.580,335.200 314.800 M298.224 319.161 C 296.504 321.944,297.074 341.250,298.927 342.967 C 299.585 343.577,300.112 344.776,300.532 346.620 C 300.947 348.439,301.446 349.582,302.010 350.007 C 302.478 350.360,303.186 351.377,303.585 352.266 C 303.983 353.156,305.020 354.541,305.889 355.345 C 306.757 356.149,307.686 357.212,307.951 357.708 C 308.216 358.204,309.403 359.134,310.589 359.776 C 311.774 360.417,312.828 361.265,312.932 361.661 C 313.343 363.233,316.902 363.643,317.462 362.183 C 317.796 361.311,316.859 360.400,315.627 360.400 C 314.321 360.400,313.315 359.676,313.128 358.601 C 313.050 358.150,312.357 357.503,311.540 357.119 C 310.614 356.683,309.942 356.010,309.680 355.256 C 309.453 354.607,308.771 353.834,308.164 353.538 C 307.417 353.174,306.874 352.441,306.488 351.274 C 306.118 350.157,305.592 349.425,304.997 349.199 C 304.091 348.854,303.728 348.074,302.801 344.479 C 302.557 343.533,301.939 342.394,301.427 341.949 C 300.018 340.723,299.579 337.603,299.485 328.119 C 299.404 320.067,299.082 317.773,298.224 319.161 M329.007 322.760 C 328.855 323.659,328.586 324.485,328.409 324.594 C 327.860 324.934,327.535 322.069,328.020 321.163 C 328.724 319.847,329.333 320.832,329.007 322.760 M291.270 337.074 C 290.220 339.027,290.960 346.800,292.195 346.800 C 293.168 346.800,293.264 346.084,292.806 342.248 C 292.167 336.899,291.881 335.936,291.270 337.074 M322.643 342.830 C 323.100 345.066,322.538 346.730,321.645 345.783 C 321.020 345.119,320.486 341.748,320.891 341.024 C 321.526 339.888,322.180 340.562,322.643 342.830 M325.939 347.651 C 326.391 348.374,326.375 348.596,325.835 349.136 C 324.968 350.004,323.778 348.928,324.186 347.645 C 324.529 346.564,325.261 346.566,325.939 347.651 M293.794 349.500 C 294.158 352.420,294.584 353.200,295.814 353.200 C 296.643 353.200,296.800 353.391,296.800 354.400 C 296.800 355.323,297.355 356.176,299.207 358.100 C 300.531 359.475,302.092 361.099,302.676 361.710 C 303.906 362.995,305.456 363.504,306.120 362.840 C 306.803 362.157,305.988 361.099,304.476 360.708 C 303.519 360.460,303.140 360.081,302.892 359.124 C 302.596 357.980,302.248 357.654,300.409 356.799 C 300.083 356.647,299.707 355.985,299.572 355.327 C 299.224 353.621,298.878 353.200,297.828 353.200 C 297.069 353.200,296.858 352.930,296.655 351.700 C 296.070 348.156,295.619 347.200,294.535 347.200 C 293.518 347.200,293.511 347.223,293.794 349.500 M329.237 351.220 C 330.150 351.708,329.893 352.400,328.800 352.400 C 327.941 352.400,327.434 351.792,327.800 351.200 C 328.110 350.698,328.266 350.700,329.237 351.220 M335.804 355.447 C 335.261 355.844,334.889 355.862,334.254 355.522 C 333.436 355.084,333.435 355.068,334.203 354.799 C 335.541 354.330,336.694 354.796,335.804 355.447 M329.806 357.602 C 332.108 358.477,329.482 360.260,326.697 359.713 C 325.248 359.428,324.982 359.220,324.873 358.289 C 324.733 357.077,327.435 356.701,329.806 357.602 M307.300 363.865 C 306.517 364.181,306.714 365.526,307.615 366.008 C 308.531 366.498,309.697 366.247,310.392 365.409 C 311.102 364.554,308.641 363.324,307.300 363.865 M319.800 363.942 C 317.874 364.369,318.168 365.705,320.287 366.152 C 322.501 366.619,324.496 365.873,324.320 364.643 C 324.189 363.720,322.196 363.411,319.800 363.942 M312.584 368.027 C 312.204 368.641,312.538 368.844,314.267 369.050 C 315.923 369.248,317.069 368.760,316.628 368.045 C 316.276 367.476,312.933 367.461,312.584 368.027 " stroke="none" fill="#642f16" fill-rule="evenodd"></path><path id="path2" d="M21.264 261.296 C 21.009 261.551,20.800 262.428,20.800 263.245 C 20.800 264.061,20.530 266.140,20.200 267.865 C 19.350 272.308,19.387 281.051,20.264 282.809 C 20.696 283.674,20.995 285.552,21.118 288.170 C 21.294 291.900,21.393 292.298,22.454 293.514 C 23.084 294.237,23.600 295.291,23.600 295.856 C 23.600 297.974,24.847 301.722,25.802 302.473 C 26.358 302.910,27.018 304.146,27.402 305.467 C 27.762 306.705,28.567 308.366,29.192 309.159 C 29.816 309.951,30.651 311.650,31.047 312.933 C 31.576 314.648,32.047 315.411,32.827 315.814 C 33.410 316.116,34.112 316.905,34.387 317.568 C 34.661 318.231,35.236 318.884,35.663 319.020 C 36.092 319.156,36.858 320.191,37.374 321.333 C 38.096 322.928,39.928 324.998,45.402 330.400 C 49.303 334.250,52.788 337.720,53.146 338.111 C 53.504 338.502,54.427 338.995,55.198 339.205 C 56.103 339.453,56.937 340.087,57.552 340.994 C 58.075 341.767,58.774 342.400,59.104 342.400 C 59.435 342.400,60.295 343.025,61.015 343.788 C 61.735 344.552,63.313 345.614,64.523 346.149 C 65.820 346.722,66.825 347.450,66.976 347.924 C 67.116 348.365,67.989 349.083,68.915 349.519 C 69.842 349.955,70.947 350.696,71.370 351.165 C 71.794 351.635,73.140 352.309,74.361 352.664 C 75.607 353.026,77.024 353.775,77.591 354.371 C 78.187 354.998,79.638 355.743,81.140 356.192 C 82.731 356.667,83.895 357.279,84.256 357.829 C 84.572 358.311,85.367 358.813,86.022 358.944 C 87.669 359.274,91.600 361.110,91.600 361.550 C 91.600 361.749,92.780 362.231,94.222 362.621 C 95.921 363.081,97.107 363.664,97.589 364.277 C 98.347 365.241,100.760 366.107,104.000 366.579 C 105.115 366.742,106.201 367.226,106.855 367.852 C 107.666 368.629,108.561 368.945,110.717 369.216 C 112.592 369.451,114.290 369.983,115.833 370.818 C 117.103 371.505,119.325 372.304,120.771 372.595 C 122.217 372.885,124.566 373.592,125.991 374.167 C 128.842 375.317,131.736 375.915,136.605 376.361 C 138.921 376.573,140.308 376.939,141.605 377.680 C 143.109 378.540,144.093 378.745,147.679 378.948 C 150.033 379.081,152.643 379.450,153.479 379.767 C 154.350 380.098,156.967 380.416,159.600 380.510 C 163.640 380.655,164.439 380.805,166.160 381.738 L 168.119 382.800 198.605 382.800 C 229.920 382.800,232.499 382.684,234.082 381.209 C 234.855 380.489,235.486 380.400,239.814 380.400 C 243.335 380.400,245.009 380.234,245.879 379.800 C 246.639 379.421,248.734 379.130,251.571 379.010 C 255.642 378.838,256.172 378.726,257.261 377.810 C 257.921 377.255,258.673 376.786,258.931 376.768 C 267.146 376.211,271.910 375.222,272.197 374.013 C 272.330 373.456,272.518 372.727,272.617 372.393 C 272.715 372.059,272.155 371.069,271.372 370.193 C 270.589 369.317,269.597 367.812,269.167 366.848 C 268.736 365.885,267.958 364.590,267.438 363.972 C 266.917 363.353,266.265 361.891,265.988 360.723 C 265.712 359.556,265.000 358.041,264.406 357.358 C 263.707 356.554,263.158 355.256,262.846 353.671 C 262.293 350.858,262.276 350.842,259.641 350.530 C 258.032 350.340,257.397 350.460,256.235 351.178 C 255.084 351.890,253.860 352.128,249.904 352.408 C 247.167 352.603,244.343 353.031,243.513 353.378 C 242.412 353.838,240.592 354.000,236.513 354.002 C 231.193 354.003,230.916 354.045,228.600 355.200 L 226.200 356.397 200.519 356.398 C 175.459 356.400,172.800 356.283,172.800 355.175 C 172.800 354.436,169.847 354.000,164.839 354.000 C 160.597 354.000,158.781 353.824,156.600 353.200 C 155.054 352.758,152.603 352.400,151.122 352.400 C 149.032 352.400,148.029 352.180,146.562 351.400 C 145.026 350.583,144.123 350.401,141.640 350.406 C 139.211 350.411,138.198 350.215,136.600 349.429 C 135.500 348.888,132.260 347.962,129.400 347.371 C 126.381 346.748,123.496 345.897,122.521 345.344 C 121.597 344.819,119.090 344.030,116.951 343.590 C 114.811 343.150,111.967 342.270,110.630 341.636 C 109.294 341.001,107.340 340.283,106.290 340.040 C 105.239 339.796,103.701 339.149,102.872 338.600 C 102.044 338.052,99.843 337.224,97.983 336.760 C 95.833 336.223,94.229 335.568,93.582 334.962 C 93.022 334.437,91.672 333.709,90.582 333.344 C 89.492 332.979,88.150 332.377,87.600 332.006 C 86.116 331.006,76.677 326.399,76.113 326.400 C 75.846 326.400,74.733 325.606,73.640 324.635 C 72.547 323.665,71.236 322.739,70.726 322.578 C 69.761 322.272,67.714 320.849,66.000 319.291 C 65.450 318.791,64.192 317.989,63.205 317.509 C 62.217 317.029,60.855 316.032,60.178 315.292 C 59.501 314.553,57.914 313.375,56.651 312.674 C 53.347 310.840,38.933 296.392,37.241 293.217 C 36.560 291.940,35.574 290.613,35.050 290.270 C 34.526 289.926,33.310 288.250,32.349 286.545 C 29.622 281.710,29.378 281.309,28.318 279.912 C 27.771 279.191,27.002 277.629,26.610 276.442 C 26.218 275.255,25.495 273.692,25.004 272.968 C 24.032 271.535,22.393 265.095,22.397 262.724 C 22.400 261.104,21.982 260.578,21.264 261.296 M378.000 265.748 C 378.000 266.269,377.640 267.823,377.200 269.200 C 376.105 272.627,376.172 274.469,377.472 276.686 L 378.543 278.515 379.421 277.414 C 380.999 275.435,381.342 268.371,379.967 266.147 C 378.995 264.574,378.000 264.372,378.000 265.748 " stroke="none" fill="#fbdc93" fill-rule="evenodd"></path><path id="path3" d="M349.400 291.600 C 348.520 291.758,347.994 291.912,348.231 291.943 C 349.077 292.054,352.400 294.484,352.400 294.991 C 352.400 295.275,353.075 296.122,353.900 296.875 C 356.580 299.318,361.158 305.341,363.238 309.160 C 365.994 314.223,366.406 315.025,368.218 318.860 C 370.472 323.634,370.975 326.557,370.684 333.214 L 370.466 338.228 368.633 341.674 C 367.625 343.570,366.800 345.384,366.800 345.705 C 366.800 346.027,366.242 346.990,365.560 347.845 C 364.878 348.700,363.956 350.120,363.511 351.000 C 362.005 353.980,357.650 359.660,354.112 363.260 C 350.254 367.187,354.370 367.787,358.597 363.914 C 359.255 363.311,360.274 362.618,360.862 362.374 C 361.450 362.131,362.151 361.402,362.419 360.755 C 362.686 360.108,363.421 359.212,364.051 358.763 C 364.681 358.315,365.677 357.104,366.264 356.074 C 366.851 355.043,367.739 353.750,368.237 353.200 C 368.735 352.650,369.275 351.665,369.437 351.012 C 369.744 349.772,371.041 347.346,371.838 346.521 C 372.316 346.026,372.572 344.759,374.029 335.664 C 374.968 329.801,374.950 329.397,373.352 320.018 C 372.540 315.254,372.158 313.920,371.178 312.442 C 370.525 311.455,369.813 309.990,369.597 309.187 C 369.380 308.384,368.842 307.400,368.400 307.000 C 367.958 306.600,367.102 305.294,366.498 304.097 C 365.894 302.900,364.950 301.685,364.400 301.396 C 363.850 301.108,363.064 300.240,362.654 299.468 C 362.244 298.696,361.499 297.961,360.999 297.835 C 360.498 297.710,359.569 297.021,358.933 296.304 C 357.637 294.841,355.274 293.600,353.786 293.600 C 353.103 293.600,352.800 293.379,352.800 292.880 C 352.800 292.060,352.045 291.172,351.420 291.257 C 351.189 291.288,350.280 291.442,349.400 291.600 M351.380 366.833 C 351.228 367.078,350.543 367.515,349.857 367.803 L 348.609 368.328 350.079 368.604 C 351.781 368.923,352.400 368.655,352.400 367.600 C 352.400 366.692,351.763 366.213,351.380 366.833 " stroke="none" fill="#e2d8dd" fill-rule="evenodd"></path><path id="path4" d="M372.733 275.200 C 372.921 275.750,373.623 276.560,374.292 277.000 C 374.961 277.440,375.828 278.386,376.219 279.102 C 376.900 280.352,379.323 281.492,380.481 281.106 C 381.467 280.778,377.500 277.005,375.658 276.520 C 374.655 276.256,373.509 275.626,373.113 275.120 L 372.391 274.200 372.733 275.200 M319.082 282.945 C 318.026 283.242,316.676 283.943,316.082 284.502 C 315.448 285.097,314.271 285.636,313.241 285.804 C 310.927 286.181,308.952 287.026,308.670 287.761 C 308.546 288.086,307.511 288.677,306.372 289.076 C 305.050 289.538,303.945 290.263,303.318 291.079 C 302.778 291.783,301.731 292.559,300.991 292.803 C 300.127 293.088,299.462 293.664,299.130 294.413 C 298.846 295.055,298.131 295.780,297.541 296.024 C 296.951 296.269,296.258 296.978,296.000 297.600 C 295.742 298.222,295.015 298.945,294.383 299.207 C 293.641 299.514,293.080 300.152,292.797 301.010 C 292.556 301.739,291.765 302.790,291.038 303.344 C 290.151 304.020,289.553 304.940,289.215 306.147 C 288.938 307.135,288.278 308.350,287.749 308.848 C 286.784 309.755,285.600 312.951,285.600 314.650 C 285.600 315.148,285.267 315.790,284.860 316.077 C 281.709 318.301,281.371 341.593,284.457 343.755 C 284.975 344.118,285.527 345.409,286.037 347.450 C 286.585 349.641,287.112 350.830,287.785 351.394 C 288.315 351.837,288.973 352.981,289.248 353.936 C 289.578 355.082,290.207 356.022,291.095 356.700 C 291.836 357.265,292.689 358.317,292.990 359.037 C 293.291 359.757,294.078 360.627,294.740 360.969 C 295.402 361.311,296.059 361.955,296.200 362.400 C 296.341 362.845,296.957 363.468,297.569 363.784 C 298.181 364.100,298.981 364.816,299.346 365.374 C 299.712 365.933,300.684 366.733,301.506 367.152 C 302.328 367.572,303.339 368.290,303.754 368.749 C 304.169 369.208,305.519 369.960,306.754 370.421 C 307.989 370.881,309.360 371.593,309.800 372.002 C 310.902 373.028,312.303 373.504,315.176 373.829 C 316.528 373.982,318.028 374.422,318.521 374.809 C 321.205 376.920,335.768 377.122,340.107 375.109 C 341.376 374.520,343.420 373.852,344.650 373.625 C 347.106 373.171,352.543 370.679,355.068 368.850 C 355.953 368.209,357.199 367.411,357.838 367.077 C 359.662 366.123,365.896 359.782,367.477 357.272 C 368.264 356.022,369.229 354.640,369.622 354.200 C 370.015 353.760,370.657 352.590,371.050 351.600 C 371.443 350.610,372.155 349.222,372.634 348.515 C 373.112 347.808,373.729 346.008,374.003 344.515 C 374.278 343.022,374.974 340.720,375.550 339.400 C 377.052 335.956,377.158 323.301,375.709 320.444 C 375.220 319.479,374.517 317.168,374.148 315.309 C 373.742 313.267,373.083 311.350,372.481 310.465 C 371.933 309.659,371.231 308.256,370.921 307.347 C 370.611 306.437,369.763 304.997,369.037 304.147 C 368.311 303.296,367.424 302.029,367.065 301.332 C 366.706 300.634,365.869 299.677,365.206 299.204 C 364.543 298.732,364.000 298.082,364.000 297.759 C 364.000 297.437,363.356 296.793,362.568 296.328 C 361.780 295.863,360.971 295.051,360.770 294.522 C 360.569 293.994,359.819 293.316,359.103 293.016 C 358.386 292.715,357.350 291.987,356.800 291.396 C 355.789 290.311,353.215 288.800,352.376 288.800 C 352.126 288.800,351.444 288.293,350.860 287.672 C 350.081 286.843,349.112 286.405,347.200 286.016 C 345.570 285.684,344.216 285.132,343.570 284.536 C 341.536 282.657,324.119 281.526,319.082 282.945 M352.320 291.680 C 352.584 291.944,352.800 292.484,352.800 292.880 C 352.800 293.379,353.103 293.600,353.786 293.600 C 355.274 293.600,357.637 294.841,358.933 296.304 C 359.569 297.021,360.498 297.710,360.999 297.835 C 361.499 297.961,362.244 298.696,362.654 299.468 C 363.064 300.240,363.850 301.108,364.400 301.396 C 364.950 301.685,365.894 302.900,366.498 304.097 C 367.102 305.294,367.958 306.600,368.400 307.000 C 368.842 307.400,369.380 308.384,369.597 309.187 C 369.813 309.990,370.525 311.455,371.178 312.442 C 372.158 313.920,372.540 315.254,373.352 320.018 C 374.950 329.397,374.968 329.801,374.029 335.664 C 372.572 344.759,372.316 346.026,371.838 346.521 C 371.041 347.346,369.744 349.772,369.437 351.012 C 369.275 351.665,368.735 352.650,368.237 353.200 C 367.739 353.750,366.851 355.043,366.264 356.074 C 365.677 357.104,364.681 358.315,364.051 358.763 C 363.421 359.212,362.686 360.108,362.419 360.755 C 362.151 361.402,361.450 362.131,360.862 362.374 C 360.274 362.618,359.255 363.311,358.597 363.914 C 354.370 367.787,350.254 367.187,354.112 363.260 C 357.650 359.660,362.005 353.980,363.511 351.000 C 363.956 350.120,364.878 348.700,365.560 347.845 C 366.242 346.990,366.800 346.027,366.800 345.705 C 366.800 345.384,367.625 343.570,368.633 341.674 L 370.466 338.228 370.684 333.214 C 370.975 326.557,370.472 323.634,368.218 318.860 C 366.406 315.025,365.994 314.223,363.238 309.160 C 361.158 305.341,356.580 299.318,353.900 296.875 C 353.075 296.122,352.400 295.275,352.400 294.991 C 352.400 294.484,349.077 292.054,348.231 291.943 C 347.994 291.912,348.520 291.758,349.400 291.600 C 351.820 291.167,351.806 291.166,352.320 291.680 M308.880 295.280 C 308.507 295.653,308.293 295.653,307.920 295.280 C 307.547 294.907,307.653 294.800,308.400 294.800 C 309.147 294.800,309.253 294.907,308.880 295.280 M305.600 298.424 C 305.600 298.631,305.240 298.800,304.800 298.800 C 303.918 298.800,303.711 298.170,304.500 297.887 C 305.105 297.670,305.600 297.912,305.600 298.424 M316.000 298.400 C 316.000 298.620,315.730 298.800,315.400 298.800 C 315.070 298.800,314.800 298.620,314.800 298.400 C 314.800 298.180,315.070 298.000,315.400 298.000 C 315.730 298.000,316.000 298.180,316.000 298.400 M302.076 302.084 C 301.379 302.781,300.753 302.064,301.298 301.192 C 301.722 300.513,301.822 300.496,302.131 301.049 C 302.344 301.428,302.322 301.838,302.076 302.084 M312.583 301.572 C 312.709 301.777,312.621 302.063,312.387 302.208 C 311.795 302.574,310.695 302.094,310.998 301.603 C 311.311 301.097,312.278 301.078,312.583 301.572 M324.200 301.578 C 325.386 301.857,325.379 301.865,323.600 302.266 C 321.775 302.677,320.890 302.426,321.378 301.635 C 321.672 301.159,322.365 301.145,324.200 301.578 M298.812 305.786 C 298.535 306.119,298.150 306.293,297.955 306.172 C 297.439 305.853,297.521 304.639,298.097 304.063 C 298.830 303.330,299.504 304.952,298.812 305.786 M308.970 304.667 C 309.340 305.630,308.581 306.248,307.812 305.610 C 307.338 305.217,307.298 304.964,307.644 304.547 C 308.248 303.820,308.660 303.857,308.970 304.667 M319.400 304.962 C 319.400 306.184,318.152 306.725,317.308 305.869 C 316.631 305.182,316.634 305.126,317.392 304.564 C 318.413 303.807,319.400 304.003,319.400 304.962 M333.024 304.576 C 334.198 305.446,333.105 306.246,330.327 306.551 C 328.256 306.778,328.030 306.726,327.787 305.960 C 327.252 304.274,331.206 303.229,333.024 304.576 M315.984 307.381 C 316.998 308.602,315.351 310.555,314.149 309.558 C 313.426 308.958,313.456 308.422,314.262 307.531 C 315.061 306.648,315.355 306.622,315.984 307.381 M342.800 307.246 C 343.790 307.471,346.130 307.830,348.000 308.043 C 353.996 308.726,358.739 310.773,361.800 313.999 C 362.240 314.462,363.275 315.545,364.099 316.404 C 364.924 317.264,365.984 318.996,366.455 320.254 C 366.925 321.512,367.667 323.147,368.104 323.886 C 369.647 326.501,369.473 336.857,367.855 338.784 C 367.570 339.123,366.940 340.466,366.456 341.769 C 365.971 343.072,364.844 344.962,363.953 345.969 C 361.070 349.223,359.427 350.858,358.151 351.738 C 357.465 352.212,355.890 353.371,354.652 354.312 C 349.385 358.319,344.124 360.461,338.315 360.964 C 336.334 361.135,334.436 361.594,333.011 362.246 C 331.572 362.905,329.760 363.340,327.856 363.484 L 324.919 363.706 324.655 362.053 C 324.403 360.477,324.325 360.400,322.975 360.400 C 321.252 360.400,319.526 359.557,318.715 358.319 C 318.383 357.812,317.297 356.991,316.302 356.494 C 315.167 355.927,314.317 355.166,314.021 354.452 C 313.762 353.826,313.014 352.917,312.358 352.433 C 311.703 351.948,310.739 350.618,310.217 349.476 C 309.694 348.334,308.835 347.025,308.308 346.567 C 307.541 345.901,307.247 345.048,306.838 342.304 C 306.481 339.899,306.081 338.608,305.500 337.985 C 303.712 336.066,303.869 325.554,305.712 323.847 C 306.373 323.234,306.776 322.306,306.961 320.971 C 307.636 316.099,308.023 315.031,309.344 314.400 C 310.303 313.942,310.629 313.500,310.723 312.530 C 310.921 310.492,313.200 309.521,313.200 311.474 C 313.200 312.707,311.910 315.600,311.360 315.600 C 310.499 315.600,309.992 316.993,309.388 321.016 C 309.075 323.099,308.545 325.333,308.210 325.981 C 307.234 327.869,307.416 331.987,308.600 334.800 C 309.150 336.107,309.600 337.560,309.600 338.030 C 309.600 340.095,310.908 343.841,312.006 344.921 C 312.633 345.537,313.268 346.617,313.417 347.321 C 313.725 348.769,314.663 350.000,315.459 350.000 C 315.753 350.000,316.311 350.675,316.700 351.500 C 317.211 352.587,317.790 353.124,318.803 353.452 C 319.878 353.799,320.247 354.168,320.402 355.052 C 320.652 356.472,323.778 357.045,324.271 355.760 C 324.551 355.029,322.812 353.200,321.836 353.200 C 321.550 353.200,320.801 352.385,320.171 351.389 C 319.542 350.393,318.621 349.312,318.124 348.987 C 317.568 348.623,316.974 347.546,316.579 346.186 C 316.173 344.791,315.592 343.751,315.002 343.364 C 311.829 341.286,312.427 320.582,315.735 317.980 C 316.287 317.546,316.865 316.607,317.020 315.895 C 317.789 312.348,326.590 305.544,327.463 307.820 C 327.762 308.600,326.125 310.400,325.116 310.400 C 324.618 310.400,324.124 310.977,323.625 312.142 C 323.214 313.100,322.594 313.993,322.248 314.126 C 321.542 314.397,319.600 318.161,319.600 319.259 C 319.600 319.649,319.105 320.426,318.500 320.987 C 316.528 322.814,316.743 339.499,318.733 339.118 C 319.309 339.008,319.437 338.117,319.668 332.596 C 319.971 325.382,320.308 323.623,321.658 322.224 C 322.176 321.686,322.878 320.291,323.217 319.123 C 323.667 317.574,324.114 316.865,324.868 316.502 C 325.436 316.228,326.129 315.454,326.407 314.783 C 326.685 314.112,327.415 313.303,328.028 312.986 C 328.641 312.668,329.254 312.061,329.389 311.636 C 329.533 311.182,330.537 310.488,331.817 309.958 C 333.018 309.460,334.000 308.829,334.000 308.555 C 334.000 306.865,338.317 306.223,342.800 307.246 M305.915 308.234 C 305.978 308.659,305.766 309.364,305.443 309.803 C 304.681 310.836,303.820 309.123,304.474 307.876 C 304.941 306.986,305.759 307.190,305.915 308.234 M295.718 309.608 C 295.617 311.721,295.332 312.529,294.803 312.202 C 294.359 311.927,294.256 309.242,294.649 308.216 C 295.122 306.985,295.801 307.869,295.718 309.608 M337.416 311.339 C 336.386 312.092,337.257 312.553,339.067 312.214 C 340.383 311.967,340.430 311.909,339.741 311.387 C 338.802 310.676,338.336 310.666,337.416 311.339 M302.622 314.089 C 302.258 317.301,301.870 318.053,301.212 316.822 C 300.768 315.992,300.855 314.319,301.448 312.300 C 302.035 310.304,302.901 311.625,302.622 314.089 M292.397 316.924 C 292.391 320.307,291.921 323.499,291.563 322.583 C 290.901 320.891,291.313 314.175,292.051 314.632 C 292.243 314.750,292.398 315.782,292.397 316.924 M333.341 314.691 C 331.819 314.830,331.668 314.947,331.505 316.121 C 331.408 316.824,331.254 317.670,331.164 318.000 C 331.071 318.340,331.260 318.600,331.600 318.600 C 332.021 318.600,332.164 318.261,332.079 317.466 C 331.923 315.994,332.613 315.200,334.049 315.200 C 334.682 315.200,335.200 315.020,335.200 314.800 C 335.200 314.580,335.155 314.431,335.100 314.470 C 335.045 314.508,334.254 314.608,333.341 314.691 M299.485 328.119 C 299.579 337.603,300.018 340.723,301.427 341.949 C 301.939 342.394,302.557 343.533,302.801 344.479 C 303.728 348.074,304.091 348.854,304.997 349.199 C 305.592 349.425,306.118 350.157,306.488 351.274 C 306.874 352.441,307.417 353.174,308.164 353.538 C 308.771 353.834,309.453 354.607,309.680 355.256 C 309.942 356.010,310.614 356.683,311.540 357.119 C 312.357 357.503,313.050 358.150,313.128 358.601 C 313.315 359.676,314.321 360.400,315.627 360.400 C 316.859 360.400,317.796 361.311,317.462 362.183 C 316.902 363.643,313.343 363.233,312.932 361.661 C 312.828 361.265,311.774 360.417,310.589 359.776 C 309.403 359.134,308.216 358.204,307.951 357.708 C 307.686 357.212,306.757 356.149,305.889 355.345 C 305.020 354.541,303.983 353.156,303.585 352.266 C 303.186 351.377,302.478 350.360,302.010 350.007 C 301.446 349.582,300.947 348.439,300.532 346.620 C 300.112 344.776,299.585 343.577,298.927 342.967 C 297.074 341.250,296.504 321.944,298.224 319.161 C 299.082 317.773,299.404 320.067,299.485 328.119 M328.020 321.163 C 327.535 322.069,327.860 324.934,328.409 324.594 C 328.586 324.485,328.855 323.659,329.007 322.760 C 329.333 320.832,328.724 319.847,328.020 321.163 M292.806 342.248 C 293.264 346.084,293.168 346.800,292.195 346.800 C 290.960 346.800,290.220 339.027,291.270 337.074 C 291.881 335.936,292.167 336.899,292.806 342.248 M320.891 341.024 C 320.486 341.748,321.020 345.119,321.645 345.783 C 322.538 346.730,323.100 345.066,322.643 342.830 C 322.180 340.562,321.526 339.888,320.891 341.024 M324.186 347.645 C 323.778 348.928,324.968 350.004,325.835 349.136 C 326.375 348.596,326.391 348.374,325.939 347.651 C 325.261 346.566,324.529 346.564,324.186 347.645 M295.985 348.700 C 296.217 349.525,296.518 350.875,296.655 351.700 C 296.858 352.930,297.069 353.200,297.828 353.200 C 298.878 353.200,299.224 353.621,299.572 355.327 C 299.707 355.985,300.083 356.647,300.409 356.799 C 302.248 357.654,302.596 357.980,302.892 359.124 C 303.140 360.081,303.519 360.460,304.476 360.708 C 305.988 361.099,306.803 362.157,306.120 362.840 C 305.456 363.504,303.906 362.995,302.676 361.710 C 302.092 361.099,300.531 359.475,299.207 358.100 C 297.355 356.176,296.800 355.323,296.800 354.400 C 296.800 353.391,296.643 353.200,295.814 353.200 C 294.584 353.200,294.158 352.420,293.794 349.500 C 293.424 346.531,295.192 345.885,295.985 348.700 M327.800 351.200 C 327.434 351.792,327.941 352.400,328.800 352.400 C 329.893 352.400,330.150 351.708,329.237 351.220 C 328.266 350.700,328.110 350.698,327.800 351.200 M264.800 351.791 C 264.800 352.126,264.960 352.400,265.157 352.400 C 265.490 352.400,265.931 353.577,266.272 355.379 C 266.973 359.085,267.878 361.808,269.499 365.082 C 272.601 371.347,272.958 371.959,273.900 372.617 C 275.892 374.008,274.546 368.575,272.433 366.692 C 271.735 366.070,271.223 365.120,271.064 364.150 C 270.913 363.224,270.318 362.077,269.587 361.302 C 268.609 360.265,268.253 359.381,267.813 356.902 C 267.122 353.010,266.955 352.594,265.766 351.815 C 264.911 351.255,264.800 351.252,264.800 351.791 M334.203 354.799 C 333.435 355.068,333.436 355.084,334.254 355.522 C 334.889 355.862,335.261 355.844,335.804 355.447 C 336.694 354.796,335.541 354.330,334.203 354.799 M324.873 358.289 C 325.034 359.672,327.696 360.387,329.468 359.523 C 331.838 358.368,330.471 357.200,326.747 357.200 C 324.805 357.200,324.751 357.232,324.873 358.289 M309.648 364.225 C 310.944 364.895,310.752 365.707,309.179 366.207 C 307.596 366.709,305.799 364.470,307.300 363.865 C 308.125 363.532,308.386 363.572,309.648 364.225 M324.320 364.643 C 324.496 365.873,322.501 366.619,320.287 366.152 C 318.990 365.879,318.600 365.613,318.600 365.002 C 318.600 363.457,324.102 363.112,324.320 364.643 M352.400 367.600 C 352.400 368.655,351.781 368.923,350.079 368.604 L 348.609 368.328 349.857 367.803 C 350.543 367.515,351.228 367.078,351.380 366.833 C 351.763 366.213,352.400 366.692,352.400 367.600 M316.628 368.045 C 317.069 368.760,315.923 369.248,314.267 369.050 C 312.538 368.844,312.204 368.641,312.584 368.027 C 312.933 367.461,316.276 367.476,316.628 368.045 " stroke="none" fill="#b5818c" fill-rule="evenodd"></path></g></svg>