<svg id="svg" version="1.1" xmlns="http://www.w3.org/2000/svg" xmlns:xlink="http://www.w3.org/1999/xlink" width="400" height="400" viewBox="0, 0, 400,400"><g id="svgg"><path id="path0" d="M169.488 98.410 C 152.817 123.985,139.227 144.947,139.288 144.993 C 139.373 145.056,196.937 112.057,199.503 110.475 C 199.900 110.230,199.984 104.079,199.903 81.038 L 199.800 51.910 169.488 98.410 M125.830 165.601 C 93.145 220.382,129.751 288.580,194.318 293.194 C 200.875 293.663,200.499 294.028,198.097 289.525 C 197.004 287.476,193.717 281.300,190.792 275.800 C 187.867 270.300,182.013 259.320,177.784 251.400 C 173.554 243.480,169.331 235.560,168.398 233.800 C 167.465 232.040,166.023 229.340,165.192 227.800 C 164.362 226.260,162.879 223.470,161.896 221.600 C 160.914 219.730,159.481 217.030,158.712 215.600 C 157.943 214.170,156.364 211.200,155.203 209.000 C 154.042 206.800,152.963 204.820,152.805 204.600 C 152.647 204.380,151.388 202.040,150.007 199.400 C 148.626 196.760,147.002 193.700,146.398 192.600 C 144.150 188.501,139.365 179.572,134.518 170.428 C 131.769 165.243,129.390 160.861,129.231 160.692 C 129.073 160.522,127.542 162.731,125.830 165.601 M0.043 330.200 C 0.013 350.146,-0.159 349.170,4.134 353.380 C 20.152 369.085,78.972 380.823,159.600 384.404 C 171.713 384.942,216.188 385.407,219.659 385.032 L 222.319 384.745 221.429 382.472 C 218.998 376.267,217.215 364.719,217.204 355.100 L 217.200 351.600 199.300 351.596 C 93.623 351.574,6.812 335.168,0.374 314.003 C 0.206 313.451,0.057 320.740,0.043 330.200 " stroke="none" fill="#3fb83e" fill-rule="evenodd"></path><path id="path1" d="M270.889 272.223 C 270.017 272.834,270.000 273.008,270.000 281.546 C 270.000 291.984,269.749 291.408,274.739 292.409 C 295.675 296.609,303.568 321.650,288.661 336.579 C 284.261 340.986,277.297 344.400,272.708 344.400 C 270.173 344.400,270.000 345.059,270.000 354.738 C 270.000 365.874,268.923 364.800,280.091 364.800 L 288.720 364.800 290.827 362.500 C 313.238 338.036,313.584 299.776,291.620 274.850 L 288.756 271.600 280.267 271.600 C 273.231 271.600,271.626 271.707,270.889 272.223 " stroke="none" fill="#f70404" fill-rule="evenodd"></path><path id="path2" d="M303.454 264.029 C 302.048 265.135,302.084 265.443,304.414 272.281 C 314.603 302.172,314.595 334.092,304.392 364.324 C 301.240 373.665,300.600 373.200,316.600 373.200 C 331.595 373.200,331.955 373.056,330.003 367.840 C 318.595 337.353,318.124 303.972,328.664 272.747 C 331.078 265.596,331.168 264.478,329.391 263.669 C 327.317 262.724,304.714 263.038,303.454 264.029 M342.921 273.500 C 319.792 298.020,319.638 337.370,342.573 362.700 L 344.474 364.800 353.208 364.800 C 364.310 364.800,363.200 365.934,363.200 354.594 C 363.200 344.702,363.117 344.400,360.403 344.400 C 356.570 344.400,349.410 341.152,345.559 337.667 C 329.504 323.139,337.332 295.966,358.604 292.386 C 363.489 291.564,363.200 292.227,363.200 281.819 C 363.200 270.470,364.291 271.600,353.328 271.600 L 344.713 271.600 342.921 273.500 " stroke="none" fill="#049dd5" fill-rule="evenodd"></path><path id="path3" d="M186.800 0.280 C 64.168 9.851,-9.604 140.603,45.531 250.663 C 50.808 261.197,61.849 278.276,65.533 281.603 C 65.900 281.934,67.187 283.374,68.392 284.803 C 77.454 295.539,90.676 307.445,102.304 315.341 L 106.809 318.400 161.804 318.400 L 216.800 318.400 216.800 305.200 C 216.800 297.940,216.739 292.000,216.665 292.000 C 216.591 292.000,214.746 292.273,212.565 292.608 C 148.592 302.413,96.409 239.818,118.686 180.000 C 120.989 173.817,128.135 160.399,129.124 160.400 C 129.276 160.401,145.240 169.452,164.600 180.514 L 199.800 200.628 200.000 246.677 L 200.200 292.726 204.800 284.067 C 207.330 279.305,210.537 273.247,211.927 270.604 C 213.317 267.962,215.702 263.438,217.227 260.550 C 218.752 257.663,220.000 255.089,220.000 254.830 C 220.000 254.051,222.494 247.877,223.263 246.752 C 223.658 246.176,224.156 245.276,224.371 244.752 C 224.586 244.229,225.836 242.360,227.149 240.600 C 229.305 237.709,231.175 234.463,236.711 224.000 C 237.700 222.130,241.249 215.470,244.597 209.200 C 247.946 202.930,253.171 193.120,256.210 187.400 C 259.248 181.680,262.030 176.460,262.391 175.800 C 262.752 175.140,264.733 171.405,266.794 167.500 C 268.855 163.595,270.651 160.400,270.785 160.400 C 271.273 160.400,275.728 167.921,278.038 172.644 C 283.795 184.412,286.702 197.911,286.338 211.180 L 286.183 216.800 316.592 216.809 C 344.020 216.817,360.921 217.170,365.421 217.830 L 367.041 218.067 368.104 213.534 C 374.498 186.270,374.394 157.699,367.803 130.868 C 347.866 49.698,270.333 -6.239,186.800 0.280 M230.784 98.745 C 247.317 124.125,260.768 144.966,260.675 145.059 C 260.582 145.152,253.867 141.410,245.753 136.744 C 237.639 132.078,224.025 124.251,215.500 119.350 L 200.000 110.439 200.000 145.219 C 200.000 164.349,199.887 180.000,199.749 180.000 C 199.563 180.000,139.540 145.864,138.883 145.384 C 138.818 145.337,152.498 124.226,169.283 98.471 C 192.617 62.665,199.909 51.755,200.262 52.121 C 200.517 52.385,214.251 73.365,230.784 98.745 M278.896 233.630 C 253.735 235.233,237.612 249.491,234.151 273.200 C 232.596 283.850,232.960 353.415,234.621 362.927 C 238.355 384.320,254.364 397.734,278.400 399.611 C 286.301 400.229,355.685 399.923,360.086 399.252 C 379.724 396.256,394.155 383.387,398.219 365.246 C 400.770 353.861,400.875 281.076,398.359 268.631 C 394.959 251.812,380.717 237.812,363.955 234.811 C 355.550 233.306,296.785 232.490,278.896 233.630 M330.006 263.924 C 331.277 264.953,331.154 265.865,328.840 272.562 C 318.571 302.290,318.737 336.631,329.290 365.386 C 332.270 373.505,332.763 373.200,316.645 373.200 C 300.183 373.200,301.062 373.909,304.554 363.450 C 314.396 333.972,314.399 301.708,304.562 273.200 C 300.906 262.603,300.189 263.200,316.556 263.200 C 328.077 263.200,329.185 263.260,330.006 263.924 M291.620 274.850 C 313.584 299.776,313.238 338.036,290.827 362.500 L 288.720 364.800 280.091 364.800 C 268.923 364.800,270.000 365.874,270.000 354.738 C 270.000 345.059,270.173 344.400,272.708 344.400 C 277.297 344.400,284.261 340.986,288.661 336.579 C 303.568 321.650,295.675 296.609,274.739 292.409 C 269.749 291.408,270.000 291.984,270.000 281.546 C 270.000 270.570,268.936 271.600,280.267 271.600 L 288.756 271.600 291.620 274.850 M362.426 272.014 C 363.157 272.405,363.200 272.941,363.200 281.552 C 363.200 292.250,363.507 291.549,358.400 292.521 C 337.627 296.475,329.815 322.019,344.838 336.862 C 349.061 341.034,356.217 344.400,360.864 344.400 C 363.199 344.400,363.400 345.222,363.400 354.781 C 363.400 365.919,364.519 364.800,353.383 364.800 L 344.464 364.800 342.003 362.100 C 319.614 337.533,319.919 298.087,342.688 273.700 L 344.648 271.600 353.150 271.600 C 358.246 271.600,361.963 271.766,362.426 272.014 " stroke="none" fill="#040408" fill-rule="evenodd"></path><path id="path4" d="M200.000 81.092 L 200.200 110.555 215.600 119.408 C 224.070 124.277,237.639 132.078,245.753 136.744 C 253.867 141.410,260.582 145.152,260.675 145.059 C 260.843 144.890,201.140 53.036,200.262 52.114 C 199.912 51.746,199.849 58.792,200.000 81.092 M198.000 111.350 C 194.610 113.536,139.410 144.990,139.121 144.900 C 138.945 144.845,138.806 144.935,138.814 145.100 C 138.828 145.392,199.256 180.000,199.751 180.000 C 199.888 180.000,200.000 164.340,200.000 145.200 C 200.000 126.060,199.865 110.411,199.700 110.424 C 199.535 110.436,198.770 110.853,198.000 111.350 M130.898 163.666 C 131.888 165.500,133.651 168.800,134.814 171.000 C 137.229 175.564,144.760 189.605,146.400 192.600 C 147.003 193.700,148.626 196.760,150.007 199.400 C 151.388 202.040,152.647 204.380,152.805 204.600 C 152.963 204.820,154.042 206.800,155.203 209.000 C 156.364 211.200,157.943 214.170,158.712 215.600 C 159.481 217.030,160.914 219.730,161.896 221.600 C 162.879 223.470,164.362 226.260,165.192 227.800 C 166.023 229.340,167.465 232.040,168.398 233.800 C 169.331 235.560,173.555 243.480,177.784 251.400 C 189.364 273.083,196.114 285.783,198.265 289.936 L 200.200 293.672 204.520 293.413 C 208.300 293.187,216.368 292.178,216.626 291.900 C 216.677 291.845,216.831 288.380,216.967 284.200 C 217.434 269.955,218.171 261.854,219.441 257.000 C 219.681 256.084,217.106 260.717,212.549 269.402 C 210.817 272.703,207.330 279.301,204.800 284.065 L 200.200 292.726 200.000 246.677 L 199.800 200.628 166.000 181.292 C 147.410 170.658,131.502 161.591,130.649 161.144 L 129.098 160.332 130.898 163.666 M266.794 167.500 C 264.733 171.405,262.752 175.140,262.391 175.800 C 262.030 176.460,259.248 181.680,256.210 187.400 C 253.171 193.120,247.946 202.930,244.597 209.200 C 241.249 215.470,237.654 222.220,236.609 224.200 C 235.564 226.180,233.707 229.690,232.482 232.000 L 230.255 236.200 234.243 232.400 C 245.829 221.360,257.791 217.399,280.246 217.164 C 286.580 217.098,286.172 217.515,286.341 210.947 C 286.679 197.803,283.761 184.342,278.038 172.644 C 275.728 167.921,271.273 160.400,270.785 160.400 C 270.651 160.400,268.855 163.595,266.794 167.500 M113.693 202.400 C 113.693 203.170,113.775 203.485,113.876 203.100 C 113.976 202.715,113.976 202.085,113.876 201.700 C 113.775 201.315,113.693 201.630,113.693 202.400 M57.600 283.432 C -65.982 308.868,22.801 351.559,199.359 351.596 L 217.319 351.600 217.062 348.300 C 216.920 346.485,216.804 339.015,216.802 331.700 L 216.800 318.400 161.804 318.400 L 106.809 318.400 102.304 315.341 C 90.480 307.312,75.173 293.438,67.800 284.066 C 65.876 281.620,66.281 281.645,57.600 283.432 M194.905 293.487 C 195.514 293.579,196.414 293.577,196.905 293.482 C 197.397 293.387,196.900 293.311,195.800 293.314 C 194.700 293.317,194.297 293.395,194.905 293.487 M363.368 354.600 C 363.368 359.000,363.426 360.855,363.498 358.721 C 363.570 356.588,363.570 352.988,363.499 350.721 C 363.427 348.455,363.368 350.200,363.368 354.600 " stroke="none" fill="#155913" fill-rule="evenodd"></path></g></svg>