<svg id="svg" version="1.1" xmlns="http://www.w3.org/2000/svg" xmlns:xlink="http://www.w3.org/1999/xlink" width="400" height="400" viewBox="0, 0, 400,400"><g id="svgg"><path id="path0" d="M198.390 61.896 C 197.628 63.163,195.955 65.794,194.672 67.741 C 193.390 69.689,191.990 71.905,191.563 72.665 C 191.136 73.426,190.607 74.262,190.387 74.524 C 190.058 74.916,186.800 79.953,180.638 89.600 C 180.146 90.370,178.542 92.844,177.072 95.097 C 175.602 97.350,174.400 99.375,174.400 99.597 C 174.400 99.819,174.242 100.000,174.050 100.000 C 173.857 100.000,173.452 100.501,173.150 101.113 C 172.847 101.725,171.070 104.609,169.200 107.522 C 167.330 110.434,163.868 115.828,161.507 119.509 C 159.146 123.189,157.076 126.380,156.907 126.600 C 156.738 126.820,156.345 127.495,156.032 128.100 C 155.720 128.705,155.315 129.200,155.132 129.200 C 154.950 129.200,154.800 129.376,154.800 129.590 C 154.800 129.805,153.613 131.830,152.162 134.090 C 150.711 136.351,149.183 138.740,148.766 139.400 C 148.349 140.060,146.386 143.079,144.404 146.109 C 142.422 149.138,140.800 151.711,140.800 151.827 C 140.800 151.942,139.930 153.333,138.866 154.918 C 135.476 159.968,130.800 167.496,130.800 167.902 C 130.800 168.233,134.504 170.526,140.800 174.092 C 141.570 174.528,142.380 175.027,142.600 175.200 C 142.820 175.373,143.675 175.894,144.500 176.357 C 149.818 179.345,166.363 188.924,170.000 191.121 C 171.650 192.118,173.990 193.473,175.200 194.133 C 176.410 194.792,177.490 195.437,177.600 195.566 C 177.710 195.696,178.340 196.068,179.000 196.395 C 179.660 196.721,181.287 197.641,182.616 198.439 C 184.810 199.755,193.988 205.086,197.045 206.819 C 197.730 207.207,198.667 207.760,199.126 208.047 C 200.128 208.672,199.788 208.836,210.323 202.654 C 212.811 201.194,214.913 200.000,214.994 200.000 C 215.075 200.000,216.608 199.100,218.400 198.000 C 220.192 196.900,221.748 196.000,221.857 196.000 C 221.967 196.000,222.808 195.499,223.728 194.888 C 224.648 194.276,225.940 193.511,226.600 193.188 C 227.260 192.865,227.890 192.511,228.000 192.401 C 228.110 192.290,228.630 191.958,229.155 191.662 C 232.474 189.793,237.683 186.788,245.400 182.288 C 250.449 179.344,251.851 178.535,254.300 177.153 C 255.125 176.687,256.250 175.997,256.800 175.618 C 257.350 175.240,258.070 174.815,258.400 174.674 C 258.730 174.533,259.831 173.919,260.847 173.309 C 261.863 172.699,264.248 171.300,266.146 170.200 C 268.044 169.100,269.598 168.092,269.599 167.960 C 269.600 167.687,266.498 162.753,262.144 156.103 C 260.525 153.629,259.200 151.424,259.200 151.203 C 259.200 150.981,259.020 150.800,258.800 150.800 C 258.580 150.800,258.400 150.638,258.400 150.441 C 258.400 150.126,253.293 142.074,245.460 130.036 C 244.112 127.966,242.828 125.934,242.605 125.521 C 242.243 124.849,239.320 120.285,230.232 106.200 C 228.670 103.780,227.139 101.305,226.829 100.700 C 226.519 100.095,226.115 99.600,225.932 99.600 C 225.750 99.600,225.600 99.330,225.600 99.000 C 225.600 98.670,225.465 98.399,225.300 98.397 C 225.135 98.395,224.804 97.990,224.564 97.497 C 224.324 97.004,221.282 92.190,217.803 86.800 C 214.323 81.410,211.231 76.524,210.930 75.942 C 210.629 75.360,210.117 74.663,209.792 74.393 C 209.466 74.123,209.200 73.654,209.200 73.351 C 209.200 73.048,209.020 72.800,208.800 72.800 C 208.580 72.800,208.400 72.636,208.400 72.437 C 208.400 71.916,200.565 59.855,200.134 59.711 C 199.936 59.645,199.151 60.628,198.390 61.896 M202.630 90.281 C 203.714 91.976,204.672 93.543,204.761 93.763 C 204.849 93.983,205.076 94.352,205.264 94.582 C 205.548 94.928,210.651 102.818,213.555 107.400 C 213.973 108.060,215.865 110.994,217.758 113.921 C 219.651 116.847,221.200 119.384,221.200 119.559 C 221.200 119.733,221.560 120.202,222.000 120.600 C 222.440 120.998,222.800 121.482,222.800 121.675 C 222.800 121.869,224.060 123.905,225.600 126.200 C 227.140 128.495,228.400 130.477,228.400 130.604 C 228.400 130.730,228.583 131.051,228.807 131.317 C 229.339 131.950,236.691 143.413,237.662 145.124 C 238.075 145.852,238.594 146.662,238.815 146.924 C 239.036 147.186,240.475 149.380,242.013 151.800 C 243.551 154.220,244.985 156.470,245.200 156.800 C 249.303 163.106,249.302 163.101,246.966 164.435 C 245.674 165.173,241.267 167.712,239.400 168.793 C 238.740 169.175,237.210 170.079,236.000 170.800 C 233.931 172.034,233.304 172.398,229.800 174.400 C 229.030 174.840,227.770 175.560,227.000 176.000 C 226.230 176.440,224.925 177.181,224.100 177.647 C 223.275 178.113,222.122 178.833,221.538 179.247 C 220.954 179.661,220.393 180.000,220.292 180.000 C 220.190 180.000,217.197 181.710,213.642 183.800 C 210.086 185.890,207.074 187.600,206.950 187.600 C 206.825 187.600,206.246 187.933,205.662 188.339 C 205.078 188.745,203.562 189.641,202.294 190.329 L 199.988 191.580 198.594 190.790 C 197.827 190.355,196.594 189.657,195.853 189.237 C 195.113 188.817,193.294 187.737,191.812 186.837 C 190.331 185.937,189.043 185.200,188.951 185.200 C 188.858 185.200,188.112 184.777,187.291 184.259 C 185.808 183.323,179.782 179.753,177.300 178.340 C 176.585 177.933,175.370 177.240,174.600 176.800 C 173.830 176.360,172.525 175.621,171.700 175.157 C 170.875 174.694,170.020 174.173,169.800 174.000 C 169.580 173.827,168.725 173.306,167.900 172.843 C 166.317 171.953,164.453 170.891,162.300 169.651 C 161.585 169.240,158.885 167.691,156.300 166.209 C 150.400 162.828,150.372 164.023,156.578 154.400 C 158.352 151.650,160.056 148.908,160.365 148.307 C 160.675 147.705,161.259 146.858,161.664 146.423 C 162.069 145.989,162.400 145.528,162.400 145.399 C 162.400 145.270,163.300 143.830,164.400 142.200 C 165.500 140.570,166.400 139.145,166.400 139.034 C 166.400 138.922,167.390 137.377,168.600 135.600 C 169.810 133.823,170.800 132.280,170.800 132.171 C 170.800 132.062,172.060 130.095,173.600 127.800 C 175.140 125.505,176.400 123.441,176.400 123.213 C 176.400 122.986,176.580 122.800,176.800 122.800 C 177.020 122.800,177.200 122.530,177.200 122.200 C 177.200 121.870,177.347 121.600,177.526 121.600 C 177.705 121.600,178.219 120.925,178.668 120.100 C 179.118 119.275,182.149 114.460,185.404 109.400 C 188.660 104.340,191.521 99.796,191.762 99.303 C 192.003 98.810,192.335 98.405,192.500 98.403 C 192.665 98.401,192.800 98.164,192.800 97.875 C 192.800 97.587,193.115 97.002,193.500 96.575 C 193.885 96.149,194.455 95.305,194.768 94.700 C 195.080 94.095,195.485 93.600,195.668 93.600 C 195.850 93.600,196.000 93.364,196.000 93.075 C 196.000 92.787,196.315 92.202,196.700 91.775 C 197.085 91.349,197.662 90.460,197.983 89.800 C 199.629 86.410,200.193 86.468,202.630 90.281 M116.151 190.300 C 112.906 195.521,108.000 205.267,108.000 206.495 C 108.000 206.795,107.841 207.211,107.647 207.420 C 107.282 207.812,106.088 211.230,105.207 214.400 C 104.932 215.390,104.570 216.650,104.403 217.200 C 104.236 217.750,103.888 219.190,103.630 220.400 C 103.372 221.610,103.001 223.320,102.806 224.200 C 101.780 228.827,101.403 234.025,101.443 243.000 C 101.490 253.361,101.811 256.267,104.018 266.300 C 104.248 267.345,104.539 268.697,104.664 269.305 C 104.790 269.913,105.051 270.508,105.246 270.629 C 105.441 270.749,105.600 271.276,105.600 271.800 C 105.600 272.324,105.780 272.864,106.000 273.000 C 106.220 273.136,106.400 273.651,106.400 274.144 C 106.400 274.637,106.543 275.211,106.718 275.420 C 106.893 275.629,107.266 276.520,107.546 277.400 C 109.864 284.686,117.435 297.659,124.215 305.961 C 129.743 312.730,147.029 327.200,149.587 327.200 C 149.814 327.200,150.001 327.335,150.003 327.500 C 150.005 327.665,150.410 327.999,150.903 328.242 C 151.396 328.486,153.420 329.500,155.400 330.495 C 179.655 342.693,207.319 344.415,233.328 335.344 C 237.848 333.767,248.830 328.569,251.455 326.762 C 252.384 326.123,253.337 325.600,253.572 325.600 C 253.807 325.600,254.000 325.420,254.000 325.200 C 254.000 324.980,254.174 324.800,254.386 324.800 C 254.754 324.800,261.618 319.784,264.187 317.638 C 266.759 315.489,274.758 307.260,277.055 304.400 C 281.086 299.382,289.600 285.828,289.600 284.431 C 289.600 284.261,289.850 283.600,290.156 282.961 C 290.664 281.901,291.562 279.850,292.414 277.800 C 292.597 277.360,292.964 276.280,293.229 275.400 C 293.494 274.520,293.848 273.440,294.015 273.000 C 299.109 259.603,300.310 240.667,297.148 223.600 C 296.476 219.976,295.273 215.291,294.761 214.305 C 294.562 213.923,294.400 213.259,294.400 212.829 C 294.400 212.399,294.220 211.936,294.000 211.800 C 293.780 211.664,293.600 211.149,293.600 210.656 C 293.600 210.163,293.457 209.589,293.282 209.380 C 293.107 209.171,292.722 208.280,292.428 207.400 C 291.456 204.496,288.051 197.246,286.100 193.928 C 283.370 189.282,281.546 186.400,281.337 186.400 C 281.113 186.400,277.592 188.277,274.700 189.938 C 273.875 190.412,272.525 191.179,271.700 191.643 C 270.875 192.106,270.020 192.627,269.800 192.800 C 269.580 192.973,268.725 193.494,267.900 193.957 C 265.796 195.139,264.609 195.826,257.800 199.803 C 251.522 203.470,250.171 204.252,247.700 205.647 C 246.875 206.113,245.750 206.794,245.200 207.161 C 244.650 207.528,243.660 208.092,243.000 208.414 C 242.340 208.735,241.710 209.089,241.600 209.199 C 241.406 209.394,241.074 209.589,238.045 211.284 C 237.250 211.729,235.070 213.000,233.200 214.109 C 231.330 215.217,227.550 217.418,224.800 218.999 C 222.050 220.579,218.180 222.825,216.200 223.988 C 212.654 226.071,211.265 226.877,208.700 228.343 C 207.985 228.751,205.837 230.011,203.926 231.143 C 200.037 233.446,199.805 233.499,198.400 232.400 C 197.850 231.970,197.273 231.614,197.118 231.609 C 196.962 231.604,195.882 231.035,194.718 230.344 C 192.462 229.007,190.916 228.114,188.500 226.757 C 187.675 226.294,186.820 225.773,186.600 225.600 C 186.380 225.427,185.525 224.906,184.700 224.443 C 182.829 223.392,180.791 222.227,179.100 221.244 C 178.385 220.828,175.730 219.292,173.200 217.831 C 170.670 216.371,168.330 215.008,168.000 214.803 C 165.938 213.525,161.886 211.200,161.721 211.200 C 161.612 211.200,161.046 210.861,160.462 210.447 C 159.878 210.033,158.725 209.313,157.900 208.847 C 156.486 208.048,155.366 207.410,152.300 205.656 C 148.303 203.369,133.212 194.575,131.090 193.296 C 129.721 192.470,127.745 191.346,126.700 190.798 C 125.655 190.250,124.800 189.666,124.800 189.501 C 124.800 189.335,124.630 189.200,124.421 189.200 C 124.213 189.200,122.968 188.570,121.654 187.800 C 118.559 185.986,118.940 185.813,116.151 190.300 " stroke="none" fill="#fcfbfb" fill-rule="evenodd"></path><path id="path1" d="M178.700 0.273 C 176.555 0.359,174.800 0.602,174.800 0.814 C 174.800 1.027,173.540 1.200,172.000 1.200 C 170.400 1.200,169.200 1.371,169.200 1.600 C 169.200 1.822,168.133 2.000,166.800 2.000 C 165.467 2.000,164.400 2.178,164.400 2.400 C 164.400 2.620,163.421 2.800,162.224 2.800 C 161.027 2.800,159.936 2.980,159.800 3.200 C 159.664 3.420,158.933 3.600,158.176 3.600 C 157.419 3.600,156.800 3.780,156.800 4.000 C 156.800 4.220,155.900 4.400,154.800 4.400 C 153.700 4.400,152.800 4.580,152.800 4.800 C 152.800 5.020,152.080 5.200,151.200 5.200 C 150.320 5.200,149.600 5.380,149.600 5.600 C 149.600 5.820,148.880 6.000,148.000 6.000 C 147.120 6.000,146.400 6.180,146.400 6.400 C 146.400 6.620,145.860 6.800,145.200 6.800 C 144.540 6.800,144.000 6.980,144.000 7.200 C 144.000 7.420,143.370 7.600,142.600 7.600 C 141.830 7.600,141.200 7.780,141.200 8.000 C 141.200 8.220,140.811 8.400,140.335 8.400 C 139.376 8.400,135.391 9.486,134.305 10.043 C 133.923 10.240,133.259 10.400,132.829 10.400 C 132.399 10.400,131.936 10.580,131.800 10.800 C 131.664 11.020,131.203 11.200,130.776 11.200 C 130.349 11.200,130.000 11.380,130.000 11.600 C 130.000 11.820,129.561 12.000,129.024 12.000 C 128.487 12.000,127.936 12.180,127.800 12.400 C 127.664 12.620,127.113 12.800,126.576 12.800 C 126.039 12.800,125.600 12.980,125.600 13.200 C 125.600 13.420,125.240 13.600,124.800 13.600 C 124.360 13.600,124.000 13.780,124.000 14.000 C 124.000 14.220,123.460 14.400,122.800 14.400 C 122.140 14.400,121.599 14.535,121.597 14.700 C 121.593 15.059,119.656 16.000,118.920 16.000 C 118.634 16.000,118.400 16.180,118.400 16.400 C 118.400 16.620,118.040 16.800,117.600 16.800 C 117.160 16.800,116.800 16.980,116.800 17.200 C 116.800 17.420,116.260 17.600,115.600 17.600 C 114.940 17.600,114.400 17.780,114.400 18.000 C 114.400 18.220,114.040 18.400,113.600 18.400 C 113.160 18.400,112.800 18.580,112.800 18.800 C 112.800 19.020,112.530 19.200,112.200 19.200 C 111.870 19.200,111.600 19.380,111.600 19.600 C 111.600 19.820,111.366 20.000,111.080 20.000 C 110.344 20.000,108.407 20.941,108.403 21.300 C 108.401 21.465,108.040 21.600,107.600 21.600 C 107.160 21.600,106.800 21.780,106.800 22.000 C 106.800 22.220,106.480 22.400,106.088 22.400 C 105.697 22.400,105.117 22.760,104.800 23.200 C 104.483 23.640,103.903 24.000,103.512 24.000 C 103.120 24.000,102.800 24.180,102.800 24.400 C 102.800 24.620,102.440 24.800,102.000 24.800 C 101.560 24.800,101.200 24.991,101.200 25.224 C 101.200 25.457,101.035 25.545,100.832 25.420 C 100.630 25.295,100.201 25.456,99.880 25.777 C 99.558 26.099,99.184 26.250,99.048 26.114 C 98.911 25.978,98.800 26.077,98.800 26.333 C 98.800 26.590,98.440 26.800,98.000 26.800 C 97.560 26.800,97.200 26.980,97.200 27.200 C 97.200 27.420,96.952 27.600,96.649 27.600 C 96.346 27.600,95.871 27.873,95.594 28.207 C 95.317 28.541,94.440 29.117,93.645 29.487 C 92.850 29.857,91.909 30.483,91.553 30.880 C 91.197 31.276,90.652 31.600,90.341 31.600 C 90.031 31.600,89.517 31.960,89.200 32.400 C 88.883 32.840,88.343 33.200,88.000 33.200 C 87.657 33.200,87.117 33.560,86.800 34.000 C 86.483 34.440,85.975 34.800,85.672 34.800 C 85.369 34.800,84.617 35.340,84.000 36.000 C 83.383 36.660,82.631 37.200,82.328 37.200 C 82.025 37.200,81.517 37.560,81.200 38.000 C 80.883 38.440,80.375 38.800,80.072 38.800 C 79.769 38.800,79.017 39.340,78.400 40.000 C 77.783 40.660,77.126 41.200,76.939 41.200 C 76.753 41.200,75.812 41.920,74.849 42.800 C 73.887 43.680,72.970 44.400,72.812 44.400 C 72.654 44.400,71.502 45.390,70.253 46.600 C 69.004 47.810,67.794 48.800,67.565 48.800 C 67.336 48.800,65.181 50.825,62.776 53.300 C 57.480 58.752,58.663 57.566,53.300 62.792 C 50.825 65.204,48.800 67.358,48.800 67.579 C 48.800 67.800,47.900 68.925,46.800 70.078 C 45.700 71.231,44.800 72.334,44.800 72.527 C 44.800 72.721,44.170 73.510,43.400 74.280 C 42.630 75.050,42.000 75.820,42.000 75.992 C 42.000 76.163,41.280 77.045,40.400 77.952 C 39.520 78.859,38.800 79.831,38.800 80.112 C 38.800 80.393,38.440 80.883,38.000 81.200 C 37.560 81.517,37.200 82.025,37.200 82.328 C 37.200 82.631,36.660 83.383,36.000 84.000 C 35.340 84.617,34.800 85.369,34.800 85.672 C 34.800 85.975,34.440 86.483,34.000 86.800 C 33.560 87.117,33.200 87.657,33.200 88.000 C 33.200 88.343,32.840 88.883,32.400 89.200 C 31.960 89.517,31.600 90.031,31.600 90.341 C 31.600 90.652,31.276 91.197,30.880 91.553 C 30.483 91.909,29.857 92.850,29.487 93.645 C 29.117 94.440,28.541 95.317,28.207 95.594 C 27.873 95.871,27.600 96.346,27.600 96.649 C 27.600 96.952,27.420 97.200,27.200 97.200 C 26.980 97.200,26.800 97.560,26.800 98.000 C 26.800 98.440,26.590 98.800,26.333 98.800 C 26.077 98.800,25.978 98.911,26.114 99.048 C 26.250 99.184,26.092 99.566,25.761 99.896 C 25.431 100.226,25.057 101.015,24.930 101.648 C 24.804 102.282,24.542 102.800,24.350 102.800 C 24.157 102.800,24.000 103.160,24.000 103.600 C 24.000 104.040,23.820 104.400,23.600 104.400 C 23.380 104.400,23.200 104.720,23.200 105.112 C 23.200 105.503,22.840 106.083,22.400 106.400 C 21.960 106.717,21.600 107.297,21.600 107.688 C 21.600 108.080,21.420 108.400,21.200 108.400 C 20.980 108.400,20.800 108.760,20.800 109.200 C 20.800 109.640,20.620 110.000,20.400 110.000 C 20.180 110.000,20.000 110.270,20.000 110.600 C 20.000 110.930,19.820 111.200,19.600 111.200 C 19.380 111.200,19.200 111.560,19.200 112.000 C 19.200 112.440,19.020 112.800,18.800 112.800 C 18.580 112.800,18.400 113.340,18.400 114.000 C 18.400 114.660,18.220 115.200,18.000 115.200 C 17.780 115.200,17.600 115.560,17.600 116.000 C 17.600 116.440,17.420 116.800,17.200 116.800 C 16.980 116.800,16.800 117.160,16.800 117.600 C 16.800 118.040,16.620 118.400,16.400 118.400 C 16.180 118.400,16.000 118.760,16.000 119.200 C 16.000 119.640,15.820 120.000,15.600 120.000 C 15.380 120.000,15.200 120.540,15.200 121.200 C 15.200 121.860,15.020 122.400,14.800 122.400 C 14.580 122.400,14.400 122.760,14.400 123.200 C 14.400 123.640,14.220 124.000,14.000 124.000 C 13.780 124.000,13.600 124.360,13.600 124.800 C 13.600 125.240,13.420 125.600,13.200 125.600 C 12.980 125.600,12.800 126.039,12.800 126.576 C 12.800 127.113,12.620 127.664,12.400 127.800 C 12.180 127.936,12.000 128.391,12.000 128.811 C 12.000 129.232,11.643 130.211,11.207 130.988 C 10.771 131.765,10.499 132.400,10.604 132.400 C 10.772 132.400,10.588 132.969,9.379 136.200 C 8.897 137.487,8.765 138.089,8.525 140.100 C 8.400 141.145,8.141 142.000,7.949 142.000 C 7.757 142.000,7.600 142.450,7.600 143.000 C 7.600 143.550,7.420 144.000,7.200 144.000 C 6.980 144.000,6.800 144.720,6.800 145.600 C 6.800 146.480,6.620 147.200,6.400 147.200 C 6.180 147.200,6.000 147.740,6.000 148.400 C 6.000 149.060,5.820 149.600,5.600 149.600 C 5.380 149.600,5.200 150.320,5.200 151.200 C 5.200 152.080,5.020 152.800,4.800 152.800 C 4.580 152.800,4.400 153.700,4.400 154.800 C 4.400 155.900,4.220 156.800,4.000 156.800 C 3.780 156.800,3.600 157.610,3.600 158.600 C 3.600 159.590,3.420 160.400,3.200 160.400 C 2.980 160.400,2.800 161.300,2.800 162.400 C 2.800 163.500,2.620 164.400,2.400 164.400 C 2.178 164.400,2.000 165.467,2.000 166.800 C 2.000 168.133,1.822 169.200,1.600 169.200 C 1.372 169.200,1.200 170.389,1.200 171.967 C 1.200 173.824,1.036 174.788,0.700 174.900 C -0.032 175.144,-0.032 224.856,0.700 225.100 C 1.036 225.212,1.200 226.176,1.200 228.033 C 1.200 229.611,1.372 230.800,1.600 230.800 C 1.822 230.800,2.000 231.867,2.000 233.200 C 2.000 234.533,2.178 235.600,2.400 235.600 C 2.620 235.600,2.800 236.579,2.800 237.776 C 2.800 238.973,2.980 240.064,3.200 240.200 C 3.420 240.336,3.600 241.067,3.600 241.824 C 3.600 242.581,3.780 243.200,4.000 243.200 C 4.220 243.200,4.400 244.100,4.400 245.200 C 4.400 246.300,4.580 247.200,4.800 247.200 C 5.020 247.200,5.200 247.920,5.200 248.800 C 5.200 249.680,5.380 250.400,5.600 250.400 C 5.820 250.400,6.000 251.120,6.000 252.000 C 6.000 252.880,6.180 253.600,6.400 253.600 C 6.620 253.600,6.800 254.140,6.800 254.800 C 6.800 255.460,6.980 256.000,7.200 256.000 C 7.420 256.000,7.600 256.630,7.600 257.400 C 7.600 258.170,7.780 258.800,8.000 258.800 C 8.220 258.800,8.400 259.189,8.400 259.665 C 8.400 260.624,9.486 264.609,10.043 265.695 C 10.240 266.077,10.400 266.741,10.400 267.171 C 10.400 267.601,10.580 268.064,10.800 268.200 C 11.020 268.336,11.200 268.797,11.200 269.224 C 11.200 269.651,11.380 270.000,11.600 270.000 C 11.820 270.000,12.000 270.439,12.000 270.976 C 12.000 271.513,12.180 272.064,12.400 272.200 C 12.620 272.336,12.800 272.887,12.800 273.424 C 12.800 273.961,12.980 274.400,13.200 274.400 C 13.420 274.400,13.600 274.760,13.600 275.200 C 13.600 275.640,13.780 276.000,14.000 276.000 C 14.220 276.000,14.400 276.540,14.400 277.200 C 14.400 277.860,14.580 278.400,14.800 278.400 C 15.020 278.400,15.200 278.760,15.200 279.200 C 15.200 279.640,15.380 280.000,15.600 280.000 C 15.820 280.000,16.000 280.360,16.000 280.800 C 16.000 281.240,16.180 281.600,16.400 281.600 C 16.620 281.600,16.800 281.960,16.800 282.400 C 16.800 282.840,16.980 283.200,17.200 283.200 C 17.420 283.200,17.600 283.740,17.600 284.400 C 17.600 285.060,17.780 285.600,18.000 285.600 C 18.220 285.600,18.400 285.960,18.400 286.400 C 18.400 286.840,18.580 287.200,18.800 287.200 C 19.020 287.200,19.200 287.470,19.200 287.800 C 19.200 288.130,19.380 288.400,19.600 288.400 C 19.820 288.400,20.000 288.634,20.000 288.920 C 20.000 289.656,20.941 291.593,21.300 291.597 C 21.465 291.599,21.600 291.960,21.600 292.400 C 21.600 292.840,21.780 293.200,22.000 293.200 C 22.220 293.200,22.400 293.520,22.400 293.912 C 22.400 294.303,22.760 294.883,23.200 295.200 C 23.640 295.517,24.000 296.097,24.000 296.488 C 24.000 296.880,24.180 297.200,24.400 297.200 C 24.620 297.200,24.800 297.560,24.800 298.000 C 24.800 298.440,24.991 298.800,25.224 298.800 C 25.457 298.800,25.545 298.965,25.420 299.168 C 25.295 299.370,25.456 299.799,25.777 300.120 C 26.099 300.442,26.250 300.816,26.114 300.952 C 25.978 301.089,26.077 301.200,26.333 301.200 C 26.590 301.200,26.800 301.560,26.800 302.000 C 26.800 302.440,26.980 302.800,27.200 302.800 C 27.420 302.800,27.600 303.036,27.600 303.325 C 27.600 303.613,27.915 304.198,28.300 304.625 C 28.685 305.051,29.269 305.940,29.597 306.600 C 29.926 307.260,30.511 308.091,30.897 308.447 C 31.284 308.803,31.600 309.348,31.600 309.659 C 31.600 309.969,31.960 310.483,32.400 310.800 C 32.840 311.117,33.200 311.657,33.200 312.000 C 33.200 312.343,33.560 312.883,34.000 313.200 C 34.440 313.517,34.800 314.025,34.800 314.328 C 34.800 314.631,35.340 315.383,36.000 316.000 C 36.660 316.617,37.200 317.369,37.200 317.672 C 37.200 317.975,37.560 318.483,38.000 318.800 C 38.440 319.117,38.800 319.625,38.800 319.928 C 38.800 320.231,39.340 320.983,40.000 321.600 C 40.660 322.217,41.200 322.903,41.200 323.126 C 41.200 323.349,41.830 324.180,42.600 324.973 C 43.370 325.766,44.000 326.556,44.000 326.729 C 44.000 326.902,45.080 328.165,46.400 329.535 C 47.720 330.905,48.800 332.206,48.800 332.426 C 48.800 332.730,53.854 337.885,58.102 341.914 C 58.268 342.071,60.372 344.225,62.776 346.700 C 65.181 349.175,67.352 351.200,67.600 351.200 C 67.849 351.200,68.929 352.100,70.000 353.200 C 71.071 354.300,72.154 355.200,72.405 355.200 C 72.657 355.200,73.554 355.920,74.400 356.800 C 75.246 357.680,76.125 358.400,76.355 358.400 C 76.585 358.400,77.403 359.030,78.173 359.800 C 78.943 360.570,79.810 361.200,80.098 361.200 C 80.387 361.200,80.883 361.560,81.200 362.000 C 81.517 362.440,82.025 362.800,82.328 362.800 C 82.631 362.800,83.383 363.340,84.000 364.000 C 84.617 364.660,85.369 365.200,85.672 365.200 C 85.975 365.200,86.483 365.560,86.800 366.000 C 87.117 366.440,87.657 366.800,88.000 366.800 C 88.343 366.800,88.883 367.160,89.200 367.600 C 89.517 368.040,90.031 368.400,90.341 368.400 C 90.652 368.400,91.197 368.716,91.553 369.103 C 91.909 369.489,92.740 370.074,93.400 370.403 C 94.060 370.731,94.949 371.315,95.375 371.700 C 95.802 372.085,96.387 372.400,96.675 372.400 C 96.964 372.400,97.200 372.580,97.200 372.800 C 97.200 373.020,97.478 373.200,97.817 373.200 C 98.156 373.200,98.817 373.558,99.287 373.995 C 99.756 374.432,100.739 374.902,101.470 375.040 C 102.202 375.177,102.800 375.449,102.800 375.645 C 102.800 375.840,103.160 376.000,103.600 376.000 C 104.040 376.000,104.400 376.180,104.400 376.400 C 104.400 376.620,104.720 376.800,105.112 376.800 C 105.503 376.800,106.083 377.160,106.400 377.600 C 106.717 378.040,107.297 378.400,107.688 378.400 C 108.080 378.400,108.400 378.580,108.400 378.800 C 108.400 379.020,108.760 379.200,109.200 379.200 C 109.640 379.200,110.000 379.380,110.000 379.600 C 110.000 379.820,110.270 380.000,110.600 380.000 C 110.930 380.000,111.200 380.180,111.200 380.400 C 111.200 380.620,111.560 380.800,112.000 380.800 C 112.440 380.800,112.800 380.980,112.800 381.200 C 112.800 381.420,113.340 381.600,114.000 381.600 C 114.660 381.600,115.200 381.780,115.200 382.000 C 115.200 382.220,115.560 382.400,116.000 382.400 C 116.440 382.400,116.800 382.580,116.800 382.800 C 116.800 383.020,117.160 383.200,117.600 383.200 C 118.040 383.200,118.400 383.380,118.400 383.600 C 118.400 383.820,118.760 384.000,119.200 384.000 C 119.640 384.000,120.000 384.180,120.000 384.400 C 120.000 384.620,120.540 384.800,121.200 384.800 C 121.860 384.800,122.400 384.980,122.400 385.200 C 122.400 385.420,122.760 385.600,123.200 385.600 C 123.640 385.600,124.000 385.780,124.000 386.000 C 124.000 386.220,124.360 386.400,124.800 386.400 C 125.240 386.400,125.600 386.580,125.600 386.800 C 125.600 387.020,126.039 387.200,126.576 387.200 C 127.113 387.200,127.664 387.380,127.800 387.600 C 127.936 387.820,128.487 388.000,129.024 388.000 C 129.561 388.000,130.000 388.180,130.000 388.400 C 130.000 388.620,130.349 388.800,130.776 388.800 C 131.203 388.800,131.664 388.980,131.800 389.200 C 131.936 389.420,132.476 389.600,133.000 389.600 C 133.524 389.600,134.064 389.780,134.200 390.000 C 134.336 390.220,134.851 390.400,135.344 390.400 C 135.837 390.400,136.419 390.579,136.638 390.798 C 136.856 391.016,138.152 391.312,139.518 391.454 C 140.883 391.597,142.000 391.868,142.000 392.057 C 142.000 392.246,142.450 392.400,143.000 392.400 C 143.550 392.400,144.000 392.580,144.000 392.800 C 144.000 393.020,144.720 393.200,145.600 393.200 C 146.480 393.200,147.200 393.380,147.200 393.600 C 147.200 393.820,147.740 394.000,148.400 394.000 C 149.060 394.000,149.600 394.180,149.600 394.400 C 149.600 394.620,150.320 394.800,151.200 394.800 C 152.080 394.800,152.800 394.980,152.800 395.200 C 152.800 395.420,153.700 395.600,154.800 395.600 C 155.900 395.600,156.800 395.780,156.800 396.000 C 156.800 396.220,157.610 396.400,158.600 396.400 C 159.590 396.400,160.400 396.580,160.400 396.800 C 160.400 397.020,161.300 397.200,162.400 397.200 C 163.500 397.200,164.400 397.380,164.400 397.600 C 164.400 397.822,165.467 398.000,166.800 398.000 C 168.133 398.000,169.200 398.178,169.200 398.400 C 169.200 398.628,170.389 398.800,171.967 398.800 C 173.824 398.800,174.788 398.964,174.900 399.300 C 175.144 400.032,224.856 400.032,225.100 399.300 C 225.212 398.964,226.176 398.800,228.033 398.800 C 229.611 398.800,230.800 398.628,230.800 398.400 C 230.800 398.178,231.867 398.000,233.200 398.000 C 234.533 398.000,235.600 397.822,235.600 397.600 C 235.600 397.380,236.579 397.200,237.776 397.200 C 238.973 397.200,240.064 397.020,240.200 396.800 C 240.336 396.580,241.067 396.400,241.824 396.400 C 242.581 396.400,243.200 396.220,243.200 396.000 C 243.200 395.780,244.100 395.600,245.200 395.600 C 246.300 395.600,247.200 395.420,247.200 395.200 C 247.200 394.980,247.920 394.800,248.800 394.800 C 249.680 394.800,250.400 394.620,250.400 394.400 C 250.400 394.180,251.120 394.000,252.000 394.000 C 252.880 394.000,253.600 393.820,253.600 393.600 C 253.600 393.380,254.140 393.200,254.800 393.200 C 255.460 393.200,256.000 393.020,256.000 392.800 C 256.000 392.580,256.630 392.400,257.400 392.400 C 258.170 392.400,258.800 392.220,258.800 392.000 C 258.800 391.780,259.229 391.600,259.754 391.600 C 260.778 391.600,264.553 390.560,265.695 389.963 C 266.077 389.763,266.741 389.600,267.171 389.600 C 267.601 389.600,268.064 389.420,268.200 389.200 C 268.336 388.980,268.797 388.800,269.224 388.800 C 269.651 388.800,270.000 388.620,270.000 388.400 C 270.000 388.180,270.362 388.000,270.805 388.000 C 271.248 388.000,271.968 387.820,272.405 387.600 C 272.842 387.380,273.558 387.020,273.995 386.800 C 274.432 386.580,275.062 386.400,275.395 386.400 C 275.728 386.400,276.000 386.220,276.000 386.000 C 276.000 385.780,276.439 385.600,276.976 385.600 C 277.513 385.600,278.064 385.420,278.200 385.200 C 278.336 384.980,278.797 384.800,279.224 384.800 C 279.651 384.800,280.000 384.620,280.000 384.400 C 280.000 384.180,280.360 384.000,280.800 384.000 C 281.240 384.000,281.600 383.820,281.600 383.600 C 281.600 383.380,281.960 383.200,282.400 383.200 C 282.840 383.200,283.200 383.020,283.200 382.800 C 283.200 382.580,283.740 382.400,284.400 382.400 C 285.060 382.400,285.600 382.220,285.600 382.000 C 285.600 381.780,285.960 381.600,286.400 381.600 C 286.840 381.600,287.200 381.420,287.200 381.200 C 287.200 380.980,287.470 380.800,287.800 380.800 C 288.130 380.800,288.400 380.620,288.400 380.400 C 288.400 380.180,288.634 380.000,288.920 380.000 C 289.656 380.000,291.593 379.059,291.597 378.700 C 291.599 378.535,291.960 378.400,292.400 378.400 C 292.840 378.400,293.200 378.220,293.200 378.000 C 293.200 377.780,293.520 377.600,293.912 377.600 C 294.303 377.600,294.883 377.240,295.200 376.800 C 295.517 376.360,296.097 376.000,296.488 376.000 C 296.880 376.000,297.200 375.820,297.200 375.600 C 297.200 375.380,297.464 375.200,297.786 375.200 C 298.599 375.200,301.200 373.924,301.200 373.526 C 301.200 373.347,301.560 373.200,302.000 373.200 C 302.440 373.200,302.800 373.020,302.800 372.800 C 302.800 372.580,303.036 372.400,303.325 372.400 C 303.613 372.400,304.198 372.085,304.625 371.700 C 305.051 371.315,305.892 370.746,306.493 370.436 C 307.095 370.126,307.942 369.541,308.377 369.136 C 308.811 368.731,309.404 368.400,309.695 368.400 C 309.986 368.400,310.483 368.040,310.800 367.600 C 311.117 367.160,311.657 366.800,312.000 366.800 C 312.343 366.800,312.883 366.440,313.200 366.000 C 313.517 365.560,314.025 365.200,314.328 365.200 C 314.631 365.200,315.383 364.660,316.000 364.000 C 316.617 363.340,317.369 362.800,317.672 362.800 C 317.975 362.800,318.483 362.440,318.800 362.000 C 319.117 361.560,319.625 361.200,319.928 361.200 C 320.231 361.200,320.983 360.660,321.600 360.000 C 322.217 359.340,322.926 358.800,323.176 358.800 C 323.426 358.800,324.358 358.080,325.247 357.200 C 326.136 356.320,327.001 355.600,327.169 355.600 C 327.338 355.600,328.498 354.610,329.747 353.400 C 330.996 352.190,332.200 351.200,332.422 351.200 C 332.644 351.200,334.806 349.175,337.226 346.700 C 342.510 341.297,341.297 342.510,346.700 337.226 C 349.175 334.806,351.200 332.644,351.200 332.422 C 351.200 332.200,352.100 331.075,353.200 329.922 C 354.300 328.769,355.204 327.639,355.209 327.413 C 355.214 327.186,355.934 326.381,356.809 325.624 C 357.684 324.867,358.400 324.018,358.400 323.737 C 358.400 323.456,359.030 322.597,359.800 321.827 C 360.570 321.057,361.200 320.190,361.200 319.902 C 361.200 319.613,361.560 319.117,362.000 318.800 C 362.440 318.483,362.800 317.975,362.800 317.672 C 362.800 317.369,363.340 316.617,364.000 316.000 C 364.660 315.383,365.200 314.631,365.200 314.328 C 365.200 314.025,365.560 313.517,366.000 313.200 C 366.440 312.883,366.800 312.343,366.800 312.000 C 366.800 311.657,367.160 311.117,367.600 310.800 C 368.040 310.483,368.400 309.922,368.400 309.554 C 368.400 309.187,368.656 308.787,368.970 308.667 C 369.283 308.547,369.862 307.762,370.257 306.924 C 370.651 306.086,371.295 305.051,371.687 304.625 C 372.079 304.198,372.400 303.613,372.400 303.325 C 372.400 303.036,372.580 302.800,372.800 302.800 C 373.020 302.800,373.200 302.522,373.200 302.183 C 373.200 301.844,373.558 301.183,373.995 300.713 C 374.432 300.244,374.902 299.261,375.040 298.530 C 375.177 297.798,375.449 297.200,375.645 297.200 C 375.840 297.200,376.000 296.840,376.000 296.400 C 376.000 295.960,376.180 295.600,376.400 295.600 C 376.620 295.600,376.800 295.280,376.800 294.888 C 376.800 294.497,377.160 293.917,377.600 293.600 C 378.040 293.283,378.400 292.703,378.400 292.312 C 378.400 291.920,378.580 291.600,378.800 291.600 C 379.020 291.600,379.200 291.240,379.200 290.800 C 379.200 290.360,379.380 290.000,379.600 290.000 C 379.820 290.000,380.000 289.730,380.000 289.400 C 380.000 289.070,380.180 288.800,380.400 288.800 C 380.620 288.800,380.800 288.451,380.800 288.024 C 380.800 287.597,380.980 287.136,381.200 287.000 C 381.420 286.864,381.600 286.313,381.600 285.776 C 381.600 285.239,381.780 284.800,382.000 284.800 C 382.220 284.800,382.400 284.440,382.400 284.000 C 382.400 283.560,382.580 283.200,382.800 283.200 C 383.020 283.200,383.200 282.840,383.200 282.400 C 383.200 281.960,383.380 281.600,383.600 281.600 C 383.820 281.600,384.000 281.240,384.000 280.800 C 384.000 280.360,384.180 280.000,384.400 280.000 C 384.620 280.000,384.800 279.460,384.800 278.800 C 384.800 278.140,384.980 277.600,385.200 277.600 C 385.420 277.600,385.600 277.240,385.600 276.800 C 385.600 276.360,385.780 276.000,386.000 276.000 C 386.220 276.000,386.400 275.728,386.400 275.395 C 386.400 275.062,386.580 274.432,386.800 273.995 C 387.020 273.558,387.380 272.842,387.600 272.405 C 387.820 271.968,388.000 271.344,388.000 271.018 C 388.000 270.691,388.360 269.783,388.800 269.000 C 389.240 268.217,389.600 267.232,389.600 266.811 C 389.600 266.391,389.780 265.936,390.000 265.800 C 390.220 265.664,390.400 265.124,390.400 264.600 C 390.400 264.076,390.572 263.541,390.782 263.411 C 390.991 263.282,391.285 262.101,391.433 260.788 C 391.582 259.475,391.860 258.400,392.052 258.400 C 392.243 258.400,392.400 257.860,392.400 257.200 C 392.400 256.540,392.580 256.000,392.800 256.000 C 393.020 256.000,393.200 255.280,393.200 254.400 C 393.200 253.520,393.380 252.800,393.600 252.800 C 393.820 252.800,394.000 252.260,394.000 251.600 C 394.000 250.940,394.180 250.400,394.400 250.400 C 394.620 250.400,394.800 249.680,394.800 248.800 C 394.800 247.920,394.980 247.200,395.200 247.200 C 395.420 247.200,395.600 246.300,395.600 245.200 C 395.600 244.100,395.780 243.200,396.000 243.200 C 396.220 243.200,396.400 242.390,396.400 241.400 C 396.400 240.410,396.580 239.600,396.800 239.600 C 397.020 239.600,397.200 238.700,397.200 237.600 C 397.200 236.500,397.380 235.600,397.600 235.600 C 397.822 235.600,398.000 234.533,398.000 233.200 C 398.000 231.867,398.178 230.800,398.400 230.800 C 398.628 230.800,398.800 229.611,398.800 228.033 C 398.800 226.176,398.964 225.212,399.300 225.100 C 399.693 224.969,399.800 219.591,399.800 200.000 C 399.800 180.409,399.693 175.031,399.300 174.900 C 398.964 174.788,398.800 173.824,398.800 171.967 C 398.800 170.389,398.628 169.200,398.400 169.200 C 398.178 169.200,398.000 168.133,398.000 166.800 C 398.000 165.467,397.822 164.400,397.600 164.400 C 397.380 164.400,397.200 163.421,397.200 162.224 C 397.200 161.027,397.020 159.936,396.800 159.800 C 396.580 159.664,396.400 158.933,396.400 158.176 C 396.400 157.419,396.220 156.800,396.000 156.800 C 395.780 156.800,395.600 155.900,395.600 154.800 C 395.600 153.700,395.420 152.800,395.200 152.800 C 394.980 152.800,394.800 152.080,394.800 151.200 C 394.800 150.320,394.620 149.600,394.400 149.600 C 394.180 149.600,394.000 148.880,394.000 148.000 C 394.000 147.120,393.820 146.400,393.600 146.400 C 393.380 146.400,393.200 145.860,393.200 145.200 C 393.200 144.540,393.020 144.000,392.800 144.000 C 392.580 144.000,392.400 143.370,392.400 142.600 C 392.400 141.830,392.220 141.200,392.000 141.200 C 391.780 141.200,391.600 140.811,391.600 140.335 C 391.600 139.376,390.514 135.391,389.957 134.305 C 389.760 133.923,389.600 133.259,389.600 132.829 C 389.600 132.399,389.420 131.936,389.200 131.800 C 388.980 131.664,388.800 131.203,388.800 130.776 C 388.800 130.349,388.620 130.000,388.400 130.000 C 388.180 130.000,388.000 129.561,388.000 129.024 C 388.000 128.487,387.820 127.936,387.600 127.800 C 387.380 127.664,387.200 127.113,387.200 126.576 C 387.200 126.039,387.020 125.600,386.800 125.600 C 386.580 125.600,386.400 125.240,386.400 124.800 C 386.400 124.360,386.220 124.000,386.000 124.000 C 385.780 124.000,385.600 123.460,385.600 122.800 C 385.600 122.140,385.420 121.600,385.200 121.600 C 384.980 121.600,384.800 121.240,384.800 120.800 C 384.800 120.360,384.620 120.000,384.400 120.000 C 384.180 120.000,384.000 119.640,384.000 119.200 C 384.000 118.760,383.820 118.400,383.600 118.400 C 383.380 118.400,383.200 118.040,383.200 117.600 C 383.200 117.160,383.020 116.800,382.800 116.800 C 382.580 116.800,382.400 116.260,382.400 115.600 C 382.400 114.940,382.220 114.400,382.000 114.400 C 381.780 114.400,381.600 114.040,381.600 113.600 C 381.600 113.160,381.420 112.800,381.200 112.800 C 380.980 112.800,380.800 112.530,380.800 112.200 C 380.800 111.870,380.620 111.600,380.400 111.600 C 380.180 111.600,380.000 111.366,380.000 111.080 C 380.000 110.344,379.059 108.407,378.700 108.403 C 378.535 108.401,378.400 108.040,378.400 107.600 C 378.400 107.160,378.220 106.800,378.000 106.800 C 377.780 106.800,377.600 106.480,377.600 106.088 C 377.600 105.697,377.240 105.117,376.800 104.800 C 376.360 104.483,376.000 103.903,376.000 103.512 C 376.000 103.120,375.820 102.800,375.600 102.800 C 375.380 102.800,375.200 102.536,375.200 102.214 C 375.200 101.401,373.924 98.800,373.526 98.800 C 373.347 98.800,373.200 98.440,373.200 98.000 C 373.200 97.560,373.020 97.200,372.800 97.200 C 372.580 97.200,372.400 96.964,372.400 96.675 C 372.400 96.387,372.085 95.802,371.700 95.375 C 371.315 94.949,370.731 94.060,370.403 93.400 C 370.074 92.740,369.489 91.909,369.103 91.553 C 368.716 91.197,368.400 90.652,368.400 90.341 C 368.400 90.031,368.040 89.517,367.600 89.200 C 367.160 88.883,366.800 88.343,366.800 88.000 C 366.800 87.657,366.440 87.117,366.000 86.800 C 365.560 86.483,365.200 85.975,365.200 85.672 C 365.200 85.369,364.660 84.617,364.000 84.000 C 363.340 83.383,362.800 82.631,362.800 82.328 C 362.800 82.025,362.440 81.517,362.000 81.200 C 361.560 80.883,361.200 80.375,361.200 80.072 C 361.200 79.769,360.660 79.017,360.000 78.400 C 359.340 77.783,358.800 77.096,358.800 76.872 C 358.800 76.648,358.080 75.716,357.200 74.800 C 356.320 73.884,355.600 72.973,355.600 72.776 C 355.600 72.579,354.610 71.427,353.400 70.217 C 352.190 69.007,351.200 67.822,351.200 67.583 C 351.200 67.344,349.175 65.181,346.700 62.776 C 344.225 60.372,342.071 58.268,341.914 58.102 C 337.870 53.838,332.729 48.800,332.422 48.800 C 332.200 48.800,331.075 47.900,329.922 46.800 C 328.769 45.700,327.638 44.800,327.409 44.800 C 327.180 44.800,326.454 44.174,325.796 43.409 C 325.138 42.643,324.397 42.013,324.148 42.009 C 323.900 42.004,322.955 41.280,322.048 40.400 C 321.141 39.520,320.169 38.800,319.888 38.800 C 319.607 38.800,319.117 38.440,318.800 38.000 C 318.483 37.560,317.975 37.200,317.672 37.200 C 317.369 37.200,316.617 36.660,316.000 36.000 C 315.383 35.340,314.631 34.800,314.328 34.800 C 314.025 34.800,313.517 34.440,313.200 34.000 C 312.883 33.560,312.343 33.200,312.000 33.200 C 311.657 33.200,311.117 32.840,310.800 32.400 C 310.483 31.960,309.922 31.600,309.554 31.600 C 309.187 31.600,308.785 31.339,308.663 31.019 C 308.540 30.700,307.650 30.078,306.685 29.639 C 305.720 29.199,304.699 28.561,304.416 28.220 C 304.134 27.879,303.654 27.600,303.351 27.600 C 303.048 27.600,302.800 27.420,302.800 27.200 C 302.800 26.980,302.440 26.800,302.000 26.800 C 301.560 26.800,301.200 26.590,301.200 26.333 C 301.200 26.077,301.089 25.978,300.952 26.114 C 300.816 26.250,300.434 26.092,300.104 25.761 C 299.774 25.431,298.985 25.057,298.352 24.930 C 297.718 24.804,297.200 24.543,297.200 24.350 C 297.200 24.157,296.840 24.000,296.400 24.000 C 295.960 24.000,295.600 23.820,295.600 23.600 C 295.600 23.380,295.280 23.200,294.888 23.200 C 294.497 23.200,293.917 22.840,293.600 22.400 C 293.283 21.960,292.703 21.600,292.312 21.600 C 291.920 21.600,291.600 21.454,291.600 21.275 C 291.600 21.096,290.970 20.702,290.200 20.400 C 289.430 20.098,288.800 19.704,288.800 19.525 C 288.800 19.346,288.440 19.200,288.000 19.200 C 287.560 19.200,287.200 19.020,287.200 18.800 C 287.200 18.580,286.660 18.400,286.000 18.400 C 285.340 18.400,284.800 18.220,284.800 18.000 C 284.800 17.780,284.440 17.600,284.000 17.600 C 283.560 17.600,283.200 17.420,283.200 17.200 C 283.200 16.980,282.840 16.800,282.400 16.800 C 281.960 16.800,281.600 16.620,281.600 16.400 C 281.600 16.180,281.240 16.000,280.800 16.000 C 280.360 16.000,280.000 15.820,280.000 15.600 C 280.000 15.380,279.460 15.200,278.800 15.200 C 278.140 15.200,277.600 15.020,277.600 14.800 C 277.600 14.580,277.240 14.400,276.800 14.400 C 276.360 14.400,276.000 14.220,276.000 14.000 C 276.000 13.780,275.640 13.600,275.200 13.600 C 274.760 13.600,274.400 13.420,274.400 13.200 C 274.400 12.980,273.961 12.800,273.424 12.800 C 272.887 12.800,272.336 12.620,272.200 12.400 C 272.064 12.180,271.620 12.000,271.214 12.000 C 270.808 12.000,269.784 11.659,268.938 11.242 C 268.092 10.826,266.590 10.254,265.600 9.972 C 264.610 9.689,263.620 9.360,263.400 9.240 C 262.890 8.963,262.211 8.816,260.100 8.528 C 259.165 8.400,258.400 8.139,258.400 7.948 C 258.400 7.757,257.860 7.600,257.200 7.600 C 256.540 7.600,256.000 7.420,256.000 7.200 C 256.000 6.980,255.280 6.800,254.400 6.800 C 253.520 6.800,252.800 6.620,252.800 6.400 C 252.800 6.180,252.260 6.000,251.600 6.000 C 250.940 6.000,250.400 5.820,250.400 5.600 C 250.400 5.380,249.680 5.200,248.800 5.200 C 247.920 5.200,247.200 5.020,247.200 4.800 C 247.200 4.580,246.300 4.400,245.200 4.400 C 244.100 4.400,243.200 4.220,243.200 4.000 C 243.200 3.780,242.401 3.600,241.424 3.600 C 240.447 3.600,239.536 3.420,239.400 3.200 C 239.264 2.980,238.353 2.800,237.376 2.800 C 236.399 2.800,235.600 2.620,235.600 2.400 C 235.600 2.178,234.533 2.000,233.200 2.000 C 231.867 2.000,230.800 1.822,230.800 1.600 C 230.800 1.372,229.611 1.200,228.033 1.200 C 226.238 1.200,225.211 1.032,225.107 0.720 C 224.948 0.244,188.291 -0.109,178.700 0.273 M203.439 63.078 C 204.958 65.431,206.273 67.546,206.363 67.778 C 206.453 68.010,207.758 70.039,209.263 72.287 C 210.768 74.534,212.000 76.471,212.000 76.591 C 212.000 76.710,212.590 77.661,213.311 78.704 C 214.032 79.747,216.217 83.120,218.165 86.200 C 220.113 89.280,223.033 93.824,224.654 96.297 C 226.274 98.771,227.600 100.976,227.600 101.197 C 227.600 101.419,227.780 101.600,228.000 101.600 C 228.220 101.600,228.400 101.769,228.400 101.976 C 228.400 102.183,230.470 105.512,233.000 109.374 C 235.530 113.236,237.600 116.577,237.600 116.798 C 237.600 117.019,237.780 117.200,238.000 117.200 C 238.220 117.200,238.400 117.368,238.400 117.573 C 238.400 117.779,239.660 119.848,241.200 122.172 C 242.740 124.496,244.000 126.578,244.000 126.799 C 244.000 127.019,244.150 127.200,244.332 127.200 C 244.515 127.200,244.920 127.695,245.232 128.300 C 245.544 128.905,247.644 132.242,249.899 135.715 C 252.155 139.188,254.000 142.101,254.000 142.188 C 254.000 142.275,255.260 144.248,256.800 146.572 C 258.340 148.896,259.600 150.978,259.600 151.199 C 259.600 151.419,259.780 151.600,260.000 151.600 C 260.220 151.600,260.400 151.836,260.400 152.125 C 260.400 152.413,260.760 153.036,261.200 153.508 C 261.640 153.980,262.000 154.455,262.000 154.563 C 262.000 154.756,268.159 164.364,269.642 166.484 C 270.701 167.998,270.595 168.552,269.100 169.317 C 268.385 169.682,266.990 170.461,266.000 171.047 C 264.132 172.154,262.656 173.004,260.100 174.447 C 259.275 174.913,258.150 175.604,257.600 175.984 C 257.050 176.364,256.015 176.927,255.300 177.235 C 254.585 177.543,254.000 177.910,254.000 178.051 C 254.000 178.192,253.685 178.410,253.300 178.536 C 252.915 178.662,251.700 179.312,250.600 179.980 C 249.500 180.648,247.160 182.020,245.400 183.028 C 243.640 184.035,241.120 185.498,239.800 186.278 C 236.343 188.319,233.651 189.872,230.500 191.643 C 229.675 192.106,228.820 192.627,228.600 192.800 C 228.380 192.973,227.525 193.494,226.700 193.957 C 222.767 196.167,222.129 196.544,221.138 197.247 C 220.554 197.661,219.985 198.000,219.873 198.000 C 219.761 198.000,217.033 199.530,213.812 201.400 C 210.590 203.270,207.784 204.800,207.577 204.800 C 207.370 204.800,207.200 204.968,207.200 205.173 C 207.200 205.378,206.870 205.651,206.467 205.779 C 206.064 205.907,204.742 206.609,203.529 207.339 C 199.854 209.552,200.513 209.714,191.600 204.400 C 189.407 203.092,188.744 202.709,184.200 200.121 C 182.880 199.370,181.080 198.311,180.200 197.769 C 179.320 197.227,178.330 196.665,178.000 196.521 C 177.670 196.376,177.310 196.155,177.200 196.029 C 177.090 195.903,176.570 195.558,176.045 195.262 C 172.154 193.071,170.048 191.861,168.000 190.639 C 167.010 190.048,165.885 189.462,165.500 189.336 C 165.115 189.210,164.800 188.948,164.800 188.753 C 164.800 188.559,164.636 188.400,164.435 188.400 C 164.234 188.400,160.439 186.285,156.003 183.700 C 151.566 181.115,147.006 178.476,145.868 177.836 C 144.731 177.195,143.710 176.565,143.600 176.435 C 143.490 176.305,142.860 175.935,142.200 175.614 C 141.540 175.292,140.550 174.728,140.000 174.361 C 138.927 173.645,137.213 172.662,131.478 169.474 C 129.257 168.240,128.603 169.568,140.571 151.000 C 142.131 148.580,143.661 146.105,143.971 145.500 C 144.281 144.895,144.685 144.400,144.868 144.400 C 145.050 144.400,145.200 144.213,145.200 143.985 C 145.200 143.756,146.280 141.963,147.600 140.000 C 148.920 138.037,150.000 136.336,150.000 136.220 C 150.000 136.104,151.228 134.162,152.728 131.905 C 158.385 123.395,160.800 119.594,160.800 119.203 C 160.800 118.981,160.947 118.800,161.126 118.800 C 161.305 118.800,161.821 118.125,162.271 117.300 C 163.062 115.854,171.245 102.961,175.119 97.059 C 176.153 95.482,177.255 93.699,177.568 93.096 C 177.880 92.493,178.285 92.000,178.468 92.000 C 178.650 92.000,178.800 91.828,178.800 91.618 C 178.800 91.208,182.508 85.352,190.526 73.103 C 192.217 70.519,193.600 68.308,193.600 68.190 C 193.600 67.822,199.304 59.418,199.765 59.106 C 200.517 58.598,200.619 58.707,203.439 63.078 M197.800 91.101 C 196.700 92.805,195.727 94.380,195.638 94.600 C 195.549 94.820,194.604 96.297,193.538 97.882 C 192.472 99.467,191.600 100.870,191.600 100.999 C 191.600 101.128,191.269 101.589,190.864 102.023 C 190.459 102.458,189.875 103.305,189.566 103.907 C 189.257 104.508,187.473 107.371,185.602 110.269 C 183.731 113.167,181.708 116.317,181.108 117.269 C 179.629 119.612,179.399 119.966,176.300 124.673 C 174.815 126.928,173.600 128.867,173.600 128.981 C 173.600 129.096,172.041 131.577,170.135 134.495 C 168.230 137.413,166.100 140.700,165.401 141.800 C 164.703 142.900,162.752 145.914,161.066 148.497 C 159.380 151.081,158.000 153.376,158.000 153.597 C 158.000 153.819,157.820 154.000,157.600 154.000 C 157.380 154.000,157.200 154.187,157.200 154.415 C 157.200 154.644,156.113 156.447,154.784 158.423 C 151.572 163.201,151.600 162.869,154.282 164.346 C 155.557 165.048,156.870 165.795,157.200 166.006 C 157.971 166.497,169.236 172.988,171.600 174.303 C 172.590 174.853,173.670 175.513,174.000 175.769 C 174.330 176.025,175.140 176.490,175.800 176.803 C 176.460 177.115,177.450 177.672,178.000 178.039 C 178.550 178.406,179.630 179.064,180.400 179.501 C 181.170 179.938,185.731 182.569,190.535 185.348 C 199.653 190.621,200.642 190.975,202.400 189.600 C 202.950 189.170,203.511 188.814,203.647 188.809 C 203.783 188.804,206.011 187.533,208.598 185.985 C 211.185 184.436,214.043 182.752,214.951 182.241 C 215.858 181.731,217.275 180.928,218.100 180.457 C 219.763 179.507,221.789 178.358,223.245 177.538 C 223.770 177.242,224.290 176.910,224.400 176.799 C 224.510 176.689,225.140 176.329,225.800 176.000 C 226.460 175.671,227.090 175.311,227.200 175.201 C 227.394 175.006,227.713 174.819,230.755 173.116 C 231.550 172.670,232.678 171.967,233.262 171.553 C 233.846 171.139,234.420 170.800,234.539 170.800 C 234.657 170.800,236.789 169.605,239.277 168.144 C 241.765 166.684,244.695 164.989,245.788 164.380 C 248.428 162.907,248.429 162.864,245.842 158.977 C 244.609 157.124,243.600 155.426,243.600 155.204 C 243.600 154.982,243.450 154.800,243.268 154.800 C 243.085 154.800,242.682 154.305,242.373 153.700 C 241.825 152.627,238.197 146.967,233.520 139.889 C 232.244 137.958,231.200 136.285,231.200 136.171 C 231.200 136.057,230.300 134.630,229.200 133.000 C 228.100 131.370,227.200 129.848,227.200 129.618 C 227.200 129.388,227.020 129.200,226.800 129.200 C 226.580 129.200,226.400 128.930,226.400 128.600 C 226.400 128.270,226.220 128.000,226.000 128.000 C 225.780 128.000,225.600 127.812,225.600 127.583 C 225.600 127.354,225.414 126.949,225.187 126.683 C 224.959 126.417,222.779 123.050,220.341 119.200 C 217.904 115.350,214.940 110.717,213.755 108.904 C 212.570 107.091,211.600 105.426,211.600 105.204 C 211.600 104.982,211.465 104.800,211.299 104.800 C 211.134 104.800,210.569 103.990,210.044 103.000 C 209.519 102.010,208.934 101.200,208.744 101.200 C 208.555 101.200,208.400 101.018,208.400 100.796 C 208.400 100.190,200.425 87.999,200.029 88.001 C 199.903 88.001,198.900 89.396,197.800 91.101 M120.449 186.300 C 121.386 186.985,121.817 187.244,124.755 188.880 C 125.550 189.323,126.380 189.827,126.600 190.000 C 126.820 190.173,127.675 190.694,128.500 191.157 C 129.325 191.621,130.630 192.360,131.400 192.800 C 132.170 193.240,133.430 193.960,134.200 194.400 C 137.704 196.402,138.331 196.766,140.400 198.000 C 141.610 198.721,143.230 199.664,144.000 200.094 C 145.408 200.881,153.549 205.645,155.535 206.843 C 156.758 207.582,159.506 209.157,163.245 211.262 C 163.770 211.558,164.290 211.890,164.400 212.001 C 164.510 212.111,165.138 212.471,165.795 212.801 C 166.452 213.130,168.072 214.048,169.395 214.839 C 172.289 216.571,182.534 222.496,186.700 224.846 C 187.525 225.312,188.290 225.807,188.400 225.946 C 188.510 226.086,189.320 226.579,190.200 227.043 C 191.080 227.507,193.545 228.902,195.679 230.143 C 200.143 232.740,199.921 232.695,202.123 231.457 C 203.045 230.938,204.520 230.108,205.400 229.614 C 206.280 229.119,207.180 228.573,207.400 228.400 C 207.620 228.227,208.475 227.706,209.300 227.243 C 210.125 226.779,211.475 226.021,212.300 225.557 C 213.125 225.094,213.980 224.573,214.200 224.400 C 214.420 224.227,215.275 223.706,216.100 223.243 C 216.925 222.779,218.275 222.015,219.100 221.543 C 219.925 221.072,221.401 220.237,222.379 219.686 C 223.357 219.136,225.067 218.147,226.179 217.487 C 228.055 216.375,229.209 215.709,231.645 214.338 C 232.170 214.042,232.690 213.710,232.800 213.600 C 232.910 213.490,233.430 213.158,233.955 212.862 C 237.797 210.699,239.867 209.509,242.318 208.056 C 243.482 207.365,244.530 206.800,244.646 206.800 C 244.761 206.800,245.641 206.260,246.600 205.600 C 247.559 204.940,248.423 204.400,248.520 204.400 C 248.682 204.400,254.423 201.090,259.518 198.060 C 260.682 197.367,261.807 196.800,262.018 196.800 C 262.228 196.800,262.401 196.665,262.403 196.500 C 262.405 196.335,262.810 196.002,263.303 195.760 C 265.711 194.578,267.813 193.370,267.933 193.100 C 268.007 192.935,268.213 192.800,268.392 192.800 C 268.572 192.800,269.903 192.080,271.352 191.200 C 272.800 190.320,274.066 189.600,274.163 189.600 C 274.261 189.600,275.808 188.700,277.600 187.600 C 279.392 186.500,281.071 185.604,281.329 185.608 C 281.787 185.615,284.901 190.357,286.841 194.000 C 287.369 194.990,287.891 195.890,288.002 196.000 C 288.220 196.215,290.160 200.208,291.548 203.296 C 292.017 204.338,292.400 205.448,292.400 205.762 C 292.400 206.076,292.539 206.393,292.709 206.467 C 292.966 206.578,293.944 209.402,296.010 216.000 C 296.183 216.550,296.532 217.900,296.787 219.000 C 297.042 220.100,297.409 221.630,297.602 222.400 C 298.002 223.993,298.631 228.225,299.207 233.190 C 300.316 242.754,299.066 258.109,296.430 267.300 C 296.194 268.125,295.842 269.385,295.648 270.100 C 295.091 272.158,293.209 277.674,292.576 279.100 C 292.259 279.815,291.713 281.075,291.362 281.900 C 289.047 287.349,284.644 295.169,281.058 300.200 C 275.685 307.741,266.138 317.433,259.600 321.986 C 258.830 322.523,258.110 323.072,258.000 323.207 C 257.565 323.742,254.030 326.000,253.628 326.000 C 253.393 326.000,253.200 326.180,253.200 326.400 C 253.200 326.620,253.003 326.800,252.762 326.800 C 252.521 326.800,251.810 327.165,251.183 327.612 C 247.820 330.007,238.863 334.168,232.400 336.338 C 226.599 338.286,226.206 338.400,225.295 338.400 C 224.829 338.400,224.348 338.561,224.226 338.758 C 224.105 338.955,223.329 339.215,222.503 339.337 C 221.676 339.459,220.010 339.751,218.800 339.985 C 213.234 341.060,209.503 341.338,200.200 341.368 C 189.830 341.401,184.757 340.910,177.600 339.178 C 176.610 338.938,175.213 338.645,174.496 338.527 C 173.779 338.408,173.094 338.151,172.973 337.956 C 172.852 337.760,172.358 337.599,171.876 337.598 C 168.625 337.591,147.679 328.129,146.867 326.300 C 146.793 326.135,146.506 326.000,146.229 326.000 C 145.951 326.000,145.398 325.640,145.000 325.200 C 144.602 324.760,144.079 324.397,143.838 324.393 C 143.597 324.389,142.860 323.953,142.200 323.424 C 141.540 322.895,139.560 321.339,137.800 319.965 C 118.550 304.938,105.024 281.134,101.339 255.800 C 99.247 241.410,101.584 219.859,106.480 208.400 C 106.715 207.850,107.063 206.995,107.254 206.500 C 107.444 206.005,107.757 205.195,107.950 204.700 C 108.774 202.578,113.751 192.784,115.217 190.400 C 118.389 185.242,118.686 185.010,120.449 186.300 " stroke="none" fill="#f49c8c" fill-rule="evenodd"></path><path id="path2" d="M124.800 307.325 C 124.800 307.394,125.385 307.979,126.100 308.625 L 127.400 309.800 126.225 308.500 C 125.130 307.288,124.800 307.016,124.800 307.325 M195.105 341.483 C 195.602 341.579,196.322 341.575,196.705 341.475 C 197.087 341.375,196.680 341.296,195.800 341.301 C 194.920 341.305,194.607 341.387,195.105 341.483 M203.505 341.483 C 204.002 341.579,204.722 341.575,205.105 341.475 C 205.487 341.375,205.080 341.296,204.200 341.301 C 203.320 341.305,203.007 341.387,203.505 341.483 " stroke="none" fill="#fcccc4" fill-rule="evenodd"></path><path id="path3" d="M200.558 59.455 C 200.903 59.865,201.475 60.560,201.831 61.000 C 202.186 61.440,202.109 61.173,201.659 60.407 C 201.209 59.641,200.636 58.945,200.386 58.862 C 200.136 58.779,200.213 59.046,200.558 59.455 M204.446 65.300 C 205.037 66.423,206.400 68.199,206.400 67.845 C 206.400 67.515,204.350 64.400,204.133 64.400 C 204.044 64.400,204.185 64.805,204.446 65.300 M194.653 66.391 C 194.074 67.267,193.600 68.117,193.600 68.280 C 193.600 68.444,193.842 68.223,194.139 67.789 C 195.441 65.881,196.078 64.800,195.899 64.800 C 195.793 64.800,195.232 65.516,194.653 66.391 M189.921 73.900 C 187.779 77.160,187.515 77.600,187.701 77.600 C 187.876 77.600,188.441 76.795,190.578 73.500 C 190.971 72.895,191.205 72.400,191.099 72.400 C 190.993 72.400,190.463 73.075,189.921 73.900 M210.215 74.300 C 211.556 76.385,212.000 76.977,212.000 76.680 C 212.000 76.296,209.955 73.200,209.701 73.200 C 209.595 73.200,209.826 73.695,210.215 74.300 M214.411 80.800 C 215.128 82.181,217.676 86.000,217.880 86.000 C 218.073 86.000,217.964 85.812,215.912 82.625 C 214.227 80.007,213.610 79.257,214.411 80.800 M184.092 82.935 C 183.659 83.669,182.989 84.794,182.605 85.435 L 181.905 86.600 182.733 85.600 C 183.679 84.457,185.344 81.600,185.065 81.600 C 184.963 81.600,184.525 82.201,184.092 82.935 M199.353 88.100 C 197.978 90.432,197.886 90.635,198.585 89.800 C 198.953 89.360,199.427 88.730,199.637 88.400 C 199.966 87.885,200.100 87.913,200.592 88.600 C 202.027 90.604,202.370 90.863,201.522 89.303 C 200.587 87.582,199.887 87.194,199.353 88.100 M177.669 92.839 C 176.910 94.054,177.366 94.216,178.155 93.012 C 178.520 92.456,178.678 92.000,178.505 92.000 C 178.333 92.000,177.957 92.378,177.669 92.839 M204.609 94.626 C 204.981 95.301,205.641 96.291,206.076 96.826 L 206.867 97.800 206.191 96.574 C 205.819 95.899,205.159 94.909,204.724 94.374 L 203.933 93.400 204.609 94.626 M194.824 95.318 C 194.523 95.803,194.015 96.605,193.693 97.100 C 193.371 97.595,193.195 98.000,193.301 98.000 C 193.583 98.000,195.686 94.753,195.515 94.581 C 195.435 94.502,195.124 94.833,194.824 95.318 M225.077 97.631 C 225.475 98.308,226.056 99.073,226.368 99.331 C 226.680 99.589,226.432 99.035,225.815 98.100 C 224.520 96.137,224.009 95.812,225.077 97.631 M173.046 100.200 C 172.691 100.750,172.109 101.695,171.753 102.300 L 171.105 103.400 171.910 102.426 C 172.860 101.276,174.121 99.200,173.869 99.200 C 173.771 99.200,173.401 99.650,173.046 100.200 M188.186 105.700 L 187.552 107.000 188.367 106.000 C 189.152 105.037,189.408 104.400,189.010 104.400 C 188.906 104.400,188.535 104.985,188.186 105.700 M231.422 107.500 C 233.559 110.795,234.124 111.600,234.299 111.600 C 234.405 111.600,234.171 111.105,233.778 110.500 C 231.641 107.205,231.076 106.400,230.901 106.400 C 230.795 106.400,231.029 106.895,231.422 107.500 M168.024 108.118 C 167.723 108.603,167.215 109.405,166.893 109.900 C 166.571 110.395,166.395 110.800,166.501 110.800 C 166.783 110.800,168.886 107.553,168.715 107.381 C 168.635 107.302,168.324 107.633,168.024 108.118 M184.585 111.300 C 183.968 112.235,183.720 112.789,184.032 112.531 C 184.633 112.034,186.164 109.600,185.876 109.600 C 185.783 109.600,185.202 110.365,184.585 111.300 M216.215 112.700 C 217.556 114.785,218.000 115.377,218.000 115.080 C 218.000 114.696,215.955 111.600,215.701 111.600 C 215.595 111.600,215.826 112.095,216.215 112.700 M181.977 115.300 C 181.267 116.455,180.421 117.805,180.097 118.300 C 179.773 118.795,179.616 119.200,179.749 119.200 C 179.882 119.200,180.408 118.525,180.919 117.700 C 183.109 114.162,183.654 113.200,183.467 113.200 C 183.358 113.200,182.687 114.145,181.977 115.300 M221.009 120.226 C 221.381 120.901,222.041 121.891,222.476 122.426 L 223.267 123.400 222.591 122.174 C 222.219 121.499,221.559 120.509,221.124 119.974 L 220.333 119.000 221.009 120.226 M178.424 120.918 C 178.123 121.403,177.615 122.205,177.293 122.700 C 176.971 123.195,176.795 123.600,176.901 123.600 C 177.183 123.600,179.286 120.353,179.115 120.181 C 179.035 120.102,178.724 120.433,178.424 120.918 M247.809 133.026 C 248.181 133.701,248.841 134.691,249.276 135.226 L 250.067 136.200 249.391 134.974 C 249.019 134.299,248.359 133.309,247.924 132.774 L 247.133 131.800 247.809 133.026 M150.827 134.762 C 149.876 136.098,149.714 137.004,150.642 135.800 C 151.448 134.754,152.077 133.600,151.841 133.600 C 151.739 133.600,151.282 134.123,150.827 134.762 M231.285 136.200 C 231.460 136.805,234.041 140.800,234.257 140.800 C 234.474 140.800,232.940 138.190,231.885 136.766 C 231.491 136.235,231.221 135.980,231.285 136.200 M166.200 140.000 C 165.859 140.660,165.669 141.200,165.779 141.200 C 165.889 141.200,166.259 140.660,166.600 140.000 C 166.941 139.340,167.131 138.800,167.021 138.800 C 166.911 138.800,166.541 139.340,166.200 140.000 M146.253 141.991 C 145.253 143.502,144.815 144.596,145.536 143.780 C 146.092 143.152,147.679 140.400,147.486 140.400 C 147.387 140.400,146.832 141.116,146.253 141.991 M236.622 144.700 C 238.759 147.995,239.324 148.800,239.499 148.800 C 239.605 148.800,239.371 148.305,238.978 147.700 C 236.841 144.405,236.276 143.600,236.101 143.600 C 235.995 143.600,236.229 144.095,236.622 144.700 M162.721 145.500 C 160.579 148.760,160.315 149.200,160.501 149.200 C 160.676 149.200,161.241 148.395,163.378 145.100 C 163.771 144.495,164.005 144.000,163.899 144.000 C 163.793 144.000,163.263 144.675,162.721 145.500 M144.069 145.239 C 143.310 146.454,143.766 146.616,144.555 145.412 C 144.920 144.856,145.078 144.400,144.905 144.400 C 144.733 144.400,144.357 144.778,144.069 145.239 M258.360 149.400 C 259.034 150.705,259.588 151.428,259.585 151.000 C 259.583 150.780,259.214 150.150,258.764 149.600 C 258.221 148.936,258.085 148.869,258.360 149.400 M141.046 150.200 C 140.691 150.750,140.109 151.695,139.753 152.300 L 139.105 153.400 139.910 152.426 C 140.860 151.276,142.121 149.200,141.869 149.200 C 141.771 149.200,141.401 149.650,141.046 150.200 M242.025 153.000 C 242.025 153.220,242.290 153.749,242.613 154.176 C 242.936 154.604,243.200 154.773,243.200 154.553 C 243.200 154.333,242.936 153.804,242.613 153.376 C 242.290 152.949,242.025 152.780,242.025 153.000 M156.164 155.729 C 155.709 156.428,155.015 157.495,154.622 158.100 C 154.229 158.705,153.993 159.200,154.097 159.200 C 154.366 159.200,157.286 154.753,157.124 154.591 C 157.051 154.517,156.618 155.029,156.164 155.729 M135.921 158.300 C 133.779 161.560,133.515 162.000,133.701 162.000 C 133.876 162.000,134.441 161.195,136.578 157.900 C 136.971 157.295,137.205 156.800,137.099 156.800 C 136.993 156.800,136.463 157.475,135.921 158.300 M265.009 159.826 C 265.381 160.501,266.041 161.491,266.476 162.026 L 267.267 163.000 266.591 161.774 C 266.219 161.099,265.559 160.109,265.124 159.574 L 264.333 158.600 265.009 159.826 M247.841 162.158 C 248.039 162.677,247.889 163.101,247.365 163.504 C 246.944 163.827,246.857 164.015,247.171 163.922 C 248.145 163.633,248.653 162.492,248.067 161.911 C 247.649 161.495,247.606 161.541,247.841 162.158 M268.800 165.897 C 268.800 166.120,269.070 166.526,269.400 166.800 C 270.244 167.500,270.147 168.197,269.100 168.948 C 268.213 169.584,268.215 169.587,269.300 169.133 C 270.606 168.585,270.685 167.889,269.600 166.509 C 269.160 165.950,268.800 165.674,268.800 165.897 M130.800 168.979 C 130.800 169.089,131.340 169.459,132.000 169.800 C 132.660 170.141,133.200 170.331,133.200 170.221 C 133.200 170.111,132.660 169.741,132.000 169.400 C 131.340 169.059,130.800 168.869,130.800 168.979 M162.200 169.081 C 162.420 169.308,163.500 169.997,164.600 170.613 C 165.700 171.228,166.420 171.546,166.200 171.319 C 165.980 171.092,164.900 170.403,163.800 169.787 C 162.700 169.172,161.980 168.854,162.200 169.081 M266.600 170.400 C 265.940 170.837,265.580 171.192,265.800 171.188 C 266.201 171.182,268.376 169.623,268.000 169.612 C 267.890 169.608,267.260 169.963,266.600 170.400 M232.881 171.772 C 231.125 173.014,230.697 173.545,232.200 172.618 C 234.278 171.335,234.991 170.799,234.589 170.820 C 234.375 170.830,233.607 171.259,232.881 171.772 M167.000 171.890 C 167.220 172.100,168.120 172.676,169.000 173.170 C 169.880 173.665,170.240 173.770,169.800 173.404 C 168.906 172.661,166.372 171.291,167.000 171.890 M257.100 175.829 C 256.495 176.157,256.000 176.510,256.000 176.613 C 256.000 176.999,256.632 176.757,257.600 176.000 C 258.789 175.070,258.611 175.009,257.100 175.829 M147.600 178.615 C 147.600 178.813,149.631 180.097,152.600 181.775 C 153.700 182.397,154.420 182.720,154.200 182.492 C 153.683 181.958,147.600 178.383,147.600 178.615 M247.500 181.429 C 246.005 182.240,246.096 182.578,247.600 181.800 C 248.260 181.459,248.800 181.094,248.800 180.990 C 248.800 180.732,248.757 180.747,247.500 181.429 M212.893 183.372 C 209.919 185.219,209.753 185.577,212.600 184.005 C 215.145 182.600,216.021 181.978,215.380 182.032 C 215.171 182.049,214.052 182.652,212.893 183.372 M188.800 184.579 C 188.800 184.689,189.340 185.059,190.000 185.400 C 190.660 185.741,191.200 185.931,191.200 185.821 C 191.200 185.711,190.660 185.341,190.000 185.000 C 189.340 184.659,188.800 184.469,188.800 184.579 M240.711 185.360 C 238.571 186.632,238.311 187.044,240.273 186.055 C 241.193 185.591,242.059 185.029,242.196 184.806 C 242.514 184.293,242.498 184.299,240.711 185.360 M117.471 186.900 C 116.435 188.288,115.471 190.000,115.726 190.000 C 115.811 190.000,116.440 189.100,117.124 188.000 C 118.466 185.840,118.894 185.662,120.411 186.632 L 121.400 187.264 120.456 186.432 C 119.165 185.294,118.603 185.382,117.471 186.900 M279.600 186.456 L 278.600 187.295 279.617 186.693 C 280.176 186.362,280.986 186.001,281.417 185.892 C 282.181 185.698,282.180 185.692,281.400 185.655 C 280.960 185.635,280.150 185.995,279.600 186.456 M192.400 186.764 C 192.950 187.214,193.580 187.583,193.800 187.585 C 194.228 187.588,193.505 187.034,192.200 186.360 C 191.669 186.085,191.736 186.221,192.400 186.764 M122.000 187.620 C 123.387 188.561,124.178 188.835,123.200 188.036 C 122.650 187.586,122.020 187.217,121.800 187.215 C 121.580 187.213,121.670 187.396,122.000 187.620 M283.809 189.426 C 284.181 190.101,284.841 191.091,285.276 191.626 L 286.067 192.600 285.391 191.374 C 285.019 190.699,284.359 189.709,283.924 189.174 L 283.133 188.200 283.809 189.426 M124.800 189.220 C 126.187 190.161,126.978 190.435,126.000 189.636 C 125.450 189.186,124.820 188.817,124.600 188.815 C 124.380 188.813,124.470 188.996,124.800 189.220 M166.800 189.967 C 167.763 190.752,168.400 191.008,168.400 190.610 C 168.400 190.506,167.815 190.135,167.100 189.786 L 165.800 189.152 166.800 189.967 M271.500 191.029 C 270.005 191.840,270.096 192.178,271.600 191.400 C 272.260 191.059,272.800 190.694,272.800 190.590 C 272.800 190.332,272.757 190.347,271.500 191.029 M113.814 192.635 C 113.441 193.204,113.205 193.738,113.289 193.822 C 113.373 193.907,113.758 193.441,114.144 192.788 C 115.006 191.328,114.748 191.209,113.814 192.635 M227.400 193.200 C 226.740 193.637,226.380 193.992,226.600 193.988 C 227.001 193.982,229.176 192.423,228.800 192.412 C 228.690 192.408,228.060 192.763,227.400 193.200 M224.600 194.800 C 223.940 195.237,223.580 195.592,223.800 195.588 C 224.201 195.582,226.376 194.023,226.000 194.012 C 225.890 194.008,225.260 194.363,224.600 194.800 M221.200 196.800 C 220.210 197.458,219.539 197.997,219.709 197.998 C 220.057 198.000,223.200 195.974,223.200 195.747 C 223.200 195.492,223.042 195.575,221.200 196.800 M259.100 198.229 C 257.605 199.040,257.696 199.378,259.200 198.600 C 259.860 198.259,260.400 197.894,260.400 197.790 C 260.400 197.532,260.357 197.547,259.100 198.229 M181.401 198.402 C 181.669 198.836,184.000 200.134,184.000 199.850 C 184.000 199.756,183.359 199.301,182.576 198.839 C 181.793 198.377,181.264 198.180,181.401 198.402 M184.800 200.420 C 186.187 201.361,186.978 201.635,186.000 200.836 C 185.450 200.386,184.820 200.017,184.600 200.015 C 184.380 200.013,184.470 200.196,184.800 200.420 M145.200 200.979 C 145.200 201.089,145.740 201.459,146.400 201.800 C 147.060 202.141,147.600 202.331,147.600 202.221 C 147.600 202.111,147.060 201.741,146.400 201.400 C 145.740 201.059,145.200 200.869,145.200 200.979 M213.100 201.429 C 211.605 202.240,211.696 202.578,213.200 201.800 C 213.860 201.459,214.400 201.094,214.400 200.990 C 214.400 200.732,214.357 200.747,213.100 201.429 M148.766 203.077 C 150.049 204.037,154.400 206.496,154.400 206.261 C 154.400 206.088,152.471 204.924,149.200 203.124 C 148.004 202.466,147.941 202.459,148.766 203.077 M190.000 203.379 C 190.000 203.489,190.540 203.859,191.200 204.200 C 191.860 204.541,192.400 204.731,192.400 204.621 C 192.400 204.511,191.860 204.141,191.200 203.800 C 190.540 203.459,190.000 203.269,190.000 203.379 M246.811 205.420 C 244.984 206.709,245.613 206.692,247.514 205.400 C 248.323 204.850,248.809 204.409,248.593 204.420 C 248.377 204.430,247.575 204.880,246.811 205.420 M206.000 205.620 L 205.000 206.422 206.100 205.947 C 206.705 205.685,207.200 205.320,207.200 205.136 C 207.200 204.679,207.145 204.702,206.000 205.620 M242.711 207.760 C 240.616 209.005,240.284 209.463,242.200 208.465 C 244.205 207.420,245.119 206.803,244.600 206.844 C 244.380 206.861,243.530 207.274,242.711 207.760 M106.155 209.100 C 106.034 209.485,105.770 210.213,105.567 210.719 C 105.365 211.224,105.211 211.854,105.225 212.119 C 105.239 212.383,105.438 212.150,105.666 211.600 C 106.297 210.080,106.767 208.400,106.560 208.400 C 106.458 208.400,106.276 208.715,106.155 209.100 M104.649 213.415 C 104.512 213.773,104.415 214.366,104.434 214.733 C 104.453 215.100,104.627 214.869,104.821 214.220 C 105.198 212.958,105.065 212.333,104.649 213.415 M169.200 214.979 C 169.200 215.089,169.740 215.459,170.400 215.800 C 171.060 216.141,171.600 216.331,171.600 216.221 C 171.600 216.111,171.060 215.741,170.400 215.400 C 169.740 215.059,169.200 214.869,169.200 214.979 M172.800 217.164 C 173.350 217.614,173.980 217.983,174.200 217.985 C 174.628 217.988,173.905 217.434,172.600 216.760 C 172.069 216.485,172.136 216.621,172.800 217.164 M220.400 220.836 C 219.736 221.379,219.669 221.515,220.200 221.240 C 221.505 220.566,222.228 220.012,221.800 220.015 C 221.580 220.017,220.950 220.386,220.400 220.836 M179.000 220.690 C 179.220 220.898,180.300 221.559,181.400 222.159 C 182.500 222.759,183.040 222.955,182.600 222.594 C 181.705 221.859,178.373 220.097,179.000 220.690 M217.600 222.436 C 216.936 222.979,216.869 223.115,217.400 222.840 C 218.705 222.166,219.428 221.612,219.000 221.615 C 218.780 221.617,218.150 221.986,217.600 222.436 M297.468 223.400 C 297.771 225.377,298.002 225.714,297.994 224.167 C 297.991 223.525,297.816 222.730,297.605 222.400 C 297.345 221.991,297.301 222.310,297.468 223.400 M184.000 223.620 C 185.387 224.561,186.178 224.835,185.200 224.036 C 184.650 223.586,184.020 223.217,183.800 223.215 C 183.580 223.213,183.670 223.396,184.000 223.620 M214.800 224.036 C 214.136 224.579,214.069 224.715,214.600 224.440 C 215.905 223.766,216.628 223.212,216.200 223.215 C 215.980 223.217,215.350 223.586,214.800 224.036 M102.093 224.800 C 102.093 225.570,102.175 225.885,102.276 225.500 C 102.376 225.115,102.376 224.485,102.276 224.100 C 102.175 223.715,102.093 224.030,102.093 224.800 M208.000 228.036 C 207.336 228.579,207.269 228.715,207.800 228.440 C 209.105 227.766,209.828 227.212,209.400 227.215 C 209.180 227.217,208.550 227.586,208.000 228.036 M298.509 229.600 C 298.509 230.590,298.587 230.995,298.682 230.500 C 298.778 230.005,298.778 229.195,298.682 228.700 C 298.587 228.205,298.509 228.610,298.509 229.600 M101.293 230.400 C 101.293 231.170,101.375 231.485,101.476 231.100 C 101.576 230.715,101.576 230.085,101.476 229.700 C 101.375 229.315,101.293 229.630,101.293 230.400 M298.893 232.800 C 298.893 233.570,298.975 233.885,299.076 233.500 C 299.176 233.115,299.176 232.485,299.076 232.100 C 298.975 231.715,298.893 232.030,298.893 232.800 M100.893 233.200 C 100.893 233.970,100.975 234.285,101.076 233.900 C 101.176 233.515,101.176 232.885,101.076 232.500 C 100.975 232.115,100.893 232.430,100.893 233.200 M199.062 232.500 C 199.164 232.665,199.586 232.800,200.000 232.800 C 200.414 232.800,200.836 232.665,200.938 232.500 C 201.040 232.335,200.618 232.200,200.000 232.200 C 199.382 232.200,198.960 232.335,199.062 232.500 M299.367 242.600 C 299.367 246.780,299.426 248.436,299.498 246.279 C 299.571 244.123,299.570 240.703,299.498 238.679 C 299.425 236.656,299.366 238.420,299.367 242.600 M100.558 242.600 C 100.558 245.680,100.621 246.887,100.697 245.282 C 100.773 243.678,100.773 241.158,100.696 239.682 C 100.619 238.207,100.557 239.520,100.558 242.600 M298.600 253.600 C 298.443 255.166,298.400 256.533,298.504 256.637 C 298.608 256.742,298.820 255.544,298.975 253.975 C 299.130 252.406,299.173 251.039,299.071 250.938 C 298.969 250.836,298.757 252.034,298.600 253.600 M101.301 254.600 C 101.305 255.480,101.387 255.793,101.483 255.295 C 101.579 254.798,101.575 254.078,101.475 253.695 C 101.375 253.313,101.296 253.720,101.301 254.600 M101.872 259.000 C 101.999 260.100,102.169 261.075,102.251 261.167 C 102.532 261.482,102.320 258.999,101.980 258.000 C 101.751 257.326,101.716 257.651,101.872 259.000 M296.854 264.267 C 296.825 264.744,296.696 265.464,296.570 265.867 C 296.352 266.561,296.364 266.562,296.796 265.888 C 297.047 265.497,297.175 264.777,297.081 264.288 C 296.909 263.401,296.909 263.401,296.854 264.267 M103.268 265.600 C 103.288 266.639,103.918 268.346,103.932 267.400 C 103.938 266.960,103.789 266.240,103.600 265.800 C 103.389 265.310,103.261 265.232,103.268 265.600 M104.406 270.233 C 104.409 270.655,104.595 271.270,104.818 271.600 C 105.115 272.038,105.152 271.876,104.956 271.000 C 104.627 269.529,104.398 269.210,104.406 270.233 M105.200 272.635 C 105.200 273.100,107.141 278.475,107.405 278.738 C 107.753 279.086,107.617 278.586,106.546 275.568 C 105.484 272.577,105.200 271.959,105.200 272.635 M114.360 293.000 C 115.034 294.305,115.588 295.028,115.585 294.600 C 115.583 294.380,115.214 293.750,114.764 293.200 C 114.221 292.536,114.085 292.469,114.360 293.000 M119.202 300.233 C 119.203 300.435,119.668 301.140,120.235 301.800 L 121.266 303.000 120.363 301.600 C 119.204 299.804,119.200 299.799,119.202 300.233 M278.589 302.997 C 277.349 304.645,276.177 306.090,275.986 306.209 C 275.794 306.327,275.241 307.004,274.756 307.712 C 273.639 309.346,274.508 308.472,277.054 305.400 C 279.490 302.462,281.309 300.000,281.043 300.000 C 280.934 300.000,279.830 301.349,278.589 302.997 M122.796 305.194 C 123.490 306.071,124.267 306.918,124.523 307.076 C 124.778 307.234,124.293 306.516,123.445 305.481 C 122.597 304.447,121.820 303.600,121.718 303.600 C 121.616 303.600,122.101 304.318,122.796 305.194 M130.400 313.400 C 132.260 315.270,133.872 316.800,133.982 316.800 C 134.092 316.800,132.660 315.270,130.800 313.400 C 128.940 311.530,127.328 310.000,127.218 310.000 C 127.108 310.000,128.540 311.530,130.400 313.400 M268.992 313.700 L 265.400 317.400 269.100 313.808 C 271.135 311.833,272.800 310.168,272.800 310.108 C 272.800 309.818,272.328 310.264,268.992 313.700 M263.200 318.868 C 262.152 319.820,261.901 320.165,262.600 319.695 C 263.704 318.951,265.538 317.177,265.162 317.217 C 265.073 317.226,264.190 317.970,263.200 318.868 M136.924 319.077 C 137.260 319.621,140.400 322.155,140.400 321.882 C 140.400 321.780,139.553 321.003,138.519 320.155 C 137.484 319.307,136.766 318.822,136.924 319.077 M142.000 323.095 C 142.000 323.484,143.614 324.519,143.851 324.282 C 143.947 324.186,143.569 323.810,143.012 323.445 C 142.456 323.080,142.000 322.922,142.000 323.095 M254.600 325.200 C 253.940 325.637,253.580 325.992,253.800 325.988 C 254.201 325.982,256.376 324.423,256.000 324.412 C 255.890 324.408,255.260 324.763,254.600 325.200 M150.000 328.364 C 150.550 328.814,151.180 329.183,151.400 329.185 C 151.828 329.188,151.105 328.634,149.800 327.960 C 149.269 327.685,149.336 327.821,150.000 328.364 M249.400 328.400 C 248.740 328.837,248.380 329.192,248.600 329.188 C 249.001 329.182,251.176 327.623,250.800 327.612 C 250.690 327.608,250.060 327.963,249.400 328.400 M152.000 329.384 C 152.000 329.494,152.720 329.951,153.600 330.400 C 154.480 330.849,155.200 331.126,155.200 331.016 C 155.200 330.906,154.480 330.449,153.600 330.000 C 152.720 329.551,152.000 329.274,152.000 329.384 M243.200 331.600 C 241.550 332.458,240.339 333.169,240.510 333.180 C 240.935 333.207,246.400 330.438,246.400 330.195 C 246.400 329.925,246.532 329.867,243.200 331.600 M156.400 331.800 C 156.950 332.114,157.580 332.372,157.800 332.372 C 158.020 332.372,157.750 332.114,157.200 331.800 C 156.650 331.486,156.020 331.228,155.800 331.228 C 155.580 331.228,155.850 331.486,156.400 331.800 M223.000 338.800 C 222.229 339.131,222.231 339.145,223.076 339.172 C 223.558 339.187,224.064 339.020,224.200 338.800 C 224.492 338.327,224.101 338.327,223.000 338.800 M219.600 339.600 C 218.776 339.864,218.741 339.926,219.400 339.954 C 219.840 339.973,220.470 339.813,220.800 339.600 C 221.501 339.147,221.014 339.147,219.600 339.600 M183.800 340.381 C 184.568 340.729,186.710 340.956,186.367 340.653 C 186.275 340.572,185.480 340.396,184.600 340.262 C 183.485 340.093,183.242 340.129,183.800 340.381 M215.000 340.400 C 213.911 340.677,213.893 340.707,214.800 340.725 C 215.350 340.735,216.160 340.589,216.600 340.400 C 217.586 339.976,216.666 339.976,215.000 340.400 M189.400 341.194 C 190.613 341.509,194.675 341.722,194.367 341.456 C 194.275 341.376,192.850 341.215,191.200 341.097 C 189.442 340.972,188.697 341.012,189.400 341.194 M207.600 341.200 L 205.400 341.470 207.600 341.507 C 208.810 341.527,210.160 341.389,210.600 341.200 L 211.400 340.856 210.600 340.893 C 210.160 340.914,208.810 341.052,207.600 341.200 " stroke="none" fill="#fcbeb5" fill-rule="evenodd"></path><path id="path4" d="M200.974 60.600 C 202.367 62.652,202.652 62.895,201.877 61.371 C 201.534 60.695,200.949 59.890,200.578 59.582 C 200.207 59.274,200.385 59.732,200.974 60.600 M198.653 60.900 L 197.933 62.200 198.758 61.200 C 199.489 60.313,199.814 59.600,199.486 59.600 C 199.424 59.600,199.049 60.185,198.653 60.900 M204.609 66.226 C 204.981 66.901,205.641 67.891,206.076 68.426 L 206.867 69.400 206.191 68.174 C 205.819 67.499,205.159 66.509,204.724 65.974 L 203.933 65.000 204.609 66.226 M195.046 66.600 C 194.691 67.150,194.109 68.095,193.753 68.700 L 193.105 69.800 193.910 68.826 C 194.860 67.676,196.121 65.600,195.869 65.600 C 195.771 65.600,195.401 66.050,195.046 66.600 M190.645 73.388 C 190.280 73.944,190.122 74.400,190.295 74.400 C 190.684 74.400,191.719 72.786,191.482 72.549 C 191.386 72.453,191.010 72.831,190.645 73.388 M189.108 75.700 C 188.787 76.195,188.307 77.050,188.040 77.600 C 187.360 79.003,188.594 77.506,189.441 75.900 C 190.139 74.574,189.923 74.444,189.108 75.700 M215.149 82.600 C 215.365 83.040,215.834 83.760,216.193 84.200 L 216.844 85.000 216.451 84.200 C 216.235 83.760,215.766 83.040,215.407 82.600 L 214.756 81.800 215.149 82.600 M184.553 82.900 C 183.176 85.236,183.086 85.435,183.787 84.600 C 184.600 83.632,185.300 82.400,185.038 82.400 C 184.933 82.400,184.715 82.625,184.553 82.900 M198.998 88.002 C 198.598 88.444,198.376 88.909,198.503 89.037 C 198.631 89.164,198.936 88.893,199.182 88.434 C 199.727 87.416,200.329 87.374,201.078 88.300 C 201.589 88.932,201.602 88.912,201.208 88.100 C 200.669 86.987,199.946 86.955,198.998 88.002 M221.009 91.826 C 221.381 92.501,222.041 93.491,222.476 94.026 L 223.267 95.000 222.591 93.774 C 222.219 93.099,221.559 92.109,221.124 91.574 L 220.333 90.600 221.009 91.826 M178.646 92.200 C 178.291 92.750,177.709 93.695,177.353 94.300 L 176.705 95.400 177.510 94.426 C 178.460 93.276,179.721 91.200,179.469 91.200 C 179.371 91.200,179.001 91.650,178.646 92.200 M193.257 96.857 C 192.975 97.309,192.832 97.766,192.940 97.873 C 193.047 97.981,193.344 97.678,193.600 97.200 C 194.205 96.070,193.924 95.790,193.257 96.857 M210.749 103.400 C 210.965 103.840,211.434 104.560,211.793 105.000 L 212.444 105.800 212.051 105.000 C 211.835 104.560,211.366 103.840,211.007 103.400 L 210.356 102.600 210.749 103.400 M188.953 103.700 C 187.576 106.036,187.486 106.235,188.187 105.400 C 189.000 104.432,189.700 103.200,189.438 103.200 C 189.333 103.200,189.115 103.425,188.953 103.700 M184.892 110.135 C 184.459 110.869,183.789 111.994,183.405 112.635 L 182.705 113.800 183.533 112.800 C 184.479 111.657,186.144 108.800,185.865 108.800 C 185.763 108.800,185.325 109.401,184.892 110.135 M167.353 109.700 C 165.976 112.036,165.886 112.235,166.587 111.400 C 167.400 110.432,168.100 109.200,167.838 109.200 C 167.733 109.200,167.515 109.425,167.353 109.700 M215.077 110.431 C 215.475 111.108,216.056 111.873,216.368 112.131 C 216.680 112.389,216.432 111.835,215.815 110.900 C 214.520 108.937,214.009 108.612,215.077 110.431 M162.721 117.100 C 160.579 120.360,160.315 120.800,160.501 120.800 C 160.676 120.800,161.241 119.995,163.378 116.700 C 163.771 116.095,164.005 115.600,163.899 115.600 C 163.793 115.600,163.263 116.275,162.721 117.100 M157.037 125.800 C 156.676 126.350,156.537 126.800,156.727 126.800 C 156.916 126.800,157.277 126.350,157.527 125.800 C 157.778 125.250,157.917 124.800,157.837 124.800 C 157.757 124.800,157.397 125.250,157.037 125.800 M227.160 129.000 C 227.834 130.305,228.388 131.028,228.385 130.600 C 228.383 130.380,228.014 129.750,227.564 129.200 C 227.021 128.536,226.885 128.469,227.160 129.000 M171.853 130.391 C 171.274 131.267,170.800 132.117,170.800 132.280 C 170.800 132.444,171.042 132.223,171.339 131.789 C 172.641 129.881,173.278 128.800,173.099 128.800 C 172.993 128.800,172.432 129.516,171.853 130.391 M248.215 134.300 C 249.556 136.385,250.000 136.977,250.000 136.680 C 250.000 136.296,247.955 133.200,247.701 133.200 C 247.595 133.200,247.826 133.695,248.215 134.300 M151.053 135.191 C 150.474 136.067,150.000 136.917,150.000 137.080 C 150.000 137.244,150.242 137.023,150.539 136.589 C 151.841 134.681,152.478 133.600,152.299 133.600 C 152.193 133.600,151.632 134.316,151.053 135.191 M231.409 135.826 C 231.781 136.501,232.441 137.491,232.876 138.026 L 233.667 139.000 232.991 137.774 C 232.619 137.099,231.959 136.109,231.524 135.574 L 230.733 134.600 231.409 135.826 M167.628 137.020 C 166.953 138.021,166.400 138.945,166.400 139.074 C 166.400 139.352,167.555 137.846,168.527 136.300 C 169.668 134.486,168.951 135.060,167.628 137.020 M145.925 143.300 C 143.395 147.128,143.106 147.600,143.297 147.600 C 143.464 147.600,144.559 146.023,146.977 142.300 C 147.370 141.695,147.607 141.200,147.503 141.200 C 147.398 141.200,146.689 142.145,145.925 143.300 M253.822 143.100 C 255.959 146.395,256.524 147.200,256.699 147.200 C 256.805 147.200,256.571 146.705,256.178 146.100 C 254.041 142.805,253.476 142.000,253.301 142.000 C 253.195 142.000,253.429 142.495,253.822 143.100 M160.895 147.423 C 160.403 148.174,160.000 148.923,160.000 149.087 C 160.000 149.251,160.466 148.700,161.036 147.862 C 161.605 147.024,162.008 146.275,161.931 146.198 C 161.854 146.120,161.388 146.672,160.895 147.423 M239.037 147.800 C 239.397 148.350,239.757 148.800,239.837 148.800 C 239.917 148.800,239.778 148.350,239.527 147.800 C 239.277 147.250,238.916 146.800,238.727 146.800 C 238.537 146.800,238.676 147.250,239.037 147.800 M259.215 151.400 C 259.217 151.620,259.586 152.250,260.036 152.800 C 260.579 153.464,260.715 153.531,260.440 153.000 C 259.766 151.695,259.212 150.972,259.215 151.400 M140.024 152.518 C 139.723 153.003,139.215 153.805,138.893 154.300 C 138.571 154.795,138.395 155.200,138.501 155.200 C 138.783 155.200,140.886 151.953,140.715 151.781 C 140.635 151.702,140.324 152.033,140.024 152.518 M242.749 153.400 C 242.965 153.840,243.434 154.560,243.793 155.000 L 244.444 155.800 244.051 155.000 C 243.835 154.560,243.366 153.840,243.007 153.400 L 242.356 152.600 242.749 153.400 M135.353 159.700 C 133.976 162.036,133.886 162.235,134.587 161.400 C 135.400 160.432,136.100 159.200,135.838 159.200 C 135.733 159.200,135.515 159.425,135.353 159.700 M265.324 161.000 C 265.662 161.660,266.238 162.560,266.604 163.000 C 266.970 163.440,266.865 163.080,266.370 162.200 C 265.280 160.258,264.464 159.322,265.324 161.000 M248.272 162.353 C 248.399 162.839,248.141 163.336,247.545 163.753 C 247.038 164.109,246.814 164.400,247.049 164.400 C 248.100 164.400,249.226 162.311,248.437 161.823 C 248.238 161.700,248.163 161.938,248.272 162.353 M156.000 166.022 C 157.033 166.726,159.600 168.025,159.600 167.842 C 159.600 167.633,156.005 165.597,155.650 165.606 C 155.512 165.609,155.670 165.796,156.000 166.022 M131.600 168.979 C 131.600 169.089,132.140 169.459,132.800 169.800 C 133.460 170.141,134.000 170.331,134.000 170.221 C 134.000 170.111,133.460 169.741,132.800 169.400 C 132.140 169.059,131.600 168.869,131.600 168.979 M265.800 170.400 C 265.140 170.837,264.780 171.192,265.000 171.188 C 265.401 171.182,267.576 169.623,267.200 169.612 C 267.090 169.608,266.460 169.963,265.800 170.400 M233.400 172.000 C 232.740 172.437,232.380 172.792,232.600 172.788 C 233.001 172.782,235.176 171.223,234.800 171.212 C 234.690 171.208,234.060 171.563,233.400 172.000 M262.900 172.046 C 261.537 172.919,261.095 173.506,262.300 172.843 C 263.218 172.339,264.656 171.227,264.400 171.219 C 264.290 171.216,263.615 171.588,262.900 172.046 M136.400 171.779 C 136.400 171.889,136.940 172.259,137.600 172.600 C 138.260 172.941,138.800 173.131,138.800 173.021 C 138.800 172.911,138.260 172.541,137.600 172.200 C 136.940 171.859,136.400 171.669,136.400 171.779 M259.600 174.036 C 258.936 174.579,258.869 174.715,259.400 174.440 C 260.705 173.766,261.428 173.212,261.000 173.215 C 260.780 173.217,260.150 173.586,259.600 174.036 M256.800 175.636 C 256.136 176.179,256.069 176.315,256.600 176.040 C 257.905 175.366,258.628 174.812,258.200 174.815 C 257.980 174.817,257.350 175.186,256.800 175.636 M176.000 177.564 C 176.550 178.014,177.180 178.383,177.400 178.385 C 177.828 178.388,177.105 177.834,175.800 177.160 C 175.269 176.885,175.336 177.021,176.000 177.564 M182.600 181.396 C 183.494 182.139,186.028 183.509,185.400 182.910 C 185.180 182.700,184.280 182.124,183.400 181.630 C 182.520 181.135,182.160 181.030,182.600 181.396 M214.800 182.836 C 214.136 183.379,214.069 183.515,214.600 183.240 C 215.905 182.566,216.628 182.012,216.200 182.015 C 215.980 182.017,215.350 182.386,214.800 182.836 M244.700 182.629 C 243.205 183.440,243.296 183.778,244.800 183.000 C 245.460 182.659,246.000 182.294,246.000 182.190 C 246.000 181.932,245.957 181.947,244.700 182.629 M212.000 184.436 C 211.336 184.979,211.269 185.115,211.800 184.840 C 213.105 184.166,213.828 183.612,213.400 183.615 C 213.180 183.617,212.550 183.986,212.000 184.436 M241.800 184.400 C 241.140 184.837,240.780 185.192,241.000 185.188 C 241.401 185.182,243.576 183.623,243.200 183.612 C 243.090 183.608,242.460 183.963,241.800 184.400 M209.500 185.829 C 208.005 186.640,208.096 186.978,209.600 186.200 C 210.260 185.859,210.800 185.494,210.800 185.390 C 210.800 185.132,210.757 185.147,209.500 185.829 M239.000 186.000 C 238.340 186.437,237.980 186.792,238.200 186.788 C 238.601 186.782,240.776 185.223,240.400 185.212 C 240.290 185.208,239.660 185.563,239.000 186.000 M117.122 188.100 C 115.581 190.426,114.693 192.000,114.922 192.000 C 115.004 192.000,115.865 190.732,116.836 189.182 C 118.142 187.095,118.782 186.410,119.301 186.544 C 119.686 186.644,119.900 186.562,119.777 186.363 C 119.280 185.558,118.444 186.105,117.122 188.100 M162.000 186.764 C 162.550 187.214,163.180 187.583,163.400 187.585 C 163.828 187.588,163.105 187.034,161.800 186.360 C 161.269 186.085,161.336 186.221,162.000 186.764 M190.800 186.179 C 190.800 186.289,191.340 186.659,192.000 187.000 C 192.660 187.341,193.200 187.531,193.200 187.421 C 193.200 187.311,192.660 186.941,192.000 186.600 C 191.340 186.259,190.800 186.069,190.800 186.179 M164.800 188.364 C 165.350 188.814,165.980 189.183,166.200 189.185 C 166.628 189.188,165.905 188.634,164.600 187.960 C 164.069 187.685,164.136 187.821,164.800 188.364 M194.400 188.367 C 195.363 189.152,196.000 189.408,196.000 189.010 C 196.000 188.906,195.415 188.535,194.700 188.186 L 193.400 187.552 194.400 188.367 M234.300 188.629 C 232.805 189.440,232.896 189.778,234.400 189.000 C 235.060 188.659,235.600 188.294,235.600 188.190 C 235.600 187.932,235.557 187.947,234.300 188.629 M283.629 189.900 C 284.121 190.725,284.784 191.670,285.102 192.000 C 285.420 192.330,285.107 191.655,284.406 190.500 C 283.705 189.345,283.042 188.400,282.933 188.400 C 282.824 188.400,283.137 189.075,283.629 189.900 M167.400 189.807 C 167.840 190.166,168.560 190.635,169.000 190.851 L 169.800 191.244 169.000 190.593 C 168.560 190.234,167.840 189.765,167.400 189.549 L 166.600 189.156 167.400 189.807 M197.200 189.964 C 197.750 190.414,198.380 190.783,198.600 190.785 C 199.028 190.788,198.305 190.234,197.000 189.560 C 196.469 189.285,196.536 189.421,197.200 189.964 M230.000 191.236 C 229.336 191.779,229.269 191.915,229.800 191.640 C 231.105 190.966,231.828 190.412,231.400 190.415 C 231.180 190.417,230.550 190.786,230.000 191.236 M113.814 193.435 C 113.441 194.004,113.205 194.538,113.289 194.622 C 113.373 194.707,113.758 194.241,114.144 193.588 C 115.006 192.128,114.748 192.009,113.814 193.435 M268.600 193.200 C 267.940 193.637,267.580 193.992,267.800 193.988 C 268.201 193.982,270.376 192.423,270.000 192.412 C 269.890 192.408,269.260 192.763,268.600 193.200 M285.606 192.877 C 285.598 193.239,287.228 196.000,287.450 196.000 C 287.544 196.000,287.353 195.505,287.025 194.900 C 286.210 193.395,285.613 192.544,285.606 192.877 M224.400 194.436 C 223.736 194.979,223.669 195.115,224.200 194.840 C 225.505 194.166,226.228 193.612,225.800 193.615 C 225.580 193.617,224.950 193.986,224.400 194.436 M111.600 197.600 C 110.934 198.920,110.478 200.000,110.588 200.000 C 110.698 200.000,111.334 198.920,112.000 197.600 C 112.666 196.280,113.122 195.200,113.012 195.200 C 112.902 195.200,112.266 196.280,111.600 197.600 M136.400 196.420 C 137.787 197.361,138.578 197.635,137.600 196.836 C 137.050 196.386,136.420 196.017,136.200 196.015 C 135.980 196.013,136.070 196.196,136.400 196.420 M139.200 198.020 C 140.587 198.961,141.378 199.235,140.400 198.436 C 139.850 197.986,139.220 197.617,139.000 197.615 C 138.780 197.613,138.870 197.796,139.200 198.020 M181.800 198.196 C 182.694 198.939,185.228 200.309,184.600 199.710 C 184.380 199.500,183.480 198.924,182.600 198.430 C 181.720 197.935,181.360 197.830,181.800 198.196 M141.600 199.379 C 141.600 199.489,142.140 199.859,142.800 200.200 C 143.460 200.541,144.000 200.731,144.000 200.621 C 144.000 200.511,143.460 200.141,142.800 199.800 C 142.140 199.459,141.600 199.269,141.600 199.379 M257.100 199.829 C 255.605 200.640,255.696 200.978,257.200 200.200 C 257.860 199.859,258.400 199.494,258.400 199.390 C 258.400 199.132,258.357 199.147,257.100 199.829 M212.300 201.429 C 210.805 202.240,210.896 202.578,212.400 201.800 C 213.060 201.459,213.600 201.094,213.600 200.990 C 213.600 200.732,213.557 200.747,212.300 201.429 M206.500 204.846 C 205.137 205.719,204.695 206.306,205.900 205.643 C 206.818 205.139,208.256 204.027,208.000 204.019 C 207.890 204.016,207.215 204.388,206.500 204.846 M194.200 205.407 C 194.640 205.766,195.360 206.235,195.800 206.451 L 196.600 206.844 195.800 206.193 C 195.360 205.834,194.640 205.365,194.200 205.149 L 193.400 204.756 194.200 205.407 M203.200 206.836 C 202.536 207.379,202.469 207.515,203.000 207.240 C 204.305 206.566,205.028 206.012,204.600 206.015 C 204.380 206.017,203.750 206.386,203.200 206.836 M244.700 207.029 C 244.095 207.357,243.600 207.710,243.600 207.813 C 243.600 208.199,244.232 207.957,245.200 207.200 C 246.389 206.270,246.211 206.209,244.700 207.029 M197.200 207.220 C 198.587 208.161,199.378 208.435,198.400 207.636 C 197.850 207.186,197.220 206.817,197.000 206.815 C 196.780 206.813,196.870 206.996,197.200 207.220 M200.400 208.233 C 199.842 208.543,199.665 208.785,200.000 208.781 C 200.330 208.778,200.949 208.510,201.376 208.187 C 202.339 207.459,201.745 207.487,200.400 208.233 M163.000 211.796 C 163.894 212.539,166.428 213.909,165.800 213.310 C 165.580 213.100,164.680 212.524,163.800 212.030 C 162.920 211.535,162.560 211.430,163.000 211.796 M168.400 214.933 C 169.041 215.556,173.986 218.351,173.529 217.832 C 173.380 217.663,172.030 216.810,170.529 215.937 C 169.028 215.064,168.070 214.612,168.400 214.933 M228.696 216.358 C 226.260 217.787,225.719 218.344,227.800 217.280 C 229.345 216.491,231.210 215.218,230.800 215.233 C 230.690 215.237,229.743 215.743,228.696 216.358 M103.429 219.829 C 103.281 220.415,103.238 220.972,103.332 221.066 C 103.427 221.160,103.624 220.758,103.771 220.171 C 103.919 219.585,103.962 219.028,103.868 218.934 C 103.773 218.840,103.576 219.242,103.429 219.829 M217.900 222.629 C 216.405 223.440,216.496 223.778,218.000 223.000 C 218.660 222.659,219.200 222.294,219.200 222.190 C 219.200 221.932,219.157 221.947,217.900 222.629 M296.856 222.400 C 296.856 222.730,297.011 223.360,297.200 223.800 C 297.417 224.304,297.544 224.378,297.544 224.000 C 297.544 223.670,297.389 223.040,297.200 222.600 C 296.983 222.096,296.856 222.022,296.856 222.400 M102.629 223.429 C 102.481 224.015,102.438 224.572,102.532 224.666 C 102.627 224.760,102.824 224.358,102.971 223.771 C 103.119 223.185,103.162 222.628,103.068 222.534 C 102.973 222.440,102.776 222.842,102.629 223.429 M187.200 225.964 C 187.750 226.414,188.380 226.783,188.600 226.785 C 189.028 226.788,188.305 226.234,187.000 225.560 C 186.469 225.285,186.536 225.421,187.200 225.964 M101.800 228.400 C 101.645 229.528,101.602 230.536,101.706 230.639 C 101.809 230.742,102.016 229.900,102.167 228.767 C 102.317 227.634,102.359 226.626,102.261 226.528 C 102.163 226.429,101.955 227.272,101.800 228.400 M190.000 227.564 C 190.550 228.014,191.180 228.383,191.400 228.385 C 191.828 228.388,191.105 227.834,189.800 227.160 C 189.269 226.885,189.336 227.021,190.000 227.564 M209.400 227.600 C 208.740 228.037,208.380 228.392,208.600 228.388 C 209.001 228.382,211.176 226.823,210.800 226.812 C 210.690 226.808,210.060 227.163,209.400 227.600 M298.689 235.800 C 298.808 237.780,298.972 239.475,299.053 239.567 C 299.324 239.874,299.144 235.819,298.806 234.000 C 298.570 232.731,298.536 233.263,298.689 235.800 M101.293 234.000 C 101.293 234.770,101.375 235.085,101.476 234.700 C 101.576 234.315,101.576 233.685,101.476 233.300 C 101.375 232.915,101.293 233.230,101.293 234.000 M100.964 242.200 C 100.963 245.940,101.023 247.524,101.097 245.720 C 101.171 243.915,101.172 240.855,101.098 238.920 C 101.025 236.984,100.964 238.460,100.964 242.200 M298.652 248.753 C 298.498 250.597,298.452 252.185,298.549 252.283 C 298.800 252.533,299.326 246.577,299.110 245.932 C 299.012 245.639,298.806 246.909,298.652 248.753 M101.301 250.600 C 101.305 251.480,101.387 251.793,101.483 251.295 C 101.579 250.798,101.575 250.078,101.475 249.695 C 101.375 249.313,101.296 249.720,101.301 250.600 M101.693 255.200 C 101.693 255.970,101.775 256.285,101.876 255.900 C 101.976 255.515,101.976 254.885,101.876 254.500 C 101.775 254.115,101.693 254.430,101.693 255.200 M297.818 256.618 C 297.665 257.639,297.622 258.555,297.722 258.655 C 297.822 258.755,298.029 258.002,298.182 256.982 C 298.335 255.961,298.378 255.045,298.278 254.945 C 298.178 254.845,297.971 255.598,297.818 256.618 M102.456 260.400 C 102.456 260.730,102.611 261.360,102.800 261.800 C 103.017 262.304,103.144 262.378,103.144 262.000 C 103.144 261.670,102.989 261.040,102.800 260.600 C 102.583 260.096,102.456 260.022,102.456 260.400 M297.029 261.429 C 296.881 262.015,296.838 262.572,296.932 262.666 C 297.027 262.760,297.224 262.358,297.371 261.771 C 297.519 261.185,297.562 260.628,297.468 260.534 C 297.373 260.440,297.176 260.842,297.029 261.429 M291.000 281.061 C 290.664 281.865,290.482 282.615,290.595 282.728 C 290.708 282.841,290.800 282.835,290.800 282.716 C 290.800 282.596,291.072 281.846,291.405 281.049 C 291.738 280.252,291.921 279.600,291.811 279.600 C 291.701 279.600,291.336 280.258,291.000 281.061 M286.653 290.100 L 285.933 291.400 286.758 290.400 C 287.489 289.513,287.814 288.800,287.486 288.800 C 287.424 288.800,287.049 289.385,286.653 290.100 M114.524 292.600 C 114.862 293.260,115.438 294.160,115.804 294.600 C 116.170 295.040,116.065 294.680,115.570 293.800 C 114.480 291.858,113.664 290.922,114.524 292.600 M282.185 297.300 C 281.551 298.261,281.366 298.752,281.758 298.429 C 282.418 297.887,283.796 295.600,283.463 295.600 C 283.377 295.600,282.802 296.365,282.185 297.300 M269.988 312.300 L 267.400 315.000 270.100 312.412 C 271.585 310.988,272.800 309.773,272.800 309.712 C 272.800 309.417,272.393 309.792,269.988 312.300 M264.254 317.433 C 263.623 317.987,263.187 318.520,263.283 318.616 C 263.379 318.713,263.974 318.254,264.604 317.596 C 265.996 316.143,265.816 316.059,264.254 317.433 M261.200 320.049 C 259.806 321.271,259.805 321.272,261.088 320.419 C 261.796 319.948,262.482 319.391,262.612 319.181 C 262.997 318.557,262.677 318.754,261.200 320.049 M257.800 322.453 C 255.434 324.224,255.122 324.706,257.280 323.254 C 258.313 322.559,259.269 321.812,259.403 321.595 C 259.755 321.026,259.583 321.118,257.800 322.453 M227.600 337.200 C 226.776 337.464,226.741 337.526,227.400 337.554 C 227.840 337.573,228.470 337.413,228.800 337.200 C 229.501 336.747,229.014 336.747,227.600 337.200 M182.433 339.749 C 182.525 339.831,183.500 340.001,184.600 340.128 C 185.949 340.284,186.274 340.249,185.600 340.020 C 184.601 339.680,182.118 339.468,182.433 339.749 M214.600 340.003 C 214.085 340.226,214.513 340.267,215.800 340.118 C 216.900 339.991,217.875 339.823,217.967 339.744 C 218.314 339.445,215.364 339.672,214.600 340.003 M188.105 340.687 C 188.714 340.779,189.614 340.777,190.105 340.682 C 190.597 340.587,190.100 340.511,189.000 340.514 C 187.900 340.517,187.497 340.595,188.105 340.687 M210.105 340.687 C 210.714 340.779,211.614 340.777,212.105 340.682 C 212.597 340.587,212.100 340.511,211.000 340.514 C 209.900 340.517,209.497 340.595,210.105 340.687 M191.900 341.082 C 192.395 341.178,193.205 341.178,193.700 341.082 C 194.195 340.987,193.790 340.909,192.800 340.909 C 191.810 340.909,191.405 340.987,191.900 341.082 M206.705 341.083 C 207.202 341.179,207.922 341.175,208.305 341.075 C 208.687 340.975,208.280 340.896,207.400 340.901 C 206.520 340.905,206.207 340.987,206.705 341.083 M198.500 341.491 C 199.325 341.578,200.675 341.578,201.500 341.491 C 202.325 341.405,201.650 341.334,200.000 341.334 C 198.350 341.334,197.675 341.405,198.500 341.491 " stroke="none" fill="#fcd4cc" fill-rule="evenodd"></path></g></svg>