<svg id="svg" version="1.1" xmlns="http://www.w3.org/2000/svg" xmlns:xlink="http://www.w3.org/1999/xlink" width="400" height="400" viewBox="0, 0, 400,400"><g id="svgg"><path id="path0" d="M136.593 111.796 C 135.929 112.088,134.408 113.378,133.213 114.663 C 132.018 115.948,128.854 119.340,126.181 122.200 C 115.541 133.586,110.400 139.273,110.400 139.656 C 110.400 140.304,111.325 141.044,112.504 141.340 C 113.107 141.491,113.600 141.792,113.600 142.008 C 113.600 142.223,113.864 142.400,114.186 142.400 C 114.508 142.400,114.965 142.760,115.200 143.200 C 115.438 143.646,116.038 144.000,116.552 144.000 C 117.060 144.000,117.802 144.360,118.200 144.800 C 118.598 145.240,119.139 145.600,119.402 145.600 C 119.665 145.600,120.625 146.140,121.537 146.800 C 122.448 147.460,123.335 148.000,123.508 148.000 C 123.682 148.000,124.083 148.360,124.400 148.800 C 124.717 149.240,125.297 149.600,125.688 149.600 C 126.080 149.600,126.400 149.780,126.400 150.000 C 126.400 150.220,126.668 150.400,126.997 150.400 C 127.325 150.400,127.818 150.760,128.093 151.200 C 128.368 151.640,128.912 152.000,129.302 152.000 C 130.127 152.000,131.335 152.633,132.929 153.900 L 134.061 154.800 198.044 154.800 C 251.381 154.800,262.240 154.709,263.313 154.251 C 264.488 153.750,267.824 150.475,274.800 142.974 C 279.681 137.725,282.998 134.146,287.000 129.809 C 291.145 125.317,292.109 124.284,296.286 119.852 C 300.331 115.561,300.805 113.543,298.174 111.819 C 296.851 110.953,138.563 110.930,136.593 111.796 M170.490 178.871 C 170.577 179.131,170.984 179.536,171.395 179.771 C 171.807 180.007,172.648 180.632,173.264 181.159 C 174.308 182.053,175.402 182.769,176.769 183.454 C 177.083 183.611,177.641 184.023,178.009 184.369 C 179.134 185.427,180.159 186.173,181.306 186.768 C 181.908 187.080,182.400 187.485,182.400 187.668 C 182.400 187.850,182.597 188.000,182.837 188.000 C 183.377 188.000,185.032 189.232,187.734 191.644 C 188.870 192.659,190.018 193.559,190.285 193.644 C 190.744 193.792,193.216 195.944,198.389 200.700 C 199.645 201.855,200.812 202.800,200.982 202.800 C 201.152 202.800,202.354 203.828,203.653 205.084 C 204.952 206.340,206.551 207.708,207.207 208.123 C 207.863 208.539,208.400 209.041,208.400 209.239 C 208.400 209.438,208.581 209.600,208.803 209.600 C 209.024 209.600,211.660 212.041,214.660 215.024 C 217.660 218.007,220.691 220.887,221.395 221.424 L 222.676 222.400 259.978 222.400 L 297.280 222.400 298.640 221.040 C 300.765 218.915,300.343 217.790,295.539 212.761 C 294.362 211.530,291.420 208.387,289.000 205.778 C 286.580 203.168,283.403 199.766,281.941 198.217 C 280.478 196.668,278.318 194.335,277.141 193.033 C 274.295 189.886,267.804 183.001,265.787 180.989 C 264.885 180.090,263.451 179.162,262.540 178.889 C 260.216 178.193,170.259 178.176,170.490 178.871 M245.810 246.384 C 245.680 246.595,246.119 247.289,246.787 247.927 C 247.454 248.565,248.000 249.280,248.000 249.516 C 248.000 249.753,248.351 250.057,248.780 250.194 C 249.208 250.330,249.682 250.837,249.833 251.320 C 250.096 252.166,252.892 255.307,256.900 259.261 C 257.945 260.291,258.800 261.291,258.800 261.482 C 258.800 261.674,259.700 262.717,260.800 263.800 C 261.900 264.883,262.800 266.002,262.800 266.285 C 262.800 266.568,263.070 266.800,263.400 266.800 C 263.730 266.800,264.000 266.976,264.000 267.191 C 264.000 267.406,264.990 268.604,266.200 269.853 C 267.410 271.102,268.400 272.327,268.400 272.574 C 268.400 272.821,268.760 273.283,269.200 273.600 C 269.640 273.917,270.000 274.331,270.000 274.520 C 270.000 274.708,270.720 275.554,271.600 276.400 C 272.480 277.246,273.200 278.131,273.200 278.369 C 273.200 279.271,274.902 277.757,278.572 273.586 C 279.437 272.604,282.343 269.460,285.030 266.600 C 287.718 263.740,291.240 259.979,292.858 258.241 C 294.476 256.504,296.547 254.289,297.461 253.319 C 300.396 250.203,300.513 247.432,297.755 246.383 C 296.395 245.866,246.130 245.867,245.810 246.384 " stroke="none" fill="#39c4c2" fill-rule="evenodd"></path><path id="path1" d="M105.752 144.205 C 99.908 150.432,99.496 151.304,101.365 153.478 L 102.330 154.600 118.212 154.713 L 134.093 154.827 132.945 153.913 C 131.337 152.634,130.130 152.000,129.302 152.000 C 128.912 152.000,128.368 151.640,128.093 151.200 C 127.818 150.760,127.325 150.400,126.997 150.400 C 126.668 150.400,126.400 150.220,126.400 150.000 C 126.400 149.780,126.080 149.600,125.688 149.600 C 125.297 149.600,124.717 149.240,124.400 148.800 C 124.083 148.360,123.682 148.000,123.508 148.000 C 123.335 148.000,122.448 147.460,121.537 146.800 C 120.625 146.140,119.665 145.600,119.402 145.600 C 119.139 145.600,118.598 145.240,118.200 144.800 C 117.802 144.360,117.060 144.000,116.552 144.000 C 116.038 144.000,115.438 143.646,115.200 143.200 C 114.965 142.760,114.508 142.400,114.186 142.400 C 113.864 142.400,113.600 142.223,113.600 142.008 C 113.600 141.792,113.105 141.493,112.500 141.344 C 111.895 141.194,111.105 140.737,110.745 140.327 C 110.120 139.616,109.897 139.789,105.752 144.205 M101.642 179.560 C 99.413 181.643,100.094 183.526,104.845 188.420 C 106.030 189.641,109.245 193.061,111.988 196.020 C 114.732 198.979,118.332 202.848,119.988 204.619 C 121.645 206.389,125.250 210.259,128.000 213.219 C 134.771 220.506,135.747 221.398,137.543 221.936 C 138.677 222.275,150.305 222.399,180.846 222.396 L 222.600 222.391 221.322 221.384 C 220.619 220.830,217.606 217.952,214.625 214.988 C 211.644 212.025,209.024 209.600,208.803 209.600 C 208.581 209.600,208.400 209.438,208.400 209.239 C 208.400 209.041,207.863 208.539,207.207 208.123 C 206.551 207.708,204.952 206.340,203.653 205.084 C 202.354 203.828,201.152 202.800,200.982 202.800 C 200.812 202.800,199.645 201.855,198.389 200.700 C 193.216 195.944,190.744 193.792,190.285 193.644 C 190.018 193.559,188.870 192.659,187.734 191.644 C 185.032 189.232,183.377 188.000,182.837 188.000 C 182.597 188.000,182.400 187.850,182.400 187.668 C 182.400 187.485,181.908 187.080,181.306 186.768 C 180.159 186.173,179.134 185.427,178.009 184.369 C 177.641 184.023,177.083 183.611,176.769 183.454 C 175.336 182.736,174.294 182.038,173.196 181.059 C 172.542 180.477,171.827 180.000,171.607 180.000 C 171.387 180.000,170.982 179.640,170.707 179.200 C 170.214 178.410,169.774 178.400,136.546 178.400 L 102.885 178.400 101.642 179.560 M136.541 246.639 C 135.394 247.205,130.157 252.377,126.230 256.823 C 124.852 258.382,122.802 260.594,112.800 271.307 C 111.590 272.603,109.610 274.699,108.400 275.966 C 99.618 285.158,99.056 286.210,101.490 288.899 C 102.376 289.878,260.942 290.001,263.278 289.025 C 264.887 288.353,273.200 279.629,273.200 278.612 C 273.200 278.241,272.480 277.246,271.600 276.400 C 270.720 275.554,270.000 274.708,270.000 274.520 C 270.000 274.331,269.640 273.917,269.200 273.600 C 268.760 273.283,268.400 272.821,268.400 272.574 C 268.400 272.327,267.410 271.102,266.200 269.853 C 264.990 268.604,264.000 267.406,264.000 267.191 C 264.000 266.976,263.730 266.800,263.400 266.800 C 263.070 266.800,262.800 266.568,262.800 266.285 C 262.800 266.002,261.900 264.883,260.800 263.800 C 259.700 262.717,258.800 261.674,258.800 261.482 C 258.800 261.291,257.945 260.291,256.900 259.261 C 252.892 255.307,250.096 252.166,249.833 251.320 C 249.682 250.837,249.208 250.330,248.780 250.194 C 248.351 250.057,248.000 249.753,248.000 249.516 C 248.000 249.280,247.454 248.565,246.787 247.927 C 246.119 247.289,245.680 246.595,245.810 246.384 C 246.264 245.649,138.034 245.903,136.541 246.639 " stroke="none" fill="#7d5cec" fill-rule="evenodd"></path><path id="path2" d="M0.000 200.000 L 0.000 400.000 200.000 400.000 L 400.000 400.000 400.000 200.000 L 400.000 0.000 200.000 0.000 L 0.000 0.000 0.000 200.000 M298.942 111.781 C 301.579 114.225,300.719 116.021,292.995 124.198 C 284.570 133.116,281.364 136.523,280.147 137.850 C 278.361 139.796,271.865 146.801,269.992 148.800 C 269.064 149.790,267.611 151.343,266.763 152.251 C 265.915 153.159,264.409 154.284,263.415 154.751 L 261.609 155.600 182.578 155.600 C 124.823 155.600,103.312 155.479,102.674 155.150 C 98.997 153.257,98.949 150.747,102.515 146.907 C 103.898 145.418,107.534 141.500,110.595 138.200 C 113.656 134.900,118.344 129.860,121.012 127.000 C 123.681 124.140,127.650 119.848,129.832 117.462 C 132.014 115.076,134.520 112.609,135.400 111.980 L 137.000 110.836 217.442 110.818 L 297.883 110.800 298.942 111.781 M263.807 178.845 C 264.796 179.310,266.073 180.255,266.646 180.945 C 267.219 181.635,268.613 183.190,269.744 184.400 C 272.914 187.792,282.551 198.134,283.000 198.627 C 283.776 199.478,292.216 208.549,293.400 209.804 C 300.437 217.265,300.000 216.677,300.000 218.686 C 300.000 220.171,299.778 220.787,298.925 221.678 L 297.850 222.800 217.974 222.800 C 129.545 222.800,136.469 223.011,133.835 220.232 C 131.563 217.835,128.240 214.265,120.028 205.400 C 115.545 200.560,109.609 194.189,106.838 191.242 C 99.644 183.590,100.001 184.077,100.000 181.929 C 100.000 180.295,100.164 179.928,101.300 179.033 L 102.600 178.009 182.304 178.004 L 262.009 178.000 263.807 178.845 M297.737 245.799 C 299.458 246.518,300.000 247.416,300.000 249.543 C 300.000 251.171,299.556 251.887,296.650 254.953 C 295.963 255.678,294.408 257.336,293.196 258.636 C 287.824 264.399,278.809 274.055,276.224 276.814 C 274.671 278.472,271.522 281.860,269.228 284.342 C 266.933 286.823,264.557 289.112,263.948 289.427 C 262.997 289.919,251.429 290.000,182.402 290.000 L 101.964 290.000 100.982 289.018 C 98.907 286.943,99.572 284.629,103.400 280.611 C 103.840 280.149,106.540 277.262,109.400 274.195 C 112.260 271.129,116.040 267.084,117.800 265.207 C 119.560 263.330,123.242 259.365,125.982 256.397 C 133.324 248.444,135.637 246.250,137.200 245.755 C 139.629 244.987,295.895 245.030,297.737 245.799 " stroke="none" fill="#040404" fill-rule="evenodd"></path><path id="path3" d="M135.400 111.980 C 134.520 112.609,132.020 115.076,129.844 117.462 C 127.669 119.848,124.691 123.060,123.228 124.600 C 117.592 130.529,106.000 143.187,106.000 143.412 C 106.000 143.923,107.020 142.893,114.040 135.291 C 118.047 130.951,123.511 125.060,126.183 122.200 C 128.855 119.340,132.016 115.951,133.208 114.669 C 136.768 110.839,127.987 111.199,217.749 111.209 C 305.182 111.219,298.234 111.033,299.536 113.400 C 299.931 114.118,299.977 114.126,299.988 113.481 C 299.995 113.085,299.524 112.320,298.942 111.781 L 297.883 110.800 217.442 110.818 L 137.000 110.836 135.400 111.980 M299.308 116.123 C 299.054 116.681,297.711 118.341,296.323 119.813 C 292.124 124.267,291.160 125.301,287.000 129.809 C 282.998 134.146,279.681 137.725,274.800 142.974 C 267.824 150.475,264.488 153.750,263.313 154.251 C 262.240 154.709,250.388 154.809,192.113 154.853 C 153.661 154.883,123.100 155.047,124.200 155.218 C 125.300 155.390,156.667 155.546,193.904 155.565 L 261.609 155.600 263.415 154.751 C 264.409 154.284,265.915 153.159,266.763 152.251 C 267.611 151.343,269.064 149.790,269.992 148.800 C 270.920 147.810,273.326 145.216,275.339 143.034 C 277.353 140.853,280.464 137.523,282.253 135.634 C 284.042 133.746,286.079 131.570,286.779 130.800 C 287.479 130.030,290.335 126.992,293.126 124.048 C 298.622 118.251,300.174 116.321,299.928 115.584 C 299.841 115.323,299.562 115.565,299.308 116.123 M211.000 178.396 C 268.433 178.625,263.698 178.356,266.452 181.544 C 267.144 182.345,269.350 184.725,271.355 186.833 C 273.360 188.941,275.963 191.731,277.141 193.033 C 278.318 194.335,280.478 196.668,281.941 198.217 C 283.403 199.766,286.580 203.168,289.000 205.778 C 291.420 208.387,294.362 211.530,295.539 212.761 C 296.715 213.992,298.200 215.702,298.839 216.560 C 299.542 217.504,300.000 217.862,300.000 217.468 C 300.000 217.109,298.785 215.524,297.300 213.946 C 295.815 212.368,294.060 210.504,293.400 209.804 C 292.216 208.549,283.776 199.478,283.000 198.627 C 282.551 198.134,272.914 187.792,269.744 184.400 C 268.613 183.190,267.219 181.635,266.646 180.945 C 266.073 180.255,264.796 179.310,263.807 178.845 L 262.009 178.000 210.904 178.096 L 159.800 178.193 211.000 178.396 M298.734 220.984 L 297.668 222.200 255.534 222.404 L 213.400 222.607 255.625 222.704 L 297.850 222.800 298.969 221.632 C 299.585 220.990,300.023 220.308,299.944 220.117 C 299.865 219.925,299.320 220.316,298.734 220.984 M237.600 245.600 C 236.390 245.748,249.203 245.899,266.074 245.935 C 298.270 246.003,298.346 246.008,299.362 247.882 C 299.695 248.497,299.975 248.763,299.984 248.474 C 300.016 247.426,299.142 246.387,297.737 245.799 C 296.216 245.164,242.608 244.986,237.600 245.600 M299.426 250.717 C 299.291 251.145,298.419 252.302,297.490 253.288 C 296.560 254.275,294.480 256.504,292.866 258.241 C 291.252 259.979,289.084 262.300,288.049 263.400 C 287.013 264.500,284.644 267.033,282.783 269.028 C 280.922 271.024,277.060 275.135,274.200 278.165 C 268.755 283.934,266.730 286.633,271.473 281.800 C 272.985 280.260,277.992 274.950,282.602 270.000 C 291.494 260.450,293.745 258.039,297.348 254.200 C 299.485 251.923,300.318 250.584,299.873 250.140 C 299.763 250.030,299.562 250.289,299.426 250.717 " stroke="none" fill="#1c6b66" fill-rule="evenodd"></path><path id="path4" d="M103.100 146.255 C 98.920 150.882,98.811 153.161,102.674 155.150 C 103.653 155.654,125.943 155.810,125.442 155.309 C 125.283 155.149,120.017 154.924,113.741 154.809 L 102.329 154.600 101.365 153.478 C 99.700 151.541,100.101 150.244,103.470 146.661 C 105.222 144.797,106.720 142.770,106.314 142.812 C 106.251 142.818,104.805 144.368,103.100 146.255 M101.300 179.033 C 100.164 179.928,100.000 180.295,100.000 181.929 C 100.001 184.077,99.644 183.590,106.838 191.242 C 109.609 194.189,115.545 200.560,120.028 205.400 C 128.240 214.265,131.563 217.835,133.835 220.232 C 136.410 222.948,134.055 222.810,175.949 222.705 L 213.800 222.610 175.800 222.405 C 148.166 222.256,137.518 222.073,136.765 221.735 C 135.499 221.165,134.373 220.071,128.000 213.216 C 125.250 210.258,121.645 206.389,119.988 204.619 C 118.332 202.848,114.732 198.979,111.988 196.020 C 109.245 193.061,106.030 189.641,104.845 188.420 C 100.096 183.528,99.413 181.643,101.639 179.563 L 102.879 178.405 131.539 178.300 L 160.200 178.195 131.400 178.102 L 102.600 178.009 101.300 179.033 M137.200 245.755 C 135.637 246.250,133.324 248.444,125.982 256.397 C 123.242 259.365,119.560 263.330,117.800 265.207 C 116.040 267.084,112.260 271.129,109.400 274.195 C 106.540 277.262,103.840 280.149,103.400 280.611 C 101.008 283.121,100.002 284.520,100.016 285.314 C 100.029 286.081,100.103 286.039,100.568 285.000 C 101.073 283.871,103.286 281.319,108.400 275.966 C 109.610 274.699,111.590 272.603,112.800 271.307 C 122.802 260.594,124.852 258.382,126.230 256.823 C 130.275 252.243,135.420 247.187,136.608 246.623 C 137.773 246.070,143.406 245.995,186.460 245.957 C 213.157 245.933,236.080 245.779,237.400 245.615 C 238.720 245.452,217.030 245.316,189.200 245.315 C 153.303 245.313,138.193 245.441,137.200 245.755 M266.576 286.438 C 263.178 289.911,271.496 289.600,182.013 289.600 C 93.503 289.600,101.501 289.836,100.446 287.192 C 100.053 286.206,100.051 286.206,100.025 287.118 C 100.011 287.623,100.442 288.478,100.982 289.018 L 101.964 290.000 182.402 290.000 C 251.156 290.000,262.997 289.917,263.920 289.431 C 265.175 288.770,269.047 284.914,268.752 284.618 C 268.642 284.508,267.663 285.327,266.576 286.438 " stroke="none" fill="#4c247c" fill-rule="evenodd"></path></g></svg>