<svg id="svg" version="1.1" xmlns="http://www.w3.org/2000/svg" xmlns:xlink="http://www.w3.org/1999/xlink" width="400" height="400" viewBox="0, 0, 400,400"><g id="svgg"><path id="path0" d="M195.780 66.678 C 193.642 69.935,191.625 73.005,191.300 73.500 C 190.974 73.995,190.796 74.400,190.903 74.400 C 191.010 74.400,193.056 71.434,195.449 67.808 L 199.800 61.217 199.902 94.469 L 200.005 127.721 199.102 128.354 C 198.606 128.702,197.660 129.273,197.000 129.622 C 196.340 129.971,194.900 130.765,193.800 131.386 C 187.226 135.099,185.386 136.197,185.267 136.482 C 185.193 136.657,184.966 136.800,184.761 136.800 C 184.424 136.800,182.652 137.777,178.464 140.273 C 177.659 140.752,176.460 141.424,175.800 141.764 C 175.140 142.105,174.330 142.558,174.000 142.770 C 171.735 144.227,167.143 146.800,166.807 146.800 C 166.583 146.800,166.399 146.935,166.397 147.100 C 166.395 147.265,165.990 147.587,165.497 147.817 C 164.235 148.403,161.040 150.160,160.800 150.400 C 160.690 150.510,160.170 150.842,159.645 151.138 C 158.189 151.958,156.163 153.107,154.500 154.057 C 153.675 154.528,152.190 155.367,151.200 155.923 C 150.210 156.478,145.980 158.911,141.800 161.329 C 129.957 168.180,130.628 167.824,130.901 167.113 C 131.035 166.764,132.112 164.975,133.293 163.139 C 136.029 158.886,136.080 158.800,135.878 158.800 C 135.785 158.800,134.425 160.743,132.855 163.117 C 130.151 167.206,129.469 168.800,130.421 168.800 C 130.653 168.800,132.588 169.813,134.721 171.051 C 138.611 173.309,140.267 174.261,142.045 175.262 C 142.570 175.558,143.090 175.890,143.200 176.000 C 143.310 176.110,144.120 176.577,145.000 177.038 C 145.880 177.500,147.275 178.265,148.100 178.738 C 148.925 179.212,150.275 179.980,151.100 180.444 C 151.925 180.908,155.660 183.042,159.400 185.185 C 163.140 187.328,167.024 189.537,168.032 190.094 C 171.157 191.824,171.793 192.193,172.000 192.401 C 172.110 192.511,172.740 192.865,173.400 193.186 C 174.060 193.508,175.081 194.095,175.668 194.490 C 176.256 194.886,177.696 195.725,178.868 196.354 C 180.041 196.984,183.430 198.896,186.400 200.604 C 189.370 202.312,192.790 204.252,194.000 204.916 C 195.210 205.579,196.650 206.431,197.200 206.809 C 197.750 207.186,198.605 207.621,199.100 207.774 L 200.000 208.054 200.000 168.251 C 200.000 143.976,200.146 128.357,200.374 128.216 C 200.580 128.089,201.390 128.348,202.174 128.792 C 205.272 130.547,206.650 131.344,207.800 132.045 C 208.460 132.447,209.630 133.108,210.400 133.513 C 212.340 134.532,213.693 135.321,214.400 135.844 C 214.730 136.088,215.990 136.827,217.200 137.485 C 218.410 138.144,220.353 139.249,221.518 139.941 C 222.682 140.634,223.734 141.200,223.856 141.200 C 223.977 141.200,224.554 141.533,225.138 141.939 C 225.722 142.345,227.190 143.219,228.400 143.880 C 229.610 144.542,231.590 145.674,232.800 146.397 C 234.935 147.673,236.167 148.388,238.926 149.951 C 239.655 150.365,242.620 152.075,245.516 153.751 C 248.412 155.428,250.965 156.800,251.190 156.800 C 251.416 156.800,251.600 156.936,251.600 157.102 C 251.600 157.269,252.185 157.658,252.900 157.968 C 253.615 158.277,254.920 159.001,255.800 159.577 C 256.680 160.153,257.940 160.882,258.600 161.198 C 259.260 161.513,260.250 162.072,260.800 162.439 C 261.745 163.070,262.792 163.679,266.300 165.638 C 267.125 166.098,267.971 166.638,268.180 166.838 C 270.206 168.770,269.357 166.878,265.637 161.177 C 261.461 154.776,261.523 154.869,260.700 153.791 C 260.315 153.286,260.000 152.677,260.000 152.437 C 260.000 152.197,259.820 152.000,259.600 152.000 C 259.380 152.000,259.200 151.830,259.200 151.621 C 259.200 151.413,256.050 146.456,252.200 140.606 C 248.350 134.755,245.200 129.795,245.200 129.584 C 245.200 129.373,245.050 129.200,244.868 129.200 C 244.685 129.200,244.280 128.705,243.968 128.100 C 243.655 127.495,243.085 126.651,242.700 126.225 C 242.315 125.798,242.000 125.314,242.000 125.149 C 242.000 124.984,239.030 120.337,235.400 114.824 C 231.770 109.311,228.800 104.702,228.800 104.583 C 228.800 104.464,228.440 103.980,228.000 103.508 C 227.560 103.036,227.200 102.413,227.200 102.125 C 227.200 101.836,227.020 101.600,226.800 101.600 C 226.580 101.600,226.400 101.412,226.400 101.183 C 226.400 100.954,226.040 100.380,225.600 99.908 C 225.160 99.436,224.800 98.813,224.800 98.525 C 224.800 98.236,224.620 98.000,224.400 98.000 C 224.180 98.000,224.000 97.831,224.000 97.625 C 224.000 97.419,221.210 93.006,217.800 87.819 C 214.390 82.632,211.600 78.211,211.600 77.994 C 211.600 77.777,211.450 77.600,211.268 77.600 C 211.085 77.600,210.680 77.105,210.368 76.500 C 210.055 75.895,209.485 75.051,209.100 74.625 C 208.715 74.198,208.400 73.613,208.400 73.325 C 208.400 73.036,208.220 72.800,208.000 72.800 C 207.780 72.800,207.600 72.624,207.600 72.409 C 207.600 71.911,200.430 61.042,199.994 60.878 C 199.816 60.811,197.919 63.421,195.780 66.678 M189.057 76.994 C 188.251 78.207,187.729 79.197,187.896 79.193 C 188.279 79.184,190.916 75.183,190.689 74.956 C 190.597 74.863,189.862 75.781,189.057 76.994 M184.002 84.694 C 182.177 87.502,179.394 91.780,177.818 94.200 C 174.379 99.484,174.308 99.600,174.520 99.600 C 174.613 99.600,176.126 97.395,177.883 94.700 C 179.640 92.005,181.420 89.281,181.839 88.647 C 182.258 88.013,182.783 87.203,183.006 86.847 C 183.229 86.491,184.361 84.782,185.521 83.048 C 186.681 81.315,187.560 79.827,187.476 79.742 C 187.391 79.658,185.828 81.886,184.002 84.694 M169.785 106.500 C 169.168 107.435,168.920 107.989,169.232 107.731 C 169.833 107.234,171.364 104.800,171.076 104.800 C 170.983 104.800,170.402 105.565,169.785 106.500 M165.564 112.900 C 163.934 115.375,162.532 117.558,162.450 117.751 C 162.367 117.944,160.916 120.194,159.226 122.751 C 155.798 127.936,155.268 128.805,155.901 128.200 C 156.385 127.738,167.644 110.650,168.354 109.300 C 169.405 107.304,168.374 108.635,165.564 112.900 M154.606 129.888 L 153.904 131.000 154.830 130.111 C 155.339 129.622,155.655 129.122,155.532 128.999 C 155.409 128.876,154.992 129.276,154.606 129.888 M149.710 137.291 C 144.956 144.541,139.900 152.360,139.423 153.200 C 138.278 155.218,140.369 152.295,143.143 148.000 C 144.920 145.250,146.739 142.522,147.187 141.937 C 147.634 141.352,148.000 140.779,148.000 140.664 C 148.000 140.548,149.352 138.434,151.005 135.966 C 152.658 133.497,153.945 131.411,153.863 131.330 C 153.782 131.249,151.913 133.932,149.710 137.291 M117.700 186.286 C 117.425 186.385,117.200 186.627,117.200 186.822 C 117.200 187.018,116.127 188.811,114.816 190.808 C 112.247 194.720,106.963 205.096,107.345 205.478 C 107.473 205.606,107.772 205.191,108.009 204.555 C 109.315 201.059,113.298 193.717,116.826 188.305 C 117.714 186.942,118.800 186.301,118.800 187.141 C 118.800 187.329,119.764 189.264,120.943 191.441 C 122.122 193.618,125.477 199.900,128.399 205.400 C 135.440 218.651,136.669 220.959,138.197 223.800 C 140.029 227.204,145.895 238.236,148.513 243.200 C 149.732 245.510,152.515 250.730,154.698 254.800 C 156.881 258.870,159.802 264.360,161.189 267.000 C 162.575 269.640,164.405 273.105,165.255 274.700 C 168.435 280.669,169.941 283.509,171.992 287.400 C 173.151 289.600,174.229 291.580,174.388 291.800 C 174.546 292.020,175.899 294.540,177.395 297.400 C 178.890 300.260,180.835 303.950,181.716 305.600 C 182.596 307.250,184.077 310.040,185.005 311.800 C 185.933 313.560,187.229 315.990,187.885 317.200 C 188.541 318.410,190.027 321.200,191.188 323.400 C 192.349 325.600,194.122 328.930,195.128 330.800 C 196.134 332.670,197.551 335.370,198.278 336.800 L 199.599 339.400 196.699 339.628 L 193.800 339.856 196.467 339.928 C 199.446 340.008,200.544 339.745,200.098 339.058 C 199.934 338.806,199.710 314.777,199.600 285.661 L 199.400 232.722 197.600 231.704 C 196.610 231.145,195.215 230.352,194.500 229.943 C 193.785 229.535,192.570 228.840,191.800 228.400 C 191.030 227.960,189.770 227.240,189.000 226.800 C 188.230 226.360,186.970 225.640,186.200 225.200 C 185.430 224.760,184.125 224.013,183.300 223.539 C 181.516 222.516,178.215 220.647,175.272 218.995 C 174.101 218.338,170.861 216.470,168.072 214.845 C 163.202 212.009,162.095 211.369,159.000 209.600 C 158.230 209.160,156.970 208.440,156.200 208.000 C 155.430 207.560,154.125 206.813,153.300 206.341 C 152.475 205.869,150.810 204.935,149.600 204.266 C 148.390 203.598,143.890 201.046,139.600 198.595 C 135.310 196.145,131.350 193.883,130.800 193.570 C 130.250 193.256,129.710 192.910,129.600 192.799 C 129.490 192.689,128.860 192.335,128.200 192.014 C 127.540 191.692,126.550 191.135,126.000 190.776 C 125.450 190.417,123.740 189.444,122.200 188.614 C 120.660 187.783,119.130 186.879,118.800 186.604 C 118.470 186.329,117.975 186.186,117.700 186.286 M279.229 191.700 C 277.824 194.395,276.381 197.050,276.023 197.600 C 275.664 198.150,275.132 199.140,274.839 199.800 C 274.546 200.460,274.111 201.360,273.872 201.800 C 270.858 207.342,269.114 210.606,266.924 214.800 C 265.488 217.550,263.997 220.340,263.611 221.000 C 263.226 221.660,261.916 224.090,260.700 226.400 C 257.054 233.328,255.163 236.890,254.014 239.000 C 253.415 240.100,252.019 242.710,250.911 244.800 C 249.803 246.890,247.942 250.400,246.776 252.600 C 245.609 254.800,244.037 257.770,243.282 259.200 C 240.408 264.643,238.473 268.276,237.318 270.400 C 235.204 274.286,232.543 279.285,230.185 283.800 C 227.685 288.588,225.164 293.337,220.207 302.600 C 219.500 303.920,218.064 306.620,217.015 308.600 C 215.967 310.580,214.607 313.100,213.994 314.200 C 213.380 315.300,211.936 318.000,210.784 320.200 C 209.633 322.400,208.020 325.460,207.200 327.000 C 206.380 328.540,204.768 331.600,203.616 333.800 C 202.465 336.000,201.360 337.971,201.162 338.180 C 199.436 339.994,204.952 340.058,215.600 338.349 C 241.334 334.219,263.782 321.108,279.206 301.200 C 279.972 300.210,280.708 299.310,280.841 299.200 C 282.872 297.515,293.600 277.527,293.600 275.428 C 293.600 275.109,293.780 274.736,294.000 274.600 C 294.220 274.464,294.400 273.924,294.400 273.400 C 294.400 272.876,294.580 272.336,294.800 272.200 C 295.020 272.064,295.200 271.524,295.200 271.000 C 295.200 270.476,295.360 269.948,295.556 269.827 C 295.751 269.706,296.001 269.021,296.109 268.304 C 296.218 267.587,296.581 265.920,296.915 264.600 C 300.692 249.680,300.692 234.320,296.915 219.400 C 296.581 218.080,296.218 216.413,296.109 215.696 C 296.001 214.979,295.751 214.294,295.556 214.173 C 295.360 214.052,295.200 213.524,295.200 213.000 C 295.200 212.476,295.020 211.936,294.800 211.800 C 294.580 211.664,294.400 211.201,294.400 210.771 C 294.400 210.341,294.241 209.677,294.047 209.295 C 293.653 208.521,292.850 206.624,292.397 205.400 C 291.423 202.766,288.073 196.011,286.346 193.200 C 283.979 189.346,282.268 186.800,282.045 186.800 C 281.901 186.800,280.634 189.005,279.229 191.700 M105.000 211.200 C 104.850 211.673,104.817 212.150,104.927 212.260 C 105.037 212.370,105.250 212.073,105.400 211.600 C 105.550 211.127,105.583 210.650,105.473 210.540 C 105.363 210.430,105.150 210.727,105.000 211.200 M104.200 213.600 C 104.050 214.073,104.017 214.550,104.127 214.660 C 104.237 214.770,104.450 214.473,104.600 214.000 C 104.750 213.527,104.783 213.050,104.673 212.940 C 104.563 212.830,104.350 213.127,104.200 213.600 M103.473 216.153 C 103.323 216.545,103.211 217.166,103.225 217.533 C 103.242 217.975,103.381 217.874,103.637 217.234 C 103.849 216.703,103.961 216.082,103.885 215.854 C 103.809 215.627,103.624 215.761,103.473 216.153 M102.600 219.600 C 102.448 220.291,102.414 220.947,102.524 221.057 C 102.634 221.167,102.848 220.691,103.000 220.000 C 103.152 219.309,103.186 218.653,103.076 218.543 C 102.966 218.433,102.752 218.909,102.600 219.600 M101.782 223.382 C 101.629 224.402,101.594 225.327,101.704 225.437 C 101.814 225.547,102.029 224.802,102.182 223.782 C 102.335 222.761,102.370 221.837,102.260 221.727 C 102.150 221.617,101.935 222.361,101.782 223.382 M101.082 227.150 C 100.927 227.893,100.821 229.153,100.847 229.950 C 100.886 231.173,100.950 231.056,101.257 229.203 C 101.665 226.741,101.521 225.051,101.082 227.150 M100.254 233.856 C 99.925 236.260,99.979 248.466,100.330 250.800 C 100.478 251.790,100.600 247.965,100.600 242.300 C 100.600 236.635,100.579 232.000,100.554 232.000 C 100.529 232.000,100.394 232.835,100.254 233.856 M100.828 254.433 C 100.844 255.405,101.021 256.560,101.221 257.000 C 101.462 257.528,101.504 256.984,101.343 255.400 C 101.049 252.499,100.790 252.012,100.828 254.433 M101.675 259.400 C 101.665 260.060,101.811 260.960,102.000 261.400 L 102.344 262.200 102.325 261.400 C 102.314 260.960,102.168 260.060,102.000 259.400 L 101.695 258.200 101.675 259.400 M102.434 263.600 C 102.446 263.930,102.611 264.560,102.800 265.000 L 103.144 265.800 103.166 265.000 C 103.178 264.560,103.013 263.930,102.800 263.600 C 102.455 263.067,102.415 263.067,102.434 263.600 M103.234 266.600 C 103.222 267.040,103.387 267.670,103.600 268.000 C 104.114 268.795,104.114 267.796,103.600 266.600 L 103.256 265.800 103.234 266.600 M104.012 269.600 C 104.012 269.930,104.187 270.470,104.400 270.800 C 104.745 271.333,104.788 271.333,104.788 270.800 C 104.788 270.470,104.613 269.930,104.400 269.600 C 104.055 269.067,104.012 269.067,104.012 269.600 M104.812 272.000 C 104.812 272.330,104.987 272.870,105.200 273.200 C 105.545 273.733,105.588 273.733,105.588 273.200 C 105.588 272.870,105.413 272.330,105.200 272.000 C 104.855 271.467,104.812 271.467,104.812 272.000 M108.800 282.266 C 108.800 282.722,113.251 290.912,114.456 292.672 C 115.085 293.592,115.600 294.446,115.600 294.571 C 115.600 295.043,120.777 301.917,122.542 303.789 C 123.951 305.283,123.347 304.400,119.782 299.752 C 116.571 295.567,113.728 291.047,111.181 286.077 C 109.238 282.286,108.800 281.585,108.800 282.266 M126.619 308.583 C 128.313 310.444,129.844 312.019,130.022 312.083 C 130.199 312.147,131.302 313.103,132.472 314.206 C 135.899 317.437,138.298 319.298,143.400 322.683 C 149.309 326.603,149.200 326.540,149.200 326.024 C 149.200 325.791,149.008 325.600,148.773 325.600 C 146.912 325.600,132.762 314.416,127.091 308.463 C 123.012 304.181,122.687 304.263,126.619 308.583 M151.600 327.623 C 152.597 328.305,156.755 330.401,157.089 330.389 C 157.260 330.384,156.052 329.664,154.405 328.789 C 151.508 327.252,150.360 326.775,151.600 327.623 M163.420 333.118 C 163.985 333.592,166.830 334.503,167.052 334.282 C 167.157 334.176,166.392 333.800,165.350 333.445 C 163.219 332.719,162.873 332.660,163.420 333.118 M170.102 335.435 C 170.231 335.564,170.936 335.819,171.668 336.000 C 172.401 336.182,174.044 336.616,175.320 336.965 C 176.595 337.314,178.035 337.593,178.520 337.583 C 179.004 337.574,177.420 337.042,175.000 336.400 C 170.408 335.182,169.712 335.045,170.102 335.435 M179.630 337.761 C 180.004 338.138,186.337 339.124,189.800 339.344 L 193.000 339.547 190.200 339.170 C 187.646 338.826,185.449 338.495,181.000 337.784 C 180.120 337.644,179.504 337.633,179.630 337.761 " stroke="none" fill="#9cdcfc" fill-rule="evenodd"></path><path id="path1" d="M195.400 67.864 C 192.980 71.520,190.928 74.711,190.841 74.956 C 190.579 75.686,188.272 78.989,187.923 79.133 C 187.745 79.207,187.600 79.429,187.600 79.626 C 187.600 79.824,186.610 81.448,185.400 83.235 C 184.190 85.023,183.200 86.572,183.200 86.679 C 183.200 86.786,182.835 87.352,182.390 87.937 C 180.782 90.046,172.800 102.424,172.800 102.807 C 172.800 103.023,172.665 103.204,172.500 103.209 C 172.335 103.214,171.300 104.661,170.200 106.424 C 169.100 108.186,165.365 113.952,161.900 119.236 C 158.435 124.521,155.600 128.986,155.600 129.160 C 155.600 129.334,155.240 129.802,154.800 130.200 C 154.360 130.598,154.000 131.052,154.000 131.209 C 154.000 131.366,152.650 133.510,151.000 135.974 C 149.350 138.438,148.000 140.548,148.000 140.664 C 148.000 140.779,147.636 141.352,147.191 141.937 C 145.081 144.709,130.800 166.866,130.800 167.366 C 130.800 167.695,130.720 167.739,141.800 161.329 C 145.980 158.911,150.210 156.478,151.200 155.923 C 152.190 155.367,153.675 154.528,154.500 154.057 C 156.163 153.107,158.189 151.958,159.645 151.138 C 160.170 150.842,160.690 150.510,160.800 150.400 C 161.040 150.160,164.235 148.403,165.497 147.817 C 165.990 147.587,166.395 147.265,166.397 147.100 C 166.399 146.935,166.583 146.800,166.807 146.800 C 167.143 146.800,171.735 144.227,174.000 142.770 C 174.330 142.558,175.140 142.105,175.800 141.764 C 176.460 141.424,177.659 140.752,178.464 140.273 C 182.652 137.777,184.424 136.800,184.761 136.800 C 184.966 136.800,185.193 136.657,185.267 136.482 C 185.386 136.197,187.226 135.099,193.800 131.386 C 194.900 130.765,196.340 129.971,197.000 129.622 C 197.660 129.273,198.606 128.702,199.102 128.354 L 200.005 127.721 199.902 94.469 L 199.800 61.217 195.400 67.864 M116.826 188.305 C 113.274 193.754,110.022 199.769,107.798 205.000 C 107.424 205.880,106.964 206.960,106.776 207.400 C 98.532 226.661,98.550 257.284,106.817 276.700 C 107.028 277.195,107.355 278.005,107.545 278.500 C 109.604 283.864,115.656 294.375,119.782 299.752 C 121.112 301.486,122.557 303.376,122.993 303.952 C 127.478 309.881,146.173 325.600,148.739 325.600 C 148.956 325.600,149.193 325.743,149.267 325.917 C 149.545 326.579,159.324 331.220,164.452 333.124 C 174.396 336.817,191.080 340.038,197.700 339.542 L 199.599 339.400 198.278 336.800 C 197.551 335.370,196.134 332.670,195.128 330.800 C 194.122 328.930,192.349 325.600,191.188 323.400 C 190.027 321.200,188.541 318.410,187.885 317.200 C 187.229 315.990,185.933 313.560,185.005 311.800 C 184.077 310.040,182.596 307.250,181.716 305.600 C 180.835 303.950,178.890 300.260,177.395 297.400 C 175.899 294.540,174.546 292.020,174.388 291.800 C 174.229 291.580,173.151 289.600,171.992 287.400 C 169.941 283.509,168.435 280.669,165.255 274.700 C 164.405 273.105,162.575 269.640,161.189 267.000 C 159.802 264.360,156.881 258.870,154.698 254.800 C 152.515 250.730,149.732 245.510,148.513 243.200 C 145.895 238.236,140.029 227.204,138.197 223.800 C 136.669 220.959,135.440 218.651,128.399 205.400 C 125.477 199.900,122.122 193.618,120.943 191.441 C 119.764 189.264,118.800 187.329,118.800 187.141 C 118.800 186.301,117.714 186.942,116.826 188.305 " stroke="none" fill="#fbfbfc" fill-rule="evenodd"></path><path id="path2" d="M0.000 200.000 L 0.000 400.000 200.000 400.000 L 400.000 400.000 400.000 200.000 L 400.000 0.000 200.000 0.000 L 0.000 0.000 0.000 200.000 M202.200 62.513 C 203.080 63.881,203.915 65.276,204.055 65.614 C 204.196 65.952,204.601 66.469,204.955 66.763 C 205.310 67.057,205.600 67.456,205.600 67.649 C 205.600 67.842,208.081 71.735,211.113 76.300 C 214.145 80.865,217.877 86.580,219.407 89.000 C 220.936 91.420,222.326 93.460,222.494 93.533 C 222.662 93.607,222.800 93.820,222.800 94.009 C 222.800 94.197,226.085 99.366,230.100 105.497 C 234.115 111.628,237.580 116.931,237.800 117.281 C 238.020 117.632,238.785 118.756,239.500 119.779 C 240.215 120.803,240.800 121.709,240.800 121.793 C 240.800 121.877,243.770 126.454,247.400 131.964 C 251.030 137.474,254.000 142.151,254.000 142.358 C 254.000 142.564,254.135 142.793,254.300 142.867 C 254.768 143.075,257.200 146.679,257.200 147.165 C 257.200 147.404,257.358 147.600,257.551 147.600 C 257.745 147.600,258.127 148.140,258.400 148.800 C 258.673 149.460,259.055 150.000,259.249 150.000 C 259.442 150.000,259.600 150.169,259.600 150.376 C 259.600 150.584,262.006 154.409,264.946 158.876 C 271.263 168.474,271.236 168.415,269.496 169.172 C 268.783 169.482,267.057 170.425,265.659 171.268 C 264.262 172.111,263.068 172.800,263.006 172.800 C 262.944 172.800,258.328 175.433,252.747 178.651 C 247.166 181.869,241.790 184.958,240.800 185.514 C 234.483 189.063,218.011 198.428,215.000 200.182 C 200.081 208.874,199.398 209.218,198.580 208.438 C 198.371 208.238,197.525 207.698,196.700 207.238 C 195.875 206.777,194.570 206.040,193.800 205.600 C 193.030 205.160,191.770 204.440,191.000 204.000 C 188.899 202.800,187.293 201.900,184.200 200.193 C 182.660 199.343,181.310 198.546,181.200 198.424 C 181.090 198.301,180.280 197.826,179.400 197.370 C 177.327 196.294,175.851 195.451,175.600 195.199 C 175.490 195.089,174.860 194.735,174.200 194.412 C 173.540 194.089,172.280 193.363,171.400 192.800 C 170.520 192.237,169.260 191.511,168.600 191.188 C 167.940 190.865,167.310 190.511,167.200 190.401 C 166.958 190.158,165.673 189.420,163.000 187.989 C 161.900 187.400,157.960 185.182,154.245 183.059 C 150.530 180.937,147.350 179.200,147.179 179.200 C 147.007 179.200,146.807 179.065,146.733 178.900 C 146.660 178.735,145.790 178.163,144.800 177.630 C 143.810 177.096,142.910 176.553,142.800 176.422 C 142.690 176.291,141.385 175.576,139.900 174.832 C 138.415 174.089,137.200 173.327,137.200 173.140 C 137.200 172.953,136.998 172.800,136.752 172.800 C 136.007 172.800,129.200 168.732,129.200 168.287 C 129.200 167.907,133.850 160.457,134.373 160.000 C 134.498 159.890,134.856 159.305,135.168 158.700 C 135.480 158.095,135.885 157.600,136.068 157.600 C 136.250 157.600,136.400 157.407,136.400 157.172 C 136.400 156.937,136.940 155.959,137.600 155.000 C 138.260 154.041,138.800 153.146,138.800 153.011 C 138.800 152.877,139.160 152.380,139.600 151.908 C 140.040 151.436,140.400 150.813,140.400 150.525 C 140.400 150.236,140.550 150.000,140.732 150.000 C 140.915 150.000,141.320 149.505,141.632 148.900 C 141.945 148.295,142.515 147.451,142.900 147.025 C 143.285 146.598,143.600 146.013,143.600 145.725 C 143.600 145.436,143.758 145.200,143.951 145.200 C 144.145 145.200,144.527 144.660,144.800 144.000 C 145.073 143.340,145.443 142.800,145.622 142.800 C 145.800 142.800,146.060 142.441,146.199 142.002 C 146.338 141.564,146.666 140.979,146.927 140.702 C 147.188 140.426,148.109 139.030,148.975 137.600 C 149.840 136.170,152.855 131.538,155.674 127.307 C 158.493 123.077,160.800 119.432,160.800 119.207 C 160.800 118.983,160.950 118.800,161.132 118.800 C 161.315 118.800,161.714 118.305,162.019 117.700 C 162.323 117.095,163.839 114.710,165.386 112.399 C 166.934 110.089,168.455 107.704,168.768 107.099 C 169.080 106.495,169.485 106.000,169.668 106.000 C 169.850 106.000,170.000 105.764,170.000 105.475 C 170.000 105.187,170.360 104.564,170.800 104.092 C 171.240 103.620,171.600 103.123,171.600 102.989 C 171.600 102.854,172.140 101.959,172.800 101.000 C 173.460 100.041,174.000 99.063,174.000 98.828 C 174.000 98.593,174.150 98.400,174.332 98.400 C 174.515 98.400,174.920 97.905,175.232 97.300 C 175.545 96.695,176.115 95.851,176.500 95.425 C 176.885 94.998,177.200 94.413,177.200 94.125 C 177.200 93.836,177.342 93.600,177.515 93.600 C 177.689 93.600,178.449 92.565,179.205 91.300 C 179.961 90.035,180.687 88.910,180.817 88.800 C 180.948 88.690,182.288 86.620,183.795 84.200 C 187.643 78.022,192.867 70.225,193.265 70.067 C 193.449 69.993,193.600 69.788,193.600 69.610 C 193.600 69.432,194.613 67.692,195.851 65.743 C 197.089 63.794,198.394 61.706,198.751 61.103 C 199.717 59.469,200.429 59.761,202.200 62.513 M121.926 187.660 C 123.837 188.793,126.390 190.261,127.600 190.921 C 128.810 191.582,130.250 192.426,130.800 192.798 C 131.350 193.170,132.385 193.727,133.100 194.035 C 133.815 194.343,134.400 194.731,134.400 194.898 C 134.400 195.064,134.555 195.200,134.745 195.200 C 134.935 195.200,138.739 197.270,143.200 199.800 C 147.661 202.330,151.388 204.400,151.483 204.400 C 151.578 204.400,152.408 204.903,153.328 205.519 C 154.248 206.134,155.855 207.079,156.900 207.618 C 157.945 208.157,158.800 208.734,158.800 208.899 C 158.800 209.065,159.160 209.200,159.600 209.200 C 160.040 209.200,160.400 209.346,160.400 209.525 C 160.400 209.704,161.030 210.098,161.800 210.400 C 162.570 210.702,163.200 211.096,163.200 211.275 C 163.200 211.454,163.470 211.600,163.800 211.600 C 164.130 211.600,164.400 211.780,164.400 212.000 C 164.400 212.220,164.602 212.400,164.849 212.400 C 165.096 212.400,167.931 213.912,171.149 215.761 C 174.367 217.609,177.675 219.499,178.500 219.961 C 179.325 220.422,180.630 221.160,181.400 221.600 C 182.170 222.040,183.430 222.760,184.200 223.200 C 184.970 223.640,186.275 224.388,187.100 224.862 C 187.925 225.335,189.275 226.089,190.100 226.536 C 190.925 226.983,191.600 227.495,191.600 227.674 C 191.600 227.853,191.945 228.000,192.367 228.000 C 192.788 228.000,193.193 228.135,193.267 228.300 C 193.340 228.465,194.120 228.978,195.000 229.439 C 195.880 229.901,197.461 230.765,198.514 231.360 L 200.427 232.441 203.514 230.752 C 205.211 229.823,208.760 227.809,211.400 226.277 C 218.002 222.444,218.691 222.050,221.200 220.683 C 222.410 220.024,223.580 219.350,223.800 219.184 C 224.020 219.019,225.100 218.386,226.200 217.778 C 232.043 214.549,280.657 186.668,280.980 186.361 C 282.709 184.718,290.007 196.513,293.998 207.400 C 294.482 208.720,295.020 210.160,295.193 210.600 C 295.367 211.040,295.730 212.210,296.000 213.200 C 296.270 214.190,296.637 215.360,296.815 215.800 C 296.994 216.240,297.233 217.050,297.346 217.600 C 297.460 218.150,297.922 220.310,298.374 222.400 C 301.172 235.337,300.819 255.341,297.617 265.200 C 297.439 265.750,297.068 267.010,296.793 268.000 C 296.089 270.535,294.826 274.417,294.320 275.600 C 294.085 276.150,293.737 277.005,293.546 277.500 C 293.356 277.995,293.040 278.805,292.845 279.300 C 287.326 293.300,275.264 309.128,263.000 318.463 C 261.020 319.970,259.220 321.346,259.000 321.521 C 257.586 322.644,253.572 325.200,253.222 325.200 C 252.990 325.200,252.800 325.380,252.800 325.600 C 252.800 325.820,252.530 326.000,252.200 326.000 C 251.870 326.000,251.600 326.180,251.600 326.400 C 251.600 326.620,251.428 326.800,251.218 326.800 C 251.007 326.800,249.972 327.303,248.918 327.919 C 237.238 334.732,221.124 339.198,205.624 339.918 C 198.532 340.247,188.587 339.926,184.400 339.234 C 181.941 338.827,181.001 338.642,176.200 337.621 C 173.893 337.131,168.576 335.667,167.400 335.199 C 166.960 335.024,165.970 334.664,165.200 334.400 C 163.507 333.818,162.040 333.229,161.105 332.753 C 160.723 332.559,160.138 332.400,159.805 332.400 C 159.472 332.400,159.200 332.220,159.200 332.000 C 159.200 331.780,158.975 331.601,158.700 331.603 C 158.180 331.607,151.551 328.402,151.200 327.978 C 151.090 327.845,150.415 327.481,149.700 327.170 C 148.985 326.859,148.400 326.469,148.400 326.302 C 148.400 326.136,148.122 326.000,147.783 326.000 C 147.444 326.000,146.780 325.640,146.308 325.200 C 145.836 324.760,145.213 324.400,144.925 324.400 C 144.636 324.400,144.400 324.250,144.400 324.068 C 144.400 323.885,143.905 323.480,143.300 323.168 C 142.695 322.855,142.020 322.463,141.800 322.296 C 141.580 322.129,140.146 321.049,138.614 319.896 C 137.082 318.743,135.534 317.530,135.175 317.200 C 134.815 316.870,133.382 315.610,131.990 314.400 C 128.847 311.669,127.590 310.408,124.800 307.185 C 123.590 305.788,122.195 304.237,121.700 303.740 C 121.205 303.243,120.800 302.663,120.800 302.452 C 120.800 302.240,120.665 302.007,120.500 301.933 C 119.753 301.602,112.400 290.954,112.400 290.204 C 112.400 290.111,111.860 289.119,111.200 288.000 C 110.540 286.881,110.000 285.703,110.000 285.382 C 110.000 285.062,109.820 284.800,109.600 284.800 C 109.380 284.800,109.200 284.440,109.200 284.000 C 109.200 283.560,109.020 283.200,108.800 283.200 C 108.580 283.200,108.400 282.947,108.400 282.638 C 108.400 282.329,108.014 281.294,107.543 280.338 C 106.519 278.260,106.214 277.506,105.545 275.400 C 105.265 274.520,104.893 273.629,104.718 273.420 C 104.543 273.211,104.400 272.637,104.400 272.144 C 104.400 271.651,104.241 271.149,104.046 271.029 C 103.851 270.908,103.596 270.313,103.479 269.705 C 103.362 269.097,103.057 267.880,102.803 267.000 C 102.339 265.398,102.051 264.115,101.233 260.000 C 98.840 247.974,99.139 232.067,101.981 220.200 C 102.192 219.320,102.476 218.060,102.612 217.400 C 102.749 216.740,103.009 215.840,103.190 215.400 C 103.371 214.960,103.943 213.206,104.460 211.502 C 104.977 209.798,105.535 208.403,105.700 208.402 C 105.865 208.401,106.000 207.961,106.000 207.424 C 106.000 206.887,106.180 206.336,106.400 206.200 C 106.620 206.064,106.800 205.603,106.800 205.176 C 106.800 204.749,106.980 204.400,107.200 204.400 C 107.420 204.400,107.600 203.950,107.600 203.400 C 107.600 202.850,107.780 202.400,108.000 202.400 C 108.220 202.400,108.400 202.040,108.400 201.600 C 108.400 201.160,108.580 200.800,108.800 200.800 C 109.020 200.800,109.200 200.440,109.200 200.000 C 109.200 199.560,109.380 199.200,109.600 199.200 C 109.820 199.200,110.000 198.840,110.000 198.400 C 110.000 197.960,110.180 197.600,110.400 197.600 C 110.620 197.600,110.800 197.255,110.800 196.833 C 110.800 196.412,110.935 196.007,111.100 195.933 C 111.265 195.860,111.738 195.170,112.151 194.400 C 114.199 190.584,117.459 185.624,117.926 185.613 C 118.216 185.606,120.016 186.527,121.926 187.660 " stroke="none" fill="#04a4fc" fill-rule="evenodd"></path><path id="path3" d="M200.846 61.000 C 201.215 61.953,203.710 65.623,203.876 65.457 C 203.976 65.357,203.390 64.313,202.573 63.137 C 200.968 60.828,200.604 60.378,200.846 61.000 M196.653 64.500 L 195.933 65.800 196.758 64.800 C 197.489 63.913,197.814 63.200,197.486 63.200 C 197.424 63.200,197.049 63.785,196.653 64.500 M204.606 66.912 C 204.992 67.524,205.409 67.924,205.532 67.801 C 205.655 67.678,205.339 67.178,204.830 66.689 L 203.904 65.800 204.606 66.912 M208.677 73.231 C 209.075 73.908,209.656 74.673,209.968 74.931 C 210.280 75.189,210.032 74.635,209.415 73.700 C 208.120 71.737,207.609 71.412,208.677 73.231 M210.611 76.000 C 211.364 77.375,216.891 85.600,217.062 85.600 C 217.293 85.600,217.238 85.511,213.867 80.400 C 211.349 76.584,209.739 74.407,210.611 76.000 M187.521 78.300 C 185.379 81.560,185.115 82.000,185.301 82.000 C 185.476 82.000,186.041 81.195,188.178 77.900 C 188.571 77.295,188.805 76.800,188.699 76.800 C 188.593 76.800,188.063 77.475,187.521 78.300 M218.000 87.405 C 218.000 87.720,221.692 93.200,221.905 93.200 C 222.008 93.200,221.827 92.795,221.503 92.300 C 221.179 91.805,220.333 90.455,219.623 89.300 C 218.439 87.375,218.000 86.862,218.000 87.405 M225.077 98.431 C 225.475 99.108,226.056 99.873,226.368 100.131 C 226.680 100.389,226.432 99.835,225.815 98.900 C 224.520 96.937,224.009 96.612,225.077 98.431 M172.214 101.835 C 171.841 102.404,171.605 102.938,171.689 103.022 C 171.773 103.107,172.158 102.641,172.544 101.988 C 173.406 100.528,173.148 100.409,172.214 101.835 M227.423 101.900 C 229.841 105.623,230.936 107.200,231.103 107.200 C 231.207 107.200,230.970 106.705,230.577 106.100 C 228.159 102.377,227.064 100.800,226.897 100.800 C 226.793 100.800,227.030 101.295,227.423 101.900 M232.040 108.977 C 232.502 109.761,233.043 110.503,233.241 110.625 C 233.439 110.748,233.223 110.207,232.760 109.423 C 232.298 108.639,231.757 107.897,231.559 107.775 C 231.361 107.652,231.577 108.193,232.040 108.977 M234.097 112.100 C 234.421 112.595,235.273 113.954,235.990 115.120 C 236.707 116.286,237.375 117.158,237.475 117.058 C 237.668 116.865,234.013 111.200,233.695 111.200 C 233.592 111.200,233.773 111.605,234.097 112.100 M239.027 119.762 C 239.849 120.999,240.592 121.941,240.679 121.854 C 240.877 121.657,238.507 118.113,237.945 117.766 C 237.718 117.626,238.205 118.524,239.027 119.762 M243.067 126.006 C 243.459 126.670,244.198 127.705,244.710 128.306 C 245.221 128.908,244.975 128.365,244.163 127.100 C 242.624 124.703,241.828 123.907,243.067 126.006 M200.400 168.847 L 200.400 208.493 199.412 208.304 C 198.869 208.201,198.519 208.270,198.636 208.458 C 199.167 209.317,200.341 208.723,215.000 200.182 C 218.011 198.428,234.483 189.063,240.800 185.514 C 241.790 184.958,247.166 181.869,252.747 178.651 C 258.328 175.433,262.944 172.800,263.006 172.800 C 263.068 172.800,264.262 172.111,265.659 171.268 C 267.057 170.425,268.785 169.481,269.500 169.170 C 270.914 168.555,271.213 168.021,270.100 168.098 C 269.715 168.125,268.639 167.664,267.708 167.074 C 266.777 166.483,265.927 166.000,265.817 166.000 C 265.708 166.000,263.810 164.920,261.600 163.600 C 259.390 162.280,257.405 161.200,257.191 161.200 C 256.976 161.200,256.800 161.064,256.800 160.898 C 256.800 160.731,256.215 160.341,255.500 160.030 C 254.785 159.719,254.110 159.360,254.000 159.232 C 253.766 158.961,252.442 158.193,250.200 157.030 C 249.320 156.574,248.510 156.110,248.400 156.000 C 248.152 155.752,246.643 154.879,244.800 153.918 C 244.030 153.517,243.130 153.019,242.800 152.812 C 242.470 152.605,240.670 151.581,238.800 150.536 C 236.930 149.491,235.340 148.493,235.267 148.318 C 235.193 148.143,234.890 148.000,234.593 148.000 C 233.996 148.000,229.878 145.576,229.667 145.100 C 229.593 144.935,229.323 144.796,229.067 144.791 C 228.810 144.786,228.150 144.430,227.600 144.000 C 227.050 143.570,226.307 143.214,225.949 143.209 C 225.591 143.204,225.071 142.927,224.794 142.593 C 224.517 142.259,223.640 141.683,222.845 141.313 C 222.050 140.944,221.310 140.542,221.200 140.421 C 221.090 140.299,220.570 139.958,220.045 139.662 C 219.520 139.367,218.440 138.755,217.645 138.303 C 216.850 137.852,215.210 136.939,214.000 136.275 C 211.289 134.788,205.090 131.222,203.200 130.062 C 200.133 128.180,200.400 124.481,200.400 168.847 M152.985 131.300 C 152.368 132.235,152.120 132.789,152.432 132.531 C 153.033 132.034,154.564 129.600,154.276 129.600 C 154.183 129.600,153.602 130.365,152.985 131.300 M246.223 130.700 C 248.641 134.423,249.736 136.000,249.903 136.000 C 250.007 136.000,249.770 135.505,249.377 134.900 C 246.959 131.177,245.864 129.600,245.697 129.600 C 245.593 129.600,245.830 130.095,246.223 130.700 M151.353 133.700 C 149.976 136.036,149.886 136.235,150.587 135.400 C 151.400 134.432,152.100 133.200,151.838 133.200 C 151.733 133.200,151.515 133.425,151.353 133.700 M252.986 141.100 C 253.335 141.815,253.706 142.400,253.810 142.400 C 254.208 142.400,253.952 141.763,253.167 140.800 L 252.352 139.800 252.986 141.100 M255.457 145.006 C 256.262 146.219,256.997 147.136,257.089 147.044 C 257.313 146.820,254.686 142.849,254.296 142.822 C 254.129 142.810,254.651 143.793,255.457 145.006 M257.837 148.600 C 258.197 149.150,258.557 149.600,258.637 149.600 C 258.717 149.600,258.578 149.150,258.327 148.600 C 258.077 148.050,257.716 147.600,257.527 147.600 C 257.337 147.600,257.476 148.050,257.837 148.600 M137.014 155.835 C 136.641 156.404,136.405 156.938,136.489 157.022 C 136.573 157.107,136.958 156.641,137.344 155.988 C 138.206 154.528,137.948 154.409,137.014 155.835 M262.213 155.200 C 262.839 156.337,267.308 163.001,267.712 163.400 C 268.328 164.008,267.746 163.036,265.075 159.000 C 262.878 155.680,261.388 153.701,262.213 155.200 M133.453 161.300 L 132.733 162.600 133.558 161.600 C 134.289 160.713,134.614 160.000,134.286 160.000 C 134.224 160.000,133.849 160.585,133.453 161.300 M269.386 166.300 C 269.735 167.015,270.106 167.600,270.210 167.600 C 270.608 167.600,270.352 166.963,269.567 166.000 L 268.752 165.000 269.386 166.300 M129.232 168.086 C 129.214 168.463,129.605 168.968,130.100 169.208 C 130.863 169.578,130.904 169.565,130.365 169.122 C 130.016 168.835,129.625 168.330,129.496 168.000 C 129.307 167.514,129.257 167.530,129.232 168.086 M131.600 170.020 C 132.987 170.961,133.778 171.235,132.800 170.436 C 132.250 169.986,131.620 169.617,131.400 169.615 C 131.180 169.613,131.270 169.796,131.600 170.020 M134.000 171.390 C 134.000 171.494,134.585 171.865,135.300 172.214 L 136.600 172.848 135.600 172.033 C 134.637 171.248,134.000 170.992,134.000 171.390 M137.200 173.095 C 137.200 173.484,138.814 174.519,139.051 174.282 C 139.147 174.186,138.769 173.810,138.212 173.445 C 137.656 173.080,137.200 172.922,137.200 173.095 M144.341 177.405 C 145.298 177.952,146.198 178.394,146.341 178.388 C 146.755 178.368,143.443 176.404,143.000 176.407 C 142.780 176.408,143.383 176.857,144.341 177.405 M146.800 178.754 C 146.800 178.999,146.963 179.200,147.163 179.200 C 147.362 179.200,149.747 180.477,152.463 182.039 C 158.162 185.316,159.600 186.085,159.600 185.856 C 159.600 185.766,157.125 184.290,154.100 182.577 C 151.075 180.864,148.195 179.202,147.700 178.885 C 147.116 178.511,146.800 178.465,146.800 178.754 M118.019 185.978 C 118.579 186.148,119.749 186.736,120.619 187.284 C 122.562 188.508,124.800 189.675,124.800 189.464 C 124.800 189.088,118.348 185.603,117.709 185.634 C 117.249 185.657,117.358 185.777,118.019 185.978 M160.800 186.767 C 161.763 187.552,162.400 187.808,162.400 187.410 C 162.400 187.306,161.815 186.935,161.100 186.586 L 159.800 185.952 160.800 186.767 M280.980 186.361 C 280.657 186.668,232.043 214.549,226.200 217.778 C 225.100 218.386,224.020 219.019,223.800 219.184 C 223.580 219.350,222.410 220.024,221.200 220.683 C 218.691 222.050,218.002 222.444,211.400 226.277 C 200.900 232.373,200.498 232.557,199.350 231.804 C 198.790 231.437,198.241 231.226,198.131 231.336 C 198.021 231.445,198.352 231.754,198.866 232.022 C 199.380 232.289,199.890 232.589,200.000 232.687 C 200.110 232.786,200.290 256.553,200.400 285.503 L 200.600 338.138 202.560 334.369 C 203.637 332.296,204.816 330.150,205.179 329.600 C 205.542 329.050,206.457 327.340,207.212 325.800 C 207.966 324.260,208.679 322.910,208.794 322.800 C 208.910 322.690,209.609 321.430,210.348 320.000 C 214.107 312.725,216.795 307.630,222.464 297.033 C 223.749 294.631,224.800 292.531,224.800 292.366 C 224.800 292.201,224.935 292.007,225.100 291.933 C 225.265 291.860,225.957 290.720,226.637 289.400 C 228.622 285.550,233.138 276.948,235.562 272.400 C 236.794 270.090,238.251 267.300,238.801 266.200 C 239.350 265.100,239.898 264.110,240.018 264.000 C 240.138 263.890,240.786 262.720,241.459 261.400 C 242.131 260.080,243.096 258.280,243.603 257.400 C 244.523 255.804,245.465 254.027,250.600 244.200 C 252.094 241.340,253.897 237.920,254.606 236.600 C 255.316 235.280,256.324 233.390,256.848 232.400 C 257.372 231.410,257.935 230.540,258.100 230.467 C 258.265 230.393,258.400 230.003,258.400 229.600 C 258.400 229.197,258.536 228.807,258.701 228.733 C 258.867 228.660,259.924 226.800,261.050 224.600 C 262.177 222.400,264.261 218.440,265.682 215.800 C 267.104 213.160,269.406 208.840,270.798 206.200 C 272.191 203.560,273.867 200.410,274.524 199.200 C 275.180 197.990,275.916 196.596,276.159 196.103 C 276.401 195.610,276.735 195.205,276.900 195.203 C 277.065 195.201,277.200 194.936,277.200 194.614 C 277.200 194.292,277.628 193.257,278.151 192.314 C 278.674 191.371,279.609 189.655,280.229 188.500 C 281.414 186.294,282.138 185.938,283.078 187.100 C 283.589 187.732,283.602 187.712,283.208 186.900 C 282.762 185.980,281.661 185.714,280.980 186.361 M126.800 190.822 C 127.833 191.526,130.400 192.825,130.400 192.642 C 130.400 192.433,126.805 190.397,126.450 190.406 C 126.312 190.409,126.470 190.596,126.800 190.822 M285.750 191.400 C 286.074 192.060,286.631 192.960,286.989 193.400 C 287.597 194.148,287.601 194.122,287.050 193.000 C 286.726 192.340,286.169 191.440,285.811 191.000 C 285.203 190.252,285.199 190.278,285.750 191.400 M172.000 193.164 C 172.550 193.614,173.180 193.983,173.400 193.985 C 173.828 193.988,173.105 193.434,171.800 192.760 C 171.269 192.485,171.336 192.621,172.000 193.164 M177.600 196.364 C 178.150 196.814,178.780 197.183,179.000 197.185 C 179.428 197.188,178.705 196.634,177.400 195.960 C 176.869 195.685,176.936 195.821,177.600 196.364 M136.400 196.179 C 136.400 196.289,136.940 196.659,137.600 197.000 C 138.260 197.341,138.800 197.531,138.800 197.421 C 138.800 197.311,138.260 196.941,137.600 196.600 C 136.940 196.259,136.400 196.069,136.400 196.179 M288.986 197.100 C 289.335 197.815,289.706 198.400,289.810 198.400 C 290.208 198.400,289.952 197.763,289.167 196.800 L 288.352 195.800 288.986 197.100 M139.200 197.779 C 139.200 197.889,139.740 198.259,140.400 198.600 C 141.060 198.941,141.600 199.131,141.600 199.021 C 141.600 198.911,141.060 198.541,140.400 198.200 C 139.740 197.859,139.200 197.669,139.200 197.779 M181.233 198.549 C 181.645 198.917,184.000 200.000,184.000 199.821 C 184.000 199.590,181.782 198.400,181.353 198.400 C 181.196 198.400,181.142 198.467,181.233 198.549 M143.800 200.300 C 144.137 200.660,153.377 206.124,154.600 206.686 C 155.394 207.050,152.976 205.224,152.000 204.721 C 150.997 204.205,147.420 202.199,144.800 200.682 C 144.030 200.237,143.580 200.065,143.800 200.300 M184.400 200.190 C 184.400 200.294,184.985 200.665,185.700 201.014 L 187.000 201.648 186.000 200.833 C 185.037 200.048,184.400 199.792,184.400 200.190 M291.617 202.700 C 291.626 202.865,291.978 203.630,292.400 204.400 C 293.321 206.082,293.465 205.455,292.571 203.661 C 291.967 202.452,291.581 202.063,291.617 202.700 M293.451 206.774 C 293.827 208.239,294.771 210.286,294.755 209.600 C 294.747 209.270,294.394 208.280,293.971 207.400 C 293.548 206.520,293.314 206.238,293.451 206.774 M155.200 206.891 C 155.816 207.510,158.800 209.158,158.800 208.879 C 158.800 208.697,158.125 208.205,157.300 207.785 C 155.478 206.857,154.936 206.627,155.200 206.891 M294.828 210.676 C 294.918 211.715,295.544 212.596,295.572 211.724 C 295.587 211.242,295.420 210.736,295.200 210.600 C 294.980 210.464,294.813 210.498,294.828 210.676 M166.000 213.167 C 166.963 213.952,167.600 214.208,167.600 213.810 C 167.600 213.706,167.015 213.335,166.300 212.986 L 165.000 212.352 166.000 213.167 M295.844 213.800 C 296.173 215.271,296.402 215.590,296.394 214.567 C 296.391 214.145,296.205 213.530,295.982 213.200 C 295.685 212.762,295.648 212.924,295.844 213.800 M168.800 214.764 C 169.350 215.214,169.980 215.583,170.200 215.585 C 170.628 215.588,169.905 215.034,168.600 214.360 C 168.069 214.085,168.136 214.221,168.800 214.764 M170.800 215.779 C 170.800 215.889,171.340 216.259,172.000 216.600 C 172.660 216.941,173.200 217.131,173.200 217.021 C 173.200 216.911,172.660 216.541,172.000 216.200 C 171.340 215.859,170.800 215.669,170.800 215.779 M296.640 216.666 C 297.008 218.199,297.200 218.344,297.200 217.090 C 297.200 216.517,297.013 215.932,296.784 215.790 C 296.511 215.621,296.462 215.923,296.640 216.666 M174.400 217.964 C 174.950 218.414,175.580 218.783,175.800 218.785 C 176.228 218.788,175.505 218.234,174.200 217.560 C 173.669 217.285,173.736 217.421,174.400 217.964 M102.249 218.615 C 102.112 218.973,102.015 219.566,102.034 219.933 C 102.053 220.300,102.227 220.069,102.421 219.420 C 102.798 218.158,102.665 217.533,102.249 218.615 M297.458 219.600 C 297.775 221.325,298.002 221.651,297.994 220.367 C 297.991 219.835,297.811 219.130,297.594 218.800 C 297.318 218.378,297.277 218.615,297.458 219.600 M176.600 219.113 C 176.820 219.339,177.720 219.927,178.600 220.419 C 182.857 222.798,183.769 223.267,183.400 222.887 C 183.180 222.661,182.280 222.073,181.400 221.581 C 177.143 219.202,176.231 218.733,176.600 219.113 M101.456 222.084 C 101.321 222.588,101.228 223.450,101.249 224.000 C 101.272 224.589,101.431 224.271,101.636 223.225 C 102.003 221.352,101.873 220.527,101.456 222.084 M298.274 223.392 C 298.408 224.488,298.665 225.838,298.845 226.392 C 299.050 227.026,299.080 226.660,298.926 225.408 C 298.792 224.312,298.535 222.962,298.355 222.408 C 298.150 221.774,298.120 222.140,298.274 223.392 M184.400 223.620 C 185.787 224.561,186.578 224.835,185.600 224.036 C 185.050 223.586,184.420 223.217,184.200 223.215 C 183.980 223.213,184.070 223.396,184.400 223.620 M187.200 225.220 C 188.587 226.161,189.378 226.435,188.400 225.636 C 187.850 225.186,187.220 224.817,187.000 224.815 C 186.780 224.813,186.870 224.996,187.200 225.220 M190.176 227.013 C 190.604 227.336,191.133 227.600,191.353 227.600 C 191.573 227.600,191.404 227.336,190.976 227.013 C 190.549 226.690,190.020 226.425,189.800 226.425 C 189.580 226.425,189.749 226.690,190.176 227.013 M100.501 228.200 C 100.505 229.080,100.587 229.393,100.683 228.895 C 100.779 228.398,100.775 227.678,100.675 227.295 C 100.575 226.913,100.496 227.320,100.501 228.200 M299.223 229.033 C 299.236 229.895,299.403 231.320,299.594 232.200 C 299.852 233.386,299.884 233.024,299.719 230.800 C 299.477 227.547,299.186 226.510,299.223 229.033 M196.000 230.400 C 196.550 230.830,197.180 231.182,197.400 231.182 C 197.620 231.182,197.350 230.830,196.800 230.400 C 196.250 229.970,195.620 229.618,195.400 229.618 C 195.180 229.618,195.450 229.970,196.000 230.400 M99.769 242.000 C 99.769 246.510,99.827 248.355,99.898 246.100 C 99.970 243.845,99.970 240.155,99.898 237.900 C 99.827 235.645,99.769 237.490,99.769 242.000 M300.163 242.000 C 300.163 245.630,300.223 247.115,300.298 245.300 C 300.372 243.485,300.372 240.515,300.298 238.700 C 300.223 236.885,300.163 238.370,300.163 242.000 M299.388 252.988 C 299.231 254.664,299.189 256.123,299.295 256.229 C 299.401 256.334,299.612 255.046,299.765 253.365 C 299.917 251.684,299.959 250.226,299.858 250.124 C 299.757 250.023,299.545 251.312,299.388 252.988 M100.509 255.600 C 100.509 256.590,100.587 256.995,100.682 256.500 C 100.778 256.005,100.778 255.195,100.682 254.700 C 100.587 254.205,100.509 254.610,100.509 255.600 M298.425 259.425 C 298.169 260.893,298.039 262.172,298.135 262.269 C 298.232 262.365,298.519 261.243,298.775 259.775 C 299.031 258.307,299.161 257.028,299.065 256.931 C 298.968 256.835,298.681 257.957,298.425 259.425 M297.654 263.467 C 297.625 263.944,297.496 264.664,297.370 265.067 C 297.152 265.761,297.164 265.762,297.596 265.088 C 297.847 264.697,297.975 263.977,297.881 263.488 C 297.709 262.601,297.709 262.601,297.654 263.467 M102.006 264.233 C 102.009 264.655,102.195 265.270,102.418 265.600 C 102.715 266.038,102.752 265.876,102.556 265.000 C 102.227 263.529,101.998 263.210,102.006 264.233 M296.846 266.467 C 296.821 266.834,296.696 267.464,296.570 267.867 C 296.352 268.562,296.363 268.563,296.797 267.887 C 297.048 267.496,297.173 266.866,297.073 266.487 C 296.911 265.868,296.888 265.866,296.846 266.467 M296.046 269.267 C 296.021 269.634,295.896 270.264,295.770 270.667 C 295.552 271.362,295.563 271.363,295.997 270.687 C 296.248 270.296,296.373 269.666,296.273 269.287 C 296.111 268.668,296.088 268.666,296.046 269.267 M289.078 286.605 C 288.712 287.372,288.495 288.000,288.596 288.000 C 288.870 288.000,290.084 285.551,289.901 285.368 C 289.814 285.281,289.444 285.838,289.078 286.605 M286.139 291.900 C 285.537 292.945,284.656 294.340,284.181 295.000 C 283.125 296.469,282.702 297.200,282.910 297.200 C 283.093 297.200,285.479 293.681,286.774 291.500 C 287.264 290.675,287.568 290.000,287.449 290.000 C 287.331 290.000,286.741 290.855,286.139 291.900 M116.000 295.865 C 116.000 296.306,118.367 299.600,118.684 299.600 C 118.801 299.600,118.716 299.375,118.495 299.100 C 118.273 298.825,117.621 297.900,117.046 297.044 C 116.471 296.188,116.000 295.658,116.000 295.865 M280.189 300.597 C 278.949 302.245,277.769 303.696,277.567 303.820 C 277.365 303.945,277.200 304.233,277.200 304.460 C 277.200 304.687,277.968 303.912,278.908 302.737 C 281.407 299.609,282.868 297.600,282.643 297.600 C 282.534 297.600,281.430 298.949,280.189 300.597 M273.188 308.839 C 272.630 309.634,267.048 314.819,263.185 318.130 C 261.776 319.337,261.906 319.278,263.800 317.849 C 266.746 315.626,274.756 308.047,274.188 308.020 C 273.962 308.009,273.512 308.377,273.188 308.839 M129.600 312.125 C 129.600 312.194,130.185 312.779,130.900 313.425 L 132.200 314.600 131.025 313.300 C 129.930 312.088,129.600 311.816,129.600 312.125 M254.200 324.400 C 253.540 324.837,253.180 325.192,253.400 325.188 C 253.801 325.182,255.976 323.623,255.600 323.612 C 255.490 323.608,254.860 323.963,254.200 324.400 M248.200 327.826 C 246.440 328.792,243.075 330.437,240.722 331.480 C 238.369 332.524,236.516 333.449,236.603 333.536 C 236.815 333.748,246.493 329.333,248.918 327.919 C 249.972 327.303,251.007 326.800,251.218 326.800 C 251.428 326.800,251.600 326.620,251.600 326.400 C 251.600 326.180,251.555 326.015,251.500 326.034 C 251.445 326.053,249.960 326.859,248.200 327.826 M163.006 333.610 C 163.106 333.772,163.635 333.990,164.182 334.094 C 164.729 334.199,165.094 334.152,164.994 333.990 C 164.894 333.828,164.365 333.610,163.818 333.506 C 163.271 333.401,162.906 333.448,163.006 333.610 M229.600 335.618 C 229.162 335.915,229.324 335.952,230.200 335.756 C 231.671 335.427,231.990 335.198,230.967 335.206 C 230.545 335.209,229.930 335.395,229.600 335.618 M223.800 337.200 C 222.781 337.638,223.832 337.638,225.200 337.200 C 226.004 336.943,226.043 336.877,225.400 336.868 C 224.960 336.862,224.240 337.011,223.800 337.200 M220.200 338.000 L 219.400 338.344 220.200 338.366 C 220.640 338.378,221.270 338.213,221.600 338.000 C 222.395 337.486,221.396 337.486,220.200 338.000 M181.800 338.800 C 182.240 338.989,182.870 339.144,183.200 339.144 C 183.578 339.144,183.504 339.017,183.000 338.800 C 182.560 338.611,181.930 338.456,181.600 338.456 C 181.222 338.456,181.296 338.583,181.800 338.800 M215.800 338.800 L 214.600 339.105 215.800 339.147 C 216.460 339.169,217.270 339.013,217.600 338.800 C 218.343 338.320,217.687 338.320,215.800 338.800 M208.800 339.600 L 207.000 339.880 209.000 339.900 C 210.100 339.911,211.450 339.776,212.000 339.600 C 213.325 339.176,211.530 339.176,208.800 339.600 M198.500 340.276 C 198.885 340.376,199.515 340.376,199.900 340.276 C 200.285 340.175,199.970 340.093,199.200 340.093 C 198.430 340.093,198.115 340.175,198.500 340.276 " stroke="none" fill="#33b3fc" fill-rule="evenodd"></path><path id="path4" d="M198.500 61.799 C 197.250 63.730,197.366 64.130,198.635 62.263 C 199.275 61.320,199.884 60.823,200.235 60.958 C 200.546 61.077,200.800 61.001,200.800 60.787 C 200.800 59.874,199.327 60.522,198.500 61.799 M201.049 62.100 C 201.212 62.375,202.752 64.710,204.473 67.288 C 206.193 69.867,207.600 72.162,207.600 72.388 C 207.600 72.615,207.801 72.800,208.046 72.800 C 208.307 72.800,208.194 72.345,207.771 71.700 C 202.785 64.090,201.102 61.600,200.943 61.600 C 200.838 61.600,200.886 61.825,201.049 62.100 M208.409 73.425 C 208.404 73.658,208.715 74.198,209.100 74.625 C 209.485 75.051,210.055 75.895,210.368 76.500 C 210.680 77.105,211.079 77.600,211.254 77.600 C 211.605 77.600,210.453 75.573,209.209 74.000 C 208.774 73.450,208.414 73.191,208.409 73.425 M190.246 74.600 C 189.891 75.150,189.309 76.095,188.953 76.700 L 188.305 77.800 189.110 76.826 C 190.060 75.676,191.321 73.600,191.069 73.600 C 190.971 73.600,190.601 74.050,190.246 74.600 M211.600 78.127 C 211.600 78.271,214.390 82.632,217.800 87.819 C 221.210 93.006,224.000 97.419,224.000 97.625 C 224.000 97.831,224.191 98.000,224.424 98.000 C 224.934 98.000,225.017 98.142,221.127 92.312 C 219.407 89.733,218.000 87.528,218.000 87.410 C 218.000 87.215,212.153 78.420,211.767 78.034 C 211.675 77.942,211.600 77.984,211.600 78.127 M224.809 98.625 C 224.804 98.858,225.160 99.436,225.600 99.908 C 226.040 100.380,226.400 100.954,226.400 101.183 C 226.400 101.412,226.586 101.600,226.814 101.600 C 227.095 101.600,227.099 101.375,226.825 100.900 C 226.098 99.636,224.818 98.191,224.809 98.625 M227.222 102.200 C 227.227 102.729,228.342 104.191,228.569 103.965 C 228.666 103.868,228.402 103.341,227.982 102.794 C 227.561 102.247,227.220 101.980,227.222 102.200 M228.800 104.600 C 228.800 104.710,231.725 109.255,235.300 114.701 C 238.875 120.146,242.055 125.096,242.368 125.701 C 242.680 126.305,243.090 126.800,243.280 126.800 C 243.635 126.800,243.286 126.229,237.533 117.400 C 235.669 114.540,233.009 110.445,231.621 108.300 C 229.298 104.708,228.800 104.055,228.800 104.600 M243.613 127.425 C 243.606 127.658,243.960 128.236,244.400 128.708 C 244.840 129.180,245.200 129.657,245.200 129.767 C 245.200 129.878,248.350 134.755,252.200 140.606 C 256.050 146.456,259.200 151.413,259.200 151.621 C 259.200 151.830,259.380 152.000,259.600 152.000 C 259.820 152.000,260.000 152.168,260.000 152.372 C 260.000 152.919,261.746 155.563,262.120 155.583 C 262.517 155.604,262.682 155.876,257.493 147.966 C 255.124 144.355,251.388 138.632,249.190 135.250 C 244.619 128.215,243.630 126.828,243.613 127.425 M155.353 128.100 C 153.976 130.436,153.886 130.635,154.587 129.800 C 155.400 128.832,156.100 127.600,155.838 127.600 C 155.733 127.600,155.515 127.825,155.353 128.100 M200.267 128.267 C 200.120 128.413,200.000 146.425,200.000 168.294 C 200.000 213.897,200.561 208.863,195.800 205.971 C 194.378 205.107,193.104 204.400,192.969 204.400 C 192.834 204.400,192.246 204.071,191.662 203.669 C 190.078 202.578,184.938 199.827,185.400 200.318 C 186.111 201.072,199.155 208.400,199.788 208.400 C 200.333 208.400,200.400 204.091,200.400 168.800 C 200.400 124.487,200.133 128.180,203.200 130.062 C 205.090 131.222,211.289 134.788,214.000 136.275 C 215.210 136.939,216.850 137.852,217.645 138.303 C 218.440 138.755,219.520 139.367,220.045 139.662 C 220.570 139.958,221.090 140.299,221.200 140.421 C 221.310 140.542,222.050 140.944,222.845 141.313 C 223.640 141.683,224.517 142.259,224.794 142.593 C 225.071 142.927,225.591 143.204,225.949 143.209 C 226.307 143.214,227.050 143.570,227.600 144.000 C 228.150 144.430,228.810 144.786,229.067 144.791 C 229.323 144.796,229.593 144.935,229.667 145.100 C 229.878 145.576,233.996 148.000,234.593 148.000 C 234.890 148.000,235.193 148.143,235.267 148.318 C 235.340 148.493,236.930 149.491,238.800 150.536 C 240.670 151.581,242.470 152.605,242.800 152.812 C 243.130 153.019,244.030 153.517,244.800 153.918 C 246.643 154.879,248.152 155.752,248.400 156.000 C 248.510 156.110,249.320 156.574,250.200 157.030 C 252.442 158.193,253.766 158.961,254.000 159.232 C 254.110 159.360,254.785 159.719,255.500 160.030 C 256.215 160.341,256.800 160.731,256.800 160.898 C 256.800 161.064,256.983 161.200,257.207 161.200 C 257.431 161.200,258.916 161.985,260.507 162.944 C 262.098 163.903,264.480 165.281,265.800 166.006 C 267.120 166.731,268.574 167.567,269.032 167.864 C 271.102 169.205,270.246 167.342,265.557 160.301 C 263.003 156.465,261.702 154.823,263.035 157.117 C 263.456 157.841,265.037 160.324,266.550 162.634 C 269.034 166.428,269.693 168.024,268.310 166.900 C 268.029 166.672,267.125 166.106,266.300 165.643 C 262.472 163.492,261.735 163.063,260.800 162.439 C 260.250 162.072,259.260 161.513,258.600 161.198 C 257.940 160.882,256.680 160.153,255.800 159.577 C 254.920 159.001,253.615 158.277,252.900 157.968 C 252.185 157.658,251.600 157.269,251.600 157.102 C 251.600 156.936,251.416 156.800,251.190 156.800 C 250.965 156.800,248.412 155.428,245.516 153.751 C 242.620 152.075,239.655 150.365,238.926 149.951 C 236.167 148.388,234.935 147.673,232.800 146.397 C 231.590 145.674,229.610 144.542,228.400 143.880 C 227.190 143.219,225.722 142.345,225.138 141.939 C 224.554 141.533,223.977 141.200,223.856 141.200 C 223.734 141.200,222.682 140.634,221.518 139.941 C 220.353 139.249,218.410 138.144,217.200 137.485 C 215.990 136.827,214.730 136.088,214.400 135.844 C 213.693 135.321,212.340 134.532,210.400 133.513 C 209.630 133.108,208.460 132.447,207.800 132.045 C 205.651 130.734,200.820 128.000,200.655 128.000 C 200.588 128.000,200.413 128.120,200.267 128.267 M130.400 168.971 C 130.400 169.065,130.895 169.395,131.500 169.705 C 132.105 170.016,133.275 170.659,134.100 171.135 C 134.925 171.611,136.275 172.390,137.100 172.867 C 140.511 174.838,142.177 175.700,141.800 175.300 C 141.580 175.066,140.770 174.522,140.000 174.089 C 139.230 173.656,136.855 172.290,134.721 171.051 C 130.983 168.882,130.400 168.601,130.400 168.971 M145.200 177.390 C 145.200 177.494,145.785 177.865,146.500 178.214 L 147.800 178.848 146.800 178.033 C 145.837 177.248,145.200 176.992,145.200 177.390 M148.000 178.990 C 148.000 179.094,148.585 179.465,149.300 179.814 L 150.600 180.448 149.600 179.633 C 148.637 178.848,148.000 178.592,148.000 178.990 M151.020 180.739 C 151.229 180.925,155.450 183.376,160.400 186.185 C 165.350 188.993,169.985 191.646,170.700 192.078 C 171.415 192.511,171.999 192.716,171.997 192.533 C 171.995 192.350,171.590 192.004,171.097 191.764 C 169.766 191.116,166.405 189.222,158.331 184.571 C 151.589 180.687,150.067 179.889,151.020 180.739 M118.400 186.162 C 118.400 186.432,121.454 188.400,121.872 188.400 C 122.294 188.400,121.599 187.847,119.900 186.831 C 119.075 186.338,118.400 186.037,118.400 186.162 M280.229 188.500 C 279.609 189.655,278.674 191.371,278.151 192.314 C 277.628 193.257,277.200 194.292,277.200 194.614 C 277.200 194.936,277.065 195.201,276.900 195.203 C 276.735 195.205,276.401 195.610,276.159 196.103 C 275.916 196.596,275.180 197.990,274.524 199.200 C 273.867 200.410,272.191 203.560,270.798 206.200 C 269.406 208.840,267.104 213.160,265.682 215.800 C 264.261 218.440,262.177 222.400,261.050 224.600 C 259.924 226.800,258.867 228.660,258.701 228.733 C 258.536 228.807,258.400 229.197,258.400 229.600 C 258.400 230.003,258.265 230.393,258.100 230.467 C 257.935 230.540,257.372 231.410,256.848 232.400 C 256.324 233.390,255.316 235.280,254.606 236.600 C 253.897 237.920,252.094 241.340,250.600 244.200 C 245.465 254.027,244.523 255.804,243.603 257.400 C 243.096 258.280,242.131 260.080,241.459 261.400 C 240.786 262.720,240.138 263.890,240.018 264.000 C 239.898 264.110,239.350 265.100,238.801 266.200 C 238.251 267.300,236.794 270.090,235.562 272.400 C 233.138 276.948,228.622 285.550,226.637 289.400 C 225.957 290.720,225.265 291.860,225.100 291.933 C 224.935 292.007,224.800 292.201,224.800 292.366 C 224.800 292.531,223.749 294.631,222.464 297.033 C 216.795 307.630,214.107 312.725,210.348 320.000 C 209.609 321.430,208.910 322.690,208.794 322.800 C 208.679 322.910,207.966 324.260,207.212 325.800 C 206.457 327.340,205.542 329.050,205.179 329.600 C 204.816 330.150,203.637 332.296,202.560 334.369 L 200.600 338.138 200.400 285.503 C 200.290 256.553,200.110 232.786,200.000 232.688 C 199.890 232.590,198.990 232.058,198.000 231.507 C 197.010 230.956,192.902 228.591,188.871 226.252 C 184.840 223.914,181.429 222.000,181.291 222.000 C 180.854 222.000,181.748 222.696,183.300 223.562 C 184.125 224.023,185.430 224.760,186.200 225.200 C 186.970 225.640,188.230 226.360,189.000 226.800 C 189.770 227.240,191.030 227.960,191.800 228.400 C 192.570 228.840,193.785 229.535,194.500 229.943 C 195.215 230.352,196.610 231.145,197.600 231.704 L 199.400 232.722 199.600 285.661 C 199.710 314.777,199.936 338.810,200.102 339.066 C 200.269 339.322,200.179 339.623,199.902 339.734 C 197.366 340.757,214.336 339.317,220.200 338.012 C 225.604 336.810,230.120 335.586,229.914 335.381 C 229.835 335.301,228.426 335.589,226.785 336.020 C 213.650 339.468,198.740 340.725,201.162 338.180 C 201.360 337.971,202.465 336.000,203.616 333.800 C 204.768 331.600,206.380 328.540,207.200 327.000 C 208.020 325.460,209.633 322.400,210.784 320.200 C 211.936 318.000,213.380 315.300,213.994 314.200 C 214.607 313.100,215.967 310.580,217.015 308.600 C 218.064 306.620,219.500 303.920,220.207 302.600 C 225.164 293.337,227.685 288.588,230.185 283.800 C 232.543 279.285,235.204 274.286,237.318 270.400 C 238.473 268.276,240.408 264.643,243.282 259.200 C 244.037 257.770,245.609 254.800,246.776 252.600 C 247.942 250.400,249.803 246.890,250.911 244.800 C 252.019 242.710,253.415 240.100,254.014 239.000 C 255.163 236.890,257.054 233.328,260.700 226.400 C 261.916 224.090,263.226 221.660,263.611 221.000 C 263.997 220.340,265.488 217.550,266.924 214.800 C 269.114 210.606,270.858 207.342,273.872 201.800 C 274.111 201.360,274.546 200.460,274.839 199.800 C 275.132 199.140,275.664 198.150,276.023 197.600 C 276.381 197.050,277.824 194.395,279.229 191.700 C 280.634 189.005,281.901 186.800,282.045 186.800 C 282.268 186.800,283.979 189.346,286.346 193.200 C 287.481 195.047,290.075 200.028,290.981 202.100 C 291.881 204.157,292.151 203.999,291.323 201.900 C 290.693 200.306,290.235 199.404,287.848 195.072 C 286.981 193.498,284.609 189.549,283.180 187.300 C 282.282 185.888,281.450 186.227,280.229 188.500 M116.253 188.100 L 115.533 189.400 116.358 188.400 C 117.089 187.513,117.414 186.800,117.086 186.800 C 117.024 186.800,116.649 187.385,116.253 188.100 M122.448 188.561 C 122.931 189.084,127.322 191.611,127.478 191.455 C 127.565 191.368,126.863 190.850,125.918 190.304 C 123.607 188.967,122.146 188.233,122.448 188.561 M129.603 192.667 C 129.605 192.850,130.010 193.197,130.503 193.437 C 130.996 193.678,135.701 196.337,140.957 199.347 C 146.213 202.357,150.585 204.748,150.672 204.661 C 150.812 204.521,148.297 203.012,142.400 199.697 C 138.676 197.604,132.152 193.871,130.900 193.117 C 130.185 192.687,129.601 192.484,129.603 192.667 M172.620 193.135 C 172.829 193.319,174.080 194.049,175.400 194.757 C 176.720 195.465,177.350 195.684,176.800 195.244 C 175.215 193.975,171.377 192.039,172.620 193.135 M178.000 196.157 C 178.000 196.419,184.511 200.022,184.680 199.854 C 184.766 199.767,183.793 199.097,182.518 198.363 C 178.394 195.991,178.000 195.799,178.000 196.157 M292.034 204.305 C 292.015 204.583,292.167 205.123,292.371 205.505 C 292.575 205.887,292.849 206.541,292.980 206.957 C 293.111 207.374,293.318 207.615,293.440 207.493 C 293.562 207.371,293.303 206.491,292.864 205.536 C 292.426 204.581,292.052 204.027,292.034 204.305 M152.000 205.564 C 152.550 206.014,153.180 206.383,153.400 206.385 C 153.828 206.388,153.105 205.834,151.800 205.160 C 151.269 204.885,151.336 205.021,152.000 205.564 M154.800 207.167 C 155.763 207.952,156.400 208.208,156.400 207.810 C 156.400 207.706,155.815 207.335,155.100 206.986 L 153.800 206.352 154.800 207.167 M157.600 208.764 C 158.150 209.214,158.780 209.583,159.000 209.585 C 159.428 209.588,158.705 209.034,157.400 208.360 C 156.869 208.085,156.936 208.221,157.600 208.764 M160.400 210.364 C 160.950 210.814,161.511 211.186,161.647 211.191 C 161.783 211.196,164.028 212.477,166.636 214.038 C 171.518 216.961,176.197 219.400,174.439 218.107 C 173.911 217.718,172.471 216.842,171.239 216.161 C 170.008 215.479,168.325 214.534,167.500 214.061 C 160.563 210.081,159.161 209.351,160.400 210.364 M294.428 210.676 C 294.413 211.158,294.580 211.664,294.800 211.800 C 295.273 212.092,295.273 211.701,294.800 210.600 C 294.469 209.829,294.455 209.831,294.428 210.676 M295.228 213.076 C 295.213 213.558,295.380 214.064,295.600 214.200 C 296.073 214.492,296.073 214.101,295.600 213.000 C 295.269 212.229,295.255 212.231,295.228 213.076 M296.034 215.800 C 296.022 216.240,296.187 216.870,296.400 217.200 C 296.914 217.995,296.914 216.996,296.400 215.800 L 296.056 215.000 296.034 215.800 M296.856 218.600 C 296.856 219.040,297.011 219.760,297.200 220.200 L 297.544 221.000 297.544 220.200 C 297.544 219.760,297.389 219.040,297.200 218.600 L 296.856 217.800 296.856 218.600 M175.600 218.981 C 175.600 219.211,180.349 222.003,180.721 221.991 C 181.139 221.978,179.063 220.421,178.600 220.400 C 178.380 220.390,177.750 220.030,177.200 219.600 C 176.238 218.848,175.600 218.601,175.600 218.981 M297.675 222.200 C 297.665 222.860,297.811 223.760,298.000 224.200 L 298.344 225.000 298.325 224.200 C 298.314 223.760,298.168 222.860,298.000 222.200 L 297.695 221.000 297.675 222.200 M298.480 226.600 C 298.480 227.260,298.624 228.250,298.800 228.800 C 299.111 229.772,299.120 229.767,299.120 228.600 C 299.120 227.940,298.976 226.950,298.800 226.400 C 298.489 225.428,298.480 225.433,298.480 226.600 M100.493 230.800 C 100.493 231.570,100.575 231.885,100.676 231.500 C 100.776 231.115,100.776 230.485,100.676 230.100 C 100.575 229.715,100.493 230.030,100.493 230.800 M299.293 232.800 C 299.293 233.790,299.425 235.770,299.586 237.200 L 299.878 239.800 299.916 237.000 C 299.937 235.460,299.805 233.480,299.623 232.600 L 299.292 231.000 299.293 232.800 M299.445 248.322 C 299.261 250.589,299.204 252.537,299.318 252.652 C 299.613 252.946,300.100 247.282,299.925 245.600 C 299.844 244.830,299.628 246.055,299.445 248.322 M100.093 250.800 C 100.093 251.570,100.175 251.885,100.276 251.500 C 100.376 251.115,100.376 250.485,100.276 250.100 C 100.175 249.715,100.093 250.030,100.093 250.800 M298.582 256.182 C 298.429 257.202,298.402 258.135,298.522 258.255 C 298.642 258.375,298.865 257.639,299.018 256.618 C 299.171 255.598,299.198 254.665,299.078 254.545 C 298.958 254.425,298.735 255.161,298.582 256.182 M100.868 256.800 C 100.888 257.839,101.518 259.546,101.532 258.600 C 101.538 258.160,101.389 257.440,101.200 257.000 C 100.989 256.510,100.861 256.432,100.868 256.800 M297.876 260.010 C 297.730 260.555,297.627 261.450,297.646 262.000 C 297.671 262.718,297.784 262.557,298.049 261.427 C 298.455 259.695,298.300 258.425,297.876 260.010 M297.000 264.400 C 296.848 265.091,296.814 265.747,296.924 265.857 C 297.034 265.967,297.248 265.491,297.400 264.800 C 297.552 264.109,297.586 263.453,297.476 263.343 C 297.366 263.233,297.152 263.709,297.000 264.400 M296.273 266.953 C 296.123 267.345,296.011 267.966,296.025 268.333 C 296.042 268.775,296.181 268.674,296.437 268.034 C 296.649 267.503,296.761 266.882,296.685 266.654 C 296.609 266.427,296.424 266.561,296.273 266.953 M295.467 269.867 C 295.320 270.013,295.211 270.508,295.225 270.967 C 295.249 271.733,295.282 271.723,295.634 270.842 C 296.026 269.863,295.944 269.389,295.467 269.867 M294.667 272.267 C 294.520 272.413,294.411 272.908,294.425 273.367 C 294.449 274.133,294.482 274.123,294.834 273.242 C 295.226 272.263,295.144 271.789,294.667 272.267 M292.633 278.033 C 292.240 278.924,292.005 279.738,292.109 279.843 C 292.214 279.948,292.600 279.283,292.967 278.367 C 293.834 276.200,293.562 275.928,292.633 278.033 M289.124 285.500 C 286.958 289.775,283.184 296.102,281.442 298.377 C 281.105 298.816,281.120 298.881,281.505 298.650 C 282.793 297.876,290.034 285.519,291.575 281.466 C 292.410 279.268,291.629 280.554,289.124 285.500 M279.899 300.300 C 279.226 301.400,278.614 302.136,274.692 306.560 C 269.207 312.746,262.550 318.434,255.100 323.299 C 250.976 325.992,249.173 327.448,252.300 325.559 C 263.512 318.788,272.767 310.425,280.918 299.700 C 281.136 299.414,281.143 299.200,280.935 299.200 C 280.736 299.200,280.270 299.695,279.899 300.300 M122.434 304.247 C 122.965 304.933,123.480 305.423,123.579 305.335 C 123.677 305.247,123.243 304.686,122.613 304.088 L 121.469 303.000 122.434 304.247 M130.000 312.125 C 130.000 312.194,130.585 312.779,131.300 313.425 L 132.600 314.600 131.425 313.300 C 130.330 312.088,130.000 311.816,130.000 312.125 M245.400 328.839 C 242.980 330.120,241.138 331.175,241.307 331.184 C 241.738 331.206,250.400 326.836,250.400 326.597 C 250.400 326.238,249.837 326.491,245.400 328.839 M235.200 333.237 C 232.450 334.303,230.507 335.180,230.881 335.187 C 231.256 335.194,232.066 334.998,232.681 334.750 C 233.297 334.503,234.160 334.164,234.600 333.997 C 239.016 332.322,241.767 331.041,240.500 331.249 C 240.335 331.277,237.950 332.171,235.200 333.237 M179.000 338.000 C 179.440 338.189,180.070 338.344,180.400 338.344 C 180.778 338.344,180.704 338.217,180.200 338.000 C 179.760 337.811,179.130 337.656,178.800 337.656 C 178.422 337.656,178.496 337.783,179.000 338.000 M183.000 338.781 C 183.768 339.129,185.910 339.356,185.567 339.053 C 185.475 338.972,184.680 338.796,183.800 338.662 C 182.685 338.493,182.442 338.529,183.000 338.781 M190.900 339.887 C 191.505 339.978,192.495 339.978,193.100 339.887 C 193.705 339.795,193.210 339.720,192.000 339.720 C 190.790 339.720,190.295 339.795,190.900 339.887 " stroke="none" fill="#58c2fc" fill-rule="evenodd"></path></g></svg>