<svg id="svg" version="1.1" xmlns="http://www.w3.org/2000/svg" xmlns:xlink="http://www.w3.org/1999/xlink" width="400" height="400" viewBox="0, 0, 400,400"><g id="svgg"><path id="path0" d="M234.400 67.400 C 233.660 68.163,233.145 68.878,233.255 68.988 C 233.365 69.098,234.060 68.563,234.800 67.800 C 235.540 67.037,236.055 66.322,235.945 66.212 C 235.835 66.102,235.140 66.637,234.400 67.400 M216.981 76.423 C 216.112 77.316,215.706 77.931,216.079 77.789 C 216.662 77.567,219.090 74.800,218.702 74.800 C 218.625 74.800,217.851 75.531,216.981 76.423 M222.860 83.842 C 222.562 84.178,222.399 84.532,222.495 84.629 C 222.592 84.726,222.998 84.444,223.398 84.002 C 223.797 83.561,223.961 83.207,223.762 83.215 C 223.563 83.224,223.157 83.505,222.860 83.842 M208.725 87.898 C 207.597 89.211,207.494 89.805,208.590 88.674 C 209.190 88.054,209.602 87.468,209.505 87.371 C 209.408 87.274,209.057 87.511,208.725 87.898 M204.723 93.900 C 203.171 95.707,203.336 96.095,204.935 94.400 C 205.558 93.740,205.900 93.200,205.696 93.200 C 205.491 93.200,205.053 93.515,204.723 93.900 M215.200 99.224 C 215.200 99.677,215.380 99.936,215.600 99.800 C 215.820 99.664,216.000 99.293,216.000 98.976 C 216.000 98.659,215.820 98.400,215.600 98.400 C 215.380 98.400,215.200 98.771,215.200 99.224 M209.488 115.733 C 209.042 116.866,209.115 117.445,209.638 116.922 C 209.878 116.682,210.008 116.151,209.926 115.742 C 209.782 115.026,209.766 115.026,209.488 115.733 M208.493 121.600 C 208.493 122.370,208.575 122.685,208.676 122.300 C 208.776 121.915,208.776 121.285,208.676 120.900 C 208.575 120.515,208.493 120.830,208.493 121.600 M207.200 129.000 C 207.200 129.330,207.380 129.600,207.600 129.600 C 207.820 129.600,208.000 129.330,208.000 129.000 C 208.000 128.670,207.820 128.400,207.600 128.400 C 207.380 128.400,207.200 128.670,207.200 129.000 M206.337 136.200 C 206.259 137.190,206.331 138.000,206.497 138.000 C 206.664 138.000,206.800 137.190,206.800 136.200 C 206.800 135.210,206.728 134.400,206.640 134.400 C 206.552 134.400,206.416 135.210,206.337 136.200 M184.217 138.500 C 183.882 139.564,183.750 141.609,184.036 141.313 C 184.439 140.895,184.959 138.000,184.632 138.000 C 184.491 138.000,184.304 138.225,184.217 138.500 M205.371 141.412 C 205.226 142.188,205.174 145.833,205.256 149.512 C 205.338 153.190,205.346 155.792,205.274 155.294 C 205.202 154.796,204.990 154.482,204.804 154.598 C 204.409 154.842,203.624 152.571,203.699 151.400 C 203.881 148.556,202.650 145.449,202.148 147.484 C 201.996 148.098,201.463 149.253,200.962 150.050 L 200.053 151.501 196.126 151.779 C 193.967 151.932,191.570 152.219,190.800 152.416 C 190.030 152.613,188.815 152.818,188.100 152.872 C 187.385 152.926,186.793 153.157,186.784 153.385 C 186.748 154.314,185.364 151.209,185.231 149.900 C 185.169 149.300,183.968 149.619,183.723 150.300 C 183.585 150.685,183.156 151.308,182.769 151.684 C 182.354 152.089,182.153 152.700,182.278 153.178 C 182.395 153.624,182.353 154.306,182.185 154.694 C 182.017 155.082,181.840 155.760,181.791 156.200 C 181.584 158.064,181.122 158.861,179.993 159.304 C 179.667 159.432,179.608 159.551,179.863 159.568 C 180.138 159.587,180.232 159.955,180.095 160.479 C 179.875 161.320,179.852 161.324,179.540 160.579 C 179.351 160.126,179.278 161.186,179.366 163.108 C 179.498 166.006,179.435 166.403,178.858 166.308 C 176.856 165.980,176.246 210.603,178.199 214.519 C 178.530 215.181,178.800 216.585,178.800 217.638 C 178.800 218.691,178.980 219.664,179.200 219.800 C 179.420 219.936,179.601 220.802,179.602 221.724 C 179.604 222.646,179.874 223.916,180.202 224.546 C 180.593 225.294,180.800 226.846,180.800 229.022 C 180.800 230.854,180.980 232.464,181.200 232.600 C 181.420 232.736,181.600 234.422,181.600 236.347 C 181.600 238.805,181.775 240.078,182.187 240.624 C 182.568 241.127,182.781 242.384,182.794 244.200 C 182.805 245.740,183.191 248.620,183.652 250.600 C 184.113 252.580,184.575 255.370,184.678 256.800 C 184.781 258.230,185.030 259.571,185.232 259.780 C 185.435 259.989,185.600 260.649,185.600 261.247 C 185.600 262.737,185.998 263.648,186.510 263.332 C 186.777 263.167,186.841 263.317,186.681 263.734 C 186.540 264.100,186.569 264.400,186.745 264.400 C 186.922 264.400,187.259 265.030,187.495 265.800 C 187.737 266.588,187.767 267.200,187.563 267.200 C 187.363 267.200,187.200 267.391,187.200 267.624 C 187.200 267.857,187.368 267.944,187.572 267.817 C 187.777 267.691,188.058 267.770,188.196 267.993 C 188.334 268.217,188.262 268.400,188.036 268.400 C 187.810 268.400,187.742 268.706,187.886 269.080 C 188.049 269.505,188.207 269.580,188.307 269.280 C 188.395 269.016,188.602 268.800,188.767 268.800 C 189.070 268.800,189.165 269.182,189.317 271.000 C 189.363 271.550,189.535 272.000,189.700 272.000 C 189.865 272.000,190.000 272.371,190.000 272.824 C 190.000 273.277,190.180 273.536,190.400 273.400 C 190.940 273.067,190.905 273.307,190.222 274.622 C 189.678 275.672,190.063 277.670,190.689 277.044 C 190.813 276.920,190.686 276.545,190.408 276.210 C 189.981 275.695,190.038 275.600,190.775 275.600 C 191.255 275.600,191.536 275.780,191.400 276.000 C 191.264 276.220,191.433 276.400,191.776 276.400 C 192.521 276.400,192.610 277.057,191.900 277.314 C 191.612 277.419,191.866 277.714,192.500 278.012 C 193.603 278.530,193.979 279.200,193.167 279.200 C 192.928 279.200,192.803 279.409,192.888 279.663 C 193.112 280.335,194.789 280.494,195.030 279.865 C 195.188 279.455,196.732 279.316,201.717 279.264 C 208.429 279.194,212.616 278.747,216.400 277.697 C 220.440 276.576,223.796 275.495,224.200 275.185 C 224.420 275.016,225.732 274.508,227.114 274.056 C 228.497 273.604,230.128 272.879,230.737 272.445 C 232.741 271.018,237.514 268.800,238.582 268.800 C 239.515 268.800,239.580 268.711,239.186 267.974 C 238.339 266.391,238.351 265.545,239.214 266.007 C 239.854 266.350,239.939 266.306,239.723 265.744 C 239.549 265.291,239.617 265.163,239.927 265.355 C 240.214 265.532,240.313 265.438,240.186 265.106 C 240.073 264.812,239.638 264.571,239.219 264.571 C 238.801 264.571,238.534 264.694,238.627 264.844 C 238.720 264.994,238.526 265.219,238.198 265.346 C 237.799 265.498,237.600 265.327,237.600 264.830 C 237.600 264.421,237.867 263.983,238.193 263.858 C 238.561 263.717,238.687 263.371,238.525 262.950 C 238.329 262.439,238.406 262.351,238.832 262.599 C 239.169 262.794,239.264 262.780,239.067 262.564 C 238.883 262.364,238.538 262.200,238.300 262.200 C 238.062 262.200,237.783 261.950,237.681 261.644 C 237.562 261.285,237.670 261.196,237.988 261.393 C 238.376 261.632,238.375 261.495,237.986 260.748 C 237.342 259.513,236.999 259.196,237.345 260.157 C 237.576 260.796,237.525 260.836,237.014 260.411 C 236.681 260.135,236.507 259.750,236.628 259.555 C 236.749 259.360,236.678 259.200,236.470 259.200 C 236.263 259.200,236.008 258.755,235.904 258.212 C 235.801 257.669,235.868 257.318,236.053 257.433 C 236.239 257.548,236.284 257.362,236.153 257.021 C 236.022 256.679,235.574 256.400,235.157 256.400 C 234.674 256.400,234.400 256.119,234.400 255.624 C 234.400 255.197,234.215 254.733,233.989 254.593 C 233.764 254.454,233.629 254.042,233.689 253.679 C 233.750 253.315,233.590 253.014,233.333 253.009 C 233.077 253.004,232.717 252.836,232.533 252.636 C 232.340 252.424,232.410 252.392,232.700 252.559 C 233.415 252.971,233.347 251.420,232.624 250.820 C 232.307 250.557,232.141 250.098,232.255 249.800 C 232.377 249.484,231.993 249.004,231.332 248.645 C 230.707 248.307,230.469 248.019,230.800 248.003 C 231.333 247.978,231.333 247.920,230.800 247.486 C 230.470 247.217,230.150 246.728,230.089 246.399 C 229.909 245.432,229.087 243.883,228.110 242.669 C 227.610 242.047,227.200 241.164,227.200 240.707 C 227.200 240.250,226.750 239.286,226.200 238.564 C 225.650 237.843,225.200 236.892,225.200 236.450 C 225.200 236.009,225.020 235.536,224.800 235.400 C 224.580 235.264,224.400 234.735,224.400 234.225 C 224.400 233.715,224.130 233.074,223.800 232.800 C 223.470 232.526,223.200 232.141,223.200 231.943 C 223.200 231.746,222.750 230.871,222.200 230.000 C 221.650 229.129,221.200 227.973,221.200 227.432 C 221.200 226.890,221.020 226.336,220.800 226.200 C 220.580 226.064,220.400 225.555,220.400 225.069 C 220.400 224.583,219.950 223.523,219.400 222.714 C 218.835 221.882,218.399 220.668,218.397 219.921 C 218.396 219.192,217.695 217.192,216.833 215.460 C 215.689 213.161,215.138 211.393,214.773 208.860 C 214.499 206.957,214.033 204.914,213.738 204.320 C 213.442 203.726,213.200 202.713,213.200 202.070 C 213.200 201.427,212.761 200.113,212.224 199.150 C 211.611 198.051,211.072 196.135,210.775 194.000 C 209.967 188.177,209.677 186.315,208.998 182.600 C 208.636 180.620,208.190 177.470,208.007 175.600 C 207.824 173.730,207.559 171.750,207.418 171.200 C 207.278 170.650,207.031 168.760,206.869 167.000 C 206.663 164.750,206.426 163.831,206.071 163.906 C 205.677 163.988,205.667 163.823,206.023 163.157 C 206.382 162.485,206.373 162.370,205.977 162.614 C 205.612 162.840,205.536 162.688,205.700 162.063 C 205.824 161.588,205.762 161.200,205.563 161.200 C 205.363 161.200,205.218 160.705,205.240 160.100 L 205.280 159.000 205.600 160.000 C 205.780 160.561,205.938 156.386,205.960 150.500 C 205.999 140.176,205.898 138.606,205.371 141.412 M180.243 154.233 C 179.907 155.107,179.936 158.197,180.276 157.857 C 180.566 157.568,180.902 153.600,180.638 153.600 C 180.554 153.600,180.376 153.885,180.243 154.233 M250.400 284.330 C 250.400 284.705,251.895 286.118,252.800 286.601 C 253.130 286.776,252.780 286.263,252.022 285.460 C 250.565 283.917,250.400 283.802,250.400 284.330 M203.568 310.144 C 204.101 310.723,204.614 311.120,204.708 311.025 C 204.995 310.738,204.406 310.031,203.478 309.548 C 202.641 309.113,202.645 309.140,203.568 310.144 M208.600 316.688 C 209.040 316.795,209.715 317.162,210.100 317.503 C 210.936 318.245,211.047 317.789,210.229 316.971 C 209.914 316.657,209.239 316.421,208.729 316.446 C 207.910 316.487,207.895 316.516,208.600 316.688 M212.000 318.553 C 212.000 318.638,212.450 318.793,213.000 318.898 C 213.550 319.003,214.000 318.934,214.000 318.745 C 214.000 318.555,213.550 318.400,213.000 318.400 C 212.450 318.400,212.000 318.469,212.000 318.553 M277.200 323.149 C 277.200 323.557,280.643 326.800,281.076 326.800 C 281.238 326.800,280.483 325.900,279.400 324.800 C 277.317 322.685,277.200 322.597,277.200 323.149 M227.802 325.202 C 228.202 325.644,228.611 325.922,228.712 325.821 C 228.928 325.605,227.788 324.400,227.367 324.400 C 227.207 324.400,227.403 324.761,227.802 325.202 M281.600 328.508 C 281.600 328.644,282.247 329.440,283.038 330.278 C 283.828 331.115,284.295 331.440,284.074 331.000 C 283.650 330.152,281.600 328.088,281.600 328.508 M285.200 333.059 C 285.200 333.621,287.669 336.064,287.951 335.782 C 288.066 335.667,287.494 334.907,286.680 334.093 C 285.866 333.279,285.200 332.814,285.200 333.059 M258.400 336.623 C 259.915 336.953,262.000 337.009,262.000 336.720 C 262.000 336.544,261.055 336.421,259.900 336.446 C 258.745 336.472,258.070 336.552,258.400 336.623 M266.105 338.687 C 266.714 338.779,267.614 338.777,268.105 338.682 C 268.597 338.587,268.100 338.511,267.000 338.514 C 265.900 338.517,265.497 338.595,266.105 338.687 M279.000 341.600 C 279.136 341.820,279.607 342.000,280.047 342.000 C 280.487 342.000,280.736 341.820,280.600 341.600 C 280.464 341.380,279.993 341.200,279.553 341.200 C 279.113 341.200,278.864 341.380,279.000 341.600 " stroke="none" fill="#fcbd52" fill-rule="evenodd"></path><path id="path1" d="M96.039 231.036 C 95.447 233.167,95.479 233.296,96.400 232.507 C 97.259 231.772,97.403 230.941,96.830 230.036 C 96.566 229.618,96.360 229.879,96.039 231.036 M95.295 234.065 C 94.694 234.666,94.644 235.600,95.213 235.600 C 95.696 235.600,96.138 234.615,95.933 233.998 C 95.837 233.712,95.626 233.734,95.295 234.065 M94.294 237.049 C 93.658 238.082,93.526 241.200,94.119 241.200 C 94.518 241.200,94.822 240.653,94.996 239.621 C 95.250 238.120,94.754 236.302,94.294 237.049 M93.280 242.080 C 93.016 242.344,92.800 243.053,92.800 243.656 C 92.800 244.259,92.604 244.874,92.365 245.022 C 92.126 245.169,92.019 245.630,92.128 246.046 C 92.236 246.461,92.162 246.700,91.963 246.577 C 91.763 246.454,91.600 246.957,91.600 247.696 C 91.600 248.435,91.437 249.211,91.237 249.420 C 91.037 249.629,90.770 250.790,90.642 252.000 C 90.295 255.302,90.245 255.578,90.036 255.369 C 89.677 255.010,88.835 258.989,88.803 261.200 C 88.786 262.410,88.514 263.850,88.200 264.400 C 87.535 265.564,87.352 271.800,87.995 271.403 C 88.229 271.259,88.285 271.434,88.133 271.830 C 87.964 272.270,88.207 272.773,88.838 273.286 C 89.367 273.717,89.547 273.936,89.238 273.773 C 88.875 273.581,88.774 273.635,88.953 273.923 C 89.430 274.695,92.070 275.195,95.681 275.198 C 97.596 275.199,99.576 275.376,100.081 275.592 C 100.587 275.807,102.530 276.167,104.400 276.392 C 108.814 276.923,110.894 277.321,116.000 278.610 C 118.310 279.194,120.502 279.694,120.871 279.721 C 121.239 279.749,121.454 279.913,121.347 280.086 C 121.240 280.259,121.526 280.400,121.982 280.400 C 122.438 280.400,123.123 280.563,123.505 280.763 C 124.372 281.216,128.325 282.400,128.971 282.400 C 129.235 282.400,130.383 282.850,131.523 283.400 C 132.663 283.950,133.861 284.400,134.186 284.400 C 134.510 284.400,135.435 284.770,136.240 285.223 C 137.046 285.675,137.961 285.947,138.273 285.827 C 138.586 285.707,138.744 285.767,138.624 285.961 C 138.505 286.154,139.080 286.436,139.904 286.587 C 140.727 286.738,142.480 287.360,143.800 287.968 C 147.008 289.447,148.832 290.028,149.320 289.726 C 149.549 289.584,149.600 289.676,149.438 289.938 C 149.252 290.240,149.499 290.400,150.153 290.400 C 150.703 290.400,151.264 290.580,151.400 290.800 C 151.761 291.384,152.494 291.291,152.189 290.700 C 152.047 290.425,152.261 290.583,152.665 291.052 C 153.069 291.521,154.615 292.475,156.100 293.173 C 157.585 293.870,158.800 294.674,158.800 294.958 C 158.800 295.881,160.354 297.006,160.889 296.471 C 161.518 295.842,162.362 295.881,163.746 296.602 C 164.376 296.931,165.310 297.200,165.822 297.200 C 166.334 297.200,166.874 297.396,167.022 297.635 C 167.169 297.874,167.630 297.981,168.046 297.872 C 168.461 297.764,168.712 297.819,168.602 297.996 C 168.493 298.173,169.920 299.068,171.772 299.986 C 175.079 301.624,175.137 301.678,174.936 302.927 C 174.776 303.917,174.943 304.399,175.689 305.098 L 176.647 305.996 177.983 304.618 L 179.318 303.240 181.092 304.230 C 182.726 305.143,185.841 305.513,185.361 304.737 C 185.259 304.571,184.928 304.529,184.628 304.645 C 184.327 304.760,183.962 304.662,183.817 304.427 C 183.672 304.192,183.090 304.000,182.523 304.000 C 181.957 304.000,181.184 303.643,180.806 303.206 C 180.203 302.511,179.223 302.131,177.775 302.030 C 177.542 302.013,176.921 301.599,176.395 301.109 C 175.869 300.620,174.980 300.158,174.420 300.083 C 173.859 300.009,173.040 299.635,172.600 299.253 C 172.160 298.871,171.080 298.208,170.200 297.779 C 169.320 297.351,168.540 296.864,168.466 296.698 C 168.392 296.531,168.187 296.484,168.010 296.594 C 167.554 296.876,163.600 295.175,163.600 294.697 C 163.600 294.468,163.085 294.403,162.385 294.543 C 161.505 294.719,161.105 294.619,160.937 294.181 C 160.794 293.807,160.424 293.665,159.970 293.810 C 159.486 293.963,159.058 293.761,158.721 293.222 C 158.438 292.770,157.970 292.400,157.680 292.400 C 157.383 292.400,157.278 292.198,157.438 291.938 C 157.603 291.671,157.549 291.584,157.309 291.733 C 157.081 291.874,156.386 291.590,155.766 291.102 C 155.146 290.614,154.799 290.481,154.996 290.807 C 155.301 291.313,155.256 291.321,154.694 290.866 C 154.332 290.572,153.819 290.464,153.556 290.627 C 153.277 290.799,153.181 290.755,153.326 290.520 C 153.598 290.079,151.705 289.009,150.900 289.148 C 150.625 289.196,150.400 289.047,150.400 288.818 C 150.400 288.588,150.124 288.400,149.787 288.400 C 149.451 288.400,149.076 288.141,148.954 287.825 C 148.833 287.509,148.479 287.348,148.167 287.468 C 147.817 287.602,147.600 287.430,147.600 287.019 C 147.600 286.653,147.444 286.449,147.253 286.567 C 147.063 286.685,146.585 286.425,146.191 285.991 C 145.798 285.556,145.127 285.200,144.701 285.200 C 144.271 285.200,143.835 284.856,143.723 284.428 C 143.611 283.997,143.289 283.745,142.997 283.857 C 142.703 283.969,142.356 283.691,142.207 283.223 C 142.062 282.764,141.775 282.492,141.571 282.618 C 141.367 282.744,141.200 282.646,141.200 282.400 C 141.200 282.154,140.992 282.081,140.738 282.238 C 140.482 282.396,140.384 282.350,140.518 282.133 C 140.650 281.918,140.408 281.442,139.980 281.075 C 139.551 280.708,139.200 280.493,139.200 280.597 C 139.200 280.800,138.050 279.828,134.444 276.579 C 133.210 275.467,131.665 274.221,131.010 273.811 C 129.511 272.870,129.597 272.937,125.932 269.814 C 124.244 268.376,122.709 267.200,122.520 267.200 C 122.331 267.200,121.566 266.553,120.819 265.762 C 120.073 264.971,118.819 263.914,118.031 263.414 C 117.244 262.913,115.496 261.536,114.146 260.352 C 111.755 258.256,110.523 257.255,107.800 255.200 C 104.428 252.654,101.633 250.262,101.438 249.756 C 101.321 249.450,100.990 249.200,100.702 249.200 C 100.414 249.200,99.463 248.486,98.589 247.613 C 97.715 246.740,96.769 246.020,96.487 246.013 C 96.206 246.006,95.867 245.720,95.736 245.377 C 95.604 245.034,95.241 244.852,94.928 244.972 C 94.615 245.093,94.461 245.025,94.586 244.823 C 94.711 244.621,94.644 244.351,94.436 244.222 C 94.229 244.094,94.128 243.452,94.211 242.795 C 94.371 241.527,94.067 241.293,93.280 242.080 M88.290 268.493 C 88.201 269.212,88.126 268.720,88.124 267.400 C 88.122 266.080,88.195 265.492,88.286 266.093 C 88.377 266.694,88.379 267.774,88.290 268.493 M105.600 275.845 C 105.600 275.930,105.060 276.000,104.400 276.000 C 103.740 276.000,103.200 275.851,103.200 275.669 C 103.200 275.487,103.740 275.418,104.400 275.515 C 105.060 275.612,105.600 275.760,105.600 275.845 M78.300 289.068 C 77.035 289.163,76.000 289.392,76.000 289.577 C 76.000 289.763,75.721 290.022,75.379 290.153 C 75.023 290.289,74.863 290.222,75.003 289.995 C 75.140 289.773,74.788 289.600,74.200 289.600 C 73.624 289.600,73.248 289.754,73.364 289.942 C 73.481 290.130,73.106 290.195,72.533 290.085 C 71.764 289.938,71.285 290.137,70.710 290.843 C 70.281 291.369,70.059 291.556,70.215 291.257 C 70.432 290.843,70.274 290.778,69.550 290.980 C 67.528 291.547,65.666 292.514,65.765 292.947 C 65.822 293.196,65.793 293.265,65.701 293.100 C 65.413 292.585,64.639 292.785,63.600 293.644 C 63.050 294.098,62.853 294.336,63.162 294.173 C 63.532 293.977,63.626 294.034,63.438 294.338 C 63.281 294.592,62.876 294.800,62.538 294.800 C 62.200 294.800,61.359 295.205,60.670 295.700 C 59.260 296.712,58.088 297.436,57.200 297.844 C 55.785 298.493,54.800 299.780,54.807 300.970 C 54.811 301.646,53.931 304.000,52.851 306.200 C 50.629 310.727,49.777 313.241,50.141 314.191 C 50.279 314.549,50.230 314.742,50.034 314.621 C 49.499 314.290,49.185 317.730,48.951 326.491 C 48.586 340.141,49.438 343.200,53.605 343.200 C 55.872 343.200,58.287 341.074,56.900 340.299 C 56.735 340.207,56.810 340.180,57.067 340.240 C 57.748 340.400,58.117 339.127,57.514 338.702 C 57.115 338.421,57.130 338.374,57.577 338.495 C 57.895 338.581,58.679 338.055,59.319 337.326 C 61.109 335.287,62.293 335.495,60.753 337.578 C 60.258 338.248,60.034 338.932,60.215 339.224 C 60.414 339.547,60.360 339.623,60.062 339.438 C 59.760 339.252,59.600 339.499,59.600 340.153 C 59.600 340.703,59.420 341.264,59.200 341.400 C 57.893 342.208,59.453 356.400,60.849 356.400 C 61.399 356.400,61.261 355.719,60.571 355.029 C 60.176 354.634,60.118 354.400,60.415 354.400 C 60.739 354.400,60.809 353.928,60.637 352.900 C 60.122 349.806,60.043 348.813,60.317 348.871 C 60.725 348.958,62.929 348.340,63.400 348.007 C 63.620 347.851,64.610 347.516,65.600 347.262 C 71.438 345.764,80.782 346.027,82.600 347.740 C 82.859 347.984,82.823 348.018,82.500 347.835 C 82.225 347.680,82.000 347.743,82.000 347.976 C 82.000 348.209,81.662 348.400,81.249 348.400 C 80.351 348.400,79.427 349.397,79.786 349.978 C 79.931 350.211,79.806 350.300,79.500 350.183 C 78.312 349.727,74.043 352.299,74.570 353.152 C 74.772 353.478,75.157 353.377,75.882 352.807 C 76.446 352.363,77.443 352.000,78.096 352.000 C 79.136 352.000,81.809 350.342,81.411 349.944 C 80.883 349.416,96.367 349.075,97.001 349.600 C 97.292 349.843,98.852 350.136,100.466 350.251 C 102.079 350.367,103.760 350.617,104.200 350.806 C 104.640 350.996,105.630 351.244,106.400 351.358 C 107.170 351.472,109.150 351.847,110.800 352.191 C 112.450 352.535,114.700 352.959,115.800 353.133 C 116.900 353.308,118.193 353.664,118.674 353.925 C 119.154 354.186,120.063 354.400,120.694 354.400 C 121.324 354.400,122.011 354.562,122.220 354.759 C 122.429 354.956,123.320 355.202,124.200 355.305 C 125.080 355.408,126.430 355.723,127.200 356.006 C 132.104 357.806,133.162 358.070,134.510 357.831 C 135.351 357.682,135.536 357.715,135.041 357.927 C 134.212 358.282,139.036 359.651,141.462 359.749 C 142.156 359.777,142.640 359.935,142.538 360.100 C 142.436 360.265,142.713 360.400,143.153 360.400 C 143.593 360.400,144.064 360.580,144.200 360.800 C 144.336 361.020,144.966 361.200,145.600 361.200 C 146.234 361.200,146.874 361.396,147.022 361.635 C 147.169 361.874,147.630 361.981,148.046 361.872 C 148.461 361.764,148.700 361.838,148.577 362.037 C 148.454 362.237,148.906 362.400,149.582 362.400 C 150.258 362.400,151.123 362.556,151.505 362.746 C 152.720 363.352,154.921 364.047,157.600 364.670 C 159.030 365.002,160.497 365.428,160.861 365.616 C 161.911 366.159,166.206 367.199,167.458 367.213 C 168.086 367.220,168.949 367.490,169.376 367.813 C 169.804 368.136,170.558 368.400,171.053 368.400 C 171.548 368.400,172.064 368.580,172.200 368.800 C 172.336 369.020,173.112 369.206,173.924 369.214 C 174.736 369.222,175.850 369.486,176.400 369.800 C 176.950 370.114,177.974 370.378,178.676 370.386 C 179.378 370.394,180.064 370.580,180.200 370.800 C 180.336 371.020,181.078 371.200,181.850 371.200 C 182.621 371.200,183.614 371.393,184.055 371.629 C 185.164 372.223,189.023 373.200,190.258 373.200 C 190.818 373.200,191.754 373.453,192.338 373.763 C 192.922 374.072,194.480 374.538,195.800 374.798 C 197.120 375.058,198.513 375.435,198.895 375.635 C 199.735 376.077,201.070 376.113,201.301 375.700 C 201.393 375.535,201.422 375.603,201.366 375.851 C 201.265 376.289,202.666 376.585,207.000 377.041 C 208.100 377.157,209.630 377.489,210.400 377.779 C 212.002 378.383,216.168 379.200,217.644 379.200 C 218.192 379.200,218.821 379.381,219.043 379.603 C 219.265 379.825,221.146 380.193,223.223 380.421 C 226.810 380.815,228.007 380.980,234.600 381.988 C 241.504 383.044,242.929 383.200,245.697 383.200 C 247.461 383.200,248.833 383.393,249.122 383.682 C 250.559 385.119,258.305 383.610,257.878 381.977 C 257.766 381.549,257.838 381.300,258.037 381.423 C 258.237 381.546,258.400 381.086,258.400 380.400 C 258.400 379.714,258.240 379.251,258.045 379.372 C 257.850 379.493,257.715 379.286,257.745 378.913 C 257.818 378.017,256.118 377.221,253.508 376.927 C 252.349 376.797,251.172 376.510,250.893 376.290 C 250.612 376.069,249.452 375.990,248.293 376.113 C 247.142 376.236,246.555 376.199,246.989 376.032 C 247.556 375.813,247.105 375.649,245.389 375.449 C 240.589 374.891,238.174 374.494,237.000 374.071 C 235.240 373.438,229.997 372.310,228.538 372.251 C 227.844 372.223,227.360 372.065,227.462 371.900 C 227.564 371.735,227.094 371.600,226.418 371.600 C 225.742 371.600,224.877 371.438,224.495 371.239 C 223.116 370.523,220.446 369.897,219.809 370.141 C 219.451 370.279,219.252 370.239,219.367 370.054 C 219.655 369.587,214.196 368.279,212.000 368.288 C 210.706 368.294,210.425 368.206,211.000 367.976 C 211.653 367.715,211.560 367.651,210.495 367.628 C 209.777 367.613,208.877 367.444,208.495 367.254 C 207.280 366.648,205.079 365.953,202.400 365.330 C 200.970 364.998,199.503 364.572,199.139 364.384 C 198.776 364.196,197.336 363.747,195.939 363.385 C 194.543 363.024,193.176 362.543,192.902 362.317 C 192.629 362.091,191.959 361.991,191.414 362.095 C 190.870 362.199,190.514 362.139,190.624 361.961 C 190.734 361.783,190.054 361.450,189.112 361.221 C 188.170 360.992,186.860 360.608,186.200 360.368 C 185.540 360.128,184.640 359.842,184.200 359.732 C 183.760 359.623,183.040 359.389,182.600 359.212 C 180.574 358.399,178.402 357.914,177.809 358.141 C 177.430 358.287,177.260 358.226,177.403 357.995 C 177.537 357.778,177.287 357.600,176.847 357.600 C 176.407 357.600,175.936 357.420,175.800 357.200 C 175.664 356.980,175.151 356.800,174.661 356.800 C 174.170 356.800,173.066 356.442,172.207 356.004 C 171.348 355.566,170.005 355.097,169.222 354.963 C 168.440 354.829,167.050 354.369,166.133 353.940 C 165.216 353.511,163.776 353.052,162.933 352.920 C 162.090 352.788,161.045 352.437,160.611 352.140 C 160.177 351.843,159.423 351.600,158.935 351.600 C 158.447 351.600,157.936 351.420,157.800 351.200 C 157.664 350.980,157.134 350.800,156.622 350.800 C 156.110 350.800,155.176 350.531,154.546 350.202 C 153.916 349.874,153.096 349.604,152.724 349.602 C 152.352 349.601,151.936 349.420,151.800 349.200 C 151.664 348.980,151.034 348.800,150.400 348.800 C 149.766 348.800,149.126 348.604,148.978 348.365 C 148.831 348.126,148.370 348.019,147.954 348.128 C 147.539 348.236,147.300 348.162,147.423 347.963 C 147.546 347.763,147.287 347.600,146.847 347.600 C 146.407 347.600,145.936 347.420,145.800 347.200 C 145.664 346.980,145.134 346.800,144.622 346.800 C 144.110 346.800,143.176 346.531,142.546 346.202 C 141.916 345.874,141.096 345.604,140.724 345.602 C 140.352 345.601,139.936 345.420,139.800 345.200 C 139.664 344.980,139.034 344.800,138.400 344.800 C 137.766 344.800,137.126 344.604,136.978 344.365 C 136.831 344.126,136.370 344.019,135.954 344.128 C 135.539 344.236,135.300 344.162,135.423 343.963 C 135.546 343.763,135.287 343.600,134.847 343.600 C 134.407 343.600,133.936 343.420,133.800 343.200 C 133.664 342.980,133.034 342.800,132.400 342.800 C 131.766 342.800,131.136 342.620,131.000 342.400 C 130.713 341.935,128.946 341.858,128.699 342.300 C 128.607 342.465,128.586 342.375,128.653 342.100 C 128.725 341.805,128.380 341.600,127.811 341.600 C 127.281 341.600,126.749 341.441,126.629 341.246 C 126.508 341.051,125.913 340.802,125.305 340.692 C 124.322 340.514,123.435 340.230,120.600 339.186 C 120.160 339.024,118.990 338.670,118.000 338.399 C 115.152 337.621,113.852 337.112,113.120 336.490 C 112.692 336.127,111.852 335.968,110.854 336.063 C 109.981 336.147,109.353 336.076,109.457 335.907 C 109.562 335.738,109.189 335.600,108.629 335.600 C 107.411 335.600,104.147 334.852,102.926 334.293 C 102.446 334.073,101.663 333.995,101.187 334.119 C 100.711 334.244,100.434 334.233,100.572 334.095 C 100.957 333.710,97.234 332.838,95.124 332.818 C 94.092 332.808,93.136 332.620,93.000 332.400 C 92.713 331.935,90.946 331.858,90.699 332.300 C 90.607 332.465,90.579 332.393,90.638 332.139 C 91.050 330.362,69.435 330.471,67.955 332.254 C 67.706 332.554,67.085 332.800,66.575 332.800 C 66.065 332.800,65.536 332.980,65.400 333.200 C 65.264 333.420,64.860 333.600,64.502 333.600 C 63.513 333.600,65.946 331.208,66.975 331.168 C 67.429 331.151,67.574 331.046,67.298 330.934 C 67.021 330.823,66.908 330.549,67.046 330.326 C 67.184 330.103,66.870 330.144,66.348 330.418 C 65.827 330.693,65.256 331.161,65.080 331.458 C 64.904 331.756,64.446 332.000,64.061 332.000 C 63.677 332.000,62.668 332.711,61.820 333.580 C 60.972 334.448,60.087 335.123,59.853 335.080 C 59.620 335.036,59.245 335.405,59.020 335.900 C 58.795 336.395,58.393 336.800,58.128 336.800 C 57.862 336.800,57.375 337.186,57.045 337.658 C 56.714 338.129,55.939 338.848,55.322 339.255 C 54.705 339.662,54.341 339.996,54.514 339.997 C 54.687 339.999,54.635 340.360,54.400 340.800 C 53.528 342.430,51.548 340.571,51.844 338.400 C 51.919 337.850,52.003 336.815,52.030 336.100 C 52.083 334.731,52.352 334.512,53.083 335.243 C 53.782 335.942,54.349 334.461,54.576 331.349 C 54.687 329.837,55.167 326.800,55.644 324.600 C 56.121 322.400,56.569 320.060,56.640 319.400 C 56.711 318.740,57.192 317.030,57.711 315.600 C 58.229 314.170,58.673 312.910,58.698 312.800 C 58.810 312.308,59.715 310.061,60.389 308.600 C 62.152 304.779,62.502 304.105,63.614 302.400 C 65.709 299.186,65.807 298.891,65.054 298.059 C 64.016 296.913,65.817 294.800,67.832 294.800 C 68.145 294.800,68.400 294.549,68.400 294.243 C 68.400 293.618,69.478 293.077,70.036 293.422 C 70.236 293.546,70.400 293.469,70.400 293.251 C 70.400 292.853,71.937 292.172,72.500 292.321 C 72.665 292.364,72.800 292.209,72.800 291.976 C 72.800 291.743,72.980 291.664,73.200 291.800 C 73.420 291.936,73.600 291.846,73.600 291.600 C 73.600 291.354,73.748 291.244,73.929 291.356 C 74.109 291.468,74.727 291.315,75.302 291.017 C 77.209 290.027,87.804 289.337,89.070 290.120 C 89.676 290.494,93.329 289.968,92.923 289.566 C 92.544 289.190,81.637 288.819,78.300 289.068 M99.100 291.082 C 99.595 291.178,100.405 291.178,100.900 291.082 C 101.395 290.987,100.990 290.909,100.000 290.909 C 99.010 290.909,98.605 290.987,99.100 291.082 M177.600 303.082 C 177.600 304.028,176.613 303.426,176.462 302.388 C 176.341 301.559,176.404 301.506,176.962 301.968 C 177.313 302.260,177.600 302.761,177.600 303.082 M187.006 305.990 C 186.886 306.185,187.015 306.490,187.293 306.667 C 187.787 306.981,192.136 309.195,192.265 309.198 C 192.300 309.199,192.283 308.885,192.226 308.500 C 192.170 308.115,191.922 307.800,191.675 307.800 C 191.428 307.800,190.840 307.469,190.368 307.065 C 189.896 306.661,189.170 306.419,188.754 306.528 C 188.339 306.637,188.088 306.581,188.197 306.405 C 188.306 306.228,188.132 305.983,187.811 305.859 C 187.489 305.736,187.127 305.795,187.006 305.990 M192.800 309.200 C 193.239 310.020,195.200 310.346,195.200 309.600 C 195.200 309.380,194.851 309.200,194.424 309.200 C 193.997 309.200,193.536 309.020,193.400 308.800 C 192.916 308.017,192.364 308.385,192.800 309.200 M170.643 316.169 C 170.903 316.847,173.267 318.029,174.515 318.107 C 175.002 318.137,175.515 318.328,175.655 318.531 C 175.795 318.734,176.395 318.953,176.988 319.018 C 178.028 319.133,178.042 319.109,177.371 318.368 C 176.989 317.946,176.265 317.600,175.762 317.600 C 175.259 317.600,174.736 317.420,174.600 317.200 C 174.464 316.980,173.948 316.800,173.453 316.800 C 172.958 316.800,172.204 316.536,171.776 316.213 C 170.785 315.463,170.366 315.446,170.643 316.169 M178.400 319.329 C 178.400 319.824,181.562 321.670,182.725 321.854 C 183.359 321.954,185.200 323.880,185.200 324.444 C 185.200 324.666,185.380 324.736,185.600 324.600 C 185.847 324.447,186.004 325.165,186.011 326.476 C 186.017 327.644,186.129 330.721,186.260 333.312 C 186.531 338.684,185.781 348.041,184.949 349.680 C 184.647 350.274,184.400 351.314,184.400 351.990 C 184.400 352.920,184.166 353.309,183.439 353.585 C 182.910 353.786,182.354 354.150,182.203 354.395 C 182.037 354.664,181.746 354.699,181.464 354.484 C 180.910 354.060,179.191 354.120,178.380 354.591 C 178.061 354.777,177.939 354.776,178.108 354.590 C 178.532 354.123,175.280 352.686,174.351 352.929 C 173.938 353.037,173.600 352.980,173.600 352.803 C 173.600 352.625,172.958 352.480,172.173 352.480 C 170.500 352.480,170.606 352.739,172.468 353.200 C 174.055 353.593,176.329 354.372,177.295 354.854 C 177.677 355.044,178.431 355.200,178.971 355.200 C 179.511 355.200,180.064 355.380,180.200 355.600 C 180.336 355.820,180.897 356.000,181.447 356.000 C 181.997 356.000,182.344 355.832,182.217 355.628 C 182.091 355.423,182.154 355.152,182.358 355.026 C 182.563 354.899,182.683 355.112,182.626 355.498 C 182.502 356.339,183.484 357.170,184.624 357.187 C 185.076 357.194,185.796 357.464,186.224 357.787 C 186.651 358.110,187.484 358.380,188.076 358.387 C 188.668 358.394,189.251 358.559,189.371 358.754 C 189.492 358.949,190.087 359.198,190.695 359.308 C 191.679 359.487,192.673 359.805,195.400 360.816 C 197.263 361.507,200.546 362.400,201.222 362.400 C 201.624 362.400,202.064 362.580,202.200 362.800 C 202.336 363.020,202.966 363.200,203.600 363.200 C 204.234 363.200,204.874 363.396,205.022 363.635 C 205.169 363.874,205.630 363.981,206.046 363.872 C 206.461 363.764,206.700 363.838,206.577 364.037 C 206.454 364.237,206.713 364.400,207.153 364.400 C 207.593 364.400,208.064 364.580,208.200 364.800 C 208.336 365.020,208.966 365.200,209.600 365.200 C 210.234 365.200,210.875 365.397,211.024 365.638 C 211.173 365.880,211.804 366.002,212.426 365.911 C 213.049 365.819,213.467 365.892,213.355 366.072 C 213.244 366.253,213.603 366.400,214.153 366.400 C 214.703 366.400,215.264 366.580,215.400 366.800 C 215.536 367.020,216.346 367.200,217.200 367.200 C 218.054 367.200,218.874 367.396,219.022 367.635 C 219.169 367.874,219.630 367.981,220.046 367.872 C 220.461 367.764,220.717 367.811,220.613 367.979 C 220.366 368.378,228.928 370.427,233.400 371.038 C 234.280 371.159,235.630 371.493,236.400 371.782 C 238.033 372.394,242.182 373.200,243.700 373.200 C 244.279 373.200,244.864 373.380,245.000 373.600 C 245.136 373.820,245.967 374.000,246.847 374.000 C 247.955 374.000,248.359 373.858,248.162 373.538 C 247.984 373.250,248.052 373.185,248.345 373.366 C 248.602 373.525,248.722 373.803,248.610 373.984 C 248.349 374.405,250.058 374.694,254.800 375.030 C 256.890 375.179,258.853 375.502,259.161 375.750 C 260.003 376.425,284.182 376.378,284.860 375.700 C 285.135 375.425,286.074 375.200,286.947 375.200 C 289.249 375.200,293.632 374.375,293.392 373.987 C 293.279 373.804,293.398 373.525,293.655 373.366 C 293.948 373.185,294.016 373.250,293.838 373.538 C 293.336 374.351,296.330 373.845,298.495 372.751 C 298.877 372.558,299.462 372.400,299.797 372.400 C 300.131 372.400,301.337 371.950,302.477 371.400 C 303.617 370.850,304.797 370.400,305.098 370.400 C 305.400 370.400,305.537 370.222,305.403 370.005 C 305.268 369.786,305.412 369.706,305.725 369.827 C 306.037 369.946,307.116 369.584,308.123 369.022 C 309.130 368.460,310.323 368.000,310.774 368.000 C 311.225 368.000,312.072 367.464,312.656 366.808 C 313.240 366.153,314.094 365.497,314.555 365.351 C 315.662 365.000,319.232 361.976,318.994 361.591 C 318.892 361.426,319.111 361.045,319.481 360.745 C 319.944 360.370,320.060 360.356,319.853 360.700 C 319.063 362.015,320.504 360.907,323.234 358.100 C 326.442 354.802,328.015 352.917,326.700 353.949 C 326.222 354.324,326.000 354.352,326.000 354.036 C 326.000 353.783,326.315 353.464,326.700 353.328 C 327.695 352.977,329.200 351.552,329.200 350.961 C 329.200 350.686,329.619 349.953,330.131 349.331 C 330.643 348.709,331.457 347.369,331.941 346.353 C 333.059 344.003,334.235 342.875,334.887 343.527 C 335.244 343.884,335.573 343.789,336.277 343.127 C 337.343 342.126,337.476 340.727,336.576 339.980 C 335.812 339.346,336.092 337.187,337.250 334.791 C 337.680 333.902,337.906 332.972,337.754 332.725 C 337.601 332.478,337.649 332.383,337.861 332.514 C 338.075 332.646,338.473 331.650,338.756 330.276 C 339.037 328.914,339.463 327.394,339.702 326.897 C 340.629 324.977,338.945 323.000,336.382 323.000 L 334.203 323.000 333.391 325.291 C 332.944 326.551,332.358 327.802,332.089 328.071 C 331.452 328.708,331.459 329.316,332.100 329.005 C 332.375 328.872,332.195 329.063,331.700 329.430 C 331.205 329.797,330.800 330.358,330.800 330.675 C 330.800 330.993,330.330 331.870,329.756 332.623 C 329.181 333.376,328.810 334.249,328.930 334.563 C 329.051 334.877,328.882 335.237,328.554 335.362 C 328.162 335.513,328.052 335.421,328.232 335.095 C 328.382 334.823,327.949 335.230,327.269 336.000 C 326.589 336.770,326.025 337.594,326.016 337.830 C 326.007 338.067,325.556 338.678,325.012 339.188 C 324.469 339.699,324.138 340.315,324.276 340.558 C 324.415 340.801,324.394 340.880,324.230 340.733 C 324.066 340.586,322.912 341.437,321.666 342.624 C 320.420 343.812,319.203 344.787,318.962 344.792 C 318.721 344.796,318.207 345.151,317.819 345.579 C 317.431 346.008,315.604 347.106,313.759 348.020 C 311.799 348.991,310.512 349.857,310.664 350.103 C 310.823 350.360,310.730 350.404,310.424 350.215 C 310.149 350.045,309.536 350.092,309.062 350.319 C 308.588 350.547,307.086 350.963,305.724 351.244 C 304.362 351.525,303.310 351.855,303.386 351.977 C 303.463 352.100,302.636 352.137,301.551 352.061 C 300.398 351.979,299.336 352.121,298.997 352.402 C 298.245 353.026,281.636 353.068,280.071 352.450 C 279.042 352.043,274.218 351.339,269.600 350.920 C 268.390 350.811,267.220 350.576,267.000 350.398 C 266.780 350.220,265.700 349.948,264.600 349.793 C 262.772 349.535,261.358 349.221,255.933 347.866 C 254.906 347.609,253.931 347.265,253.766 347.100 C 253.602 346.935,252.993 346.800,252.413 346.800 C 251.834 346.800,251.188 346.628,250.977 346.417 C 250.767 346.207,249.156 345.680,247.397 345.246 C 245.639 344.813,243.570 344.238,242.800 343.969 C 240.220 343.068,239.807 342.922,238.400 342.414 C 237.630 342.136,236.503 341.818,235.895 341.708 C 235.287 341.598,234.692 341.349,234.571 341.154 C 234.451 340.959,233.993 340.800,233.553 340.800 C 233.114 340.800,231.948 340.350,230.963 339.800 C 229.978 339.250,228.738 338.800,228.208 338.800 C 227.679 338.800,226.994 338.441,226.687 338.003 C 226.380 337.564,225.981 337.339,225.800 337.503 C 225.619 337.666,225.609 337.562,225.778 337.270 C 226.501 336.019,222.960 333.970,222.200 335.200 C 222.064 335.420,221.254 335.600,220.400 335.600 C 219.546 335.600,218.736 335.420,218.600 335.200 C 218.464 334.980,217.948 334.800,217.453 334.800 C 216.958 334.800,216.204 334.536,215.776 334.213 C 215.349 333.890,214.516 333.620,213.924 333.613 C 213.332 333.606,212.736 333.420,212.600 333.200 C 212.464 332.980,211.991 332.800,211.550 332.800 C 211.108 332.800,210.157 332.350,209.436 331.800 C 208.714 331.250,207.815 330.800,207.436 330.800 C 207.057 330.800,206.376 330.601,205.923 330.359 C 205.291 330.020,205.010 330.044,204.719 330.459 C 204.412 330.895,204.371 330.884,204.505 330.400 C 204.708 329.661,203.690 328.830,202.560 328.813 C 202.097 328.806,200.873 328.350,199.838 327.800 C 198.804 327.250,197.687 326.800,197.356 326.800 C 197.025 326.800,195.948 326.350,194.963 325.800 C 193.978 325.250,192.548 324.800,191.786 324.800 C 191.024 324.800,190.400 324.609,190.400 324.376 C 190.400 324.143,190.608 324.081,190.862 324.238 C 191.148 324.415,191.215 324.348,191.038 324.062 C 190.881 323.808,190.324 323.600,189.800 323.600 C 189.276 323.600,188.736 323.420,188.600 323.200 C 188.239 322.616,187.506 322.709,187.811 323.300 C 187.953 323.575,187.717 323.367,187.286 322.838 C 186.773 322.207,186.270 321.964,185.830 322.133 C 185.461 322.275,185.252 322.240,185.366 322.056 C 185.723 321.477,181.395 319.847,180.641 320.277 C 180.399 320.415,180.332 320.382,180.494 320.204 C 180.824 319.839,179.670 318.832,178.900 318.813 C 178.625 318.806,178.400 319.038,178.400 319.329 M62.998 333.202 C 62.225 334.056,62.427 334.587,63.528 334.595 C 63.932 334.598,64.200 334.920,64.200 335.400 C 64.200 335.933,63.933 336.200,63.400 336.200 C 62.870 336.200,62.597 335.930,62.590 335.400 C 62.583 334.873,62.331 334.621,61.851 334.662 C 61.252 334.713,61.319 334.519,62.236 333.562 C 63.486 332.258,64.126 331.956,62.998 333.202 M221.600 336.400 C 221.600 336.620,221.330 336.800,221.000 336.800 C 220.670 336.800,220.400 336.620,220.400 336.400 C 220.400 336.180,220.670 336.000,221.000 336.000 C 221.330 336.000,221.600 336.180,221.600 336.400 M102.600 349.797 C 102.820 349.874,102.145 349.951,101.100 349.968 C 100.055 349.986,99.200 349.856,99.200 349.680 C 99.200 349.387,101.666 349.472,102.600 349.797 M264.800 350.400 C 264.800 350.901,264.376 350.901,263.600 350.400 C 263.115 350.086,263.172 350.011,263.900 350.006 C 264.395 350.003,264.800 350.180,264.800 350.400 M276.800 352.345 C 276.800 352.535,276.334 352.639,275.765 352.576 C 274.234 352.408,274.070 352.000,275.533 352.000 C 276.230 352.000,276.800 352.155,276.800 352.345 M230.800 369.845 C 230.800 369.930,230.260 370.000,229.600 370.000 C 228.940 370.000,228.400 369.851,228.400 369.669 C 228.400 369.487,228.940 369.418,229.600 369.515 C 230.260 369.612,230.800 369.760,230.800 369.845 M280.800 375.600 C 280.800 375.857,277.825 375.969,272.500 375.913 L 264.200 375.825 272.400 375.600 C 276.910 375.476,280.645 375.336,280.700 375.287 C 280.755 375.239,280.800 375.380,280.800 375.600 M223.600 379.845 C 223.600 379.930,223.060 380.000,222.400 380.000 C 221.740 380.000,221.200 379.851,221.200 379.669 C 221.200 379.487,221.740 379.418,222.400 379.515 C 223.060 379.612,223.600 379.760,223.600 379.845 M253.100 383.876 C 252.715 383.976,252.085 383.976,251.700 383.876 C 251.315 383.775,251.630 383.693,252.400 383.693 C 253.170 383.693,253.485 383.775,253.100 383.876 " stroke="none" fill="#040454" fill-rule="evenodd"></path><path id="path2" d="M100.499 219.191 C 99.812 220.290,99.874 220.583,100.632 219.825 C 100.980 219.477,101.204 219.013,101.131 218.792 C 101.057 218.572,100.773 218.751,100.499 219.191 M97.230 227.927 C 96.942 228.622,96.855 229.688,97.016 230.545 C 97.215 231.607,97.139 232.049,96.728 232.206 C 96.420 232.324,96.127 233.001,96.076 233.710 C 96.025 234.420,95.739 235.184,95.441 235.408 C 95.073 235.685,94.950 236.422,95.060 237.700 C 95.179 239.088,95.088 239.550,94.711 239.457 C 94.430 239.388,94.335 239.407,94.500 239.499 C 95.112 239.841,94.794 241.200,94.100 241.206 C 93.653 241.210,93.565 241.318,93.857 241.506 C 94.109 241.668,94.260 242.294,94.193 242.898 C 94.126 243.502,94.238 244.100,94.442 244.226 C 94.646 244.352,94.711 244.621,94.586 244.823 C 94.461 245.025,94.615 245.093,94.928 244.972 C 95.241 244.852,95.604 245.034,95.736 245.377 C 95.867 245.720,96.206 246.006,96.487 246.013 C 96.769 246.020,97.715 246.740,98.589 247.613 C 99.463 248.486,100.414 249.200,100.702 249.200 C 100.990 249.200,101.321 249.450,101.438 249.756 C 101.633 250.262,104.428 252.654,107.800 255.200 C 110.523 257.255,111.755 258.256,114.146 260.352 C 115.496 261.536,117.244 262.913,118.031 263.414 C 118.819 263.914,120.073 264.971,120.819 265.762 C 121.566 266.553,122.331 267.200,122.520 267.200 C 122.709 267.200,124.244 268.376,125.932 269.814 C 129.597 272.937,129.511 272.870,131.010 273.811 C 131.665 274.221,133.210 275.467,134.444 276.579 C 138.050 279.828,139.200 280.800,139.200 280.597 C 139.200 280.493,139.551 280.708,139.980 281.075 C 140.408 281.442,140.650 281.918,140.518 282.133 C 140.384 282.350,140.482 282.396,140.738 282.238 C 140.992 282.081,141.200 282.154,141.200 282.400 C 141.200 282.646,141.367 282.744,141.571 282.618 C 141.775 282.492,142.062 282.764,142.207 283.223 C 142.356 283.691,142.703 283.969,142.997 283.857 C 143.289 283.745,143.611 283.997,143.723 284.428 C 143.835 284.856,144.271 285.200,144.701 285.200 C 145.127 285.200,145.798 285.556,146.191 285.991 C 146.585 286.425,147.063 286.685,147.253 286.567 C 147.444 286.449,147.600 286.653,147.600 287.019 C 147.600 287.430,147.817 287.602,148.167 287.468 C 148.479 287.348,148.833 287.509,148.954 287.825 C 149.076 288.141,149.451 288.400,149.787 288.400 C 150.124 288.400,150.400 288.588,150.400 288.818 C 150.400 289.047,150.625 289.196,150.900 289.148 C 151.705 289.009,153.598 290.079,153.326 290.520 C 153.181 290.755,153.277 290.799,153.556 290.627 C 153.819 290.464,154.332 290.572,154.694 290.866 C 155.256 291.321,155.301 291.313,154.996 290.807 C 154.799 290.481,155.146 290.614,155.766 291.102 C 156.386 291.590,157.081 291.874,157.309 291.733 C 157.549 291.584,157.603 291.671,157.438 291.938 C 157.278 292.198,157.383 292.400,157.680 292.400 C 157.970 292.400,158.438 292.770,158.721 293.222 C 159.058 293.761,159.486 293.963,159.970 293.810 C 160.424 293.665,160.794 293.807,160.937 294.181 C 161.105 294.619,161.505 294.719,162.385 294.543 C 163.085 294.403,163.600 294.468,163.600 294.697 C 163.600 295.175,167.554 296.876,168.010 296.594 C 168.187 296.484,168.392 296.531,168.466 296.698 C 168.540 296.864,169.320 297.351,170.200 297.779 C 171.080 298.208,172.160 298.871,172.600 299.253 C 173.040 299.635,173.859 300.009,174.420 300.083 C 174.980 300.158,175.869 300.620,176.395 301.109 C 176.921 301.599,177.542 302.013,177.775 302.030 C 179.070 302.120,180.216 302.471,180.333 302.812 C 180.407 303.025,180.732 303.200,181.057 303.200 C 181.382 303.200,181.536 303.380,181.400 303.600 C 181.256 303.833,181.655 304.000,182.353 304.000 C 183.013 304.000,183.672 304.192,183.817 304.427 C 183.962 304.662,184.327 304.760,184.628 304.645 C 184.928 304.529,185.298 304.635,185.449 304.879 C 185.625 305.164,185.539 305.210,185.210 305.006 C 184.867 304.794,184.758 304.874,184.881 305.244 C 184.983 305.550,185.232 305.803,185.433 305.806 C 185.635 305.809,186.013 305.947,186.272 306.113 C 186.532 306.278,186.853 306.238,186.985 306.024 C 187.117 305.810,187.489 305.736,187.811 305.859 C 188.132 305.983,188.305 306.230,188.195 306.408 C 188.085 306.586,188.479 306.603,189.071 306.444 C 190.651 306.022,190.835 305.045,189.292 305.272 C 188.326 305.414,188.128 305.324,188.305 304.825 C 188.427 304.481,188.406 304.308,188.257 304.440 C 188.108 304.573,187.344 304.076,186.561 303.337 C 185.777 302.598,184.971 302.095,184.769 302.219 C 184.568 302.343,184.194 301.985,183.937 301.423 C 183.681 300.860,183.365 300.400,183.236 300.399 C 183.106 300.399,182.370 299.851,181.600 299.183 C 180.830 298.514,179.686 297.569,179.058 297.083 C 178.431 296.598,177.504 295.840,177.000 295.400 C 176.496 294.960,174.704 293.520,173.019 292.200 C 168.334 288.530,160.221 281.972,156.082 278.510 C 154.037 276.800,151.817 275.040,151.150 274.600 C 150.482 274.160,149.076 273.080,148.024 272.200 C 140.311 265.746,129.597 257.120,127.723 255.855 C 126.800 255.232,125.198 253.922,124.163 252.944 C 123.127 251.966,121.182 250.334,119.840 249.316 C 115.761 246.223,114.209 245.012,114.000 244.757 C 113.760 244.464,110.399 241.679,109.115 240.708 C 101.216 234.737,97.806 231.674,97.441 230.222 C 97.234 229.395,97.292 229.205,97.684 229.431 C 97.968 229.594,98.071 229.586,97.914 229.412 C 97.757 229.237,97.818 228.739,98.051 228.304 C 98.318 227.806,98.334 227.374,98.095 227.135 C 97.856 226.896,97.536 227.189,97.230 227.927 M88.124 267.400 C 88.126 268.720,88.201 269.212,88.290 268.493 C 88.379 267.774,88.377 266.694,88.286 266.093 C 88.195 265.492,88.122 266.080,88.124 267.400 M103.200 275.669 C 103.200 275.851,103.740 276.000,104.400 276.000 C 105.060 276.000,105.600 275.930,105.600 275.845 C 105.600 275.760,105.060 275.612,104.400 275.515 C 103.740 275.418,103.200 275.487,103.200 275.669 M80.200 290.047 C 78.132 290.190,76.102 290.564,75.429 290.927 C 74.784 291.275,74.109 291.468,73.929 291.356 C 73.748 291.244,73.600 291.354,73.600 291.600 C 73.600 291.846,73.420 291.936,73.200 291.800 C 72.980 291.664,72.800 291.743,72.800 291.976 C 72.800 292.209,72.665 292.364,72.500 292.321 C 71.937 292.172,70.400 292.853,70.400 293.251 C 70.400 293.469,70.236 293.546,70.036 293.422 C 69.478 293.077,68.400 293.618,68.400 294.243 C 68.400 294.549,68.145 294.800,67.832 294.800 C 65.817 294.800,64.016 296.913,65.054 298.059 C 65.807 298.891,65.709 299.186,63.614 302.400 C 62.502 304.105,62.152 304.779,60.389 308.600 C 59.738 310.010,58.755 312.444,58.737 312.688 C 58.734 312.736,58.290 313.996,57.750 315.488 C 57.210 316.980,56.711 318.740,56.640 319.400 C 56.569 320.060,56.121 322.400,55.644 324.600 C 55.167 326.800,54.687 329.837,54.576 331.349 C 54.349 334.461,53.782 335.942,53.083 335.243 C 52.352 334.512,52.083 334.731,52.030 336.100 C 52.003 336.815,51.919 337.850,51.844 338.400 C 51.548 340.571,53.528 342.430,54.400 340.800 C 54.635 340.360,54.687 339.999,54.514 339.997 C 54.341 339.996,54.705 339.662,55.322 339.255 C 55.939 338.848,56.714 338.129,57.045 337.658 C 57.375 337.186,57.862 336.800,58.128 336.800 C 58.393 336.800,58.795 336.395,59.020 335.900 C 59.245 335.405,59.620 335.036,59.853 335.080 C 60.087 335.123,60.972 334.448,61.820 333.580 C 62.668 332.711,63.677 332.000,64.061 332.000 C 64.446 332.000,64.904 331.756,65.080 331.458 C 65.256 331.161,65.827 330.693,66.348 330.418 C 67.112 330.017,67.235 330.019,66.983 330.428 C 66.757 330.793,66.866 330.860,67.367 330.668 C 67.751 330.521,68.613 330.400,69.282 330.400 C 70.334 330.400,70.429 330.317,69.984 329.781 C 69.574 329.287,69.404 329.267,69.141 329.681 C 68.888 330.081,68.811 330.085,68.806 329.700 C 68.803 329.425,68.530 329.200,68.200 329.200 C 67.870 329.200,67.600 329.020,67.600 328.800 C 67.600 328.580,67.150 328.400,66.600 328.400 C 65.295 328.400,65.338 327.846,66.785 326.019 C 67.535 325.072,68.109 323.731,68.351 322.362 C 68.854 319.515,71.374 312.789,72.984 310.000 C 73.301 309.450,73.954 308.280,74.435 307.400 C 75.157 306.080,80.289 299.489,81.556 298.255 C 81.751 298.066,82.831 297.022,83.955 295.936 C 85.080 294.850,86.000 293.633,86.000 293.230 C 86.000 292.221,86.915 291.555,88.358 291.514 C 89.026 291.495,89.478 291.326,89.363 291.140 C 89.247 290.953,89.714 290.800,90.400 290.800 C 91.130 290.800,91.545 290.966,91.400 291.200 C 90.981 291.878,91.678 291.642,92.286 290.900 C 92.617 290.495,92.730 290.453,92.553 290.800 C 92.289 291.317,92.341 291.324,92.923 290.851 C 93.490 290.392,93.705 290.389,94.246 290.838 C 94.807 291.304,94.871 291.271,94.734 290.587 C 94.622 290.031,94.285 289.822,93.588 289.877 C 91.042 290.074,88.786 290.099,86.400 289.956 C 84.970 289.870,82.180 289.911,80.200 290.047 M106.093 292.800 C 106.645 293.685,106.663 293.689,107.800 293.200 C 108.509 292.895,108.475 292.853,107.500 292.828 C 106.895 292.813,106.400 292.620,106.400 292.400 C 106.400 292.180,106.218 292.000,105.997 292.000 C 105.757 292.000,105.797 292.326,106.093 292.800 M196.600 300.800 C 196.281 301.316,196.710 302.009,197.324 301.968 C 197.691 301.944,197.691 301.892,197.322 301.743 C 197.060 301.636,196.944 301.290,197.065 300.974 C 197.316 300.322,196.975 300.194,196.600 300.800 M176.462 302.388 C 176.538 302.910,176.825 303.411,177.100 303.502 C 177.820 303.739,177.716 302.595,176.962 301.968 C 176.404 301.506,176.341 301.559,176.462 302.388 M190.400 306.445 C 189.946 306.759,189.923 306.911,190.302 307.065 C 190.579 307.177,190.718 307.409,190.612 307.581 C 190.505 307.753,190.818 307.873,191.307 307.847 C 191.796 307.821,192.197 308.010,192.198 308.267 C 192.199 308.523,192.364 308.883,192.564 309.067 C 192.776 309.260,192.808 309.190,192.641 308.900 C 192.276 308.266,192.887 308.247,193.513 308.873 C 193.774 309.134,194.125 309.199,194.293 309.019 C 194.462 308.838,194.375 308.610,194.100 308.512 C 193.825 308.414,193.597 308.033,193.594 307.667 C 193.589 307.101,193.532 307.089,193.216 307.588 C 192.908 308.075,192.687 307.992,191.922 307.103 C 191.214 306.279,190.860 306.126,190.400 306.445 M197.696 306.489 C 197.786 306.757,197.441 307.396,196.930 307.907 C 195.880 308.957,195.776 309.245,196.500 309.100 C 197.797 308.841,199.141 306.000,197.967 306.000 C 197.728 306.000,197.607 306.220,197.696 306.489 M157.367 311.146 C 157.566 311.469,159.600 311.293,159.600 310.953 C 159.600 310.869,159.049 310.800,158.376 310.800 C 157.703 310.800,157.249 310.956,157.367 311.146 M169.062 316.004 C 169.392 316.667,169.803 317.122,169.975 317.015 C 170.715 316.558,172.304 319.096,172.327 320.772 C 172.340 321.700,172.516 322.670,172.718 322.929 C 174.416 325.105,174.766 343.087,173.190 347.200 C 172.979 347.750,172.749 348.605,172.679 349.101 C 172.608 349.596,172.202 350.266,171.775 350.588 C 171.349 350.911,171.180 351.188,171.400 351.205 C 171.620 351.222,171.260 351.483,170.600 351.786 L 169.400 352.335 170.800 352.414 C 171.570 352.457,172.515 352.460,172.900 352.421 C 173.285 352.382,173.600 352.516,173.600 352.719 C 173.600 352.923,174.053 353.003,174.606 352.897 C 175.446 352.736,175.571 352.828,175.368 353.452 C 175.184 354.019,175.220 354.066,175.519 353.647 C 175.985 352.993,178.524 353.875,178.109 354.547 C 177.971 354.770,178.097 354.787,178.418 354.589 C 179.177 354.120,180.910 354.060,181.464 354.484 C 181.746 354.699,182.037 354.664,182.203 354.395 C 182.354 354.150,182.910 353.786,183.439 353.585 C 184.166 353.309,184.400 352.920,184.400 351.990 C 184.400 351.314,184.647 350.274,184.949 349.680 C 185.781 348.041,186.531 338.684,186.260 333.312 C 186.129 330.721,186.017 327.644,186.011 326.476 C 186.004 325.165,185.847 324.447,185.600 324.600 C 185.380 324.736,185.200 324.666,185.200 324.444 C 185.200 323.880,183.359 321.954,182.725 321.854 C 181.488 321.658,178.400 319.808,178.400 319.262 C 178.400 318.935,178.280 318.787,178.132 318.934 C 177.985 319.081,177.535 318.903,177.132 318.539 C 176.695 318.143,176.400 318.062,176.400 318.338 C 176.400 318.592,176.610 318.800,176.867 318.800 C 177.123 318.800,177.250 318.883,177.149 318.984 C 176.806 319.327,175.207 318.712,175.445 318.328 C 175.574 318.118,175.437 317.992,175.140 318.049 C 173.951 318.274,172.017 317.486,170.549 316.179 C 168.645 314.485,168.283 314.442,169.062 316.004 M71.600 328.332 C 71.050 328.407,70.420 328.659,70.200 328.893 C 69.922 329.188,70.034 329.235,70.568 329.045 C 70.990 328.895,71.440 328.918,71.568 329.095 C 71.696 329.272,72.383 329.323,73.094 329.209 C 74.733 328.945,73.297 328.103,71.600 328.332 M62.236 333.562 C 61.319 334.519,61.252 334.713,61.851 334.662 C 62.331 334.621,62.583 334.873,62.590 335.400 C 62.597 335.930,62.870 336.200,63.400 336.200 C 63.933 336.200,64.200 335.933,64.200 335.400 C 64.200 334.920,63.932 334.598,63.528 334.595 C 62.427 334.587,62.225 334.056,62.998 333.202 C 64.126 331.956,63.486 332.258,62.236 333.562 M64.000 335.400 C 64.000 335.730,63.730 336.000,63.400 336.000 C 62.775 336.000,62.606 335.527,63.067 335.067 C 63.527 334.606,64.000 334.775,64.000 335.400 M220.400 336.400 C 220.400 336.620,220.670 336.800,221.000 336.800 C 221.330 336.800,221.600 336.620,221.600 336.400 C 221.600 336.180,221.330 336.000,221.000 336.000 C 220.670 336.000,220.400 336.180,220.400 336.400 M72.303 346.213 C 72.246 346.260,71.073 346.405,69.695 346.535 C 67.216 346.768,64.173 347.484,63.400 348.015 C 62.921 348.344,60.717 348.956,60.317 348.871 C 60.043 348.813,60.122 349.806,60.637 352.900 C 60.809 353.928,60.739 354.400,60.415 354.400 C 60.114 354.400,60.166 354.623,60.558 355.015 C 60.969 355.426,61.103 356.058,60.960 356.915 C 60.787 357.958,60.830 358.070,61.189 357.508 C 61.431 357.128,61.648 356.678,61.669 356.508 C 61.722 356.082,63.232 355.060,63.982 354.943 C 64.322 354.891,65.680 354.570,67.000 354.230 C 70.196 353.408,71.198 353.425,71.206 354.300 C 71.211 354.854,71.285 354.885,71.561 354.449 C 72.027 353.713,72.789 354.231,72.846 355.324 C 72.889 356.133,72.908 356.139,73.094 355.404 C 73.205 354.967,73.627 354.377,74.031 354.093 C 74.436 353.810,74.679 353.350,74.572 353.072 C 74.204 352.113,78.650 349.613,79.638 350.223 C 79.954 350.419,80.020 350.356,79.827 350.044 C 79.434 349.408,80.306 348.400,81.249 348.400 C 81.662 348.400,82.000 348.209,82.000 347.976 C 82.000 347.743,82.225 347.680,82.500 347.835 C 82.829 348.021,82.863 347.984,82.600 347.728 C 81.710 346.862,73.054 345.589,72.303 346.213 M161.011 348.765 C 160.303 349.041,160.334 349.094,161.311 349.281 C 162.065 349.425,162.400 349.322,162.400 348.945 C 162.400 348.341,162.172 348.311,161.011 348.765 M99.200 349.680 C 99.200 349.856,100.055 349.986,101.100 349.968 C 103.191 349.934,103.022 349.739,100.700 349.509 C 99.875 349.428,99.200 349.504,99.200 349.680 M263.600 350.400 C 264.376 350.901,264.800 350.901,264.800 350.400 C 264.800 350.180,264.395 350.003,263.900 350.006 C 263.172 350.011,263.115 350.086,263.600 350.400 M167.200 350.798 C 166.207 351.051,166.208 351.054,167.400 351.291 C 168.770 351.563,168.862 351.535,168.478 350.960 C 168.325 350.732,167.750 350.659,167.200 350.798 M274.498 352.231 C 274.886 352.619,276.800 352.713,276.800 352.345 C 276.800 352.155,276.230 352.000,275.533 352.000 C 274.837 352.000,274.371 352.104,274.498 352.231 M71.730 356.663 C 71.875 356.808,71.810 357.147,71.586 357.416 C 71.299 357.762,71.359 357.975,71.790 358.141 C 72.235 358.312,72.400 358.108,72.400 357.387 C 72.400 356.844,72.190 356.400,71.933 356.400 C 71.677 356.400,71.585 356.518,71.730 356.663 M61.600 359.500 C 61.600 359.911,61.831 360.564,62.114 360.950 C 62.594 361.607,62.629 361.599,62.629 360.827 C 62.629 360.372,62.477 360.000,62.291 360.000 C 62.105 360.000,62.056 359.832,62.183 359.628 C 62.309 359.423,62.230 359.142,62.007 359.004 C 61.783 358.866,61.600 359.089,61.600 359.500 M318.616 361.397 C 317.964 361.929,317.527 362.461,317.645 362.578 C 317.762 362.696,318.374 362.254,319.004 361.596 C 320.382 360.158,320.228 360.079,318.616 361.397 M228.400 369.669 C 228.400 369.851,228.940 370.000,229.600 370.000 C 230.260 370.000,230.800 369.930,230.800 369.845 C 230.800 369.760,230.260 369.612,229.600 369.515 C 228.940 369.418,228.400 369.487,228.400 369.669 M272.400 375.600 L 264.200 375.825 272.500 375.913 C 277.825 375.969,280.800 375.857,280.800 375.600 C 280.800 375.380,280.755 375.239,280.700 375.287 C 280.645 375.336,276.910 375.476,272.400 375.600 M221.200 379.669 C 221.200 379.851,221.740 380.000,222.400 380.000 C 223.060 380.000,223.600 379.930,223.600 379.845 C 223.600 379.760,223.060 379.612,222.400 379.515 C 221.740 379.418,221.200 379.487,221.200 379.669 M251.700 383.876 C 252.085 383.976,252.715 383.976,253.100 383.876 C 253.485 383.775,253.170 383.693,252.400 383.693 C 251.630 383.693,251.315 383.775,251.700 383.876 " stroke="none" fill="#04226e" fill-rule="evenodd"></path><path id="path3" d="M240.403 16.196 C 239.888 16.745,238.688 17.570,237.735 18.031 C 236.783 18.493,235.662 19.304,235.244 19.835 C 234.826 20.366,234.328 20.800,234.136 20.800 C 233.944 20.800,231.812 22.780,229.400 25.200 C 226.988 27.620,224.786 29.600,224.508 29.600 C 223.772 29.600,220.800 32.390,220.800 33.081 C 220.800 33.405,217.650 36.863,213.800 40.766 C 209.950 44.670,206.800 47.986,206.800 48.137 C 206.800 48.288,205.270 49.983,203.400 51.904 C 201.530 53.825,200.000 55.554,200.000 55.746 C 200.000 55.938,198.380 57.852,196.400 60.000 C 194.420 62.148,192.800 63.988,192.800 64.090 C 192.800 64.192,191.896 65.218,190.792 66.370 C 189.687 67.522,188.179 69.395,187.440 70.532 C 186.702 71.669,185.355 73.312,184.449 74.181 C 183.542 75.051,182.800 75.878,182.800 76.019 C 182.800 76.160,181.900 77.214,180.800 78.361 C 179.700 79.508,178.800 80.665,178.800 80.932 C 178.800 81.198,177.631 82.673,176.202 84.208 C 174.774 85.744,173.604 87.190,173.602 87.422 C 173.601 87.653,172.970 88.454,172.200 89.200 C 171.430 89.946,170.800 90.714,170.800 90.905 C 170.800 91.097,170.350 91.843,169.800 92.564 C 169.250 93.286,168.800 93.985,168.800 94.119 C 168.800 94.253,167.972 95.261,166.961 96.359 C 165.949 97.457,164.773 99.061,164.346 99.923 C 163.920 100.785,162.947 102.219,162.185 103.109 C 161.423 103.999,160.800 104.860,160.800 105.022 C 160.800 105.185,160.183 106.070,159.429 106.991 C 158.675 107.911,157.667 109.414,157.189 110.332 C 156.348 111.945,155.512 112.429,155.000 111.600 C 154.864 111.380,154.122 111.200,153.351 111.200 C 151.599 111.200,151.371 113.682,153.100 113.928 C 154.018 114.058,154.286 114.576,153.641 114.974 C 153.444 115.096,152.930 115.874,152.498 116.702 C 152.066 117.530,151.013 119.256,150.157 120.538 C 149.300 121.819,148.298 123.412,147.930 124.077 C 147.561 124.742,146.923 125.671,146.511 126.143 C 146.100 126.614,145.505 127.540,145.190 128.200 C 144.874 128.860,144.208 129.957,143.708 130.638 C 143.209 131.319,142.800 131.984,142.800 132.117 C 142.800 132.250,142.350 132.844,141.800 133.438 C 141.250 134.031,140.793 134.716,140.785 134.958 C 140.776 135.201,140.204 135.760,139.513 136.200 C 138.822 136.640,138.095 137.540,137.899 138.200 C 137.498 139.547,136.874 141.102,136.373 142.000 C 136.189 142.330,135.192 144.310,134.156 146.400 C 133.121 148.490,131.792 150.920,131.202 151.800 C 130.613 152.680,129.613 154.480,128.981 155.800 C 128.349 157.120,127.329 158.902,126.716 159.760 C 126.102 160.618,125.600 161.655,125.600 162.065 C 125.600 162.884,124.932 164.181,124.000 165.169 C 122.853 166.385,111.241 190.204,110.971 191.894 C 110.822 192.824,110.453 193.790,110.150 194.041 C 109.848 194.293,109.600 194.825,109.600 195.225 C 109.600 195.625,109.420 196.064,109.200 196.200 C 108.980 196.336,108.800 196.877,108.800 197.403 C 108.800 197.929,108.350 198.844,107.800 199.438 C 107.234 200.049,106.800 200.997,106.800 201.625 C 106.800 202.235,106.593 202.802,106.341 202.886 C 105.903 203.032,104.732 206.650,104.662 208.071 C 104.643 208.439,104.487 208.654,104.314 208.547 C 103.994 208.349,103.846 208.967,103.979 209.940 C 104.022 210.250,103.860 210.361,103.600 210.200 C 103.338 210.038,103.185 210.148,103.237 210.460 C 103.287 210.757,103.088 211.540,102.794 212.200 C 102.500 212.860,102.211 213.820,102.151 214.333 C 102.092 214.846,101.840 215.511,101.592 215.809 C 101.344 216.108,101.175 216.678,101.217 217.076 C 101.370 218.553,101.188 219.600,100.776 219.600 C 100.543 219.600,100.481 219.392,100.638 219.138 C 100.811 218.859,100.748 218.785,100.479 218.951 C 100.235 219.102,100.136 219.490,100.260 219.813 C 100.384 220.136,100.286 220.400,100.043 220.400 C 99.799 220.400,99.630 220.535,99.666 220.700 C 99.801 221.321,99.070 223.426,98.484 224.100 C 98.150 224.485,97.989 224.800,98.128 224.800 C 98.267 224.800,98.218 225.227,98.019 225.749 C 97.785 226.364,97.810 226.850,98.089 227.129 C 98.396 227.436,98.337 227.837,97.884 228.529 C 96.523 230.605,98.303 232.536,109.115 240.708 C 110.399 241.679,113.760 244.464,114.000 244.757 C 114.209 245.012,115.761 246.223,119.840 249.316 C 121.182 250.334,123.127 251.966,124.163 252.944 C 125.198 253.922,126.800 255.232,127.723 255.855 C 129.597 257.120,140.311 265.746,148.024 272.200 C 149.076 273.080,150.482 274.160,151.150 274.600 C 151.817 275.040,154.037 276.800,156.082 278.510 C 160.221 281.972,168.334 288.530,173.019 292.200 C 174.704 293.520,176.496 294.960,177.000 295.400 C 177.504 295.840,178.431 296.598,179.058 297.083 C 179.686 297.569,180.830 298.514,181.600 299.183 C 182.370 299.851,183.106 300.399,183.236 300.399 C 183.365 300.400,183.681 300.860,183.937 301.423 C 184.194 301.985,184.568 302.343,184.769 302.219 C 184.971 302.095,185.777 302.598,186.561 303.337 C 187.344 304.076,188.108 304.573,188.257 304.440 C 188.406 304.308,188.427 304.481,188.305 304.825 C 188.127 305.325,188.327 305.414,189.305 305.270 C 190.322 305.121,190.484 305.204,190.270 305.761 C 190.098 306.211,190.196 306.394,190.568 306.316 C 190.874 306.252,191.511 306.644,191.984 307.187 C 192.702 308.011,192.907 308.077,193.216 307.587 C 193.495 307.146,193.589 307.131,193.594 307.529 C 193.601 308.178,194.580 309.200,195.195 309.200 C 195.444 309.200,195.537 309.378,195.403 309.595 C 195.263 309.822,195.423 309.889,195.777 309.754 C 196.117 309.623,196.303 309.367,196.190 309.184 C 196.077 309.001,196.406 308.430,196.922 307.914 C 197.437 307.399,197.786 306.757,197.696 306.489 C 197.481 305.844,198.275 305.854,198.535 306.500 C 198.646 306.775,198.745 306.280,198.756 305.400 C 198.773 303.909,198.735 303.853,198.187 304.576 C 197.509 305.474,197.406 305.110,198.016 303.970 C 198.354 303.339,198.239 303.013,197.410 302.244 C 196.845 301.721,196.486 301.041,196.608 300.724 C 196.728 300.410,196.349 299.448,195.765 298.587 C 195.181 297.726,194.995 297.264,195.352 297.560 C 195.708 297.856,196.000 297.936,196.000 297.738 C 196.000 297.540,195.632 297.063,195.183 296.678 C 194.734 296.293,194.474 295.803,194.607 295.589 C 194.739 295.375,194.627 295.200,194.357 295.200 C 194.087 295.200,193.984 295.083,194.127 294.940 C 194.270 294.796,194.075 294.442,193.694 294.152 C 193.223 293.794,193.170 293.621,193.529 293.613 C 193.926 293.603,193.901 293.444,193.429 292.971 C 192.822 292.365,192.623 291.596,192.779 290.460 C 192.825 290.125,192.665 290.036,192.359 290.225 C 192.021 290.434,191.940 290.334,192.102 289.912 C 192.233 289.571,192.093 288.940,191.792 288.510 C 191.491 288.080,191.183 287.269,191.108 286.708 C 191.033 286.147,190.753 285.425,190.486 285.104 C 190.219 284.782,189.961 284.042,189.913 283.460 C 189.865 282.877,189.674 282.400,189.489 282.400 C 189.304 282.400,189.246 282.249,189.360 282.064 C 189.475 281.879,189.225 281.089,188.807 280.308 C 188.388 279.527,188.155 278.778,188.289 278.644 C 188.424 278.510,188.308 278.400,188.033 278.400 C 187.758 278.400,187.615 278.175,187.714 277.900 C 187.814 277.625,187.649 277.116,187.348 276.769 C 187.047 276.422,186.726 275.612,186.636 274.969 C 186.458 273.704,185.993 271.569,185.074 267.800 C 184.752 266.480,184.365 264.526,184.213 263.457 C 184.062 262.388,183.606 260.923,183.200 260.200 C 182.794 259.477,182.337 258.054,182.185 257.038 C 182.032 256.022,181.748 255.092,181.554 254.971 C 181.359 254.851,181.200 254.279,181.200 253.700 C 181.200 252.183,180.394 248.034,179.782 246.400 C 179.494 245.630,179.152 244.010,179.022 242.800 C 178.892 241.590,178.507 239.070,178.165 237.200 C 177.400 233.009,177.024 229.182,176.414 219.400 C 176.154 215.220,175.768 211.440,175.557 211.000 C 174.811 209.444,175.702 179.302,176.752 170.600 C 176.990 168.620,177.189 165.611,177.193 163.914 C 177.197 162.185,177.445 160.249,177.758 159.514 C 178.391 158.023,179.197 153.936,179.206 152.176 C 179.209 151.529,179.472 150.254,179.789 149.342 C 180.107 148.430,180.563 146.111,180.802 144.187 C 181.041 142.264,181.498 140.184,181.818 139.565 C 182.138 138.946,182.400 137.927,182.400 137.300 C 182.400 136.673,182.562 135.989,182.759 135.780 C 182.956 135.571,183.211 134.680,183.326 133.800 C 183.600 131.682,184.524 128.143,184.900 127.766 C 185.065 127.602,185.200 126.799,185.200 125.982 C 185.200 125.151,185.464 124.279,185.800 124.000 C 186.130 123.726,186.400 123.175,186.400 122.775 C 186.400 122.375,186.580 121.936,186.800 121.800 C 187.020 121.664,187.200 120.924,187.200 120.157 C 187.200 119.389,187.483 118.212,187.829 117.543 C 188.176 116.873,188.360 116.227,188.240 116.107 C 188.120 115.986,188.261 115.418,188.555 114.844 C 189.277 113.433,190.044 111.207,190.207 110.050 C 190.280 109.527,190.534 108.906,190.770 108.670 C 191.007 108.433,191.200 107.906,191.200 107.497 C 191.200 107.088,191.650 105.948,192.200 104.963 C 192.750 103.978,193.206 102.773,193.213 102.286 C 193.220 101.799,193.490 101.051,193.813 100.624 C 194.136 100.196,194.400 99.442,194.400 98.947 C 194.400 98.452,194.580 97.936,194.800 97.800 C 195.020 97.664,195.200 97.055,195.200 96.446 C 195.200 95.783,195.601 94.963,196.200 94.400 C 196.791 93.845,197.200 93.016,197.200 92.373 C 197.200 91.775,197.470 91.182,197.800 91.055 C 198.130 90.929,198.400 90.352,198.400 89.774 C 198.400 89.196,198.736 88.246,199.148 87.662 C 199.559 87.078,200.021 86.150,200.175 85.600 C 200.423 84.713,202.290 80.823,204.398 76.800 C 204.801 76.030,205.239 75.130,205.370 74.800 C 205.501 74.470,205.954 73.660,206.375 73.000 C 206.797 72.340,207.155 71.507,207.171 71.149 C 207.187 70.791,207.444 70.295,207.743 70.047 C 208.042 69.799,208.982 68.207,209.833 66.509 C 210.683 64.810,211.706 63.094,212.105 62.695 C 212.505 62.295,213.004 61.570,213.215 61.084 C 213.656 60.067,213.752 59.910,217.100 54.766 C 218.475 52.653,219.960 50.598,220.400 50.200 C 220.840 49.802,221.200 49.243,221.200 48.959 C 221.200 48.674,221.650 47.956,222.200 47.362 C 222.750 46.769,223.200 46.139,223.200 45.962 C 223.200 45.786,223.650 45.156,224.200 44.562 C 224.750 43.969,225.200 43.317,225.200 43.115 C 225.200 42.912,225.650 42.157,226.200 41.436 C 226.750 40.714,227.200 40.033,227.200 39.922 C 227.200 39.810,228.276 38.567,229.592 37.159 C 230.907 35.752,231.987 34.407,231.992 34.172 C 231.996 33.936,233.485 32.118,235.300 30.132 C 241.149 23.733,242.000 22.719,242.000 22.156 C 242.000 21.851,242.630 20.905,243.400 20.053 C 246.389 16.745,243.446 12.958,240.403 16.196 M96.946 232.598 C 96.819 232.926,96.567 233.104,96.386 232.991 C 96.204 232.879,95.952 232.954,95.826 233.158 C 95.699 233.363,95.842 233.494,96.142 233.450 C 96.836 233.348,98.207 232.000,97.616 232.000 C 97.373 232.000,97.072 232.269,96.946 232.598 M94.707 290.500 C 94.913 291.302,94.866 291.340,94.269 290.851 C 93.702 290.386,93.497 290.386,92.923 290.851 C 92.341 291.324,92.289 291.317,92.553 290.800 C 92.730 290.453,92.617 290.495,92.286 290.900 C 91.678 291.642,90.981 291.878,91.400 291.200 C 91.545 290.966,91.130 290.800,90.400 290.800 C 89.714 290.800,89.247 290.953,89.363 291.140 C 89.478 291.326,89.026 291.495,88.358 291.514 C 86.915 291.555,86.000 292.221,86.000 293.230 C 86.000 293.633,85.055 294.875,83.900 295.991 C 82.745 297.108,81.665 298.151,81.501 298.310 C 80.294 299.480,75.141 306.108,74.435 307.400 C 73.954 308.280,73.301 309.450,72.984 310.000 C 71.374 312.789,68.854 319.515,68.351 322.362 C 68.109 323.731,67.535 325.072,66.785 326.019 C 65.338 327.846,65.295 328.400,66.600 328.400 C 67.150 328.400,67.600 328.580,67.600 328.800 C 67.600 329.020,67.870 329.200,68.200 329.200 C 68.530 329.200,68.803 329.425,68.806 329.700 C 68.811 330.085,68.888 330.081,69.141 329.681 C 69.406 329.264,69.568 329.279,69.965 329.757 C 70.542 330.453,71.600 330.177,71.600 329.330 C 71.600 328.917,71.352 328.825,70.750 329.016 C 70.228 329.181,69.995 329.132,70.145 328.889 C 70.465 328.372,72.774 328.035,73.041 328.467 C 73.391 329.033,74.484 328.835,75.062 328.100 C 75.483 327.564,75.587 327.540,75.506 328.000 C 75.416 328.509,76.367 328.615,81.800 328.701 C 89.965 328.830,93.053 329.139,94.800 330.001 C 95.640 330.416,97.570 330.774,99.625 330.897 C 101.509 331.010,103.579 331.366,104.225 331.689 C 104.871 332.011,107.020 332.505,109.000 332.786 C 110.980 333.066,112.780 333.438,113.000 333.612 C 113.220 333.786,114.120 334.050,115.000 334.198 C 117.347 334.593,119.318 335.231,120.000 335.816 C 120.330 336.098,121.608 336.515,122.841 336.740 C 124.073 336.966,125.783 337.509,126.641 337.947 C 127.498 338.385,129.223 338.866,130.474 339.015 C 131.842 339.178,132.832 339.507,132.961 339.843 C 133.079 340.149,133.620 340.400,134.164 340.400 C 134.708 340.400,135.264 340.580,135.400 340.800 C 135.536 341.020,136.065 341.200,136.575 341.200 C 137.085 341.200,137.710 341.451,137.965 341.758 C 138.220 342.065,139.097 342.441,139.914 342.594 C 140.731 342.747,142.166 343.221,143.103 343.648 C 144.040 344.074,146.020 344.583,147.503 344.778 C 148.986 344.974,150.933 345.498,151.829 345.942 C 152.726 346.387,154.024 346.734,154.716 346.715 C 155.407 346.695,156.264 346.921,156.620 347.216 C 156.975 347.512,157.628 347.780,158.070 347.813 C 158.512 347.845,158.992 348.060,159.137 348.291 C 159.282 348.521,160.075 348.667,160.900 348.616 C 162.057 348.545,162.400 348.672,162.400 349.174 C 162.400 349.945,164.392 350.263,164.414 349.496 C 164.422 349.223,164.647 349.382,164.914 349.848 C 165.283 350.492,165.760 350.684,166.900 350.648 C 168.277 350.604,168.466 350.708,168.366 351.455 C 168.347 351.596,168.546 351.843,168.808 352.005 C 169.367 352.350,171.637 351.584,171.364 351.142 C 171.261 350.976,171.503 350.666,171.901 350.453 C 172.299 350.240,172.655 349.659,172.693 349.163 C 172.730 348.667,172.944 347.797,173.167 347.230 C 174.764 343.179,174.431 325.124,172.718 322.929 C 172.516 322.670,172.340 321.700,172.327 320.772 C 172.304 319.060,170.709 316.562,169.943 317.035 C 169.754 317.152,169.430 316.805,169.224 316.263 C 168.794 315.133,168.003 314.498,167.994 315.276 C 167.989 315.668,167.895 315.653,167.620 315.219 C 167.418 314.900,167.342 314.495,167.450 314.319 C 167.650 313.995,167.038 313.845,166.060 313.979 C 165.763 314.020,165.624 313.884,165.753 313.677 C 165.881 313.470,165.533 313.300,164.979 313.300 C 164.426 313.300,163.664 313.031,163.287 312.702 C 162.909 312.373,162.375 312.186,162.100 312.286 C 161.825 312.385,161.600 312.250,161.600 311.984 C 161.600 311.634,161.415 311.653,160.925 312.051 C 160.339 312.527,160.282 312.514,160.493 311.950 C 160.693 311.417,160.455 311.304,159.174 311.323 C 158.315 311.335,157.489 311.223,157.339 311.073 C 157.189 310.923,157.307 310.800,157.600 310.800 C 157.893 310.800,158.028 310.695,157.900 310.567 C 157.772 310.438,157.517 310.336,157.333 310.338 C 157.150 310.341,156.729 310.098,156.398 309.798 C 156.067 309.499,155.308 309.188,154.711 309.108 C 154.113 309.028,153.178 308.543,152.632 308.030 C 152.008 307.444,151.342 307.174,150.842 307.305 C 150.365 307.430,149.781 307.221,149.385 306.784 C 149.022 306.382,148.472 306.151,148.162 306.270 C 147.853 306.388,147.600 306.286,147.600 306.043 C 147.600 305.799,147.276 305.600,146.880 305.600 C 146.484 305.600,145.918 305.375,145.621 305.100 C 145.190 304.700,145.139 304.700,145.365 305.100 C 145.810 305.888,145.219 305.687,143.947 304.617 C 143.238 304.020,142.521 303.732,142.124 303.885 C 141.685 304.053,141.564 303.981,141.758 303.668 C 142.008 303.263,140.774 302.963,140.242 303.300 C 140.155 303.355,139.735 303.085,139.310 302.699 C 138.884 302.314,138.423 302.110,138.287 302.247 C 138.150 302.383,137.750 302.207,137.398 301.855 C 136.971 301.428,136.110 301.230,134.808 301.259 C 133.392 301.291,132.568 301.076,131.803 300.474 C 131.198 299.998,130.462 299.747,130.074 299.886 C 129.704 300.019,129.535 299.978,129.701 299.796 C 130.122 299.332,128.838 298.010,128.203 298.254 C 127.916 298.364,127.562 298.262,127.417 298.027 C 127.272 297.792,127.373 297.600,127.643 297.600 C 127.913 297.600,128.018 297.484,127.876 297.343 C 127.735 297.202,127.367 297.296,127.058 297.552 C 126.671 297.873,126.185 297.898,125.490 297.634 C 124.936 297.424,123.923 297.267,123.240 297.286 C 122.557 297.306,121.669 297.024,121.266 296.660 C 120.864 296.296,120.423 296.110,120.287 296.247 C 120.150 296.383,119.737 296.194,119.368 295.826 C 119.000 295.457,118.317 295.198,117.849 295.250 C 117.382 295.301,116.370 295.187,115.600 294.996 C 114.830 294.805,113.957 294.695,113.660 294.751 C 113.363 294.808,113.235 294.667,113.376 294.438 C 113.736 293.856,111.847 293.421,108.914 293.410 C 106.724 293.401,106.369 293.289,105.928 292.466 C 105.527 291.717,105.169 291.563,104.114 291.686 C 103.391 291.770,102.800 291.696,102.800 291.520 C 102.800 290.999,101.284 291.156,101.065 291.700 C 100.904 292.100,100.857 292.100,100.832 291.700 C 100.812 291.397,100.223 291.200,99.331 291.200 C 98.504 291.200,97.514 290.894,97.064 290.500 C 96.296 289.827,96.275 289.831,96.533 290.600 C 96.776 291.323,96.728 291.313,96.037 290.500 C 95.616 290.005,95.092 289.600,94.873 289.600 C 94.654 289.600,94.579 290.005,94.707 290.500 M63.067 335.067 C 62.606 335.527,62.775 336.000,63.400 336.000 C 63.730 336.000,64.000 335.730,64.000 335.400 C 64.000 334.775,63.527 334.606,63.067 335.067 M66.800 354.255 C 65.590 354.578,64.322 354.886,63.982 354.941 C 63.320 355.047,61.222 356.400,61.720 356.400 C 61.884 356.400,61.769 356.805,61.465 357.300 C 61.110 357.877,61.020 358.559,61.216 359.200 C 61.428 359.897,61.532 359.981,61.560 359.476 C 61.582 359.078,61.783 358.866,62.007 359.004 C 62.230 359.142,62.309 359.423,62.183 359.628 C 62.056 359.832,62.105 360.000,62.291 360.000 C 62.477 360.000,62.629 360.347,62.629 360.771 C 62.629 361.194,62.442 361.434,62.214 361.302 C 61.986 361.170,62.091 361.408,62.446 361.831 C 63.065 362.567,63.804 364.669,63.666 365.300 C 63.630 365.465,63.799 365.600,64.043 365.600 C 64.286 365.600,64.390 365.849,64.273 366.154 C 63.938 367.028,66.067 368.800,67.452 368.800 C 69.407 368.800,70.486 367.302,70.686 364.313 C 70.778 362.933,71.097 361.533,71.395 361.202 C 72.330 360.165,72.577 358.443,71.832 358.157 C 71.369 357.979,71.298 357.764,71.586 357.416 C 71.810 357.147,71.860 356.791,71.697 356.625 C 71.533 356.459,71.760 356.386,72.200 356.462 C 72.850 356.574,72.975 356.412,72.865 355.600 C 72.681 354.227,72.066 353.650,71.589 354.403 C 71.269 354.910,71.211 354.894,71.206 354.300 C 71.199 353.437,69.916 353.424,66.800 354.255 " stroke="none" fill="#044a8c" fill-rule="evenodd"></path><path id="path4" d="M232.945 60.200 C 232.818 60.530,232.494 60.800,232.225 60.800 C 231.956 60.800,231.491 61.256,231.193 61.814 C 230.894 62.372,230.419 62.739,230.136 62.631 C 229.853 62.522,229.392 62.762,229.111 63.163 C 228.830 63.564,228.465 63.917,228.300 63.946 C 228.135 63.976,228.045 64.056,228.100 64.124 C 228.287 64.357,225.296 66.800,224.824 66.800 C 224.565 66.800,224.464 66.980,224.600 67.200 C 224.736 67.420,224.567 67.600,224.224 67.600 C 223.881 67.600,223.600 67.881,223.600 68.224 C 223.600 68.567,223.420 68.736,223.200 68.600 C 222.849 68.383,222.608 69.206,222.756 70.111 C 222.784 70.282,222.536 70.527,222.204 70.654 C 221.872 70.781,221.600 71.059,221.600 71.271 C 221.600 71.704,220.596 72.800,220.200 72.800 C 219.735 72.800,218.800 73.931,218.800 74.493 C 218.800 75.302,216.102 78.110,215.615 77.809 C 215.386 77.668,215.023 78.013,214.809 78.576 C 214.595 79.139,214.235 79.600,214.010 79.600 C 213.784 79.600,213.600 79.848,213.600 80.151 C 213.600 80.454,213.332 80.924,213.004 81.196 C 212.677 81.468,212.507 81.849,212.627 82.044 C 212.747 82.238,212.357 82.849,211.760 83.402 C 211.163 83.955,210.790 84.523,210.931 84.664 C 211.072 84.805,210.890 85.138,210.527 85.404 C 210.164 85.670,209.802 86.309,209.723 86.824 C 209.645 87.339,208.996 88.310,208.282 88.981 C 207.075 90.114,205.871 92.068,205.805 93.000 C 205.766 93.561,204.309 95.191,204.012 95.007 C 203.877 94.924,203.738 95.232,203.703 95.692 C 203.668 96.152,203.447 96.647,203.211 96.793 C 202.974 96.939,202.698 97.493,202.595 98.024 C 202.493 98.555,202.005 99.294,201.511 99.667 C 201.016 100.040,200.733 100.467,200.882 100.615 C 201.030 100.764,200.803 101.260,200.376 101.718 C 199.949 102.176,199.600 102.877,199.600 103.275 C 199.600 103.674,199.420 104.000,199.200 104.000 C 198.980 104.000,198.800 104.341,198.800 104.757 C 198.800 105.174,198.519 105.622,198.175 105.754 C 197.831 105.886,197.650 106.157,197.772 106.355 C 197.895 106.554,197.726 106.819,197.398 106.946 C 197.024 107.089,196.800 107.703,196.800 108.587 C 196.800 109.418,196.617 109.959,196.355 109.900 C 196.110 109.845,195.835 110.250,195.743 110.800 C 195.652 111.350,195.402 111.860,195.188 111.933 C 194.975 112.007,194.800 112.300,194.800 112.584 C 194.800 112.869,194.526 113.330,194.190 113.608 C 193.855 113.886,193.674 114.207,193.788 114.321 C 193.902 114.435,193.644 114.774,193.214 115.075 C 192.785 115.376,192.526 115.864,192.640 116.159 C 192.753 116.455,192.566 116.804,192.223 116.936 C 191.849 117.080,191.600 117.659,191.600 118.387 C 191.600 119.054,191.420 119.600,191.200 119.600 C 190.980 119.600,190.798 120.005,190.795 120.500 C 190.786 121.926,190.343 123.212,189.945 122.966 C 189.744 122.842,189.606 122.889,189.637 123.070 C 189.795 123.978,189.555 124.819,189.200 124.600 C 188.963 124.454,188.800 124.913,188.800 125.727 C 188.800 126.483,188.569 127.294,188.287 127.528 C 188.005 127.762,187.730 128.521,187.678 129.215 C 187.625 129.908,187.323 130.734,187.008 131.049 C 186.692 131.365,186.527 131.865,186.640 132.160 C 186.753 132.455,186.566 132.804,186.223 132.936 C 185.788 133.103,185.600 133.712,185.600 134.954 C 185.600 135.939,185.395 136.802,185.140 136.887 C 184.887 136.971,184.649 137.616,184.610 138.320 C 184.470 140.884,184.393 141.243,184.035 141.022 C 183.834 140.898,183.721 141.257,183.782 141.821 C 183.863 142.551,183.738 142.785,183.347 142.635 C 182.926 142.474,182.800 142.919,182.800 144.570 C 182.800 146.170,182.637 146.777,182.158 146.961 C 181.721 147.128,181.588 147.499,181.743 148.116 C 182.025 149.240,181.635 150.869,181.155 150.572 C 180.960 150.451,180.769 151.578,180.732 153.076 C 180.694 154.574,180.649 156.195,180.632 156.678 C 180.614 157.160,180.375 157.781,180.100 158.058 C 179.487 158.674,179.454 159.200,180.029 159.200 C 180.909 159.200,181.586 158.048,181.791 156.200 C 181.840 155.760,182.017 155.082,182.185 154.694 C 182.353 154.306,182.395 153.624,182.278 153.178 C 182.153 152.700,182.354 152.089,182.769 151.684 C 183.156 151.308,183.585 150.685,183.723 150.300 C 183.968 149.619,185.169 149.300,185.231 149.900 C 185.364 151.209,186.748 154.314,186.784 153.385 C 186.793 153.157,187.385 152.926,188.100 152.872 C 188.815 152.818,190.030 152.613,190.800 152.416 C 191.570 152.219,193.967 151.932,196.126 151.779 L 200.053 151.501 200.962 150.050 C 201.463 149.253,201.996 148.098,202.148 147.484 C 202.650 145.449,203.881 148.556,203.699 151.400 C 203.624 152.571,204.409 154.842,204.804 154.598 C 204.990 154.482,205.201 154.796,205.271 155.294 C 205.342 155.792,205.339 152.960,205.264 149.000 C 205.167 143.861,205.272 141.456,205.630 140.600 C 205.905 139.940,206.200 138.326,206.283 137.013 C 206.367 135.700,206.608 134.519,206.818 134.389 C 207.029 134.259,207.250 132.233,207.309 129.887 C 207.378 127.183,207.597 125.443,207.909 125.131 C 208.179 124.861,208.400 123.686,208.400 122.520 C 208.400 121.354,208.570 120.400,208.777 120.400 C 208.985 120.400,209.134 119.515,209.110 118.433 C 209.082 117.203,209.315 116.084,209.733 115.447 C 210.100 114.887,210.400 113.987,210.400 113.447 C 210.400 112.908,210.577 112.407,210.793 112.333 C 211.009 112.260,211.234 111.527,211.293 110.705 C 211.352 109.883,211.644 109.117,211.942 109.002 C 212.239 108.887,212.380 108.525,212.254 108.197 C 212.115 107.835,212.256 107.600,212.613 107.600 C 213.028 107.600,213.200 107.146,213.200 106.049 C 213.200 105.158,213.455 104.286,213.800 104.000 C 214.130 103.726,214.400 103.269,214.400 102.984 C 214.400 102.700,214.595 102.402,214.833 102.322 C 215.072 102.243,215.267 101.341,215.267 100.319 C 215.267 99.084,215.457 98.387,215.833 98.243 C 216.145 98.123,216.400 97.659,216.400 97.213 C 216.400 96.766,216.601 96.400,216.847 96.400 C 217.094 96.400,217.201 96.049,217.088 95.615 C 216.975 95.183,217.130 94.624,217.433 94.373 C 218.080 93.835,219.200 91.690,219.200 90.988 C 219.200 90.718,219.478 90.267,219.818 89.985 C 220.158 89.703,220.341 89.224,220.225 88.921 C 220.109 88.618,220.280 88.267,220.607 88.142 C 220.933 88.017,221.200 87.596,221.200 87.206 C 221.200 86.817,221.470 86.274,221.800 86.000 C 222.130 85.726,222.400 85.229,222.400 84.896 C 222.400 84.563,223.038 83.745,223.818 83.079 C 224.597 82.413,225.144 81.631,225.032 81.340 C 224.921 81.050,225.183 80.623,225.615 80.392 C 226.047 80.161,226.400 79.571,226.400 79.081 C 226.400 78.591,226.857 77.846,227.417 77.426 C 227.976 77.007,228.339 76.417,228.223 76.116 C 228.108 75.816,228.280 75.467,228.607 75.342 C 228.933 75.217,229.208 74.819,229.217 74.457 C 229.226 74.096,229.766 73.358,230.417 72.819 C 231.068 72.279,231.600 71.610,231.600 71.333 C 231.600 71.055,231.960 70.635,232.400 70.400 C 232.840 70.165,233.200 69.655,233.200 69.267 C 233.200 68.879,233.920 67.859,234.800 67.000 C 235.680 66.141,236.400 65.204,236.400 64.919 C 236.400 64.633,236.580 64.400,236.800 64.400 C 237.020 64.400,237.200 63.847,237.200 63.171 C 237.200 61.972,236.444 60.800,235.671 60.800 C 235.459 60.800,235.182 60.530,235.055 60.200 C 234.929 59.870,234.454 59.600,234.000 59.600 C 233.546 59.600,233.071 59.870,232.945 60.200 M205.246 160.100 C 205.221 160.705,205.341 161.200,205.514 161.200 C 205.687 161.200,205.808 161.822,205.783 162.581 C 205.758 163.341,205.864 163.884,206.019 163.788 C 206.401 163.552,206.387 161.496,205.999 161.000 C 205.827 160.780,205.598 160.240,205.489 159.800 C 205.340 159.190,205.282 159.262,205.246 160.100 M178.800 164.600 C 178.800 165.150,178.787 165.731,178.770 165.890 C 178.754 166.049,178.904 166.235,179.103 166.301 C 179.303 166.368,179.467 165.787,179.467 165.011 C 179.467 164.235,179.317 163.600,179.133 163.600 C 178.950 163.600,178.800 164.050,178.800 164.600 M233.602 253.876 C 233.601 254.138,233.780 254.464,234.000 254.600 C 234.220 254.736,234.400 255.197,234.400 255.624 C 234.400 256.051,234.670 256.400,235.000 256.400 C 235.330 256.400,235.594 256.265,235.586 256.100 C 235.560 255.573,233.604 253.380,233.602 253.876 M235.924 257.009 C 235.591 257.343,236.054 259.200,236.470 259.200 C 236.678 259.200,236.749 259.360,236.628 259.555 C 236.507 259.750,236.663 260.120,236.973 260.378 C 237.674 260.959,237.380 259.483,236.533 258.168 C 236.238 257.711,236.118 257.216,236.265 257.068 C 236.413 256.921,236.443 256.800,236.333 256.800 C 236.223 256.800,236.039 256.894,235.924 257.009 M237.807 261.189 C 237.675 261.402,237.864 262.031,238.227 262.585 C 238.831 263.507,238.832 263.613,238.243 263.839 C 237.890 263.974,237.600 264.421,237.600 264.830 C 237.600 265.327,237.799 265.498,238.198 265.346 C 238.526 265.219,238.697 264.957,238.577 264.763 C 238.457 264.568,238.638 264.516,238.979 264.647 C 239.836 264.976,239.764 264.057,238.820 262.625 C 238.394 261.979,238.136 261.304,238.246 261.125 C 238.357 260.946,238.357 260.800,238.247 260.800 C 238.137 260.800,237.939 260.975,237.807 261.189 M186.800 265.921 C 186.800 267.186,186.934 267.524,187.368 267.357 C 187.824 267.182,187.852 266.885,187.509 265.869 C 186.897 264.054,186.800 264.061,186.800 265.921 M239.800 265.200 C 239.664 265.420,239.675 265.798,239.825 266.040 C 240.021 266.358,239.868 266.358,239.271 266.038 C 238.347 265.544,238.312 266.341,239.186 267.974 C 239.580 268.711,239.515 268.800,238.582 268.800 C 237.514 268.800,232.741 271.018,230.737 272.445 C 230.128 272.879,228.497 273.604,227.114 274.056 C 225.732 274.508,224.420 275.016,224.200 275.185 C 223.796 275.495,220.440 276.576,216.400 277.697 C 212.616 278.747,208.429 279.194,201.717 279.264 C 196.732 279.316,195.188 279.455,195.030 279.865 C 194.789 280.494,193.112 280.335,192.888 279.663 C 192.803 279.409,192.928 279.200,193.167 279.200 C 193.979 279.200,193.603 278.530,192.500 278.012 C 191.866 277.714,191.612 277.419,191.900 277.314 C 192.610 277.057,192.521 276.400,191.776 276.400 C 191.433 276.400,191.264 276.220,191.400 276.000 C 191.536 275.780,191.277 275.600,190.824 275.600 C 189.977 275.600,189.687 274.641,190.400 274.200 C 190.620 274.064,190.800 273.773,190.800 273.553 C 190.800 273.333,190.620 273.264,190.400 273.400 C 190.180 273.536,190.000 273.277,190.000 272.824 C 190.000 272.371,189.865 272.000,189.700 272.000 C 189.535 272.000,189.363 271.550,189.317 271.000 C 189.163 269.153,189.068 268.800,188.729 268.800 C 188.284 268.800,188.809 272.126,189.305 272.451 C 189.516 272.589,189.699 273.523,189.713 274.528 C 189.727 275.603,189.914 276.323,190.169 276.277 C 190.602 276.200,190.669 276.455,190.754 278.524 C 190.780 279.162,190.973 279.540,191.200 279.400 C 191.555 279.181,191.795 280.022,191.637 280.930 C 191.606 281.111,191.744 281.158,191.945 281.034 C 192.401 280.752,192.787 282.140,192.795 284.087 C 192.799 285.180,192.945 285.519,193.347 285.365 C 193.738 285.215,193.863 285.449,193.782 286.179 C 193.721 286.743,193.815 287.114,193.992 287.005 C 194.275 286.830,194.856 288.261,194.965 289.400 C 194.986 289.620,195.222 290.181,195.488 290.647 C 195.754 291.113,195.862 291.604,195.729 291.738 C 195.595 291.872,195.781 292.095,196.143 292.233 C 196.599 292.408,196.800 292.969,196.800 294.066 C 196.800 295.018,196.959 295.549,197.200 295.400 C 197.555 295.181,197.795 296.022,197.637 296.930 C 197.606 297.111,197.765 297.145,197.990 297.006 C 198.216 296.867,198.414 296.898,198.431 297.076 C 198.528 298.109,198.791 298.852,199.331 299.623 C 199.666 300.101,199.845 300.740,199.728 301.043 C 199.612 301.345,199.806 301.704,200.158 301.839 C 200.543 301.987,200.800 302.550,200.800 303.243 C 200.800 303.879,200.980 304.400,201.200 304.400 C 201.420 304.400,201.600 304.812,201.600 305.315 C 201.600 306.544,202.969 309.163,203.982 309.873 C 204.432 310.188,204.800 310.795,204.800 311.223 C 204.800 311.650,204.980 312.000,205.200 312.000 C 205.420 312.000,205.603 312.585,205.607 313.300 C 205.616 314.927,207.067 316.400,208.661 316.400 C 209.420 316.400,210.065 316.740,210.561 317.400 C 211.081 318.093,211.696 318.400,212.561 318.400 C 213.426 318.400,214.041 318.707,214.561 319.400 C 215.095 320.111,215.692 320.400,216.624 320.400 C 217.875 320.400,220.451 321.466,220.733 322.100 C 220.807 322.265,221.482 322.400,222.233 322.400 C 222.985 322.400,223.600 322.601,223.600 322.847 C 223.600 323.097,223.953 323.201,224.405 323.083 C 224.938 322.943,225.349 323.131,225.619 323.636 C 225.844 324.056,226.429 324.400,226.919 324.400 C 227.409 324.400,228.148 324.850,228.561 325.400 C 229.164 326.203,229.661 326.400,231.080 326.400 C 232.156 326.400,232.751 326.556,232.600 326.800 C 232.464 327.020,232.611 327.200,232.927 327.200 C 233.243 327.200,233.726 327.470,234.000 327.800 C 234.286 328.145,235.158 328.400,236.049 328.400 C 236.902 328.400,237.600 328.580,237.600 328.800 C 237.600 329.020,238.028 329.200,238.551 329.200 C 239.074 329.200,239.726 329.470,240.000 329.800 C 240.286 330.145,241.158 330.400,242.049 330.400 C 242.902 330.400,243.600 330.580,243.600 330.800 C 243.600 331.020,244.031 331.200,244.557 331.200 C 245.084 331.200,245.618 331.470,245.745 331.800 C 245.890 332.179,246.503 332.400,247.411 332.400 C 248.267 332.400,248.747 332.562,248.600 332.800 C 248.374 333.165,248.569 333.238,250.100 333.360 C 250.375 333.382,250.744 333.625,250.920 333.900 C 251.096 334.175,251.771 334.400,252.420 334.400 C 253.069 334.400,253.600 334.580,253.600 334.800 C 253.600 335.020,254.031 335.200,254.557 335.200 C 255.084 335.200,255.607 335.442,255.721 335.738 C 255.864 336.110,256.834 336.302,258.864 336.360 C 260.479 336.406,261.854 336.595,261.919 336.779 C 261.985 336.964,262.435 337.018,262.919 336.898 C 263.404 336.779,263.667 336.827,263.503 337.004 C 262.810 337.758,264.176 338.400,266.473 338.400 C 267.954 338.400,268.754 338.550,268.600 338.800 C 268.386 339.146,270.709 339.426,272.254 339.240 C 272.504 339.210,272.814 339.459,272.942 339.793 C 273.079 340.151,273.672 340.400,274.387 340.400 C 275.054 340.400,275.600 340.580,275.600 340.800 C 275.600 341.021,276.650 341.200,277.951 341.200 C 279.456 341.200,280.466 341.398,280.758 341.749 C 281.345 342.457,284.710 342.393,285.159 341.666 C 285.341 341.372,285.608 341.151,285.752 341.174 C 285.897 341.198,286.406 340.853,286.883 340.408 C 287.360 339.964,287.582 339.595,287.375 339.588 C 287.169 339.581,287.303 339.399,287.673 339.183 C 288.864 338.488,288.446 336.608,286.740 334.992 C 285.893 334.189,285.200 333.271,285.200 332.951 C 285.200 332.632,284.390 331.583,283.400 330.621 C 282.410 329.659,281.600 328.585,281.600 328.236 C 281.600 327.886,281.420 327.600,281.200 327.600 C 280.980 327.600,280.845 327.465,280.900 327.300 C 280.955 327.135,280.145 326.212,279.100 325.249 C 278.055 324.286,277.200 323.161,277.200 322.749 C 277.200 322.337,277.020 322.000,276.800 322.000 C 276.580 322.000,276.400 321.820,276.400 321.600 C 276.400 321.088,274.922 319.600,274.413 319.600 C 274.199 319.600,274.118 319.359,274.231 319.064 C 274.344 318.769,274.158 318.297,273.818 318.015 C 273.478 317.733,273.200 317.243,273.200 316.927 C 273.200 316.611,273.020 316.464,272.800 316.600 C 272.580 316.736,272.400 316.546,272.400 316.177 C 272.400 315.808,271.725 314.831,270.900 314.006 C 268.870 311.975,268.400 311.340,268.400 310.631 C 268.400 310.299,268.047 309.839,267.615 309.608 C 267.183 309.377,266.922 308.947,267.035 308.653 C 267.148 308.359,266.787 307.821,266.233 307.458 C 265.673 307.091,265.319 306.556,265.435 306.253 C 265.550 305.953,265.134 305.279,264.510 304.754 C 263.887 304.229,263.317 303.620,263.244 303.400 C 263.172 303.180,262.772 302.522,262.356 301.938 C 261.940 301.354,261.600 300.608,261.600 300.280 C 261.600 299.951,260.964 299.124,260.186 298.441 C 259.408 297.759,258.873 297.200,258.995 297.200 C 259.118 297.200,258.944 296.781,258.608 296.268 C 258.272 295.756,258.133 295.201,258.299 295.035 C 258.464 294.869,258.330 294.793,258.000 294.867 C 257.643 294.946,257.440 294.752,257.498 294.387 C 257.551 294.049,257.056 293.183,256.398 292.462 C 255.739 291.741,255.200 290.911,255.200 290.617 C 255.200 290.324,254.753 289.660,254.207 289.142 C 253.661 288.624,253.211 287.930,253.207 287.600 C 253.203 287.270,252.570 286.497,251.800 285.883 C 250.883 285.151,250.400 284.427,250.400 283.783 C 250.400 283.242,250.220 282.800,250.000 282.800 C 249.780 282.800,249.600 282.530,249.600 282.200 C 249.600 281.870,249.233 281.233,248.785 280.785 C 248.337 280.337,248.063 279.821,248.176 279.638 C 248.289 279.455,247.858 278.904,247.218 278.414 C 246.578 277.924,246.141 277.299,246.246 277.025 C 246.351 276.752,246.158 276.297,245.818 276.015 C 245.478 275.733,245.200 275.183,245.200 274.794 C 245.200 274.404,244.933 273.983,244.607 273.858 C 244.280 273.733,244.103 273.397,244.213 273.111 C 244.322 272.825,243.867 271.995,243.201 271.266 C 242.535 270.536,242.094 269.772,242.220 269.567 C 242.347 269.362,242.170 269.087,241.828 268.955 C 241.485 268.824,241.306 268.552,241.430 268.351 C 241.555 268.150,241.286 267.386,240.833 266.654 C 240.381 265.922,240.128 265.205,240.272 265.061 C 240.416 264.918,240.424 264.800,240.290 264.800 C 240.157 264.800,239.936 264.980,239.800 265.200 " stroke="none" fill="#fc9404" fill-rule="evenodd"></path></g></svg>