<svg id="svg" version="1.1" xmlns="http://www.w3.org/2000/svg" xmlns:xlink="http://www.w3.org/1999/xlink" width="400" height="400" viewBox="0, 0, 400,400"><g id="svgg"><path id="path0" d="M125.800 110.000 C 125.664 110.220,125.183 110.400,124.732 110.400 C 123.849 110.400,86.614 147.437,85.356 149.566 C 83.924 151.990,85.474 153.349,90.020 153.654 C 99.561 154.293,274.423 154.027,275.807 153.370 C 277.390 152.619,314.124 116.094,315.000 114.400 C 315.745 112.959,314.899 110.756,313.326 110.039 C 312.033 109.450,126.164 109.411,125.800 110.000 M86.400 178.303 C 85.058 179.807,84.780 180.800,85.378 181.957 C 85.783 182.741,117.398 214.611,123.414 220.300 C 123.705 220.575,124.226 220.800,124.571 220.800 C 124.917 220.800,125.200 220.980,125.200 221.200 C 125.200 221.466,156.857 221.600,219.371 221.600 L 313.542 221.600 314.371 220.546 C 315.369 219.278,315.435 217.713,314.544 216.441 C 313.649 215.164,277.708 179.331,276.356 178.368 C 274.777 177.244,87.403 177.179,86.400 178.303 M158.700 246.298 C 136.300 246.368,124.400 246.542,124.400 246.802 C 124.400 247.021,124.183 247.200,123.918 247.200 C 123.490 247.200,115.380 254.993,109.848 260.721 C 108.722 261.887,105.955 264.724,103.700 267.024 C 99.083 271.735,99.169 271.600,100.800 271.600 C 101.960 271.600,102.000 271.661,102.000 273.450 C 102.000 275.292,102.005 275.299,103.200 275.060 C 104.099 274.880,104.400 274.968,104.400 275.410 C 104.400 275.830,104.889 276.013,106.100 276.046 C 107.035 276.072,107.453 276.181,107.028 276.290 C 104.891 276.834,104.845 279.200,106.971 279.200 C 107.438 279.200,107.600 279.612,107.600 280.800 C 107.600 283.091,108.699 283.007,108.907 280.700 L 109.060 279.000 109.130 280.700 C 109.180 281.913,109.372 282.400,109.800 282.400 C 110.130 282.400,110.400 282.683,110.400 283.029 C 110.400 283.837,111.363 284.800,112.171 284.800 C 112.533 284.800,112.800 285.139,112.800 285.600 C 112.800 286.040,112.980 286.400,113.200 286.400 C 113.420 286.400,113.600 286.683,113.600 287.029 C 113.600 288.071,114.659 288.800,116.171 288.800 C 117.333 288.800,117.600 288.949,117.600 289.600 C 117.600 290.510,273.638 290.909,274.200 290.000 C 274.336 289.780,274.842 289.600,275.324 289.599 C 275.946 289.599,281.844 283.953,295.700 270.094 C 316.874 248.914,316.369 249.533,314.435 247.144 L 313.671 246.200 253.335 246.196 C 220.151 246.194,177.565 246.240,158.700 246.298 " stroke="none" fill="#1dc0fc" fill-rule="evenodd"></path><path id="path1" d="M178.700 0.273 C 176.555 0.359,174.800 0.602,174.800 0.814 C 174.800 1.027,173.540 1.200,172.000 1.200 C 170.400 1.200,169.200 1.371,169.200 1.600 C 169.200 1.822,168.133 2.000,166.800 2.000 C 165.467 2.000,164.400 2.178,164.400 2.400 C 164.400 2.620,163.421 2.800,162.224 2.800 C 161.027 2.800,159.936 2.980,159.800 3.200 C 159.664 3.420,158.933 3.600,158.176 3.600 C 157.419 3.600,156.800 3.780,156.800 4.000 C 156.800 4.220,155.900 4.400,154.800 4.400 C 153.700 4.400,152.800 4.580,152.800 4.800 C 152.800 5.020,152.080 5.200,151.200 5.200 C 150.320 5.200,149.600 5.380,149.600 5.600 C 149.600 5.820,148.880 6.000,148.000 6.000 C 147.120 6.000,146.400 6.180,146.400 6.400 C 146.400 6.620,145.860 6.800,145.200 6.800 C 144.540 6.800,144.000 6.980,144.000 7.200 C 144.000 7.420,143.370 7.600,142.600 7.600 C 141.830 7.600,141.200 7.780,141.200 8.000 C 141.200 8.220,140.771 8.400,140.246 8.400 C 139.222 8.400,135.447 9.440,134.305 10.037 C 133.923 10.237,133.259 10.400,132.829 10.400 C 132.399 10.400,131.936 10.580,131.800 10.800 C 131.664 11.020,131.203 11.200,130.776 11.200 C 130.349 11.200,130.000 11.380,130.000 11.600 C 130.000 11.820,129.561 12.000,129.024 12.000 C 128.487 12.000,127.936 12.180,127.800 12.400 C 127.664 12.620,127.113 12.800,126.576 12.800 C 126.039 12.800,125.600 12.980,125.600 13.200 C 125.600 13.420,125.240 13.600,124.800 13.600 C 124.360 13.600,124.000 13.780,124.000 14.000 C 124.000 14.220,123.460 14.400,122.800 14.400 C 122.140 14.400,121.600 14.580,121.600 14.800 C 121.600 15.020,121.240 15.200,120.800 15.200 C 120.360 15.200,120.000 15.380,120.000 15.600 C 120.000 15.820,119.640 16.000,119.200 16.000 C 118.760 16.000,118.400 16.180,118.400 16.400 C 118.400 16.620,118.040 16.800,117.600 16.800 C 117.160 16.800,116.800 16.980,116.800 17.200 C 116.800 17.420,116.260 17.600,115.600 17.600 C 114.940 17.600,114.400 17.780,114.400 18.000 C 114.400 18.220,114.040 18.400,113.600 18.400 C 113.160 18.400,112.799 18.535,112.799 18.700 C 112.798 18.865,111.808 19.450,110.600 20.000 C 109.392 20.550,108.402 21.135,108.401 21.300 C 108.401 21.465,108.040 21.600,107.600 21.600 C 107.160 21.600,106.800 21.780,106.800 22.000 C 106.800 22.220,106.480 22.400,106.088 22.400 C 105.697 22.400,105.117 22.760,104.800 23.200 C 104.483 23.640,103.903 24.000,103.512 24.000 C 103.120 24.000,102.800 24.180,102.800 24.400 C 102.800 24.620,102.536 24.800,102.214 24.800 C 101.401 24.800,98.800 26.076,98.800 26.474 C 98.800 26.653,98.440 26.800,98.000 26.800 C 97.560 26.800,97.200 26.980,97.200 27.200 C 97.200 27.420,96.964 27.600,96.675 27.600 C 96.387 27.600,95.802 27.915,95.375 28.300 C 94.949 28.685,94.060 29.269,93.400 29.597 C 92.740 29.926,91.909 30.511,91.553 30.897 C 91.197 31.284,90.652 31.600,90.341 31.600 C 90.031 31.600,89.517 31.960,89.200 32.400 C 88.883 32.840,88.343 33.200,88.000 33.200 C 87.657 33.200,87.117 33.560,86.800 34.000 C 86.483 34.440,85.975 34.800,85.672 34.800 C 85.369 34.800,84.617 35.340,84.000 36.000 C 83.383 36.660,82.631 37.200,82.328 37.200 C 82.025 37.200,81.517 37.560,81.200 38.000 C 80.883 38.440,80.375 38.800,80.072 38.800 C 79.769 38.800,79.017 39.340,78.400 40.000 C 77.783 40.660,77.119 41.200,76.923 41.200 C 76.727 41.200,75.899 41.830,75.082 42.600 C 74.266 43.370,73.434 44.000,73.234 44.000 C 73.034 44.000,71.773 45.080,70.432 46.400 C 69.092 47.720,67.810 48.800,67.585 48.800 C 67.359 48.800,65.194 50.825,62.774 53.300 C 57.490 58.703,58.703 57.490,53.300 62.774 C 50.825 65.194,48.800 67.372,48.800 67.613 C 48.800 67.855,47.900 68.929,46.800 70.000 C 45.700 71.071,44.800 72.146,44.800 72.387 C 44.800 72.629,44.170 73.457,43.400 74.227 C 42.630 74.997,42.000 75.779,42.000 75.965 C 42.000 76.151,41.280 77.045,40.400 77.952 C 39.520 78.859,38.800 79.831,38.800 80.112 C 38.800 80.393,38.440 80.883,38.000 81.200 C 37.560 81.517,37.200 82.025,37.200 82.328 C 37.200 82.631,36.660 83.383,36.000 84.000 C 35.340 84.617,34.800 85.369,34.800 85.672 C 34.800 85.975,34.440 86.483,34.000 86.800 C 33.560 87.117,33.200 87.657,33.200 88.000 C 33.200 88.343,32.840 88.883,32.400 89.200 C 31.960 89.517,31.600 90.031,31.600 90.341 C 31.600 90.652,31.284 91.197,30.897 91.553 C 30.511 91.909,29.926 92.740,29.597 93.400 C 29.269 94.060,28.685 94.949,28.300 95.375 C 27.915 95.802,27.600 96.387,27.600 96.675 C 27.600 96.964,27.420 97.200,27.200 97.200 C 26.980 97.200,26.800 97.560,26.800 98.000 C 26.800 98.440,26.653 98.800,26.474 98.800 C 26.076 98.800,24.800 101.401,24.800 102.214 C 24.800 102.536,24.620 102.800,24.400 102.800 C 24.180 102.800,24.000 103.160,24.000 103.600 C 24.000 104.040,23.820 104.400,23.600 104.400 C 23.380 104.400,23.200 104.720,23.200 105.112 C 23.200 105.503,22.840 106.083,22.400 106.400 C 21.960 106.717,21.600 107.297,21.600 107.688 C 21.600 108.080,21.454 108.400,21.275 108.400 C 21.096 108.400,20.702 109.030,20.400 109.800 C 20.098 110.570,19.704 111.200,19.525 111.200 C 19.346 111.200,19.200 111.560,19.200 112.000 C 19.200 112.440,19.020 112.800,18.800 112.800 C 18.580 112.800,18.400 113.340,18.400 114.000 C 18.400 114.660,18.220 115.200,18.000 115.200 C 17.780 115.200,17.600 115.560,17.600 116.000 C 17.600 116.440,17.420 116.800,17.200 116.800 C 16.980 116.800,16.800 117.160,16.800 117.600 C 16.800 118.040,16.620 118.400,16.400 118.400 C 16.180 118.400,16.000 118.760,16.000 119.200 C 16.000 119.640,15.820 120.000,15.600 120.000 C 15.380 120.000,15.200 120.540,15.200 121.200 C 15.200 121.860,15.020 122.400,14.800 122.400 C 14.580 122.400,14.400 122.760,14.400 123.200 C 14.400 123.640,14.220 124.000,14.000 124.000 C 13.780 124.000,13.600 124.360,13.600 124.800 C 13.600 125.240,13.420 125.600,13.200 125.600 C 12.980 125.600,12.800 126.039,12.800 126.576 C 12.800 127.113,12.620 127.664,12.400 127.800 C 12.180 127.936,12.000 128.487,12.000 129.024 C 12.000 129.561,11.820 130.000,11.600 130.000 C 11.380 130.000,11.200 130.349,11.200 130.776 C 11.200 131.203,11.020 131.664,10.800 131.800 C 10.580 131.936,10.400 132.476,10.400 133.000 C 10.400 133.524,10.220 134.064,10.000 134.200 C 9.780 134.336,9.600 134.851,9.600 135.344 C 9.600 135.837,9.421 136.419,9.202 136.638 C 8.984 136.856,8.688 138.152,8.546 139.518 C 8.403 140.883,8.132 142.000,7.943 142.000 C 7.754 142.000,7.600 142.450,7.600 143.000 C 7.600 143.550,7.420 144.000,7.200 144.000 C 6.980 144.000,6.800 144.720,6.800 145.600 C 6.800 146.480,6.620 147.200,6.400 147.200 C 6.180 147.200,6.000 147.740,6.000 148.400 C 6.000 149.060,5.820 149.600,5.600 149.600 C 5.380 149.600,5.200 150.320,5.200 151.200 C 5.200 152.080,5.020 152.800,4.800 152.800 C 4.580 152.800,4.400 153.700,4.400 154.800 C 4.400 155.900,4.220 156.800,4.000 156.800 C 3.780 156.800,3.600 157.610,3.600 158.600 C 3.600 159.590,3.420 160.400,3.200 160.400 C 2.980 160.400,2.800 161.300,2.800 162.400 C 2.800 163.500,2.620 164.400,2.400 164.400 C 2.178 164.400,2.000 165.467,2.000 166.800 C 2.000 168.133,1.822 169.200,1.600 169.200 C 1.372 169.200,1.200 170.389,1.200 171.967 C 1.200 173.824,1.036 174.788,0.700 174.900 C -0.032 175.144,-0.032 224.856,0.700 225.100 C 1.036 225.212,1.200 226.176,1.200 228.033 C 1.200 229.611,1.372 230.800,1.600 230.800 C 1.822 230.800,2.000 231.867,2.000 233.200 C 2.000 234.533,2.178 235.600,2.400 235.600 C 2.620 235.600,2.800 236.579,2.800 237.776 C 2.800 238.973,2.980 240.064,3.200 240.200 C 3.420 240.336,3.600 241.067,3.600 241.824 C 3.600 242.581,3.780 243.200,4.000 243.200 C 4.220 243.200,4.400 244.100,4.400 245.200 C 4.400 246.300,4.580 247.200,4.800 247.200 C 5.020 247.200,5.200 247.920,5.200 248.800 C 5.200 249.680,5.380 250.400,5.600 250.400 C 5.820 250.400,6.000 251.120,6.000 252.000 C 6.000 252.880,6.180 253.600,6.400 253.600 C 6.620 253.600,6.800 254.140,6.800 254.800 C 6.800 255.460,6.980 256.000,7.200 256.000 C 7.420 256.000,7.600 256.630,7.600 257.400 C 7.600 258.170,7.780 258.800,8.000 258.800 C 8.220 258.800,8.400 259.229,8.400 259.754 C 8.400 260.778,9.440 264.553,10.037 265.695 C 10.237 266.077,10.400 266.741,10.400 267.171 C 10.400 267.601,10.580 268.064,10.800 268.200 C 11.020 268.336,11.200 268.797,11.200 269.224 C 11.200 269.651,11.380 270.000,11.600 270.000 C 11.820 270.000,12.000 270.439,12.000 270.976 C 12.000 271.513,12.180 272.064,12.400 272.200 C 12.620 272.336,12.800 272.887,12.800 273.424 C 12.800 273.961,12.980 274.400,13.200 274.400 C 13.420 274.400,13.600 274.760,13.600 275.200 C 13.600 275.640,13.780 276.000,14.000 276.000 C 14.220 276.000,14.400 276.540,14.400 277.200 C 14.400 277.860,14.580 278.400,14.800 278.400 C 15.020 278.400,15.200 278.760,15.200 279.200 C 15.200 279.640,15.380 280.000,15.600 280.000 C 15.820 280.000,16.000 280.360,16.000 280.800 C 16.000 281.240,16.180 281.600,16.400 281.600 C 16.620 281.600,16.800 281.960,16.800 282.400 C 16.800 282.840,16.980 283.200,17.200 283.200 C 17.420 283.200,17.600 283.740,17.600 284.400 C 17.600 285.060,17.780 285.600,18.000 285.600 C 18.220 285.600,18.400 285.960,18.400 286.400 C 18.400 286.840,18.535 287.201,18.700 287.201 C 18.865 287.202,19.450 288.192,20.000 289.400 C 20.550 290.608,21.135 291.598,21.300 291.599 C 21.465 291.599,21.600 291.960,21.600 292.400 C 21.600 292.840,21.780 293.200,22.000 293.200 C 22.220 293.200,22.400 293.520,22.400 293.912 C 22.400 294.303,22.760 294.883,23.200 295.200 C 23.640 295.517,24.000 296.097,24.000 296.488 C 24.000 296.880,24.180 297.200,24.400 297.200 C 24.620 297.200,24.800 297.464,24.800 297.786 C 24.800 298.599,26.076 301.200,26.474 301.200 C 26.653 301.200,26.800 301.560,26.800 302.000 C 26.800 302.440,26.980 302.800,27.200 302.800 C 27.420 302.800,27.600 303.036,27.600 303.325 C 27.600 303.613,27.915 304.198,28.300 304.625 C 28.685 305.051,29.269 305.940,29.597 306.600 C 29.926 307.260,30.511 308.091,30.897 308.447 C 31.284 308.803,31.600 309.348,31.600 309.659 C 31.600 309.969,31.960 310.483,32.400 310.800 C 32.840 311.117,33.200 311.657,33.200 312.000 C 33.200 312.343,33.560 312.883,34.000 313.200 C 34.440 313.517,34.800 314.025,34.800 314.328 C 34.800 314.631,35.340 315.383,36.000 316.000 C 36.660 316.617,37.200 317.369,37.200 317.672 C 37.200 317.975,37.560 318.483,38.000 318.800 C 38.440 319.117,38.800 319.625,38.800 319.928 C 38.800 320.231,39.340 320.983,40.000 321.600 C 40.660 322.217,41.200 322.903,41.200 323.126 C 41.200 323.349,41.830 324.180,42.600 324.973 C 43.370 325.766,44.000 326.576,44.000 326.772 C 44.000 326.969,45.080 328.227,46.400 329.568 C 47.720 330.908,48.800 332.190,48.800 332.415 C 48.800 332.641,50.825 334.806,53.300 337.226 C 58.703 342.510,57.490 341.297,62.774 346.700 C 65.194 349.175,67.372 351.200,67.613 351.200 C 67.855 351.200,68.929 352.100,70.000 353.200 C 71.071 354.300,72.154 355.200,72.405 355.200 C 72.657 355.200,73.554 355.920,74.400 356.800 C 75.246 357.680,76.125 358.400,76.355 358.400 C 76.585 358.400,77.403 359.030,78.173 359.800 C 78.943 360.570,79.810 361.200,80.098 361.200 C 80.387 361.200,80.883 361.560,81.200 362.000 C 81.517 362.440,82.025 362.800,82.328 362.800 C 82.631 362.800,83.383 363.340,84.000 364.000 C 84.617 364.660,85.369 365.200,85.672 365.200 C 85.975 365.200,86.483 365.560,86.800 366.000 C 87.117 366.440,87.657 366.800,88.000 366.800 C 88.343 366.800,88.883 367.160,89.200 367.600 C 89.517 368.040,90.031 368.400,90.341 368.400 C 90.652 368.400,91.197 368.716,91.553 369.103 C 91.909 369.489,92.740 370.074,93.400 370.403 C 94.060 370.731,94.949 371.315,95.375 371.700 C 95.802 372.085,96.387 372.400,96.675 372.400 C 96.964 372.400,97.200 372.580,97.200 372.800 C 97.200 373.020,97.478 373.200,97.817 373.200 C 98.156 373.200,98.817 373.558,99.287 373.995 C 99.756 374.432,100.739 374.902,101.470 375.040 C 102.202 375.177,102.800 375.449,102.800 375.645 C 102.800 375.840,103.160 376.000,103.600 376.000 C 104.040 376.000,104.400 376.180,104.400 376.400 C 104.400 376.620,104.720 376.800,105.112 376.800 C 105.503 376.800,106.083 377.160,106.400 377.600 C 106.717 378.040,107.297 378.400,107.688 378.400 C 108.080 378.400,108.400 378.546,108.400 378.725 C 108.400 378.904,109.030 379.298,109.800 379.600 C 110.570 379.902,111.200 380.296,111.200 380.475 C 111.200 380.654,111.560 380.800,112.000 380.800 C 112.440 380.800,112.800 380.980,112.800 381.200 C 112.800 381.420,113.340 381.600,114.000 381.600 C 114.660 381.600,115.200 381.780,115.200 382.000 C 115.200 382.220,115.560 382.400,116.000 382.400 C 116.440 382.400,116.800 382.580,116.800 382.800 C 116.800 383.020,117.160 383.200,117.600 383.200 C 118.040 383.200,118.400 383.380,118.400 383.600 C 118.400 383.820,118.760 384.000,119.200 384.000 C 119.640 384.000,120.000 384.180,120.000 384.400 C 120.000 384.620,120.540 384.800,121.200 384.800 C 121.860 384.800,122.400 384.980,122.400 385.200 C 122.400 385.420,122.760 385.600,123.200 385.600 C 123.640 385.600,124.000 385.780,124.000 386.000 C 124.000 386.220,124.360 386.400,124.800 386.400 C 125.240 386.400,125.600 386.580,125.600 386.800 C 125.600 387.020,126.039 387.200,126.576 387.200 C 127.113 387.200,127.664 387.380,127.800 387.600 C 127.936 387.820,128.487 388.000,129.024 388.000 C 129.561 388.000,130.000 388.180,130.000 388.400 C 130.000 388.620,130.349 388.800,130.776 388.800 C 131.203 388.800,131.664 388.980,131.800 389.200 C 131.936 389.420,132.476 389.600,133.000 389.600 C 133.524 389.600,134.064 389.780,134.200 390.000 C 134.336 390.220,134.851 390.400,135.344 390.400 C 135.837 390.400,136.419 390.579,136.638 390.798 C 136.856 391.016,138.152 391.312,139.518 391.454 C 140.883 391.597,142.000 391.868,142.000 392.057 C 142.000 392.246,142.450 392.400,143.000 392.400 C 143.550 392.400,144.000 392.580,144.000 392.800 C 144.000 393.020,144.720 393.200,145.600 393.200 C 146.480 393.200,147.200 393.380,147.200 393.600 C 147.200 393.820,147.740 394.000,148.400 394.000 C 149.060 394.000,149.600 394.180,149.600 394.400 C 149.600 394.620,150.320 394.800,151.200 394.800 C 152.080 394.800,152.800 394.980,152.800 395.200 C 152.800 395.420,153.700 395.600,154.800 395.600 C 155.900 395.600,156.800 395.780,156.800 396.000 C 156.800 396.220,157.610 396.400,158.600 396.400 C 159.590 396.400,160.400 396.580,160.400 396.800 C 160.400 397.020,161.300 397.200,162.400 397.200 C 163.500 397.200,164.400 397.380,164.400 397.600 C 164.400 397.822,165.467 398.000,166.800 398.000 C 168.133 398.000,169.200 398.178,169.200 398.400 C 169.200 398.628,170.389 398.800,171.967 398.800 C 173.824 398.800,174.788 398.964,174.900 399.300 C 175.144 400.032,224.856 400.032,225.100 399.300 C 225.212 398.964,226.176 398.800,228.033 398.800 C 229.611 398.800,230.800 398.628,230.800 398.400 C 230.800 398.178,231.867 398.000,233.200 398.000 C 234.533 398.000,235.600 397.822,235.600 397.600 C 235.600 397.380,236.579 397.200,237.776 397.200 C 238.973 397.200,240.064 397.020,240.200 396.800 C 240.336 396.580,241.067 396.400,241.824 396.400 C 242.581 396.400,243.200 396.220,243.200 396.000 C 243.200 395.780,244.100 395.600,245.200 395.600 C 246.300 395.600,247.200 395.420,247.200 395.200 C 247.200 394.980,247.920 394.800,248.800 394.800 C 249.680 394.800,250.400 394.620,250.400 394.400 C 250.400 394.180,251.120 394.000,252.000 394.000 C 252.880 394.000,253.600 393.820,253.600 393.600 C 253.600 393.380,254.140 393.200,254.800 393.200 C 255.460 393.200,256.000 393.020,256.000 392.800 C 256.000 392.580,256.630 392.400,257.400 392.400 C 258.170 392.400,258.800 392.220,258.800 392.000 C 258.800 391.780,259.229 391.600,259.754 391.600 C 260.778 391.600,264.553 390.560,265.695 389.963 C 266.077 389.763,266.741 389.600,267.171 389.600 C 267.601 389.600,268.064 389.420,268.200 389.200 C 268.336 388.980,268.797 388.800,269.224 388.800 C 269.651 388.800,270.000 388.620,270.000 388.400 C 270.000 388.180,270.439 388.000,270.976 388.000 C 271.513 388.000,272.064 387.820,272.200 387.600 C 272.336 387.380,272.887 387.200,273.424 387.200 C 273.961 387.200,274.400 387.020,274.400 386.800 C 274.400 386.580,274.760 386.400,275.200 386.400 C 275.640 386.400,276.000 386.220,276.000 386.000 C 276.000 385.780,276.540 385.600,277.200 385.600 C 277.860 385.600,278.400 385.420,278.400 385.200 C 278.400 384.980,278.760 384.800,279.200 384.800 C 279.640 384.800,280.000 384.620,280.000 384.400 C 280.000 384.180,280.360 384.000,280.800 384.000 C 281.240 384.000,281.600 383.820,281.600 383.600 C 281.600 383.380,281.960 383.200,282.400 383.200 C 282.840 383.200,283.200 383.020,283.200 382.800 C 283.200 382.580,283.740 382.400,284.400 382.400 C 285.060 382.400,285.600 382.220,285.600 382.000 C 285.600 381.780,285.960 381.600,286.400 381.600 C 286.840 381.600,287.201 381.465,287.201 381.300 C 287.202 381.135,288.192 380.550,289.400 380.000 C 290.608 379.450,291.598 378.865,291.599 378.700 C 291.599 378.535,291.960 378.400,292.400 378.400 C 292.840 378.400,293.200 378.220,293.200 378.000 C 293.200 377.780,293.520 377.600,293.912 377.600 C 294.303 377.600,294.883 377.240,295.200 376.800 C 295.517 376.360,296.097 376.000,296.488 376.000 C 296.880 376.000,297.200 375.820,297.200 375.600 C 297.200 375.380,297.464 375.200,297.786 375.200 C 298.599 375.200,301.200 373.924,301.200 373.526 C 301.200 373.347,301.560 373.200,302.000 373.200 C 302.440 373.200,302.800 373.020,302.800 372.800 C 302.800 372.580,303.036 372.400,303.325 372.400 C 303.613 372.400,304.198 372.085,304.625 371.700 C 305.051 371.315,305.940 370.731,306.600 370.403 C 307.260 370.074,308.091 369.489,308.447 369.103 C 308.803 368.716,309.348 368.400,309.659 368.400 C 309.969 368.400,310.483 368.040,310.800 367.600 C 311.117 367.160,311.657 366.800,312.000 366.800 C 312.343 366.800,312.883 366.440,313.200 366.000 C 313.517 365.560,314.025 365.200,314.328 365.200 C 314.631 365.200,315.383 364.660,316.000 364.000 C 316.617 363.340,317.369 362.800,317.672 362.800 C 317.975 362.800,318.483 362.440,318.800 362.000 C 319.117 361.560,319.625 361.200,319.928 361.200 C 320.231 361.200,320.983 360.660,321.600 360.000 C 322.217 359.340,322.934 358.800,323.194 358.800 C 323.454 358.800,324.279 358.170,325.026 357.400 C 325.774 356.630,326.553 356.000,326.758 356.000 C 326.963 356.000,328.227 354.920,329.568 353.600 C 330.908 352.280,332.190 351.200,332.415 351.200 C 332.641 351.200,334.806 349.175,337.226 346.700 C 342.510 341.297,341.297 342.510,346.700 337.226 C 349.175 334.806,351.200 332.628,351.200 332.387 C 351.200 332.145,352.100 331.071,353.200 330.000 C 354.300 328.929,355.204 327.815,355.209 327.526 C 355.214 327.237,355.934 326.381,356.809 325.624 C 357.684 324.867,358.400 324.018,358.400 323.737 C 358.400 323.456,359.030 322.597,359.800 321.827 C 360.570 321.057,361.200 320.190,361.200 319.902 C 361.200 319.613,361.560 319.117,362.000 318.800 C 362.440 318.483,362.800 317.975,362.800 317.672 C 362.800 317.369,363.340 316.617,364.000 316.000 C 364.660 315.383,365.200 314.631,365.200 314.328 C 365.200 314.025,365.560 313.517,366.000 313.200 C 366.440 312.883,366.800 312.343,366.800 312.000 C 366.800 311.657,367.160 311.117,367.600 310.800 C 368.040 310.483,368.400 309.922,368.400 309.554 C 368.400 309.187,368.656 308.787,368.970 308.667 C 369.283 308.547,369.862 307.762,370.257 306.924 C 370.651 306.086,371.295 305.051,371.687 304.625 C 372.079 304.198,372.400 303.613,372.400 303.325 C 372.400 303.036,372.580 302.800,372.800 302.800 C 373.020 302.800,373.200 302.522,373.200 302.183 C 373.200 301.844,373.558 301.183,373.995 300.713 C 374.432 300.244,374.902 299.261,375.040 298.530 C 375.177 297.798,375.449 297.200,375.645 297.200 C 375.840 297.200,376.000 296.840,376.000 296.400 C 376.000 295.960,376.180 295.600,376.400 295.600 C 376.620 295.600,376.800 295.280,376.800 294.888 C 376.800 294.497,377.160 293.917,377.600 293.600 C 378.040 293.283,378.400 292.703,378.400 292.312 C 378.400 291.920,378.546 291.600,378.725 291.600 C 378.904 291.600,379.298 290.970,379.600 290.200 C 379.902 289.430,380.296 288.800,380.475 288.800 C 380.654 288.800,380.800 288.440,380.800 288.000 C 380.800 287.560,380.980 287.200,381.200 287.200 C 381.420 287.200,381.600 286.660,381.600 286.000 C 381.600 285.340,381.780 284.800,382.000 284.800 C 382.220 284.800,382.400 284.440,382.400 284.000 C 382.400 283.560,382.580 283.200,382.800 283.200 C 383.020 283.200,383.200 282.840,383.200 282.400 C 383.200 281.960,383.380 281.600,383.600 281.600 C 383.820 281.600,384.000 281.240,384.000 280.800 C 384.000 280.360,384.180 280.000,384.400 280.000 C 384.620 280.000,384.800 279.460,384.800 278.800 C 384.800 278.140,384.980 277.600,385.200 277.600 C 385.420 277.600,385.600 277.240,385.600 276.800 C 385.600 276.360,385.780 276.000,386.000 276.000 C 386.220 276.000,386.400 275.640,386.400 275.200 C 386.400 274.760,386.580 274.400,386.800 274.400 C 387.020 274.400,387.200 273.961,387.200 273.424 C 387.200 272.887,387.380 272.336,387.600 272.200 C 387.820 272.064,388.000 271.513,388.000 270.976 C 388.000 270.439,388.180 270.000,388.400 270.000 C 388.620 270.000,388.800 269.651,388.800 269.224 C 388.800 268.797,388.980 268.336,389.200 268.200 C 389.420 268.064,389.600 267.524,389.600 267.000 C 389.600 266.476,389.780 265.936,390.000 265.800 C 390.220 265.664,390.400 265.124,390.400 264.600 C 390.400 264.076,390.572 263.541,390.782 263.411 C 390.991 263.282,391.285 262.101,391.433 260.788 C 391.582 259.475,391.860 258.400,392.052 258.400 C 392.243 258.400,392.400 257.860,392.400 257.200 C 392.400 256.540,392.580 256.000,392.800 256.000 C 393.020 256.000,393.200 255.280,393.200 254.400 C 393.200 253.520,393.380 252.800,393.600 252.800 C 393.820 252.800,394.000 252.260,394.000 251.600 C 394.000 250.940,394.180 250.400,394.400 250.400 C 394.620 250.400,394.800 249.680,394.800 248.800 C 394.800 247.920,394.980 247.200,395.200 247.200 C 395.420 247.200,395.600 246.300,395.600 245.200 C 395.600 244.100,395.780 243.200,396.000 243.200 C 396.220 243.200,396.400 242.390,396.400 241.400 C 396.400 240.410,396.580 239.600,396.800 239.600 C 397.020 239.600,397.200 238.700,397.200 237.600 C 397.200 236.500,397.380 235.600,397.600 235.600 C 397.822 235.600,398.000 234.533,398.000 233.200 C 398.000 231.867,398.178 230.800,398.400 230.800 C 398.628 230.800,398.800 229.611,398.800 228.033 C 398.800 226.176,398.964 225.212,399.300 225.100 C 399.693 224.969,399.800 219.591,399.800 200.000 C 399.800 180.409,399.693 175.031,399.300 174.900 C 398.964 174.788,398.800 173.824,398.800 171.967 C 398.800 170.389,398.628 169.200,398.400 169.200 C 398.178 169.200,398.000 168.133,398.000 166.800 C 398.000 165.467,397.822 164.400,397.600 164.400 C 397.380 164.400,397.200 163.421,397.200 162.224 C 397.200 161.027,397.020 159.936,396.800 159.800 C 396.580 159.664,396.400 158.933,396.400 158.176 C 396.400 157.419,396.220 156.800,396.000 156.800 C 395.780 156.800,395.600 155.900,395.600 154.800 C 395.600 153.700,395.420 152.800,395.200 152.800 C 394.980 152.800,394.800 152.080,394.800 151.200 C 394.800 150.320,394.620 149.600,394.400 149.600 C 394.180 149.600,394.000 148.880,394.000 148.000 C 394.000 147.120,393.820 146.400,393.600 146.400 C 393.380 146.400,393.200 145.860,393.200 145.200 C 393.200 144.540,393.020 144.000,392.800 144.000 C 392.580 144.000,392.400 143.370,392.400 142.600 C 392.400 141.830,392.220 141.200,392.000 141.200 C 391.780 141.200,391.600 140.771,391.600 140.246 C 391.600 139.222,390.560 135.447,389.963 134.305 C 389.763 133.923,389.600 133.259,389.600 132.829 C 389.600 132.399,389.420 131.936,389.200 131.800 C 388.980 131.664,388.800 131.203,388.800 130.776 C 388.800 130.349,388.620 130.000,388.400 130.000 C 388.180 130.000,388.000 129.561,388.000 129.024 C 388.000 128.487,387.820 127.936,387.600 127.800 C 387.380 127.664,387.200 127.113,387.200 126.576 C 387.200 126.039,387.020 125.600,386.800 125.600 C 386.580 125.600,386.400 125.240,386.400 124.800 C 386.400 124.360,386.220 124.000,386.000 124.000 C 385.780 124.000,385.600 123.460,385.600 122.800 C 385.600 122.140,385.420 121.600,385.200 121.600 C 384.980 121.600,384.800 121.240,384.800 120.800 C 384.800 120.360,384.620 120.000,384.400 120.000 C 384.180 120.000,384.000 119.640,384.000 119.200 C 384.000 118.760,383.820 118.400,383.600 118.400 C 383.380 118.400,383.200 118.040,383.200 117.600 C 383.200 117.160,383.020 116.800,382.800 116.800 C 382.580 116.800,382.400 116.260,382.400 115.600 C 382.400 114.940,382.220 114.400,382.000 114.400 C 381.780 114.400,381.600 114.040,381.600 113.600 C 381.600 113.160,381.465 112.799,381.300 112.799 C 381.135 112.798,380.550 111.808,380.000 110.600 C 379.450 109.392,378.865 108.402,378.700 108.401 C 378.535 108.401,378.400 108.040,378.400 107.600 C 378.400 107.160,378.220 106.800,378.000 106.800 C 377.780 106.800,377.600 106.480,377.600 106.088 C 377.600 105.697,377.240 105.117,376.800 104.800 C 376.360 104.483,376.000 103.903,376.000 103.512 C 376.000 103.120,375.820 102.800,375.600 102.800 C 375.380 102.800,375.200 102.536,375.200 102.214 C 375.200 101.401,373.924 98.800,373.526 98.800 C 373.347 98.800,373.200 98.440,373.200 98.000 C 373.200 97.560,373.020 97.200,372.800 97.200 C 372.580 97.200,372.400 96.964,372.400 96.675 C 372.400 96.387,372.085 95.802,371.700 95.375 C 371.315 94.949,370.731 94.060,370.403 93.400 C 370.074 92.740,369.489 91.909,369.103 91.553 C 368.716 91.197,368.400 90.652,368.400 90.341 C 368.400 90.031,368.040 89.517,367.600 89.200 C 367.160 88.883,366.800 88.343,366.800 88.000 C 366.800 87.657,366.440 87.117,366.000 86.800 C 365.560 86.483,365.200 85.975,365.200 85.672 C 365.200 85.369,364.660 84.617,364.000 84.000 C 363.340 83.383,362.800 82.631,362.800 82.328 C 362.800 82.025,362.440 81.517,362.000 81.200 C 361.560 80.883,361.200 80.375,361.200 80.072 C 361.200 79.769,360.660 79.017,360.000 78.400 C 359.340 77.783,358.800 77.087,358.800 76.853 C 358.800 76.618,358.170 75.797,357.400 75.027 C 356.630 74.257,356.000 73.456,356.000 73.248 C 356.000 73.040,354.920 71.773,353.600 70.432 C 352.280 69.092,351.200 67.810,351.200 67.585 C 351.200 67.359,349.175 65.194,346.700 62.774 C 341.297 57.490,342.510 58.703,337.226 53.300 C 334.806 50.825,332.628 48.800,332.387 48.800 C 332.145 48.800,331.071 47.900,330.000 46.800 C 328.929 45.700,327.815 44.796,327.526 44.791 C 327.237 44.787,326.462 44.157,325.804 43.391 C 325.146 42.626,324.403 42.000,324.152 42.000 C 323.901 42.000,322.955 41.280,322.048 40.400 C 321.141 39.520,320.169 38.800,319.888 38.800 C 319.607 38.800,319.117 38.440,318.800 38.000 C 318.483 37.560,317.975 37.200,317.672 37.200 C 317.369 37.200,316.617 36.660,316.000 36.000 C 315.383 35.340,314.631 34.800,314.328 34.800 C 314.025 34.800,313.517 34.440,313.200 34.000 C 312.883 33.560,312.343 33.200,312.000 33.200 C 311.657 33.200,311.117 32.840,310.800 32.400 C 310.483 31.960,309.922 31.600,309.554 31.600 C 309.187 31.600,308.787 31.344,308.667 31.030 C 308.547 30.717,307.762 30.138,306.924 29.743 C 306.086 29.349,305.051 28.705,304.625 28.313 C 304.198 27.921,303.613 27.600,303.325 27.600 C 303.036 27.600,302.800 27.420,302.800 27.200 C 302.800 26.980,302.440 26.800,302.000 26.800 C 301.560 26.800,301.200 26.653,301.200 26.474 C 301.200 26.076,298.599 24.800,297.786 24.800 C 297.464 24.800,297.200 24.620,297.200 24.400 C 297.200 24.180,296.840 24.000,296.400 24.000 C 295.960 24.000,295.600 23.820,295.600 23.600 C 295.600 23.380,295.280 23.200,294.888 23.200 C 294.497 23.200,293.917 22.840,293.600 22.400 C 293.283 21.960,292.703 21.600,292.312 21.600 C 291.920 21.600,291.600 21.454,291.600 21.275 C 291.600 21.096,290.970 20.702,290.200 20.400 C 289.430 20.098,288.800 19.704,288.800 19.525 C 288.800 19.346,288.440 19.200,288.000 19.200 C 287.560 19.200,287.200 19.020,287.200 18.800 C 287.200 18.580,286.660 18.400,286.000 18.400 C 285.340 18.400,284.800 18.220,284.800 18.000 C 284.800 17.780,284.440 17.600,284.000 17.600 C 283.560 17.600,283.200 17.420,283.200 17.200 C 283.200 16.980,282.840 16.800,282.400 16.800 C 281.960 16.800,281.600 16.620,281.600 16.400 C 281.600 16.180,281.240 16.000,280.800 16.000 C 280.360 16.000,280.000 15.820,280.000 15.600 C 280.000 15.380,279.460 15.200,278.800 15.200 C 278.140 15.200,277.600 15.020,277.600 14.800 C 277.600 14.580,277.240 14.400,276.800 14.400 C 276.360 14.400,276.000 14.220,276.000 14.000 C 276.000 13.780,275.640 13.600,275.200 13.600 C 274.760 13.600,274.400 13.420,274.400 13.200 C 274.400 12.980,273.961 12.800,273.424 12.800 C 272.887 12.800,272.336 12.620,272.200 12.400 C 272.064 12.180,271.513 12.000,270.976 12.000 C 270.439 12.000,270.000 11.820,270.000 11.600 C 270.000 11.380,269.651 11.200,269.224 11.200 C 268.797 11.200,268.336 11.020,268.200 10.800 C 268.064 10.580,267.524 10.400,267.000 10.400 C 266.476 10.400,265.936 10.220,265.800 10.000 C 265.664 9.780,265.124 9.600,264.600 9.600 C 264.076 9.600,263.541 9.428,263.411 9.218 C 263.282 9.009,262.101 8.715,260.788 8.567 C 259.475 8.418,258.400 8.140,258.400 7.948 C 258.400 7.757,257.860 7.600,257.200 7.600 C 256.540 7.600,256.000 7.420,256.000 7.200 C 256.000 6.980,255.280 6.800,254.400 6.800 C 253.520 6.800,252.800 6.620,252.800 6.400 C 252.800 6.180,252.260 6.000,251.600 6.000 C 250.940 6.000,250.400 5.820,250.400 5.600 C 250.400 5.380,249.680 5.200,248.800 5.200 C 247.920 5.200,247.200 5.020,247.200 4.800 C 247.200 4.580,246.300 4.400,245.200 4.400 C 244.100 4.400,243.200 4.220,243.200 4.000 C 243.200 3.780,242.390 3.600,241.400 3.600 C 240.410 3.600,239.600 3.420,239.600 3.200 C 239.600 2.980,238.700 2.800,237.600 2.800 C 236.500 2.800,235.600 2.620,235.600 2.400 C 235.600 2.178,234.533 2.000,233.200 2.000 C 231.867 2.000,230.800 1.822,230.800 1.600 C 230.800 1.372,229.611 1.200,228.033 1.200 C 226.238 1.200,225.211 1.032,225.107 0.720 C 224.948 0.244,188.291 -0.109,178.700 0.273 M314.925 110.322 C 315.759 111.192,316.000 111.839,316.000 113.204 L 316.000 114.964 296.900 134.112 C 286.395 144.644,277.132 153.607,276.316 154.030 C 274.863 154.784,272.827 154.800,180.647 154.800 L 86.462 154.800 85.231 153.569 C 82.224 150.563,81.491 151.532,103.300 129.691 C 113.915 119.061,123.050 110.121,123.600 109.824 C 124.430 109.376,140.671 109.278,219.225 109.242 L 313.850 109.200 314.925 110.322 M274.906 176.888 C 277.815 177.725,316.000 216.048,316.000 218.130 C 316.000 220.049,315.049 221.485,313.293 222.219 C 311.494 222.971,128.276 223.109,125.960 222.360 C 125.212 222.119,124.060 221.670,123.400 221.363 C 120.379 219.958,84.000 182.677,84.000 180.986 C 84.001 179.252,85.055 177.720,86.800 176.915 C 88.290 176.228,272.522 176.201,274.906 176.888 M314.769 246.431 C 315.761 247.423,316.000 247.995,316.000 249.379 L 316.000 251.096 296.700 270.359 C 286.085 280.953,276.884 289.886,276.254 290.210 C 275.254 290.725,263.099 290.800,180.737 290.800 L 86.365 290.800 85.370 289.877 C 83.956 288.566,83.687 286.398,84.731 284.725 C 86.244 282.300,122.955 246.000,123.895 246.000 C 124.367 246.000,124.864 245.820,125.000 245.600 C 125.164 245.335,157.061 245.200,219.393 245.200 L 313.538 245.200 314.769 246.431 " stroke="none" fill="#fcfcfc" fill-rule="evenodd"></path><path id="path2" d="M124.938 109.506 C 124.524 109.770,215.323 109.764,284.200 109.497 C 298.720 109.440,268.930 109.353,218.000 109.303 C 167.070 109.253,125.192 109.344,124.938 109.506 M103.694 129.710 C 93.082 140.330,84.400 149.180,84.400 149.376 C 84.400 149.573,84.445 149.653,84.500 149.555 C 84.555 149.457,93.327 140.607,103.994 129.888 C 114.661 119.170,123.299 110.400,123.189 110.400 C 123.079 110.400,114.306 119.089,103.694 129.710 M281.789 148.500 L 279.000 151.400 281.900 148.611 C 283.495 147.077,284.800 145.772,284.800 145.711 C 284.800 145.417,284.380 145.806,281.789 148.500 M86.938 154.494 C 87.192 154.656,129.430 154.788,180.800 154.788 C 232.170 154.788,274.408 154.656,274.662 154.494 C 274.916 154.332,232.678 154.200,180.800 154.200 C 128.922 154.200,86.684 154.332,86.938 154.494 M134.100 177.100 C 159.785 177.157,201.815 177.157,227.500 177.100 C 253.185 177.043,232.170 176.997,180.800 176.997 C 129.430 176.997,108.415 177.043,134.100 177.100 M84.401 181.990 C 84.400 182.548,121.527 220.068,122.800 220.795 C 123.130 220.984,114.965 212.737,104.656 202.469 C 94.347 192.201,85.573 183.260,85.158 182.600 C 84.743 181.940,84.402 181.666,84.401 181.990 M314.434 220.953 L 313.469 222.200 314.613 221.112 C 315.243 220.514,315.677 219.953,315.579 219.865 C 315.480 219.777,314.965 220.267,314.434 220.953 M199.500 222.300 C 220.235 222.357,254.165 222.357,274.900 222.300 C 295.635 222.243,278.670 222.196,237.200 222.196 C 195.730 222.196,178.765 222.243,199.500 222.300 M152.800 245.497 C 222.212 245.764,313.476 245.770,313.062 245.506 C 312.808 245.344,270.660 245.253,219.400 245.303 C 168.140 245.353,138.170 245.440,152.800 245.497 M116.834 252.700 L 110.178 259.400 116.389 253.355 C 119.805 250.030,123.045 247.015,123.589 246.655 C 124.133 246.295,124.333 246.000,124.034 246.000 C 123.734 246.000,120.494 249.015,116.834 252.700 M312.814 253.390 L 310.228 256.200 312.996 253.515 C 314.518 252.038,315.681 250.773,315.581 250.705 C 315.482 250.636,314.236 251.844,312.814 253.390 M101.396 268.093 C 96.998 272.545,94.273 275.380,95.340 274.393 C 96.407 273.407,100.007 269.845,103.340 266.477 C 110.502 259.240,109.772 260.000,109.563 260.000 C 109.469 260.000,105.794 263.642,101.396 268.093 M302.800 263.400 C 301.161 265.050,299.910 266.400,300.020 266.400 C 300.130 266.400,301.561 265.050,303.200 263.400 C 304.839 261.750,306.090 260.400,305.980 260.400 C 305.870 260.400,304.439 261.750,302.800 263.400 M292.400 273.800 C 290.761 275.450,289.510 276.800,289.620 276.800 C 289.730 276.800,291.161 275.450,292.800 273.800 C 294.439 272.150,295.690 270.800,295.580 270.800 C 295.470 270.800,294.039 272.150,292.400 273.800 M88.260 281.178 C 86.137 283.366,84.401 285.481,84.402 285.878 C 84.404 286.368,84.602 286.215,85.020 285.400 C 85.358 284.740,86.392 283.460,87.317 282.556 C 90.137 279.802,92.579 277.200,92.344 277.200 C 92.221 277.200,90.384 278.990,88.260 281.178 M282.795 283.500 L 276.600 289.800 282.900 283.605 C 288.753 277.849,289.381 277.200,289.095 277.200 C 289.037 277.200,286.202 280.035,282.795 283.500 M181.000 290.400 L 87.000 290.603 180.876 290.701 C 243.136 290.767,274.836 290.665,275.000 290.400 C 275.136 290.180,275.192 290.044,275.124 290.099 C 275.056 290.153,232.700 290.289,181.000 290.400 " stroke="none" fill="#a4e6fc" fill-rule="evenodd"></path><path id="path3" d="M124.200 110.173 C 122.262 111.049,84.400 149.257,84.400 150.337 C 84.400 151.738,85.533 153.594,86.645 154.017 C 87.672 154.408,274.725 154.592,274.335 154.202 C 274.226 154.093,233.561 153.982,183.968 153.955 C 82.801 153.901,86.575 153.974,85.459 152.058 C 84.715 150.781,84.710 150.660,85.356 149.566 C 86.614 147.437,123.849 110.400,124.732 110.400 C 125.183 110.400,125.664 110.220,125.800 110.000 C 126.130 109.466,125.650 109.518,124.200 110.173 M314.428 110.600 C 314.428 110.820,314.686 111.450,315.000 112.000 C 315.314 112.550,315.572 112.820,315.572 112.600 C 315.572 112.380,315.314 111.750,315.000 111.200 C 314.686 110.650,314.428 110.380,314.428 110.600 M315.032 114.299 C 314.899 114.717,314.426 115.451,313.980 115.929 C 313.534 116.408,313.341 116.800,313.552 116.800 C 314.024 116.800,315.771 114.038,315.482 113.749 C 315.367 113.634,315.165 113.882,315.032 114.299 M297.200 132.677 C 296.331 133.589,296.155 133.904,296.737 133.509 C 297.547 132.959,299.069 131.192,298.723 131.204 C 298.655 131.207,297.970 131.869,297.200 132.677 M289.787 140.078 C 288.474 141.440,287.739 142.299,288.153 141.985 C 289.527 140.944,292.717 137.600,292.336 137.600 C 292.248 137.600,291.101 138.715,289.787 140.078 M277.586 152.177 C 277.264 152.495,276.460 153.034,275.800 153.375 C 275.140 153.716,274.877 153.996,275.215 153.998 C 275.771 154.000,278.893 151.655,278.386 151.616 C 278.268 151.607,277.908 151.860,277.586 152.177 M86.300 177.632 C 85.206 178.269,84.300 180.343,84.592 181.543 C 84.757 182.220,91.425 189.199,103.125 200.942 C 122.418 220.306,125.200 222.859,125.200 221.200 C 125.200 220.980,124.917 220.800,124.571 220.800 C 124.226 220.800,123.705 220.575,123.414 220.300 C 117.398 214.611,85.783 182.741,85.378 181.957 C 84.767 180.776,85.108 179.635,86.482 178.261 C 87.090 177.653,94.458 177.594,181.271 177.500 L 275.400 177.398 181.200 177.311 C 117.780 177.253,86.771 177.358,86.300 177.632 M283.390 185.190 C 284.690 186.504,285.827 187.507,285.915 187.419 C 286.117 187.217,281.724 182.800,281.321 182.800 C 281.158 182.800,282.089 183.875,283.390 185.190 M299.790 201.590 C 301.090 202.904,302.227 203.907,302.315 203.819 C 302.517 203.617,298.124 199.200,297.721 199.200 C 297.558 199.200,298.489 200.275,299.790 201.590 M314.528 216.389 C 315.433 217.720,315.375 219.270,314.372 220.545 L 313.543 221.598 219.472 221.700 L 125.400 221.802 219.464 221.901 L 313.529 222.000 314.564 220.769 C 315.877 219.210,315.947 217.227,314.728 216.162 L 313.855 215.400 314.528 216.389 M124.800 246.064 C 123.137 246.533,86.054 283.282,84.972 285.533 C 84.206 287.126,84.694 288.777,86.226 289.781 C 87.888 290.869,117.600 290.698,117.600 289.600 C 117.600 288.949,117.333 288.800,116.171 288.800 C 114.659 288.800,113.600 288.071,113.600 287.029 C 113.600 286.683,113.420 286.400,113.200 286.400 C 112.980 286.400,112.800 286.040,112.800 285.600 C 112.800 285.139,112.533 284.800,112.171 284.800 C 111.363 284.800,110.400 283.837,110.400 283.029 C 110.400 282.683,110.140 282.400,109.823 282.400 C 109.435 282.400,109.196 281.844,109.093 280.700 L 108.940 279.000 108.870 280.700 C 108.774 283.043,107.600 283.135,107.600 280.800 C 107.600 279.612,107.438 279.200,106.971 279.200 C 104.845 279.200,104.891 276.834,107.028 276.290 C 107.453 276.181,107.035 276.072,106.100 276.046 C 104.889 276.013,104.400 275.830,104.400 275.410 C 104.400 274.968,104.099 274.880,103.200 275.060 C 102.005 275.299,102.000 275.292,102.000 273.450 C 102.000 271.661,101.960 271.600,100.800 271.600 C 99.169 271.600,99.083 271.735,103.700 267.024 C 105.955 264.724,108.722 261.887,109.848 260.721 C 115.209 255.170,123.483 247.200,123.885 247.200 C 124.131 247.200,124.393 247.025,124.467 246.810 C 124.740 246.011,312.026 245.755,313.627 246.552 C 314.947 247.208,314.973 247.207,314.286 246.517 C 313.455 245.684,127.727 245.239,124.800 246.064 M315.133 249.074 C 315.296 250.472,315.021 250.770,295.864 269.927 C 285.174 280.616,276.476 289.409,276.533 289.467 C 276.675 289.608,314.740 251.556,315.213 250.800 C 315.671 250.067,315.718 248.120,315.284 247.852 C 315.110 247.744,315.042 248.294,315.133 249.074 M274.200 290.000 C 273.908 290.473,274.299 290.473,275.400 290.000 C 276.171 289.669,276.169 289.655,275.324 289.628 C 274.842 289.613,274.336 289.780,274.200 290.000 " stroke="none" fill="#56d0fc" fill-rule="evenodd"></path><path id="path4" d="M314.369 110.236 C 315.046 110.805,315.621 111.660,315.646 112.136 C 315.686 112.869,315.722 112.888,315.883 112.260 C 316.070 111.535,314.248 109.200,313.494 109.200 C 313.299 109.200,313.692 109.666,314.369 110.236 M103.494 129.510 C 81.855 151.165,82.482 150.369,84.856 153.200 L 85.695 154.200 85.047 153.114 C 83.197 150.011,82.401 151.008,103.905 129.505 C 114.632 118.777,123.315 110.000,123.199 110.000 C 123.084 110.000,114.216 118.779,103.494 129.510 M295.800 134.772 C 285.240 145.314,276.870 153.784,277.200 153.594 C 277.893 153.196,315.497 115.599,315.198 115.602 C 315.089 115.604,306.360 124.230,295.800 134.772 M87.338 176.706 C 87.084 176.868,129.142 177.000,180.800 177.000 C 232.458 177.000,274.516 176.868,274.262 176.706 C 273.658 176.322,87.942 176.322,87.338 176.706 M84.485 178.813 C 83.097 181.035,83.701 182.236,88.682 187.166 L 93.364 191.800 88.882 187.161 C 84.211 182.327,83.304 180.456,84.873 178.887 C 85.134 178.626,85.262 178.329,85.158 178.225 C 85.055 178.121,84.752 178.386,84.485 178.813 M284.000 185.000 C 287.845 188.850,291.081 192.000,291.191 192.000 C 291.301 192.000,288.245 188.850,284.400 185.000 C 280.555 181.150,277.319 178.000,277.209 178.000 C 277.099 178.000,280.155 181.150,284.000 185.000 M99.400 198.000 C 102.694 201.300,105.480 204.000,105.590 204.000 C 105.700 204.000,103.094 201.300,99.800 198.000 C 96.506 194.700,93.720 192.000,93.610 192.000 C 93.500 192.000,96.106 194.700,99.400 198.000 M300.200 201.200 C 304.155 205.160,307.482 208.400,307.592 208.400 C 307.702 208.400,304.555 205.160,300.600 201.200 C 296.645 197.240,293.318 194.000,293.208 194.000 C 293.098 194.000,296.245 197.240,300.200 201.200 M312.600 213.600 C 313.906 214.920,315.065 216.000,315.175 216.000 C 315.285 216.000,314.306 214.920,313.000 213.600 C 311.694 212.280,310.535 211.200,310.425 211.200 C 310.315 211.200,311.294 212.280,312.600 213.600 M118.284 216.791 C 120.751 219.306,122.821 221.282,122.884 221.182 C 122.948 221.082,120.930 219.024,118.400 216.609 L 113.800 212.217 118.284 216.791 M126.232 222.443 C 127.225 222.832,312.051 222.882,312.661 222.494 C 312.914 222.332,270.899 222.187,219.293 222.171 C 167.687 222.155,125.810 222.277,126.232 222.443 M103.598 265.497 C 93.369 275.780,86.672 282.575,88.716 280.597 C 91.464 277.937,121.257 248.174,122.367 246.979 C 122.458 246.881,122.458 246.800,122.365 246.800 C 122.272 246.800,113.827 255.213,103.598 265.497 M315.523 249.138 L 315.646 251.000 296.109 270.505 C 285.363 281.232,276.725 289.958,276.912 289.896 C 277.100 289.833,285.971 281.078,296.627 270.439 L 316.000 251.096 316.000 249.372 C 316.000 248.423,315.865 247.564,315.700 247.461 C 315.535 247.359,315.455 248.113,315.523 249.138 M84.093 286.800 C 84.093 287.570,84.175 287.885,84.276 287.500 C 84.376 287.115,84.376 286.485,84.276 286.100 C 84.175 285.715,84.093 286.030,84.093 286.800 " stroke="none" fill="#c4ecfc" fill-rule="evenodd"></path></g></svg>