<svg id="svg" version="1.1" xmlns="http://www.w3.org/2000/svg" xmlns:xlink="http://www.w3.org/1999/xlink" width="400" height="400" viewBox="0, 0, 400,400"><g id="svgg"><path id="path0" d="M239.700 79.888 C 239.425 79.986,239.200 80.249,239.200 80.472 C 239.200 80.694,238.861 81.354,238.447 81.938 C 238.033 82.522,237.336 83.630,236.898 84.400 C 236.460 85.170,234.706 88.050,233.000 90.800 C 231.294 93.550,229.540 96.430,229.102 97.200 C 228.664 97.970,227.967 99.078,227.553 99.662 C 227.139 100.246,226.800 100.833,226.800 100.967 C 226.800 101.100,226.014 102.422,225.054 103.905 C 223.240 106.706,219.442 112.875,213.423 122.800 C 211.489 125.990,209.117 129.813,208.153 131.295 C 207.189 132.778,206.400 134.100,206.400 134.233 C 206.400 134.367,206.061 134.954,205.647 135.538 C 205.233 136.122,204.532 137.230,204.090 138.000 C 202.645 140.519,195.518 152.176,194.797 153.200 C 194.410 153.750,193.732 154.830,193.290 155.600 C 192.426 157.106,186.335 167.112,179.410 178.400 C 177.048 182.250,174.300 186.750,173.304 188.400 C 172.308 190.050,170.932 192.302,170.247 193.404 C 169.561 194.506,168.786 195.766,168.525 196.204 C 166.079 200.304,163.169 205.007,161.920 206.878 C 161.084 208.131,160.400 209.243,160.400 209.349 C 160.400 209.455,159.500 211.008,158.400 212.800 C 157.300 214.592,156.400 216.226,156.400 216.429 C 156.400 216.652,163.985 216.800,175.351 216.800 C 197.255 216.800,195.763 216.512,194.589 220.513 C 194.188 221.881,193.735 223.180,193.583 223.400 C 193.432 223.620,193.215 224.250,193.101 224.800 C 192.922 225.669,192.189 227.891,191.186 230.600 C 191.024 231.040,190.483 232.750,189.985 234.400 C 189.487 236.050,188.945 237.760,188.781 238.200 C 188.331 239.407,187.113 243.143,184.999 249.800 C 183.951 253.100,182.599 257.240,181.996 259.000 C 181.392 260.760,180.313 264.090,179.597 266.400 C 178.882 268.710,177.973 271.500,177.577 272.600 C 177.181 273.700,176.639 275.320,176.373 276.200 C 176.107 277.080,175.747 278.160,175.572 278.600 C 175.398 279.040,175.051 280.120,174.800 281.000 C 174.549 281.880,174.195 282.960,174.013 283.400 C 173.830 283.840,173.282 285.550,172.795 287.200 C 172.308 288.850,171.749 290.371,171.554 290.580 C 171.360 290.789,171.200 291.316,171.200 291.751 C 171.200 292.186,170.657 294.085,169.993 295.971 C 169.330 297.857,168.597 299.940,168.364 300.600 C 168.132 301.260,167.493 303.330,166.944 305.200 C 166.395 307.070,165.791 308.960,165.602 309.400 C 165.412 309.840,164.872 311.460,164.400 313.000 C 163.928 314.540,163.396 316.160,163.217 316.600 C 160.878 322.347,161.908 322.231,165.459 316.347 C 167.233 313.406,169.905 309.020,171.395 306.600 C 175.783 299.473,180.528 291.659,181.557 289.867 C 182.083 288.950,183.094 287.300,183.805 286.200 C 184.875 284.542,189.085 277.682,190.923 274.600 C 191.185 274.160,191.895 273.026,192.500 272.080 C 193.105 271.134,193.600 270.266,193.600 270.152 C 193.600 270.038,194.140 269.159,194.800 268.200 C 195.460 267.241,196.000 266.341,196.000 266.200 C 196.000 266.059,196.540 265.159,197.200 264.200 C 197.860 263.241,198.400 262.278,198.400 262.061 C 198.400 261.844,198.538 261.607,198.707 261.533 C 198.876 261.460,200.795 258.430,202.973 254.800 C 205.150 251.170,207.442 247.448,208.066 246.528 C 208.690 245.608,209.200 244.736,209.200 244.590 C 209.200 244.443,209.539 243.846,209.953 243.262 C 210.367 242.678,211.068 241.570,211.510 240.800 C 211.952 240.030,214.075 236.520,216.228 233.000 C 225.041 218.590,226.531 216.140,227.275 214.841 C 227.703 214.093,228.761 212.415,229.626 211.112 C 230.492 209.809,231.200 208.663,231.200 208.564 C 231.200 208.465,231.689 207.623,232.287 206.692 C 232.884 205.761,233.649 204.534,233.987 203.965 C 237.299 198.378,240.748 192.704,241.634 191.387 C 243.432 188.713,244.784 186.117,244.518 185.851 C 244.380 185.713,236.095 185.600,226.107 185.600 C 205.971 185.600,206.163 185.623,206.588 183.266 C 206.827 181.942,207.980 178.262,208.801 176.200 C 208.977 175.760,209.430 174.320,209.810 173.000 C 210.189 171.680,210.726 170.060,211.003 169.400 C 211.280 168.740,211.899 166.850,212.379 165.200 C 212.859 163.550,213.393 161.840,213.567 161.400 C 214.041 160.198,215.185 156.854,215.895 154.600 C 216.241 153.500,218.316 147.200,220.506 140.600 C 222.697 134.000,224.630 128.060,224.802 127.400 C 225.078 126.344,225.915 123.845,226.811 121.400 C 226.972 120.960,227.696 118.710,228.420 116.400 C 229.143 114.090,230.042 111.390,230.416 110.400 C 230.790 109.410,231.676 106.710,232.386 104.400 C 233.095 102.090,233.917 99.570,234.211 98.800 C 234.506 98.030,235.041 96.410,235.400 95.200 C 235.759 93.990,236.298 92.370,236.597 91.600 C 237.367 89.616,240.418 79.881,240.299 79.787 C 240.245 79.744,239.975 79.790,239.700 79.888 " stroke="none" fill="#1bd9c0" fill-rule="evenodd"></path><path id="path1" d="M0.000 200.000 L 0.000 400.000 200.000 400.000 L 400.000 400.000 400.000 200.000 L 400.000 0.000 200.000 0.000 L 0.000 0.000 0.000 200.000 M240.800 79.847 C 240.800 80.837,239.980 83.677,238.390 88.200 C 238.003 89.300,236.568 93.710,235.201 98.000 C 233.834 102.290,232.285 106.974,231.758 108.408 C 231.231 109.843,230.800 111.214,230.800 111.455 C 230.800 111.696,230.459 112.772,230.042 113.847 C 229.624 114.921,228.163 119.310,226.793 123.600 C 225.423 127.890,224.161 131.760,223.987 132.200 C 223.813 132.640,223.272 134.260,222.784 135.800 C 222.296 137.340,221.756 138.960,221.584 139.400 C 221.412 139.840,220.893 141.370,220.432 142.800 C 219.970 144.230,218.246 149.540,216.602 154.600 C 214.958 159.660,213.234 164.970,212.771 166.400 C 212.308 167.830,211.788 169.360,211.617 169.800 C 211.445 170.240,210.912 171.860,210.432 173.400 C 209.952 174.940,209.412 176.560,209.232 177.000 C 208.440 178.937,207.200 183.178,207.200 183.949 L 207.200 184.792 226.056 184.896 C 247.942 185.017,246.742 184.762,244.058 188.715 C 243.146 190.057,242.400 191.269,242.400 191.406 C 242.400 191.543,241.860 192.441,241.200 193.400 C 240.540 194.359,240.000 195.259,240.000 195.400 C 240.000 195.541,239.460 196.441,238.800 197.400 C 238.140 198.359,237.600 199.249,237.600 199.377 C 237.600 199.505,236.812 200.822,235.848 202.305 C 234.052 205.070,225.733 218.691,224.309 221.200 C 223.872 221.970,223.373 222.780,223.200 223.000 C 223.027 223.220,222.529 224.030,222.094 224.800 C 221.011 226.714,211.830 241.705,210.155 244.294 C 209.410 245.445,208.800 246.493,208.800 246.622 C 208.800 246.751,208.260 247.641,207.600 248.600 C 206.940 249.559,206.400 250.451,206.400 250.581 C 206.400 250.712,205.500 252.178,204.400 253.839 C 203.300 255.500,202.400 256.935,202.400 257.029 C 202.400 257.122,201.209 259.134,199.753 261.499 C 196.720 266.425,190.795 276.116,190.199 277.122 C 189.348 278.562,183.759 287.762,183.000 288.974 C 182.229 290.206,175.648 300.972,174.676 302.593 C 174.414 303.030,173.705 304.142,173.100 305.065 C 172.495 305.989,172.000 306.859,172.000 307.000 C 172.000 307.141,171.460 308.041,170.800 309.000 C 170.140 309.959,169.600 310.828,169.600 310.930 C 169.600 311.033,168.535 312.811,167.233 314.883 C 165.931 316.954,164.473 319.403,163.993 320.324 C 162.031 324.088,160.793 321.452,162.350 316.827 C 162.762 315.602,163.694 312.710,164.421 310.400 C 165.148 308.090,166.224 304.760,166.814 303.000 C 167.403 301.240,168.554 297.730,169.372 295.200 C 170.191 292.670,171.001 290.240,171.174 289.800 C 171.347 289.360,172.074 287.110,172.789 284.800 C 173.505 282.490,174.225 280.240,174.390 279.800 C 174.554 279.360,174.906 278.280,175.171 277.400 C 175.436 276.520,175.800 275.440,175.979 275.000 C 176.158 274.560,176.720 272.850,177.227 271.200 C 177.734 269.550,178.273 268.020,178.424 267.800 C 178.576 267.580,178.790 266.860,178.900 266.200 C 179.011 265.540,179.547 263.740,180.093 262.200 C 180.638 260.660,181.487 258.140,181.978 256.600 C 182.469 255.060,183.022 253.440,183.206 253.000 C 183.390 252.560,184.204 250.040,185.015 247.400 C 185.826 244.760,186.649 242.429,186.845 242.220 C 187.040 242.011,187.200 241.528,187.200 241.146 C 187.200 240.510,189.979 231.672,190.768 229.800 C 190.953 229.360,191.519 227.650,192.024 226.000 C 192.530 224.350,193.092 222.829,193.272 222.620 C 193.452 222.411,193.600 221.747,193.600 221.144 C 193.600 220.541,193.780 219.936,194.000 219.800 C 194.220 219.664,194.400 219.113,194.400 218.576 L 194.400 217.600 175.633 217.600 C 153.099 217.600,154.223 217.835,157.000 213.710 C 157.770 212.567,158.400 211.517,158.400 211.378 C 158.400 211.238,158.739 210.646,159.153 210.062 C 159.567 209.478,160.266 208.370,160.705 207.600 C 161.144 206.830,163.616 202.780,166.199 198.600 C 173.574 186.664,174.051 185.885,174.896 184.400 C 175.334 183.630,175.807 182.910,175.946 182.800 C 176.335 182.494,177.622 180.287,177.871 179.500 C 177.993 179.115,178.252 178.800,178.447 178.800 C 178.641 178.800,178.800 178.607,178.800 178.372 C 178.800 178.137,179.313 177.192,179.941 176.272 C 180.568 175.352,181.153 174.417,181.241 174.194 C 181.328 173.970,182.930 171.310,184.800 168.282 C 186.670 165.254,188.491 162.286,188.846 161.688 C 189.201 161.090,190.440 159.070,191.599 157.200 C 192.759 155.330,194.018 153.260,194.398 152.600 C 194.778 151.940,196.194 149.634,197.545 147.476 C 198.895 145.318,200.000 143.472,200.000 143.375 C 200.000 143.278,200.855 141.855,201.900 140.213 C 203.796 137.233,207.229 131.714,208.126 130.202 C 208.387 129.763,208.894 128.953,209.253 128.402 C 209.612 127.851,210.263 126.770,210.700 126.000 C 211.136 125.230,212.440 123.070,213.597 121.200 C 214.754 119.330,217.229 115.280,219.097 112.200 C 220.966 109.120,222.833 106.122,223.247 105.538 C 223.661 104.954,224.000 104.359,224.000 104.216 C 224.000 104.073,224.720 102.896,225.600 101.600 C 226.480 100.304,227.200 99.148,227.200 99.030 C 227.200 98.912,227.871 97.777,228.691 96.508 C 229.511 95.238,230.456 93.743,230.791 93.183 C 232.722 89.961,234.220 87.505,235.661 85.200 C 236.554 83.770,237.735 81.745,238.285 80.700 C 239.432 78.517,240.800 78.054,240.800 79.847 " stroke="none" fill="#040404" fill-rule="evenodd"></path><path id="path2" d="M238.984 79.227 C 238.839 79.461,238.828 79.761,238.960 79.893 C 239.092 80.025,239.200 79.923,239.200 79.667 C 239.200 79.042,240.280 79.068,240.535 79.700 C 240.656 79.999,240.750 79.918,240.768 79.500 C 240.803 78.724,239.425 78.513,238.984 79.227 M236.824 83.318 C 236.523 83.803,236.015 84.605,235.693 85.100 C 235.371 85.595,235.195 86.000,235.301 86.000 C 235.583 86.000,237.686 82.753,237.515 82.581 C 237.435 82.502,237.124 82.833,236.824 83.318 M238.600 86.400 C 238.450 86.873,238.417 87.350,238.527 87.460 C 238.637 87.570,238.850 87.273,239.000 86.800 C 239.150 86.327,239.183 85.850,239.073 85.740 C 238.963 85.630,238.750 85.927,238.600 86.400 M234.143 87.724 C 233.138 89.252,232.581 90.279,232.913 89.990 C 233.387 89.576,235.237 86.704,235.111 86.577 C 235.040 86.507,234.605 87.023,234.143 87.724 M236.604 92.676 C 236.230 93.734,235.760 95.013,235.562 95.519 C 235.363 96.024,235.208 96.744,235.217 97.119 C 235.226 97.493,235.751 96.270,236.382 94.400 C 237.014 92.530,237.475 90.944,237.407 90.876 C 237.340 90.807,236.978 91.617,236.604 92.676 M231.014 92.635 C 230.641 93.204,230.427 93.761,230.539 93.872 C 230.650 93.983,231.029 93.518,231.381 92.837 C 232.159 91.333,231.944 91.215,231.014 92.635 M227.822 97.822 C 227.445 98.398,227.216 98.949,227.314 99.047 C 227.412 99.145,227.800 98.754,228.178 98.178 C 228.555 97.602,228.784 97.051,228.686 96.953 C 228.588 96.855,228.200 97.246,227.822 97.822 M233.497 101.945 C 233.114 103.024,232.806 104.153,232.814 104.454 C 232.822 104.754,233.184 104.014,233.617 102.808 C 234.051 101.602,234.358 100.473,234.300 100.299 C 234.242 100.125,233.880 100.865,233.497 101.945 M225.053 102.391 C 224.053 103.902,223.615 104.996,224.336 104.180 C 224.892 103.552,226.479 100.800,226.286 100.800 C 226.187 100.800,225.632 101.516,225.053 102.391 M231.888 107.070 C 230.945 109.701,231.049 110.284,232.018 107.800 C 232.448 106.700,232.750 105.651,232.690 105.470 C 232.629 105.288,232.268 106.008,231.888 107.070 M221.356 108.500 C 220.529 109.875,219.596 111.405,219.281 111.900 C 218.966 112.395,218.806 112.800,218.925 112.800 C 219.044 112.800,219.818 111.675,220.644 110.300 C 221.471 108.925,222.404 107.395,222.719 106.900 C 223.034 106.405,223.194 106.000,223.075 106.000 C 222.956 106.000,222.182 107.125,221.356 108.500 M230.446 111.267 C 230.421 111.634,230.296 112.264,230.170 112.667 C 229.952 113.362,229.963 113.363,230.397 112.687 C 230.648 112.296,230.773 111.666,230.673 111.287 C 230.511 110.668,230.488 110.666,230.446 111.267 M217.908 114.100 C 217.587 114.595,217.107 115.450,216.840 116.000 C 216.160 117.403,217.394 115.906,218.241 114.300 C 218.939 112.974,218.723 112.844,217.908 114.100 M228.257 118.057 C 227.890 119.193,227.659 120.192,227.744 120.277 C 227.828 120.362,228.201 119.504,228.571 118.371 C 228.942 117.239,229.173 116.240,229.085 116.151 C 228.997 116.063,228.624 116.921,228.257 118.057 M214.708 119.300 C 213.833 120.649,213.048 122.256,213.487 121.800 C 214.048 121.217,215.698 118.400,215.479 118.400 C 215.376 118.400,215.029 118.805,214.708 119.300 M211.414 124.635 C 211.041 125.204,210.805 125.738,210.889 125.822 C 210.973 125.907,211.358 125.441,211.744 124.788 C 212.606 123.328,212.348 123.209,211.414 124.635 M209.014 128.635 C 208.641 129.204,208.405 129.738,208.489 129.822 C 208.573 129.907,208.958 129.441,209.344 128.788 C 210.206 127.328,209.948 127.209,209.014 128.635 M206.238 133.183 C 204.298 136.182,203.073 138.400,203.356 138.400 C 203.452 138.400,203.965 137.635,204.494 136.700 C 205.023 135.765,206.124 133.965,206.940 132.700 C 207.757 131.435,208.338 130.400,208.232 130.400 C 208.126 130.400,207.229 131.652,206.238 133.183 M223.029 133.829 C 222.881 134.415,222.838 134.972,222.932 135.066 C 223.027 135.160,223.224 134.758,223.371 134.171 C 223.519 133.585,223.562 133.028,223.468 132.934 C 223.373 132.840,223.176 133.242,223.029 133.829 M201.389 141.044 C 200.600 142.278,200.030 143.363,200.123 143.456 C 200.216 143.549,200.938 142.539,201.729 141.212 C 203.539 138.173,203.301 138.055,201.389 141.044 M220.629 141.029 C 220.481 141.615,220.438 142.172,220.532 142.266 C 220.627 142.360,220.824 141.958,220.971 141.371 C 221.119 140.785,221.162 140.228,221.068 140.134 C 220.973 140.040,220.776 140.442,220.629 141.029 M199.122 144.900 C 198.808 145.395,198.147 146.520,197.653 147.400 C 196.595 149.282,197.750 147.817,199.123 145.534 C 200.097 143.914,200.096 143.362,199.122 144.900 M218.236 148.436 C 217.633 150.217,217.210 151.744,217.296 151.829 C 217.382 151.915,217.944 150.527,218.545 148.745 C 219.147 146.964,219.570 145.437,219.486 145.352 C 219.401 145.268,218.839 146.656,218.236 148.436 M195.453 150.791 C 194.321 152.502,194.025 153.518,195.043 152.200 C 195.782 151.244,196.885 149.200,196.663 149.200 C 196.577 149.200,196.032 149.916,195.453 150.791 M216.480 153.880 C 215.888 155.809,216.175 156.095,216.800 154.200 C 217.064 153.401,217.202 152.669,217.107 152.574 C 217.012 152.478,216.730 153.066,216.480 153.880 M192.953 154.900 C 191.576 157.236,191.486 157.435,192.187 156.600 C 193.000 155.632,193.700 154.400,193.438 154.400 C 193.333 154.400,193.115 154.625,192.953 154.900 M189.414 160.635 C 189.041 161.204,188.805 161.738,188.889 161.822 C 188.973 161.907,189.358 161.441,189.744 160.788 C 190.606 159.328,190.348 159.209,189.414 160.635 M213.830 161.912 C 213.430 163.170,212.854 164.879,212.551 165.708 C 212.248 166.538,212.009 167.438,212.021 167.708 C 212.032 167.979,212.364 167.300,212.758 166.200 C 214.246 162.049,214.889 159.956,214.726 159.793 C 214.633 159.700,214.230 160.654,213.830 161.912 M187.853 163.300 C 185.744 166.659,185.181 167.659,185.516 167.452 C 185.946 167.186,188.861 162.400,188.592 162.400 C 188.497 162.400,188.164 162.805,187.853 163.300 M184.424 168.918 C 184.123 169.403,183.615 170.205,183.293 170.700 C 182.971 171.195,182.795 171.600,182.901 171.600 C 183.183 171.600,185.286 168.353,185.115 168.181 C 185.035 168.102,184.724 168.433,184.424 168.918 M210.846 170.867 C 210.821 171.234,210.696 171.864,210.570 172.267 C 210.352 172.962,210.363 172.963,210.797 172.287 C 211.048 171.896,211.173 171.266,211.073 170.887 C 210.911 170.268,210.888 170.266,210.846 170.867 M181.814 173.035 C 181.441 173.604,181.205 174.138,181.289 174.222 C 181.373 174.307,181.758 173.841,182.144 173.188 C 183.006 171.728,182.748 171.609,181.814 173.035 M209.800 174.000 C 209.650 174.473,209.617 174.950,209.727 175.060 C 209.837 175.170,210.050 174.873,210.200 174.400 C 210.350 173.927,210.383 173.450,210.273 173.340 C 210.163 173.230,209.950 173.527,209.800 174.000 M208.446 178.067 C 208.421 178.434,208.296 179.064,208.170 179.467 C 207.952 180.162,207.963 180.163,208.397 179.487 C 208.648 179.096,208.773 178.466,208.673 178.087 C 208.511 177.468,208.488 177.466,208.446 178.067 M207.400 181.200 C 207.250 181.673,207.217 182.150,207.327 182.260 C 207.437 182.370,207.650 182.073,207.800 181.600 C 207.950 181.127,207.983 180.650,207.873 180.540 C 207.763 180.430,207.550 180.727,207.400 181.200 M175.269 183.639 C 174.510 184.854,174.966 185.016,175.755 183.812 C 176.120 183.256,176.278 182.800,176.105 182.800 C 175.933 182.800,175.557 183.178,175.269 183.639 M206.934 184.000 L 207.000 185.000 225.914 185.104 C 246.122 185.215,246.336 185.238,244.700 187.115 C 244.372 187.492,243.888 188.250,243.625 188.800 L 243.146 189.800 243.955 188.800 C 247.296 184.670,247.882 184.800,225.979 184.800 L 207.256 184.800 207.062 183.900 C 206.892 183.107,206.877 183.119,206.934 184.000 M173.296 187.100 C 167.815 195.870,166.083 198.788,166.707 198.200 C 167.098 197.833,169.676 193.745,172.436 189.118 C 173.053 188.082,173.858 186.777,174.225 186.218 C 174.592 185.658,174.800 185.200,174.688 185.200 C 174.575 185.200,173.949 186.055,173.296 187.100 M241.570 192.066 C 241.298 192.580,240.813 193.405,240.492 193.900 C 240.171 194.395,239.995 194.800,240.101 194.800 C 240.436 194.800,242.469 191.536,242.262 191.329 C 242.154 191.220,241.842 191.552,241.570 192.066 M239.224 196.118 C 238.923 196.603,238.415 197.405,238.093 197.900 C 237.771 198.395,237.595 198.800,237.701 198.800 C 237.983 198.800,240.086 195.553,239.915 195.381 C 239.835 195.302,239.524 195.633,239.224 196.118 M165.522 199.700 C 163.911 202.242,163.109 203.815,163.941 202.800 C 164.876 201.659,166.542 198.800,166.272 198.800 C 166.173 198.800,165.835 199.205,165.522 199.700 M236.770 200.066 C 236.498 200.580,236.013 201.405,235.692 201.900 C 235.371 202.395,235.195 202.800,235.301 202.800 C 235.636 202.800,237.669 199.536,237.462 199.329 C 237.354 199.220,237.042 199.552,236.770 200.066 M233.400 205.600 C 233.059 206.260,232.869 206.800,232.979 206.800 C 233.089 206.800,233.459 206.260,233.800 205.600 C 234.141 204.940,234.331 204.400,234.221 204.400 C 234.111 204.400,233.741 204.940,233.400 205.600 M161.422 206.222 C 161.045 206.798,160.816 207.349,160.914 207.447 C 161.012 207.545,161.400 207.154,161.778 206.578 C 162.155 206.002,162.384 205.451,162.286 205.353 C 162.188 205.255,161.800 205.646,161.422 206.222 M231.815 208.234 C 231.442 208.802,229.906 211.307,228.400 213.800 C 226.894 216.293,225.345 218.843,224.958 219.466 C 224.570 220.090,224.454 220.420,224.699 220.200 C 224.945 219.980,226.738 217.190,228.685 214.000 C 230.632 210.810,232.365 207.975,232.536 207.700 C 233.141 206.727,232.482 207.215,231.815 208.234 M159.014 210.235 C 158.641 210.804,158.405 211.338,158.489 211.422 C 158.573 211.507,158.958 211.041,159.344 210.388 C 160.206 208.928,159.948 208.809,159.014 210.235 M156.433 214.547 C 154.462 217.735,153.613 217.600,175.605 217.600 C 194.065 217.600,194.347 217.612,194.525 218.406 C 194.676 219.077,194.697 219.060,194.653 218.306 L 194.600 217.400 175.486 217.296 C 154.305 217.181,155.131 217.300,156.794 214.610 C 157.273 213.835,157.575 213.200,157.465 213.200 C 157.355 213.200,156.891 213.806,156.433 214.547 M193.867 219.867 C 193.720 220.013,193.611 220.508,193.625 220.967 C 193.649 221.733,193.682 221.723,194.034 220.842 C 194.426 219.863,194.344 219.389,193.867 219.867 M223.386 222.100 L 222.752 223.400 223.567 222.400 C 224.352 221.437,224.608 220.800,224.210 220.800 C 224.106 220.800,223.735 221.385,223.386 222.100 M221.116 225.688 C 220.251 227.022,219.548 228.400,219.733 228.400 C 220.025 228.400,222.064 225.130,221.884 224.951 C 221.787 224.854,221.442 225.186,221.116 225.688 M191.449 227.415 C 191.312 227.773,191.215 228.366,191.234 228.733 C 191.253 229.100,191.427 228.869,191.621 228.220 C 191.998 226.958,191.865 226.333,191.449 227.415 M216.164 233.900 C 214.452 236.705,212.794 239.405,212.480 239.900 C 212.165 240.395,212.002 240.800,212.116 240.800 C 212.231 240.800,213.725 238.505,215.436 235.700 C 217.148 232.895,218.806 230.195,219.120 229.700 C 219.435 229.205,219.598 228.800,219.484 228.800 C 219.369 228.800,217.875 231.095,216.164 233.900 M188.846 235.446 C 188.148 237.571,187.646 239.379,187.731 239.464 C 187.815 239.549,188.456 237.879,189.154 235.754 C 189.852 233.629,190.354 231.821,190.269 231.736 C 190.185 231.651,189.544 233.321,188.846 235.446 M211.152 242.100 C 210.890 242.595,210.415 243.450,210.096 244.000 C 209.539 244.959,209.543 244.967,210.188 244.200 C 210.986 243.252,212.105 241.200,211.824 241.200 C 211.716 241.200,211.414 241.605,211.152 242.100 M186.677 242.300 C 186.275 243.008,185.133 246.866,185.281 247.015 C 185.371 247.104,185.823 246.013,186.286 244.589 C 187.032 242.292,187.184 241.408,186.677 242.300 M208.024 247.318 C 207.723 247.803,207.215 248.605,206.893 249.100 C 206.571 249.595,206.395 250.000,206.501 250.000 C 206.783 250.000,208.886 246.753,208.715 246.581 C 208.635 246.502,208.324 246.833,208.024 247.318 M184.262 249.641 C 183.898 250.769,183.613 251.896,183.629 252.146 C 183.644 252.396,184.014 251.545,184.450 250.255 C 184.886 248.965,185.171 247.838,185.084 247.750 C 184.996 247.663,184.626 248.514,184.262 249.641 M205.433 251.405 C 204.145 253.371,202.422 256.400,202.591 256.400 C 202.880 256.400,206.453 250.720,206.275 250.542 C 206.184 250.450,205.805 250.839,205.433 251.405 M181.900 256.723 C 180.947 259.425,181.046 260.287,182.024 257.800 C 182.456 256.700,182.763 255.561,182.705 255.270 C 182.647 254.978,182.285 255.632,181.900 256.723 M200.577 259.447 C 198.519 262.873,198.184 263.424,195.098 268.444 C 192.116 273.293,191.496 274.400,191.759 274.400 C 191.862 274.400,193.105 272.465,194.522 270.100 C 195.939 267.735,198.303 263.846,199.774 261.458 C 201.246 259.070,202.383 257.050,202.302 256.969 C 202.221 256.887,201.444 258.002,200.577 259.447 M179.458 264.104 C 179.096 265.052,178.810 266.181,178.822 266.613 C 178.833 267.046,179.186 266.327,179.604 265.016 C 180.499 262.215,180.404 261.626,179.458 264.104 M177.400 270.400 C 177.250 270.873,177.217 271.350,177.327 271.460 C 177.437 271.570,177.650 271.273,177.800 270.800 C 177.950 270.327,177.983 269.850,177.873 269.740 C 177.763 269.630,177.550 269.927,177.400 270.400 M176.649 272.615 C 176.512 272.973,176.415 273.566,176.434 273.933 C 176.453 274.300,176.627 274.069,176.821 273.420 C 177.198 272.158,177.065 271.533,176.649 272.615 M175.073 277.353 C 174.923 277.745,174.811 278.366,174.825 278.733 C 174.842 279.175,174.981 279.074,175.237 278.434 C 175.449 277.903,175.561 277.282,175.485 277.054 C 175.409 276.827,175.224 276.961,175.073 277.353 M188.986 278.500 L 188.352 279.800 189.167 278.800 C 189.952 277.837,190.208 277.200,189.810 277.200 C 189.706 277.200,189.335 277.785,188.986 278.500 M174.267 279.867 C 174.120 280.013,174.011 280.508,174.025 280.967 C 174.049 281.733,174.082 281.723,174.434 280.842 C 174.826 279.863,174.744 279.389,174.267 279.867 M185.718 283.827 C 184.443 285.933,183.040 288.242,182.600 288.959 C 177.963 296.516,174.443 302.487,174.911 302.000 C 175.228 301.670,176.998 298.894,178.844 295.831 C 180.690 292.768,182.560 289.681,183.000 288.971 C 184.030 287.309,188.058 280.692,188.279 280.300 C 188.371 280.135,188.355 280.000,188.242 280.000 C 188.129 280.000,186.993 281.722,185.718 283.827 M172.046 286.839 C 171.801 287.543,171.612 288.408,171.627 288.760 C 171.641 289.112,171.904 288.597,172.209 287.616 C 172.849 285.562,172.715 284.922,172.046 286.839 M169.667 294.267 C 169.180 295.724,168.850 296.984,168.934 297.067 C 169.017 297.151,169.487 296.030,169.978 294.578 C 170.468 293.125,170.798 291.865,170.711 291.777 C 170.623 291.690,170.153 292.810,169.667 294.267 M168.273 298.153 C 168.123 298.545,168.011 299.166,168.025 299.533 C 168.042 299.975,168.181 299.874,168.437 299.234 C 168.649 298.703,168.761 298.082,168.685 297.854 C 168.609 297.627,168.424 297.761,168.273 298.153 M166.213 304.613 C 165.804 305.817,165.556 306.890,165.663 306.996 C 165.770 307.103,166.173 306.187,166.560 304.960 C 167.475 302.057,167.182 301.764,166.213 304.613 M173.453 304.100 L 172.733 305.400 173.558 304.400 C 174.289 303.513,174.614 302.800,174.286 302.800 C 174.224 302.800,173.849 303.385,173.453 304.100 M171.061 307.867 C 170.654 308.410,170.405 308.938,170.507 309.040 C 170.608 309.142,171.000 308.754,171.378 308.178 C 172.267 306.821,172.022 306.581,171.061 307.867 M163.857 312.057 C 163.463 313.166,163.210 314.143,163.295 314.228 C 163.379 314.313,163.774 313.477,164.171 312.371 C 164.569 311.266,164.822 310.289,164.734 310.201 C 164.646 310.112,164.251 310.948,163.857 312.057 M168.622 311.822 C 168.245 312.398,168.016 312.949,168.114 313.047 C 168.212 313.145,168.600 312.754,168.978 312.178 C 169.355 311.602,169.584 311.051,169.486 310.953 C 169.388 310.855,169.000 311.246,168.622 311.822 M165.694 316.700 C 165.041 317.745,164.167 319.230,163.753 320.000 C 163.339 320.770,162.820 321.532,162.600 321.694 C 162.354 321.875,162.398 321.990,162.713 321.994 C 162.994 321.997,163.343 321.685,163.487 321.300 C 163.630 320.915,164.456 319.430,165.322 318.000 C 166.187 316.570,166.974 315.265,167.071 315.100 C 167.168 314.935,167.165 314.800,167.065 314.800 C 166.965 314.800,166.348 315.655,165.694 316.700 " stroke="none" fill="#0c544c" fill-rule="evenodd"></path><path id="path3" d="M238.585 80.700 C 237.482 82.866,237.437 83.126,238.362 82.000 C 238.813 81.450,239.186 80.840,239.191 80.644 C 239.196 80.448,239.515 80.049,239.900 79.757 C 240.495 79.305,240.506 79.224,239.974 79.213 C 239.630 79.206,239.005 79.875,238.585 80.700 M240.193 80.500 C 239.427 82.606,238.423 86.156,238.555 86.289 C 238.645 86.378,239.120 85.135,239.612 83.525 C 240.103 81.916,240.582 80.465,240.676 80.300 C 240.770 80.135,240.741 80.000,240.611 80.000 C 240.481 80.000,240.293 80.225,240.193 80.500 M235.822 85.422 C 235.445 85.998,235.216 86.549,235.314 86.647 C 235.412 86.745,235.800 86.354,236.178 85.778 C 236.555 85.202,236.784 84.651,236.686 84.553 C 236.588 84.455,236.200 84.846,235.822 85.422 M237.800 87.600 C 237.650 88.073,237.617 88.550,237.727 88.660 C 237.837 88.770,238.050 88.473,238.200 88.000 C 238.350 87.527,238.383 87.050,238.273 86.940 C 238.163 86.830,237.950 87.127,237.800 87.600 M233.867 88.700 C 232.504 90.867,229.616 95.601,228.804 97.000 C 228.420 97.660,226.769 100.360,225.133 103.000 C 220.681 110.185,220.318 110.800,220.526 110.800 C 220.631 110.800,221.301 109.855,222.016 108.700 C 222.730 107.545,224.099 105.387,225.057 103.905 C 226.016 102.422,226.800 101.100,226.800 100.967 C 226.800 100.833,227.139 100.246,227.553 99.662 C 227.967 99.078,228.666 97.970,229.105 97.200 C 229.544 96.430,231.095 93.865,232.551 91.500 C 234.007 89.135,235.112 87.200,235.005 87.200 C 234.898 87.200,234.386 87.875,233.867 88.700 M236.882 90.675 C 235.955 93.401,235.924 93.835,236.785 92.024 C 237.249 91.047,237.578 90.000,237.515 89.698 C 237.452 89.396,237.167 89.836,236.882 90.675 M234.475 97.875 C 233.583 100.469,233.525 101.508,234.390 99.400 C 234.841 98.300,235.163 97.164,235.105 96.875 C 235.047 96.586,234.764 97.036,234.475 97.875 M232.001 105.400 C 231.123 108.501,231.126 108.762,232.014 106.638 C 232.466 105.560,232.775 104.390,232.701 104.038 C 232.628 103.687,232.313 104.300,232.001 105.400 M230.204 111.076 C 229.830 112.134,229.360 113.413,229.162 113.919 C 228.963 114.424,228.809 115.144,228.820 115.519 C 228.830 115.893,229.360 114.675,229.998 112.811 C 230.635 110.948,231.095 109.362,231.021 109.287 C 230.946 109.212,230.578 110.017,230.204 111.076 M218.600 113.600 C 218.259 114.260,218.069 114.800,218.179 114.800 C 218.289 114.800,218.659 114.260,219.000 113.600 C 219.341 112.940,219.531 112.400,219.421 112.400 C 219.311 112.400,218.941 112.940,218.600 113.600 M216.322 117.300 C 216.008 117.795,215.347 118.920,214.853 119.800 C 213.795 121.682,214.950 120.217,216.323 117.934 C 217.297 116.314,217.296 115.762,216.322 117.300 M227.429 119.429 C 227.281 120.015,227.238 120.572,227.332 120.666 C 227.427 120.760,227.624 120.358,227.771 119.771 C 227.919 119.185,227.962 118.628,227.868 118.534 C 227.773 118.440,227.576 118.842,227.429 119.429 M212.156 124.100 C 211.329 125.475,210.396 127.005,210.081 127.500 C 209.766 127.995,209.606 128.400,209.725 128.400 C 209.844 128.400,210.618 127.275,211.444 125.900 C 212.271 124.525,213.204 122.995,213.519 122.500 C 213.834 122.005,213.994 121.600,213.875 121.600 C 213.756 121.600,212.982 122.725,212.156 124.100 " stroke="none" fill="#0c6c6c" fill-rule="evenodd"></path><path id="path4" d="M177.414 181.035 C 177.041 181.604,176.805 182.138,176.889 182.222 C 176.973 182.307,177.358 181.841,177.744 181.188 C 178.606 179.728,178.348 179.609,177.414 181.035 M226.000 185.594 C 241.144 185.762,244.580 185.898,244.490 186.330 C 244.430 186.621,244.573 186.740,244.810 186.594 C 246.794 185.367,244.350 185.200,225.851 185.294 L 207.400 185.388 226.000 185.594 M173.400 187.600 C 173.059 188.260,172.869 188.800,172.979 188.800 C 173.089 188.800,173.459 188.260,173.800 187.600 C 174.141 186.940,174.331 186.400,174.221 186.400 C 174.111 186.400,173.741 186.940,173.400 187.600 M170.746 191.900 C 169.498 193.906,169.316 194.421,170.286 193.200 C 171.182 192.073,172.118 190.400,171.854 190.400 C 171.758 190.400,171.259 191.075,170.746 191.900 M166.970 198.077 C 166.136 199.464,165.196 201.005,164.881 201.500 C 164.566 201.995,164.406 202.400,164.525 202.400 C 164.644 202.400,165.414 201.275,166.234 199.900 C 167.055 198.525,167.997 197.084,168.328 196.698 C 168.658 196.311,168.829 195.896,168.707 195.774 C 168.586 195.653,167.804 196.689,166.970 198.077 M163.292 204.135 C 162.859 204.869,162.189 205.994,161.805 206.635 L 161.105 207.800 161.933 206.800 C 162.879 205.657,164.544 202.800,164.265 202.800 C 164.163 202.800,163.725 203.401,163.292 204.135 M232.533 206.300 C 232.156 206.905,231.657 207.660,231.424 207.977 C 231.116 208.396,231.125 208.479,231.460 208.278 C 231.946 207.987,233.699 205.200,233.396 205.200 C 233.298 205.200,232.910 205.695,232.533 206.300 M158.050 212.632 C 154.929 217.604,153.328 217.176,175.486 217.296 L 194.600 217.400 194.563 218.400 C 194.543 218.950,194.410 219.940,194.268 220.600 C 194.126 221.260,194.306 220.953,194.669 219.919 C 195.827 216.618,196.954 216.800,175.351 216.800 C 163.985 216.800,156.400 216.652,156.400 216.429 C 156.400 216.226,157.306 214.582,158.414 212.777 C 159.522 210.972,160.372 209.438,160.302 209.369 C 160.233 209.300,159.219 210.768,158.050 212.632 M227.814 213.835 C 227.441 214.404,227.227 214.961,227.339 215.072 C 227.450 215.183,227.829 214.718,228.181 214.037 C 228.959 212.533,228.744 212.415,227.814 213.835 M225.917 217.100 C 224.685 218.969,223.917 220.400,224.146 220.400 C 224.242 220.400,224.675 219.799,225.108 219.065 C 225.541 218.331,226.210 217.251,226.594 216.665 C 226.978 216.079,227.205 215.600,227.099 215.600 C 226.993 215.600,226.461 216.275,225.917 217.100 M223.108 221.700 C 222.233 223.049,221.448 224.656,221.887 224.200 C 222.448 223.617,224.098 220.800,223.879 220.800 C 223.776 220.800,223.429 221.205,223.108 221.700 M192.846 224.467 C 192.821 224.834,192.696 225.464,192.570 225.867 C 192.352 226.562,192.363 226.563,192.797 225.887 C 193.048 225.496,193.173 224.866,193.073 224.487 C 192.911 223.868,192.888 223.866,192.846 224.467 M216.524 232.463 C 214.366 236.018,212.316 239.422,211.970 240.027 C 211.623 240.633,211.041 241.583,210.677 242.138 C 210.313 242.694,209.649 243.835,209.201 244.674 C 207.496 247.872,209.813 244.365,214.140 237.200 C 220.042 227.425,220.870 226.000,220.641 226.000 C 220.535 226.000,218.682 228.909,216.524 232.463 M190.446 231.667 C 190.421 232.034,190.296 232.664,190.170 233.067 C 189.952 233.762,189.963 233.763,190.397 233.087 C 190.648 232.696,190.773 232.066,190.673 231.687 C 190.511 231.068,190.488 231.066,190.446 231.667 M188.246 238.522 C 187.842 239.800,187.604 240.938,187.718 241.051 C 187.831 241.164,188.052 240.659,188.208 239.929 C 188.364 239.198,188.666 238.384,188.879 238.119 C 189.092 237.855,189.202 237.315,189.124 236.919 C 189.043 236.514,188.660 237.213,188.246 238.522 M185.418 247.218 C 184.835 249.019,184.424 250.558,184.505 250.638 C 184.586 250.719,185.144 249.327,185.745 247.545 C 186.347 245.764,186.758 244.224,186.658 244.125 C 186.559 244.026,186.001 245.418,185.418 247.218 M205.706 250.300 C 204.402 252.445,202.359 255.820,201.167 257.800 C 199.975 259.780,198.865 261.460,198.700 261.533 C 198.535 261.607,198.400 261.842,198.400 262.057 C 198.400 262.921,199.227 261.808,201.631 257.705 C 203.019 255.337,204.626 252.680,205.203 251.800 C 206.714 249.494,208.464 246.400,208.256 246.400 C 208.158 246.400,207.010 248.155,205.706 250.300 M183.424 253.512 C 183.020 254.770,182.192 257.240,181.583 259.000 C 179.790 264.185,179.108 266.441,179.281 266.614 C 179.370 266.703,179.773 265.746,180.176 264.488 C 180.580 263.230,181.397 260.760,181.992 259.000 C 184.297 252.183,184.489 251.556,184.326 251.393 C 184.233 251.300,183.827 252.254,183.424 253.512 M197.029 264.429 C 196.430 265.333,196.017 266.151,196.112 266.245 C 196.206 266.339,196.773 265.676,197.371 264.771 C 197.970 263.867,198.383 263.049,198.288 262.955 C 198.194 262.861,197.627 263.524,197.029 264.429 M194.653 268.391 C 193.521 270.102,193.225 271.118,194.243 269.800 C 194.982 268.844,196.085 266.800,195.863 266.800 C 195.777 266.800,195.232 267.516,194.653 268.391 M177.836 270.436 C 177.223 272.206,176.802 273.736,176.902 273.836 C 177.074 274.007,177.626 272.603,178.776 269.070 C 179.745 266.090,178.935 267.268,177.836 270.436 M192.305 272.315 C 191.807 273.148,191.182 274.183,190.916 274.615 C 190.649 275.047,189.058 277.650,187.379 280.400 C 185.701 283.150,183.614 286.545,182.741 287.944 C 181.869 289.344,181.241 290.574,181.345 290.679 C 181.450 290.783,181.771 290.448,182.058 289.934 C 183.248 287.809,189.017 278.313,190.403 276.200 C 192.010 273.748,193.658 270.800,193.422 270.800 C 193.305 270.800,192.803 271.482,192.305 272.315 M175.857 276.457 C 175.490 277.593,175.278 278.611,175.386 278.719 C 175.493 278.826,175.650 278.664,175.734 278.357 C 175.818 278.051,176.109 277.112,176.380 276.270 C 176.651 275.429,176.795 274.662,176.699 274.566 C 176.603 274.470,176.224 275.321,175.857 276.457 M174.251 281.307 C 173.867 282.458,173.131 284.750,172.615 286.400 C 172.100 288.050,171.544 289.760,171.380 290.200 C 171.176 290.747,171.213 290.873,171.496 290.600 C 171.723 290.380,172.308 288.850,172.795 287.200 C 173.282 285.550,173.830 283.840,174.013 283.400 C 174.637 281.895,175.280 279.547,175.114 279.381 C 175.023 279.289,174.634 280.156,174.251 281.307 M169.881 294.697 C 169.265 296.566,168.835 298.168,168.925 298.258 C 169.178 298.512,171.263 292.408,171.124 291.821 C 171.056 291.534,170.496 292.829,169.881 294.697 M179.788 292.818 C 179.227 293.708,177.719 296.183,176.437 298.318 C 175.156 300.453,172.888 304.180,171.397 306.600 C 169.906 309.020,167.233 313.406,165.459 316.347 C 161.908 322.231,160.878 322.347,163.217 316.600 C 163.396 316.160,163.928 314.540,164.400 313.000 C 164.872 311.460,165.412 309.840,165.602 309.400 C 165.791 308.960,166.348 307.160,166.839 305.400 C 167.331 303.640,167.973 301.714,168.266 301.120 C 168.560 300.526,168.791 299.716,168.779 299.320 C 168.751 298.354,167.699 301.260,165.202 309.200 C 164.061 312.830,162.991 316.070,162.825 316.400 C 160.703 320.609,161.790 323.650,163.968 319.600 C 164.501 318.610,165.626 316.775,166.468 315.522 C 167.311 314.269,168.000 313.131,168.000 312.994 C 168.000 312.857,168.495 311.989,169.100 311.065 C 169.705 310.142,170.413 309.030,170.674 308.593 C 170.935 308.157,173.401 304.065,176.155 299.500 C 178.908 294.935,181.082 291.200,180.986 291.200 C 180.889 291.200,180.350 291.928,179.788 292.818 " stroke="none" fill="#187864" fill-rule="evenodd"></path></g></svg>