<svg xmlns="http://www.w3.org/2000/svg" width="36" height="36">
   <rect id="backgroundrect" width="100%" height="100%" x="0" y="0" fill="none" stroke="none"/>
   <g class="currentLayer">
      <g id="svg_1">
         <g stroke-width="0" id="svg_2">
            <path d="M30.122449591203612,18.36734709861084 C30.122449591203612,21.68105618440714 28.950877477960315,24.50948364591774 26.607731640735416,26.852629483142643 C24.264585803510514,29.19577532036754 21.436158341999914,30.36734743361084 18.122449256203613,30.36734743361084 C14.808740975776463,30.36734743361084 11.980313836413522,29.19577532036754 9.637167677040964,26.852629483142643 C7.294021839816063,24.50948364591774 6.122448921203613,21.68105618440714 6.122448921203613,18.36734709861084 C6.122448921203613,15.053638818183689 7.294021839816063,12.225211678820749 9.637167677040964,9.88206551944819 C11.980313836413522,7.538919682223289 14.808740975776463,6.36734676361084 18.122449256203613,6.36734676361084 C21.436158341999914,6.36734676361084 24.264585803510514,7.538919682223289 26.607731640735416,9.88206551944819 C28.950877477960315,12.225211678820749 30.122449591203612,15.053638818183689 30.122449591203612,18.36734709861084 C30.122449591203612,18.506987800495722 30.120014154894015,18.64658533459416 30.115140060798215,18.786140667349137 " stroke="none" fill="#E9EAE9" fill-rule="nonzero" id="svg_3"/>
         </g>
         <g stroke-width="0" id="svg_4">
            <path d="M21.295603707203615,24.56868955361084 L18.21909355420361,20.13915922861084 L15.207012933203613,24.56868955361084 L11.824462503203613,24.56868955361084 L16.543925722203614,18.09352158761084 L12.049965865203614,11.82774960061084 L15.400301529203613,11.82774960061084 L18.331845235203613,15.96734703161084 L21.215066792203615,11.82774960061084 L24.404328626203615,11.82774960061084 L19.94258353520361,17.98076990661084 L24.694261520203614,24.56868955361084 L21.295603707203615,24.56868955361084 z" stroke="none" fill="#000000" fill-rule="nonzero" id="svg_5"/>
         </g>
         <g stroke-width="0" id="svg_6">
            <path d="M20.184194280203613,13.95392415661084 C20.747952685203614,14.276071816610841 21.247281558203614,14.82372283861084 21.68218186564659,15.58076935638935 L21.68218186564659,15.58076935638935 L22.64862484564659,14.24385672846318 C22.224453666019915,13.62396055008392 21.662004791257814,13.11113852234482 21.005672423941913,12.745870431610841 C20.892920742941914,12.68144041638935 20.780169061941912,12.633118428463181 20.68352476394191,12.58479660161084 L20.68352476394191,12.58479660161084 L19.845940847941915,13.79285032661084 C19.961723938422516,13.83993059638154 20.074665686541913,13.89371153748024 20.184194280203613,13.95392415661084 z" stroke="none" fill="#7D7E7D" fill-rule="nonzero" id="svg_7"/>
            <path d="M16.43117404120361,22.74855527461084 C16.041825412884634,22.56954909511694 15.683072597500322,22.33038022937974 15.368086763203614,22.03982961724169 C15.015588766785864,21.70049779568814 14.716857214822113,21.30943147604604 14.482180698203614,20.88009884661084 L14.482180698203614,20.88009884661084 L13.451308186203613,22.29754855061084 C13.712179495499694,22.644758493189688 14.009143262179194,22.96331984436474 14.337214251203614,23.24788414761084 C14.708311281697632,23.55560506895306 15.120288850245654,23.81038134452194 15.561375359203614,24.00493114861084 L15.561375359203614,24.00493114861084 L16.43117404120361,22.74855527461084 z" stroke="none" fill="#7D7E7D" fill-rule="nonzero" id="svg_8"/>
            <path d="M20.683523153203616,22.66801835961084 C20.512805833001515,22.76666641605604 20.335160727371115,22.85279742517194 20.15197951420361,22.92573568224169 L20.15197951420361,22.92573568224169 L20.941241281203613,24.06935971416786 C21.543378103382395,23.814474230542242 22.066209903213014,23.40288388348154 22.455335283203613,22.87741272787254 C22.638874080273713,22.62830721756264 22.780345225162716,22.350804391023743 22.874127241203613,22.055936839167863 L22.874127241203613,22.055936839167863 L19.94258353520361,17.98076990661084 L19.958690918203615,17.96466252361084 C19.94258353520361,17.96466252361084 19.926476957572763,17.96466252361084 19.926476957572763,17.948555140610843 L19.926476957572763,17.948555140610843 L18.960033977572763,17.73915916161084 L18.960033977572763,15.04922620061084 L18.331845235203613,15.95123964861084 L17.671443337572764,15.00090405161084 L17.671443337572764,17.433118884610842 L17.317081716941914,17.35258196961084 C16.881392308805765,17.26402518861514 16.462675250136712,17.10632585535364 16.076812742720424,16.88546705724169 C15.815417299181524,16.74086061025174 15.602500729479214,16.522341892742027 15.464731061203613,16.25727992561084 C15.347550333100104,16.01069795899555 15.287011861611413,15.74102702529274 15.287549848203613,15.468018158610839 C15.282239244028514,15.106263249182991 15.389156347684423,14.75175070237343 15.593590608425103,14.45325302961084 C15.821154426858463,14.126106282222961 16.140682704235005,13.87384630202634 16.511710956203615,13.728420794610841 C16.576140488203613,13.69620602861084 16.64057002020361,13.68009864561084 16.704999552203613,13.647883879610841 L16.704999552203613,13.647883879610841 L15.915736979834463,12.552581835610841 C15.883522213834464,12.568689218610839 15.867414991908294,12.568689218610839 15.835200064834464,12.5847969237585 C15.207306892943365,12.86559660944984 14.671350958518174,13.31780977643654 14.288891618982124,13.88949542997999 C14.159587185842174,14.08121049573472 14.051566565376934,14.28645028669923 13.966743958982125,14.50157582290616 L13.966743958982125,14.50157582290616 L16.511710956203615,18.07741420461084 L16.141241147203615,18.576742272241688 C16.350637126203615,18.64117260961084 16.576140488203613,18.70560214161084 16.833858616203614,18.77003006287254 L16.833858616203614,18.77003006287254 L17.63922776620361,18.94721127587254 L17.63922776620361,20.94452837861084 L18.202986171203612,20.12305184561084 L18.94392578920361,21.18613912361084 L18.94392578920361,19.26936054661084 L19.652650641203614,19.43043437661084 C20.361375493203614,19.59150820661084 20.844596983203616,19.83311895161084 21.102315111203616,20.13915922861084 C21.413879576277296,20.518660447258938 21.546559955820214,21.014134823507042 21.46633874552701,21.49854906521819 C21.386115924495513,21.98296491766764 21.100793768879264,22.40921620473494 20.683523153203616,22.66801835961084 z" stroke="none" fill="#7D7E7D" fill-rule="nonzero" id="svg_9"/>
         </g>
      </g>
   </g>
</svg>
