<svg width="200" height="200" xmlns="http://www.w3.org/2000/svg" version="1.1">

 <g>
  <title>Layer 1</title>
  <g stroke="null" id="surface1">
   <path stroke="null" id="svg_1" fill="rgb(91.372549%,91.764706%,91.372549%)" fill-rule="nonzero" d="m199.62971,99.90988c0,27.56576 -9.71912,51.09579 -29.16316,70.58425c-19.4382,19.4943 -42.90758,29.23853 -70.40225,29.23853c-27.49469,0 -50.95822,-9.74422 -70.40227,-29.23853c-19.4382,-19.48846 -29.16314,-43.01849 -29.16314,-70.58425c0,-27.55991 9.72494,-51.08993 29.16314,-70.58424c19.44404,-19.48846 42.90758,-29.23269 70.40227,-29.23269c27.49467,0 50.96405,9.74422 70.40225,29.23269c19.44404,19.4943 29.16316,43.02433 29.16316,70.58424c0,1.16394 -0.02334,2.32786 -0.06417,3.48594"/>
   <path stroke="null" id="svg_2" fill="rgb(0%,0%,0%)" fill-rule="nonzero" d="m126.39222,151.49698l-25.52285,-36.84793l-24.99198,36.84793l-28.0664,0l39.15644,-53.86231l-37.2838,-52.11933l27.79804,0l24.3211,34.43233l23.9244,-34.43233l26.45628,0l-37.01545,51.18351l39.4248,54.79813l-28.20058,0zm0,0"/>
   <path stroke="null" id="svg_3" fill="rgb(49.019608%,49.411765%,49.019608%)" fill-rule="nonzero" d="m117.16899,63.20234c4.67872,2.67878 8.8207,7.23506 12.43182,13.52844l8.01564,-11.11871c-3.51778,-5.15871 -8.18482,-9.42254 -13.62775,-12.46396c-0.93925,-0.53223 -1.87265,-0.93582 -2.67188,-1.33939l-6.95389,10.04837c0.96257,0.39188 1.90181,0.84224 2.80605,1.34525zm0,0"/>
   <path stroke="null" id="svg_4" fill="rgb(49.019608%,49.411765%,49.019608%)" fill-rule="nonzero" d="m86.03402,136.36008c-3.23193,-1.49146 -6.20716,-3.48008 -8.8207,-5.89567c-2.92273,-2.82501 -5.4021,-6.07698 -7.35059,-9.65064l-8.55234,11.79134c2.16434,2.88935 4.62621,5.53889 7.35058,7.90768c3.07442,2.55596 6.49302,4.6791 10.15665,6.2934l7.2164,-10.4461zm0,0"/>
   <path stroke="null" id="svg_5" fill="rgb(49.019608%,49.411765%,49.019608%)" fill-rule="nonzero" d="m121.31683,135.68746c-1.41761,0.81885 -2.89356,1.53826 -4.41036,2.14069l6.54552,9.51612c4.99373,-2.12314 9.33407,-5.54473 12.56017,-9.91384c1.52846,-2.07635 2.70104,-4.38081 3.47695,-6.83734l-24.3211,-33.89424l0.13417,-0.13452c-0.13417,0 -0.26834,0 -0.26834,-0.13453l-8.02148,-1.74296l0,-22.3778l-5.20958,7.50411l-5.47794,-7.90184l0,20.23127l-2.94023,-0.67262c-3.61695,-0.73695 -7.08806,-2.0471 -10.29081,-3.88365c-2.17018,-1.20486 -3.93781,-3.02387 -5.08125,-5.22888c-0.9684,-2.04711 -1.47011,-4.29308 -1.47011,-6.56245c-0.04085,-3.01216 0.84589,-5.95999 2.54353,-8.43992c1.88432,-2.72559 4.53871,-4.81947 7.61311,-6.0302c0.5367,-0.26905 1.07342,-0.40357 1.6043,-0.67262l-6.54552,-9.1067c-0.26836,0.12868 -0.40255,0.12868 -0.67089,0.2632c-5.20958,2.33955 -9.65494,6.10038 -12.82853,10.85551c-1.07342,1.59675 -1.97182,3.30461 -2.67188,5.08853l21.11251,29.74739l-3.07441,4.15271c1.73847,0.53809 3.61111,1.07619 5.74628,1.60843l6.68553,1.47392l0,16.61666l4.67872,-6.83734l6.14299,8.8435l0,-15.94404l5.88047,1.33939c5.88047,1.33939 9.89412,3.3514 12.02929,5.89567c2.58436,3.1584 3.68696,7.28185 3.0219,11.31173c-0.66505,4.02988 -3.03357,7.57429 -6.49301,9.72668zm0,0"/>
  </g>
 </g>
</svg>