<svg xmlns="http://www.w3.org/2000/svg" width="125.001" height="125" viewBox="0 0 125.001 125">
  <g id="Group_6331" data-name="Group 6331" transform="translate(2746.076 -3322.11)">
    <g id="Group_6329" data-name="Group 6329" transform="translate(-1655.139 3422.042) rotate(90)">
      <path id="Path_6213-4" data-name="Path 6213-4" d="M4254.53,918.245a62.5,62.5,0,1,1-62.5,62.5h0A62.5,62.5,0,0,1,4254.53,918.245Z" transform="translate(-4291.962 47.692)"/>
    </g>
    <g id="Group_6330" data-name="Group 6330" transform="translate(-697.227 -383.847)">
      <path id="Ellipse_365" data-name="Ellipse 365" d="M28.5-7.5a36,36,0,1,1-36,36A36.041,36.041,0,0,1,28.5-7.5Zm0,57a21,21,0,1,0-21-21A21.024,21.024,0,0,0,28.5,49.5Z" transform="translate(-2014.806 3740)" fill="#e9eae9"/>
      <path id="Line_1" data-name="Line 1" d="M6.01,70.01-6.01,57.99l64-64L70.01,6.01Z" transform="translate(-2018.108 3736.957)" fill="#e9eae9"/>
    </g>
  </g>
</svg>
